<?xml version="1.0" encoding="UTF-8" standalone="no"?><svg xmlns="http://www.w3.org/2000/svg" xmlns:xlink="http://www.w3.org/1999/xlink" contentScriptType="application/ecmascript" contentStyleType="text/css" height="489.6px" preserveAspectRatio="none" style="width:1041px;height:489px;" version="1.1" viewBox="0 0 1041 489" width="1041.3px" zoomAndPan="magnify"><defs><filter height="300%" id="fof9ii28zlrf3" width="300%" x="-1" y="-1"><feGaussianBlur result="blurOut" stdDeviation="1.8"/><feColorMatrix in="blurOut" result="blurOut2" type="matrix" values="0 0 0 0 0 0 0 0 0 0 0 0 0 0 0 0 0 0 .4 0"/><feOffset dx="3.6" dy="3.6" in="blurOut2" result="blurOut3"/><feBlend in="SourceGraphic" in2="blurOut3" mode="normal"/></filter></defs><g><!--MD5=[02e4b9b7573f1156f41e60aa5b4e25a4]
class Company--><rect codeLine="6" fill="#FEFECE" filter="url(#fof9ii28zlrf3)" height="48.4523" id="Company" style="stroke:#A80036;stroke-width:1.35;" width="76.5" x="6.3" y="346.473"/><ellipse cx="19.8" cy="360.873" fill="#ADD1B2" rx="9.9" ry="9.9" style="stroke:#A80036;stroke-width:0.9;"/><path d="M21.6,357.723 Q21.7828,357.273 21.9938,357.048 Q22.2047,356.823 22.4438,356.823 Q22.8656,356.823 23.1328,357.0761 Q23.4,357.3293 23.4,357.9199 L23.4,359.3261 Q23.4,359.9168 23.1469,360.1699 Q22.8938,360.423 22.5,360.423 Q22.1484,360.423 21.9234,360.2683 Q21.6984,360.1136 21.6,359.7058 Q21.5578,359.4246 21.4031,359.2699 Q21.1219,358.9746 20.6156,358.8058 Q20.1094,358.623 19.6031,358.623 Q18.9703,358.623 18.4359,358.8761 Q17.9156,359.1293 17.5078,359.6918 Q17.1,360.2543 17.1,361.0277 L17.1,361.8574 Q17.1,362.7855 17.8594,363.4043 Q18.6188,364.023 19.9688,364.023 Q20.7703,364.023 21.3328,363.8402 Q21.6563,363.7418 22.0219,363.4183 Q22.2609,363.2355 22.3875,363.1793 Q22.5141,363.123 22.6688,363.123 Q22.9641,363.123 23.175,363.3621 Q23.4,363.5871 23.4,363.9105 Q23.4,364.2199 23.0906,364.5855 Q22.6406,365.1199 21.9234,365.4152 Q20.9813,365.823 19.8281,365.823 Q18.4781,365.823 17.3953,365.2886 Q16.5234,364.8668 15.9047,363.9527 Q15.3,363.0386 15.3,361.9558 L15.3,360.9714 Q15.3,359.8464 15.8344,358.8621 Q16.3828,357.8777 17.325,357.3574 Q18.2813,356.823 19.35,356.823 Q19.9969,356.823 20.5594,357.048 Q21.1219,357.273 21.6,357.723 Z " fill="#000000"/><text fill="#000000" font-family="sans-serif" font-size="10.8" lengthAdjust="spacing" textLength="47.7" x="32.4" y="365.2921">Company</text><line style="stroke:#A80036;stroke-width:1.35;" x1="7.2" x2="81.9" y1="375.273" y2="375.273"/><text fill="#000000" font-family="sans-serif" font-size="9.9" lengthAdjust="spacing" textLength="53.1" x="11.7" y="389.1501">-designation</text><!--MD5=[7421f545a0d8420c5bec41e74b387d9c]
class Employee--><rect codeLine="10" fill="#FEFECE" filter="url(#fof9ii28zlrf3)" height="110.7141" id="Employee" style="stroke:#A80036;stroke-width:1.35;" width="78.3" x="695.25" y="143.523"/><ellipse cx="708.75" cy="157.923" fill="#ADD1B2" rx="9.9" ry="9.9" style="stroke:#A80036;stroke-width:0.9;"/><path d="M710.55,154.773 Q710.7328,154.323 710.9438,154.098 Q711.1547,153.873 711.3938,153.873 Q711.8156,153.873 712.0828,154.1261 Q712.35,154.3793 712.35,154.9699 L712.35,156.3761 Q712.35,156.9668 712.0969,157.2199 Q711.8438,157.473 711.45,157.473 Q711.0984,157.473 710.8734,157.3183 Q710.6484,157.1636 710.55,156.7558 Q710.5078,156.4746 710.3531,156.3199 Q710.0719,156.0246 709.5656,155.8558 Q709.0594,155.673 708.5531,155.673 Q707.9203,155.673 707.3859,155.9261 Q706.8656,156.1793 706.4578,156.7418 Q706.05,157.3043 706.05,158.0777 L706.05,158.9074 Q706.05,159.8355 706.8094,160.4543 Q707.5688,161.073 708.9188,161.073 Q709.7203,161.073 710.2828,160.8902 Q710.6063,160.7918 710.9719,160.4683 Q711.2109,160.2855 711.3375,160.2293 Q711.4641,160.173 711.6188,160.173 Q711.9141,160.173 712.125,160.4121 Q712.35,160.6371 712.35,160.9605 Q712.35,161.2699 712.0406,161.6355 Q711.5906,162.1699 710.8734,162.4652 Q709.9313,162.873 708.7781,162.873 Q707.4281,162.873 706.3453,162.3386 Q705.4734,161.9168 704.8547,161.0027 Q704.25,160.0886 704.25,159.0058 L704.25,158.0214 Q704.25,156.8964 704.7844,155.9121 Q705.3328,154.9277 706.275,154.4074 Q707.2313,153.873 708.3,153.873 Q708.9469,153.873 709.5094,154.098 Q710.0719,154.323 710.55,154.773 Z " fill="#000000"/><text fill="#000000" font-family="sans-serif" font-size="10.8" lengthAdjust="spacing" textLength="49.5" x="721.35" y="162.3421">Employee</text><line style="stroke:#A80036;stroke-width:1.35;" x1="696.15" x2="772.65" y1="172.323" y2="172.323"/><text fill="#000000" font-family="sans-serif" font-size="9.9" lengthAdjust="spacing" textLength="52.2" x="700.65" y="186.2001">-employeeId</text><text fill="#000000" font-family="sans-serif" font-size="9.9" lengthAdjust="spacing" textLength="27" x="700.65" y="198.6524">-name</text><text fill="#000000" font-family="sans-serif" font-size="9.9" lengthAdjust="spacing" textLength="39.6" x="700.65" y="211.1047">-address</text><text fill="#000000" font-family="sans-serif" font-size="9.9" lengthAdjust="spacing" textLength="63.9" x="700.65" y="223.5571">-phoneNumber</text><text fill="#000000" font-family="sans-serif" font-size="9.9" lengthAdjust="spacing" textLength="25.2" x="700.65" y="236.0094">-email</text><text fill="#000000" font-family="sans-serif" font-size="9.9" lengthAdjust="spacing" textLength="42.3" x="700.65" y="248.4618">-socCode</text><!--MD5=[3fd616f346a44cd59a91eb10b19e157c]
class User--><rect codeLine="21" fill="#FEFECE" filter="url(#fof9ii28zlrf3)" height="73.357" id="User" style="stroke:#A80036;stroke-width:1.35;" width="59.4" x="946.8" y="214.173"/><ellipse cx="963.135" cy="228.573" fill="#ADD1B2" rx="9.9" ry="9.9" style="stroke:#A80036;stroke-width:0.9;"/><path d="M964.935,225.423 Q965.1178,224.973 965.3288,224.748 Q965.5397,224.523 965.7788,224.523 Q966.2006,224.523 966.4678,224.7761 Q966.735,225.0293 966.735,225.6199 L966.735,227.0261 Q966.735,227.6168 966.4819,227.8699 Q966.2288,228.123 965.835,228.123 Q965.4834,228.123 965.2584,227.9683 Q965.0334,227.8136 964.935,227.4058 Q964.8928,227.1246 964.7381,226.9699 Q964.4569,226.6746 963.9506,226.5058 Q963.4444,226.323 962.9381,226.323 Q962.3053,226.323 961.7709,226.5761 Q961.2506,226.8293 960.8428,227.3918 Q960.435,227.9543 960.435,228.7277 L960.435,229.5574 Q960.435,230.4855 961.1944,231.1043 Q961.9538,231.723 963.3038,231.723 Q964.1053,231.723 964.6678,231.5402 Q964.9913,231.4418 965.3569,231.1183 Q965.5959,230.9355 965.7225,230.8793 Q965.8491,230.823 966.0038,230.823 Q966.2991,230.823 966.51,231.0621 Q966.735,231.2871 966.735,231.6105 Q966.735,231.9199 966.4256,232.2855 Q965.9756,232.8199 965.2584,233.1152 Q964.3163,233.523 963.1631,233.523 Q961.8131,233.523 960.7303,232.9886 Q959.8584,232.5668 959.2397,231.6527 Q958.635,230.7386 958.635,229.6558 L958.635,228.6714 Q958.635,227.5464 959.1694,226.5621 Q959.7178,225.5777 960.66,225.0574 Q961.6163,224.523 962.685,224.523 Q963.3319,224.523 963.8944,224.748 Q964.4569,224.973 964.935,225.423 Z " fill="#000000"/><text fill="#000000" font-family="sans-serif" font-size="10.8" lengthAdjust="spacing" textLength="24.3" x="976.365" y="232.9921">User</text><line style="stroke:#A80036;stroke-width:1.35;" x1="947.7" x2="1005.3" y1="242.973" y2="242.973"/><text fill="#000000" font-family="sans-serif" font-size="9.9" lengthAdjust="spacing" textLength="27" x="952.2" y="256.8501">-name</text><text fill="#000000" font-family="sans-serif" font-size="9.9" lengthAdjust="spacing" textLength="25.2" x="952.2" y="269.3024">-email</text><text fill="#000000" font-family="sans-serif" font-size="9.9" lengthAdjust="spacing" textLength="48.6" x="952.2" y="281.7547">-password</text><!--MD5=[df38be88ccee13e832d6fafd6288a4ca]
class Test--><rect codeLine="27" fill="#FEFECE" filter="url(#fof9ii28zlrf3)" height="60.9047" id="Test" style="stroke:#A80036;stroke-width:1.35;" width="54.9" x="207.45" y="169.173"/><ellipse cx="222.975" cy="183.573" fill="#ADD1B2" rx="9.9" ry="9.9" style="stroke:#A80036;stroke-width:0.9;"/><path d="M224.775,180.423 Q224.9578,179.973 225.1688,179.748 Q225.3797,179.523 225.6188,179.523 Q226.0406,179.523 226.3078,179.7761 Q226.575,180.0293 226.575,180.6199 L226.575,182.0261 Q226.575,182.6168 226.3219,182.8699 Q226.0688,183.123 225.675,183.123 Q225.3234,183.123 225.0984,182.9683 Q224.8734,182.8136 224.775,182.4058 Q224.7328,182.1246 224.5781,181.9699 Q224.2969,181.6746 223.7906,181.5058 Q223.2844,181.323 222.7781,181.323 Q222.1453,181.323 221.6109,181.5761 Q221.0906,181.8293 220.6828,182.3918 Q220.275,182.9543 220.275,183.7277 L220.275,184.5574 Q220.275,185.4855 221.0344,186.1043 Q221.7938,186.723 223.1438,186.723 Q223.9453,186.723 224.5078,186.5402 Q224.8313,186.4418 225.1969,186.1183 Q225.4359,185.9355 225.5625,185.8793 Q225.6891,185.823 225.8438,185.823 Q226.1391,185.823 226.35,186.0621 Q226.575,186.2871 226.575,186.6105 Q226.575,186.9199 226.2656,187.2855 Q225.8156,187.8199 225.0984,188.1152 Q224.1563,188.523 223.0031,188.523 Q221.6531,188.523 220.5703,187.9886 Q219.6984,187.5668 219.0797,186.6527 Q218.475,185.7386 218.475,184.6558 L218.475,183.6714 Q218.475,182.5464 219.0094,181.5621 Q219.5578,180.5777 220.5,180.0574 Q221.4563,179.523 222.525,179.523 Q223.1719,179.523 223.7344,179.748 Q224.2969,179.973 224.775,180.423 Z " fill="#000000"/><text fill="#000000" font-family="sans-serif" font-size="10.8" lengthAdjust="spacing" textLength="21.6" x="236.025" y="187.9921">Test</text><line style="stroke:#A80036;stroke-width:1.35;" x1="208.35" x2="261.45" y1="197.973" y2="197.973"/><text fill="#000000" font-family="sans-serif" font-size="9.9" lengthAdjust="spacing" textLength="25.2" x="212.85" y="211.8501">-code</text><text fill="#000000" font-family="sans-serif" font-size="9.9" lengthAdjust="spacing" textLength="44.1" x="212.85" y="224.3024">-NHScode</text><!--MD5=[9681492165142af2a4a3a169d90ee8d4]
class Sample--><rect codeLine="32" fill="#FEFECE" filter="url(#fof9ii28zlrf3)" height="48.4523" id="Sample" style="stroke:#A80036;stroke-width:1.35;" width="67.5" x="416.25" y="100.773"/><ellipse cx="429.75" cy="115.173" fill="#ADD1B2" rx="9.9" ry="9.9" style="stroke:#A80036;stroke-width:0.9;"/><path d="M431.55,112.023 Q431.7328,111.573 431.9438,111.348 Q432.1547,111.123 432.3938,111.123 Q432.8156,111.123 433.0828,111.3761 Q433.35,111.6293 433.35,112.2199 L433.35,113.6261 Q433.35,114.2168 433.0969,114.4699 Q432.8438,114.723 432.45,114.723 Q432.0984,114.723 431.8734,114.5683 Q431.6484,114.4136 431.55,114.0058 Q431.5078,113.7246 431.3531,113.5699 Q431.0719,113.2746 430.5656,113.1058 Q430.0594,112.923 429.5531,112.923 Q428.9203,112.923 428.3859,113.1761 Q427.8656,113.4293 427.4578,113.9918 Q427.05,114.5543 427.05,115.3277 L427.05,116.1574 Q427.05,117.0855 427.8094,117.7043 Q428.5688,118.323 429.9188,118.323 Q430.7203,118.323 431.2828,118.1402 Q431.6063,118.0418 431.9719,117.7183 Q432.2109,117.5355 432.3375,117.4793 Q432.4641,117.423 432.6188,117.423 Q432.9141,117.423 433.125,117.6621 Q433.35,117.8871 433.35,118.2105 Q433.35,118.5199 433.0406,118.8855 Q432.5906,119.4199 431.8734,119.7152 Q430.9313,120.123 429.7781,120.123 Q428.4281,120.123 427.3453,119.5886 Q426.4734,119.1668 425.8547,118.2527 Q425.25,117.3386 425.25,116.2558 L425.25,115.2714 Q425.25,114.1464 425.7844,113.1621 Q426.3328,112.1777 427.275,111.6574 Q428.2313,111.123 429.3,111.123 Q429.9469,111.123 430.5094,111.348 Q431.0719,111.573 431.55,112.023 Z " fill="#000000"/><text fill="#000000" font-family="sans-serif" font-size="10.8" lengthAdjust="spacing" textLength="38.7" x="442.35" y="119.5921">Sample</text><line style="stroke:#A80036;stroke-width:1.35;" x1="417.15" x2="482.85" y1="129.573" y2="129.573"/><text fill="#000000" font-family="sans-serif" font-size="9.9" lengthAdjust="spacing" textLength="39.6" x="421.65" y="143.4501">-barcode</text><!--MD5=[aeb3272166074d8737a70b61b1e71682]
class TestType--><rect codeLine="37" fill="#FEFECE" filter="url(#fof9ii28zlrf3)" height="73.357" id="TestType" style="stroke:#A80036;stroke-width:1.35;" width="73.8" x="413.1" y="262.773"/><ellipse cx="426.6" cy="277.173" fill="#ADD1B2" rx="9.9" ry="9.9" style="stroke:#A80036;stroke-width:0.9;"/><path d="M428.4,274.023 Q428.5828,273.573 428.7938,273.348 Q429.0047,273.123 429.2438,273.123 Q429.6656,273.123 429.9328,273.3761 Q430.2,273.6293 430.2,274.2199 L430.2,275.6261 Q430.2,276.2168 429.9469,276.4699 Q429.6938,276.723 429.3,276.723 Q428.9484,276.723 428.7234,276.5683 Q428.4984,276.4136 428.4,276.0058 Q428.3578,275.7246 428.2031,275.5699 Q427.9219,275.2746 427.4156,275.1058 Q426.9094,274.923 426.4031,274.923 Q425.7703,274.923 425.2359,275.1761 Q424.7156,275.4293 424.3078,275.9918 Q423.9,276.5543 423.9,277.3277 L423.9,278.1574 Q423.9,279.0855 424.6594,279.7043 Q425.4188,280.323 426.7688,280.323 Q427.5703,280.323 428.1328,280.1402 Q428.4563,280.0418 428.8219,279.7183 Q429.0609,279.5355 429.1875,279.4793 Q429.3141,279.423 429.4688,279.423 Q429.7641,279.423 429.975,279.6621 Q430.2,279.8871 430.2,280.2105 Q430.2,280.5199 429.8906,280.8855 Q429.4406,281.4199 428.7234,281.7152 Q427.7813,282.123 426.6281,282.123 Q425.2781,282.123 424.1953,281.5886 Q423.3234,281.1668 422.7047,280.2527 Q422.1,279.3386 422.1,278.2558 L422.1,277.2714 Q422.1,276.1464 422.6344,275.1621 Q423.1828,274.1777 424.125,273.6574 Q425.0813,273.123 426.15,273.123 Q426.7969,273.123 427.3594,273.348 Q427.9219,273.573 428.4,274.023 Z " fill="#000000"/><text fill="#000000" font-family="sans-serif" font-size="10.8" lengthAdjust="spacing" textLength="45" x="439.2" y="281.5921">TestType</text><line style="stroke:#A80036;stroke-width:1.35;" x1="414" x2="486" y1="291.573" y2="291.573"/><text fill="#000000" font-family="sans-serif" font-size="9.9" lengthAdjust="spacing" textLength="53.1" x="418.5" y="305.4501">-designation</text><text fill="#000000" font-family="sans-serif" font-size="9.9" lengthAdjust="spacing" textLength="51.3" x="418.5" y="317.9024">-description</text><text fill="#000000" font-family="sans-serif" font-size="9.9" lengthAdjust="spacing" textLength="57.6" x="418.5" y="330.3547">-internalCode</text><!--MD5=[a999c1570c205a2156b04a15307bc1ff]
class LabOrder--><rect codeLine="44" fill="#FEFECE" filter="url(#fof9ii28zlrf3)" height="60.9047" id="LabOrder" style="stroke:#A80036;stroke-width:1.35;" width="75.6" x="6.75" y="217.773"/><ellipse cx="20.25" cy="232.173" fill="#ADD1B2" rx="9.9" ry="9.9" style="stroke:#A80036;stroke-width:0.9;"/><path d="M22.05,229.023 Q22.2328,228.573 22.4438,228.348 Q22.6547,228.123 22.8938,228.123 Q23.3156,228.123 23.5828,228.3761 Q23.85,228.6293 23.85,229.2199 L23.85,230.6261 Q23.85,231.2168 23.5969,231.4699 Q23.3438,231.723 22.95,231.723 Q22.5984,231.723 22.3734,231.5683 Q22.1484,231.4136 22.05,231.0058 Q22.0078,230.7246 21.8531,230.5699 Q21.5719,230.2746 21.0656,230.1058 Q20.5594,229.923 20.0531,229.923 Q19.4203,229.923 18.8859,230.1761 Q18.3656,230.4293 17.9578,230.9918 Q17.55,231.5543 17.55,232.3277 L17.55,233.1574 Q17.55,234.0855 18.3094,234.7043 Q19.0688,235.323 20.4188,235.323 Q21.2203,235.323 21.7828,235.1402 Q22.1063,235.0418 22.4719,234.7183 Q22.7109,234.5355 22.8375,234.4793 Q22.9641,234.423 23.1188,234.423 Q23.4141,234.423 23.625,234.6621 Q23.85,234.8871 23.85,235.2105 Q23.85,235.5199 23.5406,235.8855 Q23.0906,236.4199 22.3734,236.7152 Q21.4313,237.123 20.2781,237.123 Q18.9281,237.123 17.8453,236.5886 Q16.9734,236.1668 16.3547,235.2527 Q15.75,234.3386 15.75,233.2558 L15.75,232.2714 Q15.75,231.1464 16.2844,230.1621 Q16.8328,229.1777 17.775,228.6574 Q18.7313,228.123 19.8,228.123 Q20.4469,228.123 21.0094,228.348 Q21.5719,228.573 22.05,229.023 Z " fill="#000000"/><text fill="#000000" font-family="sans-serif" font-size="10.8" lengthAdjust="spacing" textLength="46.8" x="32.85" y="236.5921">LabOrder</text><line style="stroke:#A80036;stroke-width:1.35;" x1="7.65" x2="81.45" y1="246.573" y2="246.573"/><text fill="#000000" font-family="sans-serif" font-size="9.9" lengthAdjust="spacing" textLength="41.4" x="12.15" y="260.4501">-testType</text><text fill="#000000" font-family="sans-serif" font-size="9.9" lengthAdjust="spacing" textLength="53.1" x="12.15" y="272.9024">-Parameters</text><!--MD5=[e59bda2572a266093cda22ac34510ea0]
class Barcode--><rect codeLine="48" fill="#FEFECE" filter="url(#fof9ii28zlrf3)" height="48.4523" id="Barcode" style="stroke:#A80036;stroke-width:1.35;" width="70.2" x="699.3" y="62.973"/><ellipse cx="712.8" cy="77.373" fill="#ADD1B2" rx="9.9" ry="9.9" style="stroke:#A80036;stroke-width:0.9;"/><path d="M714.6,74.223 Q714.7828,73.773 714.9938,73.548 Q715.2047,73.323 715.4438,73.323 Q715.8656,73.323 716.1328,73.5761 Q716.4,73.8293 716.4,74.4199 L716.4,75.8261 Q716.4,76.4168 716.1469,76.6699 Q715.8938,76.923 715.5,76.923 Q715.1484,76.923 714.9234,76.7683 Q714.6984,76.6136 714.6,76.2058 Q714.5578,75.9246 714.4031,75.7699 Q714.1219,75.4746 713.6156,75.3058 Q713.1094,75.123 712.6031,75.123 Q711.9703,75.123 711.4359,75.3761 Q710.9156,75.6293 710.5078,76.1918 Q710.1,76.7543 710.1,77.5277 L710.1,78.3574 Q710.1,79.2855 710.8594,79.9043 Q711.6188,80.523 712.9688,80.523 Q713.7703,80.523 714.3328,80.3402 Q714.6563,80.2418 715.0219,79.9183 Q715.2609,79.7355 715.3875,79.6793 Q715.5141,79.623 715.6688,79.623 Q715.9641,79.623 716.175,79.8621 Q716.4,80.0871 716.4,80.4105 Q716.4,80.7199 716.0906,81.0855 Q715.6406,81.6199 714.9234,81.9152 Q713.9813,82.323 712.8281,82.323 Q711.4781,82.323 710.3953,81.7886 Q709.5234,81.3668 708.9047,80.4527 Q708.3,79.5386 708.3,78.4558 L708.3,77.4714 Q708.3,76.3464 708.8344,75.3621 Q709.3828,74.3777 710.325,73.8574 Q711.2813,73.323 712.35,73.323 Q712.9969,73.323 713.5594,73.548 Q714.1219,73.773 714.6,74.223 Z " fill="#000000"/><text fill="#000000" font-family="sans-serif" font-size="10.8" lengthAdjust="spacing" textLength="41.4" x="725.4" y="81.7921">Barcode</text><line style="stroke:#A80036;stroke-width:1.35;" x1="700.2" x2="768.6" y1="91.773" y2="91.773"/><text fill="#000000" font-family="sans-serif" font-size="9.9" lengthAdjust="spacing" textLength="42.3" x="704.7" y="105.6501">-upcCode</text><!--MD5=[8f188b89eff49accb0f38c057b38a9f2]
class ExternalModule--><rect fill="#FEFECE" filter="url(#fof9ii28zlrf3)" height="36" id="ExternalModule" style="stroke:#A80036;stroke-width:1.35;" width="104.4" x="924.3" y="320.373"/><ellipse cx="937.8" cy="334.773" fill="#ADD1B2" rx="9.9" ry="9.9" style="stroke:#A80036;stroke-width:0.9;"/><path d="M939.6,331.623 Q939.7828,331.173 939.9938,330.948 Q940.2047,330.723 940.4438,330.723 Q940.8656,330.723 941.1328,330.9761 Q941.4,331.2293 941.4,331.8199 L941.4,333.2261 Q941.4,333.8168 941.1469,334.0699 Q940.8938,334.323 940.5,334.323 Q940.1484,334.323 939.9234,334.1683 Q939.6984,334.0136 939.6,333.6058 Q939.5578,333.3246 939.4031,333.1699 Q939.1219,332.8746 938.6156,332.7058 Q938.1094,332.523 937.6031,332.523 Q936.9703,332.523 936.4359,332.7761 Q935.9156,333.0293 935.5078,333.5918 Q935.1,334.1543 935.1,334.9277 L935.1,335.7574 Q935.1,336.6855 935.8594,337.3043 Q936.6188,337.923 937.9688,337.923 Q938.7703,337.923 939.3328,337.7402 Q939.6563,337.6418 940.0219,337.3183 Q940.2609,337.1355 940.3875,337.0793 Q940.5141,337.023 940.6688,337.023 Q940.9641,337.023 941.175,337.2621 Q941.4,337.4871 941.4,337.8105 Q941.4,338.1199 941.0906,338.4855 Q940.6406,339.0199 939.9234,339.3152 Q938.9813,339.723 937.8281,339.723 Q936.4781,339.723 935.3953,339.1886 Q934.5234,338.7668 933.9047,337.8527 Q933.3,336.9386 933.3,335.8558 L933.3,334.8714 Q933.3,333.7464 933.8344,332.7621 Q934.3828,331.7777 935.325,331.2574 Q936.2813,330.723 937.35,330.723 Q937.9969,330.723 938.5594,330.948 Q939.1219,331.173 939.6,331.623 Z " fill="#000000"/><text fill="#000000" font-family="sans-serif" font-size="10.8" lengthAdjust="spacing" textLength="75.6" x="950.4" y="339.1921">ExternalModule</text><line style="stroke:#A80036;stroke-width:1.35;" x1="925.2" x2="1027.8" y1="349.173" y2="349.173"/><!--MD5=[1f6362a5c8f21d8d6a0fce68f3a92a4e]
class Parameter--><rect fill="#FEFECE" filter="url(#fof9ii28zlrf3)" height="36" id="Parameter" style="stroke:#A80036;stroke-width:1.35;" width="81" x="194.4" y="433.773"/><ellipse cx="207.9" cy="448.173" fill="#ADD1B2" rx="9.9" ry="9.9" style="stroke:#A80036;stroke-width:0.9;"/><path d="M209.7,445.023 Q209.8828,444.573 210.0938,444.348 Q210.3047,444.123 210.5438,444.123 Q210.9656,444.123 211.2328,444.3761 Q211.5,444.6293 211.5,445.2199 L211.5,446.6261 Q211.5,447.2168 211.2469,447.4699 Q210.9938,447.723 210.6,447.723 Q210.2484,447.723 210.0234,447.5683 Q209.7984,447.4136 209.7,447.0058 Q209.6578,446.7246 209.5031,446.5699 Q209.2219,446.2746 208.7156,446.1058 Q208.2094,445.923 207.7031,445.923 Q207.0703,445.923 206.5359,446.1761 Q206.0156,446.4293 205.6078,446.9918 Q205.2,447.5543 205.2,448.3277 L205.2,449.1574 Q205.2,450.0855 205.9594,450.7043 Q206.7188,451.323 208.0688,451.323 Q208.8703,451.323 209.4328,451.1402 Q209.7563,451.0418 210.1219,450.7183 Q210.3609,450.5355 210.4875,450.4793 Q210.6141,450.423 210.7688,450.423 Q211.0641,450.423 211.275,450.6621 Q211.5,450.8871 211.5,451.2105 Q211.5,451.5199 211.1906,451.8855 Q210.7406,452.4199 210.0234,452.7152 Q209.0813,453.123 207.9281,453.123 Q206.5781,453.123 205.4953,452.5886 Q204.6234,452.1668 204.0047,451.2527 Q203.4,450.3386 203.4,449.2558 L203.4,448.2714 Q203.4,447.1464 203.9344,446.1621 Q204.4828,445.1777 205.425,444.6574 Q206.3813,444.123 207.45,444.123 Q208.0969,444.123 208.6594,444.348 Q209.2219,444.573 209.7,445.023 Z " fill="#000000"/><text fill="#000000" font-family="sans-serif" font-size="10.8" lengthAdjust="spacing" textLength="52.2" x="220.5" y="452.5921">Parameter</text><line style="stroke:#A80036;stroke-width:1.35;" x1="195.3" x2="274.5" y1="462.573" y2="462.573"/><!--MD5=[36afb6bbd95a8ac778c4537c55a683d5]
class ParameterCategory--><rect fill="#FEFECE" filter="url(#fof9ii28zlrf3)" height="36" id="ParameterCategory" style="stroke:#A80036;stroke-width:1.35;" width="125.1" x="387.45" y="441.873"/><ellipse cx="400.95" cy="456.273" fill="#ADD1B2" rx="9.9" ry="9.9" style="stroke:#A80036;stroke-width:0.9;"/><path d="M402.75,453.123 Q402.9328,452.673 403.1438,452.448 Q403.3547,452.223 403.5938,452.223 Q404.0156,452.223 404.2828,452.4761 Q404.55,452.7293 404.55,453.3199 L404.55,454.7261 Q404.55,455.3168 404.2969,455.5699 Q404.0438,455.823 403.65,455.823 Q403.2984,455.823 403.0734,455.6683 Q402.8484,455.5136 402.75,455.1058 Q402.7078,454.8246 402.5531,454.6699 Q402.2719,454.3746 401.7656,454.2058 Q401.2594,454.023 400.7531,454.023 Q400.1203,454.023 399.5859,454.2761 Q399.0656,454.5293 398.6578,455.0918 Q398.25,455.6543 398.25,456.4277 L398.25,457.2574 Q398.25,458.1855 399.0094,458.8043 Q399.7688,459.423 401.1188,459.423 Q401.9203,459.423 402.4828,459.2402 Q402.8063,459.1418 403.1719,458.8183 Q403.4109,458.6355 403.5375,458.5793 Q403.6641,458.523 403.8188,458.523 Q404.1141,458.523 404.325,458.7621 Q404.55,458.9871 404.55,459.3105 Q404.55,459.6199 404.2406,459.9855 Q403.7906,460.5199 403.0734,460.8152 Q402.1313,461.223 400.9781,461.223 Q399.6281,461.223 398.5453,460.6886 Q397.6734,460.2668 397.0547,459.3527 Q396.45,458.4386 396.45,457.3558 L396.45,456.3714 Q396.45,455.2464 396.9844,454.2621 Q397.5328,453.2777 398.475,452.7574 Q399.4313,452.223 400.5,452.223 Q401.1469,452.223 401.7094,452.448 Q402.2719,452.673 402.75,453.123 Z " fill="#000000"/><text fill="#000000" font-family="sans-serif" font-size="10.8" lengthAdjust="spacing" textLength="96.3" x="413.55" y="460.6921">ParameterCategory</text><line style="stroke:#A80036;stroke-width:1.35;" x1="388.35" x2="511.65" y1="470.673" y2="470.673"/><!--MD5=[4e608140b854dae633589343bce77383]
class TestParameterResult--><rect fill="#FEFECE" filter="url(#fof9ii28zlrf3)" height="36" id="TestParameterResult" style="stroke:#A80036;stroke-width:1.35;" width="135" x="382.5" y="370.773"/><ellipse cx="396" cy="385.173" fill="#ADD1B2" rx="9.9" ry="9.9" style="stroke:#A80036;stroke-width:0.9;"/><path d="M397.8,382.023 Q397.9828,381.573 398.1938,381.348 Q398.4047,381.123 398.6438,381.123 Q399.0656,381.123 399.3328,381.3761 Q399.6,381.6293 399.6,382.2199 L399.6,383.6261 Q399.6,384.2168 399.3469,384.4699 Q399.0938,384.723 398.7,384.723 Q398.3484,384.723 398.1234,384.5683 Q397.8984,384.4136 397.8,384.0058 Q397.7578,383.7246 397.6031,383.5699 Q397.3219,383.2746 396.8156,383.1058 Q396.3094,382.923 395.8031,382.923 Q395.1703,382.923 394.6359,383.1761 Q394.1156,383.4293 393.7078,383.9918 Q393.3,384.5543 393.3,385.3277 L393.3,386.1574 Q393.3,387.0855 394.0594,387.7043 Q394.8188,388.323 396.1688,388.323 Q396.9703,388.323 397.5328,388.1402 Q397.8563,388.0418 398.2219,387.7183 Q398.4609,387.5355 398.5875,387.4793 Q398.7141,387.423 398.8688,387.423 Q399.1641,387.423 399.375,387.6621 Q399.6,387.8871 399.6,388.2105 Q399.6,388.5199 399.2906,388.8855 Q398.8406,389.4199 398.1234,389.7152 Q397.1813,390.123 396.0281,390.123 Q394.6781,390.123 393.5953,389.5886 Q392.7234,389.1668 392.1047,388.2527 Q391.5,387.3386 391.5,386.2558 L391.5,385.2714 Q391.5,384.1464 392.0344,383.1621 Q392.5828,382.1777 393.525,381.6574 Q394.4813,381.123 395.55,381.123 Q396.1969,381.123 396.7594,381.348 Q397.3219,381.573 397.8,382.023 Z " fill="#000000"/><text fill="#000000" font-family="sans-serif" font-size="10.8" lengthAdjust="spacing" textLength="106.2" x="408.6" y="389.5921">TestParameterResult</text><line style="stroke:#A80036;stroke-width:1.35;" x1="383.4" x2="516.6" y1="399.573" y2="399.573"/><!--MD5=[1c357e7e7fdba398bcadd6e61afe49f5]
class ReferenceValue--><rect fill="#FEFECE" filter="url(#fof9ii28zlrf3)" height="36" id="ReferenceValue" style="stroke:#A80036;stroke-width:1.35;" width="108" x="680.4" y="367.173"/><ellipse cx="693.9" cy="381.573" fill="#ADD1B2" rx="9.9" ry="9.9" style="stroke:#A80036;stroke-width:0.9;"/><path d="M695.7,378.423 Q695.8828,377.973 696.0938,377.748 Q696.3047,377.523 696.5438,377.523 Q696.9656,377.523 697.2328,377.7761 Q697.5,378.0293 697.5,378.6199 L697.5,380.0261 Q697.5,380.6168 697.2469,380.8699 Q696.9938,381.123 696.6,381.123 Q696.2484,381.123 696.0234,380.9683 Q695.7984,380.8136 695.7,380.4058 Q695.6578,380.1246 695.5031,379.9699 Q695.2219,379.6746 694.7156,379.5058 Q694.2094,379.323 693.7031,379.323 Q693.0703,379.323 692.5359,379.5761 Q692.0156,379.8293 691.6078,380.3918 Q691.2,380.9543 691.2,381.7277 L691.2,382.5574 Q691.2,383.4855 691.9594,384.1043 Q692.7188,384.723 694.0688,384.723 Q694.8703,384.723 695.4328,384.5402 Q695.7563,384.4418 696.1219,384.1183 Q696.3609,383.9355 696.4875,383.8793 Q696.6141,383.823 696.7688,383.823 Q697.0641,383.823 697.275,384.0621 Q697.5,384.2871 697.5,384.6105 Q697.5,384.9199 697.1906,385.2855 Q696.7406,385.8199 696.0234,386.1152 Q695.0813,386.523 693.9281,386.523 Q692.5781,386.523 691.4953,385.9886 Q690.6234,385.5668 690.0047,384.6527 Q689.4,383.7386 689.4,382.6558 L689.4,381.6714 Q689.4,380.5464 689.9344,379.5621 Q690.4828,378.5777 691.425,378.0574 Q692.3813,377.523 693.45,377.523 Q694.0969,377.523 694.6594,377.748 Q695.2219,377.973 695.7,378.423 Z " fill="#000000"/><text fill="#000000" font-family="sans-serif" font-size="10.8" lengthAdjust="spacing" textLength="79.2" x="706.5" y="385.9921">ReferenceValue</text><line style="stroke:#A80036;stroke-width:1.35;" x1="681.3" x2="787.5" y1="395.973" y2="395.973"/><!--MD5=[c787e3ea7cba08b6686a91ad4338f70b]
class ApiBarcode--><rect fill="#FEFECE" filter="url(#fof9ii28zlrf3)" height="36" id="ApiBarcode" style="stroke:#A80036;stroke-width:1.35;" width="85.5" x="933.75" y="65.673"/><ellipse cx="947.25" cy="80.073" fill="#ADD1B2" rx="9.9" ry="9.9" style="stroke:#A80036;stroke-width:0.9;"/><path d="M949.05,76.923 Q949.2328,76.473 949.4438,76.248 Q949.6547,76.023 949.8938,76.023 Q950.3156,76.023 950.5828,76.2761 Q950.85,76.5293 950.85,77.1199 L950.85,78.5261 Q950.85,79.1168 950.5969,79.3699 Q950.3438,79.623 949.95,79.623 Q949.5984,79.623 949.3734,79.4683 Q949.1484,79.3136 949.05,78.9058 Q949.0078,78.6246 948.8531,78.4699 Q948.5719,78.1746 948.0656,78.0058 Q947.5594,77.823 947.0531,77.823 Q946.4203,77.823 945.8859,78.0761 Q945.3656,78.3293 944.9578,78.8918 Q944.55,79.4543 944.55,80.2277 L944.55,81.0574 Q944.55,81.9855 945.3094,82.6043 Q946.0688,83.223 947.4188,83.223 Q948.2203,83.223 948.7828,83.0402 Q949.1063,82.9418 949.4719,82.6183 Q949.7109,82.4355 949.8375,82.3793 Q949.9641,82.323 950.1188,82.323 Q950.4141,82.323 950.625,82.5621 Q950.85,82.7871 950.85,83.1105 Q950.85,83.4199 950.5406,83.7855 Q950.0906,84.3199 949.3734,84.6152 Q948.4313,85.023 947.2781,85.023 Q945.9281,85.023 944.8453,84.4886 Q943.9734,84.0668 943.3547,83.1527 Q942.75,82.2386 942.75,81.1558 L942.75,80.1714 Q942.75,79.0464 943.2844,78.0621 Q943.8328,77.0777 944.775,76.5574 Q945.7313,76.023 946.8,76.023 Q947.4469,76.023 948.0094,76.248 Q948.5719,76.473 949.05,76.923 Z " fill="#000000"/><text fill="#000000" font-family="sans-serif" font-size="10.8" lengthAdjust="spacing" textLength="56.7" x="959.85" y="84.4921">ApiBarcode</text><line style="stroke:#A80036;stroke-width:1.35;" x1="934.65" x2="1018.35" y1="94.473" y2="94.473"/><!--MD5=[f00dbe8c0302c6aec2cb26b3c659c8fc]
class Report--><rect fill="#FEFECE" filter="url(#fof9ii28zlrf3)" height="36" id="Report" style="stroke:#A80036;stroke-width:1.35;" width="62.1" x="945.45" y="133.173"/><ellipse cx="958.95" cy="147.573" fill="#ADD1B2" rx="9.9" ry="9.9" style="stroke:#A80036;stroke-width:0.9;"/><path d="M960.75,144.423 Q960.9328,143.973 961.1438,143.748 Q961.3547,143.523 961.5938,143.523 Q962.0156,143.523 962.2828,143.7761 Q962.55,144.0293 962.55,144.6199 L962.55,146.0261 Q962.55,146.6168 962.2969,146.8699 Q962.0438,147.123 961.65,147.123 Q961.2984,147.123 961.0734,146.9683 Q960.8484,146.8136 960.75,146.4058 Q960.7078,146.1246 960.5531,145.9699 Q960.2719,145.6746 959.7656,145.5058 Q959.2594,145.323 958.7531,145.323 Q958.1203,145.323 957.5859,145.5761 Q957.0656,145.8293 956.6578,146.3918 Q956.25,146.9543 956.25,147.7277 L956.25,148.5574 Q956.25,149.4855 957.0094,150.1043 Q957.7688,150.723 959.1188,150.723 Q959.9203,150.723 960.4828,150.5402 Q960.8063,150.4418 961.1719,150.1183 Q961.4109,149.9355 961.5375,149.8793 Q961.6641,149.823 961.8188,149.823 Q962.1141,149.823 962.325,150.0621 Q962.55,150.2871 962.55,150.6105 Q962.55,150.9199 962.2406,151.2855 Q961.7906,151.8199 961.0734,152.1152 Q960.1313,152.523 958.9781,152.523 Q957.6281,152.523 956.5453,151.9886 Q955.6734,151.5668 955.0547,150.6527 Q954.45,149.7386 954.45,148.6558 L954.45,147.6714 Q954.45,146.5464 954.9844,145.5621 Q955.5328,144.5777 956.475,144.0574 Q957.4313,143.523 958.5,143.523 Q959.1469,143.523 959.7094,143.748 Q960.2719,143.973 960.75,144.423 Z " fill="#000000"/><text fill="#000000" font-family="sans-serif" font-size="10.8" lengthAdjust="spacing" textLength="33.3" x="971.55" y="151.9921">Report</text><line style="stroke:#A80036;stroke-width:1.35;" x1="946.35" x2="1006.65" y1="161.973" y2="161.973"/><!--MD5=[742a261f27a3dcd734c626287d811acd]
link Company to TestType--><path codeLine="52" d="M83.061,364.149 C160.47,350.514 336.699,319.473 412.893,306.054 " fill="none" id="Company-TestType" style="stroke:#A80036;stroke-width:0.9;"/><text fill="#000000" font-family="sans-serif" font-size="11.7" lengthAdjust="spacing" textLength="26.1" x="221.85" y="327.1186">has&gt;</text><text fill="#000000" font-family="sans-serif" font-size="11.7" lengthAdjust="spacing" textLength="6.3" x="89.9611" y="376.4284">1</text><text fill="#000000" font-family="sans-serif" font-size="11.7" lengthAdjust="spacing" textLength="4.5" x="401.3825" y="320.6864">*</text><!--MD5=[71e6920dcc27afae8f25537cd5357b5f]
link TestType to ExternalModule--><path codeLine="54" d="M487.08,301.968 C563.094,306.837 744.939,318.798 897.3,331.173 C906.012,331.884 915.255,332.685 924.228,333.495 " fill="none" id="TestType-ExternalModule" style="stroke:#A80036;stroke-width:0.9;"/><text fill="#000000" font-family="sans-serif" font-size="11.7" lengthAdjust="spacing" textLength="57.6" x="705.6" y="311.8186">makes use</text><text fill="#000000" font-family="sans-serif" font-size="11.7" lengthAdjust="spacing" textLength="6.3" x="493.9945" y="315.8108">1</text><text fill="#000000" font-family="sans-serif" font-size="11.7" lengthAdjust="spacing" textLength="6.3" x="910.8271" y="345.9584">1</text><!--MD5=[12d76240d3c3c66074d4ec2ea8bf469c]
link Company to Parameter--><path codeLine="56" d="M81.729,395.1 C90.684,400.545 100.413,405.99 109.8,410.373 C137.088,423.117 169.398,433.755 194.229,441.063 " fill="none" id="Company-Parameter" style="stroke:#A80036;stroke-width:0.9;"/><text fill="#000000" font-family="sans-serif" font-size="11.7" lengthAdjust="spacing" textLength="18.9" x="129.15" y="407.2186">has</text><text fill="#000000" font-family="sans-serif" font-size="11.7" lengthAdjust="spacing" textLength="6.3" x="82.8728" y="414.1929">1</text><text fill="#000000" font-family="sans-serif" font-size="11.7" lengthAdjust="spacing" textLength="4.5" x="182.6202" y="452.6535">*</text><!--MD5=[6df8849671cb880f6936e94aa30db6f9]
link Parameter to ParameterCategory--><path codeLine="58" d="M275.472,459.279 C284.301,460.647 293.643,461.871 302.4,462.573 C330.201,464.814 361.062,464.643 387.27,463.716 " fill="none" id="Parameter-ParameterCategory" style="stroke:#A80036;stroke-width:0.9;"/><text fill="#000000" font-family="sans-serif" font-size="11.7" lengthAdjust="spacing" textLength="23.4" x="317.25" y="459.4186">have</text><text fill="#000000" font-family="sans-serif" font-size="11.7" lengthAdjust="spacing" textLength="6.3" x="282.7135" y="473.8865">1</text><text fill="#000000" font-family="sans-serif" font-size="11.7" lengthAdjust="spacing" textLength="6.3" x="373.7644" y="477.0867">1</text><!--MD5=[7e4bc624457760b649895ff2ead938fa]
link Company to Test--><path codeLine="60" d="M72.468,346.275 C108.414,313.677 171.576,256.392 207.342,223.956 " fill="none" id="Company-Test" style="stroke:#A80036;stroke-width:0.9;"/><text fill="#000000" font-family="sans-serif" font-size="11.7" lengthAdjust="spacing" textLength="32.4" x="122.4" y="262.3186">does&gt;</text><text fill="#000000" font-family="sans-serif" font-size="11.7" lengthAdjust="spacing" textLength="6.3" x="71.8956" y="336.7441">1</text><text fill="#000000" font-family="sans-serif" font-size="11.7" lengthAdjust="spacing" textLength="4.5" x="195.5763" y="243.8258">*</text><!--MD5=[b72ac8ab7fb5921fceb5036a3902baea]
link Test to Sample--><path codeLine="61" d="M262.575,188.901 C274.68,184.086 289.206,178.443 302.4,173.673 C341.136,159.678 386.163,144.999 416.007,135.477 " fill="none" id="Test-Sample" style="stroke:#A80036;stroke-width:0.9;"/><text fill="#000000" font-family="sans-serif" font-size="11.7" lengthAdjust="spacing" textLength="26.1" x="315.9" y="152.5186">has&gt;</text><text fill="#000000" font-family="sans-serif" font-size="11.7" lengthAdjust="spacing" textLength="6.3" x="269.7033" y="182.5382">1</text><text fill="#000000" font-family="sans-serif" font-size="11.7" lengthAdjust="spacing" textLength="6.3" x="402.8588" y="150.9111">1</text><!--MD5=[2fe054cd67471b8fea8c71114980d435]
link Test to Employee--><path codeLine="62" d="M262.557,199.728 C345.438,199.575 598.149,199.116 695.088,198.945 " fill="none" id="Test-Employee" style="stroke:#A80036;stroke-width:0.9;"/><text fill="#000000" font-family="sans-serif" font-size="11.7" lengthAdjust="spacing" textLength="87.3" x="406.35" y="196.6186">is performed by&gt;</text><text fill="#000000" font-family="sans-serif" font-size="11.7" lengthAdjust="spacing" textLength="4.5" x="269.473" y="213.5989">*</text><text fill="#000000" font-family="sans-serif" font-size="11.7" lengthAdjust="spacing" textLength="6.3" x="681.7552" y="212.3201">1</text><!--MD5=[e981d4f96c4342412d1e68160b30cf70]
link Test to TestType--><path codeLine="63" d="M262.368,215.298 C274.437,222.138 288.99,230.103 302.4,236.673 C339.48,254.853 383.094,273.213 413.073,285.381 " fill="none" id="Test-TestType" style="stroke:#A80036;stroke-width:0.9;"/><text fill="#000000" font-family="sans-serif" font-size="11.7" lengthAdjust="spacing" textLength="28.8" x="314.55" y="233.5186">is of&gt;</text><text fill="#000000" font-family="sans-serif" font-size="11.7" lengthAdjust="spacing" textLength="6.3" x="269.4484" y="232.7695">1</text><text fill="#000000" font-family="sans-serif" font-size="11.7" lengthAdjust="spacing" textLength="6.3" x="399.6343" y="279.366">1</text><!--MD5=[22fb9506fac029fc1d2ae00f0eb8d606]
link Employee to User--><path codeLine="64" d="M773.955,218.664 C786.834,224.487 801.459,230.274 815.4,233.973 C860.274,245.898 914.31,249.543 946.764,250.641 " fill="none" id="Employee-User" style="stroke:#A80036;stroke-width:0.9;"/><polygon fill="#000000" points="834.2249,226.85,826.7015,222.7679,825.7389,227.9697,834.2249,226.85" style="stroke:#000000;stroke-width:0.9;"/><text fill="#000000" font-family="sans-serif" font-size="11.7" lengthAdjust="spacing" textLength="48.6" x="837.9" y="230.8186">relates to</text><text fill="#000000" font-family="sans-serif" font-size="11.7" lengthAdjust="spacing" textLength="19.8" x="780.6005" y="234.4568">0..1</text><text fill="#000000" font-family="sans-serif" font-size="11.7" lengthAdjust="spacing" textLength="6.3" x="933.2702" y="264.3502">1</text><!--MD5=[c550c0fb93424651c0337773082e9cc5]
link Sample to Employee--><path codeLine="65" d="M483.903,133.461 C524.007,143.685 593.721,161.541 653.4,177.273 C667.044,180.873 681.984,184.887 695.223,188.46 " fill="none" id="Sample-Employee" style="stroke:#A80036;stroke-width:0.9;"/><text fill="#000000" font-family="sans-serif" font-size="11.7" lengthAdjust="spacing" textLength="81" x="558.45" y="147.1186">is recorded by&gt;</text><text fill="#000000" font-family="sans-serif" font-size="11.7" lengthAdjust="spacing" textLength="4.5" x="491.0206" y="148.7212">*</text><text fill="#000000" font-family="sans-serif" font-size="11.7" lengthAdjust="spacing" textLength="18" x="670.147" y="183.6409">1..*</text><!--MD5=[84a279e28ad6c3248737114c29c49c27]
link LabOrder to Test--><path codeLine="66" d="M82.701,238.77 C119.403,229.311 174.582,215.091 207.18,206.685 " fill="none" id="LabOrder-Test" style="stroke:#A80036;stroke-width:0.9;"/><text fill="#000000" font-family="sans-serif" font-size="11.7" lengthAdjust="spacing" textLength="55.8" x="110.7" y="215.5186">gives rise&gt;</text><text fill="#000000" font-family="sans-serif" font-size="11.7" lengthAdjust="spacing" textLength="6.3" x="89.5415" y="250.5683">1</text><text fill="#000000" font-family="sans-serif" font-size="11.7" lengthAdjust="spacing" textLength="6.3" x="194.1272" y="221.9845">1</text><!--MD5=[327391d6abe62f0446af3ffbf41cf7ec]
link Sample to Barcode--><path codeLine="68" d="M483.867,120.663 C537.741,113.463 644.121,99.234 698.976,91.89 " fill="none" id="Sample-Barcode" style="stroke:#A80036;stroke-width:0.9;"/><text fill="#000000" font-family="sans-serif" font-size="11.7" lengthAdjust="spacing" textLength="26.1" x="585.9" y="95.8186">has&gt;</text><text fill="#000000" font-family="sans-serif" font-size="11.7" lengthAdjust="spacing" textLength="6.3" x="490.9234" y="116.2397">1</text><text fill="#000000" font-family="sans-serif" font-size="11.7" lengthAdjust="spacing" textLength="6.3" x="685.805" y="106.1818">1</text><!--MD5=[654c20624370ddaa2a203d96342827a5]
link Parameter to TestParameterResult--><path codeLine="70" d="M275.418,440.073 C306.981,430.749 351.729,417.537 387.891,406.854 " fill="none" id="Parameter-TestParameterResult" style="stroke:#A80036;stroke-width:0.9;"/><text fill="#000000" font-family="sans-serif" font-size="11.7" lengthAdjust="spacing" textLength="51.3" x="303.3" y="412.6186">contains&gt;</text><text fill="#000000" font-family="sans-serif" font-size="11.7" lengthAdjust="spacing" textLength="6.3" x="282.6505" y="451.4995">1</text><text fill="#000000" font-family="sans-serif" font-size="11.7" lengthAdjust="spacing" textLength="6.3" x="369.151" y="423.849">1</text><!--MD5=[52200cc2361fa0ac0481dd6ffcdb824b]
link TestParameterResult to ReferenceValue--><path codeLine="72" d="M517.518,387.927 C567.207,387.297 634.185,386.442 680.31,385.857 " fill="none" id="TestParameterResult-ReferenceValue" style="stroke:#A80036;stroke-width:0.9;"/><text fill="#000000" font-family="sans-serif" font-size="11.7" lengthAdjust="spacing" textLength="45.9" x="576" y="382.9186">records&gt;</text><text fill="#000000" font-family="sans-serif" font-size="11.7" lengthAdjust="spacing" textLength="6.3" x="524.8056" y="400.7442">1</text><text fill="#000000" font-family="sans-serif" font-size="11.7" lengthAdjust="spacing" textLength="6.3" x="667.0339" y="398.9827">1</text><!--MD5=[9735660ec8fc5abdb8afe2aef285d6e2]
link ReferenceValue to ExternalModule--><path codeLine="74" d="M788.634,374.787 C829.008,366.921 884.142,356.184 924.066,348.408 " fill="none" id="ReferenceValue-ExternalModule" style="stroke:#A80036;stroke-width:0.9;"/><text fill="#000000" font-family="sans-serif" font-size="11.7" lengthAdjust="spacing" textLength="65.7" x="823.5" y="351.4186">provided by&gt;</text><text fill="#000000" font-family="sans-serif" font-size="11.7" lengthAdjust="spacing" textLength="6.3" x="795.6277" y="386.5636">1</text><text fill="#000000" font-family="sans-serif" font-size="11.7" lengthAdjust="spacing" textLength="6.3" x="910.6443" y="362.7821">1</text><!--MD5=[d223aa02c1eff37d9f0f86f5f2552232]
link Barcode to ApiBarcode--><path codeLine="76" d="M769.725,86.76 C812.943,86.112 887.031,85.005 933.552,84.303 " fill="none" id="Barcode-ApiBarcode" style="stroke:#A80036;stroke-width:0.9;"/><text fill="#000000" font-family="sans-serif" font-size="11.7" lengthAdjust="spacing" textLength="80.1" x="816.3" y="82.3186">Obtained from&gt;</text><text fill="#000000" font-family="sans-serif" font-size="11.7" lengthAdjust="spacing" textLength="18" x="776.7893" y="100.0083">1..*</text><text fill="#000000" font-family="sans-serif" font-size="11.7" lengthAdjust="spacing" textLength="6.3" x="920.1932" y="97.6718">1</text><!--MD5=[fba3ac294f3c76c431d275cef443fef8]
link LabOrder to TestType--><path codeLine="78" d="M82.701,253.107 C159.894,262.917 336.456,285.363 412.812,295.065 " fill="none" id="LabOrder-TestType" style="stroke:#A80036;stroke-width:0.9;"/><text fill="#000000" font-family="sans-serif" font-size="11.7" lengthAdjust="spacing" textLength="26.1" x="221.85" y="265.0186">has&gt;</text><text fill="#000000" font-family="sans-serif" font-size="11.7" lengthAdjust="spacing" textLength="6.3" x="89.5415" y="267.2798">1</text><text fill="#000000" font-family="sans-serif" font-size="11.7" lengthAdjust="spacing" textLength="6.3" x="399.5789" y="307.7214">1</text><!--MD5=[63d25d625ab355317a074a623d33bba8]
link Report to Test--><path codeLine="80" d="M945.27,134.757 C937.791,129.744 930.231,123.732 924.3,116.973 C906.372,96.534 919.323,78.021 897.3,62.073 C819.027,5.4 776.844,40.68 680.4,46.773 C547.2,55.188 508.689,41.121 382.5,84.573 C334.125,101.232 289.584,141.21 262.566,169.38 " fill="none" id="Report-Test" style="stroke:#A80036;stroke-width:0.9;"/><text fill="#000000" font-family="sans-serif" font-size="11.7" lengthAdjust="spacing" textLength="107.1" x="545.4" y="45.4186">created acording to&gt;</text><text fill="#000000" font-family="sans-serif" font-size="11.7" lengthAdjust="spacing" textLength="6.3" x="931.8791" y="145.0344">1</text><text fill="#000000" font-family="sans-serif" font-size="11.7" lengthAdjust="spacing" textLength="6.3" x="268.9218" y="159.4351">1</text><!--MD5=[ff4e8eda489240917ff42d33492ca5d0]
link Employee to Report--><path codeLine="82" d="M773.802,205.866 C807.183,210.447 856.413,213.597 897.3,201.573 C918.702,195.282 939.789,181.125 954.675,169.416 " fill="none" id="Employee-Report" style="stroke:#A80036;stroke-width:0.9;"/><text fill="#000000" font-family="sans-serif" font-size="11.7" lengthAdjust="spacing" textLength="37.8" x="837.45" y="198.4186">writes&gt;</text><text fill="#000000" font-family="sans-serif" font-size="11.7" lengthAdjust="spacing" textLength="6.3" x="780.8497" y="203.6024">1</text><text fill="#000000" font-family="sans-serif" font-size="11.7" lengthAdjust="spacing" textLength="6.3" x="941.663" y="188.4419">1</text><!--MD5=[ff4e8eda489240917ff42d33492ca5d0]
link Employee to Report--><path codeLine="84" d="M773.568,190.53 C786.798,187.686 801.738,184.536 815.4,181.773 C860.634,172.629 913.212,162.72 945.441,156.735 " fill="none" id="Employee-Report-1" style="stroke:#A80036;stroke-width:0.9;"/><text fill="#000000" font-family="sans-serif" font-size="11.7" lengthAdjust="spacing" textLength="52.2" x="830.25" y="163.3186">validates&gt;</text><text fill="#000000" font-family="sans-serif" font-size="11.7" lengthAdjust="spacing" textLength="6.3" x="780.8414" y="185.6301">1</text><text fill="#000000" font-family="sans-serif" font-size="11.7" lengthAdjust="spacing" textLength="6.3" x="932.0854" y="171.5454">1</text><!--MD5=[1c4a16321fe2e743d9b45e4d8fe20045]
@startuml
hide methods
left to right direction
skinparam classAttributeIconSize 0


class Company {
  -designation
}

class Employee {
  -employeeId
  -name
  -address
  -phoneNumber
  -email
  -socCode
}



class User{
  -name
  -email
  -password
}

class Test{
-code
-NHScode
}

class Sample{

-barcode
}

class TestType{

-designation
-description
-internalCode

}
class LabOrder{
-testType
-Parameters
}
class Barcode{
-upcCode
}

Company "1" - - "*" TestType : has>

TestType "1" - -"1" ExternalModule: makes use

Company "1" - - "*" Parameter : has

Parameter "1" - - "1" ParameterCategory: have

Company "1" - - "*" Test: does>
Test "1" - - "1" Sample : has>
Test "*" - - "1" Employee : is performed by>
Test "1" - - "1" TestType : is of>
Employee "0..1" - - "1" User: relates to >
Sample "*" - - "1..*" Employee : is recorded by>
LabOrder "1" - - "1" Test : gives rise>

Sample "1" - - "1" Barcode : has>

Parameter "1" - - "1" TestParameterResult :contains>

TestParameterResult "1" - -"1" ReferenceValue : records>

ReferenceValue "1" - - "1" ExternalModule : provided by>

Barcode "1..*" - - "1" ApiBarcode : Obtained from>

LabOrder "1" - - "1" TestType : has>

Report "1" - -"1" Test : created acording to>

Employee "1" - - "1" Report : writes>

Employee "1" - - "1" Report : validates>


@enduml

PlantUML version 1.2021.00(Sun Jan 10 10:25:05 GMT 2021)
(GPL source distribution)
Java Runtime: OpenJDK Runtime Environment
JVM: OpenJDK 64-Bit Server VM
Default Encoding: Cp1252
Language: pt
Country: PT
--></g></svg>