<?xml version="1.0" encoding="UTF-8" standalone="no"?><svg xmlns="http://www.w3.org/2000/svg" xmlns:xlink="http://www.w3.org/1999/xlink" contentScriptType="application/ecmascript" contentStyleType="text/css" height="1232.5px" preserveAspectRatio="none" style="width:841px;height:1232px;" version="1.1" viewBox="0 0 841 1232" width="841.25px" zoomAndPan="magnify"><defs><filter height="300%" id="f1qs87lzmhyq2y" width="300%" x="-1" y="-1"><feGaussianBlur result="blurOut" stdDeviation="2.5"/><feColorMatrix in="blurOut" result="blurOut2" type="matrix" values="0 0 0 0 0 0 0 0 0 0 0 0 0 0 0 0 0 0 .4 0"/><feOffset dx="5.0" dy="5.0" in="blurOut2" result="blurOut3"/><feBlend in="SourceGraphic" in2="blurOut3" mode="normal"/></filter></defs><g><!--MD5=[aeb3272166074d8737a70b61b1e71682]
class TestType--><rect codeLine="7" fill="#FEFECE" filter="url(#f1qs87lzmhyq2y)" height="146.4746" id="TestType" style="stroke:#A80036;stroke-width:1.875;" width="327.5" x="101.25" y="860"/><ellipse cx="228.4375" cy="880" fill="#ADD1B2" rx="13.75" ry="13.75" style="stroke:#A80036;stroke-width:1.25;"/><path d="M230.9375,875.625 Q231.1914,875 231.4844,874.6875 Q231.7773,874.375 232.1094,874.375 Q232.6953,874.375 233.0664,874.7266 Q233.4375,875.0781 233.4375,875.8984 L233.4375,877.8516 Q233.4375,878.6719 233.0859,879.0234 Q232.7344,879.375 232.1875,879.375 Q231.6992,879.375 231.3867,879.1602 Q231.0742,878.9453 230.9375,878.3789 Q230.8789,877.9883 230.6641,877.7734 Q230.2734,877.3633 229.5703,877.1289 Q228.8672,876.875 228.1641,876.875 Q227.2852,876.875 226.543,877.2266 Q225.8203,877.5781 225.2539,878.3594 Q224.6875,879.1406 224.6875,880.2148 L224.6875,881.3672 Q224.6875,882.6563 225.7422,883.5156 Q226.7969,884.375 228.6719,884.375 Q229.7852,884.375 230.5664,884.1211 Q231.0156,883.9844 231.5234,883.5352 Q231.8555,883.2813 232.0313,883.2031 Q232.207,883.125 232.4219,883.125 Q232.832,883.125 233.125,883.457 Q233.4375,883.7695 233.4375,884.2188 Q233.4375,884.6484 233.0078,885.1563 Q232.3828,885.8984 231.3867,886.3086 Q230.0781,886.875 228.4766,886.875 Q226.6016,886.875 225.0977,886.1328 Q223.8867,885.5469 223.0273,884.2773 Q222.1875,883.0078 222.1875,881.5039 L222.1875,880.1367 Q222.1875,878.5742 222.9297,877.207 Q223.6914,875.8398 225,875.1172 Q226.3281,874.375 227.8125,874.375 Q228.7109,874.375 229.4922,874.6875 Q230.2734,875 230.9375,875.625 Z " fill="#000000"/><text fill="#000000" font-family="sans-serif" font-size="15" lengthAdjust="spacing" textLength="62.5" x="254.0625" y="886.1377">TestType</text><line style="stroke:#A80036;stroke-width:1.875;" x1="102.5" x2="427.5" y1="900" y2="900"/><text fill="#000000" font-family="sans-serif" font-size="13.75" lengthAdjust="spacing" textLength="110" x="108.75" y="919.2737">-String description</text><text fill="#000000" font-family="sans-serif" font-size="13.75" lengthAdjust="spacing" textLength="143.75" x="108.75" y="936.5686">-String collectingMethod</text><text fill="#000000" font-family="sans-serif" font-size="13.75" lengthAdjust="spacing" textLength="73.75" x="108.75" y="953.8635">-String code</text><text fill="#000000" font-family="sans-serif" font-size="13.75" lengthAdjust="spacing" textLength="312.5" x="108.75" y="971.1584">-List &lt;ParameterCategory&gt; listOfParameterCategory</text><line style="stroke:#A80036;stroke-width:1.875;" x1="102.5" x2="427.5" y1="979.1797" y2="979.1797"/><text fill="#000000" font-family="sans-serif" font-size="13.75" lengthAdjust="spacing" textLength="311.25" x="108.75" y="998.4534">+TestType(description, collectingMethod, code, cat)</text><!--MD5=[d802db621b5b215a6f0466f93cefcb42]
class ParameterCategoryStore--><rect codeLine="15" fill="#FEFECE" filter="url(#f1qs87lzmhyq2y)" height="77.2949" id="ParameterCategoryStore" style="stroke:#A80036;stroke-width:1.875;" width="245" x="417.5" y="569.375"/><ellipse cx="452" cy="589.375" fill="#ADD1B2" rx="13.75" ry="13.75" style="stroke:#A80036;stroke-width:1.25;"/><path d="M454.5,585 Q454.7539,584.375 455.0469,584.0625 Q455.3398,583.75 455.6719,583.75 Q456.2578,583.75 456.6289,584.1016 Q457,584.4531 457,585.2734 L457,587.2266 Q457,588.0469 456.6484,588.3984 Q456.2969,588.75 455.75,588.75 Q455.2617,588.75 454.9492,588.5352 Q454.6367,588.3203 454.5,587.7539 Q454.4414,587.3633 454.2266,587.1484 Q453.8359,586.7383 453.1328,586.5039 Q452.4297,586.25 451.7266,586.25 Q450.8477,586.25 450.1055,586.6016 Q449.3828,586.9531 448.8164,587.7344 Q448.25,588.5156 448.25,589.5898 L448.25,590.7422 Q448.25,592.0313 449.3047,592.8906 Q450.3594,593.75 452.2344,593.75 Q453.3477,593.75 454.1289,593.4961 Q454.5781,593.3594 455.0859,592.9102 Q455.418,592.6563 455.5938,592.5781 Q455.7695,592.5 455.9844,592.5 Q456.3945,592.5 456.6875,592.832 Q457,593.1445 457,593.5938 Q457,594.0234 456.5703,594.5313 Q455.9453,595.2734 454.9492,595.6836 Q453.6406,596.25 452.0391,596.25 Q450.1641,596.25 448.6602,595.5078 Q447.4492,594.9219 446.5898,593.6523 Q445.75,592.3828 445.75,590.8789 L445.75,589.5117 Q445.75,587.9492 446.4922,586.582 Q447.2539,585.2148 448.5625,584.4922 Q449.8906,583.75 451.375,583.75 Q452.2734,583.75 453.0547,584.0625 Q453.8359,584.375 454.5,585 Z " fill="#000000"/><text fill="#000000" font-family="sans-serif" font-size="15" lengthAdjust="spacing" textLength="170" x="473" y="595.5127">ParameterCategoryStore</text><line style="stroke:#A80036;stroke-width:1.875;" x1="418.75" x2="661.25" y1="609.375" y2="609.375"/><line style="stroke:#A80036;stroke-width:1.875;" x1="418.75" x2="661.25" y1="619.375" y2="619.375"/><text fill="#000000" font-family="sans-serif" font-size="13.75" lengthAdjust="spacing" textLength="230" x="425" y="638.6487">+getParameterCategoryByCode(code)</text><!--MD5=[6ba72ddf03822b91e8d41ca71de58ed3]
class TestTypeStore--><rect codeLine="19" fill="#FEFECE" filter="url(#f1qs87lzmhyq2y)" height="129.1797" id="TestTypeStore" style="stroke:#A80036;stroke-width:1.875;" width="365" x="8.75" y="543.75"/><ellipse cx="136.5625" cy="563.75" fill="#ADD1B2" rx="13.75" ry="13.75" style="stroke:#A80036;stroke-width:1.25;"/><path d="M139.0625,559.375 Q139.3164,558.75 139.6094,558.4375 Q139.9023,558.125 140.2344,558.125 Q140.8203,558.125 141.1914,558.4766 Q141.5625,558.8281 141.5625,559.6484 L141.5625,561.6016 Q141.5625,562.4219 141.2109,562.7734 Q140.8594,563.125 140.3125,563.125 Q139.8242,563.125 139.5117,562.9102 Q139.1992,562.6953 139.0625,562.1289 Q139.0039,561.7383 138.7891,561.5234 Q138.3984,561.1133 137.6953,560.8789 Q136.9922,560.625 136.2891,560.625 Q135.4102,560.625 134.668,560.9766 Q133.9453,561.3281 133.3789,562.1094 Q132.8125,562.8906 132.8125,563.9648 L132.8125,565.1172 Q132.8125,566.4063 133.8672,567.2656 Q134.9219,568.125 136.7969,568.125 Q137.9102,568.125 138.6914,567.8711 Q139.1406,567.7344 139.6484,567.2852 Q139.9805,567.0313 140.1563,566.9531 Q140.332,566.875 140.5469,566.875 Q140.957,566.875 141.25,567.207 Q141.5625,567.5195 141.5625,567.9688 Q141.5625,568.3984 141.1328,568.9063 Q140.5078,569.6484 139.5117,570.0586 Q138.2031,570.625 136.6016,570.625 Q134.7266,570.625 133.2227,569.8828 Q132.0117,569.2969 131.1523,568.0273 Q130.3125,566.7578 130.3125,565.2539 L130.3125,563.8867 Q130.3125,562.3242 131.0547,560.957 Q131.8164,559.5898 133.125,558.8672 Q134.4531,558.125 135.9375,558.125 Q136.8359,558.125 137.6172,558.4375 Q138.3984,558.75 139.0625,559.375 Z " fill="#000000"/><text fill="#000000" font-family="sans-serif" font-size="15" lengthAdjust="spacing" textLength="98.75" x="162.1875" y="569.8877">TestTypeStore</text><line style="stroke:#A80036;stroke-width:1.875;" x1="10" x2="372.5" y1="583.75" y2="583.75"/><line style="stroke:#A80036;stroke-width:1.875;" x1="10" x2="372.5" y1="593.75" y2="593.75"/><text fill="#000000" font-family="sans-serif" font-size="13.75" lengthAdjust="spacing" textLength="350" x="16.25" y="613.0237">+createTestType(description, collectingMethod, code, cat)</text><text fill="#000000" font-family="sans-serif" font-size="13.75" lengthAdjust="spacing" textLength="127.5" x="16.25" y="630.3186">+validateTestType(tt)</text><text fill="#000000" font-family="sans-serif" font-size="13.75" lengthAdjust="spacing" textLength="103.75" x="16.25" y="647.6135">+addTestType(tt)</text><text fill="#000000" font-family="sans-serif" font-size="13.75" lengthAdjust="spacing" textLength="111.25" x="16.25" y="664.9084">+saveTestType(tt)</text><!--MD5=[36afb6bbd95a8ac778c4537c55a683d5]
class ParameterCategory--><rect codeLine="26" fill="#FEFECE" filter="url(#f1qs87lzmhyq2y)" height="111.8848" id="ParameterCategory" style="stroke:#A80036;stroke-width:1.875;" width="218.75" x="430.625" y="1103.75"/><ellipse cx="469.625" cy="1123.75" fill="#ADD1B2" rx="13.75" ry="13.75" style="stroke:#A80036;stroke-width:1.25;"/><path d="M472.125,1119.375 Q472.3789,1118.75 472.6719,1118.4375 Q472.9648,1118.125 473.2969,1118.125 Q473.8828,1118.125 474.2539,1118.4766 Q474.625,1118.8281 474.625,1119.6484 L474.625,1121.6016 Q474.625,1122.4219 474.2734,1122.7734 Q473.9219,1123.125 473.375,1123.125 Q472.8867,1123.125 472.5742,1122.9102 Q472.2617,1122.6953 472.125,1122.1289 Q472.0664,1121.7383 471.8516,1121.5234 Q471.4609,1121.1133 470.7578,1120.8789 Q470.0547,1120.625 469.3516,1120.625 Q468.4727,1120.625 467.7305,1120.9766 Q467.0078,1121.3281 466.4414,1122.1094 Q465.875,1122.8906 465.875,1123.9648 L465.875,1125.1172 Q465.875,1126.4063 466.9297,1127.2656 Q467.9844,1128.125 469.8594,1128.125 Q470.9727,1128.125 471.7539,1127.8711 Q472.2031,1127.7344 472.7109,1127.2852 Q473.043,1127.0313 473.2188,1126.9531 Q473.3945,1126.875 473.6094,1126.875 Q474.0195,1126.875 474.3125,1127.207 Q474.625,1127.5195 474.625,1127.9688 Q474.625,1128.3984 474.1953,1128.9063 Q473.5703,1129.6484 472.5742,1130.0586 Q471.2656,1130.625 469.6641,1130.625 Q467.7891,1130.625 466.2852,1129.8828 Q465.0742,1129.2969 464.2148,1128.0273 Q463.375,1126.7578 463.375,1125.2539 L463.375,1123.8867 Q463.375,1122.3242 464.1172,1120.957 Q464.8789,1119.5898 466.1875,1118.8672 Q467.5156,1118.125 469,1118.125 Q469.8984,1118.125 470.6797,1118.4375 Q471.4609,1118.75 472.125,1119.375 Z " fill="#000000"/><text fill="#000000" font-family="sans-serif" font-size="15" lengthAdjust="spacing" textLength="133.75" x="491.625" y="1129.8877">ParameterCategory</text><line style="stroke:#A80036;stroke-width:1.875;" x1="431.875" x2="648.125" y1="1143.75" y2="1143.75"/><text fill="#000000" font-family="sans-serif" font-size="13.75" lengthAdjust="spacing" textLength="76.25" x="438.125" y="1163.0237">-String name</text><text fill="#000000" font-family="sans-serif" font-size="13.75" lengthAdjust="spacing" textLength="73.75" x="438.125" y="1180.3186">-String code</text><line style="stroke:#A80036;stroke-width:1.875;" x1="431.875" x2="648.125" y1="1188.3398" y2="1188.3398"/><text fill="#000000" font-family="sans-serif" font-size="13.75" lengthAdjust="spacing" textLength="203.75" x="438.125" y="1207.6135">+ParameterCategory(name, code)</text><!--MD5=[02e4b9b7573f1156f41e60aa5b4e25a4]
class Company--><rect codeLine="33" fill="#FEFECE" filter="url(#f1qs87lzmhyq2y)" height="111.8848" id="Company" style="stroke:#A80036;stroke-width:1.875;" width="200" x="266.25" y="333.75"/><ellipse cx="327.8125" cy="353.75" fill="#ADD1B2" rx="13.75" ry="13.75" style="stroke:#A80036;stroke-width:1.25;"/><path d="M330.3125,349.375 Q330.5664,348.75 330.8594,348.4375 Q331.1523,348.125 331.4844,348.125 Q332.0703,348.125 332.4414,348.4766 Q332.8125,348.8281 332.8125,349.6484 L332.8125,351.6016 Q332.8125,352.4219 332.4609,352.7734 Q332.1094,353.125 331.5625,353.125 Q331.0742,353.125 330.7617,352.9102 Q330.4492,352.6953 330.3125,352.1289 Q330.2539,351.7383 330.0391,351.5234 Q329.6484,351.1133 328.9453,350.8789 Q328.2422,350.625 327.5391,350.625 Q326.6602,350.625 325.918,350.9766 Q325.1953,351.3281 324.6289,352.1094 Q324.0625,352.8906 324.0625,353.9648 L324.0625,355.1172 Q324.0625,356.4063 325.1172,357.2656 Q326.1719,358.125 328.0469,358.125 Q329.1602,358.125 329.9414,357.8711 Q330.3906,357.7344 330.8984,357.2852 Q331.2305,357.0313 331.4063,356.9531 Q331.582,356.875 331.7969,356.875 Q332.207,356.875 332.5,357.207 Q332.8125,357.5195 332.8125,357.9688 Q332.8125,358.3984 332.3828,358.9063 Q331.7578,359.6484 330.7617,360.0586 Q329.4531,360.625 327.8516,360.625 Q325.9766,360.625 324.4727,359.8828 Q323.2617,359.2969 322.4023,358.0273 Q321.5625,356.7578 321.5625,355.2539 L321.5625,353.8867 Q321.5625,352.3242 322.3047,350.957 Q323.0664,349.5898 324.375,348.8672 Q325.7031,348.125 327.1875,348.125 Q328.0859,348.125 328.8672,348.4375 Q329.6484,348.75 330.3125,349.375 Z " fill="#000000"/><text fill="#000000" font-family="sans-serif" font-size="15" lengthAdjust="spacing" textLength="66.25" x="353.4375" y="359.8877">Company</text><line style="stroke:#A80036;stroke-width:1.875;" x1="267.5" x2="465" y1="373.75" y2="373.75"/><text fill="#000000" font-family="sans-serif" font-size="13.75" lengthAdjust="spacing" textLength="112.5" x="273.75" y="393.0237">-String designation</text><line style="stroke:#A80036;stroke-width:1.875;" x1="267.5" x2="465" y1="401.0449" y2="401.0449"/><text fill="#000000" font-family="sans-serif" font-size="13.75" lengthAdjust="spacing" textLength="185" x="273.75" y="420.3186">+getParameterCategoryStore()</text><text fill="#000000" font-family="sans-serif" font-size="13.75" lengthAdjust="spacing" textLength="125" x="273.75" y="437.6135">+getTestTypeStore()</text><!--MD5=[8234c2e1798cb064336f15504722a1a1]
class TestTypeController--><rect codeLine="41" fill="#FEFECE" filter="url(#f1qs87lzmhyq2y)" height="111.8848" id="TestTypeController" style="stroke:#A80036;stroke-width:1.875;" width="410" x="272.5" y="145"/><ellipse cx="407.1875" cy="165" fill="#ADD1B2" rx="13.75" ry="13.75" style="stroke:#A80036;stroke-width:1.25;"/><path d="M409.6875,160.625 Q409.9414,160 410.2344,159.6875 Q410.5273,159.375 410.8594,159.375 Q411.4453,159.375 411.8164,159.7266 Q412.1875,160.0781 412.1875,160.8984 L412.1875,162.8516 Q412.1875,163.6719 411.8359,164.0234 Q411.4844,164.375 410.9375,164.375 Q410.4492,164.375 410.1367,164.1602 Q409.8242,163.9453 409.6875,163.3789 Q409.6289,162.9883 409.4141,162.7734 Q409.0234,162.3633 408.3203,162.1289 Q407.6172,161.875 406.9141,161.875 Q406.0352,161.875 405.293,162.2266 Q404.5703,162.5781 404.0039,163.3594 Q403.4375,164.1406 403.4375,165.2148 L403.4375,166.3672 Q403.4375,167.6563 404.4922,168.5156 Q405.5469,169.375 407.4219,169.375 Q408.5352,169.375 409.3164,169.1211 Q409.7656,168.9844 410.2734,168.5352 Q410.6055,168.2813 410.7813,168.2031 Q410.957,168.125 411.1719,168.125 Q411.582,168.125 411.875,168.457 Q412.1875,168.7695 412.1875,169.2188 Q412.1875,169.6484 411.7578,170.1563 Q411.1328,170.8984 410.1367,171.3086 Q408.8281,171.875 407.2266,171.875 Q405.3516,171.875 403.8477,171.1328 Q402.6367,170.5469 401.7773,169.2773 Q400.9375,168.0078 400.9375,166.5039 L400.9375,165.1367 Q400.9375,163.5742 401.6797,162.207 Q402.4414,160.8398 403.75,160.1172 Q405.0781,159.375 406.5625,159.375 Q407.4609,159.375 408.2422,159.6875 Q409.0234,160 409.6875,160.625 Z " fill="#000000"/><text fill="#000000" font-family="sans-serif" font-size="15" lengthAdjust="spacing" textLength="130" x="432.8125" y="171.1377">TestTypeController</text><line style="stroke:#A80036;stroke-width:1.875;" x1="273.75" x2="681.25" y1="185" y2="185"/><line style="stroke:#A80036;stroke-width:1.875;" x1="273.75" x2="681.25" y1="195" y2="195"/><text fill="#000000" font-family="sans-serif" font-size="13.75" lengthAdjust="spacing" textLength="185" x="280" y="214.2737">+getParameterCategoryStore()</text><text fill="#000000" font-family="sans-serif" font-size="13.75" lengthAdjust="spacing" textLength="395" x="280" y="231.5686">+createTestType(description, collectingMethod, code, categories)</text><text fill="#000000" font-family="sans-serif" font-size="13.75" lengthAdjust="spacing" textLength="103.75" x="280" y="248.8635">+saveTestType()</text><!--MD5=[9962a99adf3367992059ce0c33ea4533]
class TestTypeUI--><rect codeLine="48" fill="#FEFECE" filter="url(#f1qs87lzmhyq2y)" height="60" id="TestTypeUI" style="stroke:#A80036;stroke-width:1.875;" width="117.5" x="418.75" y="8.75"/><ellipse cx="437.5" cy="28.75" fill="#ADD1B2" rx="13.75" ry="13.75" style="stroke:#A80036;stroke-width:1.25;"/><path d="M440,24.375 Q440.2539,23.75 440.5469,23.4375 Q440.8398,23.125 441.1719,23.125 Q441.7578,23.125 442.1289,23.4766 Q442.5,23.8281 442.5,24.6484 L442.5,26.6016 Q442.5,27.4219 442.1484,27.7734 Q441.7969,28.125 441.25,28.125 Q440.7617,28.125 440.4492,27.9102 Q440.1367,27.6953 440,27.1289 Q439.9414,26.7383 439.7266,26.5234 Q439.3359,26.1133 438.6328,25.8789 Q437.9297,25.625 437.2266,25.625 Q436.3477,25.625 435.6055,25.9766 Q434.8828,26.3281 434.3164,27.1094 Q433.75,27.8906 433.75,28.9648 L433.75,30.1172 Q433.75,31.4063 434.8047,32.2656 Q435.8594,33.125 437.7344,33.125 Q438.8477,33.125 439.6289,32.8711 Q440.0781,32.7344 440.5859,32.2852 Q440.918,32.0313 441.0938,31.9531 Q441.2695,31.875 441.4844,31.875 Q441.8945,31.875 442.1875,32.207 Q442.5,32.5195 442.5,32.9688 Q442.5,33.3984 442.0703,33.9063 Q441.4453,34.6484 440.4492,35.0586 Q439.1406,35.625 437.5391,35.625 Q435.6641,35.625 434.1602,34.8828 Q432.9492,34.2969 432.0898,33.0273 Q431.25,31.7578 431.25,30.2539 L431.25,28.8867 Q431.25,27.3242 431.9922,25.957 Q432.7539,24.5898 434.0625,23.8672 Q435.3906,23.125 436.875,23.125 Q437.7734,23.125 438.5547,23.4375 Q439.3359,23.75 440,24.375 Z " fill="#000000"/><text fill="#000000" font-family="sans-serif" font-size="15" lengthAdjust="spacing" textLength="77.5" x="455" y="34.8877">TestTypeUI</text><line style="stroke:#A80036;stroke-width:1.875;" x1="420" x2="535" y1="48.75" y2="48.75"/><line style="stroke:#A80036;stroke-width:1.875;" x1="420" x2="535" y1="58.75" y2="58.75"/><!--MD5=[fab6cba0d8a30102bb3e071a5ce00b91]
class ParameterCategoryMapper--><rect codeLine="52" fill="#FEFECE" filter="url(#f1qs87lzmhyq2y)" height="77.2949" id="ParameterCategoryMapper" style="stroke:#A80036;stroke-width:1.875;" width="225" x="598.75" y="351.25"/><ellipse cx="617.5" cy="371.25" fill="#ADD1B2" rx="13.75" ry="13.75" style="stroke:#A80036;stroke-width:1.25;"/><path d="M620,366.875 Q620.2539,366.25 620.5469,365.9375 Q620.8398,365.625 621.1719,365.625 Q621.7578,365.625 622.1289,365.9766 Q622.5,366.3281 622.5,367.1484 L622.5,369.1016 Q622.5,369.9219 622.1484,370.2734 Q621.7969,370.625 621.25,370.625 Q620.7617,370.625 620.4492,370.4102 Q620.1367,370.1953 620,369.6289 Q619.9414,369.2383 619.7266,369.0234 Q619.3359,368.6133 618.6328,368.3789 Q617.9297,368.125 617.2266,368.125 Q616.3477,368.125 615.6055,368.4766 Q614.8828,368.8281 614.3164,369.6094 Q613.75,370.3906 613.75,371.4648 L613.75,372.6172 Q613.75,373.9063 614.8047,374.7656 Q615.8594,375.625 617.7344,375.625 Q618.8477,375.625 619.6289,375.3711 Q620.0781,375.2344 620.5859,374.7852 Q620.918,374.5313 621.0938,374.4531 Q621.2695,374.375 621.4844,374.375 Q621.8945,374.375 622.1875,374.707 Q622.5,375.0195 622.5,375.4688 Q622.5,375.8984 622.0703,376.4063 Q621.4453,377.1484 620.4492,377.5586 Q619.1406,378.125 617.5391,378.125 Q615.6641,378.125 614.1602,377.3828 Q612.9492,376.7969 612.0898,375.5273 Q611.25,374.2578 611.25,372.7539 L611.25,371.3867 Q611.25,369.8242 611.9922,368.457 Q612.7539,367.0898 614.0625,366.3672 Q615.3906,365.625 616.875,365.625 Q617.7734,365.625 618.5547,365.9375 Q619.3359,366.25 620,366.875 Z " fill="#000000"/><text fill="#000000" font-family="sans-serif" font-size="15" lengthAdjust="spacing" textLength="185" x="635" y="377.3877">ParameterCategoryMapper</text><line style="stroke:#A80036;stroke-width:1.875;" x1="600" x2="822.5" y1="391.25" y2="391.25"/><line style="stroke:#A80036;stroke-width:1.875;" x1="600" x2="822.5" y1="401.25" y2="401.25"/><text fill="#000000" font-family="sans-serif" font-size="13.75" lengthAdjust="spacing" textLength="48.75" x="606.25" y="420.5237">+toDto()</text><!--MD5=[ae4ce8b9e36cc829775f8966335bc94b]
class ParameterCategoryDto--><rect codeLine="56" fill="#FEFECE" filter="url(#f1qs87lzmhyq2y)" height="111.8848" id="ParameterCategoryDto" style="stroke:#A80036;stroke-width:1.875;" width="232.5" x="590" y="710"/><ellipse cx="624.5" cy="730" fill="#ADD1B2" rx="13.75" ry="13.75" style="stroke:#A80036;stroke-width:1.25;"/><path d="M627,725.625 Q627.2539,725 627.5469,724.6875 Q627.8398,724.375 628.1719,724.375 Q628.7578,724.375 629.1289,724.7266 Q629.5,725.0781 629.5,725.8984 L629.5,727.8516 Q629.5,728.6719 629.1484,729.0234 Q628.7969,729.375 628.25,729.375 Q627.7617,729.375 627.4492,729.1602 Q627.1367,728.9453 627,728.3789 Q626.9414,727.9883 626.7266,727.7734 Q626.3359,727.3633 625.6328,727.1289 Q624.9297,726.875 624.2266,726.875 Q623.3477,726.875 622.6055,727.2266 Q621.8828,727.5781 621.3164,728.3594 Q620.75,729.1406 620.75,730.2148 L620.75,731.3672 Q620.75,732.6563 621.8047,733.5156 Q622.8594,734.375 624.7344,734.375 Q625.8477,734.375 626.6289,734.1211 Q627.0781,733.9844 627.5859,733.5352 Q627.918,733.2813 628.0938,733.2031 Q628.2695,733.125 628.4844,733.125 Q628.8945,733.125 629.1875,733.457 Q629.5,733.7695 629.5,734.2188 Q629.5,734.6484 629.0703,735.1563 Q628.4453,735.8984 627.4492,736.3086 Q626.1406,736.875 624.5391,736.875 Q622.6641,736.875 621.1602,736.1328 Q619.9492,735.5469 619.0898,734.2773 Q618.25,733.0078 618.25,731.5039 L618.25,730.1367 Q618.25,728.5742 618.9922,727.207 Q619.7539,725.8398 621.0625,725.1172 Q622.3906,724.375 623.875,724.375 Q624.7734,724.375 625.5547,724.6875 Q626.3359,725 627,725.625 Z " fill="#000000"/><text fill="#000000" font-family="sans-serif" font-size="15" lengthAdjust="spacing" textLength="157.5" x="645.5" y="736.1377">ParameterCategoryDto</text><line style="stroke:#A80036;stroke-width:1.875;" x1="591.25" x2="821.25" y1="750" y2="750"/><text fill="#000000" font-family="sans-serif" font-size="13.75" lengthAdjust="spacing" textLength="73.75" x="597.5" y="769.2737">-String code</text><text fill="#000000" font-family="sans-serif" font-size="13.75" lengthAdjust="spacing" textLength="76.25" x="597.5" y="786.5686">-String name</text><line style="stroke:#A80036;stroke-width:1.875;" x1="591.25" x2="821.25" y1="794.5898" y2="794.5898"/><text fill="#000000" font-family="sans-serif" font-size="13.75" lengthAdjust="spacing" textLength="217.5" x="597.5" y="813.8635">+ParameterCategoryDto(categories)</text><!--MD5=[7929f6f6631d83f96d2b4321a62a82a2]
link TestTypeUI to TestTypeController--><path codeLine="62" d="M477.5,68.975 C477.5,88.2375 477.5,114.275 477.5,138.0625 " fill="none" id="TestTypeUI-to-TestTypeController" style="stroke:#A80036;stroke-width:1.25;stroke-dasharray:7.0,7.0;"/><polygon fill="#A80036" points="477.5,144.7,482.5,133.45,477.5,138.45,472.5,133.45,477.5,144.7" style="stroke:#A80036;stroke-width:1.25;"/><!--MD5=[86e8c3a3ce7946cc4b6fe35e2ac36da2]
link TestTypeController to TestTypeStore--><path codeLine="63" d="M333.6875,257.675 C299.6375,277 266.6125,302.0375 243.75,333.75 C200.9875,393.0875 190.45,477.8375 188.975,537.1375 " fill="none" id="TestTypeController-to-TestTypeStore" style="stroke:#A80036;stroke-width:1.25;stroke-dasharray:7.0,7.0;"/><polygon fill="#A80036" points="188.85,543.525,194.074,532.3772,188.975,537.2762,184.076,532.1773,188.85,543.525" style="stroke:#A80036;stroke-width:1.25;"/><!--MD5=[239275df5187c26117465ff07b80dd4d]
link TestTypeController to Company--><path codeLine="64" d="M444.425,257.875 C431.25,279.925 416.0625,305.3625 402.5875,327.9125 " fill="none" id="TestTypeController-to-Company" style="stroke:#A80036;stroke-width:1.25;stroke-dasharray:7.0,7.0;"/><polygon fill="#A80036" points="399.2,333.5875,409.2477,326.4738,402.3946,328.2156,400.6527,321.3624,399.2,333.5875" style="stroke:#A80036;stroke-width:1.25;"/><!--MD5=[9fa6642d60ce6ff9d5fd5b6bc4ac8bdd]
link TestTypeController to ParameterCategoryStore--><path codeLine="65" d="M486.0625,257.875 C498.5875,338.925 521.6625,488.2625 533.15,562.525 " fill="none" id="TestTypeController-to-ParameterCategoryStore" style="stroke:#A80036;stroke-width:1.25;stroke-dasharray:7.0,7.0;"/><polygon fill="#A80036" points="534.15,569.0375,537.3554,557.151,533.1862,562.8623,527.475,558.6931,534.15,569.0375" style="stroke:#A80036;stroke-width:1.25;"/><!--MD5=[d53d7490e5836ca5709858d7326f212b]
link Company to ParameterCategoryStore--><path codeLine="66" d="M411,446.775 C440.3875,483.2625 478.275,530.275 505.375,563.9125 " fill="none" id="Company-to-ParameterCategoryStore" style="stroke:#A80036;stroke-width:1.25;"/><polygon fill="#A80036" points="509.625,569.1875,506.4856,557.2834,505.7141,564.3123,498.6853,563.5408,509.625,569.1875" style="stroke:#A80036;stroke-width:1.25;"/><text fill="#000000" font-family="sans-serif" font-size="16.25" lengthAdjust="spacing" textLength="35" x="460" y="501.8689">uses</text><text fill="#000000" font-family="sans-serif" font-size="16.25" lengthAdjust="spacing" textLength="8.75" x="407.6754" y="472.6876">1</text><text fill="#000000" font-family="sans-serif" font-size="16.25" lengthAdjust="spacing" textLength="8.75" x="493.7078" y="556.0295">1</text><!--MD5=[141c3afa12b2b3c0a39ffce56dbd5f19]
link Company to TestTypeStore--><path codeLine="67" d="M321.1875,446.775 C298.5,474.7375 270.7875,508.875 246.7875,538.4375 " fill="none" id="Company-to-TestTypeStore" style="stroke:#A80036;stroke-width:1.25;"/><polygon fill="#A80036" points="242.6625,543.525,253.6248,537.9223,246.5929,538.6656,245.8497,531.6337,242.6625,543.525" style="stroke:#A80036;stroke-width:1.25;"/><text fill="#000000" font-family="sans-serif" font-size="16.25" lengthAdjust="spacing" textLength="35" x="291.25" y="501.8689">uses</text><text fill="#000000" font-family="sans-serif" font-size="16.25" lengthAdjust="spacing" textLength="8.75" x="305.7943" y="472.6876">1</text><text fill="#000000" font-family="sans-serif" font-size="16.25" lengthAdjust="spacing" textLength="8.75" x="240.2332" y="530.3702">1</text><!--MD5=[3eebf0e5f359806b77b30e9524c37676]
link TestTypeStore to TestType--><path codeLine="68" d="M205.7375,672.7 C217.5625,724.4625 234.35,797.875 247.05,853.35 " fill="none" id="TestTypeStore-to-TestType" style="stroke:#A80036;stroke-width:1.25;"/><polygon fill="#A80036" points="248.4875,859.6875,250.8608,847.6073,247.0977,853.594,241.1111,849.831,248.4875,859.6875" style="stroke:#A80036;stroke-width:1.25;"/><text fill="#000000" font-family="sans-serif" font-size="16.25" lengthAdjust="spacing" textLength="66.25" x="241.25" y="773.1189">conducts</text><text fill="#000000" font-family="sans-serif" font-size="16.25" lengthAdjust="spacing" textLength="8.75" x="198.3464" y="699.5906">1</text><text fill="#000000" font-family="sans-serif" font-size="16.25" lengthAdjust="spacing" textLength="25" x="219.9516" y="846.4005">1..*</text><!--MD5=[d6274e3b73b5bc8f467c6cfbf5bf003e]
link ParameterCategoryStore to ParameterCategory--><path codeLine="69" d="M540,647.1375 C540,740.525 540,983 540,1097.35 " fill="none" id="ParameterCategoryStore-to-ParameterCategory" style="stroke:#A80036;stroke-width:1.25;"/><polygon fill="#A80036" points="540,1103.7,545,1092.45,540,1097.45,535,1092.45,540,1103.7" style="stroke:#A80036;stroke-width:1.25;"/><text fill="#000000" font-family="sans-serif" font-size="16.25" lengthAdjust="spacing" textLength="48.75" x="541.25" y="939.9939">adopts</text><text fill="#000000" font-family="sans-serif" font-size="16.25" lengthAdjust="spacing" textLength="8.75" x="530.416" y="673.4108">1</text><text fill="#000000" font-family="sans-serif" font-size="16.25" lengthAdjust="spacing" textLength="6.25" x="533.252" y="1090.0864">*</text><!--MD5=[8aaf0efd5e2f3824be7ea3e488dcc283]
link TestType to ParameterCategory--><path codeLine="70" d="M348.0375,1006.3 C371.15,1025.9625 396.3875,1047.125 420,1066.25 C433.475,1077.1625 447.9625,1088.5875 462.05,1099.5375 " fill="none" id="TestType-to-ParameterCategory" style="stroke:#A80036;stroke-width:1.25;"/><polygon fill="#A80036" points="467.2125,1103.55,461.3911,1092.7022,462.2752,1099.7178,455.2596,1100.6019,467.2125,1103.55" style="stroke:#A80036;stroke-width:1.25;"/><text fill="#000000" font-family="sans-serif" font-size="16.25" lengthAdjust="spacing" textLength="85" x="421.25" y="1061.8689">has a set of</text><text fill="#000000" font-family="sans-serif" font-size="16.25" lengthAdjust="spacing" textLength="8.75" x="348.8745" y="1033.3189">1</text><text fill="#000000" font-family="sans-serif" font-size="16.25" lengthAdjust="spacing" textLength="25" x="429.1529" y="1090.3245">1..*</text><!--MD5=[03334fc6d03b869ba256c6191064d9c8]
link TestTypeController to ParameterCategoryMapper--><path codeLine="71" d="M546.6875,257.625 C582.5875,286.2375 625.75,320.625 658.8625,347 " fill="none" id="TestTypeController-to-ParameterCategoryMapper" style="stroke:#A80036;stroke-width:1.25;stroke-dasharray:7.0,7.0;"/><polygon fill="#A80036" points="664.0875,351.1625,658.397,340.2455,659.1966,347.2712,652.1709,348.0709,664.0875,351.1625" style="stroke:#A80036;stroke-width:1.25;"/><!--MD5=[58fac5310c1666a6e65c137533900c90]
link ParameterCategoryMapper to ParameterCategoryDto--><path codeLine="72" d="M710.75,428.8 C709.8875,493.1625 708.125,625.175 707.075,703.2625 " fill="none" id="ParameterCategoryMapper-to-ParameterCategoryDto" style="stroke:#A80036;stroke-width:1.25;stroke-dasharray:7.0,7.0;"/><polygon fill="#A80036" points="706.9875,709.7125,712.1157,698.5204,707.0589,703.4629,702.1164,698.4061,706.9875,709.7125" style="stroke:#A80036;stroke-width:1.25;"/><!--MD5=[d98d76378912836715ac0aaaf0882568]
link ParameterCategoryDto to ParameterCategory--><path codeLine="73" d="M682.7875,822.725 C651.95,895.3 597.9625,1022.35 565.9375,1097.7 " fill="none" id="ParameterCategoryDto-to-ParameterCategory" style="stroke:#A80036;stroke-width:1.25;stroke-dasharray:7.0,7.0;"/><polygon fill="#A80036" points="563.4875,1103.4875,572.4928,1095.093,565.9344,1097.7364,563.291,1091.178,563.4875,1103.4875" style="stroke:#A80036;stroke-width:1.25;"/><!--MD5=[e005011d3dd56600b4d93f763fb44423]
link ParameterCategoryMapper to ParameterCategoryStore--><path codeLine="74" d="M681.425,428.8125 C651.525,466.45 605.55,524.3375 574.2,563.825 " fill="none" id="ParameterCategoryMapper-to-ParameterCategoryStore" style="stroke:#A80036;stroke-width:1.25;stroke-dasharray:7.0,7.0;"/><polygon fill="#A80036" points="570.0625,569.025,580.9795,563.3345,573.9538,564.1341,573.1541,557.1084,570.0625,569.025" style="stroke:#A80036;stroke-width:1.25;"/><!--MD5=[b052152f86fae712a3329aa8a1038372]
@startuml
skinparam classAttributeIconSize 0





class TestType {
  -String description
  -String collectingMethod
  -String code
  -List <ParameterCategory> listOfParameterCategory
  +TestType(description, collectingMethod, code, cat)
}

class ParameterCategoryStore{
 +getParameterCategoryByCode(code)
}

class TestTypeStore{
   +createTestType(description, collectingMethod, code, cat)
   +validateTestType(tt)
   +addTestType(tt)
   +saveTestType(tt)
   }

class ParameterCategory {
  -String name
  -String code
  +ParameterCategory(name, code)
}


class Company {
  -String designation
  +getParameterCategoryStore()
  +getTestTypeStore()

}


class TestTypeController {
    +getParameterCategoryStore()
    +createTestType(description, collectingMethod, code, categories)
    +saveTestType()
}


class TestTypeUI {

}

class ParameterCategoryMapper{
+toDto()
}

class ParameterCategoryDto{
-String code
-String name
+ParameterCategoryDto(categories)
}

TestTypeUI ..> TestTypeController
TestTypeController ..> TestTypeStore
TestTypeController ..> Company
TestTypeController ..> ParameterCategoryStore
Company "1" - -> "1" ParameterCategoryStore: uses
Company "1" - -> "1" TestTypeStore: uses
TestTypeStore "1" - -> "1..*" TestType: conducts
ParameterCategoryStore "1" -> "*" ParameterCategory: adopts
TestType "1" - -> "1..*" ParameterCategory: has a set of
TestTypeController ..> ParameterCategoryMapper
ParameterCategoryMapper ..> ParameterCategoryDto
ParameterCategoryDto ..> ParameterCategory
ParameterCategoryMapper ..> ParameterCategoryStore


@enduml

PlantUML version 1.2021.4(Sun Apr 04 09:49:39 BST 2021)
(GPL source distribution)
Java Runtime: OpenJDK Runtime Environment
JVM: Dynamic Code Evolution 64-Bit Server VM
Default Encoding: Cp1252
Language: pt
Country: PT
--></g></svg>