<?xml version="1.0" encoding="UTF-8" standalone="no"?><svg xmlns="http://www.w3.org/2000/svg" xmlns:xlink="http://www.w3.org/1999/xlink" contentScriptType="application/ecmascript" contentStyleType="text/css" height="455.25px" preserveAspectRatio="none" style="width:579px;height:455px;" version="1.1" viewBox="0 0 579 455" width="579px" zoomAndPan="magnify"><defs><filter height="300%" id="fu3zgbv48l3zo" width="300%" x="-1" y="-1"><feGaussianBlur result="blurOut" stdDeviation="1.5"/><feColorMatrix in="blurOut" result="blurOut2" type="matrix" values="0 0 0 0 0 0 0 0 0 0 0 0 0 0 0 0 0 0 .4 0"/><feOffset dx="3.0" dy="3.0" in="blurOut2" result="blurOut3"/><feBlend in="SourceGraphic" in2="blurOut3" mode="normal"/></filter></defs><g><!--MD5=[c5b08e60048ef1bcd788d24cf324082e]
class UserSession--><rect codeLine="4" fill="#FEFECE" filter="url(#fu3zgbv48l3zo)" height="46.377" id="UserSession" style="stroke:#A80036;stroke-width:1.125;" width="78.75" x="489.75" y="226.125"/><ellipse cx="501" cy="238.125" fill="#ADD1B2" rx="8.25" ry="8.25" style="stroke:#A80036;stroke-width:0.75;"/><path d="M502.5,235.5 Q502.6523,235.125 502.8281,234.9375 Q503.0039,234.75 503.2031,234.75 Q503.5547,234.75 503.7773,234.9609 Q504,235.1719 504,235.6641 L504,236.8359 Q504,237.3281 503.7891,237.5391 Q503.5781,237.75 503.25,237.75 Q502.957,237.75 502.7695,237.6211 Q502.582,237.4922 502.5,237.1523 Q502.4648,236.918 502.3359,236.7891 Q502.1016,236.543 501.6797,236.4023 Q501.2578,236.25 500.8359,236.25 Q500.3086,236.25 499.8633,236.4609 Q499.4297,236.6719 499.0898,237.1406 Q498.75,237.6094 498.75,238.2539 L498.75,238.9453 Q498.75,239.7188 499.3828,240.2344 Q500.0156,240.75 501.1406,240.75 Q501.8086,240.75 502.2773,240.5977 Q502.5469,240.5156 502.8516,240.2461 Q503.0508,240.0938 503.1563,240.0469 Q503.2617,240 503.3906,240 Q503.6367,240 503.8125,240.1992 Q504,240.3867 504,240.6563 Q504,240.9141 503.7422,241.2188 Q503.3672,241.6641 502.7695,241.9102 Q501.9844,242.25 501.0234,242.25 Q499.8984,242.25 498.9961,241.8047 Q498.2695,241.4531 497.7539,240.6914 Q497.25,239.9297 497.25,239.0273 L497.25,238.207 Q497.25,237.2695 497.6953,236.4492 Q498.1523,235.6289 498.9375,235.1953 Q499.7344,234.75 500.625,234.75 Q501.1641,234.75 501.6328,234.9375 Q502.1016,235.125 502.5,235.5 Z " fill="#000000"/><text fill="#000000" font-family="sans-serif" font-size="9" lengthAdjust="spacing" textLength="54.75" x="511.5" y="241.8076">UserSession</text><line style="stroke:#A80036;stroke-width:1.125;" x1="490.5" x2="567.75" y1="250.125" y2="250.125"/><line style="stroke:#A80036;stroke-width:1.125;" x1="490.5" x2="567.75" y1="256.125" y2="256.125"/><text fill="#000000" font-family="sans-serif" font-size="8.25" lengthAdjust="spacing" textLength="57" x="494.25" y="267.6892">+getUserEmail()</text><!--MD5=[aeb3272166074d8737a70b61b1e71682]
class TestType--><rect codeLine="10" fill="#FEFECE" filter="url(#fu3zgbv48l3zo)" height="87.8848" id="TestType" style="stroke:#A80036;stroke-width:1.125;" width="273.75" x="5.25" y="357"/><ellipse cx="120.1875" cy="369" fill="#ADD1B2" rx="8.25" ry="8.25" style="stroke:#A80036;stroke-width:0.75;"/><path d="M121.6875,366.375 Q121.8398,366 122.0156,365.8125 Q122.1914,365.625 122.3906,365.625 Q122.7422,365.625 122.9648,365.8359 Q123.1875,366.0469 123.1875,366.5391 L123.1875,367.7109 Q123.1875,368.2031 122.9766,368.4141 Q122.7656,368.625 122.4375,368.625 Q122.1445,368.625 121.957,368.4961 Q121.7695,368.3672 121.6875,368.0273 Q121.6523,367.793 121.5234,367.6641 Q121.2891,367.418 120.8672,367.2773 Q120.4453,367.125 120.0234,367.125 Q119.4961,367.125 119.0508,367.3359 Q118.6172,367.5469 118.2773,368.0156 Q117.9375,368.4844 117.9375,369.1289 L117.9375,369.8203 Q117.9375,370.5938 118.5703,371.1094 Q119.2031,371.625 120.3281,371.625 Q120.9961,371.625 121.4648,371.4727 Q121.7344,371.3906 122.0391,371.1211 Q122.2383,370.9688 122.3438,370.9219 Q122.4492,370.875 122.5781,370.875 Q122.8242,370.875 123,371.0742 Q123.1875,371.2617 123.1875,371.5313 Q123.1875,371.7891 122.9297,372.0938 Q122.5547,372.5391 121.957,372.7852 Q121.1719,373.125 120.2109,373.125 Q119.0859,373.125 118.1836,372.6797 Q117.457,372.3281 116.9414,371.5664 Q116.4375,370.8047 116.4375,369.9023 L116.4375,369.082 Q116.4375,368.1445 116.8828,367.3242 Q117.3398,366.5039 118.125,366.0703 Q118.9219,365.625 119.8125,365.625 Q120.3516,365.625 120.8203,365.8125 Q121.2891,366 121.6875,366.375 Z " fill="#000000"/><text fill="#000000" font-family="sans-serif" font-size="9" lengthAdjust="spacing" textLength="37.5" x="135.5625" y="372.6826">TestType</text><line style="stroke:#A80036;stroke-width:1.125;" x1="6" x2="278.25" y1="381" y2="381"/><text fill="#000000" font-family="sans-serif" font-size="8.25" lengthAdjust="spacing" textLength="67.5" x="9.75" y="392.5642">-String designation</text><text fill="#000000" font-family="sans-serif" font-size="8.25" lengthAdjust="spacing" textLength="98.25" x="9.75" y="402.9412">-String testTypeDescription</text><text fill="#000000" font-family="sans-serif" font-size="8.25" lengthAdjust="spacing" textLength="86.25" x="9.75" y="413.3181">-String collectingMethod</text><text fill="#000000" font-family="sans-serif" font-size="8.25" lengthAdjust="spacing" textLength="44.25" x="9.75" y="423.6951">-String code</text><line style="stroke:#A80036;stroke-width:1.125;" x1="6" x2="278.25" y1="428.5078" y2="428.5078"/><text fill="#000000" font-family="sans-serif" font-size="8.25" lengthAdjust="spacing" textLength="264.75" x="9.75" y="440.072">+TestType(designation, testTypeDescription, collectingMethod, code, cat)</text><!--MD5=[36afb6bbd95a8ac778c4537c55a683d5]
class ParameterCategory--><rect codeLine="19" fill="#FEFECE" filter="url(#fu3zgbv48l3zo)" height="56.7539" id="ParameterCategory" style="stroke:#A80036;stroke-width:1.125;" width="104.25" x="343.5" y="372.375"/><ellipse cx="354.75" cy="384.375" fill="#ADD1B2" rx="8.25" ry="8.25" style="stroke:#A80036;stroke-width:0.75;"/><path d="M356.25,381.75 Q356.4023,381.375 356.5781,381.1875 Q356.7539,381 356.9531,381 Q357.3047,381 357.5273,381.2109 Q357.75,381.4219 357.75,381.9141 L357.75,383.0859 Q357.75,383.5781 357.5391,383.7891 Q357.3281,384 357,384 Q356.707,384 356.5195,383.8711 Q356.332,383.7422 356.25,383.4023 Q356.2148,383.168 356.0859,383.0391 Q355.8516,382.793 355.4297,382.6523 Q355.0078,382.5 354.5859,382.5 Q354.0586,382.5 353.6133,382.7109 Q353.1797,382.9219 352.8398,383.3906 Q352.5,383.8594 352.5,384.5039 L352.5,385.1953 Q352.5,385.9688 353.1328,386.4844 Q353.7656,387 354.8906,387 Q355.5586,387 356.0273,386.8477 Q356.2969,386.7656 356.6016,386.4961 Q356.8008,386.3438 356.9063,386.2969 Q357.0117,386.25 357.1406,386.25 Q357.3867,386.25 357.5625,386.4492 Q357.75,386.6367 357.75,386.9063 Q357.75,387.1641 357.4922,387.4688 Q357.1172,387.9141 356.5195,388.1602 Q355.7344,388.5 354.7734,388.5 Q353.6484,388.5 352.7461,388.0547 Q352.0195,387.7031 351.5039,386.9414 Q351,386.1797 351,385.2773 L351,384.457 Q351,383.5195 351.4453,382.6992 Q351.9023,381.8789 352.6875,381.4453 Q353.4844,381 354.375,381 Q354.9141,381 355.3828,381.1875 Q355.8516,381.375 356.25,381.75 Z " fill="#000000"/><text fill="#000000" font-family="sans-serif" font-size="9" lengthAdjust="spacing" textLength="80.25" x="365.25" y="388.0576">ParameterCategory</text><line style="stroke:#A80036;stroke-width:1.125;" x1="344.25" x2="447" y1="396.375" y2="396.375"/><text fill="#000000" font-family="sans-serif" font-size="8.25" lengthAdjust="spacing" textLength="45.75" x="348" y="407.9392">-String name</text><text fill="#000000" font-family="sans-serif" font-size="8.25" lengthAdjust="spacing" textLength="44.25" x="348" y="418.3162">-String code</text><line style="stroke:#A80036;stroke-width:1.125;" x1="344.25" x2="447" y1="423.1289" y2="423.1289"/><!--MD5=[02e4b9b7573f1156f41e60aa5b4e25a4]
class Company--><rect codeLine="25" fill="#FEFECE" filter="url(#fu3zgbv48l3zo)" height="98.2617" id="Company" style="stroke:#A80036;stroke-width:1.125;" width="281.25" x="182.25" y="200.25"/><ellipse cx="299.8125" cy="212.25" fill="#ADD1B2" rx="8.25" ry="8.25" style="stroke:#A80036;stroke-width:0.75;"/><path d="M301.3125,209.625 Q301.4648,209.25 301.6406,209.0625 Q301.8164,208.875 302.0156,208.875 Q302.3672,208.875 302.5898,209.0859 Q302.8125,209.2969 302.8125,209.7891 L302.8125,210.9609 Q302.8125,211.4531 302.6016,211.6641 Q302.3906,211.875 302.0625,211.875 Q301.7695,211.875 301.582,211.7461 Q301.3945,211.6172 301.3125,211.2773 Q301.2773,211.043 301.1484,210.9141 Q300.9141,210.668 300.4922,210.5273 Q300.0703,210.375 299.6484,210.375 Q299.1211,210.375 298.6758,210.5859 Q298.2422,210.7969 297.9023,211.2656 Q297.5625,211.7344 297.5625,212.3789 L297.5625,213.0703 Q297.5625,213.8438 298.1953,214.3594 Q298.8281,214.875 299.9531,214.875 Q300.6211,214.875 301.0898,214.7227 Q301.3594,214.6406 301.6641,214.3711 Q301.8633,214.2188 301.9688,214.1719 Q302.0742,214.125 302.2031,214.125 Q302.4492,214.125 302.625,214.3242 Q302.8125,214.5117 302.8125,214.7813 Q302.8125,215.0391 302.5547,215.3438 Q302.1797,215.7891 301.582,216.0352 Q300.7969,216.375 299.8359,216.375 Q298.7109,216.375 297.8086,215.9297 Q297.082,215.5781 296.5664,214.8164 Q296.0625,214.0547 296.0625,213.1523 L296.0625,212.332 Q296.0625,211.3945 296.5078,210.5742 Q296.9648,209.7539 297.75,209.3203 Q298.5469,208.875 299.4375,208.875 Q299.9766,208.875 300.4453,209.0625 Q300.9141,209.25 301.3125,209.625 Z " fill="#000000"/><text fill="#000000" font-family="sans-serif" font-size="9" lengthAdjust="spacing" textLength="39.75" x="315.1875" y="215.9326">Company</text><line style="stroke:#A80036;stroke-width:1.125;" x1="183" x2="462.75" y1="224.25" y2="224.25"/><text fill="#000000" font-family="sans-serif" font-size="8.25" lengthAdjust="spacing" textLength="67.5" x="186.75" y="235.8142">-String designation</text><line style="stroke:#A80036;stroke-width:1.125;" x1="183" x2="462.75" y1="240.627" y2="240.627"/><text fill="#000000" font-family="sans-serif" font-size="8.25" lengthAdjust="spacing" textLength="91.5" x="186.75" y="252.1912">+getParameterCategory()</text><text fill="#000000" font-family="sans-serif" font-size="8.25" lengthAdjust="spacing" textLength="134.25" x="186.75" y="262.5681">+getCategoryByCode(categoryCode)</text><text fill="#000000" font-family="sans-serif" font-size="8.25" lengthAdjust="spacing" textLength="272.25" x="186.75" y="272.9451">+createTestType(designation, testTypeDescription, collectingMethod, code)</text><text fill="#000000" font-family="sans-serif" font-size="8.25" lengthAdjust="spacing" textLength="75" x="186.75" y="283.322">-validateTestType(tt)</text><text fill="#000000" font-family="sans-serif" font-size="8.25" lengthAdjust="spacing" textLength="60.75" x="186.75" y="293.699">-addTestType(tt)</text><!--MD5=[51de5e7b448e98e1f71289edad994864]
class CreateTaskController--><rect codeLine="35" fill="#FEFECE" filter="url(#fu3zgbv48l3zo)" height="67.1309" id="CreateTaskController" style="stroke:#A80036;stroke-width:1.125;" width="281.25" x="182.25" y="87"/><ellipse cx="275.4375" cy="99" fill="#ADD1B2" rx="8.25" ry="8.25" style="stroke:#A80036;stroke-width:0.75;"/><path d="M276.9375,96.375 Q277.0898,96 277.2656,95.8125 Q277.4414,95.625 277.6406,95.625 Q277.9922,95.625 278.2148,95.8359 Q278.4375,96.0469 278.4375,96.5391 L278.4375,97.7109 Q278.4375,98.2031 278.2266,98.4141 Q278.0156,98.625 277.6875,98.625 Q277.3945,98.625 277.207,98.4961 Q277.0195,98.3672 276.9375,98.0273 Q276.9023,97.793 276.7734,97.6641 Q276.5391,97.418 276.1172,97.2773 Q275.6953,97.125 275.2734,97.125 Q274.7461,97.125 274.3008,97.3359 Q273.8672,97.5469 273.5273,98.0156 Q273.1875,98.4844 273.1875,99.1289 L273.1875,99.8203 Q273.1875,100.5938 273.8203,101.1094 Q274.4531,101.625 275.5781,101.625 Q276.2461,101.625 276.7148,101.4727 Q276.9844,101.3906 277.2891,101.1211 Q277.4883,100.9688 277.5938,100.9219 Q277.6992,100.875 277.8281,100.875 Q278.0742,100.875 278.25,101.0742 Q278.4375,101.2617 278.4375,101.5313 Q278.4375,101.7891 278.1797,102.0938 Q277.8047,102.5391 277.207,102.7852 Q276.4219,103.125 275.4609,103.125 Q274.3359,103.125 273.4336,102.6797 Q272.707,102.3281 272.1914,101.5664 Q271.6875,100.8047 271.6875,99.9023 L271.6875,99.082 Q271.6875,98.1445 272.1328,97.3242 Q272.5898,96.5039 273.375,96.0703 Q274.1719,95.625 275.0625,95.625 Q275.6016,95.625 276.0703,95.8125 Q276.5391,96 276.9375,96.375 Z " fill="#000000"/><text fill="#000000" font-family="sans-serif" font-size="9" lengthAdjust="spacing" textLength="88.5" x="290.8125" y="102.6826">CreateTaskController</text><line style="stroke:#A80036;stroke-width:1.125;" x1="183" x2="462.75" y1="111" y2="111"/><line style="stroke:#A80036;stroke-width:1.125;" x1="183" x2="462.75" y1="117" y2="117"/><text fill="#000000" font-family="sans-serif" font-size="8.25" lengthAdjust="spacing" textLength="91.5" x="186.75" y="128.5642">+getParameterCategory()</text><text fill="#000000" font-family="sans-serif" font-size="8.25" lengthAdjust="spacing" textLength="272.25" x="186.75" y="138.9412">+createTestType(designation, testTypeDescription, collectingMethod, code)</text><text fill="#000000" font-family="sans-serif" font-size="8.25" lengthAdjust="spacing" textLength="62.25" x="186.75" y="149.3181">+saveTestType()</text><!--MD5=[788566af22260aef45bcb38e0a2dd266]
class CreateTaskUI--><rect codeLine="42" fill="#FEFECE" filter="url(#fu3zgbv48l3zo)" height="36" id="CreateTaskUI" style="stroke:#A80036;stroke-width:1.125;" width="81" x="282.375" y="5.25"/><ellipse cx="293.625" cy="17.25" fill="#ADD1B2" rx="8.25" ry="8.25" style="stroke:#A80036;stroke-width:0.75;"/><path d="M295.125,14.625 Q295.2773,14.25 295.4531,14.0625 Q295.6289,13.875 295.8281,13.875 Q296.1797,13.875 296.4023,14.0859 Q296.625,14.2969 296.625,14.7891 L296.625,15.9609 Q296.625,16.4531 296.4141,16.6641 Q296.2031,16.875 295.875,16.875 Q295.582,16.875 295.3945,16.7461 Q295.207,16.6172 295.125,16.2773 Q295.0898,16.043 294.9609,15.9141 Q294.7266,15.668 294.3047,15.5273 Q293.8828,15.375 293.4609,15.375 Q292.9336,15.375 292.4883,15.5859 Q292.0547,15.7969 291.7148,16.2656 Q291.375,16.7344 291.375,17.3789 L291.375,18.0703 Q291.375,18.8438 292.0078,19.3594 Q292.6406,19.875 293.7656,19.875 Q294.4336,19.875 294.9023,19.7227 Q295.1719,19.6406 295.4766,19.3711 Q295.6758,19.2188 295.7813,19.1719 Q295.8867,19.125 296.0156,19.125 Q296.2617,19.125 296.4375,19.3242 Q296.625,19.5117 296.625,19.7813 Q296.625,20.0391 296.3672,20.3438 Q295.9922,20.7891 295.3945,21.0352 Q294.6094,21.375 293.6484,21.375 Q292.5234,21.375 291.6211,20.9297 Q290.8945,20.5781 290.3789,19.8164 Q289.875,19.0547 289.875,18.1523 L289.875,17.332 Q289.875,16.3945 290.3203,15.5742 Q290.7773,14.7539 291.5625,14.3203 Q292.3594,13.875 293.25,13.875 Q293.7891,13.875 294.2578,14.0625 Q294.7266,14.25 295.125,14.625 Z " fill="#000000"/><text fill="#000000" font-family="sans-serif" font-size="9" lengthAdjust="spacing" textLength="57" x="304.125" y="20.9326">CreateTaskUI</text><line style="stroke:#A80036;stroke-width:1.125;" x1="283.125" x2="362.625" y1="29.25" y2="29.25"/><line style="stroke:#A80036;stroke-width:1.125;" x1="283.125" x2="362.625" y1="35.25" y2="35.25"/><!--MD5=[3c2021faa4730756a46abeb810188647]
link CreateTaskUI to CreateTaskController--><path codeLine="47" d="M322.875,41.385 C322.875,52.9425 322.875,68.565 322.875,82.8375 " fill="none" id="CreateTaskUI-to-CreateTaskController" style="stroke:#A80036;stroke-width:0.75;stroke-dasharray:7.0,7.0;"/><polygon fill="#A80036" points="322.875,86.82,325.875,80.07,322.875,83.07,319.875,80.07,322.875,86.82" style="stroke:#A80036;stroke-width:0.75;"/><!--MD5=[dd02c78841346588d674b7bd2a9ddb24]
link CreateTaskController to TestType--><path codeLine="48" d="M223.8375,154.5375 C202.815,165.915 182.8575,180.8475 169.125,200.25 C137.5125,244.92 134.4375,309.54 136.8375,353.1075 " fill="none" id="CreateTaskController-to-TestType" style="stroke:#A80036;stroke-width:0.75;stroke-dasharray:7.0,7.0;"/><polygon fill="#A80036" points="137.0625,356.9925,139.6517,350.0745,136.8373,353.2493,133.6625,350.4349,137.0625,356.9925" style="stroke:#A80036;stroke-width:0.75;"/><!--MD5=[7f979c8575d10bb1687e6dd5e09a77c6]
link CreateTaskController to Company--><path codeLine="49" d="M322.875,154.5675 C322.875,167.28 322.875,182.1225 322.875,196.2075 " fill="none" id="CreateTaskController-to-Company" style="stroke:#A80036;stroke-width:0.75;stroke-dasharray:7.0,7.0;"/><polygon fill="#A80036" points="322.875,200.16,325.875,193.41,322.875,196.41,319.875,193.41,322.875,200.16" style="stroke:#A80036;stroke-width:0.75;"/><!--MD5=[d36bb5b89fee6244034c385565d7ff7b]
link CreateTaskController to UserSession--><path codeLine="50" d="M397.365,154.575 C423.33,167.4075 452.085,183.135 476.625,200.25 C486.3075,207 496.05,215.4225 504.4725,223.3425 " fill="none" id="CreateTaskController-to-UserSession" style="stroke:#A80036;stroke-width:0.75;stroke-dasharray:7.0,7.0;"/><polygon fill="#A80036" points="507.27,226.005,504.4383,219.1827,504.5496,223.4239,500.3085,223.5353,507.27,226.005" style="stroke:#A80036;stroke-width:0.75;"/><!--MD5=[742a261f27a3dcd734c626287d811acd]
link Company to TestType--><path codeLine="51" d="M264.4425,298.62 C242.91,316.485 218.61,336.6525 197.37,354.2775 " fill="none" id="Company-to-TestType" style="stroke:#A80036;stroke-width:0.75;stroke-dasharray:7.0,7.0;"/><polygon fill="#A80036" points="194.2575,356.865,201.3687,354.8667,197.1445,354.4717,197.5394,350.2475,194.2575,356.865" style="stroke:#A80036;stroke-width:0.75;"/><text fill="#000000" font-family="sans-serif" font-size="9.75" lengthAdjust="spacing" textLength="39.75" x="233.625" y="331.8713">conducts</text><text fill="#000000" font-family="sans-serif" font-size="9.75" lengthAdjust="spacing" textLength="5.25" x="252.5143" y="314.7975">1</text><text fill="#000000" font-family="sans-serif" font-size="9.75" lengthAdjust="spacing" textLength="3.75" x="196.6326" y="348.8992">*</text><!--MD5=[8aaf0efd5e2f3824be7ea3e488dcc283]
link TestType to ParameterCategory--><path codeLine="52" d="M279.2625,400.875 C300.6075,400.875 321.5625,400.875 339.675,400.875 " fill="none" id="TestType-to-ParameterCategory" style="stroke:#A80036;stroke-width:0.75;stroke-dasharray:7.0,7.0;"/><polygon fill="#A80036" points="343.4925,400.875,336.7425,397.875,339.7425,400.875,336.7425,403.875,343.4925,400.875" style="stroke:#A80036;stroke-width:0.75;"/><text fill="#000000" font-family="sans-serif" font-size="9.75" lengthAdjust="spacing" textLength="36.75" x="292.875" y="395.9963">contains</text><text fill="#000000" font-family="sans-serif" font-size="9.75" lengthAdjust="spacing" textLength="5.25" x="285.1587" y="398.7459">1</text><text fill="#000000" font-family="sans-serif" font-size="9.75" lengthAdjust="spacing" textLength="15" x="322.3429" y="411.6414">1..*</text><!--MD5=[93b4f25fb503a8e0e9a46b1d30ff3f44]
link Company to ParameterCategory--><path codeLine="53" d="M346.395,298.62 C357.5775,321.6825 370.6275,348.5775 380.475,368.8875 " fill="none" id="Company-to-ParameterCategory" style="stroke:#A80036;stroke-width:0.75;stroke-dasharray:7.0,7.0;"/><polygon fill="#A80036" points="382.155,372.345,381.9234,364.962,380.5253,368.9676,376.5196,367.5695,382.155,372.345" style="stroke:#A80036;stroke-width:0.75;"/><text fill="#000000" font-family="sans-serif" font-size="9.75" lengthAdjust="spacing" textLength="29.25" x="364.875" y="331.8713">adopts</text><text fill="#000000" font-family="sans-serif" font-size="9.75" lengthAdjust="spacing" textLength="5.25" x="343.4304" y="314.7975">1</text><text fill="#000000" font-family="sans-serif" font-size="9.75" lengthAdjust="spacing" textLength="3.75" x="375.5758" y="364.1469">*</text><!--MD5=[f3858b7eec685b62c554e1e58c05a985]
@startuml
skinparam classAttributeIconSize 0


class UserSession
{
  +getUserEmail()
}


class TestType {
  -String designation
  -String testTypeDescription
  -String collectingMethod
  -String code
  +TestType(designation, testTypeDescription, collectingMethod, code, cat)
}


class ParameterCategory {
  -String name
  -String code
}


class Company {
  -String designation
  +getParameterCategory()
  +getCategoryByCode(categoryCode)
  +createTestType(designation, testTypeDescription, collectingMethod, code)
  -validateTestType(tt)
  -addTestType(tt)
}


class CreateTaskController {
  +getParameterCategory()
  +createTestType(designation, testTypeDescription, collectingMethod, code)
  +saveTestType()
}


class CreateTaskUI {

}


CreateTaskUI ..> CreateTaskController
CreateTaskController ..> TestType
CreateTaskController ..> Company
CreateTaskController ..> UserSession
Company "1" ..> "*" TestType: conducts
TestType "1" .> "1..*" ParameterCategory: contains
Company "1" .> "*" ParameterCategory: adopts

@enduml

PlantUML version 1.2021.4(Sun Apr 04 09:49:39 BST 2021)
(GPL source distribution)
Java Runtime: OpenJDK Runtime Environment
JVM: Dynamic Code Evolution 64-Bit Server VM
Default Encoding: Cp1252
Language: pt
Country: PT
--></g></svg>