<?xml version="1.0" encoding="UTF-8" standalone="no"?><svg xmlns="http://www.w3.org/2000/svg" xmlns:xlink="http://www.w3.org/1999/xlink" contentScriptType="application/ecmascript" contentStyleType="text/css" height="741.25px" preserveAspectRatio="none" style="width:770px;height:741px;" version="1.1" viewBox="0 0 770 741" width="770px" zoomAndPan="magnify"><defs><filter height="300%" id="fngz5t0gwj7sq" width="300%" x="-1" y="-1"><feGaussianBlur result="blurOut" stdDeviation="2.5"/><feColorMatrix in="blurOut" result="blurOut2" type="matrix" values="0 0 0 0 0 0 0 0 0 0 0 0 0 0 0 0 0 0 .4 0"/><feOffset dx="5.0" dy="5.0" in="blurOut2" result="blurOut3"/><feBlend in="SourceGraphic" in2="blurOut3" mode="normal"/></filter></defs><g><!--MD5=[c5b08e60048ef1bcd788d24cf324082e]
class UserSession--><rect codeLine="4" fill="#FEFECE" filter="url(#fngz5t0gwj7sq)" height="77.2949" id="UserSession" style="stroke:#A80036;stroke-width:1.875;" width="131.25" x="621.25" y="376.875"/><ellipse cx="640" cy="396.875" fill="#ADD1B2" rx="13.75" ry="13.75" style="stroke:#A80036;stroke-width:1.25;"/><path d="M642.5,392.5 Q642.7539,391.875 643.0469,391.5625 Q643.3398,391.25 643.6719,391.25 Q644.2578,391.25 644.6289,391.6016 Q645,391.9531 645,392.7734 L645,394.7266 Q645,395.5469 644.6484,395.8984 Q644.2969,396.25 643.75,396.25 Q643.2617,396.25 642.9492,396.0352 Q642.6367,395.8203 642.5,395.2539 Q642.4414,394.8633 642.2266,394.6484 Q641.8359,394.2383 641.1328,394.0039 Q640.4297,393.75 639.7266,393.75 Q638.8477,393.75 638.1055,394.1016 Q637.3828,394.4531 636.8164,395.2344 Q636.25,396.0156 636.25,397.0898 L636.25,398.2422 Q636.25,399.5313 637.3047,400.3906 Q638.3594,401.25 640.2344,401.25 Q641.3477,401.25 642.1289,400.9961 Q642.5781,400.8594 643.0859,400.4102 Q643.418,400.1563 643.5938,400.0781 Q643.7695,400 643.9844,400 Q644.3945,400 644.6875,400.332 Q645,400.6445 645,401.0938 Q645,401.5234 644.5703,402.0313 Q643.9453,402.7734 642.9492,403.1836 Q641.6406,403.75 640.0391,403.75 Q638.1641,403.75 636.6602,403.0078 Q635.4492,402.4219 634.5898,401.1523 Q633.75,399.8828 633.75,398.3789 L633.75,397.0117 Q633.75,395.4492 634.4922,394.082 Q635.2539,392.7148 636.5625,391.9922 Q637.8906,391.25 639.375,391.25 Q640.2734,391.25 641.0547,391.5625 Q641.8359,391.875 642.5,392.5 Z " fill="#000000"/><text fill="#000000" font-family="sans-serif" font-size="15" lengthAdjust="spacing" textLength="91.25" x="657.5" y="403.0127">UserSession</text><line style="stroke:#A80036;stroke-width:1.875;" x1="622.5" x2="751.25" y1="416.875" y2="416.875"/><line style="stroke:#A80036;stroke-width:1.875;" x1="622.5" x2="751.25" y1="426.875" y2="426.875"/><text fill="#000000" font-family="sans-serif" font-size="13.75" lengthAdjust="spacing" textLength="95" x="628.75" y="446.1487">+getUserEmail()</text><!--MD5=[aeb3272166074d8737a70b61b1e71682]
class TestType--><rect codeLine="10" fill="#FEFECE" filter="url(#fngz5t0gwj7sq)" height="129.1797" id="TestType" style="stroke:#A80036;stroke-width:1.875;" width="326.25" x="8.75" y="595"/><ellipse cx="135.3125" cy="615" fill="#ADD1B2" rx="13.75" ry="13.75" style="stroke:#A80036;stroke-width:1.25;"/><path d="M137.8125,610.625 Q138.0664,610 138.3594,609.6875 Q138.6523,609.375 138.9844,609.375 Q139.5703,609.375 139.9414,609.7266 Q140.3125,610.0781 140.3125,610.8984 L140.3125,612.8516 Q140.3125,613.6719 139.9609,614.0234 Q139.6094,614.375 139.0625,614.375 Q138.5742,614.375 138.2617,614.1602 Q137.9492,613.9453 137.8125,613.3789 Q137.7539,612.9883 137.5391,612.7734 Q137.1484,612.3633 136.4453,612.1289 Q135.7422,611.875 135.0391,611.875 Q134.1602,611.875 133.418,612.2266 Q132.6953,612.5781 132.1289,613.3594 Q131.5625,614.1406 131.5625,615.2148 L131.5625,616.3672 Q131.5625,617.6563 132.6172,618.5156 Q133.6719,619.375 135.5469,619.375 Q136.6602,619.375 137.4414,619.1211 Q137.8906,618.9844 138.3984,618.5352 Q138.7305,618.2813 138.9063,618.2031 Q139.082,618.125 139.2969,618.125 Q139.707,618.125 140,618.457 Q140.3125,618.7695 140.3125,619.2188 Q140.3125,619.6484 139.8828,620.1563 Q139.2578,620.8984 138.2617,621.3086 Q136.9531,621.875 135.3516,621.875 Q133.4766,621.875 131.9727,621.1328 Q130.7617,620.5469 129.9023,619.2773 Q129.0625,618.0078 129.0625,616.5039 L129.0625,615.1367 Q129.0625,613.5742 129.8047,612.207 Q130.5664,610.8398 131.875,610.1172 Q133.2031,609.375 134.6875,609.375 Q135.5859,609.375 136.3672,609.6875 Q137.1484,610 137.8125,610.625 Z " fill="#000000"/><text fill="#000000" font-family="sans-serif" font-size="15" lengthAdjust="spacing" textLength="62.5" x="160.9375" y="621.1377">TestType</text><line style="stroke:#A80036;stroke-width:1.875;" x1="10" x2="333.75" y1="635" y2="635"/><text fill="#000000" font-family="sans-serif" font-size="13.75" lengthAdjust="spacing" textLength="110" x="16.25" y="654.2737">-String description</text><text fill="#000000" font-family="sans-serif" font-size="13.75" lengthAdjust="spacing" textLength="143.75" x="16.25" y="671.5686">-String collectingMethod</text><text fill="#000000" font-family="sans-serif" font-size="13.75" lengthAdjust="spacing" textLength="73.75" x="16.25" y="688.8635">-String code</text><line style="stroke:#A80036;stroke-width:1.875;" x1="10" x2="333.75" y1="696.8848" y2="696.8848"/><text fill="#000000" font-family="sans-serif" font-size="13.75" lengthAdjust="spacing" textLength="311.25" x="16.25" y="716.1584">+TestType(description, collectingMethod, code, cat)</text><!--MD5=[36afb6bbd95a8ac778c4537c55a683d5]
class ParameterCategory--><rect codeLine="18" fill="#FEFECE" filter="url(#fngz5t0gwj7sq)" height="111.8848" id="ParameterCategory" style="stroke:#A80036;stroke-width:1.875;" width="218.75" x="466.25" y="603.125"/><ellipse cx="505.25" cy="623.125" fill="#ADD1B2" rx="13.75" ry="13.75" style="stroke:#A80036;stroke-width:1.25;"/><path d="M507.75,618.75 Q508.0039,618.125 508.2969,617.8125 Q508.5898,617.5 508.9219,617.5 Q509.5078,617.5 509.8789,617.8516 Q510.25,618.2031 510.25,619.0234 L510.25,620.9766 Q510.25,621.7969 509.8984,622.1484 Q509.5469,622.5 509,622.5 Q508.5117,622.5 508.1992,622.2852 Q507.8867,622.0703 507.75,621.5039 Q507.6914,621.1133 507.4766,620.8984 Q507.0859,620.4883 506.3828,620.2539 Q505.6797,620 504.9766,620 Q504.0977,620 503.3555,620.3516 Q502.6328,620.7031 502.0664,621.4844 Q501.5,622.2656 501.5,623.3398 L501.5,624.4922 Q501.5,625.7813 502.5547,626.6406 Q503.6094,627.5 505.4844,627.5 Q506.5977,627.5 507.3789,627.2461 Q507.8281,627.1094 508.3359,626.6602 Q508.668,626.4063 508.8438,626.3281 Q509.0195,626.25 509.2344,626.25 Q509.6445,626.25 509.9375,626.582 Q510.25,626.8945 510.25,627.3438 Q510.25,627.7734 509.8203,628.2813 Q509.1953,629.0234 508.1992,629.4336 Q506.8906,630 505.2891,630 Q503.4141,630 501.9102,629.2578 Q500.6992,628.6719 499.8398,627.4023 Q499,626.1328 499,624.6289 L499,623.2617 Q499,621.6992 499.7422,620.332 Q500.5039,618.9648 501.8125,618.2422 Q503.1406,617.5 504.625,617.5 Q505.5234,617.5 506.3047,617.8125 Q507.0859,618.125 507.75,618.75 Z " fill="#000000"/><text fill="#000000" font-family="sans-serif" font-size="15" lengthAdjust="spacing" textLength="133.75" x="527.25" y="629.2627">ParameterCategory</text><line style="stroke:#A80036;stroke-width:1.875;" x1="467.5" x2="683.75" y1="643.125" y2="643.125"/><text fill="#000000" font-family="sans-serif" font-size="13.75" lengthAdjust="spacing" textLength="76.25" x="473.75" y="662.3987">-String name</text><text fill="#000000" font-family="sans-serif" font-size="13.75" lengthAdjust="spacing" textLength="73.75" x="473.75" y="679.6936">-String code</text><line style="stroke:#A80036;stroke-width:1.875;" x1="467.5" x2="683.75" y1="687.7148" y2="687.7148"/><text fill="#000000" font-family="sans-serif" font-size="13.75" lengthAdjust="spacing" textLength="203.75" x="473.75" y="706.9885">+ParameterCategory(name, code)</text><!--MD5=[02e4b9b7573f1156f41e60aa5b4e25a4]
class Company--><rect codeLine="25" fill="#FEFECE" filter="url(#fngz5t0gwj7sq)" height="163.7695" id="Company" style="stroke:#A80036;stroke-width:1.875;" width="338.75" x="238.75" y="333.75"/><ellipse cx="369.6875" cy="353.75" fill="#ADD1B2" rx="13.75" ry="13.75" style="stroke:#A80036;stroke-width:1.25;"/><path d="M372.1875,349.375 Q372.4414,348.75 372.7344,348.4375 Q373.0273,348.125 373.3594,348.125 Q373.9453,348.125 374.3164,348.4766 Q374.6875,348.8281 374.6875,349.6484 L374.6875,351.6016 Q374.6875,352.4219 374.3359,352.7734 Q373.9844,353.125 373.4375,353.125 Q372.9492,353.125 372.6367,352.9102 Q372.3242,352.6953 372.1875,352.1289 Q372.1289,351.7383 371.9141,351.5234 Q371.5234,351.1133 370.8203,350.8789 Q370.1172,350.625 369.4141,350.625 Q368.5352,350.625 367.793,350.9766 Q367.0703,351.3281 366.5039,352.1094 Q365.9375,352.8906 365.9375,353.9648 L365.9375,355.1172 Q365.9375,356.4063 366.9922,357.2656 Q368.0469,358.125 369.9219,358.125 Q371.0352,358.125 371.8164,357.8711 Q372.2656,357.7344 372.7734,357.2852 Q373.1055,357.0313 373.2813,356.9531 Q373.457,356.875 373.6719,356.875 Q374.082,356.875 374.375,357.207 Q374.6875,357.5195 374.6875,357.9688 Q374.6875,358.3984 374.2578,358.9063 Q373.6328,359.6484 372.6367,360.0586 Q371.3281,360.625 369.7266,360.625 Q367.8516,360.625 366.3477,359.8828 Q365.1367,359.2969 364.2773,358.0273 Q363.4375,356.7578 363.4375,355.2539 L363.4375,353.8867 Q363.4375,352.3242 364.1797,350.957 Q364.9414,349.5898 366.25,348.8672 Q367.5781,348.125 369.0625,348.125 Q369.9609,348.125 370.7422,348.4375 Q371.5234,348.75 372.1875,349.375 Z " fill="#000000"/><text fill="#000000" font-family="sans-serif" font-size="15" lengthAdjust="spacing" textLength="66.25" x="395.3125" y="359.8877">Company</text><line style="stroke:#A80036;stroke-width:1.875;" x1="240" x2="576.25" y1="373.75" y2="373.75"/><text fill="#000000" font-family="sans-serif" font-size="13.75" lengthAdjust="spacing" textLength="112.5" x="246.25" y="393.0237">-String designation</text><line style="stroke:#A80036;stroke-width:1.875;" x1="240" x2="576.25" y1="401.0449" y2="401.0449"/><text fill="#000000" font-family="sans-serif" font-size="13.75" lengthAdjust="spacing" textLength="152.5" x="246.25" y="420.3186">+getParameterCategory()</text><text fill="#000000" font-family="sans-serif" font-size="13.75" lengthAdjust="spacing" textLength="223.75" x="246.25" y="437.6135">+getCategoryByCode(categoryCode)</text><text fill="#000000" font-family="sans-serif" font-size="13.75" lengthAdjust="spacing" textLength="323.75" x="246.25" y="454.9084">+createTestType(description, collectingMethod, code)</text><text fill="#000000" font-family="sans-serif" font-size="13.75" lengthAdjust="spacing" textLength="125" x="246.25" y="472.2034">-validateTestType(tt)</text><text fill="#000000" font-family="sans-serif" font-size="13.75" lengthAdjust="spacing" textLength="101.25" x="246.25" y="489.4983">-addTestType(tt)</text><!--MD5=[51de5e7b448e98e1f71289edad994864]
class CreateTaskController--><rect codeLine="35" fill="#FEFECE" filter="url(#fngz5t0gwj7sq)" height="111.8848" id="CreateTaskController" style="stroke:#A80036;stroke-width:1.875;" width="338.75" x="238.75" y="145"/><ellipse cx="329.0625" cy="165" fill="#ADD1B2" rx="13.75" ry="13.75" style="stroke:#A80036;stroke-width:1.25;"/><path d="M331.5625,160.625 Q331.8164,160 332.1094,159.6875 Q332.4023,159.375 332.7344,159.375 Q333.3203,159.375 333.6914,159.7266 Q334.0625,160.0781 334.0625,160.8984 L334.0625,162.8516 Q334.0625,163.6719 333.7109,164.0234 Q333.3594,164.375 332.8125,164.375 Q332.3242,164.375 332.0117,164.1602 Q331.6992,163.9453 331.5625,163.3789 Q331.5039,162.9883 331.2891,162.7734 Q330.8984,162.3633 330.1953,162.1289 Q329.4922,161.875 328.7891,161.875 Q327.9102,161.875 327.168,162.2266 Q326.4453,162.5781 325.8789,163.3594 Q325.3125,164.1406 325.3125,165.2148 L325.3125,166.3672 Q325.3125,167.6563 326.3672,168.5156 Q327.4219,169.375 329.2969,169.375 Q330.4102,169.375 331.1914,169.1211 Q331.6406,168.9844 332.1484,168.5352 Q332.4805,168.2813 332.6563,168.2031 Q332.832,168.125 333.0469,168.125 Q333.457,168.125 333.75,168.457 Q334.0625,168.7695 334.0625,169.2188 Q334.0625,169.6484 333.6328,170.1563 Q333.0078,170.8984 332.0117,171.3086 Q330.7031,171.875 329.1016,171.875 Q327.2266,171.875 325.7227,171.1328 Q324.5117,170.5469 323.6523,169.2773 Q322.8125,168.0078 322.8125,166.5039 L322.8125,165.1367 Q322.8125,163.5742 323.5547,162.207 Q324.3164,160.8398 325.625,160.1172 Q326.9531,159.375 328.4375,159.375 Q329.3359,159.375 330.1172,159.6875 Q330.8984,160 331.5625,160.625 Z " fill="#000000"/><text fill="#000000" font-family="sans-serif" font-size="15" lengthAdjust="spacing" textLength="147.5" x="354.6875" y="171.1377">CreateTaskController</text><line style="stroke:#A80036;stroke-width:1.875;" x1="240" x2="576.25" y1="185" y2="185"/><line style="stroke:#A80036;stroke-width:1.875;" x1="240" x2="576.25" y1="195" y2="195"/><text fill="#000000" font-family="sans-serif" font-size="13.75" lengthAdjust="spacing" textLength="152.5" x="246.25" y="214.2737">+getParameterCategory()</text><text fill="#000000" font-family="sans-serif" font-size="13.75" lengthAdjust="spacing" textLength="323.75" x="246.25" y="231.5686">+createTestType(description, collectingMethod, code)</text><text fill="#000000" font-family="sans-serif" font-size="13.75" lengthAdjust="spacing" textLength="103.75" x="246.25" y="248.8635">+saveTestType()</text><!--MD5=[788566af22260aef45bcb38e0a2dd266]
class CreateTaskUI--><rect codeLine="42" fill="#FEFECE" filter="url(#fngz5t0gwj7sq)" height="60" id="CreateTaskUI" style="stroke:#A80036;stroke-width:1.875;" width="135" x="340.625" y="8.75"/><ellipse cx="359.375" cy="28.75" fill="#ADD1B2" rx="13.75" ry="13.75" style="stroke:#A80036;stroke-width:1.25;"/><path d="M361.875,24.375 Q362.1289,23.75 362.4219,23.4375 Q362.7148,23.125 363.0469,23.125 Q363.6328,23.125 364.0039,23.4766 Q364.375,23.8281 364.375,24.6484 L364.375,26.6016 Q364.375,27.4219 364.0234,27.7734 Q363.6719,28.125 363.125,28.125 Q362.6367,28.125 362.3242,27.9102 Q362.0117,27.6953 361.875,27.1289 Q361.8164,26.7383 361.6016,26.5234 Q361.2109,26.1133 360.5078,25.8789 Q359.8047,25.625 359.1016,25.625 Q358.2227,25.625 357.4805,25.9766 Q356.7578,26.3281 356.1914,27.1094 Q355.625,27.8906 355.625,28.9648 L355.625,30.1172 Q355.625,31.4063 356.6797,32.2656 Q357.7344,33.125 359.6094,33.125 Q360.7227,33.125 361.5039,32.8711 Q361.9531,32.7344 362.4609,32.2852 Q362.793,32.0313 362.9688,31.9531 Q363.1445,31.875 363.3594,31.875 Q363.7695,31.875 364.0625,32.207 Q364.375,32.5195 364.375,32.9688 Q364.375,33.3984 363.9453,33.9063 Q363.3203,34.6484 362.3242,35.0586 Q361.0156,35.625 359.4141,35.625 Q357.5391,35.625 356.0352,34.8828 Q354.8242,34.2969 353.9648,33.0273 Q353.125,31.7578 353.125,30.2539 L353.125,28.8867 Q353.125,27.3242 353.8672,25.957 Q354.6289,24.5898 355.9375,23.8672 Q357.2656,23.125 358.75,23.125 Q359.6484,23.125 360.4297,23.4375 Q361.2109,23.75 361.875,24.375 Z " fill="#000000"/><text fill="#000000" font-family="sans-serif" font-size="15" lengthAdjust="spacing" textLength="95" x="376.875" y="34.8877">CreateTaskUI</text><line style="stroke:#A80036;stroke-width:1.875;" x1="341.875" x2="474.375" y1="48.75" y2="48.75"/><line style="stroke:#A80036;stroke-width:1.875;" x1="341.875" x2="474.375" y1="58.75" y2="58.75"/><!--MD5=[3c2021faa4730756a46abeb810188647]
link CreateTaskUI to CreateTaskController--><path codeLine="47" d="M408.125,68.975 C408.125,88.2375 408.125,114.275 408.125,138.0625 " fill="none" id="CreateTaskUI-to-CreateTaskController" style="stroke:#A80036;stroke-width:1.25;stroke-dasharray:7.0,7.0;"/><polygon fill="#A80036" points="408.125,144.7,413.125,133.45,408.125,138.45,403.125,133.45,408.125,144.7" style="stroke:#A80036;stroke-width:1.25;"/><!--MD5=[dd02c78841346588d674b7bd2a9ddb24]
link CreateTaskController to TestType--><path codeLine="48" d="M295.2,257.6 C265.225,277.55 235.925,302.925 216.875,333.75 C169.025,411.175 163.425,518.6125 165.9375,588.25 " fill="none" id="CreateTaskController-to-TestType" style="stroke:#A80036;stroke-width:1.25;stroke-dasharray:7.0,7.0;"/><polygon fill="#A80036" points="166.2125,594.8625,170.7576,583.4211,165.962,588.6175,160.7656,583.822,166.2125,594.8625" style="stroke:#A80036;stroke-width:1.25;"/><!--MD5=[7f979c8575d10bb1687e6dd5e09a77c6]
link CreateTaskController to Company--><path codeLine="49" d="M408.125,257.6125 C408.125,278.8 408.125,303.5375 408.125,327.0125 " fill="none" id="CreateTaskController-to-Company" style="stroke:#A80036;stroke-width:1.25;stroke-dasharray:7.0,7.0;"/><polygon fill="#A80036" points="408.125,333.6,413.125,322.35,408.125,327.35,403.125,322.35,408.125,333.6" style="stroke:#A80036;stroke-width:1.25;"/><!--MD5=[d36bb5b89fee6244034c385565d7ff7b]
link CreateTaskController to UserSession--><path codeLine="50" d="M494.2625,257.7875 C527.8375,280.325 566.15,307.2625 599.375,333.75 C614.325,345.6625 629.9,359.5 643.6875,372.3125 " fill="none" id="CreateTaskController-to-UserSession" style="stroke:#A80036;stroke-width:1.25;stroke-dasharray:7.0,7.0;"/><polygon fill="#A80036" points="648.3,376.6125,643.4888,365.2805,643.7315,372.3474,636.6646,372.5901,648.3,376.6125" style="stroke:#A80036;stroke-width:1.25;"/><!--MD5=[742a261f27a3dcd734c626287d811acd]
link Company to TestType--><path codeLine="51" d="M329.125,497.5375 C299.7125,527.575 266.65,561.3375 238.4625,590.125 " fill="none" id="Company-to-TestType" style="stroke:#A80036;stroke-width:1.25;stroke-dasharray:7.0,7.0;"/><polygon fill="#A80036" points="233.9875,594.7,245.4235,590.1414,238.3529,590.2272,238.267,583.1567,233.9875,594.7" style="stroke:#A80036;stroke-width:1.25;"/><text fill="#000000" font-family="sans-serif" font-size="16.25" lengthAdjust="spacing" textLength="66.25" x="291.875" y="553.1189">conducts</text><text fill="#000000" font-family="sans-serif" font-size="16.25" lengthAdjust="spacing" textLength="8.75" x="311.2559" y="524.4823">1</text><text fill="#000000" font-family="sans-serif" font-size="16.25" lengthAdjust="spacing" textLength="6.25" x="235.6639" y="581.5351">*</text><!--MD5=[8aaf0efd5e2f3824be7ea3e488dcc283]
link TestType to ParameterCategory--><path codeLine="52" d="M335.5125,659.375 C377.05,659.375 420.825,659.375 459.45,659.375 " fill="none" id="TestType-to-ParameterCategory" style="stroke:#A80036;stroke-width:1.25;stroke-dasharray:7.0,7.0;"/><polygon fill="#A80036" points="466.1125,659.375,454.8625,654.375,459.8625,659.375,454.8625,664.375,466.1125,659.375" style="stroke:#A80036;stroke-width:1.25;"/><text fill="#000000" font-family="sans-serif" font-size="16.25" lengthAdjust="spacing" textLength="85" x="358.125" y="651.2439">has a set of</text><text fill="#000000" font-family="sans-serif" font-size="16.25" lengthAdjust="spacing" textLength="8.75" x="345.2257" y="655.6661">1</text><text fill="#000000" font-family="sans-serif" font-size="16.25" lengthAdjust="spacing" textLength="25" x="431.3896" y="677.0828">1..*</text><!--MD5=[93b4f25fb503a8e0e9a46b1d30ff3f44]
link Company to ParameterCategory--><path codeLine="53" d="M464.1375,497.5375 C486.875,530.3 512.7,567.5 533.7625,597.8375 " fill="none" id="Company-to-ParameterCategory" style="stroke:#A80036;stroke-width:1.25;stroke-dasharray:7.0,7.0;"/><polygon fill="#A80036" points="537.375,603.025,535.0736,590.931,533.8137,597.8889,526.8558,596.629,537.375,603.025" style="stroke:#A80036;stroke-width:1.25;"/><text fill="#000000" font-family="sans-serif" font-size="16.25" lengthAdjust="spacing" textLength="48.75" x="504.375" y="553.1189">adopts</text><text fill="#000000" font-family="sans-serif" font-size="16.25" lengthAdjust="spacing" textLength="8.75" x="461.0354" y="524.4823">1</text><text fill="#000000" font-family="sans-serif" font-size="16.25" lengthAdjust="spacing" textLength="6.25" x="524.5309" y="589.4034">*</text><!--MD5=[e31a29ee4860945f1da5751e6a4a40e9]
@startuml
skinparam classAttributeIconSize 0


class UserSession
{
  +getUserEmail()
}


class TestType {
  -String description
  -String collectingMethod
  -String code
  +TestType(description, collectingMethod, code, cat)
}


class ParameterCategory {
  -String name
  -String code
  +ParameterCategory(name, code)
}


class Company {
  -String designation
  +getParameterCategory()
  +getCategoryByCode(categoryCode)
  +createTestType(description, collectingMethod, code)
  -validateTestType(tt)
  -addTestType(tt)
}


class CreateTaskController {
  +getParameterCategory()
  +createTestType(description, collectingMethod, code)
  +saveTestType()
}


class CreateTaskUI {

}


CreateTaskUI ..> CreateTaskController
CreateTaskController ..> TestType
CreateTaskController ..> Company
CreateTaskController ..> UserSession
Company "1" ..> "*" TestType: conducts
TestType "1" .> "1..*" ParameterCategory: has a set of
Company "1" .> "*" ParameterCategory: adopts

@enduml

PlantUML version 1.2021.4(Sun Apr 04 09:49:39 BST 2021)
(GPL source distribution)
Java Runtime: OpenJDK Runtime Environment
JVM: Dynamic Code Evolution 64-Bit Server VM
Default Encoding: Cp1252
Language: pt
Country: PT
--></g></svg>