<?xml version="1.0" encoding="UTF-8" standalone="no"?><svg xmlns="http://www.w3.org/2000/svg" xmlns:xlink="http://www.w3.org/1999/xlink" contentScriptType="application/ecmascript" contentStyleType="text/css" height="1142.5px" preserveAspectRatio="none" style="width:680px;height:1142px;" version="1.1" viewBox="0 0 680 1142" width="680px" zoomAndPan="magnify"><defs><filter height="300%" id="f1090xiz5ok3ao" width="300%" x="-1" y="-1"><feGaussianBlur result="blurOut" stdDeviation="2.5"/><feColorMatrix in="blurOut" result="blurOut2" type="matrix" values="0 0 0 0 0 0 0 0 0 0 0 0 0 0 0 0 0 0 .4 0"/><feOffset dx="5.0" dy="5.0" in="blurOut2" result="blurOut3"/><feBlend in="SourceGraphic" in2="blurOut3" mode="normal"/></filter></defs><g><!--MD5=[aeb3272166074d8737a70b61b1e71682]
class TestType--><rect codeLine="7" fill="#FEFECE" filter="url(#f1090xiz5ok3ao)" height="146.4746" id="TestType" style="stroke:#A80036;stroke-width:1.875;" width="327.5" x="293.75" y="770"/><ellipse cx="420.9375" cy="790" fill="#ADD1B2" rx="13.75" ry="13.75" style="stroke:#A80036;stroke-width:1.25;"/><path d="M423.4375,785.625 Q423.6914,785 423.9844,784.6875 Q424.2773,784.375 424.6094,784.375 Q425.1953,784.375 425.5664,784.7266 Q425.9375,785.0781 425.9375,785.8984 L425.9375,787.8516 Q425.9375,788.6719 425.5859,789.0234 Q425.2344,789.375 424.6875,789.375 Q424.1992,789.375 423.8867,789.1602 Q423.5742,788.9453 423.4375,788.3789 Q423.3789,787.9883 423.1641,787.7734 Q422.7734,787.3633 422.0703,787.1289 Q421.3672,786.875 420.6641,786.875 Q419.7852,786.875 419.043,787.2266 Q418.3203,787.5781 417.7539,788.3594 Q417.1875,789.1406 417.1875,790.2148 L417.1875,791.3672 Q417.1875,792.6563 418.2422,793.5156 Q419.2969,794.375 421.1719,794.375 Q422.2852,794.375 423.0664,794.1211 Q423.5156,793.9844 424.0234,793.5352 Q424.3555,793.2813 424.5313,793.2031 Q424.707,793.125 424.9219,793.125 Q425.332,793.125 425.625,793.457 Q425.9375,793.7695 425.9375,794.2188 Q425.9375,794.6484 425.5078,795.1563 Q424.8828,795.8984 423.8867,796.3086 Q422.5781,796.875 420.9766,796.875 Q419.1016,796.875 417.5977,796.1328 Q416.3867,795.5469 415.5273,794.2773 Q414.6875,793.0078 414.6875,791.5039 L414.6875,790.1367 Q414.6875,788.5742 415.4297,787.207 Q416.1914,785.8398 417.5,785.1172 Q418.8281,784.375 420.3125,784.375 Q421.2109,784.375 421.9922,784.6875 Q422.7734,785 423.4375,785.625 Z " fill="#000000"/><text fill="#000000" font-family="sans-serif" font-size="15" lengthAdjust="spacing" textLength="62.5" x="446.5625" y="796.1377">TestType</text><line style="stroke:#A80036;stroke-width:1.875;" x1="295" x2="620" y1="810" y2="810"/><text fill="#000000" font-family="sans-serif" font-size="13.75" lengthAdjust="spacing" textLength="110" x="301.25" y="829.2737">-String description</text><text fill="#000000" font-family="sans-serif" font-size="13.75" lengthAdjust="spacing" textLength="143.75" x="301.25" y="846.5686">-String collectingMethod</text><text fill="#000000" font-family="sans-serif" font-size="13.75" lengthAdjust="spacing" textLength="73.75" x="301.25" y="863.8635">-String code</text><text fill="#000000" font-family="sans-serif" font-size="13.75" lengthAdjust="spacing" textLength="312.5" x="301.25" y="881.1584">-List &lt;ParameterCategory&gt; listOfParameterCategory</text><line style="stroke:#A80036;stroke-width:1.875;" x1="295" x2="620" y1="889.1797" y2="889.1797"/><text fill="#000000" font-family="sans-serif" font-size="13.75" lengthAdjust="spacing" textLength="311.25" x="301.25" y="908.4534">+TestType(description, collectingMethod, code, cat)</text><!--MD5=[d802db621b5b215a6f0466f93cefcb42]
class ParameterCategoryStore--><rect codeLine="15" fill="#FEFECE" filter="url(#f1090xiz5ok3ao)" height="77.2949" id="ParameterCategoryStore" style="stroke:#A80036;stroke-width:1.875;" width="245" x="8.75" y="569.375"/><ellipse cx="43.25" cy="589.375" fill="#ADD1B2" rx="13.75" ry="13.75" style="stroke:#A80036;stroke-width:1.25;"/><path d="M45.75,585 Q46.0039,584.375 46.2969,584.0625 Q46.5898,583.75 46.9219,583.75 Q47.5078,583.75 47.8789,584.1016 Q48.25,584.4531 48.25,585.2734 L48.25,587.2266 Q48.25,588.0469 47.8984,588.3984 Q47.5469,588.75 47,588.75 Q46.5117,588.75 46.1992,588.5352 Q45.8867,588.3203 45.75,587.7539 Q45.6914,587.3633 45.4766,587.1484 Q45.0859,586.7383 44.3828,586.5039 Q43.6797,586.25 42.9766,586.25 Q42.0977,586.25 41.3555,586.6016 Q40.6328,586.9531 40.0664,587.7344 Q39.5,588.5156 39.5,589.5898 L39.5,590.7422 Q39.5,592.0313 40.5547,592.8906 Q41.6094,593.75 43.4844,593.75 Q44.5977,593.75 45.3789,593.4961 Q45.8281,593.3594 46.3359,592.9102 Q46.668,592.6563 46.8438,592.5781 Q47.0195,592.5 47.2344,592.5 Q47.6445,592.5 47.9375,592.832 Q48.25,593.1445 48.25,593.5938 Q48.25,594.0234 47.8203,594.5313 Q47.1953,595.2734 46.1992,595.6836 Q44.8906,596.25 43.2891,596.25 Q41.4141,596.25 39.9102,595.5078 Q38.6992,594.9219 37.8398,593.6523 Q37,592.3828 37,590.8789 L37,589.5117 Q37,587.9492 37.7422,586.582 Q38.5039,585.2148 39.8125,584.4922 Q41.1406,583.75 42.625,583.75 Q43.5234,583.75 44.3047,584.0625 Q45.0859,584.375 45.75,585 Z " fill="#000000"/><text fill="#000000" font-family="sans-serif" font-size="15" lengthAdjust="spacing" textLength="170" x="64.25" y="595.5127">ParameterCategoryStore</text><line style="stroke:#A80036;stroke-width:1.875;" x1="10" x2="252.5" y1="609.375" y2="609.375"/><line style="stroke:#A80036;stroke-width:1.875;" x1="10" x2="252.5" y1="619.375" y2="619.375"/><text fill="#000000" font-family="sans-serif" font-size="13.75" lengthAdjust="spacing" textLength="230" x="16.25" y="638.6487">+getParameterCategoryByCode(code)</text><!--MD5=[6ba72ddf03822b91e8d41ca71de58ed3]
class TestTypeStore--><rect codeLine="19" fill="#FEFECE" filter="url(#f1090xiz5ok3ao)" height="129.1797" id="TestTypeStore" style="stroke:#A80036;stroke-width:1.875;" width="365" x="297.5" y="543.75"/><ellipse cx="425.3125" cy="563.75" fill="#ADD1B2" rx="13.75" ry="13.75" style="stroke:#A80036;stroke-width:1.25;"/><path d="M427.8125,559.375 Q428.0664,558.75 428.3594,558.4375 Q428.6523,558.125 428.9844,558.125 Q429.5703,558.125 429.9414,558.4766 Q430.3125,558.8281 430.3125,559.6484 L430.3125,561.6016 Q430.3125,562.4219 429.9609,562.7734 Q429.6094,563.125 429.0625,563.125 Q428.5742,563.125 428.2617,562.9102 Q427.9492,562.6953 427.8125,562.1289 Q427.7539,561.7383 427.5391,561.5234 Q427.1484,561.1133 426.4453,560.8789 Q425.7422,560.625 425.0391,560.625 Q424.1602,560.625 423.418,560.9766 Q422.6953,561.3281 422.1289,562.1094 Q421.5625,562.8906 421.5625,563.9648 L421.5625,565.1172 Q421.5625,566.4063 422.6172,567.2656 Q423.6719,568.125 425.5469,568.125 Q426.6602,568.125 427.4414,567.8711 Q427.8906,567.7344 428.3984,567.2852 Q428.7305,567.0313 428.9063,566.9531 Q429.082,566.875 429.2969,566.875 Q429.707,566.875 430,567.207 Q430.3125,567.5195 430.3125,567.9688 Q430.3125,568.3984 429.8828,568.9063 Q429.2578,569.6484 428.2617,570.0586 Q426.9531,570.625 425.3516,570.625 Q423.4766,570.625 421.9727,569.8828 Q420.7617,569.2969 419.9023,568.0273 Q419.0625,566.7578 419.0625,565.2539 L419.0625,563.8867 Q419.0625,562.3242 419.8047,560.957 Q420.5664,559.5898 421.875,558.8672 Q423.2031,558.125 424.6875,558.125 Q425.5859,558.125 426.3672,558.4375 Q427.1484,558.75 427.8125,559.375 Z " fill="#000000"/><text fill="#000000" font-family="sans-serif" font-size="15" lengthAdjust="spacing" textLength="98.75" x="450.9375" y="569.8877">TestTypeStore</text><line style="stroke:#A80036;stroke-width:1.875;" x1="298.75" x2="661.25" y1="583.75" y2="583.75"/><line style="stroke:#A80036;stroke-width:1.875;" x1="298.75" x2="661.25" y1="593.75" y2="593.75"/><text fill="#000000" font-family="sans-serif" font-size="13.75" lengthAdjust="spacing" textLength="350" x="305" y="613.0237">+createTestType(description, collectingMethod, code, cat)</text><text fill="#000000" font-family="sans-serif" font-size="13.75" lengthAdjust="spacing" textLength="127.5" x="305" y="630.3186">+validateTestType(tt)</text><text fill="#000000" font-family="sans-serif" font-size="13.75" lengthAdjust="spacing" textLength="103.75" x="305" y="647.6135">+addTestType(tt)</text><text fill="#000000" font-family="sans-serif" font-size="13.75" lengthAdjust="spacing" textLength="111.25" x="305" y="664.9084">+saveTestType(tt)</text><!--MD5=[36afb6bbd95a8ac778c4537c55a683d5]
class ParameterCategory--><rect codeLine="26" fill="#FEFECE" filter="url(#f1090xiz5ok3ao)" height="111.8848" id="ParameterCategory" style="stroke:#A80036;stroke-width:1.875;" width="218.75" x="103.125" y="1013.75"/><ellipse cx="142.125" cy="1033.75" fill="#ADD1B2" rx="13.75" ry="13.75" style="stroke:#A80036;stroke-width:1.25;"/><path d="M144.625,1029.375 Q144.8789,1028.75 145.1719,1028.4375 Q145.4648,1028.125 145.7969,1028.125 Q146.3828,1028.125 146.7539,1028.4766 Q147.125,1028.8281 147.125,1029.6484 L147.125,1031.6016 Q147.125,1032.4219 146.7734,1032.7734 Q146.4219,1033.125 145.875,1033.125 Q145.3867,1033.125 145.0742,1032.9102 Q144.7617,1032.6953 144.625,1032.1289 Q144.5664,1031.7383 144.3516,1031.5234 Q143.9609,1031.1133 143.2578,1030.8789 Q142.5547,1030.625 141.8516,1030.625 Q140.9727,1030.625 140.2305,1030.9766 Q139.5078,1031.3281 138.9414,1032.1094 Q138.375,1032.8906 138.375,1033.9648 L138.375,1035.1172 Q138.375,1036.4063 139.4297,1037.2656 Q140.4844,1038.125 142.3594,1038.125 Q143.4727,1038.125 144.2539,1037.8711 Q144.7031,1037.7344 145.2109,1037.2852 Q145.543,1037.0313 145.7188,1036.9531 Q145.8945,1036.875 146.1094,1036.875 Q146.5195,1036.875 146.8125,1037.207 Q147.125,1037.5195 147.125,1037.9688 Q147.125,1038.3984 146.6953,1038.9063 Q146.0703,1039.6484 145.0742,1040.0586 Q143.7656,1040.625 142.1641,1040.625 Q140.2891,1040.625 138.7852,1039.8828 Q137.5742,1039.2969 136.7148,1038.0273 Q135.875,1036.7578 135.875,1035.2539 L135.875,1033.8867 Q135.875,1032.3242 136.6172,1030.957 Q137.3789,1029.5898 138.6875,1028.8672 Q140.0156,1028.125 141.5,1028.125 Q142.3984,1028.125 143.1797,1028.4375 Q143.9609,1028.75 144.625,1029.375 Z " fill="#000000"/><text fill="#000000" font-family="sans-serif" font-size="15" lengthAdjust="spacing" textLength="133.75" x="164.125" y="1039.8877">ParameterCategory</text><line style="stroke:#A80036;stroke-width:1.875;" x1="104.375" x2="320.625" y1="1053.75" y2="1053.75"/><text fill="#000000" font-family="sans-serif" font-size="13.75" lengthAdjust="spacing" textLength="76.25" x="110.625" y="1073.0237">-String name</text><text fill="#000000" font-family="sans-serif" font-size="13.75" lengthAdjust="spacing" textLength="73.75" x="110.625" y="1090.3186">-String code</text><line style="stroke:#A80036;stroke-width:1.875;" x1="104.375" x2="320.625" y1="1098.3398" y2="1098.3398"/><text fill="#000000" font-family="sans-serif" font-size="13.75" lengthAdjust="spacing" textLength="203.75" x="110.625" y="1117.6135">+ParameterCategory(name, code)</text><!--MD5=[02e4b9b7573f1156f41e60aa5b4e25a4]
class Company--><rect codeLine="33" fill="#FEFECE" filter="url(#f1090xiz5ok3ao)" height="111.8848" id="Company" style="stroke:#A80036;stroke-width:1.875;" width="200" x="208.75" y="333.75"/><ellipse cx="270.3125" cy="353.75" fill="#ADD1B2" rx="13.75" ry="13.75" style="stroke:#A80036;stroke-width:1.25;"/><path d="M272.8125,349.375 Q273.0664,348.75 273.3594,348.4375 Q273.6523,348.125 273.9844,348.125 Q274.5703,348.125 274.9414,348.4766 Q275.3125,348.8281 275.3125,349.6484 L275.3125,351.6016 Q275.3125,352.4219 274.9609,352.7734 Q274.6094,353.125 274.0625,353.125 Q273.5742,353.125 273.2617,352.9102 Q272.9492,352.6953 272.8125,352.1289 Q272.7539,351.7383 272.5391,351.5234 Q272.1484,351.1133 271.4453,350.8789 Q270.7422,350.625 270.0391,350.625 Q269.1602,350.625 268.418,350.9766 Q267.6953,351.3281 267.1289,352.1094 Q266.5625,352.8906 266.5625,353.9648 L266.5625,355.1172 Q266.5625,356.4063 267.6172,357.2656 Q268.6719,358.125 270.5469,358.125 Q271.6602,358.125 272.4414,357.8711 Q272.8906,357.7344 273.3984,357.2852 Q273.7305,357.0313 273.9063,356.9531 Q274.082,356.875 274.2969,356.875 Q274.707,356.875 275,357.207 Q275.3125,357.5195 275.3125,357.9688 Q275.3125,358.3984 274.8828,358.9063 Q274.2578,359.6484 273.2617,360.0586 Q271.9531,360.625 270.3516,360.625 Q268.4766,360.625 266.9727,359.8828 Q265.7617,359.2969 264.9023,358.0273 Q264.0625,356.7578 264.0625,355.2539 L264.0625,353.8867 Q264.0625,352.3242 264.8047,350.957 Q265.5664,349.5898 266.875,348.8672 Q268.2031,348.125 269.6875,348.125 Q270.5859,348.125 271.3672,348.4375 Q272.1484,348.75 272.8125,349.375 Z " fill="#000000"/><text fill="#000000" font-family="sans-serif" font-size="15" lengthAdjust="spacing" textLength="66.25" x="295.9375" y="359.8877">Company</text><line style="stroke:#A80036;stroke-width:1.875;" x1="210" x2="407.5" y1="373.75" y2="373.75"/><text fill="#000000" font-family="sans-serif" font-size="13.75" lengthAdjust="spacing" textLength="112.5" x="216.25" y="393.0237">-String designation</text><line style="stroke:#A80036;stroke-width:1.875;" x1="210" x2="407.5" y1="401.0449" y2="401.0449"/><text fill="#000000" font-family="sans-serif" font-size="13.75" lengthAdjust="spacing" textLength="185" x="216.25" y="420.3186">+getParameterCategoryStore()</text><text fill="#000000" font-family="sans-serif" font-size="13.75" lengthAdjust="spacing" textLength="125" x="216.25" y="437.6135">+getTestTypeStore()</text><!--MD5=[51de5e7b448e98e1f71289edad994864]
class CreateTaskController--><rect codeLine="41" fill="#FEFECE" filter="url(#f1090xiz5ok3ao)" height="111.8848" id="CreateTaskController" style="stroke:#A80036;stroke-width:1.875;" width="410" x="103.75" y="145"/><ellipse cx="229.6875" cy="165" fill="#ADD1B2" rx="13.75" ry="13.75" style="stroke:#A80036;stroke-width:1.25;"/><path d="M232.1875,160.625 Q232.4414,160 232.7344,159.6875 Q233.0273,159.375 233.3594,159.375 Q233.9453,159.375 234.3164,159.7266 Q234.6875,160.0781 234.6875,160.8984 L234.6875,162.8516 Q234.6875,163.6719 234.3359,164.0234 Q233.9844,164.375 233.4375,164.375 Q232.9492,164.375 232.6367,164.1602 Q232.3242,163.9453 232.1875,163.3789 Q232.1289,162.9883 231.9141,162.7734 Q231.5234,162.3633 230.8203,162.1289 Q230.1172,161.875 229.4141,161.875 Q228.5352,161.875 227.793,162.2266 Q227.0703,162.5781 226.5039,163.3594 Q225.9375,164.1406 225.9375,165.2148 L225.9375,166.3672 Q225.9375,167.6563 226.9922,168.5156 Q228.0469,169.375 229.9219,169.375 Q231.0352,169.375 231.8164,169.1211 Q232.2656,168.9844 232.7734,168.5352 Q233.1055,168.2813 233.2813,168.2031 Q233.457,168.125 233.6719,168.125 Q234.082,168.125 234.375,168.457 Q234.6875,168.7695 234.6875,169.2188 Q234.6875,169.6484 234.2578,170.1563 Q233.6328,170.8984 232.6367,171.3086 Q231.3281,171.875 229.7266,171.875 Q227.8516,171.875 226.3477,171.1328 Q225.1367,170.5469 224.2773,169.2773 Q223.4375,168.0078 223.4375,166.5039 L223.4375,165.1367 Q223.4375,163.5742 224.1797,162.207 Q224.9414,160.8398 226.25,160.1172 Q227.5781,159.375 229.0625,159.375 Q229.9609,159.375 230.7422,159.6875 Q231.5234,160 232.1875,160.625 Z " fill="#000000"/><text fill="#000000" font-family="sans-serif" font-size="15" lengthAdjust="spacing" textLength="147.5" x="255.3125" y="171.1377">CreateTaskController</text><line style="stroke:#A80036;stroke-width:1.875;" x1="105" x2="512.5" y1="185" y2="185"/><line style="stroke:#A80036;stroke-width:1.875;" x1="105" x2="512.5" y1="195" y2="195"/><text fill="#000000" font-family="sans-serif" font-size="13.75" lengthAdjust="spacing" textLength="185" x="111.25" y="214.2737">+getParameterCategoryStore()</text><text fill="#000000" font-family="sans-serif" font-size="13.75" lengthAdjust="spacing" textLength="395" x="111.25" y="231.5686">+createTestType(description, collectingMethod, code, categories)</text><text fill="#000000" font-family="sans-serif" font-size="13.75" lengthAdjust="spacing" textLength="103.75" x="111.25" y="248.8635">+saveTestType()</text><!--MD5=[788566af22260aef45bcb38e0a2dd266]
class CreateTaskUI--><rect codeLine="48" fill="#FEFECE" filter="url(#f1090xiz5ok3ao)" height="60" id="CreateTaskUI" style="stroke:#A80036;stroke-width:1.875;" width="135" x="241.25" y="8.75"/><ellipse cx="260" cy="28.75" fill="#ADD1B2" rx="13.75" ry="13.75" style="stroke:#A80036;stroke-width:1.25;"/><path d="M262.5,24.375 Q262.7539,23.75 263.0469,23.4375 Q263.3398,23.125 263.6719,23.125 Q264.2578,23.125 264.6289,23.4766 Q265,23.8281 265,24.6484 L265,26.6016 Q265,27.4219 264.6484,27.7734 Q264.2969,28.125 263.75,28.125 Q263.2617,28.125 262.9492,27.9102 Q262.6367,27.6953 262.5,27.1289 Q262.4414,26.7383 262.2266,26.5234 Q261.8359,26.1133 261.1328,25.8789 Q260.4297,25.625 259.7266,25.625 Q258.8477,25.625 258.1055,25.9766 Q257.3828,26.3281 256.8164,27.1094 Q256.25,27.8906 256.25,28.9648 L256.25,30.1172 Q256.25,31.4063 257.3047,32.2656 Q258.3594,33.125 260.2344,33.125 Q261.3477,33.125 262.1289,32.8711 Q262.5781,32.7344 263.0859,32.2852 Q263.418,32.0313 263.5938,31.9531 Q263.7695,31.875 263.9844,31.875 Q264.3945,31.875 264.6875,32.207 Q265,32.5195 265,32.9688 Q265,33.3984 264.5703,33.9063 Q263.9453,34.6484 262.9492,35.0586 Q261.6406,35.625 260.0391,35.625 Q258.1641,35.625 256.6602,34.8828 Q255.4492,34.2969 254.5898,33.0273 Q253.75,31.7578 253.75,30.2539 L253.75,28.8867 Q253.75,27.3242 254.4922,25.957 Q255.2539,24.5898 256.5625,23.8672 Q257.8906,23.125 259.375,23.125 Q260.2734,23.125 261.0547,23.4375 Q261.8359,23.75 262.5,24.375 Z " fill="#000000"/><text fill="#000000" font-family="sans-serif" font-size="15" lengthAdjust="spacing" textLength="95" x="277.5" y="34.8877">CreateTaskUI</text><line style="stroke:#A80036;stroke-width:1.875;" x1="242.5" x2="375" y1="48.75" y2="48.75"/><line style="stroke:#A80036;stroke-width:1.875;" x1="242.5" x2="375" y1="58.75" y2="58.75"/><!--MD5=[3c2021faa4730756a46abeb810188647]
link CreateTaskUI to CreateTaskController--><path codeLine="53" d="M308.75,68.975 C308.75,88.2375 308.75,114.275 308.75,138.0625 " fill="none" id="CreateTaskUI-to-CreateTaskController" style="stroke:#A80036;stroke-width:1.25;stroke-dasharray:7.0,7.0;"/><polygon fill="#A80036" points="308.75,144.7,313.75,133.45,308.75,138.45,303.75,133.45,308.75,144.7" style="stroke:#A80036;stroke-width:1.25;"/><!--MD5=[33b72f00fc6231153dfd4385f93e519c]
link CreateTaskController to TestTypeStore--><path codeLine="54" d="M373.6,257.6125 C395.125,279.225 417.1625,305.6 431.25,333.75 C463.3,397.8375 474.5625,479.675 478.375,536.9875 " fill="none" id="CreateTaskController-to-TestTypeStore" style="stroke:#A80036;stroke-width:1.25;stroke-dasharray:7.0,7.0;"/><polygon fill="#A80036" points="478.7875,543.5,483.0698,531.9577,478.3943,537.2624,473.0896,532.5868,478.7875,543.5" style="stroke:#A80036;stroke-width:1.25;"/><!--MD5=[7f979c8575d10bb1687e6dd5e09a77c6]
link CreateTaskController to Company--><path codeLine="55" d="M308.75,257.875 C308.75,279.55 308.75,304.5 308.75,326.7625 " fill="none" id="CreateTaskController-to-Company" style="stroke:#A80036;stroke-width:1.25;stroke-dasharray:7.0,7.0;"/><polygon fill="#A80036" points="308.75,333.5875,313.75,322.3375,308.75,327.3375,303.75,322.3375,308.75,333.5875" style="stroke:#A80036;stroke-width:1.25;"/><!--MD5=[2d2db606965fe678dfebff0a99d73f6d]
link CreateTaskController to ParameterCategoryStore--><path codeLine="56" d="M244.2375,257.7875 C222.75,279.4125 200.6375,305.75 186.25,333.75 C148.025,408.1 136.35,506.55 132.7875,562.675 " fill="none" id="CreateTaskController-to-ParameterCategoryStore" style="stroke:#A80036;stroke-width:1.25;stroke-dasharray:7.0,7.0;"/><polygon fill="#A80036" points="132.4125,568.975,138.0773,558.0447,132.7868,562.7362,128.0953,557.4457,132.4125,568.975" style="stroke:#A80036;stroke-width:1.25;"/><!--MD5=[d53d7490e5836ca5709858d7326f212b]
link Company to ParameterCategoryStore--><path codeLine="57" d="M263.0375,446.775 C232.8875,483.4125 193.9875,530.6625 166.275,564.325 " fill="none" id="Company-to-ParameterCategoryStore" style="stroke:#A80036;stroke-width:1.25;"/><polygon fill="#A80036" points="162.275,569.1875,173.2821,563.6732,166.2444,564.3598,165.5578,557.3222,162.275,569.1875" style="stroke:#A80036;stroke-width:1.25;"/><text fill="#000000" font-family="sans-serif" font-size="16.25" lengthAdjust="spacing" textLength="35" x="232.5" y="501.8689">uses</text><text fill="#000000" font-family="sans-serif" font-size="16.25" lengthAdjust="spacing" textLength="8.75" x="247.557" y="472.6876">1</text><text fill="#000000" font-family="sans-serif" font-size="16.25" lengthAdjust="spacing" textLength="8.75" x="159.0216" y="556.0295">1</text><!--MD5=[141c3afa12b2b3c0a39ffce56dbd5f19]
link Company to TestTypeStore--><path codeLine="58" d="M352.85,446.775 C375.05,474.7375 402.175,508.875 425.65,538.4375 " fill="none" id="Company-to-TestTypeStore" style="stroke:#A80036;stroke-width:1.25;"/><polygon fill="#A80036" points="429.6875,543.525,426.6226,531.6015,425.8072,538.6254,418.7833,537.81,429.6875,543.525" style="stroke:#A80036;stroke-width:1.25;"/><text fill="#000000" font-family="sans-serif" font-size="16.25" lengthAdjust="spacing" textLength="35" x="400" y="501.8689">uses</text><text fill="#000000" font-family="sans-serif" font-size="16.25" lengthAdjust="spacing" textLength="8.75" x="349.438" y="472.6876">1</text><text fill="#000000" font-family="sans-serif" font-size="16.25" lengthAdjust="spacing" textLength="8.75" x="413.5889" y="530.3702">1</text><!--MD5=[3eebf0e5f359806b77b30e9524c37676]
link TestTypeStore to TestType--><path codeLine="59" d="M473.85,672.9125 C471.1375,700.9 467.9375,734.0625 465.075,763.5625 " fill="none" id="TestTypeStore-to-TestType" style="stroke:#A80036;stroke-width:1.25;"/><polygon fill="#A80036" points="464.475,769.8,470.5147,759.0723,465.065,763.5779,460.5594,758.1282,464.475,769.8" style="stroke:#A80036;stroke-width:1.25;"/><text fill="#000000" font-family="sans-serif" font-size="16.25" lengthAdjust="spacing" textLength="66.25" x="471.25" y="728.1189">conducts</text><text fill="#000000" font-family="sans-serif" font-size="16.25" lengthAdjust="spacing" textLength="8.75" x="463.6857" y="699.8316">1</text><text fill="#000000" font-family="sans-serif" font-size="16.25" lengthAdjust="spacing" textLength="25" x="438.8016" y="756.5268">1..*</text><!--MD5=[d6274e3b73b5bc8f467c6cfbf5bf003e]
link ParameterCategoryStore to ParameterCategory--><path codeLine="60" d="M137.9,646.9625 C151.9,726.125 184.525,910.6 201.625,1007.2375 " fill="none" id="ParameterCategoryStore-to-ParameterCategory" style="stroke:#A80036;stroke-width:1.25;"/><polygon fill="#A80036" points="202.725,1013.475,205.6899,1001.5263,201.6368,1007.3205,195.8426,1003.2674,202.725,1013.475" style="stroke:#A80036;stroke-width:1.25;"/><text fill="#000000" font-family="sans-serif" font-size="16.25" lengthAdjust="spacing" textLength="48.75" x="187.5" y="849.9939">adopts</text><text fill="#000000" font-family="sans-serif" font-size="16.25" lengthAdjust="spacing" textLength="8.75" x="129.5979" y="673.5097">1</text><text fill="#000000" font-family="sans-serif" font-size="16.25" lengthAdjust="spacing" textLength="6.25" x="194.4997" y="1000.238">*</text><!--MD5=[8aaf0efd5e2f3824be7ea3e488dcc283]
link TestType to ParameterCategory--><path codeLine="61" d="M378.975,916.3 C346.2875,946.225 308.7875,980.5625 277.6625,1009.0625 " fill="none" id="TestType-to-ParameterCategory" style="stroke:#A80036;stroke-width:1.25;"/><polygon fill="#A80036" points="272.725,1013.5875,284.4007,1009.6837,277.3367,1009.3691,277.6513,1002.305,272.725,1013.5875" style="stroke:#A80036;stroke-width:1.25;"/><text fill="#000000" font-family="sans-serif" font-size="16.25" lengthAdjust="spacing" textLength="85" x="336.25" y="971.8689">has a set of</text><text fill="#000000" font-family="sans-serif" font-size="16.25" lengthAdjust="spacing" textLength="8.75" x="360.1216" y="943.3189">1</text><text fill="#000000" font-family="sans-serif" font-size="16.25" lengthAdjust="spacing" textLength="25" x="255.0329" y="1000.3677">1..*</text><!--MD5=[d698c7474c2bcb8df2a1bc62bc01bca7]
@startuml
skinparam classAttributeIconSize 0





class TestType {
  -String description
  -String collectingMethod
  -String code
  -List <ParameterCategory> listOfParameterCategory
  +TestType(description, collectingMethod, code, cat)
}

class ParameterCategoryStore{
 +getParameterCategoryByCode(code)
}

class TestTypeStore{
   +createTestType(description, collectingMethod, code, cat)
   +validateTestType(tt)
   +addTestType(tt)
   +saveTestType(tt)
   }

class ParameterCategory {
  -String name
  -String code
  +ParameterCategory(name, code)
}


class Company {
  -String designation
  +getParameterCategoryStore()
  +getTestTypeStore()

}


class CreateTaskController {
    +getParameterCategoryStore()
    +createTestType(description, collectingMethod, code, categories)
    +saveTestType()
}


class CreateTaskUI {

}


CreateTaskUI ..> CreateTaskController
CreateTaskController ..> TestTypeStore
CreateTaskController ..> Company
CreateTaskController ..> ParameterCategoryStore
Company "1" - -> "1" ParameterCategoryStore: uses
Company "1" - -> "1" TestTypeStore: uses
TestTypeStore "1" - -> "1..*" TestType: conducts
ParameterCategoryStore "1" -> "*" ParameterCategory: adopts
TestType "1" - -> "1..*" ParameterCategory: has a set of

@enduml

PlantUML version 1.2021.4(Sun Apr 04 09:49:39 BST 2021)
(GPL source distribution)
Java Runtime: OpenJDK Runtime Environment
JVM: Dynamic Code Evolution 64-Bit Server VM
Default Encoding: Cp1252
Language: pt
Country: PT
--></g></svg>