<?xml version="1.0" encoding="UTF-8" standalone="no"?><svg xmlns="http://www.w3.org/2000/svg" xmlns:xlink="http://www.w3.org/1999/xlink" contentScriptType="application/ecmascript" contentStyleType="text/css" height="985px" preserveAspectRatio="none" style="width:1487px;height:985px;" version="1.1" viewBox="0 0 1487 985" width="1487px" zoomAndPan="magnify"><defs><filter height="300%" id="f186ssojqmt8mq" width="300%" x="-1" y="-1"><feGaussianBlur result="blurOut" stdDeviation="2.0"/><feColorMatrix in="blurOut" result="blurOut2" type="matrix" values="0 0 0 0 0 0 0 0 0 0 0 0 0 0 0 0 0 0 .4 0"/><feOffset dx="4.0" dy="4.0" in="blurOut2" result="blurOut3"/><feBlend in="SourceGraphic" in2="blurOut3" mode="normal"/></filter></defs><g><rect fill="#FFFFFF" filter="url(#f186ssojqmt8mq)" height="791.0859" style="stroke:#A80036;stroke-width:1.0;" width="10" x="59.5" y="99.6094"/><rect fill="#FFFFFF" filter="url(#f186ssojqmt8mq)" height="46.7031" style="stroke:#A80036;stroke-width:1.0;" width="10" x="414.5" y="121.9609"/><rect fill="#FFFFFF" filter="url(#f186ssojqmt8mq)" height="146.4063" style="stroke:#A80036;stroke-width:1.0;" width="10" x="414.5" y="199.0156"/><rect fill="#FFFFFF" filter="url(#f186ssojqmt8mq)" height="237.8125" style="stroke:#A80036;stroke-width:1.0;" width="10" x="414.5" y="375.7734"/><rect fill="#FFFFFF" filter="url(#f186ssojqmt8mq)" height="237.7578" style="stroke:#A80036;stroke-width:1.0;" width="10" x="414.5" y="643.9375"/><rect fill="#FFFFFF" filter="url(#f186ssojqmt8mq)" height="60.3516" style="stroke:#A80036;stroke-width:1.0;" width="10" x="744.5" y="229.3672"/><rect fill="#FFFFFF" filter="url(#f186ssojqmt8mq)" height="153.7578" style="stroke:#A80036;stroke-width:1.0;" width="10" x="744.5" y="429.4766"/><rect fill="#FFFFFF" filter="url(#f186ssojqmt8mq)" height="170.0547" style="stroke:#A80036;stroke-width:1.0;" width="10" x="744.5" y="674.2891"/><rect fill="#FFFFFF" filter="url(#f186ssojqmt8mq)" height="30" style="stroke:#A80036;stroke-width:1.0;" width="10" x="1090.5" y="259.7188"/><rect fill="#FFFFFF" filter="url(#f186ssojqmt8mq)" height="46.7031" style="stroke:#A80036;stroke-width:1.0;" width="10" x="1090.5" y="476.1797"/><rect fill="#FFFFFF" filter="url(#f186ssojqmt8mq)" height="30" style="stroke:#A80036;stroke-width:1.0;" width="10" x="1090.5" y="553.2344"/><rect fill="#FFFFFF" filter="url(#f186ssojqmt8mq)" height="139.7031" style="stroke:#A80036;stroke-width:1.0;" width="10" x="1090.5" y="704.6406"/><rect fill="#FFFFFF" filter="url(#f186ssojqmt8mq)" height="28" style="stroke:#A80036;stroke-width:1.0;" width="10" x="1095.5" y="742.9922"/><rect fill="#FFFFFF" filter="url(#f186ssojqmt8mq)" height="28" style="stroke:#A80036;stroke-width:1.0;" width="10" x="1095.5" y="816.3438"/><rect fill="#FFFFFF" filter="url(#f186ssojqmt8mq)" height="79.0547" style="stroke:#000000;stroke-width:2.0;" width="466.5" x="10" y="304.7188"/><line style="stroke:#A80036;stroke-width:1.0;stroke-dasharray:5.0,5.0;" x1="64" x2="64" y1="89.6094" y2="899.6953"/><line style="stroke:#A80036;stroke-width:1.0;stroke-dasharray:5.0,5.0;" x1="419.5" x2="419.5" y1="89.6094" y2="899.6953"/><line style="stroke:#A80036;stroke-width:1.0;stroke-dasharray:5.0,5.0;" x1="749.5" x2="749.5" y1="89.6094" y2="899.6953"/><line style="stroke:#A80036;stroke-width:1.0;stroke-dasharray:5.0,5.0;" x1="1095" x2="1095" y1="89.6094" y2="899.6953"/><line style="stroke:#A80036;stroke-width:1.0;stroke-dasharray:5.0,5.0;" x1="1430.5" x2="1430.5" y1="517.5313" y2="899.6953"/><text fill="#000000" font-family="sans-serif" font-size="14" lengthAdjust="spacing" textLength="83" x="20" y="86.5332">Administrator</text><ellipse cx="64.5" cy="15" fill="#FEFECE" filter="url(#f186ssojqmt8mq)" rx="8" ry="8" style="stroke:#A80036;stroke-width:2.0;"/><path d="M64.5,23 L64.5,50 M51.5,31 L77.5,31 M64.5,50 L51.5,65 M64.5,50 L77.5,65 " fill="none" filter="url(#f186ssojqmt8mq)" style="stroke:#A80036;stroke-width:2.0;"/><text fill="#000000" font-family="sans-serif" font-size="14" lengthAdjust="spacing" textLength="83" x="20" y="913.2285">Administrator</text><ellipse cx="64.5" cy="926.3047" fill="#FEFECE" filter="url(#f186ssojqmt8mq)" rx="8" ry="8" style="stroke:#A80036;stroke-width:2.0;"/><path d="M64.5,934.3047 L64.5,961.3047 M51.5,942.3047 L77.5,942.3047 M64.5,961.3047 L51.5,976.3047 M64.5,961.3047 L77.5,976.3047 " fill="none" filter="url(#f186ssojqmt8mq)" style="stroke:#A80036;stroke-width:2.0;"/><rect fill="#FEFECE" filter="url(#f186ssojqmt8mq)" height="31.6094" style="stroke:#A80036;stroke-width:1.5;" width="90" x="372.5" y="53"/><text fill="#000000" font-family="sans-serif" font-size="14" lengthAdjust="spacing" textLength="76" x="379.5" y="74.5332">:TestTypeUI</text><rect fill="#FEFECE" filter="url(#f186ssojqmt8mq)" height="31.6094" style="stroke:#A80036;stroke-width:1.5;" width="90" x="372.5" y="898.6953"/><text fill="#000000" font-family="sans-serif" font-size="14" lengthAdjust="spacing" textLength="76" x="379.5" y="920.2285">:TestTypeUI</text><rect fill="#FEFECE" filter="url(#f186ssojqmt8mq)" height="31.6094" style="stroke:#A80036;stroke-width:1.5;" width="140" x="677.5" y="53"/><text fill="#000000" font-family="sans-serif" font-size="14" lengthAdjust="spacing" textLength="126" x="684.5" y="74.5332">:TestTypeController</text><rect fill="#FEFECE" filter="url(#f186ssojqmt8mq)" height="31.6094" style="stroke:#A80036;stroke-width:1.5;" width="140" x="677.5" y="898.6953"/><text fill="#000000" font-family="sans-serif" font-size="14" lengthAdjust="spacing" textLength="126" x="684.5" y="920.2285">:TestTypeController</text><rect fill="#FEFECE" filter="url(#f186ssojqmt8mq)" height="31.6094" style="stroke:#A80036;stroke-width:1.5;" width="83" x="1052" y="53"/><text fill="#000000" font-family="sans-serif" font-size="14" lengthAdjust="spacing" textLength="69" x="1059" y="74.5332">:ManyLabs</text><rect fill="#FEFECE" filter="url(#f186ssojqmt8mq)" height="31.6094" style="stroke:#A80036;stroke-width:1.5;" width="83" x="1052" y="898.6953"/><text fill="#000000" font-family="sans-serif" font-size="14" lengthAdjust="spacing" textLength="69" x="1059" y="920.2285">:ManyLabs</text><rect fill="#FEFECE" filter="url(#f186ssojqmt8mq)" height="31.6094" style="stroke:#A80036;stroke-width:1.5;" width="90" x="1383.5" y="898.6953"/><text fill="#000000" font-family="sans-serif" font-size="14" lengthAdjust="spacing" textLength="76" x="1390.5" y="920.2285">tt: TestType</text><rect fill="#FFFFFF" filter="url(#f186ssojqmt8mq)" height="791.0859" style="stroke:#A80036;stroke-width:1.0;" width="10" x="59.5" y="99.6094"/><rect fill="#FFFFFF" filter="url(#f186ssojqmt8mq)" height="46.7031" style="stroke:#A80036;stroke-width:1.0;" width="10" x="414.5" y="121.9609"/><rect fill="#FFFFFF" filter="url(#f186ssojqmt8mq)" height="146.4063" style="stroke:#A80036;stroke-width:1.0;" width="10" x="414.5" y="199.0156"/><rect fill="#FFFFFF" filter="url(#f186ssojqmt8mq)" height="237.8125" style="stroke:#A80036;stroke-width:1.0;" width="10" x="414.5" y="375.7734"/><rect fill="#FFFFFF" filter="url(#f186ssojqmt8mq)" height="237.7578" style="stroke:#A80036;stroke-width:1.0;" width="10" x="414.5" y="643.9375"/><rect fill="#FFFFFF" filter="url(#f186ssojqmt8mq)" height="60.3516" style="stroke:#A80036;stroke-width:1.0;" width="10" x="744.5" y="229.3672"/><rect fill="#FFFFFF" filter="url(#f186ssojqmt8mq)" height="153.7578" style="stroke:#A80036;stroke-width:1.0;" width="10" x="744.5" y="429.4766"/><rect fill="#FFFFFF" filter="url(#f186ssojqmt8mq)" height="170.0547" style="stroke:#A80036;stroke-width:1.0;" width="10" x="744.5" y="674.2891"/><rect fill="#FFFFFF" filter="url(#f186ssojqmt8mq)" height="30" style="stroke:#A80036;stroke-width:1.0;" width="10" x="1090.5" y="259.7188"/><rect fill="#FFFFFF" filter="url(#f186ssojqmt8mq)" height="46.7031" style="stroke:#A80036;stroke-width:1.0;" width="10" x="1090.5" y="476.1797"/><rect fill="#FFFFFF" filter="url(#f186ssojqmt8mq)" height="30" style="stroke:#A80036;stroke-width:1.0;" width="10" x="1090.5" y="553.2344"/><rect fill="#FFFFFF" filter="url(#f186ssojqmt8mq)" height="139.7031" style="stroke:#A80036;stroke-width:1.0;" width="10" x="1090.5" y="704.6406"/><rect fill="#FFFFFF" filter="url(#f186ssojqmt8mq)" height="28" style="stroke:#A80036;stroke-width:1.0;" width="10" x="1095.5" y="742.9922"/><rect fill="#FFFFFF" filter="url(#f186ssojqmt8mq)" height="28" style="stroke:#A80036;stroke-width:1.0;" width="10" x="1095.5" y="816.3438"/><polygon fill="#A80036" points="402.5,117.9609,412.5,121.9609,402.5,125.9609,406.5,121.9609" style="stroke:#A80036;stroke-width:1.0;"/><line style="stroke:#A80036;stroke-width:1.0;" x1="69.5" x2="408.5" y1="121.9609" y2="121.9609"/><text fill="#000000" font-family="sans-serif" font-size="13" font-weight="bold" lengthAdjust="spacing" textLength="7" x="76.5" y="117.1045">1</text><text fill="#000000" font-family="sans-serif" font-size="13" lengthAdjust="spacing" textLength="190" x="87.5" y="117.1045">asks to create a new type of test</text><polygon fill="#A80036" points="80.5,164.6641,70.5,168.6641,80.5,172.6641,76.5,168.6641" style="stroke:#A80036;stroke-width:1.0;"/><line style="stroke:#A80036;stroke-width:1.0;stroke-dasharray:2.0,2.0;" x1="74.5" x2="418.5" y1="168.6641" y2="168.6641"/><text fill="#000000" font-family="sans-serif" font-size="13" font-weight="bold" lengthAdjust="spacing" textLength="7" x="86.5" y="155.6318">2</text><text fill="#000000" font-family="sans-serif" font-size="13" lengthAdjust="spacing" textLength="269" x="97.5" y="147.4561">request data(designation, testTypeDescription,</text><text fill="#000000" font-family="sans-serif" font-size="13" lengthAdjust="spacing" textLength="138" x="97.5" y="163.8076">collectingMethod, code)</text><polygon fill="#A80036" points="402.5,195.0156,412.5,199.0156,402.5,203.0156,406.5,199.0156" style="stroke:#A80036;stroke-width:1.0;"/><line style="stroke:#A80036;stroke-width:1.0;" x1="69.5" x2="408.5" y1="199.0156" y2="199.0156"/><text fill="#000000" font-family="sans-serif" font-size="13" font-weight="bold" lengthAdjust="spacing" textLength="7" x="76.5" y="194.1592">3</text><text fill="#000000" font-family="sans-serif" font-size="13" lengthAdjust="spacing" textLength="122" x="87.5" y="194.1592">types requested data</text><polygon fill="#A80036" points="732.5,225.3672,742.5,229.3672,732.5,233.3672,736.5,229.3672" style="stroke:#A80036;stroke-width:1.0;"/><line style="stroke:#A80036;stroke-width:1.0;stroke-dasharray:2.0,2.0;" x1="424.5" x2="738.5" y1="229.3672" y2="229.3672"/><text fill="#000000" font-family="sans-serif" font-size="13" font-weight="bold" lengthAdjust="spacing" textLength="7" x="431.5" y="224.5107">4</text><text fill="#000000" font-family="sans-serif" font-size="13" lengthAdjust="spacing" textLength="178" x="442.5" y="224.5107">pc = getParameterCategories()</text><polygon fill="#A80036" points="1078.5,255.7188,1088.5,259.7188,1078.5,263.7188,1082.5,259.7188" style="stroke:#A80036;stroke-width:1.0;"/><line style="stroke:#A80036;stroke-width:1.0;stroke-dasharray:2.0,2.0;" x1="754.5" x2="1084.5" y1="259.7188" y2="259.7188"/><text fill="#000000" font-family="sans-serif" font-size="13" font-weight="bold" lengthAdjust="spacing" textLength="7" x="761.5" y="254.8623">5</text><text fill="#000000" font-family="sans-serif" font-size="13" lengthAdjust="spacing" textLength="178" x="772.5" y="254.8623">pc = getParameterCategories()</text><path d="M10,304.7188 L83,304.7188 L83,312.7188 L73,322.7188 L10,322.7188 L10,304.7188 " fill="#EEEEEE" style="stroke:#000000;stroke-width:1.0;"/><rect fill="none" height="79.0547" style="stroke:#000000;stroke-width:2.0;" width="466.5" x="10" y="304.7188"/><text fill="#000000" font-family="sans-serif" font-size="13" font-weight="bold" lengthAdjust="spacing" textLength="28" x="25" y="319.2139">loop</text><polygon fill="#A80036" points="80.5,341.4219,70.5,345.4219,80.5,349.4219,76.5,345.4219" style="stroke:#A80036;stroke-width:1.0;"/><line style="stroke:#A80036;stroke-width:1.0;stroke-dasharray:2.0,2.0;" x1="74.5" x2="418.5" y1="345.4219" y2="345.4219"/><text fill="#000000" font-family="sans-serif" font-size="13" font-weight="bold" lengthAdjust="spacing" textLength="7" x="86.5" y="340.5654">6</text><text fill="#000000" font-family="sans-serif" font-size="13" lengthAdjust="spacing" textLength="310" x="97.5" y="340.5654">shows parameter category list and asks to select one</text><polygon fill="#A80036" points="402.5,371.7734,412.5,375.7734,402.5,379.7734,406.5,375.7734" style="stroke:#A80036;stroke-width:1.0;"/><line style="stroke:#A80036;stroke-width:1.0;" x1="69.5" x2="408.5" y1="375.7734" y2="375.7734"/><text fill="#000000" font-family="sans-serif" font-size="13" font-weight="bold" lengthAdjust="spacing" textLength="7" x="76.5" y="370.917">7</text><text fill="#000000" font-family="sans-serif" font-size="13" lengthAdjust="spacing" textLength="169" x="87.5" y="370.917">selects a parameter category</text><polygon fill="#A80036" points="732.5,425.4766,742.5,429.4766,732.5,433.4766,736.5,429.4766" style="stroke:#A80036;stroke-width:1.0;"/><line style="stroke:#A80036;stroke-width:1.0;" x1="424.5" x2="738.5" y1="429.4766" y2="429.4766"/><text fill="#000000" font-family="sans-serif" font-size="13" font-weight="bold" lengthAdjust="spacing" textLength="7" x="431.5" y="416.4443">8</text><text fill="#000000" font-family="sans-serif" font-size="13" lengthAdjust="spacing" textLength="286" x="442.5" y="408.2686">createTestType(designation, testTypeDescription,</text><text fill="#000000" font-family="sans-serif" font-size="13" lengthAdjust="spacing" textLength="138" x="446.5" y="424.6201">collectingMethod, code)</text><polygon fill="#A80036" points="1078.5,472.1797,1088.5,476.1797,1078.5,480.1797,1082.5,476.1797" style="stroke:#A80036;stroke-width:1.0;"/><line style="stroke:#A80036;stroke-width:1.0;" x1="754.5" x2="1084.5" y1="476.1797" y2="476.1797"/><text fill="#000000" font-family="sans-serif" font-size="13" font-weight="bold" lengthAdjust="spacing" textLength="7" x="761.5" y="463.1475">9</text><text fill="#000000" font-family="sans-serif" font-size="13" lengthAdjust="spacing" textLength="302" x="772.5" y="454.9717">tt: createTestType(designation, testTypeDescription,</text><text fill="#000000" font-family="sans-serif" font-size="13" lengthAdjust="spacing" textLength="138" x="776.5" y="471.3232">collectingMethod, code)</text><polygon fill="#A80036" points="1371.5,518.8828,1381.5,522.8828,1371.5,526.8828,1375.5,522.8828" style="stroke:#A80036;stroke-width:1.0;"/><line style="stroke:#A80036;stroke-width:1.0;" x1="1095.5" x2="1377.5" y1="522.8828" y2="522.8828"/><text fill="#000000" font-family="sans-serif" font-size="13" font-weight="bold" lengthAdjust="spacing" textLength="14" x="1102.5" y="509.8506">10</text><text fill="#000000" font-family="sans-serif" font-size="13" lengthAdjust="spacing" textLength="237" x="1120.5" y="501.6748">create (desgination, testTypeDescription,</text><text fill="#000000" font-family="sans-serif" font-size="13" lengthAdjust="spacing" textLength="138" x="1124.5" y="518.0264">collectingMethod, code)</text><rect fill="#FEFECE" filter="url(#f186ssojqmt8mq)" height="31.6094" style="stroke:#A80036;stroke-width:1.5;" width="90" x="1383.5" y="484.2734"/><text fill="#000000" font-family="sans-serif" font-size="14" lengthAdjust="spacing" textLength="76" x="1390.5" y="505.8066">tt: TestType</text><polygon fill="#A80036" points="1078.5,549.2344,1088.5,553.2344,1078.5,557.2344,1082.5,553.2344" style="stroke:#A80036;stroke-width:1.0;"/><line style="stroke:#A80036;stroke-width:1.0;" x1="754.5" x2="1084.5" y1="553.2344" y2="553.2344"/><text fill="#000000" font-family="sans-serif" font-size="13" font-weight="bold" lengthAdjust="spacing" textLength="14" x="761.5" y="548.3779">11</text><text fill="#000000" font-family="sans-serif" font-size="13" lengthAdjust="spacing" textLength="112" x="779.5" y="548.3779">validateTestType(tt)</text><polygon fill="#A80036" points="80.5,609.5859,70.5,613.5859,80.5,617.5859,76.5,613.5859" style="stroke:#A80036;stroke-width:1.0;"/><line style="stroke:#A80036;stroke-width:1.0;stroke-dasharray:2.0,2.0;" x1="74.5" x2="418.5" y1="613.5859" y2="613.5859"/><text fill="#000000" font-family="sans-serif" font-size="13" font-weight="bold" lengthAdjust="spacing" textLength="14" x="86.5" y="608.7295">12</text><text fill="#000000" font-family="sans-serif" font-size="13" lengthAdjust="spacing" textLength="247" x="104.5" y="608.7295">shows all data and requests a confirmation</text><polygon fill="#A80036" points="402.5,639.9375,412.5,643.9375,402.5,647.9375,406.5,643.9375" style="stroke:#A80036;stroke-width:1.0;"/><line style="stroke:#A80036;stroke-width:1.0;" x1="69.5" x2="408.5" y1="643.9375" y2="643.9375"/><text fill="#000000" font-family="sans-serif" font-size="13" font-weight="bold" lengthAdjust="spacing" textLength="14" x="76.5" y="639.0811">13</text><text fill="#000000" font-family="sans-serif" font-size="13" lengthAdjust="spacing" textLength="95" x="94.5" y="639.0811">confirms all data</text><polygon fill="#A80036" points="732.5,670.2891,742.5,674.2891,732.5,678.2891,736.5,674.2891" style="stroke:#A80036;stroke-width:1.0;"/><line style="stroke:#A80036;stroke-width:1.0;" x1="424.5" x2="738.5" y1="674.2891" y2="674.2891"/><text fill="#000000" font-family="sans-serif" font-size="13" font-weight="bold" lengthAdjust="spacing" textLength="14" x="431.5" y="669.4326">14</text><text fill="#000000" font-family="sans-serif" font-size="13" lengthAdjust="spacing" textLength="87" x="449.5" y="669.4326">saveTestType()</text><polygon fill="#A80036" points="1078.5,700.6406,1088.5,704.6406,1078.5,708.6406,1082.5,704.6406" style="stroke:#A80036;stroke-width:1.0;"/><line style="stroke:#A80036;stroke-width:1.0;" x1="754.5" x2="1084.5" y1="704.6406" y2="704.6406"/><text fill="#000000" font-family="sans-serif" font-size="13" font-weight="bold" lengthAdjust="spacing" textLength="14" x="761.5" y="699.7842">15</text><text fill="#000000" font-family="sans-serif" font-size="13" lengthAdjust="spacing" textLength="95" x="779.5" y="699.7842">saveTestType(tt)</text><line style="stroke:#A80036;stroke-width:1.0;" x1="1105.5" x2="1147.5" y1="734.9922" y2="734.9922"/><line style="stroke:#A80036;stroke-width:1.0;" x1="1147.5" x2="1147.5" y1="734.9922" y2="747.9922"/><line style="stroke:#A80036;stroke-width:1.0;" x1="1106.5" x2="1147.5" y1="747.9922" y2="747.9922"/><polygon fill="#A80036" points="1116.5,743.9922,1106.5,747.9922,1116.5,751.9922,1112.5,747.9922" style="stroke:#A80036;stroke-width:1.0;"/><text fill="#000000" font-family="sans-serif" font-size="13" font-weight="bold" lengthAdjust="spacing" textLength="14" x="1112.5" y="730.1357">16</text><text fill="#000000" font-family="sans-serif" font-size="13" lengthAdjust="spacing" textLength="112" x="1130.5" y="730.1357">validateTestType(tt)</text><line style="stroke:#A80036;stroke-width:1.0;" x1="1105.5" x2="1147.5" y1="808.3438" y2="808.3438"/><line style="stroke:#A80036;stroke-width:1.0;" x1="1147.5" x2="1147.5" y1="808.3438" y2="821.3438"/><line style="stroke:#A80036;stroke-width:1.0;" x1="1106.5" x2="1147.5" y1="821.3438" y2="821.3438"/><polygon fill="#A80036" points="1116.5,817.3438,1106.5,821.3438,1116.5,825.3438,1112.5,821.3438" style="stroke:#A80036;stroke-width:1.0;"/><text fill="#000000" font-family="sans-serif" font-size="13" font-weight="bold" lengthAdjust="spacing" textLength="14" x="1112.5" y="803.4873">17</text><text fill="#000000" font-family="sans-serif" font-size="13" lengthAdjust="spacing" textLength="90" x="1130.5" y="803.4873">addTestType(tt)</text><polygon fill="#A80036" points="80.5,877.6953,70.5,881.6953,80.5,885.6953,76.5,881.6953" style="stroke:#A80036;stroke-width:1.0;"/><line style="stroke:#A80036;stroke-width:1.0;stroke-dasharray:2.0,2.0;" x1="74.5" x2="418.5" y1="881.6953" y2="881.6953"/><text fill="#000000" font-family="sans-serif" font-size="13" font-weight="bold" lengthAdjust="spacing" textLength="14" x="86.5" y="876.8389">18</text><text fill="#000000" font-family="sans-serif" font-size="13" lengthAdjust="spacing" textLength="152" x="104.5" y="876.8389">informs operation success</text><!--MD5=[c5a100ec20814abb195b350fd6727f0c]
@startuml
actor Administrator as Adm
participant ":TestTypeUI" as UI
participant ":TestTypeController" as TTC
participant ":ManyLabs" as ML

autonumber


activate Adm
Adm -> UI: asks to create a new type of test
activate UI
UI - -> Adm: request data(designation, testTypeDescription, \ncollectingMethod, code)
deactivate UI


Adm -> UI: types requested data
activate UI
UI- ->TTC: pc = getParameterCategories()
activate TTC
TTC- ->ML: pc = getParameterCategories()
activate ML
deactivate ML
deactivate TTC
loop
UI - -> Adm: shows parameter category list and asks to select one
deactivate UI


Adm -> UI: selects a parameter category
activate UI
end
UI -> TTC: createTestType(designation, testTypeDescription, \n collectingMethod, code)
activate TTC
TTC -> ML: tt: createTestType(designation, testTypeDescription, \n collectingMethod, code)
activate ML
create "tt: TestType" as TT
ML -> TT: create (desgination, testTypeDescription, \n collectingMethod, code)
deactivate ML


TTC -> ML: validateTestType(tt)
activate ML
deactivate ML
deactivate TTC


UI - -> Adm: shows all data and requests a confirmation
deactivate UI


Adm -> UI: confirms all data
activate UI
UI -> TTC: saveTestType()
activate TTC
TTC -> ML: saveTestType(tt)
activate ML
ML -> ML: validateTestType(tt)
activate ML
deactivate ML
ML -> ML: addTestType(tt)
activate ML
deactivate ML
deactivate TTC
deactivate ML
UI - -> Adm: informs operation success
deactivate UI


@enduml

PlantUML version 1.2021.4(Sun Apr 04 09:49:39 BST 2021)
(GPL source distribution)
Java Runtime: OpenJDK Runtime Environment
JVM: Dynamic Code Evolution 64-Bit Server VM
Default Encoding: Cp1252
Language: pt
Country: PT
--></g></svg>