<?xml version="1.0" encoding="UTF-8" standalone="no"?><svg xmlns="http://www.w3.org/2000/svg" xmlns:xlink="http://www.w3.org/1999/xlink" contentScriptType="application/ecmascript" contentStyleType="text/css" height="425px" preserveAspectRatio="none" style="width:738px;height:425px;background:#FFFFFF;" version="1.1" viewBox="0 0 738 425" width="738px" zoomAndPan="magnify"><defs><filter height="300%" id="f52swukx84aqh" width="300%" x="-1" y="-1"><feGaussianBlur result="blurOut" stdDeviation="2.0"/><feColorMatrix in="blurOut" result="blurOut2" type="matrix" values="0 0 0 0 0 0 0 0 0 0 0 0 0 0 0 0 0 0 .4 0"/><feOffset dx="4.0" dy="4.0" in="blurOut2" result="blurOut3"/><feBlend in="SourceGraphic" in2="blurOut3" mode="normal"/></filter></defs><g><rect fill="#FFFFFF" filter="url(#f52swukx84aqh)" height="225.0625" style="stroke:#A80036;stroke-width:1.0;" width="10" x="91.5" y="98.2969"/><rect fill="#FFFFFF" filter="url(#f52swukx84aqh)" height="29.1328" style="stroke:#A80036;stroke-width:1.0;" width="10" x="687.5" y="119.4297"/><rect fill="#FFFFFF" filter="url(#f52swukx84aqh)" height="29.1328" style="stroke:#A80036;stroke-width:1.0;" width="10" x="687.5" y="177.6953"/><rect fill="#FFFFFF" filter="url(#f52swukx84aqh)" height="29.1328" style="stroke:#A80036;stroke-width:1.0;" width="10" x="687.5" y="235.9609"/><rect fill="#FFFFFF" filter="url(#f52swukx84aqh)" height="29.1328" style="stroke:#A80036;stroke-width:1.0;" width="10" x="687.5" y="294.2266"/><line style="stroke:#A80036;stroke-width:1.0;stroke-dasharray:5.0,5.0;" x1="96" x2="96" y1="88.2969" y2="341.3594"/><line style="stroke:#A80036;stroke-width:1.0;stroke-dasharray:5.0,5.0;" x1="692.5" x2="692.5" y1="88.2969" y2="341.3594"/><text fill="#000000" font-family="sans-serif" font-size="14" lengthAdjust="spacing" textLength="177" x="5" y="84.9951">Medical Lab Technicician</text><ellipse cx="96.5" cy="15" fill="#FEFECE" filter="url(#f52swukx84aqh)" rx="8" ry="8" style="stroke:#A80036;stroke-width:2.0;"/><path d="M96.5,23 L96.5,50 M83.5,31 L109.5,31 M96.5,50 L83.5,65 M96.5,50 L109.5,65 " fill="none" filter="url(#f52swukx84aqh)" style="stroke:#A80036;stroke-width:2.0;"/><text fill="#000000" font-family="sans-serif" font-size="14" lengthAdjust="spacing" textLength="177" x="5" y="353.3545">Medical Lab Technicician</text><ellipse cx="96.5" cy="366.6563" fill="#FEFECE" filter="url(#f52swukx84aqh)" rx="8" ry="8" style="stroke:#A80036;stroke-width:2.0;"/><path d="M96.5,374.6563 L96.5,401.6563 M83.5,382.6563 L109.5,382.6563 M96.5,401.6563 L83.5,416.6563 M96.5,401.6563 L109.5,416.6563 " fill="none" filter="url(#f52swukx84aqh)" style="stroke:#A80036;stroke-width:2.0;"/><rect fill="#FEFECE" filter="url(#f52swukx84aqh)" height="30.2969" style="stroke:#A80036;stroke-width:1.5;" width="68" x="656.5" y="53"/><text fill="#000000" font-family="sans-serif" font-size="14" lengthAdjust="spacing" textLength="54" x="663.5" y="72.9951">System</text><rect fill="#FEFECE" filter="url(#f52swukx84aqh)" height="30.2969" style="stroke:#A80036;stroke-width:1.5;" width="68" x="656.5" y="340.3594"/><text fill="#000000" font-family="sans-serif" font-size="14" lengthAdjust="spacing" textLength="54" x="663.5" y="360.3545">System</text><rect fill="#FFFFFF" filter="url(#f52swukx84aqh)" height="225.0625" style="stroke:#A80036;stroke-width:1.0;" width="10" x="91.5" y="98.2969"/><rect fill="#FFFFFF" filter="url(#f52swukx84aqh)" height="29.1328" style="stroke:#A80036;stroke-width:1.0;" width="10" x="687.5" y="119.4297"/><rect fill="#FFFFFF" filter="url(#f52swukx84aqh)" height="29.1328" style="stroke:#A80036;stroke-width:1.0;" width="10" x="687.5" y="177.6953"/><rect fill="#FFFFFF" filter="url(#f52swukx84aqh)" height="29.1328" style="stroke:#A80036;stroke-width:1.0;" width="10" x="687.5" y="235.9609"/><rect fill="#FFFFFF" filter="url(#f52swukx84aqh)" height="29.1328" style="stroke:#A80036;stroke-width:1.0;" width="10" x="687.5" y="294.2266"/><polygon fill="#A80036" points="675.5,115.4297,685.5,119.4297,675.5,123.4297,679.5,119.4297" style="stroke:#A80036;stroke-width:1.0;"/><line style="stroke:#A80036;stroke-width:1.0;" x1="101.5" x2="681.5" y1="119.4297" y2="119.4297"/><text fill="#000000" font-family="sans-serif" font-size="13" font-weight="bold" lengthAdjust="spacing" textLength="9" x="108.5" y="114.3638">1</text><text fill="#000000" font-family="sans-serif" font-size="13" lengthAdjust="spacing" textLength="177" x="121.5" y="114.3638">starts recording the sample</text><polygon fill="#A80036" points="112.5,144.5625,102.5,148.5625,112.5,152.5625,108.5,148.5625" style="stroke:#A80036;stroke-width:1.0;"/><line style="stroke:#A80036;stroke-width:1.0;stroke-dasharray:2.0,2.0;" x1="106.5" x2="691.5" y1="148.5625" y2="148.5625"/><text fill="#000000" font-family="sans-serif" font-size="13" font-weight="bold" lengthAdjust="spacing" textLength="9" x="118.5" y="143.4966">2</text><text fill="#000000" font-family="sans-serif" font-size="13" lengthAdjust="spacing" textLength="549" x="131.5" y="143.4966">shows the list of tests registered to be performed and requests to select one of them</text><polygon fill="#A80036" points="675.5,173.6953,685.5,177.6953,675.5,181.6953,679.5,177.6953" style="stroke:#A80036;stroke-width:1.0;"/><line style="stroke:#A80036;stroke-width:1.0;" x1="101.5" x2="681.5" y1="177.6953" y2="177.6953"/><text fill="#000000" font-family="sans-serif" font-size="13" font-weight="bold" lengthAdjust="spacing" textLength="8" x="108.5" y="172.6294">3</text><text fill="#000000" font-family="sans-serif" font-size="13" lengthAdjust="spacing" textLength="257" x="120.5" y="172.6294">select a test registered to be performed</text><polygon fill="#A80036" points="112.5,202.8281,102.5,206.8281,112.5,210.8281,108.5,206.8281" style="stroke:#A80036;stroke-width:1.0;"/><line style="stroke:#A80036;stroke-width:1.0;stroke-dasharray:2.0,2.0;" x1="106.5" x2="691.5" y1="206.8281" y2="206.8281"/><text fill="#000000" font-family="sans-serif" font-size="13" font-weight="bold" lengthAdjust="spacing" textLength="9" x="118.5" y="201.7622">4</text><text fill="#000000" font-family="sans-serif" font-size="13" lengthAdjust="spacing" textLength="99" x="131.5" y="201.7622">requests data()</text><polygon fill="#A80036" points="675.5,231.9609,685.5,235.9609,675.5,239.9609,679.5,235.9609" style="stroke:#A80036;stroke-width:1.0;"/><line style="stroke:#A80036;stroke-width:1.0;" x1="101.5" x2="681.5" y1="235.9609" y2="235.9609"/><text fill="#000000" font-family="sans-serif" font-size="13" font-weight="bold" lengthAdjust="spacing" textLength="9" x="108.5" y="230.895">5</text><text fill="#000000" font-family="sans-serif" font-size="13" lengthAdjust="spacing" textLength="138" x="121.5" y="230.895">types requested data</text><polygon fill="#A80036" points="112.5,261.0938,102.5,265.0938,112.5,269.0938,108.5,265.0938" style="stroke:#A80036;stroke-width:1.0;"/><line style="stroke:#A80036;stroke-width:1.0;stroke-dasharray:2.0,2.0;" x1="106.5" x2="691.5" y1="265.0938" y2="265.0938"/><text fill="#000000" font-family="sans-serif" font-size="13" font-weight="bold" lengthAdjust="spacing" textLength="9" x="118.5" y="260.0278">6</text><text fill="#000000" font-family="sans-serif" font-size="13" lengthAdjust="spacing" textLength="284" x="131.5" y="260.0278">shows the data and requests a confirmation</text><polygon fill="#A80036" points="675.5,290.2266,685.5,294.2266,675.5,298.2266,679.5,294.2266" style="stroke:#A80036;stroke-width:1.0;"/><line style="stroke:#A80036;stroke-width:1.0;" x1="101.5" x2="681.5" y1="294.2266" y2="294.2266"/><text fill="#000000" font-family="sans-serif" font-size="13" font-weight="bold" lengthAdjust="spacing" textLength="9" x="108.5" y="289.1606">7</text><text fill="#000000" font-family="sans-serif" font-size="13" lengthAdjust="spacing" textLength="114" x="121.5" y="289.1606">confirms the data</text><polygon fill="#A80036" points="107.5,319.3594,97.5,323.3594,107.5,327.3594,103.5,323.3594" style="stroke:#A80036;stroke-width:1.0;"/><line style="stroke:#A80036;stroke-width:1.0;stroke-dasharray:2.0,2.0;" x1="101.5" x2="691.5" y1="323.3594" y2="323.3594"/><text fill="#000000" font-family="sans-serif" font-size="13" font-weight="bold" lengthAdjust="spacing" textLength="9" x="113.5" y="318.2935">8</text><text fill="#000000" font-family="sans-serif" font-size="13" lengthAdjust="spacing" textLength="176" x="126.5" y="318.2935">informs operations success</text><!--MD5=[61aa5da4287bb9a8e86826af33ae93f3]
@startuml
Actor "Medical Lab Technicician" as MLT
participant "System" as sys



autonumber

activate MLT
MLT->sys : starts recording the sample 

activate sys

sys- ->MLT : shows the list of tests registered to be performed and requests to select one of them
deactivate sys

MLT->sys : select a test registered to be performed
activate sys

sys- ->MLT : requests data()
deactivate sys

MLT->sys : types requested data
activate sys

sys- ->MLT : shows the data and requests a confirmation
deactivate sys
MLT->sys : confirms the data 
activate sys

sys- ->MLT : informs operations success 
deactivate sys
deactivate MLT
@enduml

PlantUML version 1.2021.6beta6(Unknown compile time)
(GPL source distribution)
Java Runtime: Java(TM) SE Runtime Environment
JVM: Java HotSpot(TM) 64-Bit Server VM
Default Encoding: UTF-8
Language: en
Country: US
--></g></svg>