<?xml version="1.0" encoding="UTF-8" standalone="no"?><svg xmlns="http://www.w3.org/2000/svg" xmlns:xlink="http://www.w3.org/1999/xlink" contentScriptType="application/ecmascript" contentStyleType="text/css" height="1276px" preserveAspectRatio="none" style="width:1846px;height:1276px;background:#FFFFFF;" version="1.1" viewBox="0 0 1846 1276" width="1846px" zoomAndPan="magnify"><defs><filter height="300%" id="fyxpd4y4aeubl" width="300%" x="-1" y="-1"><feGaussianBlur result="blurOut" stdDeviation="2.0"/><feColorMatrix in="blurOut" result="blurOut2" type="matrix" values="0 0 0 0 0 0 0 0 0 0 0 0 0 0 0 0 0 0 .4 0"/><feOffset dx="4.0" dy="4.0" in="blurOut2" result="blurOut3"/><feBlend in="SourceGraphic" in2="blurOut3" mode="normal"/></filter></defs><g><rect fill="#FFFFFF" filter="url(#fyxpd4y4aeubl)" height="1075.4844" style="stroke:#A80036;stroke-width:1.0;" width="10" x="53" y="98.2969"/><rect fill="#FFFFFF" filter="url(#fyxpd4y4aeubl)" height="176.5313" style="stroke:#A80036;stroke-width:1.0;" width="10" x="511" y="119.4297"/><rect fill="#FFFFFF" filter="url(#fyxpd4y4aeubl)" height="29.1328" style="stroke:#A80036;stroke-width:1.0;" width="10" x="511" y="325.0938"/><rect fill="#FFFFFF" filter="url(#fyxpd4y4aeubl)" height="457.4922" style="stroke:#A80036;stroke-width:1.0;" width="10" x="511" y="383.3594"/><rect fill="#FFFFFF" filter="url(#fyxpd4y4aeubl)" height="303.7969" style="stroke:#A80036;stroke-width:1.0;" width="10" x="511" y="869.9844"/><rect fill="#FFFFFF" filter="url(#fyxpd4y4aeubl)" height="118.2656" style="stroke:#A80036;stroke-width:1.0;" width="10" x="692" y="148.5625"/><rect fill="#FFFFFF" filter="url(#fyxpd4y4aeubl)" height="399.2266" style="stroke:#A80036;stroke-width:1.0;" width="10" x="692" y="412.4922"/><rect fill="#FFFFFF" filter="url(#fyxpd4y4aeubl)" height="238.5313" style="stroke:#A80036;stroke-width:1.0;" width="10" x="692" y="899.1172"/><rect fill="#FFFFFF" filter="url(#fyxpd4y4aeubl)" height="30" style="stroke:#A80036;stroke-width:1.0;" width="10" x="958.5" y="236.8281"/><rect fill="#FFFFFF" filter="url(#fyxpd4y4aeubl)" height="294.7969" style="stroke:#A80036;stroke-width:1.0;" width="10" x="1084" y="441.625"/><rect fill="#FFFFFF" filter="url(#fyxpd4y4aeubl)" height="30" style="stroke:#A80036;stroke-width:1.0;" width="10" x="1084" y="781.7188"/><rect fill="#FFFFFF" filter="url(#fyxpd4y4aeubl)" height="209.3984" style="stroke:#A80036;stroke-width:1.0;" width="10" x="1084" y="928.25"/><rect fill="#FFFFFF" filter="url(#fyxpd4y4aeubl)" height="28" style="stroke:#A80036;stroke-width:1.0;" width="10" x="1089" y="965.3828"/><rect fill="#FFFFFF" filter="url(#fyxpd4y4aeubl)" height="28" style="stroke:#A80036;stroke-width:1.0;" width="10" x="1089" y="1037.5156"/><rect fill="#FFFFFF" filter="url(#fyxpd4y4aeubl)" height="28" style="stroke:#A80036;stroke-width:1.0;" width="10" x="1089" y="1109.6484"/><rect fill="#FFFFFF" filter="url(#fyxpd4y4aeubl)" height="265.6641" style="stroke:#A80036;stroke-width:1.0;" width="10" x="1270" y="470.7578"/><rect fill="#FFFFFF" filter="url(#fyxpd4y4aeubl)" height="30" style="stroke:#A80036;stroke-width:1.0;" width="10" x="1504" y="499.8906"/><rect fill="#FFFFFF" filter="url(#fyxpd4y4aeubl)" height="30" style="stroke:#A80036;stroke-width:1.0;" width="10" x="1504" y="559.0234"/><rect fill="#FFFFFF" filter="url(#fyxpd4y4aeubl)" height="30" style="stroke:#A80036;stroke-width:1.0;" width="10" x="1504" y="618.1563"/><rect fill="#FFFFFF" filter="url(#fyxpd4y4aeubl)" height="30" style="stroke:#A80036;stroke-width:1.0;" width="10" x="1651.5" y="177.6953"/><rect fill="#FFFFFF" filter="url(#fyxpd4y4aeubl)" height="30" style="stroke:#A80036;stroke-width:1.0;" width="10" x="1651.5" y="677.2891"/><line style="stroke:#A80036;stroke-width:1.0;stroke-dasharray:5.0,5.0;" x1="58" x2="58" y1="88.2969" y2="1191.7813"/><line style="stroke:#A80036;stroke-width:1.0;stroke-dasharray:5.0,5.0;" x1="515.5" x2="515.5" y1="88.2969" y2="1191.7813"/><line style="stroke:#A80036;stroke-width:1.0;stroke-dasharray:5.0,5.0;" x1="696.5" x2="696.5" y1="88.2969" y2="1191.7813"/><line style="stroke:#A80036;stroke-width:1.0;stroke-dasharray:5.0,5.0;" x1="852.5" x2="852.5" y1="88.2969" y2="1191.7813"/><line style="stroke:#A80036;stroke-width:1.0;stroke-dasharray:5.0,5.0;" x1="963.5" x2="963.5" y1="88.2969" y2="1191.7813"/><line style="stroke:#A80036;stroke-width:1.0;stroke-dasharray:5.0,5.0;" x1="1088.5" x2="1088.5" y1="88.2969" y2="1191.7813"/><line style="stroke:#A80036;stroke-width:1.0;stroke-dasharray:5.0,5.0;" x1="1274.5" x2="1274.5" y1="88.2969" y2="1191.7813"/><line style="stroke:#A80036;stroke-width:1.0;stroke-dasharray:5.0,5.0;" x1="1509" x2="1509" y1="88.2969" y2="1191.7813"/><line style="stroke:#A80036;stroke-width:1.0;stroke-dasharray:5.0,5.0;" x1="1656" x2="1656" y1="88.2969" y2="1191.7813"/><line style="stroke:#A80036;stroke-width:1.0;stroke-dasharray:5.0,5.0;" x1="1776" x2="1776" y1="747.9375" y2="1191.7813"/><text fill="#000000" font-family="sans-serif" font-size="14" lengthAdjust="spacing" textLength="100" x="5" y="84.9951">Administrator</text><ellipse cx="58" cy="15" fill="#FEFECE" filter="url(#fyxpd4y4aeubl)" rx="8" ry="8" style="stroke:#A80036;stroke-width:2.0;"/><path d="M58,23 L58,50 M45,31 L71,31 M58,50 L45,65 M58,50 L71,65 " fill="none" filter="url(#fyxpd4y4aeubl)" style="stroke:#A80036;stroke-width:2.0;"/><text fill="#000000" font-family="sans-serif" font-size="14" lengthAdjust="spacing" textLength="100" x="5" y="1203.7764">Administrator</text><ellipse cx="58" cy="1217.0781" fill="#FEFECE" filter="url(#fyxpd4y4aeubl)" rx="8" ry="8" style="stroke:#A80036;stroke-width:2.0;"/><path d="M58,1225.0781 L58,1252.0781 M45,1233.0781 L71,1233.0781 M58,1252.0781 L45,1267.0781 M58,1252.0781 L71,1267.0781 " fill="none" filter="url(#fyxpd4y4aeubl)" style="stroke:#A80036;stroke-width:2.0;"/><rect fill="#FEFECE" filter="url(#fyxpd4y4aeubl)" height="30.2969" style="stroke:#A80036;stroke-width:1.5;" width="137" x="445.5" y="53"/><text fill="#000000" font-family="sans-serif" font-size="14" lengthAdjust="spacing" textLength="123" x="452.5" y="72.9951">:RecordSampleUI</text><rect fill="#FEFECE" filter="url(#fyxpd4y4aeubl)" height="30.2969" style="stroke:#A80036;stroke-width:1.5;" width="137" x="445.5" y="1190.7813"/><text fill="#000000" font-family="sans-serif" font-size="14" lengthAdjust="spacing" textLength="123" x="452.5" y="1210.7764">:RecordSampleUI</text><rect fill="#FEFECE" filter="url(#fyxpd4y4aeubl)" height="30.2969" style="stroke:#A80036;stroke-width:1.5;" width="197" x="596.5" y="53"/><text fill="#000000" font-family="sans-serif" font-size="14" lengthAdjust="spacing" textLength="183" x="603.5" y="72.9951">:RecordSampleController</text><rect fill="#FEFECE" filter="url(#fyxpd4y4aeubl)" height="30.2969" style="stroke:#A80036;stroke-width:1.5;" width="197" x="596.5" y="1190.7813"/><text fill="#000000" font-family="sans-serif" font-size="14" lengthAdjust="spacing" textLength="183" x="603.5" y="1210.7764">:RecordSampleController</text><rect fill="#FEFECE" filter="url(#fyxpd4y4aeubl)" height="30.2969" style="stroke:#A80036;stroke-width:1.5;" width="87" x="807.5" y="53"/><text fill="#000000" font-family="sans-serif" font-size="14" lengthAdjust="spacing" textLength="73" x="814.5" y="72.9951">:Company</text><rect fill="#FEFECE" filter="url(#fyxpd4y4aeubl)" height="30.2969" style="stroke:#A80036;stroke-width:1.5;" width="87" x="807.5" y="1190.7813"/><text fill="#000000" font-family="sans-serif" font-size="14" lengthAdjust="spacing" textLength="73" x="814.5" y="1210.7764">:Company</text><rect fill="#FEFECE" filter="url(#fyxpd4y4aeubl)" height="30.2969" style="stroke:#A80036;stroke-width:1.5;" width="106" x="908.5" y="53"/><text fill="#000000" font-family="sans-serif" font-size="14" lengthAdjust="spacing" textLength="92" x="915.5" y="72.9951">:TestMapper</text><rect fill="#FEFECE" filter="url(#fyxpd4y4aeubl)" height="30.2969" style="stroke:#A80036;stroke-width:1.5;" width="106" x="908.5" y="1190.7813"/><text fill="#000000" font-family="sans-serif" font-size="14" lengthAdjust="spacing" textLength="92" x="915.5" y="1210.7764">:TestMapper</text><rect fill="#FEFECE" filter="url(#fyxpd4y4aeubl)" height="46.5938" style="stroke:#A80036;stroke-width:1.5;" width="117" x="1028.5" y="36.7031"/><text fill="#000000" font-family="sans-serif" font-size="14" lengthAdjust="spacing" textLength="38" x="1066" y="56.6982">store</text><text fill="#000000" font-family="sans-serif" font-size="14" lengthAdjust="spacing" textLength="99" x="1039.5" y="72.9951">:SampleStore</text><rect fill="#FEFECE" filter="url(#fyxpd4y4aeubl)" height="46.5938" style="stroke:#A80036;stroke-width:1.5;" width="117" x="1028.5" y="1190.7813"/><text fill="#000000" font-family="sans-serif" font-size="14" lengthAdjust="spacing" textLength="38" x="1066" y="1210.7764">store</text><text fill="#000000" font-family="sans-serif" font-size="14" lengthAdjust="spacing" textLength="99" x="1039.5" y="1227.0732">:SampleStore</text><rect fill="#FEFECE" filter="url(#fyxpd4y4aeubl)" height="30.2969" style="stroke:#A80036;stroke-width:1.5;" width="123" x="1211.5" y="53"/><text fill="#000000" font-family="sans-serif" font-size="14" lengthAdjust="spacing" textLength="109" x="1218.5" y="72.9951">SampleMapper</text><rect fill="#FEFECE" filter="url(#fyxpd4y4aeubl)" height="30.2969" style="stroke:#A80036;stroke-width:1.5;" width="123" x="1211.5" y="1190.7813"/><text fill="#000000" font-family="sans-serif" font-size="14" lengthAdjust="spacing" textLength="109" x="1218.5" y="1210.7764">SampleMapper</text><rect fill="#FEFECE" filter="url(#fyxpd4y4aeubl)" height="30.2969" style="stroke:#A80036;stroke-width:1.5;" width="172" x="1421" y="53"/><text fill="#000000" font-family="sans-serif" font-size="14" lengthAdjust="spacing" textLength="158" x="1428" y="72.9951">SampDto: SampleDto</text><rect fill="#FEFECE" filter="url(#fyxpd4y4aeubl)" height="30.2969" style="stroke:#A80036;stroke-width:1.5;" width="172" x="1421" y="1190.7813"/><text fill="#000000" font-family="sans-serif" font-size="14" lengthAdjust="spacing" textLength="158" x="1428" y="1210.7764">SampDto: SampleDto</text><rect fill="#FEFECE" filter="url(#fyxpd4y4aeubl)" height="46.5938" style="stroke:#A80036;stroke-width:1.5;" width="95" x="1607" y="36.7031"/><text fill="#000000" font-family="sans-serif" font-size="14" lengthAdjust="spacing" textLength="38" x="1633.5" y="56.6982">store</text><text fill="#000000" font-family="sans-serif" font-size="14" lengthAdjust="spacing" textLength="77" x="1618" y="72.9951">:TestStore</text><rect fill="#FEFECE" filter="url(#fyxpd4y4aeubl)" height="46.5938" style="stroke:#A80036;stroke-width:1.5;" width="95" x="1607" y="1190.7813"/><text fill="#000000" font-family="sans-serif" font-size="14" lengthAdjust="spacing" textLength="38" x="1633.5" y="1210.7764">store</text><text fill="#000000" font-family="sans-serif" font-size="14" lengthAdjust="spacing" textLength="77" x="1618" y="1227.0732">:TestStore</text><rect fill="#FEFECE" filter="url(#fyxpd4y4aeubl)" height="30.2969" style="stroke:#A80036;stroke-width:1.5;" width="116" x="1716" y="1190.7813"/><text fill="#000000" font-family="sans-serif" font-size="14" lengthAdjust="spacing" textLength="102" x="1723" y="1210.7764">samp: Sample</text><rect fill="#FFFFFF" filter="url(#fyxpd4y4aeubl)" height="1075.4844" style="stroke:#A80036;stroke-width:1.0;" width="10" x="53" y="98.2969"/><rect fill="#FFFFFF" filter="url(#fyxpd4y4aeubl)" height="176.5313" style="stroke:#A80036;stroke-width:1.0;" width="10" x="511" y="119.4297"/><rect fill="#FFFFFF" filter="url(#fyxpd4y4aeubl)" height="29.1328" style="stroke:#A80036;stroke-width:1.0;" width="10" x="511" y="325.0938"/><rect fill="#FFFFFF" filter="url(#fyxpd4y4aeubl)" height="457.4922" style="stroke:#A80036;stroke-width:1.0;" width="10" x="511" y="383.3594"/><rect fill="#FFFFFF" filter="url(#fyxpd4y4aeubl)" height="303.7969" style="stroke:#A80036;stroke-width:1.0;" width="10" x="511" y="869.9844"/><rect fill="#FFFFFF" filter="url(#fyxpd4y4aeubl)" height="118.2656" style="stroke:#A80036;stroke-width:1.0;" width="10" x="692" y="148.5625"/><rect fill="#FFFFFF" filter="url(#fyxpd4y4aeubl)" height="399.2266" style="stroke:#A80036;stroke-width:1.0;" width="10" x="692" y="412.4922"/><rect fill="#FFFFFF" filter="url(#fyxpd4y4aeubl)" height="238.5313" style="stroke:#A80036;stroke-width:1.0;" width="10" x="692" y="899.1172"/><rect fill="#FFFFFF" filter="url(#fyxpd4y4aeubl)" height="30" style="stroke:#A80036;stroke-width:1.0;" width="10" x="958.5" y="236.8281"/><rect fill="#FFFFFF" filter="url(#fyxpd4y4aeubl)" height="294.7969" style="stroke:#A80036;stroke-width:1.0;" width="10" x="1084" y="441.625"/><rect fill="#FFFFFF" filter="url(#fyxpd4y4aeubl)" height="30" style="stroke:#A80036;stroke-width:1.0;" width="10" x="1084" y="781.7188"/><rect fill="#FFFFFF" filter="url(#fyxpd4y4aeubl)" height="209.3984" style="stroke:#A80036;stroke-width:1.0;" width="10" x="1084" y="928.25"/><rect fill="#FFFFFF" filter="url(#fyxpd4y4aeubl)" height="28" style="stroke:#A80036;stroke-width:1.0;" width="10" x="1089" y="965.3828"/><rect fill="#FFFFFF" filter="url(#fyxpd4y4aeubl)" height="28" style="stroke:#A80036;stroke-width:1.0;" width="10" x="1089" y="1037.5156"/><rect fill="#FFFFFF" filter="url(#fyxpd4y4aeubl)" height="28" style="stroke:#A80036;stroke-width:1.0;" width="10" x="1089" y="1109.6484"/><rect fill="#FFFFFF" filter="url(#fyxpd4y4aeubl)" height="265.6641" style="stroke:#A80036;stroke-width:1.0;" width="10" x="1270" y="470.7578"/><rect fill="#FFFFFF" filter="url(#fyxpd4y4aeubl)" height="30" style="stroke:#A80036;stroke-width:1.0;" width="10" x="1504" y="499.8906"/><rect fill="#FFFFFF" filter="url(#fyxpd4y4aeubl)" height="30" style="stroke:#A80036;stroke-width:1.0;" width="10" x="1504" y="559.0234"/><rect fill="#FFFFFF" filter="url(#fyxpd4y4aeubl)" height="30" style="stroke:#A80036;stroke-width:1.0;" width="10" x="1504" y="618.1563"/><rect fill="#FFFFFF" filter="url(#fyxpd4y4aeubl)" height="30" style="stroke:#A80036;stroke-width:1.0;" width="10" x="1651.5" y="177.6953"/><rect fill="#FFFFFF" filter="url(#fyxpd4y4aeubl)" height="30" style="stroke:#A80036;stroke-width:1.0;" width="10" x="1651.5" y="677.2891"/><polygon fill="#A80036" points="499,115.4297,509,119.4297,499,123.4297,503,119.4297" style="stroke:#A80036;stroke-width:1.0;"/><line style="stroke:#A80036;stroke-width:1.0;" x1="63" x2="505" y1="119.4297" y2="119.4297"/><text fill="#000000" font-family="sans-serif" font-size="13" font-weight="bold" lengthAdjust="spacing" textLength="9" x="70" y="114.3638">1</text><text fill="#000000" font-family="sans-serif" font-size="13" lengthAdjust="spacing" textLength="195" x="83" y="114.3638">starts recording a new sample</text><polygon fill="#A80036" points="680,144.5625,690,148.5625,680,152.5625,684,148.5625" style="stroke:#A80036;stroke-width:1.0;"/><line style="stroke:#A80036;stroke-width:1.0;" x1="521" x2="686" y1="148.5625" y2="148.5625"/><text fill="#000000" font-family="sans-serif" font-size="13" font-weight="bold" lengthAdjust="spacing" textLength="9" x="528" y="143.4966">2</text><text fill="#000000" font-family="sans-serif" font-size="13" lengthAdjust="spacing" textLength="132" x="541" y="143.4966">testsDto = getTest()</text><polygon fill="#A80036" points="1639.5,173.6953,1649.5,177.6953,1639.5,181.6953,1643.5,177.6953" style="stroke:#A80036;stroke-width:1.0;"/><line style="stroke:#A80036;stroke-width:1.0;" x1="702" x2="1645.5" y1="177.6953" y2="177.6953"/><text fill="#000000" font-family="sans-serif" font-size="13" font-weight="bold" lengthAdjust="spacing" textLength="8" x="709" y="172.6294">3</text><text fill="#000000" font-family="sans-serif" font-size="13" lengthAdjust="spacing" textLength="109" x="721" y="172.6294">tests = getTest()</text><polygon fill="#A80036" points="946.5,232.8281,956.5,236.8281,946.5,240.8281,950.5,236.8281" style="stroke:#A80036;stroke-width:1.0;"/><line style="stroke:#A80036;stroke-width:1.0;" x1="702" x2="952.5" y1="236.8281" y2="236.8281"/><text fill="#000000" font-family="sans-serif" font-size="13" font-weight="bold" lengthAdjust="spacing" textLength="9" x="709" y="231.7622">4</text><text fill="#000000" font-family="sans-serif" font-size="13" lengthAdjust="spacing" textLength="156" x="722" y="231.7622">testsDto = toDTO(tests)</text><polygon fill="#A80036" points="74,291.9609,64,295.9609,74,299.9609,70,295.9609" style="stroke:#A80036;stroke-width:1.0;"/><line style="stroke:#A80036;stroke-width:1.0;stroke-dasharray:2.0,2.0;" x1="68" x2="515" y1="295.9609" y2="295.9609"/><text fill="#000000" font-family="sans-serif" font-size="13" font-weight="bold" lengthAdjust="spacing" textLength="9" x="80" y="290.895">5</text><text fill="#000000" font-family="sans-serif" font-size="13" lengthAdjust="spacing" textLength="273" x="93" y="290.895">ask to select the test to record the sample</text><polygon fill="#A80036" points="499,321.0938,509,325.0938,499,329.0938,503,325.0938" style="stroke:#A80036;stroke-width:1.0;"/><line style="stroke:#A80036;stroke-width:1.0;" x1="63" x2="505" y1="325.0938" y2="325.0938"/><text fill="#000000" font-family="sans-serif" font-size="13" font-weight="bold" lengthAdjust="spacing" textLength="9" x="70" y="320.0278">6</text><text fill="#000000" font-family="sans-serif" font-size="13" lengthAdjust="spacing" textLength="159" x="83" y="320.0278">selects the intended test</text><polygon fill="#A80036" points="74,350.2266,64,354.2266,74,358.2266,70,354.2266" style="stroke:#A80036;stroke-width:1.0;"/><line style="stroke:#A80036;stroke-width:1.0;stroke-dasharray:2.0,2.0;" x1="68" x2="515" y1="354.2266" y2="354.2266"/><text fill="#000000" font-family="sans-serif" font-size="13" font-weight="bold" lengthAdjust="spacing" textLength="9" x="80" y="349.1606">7</text><text fill="#000000" font-family="sans-serif" font-size="13" lengthAdjust="spacing" textLength="411" x="93" y="349.1606">request data (descriptionMethod, dateCollection, timeCollection)</text><polygon fill="#A80036" points="499,379.3594,509,383.3594,499,387.3594,503,383.3594" style="stroke:#A80036;stroke-width:1.0;"/><line style="stroke:#A80036;stroke-width:1.0;" x1="63" x2="505" y1="383.3594" y2="383.3594"/><text fill="#000000" font-family="sans-serif" font-size="13" font-weight="bold" lengthAdjust="spacing" textLength="9" x="70" y="378.2935">8</text><text fill="#000000" font-family="sans-serif" font-size="13" lengthAdjust="spacing" textLength="138" x="83" y="378.2935">types requested data</text><polygon fill="#A80036" points="680,408.4922,690,412.4922,680,416.4922,684,412.4922" style="stroke:#A80036;stroke-width:1.0;"/><line style="stroke:#A80036;stroke-width:1.0;stroke-dasharray:2.0,2.0;" x1="521" x2="686" y1="412.4922" y2="412.4922"/><text fill="#000000" font-family="sans-serif" font-size="13" font-weight="bold" lengthAdjust="spacing" textLength="9" x="528" y="407.4263">9</text><text fill="#000000" font-family="sans-serif" font-size="13" lengthAdjust="spacing" textLength="136" x="541" y="407.4263">createNewClient(dto)</text><polygon fill="#A80036" points="1072,437.625,1082,441.625,1072,445.625,1076,441.625" style="stroke:#A80036;stroke-width:1.0;"/><line style="stroke:#A80036;stroke-width:1.0;stroke-dasharray:2.0,2.0;" x1="702" x2="1078" y1="441.625" y2="441.625"/><text fill="#000000" font-family="sans-serif" font-size="13" font-weight="bold" lengthAdjust="spacing" textLength="19" x="709" y="436.5591">10</text><text fill="#000000" font-family="sans-serif" font-size="13" lengthAdjust="spacing" textLength="161" x="732" y="436.5591">nc=createNewClient(dto)</text><polygon fill="#A80036" points="1258,466.7578,1268,470.7578,1258,474.7578,1262,470.7578" style="stroke:#A80036;stroke-width:1.0;"/><line style="stroke:#A80036;stroke-width:1.0;stroke-dasharray:2.0,2.0;" x1="1094" x2="1264" y1="470.7578" y2="470.7578"/><text fill="#000000" font-family="sans-serif" font-size="13" font-weight="bold" lengthAdjust="spacing" textLength="18" x="1101" y="465.6919">11</text><text fill="#000000" font-family="sans-serif" font-size="13" lengthAdjust="spacing" textLength="81" x="1123" y="465.6919">toModel(dto)</text><polygon fill="#A80036" points="1492,495.8906,1502,499.8906,1492,503.8906,1496,499.8906" style="stroke:#A80036;stroke-width:1.0;"/><line style="stroke:#A80036;stroke-width:1.0;stroke-dasharray:2.0,2.0;" x1="1280" x2="1498" y1="499.8906" y2="499.8906"/><text fill="#000000" font-family="sans-serif" font-size="13" font-weight="bold" lengthAdjust="spacing" textLength="18" x="1287" y="494.8247">12</text><text fill="#000000" font-family="sans-serif" font-size="13" lengthAdjust="spacing" textLength="183" x="1309" y="494.8247">description=getDescription()</text><polygon fill="#A80036" points="1492,555.0234,1502,559.0234,1492,563.0234,1496,559.0234" style="stroke:#A80036;stroke-width:1.0;"/><line style="stroke:#A80036;stroke-width:1.0;stroke-dasharray:2.0,2.0;" x1="1280" x2="1498" y1="559.0234" y2="559.0234"/><text fill="#000000" font-family="sans-serif" font-size="13" font-weight="bold" lengthAdjust="spacing" textLength="17" x="1287" y="553.9575">13</text><text fill="#000000" font-family="sans-serif" font-size="13" lengthAdjust="spacing" textLength="147" x="1308" y="553.9575">dataColl=getDataColl()</text><polygon fill="#A80036" points="1492,614.1563,1502,618.1563,1492,622.1563,1496,618.1563" style="stroke:#A80036;stroke-width:1.0;"/><line style="stroke:#A80036;stroke-width:1.0;stroke-dasharray:2.0,2.0;" x1="1280" x2="1498" y1="618.1563" y2="618.1563"/><text fill="#000000" font-family="sans-serif" font-size="13" font-weight="bold" lengthAdjust="spacing" textLength="18" x="1287" y="613.0903">14</text><text fill="#000000" font-family="sans-serif" font-size="13" lengthAdjust="spacing" textLength="148" x="1309" y="613.0903">timeColl=getTimeColl()</text><polygon fill="#A80036" points="1639.5,673.2891,1649.5,677.2891,1639.5,681.2891,1643.5,677.2891" style="stroke:#A80036;stroke-width:1.0;"/><line style="stroke:#A80036;stroke-width:1.0;stroke-dasharray:2.0,2.0;" x1="1280" x2="1645.5" y1="677.2891" y2="677.2891"/><text fill="#000000" font-family="sans-serif" font-size="13" font-weight="bold" lengthAdjust="spacing" textLength="18" x="1287" y="672.2231">15</text><text fill="#000000" font-family="sans-serif" font-size="13" lengthAdjust="spacing" textLength="143" x="1309" y="672.2231">test=getTestByCode()</text><polygon fill="#A80036" points="1704,732.4219,1714,736.4219,1704,740.4219,1708,736.4219" style="stroke:#A80036;stroke-width:1.0;"/><line style="stroke:#A80036;stroke-width:1.0;stroke-dasharray:2.0,2.0;" x1="1275" x2="1710" y1="736.4219" y2="736.4219"/><text fill="#000000" font-family="sans-serif" font-size="13" font-weight="bold" lengthAdjust="spacing" textLength="18" x="1282" y="731.356">16</text><text fill="#000000" font-family="sans-serif" font-size="13" lengthAdjust="spacing" textLength="262" x="1304" y="731.356">create(description,dataColl,timeColl,test)</text><rect fill="#FEFECE" filter="url(#fyxpd4y4aeubl)" height="30.2969" style="stroke:#A80036;stroke-width:1.5;" width="116" x="1716" y="715.2891"/><text fill="#000000" font-family="sans-serif" font-size="14" lengthAdjust="spacing" textLength="102" x="1723" y="735.2842">samp: Sample</text><polygon fill="#A80036" points="1072,777.7188,1082,781.7188,1072,785.7188,1076,781.7188" style="stroke:#A80036;stroke-width:1.0;"/><line style="stroke:#A80036;stroke-width:1.0;stroke-dasharray:2.0,2.0;" x1="702" x2="1078" y1="781.7188" y2="781.7188"/><text fill="#000000" font-family="sans-serif" font-size="13" font-weight="bold" lengthAdjust="spacing" textLength="18" x="709" y="776.6528">17</text><text fill="#000000" font-family="sans-serif" font-size="13" lengthAdjust="spacing" textLength="140" x="731" y="776.6528">validateNewClient(nc)</text><polygon fill="#A80036" points="74,836.8516,64,840.8516,74,844.8516,70,840.8516" style="stroke:#A80036;stroke-width:1.0;"/><line style="stroke:#A80036;stroke-width:1.0;stroke-dasharray:2.0,2.0;" x1="68" x2="515" y1="840.8516" y2="840.8516"/><text fill="#000000" font-family="sans-serif" font-size="13" font-weight="bold" lengthAdjust="spacing" textLength="18" x="80" y="835.7856">18</text><text fill="#000000" font-family="sans-serif" font-size="13" lengthAdjust="spacing" textLength="277" x="102" y="835.7856">shows the data and request a confirmation</text><polygon fill="#A80036" points="499,865.9844,509,869.9844,499,873.9844,503,869.9844" style="stroke:#A80036;stroke-width:1.0;"/><line style="stroke:#A80036;stroke-width:1.0;" x1="63" x2="505" y1="869.9844" y2="869.9844"/><text fill="#000000" font-family="sans-serif" font-size="13" font-weight="bold" lengthAdjust="spacing" textLength="18" x="70" y="864.9185">19</text><text fill="#000000" font-family="sans-serif" font-size="13" lengthAdjust="spacing" textLength="114" x="92" y="864.9185">confirms the data</text><polygon fill="#A80036" points="680,895.1172,690,899.1172,680,903.1172,684,899.1172" style="stroke:#A80036;stroke-width:1.0;"/><line style="stroke:#A80036;stroke-width:1.0;stroke-dasharray:2.0,2.0;" x1="521" x2="686" y1="899.1172" y2="899.1172"/><text fill="#000000" font-family="sans-serif" font-size="13" font-weight="bold" lengthAdjust="spacing" textLength="19" x="528" y="894.0513">20</text><text fill="#000000" font-family="sans-serif" font-size="13" lengthAdjust="spacing" textLength="105" x="551" y="894.0513">saveNewClient()</text><polygon fill="#A80036" points="1072,924.25,1082,928.25,1072,932.25,1076,928.25" style="stroke:#A80036;stroke-width:1.0;"/><line style="stroke:#A80036;stroke-width:1.0;stroke-dasharray:2.0,2.0;" x1="702" x2="1078" y1="928.25" y2="928.25"/><text fill="#000000" font-family="sans-serif" font-size="13" font-weight="bold" lengthAdjust="spacing" textLength="18" x="709" y="923.1841">21</text><text fill="#000000" font-family="sans-serif" font-size="13" lengthAdjust="spacing" textLength="120" x="731" y="923.1841">saveNewClient(nc)</text><line style="stroke:#A80036;stroke-width:1.0;stroke-dasharray:2.0,2.0;" x1="1099" x2="1141" y1="957.3828" y2="957.3828"/><line style="stroke:#A80036;stroke-width:1.0;stroke-dasharray:2.0,2.0;" x1="1141" x2="1141" y1="957.3828" y2="970.3828"/><line style="stroke:#A80036;stroke-width:1.0;stroke-dasharray:2.0,2.0;" x1="1100" x2="1141" y1="970.3828" y2="970.3828"/><polygon fill="#A80036" points="1110,966.3828,1100,970.3828,1110,974.3828,1106,970.3828" style="stroke:#A80036;stroke-width:1.0;"/><text fill="#000000" font-family="sans-serif" font-size="13" font-weight="bold" lengthAdjust="spacing" textLength="18" x="1106" y="952.3169">22</text><text fill="#000000" font-family="sans-serif" font-size="13" lengthAdjust="spacing" textLength="140" x="1128" y="952.3169">validateNewClient(nc)</text><line style="stroke:#A80036;stroke-width:1.0;stroke-dasharray:2.0,2.0;" x1="1099" x2="1141" y1="1029.5156" y2="1029.5156"/><line style="stroke:#A80036;stroke-width:1.0;stroke-dasharray:2.0,2.0;" x1="1141" x2="1141" y1="1029.5156" y2="1042.5156"/><line style="stroke:#A80036;stroke-width:1.0;stroke-dasharray:2.0,2.0;" x1="1100" x2="1141" y1="1042.5156" y2="1042.5156"/><polygon fill="#A80036" points="1110,1038.5156,1100,1042.5156,1110,1046.5156,1106,1042.5156" style="stroke:#A80036;stroke-width:1.0;"/><text fill="#000000" font-family="sans-serif" font-size="13" font-weight="bold" lengthAdjust="spacing" textLength="17" x="1106" y="1024.4497">23</text><text fill="#000000" font-family="sans-serif" font-size="13" lengthAdjust="spacing" textLength="113" x="1127" y="1024.4497">addNewClient(nc)</text><line style="stroke:#A80036;stroke-width:1.0;stroke-dasharray:2.0,2.0;" x1="1099" x2="1141" y1="1101.6484" y2="1101.6484"/><line style="stroke:#A80036;stroke-width:1.0;stroke-dasharray:2.0,2.0;" x1="1141" x2="1141" y1="1101.6484" y2="1114.6484"/><line style="stroke:#A80036;stroke-width:1.0;stroke-dasharray:2.0,2.0;" x1="1100" x2="1141" y1="1114.6484" y2="1114.6484"/><polygon fill="#A80036" points="1110,1110.6484,1100,1114.6484,1110,1118.6484,1106,1114.6484" style="stroke:#A80036;stroke-width:1.0;"/><text fill="#000000" font-family="sans-serif" font-size="13" font-weight="bold" lengthAdjust="spacing" textLength="18" x="1106" y="1096.5825">24</text><text fill="#000000" font-family="sans-serif" font-size="13" lengthAdjust="spacing" textLength="91" x="1128" y="1096.5825">sendEmail(nc)</text><polygon fill="#A80036" points="69,1169.7813,59,1173.7813,69,1177.7813,65,1173.7813" style="stroke:#A80036;stroke-width:1.0;"/><line style="stroke:#A80036;stroke-width:1.0;stroke-dasharray:2.0,2.0;" x1="63" x2="515" y1="1173.7813" y2="1173.7813"/><text fill="#000000" font-family="sans-serif" font-size="13" font-weight="bold" lengthAdjust="spacing" textLength="18" x="75" y="1168.7153">25</text><text fill="#000000" font-family="sans-serif" font-size="13" lengthAdjust="spacing" textLength="169" x="97" y="1168.7153">informs operation success</text><!--MD5=[4f9d43a7465d0509fbe5324e7324243a]
@startuml
actor Administrator as Adm
participant ":RecordSampleUI" as Interface
participant ":RecordSampleController" as Controller
participant ":Company" as Company
participant ":TestMapper" as TM
participant "store \n :SampleStore" as SS
participant "SampleMapper" as SM
participant "SampDto: SampleDto" as SD
participant "store \n :TestStore" as TS




 
 
autonumber
activate Adm
Adm -> Interface: starts recording a new sample
activate Interface
Interface -> Controller: testsDto = getTest()
activate Controller
Controller -> TS: tests = getTest()
activate TS
deactivate TS
Controller -> TM: testsDto = toDTO(tests)
activate TM
deactivate TM
deactivate Controller
Interface - -> Adm: ask to select the test to record the sample
deactivate Interface



Adm -> Interface: selects the intended test
activate Interface
Interface - -> Adm: request data (descriptionMethod, dateCollection, timeCollection)
deactivate Interface


Adm -> Interface: types requested data
activate Interface
Interface- ->Controller: createNewClient(dto)
activate Controller
Controller- ->SS: nc=createNewClient(dto)
activate SS


SS- ->SM: toModel(dto)
activate SM
SM- ->SD: description=getDescription()
activate SD
deactivate SD
SM- ->SD: dataColl=getDataColl()
activate SD
deactivate SD
SM- ->SD: timeColl=getTimeColl()
activate SD
deactivate SD
SM- ->TS: test=getTestByCode()
activate TS
deactivate TS




create "samp: Sample" as samp
SM- ->samp:  create(description,dataColl,timeColl,test)



deactivate SM
deactivate SS

Controller- ->SS:validateNewClient(nc)
Activate SS
deactivate SS

deactivate Controller

Interface- -> Adm: shows the data and request a confirmation
deactivate Interface


Adm -> Interface: confirms the data
activate Interface
Interface- ->Controller: saveNewClient()
activate Controller
Controller- ->SS:saveNewClient(nc)
activate SS
SS- ->SS:validateNewClient(nc)
activate SS
deactivate SS
SS- ->SS:addNewClient(nc)
activate SS
deactivate SS
SS- ->SS:sendEmail(nc)
activate SS
deactivate SS

deactivate SS
deactivate Controller
Interface- -> Adm: informs operation success

deactivate Interface
deactivate Adm
@enduml

PlantUML version 1.2021.6(Fri May 14 07:09:51 UTC 2021)
(GPL source distribution)
Java Runtime: Java(TM) SE Runtime Environment
JVM: Java HotSpot(TM) 64-Bit Server VM
Default Encoding: UTF-8
Language: en
Country: US
--></g></svg>