<?xml version="1.0" encoding="UTF-8" standalone="no"?><svg xmlns="http://www.w3.org/2000/svg" xmlns:xlink="http://www.w3.org/1999/xlink" contentScriptType="application/ecmascript" contentStyleType="text/css" height="1998px" preserveAspectRatio="none" style="width:1422px;height:1998px;" version="1.1" viewBox="0 0 1422 1998" width="1422px" zoomAndPan="magnify"><defs><filter height="300%" id="f1cwbwb6tpvld6" width="300%" x="-1" y="-1"><feGaussianBlur result="blurOut" stdDeviation="4.0"/><feColorMatrix in="blurOut" result="blurOut2" type="matrix" values="0 0 0 0 0 0 0 0 0 0 0 0 0 0 0 0 0 0 .4 0"/><feOffset dx="8.0" dy="8.0" in="blurOut2" result="blurOut3"/><feBlend in="SourceGraphic" in2="blurOut3" mode="normal"/></filter></defs><g><!--MD5=[05ffea613565d111e9c4a041147710d4]
class RecordSampleUI--><rect fill="#FEFECE" filter="url(#f1cwbwb6tpvld6)" height="96" id="RecordSampleUI" style="stroke:#A80036;stroke-width:3.0;" width="254" x="522" y="28"/><ellipse cx="552" cy="60" fill="#ADD1B2" rx="22" ry="22" style="stroke:#A80036;stroke-width:2.0;"/><path d="M556,53 Q556.4063,52 556.875,51.5 Q557.3438,51 557.875,51 Q558.8125,51 559.4063,51.5625 Q560,52.125 560,53.4375 L560,56.5625 Q560,57.875 559.4375,58.4375 Q558.875,59 558,59 Q557.2188,59 556.7188,58.6563 Q556.2188,58.3125 556,57.4063 Q555.9063,56.7813 555.5625,56.4375 Q554.9375,55.7813 553.8125,55.4063 Q552.6875,55 551.5625,55 Q550.1563,55 548.9688,55.5625 Q547.8125,56.125 546.9063,57.375 Q546,58.625 546,60.3438 L546,62.1875 Q546,64.25 547.6875,65.625 Q549.375,67 552.375,67 Q554.1563,67 555.4063,66.5938 Q556.125,66.375 556.9375,65.6563 Q557.4688,65.25 557.75,65.125 Q558.0313,65 558.375,65 Q559.0313,65 559.5,65.5313 Q560,66.0313 560,66.75 Q560,67.4375 559.3125,68.25 Q558.3125,69.4375 556.7188,70.0938 Q554.625,71 552.0625,71 Q549.0625,71 546.6563,69.8125 Q544.7188,68.875 543.3438,66.8438 Q542,64.8125 542,62.4063 L542,60.2188 Q542,57.7188 543.1875,55.5313 Q544.4063,53.3438 546.5,52.1875 Q548.625,51 551,51 Q552.4375,51 553.6875,51.5 Q554.9375,52 556,53 Z " fill="#000000"/><text fill="#000000" font-family="sans-serif" font-size="24" lengthAdjust="spacing" textLength="190" x="580" y="69.8203">RecordSampleUI</text><line style="stroke:#A80036;stroke-width:3.0;" x1="524" x2="774" y1="92" y2="92"/><line style="stroke:#A80036;stroke-width:3.0;" x1="524" x2="774" y1="108" y2="108"/><!--MD5=[ecb4b8913618184ce1e3f8e48e5e993f]
class RecordSampleController--><rect fill="#FEFECE" filter="url(#f1cwbwb6tpvld6)" height="179.0156" id="RecordSampleController" style="stroke:#A80036;stroke-width:3.0;" width="338" x="480" y="260"/><ellipse cx="510" cy="292" fill="#ADD1B2" rx="22" ry="22" style="stroke:#A80036;stroke-width:2.0;"/><path d="M514,285 Q514.4063,284 514.875,283.5 Q515.3438,283 515.875,283 Q516.8125,283 517.4063,283.5625 Q518,284.125 518,285.4375 L518,288.5625 Q518,289.875 517.4375,290.4375 Q516.875,291 516,291 Q515.2188,291 514.7188,290.6563 Q514.2188,290.3125 514,289.4063 Q513.9063,288.7813 513.5625,288.4375 Q512.9375,287.7813 511.8125,287.4063 Q510.6875,287 509.5625,287 Q508.1563,287 506.9688,287.5625 Q505.8125,288.125 504.9063,289.375 Q504,290.625 504,292.3438 L504,294.1875 Q504,296.25 505.6875,297.625 Q507.375,299 510.375,299 Q512.1563,299 513.4063,298.5938 Q514.125,298.375 514.9375,297.6563 Q515.4688,297.25 515.75,297.125 Q516.0313,297 516.375,297 Q517.0313,297 517.5,297.5313 Q518,298.0313 518,298.75 Q518,299.4375 517.3125,300.25 Q516.3125,301.4375 514.7188,302.0938 Q512.625,303 510.0625,303 Q507.0625,303 504.6563,301.8125 Q502.7188,300.875 501.3438,298.8438 Q500,296.8125 500,294.4063 L500,292.2188 Q500,289.7188 501.1875,287.5313 Q502.4063,285.3438 504.5,284.1875 Q506.625,283 509,283 Q510.4375,283 511.6875,283.5 Q512.9375,284 514,285 Z " fill="#000000"/><text fill="#000000" font-family="sans-serif" font-size="24" lengthAdjust="spacing" textLength="274" x="538" y="301.8203">RecordSampleController</text><line style="stroke:#A80036;stroke-width:3.0;" x1="482" x2="816" y1="324" y2="324"/><line style="stroke:#A80036;stroke-width:3.0;" x1="482" x2="816" y1="340" y2="340"/><ellipse cx="502" cy="362" fill="#84BE84" rx="6" ry="6" style="stroke:#038048;stroke-width:2.0;"/><text fill="#000000" font-family="sans-serif" font-size="22" lengthAdjust="spacing" textLength="232" x="520" y="370.8379">RecordNewSample(dto)</text><ellipse cx="502" cy="389.6719" fill="#84BE84" rx="6" ry="6" style="stroke:#038048;stroke-width:2.0;"/><text fill="#000000" font-family="sans-serif" font-size="22" lengthAdjust="spacing" textLength="180" x="520" y="398.5098">saveNewSample()</text><ellipse cx="502" cy="417.3438" fill="#84BE84" rx="6" ry="6" style="stroke:#038048;stroke-width:2.0;"/><text fill="#000000" font-family="sans-serif" font-size="22" lengthAdjust="spacing" textLength="88" x="520" y="426.1816">getTest()</text><!--MD5=[02e4b9b7573f1156f41e60aa5b4e25a4]
class Company--><rect fill="#FEFECE" filter="url(#f1cwbwb6tpvld6)" height="151.3438" id="Company" style="stroke:#A80036;stroke-width:3.0;" width="220" x="323" y="562"/><ellipse cx="375.5" cy="594" fill="#ADD1B2" rx="22" ry="22" style="stroke:#A80036;stroke-width:2.0;"/><path d="M379.5,587 Q379.9063,586 380.375,585.5 Q380.8438,585 381.375,585 Q382.3125,585 382.9063,585.5625 Q383.5,586.125 383.5,587.4375 L383.5,590.5625 Q383.5,591.875 382.9375,592.4375 Q382.375,593 381.5,593 Q380.7188,593 380.2188,592.6563 Q379.7188,592.3125 379.5,591.4063 Q379.4063,590.7813 379.0625,590.4375 Q378.4375,589.7813 377.3125,589.4063 Q376.1875,589 375.0625,589 Q373.6563,589 372.4688,589.5625 Q371.3125,590.125 370.4063,591.375 Q369.5,592.625 369.5,594.3438 L369.5,596.1875 Q369.5,598.25 371.1875,599.625 Q372.875,601 375.875,601 Q377.6563,601 378.9063,600.5938 Q379.625,600.375 380.4375,599.6563 Q380.9688,599.25 381.25,599.125 Q381.5313,599 381.875,599 Q382.5313,599 383,599.5313 Q383.5,600.0313 383.5,600.75 Q383.5,601.4375 382.8125,602.25 Q381.8125,603.4375 380.2188,604.0938 Q378.125,605 375.5625,605 Q372.5625,605 370.1563,603.8125 Q368.2188,602.875 366.8438,600.8438 Q365.5,598.8125 365.5,596.4063 L365.5,594.2188 Q365.5,591.7188 366.6875,589.5313 Q367.9063,587.3438 370,586.1875 Q372.125,585 374.5,585 Q375.9375,585 377.1875,585.5 Q378.4375,586 379.5,587 Z " fill="#000000"/><text fill="#000000" font-family="sans-serif" font-size="24" lengthAdjust="spacing" textLength="106" x="408.5" y="603.8203">Company</text><line style="stroke:#A80036;stroke-width:3.0;" x1="325" x2="541" y1="626" y2="626"/><line style="stroke:#A80036;stroke-width:3.0;" x1="325" x2="541" y1="642" y2="642"/><ellipse cx="345" cy="664" fill="#84BE84" rx="6" ry="6" style="stroke:#038048;stroke-width:2.0;"/><text fill="#000000" font-family="sans-serif" font-size="22" lengthAdjust="spacing" textLength="140" x="363" y="672.8379">getTestStore()</text><ellipse cx="345" cy="691.6719" fill="#84BE84" rx="6" ry="6" style="stroke:#038048;stroke-width:2.0;"/><text fill="#000000" font-family="sans-serif" font-size="22" lengthAdjust="spacing" textLength="168" x="363" y="700.5098">getSampleStore()</text><!--MD5=[9681492165142af2a4a3a169d90ee8d4]
class Sample--><rect fill="#FEFECE" filter="url(#f1cwbwb6tpvld6)" height="179.0156" id="Sample" style="stroke:#A80036;stroke-width:3.0;" width="462" x="14" y="1320"/><ellipse cx="193.5" cy="1352" fill="#ADD1B2" rx="22" ry="22" style="stroke:#A80036;stroke-width:2.0;"/><path d="M197.5,1345 Q197.9063,1344 198.375,1343.5 Q198.8438,1343 199.375,1343 Q200.3125,1343 200.9063,1343.5625 Q201.5,1344.125 201.5,1345.4375 L201.5,1348.5625 Q201.5,1349.875 200.9375,1350.4375 Q200.375,1351 199.5,1351 Q198.7188,1351 198.2188,1350.6563 Q197.7188,1350.3125 197.5,1349.4063 Q197.4063,1348.7813 197.0625,1348.4375 Q196.4375,1347.7813 195.3125,1347.4063 Q194.1875,1347 193.0625,1347 Q191.6563,1347 190.4688,1347.5625 Q189.3125,1348.125 188.4063,1349.375 Q187.5,1350.625 187.5,1352.3438 L187.5,1354.1875 Q187.5,1356.25 189.1875,1357.625 Q190.875,1359 193.875,1359 Q195.6563,1359 196.9063,1358.5938 Q197.625,1358.375 198.4375,1357.6563 Q198.9688,1357.25 199.25,1357.125 Q199.5313,1357 199.875,1357 Q200.5313,1357 201,1357.5313 Q201.5,1358.0313 201.5,1358.75 Q201.5,1359.4375 200.8125,1360.25 Q199.8125,1361.4375 198.2188,1362.0938 Q196.125,1363 193.5625,1363 Q190.5625,1363 188.1563,1361.8125 Q186.2188,1360.875 184.8438,1358.8438 Q183.5,1356.8125 183.5,1354.4063 L183.5,1352.2188 Q183.5,1349.7188 184.6875,1347.5313 Q185.9063,1345.3438 188,1344.1875 Q190.125,1343 192.5,1343 Q193.9375,1343 195.1875,1343.5 Q196.4375,1344 197.5,1345 Z " fill="#000000"/><text fill="#000000" font-family="sans-serif" font-size="24" lengthAdjust="spacing" textLength="86" x="234.5" y="1361.8203">Sample</text><line style="stroke:#A80036;stroke-width:3.0;" x1="16" x2="474" y1="1384" y2="1384"/><rect fill="none" height="12" style="stroke:#C82930;stroke-width:2.0;" width="12" x="30" y="1400"/><text fill="#000000" font-family="sans-serif" font-size="22" lengthAdjust="spacing" textLength="130" x="54" y="1414.8379">timeCollection</text><rect fill="none" height="12" style="stroke:#C82930;stroke-width:2.0;" width="12" x="30" y="1427.6719"/><text fill="#000000" font-family="sans-serif" font-size="22" lengthAdjust="spacing" textLength="134" x="54" y="1442.5098">dateCollection</text><line style="stroke:#A80036;stroke-width:3.0;" x1="16" x2="474" y1="1455.3438" y2="1455.3438"/><ellipse cx="36" cy="1477.3438" fill="#84BE84" rx="6" ry="6" style="stroke:#038048;stroke-width:2.0;"/><text fill="#000000" font-family="sans-serif" font-size="22" lengthAdjust="spacing" textLength="410" x="54" y="1486.1816">Sample(dataCollection, timeCollection, test)</text><!--MD5=[144698ec4d0188f6929a3b58a3eeb1f6]
class TestMapper--><rect fill="#FEFECE" filter="url(#f1cwbwb6tpvld6)" height="123.6719" id="TestMapper" style="stroke:#A80036;stroke-width:3.0;" width="194" x="756" y="576"/><ellipse cx="786" cy="608" fill="#ADD1B2" rx="22" ry="22" style="stroke:#A80036;stroke-width:2.0;"/><path d="M790,601 Q790.4063,600 790.875,599.5 Q791.3438,599 791.875,599 Q792.8125,599 793.4063,599.5625 Q794,600.125 794,601.4375 L794,604.5625 Q794,605.875 793.4375,606.4375 Q792.875,607 792,607 Q791.2188,607 790.7188,606.6563 Q790.2188,606.3125 790,605.4063 Q789.9063,604.7813 789.5625,604.4375 Q788.9375,603.7813 787.8125,603.4063 Q786.6875,603 785.5625,603 Q784.1563,603 782.9688,603.5625 Q781.8125,604.125 780.9063,605.375 Q780,606.625 780,608.3438 L780,610.1875 Q780,612.25 781.6875,613.625 Q783.375,615 786.375,615 Q788.1563,615 789.4063,614.5938 Q790.125,614.375 790.9375,613.6563 Q791.4688,613.25 791.75,613.125 Q792.0313,613 792.375,613 Q793.0313,613 793.5,613.5313 Q794,614.0313 794,614.75 Q794,615.4375 793.3125,616.25 Q792.3125,617.4375 790.7188,618.0938 Q788.625,619 786.0625,619 Q783.0625,619 780.6563,617.8125 Q778.7188,616.875 777.3438,614.8438 Q776,612.8125 776,610.4063 L776,608.2188 Q776,605.7188 777.1875,603.5313 Q778.4063,601.3438 780.5,600.1875 Q782.625,599 785,599 Q786.4375,599 787.6875,599.5 Q788.9375,600 790,601 Z " fill="#000000"/><text fill="#000000" font-family="sans-serif" font-size="24" lengthAdjust="spacing" textLength="130" x="814" y="617.8203">TestMapper</text><line style="stroke:#A80036;stroke-width:3.0;" x1="758" x2="948" y1="640" y2="640"/><line style="stroke:#A80036;stroke-width:3.0;" x1="758" x2="948" y1="656" y2="656"/><ellipse cx="778" cy="678" fill="#84BE84" rx="6" ry="6" style="stroke:#038048;stroke-width:2.0;"/><text fill="#000000" font-family="sans-serif" font-size="22" lengthAdjust="spacing" textLength="124" x="796" y="686.8379">toDTO(tests)</text><!--MD5=[f3e1cea714716315318addd6917e91a9]
class SampleDTO--><rect fill="#FEFECE" filter="url(#f1cwbwb6tpvld6)" height="234.3594" id="SampleDTO" style="stroke:#A80036;stroke-width:3.0;" width="200" x="1109" y="870"/><ellipse cx="1139" cy="902" fill="#ADD1B2" rx="22" ry="22" style="stroke:#A80036;stroke-width:2.0;"/><path d="M1143,895 Q1143.4063,894 1143.875,893.5 Q1144.3438,893 1144.875,893 Q1145.8125,893 1146.4063,893.5625 Q1147,894.125 1147,895.4375 L1147,898.5625 Q1147,899.875 1146.4375,900.4375 Q1145.875,901 1145,901 Q1144.2188,901 1143.7188,900.6563 Q1143.2188,900.3125 1143,899.4063 Q1142.9063,898.7813 1142.5625,898.4375 Q1141.9375,897.7813 1140.8125,897.4063 Q1139.6875,897 1138.5625,897 Q1137.1563,897 1135.9688,897.5625 Q1134.8125,898.125 1133.9063,899.375 Q1133,900.625 1133,902.3438 L1133,904.1875 Q1133,906.25 1134.6875,907.625 Q1136.375,909 1139.375,909 Q1141.1563,909 1142.4063,908.5938 Q1143.125,908.375 1143.9375,907.6563 Q1144.4688,907.25 1144.75,907.125 Q1145.0313,907 1145.375,907 Q1146.0313,907 1146.5,907.5313 Q1147,908.0313 1147,908.75 Q1147,909.4375 1146.3125,910.25 Q1145.3125,911.4375 1143.7188,912.0938 Q1141.625,913 1139.0625,913 Q1136.0625,913 1133.6563,911.8125 Q1131.7188,910.875 1130.3438,908.8438 Q1129,906.8125 1129,904.4063 L1129,902.2188 Q1129,899.7188 1130.1875,897.5313 Q1131.4063,895.3438 1133.5,894.1875 Q1135.625,893 1138,893 Q1139.4375,893 1140.6875,893.5 Q1141.9375,894 1143,895 Z " fill="#000000"/><text fill="#000000" font-family="sans-serif" font-size="24" lengthAdjust="spacing" textLength="136" x="1167" y="911.8203">SampleDTO</text><line style="stroke:#A80036;stroke-width:3.0;" x1="1111" x2="1307" y1="934" y2="934"/><rect fill="none" height="12" style="stroke:#C82930;stroke-width:2.0;" width="12" x="1125" y="950"/><text fill="#000000" font-family="sans-serif" font-size="22" lengthAdjust="spacing" textLength="130" x="1149" y="964.8379">timeCollection</text><rect fill="none" height="12" style="stroke:#C82930;stroke-width:2.0;" width="12" x="1125" y="977.6719"/><text fill="#000000" font-family="sans-serif" font-size="22" lengthAdjust="spacing" textLength="134" x="1149" y="992.5098">dateCollection</text><line style="stroke:#A80036;stroke-width:3.0;" x1="1111" x2="1307" y1="1005.3438" y2="1005.3438"/><ellipse cx="1131" cy="1027.3438" fill="#84BE84" rx="6" ry="6" style="stroke:#038048;stroke-width:2.0;"/><text fill="#000000" font-family="sans-serif" font-size="22" lengthAdjust="spacing" textLength="124" x="1149" y="1036.1816">getTimeColl()</text><ellipse cx="1131" cy="1055.0156" fill="#84BE84" rx="6" ry="6" style="stroke:#038048;stroke-width:2.0;"/><text fill="#000000" font-family="sans-serif" font-size="22" lengthAdjust="spacing" textLength="124" x="1149" y="1063.8535">getDataColl()</text><ellipse cx="1131" cy="1082.6875" fill="#84BE84" rx="6" ry="6" style="stroke:#038048;stroke-width:2.0;"/><text fill="#000000" font-family="sans-serif" font-size="22" lengthAdjust="spacing" textLength="134" x="1149" y="1091.5254">getgetTestId()</text><!--MD5=[fcd6df96e169c9fc6403c4dc9bdb4d83]
class SampleStore--><rect fill="#FEFECE" filter="url(#f1cwbwb6tpvld6)" height="206.6875" id="SampleStore" style="stroke:#A80036;stroke-width:3.0;" width="310" x="90" y="884"/><ellipse cx="165.9" cy="916" fill="#ADD1B2" rx="22" ry="22" style="stroke:#A80036;stroke-width:2.0;"/><path d="M169.9,909 Q170.3063,908 170.775,907.5 Q171.2438,907 171.775,907 Q172.7125,907 173.3063,907.5625 Q173.9,908.125 173.9,909.4375 L173.9,912.5625 Q173.9,913.875 173.3375,914.4375 Q172.775,915 171.9,915 Q171.1188,915 170.6188,914.6563 Q170.1188,914.3125 169.9,913.4063 Q169.8063,912.7813 169.4625,912.4375 Q168.8375,911.7813 167.7125,911.4063 Q166.5875,911 165.4625,911 Q164.0563,911 162.8688,911.5625 Q161.7125,912.125 160.8063,913.375 Q159.9,914.625 159.9,916.3438 L159.9,918.1875 Q159.9,920.25 161.5875,921.625 Q163.275,923 166.275,923 Q168.0563,923 169.3063,922.5938 Q170.025,922.375 170.8375,921.6563 Q171.3688,921.25 171.65,921.125 Q171.9313,921 172.275,921 Q172.9313,921 173.4,921.5313 Q173.9,922.0313 173.9,922.75 Q173.9,923.4375 173.2125,924.25 Q172.2125,925.4375 170.6188,926.0938 Q168.525,927 165.9625,927 Q162.9625,927 160.5563,925.8125 Q158.6188,924.875 157.2438,922.8438 Q155.9,920.8125 155.9,918.4063 L155.9,916.2188 Q155.9,913.7188 157.0875,911.5313 Q158.3063,909.3438 160.4,908.1875 Q162.525,907 164.9,907 Q166.3375,907 167.5875,907.5 Q168.8375,908 169.9,909 Z " fill="#000000"/><text fill="#000000" font-family="sans-serif" font-size="24" lengthAdjust="spacing" textLength="144" x="204.1" y="925.8203">SampleStore</text><line style="stroke:#A80036;stroke-width:3.0;" x1="92" x2="398" y1="948" y2="948"/><line style="stroke:#A80036;stroke-width:3.0;" x1="92" x2="398" y1="964" y2="964"/><ellipse cx="112" cy="986" fill="#84BE84" rx="6" ry="6" style="stroke:#038048;stroke-width:2.0;"/><text fill="#000000" font-family="sans-serif" font-size="22" lengthAdjust="spacing" textLength="232" x="130" y="994.8379">RecordNewSample(tdo)</text><ellipse cx="112" cy="1013.6719" fill="#84BE84" rx="6" ry="6" style="stroke:#038048;stroke-width:2.0;"/><text fill="#000000" font-family="sans-serif" font-size="22" lengthAdjust="spacing" textLength="258" x="130" y="1022.5098">validateNewSample(samp)</text><ellipse cx="112" cy="1041.3438" fill="#84BE84" rx="6" ry="6" style="stroke:#038048;stroke-width:2.0;"/><text fill="#000000" font-family="sans-serif" font-size="22" lengthAdjust="spacing" textLength="232" x="130" y="1050.1816">saveNewSample(samp)</text><ellipse cx="112" cy="1069.0156" fill="#84BE84" rx="6" ry="6" style="stroke:#038048;stroke-width:2.0;"/><text fill="#000000" font-family="sans-serif" font-size="22" lengthAdjust="spacing" textLength="220" x="130" y="1077.8535">addNewSample(samp)</text><!--MD5=[ae7e51bf7f64437d6b43a3b7d6fba6e1]
class SampleMapper--><rect fill="#FEFECE" filter="url(#f1cwbwb6tpvld6)" height="123.6719" id="SampleMapper" style="stroke:#A80036;stroke-width:3.0;" width="232" x="1163" y="576"/><ellipse cx="1193" cy="608" fill="#ADD1B2" rx="22" ry="22" style="stroke:#A80036;stroke-width:2.0;"/><path d="M1197,601 Q1197.4063,600 1197.875,599.5 Q1198.3438,599 1198.875,599 Q1199.8125,599 1200.4063,599.5625 Q1201,600.125 1201,601.4375 L1201,604.5625 Q1201,605.875 1200.4375,606.4375 Q1199.875,607 1199,607 Q1198.2188,607 1197.7188,606.6563 Q1197.2188,606.3125 1197,605.4063 Q1196.9063,604.7813 1196.5625,604.4375 Q1195.9375,603.7813 1194.8125,603.4063 Q1193.6875,603 1192.5625,603 Q1191.1563,603 1189.9688,603.5625 Q1188.8125,604.125 1187.9063,605.375 Q1187,606.625 1187,608.3438 L1187,610.1875 Q1187,612.25 1188.6875,613.625 Q1190.375,615 1193.375,615 Q1195.1563,615 1196.4063,614.5938 Q1197.125,614.375 1197.9375,613.6563 Q1198.4688,613.25 1198.75,613.125 Q1199.0313,613 1199.375,613 Q1200.0313,613 1200.5,613.5313 Q1201,614.0313 1201,614.75 Q1201,615.4375 1200.3125,616.25 Q1199.3125,617.4375 1197.7188,618.0938 Q1195.625,619 1193.0625,619 Q1190.0625,619 1187.6563,617.8125 Q1185.7188,616.875 1184.3438,614.8438 Q1183,612.8125 1183,610.4063 L1183,608.2188 Q1183,605.7188 1184.1875,603.5313 Q1185.4063,601.3438 1187.5,600.1875 Q1189.625,599 1192,599 Q1193.4375,599 1194.6875,599.5 Q1195.9375,600 1197,601 Z " fill="#000000"/><text fill="#000000" font-family="sans-serif" font-size="24" lengthAdjust="spacing" textLength="168" x="1221" y="617.8203">SampleMapper</text><line style="stroke:#A80036;stroke-width:3.0;" x1="1165" x2="1393" y1="640" y2="640"/><line style="stroke:#A80036;stroke-width:3.0;" x1="1165" x2="1393" y1="656" y2="656"/><ellipse cx="1185" cy="678" fill="#84BE84" rx="6" ry="6" style="stroke:#038048;stroke-width:2.0;"/><text fill="#000000" font-family="sans-serif" font-size="22" lengthAdjust="spacing" textLength="90" x="1203" y="686.8379">toModel()</text><!--MD5=[0f6f7964b844a64b0496af0dda7914bd]
class TestStore--><rect fill="#FEFECE" filter="url(#f1cwbwb6tpvld6)" height="123.6719" id="TestStore" style="stroke:#A80036;stroke-width:3.0;" width="358" x="470" y="925"/><ellipse cx="587.5" cy="957" fill="#ADD1B2" rx="22" ry="22" style="stroke:#A80036;stroke-width:2.0;"/><path d="M591.5,950 Q591.9063,949 592.375,948.5 Q592.8438,948 593.375,948 Q594.3125,948 594.9063,948.5625 Q595.5,949.125 595.5,950.4375 L595.5,953.5625 Q595.5,954.875 594.9375,955.4375 Q594.375,956 593.5,956 Q592.7188,956 592.2188,955.6563 Q591.7188,955.3125 591.5,954.4063 Q591.4063,953.7813 591.0625,953.4375 Q590.4375,952.7813 589.3125,952.4063 Q588.1875,952 587.0625,952 Q585.6563,952 584.4688,952.5625 Q583.3125,953.125 582.4063,954.375 Q581.5,955.625 581.5,957.3438 L581.5,959.1875 Q581.5,961.25 583.1875,962.625 Q584.875,964 587.875,964 Q589.6563,964 590.9063,963.5938 Q591.625,963.375 592.4375,962.6563 Q592.9688,962.25 593.25,962.125 Q593.5313,962 593.875,962 Q594.5313,962 595,962.5313 Q595.5,963.0313 595.5,963.75 Q595.5,964.4375 594.8125,965.25 Q593.8125,966.4375 592.2188,967.0938 Q590.125,968 587.5625,968 Q584.5625,968 582.1563,966.8125 Q580.2188,965.875 578.8438,963.8438 Q577.5,961.8125 577.5,959.4063 L577.5,957.2188 Q577.5,954.7188 578.6875,952.5313 Q579.9063,950.3438 582,949.1875 Q584.125,948 586.5,948 Q587.9375,948 589.1875,948.5 Q590.4375,949 591.5,950 Z " fill="#000000"/><text fill="#000000" font-family="sans-serif" font-size="24" lengthAdjust="spacing" textLength="106" x="628.5" y="966.8203">TestStore</text><line style="stroke:#A80036;stroke-width:3.0;" x1="472" x2="826" y1="989" y2="989"/><line style="stroke:#A80036;stroke-width:3.0;" x1="472" x2="826" y1="1005" y2="1005"/><ellipse cx="492" cy="1027" fill="#84BE84" rx="6" ry="6" style="stroke:#038048;stroke-width:2.0;"/><text fill="#000000" font-family="sans-serif" font-size="22" lengthAdjust="spacing" textLength="306" x="510" y="1035.8379">getTestByTestTypeCode(testid)</text><!--MD5=[9fb704ffefcaf68bf1a361787afa998b]
class TestDTO--><rect fill="#FEFECE" filter="url(#f1cwbwb6tpvld6)" height="96" id="TestDTO" style="stroke:#A80036;stroke-width:3.0;" width="162" x="820" y="1164"/><ellipse cx="850" cy="1196" fill="#ADD1B2" rx="22" ry="22" style="stroke:#A80036;stroke-width:2.0;"/><path d="M854,1189 Q854.4063,1188 854.875,1187.5 Q855.3438,1187 855.875,1187 Q856.8125,1187 857.4063,1187.5625 Q858,1188.125 858,1189.4375 L858,1192.5625 Q858,1193.875 857.4375,1194.4375 Q856.875,1195 856,1195 Q855.2188,1195 854.7188,1194.6563 Q854.2188,1194.3125 854,1193.4063 Q853.9063,1192.7813 853.5625,1192.4375 Q852.9375,1191.7813 851.8125,1191.4063 Q850.6875,1191 849.5625,1191 Q848.1563,1191 846.9688,1191.5625 Q845.8125,1192.125 844.9063,1193.375 Q844,1194.625 844,1196.3438 L844,1198.1875 Q844,1200.25 845.6875,1201.625 Q847.375,1203 850.375,1203 Q852.1563,1203 853.4063,1202.5938 Q854.125,1202.375 854.9375,1201.6563 Q855.4688,1201.25 855.75,1201.125 Q856.0313,1201 856.375,1201 Q857.0313,1201 857.5,1201.5313 Q858,1202.0313 858,1202.75 Q858,1203.4375 857.3125,1204.25 Q856.3125,1205.4375 854.7188,1206.0938 Q852.625,1207 850.0625,1207 Q847.0625,1207 844.6563,1205.8125 Q842.7188,1204.875 841.3438,1202.8438 Q840,1200.8125 840,1198.4063 L840,1196.2188 Q840,1193.7188 841.1875,1191.5313 Q842.4063,1189.3438 844.5,1188.1875 Q846.625,1187 849,1187 Q850.4375,1187 851.6875,1187.5 Q852.9375,1188 854,1189 Z " fill="#000000"/><text fill="#000000" font-family="sans-serif" font-size="24" lengthAdjust="spacing" textLength="98" x="878" y="1205.8203">TestDTO</text><line style="stroke:#A80036;stroke-width:3.0;" x1="822" x2="980" y1="1228" y2="1228"/><line style="stroke:#A80036;stroke-width:3.0;" x1="822" x2="980" y1="1244" y2="1244"/><!--MD5=[df38be88ccee13e832d6fafd6288a4ca]
class Test--><rect fill="#FEFECE" filter="url(#f1cwbwb6tpvld6)" height="96" id="Test" style="stroke:#A80036;stroke-width:3.0;" width="112" x="593" y="1656"/><ellipse cx="623" cy="1688" fill="#ADD1B2" rx="22" ry="22" style="stroke:#A80036;stroke-width:2.0;"/><path d="M627,1681 Q627.4063,1680 627.875,1679.5 Q628.3438,1679 628.875,1679 Q629.8125,1679 630.4063,1679.5625 Q631,1680.125 631,1681.4375 L631,1684.5625 Q631,1685.875 630.4375,1686.4375 Q629.875,1687 629,1687 Q628.2188,1687 627.7188,1686.6563 Q627.2188,1686.3125 627,1685.4063 Q626.9063,1684.7813 626.5625,1684.4375 Q625.9375,1683.7813 624.8125,1683.4063 Q623.6875,1683 622.5625,1683 Q621.1563,1683 619.9688,1683.5625 Q618.8125,1684.125 617.9063,1685.375 Q617,1686.625 617,1688.3438 L617,1690.1875 Q617,1692.25 618.6875,1693.625 Q620.375,1695 623.375,1695 Q625.1563,1695 626.4063,1694.5938 Q627.125,1694.375 627.9375,1693.6563 Q628.4688,1693.25 628.75,1693.125 Q629.0313,1693 629.375,1693 Q630.0313,1693 630.5,1693.5313 Q631,1694.0313 631,1694.75 Q631,1695.4375 630.3125,1696.25 Q629.3125,1697.4375 627.7188,1698.0938 Q625.625,1699 623.0625,1699 Q620.0625,1699 617.6563,1697.8125 Q615.7188,1696.875 614.3438,1694.8438 Q613,1692.8125 613,1690.4063 L613,1688.2188 Q613,1685.7188 614.1875,1683.5313 Q615.4063,1681.3438 617.5,1680.1875 Q619.625,1679 622,1679 Q623.4375,1679 624.6875,1679.5 Q625.9375,1680 627,1681 Z " fill="#000000"/><text fill="#000000" font-family="sans-serif" font-size="24" lengthAdjust="spacing" textLength="48" x="651" y="1697.8203">Test</text><line style="stroke:#A80036;stroke-width:3.0;" x1="595" x2="703" y1="1720" y2="1720"/><line style="stroke:#A80036;stroke-width:3.0;" x1="595" x2="703" y1="1736" y2="1736"/><!--MD5=[52a9cd65028e0088420220beebf424d2]
class Laborder--><rect fill="#FEFECE" filter="url(#f1cwbwb6tpvld6)" height="96" id="Laborder" style="stroke:#A80036;stroke-width:3.0;" width="164" x="567" y="1874"/><ellipse cx="597" cy="1906" fill="#ADD1B2" rx="22" ry="22" style="stroke:#A80036;stroke-width:2.0;"/><path d="M601,1899 Q601.4063,1898 601.875,1897.5 Q602.3438,1897 602.875,1897 Q603.8125,1897 604.4063,1897.5625 Q605,1898.125 605,1899.4375 L605,1902.5625 Q605,1903.875 604.4375,1904.4375 Q603.875,1905 603,1905 Q602.2188,1905 601.7188,1904.6563 Q601.2188,1904.3125 601,1903.4063 Q600.9063,1902.7813 600.5625,1902.4375 Q599.9375,1901.7813 598.8125,1901.4063 Q597.6875,1901 596.5625,1901 Q595.1563,1901 593.9688,1901.5625 Q592.8125,1902.125 591.9063,1903.375 Q591,1904.625 591,1906.3438 L591,1908.1875 Q591,1910.25 592.6875,1911.625 Q594.375,1913 597.375,1913 Q599.1563,1913 600.4063,1912.5938 Q601.125,1912.375 601.9375,1911.6563 Q602.4688,1911.25 602.75,1911.125 Q603.0313,1911 603.375,1911 Q604.0313,1911 604.5,1911.5313 Q605,1912.0313 605,1912.75 Q605,1913.4375 604.3125,1914.25 Q603.3125,1915.4375 601.7188,1916.0938 Q599.625,1917 597.0625,1917 Q594.0625,1917 591.6563,1915.8125 Q589.7188,1914.875 588.3438,1912.8438 Q587,1910.8125 587,1908.4063 L587,1906.2188 Q587,1903.7188 588.1875,1901.5313 Q589.4063,1899.3438 591.5,1898.1875 Q593.625,1897 596,1897 Q597.4375,1897 598.6875,1897.5 Q599.9375,1898 601,1899 Z " fill="#000000"/><text fill="#000000" font-family="sans-serif" font-size="24" lengthAdjust="spacing" textLength="100" x="625" y="1915.8203">Laborder</text><line style="stroke:#A80036;stroke-width:3.0;" x1="569" x2="729" y1="1938" y2="1938"/><line style="stroke:#A80036;stroke-width:3.0;" x1="569" x2="729" y1="1954" y2="1954"/><!--MD5=[a999c1570c205a2156b04a15307bc1ff]
class LabOrder--><rect fill="#FEFECE" filter="url(#f1cwbwb6tpvld6)" height="123.6719" id="LabOrder" style="stroke:#A80036;stroke-width:3.0;" width="168" x="847" y="14"/><ellipse cx="877" cy="46" fill="#ADD1B2" rx="22" ry="22" style="stroke:#A80036;stroke-width:2.0;"/><path d="M881,39 Q881.4063,38 881.875,37.5 Q882.3438,37 882.875,37 Q883.8125,37 884.4063,37.5625 Q885,38.125 885,39.4375 L885,42.5625 Q885,43.875 884.4375,44.4375 Q883.875,45 883,45 Q882.2188,45 881.7188,44.6563 Q881.2188,44.3125 881,43.4063 Q880.9063,42.7813 880.5625,42.4375 Q879.9375,41.7813 878.8125,41.4063 Q877.6875,41 876.5625,41 Q875.1563,41 873.9688,41.5625 Q872.8125,42.125 871.9063,43.375 Q871,44.625 871,46.3438 L871,48.1875 Q871,50.25 872.6875,51.625 Q874.375,53 877.375,53 Q879.1563,53 880.4063,52.5938 Q881.125,52.375 881.9375,51.6563 Q882.4688,51.25 882.75,51.125 Q883.0313,51 883.375,51 Q884.0313,51 884.5,51.5313 Q885,52.0313 885,52.75 Q885,53.4375 884.3125,54.25 Q883.3125,55.4375 881.7188,56.0938 Q879.625,57 877.0625,57 Q874.0625,57 871.6563,55.8125 Q869.7188,54.875 868.3438,52.8438 Q867,50.8125 867,48.4063 L867,46.2188 Q867,43.7188 868.1875,41.5313 Q869.4063,39.3438 871.5,38.1875 Q873.625,37 876,37 Q877.4375,37 878.6875,37.5 Q879.9375,38 881,39 Z " fill="#000000"/><text fill="#000000" font-family="sans-serif" font-size="24" lengthAdjust="spacing" textLength="104" x="905" y="55.8203">LabOrder</text><line style="stroke:#A80036;stroke-width:3.0;" x1="849" x2="1013" y1="78" y2="78"/><rect fill="none" height="12" style="stroke:#C82930;stroke-width:2.0;" width="12" x="863" y="94"/><text fill="#000000" font-family="sans-serif" font-size="22" lengthAdjust="spacing" textLength="84" x="887" y="108.8379">testType</text><line style="stroke:#A80036;stroke-width:3.0;" x1="849" x2="1013" y1="121.6719" y2="121.6719"/><!--MD5=[b07fc2b2aa91da2436cc249a96980d64]
link RecordSampleUI to RecordSampleController--><path codeLine="1" d="M649,124.42 C649,158.76 649,206.78 649,249.52 " fill="none" id="RecordSampleUI-to-RecordSampleController" style="stroke:#A80036;stroke-width:2.0;stroke-dasharray:7.0,7.0;"/><polygon fill="#A80036" points="649,259.7,657,241.7,649,249.7,641,241.7,649,259.7" style="stroke:#A80036;stroke-width:2.0;"/><!--MD5=[ccf558741c2fb5a5f538be9d3a954f59]
link RecordSampleController to Company--><path codeLine="2" d="M581.84,440.3 C554.66,476.02 523.46,517.08 496.64,552.32 " fill="none" id="RecordSampleController-to-Company" style="stroke:#A80036;stroke-width:2.0;stroke-dasharray:7.0,7.0;"/><polygon fill="#A80036" points="489.94,561.14,507.1999,551.6482,495.9901,553.1778,494.4605,541.968,489.94,561.14" style="stroke:#A80036;stroke-width:2.0;"/><!--MD5=[46ce183c027ced3c8d5e339377570598]
link RecordSampleController to Sample--><path codeLine="3" d="M479.8,403.08 C392.66,436.54 290.08,488.02 219,562 C111.56,673.84 92.56,719.54 55,870 C29.82,970.9 26.32,1004.04 55,1104 C76.66,1179.56 123.2,1254.54 164.78,1311.14 " fill="none" id="RecordSampleController-to-Sample" style="stroke:#A80036;stroke-width:2.0;stroke-dasharray:7.0,7.0;"/><polygon fill="#A80036" points="170.88,1319.36,166.5568,1300.1426,164.912,1311.3361,153.7185,1309.6913,170.88,1319.36" style="stroke:#A80036;stroke-width:2.0;"/><!--MD5=[aa7c76cfa0b9d80d0d0bfbab322591d0]
link RecordSampleController to TestMapper--><path codeLine="4" d="M712.42,440.3 C741.78,481.18 776.14,529 803.54,567.16 " fill="none" id="RecordSampleController-to-TestMapper" style="stroke:#A80036;stroke-width:2.0;stroke-dasharray:7.0,7.0;"/><polygon fill="#A80036" points="809.64,575.64,805.6363,556.3535,803.806,567.5182,792.6413,565.6879,809.64,575.64" style="stroke:#A80036;stroke-width:2.0;"/><!--MD5=[a7cbd6ea75f3dbf8a10370ef60b1951f]
link RecordSampleController to SampleDTO--><path codeLine="5" d="M818.16,434.3 C876,468.16 937.9,511.4 985,562 C1065.58,648.56 1125.8,769.6 1163.38,860.04 " fill="none" id="RecordSampleController-to-SampleDTO" style="stroke:#A80036;stroke-width:2.0;stroke-dasharray:7.0,7.0;"/><polygon fill="#A80036" points="1167.4,869.8,1167.8919,850.1084,1163.5681,860.5633,1153.1132,856.2395,1167.4,869.8" style="stroke:#A80036;stroke-width:2.0;"/><!--MD5=[9510bf5b380887b573b83b1f9ca3e028]
link RecordSampleController to SampleStore--><path codeLine="6" d="M479.82,409.88 C408.52,443.1 331.84,492.36 287,562 C227.56,654.3 223.02,782.18 229.64,873.1 " fill="none" id="RecordSampleController-to-SampleStore" style="stroke:#A80036;stroke-width:2.0;stroke-dasharray:7.0,7.0;"/><polygon fill="#A80036" points="230.46,883.46,236.9949,864.8779,229.6603,873.492,221.0461,866.1574,230.46,883.46" style="stroke:#A80036;stroke-width:2.0;"/><!--MD5=[e5a9667c400772c28cc59b9168c63c65]
link RecordSampleController to SampleMapper--><path codeLine="7" d="M818.32,390.64 C907.92,414.94 1017.92,451.06 1109,500 C1143.7,518.64 1178.32,544.64 1207.16,568.92 " fill="none" id="RecordSampleController-to-SampleMapper" style="stroke:#A80036;stroke-width:2.0;stroke-dasharray:7.0,7.0;"/><polygon fill="#A80036" points="1215.14,575.72,1206.6082,557.9659,1207.5213,569.2427,1196.2445,570.1558,1215.14,575.72" style="stroke:#A80036;stroke-width:2.0;"/><!--MD5=[5bb931d09ab0aebfaada3d823529a93c]
link RecordSampleController to TestStore--><path codeLine="8" d="M649,440.02 C649,566.64 649,797.74 649,914.1 " fill="none" id="RecordSampleController-to-TestStore" style="stroke:#A80036;stroke-width:2.0;stroke-dasharray:7.0,7.0;"/><polygon fill="#A80036" points="649,924.3,657,906.3,649,914.3,641,906.3,649,924.3" style="stroke:#A80036;stroke-width:2.0;"/><!--MD5=[6fff8c743b4aac4516b5292cd3b50f72]
link Company to SampleStore--><path codeLine="18" d="M392.66,714.02 C367.18,760.8 333.76,822.14 305.16,874.62 " fill="none" id="Company-to-SampleStore" style="stroke:#A80036;stroke-width:2.0;"/><polygon fill="#A80036" points="300.24,883.62,315.8688,871.6308,305.0185,874.8356,301.8138,863.9853,300.24,883.62" style="stroke:#A80036;stroke-width:2.0;"/><text fill="#000000" font-family="sans-serif" font-size="26" lengthAdjust="spacing" textLength="52" x="359" y="802.9902">have</text><!--MD5=[24da80e03bf7ae3160485df7795f9e59]
link SampleStore to Sample--><path codeLine="20" d="M245,1090.42 C245,1156.86 245,1243.28 245,1309.18 " fill="none" id="SampleStore-to-Sample" style="stroke:#A80036;stroke-width:2.0;"/><polygon fill="#A80036" points="245,1319.58,253,1301.58,245,1309.58,237,1301.58,245,1319.58" style="stroke:#A80036;stroke-width:2.0;"/><text fill="#000000" font-family="sans-serif" font-size="26" lengthAdjust="spacing" textLength="42" x="247" y="1222.9902">has</text><!--MD5=[7f6cf7f175eae0af66201860de5de971]
link Company to TestStore--><path codeLine="22" d="M479.34,714.02 C516.76,773.78 569.02,857.26 605.62,915.72 " fill="none" id="Company-to-TestStore" style="stroke:#A80036;stroke-width:2.0;"/><polygon fill="#A80036" points="611.36,924.88,608.6336,905.3719,606.0729,916.392,595.0527,913.8313,611.36,924.88" style="stroke:#A80036;stroke-width:2.0;"/><!--MD5=[f6fda4afaf882dd39139bcbf06c50c8c]
link TestMapper to TestDTO--><path codeLine="26" d="M858.1,700.46 C867.44,811.48 887.22,1046.32 896.28,1153.96 " fill="none" id="TestMapper-to-TestDTO" style="stroke:#A80036;stroke-width:2.0;stroke-dasharray:7.0,7.0;"/><polygon fill="#A80036" points="897.12,1163.98,903.602,1145.3793,896.2919,1154.0143,887.6569,1146.7043,897.12,1163.98" style="stroke:#A80036;stroke-width:2.0;"/><!--MD5=[be3b39c7463182027323f9c0e531e936]
link TestDTO to Test--><path codeLine="27" d="M876.84,1260.8 C830.18,1351.16 727.86,1549.3 677.78,1646.28 " fill="none" id="TestDTO-to-Test" style="stroke:#A80036;stroke-width:2.0;stroke-dasharray:7.0,7.0;"/><polygon fill="#A80036" points="673.08,1655.36,688.4597,1643.0528,677.6773,1646.4794,674.2508,1635.6971,673.08,1655.36" style="stroke:#A80036;stroke-width:2.0;"/><!--MD5=[1ae83efc6d1967ce5bc17dfe294d00c2]
link Sample to Test--><path codeLine="28" d="M318.1,1500.22 C348.26,1533.04 385.02,1568.88 423,1596 C472.38,1631.28 535.36,1659.68 582.3,1678.16 " fill="none" id="Sample-to-Test" style="stroke:#A80036;stroke-width:2.0;"/><polygon fill="#A80036" points="592.06,1681.96,578.1918,1667.9717,582.7421,1678.33,572.3838,1682.8804,592.06,1681.96" style="stroke:#A80036;stroke-width:2.0;"/><text fill="#000000" font-family="sans-serif" font-size="26" lengthAdjust="spacing" textLength="170" x="425" y="1588.9902">originated from</text><!--MD5=[b0f4f6db8206580012ef9cd998ed01c5]
link TestStore to Test--><path codeLine="31" d="M649,1049.18 C649,1184.7 649,1512.3 649,1644.88 " fill="none" id="TestStore-to-Test" style="stroke:#A80036;stroke-width:2.0;"/><polygon fill="#A80036" points="649,1655.58,657,1637.58,649,1645.58,641,1637.58,649,1655.58" style="stroke:#A80036;stroke-width:2.0;"/><text fill="#000000" font-family="sans-serif" font-size="26" lengthAdjust="spacing" textLength="46" x="651" y="1420.9902">Has</text><!--MD5=[081a105d9ba373b8c9f4c038e84d1e03]
link SampleMapper to SampleDTO--><path codeLine="32" d="M1266.8,700.1 C1257.88,744.08 1245.46,805.32 1234.4,859.76 " fill="none" id="SampleMapper-to-SampleDTO" style="stroke:#A80036;stroke-width:2.0;stroke-dasharray:7.0,7.0;"/><polygon fill="#A80036" points="1232.36,869.86,1243.7528,853.7912,1234.3322,860.0564,1228.067,850.6358,1232.36,869.86" style="stroke:#A80036;stroke-width:2.0;"/><!--MD5=[c88f814ecc8e75286b0c0023c0833471]
link TestMapper to TestStore--><path codeLine="35" d="M817.46,700.1 C782,760.08 727.54,852.18 690.2,915.34 " fill="none" id="TestMapper-to-TestStore" style="stroke:#A80036;stroke-width:2.0;stroke-dasharray:7.0,7.0;"/><polygon fill="#A80036" points="684.82,924.44,700.8798,913.0346,689.9188,915.8375,687.1159,904.8765,684.82,924.44" style="stroke:#A80036;stroke-width:2.0;"/><!--MD5=[96bf494923f7b7e3d5a564f6991e50aa]
link Test to Laborder--><path codeLine="37" d="M649,1752.44 C649,1784.96 649,1828.64 649,1863.24 " fill="none" id="Test-to-Laborder" style="stroke:#A80036;stroke-width:2.0;stroke-dasharray:7.0,7.0;"/><polygon fill="#A80036" points="649,1873.66,657,1855.66,649,1863.66,641,1855.66,649,1873.66" style="stroke:#A80036;stroke-width:2.0;"/><!--MD5=[bf470ec1c3bdac2b8b6ef41a2c5162cb]
@startuml
RecordSampleUI ..> RecordSampleController
RecordSampleController..>Company
RecordSampleController..>Sample
RecordSampleController..>TestMapper
RecordSampleController..>SampleDTO
RecordSampleController..>SampleStore
RecordSampleController..>SampleMapper
RecordSampleController..>TestStore




RecordSampleController : +RecordNewSample(dto)
RecordSampleController : +saveNewSample()
RecordSampleController : +getTest()


Company - -> SampleStore : have

SampleStore - -> Sample: has

Company - -> TestStore

TestStore : +getTestByTestTypeCode(testid)

TestMapper ..> TestDTO
TestDTO..> Test
Sample - -> Test: originated from


TestStore - -> Test : Has
SampleMapper ..> SampleDTO


TestMapper ..> TestStore

Test ..> Laborder
LabOrder : -testType


TestMapper : +toDTO(tests)

SampleMapper : +toModel()




Company : +getTestStore()
Company : +getSampleStore()

SampleStore : +RecordNewSample(tdo)
SampleStore : +validateNewSample(samp)
SampleStore : +saveNewSample(samp)
SampleStore : +addNewSample(samp)

SampleDTO : +getTimeColl()
SampleDTO : +getDataColl()
SampleDTO : +getgetTestId()


SampleDTO : -timeCollection
SampleDTO : -dateCollection


Sample : +Sample(dataCollection, timeCollection, test)
Sample : -timeCollection
Sample : -dateCollection
@enduml

PlantUML version 1.2021.5(Sun Apr 25 12:20:28 BST 2021)
(GPL source distribution)
Java Runtime: OpenJDK Runtime Environment
JVM: Dynamic Code Evolution 64-Bit Server VM
Default Encoding: Cp1252
Language: pt
Country: PT
--></g></svg>