<?xml version="1.0" encoding="UTF-8" standalone="no"?><svg xmlns="http://www.w3.org/2000/svg" xmlns:xlink="http://www.w3.org/1999/xlink" contentScriptType="application/ecmascript" contentStyleType="text/css" height="861.7px" preserveAspectRatio="none" style="width:480px;height:861px;" version="1.1" viewBox="0 0 480 861" width="480.9px" zoomAndPan="magnify"><defs><filter height="300%" id="f1xfr0ebjhupu1" width="300%" x="-1" y="-1"><feGaussianBlur result="blurOut" stdDeviation="1.4"/><feColorMatrix in="blurOut" result="blurOut2" type="matrix" values="0 0 0 0 0 0 0 0 0 0 0 0 0 0 0 0 0 0 .4 0"/><feOffset dx="2.8" dy="2.8" in="blurOut2" result="blurOut3"/><feBlend in="SourceGraphic" in2="blurOut3" mode="normal"/></filter></defs><g><!--MD5=[9681dc6e01e10c6b4fe06895ae94f592]
cluster UI--><polygon fill="#FFFFFF" filter="url(#f1xfr0ebjhupu1)" points="357,4.2,371,4.2,375.9,20.7266,469,20.7266,469,74.2,357,74.2,357,4.2" style="stroke:#000000;stroke-width:1.0499999999999998;"/><line style="stroke:#000000;stroke-width:1.0499999999999998;" x1="357" x2="375.9" y1="20.7266" y2="20.7266"/><text fill="#000000" font-family="sans-serif" font-size="9.8" font-weight="bold" lengthAdjust="spacing" textLength="9.8" x="359.8" y="15.7732">UI</text><!--MD5=[ed1d20ea533a2a0e7df5ba3c35e56ced]
cluster Controllers--><polygon fill="#FFFFFF" filter="url(#f1xfr0ebjhupu1)" points="110.6,97.3,170.1,97.3,175,113.8266,252,113.8266,252,196.7,110.6,196.7,110.6,97.3" style="stroke:#000000;stroke-width:1.0499999999999998;"/><line style="stroke:#000000;stroke-width:1.0499999999999998;" x1="110.6" x2="175" y1="113.8266" y2="113.8266"/><text fill="#000000" font-family="sans-serif" font-size="9.8" font-weight="bold" lengthAdjust="spacing" textLength="55.3" x="113.4" y="108.8732">Controllers</text><!--MD5=[121a8bf1197281ab89ed693fab589f94]
cluster Domain--><polygon fill="#FFFFFF" filter="url(#f1xfr0ebjhupu1)" points="30.8,219.8,71.4,219.8,76.3,236.3266,427.7,236.3266,427.7,856.8,30.8,856.8,30.8,219.8" style="stroke:#000000;stroke-width:1.0499999999999998;"/><line style="stroke:#000000;stroke-width:1.0499999999999998;" x1="30.8" x2="76.3" y1="236.3266" y2="236.3266"/><text fill="#000000" font-family="sans-serif" font-size="9.8" font-weight="bold" lengthAdjust="spacing" textLength="36.4" x="33.6" y="231.3732">Domain</text><!--MD5=[05ffea613565d111e9c4a041147710d4]
class RecordSampleUI--><rect codeLine="2" fill="#FEFECE" filter="url(#f1xfr0ebjhupu1)" height="33.6" id="RecordSampleUI" style="stroke:#A80036;stroke-width:1.0499999999999998;" width="88.9" x="368.55" y="29.4"/><ellipse cx="379.05" cy="40.6" fill="#ADD1B2" rx="7.7" ry="7.7" style="stroke:#A80036;stroke-width:0.7;"/><path d="M380.45,38.15 Q380.5922,37.8 380.7562,37.625 Q380.9203,37.45 381.1063,37.45 Q381.4344,37.45 381.6422,37.6469 Q381.85,37.8438 381.85,38.3031 L381.85,39.3969 Q381.85,39.8562 381.6531,40.0531 Q381.4562,40.25 381.15,40.25 Q380.8766,40.25 380.7016,40.1297 Q380.5266,40.0094 380.45,39.6922 Q380.4172,39.4734 380.2969,39.3531 Q380.0781,39.1234 379.6844,38.9922 Q379.2906,38.85 378.8969,38.85 Q378.4047,38.85 377.9891,39.0469 Q377.5844,39.2438 377.2672,39.6813 Q376.95,40.1188 376.95,40.7203 L376.95,41.3656 Q376.95,42.0875 377.5406,42.5687 Q378.1312,43.05 379.1813,43.05 Q379.8047,43.05 380.2422,42.9078 Q380.4938,42.8313 380.7781,42.5797 Q380.9641,42.4375 381.0625,42.3938 Q381.1609,42.35 381.2813,42.35 Q381.5109,42.35 381.675,42.5359 Q381.85,42.7109 381.85,42.9625 Q381.85,43.2031 381.6094,43.4875 Q381.2594,43.9031 380.7016,44.1328 Q379.9688,44.45 379.0719,44.45 Q378.0219,44.45 377.1797,44.0344 Q376.5016,43.7063 376.0203,42.9953 Q375.55,42.2844 375.55,41.4422 L375.55,40.6766 Q375.55,39.8016 375.9656,39.0359 Q376.3922,38.2703 377.125,37.8656 Q377.8688,37.45 378.7,37.45 Q379.2031,37.45 379.6406,37.625 Q380.0781,37.8 380.45,38.15 Z " fill="#000000"/><text fill="#000000" font-family="sans-serif" font-size="8.4" lengthAdjust="spacing" textLength="66.5" x="388.85" y="44.0371">RecordSampleUI</text><line style="stroke:#A80036;stroke-width:1.0499999999999998;" x1="369.25" x2="456.75" y1="51.8" y2="51.8"/><line style="stroke:#A80036;stroke-width:1.0499999999999998;" x1="369.25" x2="456.75" y1="57.4" y2="57.4"/><!--MD5=[ecb4b8913618184ce1e3f8e48e5e993f]
class RecordSampleController--><rect codeLine="5" fill="#FEFECE" filter="url(#f1xfr0ebjhupu1)" height="62.6555" id="RecordSampleController" style="stroke:#A80036;stroke-width:1.0499999999999998;" width="118.3" x="122.15" y="122.5"/><ellipse cx="132.65" cy="133.7" fill="#ADD1B2" rx="7.7" ry="7.7" style="stroke:#A80036;stroke-width:0.7;"/><path d="M134.05,131.25 Q134.1922,130.9 134.3563,130.725 Q134.5203,130.55 134.7062,130.55 Q135.0344,130.55 135.2422,130.7469 Q135.45,130.9438 135.45,131.4031 L135.45,132.4969 Q135.45,132.9562 135.2531,133.1531 Q135.0562,133.35 134.75,133.35 Q134.4766,133.35 134.3016,133.2297 Q134.1266,133.1094 134.05,132.7922 Q134.0172,132.5734 133.8969,132.4531 Q133.6781,132.2234 133.2844,132.0922 Q132.8906,131.95 132.4969,131.95 Q132.0047,131.95 131.5891,132.1469 Q131.1844,132.3438 130.8672,132.7813 Q130.55,133.2188 130.55,133.8203 L130.55,134.4656 Q130.55,135.1875 131.1406,135.6688 Q131.7313,136.15 132.7813,136.15 Q133.4047,136.15 133.8422,136.0078 Q134.0938,135.9312 134.3781,135.6797 Q134.5641,135.5375 134.6625,135.4937 Q134.7609,135.45 134.8813,135.45 Q135.1109,135.45 135.275,135.6359 Q135.45,135.8109 135.45,136.0625 Q135.45,136.3031 135.2094,136.5875 Q134.8594,137.0031 134.3016,137.2328 Q133.5688,137.55 132.6719,137.55 Q131.6219,137.55 130.7797,137.1344 Q130.1016,136.8062 129.6203,136.0953 Q129.15,135.3844 129.15,134.5422 L129.15,133.7766 Q129.15,132.9016 129.5656,132.1359 Q129.9922,131.3703 130.725,130.9656 Q131.4688,130.55 132.3,130.55 Q132.8031,130.55 133.2406,130.725 Q133.6781,130.9 134.05,131.25 Z " fill="#000000"/><text fill="#000000" font-family="sans-serif" font-size="8.4" lengthAdjust="spacing" textLength="95.9" x="142.45" y="137.1371">RecordSampleController</text><line style="stroke:#A80036;stroke-width:1.0499999999999998;" x1="122.85" x2="239.75" y1="144.9" y2="144.9"/><line style="stroke:#A80036;stroke-width:1.0499999999999998;" x1="122.85" x2="239.75" y1="150.5" y2="150.5"/><ellipse cx="129.85" cy="158.2" fill="#84BE84" rx="2.1" ry="2.1" style="stroke:#038048;stroke-width:0.7;"/><text fill="#000000" font-family="sans-serif" font-size="7.7" lengthAdjust="spacing" textLength="81.2" x="136.15" y="161.2933">RecordNewSample(dto)</text><ellipse cx="129.85" cy="167.8852" fill="#84BE84" rx="2.1" ry="2.1" style="stroke:#038048;stroke-width:0.7;"/><text fill="#000000" font-family="sans-serif" font-size="7.7" lengthAdjust="spacing" textLength="63" x="136.15" y="170.9784">saveNewSample()</text><ellipse cx="129.85" cy="177.5703" fill="#84BE84" rx="2.1" ry="2.1" style="stroke:#038048;stroke-width:0.7;"/><text fill="#000000" font-family="sans-serif" font-size="7.7" lengthAdjust="spacing" textLength="30.8" x="136.15" y="180.6636">getTest()</text><!--MD5=[02e4b9b7573f1156f41e60aa5b4e25a4]
class Company--><rect codeLine="8" fill="#FEFECE" filter="url(#f1xfr0ebjhupu1)" height="52.9703" id="Company" style="stroke:#A80036;stroke-width:1.0499999999999998;" width="77" x="246.4" y="245"/><ellipse cx="264.775" cy="256.2" fill="#ADD1B2" rx="7.7" ry="7.7" style="stroke:#A80036;stroke-width:0.7;"/><path d="M266.175,253.75 Q266.3172,253.4 266.4813,253.225 Q266.6453,253.05 266.8313,253.05 Q267.1594,253.05 267.3672,253.2469 Q267.575,253.4438 267.575,253.9031 L267.575,254.9969 Q267.575,255.4562 267.3781,255.6531 Q267.1813,255.85 266.875,255.85 Q266.6016,255.85 266.4266,255.7297 Q266.2516,255.6094 266.175,255.2922 Q266.1422,255.0734 266.0219,254.9531 Q265.8031,254.7234 265.4094,254.5922 Q265.0156,254.45 264.6219,254.45 Q264.1297,254.45 263.7141,254.6469 Q263.3094,254.8437 262.9922,255.2812 Q262.675,255.7187 262.675,256.3203 L262.675,256.9656 Q262.675,257.6875 263.2656,258.1688 Q263.8563,258.65 264.9063,258.65 Q265.5297,258.65 265.9672,258.5078 Q266.2188,258.4313 266.5031,258.1797 Q266.6891,258.0375 266.7875,257.9938 Q266.8859,257.95 267.0062,257.95 Q267.2359,257.95 267.4,258.1359 Q267.575,258.3109 267.575,258.5625 Q267.575,258.8031 267.3344,259.0875 Q266.9844,259.5031 266.4266,259.7328 Q265.6937,260.05 264.7969,260.05 Q263.7469,260.05 262.9047,259.6344 Q262.2266,259.3063 261.7453,258.5953 Q261.275,257.8844 261.275,257.0422 L261.275,256.2766 Q261.275,255.4016 261.6906,254.6359 Q262.1172,253.8703 262.85,253.4656 Q263.5938,253.05 264.425,253.05 Q264.9281,253.05 265.3656,253.225 Q265.8031,253.4 266.175,253.75 Z " fill="#000000"/><text fill="#000000" font-family="sans-serif" font-size="8.4" lengthAdjust="spacing" textLength="37.1" x="276.325" y="259.6371">Company</text><line style="stroke:#A80036;stroke-width:1.0499999999999998;" x1="247.1" x2="322.7" y1="267.4" y2="267.4"/><line style="stroke:#A80036;stroke-width:1.0499999999999998;" x1="247.1" x2="322.7" y1="273" y2="273"/><ellipse cx="254.1" cy="280.7" fill="#84BE84" rx="2.1" ry="2.1" style="stroke:#038048;stroke-width:0.7;"/><text fill="#000000" font-family="sans-serif" font-size="7.7" lengthAdjust="spacing" textLength="49" x="260.4" y="283.7933">getTestStore()</text><ellipse cx="254.1" cy="290.3852" fill="#84BE84" rx="2.1" ry="2.1" style="stroke:#038048;stroke-width:0.7;"/><text fill="#000000" font-family="sans-serif" font-size="7.7" lengthAdjust="spacing" textLength="58.8" x="260.4" y="293.4784">getSampleStore()</text><!--MD5=[9681492165142af2a4a3a169d90ee8d4]
class Sample--><rect codeLine="9" fill="#FEFECE" filter="url(#f1xfr0ebjhupu1)" height="62.6555" id="Sample" style="stroke:#A80036;stroke-width:1.0499999999999998;" width="87.5" x="244.65" y="665"/><ellipse cx="270.9" cy="676.2" fill="#ADD1B2" rx="7.7" ry="7.7" style="stroke:#A80036;stroke-width:0.7;"/><path d="M272.3,673.75 Q272.4422,673.4 272.6063,673.225 Q272.7703,673.05 272.9562,673.05 Q273.2844,673.05 273.4922,673.2469 Q273.7,673.4437 273.7,673.9031 L273.7,674.9969 Q273.7,675.4563 273.5031,675.6531 Q273.3063,675.85 273,675.85 Q272.7266,675.85 272.5516,675.7297 Q272.3766,675.6094 272.3,675.2922 Q272.2672,675.0734 272.1469,674.9531 Q271.9281,674.7234 271.5344,674.5922 Q271.1406,674.45 270.7469,674.45 Q270.2547,674.45 269.8391,674.6469 Q269.4344,674.8438 269.1172,675.2813 Q268.8,675.7188 268.8,676.3203 L268.8,676.9656 Q268.8,677.6875 269.3906,678.1687 Q269.9813,678.65 271.0313,678.65 Q271.6547,678.65 272.0922,678.5078 Q272.3438,678.4313 272.6281,678.1797 Q272.8141,678.0375 272.9125,677.9938 Q273.0109,677.95 273.1312,677.95 Q273.3609,677.95 273.525,678.1359 Q273.7,678.3109 273.7,678.5625 Q273.7,678.8031 273.4594,679.0875 Q273.1094,679.5031 272.5516,679.7328 Q271.8187,680.05 270.9219,680.05 Q269.8719,680.05 269.0297,679.6344 Q268.3516,679.3063 267.8703,678.5953 Q267.4,677.8844 267.4,677.0422 L267.4,676.2766 Q267.4,675.4016 267.8156,674.6359 Q268.2422,673.8703 268.975,673.4656 Q269.7188,673.05 270.55,673.05 Q271.0531,673.05 271.4906,673.225 Q271.9281,673.4 272.3,673.75 Z " fill="#000000"/><text fill="#000000" font-family="sans-serif" font-size="8.4" lengthAdjust="spacing" textLength="30.1" x="284.2" y="679.6371">Sample</text><line style="stroke:#A80036;stroke-width:1.0499999999999998;" x1="245.35" x2="331.45" y1="687.4" y2="687.4"/><rect fill="none" height="4.2" style="stroke:#C82930;stroke-width:0.7;" width="4.2" x="250.25" y="693"/><text fill="#000000" font-family="sans-serif" font-size="7.7" lengthAdjust="spacing" textLength="28" x="258.65" y="698.1933">barcode</text><line style="stroke:#A80036;stroke-width:1.0499999999999998;" x1="245.35" x2="331.45" y1="702.6852" y2="702.6852"/><ellipse cx="252.35" cy="710.3852" fill="#84BE84" rx="2.1" ry="2.1" style="stroke:#038048;stroke-width:0.7;"/><text fill="#000000" font-family="sans-serif" font-size="7.7" lengthAdjust="spacing" textLength="30.1" x="258.65" y="713.4784">Sample()</text><ellipse cx="252.35" cy="720.0703" fill="#84BE84" rx="2.1" ry="2.1" style="stroke:#038048;stroke-width:0.7;"/><text fill="#000000" font-family="sans-serif" font-size="7.7" lengthAdjust="spacing" textLength="69.3" x="258.65" y="723.1636">getBarcodecreator()</text><!--MD5=[144698ec4d0188f6929a3b58a3eeb1f6]
class TestMapper--><rect codeLine="10" fill="#FEFECE" filter="url(#f1xfr0ebjhupu1)" height="43.2852" id="TestMapper" style="stroke:#A80036;stroke-width:1.0499999999999998;" width="67.9" x="348.25" y="249.9"/><ellipse cx="358.75" cy="261.1" fill="#ADD1B2" rx="7.7" ry="7.7" style="stroke:#A80036;stroke-width:0.7;"/><path d="M360.15,258.65 Q360.2922,258.3 360.4562,258.125 Q360.6203,257.95 360.8063,257.95 Q361.1344,257.95 361.3422,258.1469 Q361.55,258.3438 361.55,258.8031 L361.55,259.8969 Q361.55,260.3563 361.3531,260.5531 Q361.1563,260.75 360.85,260.75 Q360.5766,260.75 360.4016,260.6297 Q360.2266,260.5094 360.15,260.1922 Q360.1172,259.9734 359.9969,259.8531 Q359.7781,259.6234 359.3844,259.4922 Q358.9906,259.35 358.5969,259.35 Q358.1047,259.35 357.6891,259.5469 Q357.2844,259.7438 356.9672,260.1813 Q356.65,260.6188 356.65,261.2203 L356.65,261.8656 Q356.65,262.5875 357.2406,263.0687 Q357.8312,263.55 358.8812,263.55 Q359.5047,263.55 359.9422,263.4078 Q360.1937,263.3313 360.4781,263.0797 Q360.6641,262.9375 360.7625,262.8938 Q360.8609,262.85 360.9813,262.85 Q361.2109,262.85 361.375,263.0359 Q361.55,263.2109 361.55,263.4625 Q361.55,263.7031 361.3094,263.9875 Q360.9594,264.4031 360.4016,264.6328 Q359.6688,264.95 358.7719,264.95 Q357.7219,264.95 356.8797,264.5344 Q356.2016,264.2063 355.7203,263.4953 Q355.25,262.7844 355.25,261.9422 L355.25,261.1766 Q355.25,260.3016 355.6656,259.5359 Q356.0922,258.7703 356.825,258.3656 Q357.5687,257.95 358.4,257.95 Q358.9031,257.95 359.3406,258.125 Q359.7781,258.3 360.15,258.65 Z " fill="#000000"/><text fill="#000000" font-family="sans-serif" font-size="8.4" lengthAdjust="spacing" textLength="45.5" x="368.55" y="264.5371">TestMapper</text><line style="stroke:#A80036;stroke-width:1.0499999999999998;" x1="348.95" x2="415.45" y1="272.3" y2="272.3"/><line style="stroke:#A80036;stroke-width:1.0499999999999998;" x1="348.95" x2="415.45" y1="277.9" y2="277.9"/><ellipse cx="355.95" cy="285.6" fill="#84BE84" rx="2.1" ry="2.1" style="stroke:#038048;stroke-width:0.7;"/><text fill="#000000" font-family="sans-serif" font-size="7.7" lengthAdjust="spacing" textLength="43.4" x="362.25" y="288.6933">toDTO(tests)</text><!--MD5=[f3e1cea714716315318addd6917e91a9]
class SampleDTO--><rect codeLine="11" fill="#FEFECE" filter="url(#f1xfr0ebjhupu1)" height="52.9703" id="SampleDTO" style="stroke:#A80036;stroke-width:1.0499999999999998;" width="70" x="77" y="367.15"/><ellipse cx="87.5" cy="378.35" fill="#ADD1B2" rx="7.7" ry="7.7" style="stroke:#A80036;stroke-width:0.7;"/><path d="M88.9,375.9 Q89.0422,375.55 89.2063,375.375 Q89.3703,375.2 89.5562,375.2 Q89.8844,375.2 90.0922,375.3969 Q90.3,375.5938 90.3,376.0531 L90.3,377.1469 Q90.3,377.6063 90.1031,377.8031 Q89.9063,378 89.6,378 Q89.3266,378 89.1516,377.8797 Q88.9766,377.7594 88.9,377.4422 Q88.8672,377.2234 88.7469,377.1031 Q88.5281,376.8734 88.1344,376.7422 Q87.7406,376.6 87.3469,376.6 Q86.8547,376.6 86.4391,376.7969 Q86.0344,376.9938 85.7172,377.4313 Q85.4,377.8688 85.4,378.4703 L85.4,379.1156 Q85.4,379.8375 85.9906,380.3187 Q86.5813,380.8 87.6313,380.8 Q88.2547,380.8 88.6922,380.6578 Q88.9438,380.5812 89.2281,380.3297 Q89.4141,380.1875 89.5125,380.1437 Q89.6109,380.1 89.7312,380.1 Q89.9609,380.1 90.125,380.2859 Q90.3,380.4609 90.3,380.7125 Q90.3,380.9531 90.0594,381.2375 Q89.7094,381.6531 89.1516,381.8828 Q88.4187,382.2 87.5219,382.2 Q86.4719,382.2 85.6297,381.7844 Q84.9516,381.4562 84.4703,380.7453 Q84,380.0344 84,379.1922 L84,378.4266 Q84,377.5516 84.4156,376.7859 Q84.8422,376.0203 85.575,375.6156 Q86.3188,375.2 87.15,375.2 Q87.6531,375.2 88.0906,375.375 Q88.5281,375.55 88.9,375.9 Z " fill="#000000"/><text fill="#000000" font-family="sans-serif" font-size="8.4" lengthAdjust="spacing" textLength="47.6" x="97.3" y="381.7871">SampleDTO</text><line style="stroke:#A80036;stroke-width:1.0499999999999998;" x1="77.7" x2="146.3" y1="389.55" y2="389.55"/><rect fill="none" height="4.2" style="stroke:#C82930;stroke-width:0.7;" width="4.2" x="82.6" y="395.15"/><text fill="#000000" font-family="sans-serif" font-size="7.7" lengthAdjust="spacing" textLength="23.8" x="91" y="400.3433">orderid</text><line style="stroke:#A80036;stroke-width:1.0499999999999998;" x1="77.7" x2="146.3" y1="404.8352" y2="404.8352"/><ellipse cx="84.7" cy="412.5352" fill="#84BE84" rx="2.1" ry="2.1" style="stroke:#038048;stroke-width:0.7;"/><text fill="#000000" font-family="sans-serif" font-size="7.7" lengthAdjust="spacing" textLength="41.3" x="91" y="415.6284">getOrderid()</text><!--MD5=[ae7e51bf7f64437d6b43a3b7d6fba6e1]
class SampleMapper--><rect codeLine="12" fill="#FEFECE" filter="url(#f1xfr0ebjhupu1)" height="43.2852" id="SampleMapper" style="stroke:#A80036;stroke-width:1.0499999999999998;" width="81.2" x="140.7" y="249.9"/><ellipse cx="151.2" cy="261.1" fill="#ADD1B2" rx="7.7" ry="7.7" style="stroke:#A80036;stroke-width:0.7;"/><path d="M152.6,258.65 Q152.7422,258.3 152.9063,258.125 Q153.0703,257.95 153.2563,257.95 Q153.5844,257.95 153.7922,258.1469 Q154,258.3438 154,258.8031 L154,259.8969 Q154,260.3563 153.8031,260.5531 Q153.6063,260.75 153.3,260.75 Q153.0266,260.75 152.8516,260.6297 Q152.6766,260.5094 152.6,260.1922 Q152.5672,259.9734 152.4469,259.8531 Q152.2281,259.6234 151.8344,259.4922 Q151.4406,259.35 151.0469,259.35 Q150.5547,259.35 150.1391,259.5469 Q149.7344,259.7438 149.4172,260.1813 Q149.1,260.6188 149.1,261.2203 L149.1,261.8656 Q149.1,262.5875 149.6906,263.0687 Q150.2813,263.55 151.3312,263.55 Q151.9547,263.55 152.3922,263.4078 Q152.6437,263.3313 152.9281,263.0797 Q153.1141,262.9375 153.2125,262.8938 Q153.3109,262.85 153.4312,262.85 Q153.6609,262.85 153.825,263.0359 Q154,263.2109 154,263.4625 Q154,263.7031 153.7594,263.9875 Q153.4094,264.4031 152.8516,264.6328 Q152.1187,264.95 151.2219,264.95 Q150.1719,264.95 149.3297,264.5344 Q148.6516,264.2063 148.1703,263.4953 Q147.7,262.7844 147.7,261.9422 L147.7,261.1766 Q147.7,260.3016 148.1156,259.5359 Q148.5422,258.7703 149.275,258.3656 Q150.0187,257.95 150.85,257.95 Q151.3531,257.95 151.7906,258.125 Q152.2281,258.3 152.6,258.65 Z " fill="#000000"/><text fill="#000000" font-family="sans-serif" font-size="8.4" lengthAdjust="spacing" textLength="58.8" x="161" y="264.5371">SampleMapper</text><line style="stroke:#A80036;stroke-width:1.0499999999999998;" x1="141.4" x2="221.2" y1="272.3" y2="272.3"/><line style="stroke:#A80036;stroke-width:1.0499999999999998;" x1="141.4" x2="221.2" y1="277.9" y2="277.9"/><ellipse cx="148.4" cy="285.6" fill="#84BE84" rx="2.1" ry="2.1" style="stroke:#038048;stroke-width:0.7;"/><text fill="#000000" font-family="sans-serif" font-size="7.7" lengthAdjust="spacing" textLength="31.5" x="154.7" y="288.6933">toModel()</text><!--MD5=[0f6f7964b844a64b0496af0dda7914bd]
class TestStore--><rect codeLine="13" fill="#FEFECE" filter="url(#f1xfr0ebjhupu1)" height="43.2852" id="TestStore" style="stroke:#A80036;stroke-width:1.0499999999999998;" width="125.3" x="208.25" y="372.05"/><ellipse cx="249.375" cy="383.25" fill="#ADD1B2" rx="7.7" ry="7.7" style="stroke:#A80036;stroke-width:0.7;"/><path d="M250.775,380.8 Q250.9172,380.45 251.0812,380.275 Q251.2453,380.1 251.4312,380.1 Q251.7594,380.1 251.9672,380.2969 Q252.175,380.4938 252.175,380.9531 L252.175,382.0469 Q252.175,382.5062 251.9781,382.7031 Q251.7812,382.9 251.475,382.9 Q251.2016,382.9 251.0266,382.7797 Q250.8516,382.6594 250.775,382.3422 Q250.7422,382.1234 250.6219,382.0031 Q250.4031,381.7734 250.0094,381.6422 Q249.6156,381.5 249.2219,381.5 Q248.7297,381.5 248.3141,381.6969 Q247.9094,381.8937 247.5922,382.3312 Q247.275,382.7687 247.275,383.3703 L247.275,384.0156 Q247.275,384.7375 247.8656,385.2188 Q248.4562,385.7 249.5063,385.7 Q250.1297,385.7 250.5672,385.5578 Q250.8188,385.4813 251.1031,385.2297 Q251.2891,385.0875 251.3875,385.0438 Q251.4859,385 251.6063,385 Q251.8359,385 252,385.1859 Q252.175,385.3609 252.175,385.6125 Q252.175,385.8531 251.9344,386.1375 Q251.5844,386.5531 251.0266,386.7828 Q250.2938,387.1 249.3969,387.1 Q248.3469,387.1 247.5047,386.6844 Q246.8266,386.3563 246.3453,385.6453 Q245.875,384.9344 245.875,384.0922 L245.875,383.3266 Q245.875,382.4516 246.2906,381.6859 Q246.7172,380.9203 247.45,380.5156 Q248.1938,380.1 249.025,380.1 Q249.5281,380.1 249.9656,380.275 Q250.4031,380.45 250.775,380.8 Z " fill="#000000"/><text fill="#000000" font-family="sans-serif" font-size="8.4" lengthAdjust="spacing" textLength="37.1" x="263.725" y="386.6871">TestStore</text><line style="stroke:#A80036;stroke-width:1.0499999999999998;" x1="208.95" x2="332.85" y1="394.45" y2="394.45"/><line style="stroke:#A80036;stroke-width:1.0499999999999998;" x1="208.95" x2="332.85" y1="400.05" y2="400.05"/><ellipse cx="215.95" cy="407.75" fill="#84BE84" rx="2.1" ry="2.1" style="stroke:#038048;stroke-width:0.7;"/><text fill="#000000" font-family="sans-serif" font-size="7.7" lengthAdjust="spacing" textLength="107.1" x="222.25" y="410.8433">getTestByTestTypeCode(testid)</text><!--MD5=[df38be88ccee13e832d6fafd6288a4ca]
class Test--><rect codeLine="14" fill="#FEFECE" filter="url(#f1xfr0ebjhupu1)" height="120.7664" id="Test" style="stroke:#A80036;stroke-width:1.0499999999999998;" width="108.5" x="280.35" y="489.3"/><ellipse cx="323.225" cy="500.5" fill="#ADD1B2" rx="7.7" ry="7.7" style="stroke:#A80036;stroke-width:0.7;"/><path d="M324.625,498.05 Q324.7672,497.7 324.9313,497.525 Q325.0953,497.35 325.2813,497.35 Q325.6094,497.35 325.8172,497.5469 Q326.025,497.7438 326.025,498.2031 L326.025,499.2969 Q326.025,499.7562 325.8281,499.9531 Q325.6312,500.15 325.325,500.15 Q325.0516,500.15 324.8766,500.0297 Q324.7016,499.9094 324.625,499.5922 Q324.5922,499.3734 324.4719,499.2531 Q324.2531,499.0234 323.8594,498.8922 Q323.4656,498.75 323.0719,498.75 Q322.5797,498.75 322.1641,498.9469 Q321.7594,499.1437 321.4422,499.5812 Q321.125,500.0187 321.125,500.6203 L321.125,501.2656 Q321.125,501.9875 321.7156,502.4687 Q322.3063,502.95 323.3563,502.95 Q323.9797,502.95 324.4172,502.8078 Q324.6688,502.7313 324.9531,502.4797 Q325.1391,502.3375 325.2375,502.2938 Q325.3359,502.25 325.4562,502.25 Q325.6859,502.25 325.85,502.4359 Q326.025,502.6109 326.025,502.8625 Q326.025,503.1031 325.7844,503.3875 Q325.4344,503.8031 324.8766,504.0328 Q324.1437,504.35 323.2469,504.35 Q322.1969,504.35 321.3547,503.9344 Q320.6766,503.6063 320.1953,502.8953 Q319.725,502.1844 319.725,501.3422 L319.725,500.5766 Q319.725,499.7016 320.1406,498.9359 Q320.5672,498.1703 321.3,497.7656 Q322.0438,497.35 322.875,497.35 Q323.3781,497.35 323.8156,497.525 Q324.2531,497.7 324.625,498.05 Z " fill="#000000"/><text fill="#000000" font-family="sans-serif" font-size="8.4" lengthAdjust="spacing" textLength="16.8" x="337.575" y="503.9371">Test</text><line style="stroke:#A80036;stroke-width:1.0499999999999998;" x1="281.05" x2="388.15" y1="511.7" y2="511.7"/><rect fill="none" height="4.2" style="stroke:#C82930;stroke-width:0.7;" width="4.2" x="285.95" y="517.3"/><text fill="#000000" font-family="sans-serif" font-size="7.7" lengthAdjust="spacing" textLength="32.2" x="294.35" y="522.4933">LabOrder</text><rect fill="none" height="4.2" style="stroke:#C82930;stroke-width:0.7;" width="4.2" x="285.95" y="526.9852"/><text fill="#000000" font-family="sans-serif" font-size="7.7" lengthAdjust="spacing" textLength="24.5" x="294.35" y="532.1784">Sample</text><rect fill="none" height="4.2" style="stroke:#C82930;stroke-width:0.7;" width="4.2" x="285.95" y="536.6703"/><text fill="#000000" font-family="sans-serif" font-size="7.7" lengthAdjust="spacing" textLength="16.8" x="294.35" y="541.8636">code</text><rect fill="none" height="4.2" style="stroke:#C82930;stroke-width:0.7;" width="4.2" x="285.95" y="546.3555"/><text fill="#000000" font-family="sans-serif" font-size="7.7" lengthAdjust="spacing" textLength="17.5" x="294.35" y="551.5487">client</text><rect fill="none" height="4.2" style="stroke:#C82930;stroke-width:0.7;" width="4.2" x="285.95" y="556.0406"/><text fill="#000000" font-family="sans-serif" font-size="7.7" lengthAdjust="spacing" textLength="29.4" x="294.35" y="561.2339">nhscode</text><line style="stroke:#A80036;stroke-width:1.0499999999999998;" x1="281.05" x2="388.15" y1="565.7258" y2="565.7258"/><ellipse cx="288.05" cy="573.4258" fill="#84BE84" rx="2.1" ry="2.1" style="stroke:#038048;stroke-width:0.7;"/><text fill="#000000" font-family="sans-serif" font-size="7.7" lengthAdjust="spacing" textLength="81.2" x="294.35" y="576.519">RecordNewSample(tdo)</text><ellipse cx="288.05" cy="583.1109" fill="#84BE84" rx="2.1" ry="2.1" style="stroke:#038048;stroke-width:0.7;"/><text fill="#000000" font-family="sans-serif" font-size="7.7" lengthAdjust="spacing" textLength="90.3" x="294.35" y="586.2042">validateNewSample(samp)</text><ellipse cx="288.05" cy="592.7961" fill="#84BE84" rx="2.1" ry="2.1" style="stroke:#038048;stroke-width:0.7;"/><text fill="#000000" font-family="sans-serif" font-size="7.7" lengthAdjust="spacing" textLength="81.2" x="294.35" y="595.8894">saveNewSample(samp)</text><ellipse cx="288.05" cy="602.4812" fill="#84BE84" rx="2.1" ry="2.1" style="stroke:#038048;stroke-width:0.7;"/><text fill="#000000" font-family="sans-serif" font-size="7.7" lengthAdjust="spacing" textLength="77" x="294.35" y="605.5745">addNewSample(samp)</text><!--MD5=[9fb704ffefcaf68bf1a361787afa998b]
class TestDTO--><rect codeLine="15" fill="#FEFECE" filter="url(#f1xfr0ebjhupu1)" height="82.0258" id="TestDTO" style="stroke:#A80036;stroke-width:1.0499999999999998;" width="56.7" x="358.05" y="352.8"/><ellipse cx="368.55" cy="364" fill="#ADD1B2" rx="7.7" ry="7.7" style="stroke:#A80036;stroke-width:0.7;"/><path d="M369.95,361.55 Q370.0922,361.2 370.2562,361.025 Q370.4203,360.85 370.6063,360.85 Q370.9344,360.85 371.1422,361.0469 Q371.35,361.2438 371.35,361.7031 L371.35,362.7969 Q371.35,363.2562 371.1531,363.4531 Q370.9562,363.65 370.65,363.65 Q370.3766,363.65 370.2016,363.5297 Q370.0266,363.4094 369.95,363.0922 Q369.9172,362.8734 369.7969,362.7531 Q369.5781,362.5234 369.1844,362.3922 Q368.7906,362.25 368.3969,362.25 Q367.9047,362.25 367.4891,362.4469 Q367.0844,362.6437 366.7672,363.0812 Q366.45,363.5187 366.45,364.1203 L366.45,364.7656 Q366.45,365.4875 367.0406,365.9688 Q367.6312,366.45 368.6813,366.45 Q369.3047,366.45 369.7422,366.3078 Q369.9938,366.2313 370.2781,365.9797 Q370.4641,365.8375 370.5625,365.7938 Q370.6609,365.75 370.7813,365.75 Q371.0109,365.75 371.175,365.9359 Q371.35,366.1109 371.35,366.3625 Q371.35,366.6031 371.1094,366.8875 Q370.7594,367.3031 370.2016,367.5328 Q369.4688,367.85 368.5719,367.85 Q367.5219,367.85 366.6797,367.4344 Q366.0016,367.1063 365.5203,366.3953 Q365.05,365.6844 365.05,364.8422 L365.05,364.0766 Q365.05,363.2016 365.4656,362.4359 Q365.8922,361.6703 366.625,361.2656 Q367.3688,360.85 368.2,360.85 Q368.7031,360.85 369.1406,361.025 Q369.5781,361.2 369.95,361.55 Z " fill="#000000"/><text fill="#000000" font-family="sans-serif" font-size="8.4" lengthAdjust="spacing" textLength="34.3" x="378.35" y="367.4371">TestDTO</text><line style="stroke:#A80036;stroke-width:1.0499999999999998;" x1="358.75" x2="414.05" y1="375.2" y2="375.2"/><rect fill="none" height="4.2" style="stroke:#C82930;stroke-width:0.7;" width="4.2" x="363.65" y="380.8"/><text fill="#000000" font-family="sans-serif" font-size="7.7" lengthAdjust="spacing" textLength="32.2" x="372.05" y="385.9933">LabOrder</text><rect fill="none" height="4.2" style="stroke:#C82930;stroke-width:0.7;" width="4.2" x="363.65" y="390.4852"/><text fill="#000000" font-family="sans-serif" font-size="7.7" lengthAdjust="spacing" textLength="24.5" x="372.05" y="395.6784">Sample</text><rect fill="none" height="4.2" style="stroke:#C82930;stroke-width:0.7;" width="4.2" x="363.65" y="400.1703"/><text fill="#000000" font-family="sans-serif" font-size="7.7" lengthAdjust="spacing" textLength="16.8" x="372.05" y="405.3636">code</text><rect fill="none" height="4.2" style="stroke:#C82930;stroke-width:0.7;" width="4.2" x="363.65" y="409.8555"/><text fill="#000000" font-family="sans-serif" font-size="7.7" lengthAdjust="spacing" textLength="17.5" x="372.05" y="415.0487">client</text><rect fill="none" height="4.2" style="stroke:#C82930;stroke-width:0.7;" width="4.2" x="363.65" y="419.5406"/><text fill="#000000" font-family="sans-serif" font-size="7.7" lengthAdjust="spacing" textLength="29.4" x="372.05" y="424.7339">nhscode</text><line style="stroke:#A80036;stroke-width:1.0499999999999998;" x1="358.75" x2="414.05" y1="429.2258" y2="429.2258"/><!--MD5=[a999c1570c205a2156b04a15307bc1ff]
class LabOrder--><rect codeLine="16" fill="#FEFECE" filter="url(#f1xfr0ebjhupu1)" height="52.9703" id="LabOrder" style="stroke:#A80036;stroke-width:1.0499999999999998;" width="58.8" x="357" y="669.9"/><ellipse cx="367.5" cy="681.1" fill="#ADD1B2" rx="7.7" ry="7.7" style="stroke:#A80036;stroke-width:0.7;"/><path d="M368.9,678.65 Q369.0422,678.3 369.2062,678.125 Q369.3703,677.95 369.5563,677.95 Q369.8844,677.95 370.0922,678.1469 Q370.3,678.3438 370.3,678.8031 L370.3,679.8969 Q370.3,680.3562 370.1031,680.5531 Q369.9063,680.75 369.6,680.75 Q369.3266,680.75 369.1516,680.6297 Q368.9766,680.5094 368.9,680.1922 Q368.8672,679.9734 368.7469,679.8531 Q368.5281,679.6234 368.1344,679.4922 Q367.7406,679.35 367.3469,679.35 Q366.8547,679.35 366.4391,679.5469 Q366.0344,679.7438 365.7172,680.1813 Q365.4,680.6188 365.4,681.2203 L365.4,681.8656 Q365.4,682.5875 365.9906,683.0687 Q366.5812,683.55 367.6312,683.55 Q368.2547,683.55 368.6922,683.4078 Q368.9437,683.3313 369.2281,683.0797 Q369.4141,682.9375 369.5125,682.8938 Q369.6109,682.85 369.7313,682.85 Q369.9609,682.85 370.125,683.0359 Q370.3,683.2109 370.3,683.4625 Q370.3,683.7031 370.0594,683.9875 Q369.7094,684.4031 369.1516,684.6328 Q368.4188,684.95 367.5219,684.95 Q366.4719,684.95 365.6297,684.5344 Q364.9516,684.2063 364.4703,683.4953 Q364,682.7844 364,681.9422 L364,681.1766 Q364,680.3016 364.4156,679.5359 Q364.8422,678.7703 365.575,678.3656 Q366.3187,677.95 367.15,677.95 Q367.6531,677.95 368.0906,678.125 Q368.5281,678.3 368.9,678.65 Z " fill="#000000"/><text fill="#000000" font-family="sans-serif" font-size="8.4" lengthAdjust="spacing" textLength="36.4" x="377.3" y="684.5371">LabOrder</text><line style="stroke:#A80036;stroke-width:1.0499999999999998;" x1="357.7" x2="415.1" y1="692.3" y2="692.3"/><rect fill="none" height="4.2" style="stroke:#C82930;stroke-width:0.7;" width="4.2" x="362.6" y="697.9"/><text fill="#000000" font-family="sans-serif" font-size="7.7" lengthAdjust="spacing" textLength="29.4" x="371" y="703.0933">testType</text><rect fill="none" height="4.2" style="stroke:#C82930;stroke-width:0.7;" width="4.2" x="362.6" y="707.5852"/><text fill="#000000" font-family="sans-serif" font-size="7.7" lengthAdjust="spacing" textLength="38.5" x="371" y="712.7784">parameters</text><line style="stroke:#A80036;stroke-width:1.0499999999999998;" x1="357.7" x2="415.1" y1="717.2703" y2="717.2703"/><!--MD5=[c787e3ea7cba08b6686a91ad4338f70b]
class ApiBarcode--><rect codeLine="17" fill="#FEFECE" filter="url(#f1xfr0ebjhupu1)" height="43.2852" id="ApiBarcode" style="stroke:#A80036;stroke-width:1.0499999999999998;" width="142.8" x="273.7" y="792.4"/><ellipse cx="319.725" cy="803.6" fill="#B4A7E5" rx="7.7" ry="7.7" style="stroke:#A80036;stroke-width:0.7;"/><path d="M320.425,801.5 L320.425,805.7 L321.825,805.7 L322.1641,805.7 L322.525,806.1375 L322.525,806.4 L322.525,806.6625 L322.1641,807.1 L321.825,807.1 L317.625,807.1 L317.2859,807.1 L316.925,806.6625 L316.925,806.4 L316.925,806.1375 L317.2859,805.7 L317.625,805.7 L319.025,805.7 L319.025,801.5 L317.625,801.5 L317.2859,801.5 L316.925,801.0625 L316.925,800.8 L316.925,800.5375 L317.2859,800.1 L317.625,800.1 L321.825,800.1 L322.1641,800.1 L322.525,800.5375 L322.525,800.8 L322.525,801.0625 L322.1641,801.5 L321.825,801.5 L320.425,801.5 Z " fill="#000000"/><text fill="#000000" font-family="sans-serif" font-size="8.4" font-style="italic" lengthAdjust="spacing" textLength="44.8" x="334.075" y="807.0371">ApiBarcode</text><line style="stroke:#A80036;stroke-width:1.0499999999999998;" x1="274.4" x2="415.8" y1="814.8" y2="814.8"/><line style="stroke:#A80036;stroke-width:1.0499999999999998;" x1="274.4" x2="415.8" y1="820.4" y2="820.4"/><ellipse cx="281.4" cy="828.1" fill="#84BE84" rx="2.1" ry="2.1" style="stroke:#038048;stroke-width:0.7;"/><text fill="#000000" font-family="sans-serif" font-size="7.7" lengthAdjust="spacing" textLength="124.6" x="287.7" y="831.1933">BarcodeCreate makeUPCABarcode()</text><!--MD5=[09699c8b762f7fa74b7dc251f2258f54]
class BarcodeAdapter--><rect codeLine="18" fill="#FEFECE" filter="url(#f1xfr0ebjhupu1)" height="43.2852" id="BarcodeAdapter" style="stroke:#A80036;stroke-width:1.0499999999999998;" width="142.8" x="75.6" y="674.8"/><ellipse cx="113.225" cy="686" fill="#ADD1B2" rx="7.7" ry="7.7" style="stroke:#A80036;stroke-width:0.7;"/><path d="M114.625,683.55 Q114.7672,683.2 114.9312,683.025 Q115.0953,682.85 115.2812,682.85 Q115.6094,682.85 115.8172,683.0469 Q116.025,683.2438 116.025,683.7031 L116.025,684.7969 Q116.025,685.2562 115.8281,685.4531 Q115.6313,685.65 115.325,685.65 Q115.0516,685.65 114.8766,685.5297 Q114.7016,685.4094 114.625,685.0922 Q114.5922,684.8734 114.4719,684.7531 Q114.2531,684.5234 113.8594,684.3922 Q113.4656,684.25 113.0719,684.25 Q112.5797,684.25 112.1641,684.4469 Q111.7594,684.6438 111.4422,685.0813 Q111.125,685.5188 111.125,686.1203 L111.125,686.7656 Q111.125,687.4875 111.7156,687.9688 Q112.3062,688.45 113.3562,688.45 Q113.9797,688.45 114.4172,688.3078 Q114.6687,688.2312 114.9531,687.9797 Q115.1391,687.8375 115.2375,687.7937 Q115.3359,687.75 115.4563,687.75 Q115.6859,687.75 115.85,687.9359 Q116.025,688.1109 116.025,688.3625 Q116.025,688.6031 115.7844,688.8875 Q115.4344,689.3031 114.8766,689.5328 Q114.1438,689.85 113.2469,689.85 Q112.1969,689.85 111.3547,689.4344 Q110.6766,689.1062 110.1953,688.3953 Q109.725,687.6844 109.725,686.8422 L109.725,686.0766 Q109.725,685.2016 110.1406,684.4359 Q110.5672,683.6703 111.3,683.2656 Q112.0437,682.85 112.875,682.85 Q113.3781,682.85 113.8156,683.025 Q114.2531,683.2 114.625,683.55 Z " fill="#000000"/><text fill="#000000" font-family="sans-serif" font-size="8.4" lengthAdjust="spacing" textLength="61.6" x="127.575" y="689.4371">BarcodeAdapter</text><line style="stroke:#A80036;stroke-width:1.0499999999999998;" x1="76.3" x2="217.7" y1="697.2" y2="697.2"/><line style="stroke:#A80036;stroke-width:1.0499999999999998;" x1="76.3" x2="217.7" y1="702.8" y2="702.8"/><ellipse cx="83.3" cy="710.5" fill="#84BE84" rx="2.1" ry="2.1" style="stroke:#038048;stroke-width:0.7;"/><text fill="#000000" font-family="sans-serif" font-size="7.7" lengthAdjust="spacing" textLength="124.6" x="89.6" y="713.5933">BarcodeCreate makeUPCABarcode()</text><!--MD5=[6cfa5c3b7c3b169d22de0dcd47d936aa]
class BarcodeCreate--><rect codeLine="19" fill="#FEFECE" filter="url(#f1xfr0ebjhupu1)" height="62.6555" id="BarcodeCreate" style="stroke:#A80036;stroke-width:1.0499999999999998;" width="206.5" x="42.35" y="782.6"/><ellipse cx="113.575" cy="793.8" fill="#ADD1B2" rx="7.7" ry="7.7" style="stroke:#A80036;stroke-width:0.7;"/><path d="M114.975,791.35 Q115.1172,791 115.2812,790.825 Q115.4453,790.65 115.6313,790.65 Q115.9594,790.65 116.1672,790.8469 Q116.375,791.0437 116.375,791.5031 L116.375,792.5969 Q116.375,793.0563 116.1781,793.2531 Q115.9812,793.45 115.675,793.45 Q115.4016,793.45 115.2266,793.3297 Q115.0516,793.2094 114.975,792.8922 Q114.9422,792.6734 114.8219,792.5531 Q114.6031,792.3234 114.2094,792.1922 Q113.8156,792.05 113.4219,792.05 Q112.9297,792.05 112.5141,792.2469 Q112.1094,792.4437 111.7922,792.8812 Q111.475,793.3187 111.475,793.9203 L111.475,794.5656 Q111.475,795.2875 112.0656,795.7688 Q112.6562,796.25 113.7063,796.25 Q114.3297,796.25 114.7672,796.1078 Q115.0188,796.0313 115.3031,795.7797 Q115.4891,795.6375 115.5875,795.5938 Q115.6859,795.55 115.8062,795.55 Q116.0359,795.55 116.2,795.7359 Q116.375,795.9109 116.375,796.1625 Q116.375,796.4031 116.1344,796.6875 Q115.7844,797.1031 115.2266,797.3328 Q114.4937,797.65 113.5969,797.65 Q112.5469,797.65 111.7047,797.2344 Q111.0266,796.9063 110.5453,796.1953 Q110.075,795.4844 110.075,794.6422 L110.075,793.8766 Q110.075,793.0016 110.4906,792.2359 Q110.9172,791.4703 111.65,791.0656 Q112.3938,790.65 113.225,790.65 Q113.7281,790.65 114.1656,790.825 Q114.6031,791 114.975,791.35 Z " fill="#000000"/><text fill="#000000" font-family="sans-serif" font-size="8.4" lengthAdjust="spacing" textLength="58.1" x="127.925" y="797.2371">BarcodeCreate</text><line style="stroke:#A80036;stroke-width:1.0499999999999998;" x1="43.05" x2="248.15" y1="805" y2="805"/><rect fill="none" height="4.2" style="stroke:#C82930;stroke-width:0.7;" width="4.2" x="47.95" y="810.6"/><text fill="#000000" font-family="sans-serif" font-size="7.7" lengthAdjust="spacing" textLength="28" x="56.35" y="815.7933">barcode</text><rect fill="none" height="4.2" style="stroke:#C82930;stroke-width:0.7;" width="4.2" x="47.95" y="820.2852"/><text fill="#000000" font-family="sans-serif" font-size="7.7" lengthAdjust="spacing" textLength="53.9" x="56.35" y="825.4784">barcodeNumber</text><line style="stroke:#A80036;stroke-width:1.0499999999999998;" x1="43.05" x2="248.15" y1="829.9703" y2="829.9703"/><ellipse cx="50.05" cy="837.6703" fill="#84BE84" rx="2.1" ry="2.1" style="stroke:#038048;stroke-width:0.7;"/><text fill="#000000" font-family="sans-serif" font-size="7.7" lengthAdjust="spacing" textLength="188.3" x="56.35" y="840.7636">BarcodeCreate(Object barcode, String barcodeNumber)</text><!--MD5=[b07fc2b2aa91da2436cc249a96980d64]
link RecordSampleUI to RecordSampleController--><path codeLine="23" d="M377.811,63.063 C342.335,79.352 286.839,104.839 243.852,124.572 " fill="none" id="RecordSampleUI-to-RecordSampleController" style="stroke:#A80036;stroke-width:0.7;stroke-dasharray:7.0,7.0;"/><polygon fill="#A80036" points="240.52,126.105,247.4138,126.0292,243.7025,124.6484,245.0833,120.9372,240.52,126.105" style="stroke:#A80036;stroke-width:0.7;"/><!--MD5=[ccf558741c2fb5a5f538be9d3a954f59]
link RecordSampleController to Company--><path codeLine="24" d="M208.929,185.563 C217.161,194.775 226.198,204.89 234.5,214.2 C242.599,223.286 251.426,233.205 259.392,242.165 " fill="none" id="RecordSampleController-to-Company" style="stroke:#A80036;stroke-width:0.7;stroke-dasharray:7.0,7.0;"/><polygon fill="#A80036" points="261.835,244.916,259.7282,238.3516,259.5041,242.305,255.5507,242.081,261.835,244.916" style="stroke:#A80036;stroke-width:0.7;"/><!--MD5=[46ce183c027ced3c8d5e339377570598]
link RecordSampleController to Sample--><path codeLine="25" d="M122.08,167.559 C70.595,182.637 4.2,213.255 4.2,270.9 C4.2,270.9 4.2,270.9 4.2,550.55 C4.2,663.46 130.844,612.871 231,665 C234.381,666.757 237.86,668.591 241.367,670.439 " fill="none" id="RecordSampleController-to-Sample" style="stroke:#A80036;stroke-width:0.7;stroke-dasharray:7.0,7.0;"/><polygon fill="#A80036" points="244.587,672.147,240.3349,666.7203,241.4954,670.5062,237.7095,671.6668,244.587,672.147" style="stroke:#A80036;stroke-width:0.7;"/><!--MD5=[aa7c76cfa0b9d80d0d0bfbab322591d0]
link RecordSampleController to TestMapper--><path codeLine="26" d="M240.534,169.547 C270.956,179.06 307.517,193.557 336,214.2 C348.026,222.915 358.715,235.508 366.772,246.617 " fill="none" id="RecordSampleController-to-TestMapper" style="stroke:#A80036;stroke-width:0.7;stroke-dasharray:7.0,7.0;"/><polygon fill="#A80036" points="368.97,249.704,367.5956,242.9482,366.9395,246.8532,363.0344,246.1971,368.97,249.704" style="stroke:#A80036;stroke-width:0.7;"/><!--MD5=[a7cbd6ea75f3dbf8a10370ef60b1951f]
link RecordSampleController to SampleDTO--><path codeLine="27" d="M122.087,174.979 C107.576,182.91 93.807,193.627 85.4,207.9 C56.609,256.795 79.513,325.199 96.957,363.699 " fill="none" id="RecordSampleController-to-SampleDTO" style="stroke:#A80036;stroke-width:0.7;stroke-dasharray:7.0,7.0;"/><polygon fill="#A80036" points="98.518,367.101,98.434,360.2073,97.0576,363.9202,93.3447,362.5439,98.518,367.101" style="stroke:#A80036;stroke-width:0.7;"/><!--MD5=[e5a9667c400772c28cc59b9168c63c65]
link RecordSampleController to SampleMapper--><path codeLine="28" d="M181.3,185.535 C181.3,204.491 181.3,228.459 181.3,246.169 " fill="none" id="RecordSampleController-to-SampleMapper" style="stroke:#A80036;stroke-width:0.7;stroke-dasharray:7.0,7.0;"/><polygon fill="#A80036" points="181.3,249.844,184.1,243.544,181.3,246.344,178.5,243.544,181.3,249.844" style="stroke:#A80036;stroke-width:0.7;"/><!--MD5=[5bb931d09ab0aebfaada3d823529a93c]
link RecordSampleController to TestStore--><path codeLine="29" d="M146.503,185.78 C139.286,194.215 132.699,203.889 128.8,214.2 C115.598,249.123 111.195,265.279 128.8,298.2 C146.587,331.45 181.748,355.068 212.646,370.419 " fill="none" id="RecordSampleController-to-TestStore" style="stroke:#A80036;stroke-width:0.7;stroke-dasharray:7.0,7.0;"/><polygon fill="#A80036" points="215.817,371.973,211.3936,366.6849,212.6746,370.4318,208.9277,371.7128,215.817,371.973" style="stroke:#A80036;stroke-width:0.7;"/><!--MD5=[6d89e5da8e6b6c740cd48cd2120910ce]
link RecordSampleUI to TestDTO--><path codeLine="31" d="M416.997,63.294 C426.216,103.712 446.803,211.176 428.4,298.2 C424.711,315.637 417.599,333.767 410.263,349.447 " fill="none" id="RecordSampleUI-to-TestDTO" style="stroke:#A80036;stroke-width:0.7;stroke-dasharray:7.0,7.0;"/><polygon fill="#A80036" points="408.695,352.758,413.9261,348.2674,410.1959,349.5961,408.8671,345.8659,408.695,352.758" style="stroke:#A80036;stroke-width:0.7;"/><!--MD5=[b72ac8ab7fb5921fceb5036a3902baea]
link Test to Sample--><path codeLine="45" d="M315.539,610.47 C310.016,627.83 304.178,646.198 299.334,661.423 " fill="none" id="Test-to-Sample" style="stroke:#A80036;stroke-width:0.7;"/><polygon fill="#A80036" points="298.256,664.818,302.835,659.6641,299.3176,661.4829,297.4988,657.9655,298.256,664.818" style="stroke:#A80036;stroke-width:0.7;"/><text fill="#000000" font-family="sans-serif" font-size="9.1" lengthAdjust="spacing" textLength="14.7" x="309.4" y="641.5466">has</text><text fill="#000000" font-family="sans-serif" font-size="9.1" lengthAdjust="spacing" textLength="4.9" x="308.9248" y="625.2166">1</text><text fill="#000000" font-family="sans-serif" font-size="9.1" lengthAdjust="spacing" textLength="3.5" x="295.9972" y="657.401">*</text><!--MD5=[7f6cf7f175eae0af66201860de5de971]
link Company to TestStore--><path codeLine="47" d="M281.897,298.207 C279.489,318.948 276.136,347.858 273.77,368.298 " fill="none" id="Company-to-TestStore" style="stroke:#A80036;stroke-width:0.7;"/><polygon fill="#A80036" points="273.336,372.008,276.8539,366.0789,273.7455,368.532,271.2924,365.4237,273.336,372.008" style="stroke:#A80036;stroke-width:0.7;"/><text fill="#000000" font-family="sans-serif" font-size="9.1" lengthAdjust="spacing" textLength="14.7" x="279.3" y="329.3466">has</text><text fill="#000000" font-family="sans-serif" font-size="9.1" lengthAdjust="spacing" textLength="4.9" x="276.0938" y="313.0273">1</text><text fill="#000000" font-family="sans-serif" font-size="9.1" lengthAdjust="spacing" textLength="4.9" x="268.4329" y="364.313">1</text><!--MD5=[f6fda4afaf882dd39139bcbf06c50c8c]
link TestMapper to TestDTO--><path codeLine="51" d="M382.935,293.335 C383.467,308.728 384.216,330.162 384.874,349.216 " fill="none" id="TestMapper-to-TestDTO" style="stroke:#A80036;stroke-width:0.7;stroke-dasharray:7.0,7.0;"/><polygon fill="#A80036" points="385,352.751,387.5825,346.3588,384.8801,349.2531,381.9858,346.5506,385,352.751" style="stroke:#A80036;stroke-width:0.7;"/><!--MD5=[be3b39c7463182027323f9c0e531e936]
link TestDTO to Test--><path codeLine="52" d="M372.855,434.896 C367.661,450.422 361.592,468.538 355.845,485.709 " fill="none" id="TestDTO-to-Test" style="stroke:#A80036;stroke-width:0.7;stroke-dasharray:7.0,7.0;"/><polygon fill="#A80036" points="354.697,489.132,359.3501,484.0449,355.8068,485.8126,354.0391,482.2693,354.697,489.132" style="stroke:#A80036;stroke-width:0.7;"/><!--MD5=[b0f4f6db8206580012ef9cd998ed01c5]
link TestStore to Test--><path codeLine="55" d="M279.622,415.639 C287.091,433.769 298.242,460.845 308.546,485.884 " fill="none" id="TestStore-to-Test" style="stroke:#A80036;stroke-width:0.7;"/><polygon fill="#A80036" points="309.932,489.237,310.1042,482.3449,308.5908,486.0042,304.9316,484.4908,309.932,489.237" style="stroke:#A80036;stroke-width:0.7;"/><text fill="#000000" font-family="sans-serif" font-size="9.1" lengthAdjust="spacing" textLength="16.1" x="301" y="465.8466">Has</text><text fill="#000000" font-family="sans-serif" font-size="9.1" lengthAdjust="spacing" textLength="4.9" x="275.9176" y="430.3601">1</text><text fill="#000000" font-family="sans-serif" font-size="9.1" lengthAdjust="spacing" textLength="3.5" x="304.0791" y="481.6123">*</text><!--MD5=[081a105d9ba373b8c9f4c038e84d1e03]
link SampleMapper to SampleDTO--><path codeLine="56" d="M169.232,293.335 C158.032,312.844 141.253,342.076 128.758,363.846 " fill="none" id="SampleMapper-to-SampleDTO" style="stroke:#A80036;stroke-width:0.7;stroke-dasharray:7.0,7.0;"/><polygon fill="#A80036" points="126.952,367.003,132.5174,362.9341,128.695,363.9679,127.6612,360.1454,126.952,367.003" style="stroke:#A80036;stroke-width:0.7;"/><!--MD5=[c88f814ecc8e75286b0c0023c0833471]
link TestMapper to TestStore--><path codeLine="59" d="M362.81,293.335 C343.301,314.503 313.257,347.095 292.873,369.208 " fill="none" id="TestMapper-to-TestStore" style="stroke:#A80036;stroke-width:0.7;stroke-dasharray:7.0,7.0;"/><polygon fill="#A80036" points="290.437,371.854,296.761,369.1086,292.8047,369.2765,292.6369,365.3202,290.437,371.854" style="stroke:#A80036;stroke-width:0.7;"/><!--MD5=[7ae31b06ecb5db678e40497ee74dd179]
link Test to LabOrder--><path codeLine="61" d="M355.971,610.47 C362.866,629.804 370.202,650.377 375.942,666.477 " fill="none" id="Test-to-LabOrder" style="stroke:#A80036;stroke-width:0.7;"/><polygon fill="#A80036" points="377.139,669.844,377.6662,662.97,375.9663,666.5463,372.3899,664.8464,377.139,669.844" style="stroke:#A80036;stroke-width:0.7;"/><text fill="#000000" font-family="sans-serif" font-size="9.1" lengthAdjust="spacing" textLength="14.7" x="366.8" y="641.5466">has</text><text fill="#000000" font-family="sans-serif" font-size="9.1" lengthAdjust="spacing" textLength="4.9" x="352.5788" y="625.2166">1</text><text fill="#000000" font-family="sans-serif" font-size="9.1" lengthAdjust="spacing" textLength="4.9" x="370.153" y="662.3874">1</text><!--MD5=[3f5983f8009cc11d6ffa7fbef99c5461]
link SampleMapper to TestStore--><path codeLine="70" d="M196.91,293.335 C212.548,314.412 236.607,346.829 253.008,368.942 " fill="none" id="SampleMapper-to-TestStore" style="stroke:#A80036;stroke-width:0.7;stroke-dasharray:7.0,7.0;"/><polygon fill="#A80036" points="255.171,371.854,253.6579,365.1279,253.0822,369.0456,249.1645,368.47,255.171,371.854" style="stroke:#A80036;stroke-width:0.7;"/><!--MD5=[7116ba69743c09e9de143a23f3e84625]
link Sample to ApiBarcode--><path codeLine="72" d="M303.443,728.035 C312.774,747.152 324.583,771.358 333.249,789.11 " fill="none" id="Sample-to-ApiBarcode" style="stroke:#A80036;stroke-width:0.7;"/><polygon fill="#A80036" points="334.824,792.344,334.5638,785.4547,333.2828,789.2016,329.5359,787.9206,334.824,792.344" style="stroke:#A80036;stroke-width:0.7;"/><text fill="#000000" font-family="sans-serif" font-size="9.1" lengthAdjust="spacing" textLength="54.6" x="318.5" y="759.1466">makes use of</text><text fill="#000000" font-family="sans-serif" font-size="9.1" lengthAdjust="spacing" textLength="3.5" x="301.8123" y="742.7452">*</text><text fill="#000000" font-family="sans-serif" font-size="9.1" lengthAdjust="spacing" textLength="4.9" x="327.1402" y="784.6459">1</text><!--MD5=[9191d7b7e5c5d78bd11b44e3739e6984]
link BarcodeAdapter to ApiBarcode--><path codeLine="74" d="M182.875,718.242 C217.616,738.619 270.158,769.44 305.963,790.44 " fill="none" id="BarcodeAdapter-to-ApiBarcode" style="stroke:#A80036;stroke-width:0.7;stroke-dasharray:7.0,7.0;"/><polygon fill="#A80036" points="309.155,792.316,305.1355,786.7148,306.1354,790.5462,302.3039,791.5461,309.155,792.316" style="stroke:#A80036;stroke-width:0.7;"/><!--MD5=[a2c13215787d2b0b04028d3ce7cea70e]
link BarcodeAdapter to BarcodeCreate--><path codeLine="76" d="M146.748,718.242 C146.545,735.112 146.251,759.136 146.02,778.827 " fill="none" id="BarcodeAdapter-to-BarcodeCreate" style="stroke:#A80036;stroke-width:0.7;"/><polygon fill="#A80036" points="145.971,782.446,148.8428,776.1784,146.011,778.9462,143.2432,776.1144,145.971,782.446" style="stroke:#A80036;stroke-width:0.7;"/><!--MD5=[6d3a53472002024511d608c138674dff]
@startuml
package "UI" {
  Class RecordSampleUI
}
package "Controllers" {
 Class RecordSampleController
}
package "Domain" {
 Class Company
Class Sample
Class TestMapper
Class SampleDTO
Class SampleMapper
Class TestStore
Class Test
Class TestDTO
Class LabOrder
Interface ApiBarcode
Class BarcodeAdapter
Class BarcodeCreate
}


RecordSampleUI ..> RecordSampleController
RecordSampleController..>Company
RecordSampleController..>Sample
RecordSampleController..>TestMapper
RecordSampleController..>SampleDTO
RecordSampleController..>SampleMapper
RecordSampleController..>TestStore

RecordSampleUI ..> TestDTO








RecordSampleController : +RecordNewSample(dto)
RecordSampleController : +saveNewSample()
RecordSampleController : +getTest()


Test"1" - ->"*" Sample: has

Company"1" - ->"1" TestStore :has

TestStore : +getTestByTestTypeCode(testid)

TestMapper ..> TestDTO
TestDTO..> Test


TestStore"1" - ->"*"Test : Has
SampleMapper ..> SampleDTO


TestMapper ..> TestStore

Test "1" - -> "1" LabOrder : has
LabOrder : -testType
LabOrder : -parameters


TestMapper : +toDTO(tests)

SampleMapper : +toModel()

SampleMapper ..> TestStore

Sample"*" - ->"1"ApiBarcode : makes use of

BarcodeAdapter  ..> ApiBarcode

BarcodeAdapter - -> BarcodeCreate


ApiBarcode : +BarcodeCreate makeUPCABarcode()

BarcodeAdapter : +BarcodeCreate makeUPCABarcode()

BarcodeCreate : +BarcodeCreate(Object barcode, String barcodeNumber)
BarcodeCreate : -barcode
BarcodeCreate : -barcodeNumber


Company : +getTestStore()
Company : +getSampleStore()

Test : +RecordNewSample(tdo)
Test : +validateNewSample(samp)
Test : +saveNewSample(samp)
Test : +addNewSample(samp)
Test : -LabOrder
Test : -Sample
Test : -code
Test : -client
Test : -nhscode


TestDTO : -LabOrder
TestDTO : -Sample
TestDTO : -code
TestDTO : -client
TestDTO : -nhscode

SampleDTO : +getOrderid()



SampleDTO : -orderid


Sample : +Sample()
Sample : +getBarcodecreator()
Sample : -barcode
@enduml

PlantUML version 1.2021.00(Sun Jan 10 10:25:05 GMT 2021)
(GPL source distribution)
Java Runtime: OpenJDK Runtime Environment
JVM: OpenJDK 64-Bit Server VM
Default Encoding: Cp1252
Language: pt
Country: PT
--></g></svg>