<?xml version="1.0" encoding="UTF-8" standalone="no"?><svg xmlns="http://www.w3.org/2000/svg" xmlns:xlink="http://www.w3.org/1999/xlink" contentScriptType="application/ecmascript" contentStyleType="text/css" height="236.6px" preserveAspectRatio="none" style="width:693px;height:236px;" version="1.1" viewBox="0 0 693 236" width="693.7px" zoomAndPan="magnify"><defs><filter height="300%" id="f13p3as9vvpcou" width="300%" x="-1" y="-1"><feGaussianBlur result="blurOut" stdDeviation="1.4"/><feColorMatrix in="blurOut" result="blurOut2" type="matrix" values="0 0 0 0 0 0 0 0 0 0 0 0 0 0 0 0 0 0 .4 0"/><feOffset dx="2.8" dy="2.8" in="blurOut2" result="blurOut3"/><feBlend in="SourceGraphic" in2="blurOut3" mode="normal"/></filter></defs><g><!--MD5=[02e4b9b7573f1156f41e60aa5b4e25a4]
class Company--><rect codeLine="6" fill="#FEFECE" filter="url(#f13p3as9vvpcou)" height="37.6852" id="Company" style="stroke:#A80036;stroke-width:1.0499999999999998;" width="59.5" x="4.9" y="95.55"/><ellipse cx="15.4" cy="106.75" fill="#ADD1B2" rx="7.7" ry="7.7" style="stroke:#A80036;stroke-width:0.7;"/><path d="M16.8,104.3 Q16.9422,103.95 17.1063,103.775 Q17.2703,103.6 17.4562,103.6 Q17.7844,103.6 17.9922,103.7969 Q18.2,103.9937 18.2,104.4531 L18.2,105.5469 Q18.2,106.0063 18.0031,106.2031 Q17.8063,106.4 17.5,106.4 Q17.2266,106.4 17.0516,106.2797 Q16.8766,106.1594 16.8,105.8422 Q16.7672,105.6234 16.6469,105.5031 Q16.4281,105.2734 16.0344,105.1422 Q15.6406,105 15.2469,105 Q14.7547,105 14.3391,105.1969 Q13.9344,105.3938 13.6172,105.8313 Q13.3,106.2688 13.3,106.8703 L13.3,107.5156 Q13.3,108.2375 13.8906,108.7188 Q14.4813,109.2 15.5312,109.2 Q16.1547,109.2 16.5922,109.0578 Q16.8438,108.9812 17.1281,108.7297 Q17.3141,108.5875 17.4125,108.5437 Q17.5109,108.5 17.6312,108.5 Q17.8609,108.5 18.025,108.6859 Q18.2,108.8609 18.2,109.1125 Q18.2,109.3531 17.9594,109.6375 Q17.6094,110.0531 17.0516,110.2828 Q16.3187,110.6 15.4219,110.6 Q14.3719,110.6 13.5297,110.1844 Q12.8516,109.8562 12.3703,109.1453 Q11.9,108.4344 11.9,107.5922 L11.9,106.8266 Q11.9,105.9516 12.3156,105.1859 Q12.7422,104.4203 13.475,104.0156 Q14.2187,103.6 15.05,103.6 Q15.5531,103.6 15.9906,103.775 Q16.4281,103.95 16.8,104.3 Z " fill="#000000"/><text fill="#000000" font-family="sans-serif" font-size="8.4" lengthAdjust="spacing" textLength="37.1" x="25.2" y="110.1871">Company</text><line style="stroke:#A80036;stroke-width:1.0499999999999998;" x1="5.6" x2="63.7" y1="117.95" y2="117.95"/><text fill="#000000" font-family="sans-serif" font-size="7.7" lengthAdjust="spacing" textLength="41.3" x="9.1" y="128.7433">-designation</text><!--MD5=[7421f545a0d8420c5bec41e74b387d9c]
class Employee--><rect codeLine="10" fill="#FEFECE" filter="url(#f13p3as9vvpcou)" height="86.1109" id="Employee" style="stroke:#A80036;stroke-width:1.0499999999999998;" width="60.9" x="436.1" y="4.9"/><ellipse cx="446.6" cy="16.1" fill="#ADD1B2" rx="7.7" ry="7.7" style="stroke:#A80036;stroke-width:0.7;"/><path d="M448,13.65 Q448.1422,13.3 448.3063,13.125 Q448.4703,12.95 448.6562,12.95 Q448.9844,12.95 449.1922,13.1469 Q449.4,13.3438 449.4,13.8031 L449.4,14.8969 Q449.4,15.3563 449.2031,15.5531 Q449.0062,15.75 448.7,15.75 Q448.4266,15.75 448.2516,15.6297 Q448.0766,15.5094 448,15.1922 Q447.9672,14.9734 447.8469,14.8531 Q447.6281,14.6234 447.2344,14.4922 Q446.8406,14.35 446.4469,14.35 Q445.9547,14.35 445.5391,14.5469 Q445.1344,14.7437 444.8172,15.1812 Q444.5,15.6187 444.5,16.2203 L444.5,16.8656 Q444.5,17.5875 445.0906,18.0687 Q445.6813,18.55 446.7313,18.55 Q447.3547,18.55 447.7922,18.4078 Q448.0438,18.3312 448.3281,18.0797 Q448.5141,17.9375 448.6125,17.8937 Q448.7109,17.85 448.8312,17.85 Q449.0609,17.85 449.225,18.0359 Q449.4,18.2109 449.4,18.4625 Q449.4,18.7031 449.1594,18.9875 Q448.8094,19.4031 448.2516,19.6328 Q447.5187,19.95 446.6219,19.95 Q445.5719,19.95 444.7297,19.5344 Q444.0516,19.2062 443.5703,18.4953 Q443.1,17.7844 443.1,16.9422 L443.1,16.1766 Q443.1,15.3016 443.5156,14.5359 Q443.9422,13.7703 444.675,13.3656 Q445.4188,12.95 446.25,12.95 Q446.7531,12.95 447.1906,13.125 Q447.6281,13.3 448,13.65 Z " fill="#000000"/><text fill="#000000" font-family="sans-serif" font-size="8.4" lengthAdjust="spacing" textLength="38.5" x="456.4" y="19.5371">Employee</text><line style="stroke:#A80036;stroke-width:1.0499999999999998;" x1="436.8" x2="496.3" y1="27.3" y2="27.3"/><text fill="#000000" font-family="sans-serif" font-size="7.7" lengthAdjust="spacing" textLength="40.6" x="440.3" y="38.0933">-employeeId</text><text fill="#000000" font-family="sans-serif" font-size="7.7" lengthAdjust="spacing" textLength="21" x="440.3" y="47.7784">-name</text><text fill="#000000" font-family="sans-serif" font-size="7.7" lengthAdjust="spacing" textLength="30.8" x="440.3" y="57.4636">-address</text><text fill="#000000" font-family="sans-serif" font-size="7.7" lengthAdjust="spacing" textLength="49.7" x="440.3" y="67.1487">-phoneNumber</text><text fill="#000000" font-family="sans-serif" font-size="7.7" lengthAdjust="spacing" textLength="19.6" x="440.3" y="76.8339">-email</text><text fill="#000000" font-family="sans-serif" font-size="7.7" lengthAdjust="spacing" textLength="32.9" x="440.3" y="86.519">-socCode</text><!--MD5=[3fd616f346a44cd59a91eb10b19e157c]
class User--><rect codeLine="21" fill="#FEFECE" filter="url(#f13p3as9vvpcou)" height="57.0555" id="User" style="stroke:#A80036;stroke-width:1.0499999999999998;" width="46.2" x="620.2" y="19.25"/><ellipse cx="632.905" cy="30.45" fill="#ADD1B2" rx="7.7" ry="7.7" style="stroke:#A80036;stroke-width:0.7;"/><path d="M634.305,28 Q634.4472,27.65 634.6112,27.475 Q634.7753,27.3 634.9613,27.3 Q635.2894,27.3 635.4972,27.4969 Q635.705,27.6937 635.705,28.1531 L635.705,29.2469 Q635.705,29.7062 635.5081,29.9031 Q635.3113,30.1 635.005,30.1 Q634.7316,30.1 634.5566,29.9797 Q634.3816,29.8594 634.305,29.5422 Q634.2722,29.3234 634.1519,29.2031 Q633.9331,28.9734 633.5394,28.8422 Q633.1456,28.7 632.7519,28.7 Q632.2597,28.7 631.8441,28.8969 Q631.4394,29.0937 631.1222,29.5312 Q630.805,29.9687 630.805,30.5703 L630.805,31.2156 Q630.805,31.9375 631.3956,32.4187 Q631.9862,32.9 633.0363,32.9 Q633.6597,32.9 634.0972,32.7578 Q634.3488,32.6813 634.6331,32.4297 Q634.8191,32.2875 634.9175,32.2438 Q635.0159,32.2 635.1362,32.2 Q635.3659,32.2 635.53,32.3859 Q635.705,32.5609 635.705,32.8125 Q635.705,33.0531 635.4644,33.3375 Q635.1144,33.7531 634.5566,33.9828 Q633.8237,34.3 632.9269,34.3 Q631.8769,34.3 631.0347,33.8844 Q630.3566,33.5563 629.8753,32.8453 Q629.405,32.1344 629.405,31.2922 L629.405,30.5266 Q629.405,29.6516 629.8206,28.8859 Q630.2472,28.1203 630.98,27.7156 Q631.7238,27.3 632.555,27.3 Q633.0581,27.3 633.4956,27.475 Q633.9331,27.65 634.305,28 Z " fill="#000000"/><text fill="#000000" font-family="sans-serif" font-size="8.4" lengthAdjust="spacing" textLength="18.9" x="643.195" y="33.8871">User</text><line style="stroke:#A80036;stroke-width:1.0499999999999998;" x1="620.9" x2="665.7" y1="41.65" y2="41.65"/><text fill="#000000" font-family="sans-serif" font-size="7.7" lengthAdjust="spacing" textLength="21" x="624.4" y="52.4433">-name</text><text fill="#000000" font-family="sans-serif" font-size="7.7" lengthAdjust="spacing" textLength="19.6" x="624.4" y="62.1284">-email</text><text fill="#000000" font-family="sans-serif" font-size="7.7" lengthAdjust="spacing" textLength="37.8" x="624.4" y="71.8136">-password</text><!--MD5=[df38be88ccee13e832d6fafd6288a4ca]
class Test--><rect codeLine="27" fill="#FEFECE" filter="url(#f13p3as9vvpcou)" height="47.3703" id="Test" style="stroke:#A80036;stroke-width:1.0499999999999998;" width="43.4" x="151.2" y="90.65"/><ellipse cx="163.59" cy="101.85" fill="#ADD1B2" rx="7.7" ry="7.7" style="stroke:#A80036;stroke-width:0.7;"/><path d="M164.99,99.4 Q165.1322,99.05 165.2963,98.875 Q165.4603,98.7 165.6462,98.7 Q165.9744,98.7 166.1822,98.8969 Q166.39,99.0938 166.39,99.5531 L166.39,100.6469 Q166.39,101.1062 166.1931,101.3031 Q165.9962,101.5 165.69,101.5 Q165.4166,101.5 165.2416,101.3797 Q165.0666,101.2594 164.99,100.9422 Q164.9572,100.7234 164.8369,100.6031 Q164.6181,100.3734 164.2244,100.2422 Q163.8306,100.1 163.4369,100.1 Q162.9447,100.1 162.5291,100.2969 Q162.1244,100.4937 161.8072,100.9312 Q161.49,101.3687 161.49,101.9703 L161.49,102.6156 Q161.49,103.3375 162.0806,103.8188 Q162.6713,104.3 163.7212,104.3 Q164.3447,104.3 164.7822,104.1578 Q165.0337,104.0813 165.3181,103.8297 Q165.5041,103.6875 165.6025,103.6438 Q165.7009,103.6 165.8213,103.6 Q166.0509,103.6 166.215,103.7859 Q166.39,103.9609 166.39,104.2125 Q166.39,104.4531 166.1494,104.7375 Q165.7994,105.1531 165.2416,105.3828 Q164.5088,105.7 163.6119,105.7 Q162.5619,105.7 161.7197,105.2844 Q161.0416,104.9563 160.5603,104.2453 Q160.09,103.5344 160.09,102.6922 L160.09,101.9266 Q160.09,101.0516 160.5056,100.2859 Q160.9322,99.5203 161.665,99.1156 Q162.4087,98.7 163.24,98.7 Q163.7431,98.7 164.1806,98.875 Q164.6181,99.05 164.99,99.4 Z " fill="#000000"/><text fill="#000000" font-family="sans-serif" font-size="8.4" lengthAdjust="spacing" textLength="16.8" x="173.81" y="105.2871">Test</text><line style="stroke:#A80036;stroke-width:1.0499999999999998;" x1="151.9" x2="193.9" y1="113.05" y2="113.05"/><text fill="#000000" font-family="sans-serif" font-size="7.7" lengthAdjust="spacing" textLength="35" x="155.4" y="123.8433">-LabOrder</text><text fill="#000000" font-family="sans-serif" font-size="7.7" lengthAdjust="spacing" textLength="26.6" x="155.4" y="133.5284">-sample</text><!--MD5=[9681492165142af2a4a3a169d90ee8d4]
class Sample--><rect codeLine="32" fill="#FEFECE" filter="url(#f13p3as9vvpcou)" height="37.6852" id="Sample" style="stroke:#A80036;stroke-width:1.0499999999999998;" width="52.5" x="268.8" y="96.95"/><ellipse cx="279.3" cy="108.15" fill="#ADD1B2" rx="7.7" ry="7.7" style="stroke:#A80036;stroke-width:0.7;"/><path d="M280.7,105.7 Q280.8422,105.35 281.0062,105.175 Q281.1703,105 281.3563,105 Q281.6844,105 281.8922,105.1969 Q282.1,105.3938 282.1,105.8531 L282.1,106.9469 Q282.1,107.4063 281.9031,107.6031 Q281.7062,107.8 281.4,107.8 Q281.1266,107.8 280.9516,107.6797 Q280.7766,107.5594 280.7,107.2422 Q280.6672,107.0234 280.5469,106.9031 Q280.3281,106.6734 279.9344,106.5422 Q279.5406,106.4 279.1469,106.4 Q278.6547,106.4 278.2391,106.5969 Q277.8344,106.7937 277.5172,107.2312 Q277.2,107.6687 277.2,108.2703 L277.2,108.9156 Q277.2,109.6375 277.7906,110.1187 Q278.3812,110.6 279.4313,110.6 Q280.0547,110.6 280.4922,110.4578 Q280.7438,110.3813 281.0281,110.1297 Q281.2141,109.9875 281.3125,109.9438 Q281.4109,109.9 281.5313,109.9 Q281.7609,109.9 281.925,110.0859 Q282.1,110.2609 282.1,110.5125 Q282.1,110.7531 281.8594,111.0375 Q281.5094,111.4531 280.9516,111.6828 Q280.2188,112 279.3219,112 Q278.2719,112 277.4297,111.5844 Q276.7516,111.2563 276.2703,110.5453 Q275.8,109.8344 275.8,108.9922 L275.8,108.2266 Q275.8,107.3516 276.2156,106.5859 Q276.6422,105.8203 277.375,105.4156 Q278.1188,105 278.95,105 Q279.4531,105 279.8906,105.175 Q280.3281,105.35 280.7,105.7 Z " fill="#000000"/><text fill="#000000" font-family="sans-serif" font-size="8.4" lengthAdjust="spacing" textLength="30.1" x="289.1" y="111.5871">Sample</text><line style="stroke:#A80036;stroke-width:1.0499999999999998;" x1="269.5" x2="320.6" y1="119.35" y2="119.35"/><text fill="#000000" font-family="sans-serif" font-size="7.7" lengthAdjust="spacing" textLength="30.8" x="273" y="130.1433">-barcode</text><!--MD5=[aeb3272166074d8737a70b61b1e71682]
class TestType--><rect codeLine="37" fill="#FEFECE" filter="url(#f13p3as9vvpcou)" height="66.7406" id="TestType" style="stroke:#A80036;stroke-width:1.0499999999999998;" width="57.4" x="266.35" y="160.3"/><ellipse cx="276.85" cy="171.5" fill="#ADD1B2" rx="7.7" ry="7.7" style="stroke:#A80036;stroke-width:0.7;"/><path d="M278.25,169.05 Q278.3922,168.7 278.5563,168.525 Q278.7203,168.35 278.9063,168.35 Q279.2344,168.35 279.4422,168.5469 Q279.65,168.7437 279.65,169.2031 L279.65,170.2969 Q279.65,170.7563 279.4531,170.9531 Q279.2562,171.15 278.95,171.15 Q278.6766,171.15 278.5016,171.0297 Q278.3266,170.9094 278.25,170.5922 Q278.2172,170.3734 278.0969,170.2531 Q277.8781,170.0234 277.4844,169.8922 Q277.0906,169.75 276.6969,169.75 Q276.2047,169.75 275.7891,169.9469 Q275.3844,170.1437 275.0672,170.5812 Q274.75,171.0187 274.75,171.6203 L274.75,172.2656 Q274.75,172.9875 275.3406,173.4688 Q275.9313,173.95 276.9813,173.95 Q277.6047,173.95 278.0422,173.8078 Q278.2938,173.7313 278.5781,173.4797 Q278.7641,173.3375 278.8625,173.2938 Q278.9609,173.25 279.0812,173.25 Q279.3109,173.25 279.475,173.4359 Q279.65,173.6109 279.65,173.8625 Q279.65,174.1031 279.4094,174.3875 Q279.0594,174.8031 278.5016,175.0328 Q277.7687,175.35 276.8719,175.35 Q275.8219,175.35 274.9797,174.9344 Q274.3016,174.6063 273.8203,173.8953 Q273.35,173.1844 273.35,172.3422 L273.35,171.5766 Q273.35,170.7016 273.7656,169.9359 Q274.1922,169.1703 274.925,168.7656 Q275.6688,168.35 276.5,168.35 Q277.0031,168.35 277.4406,168.525 Q277.8781,168.7 278.25,169.05 Z " fill="#000000"/><text fill="#000000" font-family="sans-serif" font-size="8.4" lengthAdjust="spacing" textLength="35" x="286.65" y="174.9371">TestType</text><line style="stroke:#A80036;stroke-width:1.0499999999999998;" x1="267.05" x2="323.05" y1="182.7" y2="182.7"/><text fill="#000000" font-family="sans-serif" font-size="7.7" lengthAdjust="spacing" textLength="41.3" x="270.55" y="193.4933">-designation</text><text fill="#000000" font-family="sans-serif" font-size="7.7" lengthAdjust="spacing" textLength="39.9" x="270.55" y="203.1784">-description</text><text fill="#000000" font-family="sans-serif" font-size="7.7" lengthAdjust="spacing" textLength="44.8" x="270.55" y="212.8636">-internalCode</text><text fill="#000000" font-family="sans-serif" font-size="7.7" lengthAdjust="spacing" textLength="32.9" x="270.55" y="222.5487">-nhsCode</text><!--MD5=[a999c1570c205a2156b04a15307bc1ff]
class LabOrder--><rect codeLine="43" fill="#FEFECE" filter="url(#f13p3as9vvpcou)" height="47.3703" id="LabOrder" style="stroke:#A80036;stroke-width:1.0499999999999998;" width="58.8" x="5.25" y="164.85"/><ellipse cx="15.75" cy="176.05" fill="#ADD1B2" rx="7.7" ry="7.7" style="stroke:#A80036;stroke-width:0.7;"/><path d="M17.15,173.6 Q17.2922,173.25 17.4562,173.075 Q17.6203,172.9 17.8063,172.9 Q18.1344,172.9 18.3422,173.0969 Q18.55,173.2938 18.55,173.7531 L18.55,174.8469 Q18.55,175.3062 18.3531,175.5031 Q18.1563,175.7 17.85,175.7 Q17.5766,175.7 17.4016,175.5797 Q17.2266,175.4594 17.15,175.1422 Q17.1172,174.9234 16.9969,174.8031 Q16.7781,174.5734 16.3844,174.4422 Q15.9906,174.3 15.5969,174.3 Q15.1047,174.3 14.6891,174.4969 Q14.2844,174.6938 13.9672,175.1313 Q13.65,175.5688 13.65,176.1703 L13.65,176.8156 Q13.65,177.5375 14.2406,178.0187 Q14.8312,178.5 15.8813,178.5 Q16.5047,178.5 16.9422,178.3578 Q17.1937,178.2813 17.4781,178.0297 Q17.6641,177.8875 17.7625,177.8438 Q17.8609,177.8 17.9813,177.8 Q18.2109,177.8 18.375,177.9859 Q18.55,178.1609 18.55,178.4125 Q18.55,178.6531 18.3094,178.9375 Q17.9594,179.3531 17.4016,179.5828 Q16.6688,179.9 15.7719,179.9 Q14.7219,179.9 13.8797,179.4844 Q13.2016,179.1563 12.7203,178.4453 Q12.25,177.7344 12.25,176.8922 L12.25,176.1266 Q12.25,175.2516 12.6656,174.4859 Q13.0922,173.7203 13.825,173.3156 Q14.5688,172.9 15.4,172.9 Q15.9031,172.9 16.3406,173.075 Q16.7781,173.25 17.15,173.6 Z " fill="#000000"/><text fill="#000000" font-family="sans-serif" font-size="8.4" lengthAdjust="spacing" textLength="36.4" x="25.55" y="179.4871">LabOrder</text><line style="stroke:#A80036;stroke-width:1.0499999999999998;" x1="5.95" x2="63.35" y1="187.25" y2="187.25"/><text fill="#000000" font-family="sans-serif" font-size="7.7" lengthAdjust="spacing" textLength="32.2" x="9.45" y="198.0433">-testType</text><text fill="#000000" font-family="sans-serif" font-size="7.7" lengthAdjust="spacing" textLength="41.3" x="9.45" y="207.7284">-Parameters</text><!--MD5=[e59bda2572a266093cda22ac34510ea0]
class Barcode--><rect codeLine="47" fill="#FEFECE" filter="url(#f13p3as9vvpcou)" height="37.6852" id="Barcode" style="stroke:#A80036;stroke-width:1.0499999999999998;" width="54.6" x="439.25" y="115.85"/><ellipse cx="449.75" cy="127.05" fill="#ADD1B2" rx="7.7" ry="7.7" style="stroke:#A80036;stroke-width:0.7;"/><path d="M451.15,124.6 Q451.2922,124.25 451.4562,124.075 Q451.6203,123.9 451.8063,123.9 Q452.1344,123.9 452.3422,124.0969 Q452.55,124.2937 452.55,124.7531 L452.55,125.8469 Q452.55,126.3062 452.3531,126.5031 Q452.1562,126.7 451.85,126.7 Q451.5766,126.7 451.4016,126.5797 Q451.2266,126.4594 451.15,126.1422 Q451.1172,125.9234 450.9969,125.8031 Q450.7781,125.5734 450.3844,125.4422 Q449.9906,125.3 449.5969,125.3 Q449.1047,125.3 448.6891,125.4969 Q448.2844,125.6938 447.9672,126.1313 Q447.65,126.5688 447.65,127.1703 L447.65,127.8156 Q447.65,128.5375 448.2406,129.0187 Q448.8312,129.5 449.8812,129.5 Q450.5047,129.5 450.9422,129.3578 Q451.1937,129.2813 451.4781,129.0297 Q451.6641,128.8875 451.7625,128.8438 Q451.8609,128.8 451.9813,128.8 Q452.2109,128.8 452.375,128.9859 Q452.55,129.1609 452.55,129.4125 Q452.55,129.6531 452.3094,129.9375 Q451.9594,130.3531 451.4016,130.5828 Q450.6688,130.9 449.7719,130.9 Q448.7219,130.9 447.8797,130.4844 Q447.2016,130.1563 446.7203,129.4453 Q446.25,128.7344 446.25,127.8922 L446.25,127.1266 Q446.25,126.2516 446.6656,125.4859 Q447.0922,124.7203 447.825,124.3156 Q448.5687,123.9 449.4,123.9 Q449.9031,123.9 450.3406,124.075 Q450.7781,124.25 451.15,124.6 Z " fill="#000000"/><text fill="#000000" font-family="sans-serif" font-size="8.4" lengthAdjust="spacing" textLength="32.2" x="459.55" y="130.4871">Barcode</text><line style="stroke:#A80036;stroke-width:1.0499999999999998;" x1="439.95" x2="493.15" y1="138.25" y2="138.25"/><text fill="#000000" font-family="sans-serif" font-size="7.7" lengthAdjust="spacing" textLength="32.9" x="443.45" y="149.0433">-upcCode</text><!--MD5=[8f188b89eff49accb0f38c057b38a9f2]
class ExternalModule--><rect fill="#FEFECE" filter="url(#f13p3as9vvpcou)" height="28" id="ExternalModule" style="stroke:#A80036;stroke-width:1.0499999999999998;" width="81.2" x="602.7" y="120.75"/><ellipse cx="613.2" cy="131.95" fill="#ADD1B2" rx="7.7" ry="7.7" style="stroke:#A80036;stroke-width:0.7;"/><path d="M614.6,129.5 Q614.7422,129.15 614.9063,128.975 Q615.0703,128.8 615.2562,128.8 Q615.5844,128.8 615.7922,128.9969 Q616,129.1938 616,129.6531 L616,130.7469 Q616,131.2062 615.8031,131.4031 Q615.6062,131.6 615.3,131.6 Q615.0266,131.6 614.8516,131.4797 Q614.6766,131.3594 614.6,131.0422 Q614.5672,130.8234 614.4469,130.7031 Q614.2281,130.4734 613.8344,130.3422 Q613.4406,130.2 613.0469,130.2 Q612.5547,130.2 612.1391,130.3969 Q611.7344,130.5938 611.4172,131.0313 Q611.1,131.4688 611.1,132.0703 L611.1,132.7156 Q611.1,133.4375 611.6906,133.9188 Q612.2813,134.4 613.3313,134.4 Q613.9547,134.4 614.3922,134.2578 Q614.6438,134.1813 614.9281,133.9297 Q615.1141,133.7875 615.2125,133.7438 Q615.3109,133.7 615.4313,133.7 Q615.6609,133.7 615.825,133.8859 Q616,134.0609 616,134.3125 Q616,134.5531 615.7594,134.8375 Q615.4094,135.2531 614.8516,135.4828 Q614.1188,135.8 613.2219,135.8 Q612.1719,135.8 611.3297,135.3844 Q610.6516,135.0562 610.1703,134.3453 Q609.7,133.6344 609.7,132.7922 L609.7,132.0266 Q609.7,131.1516 610.1156,130.3859 Q610.5422,129.6203 611.275,129.2156 Q612.0188,128.8 612.85,128.8 Q613.3531,128.8 613.7906,128.975 Q614.2281,129.15 614.6,129.5 Z " fill="#000000"/><text fill="#000000" font-family="sans-serif" font-size="8.4" lengthAdjust="spacing" textLength="58.8" x="623" y="135.3871">ExternalModule</text><line style="stroke:#A80036;stroke-width:1.0499999999999998;" x1="603.4" x2="683.2" y1="143.15" y2="143.15"/><!--MD5=[7e4bc624457760b649895ff2ead938fa]
link Company to Test--><path codeLine="51" d="M64.708,114.45 C90.706,114.45 128.016,114.45 151.144,114.45 " fill="none" id="Company-Test" style="stroke:#A80036;stroke-width:0.7;"/><text fill="#000000" font-family="sans-serif" font-size="9.1" lengthAdjust="spacing" textLength="25.2" x="95.2" y="111.9966">does&gt;</text><text fill="#000000" font-family="sans-serif" font-size="9.1" lengthAdjust="spacing" textLength="4.9" x="70.0921" y="124.854">1</text><text fill="#000000" font-family="sans-serif" font-size="9.1" lengthAdjust="spacing" textLength="3.5" x="142.2082" y="125.2466">*</text><!--MD5=[b72ac8ab7fb5921fceb5036a3902baea]
link Test to Sample--><path codeLine="52" d="M194.635,114.695 C215.243,114.933 246.68,115.297 268.737,115.556 " fill="none" id="Test-Sample" style="stroke:#A80036;stroke-width:0.7;"/><text fill="#000000" font-family="sans-serif" font-size="9.1" lengthAdjust="spacing" textLength="20.3" x="217.35" y="112.6966">has&gt;</text><text fill="#000000" font-family="sans-serif" font-size="9.1" lengthAdjust="spacing" textLength="4.9" x="200.2278" y="125.5483">1</text><text fill="#000000" font-family="sans-serif" font-size="9.1" lengthAdjust="spacing" textLength="4.9" x="258.3541" y="126.0484">1</text><!--MD5=[2fe054cd67471b8fea8c71114980d435]
link Test to Employee--><path codeLine="53" d="M194.775,105.042 C201.383,102.27 208.733,99.337 215.6,96.95 C274.043,76.636 289.835,74.473 350.7,63.35 C379.47,58.093 412.587,53.851 435.904,51.163 " fill="none" id="Test-Employee" style="stroke:#A80036;stroke-width:0.7;"/><text fill="#000000" font-family="sans-serif" font-size="9.1" lengthAdjust="spacing" textLength="67.9" x="261.1" y="65.0966">is performed by&gt;</text><text fill="#000000" font-family="sans-serif" font-size="9.1" lengthAdjust="spacing" textLength="3.5" x="200.2383" y="113.663">*</text><text fill="#000000" font-family="sans-serif" font-size="9.1" lengthAdjust="spacing" textLength="4.9" x="425.5225" y="62.0887">1</text><!--MD5=[e981d4f96c4342412d1e68160b30cf70]
link Test to TestType--><path codeLine="54" d="M194.635,128.226 C214.501,141.239 244.426,160.846 266.315,175.182 " fill="none" id="Test-TestType" style="stroke:#A80036;stroke-width:0.7;"/><text fill="#000000" font-family="sans-serif" font-size="9.1" lengthAdjust="spacing" textLength="22.4" x="216.3" y="139.2966">is of&gt;</text><text fill="#000000" font-family="sans-serif" font-size="9.1" lengthAdjust="spacing" textLength="4.9" x="200.2278" y="142.2083">1</text><text fill="#000000" font-family="sans-serif" font-size="9.1" lengthAdjust="spacing" textLength="4.9" x="255.8602" y="182.3548">1</text><!--MD5=[22fb9506fac029fc1d2ae00f0eb8d606]
link Employee to User--><path codeLine="55" d="M497.196,47.95 C532.014,47.95 588.714,47.95 620.025,47.95 " fill="none" id="Employee-User" style="stroke:#A80036;stroke-width:0.7;"/><polygon fill="#000000" points="532.7,41.773,526.3684,39.7158,526.3684,43.8303,532.7,41.773" style="stroke:#000000;stroke-width:0.7;"/><text fill="#000000" font-family="sans-serif" font-size="9.1" lengthAdjust="spacing" textLength="37.8" x="535.5" y="45.4966">relates to</text><text fill="#000000" font-family="sans-serif" font-size="9.1" lengthAdjust="spacing" textLength="15.4" x="502.5884" y="58.2006">0..1</text><text fill="#000000" font-family="sans-serif" font-size="9.1" lengthAdjust="spacing" textLength="4.9" x="609.8192" y="58.6125">1</text><!--MD5=[c550c0fb93424651c0337773082e9cc5]
link Sample to Employee--><path codeLine="56" d="M321.321,109.837 C345.947,103.6 383.943,92.792 415.1,78.75 C422.051,75.614 429.226,71.722 435.911,67.767 " fill="none" id="Sample-Employee" style="stroke:#A80036;stroke-width:0.7;"/><text fill="#000000" font-family="sans-serif" font-size="9.1" lengthAdjust="spacing" textLength="63" x="351.4" y="76.2966">is recorded by&gt;</text><text fill="#000000" font-family="sans-serif" font-size="9.1" lengthAdjust="spacing" textLength="3.5" x="326.8376" y="105.8328">*</text><text fill="#000000" font-family="sans-serif" font-size="9.1" lengthAdjust="spacing" textLength="14" x="416.3828" y="80.964">1..*</text><!--MD5=[84a279e28ad6c3248737114c29c49c27]
link LabOrder to Test--><path codeLine="57" d="M64.372,172.914 C90.342,158.83 127.799,138.523 151.039,125.923 " fill="none" id="LabOrder-Test" style="stroke:#A80036;stroke-width:0.7;"/><text fill="#000000" font-family="sans-serif" font-size="9.1" lengthAdjust="spacing" textLength="43.4" x="86.1" y="135.7966">gives rise&gt;</text><text fill="#000000" font-family="sans-serif" font-size="9.1" lengthAdjust="spacing" textLength="4.9" x="69.7005" y="180.7212">1</text><text fill="#000000" font-family="sans-serif" font-size="9.1" lengthAdjust="spacing" textLength="4.9" x="140.821" y="139.1563">1</text><!--MD5=[327391d6abe62f0446af3ffbf41cf7ec]
link Sample to Barcode--><path codeLine="59" d="M321.44,119.679 C330.659,120.995 341.131,122.416 350.7,123.55 C380.919,127.134 415.695,130.396 439.061,132.468 " fill="none" id="Sample-Barcode" style="stroke:#A80036;stroke-width:0.7;"/><text fill="#000000" font-family="sans-serif" font-size="9.1" lengthAdjust="spacing" textLength="20.3" x="372.75" y="121.0966">has&gt;</text><text fill="#000000" font-family="sans-serif" font-size="9.1" lengthAdjust="spacing" textLength="4.9" x="326.9376" y="130.9574">1</text><text fill="#000000" font-family="sans-serif" font-size="9.1" lengthAdjust="spacing" textLength="4.9" x="428.8281" y="142.5377">1</text><!--MD5=[cc5aeedf404d54152ebbf0563b727a0d]
link Barcode to ExternalModule--><path codeLine="61" d="M493.885,134.75 C522.816,134.75 569.359,134.75 602.672,134.75 " fill="none" id="Barcode-ExternalModule" style="stroke:#A80036;stroke-width:0.7;"/><text fill="#000000" font-family="sans-serif" font-size="9.1" lengthAdjust="spacing" textLength="62.3" x="518.7" y="132.2966">Obtained from&gt;</text><text fill="#000000" font-family="sans-serif" font-size="9.1" lengthAdjust="spacing" textLength="14" x="499.3571" y="145.1178">1..*</text><text fill="#000000" font-family="sans-serif" font-size="9.1" lengthAdjust="spacing" textLength="4.9" x="592.2526" y="144.9298">1</text><!--MD5=[fba3ac294f3c76c431d275cef443fef8]
link LabOrder to TestType--><path codeLine="63" d="M64.057,189.196 C114.107,190.141 216.72,192.08 266.301,193.018 " fill="none" id="LabOrder-TestType" style="stroke:#A80036;stroke-width:0.7;"/><text fill="#000000" font-family="sans-serif" font-size="9.1" lengthAdjust="spacing" textLength="20.3" x="162.75" y="188.2966">has&gt;</text><text fill="#000000" font-family="sans-serif" font-size="9.1" lengthAdjust="spacing" textLength="4.9" x="69.7315" y="199.7797">1</text><text fill="#000000" font-family="sans-serif" font-size="9.1" lengthAdjust="spacing" textLength="4.9" x="255.8437" y="203.3678">1</text><!--MD5=[9e538721be8ba594e6cb15099e5c9add]
@startuml
hide methods
left to right direction
skinparam classAttributeIconSize 0


class Company {
  -designation
}

class Employee {
  -employeeId
  -name
  -address
  -phoneNumber
  -email
  -socCode
}



class User{
  -name
  -email
  -password
}

class Test{
-LabOrder
-sample
}

class Sample{

-barcode
}

class TestType{
-designation
-description
-internalCode
-nhsCode
}
class LabOrder{
-testType
-Parameters
}
class Barcode{
-upcCode
}

Company "1" - - "*" Test: does>
Test "1" - - "1" Sample : has>
Test "*" - - "1" Employee : is performed by>
Test "1" - - "1" TestType : is of>
Employee "0..1" - - "1" User: relates to >
Sample "*" - - "1..*" Employee : is recorded by>
LabOrder "1" - - "1" Test : gives rise>

Sample "1" - - "1" Barcode : has>

Barcode "1..*" - - "1" ExternalModule : Obtained from>

LabOrder "1" - - "1" TestType : has>
@enduml

PlantUML version 1.2021.00(Sun Jan 10 10:25:05 GMT 2021)
(GPL source distribution)
Java Runtime: OpenJDK Runtime Environment
JVM: OpenJDK 64-Bit Server VM
Default Encoding: Cp1252
Language: pt
Country: PT
--></g></svg>