<?xml version="1.0" encoding="UTF-8" standalone="no"?><svg xmlns="http://www.w3.org/2000/svg" xmlns:xlink="http://www.w3.org/1999/xlink" contentScriptType="application/ecmascript" contentStyleType="text/css" height="470px" preserveAspectRatio="none" style="width:690px;height:470px;" version="1.1" viewBox="0 0 690 470" width="690px" zoomAndPan="magnify"><defs><filter height="300%" id="f89wocb5vhusb" width="300%" x="-1" y="-1"><feGaussianBlur result="blurOut" stdDeviation="2.0"/><feColorMatrix in="blurOut" result="blurOut2" type="matrix" values="0 0 0 0 0 0 0 0 0 0 0 0 0 0 0 0 0 0 .4 0"/><feOffset dx="4.0" dy="4.0" in="blurOut2" result="blurOut3"/><feBlend in="SourceGraphic" in2="blurOut3" mode="normal"/></filter></defs><g><rect fill="#FFFFFF" filter="url(#f89wocb5vhusb)" height="260.1641" style="stroke:#A80036;stroke-width:1.0;" width="10" x="97.5" y="99.6094"/><rect fill="#FFFFFF" filter="url(#f89wocb5vhusb)" height="30.3516" style="stroke:#A80036;stroke-width:1.0;" width="10" x="629.5" y="121.9609"/><rect fill="#FFFFFF" filter="url(#f89wocb5vhusb)" height="30.3516" style="stroke:#A80036;stroke-width:1.0;" width="10" x="629.5" y="182.6641"/><rect fill="#FFFFFF" filter="url(#f89wocb5vhusb)" height="55.7031" style="stroke:#A80036;stroke-width:1.0;" width="10" x="629.5" y="243.3672"/><rect fill="#FFFFFF" filter="url(#f89wocb5vhusb)" height="30.3516" style="stroke:#A80036;stroke-width:1.0;" width="10" x="629.5" y="329.4219"/><rect fill="#FFFFFF" filter="url(#f89wocb5vhusb)" height="109.4063" style="stroke:#000000;stroke-width:2.0;" width="666.5" x="10" y="258.3672"/><line style="stroke:#A80036;stroke-width:1.0;stroke-dasharray:5.0,5.0;" x1="102" x2="102" y1="89.6094" y2="384.7734"/><line style="stroke:#A80036;stroke-width:1.0;stroke-dasharray:5.0,5.0;" x1="634.5" x2="634.5" y1="89.6094" y2="384.7734"/><text fill="#000000" font-family="sans-serif" font-size="14" lengthAdjust="spacing" textLength="159" x="20" y="86.5332">Medical Lab Technicician</text><ellipse cx="102.5" cy="15" fill="#FEFECE" filter="url(#f89wocb5vhusb)" rx="8" ry="8" style="stroke:#A80036;stroke-width:2.0;"/><path d="M102.5,23 L102.5,50 M89.5,31 L115.5,31 M102.5,50 L89.5,65 M102.5,50 L115.5,65 " fill="none" filter="url(#f89wocb5vhusb)" style="stroke:#A80036;stroke-width:2.0;"/><text fill="#000000" font-family="sans-serif" font-size="14" lengthAdjust="spacing" textLength="159" x="20" y="398.3066">Medical Lab Technicician</text><ellipse cx="102.5" cy="411.3828" fill="#FEFECE" filter="url(#f89wocb5vhusb)" rx="8" ry="8" style="stroke:#A80036;stroke-width:2.0;"/><path d="M102.5,419.3828 L102.5,446.3828 M89.5,427.3828 L115.5,427.3828 M102.5,446.3828 L89.5,461.3828 M102.5,446.3828 L115.5,461.3828 " fill="none" filter="url(#f89wocb5vhusb)" style="stroke:#A80036;stroke-width:2.0;"/><rect fill="#FEFECE" filter="url(#f89wocb5vhusb)" height="31.6094" style="stroke:#A80036;stroke-width:1.5;" width="60" x="602.5" y="53"/><text fill="#000000" font-family="sans-serif" font-size="14" lengthAdjust="spacing" textLength="46" x="609.5" y="74.5332">System</text><rect fill="#FEFECE" filter="url(#f89wocb5vhusb)" height="31.6094" style="stroke:#A80036;stroke-width:1.5;" width="60" x="602.5" y="383.7734"/><text fill="#000000" font-family="sans-serif" font-size="14" lengthAdjust="spacing" textLength="46" x="609.5" y="405.3066">System</text><rect fill="#FFFFFF" filter="url(#f89wocb5vhusb)" height="260.1641" style="stroke:#A80036;stroke-width:1.0;" width="10" x="97.5" y="99.6094"/><rect fill="#FFFFFF" filter="url(#f89wocb5vhusb)" height="30.3516" style="stroke:#A80036;stroke-width:1.0;" width="10" x="629.5" y="121.9609"/><rect fill="#FFFFFF" filter="url(#f89wocb5vhusb)" height="30.3516" style="stroke:#A80036;stroke-width:1.0;" width="10" x="629.5" y="182.6641"/><rect fill="#FFFFFF" filter="url(#f89wocb5vhusb)" height="55.7031" style="stroke:#A80036;stroke-width:1.0;" width="10" x="629.5" y="243.3672"/><rect fill="#FFFFFF" filter="url(#f89wocb5vhusb)" height="30.3516" style="stroke:#A80036;stroke-width:1.0;" width="10" x="629.5" y="329.4219"/><polygon fill="#A80036" points="617.5,117.9609,627.5,121.9609,617.5,125.9609,621.5,121.9609" style="stroke:#A80036;stroke-width:1.0;"/><line style="stroke:#A80036;stroke-width:1.0;" x1="107.5" x2="623.5" y1="121.9609" y2="121.9609"/><text fill="#000000" font-family="sans-serif" font-size="13" font-weight="bold" lengthAdjust="spacing" textLength="7" x="114.5" y="117.1045">1</text><text fill="#000000" font-family="sans-serif" font-size="13" lengthAdjust="spacing" textLength="158" x="125.5" y="117.1045">starts recording the sample</text><polygon fill="#A80036" points="118.5,148.3125,108.5,152.3125,118.5,156.3125,114.5,152.3125" style="stroke:#A80036;stroke-width:1.0;"/><line style="stroke:#A80036;stroke-width:1.0;stroke-dasharray:2.0,2.0;" x1="112.5" x2="633.5" y1="152.3125" y2="152.3125"/><text fill="#000000" font-family="sans-serif" font-size="13" font-weight="bold" lengthAdjust="spacing" textLength="7" x="124.5" y="147.4561">2</text><text fill="#000000" font-family="sans-serif" font-size="13" lengthAdjust="spacing" textLength="487" x="135.5" y="147.4561">shows the list of tests registered to be performed and requests to select one of them</text><polygon fill="#A80036" points="617.5,178.6641,627.5,182.6641,617.5,186.6641,621.5,182.6641" style="stroke:#A80036;stroke-width:1.0;"/><line style="stroke:#A80036;stroke-width:1.0;" x1="107.5" x2="623.5" y1="182.6641" y2="182.6641"/><text fill="#000000" font-family="sans-serif" font-size="13" font-weight="bold" lengthAdjust="spacing" textLength="7" x="114.5" y="177.8076">3</text><text fill="#000000" font-family="sans-serif" font-size="13" lengthAdjust="spacing" textLength="227" x="125.5" y="177.8076">select a test registered to be performed</text><polygon fill="#A80036" points="118.5,209.0156,108.5,213.0156,118.5,217.0156,114.5,213.0156" style="stroke:#A80036;stroke-width:1.0;"/><line style="stroke:#A80036;stroke-width:1.0;stroke-dasharray:2.0,2.0;" x1="112.5" x2="633.5" y1="213.0156" y2="213.0156"/><text fill="#000000" font-family="sans-serif" font-size="13" font-weight="bold" lengthAdjust="spacing" textLength="7" x="124.5" y="208.1592">4</text><text fill="#000000" font-family="sans-serif" font-size="13" lengthAdjust="spacing" textLength="245" x="135.5" y="208.1592">request how many samples want to record</text><polygon fill="#A80036" points="617.5,239.3672,627.5,243.3672,617.5,247.3672,621.5,243.3672" style="stroke:#A80036;stroke-width:1.0;"/><line style="stroke:#A80036;stroke-width:1.0;" x1="107.5" x2="623.5" y1="243.3672" y2="243.3672"/><text fill="#000000" font-family="sans-serif" font-size="13" font-weight="bold" lengthAdjust="spacing" textLength="7" x="114.5" y="238.5107">5</text><text fill="#000000" font-family="sans-serif" font-size="13" lengthAdjust="spacing" textLength="137" x="125.5" y="238.5107">type the requested data</text><path d="M10,258.3672 L83,258.3672 L83,266.3672 L73,276.3672 L10,276.3672 L10,258.3672 " fill="#EEEEEE" style="stroke:#000000;stroke-width:1.0;"/><rect fill="none" height="109.4063" style="stroke:#000000;stroke-width:2.0;" width="666.5" x="10" y="258.3672"/><text fill="#000000" font-family="sans-serif" font-size="13" font-weight="bold" lengthAdjust="spacing" textLength="28" x="25" y="272.8623">loop</text><polygon fill="#A80036" points="118.5,295.0703,108.5,299.0703,118.5,303.0703,114.5,299.0703" style="stroke:#A80036;stroke-width:1.0;"/><line style="stroke:#A80036;stroke-width:1.0;stroke-dasharray:2.0,2.0;" x1="112.5" x2="633.5" y1="299.0703" y2="299.0703"/><text fill="#000000" font-family="sans-serif" font-size="13" font-weight="bold" lengthAdjust="spacing" textLength="7" x="124.5" y="294.2139">6</text><text fill="#000000" font-family="sans-serif" font-size="13" lengthAdjust="spacing" textLength="252" x="135.5" y="294.2139">shows the data and requests a confirmation</text><polygon fill="#A80036" points="617.5,325.4219,627.5,329.4219,617.5,333.4219,621.5,329.4219" style="stroke:#A80036;stroke-width:1.0;"/><line style="stroke:#A80036;stroke-width:1.0;" x1="107.5" x2="623.5" y1="329.4219" y2="329.4219"/><text fill="#000000" font-family="sans-serif" font-size="13" font-weight="bold" lengthAdjust="spacing" textLength="7" x="114.5" y="324.5654">7</text><text fill="#000000" font-family="sans-serif" font-size="13" lengthAdjust="spacing" textLength="100" x="125.5" y="324.5654">confirms the data</text><polygon fill="#A80036" points="113.5,355.7734,103.5,359.7734,113.5,363.7734,109.5,359.7734" style="stroke:#A80036;stroke-width:1.0;"/><line style="stroke:#A80036;stroke-width:1.0;stroke-dasharray:2.0,2.0;" x1="107.5" x2="633.5" y1="359.7734" y2="359.7734"/><text fill="#000000" font-family="sans-serif" font-size="13" font-weight="bold" lengthAdjust="spacing" textLength="7" x="119.5" y="354.917">8</text><text fill="#000000" font-family="sans-serif" font-size="13" lengthAdjust="spacing" textLength="159" x="130.5" y="354.917">informs operations success</text><!--MD5=[7e696610b67be023bbaaad1eea7047a1]
@startuml
Actor "Medical Lab Technicician" as MLT
participant "System" as sys



autonumber

activate MLT
MLT->sys : starts recording the sample 

activate sys

sys- ->MLT : shows the list of tests registered to be performed and requests to select one of them
deactivate sys

MLT->sys : select a test registered to be performed
activate sys

sys- ->MLT : request how many samples want to record

deactivate sys

MLT -> sys : type the requested data
loop
activate sys

sys- ->MLT : shows the data and requests a confirmation
deactivate sys
MLT->sys : confirms the data 
activate sys

sys- ->MLT : informs operations success 
deactivate sys
deactivate MLT
end
@enduml

PlantUML version 1.2021.00(Sun Jan 10 10:25:05 GMT 2021)
(GPL source distribution)
Java Runtime: OpenJDK Runtime Environment
JVM: OpenJDK 64-Bit Server VM
Default Encoding: Cp1252
Language: pt
Country: PT
--></g></svg>