<?xml version="1.0" encoding="UTF-8" standalone="no"?><svg xmlns="http://www.w3.org/2000/svg" xmlns:xlink="http://www.w3.org/1999/xlink" contentScriptType="application/ecmascript" contentStyleType="text/css" height="878.5px" preserveAspectRatio="none" style="width:702px;height:878px;" version="1.1" viewBox="0 0 702 878" width="702.8px" zoomAndPan="magnify"><defs><filter height="300%" id="f1b4re3kqg0yab" width="300%" x="-1" y="-1"><feGaussianBlur result="blurOut" stdDeviation="1.4"/><feColorMatrix in="blurOut" result="blurOut2" type="matrix" values="0 0 0 0 0 0 0 0 0 0 0 0 0 0 0 0 0 0 .4 0"/><feOffset dx="2.8" dy="2.8" in="blurOut2" result="blurOut3"/><feBlend in="SourceGraphic" in2="blurOut3" mode="normal"/></filter></defs><g><!--MD5=[9681dc6e01e10c6b4fe06895ae94f592]
cluster UI--><polygon fill="#FFFFFF" filter="url(#f1b4re3kqg0yab)" points="578.9,4.2,592.9,4.2,597.8,20.7266,690.9,20.7266,690.9,74.2,578.9,74.2,578.9,4.2" style="stroke:#000000;stroke-width:1.0499999999999998;"/><line style="stroke:#000000;stroke-width:1.0499999999999998;" x1="578.9" x2="597.8" y1="20.7266" y2="20.7266"/><text fill="#000000" font-family="sans-serif" font-size="9.8" font-weight="bold" lengthAdjust="spacing" textLength="9.8" x="581.7" y="15.7732">UI</text><!--MD5=[ed1d20ea533a2a0e7df5ba3c35e56ced]
cluster Controllers--><polygon fill="#FFFFFF" filter="url(#f1b4re3kqg0yab)" points="406,97.3,465.5,97.3,470.4,113.8266,547.4,113.8266,547.4,196.7,406,196.7,406,97.3" style="stroke:#000000;stroke-width:1.0499999999999998;"/><line style="stroke:#000000;stroke-width:1.0499999999999998;" x1="406" x2="470.4" y1="113.8266" y2="113.8266"/><text fill="#000000" font-family="sans-serif" font-size="9.8" font-weight="bold" lengthAdjust="spacing" textLength="55.3" x="408.8" y="108.8732">Controllers</text><!--MD5=[121a8bf1197281ab89ed693fab589f94]
cluster Domain--><polygon fill="#FFFFFF" filter="url(#f1b4re3kqg0yab)" points="11.2,219.8,51.8,219.8,56.7,236.3266,408.1,236.3266,408.1,873.6,11.2,873.6,11.2,219.8" style="stroke:#000000;stroke-width:1.0499999999999998;"/><line style="stroke:#000000;stroke-width:1.0499999999999998;" x1="11.2" x2="56.7" y1="236.3266" y2="236.3266"/><text fill="#000000" font-family="sans-serif" font-size="9.8" font-weight="bold" lengthAdjust="spacing" textLength="36.4" x="14" y="231.3732">Domain</text><!--MD5=[32ff0bc6350c7c18bc045f793eb2f657]
cluster Mapper--><polygon fill="#FFFFFF" filter="url(#f1b4re3kqg0yab)" points="424.9,224.7,466.9,224.7,471.8,241.2266,621.6,241.2266,621.6,304.5,424.9,304.5,424.9,224.7" style="stroke:#000000;stroke-width:1.0499999999999998;"/><line style="stroke:#000000;stroke-width:1.0499999999999998;" x1="424.9" x2="471.8" y1="241.2266" y2="241.2266"/><text fill="#000000" font-family="sans-serif" font-size="9.8" font-weight="bold" lengthAdjust="spacing" textLength="37.8" x="427.7" y="236.2732">Mapper</text><!--MD5=[a7e26d82dece3a99be33d8557e72e039]
cluster Dto--><polygon fill="#FFFFFF" filter="url(#f1b4re3kqg0yab)" points="441.7,343,462.7,343,467.6,359.5266,616,359.5266,616,461.3,441.7,461.3,441.7,343" style="stroke:#000000;stroke-width:1.0499999999999998;"/><line style="stroke:#000000;stroke-width:1.0499999999999998;" x1="441.7" x2="467.6" y1="359.5266" y2="359.5266"/><text fill="#000000" font-family="sans-serif" font-size="9.8" font-weight="bold" lengthAdjust="spacing" textLength="16.8" x="444.5" y="354.5732">Dto</text><!--MD5=[05ffea613565d111e9c4a041147710d4]
class RecordSampleUI--><rect codeLine="2" fill="#FEFECE" filter="url(#f1b4re3kqg0yab)" height="33.6" id="RecordSampleUI" style="stroke:#A80036;stroke-width:1.0499999999999998;" width="88.9" x="590.45" y="29.4"/><ellipse cx="600.95" cy="40.6" fill="#ADD1B2" rx="7.7" ry="7.7" style="stroke:#A80036;stroke-width:0.7;"/><path d="M602.35,38.15 Q602.4922,37.8 602.6563,37.625 Q602.8203,37.45 603.0062,37.45 Q603.3344,37.45 603.5422,37.6469 Q603.75,37.8438 603.75,38.3031 L603.75,39.3969 Q603.75,39.8562 603.5531,40.0531 Q603.3562,40.25 603.05,40.25 Q602.7766,40.25 602.6016,40.1297 Q602.4266,40.0094 602.35,39.6922 Q602.3172,39.4734 602.1969,39.3531 Q601.9781,39.1234 601.5844,38.9922 Q601.1906,38.85 600.7969,38.85 Q600.3047,38.85 599.8891,39.0469 Q599.4844,39.2438 599.1672,39.6813 Q598.85,40.1188 598.85,40.7203 L598.85,41.3656 Q598.85,42.0875 599.4406,42.5687 Q600.0313,43.05 601.0813,43.05 Q601.7047,43.05 602.1422,42.9078 Q602.3938,42.8313 602.6781,42.5797 Q602.8641,42.4375 602.9625,42.3938 Q603.0609,42.35 603.1813,42.35 Q603.4109,42.35 603.575,42.5359 Q603.75,42.7109 603.75,42.9625 Q603.75,43.2031 603.5094,43.4875 Q603.1594,43.9031 602.6016,44.1328 Q601.8688,44.45 600.9719,44.45 Q599.9219,44.45 599.0797,44.0344 Q598.4016,43.7063 597.9203,42.9953 Q597.45,42.2844 597.45,41.4422 L597.45,40.6766 Q597.45,39.8016 597.8656,39.0359 Q598.2922,38.2703 599.025,37.8656 Q599.7688,37.45 600.6,37.45 Q601.1031,37.45 601.5406,37.625 Q601.9781,37.8 602.35,38.15 Z " fill="#000000"/><text fill="#000000" font-family="sans-serif" font-size="8.4" lengthAdjust="spacing" textLength="66.5" x="610.75" y="44.0371">RecordSampleUI</text><line style="stroke:#A80036;stroke-width:1.0499999999999998;" x1="591.15" x2="678.65" y1="51.8" y2="51.8"/><line style="stroke:#A80036;stroke-width:1.0499999999999998;" x1="591.15" x2="678.65" y1="57.4" y2="57.4"/><!--MD5=[ecb4b8913618184ce1e3f8e48e5e993f]
class RecordSampleController--><rect codeLine="5" fill="#FEFECE" filter="url(#f1b4re3kqg0yab)" height="62.6555" id="RecordSampleController" style="stroke:#A80036;stroke-width:1.0499999999999998;" width="118.3" x="417.55" y="122.5"/><ellipse cx="428.05" cy="133.7" fill="#ADD1B2" rx="7.7" ry="7.7" style="stroke:#A80036;stroke-width:0.7;"/><path d="M429.45,131.25 Q429.5922,130.9 429.7562,130.725 Q429.9203,130.55 430.1063,130.55 Q430.4344,130.55 430.6422,130.7469 Q430.85,130.9438 430.85,131.4031 L430.85,132.4969 Q430.85,132.9562 430.6531,133.1531 Q430.4562,133.35 430.15,133.35 Q429.8766,133.35 429.7016,133.2297 Q429.5266,133.1094 429.45,132.7922 Q429.4172,132.5734 429.2969,132.4531 Q429.0781,132.2234 428.6844,132.0922 Q428.2906,131.95 427.8969,131.95 Q427.4047,131.95 426.9891,132.1469 Q426.5844,132.3438 426.2672,132.7813 Q425.95,133.2188 425.95,133.8203 L425.95,134.4656 Q425.95,135.1875 426.5406,135.6688 Q427.1312,136.15 428.1813,136.15 Q428.8047,136.15 429.2422,136.0078 Q429.4938,135.9312 429.7781,135.6797 Q429.9641,135.5375 430.0625,135.4937 Q430.1609,135.45 430.2813,135.45 Q430.5109,135.45 430.675,135.6359 Q430.85,135.8109 430.85,136.0625 Q430.85,136.3031 430.6094,136.5875 Q430.2594,137.0031 429.7016,137.2328 Q428.9688,137.55 428.0719,137.55 Q427.0219,137.55 426.1797,137.1344 Q425.5016,136.8062 425.0203,136.0953 Q424.55,135.3844 424.55,134.5422 L424.55,133.7766 Q424.55,132.9016 424.9656,132.1359 Q425.3922,131.3703 426.125,130.9656 Q426.8688,130.55 427.7,130.55 Q428.2031,130.55 428.6406,130.725 Q429.0781,130.9 429.45,131.25 Z " fill="#000000"/><text fill="#000000" font-family="sans-serif" font-size="8.4" lengthAdjust="spacing" textLength="95.9" x="437.85" y="137.1371">RecordSampleController</text><line style="stroke:#A80036;stroke-width:1.0499999999999998;" x1="418.25" x2="535.15" y1="144.9" y2="144.9"/><line style="stroke:#A80036;stroke-width:1.0499999999999998;" x1="418.25" x2="535.15" y1="150.5" y2="150.5"/><ellipse cx="425.25" cy="158.2" fill="#84BE84" rx="2.1" ry="2.1" style="stroke:#038048;stroke-width:0.7;"/><text fill="#000000" font-family="sans-serif" font-size="7.7" lengthAdjust="spacing" textLength="81.2" x="431.55" y="161.2933">RecordNewSample(dto)</text><ellipse cx="425.25" cy="167.8852" fill="#84BE84" rx="2.1" ry="2.1" style="stroke:#038048;stroke-width:0.7;"/><text fill="#000000" font-family="sans-serif" font-size="7.7" lengthAdjust="spacing" textLength="63" x="431.55" y="170.9784">saveNewSample()</text><ellipse cx="425.25" cy="177.5703" fill="#84BE84" rx="2.1" ry="2.1" style="stroke:#038048;stroke-width:0.7;"/><text fill="#000000" font-family="sans-serif" font-size="7.7" lengthAdjust="spacing" textLength="30.8" x="431.55" y="180.6636">getTest()</text><!--MD5=[02e4b9b7573f1156f41e60aa5b4e25a4]
class Company--><rect codeLine="8" fill="#FEFECE" filter="url(#f1b4re3kqg0yab)" height="52.9703" id="Company" style="stroke:#A80036;stroke-width:1.0499999999999998;" width="77" x="319.9" y="245"/><ellipse cx="338.275" cy="256.2" fill="#ADD1B2" rx="7.7" ry="7.7" style="stroke:#A80036;stroke-width:0.7;"/><path d="M339.675,253.75 Q339.8172,253.4 339.9813,253.225 Q340.1453,253.05 340.3312,253.05 Q340.6594,253.05 340.8672,253.2469 Q341.075,253.4438 341.075,253.9031 L341.075,254.9969 Q341.075,255.4562 340.8781,255.6531 Q340.6813,255.85 340.375,255.85 Q340.1016,255.85 339.9266,255.7297 Q339.7516,255.6094 339.675,255.2922 Q339.6422,255.0734 339.5219,254.9531 Q339.3031,254.7234 338.9094,254.5922 Q338.5156,254.45 338.1219,254.45 Q337.6297,254.45 337.2141,254.6469 Q336.8094,254.8437 336.4922,255.2812 Q336.175,255.7187 336.175,256.3203 L336.175,256.9656 Q336.175,257.6875 336.7656,258.1688 Q337.3563,258.65 338.4063,258.65 Q339.0297,258.65 339.4672,258.5078 Q339.7188,258.4313 340.0031,258.1797 Q340.1891,258.0375 340.2875,257.9938 Q340.3859,257.95 340.5062,257.95 Q340.7359,257.95 340.9,258.1359 Q341.075,258.3109 341.075,258.5625 Q341.075,258.8031 340.8344,259.0875 Q340.4844,259.5031 339.9266,259.7328 Q339.1937,260.05 338.2969,260.05 Q337.2469,260.05 336.4047,259.6344 Q335.7266,259.3063 335.2453,258.5953 Q334.775,257.8844 334.775,257.0422 L334.775,256.2766 Q334.775,255.4016 335.1906,254.6359 Q335.6172,253.8703 336.35,253.4656 Q337.0938,253.05 337.925,253.05 Q338.4281,253.05 338.8656,253.225 Q339.3031,253.4 339.675,253.75 Z " fill="#000000"/><text fill="#000000" font-family="sans-serif" font-size="8.4" lengthAdjust="spacing" textLength="37.1" x="349.825" y="259.6371">Company</text><line style="stroke:#A80036;stroke-width:1.0499999999999998;" x1="320.6" x2="396.2" y1="267.4" y2="267.4"/><line style="stroke:#A80036;stroke-width:1.0499999999999998;" x1="320.6" x2="396.2" y1="273" y2="273"/><ellipse cx="327.6" cy="280.7" fill="#84BE84" rx="2.1" ry="2.1" style="stroke:#038048;stroke-width:0.7;"/><text fill="#000000" font-family="sans-serif" font-size="7.7" lengthAdjust="spacing" textLength="49" x="333.9" y="283.7933">getTestStore()</text><ellipse cx="327.6" cy="290.3852" fill="#84BE84" rx="2.1" ry="2.1" style="stroke:#038048;stroke-width:0.7;"/><text fill="#000000" font-family="sans-serif" font-size="7.7" lengthAdjust="spacing" textLength="58.8" x="333.9" y="293.4784">getSampleStore()</text><!--MD5=[9681492165142af2a4a3a169d90ee8d4]
class Sample--><rect codeLine="9" fill="#FEFECE" filter="url(#f1b4re3kqg0yab)" height="62.6555" id="Sample" style="stroke:#A80036;stroke-width:1.0499999999999998;" width="87.5" x="225.05" y="681.8"/><ellipse cx="251.3" cy="693" fill="#ADD1B2" rx="7.7" ry="7.7" style="stroke:#A80036;stroke-width:0.7;"/><path d="M252.7,690.55 Q252.8422,690.2 253.0063,690.025 Q253.1703,689.85 253.3563,689.85 Q253.6844,689.85 253.8922,690.0469 Q254.1,690.2438 254.1,690.7031 L254.1,691.7969 Q254.1,692.2562 253.9031,692.4531 Q253.7062,692.65 253.4,692.65 Q253.1266,692.65 252.9516,692.5297 Q252.7766,692.4094 252.7,692.0922 Q252.6672,691.8734 252.5469,691.7531 Q252.3281,691.5234 251.9344,691.3922 Q251.5406,691.25 251.1469,691.25 Q250.6547,691.25 250.2391,691.4469 Q249.8344,691.6438 249.5172,692.0813 Q249.2,692.5188 249.2,693.1203 L249.2,693.7656 Q249.2,694.4875 249.7906,694.9688 Q250.3813,695.45 251.4312,695.45 Q252.0547,695.45 252.4922,695.3078 Q252.7437,695.2312 253.0281,694.9797 Q253.2141,694.8375 253.3125,694.7937 Q253.4109,694.75 253.5312,694.75 Q253.7609,694.75 253.925,694.9359 Q254.1,695.1109 254.1,695.3625 Q254.1,695.6031 253.8594,695.8875 Q253.5094,696.3031 252.9516,696.5328 Q252.2187,696.85 251.3219,696.85 Q250.2719,696.85 249.4297,696.4344 Q248.7516,696.1062 248.2703,695.3953 Q247.8,694.6844 247.8,693.8422 L247.8,693.0766 Q247.8,692.2016 248.2156,691.4359 Q248.6422,690.6703 249.375,690.2656 Q250.1187,689.85 250.95,689.85 Q251.4531,689.85 251.8906,690.025 Q252.3281,690.2 252.7,690.55 Z " fill="#000000"/><text fill="#000000" font-family="sans-serif" font-size="8.4" lengthAdjust="spacing" textLength="30.1" x="264.6" y="696.4371">Sample</text><line style="stroke:#A80036;stroke-width:1.0499999999999998;" x1="225.75" x2="311.85" y1="704.2" y2="704.2"/><rect fill="none" height="4.2" style="stroke:#C82930;stroke-width:0.7;" width="4.2" x="230.65" y="709.8"/><text fill="#000000" font-family="sans-serif" font-size="7.7" lengthAdjust="spacing" textLength="28" x="239.05" y="714.9933">barcode</text><line style="stroke:#A80036;stroke-width:1.0499999999999998;" x1="225.75" x2="311.85" y1="719.4852" y2="719.4852"/><ellipse cx="232.75" cy="727.1852" fill="#84BE84" rx="2.1" ry="2.1" style="stroke:#038048;stroke-width:0.7;"/><text fill="#000000" font-family="sans-serif" font-size="7.7" lengthAdjust="spacing" textLength="30.1" x="239.05" y="730.2784">Sample()</text><ellipse cx="232.75" cy="736.8703" fill="#84BE84" rx="2.1" ry="2.1" style="stroke:#038048;stroke-width:0.7;"/><text fill="#000000" font-family="sans-serif" font-size="7.7" lengthAdjust="spacing" textLength="69.3" x="239.05" y="739.9636">getBarcodecreator()</text><!--MD5=[0f6f7964b844a64b0496af0dda7914bd]
class TestStore--><rect codeLine="10" fill="#FEFECE" filter="url(#f1b4re3kqg0yab)" height="43.2852" id="TestStore" style="stroke:#A80036;stroke-width:1.0499999999999998;" width="125.3" x="271.25" y="387.45"/><ellipse cx="312.375" cy="398.65" fill="#ADD1B2" rx="7.7" ry="7.7" style="stroke:#A80036;stroke-width:0.7;"/><path d="M313.775,396.2 Q313.9172,395.85 314.0812,395.675 Q314.2453,395.5 314.4313,395.5 Q314.7594,395.5 314.9672,395.6969 Q315.175,395.8937 315.175,396.3531 L315.175,397.4469 Q315.175,397.9063 314.9781,398.1031 Q314.7813,398.3 314.475,398.3 Q314.2016,398.3 314.0266,398.1797 Q313.8516,398.0594 313.775,397.7422 Q313.7422,397.5234 313.6219,397.4031 Q313.4031,397.1734 313.0094,397.0422 Q312.6156,396.9 312.2219,396.9 Q311.7297,396.9 311.3141,397.0969 Q310.9094,397.2938 310.5922,397.7313 Q310.275,398.1688 310.275,398.7703 L310.275,399.4156 Q310.275,400.1375 310.8656,400.6188 Q311.4562,401.1 312.5062,401.1 Q313.1297,401.1 313.5672,400.9578 Q313.8187,400.8812 314.1031,400.6297 Q314.2891,400.4875 314.3875,400.4437 Q314.4859,400.4 314.6063,400.4 Q314.8359,400.4 315,400.5859 Q315.175,400.7609 315.175,401.0125 Q315.175,401.2531 314.9344,401.5375 Q314.5844,401.9531 314.0266,402.1828 Q313.2938,402.5 312.3969,402.5 Q311.3469,402.5 310.5047,402.0844 Q309.8266,401.7562 309.3453,401.0453 Q308.875,400.3344 308.875,399.4922 L308.875,398.7266 Q308.875,397.8516 309.2906,397.0859 Q309.7172,396.3203 310.45,395.9156 Q311.1937,395.5 312.025,395.5 Q312.5281,395.5 312.9656,395.675 Q313.4031,395.85 313.775,396.2 Z " fill="#000000"/><text fill="#000000" font-family="sans-serif" font-size="8.4" lengthAdjust="spacing" textLength="37.1" x="326.725" y="402.0871">TestStore</text><line style="stroke:#A80036;stroke-width:1.0499999999999998;" x1="271.95" x2="395.85" y1="409.85" y2="409.85"/><line style="stroke:#A80036;stroke-width:1.0499999999999998;" x1="271.95" x2="395.85" y1="415.45" y2="415.45"/><ellipse cx="278.95" cy="423.15" fill="#84BE84" rx="2.1" ry="2.1" style="stroke:#038048;stroke-width:0.7;"/><text fill="#000000" font-family="sans-serif" font-size="7.7" lengthAdjust="spacing" textLength="107.1" x="285.25" y="426.2433">getTestByTestTypeCode(testid)</text><!--MD5=[df38be88ccee13e832d6fafd6288a4ca]
class Test--><rect codeLine="11" fill="#FEFECE" filter="url(#f1b4re3kqg0yab)" height="120.7664" id="Test" style="stroke:#A80036;stroke-width:1.0499999999999998;" width="108.5" x="283.85" y="506.1"/><ellipse cx="326.725" cy="517.3" fill="#ADD1B2" rx="7.7" ry="7.7" style="stroke:#A80036;stroke-width:0.7;"/><path d="M328.125,514.85 Q328.2672,514.5 328.4313,514.325 Q328.5953,514.15 328.7813,514.15 Q329.1094,514.15 329.3172,514.3469 Q329.525,514.5437 329.525,515.0031 L329.525,516.0969 Q329.525,516.5563 329.3281,516.7531 Q329.1312,516.95 328.825,516.95 Q328.5516,516.95 328.3766,516.8297 Q328.2016,516.7094 328.125,516.3922 Q328.0922,516.1734 327.9719,516.0531 Q327.7531,515.8234 327.3594,515.6922 Q326.9656,515.55 326.5719,515.55 Q326.0797,515.55 325.6641,515.7469 Q325.2594,515.9438 324.9422,516.3813 Q324.625,516.8188 324.625,517.4203 L324.625,518.0656 Q324.625,518.7875 325.2156,519.2688 Q325.8063,519.75 326.8563,519.75 Q327.4797,519.75 327.9172,519.6078 Q328.1688,519.5313 328.4531,519.2797 Q328.6391,519.1375 328.7375,519.0938 Q328.8359,519.05 328.9562,519.05 Q329.1859,519.05 329.35,519.2359 Q329.525,519.4109 329.525,519.6625 Q329.525,519.9031 329.2844,520.1875 Q328.9344,520.6031 328.3766,520.8328 Q327.6437,521.15 326.7469,521.15 Q325.6969,521.15 324.8547,520.7344 Q324.1766,520.4063 323.6953,519.6953 Q323.225,518.9844 323.225,518.1422 L323.225,517.3766 Q323.225,516.5016 323.6406,515.7359 Q324.0672,514.9703 324.8,514.5656 Q325.5438,514.15 326.375,514.15 Q326.8781,514.15 327.3156,514.325 Q327.7531,514.5 328.125,514.85 Z " fill="#000000"/><text fill="#000000" font-family="sans-serif" font-size="8.4" lengthAdjust="spacing" textLength="16.8" x="341.075" y="520.7371">Test</text><line style="stroke:#A80036;stroke-width:1.0499999999999998;" x1="284.55" x2="391.65" y1="528.5" y2="528.5"/><rect fill="none" height="4.2" style="stroke:#C82930;stroke-width:0.7;" width="4.2" x="289.45" y="534.1"/><text fill="#000000" font-family="sans-serif" font-size="7.7" lengthAdjust="spacing" textLength="32.2" x="297.85" y="539.2933">LabOrder</text><rect fill="none" height="4.2" style="stroke:#C82930;stroke-width:0.7;" width="4.2" x="289.45" y="543.7852"/><text fill="#000000" font-family="sans-serif" font-size="7.7" lengthAdjust="spacing" textLength="24.5" x="297.85" y="548.9784">Sample</text><rect fill="none" height="4.2" style="stroke:#C82930;stroke-width:0.7;" width="4.2" x="289.45" y="553.4703"/><text fill="#000000" font-family="sans-serif" font-size="7.7" lengthAdjust="spacing" textLength="16.8" x="297.85" y="558.6636">code</text><rect fill="none" height="4.2" style="stroke:#C82930;stroke-width:0.7;" width="4.2" x="289.45" y="563.1555"/><text fill="#000000" font-family="sans-serif" font-size="7.7" lengthAdjust="spacing" textLength="17.5" x="297.85" y="568.3487">client</text><rect fill="none" height="4.2" style="stroke:#C82930;stroke-width:0.7;" width="4.2" x="289.45" y="572.8406"/><text fill="#000000" font-family="sans-serif" font-size="7.7" lengthAdjust="spacing" textLength="29.4" x="297.85" y="578.0339">nhscode</text><line style="stroke:#A80036;stroke-width:1.0499999999999998;" x1="284.55" x2="391.65" y1="582.5258" y2="582.5258"/><ellipse cx="291.55" cy="590.2258" fill="#84BE84" rx="2.1" ry="2.1" style="stroke:#038048;stroke-width:0.7;"/><text fill="#000000" font-family="sans-serif" font-size="7.7" lengthAdjust="spacing" textLength="81.2" x="297.85" y="593.319">RecordNewSample(tdo)</text><ellipse cx="291.55" cy="599.9109" fill="#84BE84" rx="2.1" ry="2.1" style="stroke:#038048;stroke-width:0.7;"/><text fill="#000000" font-family="sans-serif" font-size="7.7" lengthAdjust="spacing" textLength="90.3" x="297.85" y="603.0042">validateNewSample(samp)</text><ellipse cx="291.55" cy="609.5961" fill="#84BE84" rx="2.1" ry="2.1" style="stroke:#038048;stroke-width:0.7;"/><text fill="#000000" font-family="sans-serif" font-size="7.7" lengthAdjust="spacing" textLength="81.2" x="297.85" y="612.6894">saveNewSample(samp)</text><ellipse cx="291.55" cy="619.2813" fill="#84BE84" rx="2.1" ry="2.1" style="stroke:#038048;stroke-width:0.7;"/><text fill="#000000" font-family="sans-serif" font-size="7.7" lengthAdjust="spacing" textLength="77" x="297.85" y="622.3745">addNewSample(samp)</text><!--MD5=[a999c1570c205a2156b04a15307bc1ff]
class LabOrder--><rect codeLine="12" fill="#FEFECE" filter="url(#f1b4re3kqg0yab)" height="52.9703" id="LabOrder" style="stroke:#A80036;stroke-width:1.0499999999999998;" width="58.8" x="337.4" y="686.7"/><ellipse cx="347.9" cy="697.9" fill="#ADD1B2" rx="7.7" ry="7.7" style="stroke:#A80036;stroke-width:0.7;"/><path d="M349.3,695.45 Q349.4422,695.1 349.6063,694.925 Q349.7703,694.75 349.9562,694.75 Q350.2844,694.75 350.4922,694.9469 Q350.7,695.1438 350.7,695.6031 L350.7,696.6969 Q350.7,697.1563 350.5031,697.3531 Q350.3063,697.55 350,697.55 Q349.7266,697.55 349.5516,697.4297 Q349.3766,697.3094 349.3,696.9922 Q349.2672,696.7734 349.1469,696.6531 Q348.9281,696.4234 348.5344,696.2922 Q348.1406,696.15 347.7469,696.15 Q347.2547,696.15 346.8391,696.3469 Q346.4344,696.5437 346.1172,696.9812 Q345.8,697.4187 345.8,698.0203 L345.8,698.6656 Q345.8,699.3875 346.3906,699.8688 Q346.9813,700.35 348.0313,700.35 Q348.6547,700.35 349.0922,700.2078 Q349.3438,700.1312 349.6281,699.8797 Q349.8141,699.7375 349.9125,699.6937 Q350.0109,699.65 350.1312,699.65 Q350.3609,699.65 350.525,699.8359 Q350.7,700.0109 350.7,700.2625 Q350.7,700.5031 350.4594,700.7875 Q350.1094,701.2031 349.5516,701.4328 Q348.8187,701.75 347.9219,701.75 Q346.8719,701.75 346.0297,701.3344 Q345.3516,701.0062 344.8703,700.2953 Q344.4,699.5844 344.4,698.7422 L344.4,697.9766 Q344.4,697.1016 344.8156,696.3359 Q345.2422,695.5703 345.975,695.1656 Q346.7188,694.75 347.55,694.75 Q348.0531,694.75 348.4906,694.925 Q348.9281,695.1 349.3,695.45 Z " fill="#000000"/><text fill="#000000" font-family="sans-serif" font-size="8.4" lengthAdjust="spacing" textLength="36.4" x="357.7" y="701.3371">LabOrder</text><line style="stroke:#A80036;stroke-width:1.0499999999999998;" x1="338.1" x2="395.5" y1="709.1" y2="709.1"/><rect fill="none" height="4.2" style="stroke:#C82930;stroke-width:0.7;" width="4.2" x="343" y="714.7"/><text fill="#000000" font-family="sans-serif" font-size="7.7" lengthAdjust="spacing" textLength="29.4" x="351.4" y="719.8933">testType</text><rect fill="none" height="4.2" style="stroke:#C82930;stroke-width:0.7;" width="4.2" x="343" y="724.3852"/><text fill="#000000" font-family="sans-serif" font-size="7.7" lengthAdjust="spacing" textLength="38.5" x="351.4" y="729.5784">parameters</text><line style="stroke:#A80036;stroke-width:1.0499999999999998;" x1="338.1" x2="395.5" y1="734.0703" y2="734.0703"/><!--MD5=[c787e3ea7cba08b6686a91ad4338f70b]
class ApiBarcode--><rect codeLine="13" fill="#FEFECE" filter="url(#f1b4re3kqg0yab)" height="43.2852" id="ApiBarcode" style="stroke:#A80036;stroke-width:1.0499999999999998;" width="142.8" x="254.1" y="809.2"/><ellipse cx="300.125" cy="820.4" fill="#B4A7E5" rx="7.7" ry="7.7" style="stroke:#A80036;stroke-width:0.7;"/><path d="M300.825,818.3 L300.825,822.5 L302.225,822.5 L302.5641,822.5 L302.925,822.9375 L302.925,823.2 L302.925,823.4625 L302.5641,823.9 L302.225,823.9 L298.025,823.9 L297.6859,823.9 L297.325,823.4625 L297.325,823.2 L297.325,822.9375 L297.6859,822.5 L298.025,822.5 L299.425,822.5 L299.425,818.3 L298.025,818.3 L297.6859,818.3 L297.325,817.8625 L297.325,817.6 L297.325,817.3375 L297.6859,816.9 L298.025,816.9 L302.225,816.9 L302.5641,816.9 L302.925,817.3375 L302.925,817.6 L302.925,817.8625 L302.5641,818.3 L302.225,818.3 L300.825,818.3 Z " fill="#000000"/><text fill="#000000" font-family="sans-serif" font-size="8.4" font-style="italic" lengthAdjust="spacing" textLength="44.8" x="314.475" y="823.8371">ApiBarcode</text><line style="stroke:#A80036;stroke-width:1.0499999999999998;" x1="254.8" x2="396.2" y1="831.6" y2="831.6"/><line style="stroke:#A80036;stroke-width:1.0499999999999998;" x1="254.8" x2="396.2" y1="837.2" y2="837.2"/><ellipse cx="261.8" cy="844.9" fill="#84BE84" rx="2.1" ry="2.1" style="stroke:#038048;stroke-width:0.7;"/><text fill="#000000" font-family="sans-serif" font-size="7.7" lengthAdjust="spacing" textLength="124.6" x="268.1" y="847.9933">BarcodeCreate makeUPCABarcode()</text><!--MD5=[09699c8b762f7fa74b7dc251f2258f54]
class BarcodeAdapter--><rect codeLine="14" fill="#FEFECE" filter="url(#f1b4re3kqg0yab)" height="43.2852" id="BarcodeAdapter" style="stroke:#A80036;stroke-width:1.0499999999999998;" width="142.8" x="56" y="691.6"/><ellipse cx="93.625" cy="702.8" fill="#ADD1B2" rx="7.7" ry="7.7" style="stroke:#A80036;stroke-width:0.7;"/><path d="M95.025,700.35 Q95.1672,700 95.3313,699.825 Q95.4953,699.65 95.6812,699.65 Q96.0094,699.65 96.2172,699.8469 Q96.425,700.0437 96.425,700.5031 L96.425,701.5969 Q96.425,702.0563 96.2281,702.2531 Q96.0313,702.45 95.725,702.45 Q95.4516,702.45 95.2766,702.3297 Q95.1016,702.2094 95.025,701.8922 Q94.9922,701.6734 94.8719,701.5531 Q94.6531,701.3234 94.2594,701.1922 Q93.8656,701.05 93.4719,701.05 Q92.9797,701.05 92.5641,701.2469 Q92.1594,701.4437 91.8422,701.8812 Q91.525,702.3187 91.525,702.9203 L91.525,703.5656 Q91.525,704.2875 92.1156,704.7688 Q92.7063,705.25 93.7563,705.25 Q94.3797,705.25 94.8172,705.1078 Q95.0688,705.0313 95.3531,704.7797 Q95.5391,704.6375 95.6375,704.5938 Q95.7359,704.55 95.8562,704.55 Q96.0859,704.55 96.25,704.7359 Q96.425,704.9109 96.425,705.1625 Q96.425,705.4031 96.1844,705.6875 Q95.8344,706.1031 95.2766,706.3328 Q94.5437,706.65 93.6469,706.65 Q92.5969,706.65 91.7547,706.2344 Q91.0766,705.9063 90.5953,705.1953 Q90.125,704.4844 90.125,703.6422 L90.125,702.8766 Q90.125,702.0016 90.5406,701.2359 Q90.9672,700.4703 91.7,700.0656 Q92.4438,699.65 93.275,699.65 Q93.7781,699.65 94.2156,699.825 Q94.6531,700 95.025,700.35 Z " fill="#000000"/><text fill="#000000" font-family="sans-serif" font-size="8.4" lengthAdjust="spacing" textLength="61.6" x="107.975" y="706.2371">BarcodeAdapter</text><line style="stroke:#A80036;stroke-width:1.0499999999999998;" x1="56.7" x2="198.1" y1="714" y2="714"/><line style="stroke:#A80036;stroke-width:1.0499999999999998;" x1="56.7" x2="198.1" y1="719.6" y2="719.6"/><ellipse cx="63.7" cy="727.3" fill="#84BE84" rx="2.1" ry="2.1" style="stroke:#038048;stroke-width:0.7;"/><text fill="#000000" font-family="sans-serif" font-size="7.7" lengthAdjust="spacing" textLength="124.6" x="70" y="730.3933">BarcodeCreate makeUPCABarcode()</text><!--MD5=[6cfa5c3b7c3b169d22de0dcd47d936aa]
class BarcodeCreate--><rect codeLine="15" fill="#FEFECE" filter="url(#f1b4re3kqg0yab)" height="62.6555" id="BarcodeCreate" style="stroke:#A80036;stroke-width:1.0499999999999998;" width="206.5" x="22.75" y="799.4"/><ellipse cx="93.975" cy="810.6" fill="#ADD1B2" rx="7.7" ry="7.7" style="stroke:#A80036;stroke-width:0.7;"/><path d="M95.375,808.15 Q95.5172,807.8 95.6812,807.625 Q95.8453,807.45 96.0313,807.45 Q96.3594,807.45 96.5672,807.6469 Q96.775,807.8438 96.775,808.3031 L96.775,809.3969 Q96.775,809.8562 96.5781,810.0531 Q96.3813,810.25 96.075,810.25 Q95.8016,810.25 95.6266,810.1297 Q95.4516,810.0094 95.375,809.6922 Q95.3422,809.4734 95.2219,809.3531 Q95.0031,809.1234 94.6094,808.9922 Q94.2156,808.85 93.8219,808.85 Q93.3297,808.85 92.9141,809.0469 Q92.5094,809.2438 92.1922,809.6813 Q91.875,810.1188 91.875,810.7203 L91.875,811.3656 Q91.875,812.0875 92.4656,812.5687 Q93.0562,813.05 94.1062,813.05 Q94.7297,813.05 95.1672,812.9078 Q95.4187,812.8313 95.7031,812.5797 Q95.8891,812.4375 95.9875,812.3938 Q96.0859,812.35 96.2063,812.35 Q96.4359,812.35 96.6,812.5359 Q96.775,812.7109 96.775,812.9625 Q96.775,813.2031 96.5344,813.4875 Q96.1844,813.9031 95.6266,814.1328 Q94.8938,814.45 93.9969,814.45 Q92.9469,814.45 92.1047,814.0344 Q91.4266,813.7063 90.9453,812.9953 Q90.475,812.2844 90.475,811.4422 L90.475,810.6766 Q90.475,809.8016 90.8906,809.0359 Q91.3172,808.2703 92.05,807.8656 Q92.7937,807.45 93.625,807.45 Q94.1281,807.45 94.5656,807.625 Q95.0031,807.8 95.375,808.15 Z " fill="#000000"/><text fill="#000000" font-family="sans-serif" font-size="8.4" lengthAdjust="spacing" textLength="58.1" x="108.325" y="814.0371">BarcodeCreate</text><line style="stroke:#A80036;stroke-width:1.0499999999999998;" x1="23.45" x2="228.55" y1="821.8" y2="821.8"/><rect fill="none" height="4.2" style="stroke:#C82930;stroke-width:0.7;" width="4.2" x="28.35" y="827.4"/><text fill="#000000" font-family="sans-serif" font-size="7.7" lengthAdjust="spacing" textLength="28" x="36.75" y="832.5933">barcode</text><rect fill="none" height="4.2" style="stroke:#C82930;stroke-width:0.7;" width="4.2" x="28.35" y="837.0852"/><text fill="#000000" font-family="sans-serif" font-size="7.7" lengthAdjust="spacing" textLength="53.9" x="36.75" y="842.2784">barcodeNumber</text><line style="stroke:#A80036;stroke-width:1.0499999999999998;" x1="23.45" x2="228.55" y1="846.7703" y2="846.7703"/><ellipse cx="30.45" cy="854.4703" fill="#84BE84" rx="2.1" ry="2.1" style="stroke:#038048;stroke-width:0.7;"/><text fill="#000000" font-family="sans-serif" font-size="7.7" lengthAdjust="spacing" textLength="188.3" x="36.75" y="857.5636">BarcodeCreate(Object barcode, String barcodeNumber)</text><!--MD5=[144698ec4d0188f6929a3b58a3eeb1f6]
class TestMapper--><rect codeLine="18" fill="#FEFECE" filter="url(#f1b4re3kqg0yab)" height="43.2852" id="TestMapper" style="stroke:#A80036;stroke-width:1.0499999999999998;" width="67.9" x="542.15" y="249.9"/><ellipse cx="552.65" cy="261.1" fill="#ADD1B2" rx="7.7" ry="7.7" style="stroke:#A80036;stroke-width:0.7;"/><path d="M554.05,258.65 Q554.1922,258.3 554.3562,258.125 Q554.5203,257.95 554.7063,257.95 Q555.0344,257.95 555.2422,258.1469 Q555.45,258.3438 555.45,258.8031 L555.45,259.8969 Q555.45,260.3563 555.2531,260.5531 Q555.0563,260.75 554.75,260.75 Q554.4766,260.75 554.3016,260.6297 Q554.1266,260.5094 554.05,260.1922 Q554.0172,259.9734 553.8969,259.8531 Q553.6781,259.6234 553.2844,259.4922 Q552.8906,259.35 552.4969,259.35 Q552.0047,259.35 551.5891,259.5469 Q551.1844,259.7438 550.8672,260.1813 Q550.55,260.6188 550.55,261.2203 L550.55,261.8656 Q550.55,262.5875 551.1406,263.0687 Q551.7312,263.55 552.7813,263.55 Q553.4047,263.55 553.8422,263.4078 Q554.0938,263.3313 554.3781,263.0797 Q554.5641,262.9375 554.6625,262.8938 Q554.7609,262.85 554.8812,262.85 Q555.1109,262.85 555.275,263.0359 Q555.45,263.2109 555.45,263.4625 Q555.45,263.7031 555.2094,263.9875 Q554.8594,264.4031 554.3016,264.6328 Q553.5687,264.95 552.6719,264.95 Q551.6219,264.95 550.7797,264.5344 Q550.1016,264.2063 549.6203,263.4953 Q549.15,262.7844 549.15,261.9422 L549.15,261.1766 Q549.15,260.3016 549.5656,259.5359 Q549.9922,258.7703 550.725,258.3656 Q551.4688,257.95 552.3,257.95 Q552.8031,257.95 553.2406,258.125 Q553.6781,258.3 554.05,258.65 Z " fill="#000000"/><text fill="#000000" font-family="sans-serif" font-size="8.4" lengthAdjust="spacing" textLength="45.5" x="562.45" y="264.5371">TestMapper</text><line style="stroke:#A80036;stroke-width:1.0499999999999998;" x1="542.85" x2="609.35" y1="272.3" y2="272.3"/><line style="stroke:#A80036;stroke-width:1.0499999999999998;" x1="542.85" x2="609.35" y1="277.9" y2="277.9"/><ellipse cx="549.85" cy="285.6" fill="#84BE84" rx="2.1" ry="2.1" style="stroke:#038048;stroke-width:0.7;"/><text fill="#000000" font-family="sans-serif" font-size="7.7" lengthAdjust="spacing" textLength="43.4" x="556.15" y="288.6933">toDTO(tests)</text><!--MD5=[ae7e51bf7f64437d6b43a3b7d6fba6e1]
class SampleMapper--><rect codeLine="19" fill="#FEFECE" filter="url(#f1b4re3kqg0yab)" height="43.2852" id="SampleMapper" style="stroke:#A80036;stroke-width:1.0499999999999998;" width="81.2" x="436.1" y="249.9"/><ellipse cx="446.6" cy="261.1" fill="#ADD1B2" rx="7.7" ry="7.7" style="stroke:#A80036;stroke-width:0.7;"/><path d="M448,258.65 Q448.1422,258.3 448.3063,258.125 Q448.4703,257.95 448.6562,257.95 Q448.9844,257.95 449.1922,258.1469 Q449.4,258.3438 449.4,258.8031 L449.4,259.8969 Q449.4,260.3563 449.2031,260.5531 Q449.0062,260.75 448.7,260.75 Q448.4266,260.75 448.2516,260.6297 Q448.0766,260.5094 448,260.1922 Q447.9672,259.9734 447.8469,259.8531 Q447.6281,259.6234 447.2344,259.4922 Q446.8406,259.35 446.4469,259.35 Q445.9547,259.35 445.5391,259.5469 Q445.1344,259.7438 444.8172,260.1813 Q444.5,260.6188 444.5,261.2203 L444.5,261.8656 Q444.5,262.5875 445.0906,263.0687 Q445.6813,263.55 446.7313,263.55 Q447.3547,263.55 447.7922,263.4078 Q448.0438,263.3313 448.3281,263.0797 Q448.5141,262.9375 448.6125,262.8938 Q448.7109,262.85 448.8312,262.85 Q449.0609,262.85 449.225,263.0359 Q449.4,263.2109 449.4,263.4625 Q449.4,263.7031 449.1594,263.9875 Q448.8094,264.4031 448.2516,264.6328 Q447.5187,264.95 446.6219,264.95 Q445.5719,264.95 444.7297,264.5344 Q444.0516,264.2063 443.5703,263.4953 Q443.1,262.7844 443.1,261.9422 L443.1,261.1766 Q443.1,260.3016 443.5156,259.5359 Q443.9422,258.7703 444.675,258.3656 Q445.4188,257.95 446.25,257.95 Q446.7531,257.95 447.1906,258.125 Q447.6281,258.3 448,258.65 Z " fill="#000000"/><text fill="#000000" font-family="sans-serif" font-size="8.4" lengthAdjust="spacing" textLength="58.8" x="456.4" y="264.5371">SampleMapper</text><line style="stroke:#A80036;stroke-width:1.0499999999999998;" x1="436.8" x2="516.6" y1="272.3" y2="272.3"/><line style="stroke:#A80036;stroke-width:1.0499999999999998;" x1="436.8" x2="516.6" y1="277.9" y2="277.9"/><ellipse cx="443.8" cy="285.6" fill="#84BE84" rx="2.1" ry="2.1" style="stroke:#038048;stroke-width:0.7;"/><text fill="#000000" font-family="sans-serif" font-size="7.7" lengthAdjust="spacing" textLength="31.5" x="450.1" y="288.6933">toModel()</text><!--MD5=[f3e1cea714716315318addd6917e91a9]
class SampleDTO--><rect codeLine="23" fill="#FEFECE" filter="url(#f1b4re3kqg0yab)" height="52.9703" id="SampleDTO" style="stroke:#A80036;stroke-width:1.0499999999999998;" width="70" x="452.9" y="382.55"/><ellipse cx="463.4" cy="393.75" fill="#ADD1B2" rx="7.7" ry="7.7" style="stroke:#A80036;stroke-width:0.7;"/><path d="M464.8,391.3 Q464.9422,390.95 465.1063,390.775 Q465.2703,390.6 465.4562,390.6 Q465.7844,390.6 465.9922,390.7969 Q466.2,390.9938 466.2,391.4531 L466.2,392.5469 Q466.2,393.0062 466.0031,393.2031 Q465.8063,393.4 465.5,393.4 Q465.2266,393.4 465.0516,393.2797 Q464.8766,393.1594 464.8,392.8422 Q464.7672,392.6234 464.6469,392.5031 Q464.4281,392.2734 464.0344,392.1422 Q463.6406,392 463.2469,392 Q462.7547,392 462.3391,392.1969 Q461.9344,392.3937 461.6172,392.8312 Q461.3,393.2687 461.3,393.8703 L461.3,394.5156 Q461.3,395.2375 461.8906,395.7188 Q462.4813,396.2 463.5312,396.2 Q464.1547,396.2 464.5922,396.0578 Q464.8437,395.9813 465.1281,395.7297 Q465.3141,395.5875 465.4125,395.5438 Q465.5109,395.5 465.6312,395.5 Q465.8609,395.5 466.025,395.6859 Q466.2,395.8609 466.2,396.1125 Q466.2,396.3531 465.9594,396.6375 Q465.6094,397.0531 465.0516,397.2828 Q464.3187,397.6 463.4219,397.6 Q462.3719,397.6 461.5297,397.1844 Q460.8516,396.8563 460.3703,396.1453 Q459.9,395.4344 459.9,394.5922 L459.9,393.8266 Q459.9,392.9516 460.3156,392.1859 Q460.7422,391.4203 461.475,391.0156 Q462.2187,390.6 463.05,390.6 Q463.5531,390.6 463.9906,390.775 Q464.4281,390.95 464.8,391.3 Z " fill="#000000"/><text fill="#000000" font-family="sans-serif" font-size="8.4" lengthAdjust="spacing" textLength="47.6" x="473.2" y="397.1871">SampleDTO</text><line style="stroke:#A80036;stroke-width:1.0499999999999998;" x1="453.6" x2="522.2" y1="404.95" y2="404.95"/><rect fill="none" height="4.2" style="stroke:#C82930;stroke-width:0.7;" width="4.2" x="458.5" y="410.55"/><text fill="#000000" font-family="sans-serif" font-size="7.7" lengthAdjust="spacing" textLength="23.8" x="466.9" y="415.7433">orderid</text><line style="stroke:#A80036;stroke-width:1.0499999999999998;" x1="453.6" x2="522.2" y1="420.2352" y2="420.2352"/><ellipse cx="460.6" cy="427.9352" fill="#84BE84" rx="2.1" ry="2.1" style="stroke:#038048;stroke-width:0.7;"/><text fill="#000000" font-family="sans-serif" font-size="7.7" lengthAdjust="spacing" textLength="41.3" x="466.9" y="431.0284">getOrderid()</text><!--MD5=[9fb704ffefcaf68bf1a361787afa998b]
class TestDTO--><rect codeLine="24" fill="#FEFECE" filter="url(#f1b4re3kqg0yab)" height="82.0258" id="TestDTO" style="stroke:#A80036;stroke-width:1.0499999999999998;" width="56.7" x="547.75" y="368.2"/><ellipse cx="558.25" cy="379.4" fill="#ADD1B2" rx="7.7" ry="7.7" style="stroke:#A80036;stroke-width:0.7;"/><path d="M559.65,376.95 Q559.7922,376.6 559.9563,376.425 Q560.1203,376.25 560.3063,376.25 Q560.6344,376.25 560.8422,376.4469 Q561.05,376.6437 561.05,377.1031 L561.05,378.1969 Q561.05,378.6563 560.8531,378.8531 Q560.6563,379.05 560.35,379.05 Q560.0766,379.05 559.9016,378.9297 Q559.7266,378.8094 559.65,378.4922 Q559.6172,378.2734 559.4969,378.1531 Q559.2781,377.9234 558.8844,377.7922 Q558.4906,377.65 558.0969,377.65 Q557.6047,377.65 557.1891,377.8469 Q556.7844,378.0438 556.4672,378.4813 Q556.15,378.9188 556.15,379.5203 L556.15,380.1656 Q556.15,380.8875 556.7406,381.3688 Q557.3313,381.85 558.3812,381.85 Q559.0047,381.85 559.4422,381.7078 Q559.6937,381.6312 559.9781,381.3797 Q560.1641,381.2375 560.2625,381.1937 Q560.3609,381.15 560.4812,381.15 Q560.7109,381.15 560.875,381.3359 Q561.05,381.5109 561.05,381.7625 Q561.05,382.0031 560.8094,382.2875 Q560.4594,382.7031 559.9016,382.9328 Q559.1687,383.25 558.2719,383.25 Q557.2219,383.25 556.3797,382.8344 Q555.7016,382.5062 555.2203,381.7953 Q554.75,381.0844 554.75,380.2422 L554.75,379.4766 Q554.75,378.6016 555.1656,377.8359 Q555.5922,377.0703 556.325,376.6656 Q557.0687,376.25 557.9,376.25 Q558.4031,376.25 558.8406,376.425 Q559.2781,376.6 559.65,376.95 Z " fill="#000000"/><text fill="#000000" font-family="sans-serif" font-size="8.4" lengthAdjust="spacing" textLength="34.3" x="568.05" y="382.8371">TestDTO</text><line style="stroke:#A80036;stroke-width:1.0499999999999998;" x1="548.45" x2="603.75" y1="390.6" y2="390.6"/><rect fill="none" height="4.2" style="stroke:#C82930;stroke-width:0.7;" width="4.2" x="553.35" y="396.2"/><text fill="#000000" font-family="sans-serif" font-size="7.7" lengthAdjust="spacing" textLength="32.2" x="561.75" y="401.3933">LabOrder</text><rect fill="none" height="4.2" style="stroke:#C82930;stroke-width:0.7;" width="4.2" x="553.35" y="405.8852"/><text fill="#000000" font-family="sans-serif" font-size="7.7" lengthAdjust="spacing" textLength="24.5" x="561.75" y="411.0784">Sample</text><rect fill="none" height="4.2" style="stroke:#C82930;stroke-width:0.7;" width="4.2" x="553.35" y="415.5703"/><text fill="#000000" font-family="sans-serif" font-size="7.7" lengthAdjust="spacing" textLength="16.8" x="561.75" y="420.7636">code</text><rect fill="none" height="4.2" style="stroke:#C82930;stroke-width:0.7;" width="4.2" x="553.35" y="425.2555"/><text fill="#000000" font-family="sans-serif" font-size="7.7" lengthAdjust="spacing" textLength="17.5" x="561.75" y="430.4487">client</text><rect fill="none" height="4.2" style="stroke:#C82930;stroke-width:0.7;" width="4.2" x="553.35" y="434.9406"/><text fill="#000000" font-family="sans-serif" font-size="7.7" lengthAdjust="spacing" textLength="29.4" x="561.75" y="440.1339">nhscode</text><line style="stroke:#A80036;stroke-width:1.0499999999999998;" x1="548.45" x2="603.75" y1="444.6258" y2="444.6258"/><!--MD5=[b07fc2b2aa91da2436cc249a96980d64]
link RecordSampleUI to RecordSampleController--><path codeLine="28" d="M610.876,63.063 C588.357,78.204 554.015,101.297 525.714,120.337 " fill="none" id="RecordSampleUI-to-RecordSampleController" style="stroke:#A80036;stroke-width:0.7;stroke-dasharray:7.0,7.0;"/><polygon fill="#A80036" points="522.648,122.395,529.4403,121.214,525.5556,120.4466,526.3229,116.5619,522.648,122.395" style="stroke:#A80036;stroke-width:0.7;"/><!--MD5=[ccf558741c2fb5a5f538be9d3a954f59]
link RecordSampleController to Company--><path codeLine="29" d="M445.305,185.535 C427.364,203.161 405.02,225.106 387.478,242.34 " fill="none" id="RecordSampleController-to-Company" style="stroke:#A80036;stroke-width:0.7;stroke-dasharray:7.0,7.0;"/><polygon fill="#A80036" points="384.923,244.846,391.3726,242.4102,387.4128,242.3862,387.4368,238.4264,384.923,244.846" style="stroke:#A80036;stroke-width:0.7;"/><!--MD5=[46ce183c027ced3c8d5e339377570598]
link RecordSampleController to Sample--><path codeLine="30" d="M417.417,157.766 C345.317,165.06 233.1,189.483 233.1,270.9 C233.1,270.9 233.1,270.9 233.1,567.35 C233.1,606.151 245.266,649.145 255.388,678.216 " fill="none" id="RecordSampleController-to-Sample" style="stroke:#A80036;stroke-width:0.7;stroke-dasharray:7.0,7.0;"/><polygon fill="#A80036" points="256.613,681.688,257.1468,674.8145,255.4434,678.3892,251.8687,676.6858,256.613,681.688" style="stroke:#A80036;stroke-width:0.7;"/><!--MD5=[aa7c76cfa0b9d80d0d0bfbab322591d0]
link RecordSampleController to TestMapper--><path codeLine="31" d="M504.861,185.654 C513.023,194.768 521.892,204.82 529.9,214.2 C538.944,224.791 548.716,236.719 556.941,246.89 " fill="none" id="RecordSampleController-to-TestMapper" style="stroke:#A80036;stroke-width:0.7;stroke-dasharray:7.0,7.0;"/><polygon fill="#A80036" points="559.216,249.711,557.4579,243.0447,557.0259,246.9809,553.0897,246.5489,559.216,249.711" style="stroke:#A80036;stroke-width:0.7;"/><!--MD5=[a7cbd6ea75f3dbf8a10370ef60b1951f]
link RecordSampleController to SampleDTO--><path codeLine="32" d="M535.899,163.086 C566.979,170.821 602.483,185.682 621.6,214.2 C645.337,249.606 646.772,275.709 621.6,310.1 C597.891,342.496 567.609,313.306 535.5,337.4 C521.038,348.257 509.565,364.861 501.508,379.288 " fill="none" id="RecordSampleController-to-SampleDTO" style="stroke:#A80036;stroke-width:0.7;stroke-dasharray:7.0,7.0;"/><polygon fill="#A80036" points="499.737,382.522,505.2176,378.3395,501.4172,379.4517,500.3051,375.6512,499.737,382.522" style="stroke:#A80036;stroke-width:0.7;"/><!--MD5=[e5a9667c400772c28cc59b9168c63c65]
link RecordSampleController to SampleMapper--><path codeLine="33" d="M476.7,185.535 C476.7,204.491 476.7,228.459 476.7,246.169 " fill="none" id="RecordSampleController-to-SampleMapper" style="stroke:#A80036;stroke-width:0.7;stroke-dasharray:7.0,7.0;"/><polygon fill="#A80036" points="476.7,249.844,479.5,243.544,476.7,246.344,473.9,243.544,476.7,249.844" style="stroke:#A80036;stroke-width:0.7;"/><!--MD5=[5bb931d09ab0aebfaada3d823529a93c]
link RecordSampleController to TestStore--><path codeLine="34" d="M417.375,158.774 C379.337,164.815 332.626,179.403 308,214.2 C271.586,265.657 301.455,344.386 320.726,383.957 " fill="none" id="RecordSampleController-to-TestStore" style="stroke:#A80036;stroke-width:0.7;stroke-dasharray:7.0,7.0;"/><polygon fill="#A80036" points="322.329,387.198,322.0511,380.3094,320.7798,384.0595,317.0296,382.7882,322.329,387.198" style="stroke:#A80036;stroke-width:0.7;"/><!--MD5=[6d89e5da8e6b6c740cd48cd2120910ce]
link RecordSampleUI to TestDTO--><path codeLine="36" d="M639.758,63.161 C651.497,105.266 678.356,220.801 648.9,310.1 C640.528,335.482 622.804,359.667 606.935,377.706 " fill="none" id="RecordSampleUI-to-TestDTO" style="stroke:#A80036;stroke-width:0.7;stroke-dasharray:7.0,7.0;"/><polygon fill="#A80036" points="604.611,380.324,610.8892,377.4755,606.9363,377.7081,606.7037,373.7551,604.611,380.324" style="stroke:#A80036;stroke-width:0.7;"/><!--MD5=[b72ac8ab7fb5921fceb5036a3902baea]
link Test to Sample--><path codeLine="50" d="M309.512,627.27 C301.196,644.707 292.39,663.152 285.11,678.412 " fill="none" id="Test-to-Sample" style="stroke:#A80036;stroke-width:0.7;"/><polygon fill="#A80036" points="283.584,681.618,288.8151,677.1274,285.0849,678.4561,283.7561,674.7259,283.584,681.618" style="stroke:#A80036;stroke-width:0.7;"/><text fill="#000000" font-family="sans-serif" font-size="9.1" lengthAdjust="spacing" textLength="14.7" x="299.6" y="658.3466">has</text><text fill="#000000" font-family="sans-serif" font-size="9.1" lengthAdjust="spacing" textLength="4.9" x="302.1387" y="642.0166">1</text><text fill="#000000" font-family="sans-serif" font-size="9.1" lengthAdjust="spacing" textLength="3.5" x="282.0798" y="674.201">*</text><!--MD5=[7f6cf7f175eae0af66201860de5de971]
link Company to TestStore--><path codeLine="52" d="M353.731,298.228 C349.3,322.861 342.685,359.639 338.331,383.831 " fill="none" id="Company-to-TestStore" style="stroke:#A80036;stroke-width:0.7;"/><polygon fill="#A80036" points="337.708,387.31,341.5811,381.6065,338.3288,383.8655,336.0699,380.6132,337.708,387.31" style="stroke:#A80036;stroke-width:0.7;"/><text fill="#000000" font-family="sans-serif" font-size="9.1" lengthAdjust="spacing" textLength="14.7" x="350" y="329.3466">has</text><text fill="#000000" font-family="sans-serif" font-size="9.1" lengthAdjust="spacing" textLength="4.9" x="347.6519" y="313.0517">1</text><text fill="#000000" font-family="sans-serif" font-size="9.1" lengthAdjust="spacing" textLength="4.9" x="333.0881" y="379.9343">1</text><!--MD5=[f6fda4afaf882dd39139bcbf06c50c8c]
link TestMapper to TestDTO--><path codeLine="56" d="M576.1,293.573 C576.1,312.459 576.1,340.655 576.1,364.385 " fill="none" id="TestMapper-to-TestDTO" style="stroke:#A80036;stroke-width:0.7;stroke-dasharray:7.0,7.0;"/><polygon fill="#A80036" points="576.1,368.151,578.9,361.851,576.1,364.651,573.3,361.851,576.1,368.151" style="stroke:#A80036;stroke-width:0.7;"/><!--MD5=[be3b39c7463182027323f9c0e531e936]
link TestDTO to Test--><path codeLine="57" d="M551.117,450.324 C546.385,456.309 541.128,462.077 535.5,466.9 C494.088,502.397 437.752,529.032 395.857,545.685 " fill="none" id="TestDTO-to-Test" style="stroke:#A80036;stroke-width:0.7;stroke-dasharray:7.0,7.0;"/><polygon fill="#A80036" points="392.357,547.071,399.2453,547.3565,395.6115,545.7832,397.1848,542.1494,392.357,547.071" style="stroke:#A80036;stroke-width:0.7;"/><!--MD5=[b0f4f6db8206580012ef9cd998ed01c5]
link TestStore to Test--><path codeLine="60" d="M334.467,430.899 C334.957,449.225 335.699,476.763 336.385,502.201 " fill="none" id="TestStore-to-Test" style="stroke:#A80036;stroke-width:0.7;"/><polygon fill="#A80036" points="336.483,505.939,339.1019,499.5616,336.383,502.4404,333.5042,499.7215,336.483,505.939" style="stroke:#A80036;stroke-width:0.7;"/><text fill="#000000" font-family="sans-serif" font-size="9.1" lengthAdjust="spacing" textLength="16.1" x="336" y="482.6466">Has</text><text fill="#000000" font-family="sans-serif" font-size="9.1" lengthAdjust="spacing" textLength="4.9" x="329.1963" y="445.7654">1</text><text fill="#000000" font-family="sans-serif" font-size="9.1" lengthAdjust="spacing" textLength="3.5" x="332.6936" y="498.5119">*</text><!--MD5=[081a105d9ba373b8c9f4c038e84d1e03]
link SampleMapper to SampleDTO--><path codeLine="61" d="M478.45,293.573 C480.333,316.456 483.336,353.01 485.457,378.728 " fill="none" id="SampleMapper-to-SampleDTO" style="stroke:#A80036;stroke-width:0.7;stroke-dasharray:7.0,7.0;"/><polygon fill="#A80036" points="485.758,382.438,488.0452,375.9343,485.4781,378.9492,482.4631,376.3821,485.758,382.438" style="stroke:#A80036;stroke-width:0.7;"/><!--MD5=[c88f814ecc8e75286b0c0023c0833471]
link TestMapper to TestStore--><path codeLine="64" d="M553.854,293.405 C546.63,299.439 538.3,305.585 529.9,310.1 C493.752,329.518 478.8,319.865 441.7,337.4 C413.98,350.497 385.112,369.88 364.231,385.098 " fill="none" id="TestMapper-to-TestStore" style="stroke:#A80036;stroke-width:0.7;stroke-dasharray:7.0,7.0;"/><polygon fill="#A80036" points="361.207,387.31,367.9425,385.8392,364.0285,385.2389,364.6288,381.3249,361.207,387.31" style="stroke:#A80036;stroke-width:0.7;"/><!--MD5=[7ae31b06ecb5db678e40497ee74dd179]
link Test to LabOrder--><path codeLine="66" d="M349.937,627.27 C353.745,646.52 357.791,667.002 360.969,683.074 " fill="none" id="Test-to-LabOrder" style="stroke:#A80036;stroke-width:0.7;"/><polygon fill="#A80036" points="361.669,686.644,363.1904,679.9198,360.9884,683.2108,357.6973,681.0088,361.669,686.644" style="stroke:#A80036;stroke-width:0.7;"/><text fill="#000000" font-family="sans-serif" font-size="9.1" lengthAdjust="spacing" textLength="14.7" x="356.3" y="658.3466">has</text><text fill="#000000" font-family="sans-serif" font-size="9.1" lengthAdjust="spacing" textLength="4.9" x="345.785" y="642.0166">1</text><text fill="#000000" font-family="sans-serif" font-size="9.1" lengthAdjust="spacing" textLength="4.9" x="355.4186" y="679.1874">1</text><!--MD5=[3f5983f8009cc11d6ffa7fbef99c5461]
link SampleMapper to TestStore--><path codeLine="75" d="M454.384,293.573 C428.4,318.353 385.595,359.163 358.617,384.888 " fill="none" id="SampleMapper-to-TestStore" style="stroke:#A80036;stroke-width:0.7;stroke-dasharray:7.0,7.0;"/><polygon fill="#A80036" points="356.055,387.324,362.5431,384.9927,358.5842,384.9047,358.6722,380.9459,356.055,387.324" style="stroke:#A80036;stroke-width:0.7;"/><!--MD5=[7116ba69743c09e9de143a23f3e84625]
link Sample to ApiBarcode--><path codeLine="77" d="M283.843,744.835 C293.174,763.952 304.983,788.158 313.649,805.91 " fill="none" id="Sample-to-ApiBarcode" style="stroke:#A80036;stroke-width:0.7;"/><polygon fill="#A80036" points="315.224,809.144,314.9638,802.2547,313.6828,806.0016,309.9359,804.7206,315.224,809.144" style="stroke:#A80036;stroke-width:0.7;"/><text fill="#000000" font-family="sans-serif" font-size="9.1" lengthAdjust="spacing" textLength="54.6" x="298.9" y="775.9466">makes use of</text><text fill="#000000" font-family="sans-serif" font-size="9.1" lengthAdjust="spacing" textLength="14" x="270.974" y="759.5452">1..*</text><text fill="#000000" font-family="sans-serif" font-size="9.1" lengthAdjust="spacing" textLength="4.9" x="307.5402" y="801.4459">1</text><!--MD5=[9191d7b7e5c5d78bd11b44e3739e6984]
link BarcodeAdapter to ApiBarcode--><path codeLine="79" d="M163.275,735.042 C198.016,755.419 250.558,786.24 286.363,807.24 " fill="none" id="BarcodeAdapter-to-ApiBarcode" style="stroke:#A80036;stroke-width:0.7;stroke-dasharray:7.0,7.0;"/><polygon fill="#A80036" points="289.555,809.116,285.5355,803.5148,286.5354,807.3462,282.7039,808.3461,289.555,809.116" style="stroke:#A80036;stroke-width:0.7;"/><!--MD5=[a2c13215787d2b0b04028d3ce7cea70e]
link BarcodeAdapter to BarcodeCreate--><path codeLine="81" d="M127.148,735.042 C126.945,751.912 126.651,775.936 126.42,795.627 " fill="none" id="BarcodeAdapter-to-BarcodeCreate" style="stroke:#A80036;stroke-width:0.7;"/><polygon fill="#A80036" points="126.371,799.246,129.2428,792.9784,126.411,795.7462,123.6432,792.9144,126.371,799.246" style="stroke:#A80036;stroke-width:0.7;"/><!--MD5=[f13fc12393cbdf513f3979bec70672bf]
@startuml
package "UI" {
  Class RecordSampleUI
}
package "Controllers" {
 Class RecordSampleController
}
package "Domain" {
 Class Company
Class Sample
Class TestStore
Class Test
Class LabOrder
Interface ApiBarcode
Class BarcodeAdapter
Class BarcodeCreate
}
package "Mapper" {
Class TestMapper
Class SampleMapper

}
package "Dto"{
Class SampleDTO
Class TestDTO
}


RecordSampleUI ..> RecordSampleController
RecordSampleController..>Company
RecordSampleController..>Sample
RecordSampleController..>TestMapper
RecordSampleController..>SampleDTO
RecordSampleController..>SampleMapper
RecordSampleController..>TestStore

RecordSampleUI ..> TestDTO








RecordSampleController : +RecordNewSample(dto)
RecordSampleController : +saveNewSample()
RecordSampleController : +getTest()


Test"1" - ->"*" Sample: has

Company"1" - ->"1" TestStore :has

TestStore : +getTestByTestTypeCode(testid)

TestMapper ..> TestDTO
TestDTO..> Test


TestStore"1" - ->"*"Test : Has
SampleMapper ..> SampleDTO


TestMapper ..> TestStore

Test "1" - -> "1" LabOrder : has
LabOrder : -testType
LabOrder : -parameters


TestMapper : +toDTO(tests)

SampleMapper : +toModel()

SampleMapper ..> TestStore

Sample"1..*" - ->"1"ApiBarcode : makes use of

BarcodeAdapter  ..> ApiBarcode

BarcodeAdapter - -> BarcodeCreate


ApiBarcode : +BarcodeCreate makeUPCABarcode()

BarcodeAdapter : +BarcodeCreate makeUPCABarcode()

BarcodeCreate : +BarcodeCreate(Object barcode, String barcodeNumber)
BarcodeCreate : -barcode
BarcodeCreate : -barcodeNumber


Company : +getTestStore()
Company : +getSampleStore()

Test : +RecordNewSample(tdo)
Test : +validateNewSample(samp)
Test : +saveNewSample(samp)
Test : +addNewSample(samp)
Test : -LabOrder
Test : -Sample
Test : -code
Test : -client
Test : -nhscode


TestDTO : -LabOrder
TestDTO : -Sample
TestDTO : -code
TestDTO : -client
TestDTO : -nhscode

SampleDTO : +getOrderid()



SampleDTO : -orderid


Sample : +Sample()
Sample : +getBarcodecreator()
Sample : -barcode
@enduml

PlantUML version 1.2021.00(Sun Jan 10 10:25:05 GMT 2021)
(GPL source distribution)
Java Runtime: OpenJDK Runtime Environment
JVM: OpenJDK 64-Bit Server VM
Default Encoding: Cp1252
Language: pt
Country: PT
--></g></svg>