<?xml version="1.0" encoding="UTF-8" standalone="no"?><svg xmlns="http://www.w3.org/2000/svg" xmlns:xlink="http://www.w3.org/1999/xlink" contentScriptType="application/ecmascript" contentStyleType="text/css" height="714.7px" preserveAspectRatio="none" style="width:494px;height:714px;" version="1.1" viewBox="0 0 494 714" width="494.2px" zoomAndPan="magnify"><defs><filter height="300%" id="ftyexxb7qwyfq" width="300%" x="-1" y="-1"><feGaussianBlur result="blurOut" stdDeviation="1.4"/><feColorMatrix in="blurOut" result="blurOut2" type="matrix" values="0 0 0 0 0 0 0 0 0 0 0 0 0 0 0 0 0 0 .4 0"/><feOffset dx="2.8" dy="2.8" in="blurOut2" result="blurOut3"/><feBlend in="SourceGraphic" in2="blurOut3" mode="normal"/></filter></defs><g><!--MD5=[c787e3ea7cba08b6686a91ad4338f70b]
class ApiBarcode--><rect codeLine="1" fill="#FEFECE" filter="url(#ftyexxb7qwyfq)" height="43.2852" id="ApiBarcode" style="stroke:#A80036;stroke-width:1.0499999999999998;" width="142.8" x="4.9" y="652.4"/><ellipse cx="50.925" cy="663.6" fill="#B4A7E5" rx="7.7" ry="7.7" style="stroke:#A80036;stroke-width:0.7;"/><path d="M51.625,661.5 L51.625,665.7 L53.025,665.7 L53.3641,665.7 L53.725,666.1375 L53.725,666.4 L53.725,666.6625 L53.3641,667.1 L53.025,667.1 L48.825,667.1 L48.4859,667.1 L48.125,666.6625 L48.125,666.4 L48.125,666.1375 L48.4859,665.7 L48.825,665.7 L50.225,665.7 L50.225,661.5 L48.825,661.5 L48.4859,661.5 L48.125,661.0625 L48.125,660.8 L48.125,660.5375 L48.4859,660.1 L48.825,660.1 L53.025,660.1 L53.3641,660.1 L53.725,660.5375 L53.725,660.8 L53.725,661.0625 L53.3641,661.5 L53.025,661.5 L51.625,661.5 Z " fill="#000000"/><text fill="#000000" font-family="sans-serif" font-size="8.4" font-style="italic" lengthAdjust="spacing" textLength="44.8" x="65.275" y="667.0371">ApiBarcode</text><line style="stroke:#A80036;stroke-width:1.0499999999999998;" x1="5.6" x2="147" y1="674.8" y2="674.8"/><line style="stroke:#A80036;stroke-width:1.0499999999999998;" x1="5.6" x2="147" y1="680.4" y2="680.4"/><ellipse cx="12.6" cy="688.1" fill="#84BE84" rx="2.1" ry="2.1" style="stroke:#038048;stroke-width:0.7;"/><text fill="#000000" font-family="sans-serif" font-size="7.7" lengthAdjust="spacing" textLength="124.6" x="18.9" y="691.1933">BarcodeCreate makeUPCABarcode()</text><!--MD5=[05ffea613565d111e9c4a041147710d4]
class RecordSampleUI--><rect fill="#FEFECE" filter="url(#ftyexxb7qwyfq)" height="33.6" id="RecordSampleUI" style="stroke:#A80036;stroke-width:1.0499999999999998;" width="88.9" x="217.35" y="4.9"/><ellipse cx="227.85" cy="16.1" fill="#ADD1B2" rx="7.7" ry="7.7" style="stroke:#A80036;stroke-width:0.7;"/><path d="M229.25,13.65 Q229.3922,13.3 229.5562,13.125 Q229.7203,12.95 229.9062,12.95 Q230.2344,12.95 230.4422,13.1469 Q230.65,13.3438 230.65,13.8031 L230.65,14.8969 Q230.65,15.3563 230.4531,15.5531 Q230.2563,15.75 229.95,15.75 Q229.6766,15.75 229.5016,15.6297 Q229.3266,15.5094 229.25,15.1922 Q229.2172,14.9734 229.0969,14.8531 Q228.8781,14.6234 228.4844,14.4922 Q228.0906,14.35 227.6969,14.35 Q227.2047,14.35 226.7891,14.5469 Q226.3844,14.7437 226.0672,15.1812 Q225.75,15.6187 225.75,16.2203 L225.75,16.8656 Q225.75,17.5875 226.3406,18.0687 Q226.9312,18.55 227.9813,18.55 Q228.6047,18.55 229.0422,18.4078 Q229.2938,18.3312 229.5781,18.0797 Q229.7641,17.9375 229.8625,17.8937 Q229.9609,17.85 230.0812,17.85 Q230.3109,17.85 230.475,18.0359 Q230.65,18.2109 230.65,18.4625 Q230.65,18.7031 230.4094,18.9875 Q230.0594,19.4031 229.5016,19.6328 Q228.7687,19.95 227.8719,19.95 Q226.8219,19.95 225.9797,19.5344 Q225.3016,19.2062 224.8203,18.4953 Q224.35,17.7844 224.35,16.9422 L224.35,16.1766 Q224.35,15.3016 224.7656,14.5359 Q225.1922,13.7703 225.925,13.3656 Q226.6688,12.95 227.5,12.95 Q228.0031,12.95 228.4406,13.125 Q228.8781,13.3 229.25,13.65 Z " fill="#000000"/><text fill="#000000" font-family="sans-serif" font-size="8.4" lengthAdjust="spacing" textLength="66.5" x="237.65" y="19.5371">RecordSampleUI</text><line style="stroke:#A80036;stroke-width:1.0499999999999998;" x1="218.05" x2="305.55" y1="27.3" y2="27.3"/><line style="stroke:#A80036;stroke-width:1.0499999999999998;" x1="218.05" x2="305.55" y1="32.9" y2="32.9"/><!--MD5=[ecb4b8913618184ce1e3f8e48e5e993f]
class RecordSampleController--><rect fill="#FEFECE" filter="url(#ftyexxb7qwyfq)" height="62.6555" id="RecordSampleController" style="stroke:#A80036;stroke-width:1.0499999999999998;" width="118.3" x="202.65" y="81.2"/><ellipse cx="213.15" cy="92.4" fill="#ADD1B2" rx="7.7" ry="7.7" style="stroke:#A80036;stroke-width:0.7;"/><path d="M214.55,89.95 Q214.6922,89.6 214.8563,89.425 Q215.0203,89.25 215.2062,89.25 Q215.5344,89.25 215.7422,89.4469 Q215.95,89.6438 215.95,90.1031 L215.95,91.1969 Q215.95,91.6563 215.7531,91.8531 Q215.5562,92.05 215.25,92.05 Q214.9766,92.05 214.8016,91.9297 Q214.6266,91.8094 214.55,91.4922 Q214.5172,91.2734 214.3969,91.1531 Q214.1781,90.9234 213.7844,90.7922 Q213.3906,90.65 212.9969,90.65 Q212.5047,90.65 212.0891,90.8469 Q211.6844,91.0437 211.3672,91.4812 Q211.05,91.9187 211.05,92.5203 L211.05,93.1656 Q211.05,93.8875 211.6406,94.3687 Q212.2313,94.85 213.2813,94.85 Q213.9047,94.85 214.3422,94.7078 Q214.5938,94.6313 214.8781,94.3797 Q215.0641,94.2375 215.1625,94.1938 Q215.2609,94.15 215.3813,94.15 Q215.6109,94.15 215.775,94.3359 Q215.95,94.5109 215.95,94.7625 Q215.95,95.0031 215.7094,95.2875 Q215.3594,95.7031 214.8016,95.9328 Q214.0688,96.25 213.1719,96.25 Q212.1219,96.25 211.2797,95.8344 Q210.6016,95.5063 210.1203,94.7953 Q209.65,94.0844 209.65,93.2422 L209.65,92.4766 Q209.65,91.6016 210.0656,90.8359 Q210.4922,90.0703 211.225,89.6656 Q211.9688,89.25 212.8,89.25 Q213.3031,89.25 213.7406,89.425 Q214.1781,89.6 214.55,89.95 Z " fill="#000000"/><text fill="#000000" font-family="sans-serif" font-size="8.4" lengthAdjust="spacing" textLength="95.9" x="222.95" y="95.8371">RecordSampleController</text><line style="stroke:#A80036;stroke-width:1.0499999999999998;" x1="203.35" x2="320.25" y1="103.6" y2="103.6"/><line style="stroke:#A80036;stroke-width:1.0499999999999998;" x1="203.35" x2="320.25" y1="109.2" y2="109.2"/><ellipse cx="210.35" cy="116.9" fill="#84BE84" rx="2.1" ry="2.1" style="stroke:#038048;stroke-width:0.7;"/><text fill="#000000" font-family="sans-serif" font-size="7.7" lengthAdjust="spacing" textLength="81.2" x="216.65" y="119.9933">RecordNewSample(dto)</text><ellipse cx="210.35" cy="126.5852" fill="#84BE84" rx="2.1" ry="2.1" style="stroke:#038048;stroke-width:0.7;"/><text fill="#000000" font-family="sans-serif" font-size="7.7" lengthAdjust="spacing" textLength="63" x="216.65" y="129.6784">saveNewSample()</text><ellipse cx="210.35" cy="136.2703" fill="#84BE84" rx="2.1" ry="2.1" style="stroke:#038048;stroke-width:0.7;"/><text fill="#000000" font-family="sans-serif" font-size="7.7" lengthAdjust="spacing" textLength="30.8" x="216.65" y="139.3636">getTest()</text><!--MD5=[02e4b9b7573f1156f41e60aa5b4e25a4]
class Company--><rect fill="#FEFECE" filter="url(#ftyexxb7qwyfq)" height="52.9703" id="Company" style="stroke:#A80036;stroke-width:1.0499999999999998;" width="77" x="163.1" y="186.9"/><ellipse cx="181.475" cy="198.1" fill="#ADD1B2" rx="7.7" ry="7.7" style="stroke:#A80036;stroke-width:0.7;"/><path d="M182.875,195.65 Q183.0172,195.3 183.1812,195.125 Q183.3453,194.95 183.5313,194.95 Q183.8594,194.95 184.0672,195.1469 Q184.275,195.3438 184.275,195.8031 L184.275,196.8969 Q184.275,197.3563 184.0781,197.5531 Q183.8813,197.75 183.575,197.75 Q183.3016,197.75 183.1266,197.6297 Q182.9516,197.5094 182.875,197.1922 Q182.8422,196.9734 182.7219,196.8531 Q182.5031,196.6234 182.1094,196.4922 Q181.7156,196.35 181.3219,196.35 Q180.8297,196.35 180.4141,196.5469 Q180.0094,196.7437 179.6922,197.1812 Q179.375,197.6187 179.375,198.2203 L179.375,198.8656 Q179.375,199.5875 179.9656,200.0688 Q180.5562,200.55 181.6063,200.55 Q182.2297,200.55 182.6672,200.4078 Q182.9188,200.3312 183.2031,200.0797 Q183.3891,199.9375 183.4875,199.8937 Q183.5859,199.85 183.7062,199.85 Q183.9359,199.85 184.1,200.0359 Q184.275,200.2109 184.275,200.4625 Q184.275,200.7031 184.0344,200.9875 Q183.6844,201.4031 183.1266,201.6328 Q182.3937,201.95 181.4969,201.95 Q180.4469,201.95 179.6047,201.5344 Q178.9266,201.2062 178.4453,200.4953 Q177.975,199.7844 177.975,198.9422 L177.975,198.1766 Q177.975,197.3016 178.3906,196.5359 Q178.8172,195.7703 179.55,195.3656 Q180.2938,194.95 181.125,194.95 Q181.6281,194.95 182.0656,195.125 Q182.5031,195.3 182.875,195.65 Z " fill="#000000"/><text fill="#000000" font-family="sans-serif" font-size="8.4" lengthAdjust="spacing" textLength="37.1" x="193.025" y="201.5371">Company</text><line style="stroke:#A80036;stroke-width:1.0499999999999998;" x1="163.8" x2="239.4" y1="209.3" y2="209.3"/><line style="stroke:#A80036;stroke-width:1.0499999999999998;" x1="163.8" x2="239.4" y1="214.9" y2="214.9"/><ellipse cx="170.8" cy="222.6" fill="#84BE84" rx="2.1" ry="2.1" style="stroke:#038048;stroke-width:0.7;"/><text fill="#000000" font-family="sans-serif" font-size="7.7" lengthAdjust="spacing" textLength="49" x="177.1" y="225.6933">getTestStore()</text><ellipse cx="170.8" cy="232.2852" fill="#84BE84" rx="2.1" ry="2.1" style="stroke:#038048;stroke-width:0.7;"/><text fill="#000000" font-family="sans-serif" font-size="7.7" lengthAdjust="spacing" textLength="58.8" x="177.1" y="235.3784">getSampleStore()</text><!--MD5=[9681492165142af2a4a3a169d90ee8d4]
class Sample--><rect fill="#FEFECE" filter="url(#ftyexxb7qwyfq)" height="62.6555" id="Sample" style="stroke:#A80036;stroke-width:1.0499999999999998;" width="87.5" x="32.55" y="536.9"/><ellipse cx="58.8" cy="548.1" fill="#ADD1B2" rx="7.7" ry="7.7" style="stroke:#A80036;stroke-width:0.7;"/><path d="M60.2,545.65 Q60.3422,545.3 60.5062,545.125 Q60.6703,544.95 60.8562,544.95 Q61.1844,544.95 61.3922,545.1469 Q61.6,545.3438 61.6,545.8031 L61.6,546.8969 Q61.6,547.3562 61.4031,547.5531 Q61.2063,547.75 60.9,547.75 Q60.6266,547.75 60.4516,547.6297 Q60.2766,547.5094 60.2,547.1922 Q60.1672,546.9734 60.0469,546.8531 Q59.8281,546.6234 59.4344,546.4922 Q59.0406,546.35 58.6469,546.35 Q58.1547,546.35 57.7391,546.5469 Q57.3344,546.7438 57.0172,547.1813 Q56.7,547.6188 56.7,548.2203 L56.7,548.8656 Q56.7,549.5875 57.2906,550.0687 Q57.8812,550.55 58.9313,550.55 Q59.5547,550.55 59.9922,550.4078 Q60.2438,550.3313 60.5281,550.0797 Q60.7141,549.9375 60.8125,549.8938 Q60.9109,549.85 61.0312,549.85 Q61.2609,549.85 61.425,550.0359 Q61.6,550.2109 61.6,550.4625 Q61.6,550.7031 61.3594,550.9875 Q61.0094,551.4031 60.4516,551.6328 Q59.7187,551.95 58.8219,551.95 Q57.7719,551.95 56.9297,551.5344 Q56.2516,551.2063 55.7703,550.4953 Q55.3,549.7844 55.3,548.9422 L55.3,548.1766 Q55.3,547.3016 55.7156,546.5359 Q56.1422,545.7703 56.875,545.3656 Q57.6188,544.95 58.45,544.95 Q58.9531,544.95 59.3906,545.125 Q59.8281,545.3 60.2,545.65 Z " fill="#000000"/><text fill="#000000" font-family="sans-serif" font-size="8.4" lengthAdjust="spacing" textLength="30.1" x="72.1" y="551.5371">Sample</text><line style="stroke:#A80036;stroke-width:1.0499999999999998;" x1="33.25" x2="119.35" y1="559.3" y2="559.3"/><rect fill="none" height="4.2" style="stroke:#C82930;stroke-width:0.7;" width="4.2" x="38.15" y="564.9"/><text fill="#000000" font-family="sans-serif" font-size="7.7" lengthAdjust="spacing" textLength="28" x="46.55" y="570.0933">barcode</text><line style="stroke:#A80036;stroke-width:1.0499999999999998;" x1="33.25" x2="119.35" y1="574.5852" y2="574.5852"/><ellipse cx="40.25" cy="582.2852" fill="#84BE84" rx="2.1" ry="2.1" style="stroke:#038048;stroke-width:0.7;"/><text fill="#000000" font-family="sans-serif" font-size="7.7" lengthAdjust="spacing" textLength="30.1" x="46.55" y="585.3784">Sample()</text><ellipse cx="40.25" cy="591.9703" fill="#84BE84" rx="2.1" ry="2.1" style="stroke:#038048;stroke-width:0.7;"/><text fill="#000000" font-family="sans-serif" font-size="7.7" lengthAdjust="spacing" textLength="69.3" x="46.55" y="595.0636">getBarcodecreator()</text><!--MD5=[144698ec4d0188f6929a3b58a3eeb1f6]
class TestMapper--><rect fill="#FEFECE" filter="url(#ftyexxb7qwyfq)" height="43.2852" id="TestMapper" style="stroke:#A80036;stroke-width:1.0499999999999998;" width="67.9" x="264.95" y="191.8"/><ellipse cx="275.45" cy="203" fill="#ADD1B2" rx="7.7" ry="7.7" style="stroke:#A80036;stroke-width:0.7;"/><path d="M276.85,200.55 Q276.9922,200.2 277.1563,200.025 Q277.3203,199.85 277.5062,199.85 Q277.8344,199.85 278.0422,200.0469 Q278.25,200.2437 278.25,200.7031 L278.25,201.7969 Q278.25,202.2563 278.0531,202.4531 Q277.8563,202.65 277.55,202.65 Q277.2766,202.65 277.1016,202.5297 Q276.9266,202.4094 276.85,202.0922 Q276.8172,201.8734 276.6969,201.7531 Q276.4781,201.5234 276.0844,201.3922 Q275.6906,201.25 275.2969,201.25 Q274.8047,201.25 274.3891,201.4469 Q273.9844,201.6437 273.6672,202.0812 Q273.35,202.5187 273.35,203.1203 L273.35,203.7656 Q273.35,204.4875 273.9406,204.9688 Q274.5313,205.45 275.5812,205.45 Q276.2047,205.45 276.6422,205.3078 Q276.8937,205.2313 277.1781,204.9797 Q277.3641,204.8375 277.4625,204.7938 Q277.5609,204.75 277.6813,204.75 Q277.9109,204.75 278.075,204.9359 Q278.25,205.1109 278.25,205.3625 Q278.25,205.6031 278.0094,205.8875 Q277.6594,206.3031 277.1016,206.5328 Q276.3688,206.85 275.4719,206.85 Q274.4219,206.85 273.5797,206.4344 Q272.9016,206.1063 272.4203,205.3953 Q271.95,204.6844 271.95,203.8422 L271.95,203.0766 Q271.95,202.2016 272.3656,201.4359 Q272.7922,200.6703 273.525,200.2656 Q274.2687,199.85 275.1,199.85 Q275.6031,199.85 276.0406,200.025 Q276.4781,200.2 276.85,200.55 Z " fill="#000000"/><text fill="#000000" font-family="sans-serif" font-size="8.4" lengthAdjust="spacing" textLength="45.5" x="285.25" y="206.4371">TestMapper</text><line style="stroke:#A80036;stroke-width:1.0499999999999998;" x1="265.65" x2="332.15" y1="214.2" y2="214.2"/><line style="stroke:#A80036;stroke-width:1.0499999999999998;" x1="265.65" x2="332.15" y1="219.8" y2="219.8"/><ellipse cx="272.65" cy="227.5" fill="#84BE84" rx="2.1" ry="2.1" style="stroke:#038048;stroke-width:0.7;"/><text fill="#000000" font-family="sans-serif" font-size="7.7" lengthAdjust="spacing" textLength="43.4" x="278.95" y="230.5933">toDTO(tests)</text><!--MD5=[f3e1cea714716315318addd6917e91a9]
class SampleDTO--><rect fill="#FEFECE" filter="url(#ftyexxb7qwyfq)" height="52.9703" id="SampleDTO" style="stroke:#A80036;stroke-width:1.0499999999999998;" width="70" x="414.4" y="282.8"/><ellipse cx="424.9" cy="294" fill="#ADD1B2" rx="7.7" ry="7.7" style="stroke:#A80036;stroke-width:0.7;"/><path d="M426.3,291.55 Q426.4422,291.2 426.6063,291.025 Q426.7703,290.85 426.9562,290.85 Q427.2844,290.85 427.4922,291.0469 Q427.7,291.2438 427.7,291.7031 L427.7,292.7969 Q427.7,293.2562 427.5031,293.4531 Q427.3063,293.65 427,293.65 Q426.7266,293.65 426.5516,293.5297 Q426.3766,293.4094 426.3,293.0922 Q426.2672,292.8734 426.1469,292.7531 Q425.9281,292.5234 425.5344,292.3922 Q425.1406,292.25 424.7469,292.25 Q424.2547,292.25 423.8391,292.4469 Q423.4344,292.6437 423.1172,293.0812 Q422.8,293.5187 422.8,294.1203 L422.8,294.7656 Q422.8,295.4875 423.3906,295.9688 Q423.9813,296.45 425.0313,296.45 Q425.6547,296.45 426.0922,296.3078 Q426.3438,296.2313 426.6281,295.9797 Q426.8141,295.8375 426.9125,295.7938 Q427.0109,295.75 427.1312,295.75 Q427.3609,295.75 427.525,295.9359 Q427.7,296.1109 427.7,296.3625 Q427.7,296.6031 427.4594,296.8875 Q427.1094,297.3031 426.5516,297.5328 Q425.8187,297.85 424.9219,297.85 Q423.8719,297.85 423.0297,297.4344 Q422.3516,297.1063 421.8703,296.3953 Q421.4,295.6844 421.4,294.8422 L421.4,294.0766 Q421.4,293.2016 421.8156,292.4359 Q422.2422,291.6703 422.975,291.2656 Q423.7188,290.85 424.55,290.85 Q425.0531,290.85 425.4906,291.025 Q425.9281,291.2 426.3,291.55 Z " fill="#000000"/><text fill="#000000" font-family="sans-serif" font-size="8.4" lengthAdjust="spacing" textLength="47.6" x="434.7" y="297.4371">SampleDTO</text><line style="stroke:#A80036;stroke-width:1.0499999999999998;" x1="415.1" x2="483.7" y1="305.2" y2="305.2"/><rect fill="none" height="4.2" style="stroke:#C82930;stroke-width:0.7;" width="4.2" x="420" y="310.8"/><text fill="#000000" font-family="sans-serif" font-size="7.7" lengthAdjust="spacing" textLength="23.8" x="428.4" y="315.9933">orderid</text><line style="stroke:#A80036;stroke-width:1.0499999999999998;" x1="415.1" x2="483.7" y1="320.4852" y2="320.4852"/><ellipse cx="422.1" cy="328.1852" fill="#84BE84" rx="2.1" ry="2.1" style="stroke:#038048;stroke-width:0.7;"/><text fill="#000000" font-family="sans-serif" font-size="7.7" lengthAdjust="spacing" textLength="41.3" x="428.4" y="331.2784">getOrderid()</text><!--MD5=[ae7e51bf7f64437d6b43a3b7d6fba6e1]
class SampleMapper--><rect fill="#FEFECE" filter="url(#ftyexxb7qwyfq)" height="43.2852" id="SampleMapper" style="stroke:#A80036;stroke-width:1.0499999999999998;" width="81.2" x="357.7" y="191.8"/><ellipse cx="368.2" cy="203" fill="#ADD1B2" rx="7.7" ry="7.7" style="stroke:#A80036;stroke-width:0.7;"/><path d="M369.6,200.55 Q369.7422,200.2 369.9063,200.025 Q370.0703,199.85 370.2562,199.85 Q370.5844,199.85 370.7922,200.0469 Q371,200.2437 371,200.7031 L371,201.7969 Q371,202.2563 370.8031,202.4531 Q370.6063,202.65 370.3,202.65 Q370.0266,202.65 369.8516,202.5297 Q369.6766,202.4094 369.6,202.0922 Q369.5672,201.8734 369.4469,201.7531 Q369.2281,201.5234 368.8344,201.3922 Q368.4406,201.25 368.0469,201.25 Q367.5547,201.25 367.1391,201.4469 Q366.7344,201.6437 366.4172,202.0812 Q366.1,202.5187 366.1,203.1203 L366.1,203.7656 Q366.1,204.4875 366.6906,204.9688 Q367.2813,205.45 368.3312,205.45 Q368.9547,205.45 369.3922,205.3078 Q369.6437,205.2313 369.9281,204.9797 Q370.1141,204.8375 370.2125,204.7938 Q370.3109,204.75 370.4313,204.75 Q370.6609,204.75 370.825,204.9359 Q371,205.1109 371,205.3625 Q371,205.6031 370.7594,205.8875 Q370.4094,206.3031 369.8516,206.5328 Q369.1188,206.85 368.2219,206.85 Q367.1719,206.85 366.3297,206.4344 Q365.6516,206.1063 365.1703,205.3953 Q364.7,204.6844 364.7,203.8422 L364.7,203.0766 Q364.7,202.2016 365.1156,201.4359 Q365.5422,200.6703 366.275,200.2656 Q367.0187,199.85 367.85,199.85 Q368.3531,199.85 368.7906,200.025 Q369.2281,200.2 369.6,200.55 Z " fill="#000000"/><text fill="#000000" font-family="sans-serif" font-size="8.4" lengthAdjust="spacing" textLength="58.8" x="378" y="206.4371">SampleMapper</text><line style="stroke:#A80036;stroke-width:1.0499999999999998;" x1="358.4" x2="438.2" y1="214.2" y2="214.2"/><line style="stroke:#A80036;stroke-width:1.0499999999999998;" x1="358.4" x2="438.2" y1="219.8" y2="219.8"/><ellipse cx="365.4" cy="227.5" fill="#84BE84" rx="2.1" ry="2.1" style="stroke:#038048;stroke-width:0.7;"/><text fill="#000000" font-family="sans-serif" font-size="7.7" lengthAdjust="spacing" textLength="31.5" x="371.7" y="230.5933">toModel()</text><!--MD5=[0f6f7964b844a64b0496af0dda7914bd]
class TestStore--><rect fill="#FEFECE" filter="url(#ftyexxb7qwyfq)" height="43.2852" id="TestStore" style="stroke:#A80036;stroke-width:1.0499999999999998;" width="125.3" x="138.95" y="287.7"/><ellipse cx="180.075" cy="298.9" fill="#ADD1B2" rx="7.7" ry="7.7" style="stroke:#A80036;stroke-width:0.7;"/><path d="M181.475,296.45 Q181.6172,296.1 181.7813,295.925 Q181.9453,295.75 182.1313,295.75 Q182.4594,295.75 182.6672,295.9469 Q182.875,296.1437 182.875,296.6031 L182.875,297.6969 Q182.875,298.1563 182.6781,298.3531 Q182.4813,298.55 182.175,298.55 Q181.9016,298.55 181.7266,298.4297 Q181.5516,298.3094 181.475,297.9922 Q181.4422,297.7734 181.3219,297.6531 Q181.1031,297.4234 180.7094,297.2922 Q180.3156,297.15 179.9219,297.15 Q179.4297,297.15 179.0141,297.3469 Q178.6094,297.5438 178.2922,297.9813 Q177.975,298.4188 177.975,299.0203 L177.975,299.6656 Q177.975,300.3875 178.5656,300.8688 Q179.1563,301.35 180.2062,301.35 Q180.8297,301.35 181.2672,301.2078 Q181.5187,301.1312 181.8031,300.8797 Q181.9891,300.7375 182.0875,300.6937 Q182.1859,300.65 182.3062,300.65 Q182.5359,300.65 182.7,300.8359 Q182.875,301.0109 182.875,301.2625 Q182.875,301.5031 182.6344,301.7875 Q182.2844,302.2031 181.7266,302.4328 Q180.9937,302.75 180.0969,302.75 Q179.0469,302.75 178.2047,302.3344 Q177.5266,302.0062 177.0453,301.2953 Q176.575,300.5844 176.575,299.7422 L176.575,298.9766 Q176.575,298.1016 176.9906,297.3359 Q177.4172,296.5703 178.15,296.1656 Q178.8937,295.75 179.725,295.75 Q180.2281,295.75 180.6656,295.925 Q181.1031,296.1 181.475,296.45 Z " fill="#000000"/><text fill="#000000" font-family="sans-serif" font-size="8.4" lengthAdjust="spacing" textLength="37.1" x="194.425" y="302.3371">TestStore</text><line style="stroke:#A80036;stroke-width:1.0499999999999998;" x1="139.65" x2="263.55" y1="310.1" y2="310.1"/><line style="stroke:#A80036;stroke-width:1.0499999999999998;" x1="139.65" x2="263.55" y1="315.7" y2="315.7"/><ellipse cx="146.65" cy="323.4" fill="#84BE84" rx="2.1" ry="2.1" style="stroke:#038048;stroke-width:0.7;"/><text fill="#000000" font-family="sans-serif" font-size="7.7" lengthAdjust="spacing" textLength="107.1" x="152.95" y="326.4933">getTestByTestTypeCode(testid)</text><!--MD5=[df38be88ccee13e832d6fafd6288a4ca]
class Test--><rect fill="#FEFECE" filter="url(#ftyexxb7qwyfq)" height="91.7109" id="Test" style="stroke:#A80036;stroke-width:1.0499999999999998;" width="108.5" x="222.95" y="390.6"/><ellipse cx="265.825" cy="401.8" fill="#ADD1B2" rx="7.7" ry="7.7" style="stroke:#A80036;stroke-width:0.7;"/><path d="M267.225,399.35 Q267.3672,399 267.5313,398.825 Q267.6953,398.65 267.8812,398.65 Q268.2094,398.65 268.4172,398.8469 Q268.625,399.0438 268.625,399.5031 L268.625,400.5969 Q268.625,401.0563 268.4281,401.2531 Q268.2313,401.45 267.925,401.45 Q267.6516,401.45 267.4766,401.3297 Q267.3016,401.2094 267.225,400.8922 Q267.1922,400.6734 267.0719,400.5531 Q266.8531,400.3234 266.4594,400.1922 Q266.0656,400.05 265.6719,400.05 Q265.1797,400.05 264.7641,400.2469 Q264.3594,400.4437 264.0422,400.8812 Q263.725,401.3187 263.725,401.9203 L263.725,402.5656 Q263.725,403.2875 264.3156,403.7687 Q264.9063,404.25 265.9563,404.25 Q266.5797,404.25 267.0172,404.1078 Q267.2688,404.0313 267.5531,403.7797 Q267.7391,403.6375 267.8375,403.5938 Q267.9359,403.55 268.0563,403.55 Q268.2859,403.55 268.45,403.7359 Q268.625,403.9109 268.625,404.1625 Q268.625,404.4031 268.3844,404.6875 Q268.0344,405.1031 267.4766,405.3328 Q266.7438,405.65 265.8469,405.65 Q264.7969,405.65 263.9547,405.2344 Q263.2766,404.9063 262.7953,404.1953 Q262.325,403.4844 262.325,402.6422 L262.325,401.8766 Q262.325,401.0016 262.7406,400.2359 Q263.1672,399.4703 263.9,399.0656 Q264.6438,398.65 265.475,398.65 Q265.9781,398.65 266.4156,398.825 Q266.8531,399 267.225,399.35 Z " fill="#000000"/><text fill="#000000" font-family="sans-serif" font-size="8.4" lengthAdjust="spacing" textLength="16.8" x="280.175" y="405.2371">Test</text><line style="stroke:#A80036;stroke-width:1.0499999999999998;" x1="223.65" x2="330.75" y1="413" y2="413"/><rect fill="none" height="4.2" style="stroke:#C82930;stroke-width:0.7;" width="4.2" x="228.55" y="418.6"/><text fill="#000000" font-family="sans-serif" font-size="7.7" lengthAdjust="spacing" textLength="32.2" x="236.95" y="423.7933">LabOrder</text><rect fill="none" height="4.2" style="stroke:#C82930;stroke-width:0.7;" width="4.2" x="228.55" y="428.2852"/><text fill="#000000" font-family="sans-serif" font-size="7.7" lengthAdjust="spacing" textLength="24.5" x="236.95" y="433.4784">Sample</text><line style="stroke:#A80036;stroke-width:1.0499999999999998;" x1="223.65" x2="330.75" y1="437.9703" y2="437.9703"/><ellipse cx="230.65" cy="445.6703" fill="#84BE84" rx="2.1" ry="2.1" style="stroke:#038048;stroke-width:0.7;"/><text fill="#000000" font-family="sans-serif" font-size="7.7" lengthAdjust="spacing" textLength="81.2" x="236.95" y="448.7636">RecordNewSample(tdo)</text><ellipse cx="230.65" cy="455.3555" fill="#84BE84" rx="2.1" ry="2.1" style="stroke:#038048;stroke-width:0.7;"/><text fill="#000000" font-family="sans-serif" font-size="7.7" lengthAdjust="spacing" textLength="90.3" x="236.95" y="458.4487">validateNewSample(samp)</text><ellipse cx="230.65" cy="465.0406" fill="#84BE84" rx="2.1" ry="2.1" style="stroke:#038048;stroke-width:0.7;"/><text fill="#000000" font-family="sans-serif" font-size="7.7" lengthAdjust="spacing" textLength="81.2" x="236.95" y="468.1339">saveNewSample(samp)</text><ellipse cx="230.65" cy="474.7258" fill="#84BE84" rx="2.1" ry="2.1" style="stroke:#038048;stroke-width:0.7;"/><text fill="#000000" font-family="sans-serif" font-size="7.7" lengthAdjust="spacing" textLength="77" x="236.95" y="477.819">addNewSample(samp)</text><!--MD5=[9fb704ffefcaf68bf1a361787afa998b]
class TestDTO--><rect fill="#FEFECE" filter="url(#ftyexxb7qwyfq)" height="33.6" id="TestDTO" style="stroke:#A80036;stroke-width:1.0499999999999998;" width="56.7" x="288.75" y="292.6"/><ellipse cx="299.25" cy="303.8" fill="#ADD1B2" rx="7.7" ry="7.7" style="stroke:#A80036;stroke-width:0.7;"/><path d="M300.65,301.35 Q300.7922,301 300.9562,300.825 Q301.1203,300.65 301.3063,300.65 Q301.6344,300.65 301.8422,300.8469 Q302.05,301.0438 302.05,301.5031 L302.05,302.5969 Q302.05,303.0563 301.8531,303.2531 Q301.6563,303.45 301.35,303.45 Q301.0766,303.45 300.9016,303.3297 Q300.7266,303.2094 300.65,302.8922 Q300.6172,302.6734 300.4969,302.5531 Q300.2781,302.3234 299.8844,302.1922 Q299.4906,302.05 299.0969,302.05 Q298.6047,302.05 298.1891,302.2469 Q297.7844,302.4437 297.4672,302.8812 Q297.15,303.3187 297.15,303.9203 L297.15,304.5656 Q297.15,305.2875 297.7406,305.7687 Q298.3312,306.25 299.3812,306.25 Q300.0047,306.25 300.4422,306.1078 Q300.6937,306.0313 300.9781,305.7797 Q301.1641,305.6375 301.2625,305.5938 Q301.3609,305.55 301.4813,305.55 Q301.7109,305.55 301.875,305.7359 Q302.05,305.9109 302.05,306.1625 Q302.05,306.4031 301.8094,306.6875 Q301.4594,307.1031 300.9016,307.3328 Q300.1688,307.65 299.2719,307.65 Q298.2219,307.65 297.3797,307.2344 Q296.7016,306.9063 296.2203,306.1953 Q295.75,305.4844 295.75,304.6422 L295.75,303.8766 Q295.75,303.0016 296.1656,302.2359 Q296.5922,301.4703 297.325,301.0656 Q298.0687,300.65 298.9,300.65 Q299.4031,300.65 299.8406,300.825 Q300.2781,301 300.65,301.35 Z " fill="#000000"/><text fill="#000000" font-family="sans-serif" font-size="8.4" lengthAdjust="spacing" textLength="34.3" x="309.05" y="307.2371">TestDTO</text><line style="stroke:#A80036;stroke-width:1.0499999999999998;" x1="289.45" x2="344.75" y1="315" y2="315"/><line style="stroke:#A80036;stroke-width:1.0499999999999998;" x1="289.45" x2="344.75" y1="320.6" y2="320.6"/><!--MD5=[a999c1570c205a2156b04a15307bc1ff]
class LabOrder--><rect fill="#FEFECE" filter="url(#ftyexxb7qwyfq)" height="52.9703" id="LabOrder" style="stroke:#A80036;stroke-width:1.0499999999999998;" width="58.8" x="312.2" y="541.8"/><ellipse cx="322.7" cy="553" fill="#ADD1B2" rx="7.7" ry="7.7" style="stroke:#A80036;stroke-width:0.7;"/><path d="M324.1,550.55 Q324.2422,550.2 324.4063,550.025 Q324.5703,549.85 324.7562,549.85 Q325.0844,549.85 325.2922,550.0469 Q325.5,550.2438 325.5,550.7031 L325.5,551.7969 Q325.5,552.2562 325.3031,552.4531 Q325.1063,552.65 324.8,552.65 Q324.5266,552.65 324.3516,552.5297 Q324.1766,552.4094 324.1,552.0922 Q324.0672,551.8734 323.9469,551.7531 Q323.7281,551.5234 323.3344,551.3922 Q322.9406,551.25 322.5469,551.25 Q322.0547,551.25 321.6391,551.4469 Q321.2344,551.6438 320.9172,552.0813 Q320.6,552.5188 320.6,553.1203 L320.6,553.7656 Q320.6,554.4875 321.1906,554.9688 Q321.7813,555.45 322.8312,555.45 Q323.4547,555.45 323.8922,555.3078 Q324.1437,555.2312 324.4281,554.9797 Q324.6141,554.8375 324.7125,554.7937 Q324.8109,554.75 324.9313,554.75 Q325.1609,554.75 325.325,554.9359 Q325.5,555.1109 325.5,555.3625 Q325.5,555.6031 325.2594,555.8875 Q324.9094,556.3031 324.3516,556.5328 Q323.6188,556.85 322.7219,556.85 Q321.6719,556.85 320.8297,556.4344 Q320.1516,556.1062 319.6703,555.3953 Q319.2,554.6844 319.2,553.8422 L319.2,553.0766 Q319.2,552.2016 319.6156,551.4359 Q320.0422,550.6703 320.775,550.2656 Q321.5187,549.85 322.35,549.85 Q322.8531,549.85 323.2906,550.025 Q323.7281,550.2 324.1,550.55 Z " fill="#000000"/><text fill="#000000" font-family="sans-serif" font-size="8.4" lengthAdjust="spacing" textLength="36.4" x="332.5" y="556.4371">LabOrder</text><line style="stroke:#A80036;stroke-width:1.0499999999999998;" x1="312.9" x2="370.3" y1="564.2" y2="564.2"/><rect fill="none" height="4.2" style="stroke:#C82930;stroke-width:0.7;" width="4.2" x="317.8" y="569.8"/><text fill="#000000" font-family="sans-serif" font-size="7.7" lengthAdjust="spacing" textLength="29.4" x="326.2" y="574.9933">testType</text><rect fill="none" height="4.2" style="stroke:#C82930;stroke-width:0.7;" width="4.2" x="317.8" y="579.4852"/><text fill="#000000" font-family="sans-serif" font-size="7.7" lengthAdjust="spacing" textLength="38.5" x="326.2" y="584.6784">parameters</text><line style="stroke:#A80036;stroke-width:1.0499999999999998;" x1="312.9" x2="370.3" y1="589.1703" y2="589.1703"/><!--MD5=[09699c8b762f7fa74b7dc251f2258f54]
class BarcodeAdapter--><rect fill="#FEFECE" filter="url(#ftyexxb7qwyfq)" height="43.2852" id="BarcodeAdapter" style="stroke:#A80036;stroke-width:1.0499999999999998;" width="142.8" x="144.9" y="546.7"/><ellipse cx="182.525" cy="557.9" fill="#ADD1B2" rx="7.7" ry="7.7" style="stroke:#A80036;stroke-width:0.7;"/><path d="M183.925,555.45 Q184.0672,555.1 184.2313,554.925 Q184.3953,554.75 184.5812,554.75 Q184.9094,554.75 185.1172,554.9469 Q185.325,555.1438 185.325,555.6031 L185.325,556.6969 Q185.325,557.1563 185.1281,557.3531 Q184.9312,557.55 184.625,557.55 Q184.3516,557.55 184.1766,557.4297 Q184.0016,557.3094 183.925,556.9922 Q183.8922,556.7734 183.7719,556.6531 Q183.5531,556.4234 183.1594,556.2922 Q182.7656,556.15 182.3719,556.15 Q181.8797,556.15 181.4641,556.3469 Q181.0594,556.5437 180.7422,556.9812 Q180.425,557.4187 180.425,558.0203 L180.425,558.6656 Q180.425,559.3875 181.0156,559.8688 Q181.6063,560.35 182.6563,560.35 Q183.2797,560.35 183.7172,560.2078 Q183.9688,560.1312 184.2531,559.8797 Q184.4391,559.7375 184.5375,559.6937 Q184.6359,559.65 184.7563,559.65 Q184.9859,559.65 185.15,559.8359 Q185.325,560.0109 185.325,560.2625 Q185.325,560.5031 185.0844,560.7875 Q184.7344,561.2031 184.1766,561.4328 Q183.4438,561.75 182.5469,561.75 Q181.4969,561.75 180.6547,561.3344 Q179.9766,561.0062 179.4953,560.2953 Q179.025,559.5844 179.025,558.7422 L179.025,557.9766 Q179.025,557.1016 179.4406,556.3359 Q179.8672,555.5703 180.6,555.1656 Q181.3438,554.75 182.175,554.75 Q182.6781,554.75 183.1156,554.925 Q183.5531,555.1 183.925,555.45 Z " fill="#000000"/><text fill="#000000" font-family="sans-serif" font-size="8.4" lengthAdjust="spacing" textLength="61.6" x="196.875" y="561.3371">BarcodeAdapter</text><line style="stroke:#A80036;stroke-width:1.0499999999999998;" x1="145.6" x2="287" y1="569.1" y2="569.1"/><line style="stroke:#A80036;stroke-width:1.0499999999999998;" x1="145.6" x2="287" y1="574.7" y2="574.7"/><ellipse cx="152.6" cy="582.4" fill="#84BE84" rx="2.1" ry="2.1" style="stroke:#038048;stroke-width:0.7;"/><text fill="#000000" font-family="sans-serif" font-size="7.7" lengthAdjust="spacing" textLength="124.6" x="158.9" y="585.4933">BarcodeCreate makeUPCABarcode()</text><!--MD5=[6cfa5c3b7c3b169d22de0dcd47d936aa]
class BarcodeCreate--><rect fill="#FEFECE" filter="url(#ftyexxb7qwyfq)" height="62.6555" id="BarcodeCreate" style="stroke:#A80036;stroke-width:1.0499999999999998;" width="206.5" x="172.55" y="642.6"/><ellipse cx="243.775" cy="653.8" fill="#ADD1B2" rx="7.7" ry="7.7" style="stroke:#A80036;stroke-width:0.7;"/><path d="M245.175,651.35 Q245.3172,651 245.4813,650.825 Q245.6453,650.65 245.8312,650.65 Q246.1594,650.65 246.3672,650.8469 Q246.575,651.0437 246.575,651.5031 L246.575,652.5969 Q246.575,653.0563 246.3781,653.2531 Q246.1812,653.45 245.875,653.45 Q245.6016,653.45 245.4266,653.3297 Q245.2516,653.2094 245.175,652.8922 Q245.1422,652.6734 245.0219,652.5531 Q244.8031,652.3234 244.4094,652.1922 Q244.0156,652.05 243.6219,652.05 Q243.1297,652.05 242.7141,652.2469 Q242.3094,652.4437 241.9922,652.8812 Q241.675,653.3187 241.675,653.9203 L241.675,654.5656 Q241.675,655.2875 242.2656,655.7688 Q242.8563,656.25 243.9062,656.25 Q244.5297,656.25 244.9672,656.1078 Q245.2187,656.0313 245.5031,655.7797 Q245.6891,655.6375 245.7875,655.5938 Q245.8859,655.55 246.0063,655.55 Q246.2359,655.55 246.4,655.7359 Q246.575,655.9109 246.575,656.1625 Q246.575,656.4031 246.3344,656.6875 Q245.9844,657.1031 245.4266,657.3328 Q244.6938,657.65 243.7969,657.65 Q242.7469,657.65 241.9047,657.2344 Q241.2266,656.9063 240.7453,656.1953 Q240.275,655.4844 240.275,654.6422 L240.275,653.8766 Q240.275,653.0016 240.6906,652.2359 Q241.1172,651.4703 241.85,651.0656 Q242.5937,650.65 243.425,650.65 Q243.9281,650.65 244.3656,650.825 Q244.8031,651 245.175,651.35 Z " fill="#000000"/><text fill="#000000" font-family="sans-serif" font-size="8.4" lengthAdjust="spacing" textLength="58.1" x="258.125" y="657.2371">BarcodeCreate</text><line style="stroke:#A80036;stroke-width:1.0499999999999998;" x1="173.25" x2="378.35" y1="665" y2="665"/><rect fill="none" height="4.2" style="stroke:#C82930;stroke-width:0.7;" width="4.2" x="178.15" y="670.6"/><text fill="#000000" font-family="sans-serif" font-size="7.7" lengthAdjust="spacing" textLength="28" x="186.55" y="675.7933">barcode</text><rect fill="none" height="4.2" style="stroke:#C82930;stroke-width:0.7;" width="4.2" x="178.15" y="680.2852"/><text fill="#000000" font-family="sans-serif" font-size="7.7" lengthAdjust="spacing" textLength="53.9" x="186.55" y="685.4784">barcodeNumber</text><line style="stroke:#A80036;stroke-width:1.0499999999999998;" x1="173.25" x2="378.35" y1="689.9703" y2="689.9703"/><ellipse cx="180.25" cy="697.6703" fill="#84BE84" rx="2.1" ry="2.1" style="stroke:#038048;stroke-width:0.7;"/><text fill="#000000" font-family="sans-serif" font-size="7.7" lengthAdjust="spacing" textLength="188.3" x="186.55" y="700.7636">BarcodeCreate(Object barcode, String barcodeNumber)</text><!--MD5=[b07fc2b2aa91da2436cc249a96980d64]
link RecordSampleUI to RecordSampleController--><path codeLine="3" d="M261.8,38.626 C261.8,49.413 261.8,63.994 261.8,77.315 " fill="none" id="RecordSampleUI-to-RecordSampleController" style="stroke:#A80036;stroke-width:0.7;stroke-dasharray:7.0,7.0;"/><polygon fill="#A80036" points="261.8,81.032,264.6,74.732,261.8,77.532,259,74.732,261.8,81.032" style="stroke:#A80036;stroke-width:0.7;"/><!--MD5=[ccf558741c2fb5a5f538be9d3a954f59]
link RecordSampleController to Company--><path codeLine="4" d="M243.082,144.305 C235.508,156.807 226.807,171.178 219.338,183.512 " fill="none" id="RecordSampleController-to-Company" style="stroke:#A80036;stroke-width:0.7;stroke-dasharray:7.0,7.0;"/><polygon fill="#A80036" points="217.469,186.599,223.1268,182.6596,219.2815,183.6049,218.3362,179.7596,217.469,186.599" style="stroke:#A80036;stroke-width:0.7;"/><!--MD5=[46ce183c027ced3c8d5e339377570598]
link RecordSampleController to Sample--><path codeLine="5" d="M202.594,120.281 C148.309,130.277 76.3,154.525 76.3,212.8 C76.3,212.8 76.3,212.8 76.3,437.15 C76.3,469.665 76.3,506.73 76.3,533.036 " fill="none" id="RecordSampleController-to-Sample" style="stroke:#A80036;stroke-width:0.7;stroke-dasharray:7.0,7.0;"/><polygon fill="#A80036" points="76.3,536.837,79.1,530.537,76.3,533.337,73.5,530.537,76.3,536.837" style="stroke:#A80036;stroke-width:0.7;"/><!--MD5=[aa7c76cfa0b9d80d0d0bfbab322591d0]
link RecordSampleController to TestMapper--><path codeLine="6" d="M273.336,144.305 C278.628,158.494 284.816,175.07 289.779,188.37 " fill="none" id="RecordSampleController-to-TestMapper" style="stroke:#A80036;stroke-width:0.7;stroke-dasharray:7.0,7.0;"/><polygon fill="#A80036" points="291.011,191.674,291.4206,184.792,289.7821,188.3968,286.1772,186.7583,291.011,191.674" style="stroke:#A80036;stroke-width:0.7;"/><!--MD5=[a7cbd6ea75f3dbf8a10370ef60b1951f]
link RecordSampleController to SampleDTO--><path codeLine="7" d="M321.09,118.965 C365.148,126.553 422.457,144.501 451.5,186.9 C469.973,213.871 465.374,252.672 458.829,279.188 " fill="none" id="RecordSampleController-to-SampleDTO" style="stroke:#A80036;stroke-width:0.7;stroke-dasharray:7.0,7.0;"/><polygon fill="#A80036" points="457.94,282.681,462.2182,277.2748,458.81,279.2909,456.794,275.8827,457.94,282.681" style="stroke:#A80036;stroke-width:0.7;"/><!--MD5=[e5a9667c400772c28cc59b9168c63c65]
link RecordSampleController to SampleMapper--><path codeLine="8" d="M304.241,144.305 C324.296,158.914 347.844,176.057 366.359,189.539 " fill="none" id="RecordSampleController-to-SampleMapper" style="stroke:#A80036;stroke-width:0.7;stroke-dasharray:7.0,7.0;"/><polygon fill="#A80036" points="369.285,191.674,365.8394,185.7026,366.4553,189.6142,362.5437,190.2301,369.285,191.674" style="stroke:#A80036;stroke-width:0.7;"/><!--MD5=[5bb931d09ab0aebfaada3d823529a93c]
link RecordSampleController to TestStore--><path codeLine="9" d="M202.454,138.103 C182.224,149.737 161.854,165.795 150.5,186.9 C139.3,207.725 143.059,217.658 150.5,240.1 C156.016,256.746 167.314,272.629 177.891,284.914 " fill="none" id="RecordSampleController-to-TestStore" style="stroke:#A80036;stroke-width:0.7;stroke-dasharray:7.0,7.0;"/><polygon fill="#A80036" points="180.271,287.637,178.2296,281.052,177.9662,285.003,174.0152,284.7396,180.271,287.637" style="stroke:#A80036;stroke-width:0.7;"/><!--MD5=[b72ac8ab7fb5921fceb5036a3902baea]
link Test to Sample--><path codeLine="19" d="M222.831,472.479 C191.716,492.702 153.062,517.818 123.263,537.18 " fill="none" id="Test-to-Sample" style="stroke:#A80036;stroke-width:0.7;"/><polygon fill="#A80036" points="120.225,539.154,127.0317,538.0592,123.157,537.2427,123.9736,533.368,120.225,539.154" style="stroke:#A80036;stroke-width:0.7;"/><text fill="#000000" font-family="sans-serif" font-size="9.1" lengthAdjust="spacing" textLength="14.7" x="171.5" y="513.4466">has</text><!--MD5=[7f6cf7f175eae0af66201860de5de971]
link Company to TestStore--><path codeLine="21" d="M201.6,240.275 C201.6,253.855 201.6,270.382 201.6,283.794 " fill="none" id="Company-to-TestStore" style="stroke:#A80036;stroke-width:0.7;"/><polygon fill="#A80036" points="201.6,287.483,204.4,281.183,201.6,283.983,198.8,281.183,201.6,287.483" style="stroke:#A80036;stroke-width:0.7;"/><!--MD5=[f6fda4afaf882dd39139bcbf06c50c8c]
link TestMapper to TestDTO--><path codeLine="25" d="M302.981,235.41 C306.082,251.496 310.31,273.441 313.327,289.114 " fill="none" id="TestMapper-to-TestDTO" style="stroke:#A80036;stroke-width:0.7;stroke-dasharray:7.0,7.0;"/><polygon fill="#A80036" points="313.992,292.558,315.5512,285.8424,313.3307,289.121,310.052,286.9006,313.992,292.558" style="stroke:#A80036;stroke-width:0.7;"/><!--MD5=[be3b39c7463182027323f9c0e531e936]
link TestDTO to Test--><path codeLine="26" d="M311.962,326.27 C307.09,341.621 299.509,365.484 292.67,387.023 " fill="none" id="TestDTO-to-Test" style="stroke:#A80036;stroke-width:0.7;stroke-dasharray:7.0,7.0;"/><polygon fill="#A80036" points="291.585,390.46,296.1596,385.3021,292.6437,387.124,290.8219,383.6082,291.585,390.46" style="stroke:#A80036;stroke-width:0.7;"/><!--MD5=[b0f4f6db8206580012ef9cd998ed01c5]
link TestStore to Test--><path codeLine="29" d="M214.256,331.128 C223.468,346.451 236.341,367.836 248.038,387.282 " fill="none" id="TestStore-to-Test" style="stroke:#A80036;stroke-width:0.7;"/><polygon fill="#A80036" points="249.907,390.383,249.0667,383.5402,248.1063,387.3818,244.2647,386.4214,249.907,390.383" style="stroke:#A80036;stroke-width:0.7;"/><text fill="#000000" font-family="sans-serif" font-size="9.1" lengthAdjust="spacing" textLength="16.1" x="238" y="367.1466">Has</text><!--MD5=[081a105d9ba373b8c9f4c038e84d1e03]
link SampleMapper to SampleDTO--><path codeLine="30" d="M409.766,235.41 C416.773,248.36 425.824,265.104 433.517,279.321 " fill="none" id="SampleMapper-to-SampleDTO" style="stroke:#A80036;stroke-width:0.7;stroke-dasharray:7.0,7.0;"/><polygon fill="#A80036" points="435.232,282.499,434.6906,275.6261,433.5637,279.4222,429.7676,278.2953,435.232,282.499" style="stroke:#A80036;stroke-width:0.7;"/><!--MD5=[c88f814ecc8e75286b0c0023c0833471]
link TestMapper to TestStore--><path codeLine="33" d="M277.067,235.41 C261.919,250.117 241.724,269.731 226.037,284.963 " fill="none" id="TestMapper-to-TestStore" style="stroke:#A80036;stroke-width:0.7;stroke-dasharray:7.0,7.0;"/><polygon fill="#A80036" points="223.363,287.56,229.832,285.1764,225.8726,285.1204,225.9286,281.161,223.363,287.56" style="stroke:#A80036;stroke-width:0.7;"/><!--MD5=[7ae31b06ecb5db678e40497ee74dd179]
link Test to LabOrder--><path codeLine="35" d="M299.544,482.447 C308.707,501.018 319.046,521.976 327.18,538.468 " fill="none" id="Test-to-LabOrder" style="stroke:#A80036;stroke-width:0.7;stroke-dasharray:7.0,7.0;"/><polygon fill="#A80036" points="328.776,541.702,328.4981,534.8134,327.2268,538.5635,323.4766,537.2922,328.776,541.702" style="stroke:#A80036;stroke-width:0.7;"/><!--MD5=[3f5983f8009cc11d6ffa7fbef99c5461]
link SampleMapper to TestStore--><path codeLine="44" d="M357.651,234.024 C353.416,236.082 349.174,238.133 345.1,240.1 C313.194,255.493 277.228,272.685 249.291,286.006 " fill="none" id="SampleMapper-to-TestStore" style="stroke:#A80036;stroke-width:0.7;stroke-dasharray:7.0,7.0;"/><polygon fill="#A80036" points="245.924,287.616,252.8161,287.4439,249.0859,286.1151,250.4146,282.3849,245.924,287.616" style="stroke:#A80036;stroke-width:0.7;"/><!--MD5=[7116ba69743c09e9de143a23f3e84625]
link Sample to ApiBarcode--><path codeLine="46" d="M76.3,600.11 C76.3,615.608 76.3,634.109 76.3,648.648 " fill="none" id="Sample-to-ApiBarcode" style="stroke:#A80036;stroke-width:0.7;"/><polygon fill="#A80036" points="76.3,652.253,79.1,645.953,76.3,648.753,73.5,645.953,76.3,652.253" style="stroke:#A80036;stroke-width:0.7;"/><!--MD5=[9191d7b7e5c5d78bd11b44e3739e6984]
link BarcodeAdapter to ApiBarcode--><path codeLine="48" d="M187.971,590.205 C164.626,607.593 131.572,632.226 107.478,650.167 " fill="none" id="BarcodeAdapter-to-ApiBarcode" style="stroke:#A80036;stroke-width:0.7;stroke-dasharray:7.0,7.0;"/><polygon fill="#A80036" points="104.587,652.323,111.3131,650.8099,107.3954,650.2342,107.971,646.3165,104.587,652.323" style="stroke:#A80036;stroke-width:0.7;"/><!--MD5=[a2c13215787d2b0b04028d3ce7cea70e]
link BarcodeAdapter to BarcodeCreate--><path codeLine="50" d="M228.34,590.205 C236.362,604.268 247.086,623.07 256.312,639.233 " fill="none" id="BarcodeAdapter-to-BarcodeCreate" style="stroke:#A80036;stroke-width:0.7;"/><polygon fill="#A80036" points="258.132,642.432,257.4325,635.5734,256.3934,639.3944,252.5724,638.3552,258.132,642.432" style="stroke:#A80036;stroke-width:0.7;"/><!--MD5=[60702fb3337b8651253e4f57de55b7d4]
@startuml
Interface ApiBarcode

RecordSampleUI ..> RecordSampleController
RecordSampleController..>Company
RecordSampleController..>Sample
RecordSampleController..>TestMapper
RecordSampleController..>SampleDTO
RecordSampleController..>SampleMapper
RecordSampleController..>TestStore




RecordSampleController : +RecordNewSample(dto)
RecordSampleController : +saveNewSample()
RecordSampleController : +getTest()


Test - -> Sample: has

Company - -> TestStore

TestStore : +getTestByTestTypeCode(testid)

TestMapper ..> TestDTO
TestDTO..> Test


TestStore - -> Test : Has
SampleMapper ..> SampleDTO


TestMapper ..> TestStore

Test ..> LabOrder
LabOrder : -testType
LabOrder : -parameters


TestMapper : +toDTO(tests)

SampleMapper : +toModel()

SampleMapper ..> TestStore

Sample - -> ApiBarcode

BarcodeAdapter  ..> ApiBarcode

BarcodeAdapter - -> BarcodeCreate


ApiBarcode : +BarcodeCreate makeUPCABarcode()

BarcodeAdapter : +BarcodeCreate makeUPCABarcode()

BarcodeCreate : +BarcodeCreate(Object barcode, String barcodeNumber)
BarcodeCreate : -barcode
BarcodeCreate : -barcodeNumber


Company : +getTestStore()
Company : +getSampleStore()

Test : +RecordNewSample(tdo)
Test : +validateNewSample(samp)
Test : +saveNewSample(samp)
Test : +addNewSample(samp)
Test : -LabOrder
Test : -Sample

SampleDTO : +getOrderid()



SampleDTO : -orderid


Sample : +Sample()
Sample : +getBarcodecreator()
Sample : -barcode
@enduml

PlantUML version 1.2021.00(Sun Jan 10 10:25:05 GMT 2021)
(GPL source distribution)
Java Runtime: OpenJDK Runtime Environment
JVM: OpenJDK 64-Bit Server VM
Default Encoding: Cp1252
Language: pt
Country: PT
--></g></svg>