<?xml version="1.0" encoding="UTF-8" standalone="no"?><svg xmlns="http://www.w3.org/2000/svg" xmlns:xlink="http://www.w3.org/1999/xlink" contentScriptType="application/ecmascript" contentStyleType="text/css" height="598px" preserveAspectRatio="none" style="width:1830px;height:598px;" version="1.1" viewBox="0 0 1830 598" width="1830px" zoomAndPan="magnify"><defs><filter height="300%" id="f1oafbk2tck1nd" width="300%" x="-1" y="-1"><feGaussianBlur result="blurOut" stdDeviation="4.0"/><feColorMatrix in="blurOut" result="blurOut2" type="matrix" values="0 0 0 0 0 0 0 0 0 0 0 0 0 0 0 0 0 0 .4 0"/><feOffset dx="8.0" dy="8.0" in="blurOut2" result="blurOut3"/><feBlend in="SourceGraphic" in2="blurOut3" mode="normal"/></filter></defs><g><!--MD5=[02e4b9b7573f1156f41e60aa5b4e25a4]
class Company--><rect codeLine="6" fill="#FEFECE" filter="url(#f1oafbk2tck1nd)" height="107.6719" id="Company" style="stroke:#A80036;stroke-width:3.0;" width="170" x="14" y="105"/><ellipse cx="44" cy="137" fill="#ADD1B2" rx="22" ry="22" style="stroke:#A80036;stroke-width:2.0;"/><path d="M48,130 Q48.4063,129 48.875,128.5 Q49.3438,128 49.875,128 Q50.8125,128 51.4063,128.5625 Q52,129.125 52,130.4375 L52,133.5625 Q52,134.875 51.4375,135.4375 Q50.875,136 50,136 Q49.2188,136 48.7188,135.6563 Q48.2188,135.3125 48,134.4063 Q47.9063,133.7813 47.5625,133.4375 Q46.9375,132.7813 45.8125,132.4063 Q44.6875,132 43.5625,132 Q42.1563,132 40.9688,132.5625 Q39.8125,133.125 38.9063,134.375 Q38,135.625 38,137.3438 L38,139.1875 Q38,141.25 39.6875,142.625 Q41.375,144 44.375,144 Q46.1563,144 47.4063,143.5938 Q48.125,143.375 48.9375,142.6563 Q49.4688,142.25 49.75,142.125 Q50.0313,142 50.375,142 Q51.0313,142 51.5,142.5313 Q52,143.0313 52,143.75 Q52,144.4375 51.3125,145.25 Q50.3125,146.4375 48.7188,147.0938 Q46.625,148 44.0625,148 Q41.0625,148 38.6563,146.8125 Q36.7188,145.875 35.3438,143.8438 Q34,141.8125 34,139.4063 L34,137.2188 Q34,134.7188 35.1875,132.5313 Q36.4063,130.3438 38.5,129.1875 Q40.625,128 43,128 Q44.4375,128 45.6875,128.5 Q46.9375,129 48,130 Z " fill="#000000"/><text fill="#000000" font-family="sans-serif" font-size="24" lengthAdjust="spacing" textLength="106" x="72" y="146.8203">Company</text><line style="stroke:#A80036;stroke-width:3.0;" x1="16" x2="182" y1="169" y2="169"/><text fill="#000000" font-family="sans-serif" font-size="22" lengthAdjust="spacing" textLength="118" x="26" y="199.8379">-designation</text><!--MD5=[7421f545a0d8420c5bec41e74b387d9c]
class Employee--><rect codeLine="10" fill="#FEFECE" filter="url(#f1oafbk2tck1nd)" height="246.0313" id="Employee" style="stroke:#A80036;stroke-width:3.0;" width="174" x="1238" y="14"/><ellipse cx="1268" cy="46" fill="#ADD1B2" rx="22" ry="22" style="stroke:#A80036;stroke-width:2.0;"/><path d="M1272,39 Q1272.4063,38 1272.875,37.5 Q1273.3438,37 1273.875,37 Q1274.8125,37 1275.4063,37.5625 Q1276,38.125 1276,39.4375 L1276,42.5625 Q1276,43.875 1275.4375,44.4375 Q1274.875,45 1274,45 Q1273.2188,45 1272.7188,44.6563 Q1272.2188,44.3125 1272,43.4063 Q1271.9063,42.7813 1271.5625,42.4375 Q1270.9375,41.7813 1269.8125,41.4063 Q1268.6875,41 1267.5625,41 Q1266.1563,41 1264.9688,41.5625 Q1263.8125,42.125 1262.9063,43.375 Q1262,44.625 1262,46.3438 L1262,48.1875 Q1262,50.25 1263.6875,51.625 Q1265.375,53 1268.375,53 Q1270.1563,53 1271.4063,52.5938 Q1272.125,52.375 1272.9375,51.6563 Q1273.4688,51.25 1273.75,51.125 Q1274.0313,51 1274.375,51 Q1275.0313,51 1275.5,51.5313 Q1276,52.0313 1276,52.75 Q1276,53.4375 1275.3125,54.25 Q1274.3125,55.4375 1272.7188,56.0938 Q1270.625,57 1268.0625,57 Q1265.0625,57 1262.6563,55.8125 Q1260.7188,54.875 1259.3438,52.8438 Q1258,50.8125 1258,48.4063 L1258,46.2188 Q1258,43.7188 1259.1875,41.5313 Q1260.4063,39.3438 1262.5,38.1875 Q1264.625,37 1267,37 Q1268.4375,37 1269.6875,37.5 Q1270.9375,38 1272,39 Z " fill="#000000"/><text fill="#000000" font-family="sans-serif" font-size="24" lengthAdjust="spacing" textLength="110" x="1296" y="55.8203">Employee</text><line style="stroke:#A80036;stroke-width:3.0;" x1="1240" x2="1410" y1="78" y2="78"/><text fill="#000000" font-family="sans-serif" font-size="22" lengthAdjust="spacing" textLength="116" x="1250" y="108.8379">-employeeId</text><text fill="#000000" font-family="sans-serif" font-size="22" lengthAdjust="spacing" textLength="60" x="1250" y="136.5098">-name</text><text fill="#000000" font-family="sans-serif" font-size="22" lengthAdjust="spacing" textLength="88" x="1250" y="164.1816">-address</text><text fill="#000000" font-family="sans-serif" font-size="22" lengthAdjust="spacing" textLength="142" x="1250" y="191.8535">-phoneNumber</text><text fill="#000000" font-family="sans-serif" font-size="22" lengthAdjust="spacing" textLength="56" x="1250" y="219.5254">-email</text><text fill="#000000" font-family="sans-serif" font-size="22" lengthAdjust="spacing" textLength="94" x="1250" y="247.1973">-socCode</text><!--MD5=[3fd616f346a44cd59a91eb10b19e157c]
class User--><rect codeLine="21" fill="#FEFECE" filter="url(#f1oafbk2tck1nd)" height="163.0156" id="User" style="stroke:#A80036;stroke-width:3.0;" width="132" x="1670" y="55"/><ellipse cx="1706.3" cy="87" fill="#ADD1B2" rx="22" ry="22" style="stroke:#A80036;stroke-width:2.0;"/><path d="M1710.3,80 Q1710.7063,79 1711.175,78.5 Q1711.6438,78 1712.175,78 Q1713.1125,78 1713.7063,78.5625 Q1714.3,79.125 1714.3,80.4375 L1714.3,83.5625 Q1714.3,84.875 1713.7375,85.4375 Q1713.175,86 1712.3,86 Q1711.5188,86 1711.0188,85.6563 Q1710.5188,85.3125 1710.3,84.4063 Q1710.2063,83.7813 1709.8625,83.4375 Q1709.2375,82.7813 1708.1125,82.4063 Q1706.9875,82 1705.8625,82 Q1704.4563,82 1703.2688,82.5625 Q1702.1125,83.125 1701.2063,84.375 Q1700.3,85.625 1700.3,87.3438 L1700.3,89.1875 Q1700.3,91.25 1701.9875,92.625 Q1703.675,94 1706.675,94 Q1708.4563,94 1709.7063,93.5938 Q1710.425,93.375 1711.2375,92.6563 Q1711.7688,92.25 1712.05,92.125 Q1712.3313,92 1712.675,92 Q1713.3313,92 1713.8,92.5313 Q1714.3,93.0313 1714.3,93.75 Q1714.3,94.4375 1713.6125,95.25 Q1712.6125,96.4375 1711.0188,97.0938 Q1708.925,98 1706.3625,98 Q1703.3625,98 1700.9563,96.8125 Q1699.0188,95.875 1697.6438,93.8438 Q1696.3,91.8125 1696.3,89.4063 L1696.3,87.2188 Q1696.3,84.7188 1697.4875,82.5313 Q1698.7063,80.3438 1700.8,79.1875 Q1702.925,78 1705.3,78 Q1706.7375,78 1707.9875,78.5 Q1709.2375,79 1710.3,80 Z " fill="#000000"/><text fill="#000000" font-family="sans-serif" font-size="24" lengthAdjust="spacing" textLength="54" x="1735.7" y="96.8203">User</text><line style="stroke:#A80036;stroke-width:3.0;" x1="1672" x2="1800" y1="119" y2="119"/><text fill="#000000" font-family="sans-serif" font-size="22" lengthAdjust="spacing" textLength="60" x="1682" y="149.8379">-name</text><text fill="#000000" font-family="sans-serif" font-size="22" lengthAdjust="spacing" textLength="56" x="1682" y="177.5098">-email</text><text fill="#000000" font-family="sans-serif" font-size="22" lengthAdjust="spacing" textLength="108" x="1682" y="205.1816">-password</text><!--MD5=[df38be88ccee13e832d6fafd6288a4ca]
class Test--><rect codeLine="27" fill="#FEFECE" filter="url(#f1oafbk2tck1nd)" height="135.3438" id="Test" style="stroke:#A80036;stroke-width:3.0;" width="116" x="432" y="173"/><ellipse cx="463.8" cy="205" fill="#ADD1B2" rx="22" ry="22" style="stroke:#A80036;stroke-width:2.0;"/><path d="M467.8,198 Q468.2063,197 468.675,196.5 Q469.1438,196 469.675,196 Q470.6125,196 471.2063,196.5625 Q471.8,197.125 471.8,198.4375 L471.8,201.5625 Q471.8,202.875 471.2375,203.4375 Q470.675,204 469.8,204 Q469.0188,204 468.5188,203.6563 Q468.0188,203.3125 467.8,202.4063 Q467.7063,201.7813 467.3625,201.4375 Q466.7375,200.7813 465.6125,200.4063 Q464.4875,200 463.3625,200 Q461.9563,200 460.7688,200.5625 Q459.6125,201.125 458.7063,202.375 Q457.8,203.625 457.8,205.3438 L457.8,207.1875 Q457.8,209.25 459.4875,210.625 Q461.175,212 464.175,212 Q465.9563,212 467.2063,211.5938 Q467.925,211.375 468.7375,210.6563 Q469.2688,210.25 469.55,210.125 Q469.8313,210 470.175,210 Q470.8313,210 471.3,210.5313 Q471.8,211.0313 471.8,211.75 Q471.8,212.4375 471.1125,213.25 Q470.1125,214.4375 468.5188,215.0938 Q466.425,216 463.8625,216 Q460.8625,216 458.4563,214.8125 Q456.5188,213.875 455.1438,211.8438 Q453.8,209.8125 453.8,207.4063 L453.8,205.2188 Q453.8,202.7188 454.9875,200.5313 Q456.2063,198.3438 458.3,197.1875 Q460.425,196 462.8,196 Q464.2375,196 465.4875,196.5 Q466.7375,197 467.8,198 Z " fill="#000000"/><text fill="#000000" font-family="sans-serif" font-size="24" lengthAdjust="spacing" textLength="48" x="492.2" y="214.8203">Test</text><line style="stroke:#A80036;stroke-width:3.0;" x1="434" x2="546" y1="237" y2="237"/><text fill="#000000" font-family="sans-serif" font-size="22" lengthAdjust="spacing" textLength="92" x="444" y="267.8379">-testType</text><text fill="#000000" font-family="sans-serif" font-size="22" lengthAdjust="spacing" textLength="76" x="444" y="295.5098">-sample</text><!--MD5=[9681492165142af2a4a3a169d90ee8d4]
class Sample--><rect codeLine="33" fill="#FEFECE" filter="url(#f1oafbk2tck1nd)" height="135.3438" id="Sample" style="stroke:#A80036;stroke-width:3.0;" width="166" x="752" y="173"/><ellipse cx="789.2" cy="205" fill="#ADD1B2" rx="22" ry="22" style="stroke:#A80036;stroke-width:2.0;"/><path d="M793.2,198 Q793.6063,197 794.075,196.5 Q794.5438,196 795.075,196 Q796.0125,196 796.6063,196.5625 Q797.2,197.125 797.2,198.4375 L797.2,201.5625 Q797.2,202.875 796.6375,203.4375 Q796.075,204 795.2,204 Q794.4188,204 793.9188,203.6563 Q793.4188,203.3125 793.2,202.4063 Q793.1063,201.7813 792.7625,201.4375 Q792.1375,200.7813 791.0125,200.4063 Q789.8875,200 788.7625,200 Q787.3563,200 786.1688,200.5625 Q785.0125,201.125 784.1063,202.375 Q783.2,203.625 783.2,205.3438 L783.2,207.1875 Q783.2,209.25 784.8875,210.625 Q786.575,212 789.575,212 Q791.3563,212 792.6063,211.5938 Q793.325,211.375 794.1375,210.6563 Q794.6688,210.25 794.95,210.125 Q795.2313,210 795.575,210 Q796.2313,210 796.7,210.5313 Q797.2,211.0313 797.2,211.75 Q797.2,212.4375 796.5125,213.25 Q795.5125,214.4375 793.9188,215.0938 Q791.825,216 789.2625,216 Q786.2625,216 783.8563,214.8125 Q781.9188,213.875 780.5438,211.8438 Q779.2,209.8125 779.2,207.4063 L779.2,205.2188 Q779.2,202.7188 780.3875,200.5313 Q781.6063,198.3438 783.7,197.1875 Q785.825,196 788.2,196 Q789.6375,196 790.8875,196.5 Q792.1375,197 793.2,198 Z " fill="#000000"/><text fill="#000000" font-family="sans-serif" font-size="24" lengthAdjust="spacing" textLength="86" x="818.8" y="214.8203">Sample</text><line style="stroke:#A80036;stroke-width:3.0;" x1="754" x2="916" y1="237" y2="237"/><text fill="#000000" font-family="sans-serif" font-size="22" lengthAdjust="spacing" textLength="142" x="764" y="267.8379">-dateCollection</text><text fill="#000000" font-family="sans-serif" font-size="22" lengthAdjust="spacing" textLength="138" x="764" y="295.5098">-timeCollection</text><!--MD5=[aeb3272166074d8737a70b61b1e71682]
class TestType--><rect codeLine="38" fill="#FEFECE" filter="url(#f1oafbk2tck1nd)" height="190.6875" id="TestType" style="stroke:#A80036;stroke-width:3.0;" width="164" x="753" y="380"/><ellipse cx="783" cy="412" fill="#ADD1B2" rx="22" ry="22" style="stroke:#A80036;stroke-width:2.0;"/><path d="M787,405 Q787.4063,404 787.875,403.5 Q788.3438,403 788.875,403 Q789.8125,403 790.4063,403.5625 Q791,404.125 791,405.4375 L791,408.5625 Q791,409.875 790.4375,410.4375 Q789.875,411 789,411 Q788.2188,411 787.7188,410.6563 Q787.2188,410.3125 787,409.4063 Q786.9063,408.7813 786.5625,408.4375 Q785.9375,407.7813 784.8125,407.4063 Q783.6875,407 782.5625,407 Q781.1563,407 779.9688,407.5625 Q778.8125,408.125 777.9063,409.375 Q777,410.625 777,412.3438 L777,414.1875 Q777,416.25 778.6875,417.625 Q780.375,419 783.375,419 Q785.1563,419 786.4063,418.5938 Q787.125,418.375 787.9375,417.6563 Q788.4688,417.25 788.75,417.125 Q789.0313,417 789.375,417 Q790.0313,417 790.5,417.5313 Q791,418.0313 791,418.75 Q791,419.4375 790.3125,420.25 Q789.3125,421.4375 787.7188,422.0938 Q785.625,423 783.0625,423 Q780.0625,423 777.6563,421.8125 Q775.7188,420.875 774.3438,418.8438 Q773,416.8125 773,414.4063 L773,412.2188 Q773,409.7188 774.1875,407.5313 Q775.4063,405.3438 777.5,404.1875 Q779.625,403 782,403 Q783.4375,403 784.6875,403.5 Q785.9375,404 787,405 Z " fill="#000000"/><text fill="#000000" font-family="sans-serif" font-size="24" lengthAdjust="spacing" textLength="100" x="811" y="421.8203">TestType</text><line style="stroke:#A80036;stroke-width:3.0;" x1="755" x2="915" y1="444" y2="444"/><text fill="#000000" font-family="sans-serif" font-size="22" lengthAdjust="spacing" textLength="118" x="765" y="474.8379">-designation</text><text fill="#000000" font-family="sans-serif" font-size="22" lengthAdjust="spacing" textLength="114" x="765" y="502.5098">-description</text><text fill="#000000" font-family="sans-serif" font-size="22" lengthAdjust="spacing" textLength="128" x="765" y="530.1816">-internalCode</text><text fill="#000000" font-family="sans-serif" font-size="22" lengthAdjust="spacing" textLength="94" x="765" y="557.8535">-nhsCode</text><!--MD5=[a999c1570c205a2156b04a15307bc1ff]
class LabOrder--><rect fill="#FEFECE" filter="url(#f1oafbk2tck1nd)" height="80" id="LabOrder" style="stroke:#A80036;stroke-width:3.0;" width="168" x="15" y="283"/><ellipse cx="45" cy="315" fill="#ADD1B2" rx="22" ry="22" style="stroke:#A80036;stroke-width:2.0;"/><path d="M49,308 Q49.4063,307 49.875,306.5 Q50.3438,306 50.875,306 Q51.8125,306 52.4063,306.5625 Q53,307.125 53,308.4375 L53,311.5625 Q53,312.875 52.4375,313.4375 Q51.875,314 51,314 Q50.2188,314 49.7188,313.6563 Q49.2188,313.3125 49,312.4063 Q48.9063,311.7813 48.5625,311.4375 Q47.9375,310.7813 46.8125,310.4063 Q45.6875,310 44.5625,310 Q43.1563,310 41.9688,310.5625 Q40.8125,311.125 39.9063,312.375 Q39,313.625 39,315.3438 L39,317.1875 Q39,319.25 40.6875,320.625 Q42.375,322 45.375,322 Q47.1563,322 48.4063,321.5938 Q49.125,321.375 49.9375,320.6563 Q50.4688,320.25 50.75,320.125 Q51.0313,320 51.375,320 Q52.0313,320 52.5,320.5313 Q53,321.0313 53,321.75 Q53,322.4375 52.3125,323.25 Q51.3125,324.4375 49.7188,325.0938 Q47.625,326 45.0625,326 Q42.0625,326 39.6563,324.8125 Q37.7188,323.875 36.3438,321.8438 Q35,319.8125 35,317.4063 L35,315.2188 Q35,312.7188 36.1875,310.5313 Q37.4063,308.3438 39.5,307.1875 Q41.625,306 44,306 Q45.4375,306 46.6875,306.5 Q47.9375,307 49,308 Z " fill="#000000"/><text fill="#000000" font-family="sans-serif" font-size="24" lengthAdjust="spacing" textLength="104" x="73" y="324.8203">LabOrder</text><line style="stroke:#A80036;stroke-width:3.0;" x1="17" x2="181" y1="347" y2="347"/><!--MD5=[7e4bc624457760b649895ff2ead938fa]
link Company to Test--><path codeLine="46" d="M184.02,176.6 C258.86,192.46 366.88,215.34 431.98,229.12 " fill="none" id="Company-Test" style="stroke:#A80036;stroke-width:2.0;"/><text fill="#000000" font-family="sans-serif" font-size="26" lengthAdjust="spacing" textLength="72" x="272" y="183.9902">does&gt;</text><text fill="#000000" font-family="sans-serif" font-size="26" lengthAdjust="spacing" textLength="14" x="199.8359" y="209.4539">1</text><text fill="#000000" font-family="sans-serif" font-size="26" lengthAdjust="spacing" textLength="10" x="405.8311" y="217.1402">*</text><!--MD5=[b72ac8ab7fb5921fceb5036a3902baea]
link Test to Sample--><path codeLine="47" d="M548.3,241 C603.74,241 688.96,241 751.72,241 " fill="none" id="Test-Sample" style="stroke:#A80036;stroke-width:2.0;"/><text fill="#000000" font-family="sans-serif" font-size="26" lengthAdjust="spacing" textLength="58" x="613" y="233.9902">has&gt;</text><text fill="#000000" font-family="sans-serif" font-size="26" lengthAdjust="spacing" textLength="14" x="564.2169" y="272.0559">1</text><text fill="#000000" font-family="sans-serif" font-size="26" lengthAdjust="spacing" textLength="14" x="722.2031" y="270.8571">1</text><!--MD5=[2fe054cd67471b8fea8c71114980d435]
link Test to Employee--><path codeLine="48" d="M548.24,210.3 C596.5,185.62 668.72,152.6 736,137 C910.24,96.62 1121.46,111.6 1237.06,125.02 " fill="none" id="Test-Employee" style="stroke:#A80036;stroke-width:2.0;"/><text fill="#000000" font-family="sans-serif" font-size="26" lengthAdjust="spacing" textLength="194" x="738" y="105.9902">is performed by&gt;</text><text fill="#000000" font-family="sans-serif" font-size="26" lengthAdjust="spacing" textLength="10" x="563.6548" y="194.0728">*</text><text fill="#000000" font-family="sans-serif" font-size="26" lengthAdjust="spacing" textLength="14" x="1207.9289" y="152.7045">1</text><!--MD5=[e981d4f96c4342412d1e68160b30cf70]
link Test to TestType--><path codeLine="49" d="M548.3,279.64 C603.92,317.8 689.54,376.56 752.36,419.66 " fill="none" id="Test-TestType" style="stroke:#A80036;stroke-width:2.0;"/><text fill="#000000" font-family="sans-serif" font-size="26" lengthAdjust="spacing" textLength="64" x="610" y="315.9902">is of&gt;</text><text fill="#000000" font-family="sans-serif" font-size="26" lengthAdjust="spacing" textLength="14" x="564.2169" y="320.1144">1</text><text fill="#000000" font-family="sans-serif" font-size="26" lengthAdjust="spacing" textLength="14" x="722.9531" y="439.89">1</text><!--MD5=[22fb9506fac029fc1d2ae00f0eb8d606]
link Employee to User--><path codeLine="50" d="M1412.32,137 C1489,137 1599.96,137 1669.48,137 " fill="none" id="Employee-User" style="stroke:#A80036;stroke-width:2.0;"/><polygon fill="#000000" points="1492,119.3516,1473.9098,113.4737,1473.9098,125.2294,1492,119.3516" style="stroke:#000000;stroke-width:2.0;"/><text fill="#000000" font-family="sans-serif" font-size="26" lengthAdjust="spacing" textLength="108" x="1500" y="129.9902">relates to</text><text fill="#000000" font-family="sans-serif" font-size="26" lengthAdjust="spacing" textLength="44" x="1427.6931" y="166.2875">0..1</text><text fill="#000000" font-family="sans-serif" font-size="26" lengthAdjust="spacing" textLength="14" x="1640.3165" y="167.4643">1</text><!--MD5=[c550c0fb93424651c0337773082e9cc5]
link Sample to Employee--><path codeLine="51" d="M918.34,223.6 C1006.7,204.68 1147.26,174.6 1237.3,155.34 " fill="none" id="Sample-Employee" style="stroke:#A80036;stroke-width:2.0;"/><text fill="#000000" font-family="sans-serif" font-size="26" lengthAdjust="spacing" textLength="180" x="996" y="163.9902">is recorded by&gt;</text><text fill="#000000" font-family="sans-serif" font-size="26" lengthAdjust="spacing" textLength="10" x="934.0756" y="250.4619">*</text><text fill="#000000" font-family="sans-serif" font-size="26" lengthAdjust="spacing" textLength="40" x="1182.1547" y="187.2065">1..*</text><!--MD5=[84a279e28ad6c3248737114c29c49c27]
link LabOrder to Test--><path codeLine="52" d="M183.08,305.6 C257.84,289.76 366.3,266.78 431.68,252.94 " fill="none" id="LabOrder-Test" style="stroke:#A80036;stroke-width:2.0;"/><text fill="#000000" font-family="sans-serif" font-size="26" lengthAdjust="spacing" textLength="124" x="246" y="259.9902">gives rise&gt;</text><text fill="#000000" font-family="sans-serif" font-size="26" lengthAdjust="spacing" textLength="14" x="198.7344" y="332.41">1</text><text fill="#000000" font-family="sans-serif" font-size="26" lengthAdjust="spacing" textLength="14" x="401.7583" y="286.9063">1</text><!--MD5=[ec045d562db8986db03abe87b1cc0fbb]
@startuml
hide methods
left to right direction
skinparam classAttributeIconSize 0


class Company {
  -designation
}

class Employee {
  -employeeId
  -name
  -address
  -phoneNumber
  -email
  -socCode
}



class User{
  -name
  -email
  -password
}

class Test{

-testType
-sample
}

class Sample{

-dateCollection
-timeCollection
}
class TestType{
-designation
-description
-internalCode
-nhsCode
}


Company "1" - - "*" Test: does>
Test "1" - - "1" Sample : has>
Test "*" - - "1" Employee : is performed by>
Test "1" - - "1" TestType : is of>
Employee "0..1" - - "1" User: relates to >
Sample "*" - - "1..*" Employee : is recorded by>
LabOrder "1" - - "1" Test : gives rise>
@enduml

PlantUML version 1.2021.5(Sun Apr 25 12:20:28 BST 2021)
(GPL source distribution)
Java Runtime: OpenJDK Runtime Environment
JVM: Dynamic Code Evolution 64-Bit Server VM
Default Encoding: Cp1252
Language: pt
Country: PT
--></g></svg>