<?xml version="1.0" encoding="UTF-8" standalone="no"?><svg xmlns="http://www.w3.org/2000/svg" xmlns:xlink="http://www.w3.org/1999/xlink" contentScriptType="application/ecmascript" contentStyleType="text/css" height="289px" preserveAspectRatio="none" style="width:919px;height:289px;" version="1.1" viewBox="0 0 919 289" width="919px" zoomAndPan="magnify"><defs><filter height="300%" id="f1hkpfzw7vs69o" width="300%" x="-1" y="-1"><feGaussianBlur result="blurOut" stdDeviation="2.0"/><feColorMatrix in="blurOut" result="blurOut2" type="matrix" values="0 0 0 0 0 0 0 0 0 0 0 0 0 0 0 0 0 0 .4 0"/><feOffset dx="4.0" dy="4.0" in="blurOut2" result="blurOut3"/><feBlend in="SourceGraphic" in2="blurOut3" mode="normal"/></filter></defs><g><!--MD5=[02e4b9b7573f1156f41e60aa5b4e25a4]
class Company--><rect codeLine="6" fill="#FEFECE" filter="url(#f1hkpfzw7vs69o)" height="53.8359" id="Company" style="stroke:#A80036;stroke-width:1.5;" width="85" x="7" y="87.5"/><ellipse cx="22" cy="103.5" fill="#ADD1B2" rx="11" ry="11" style="stroke:#A80036;stroke-width:1.0;"/><path d="M24,100 Q24.2031,99.5 24.4375,99.25 Q24.6719,99 24.9375,99 Q25.4063,99 25.7031,99.2813 Q26,99.5625 26,100.2188 L26,101.7813 Q26,102.4375 25.7188,102.7188 Q25.4375,103 25,103 Q24.6094,103 24.3594,102.8281 Q24.1094,102.6563 24,102.2031 Q23.9531,101.8906 23.7813,101.7188 Q23.4688,101.3906 22.9063,101.2031 Q22.3438,101 21.7813,101 Q21.0781,101 20.4844,101.2813 Q19.9063,101.5625 19.4531,102.1875 Q19,102.8125 19,103.6719 L19,104.5938 Q19,105.625 19.8438,106.3125 Q20.6875,107 22.1875,107 Q23.0781,107 23.7031,106.7969 Q24.0625,106.6875 24.4688,106.3281 Q24.7344,106.125 24.875,106.0625 Q25.0156,106 25.1875,106 Q25.5156,106 25.75,106.2656 Q26,106.5156 26,106.875 Q26,107.2188 25.6563,107.625 Q25.1563,108.2188 24.3594,108.5469 Q23.3125,109 22.0313,109 Q20.5313,109 19.3281,108.4063 Q18.3594,107.9375 17.6719,106.9219 Q17,105.9063 17,104.7031 L17,103.6094 Q17,102.3594 17.5938,101.2656 Q18.2031,100.1719 19.25,99.5938 Q20.3125,99 21.5,99 Q22.2188,99 22.8438,99.25 Q23.4688,99.5 24,100 Z " fill="#000000"/><text fill="#000000" font-family="sans-serif" font-size="12" lengthAdjust="spacing" textLength="53" x="36" y="108.4102">Company</text><line style="stroke:#A80036;stroke-width:1.5;" x1="8" x2="91" y1="119.5" y2="119.5"/><text fill="#000000" font-family="sans-serif" font-size="11" lengthAdjust="spacing" textLength="59" x="13" y="134.9189">-designation</text><!--MD5=[7421f545a0d8420c5bec41e74b387d9c]
class Employee--><rect codeLine="10" fill="#FEFECE" filter="url(#f1hkpfzw7vs69o)" height="123.0156" id="Employee" style="stroke:#A80036;stroke-width:1.5;" width="87" x="623" y="7"/><ellipse cx="638" cy="23" fill="#ADD1B2" rx="11" ry="11" style="stroke:#A80036;stroke-width:1.0;"/><path d="M640,19.5 Q640.2031,19 640.4375,18.75 Q640.6719,18.5 640.9375,18.5 Q641.4063,18.5 641.7031,18.7813 Q642,19.0625 642,19.7188 L642,21.2813 Q642,21.9375 641.7188,22.2188 Q641.4375,22.5 641,22.5 Q640.6094,22.5 640.3594,22.3281 Q640.1094,22.1563 640,21.7031 Q639.9531,21.3906 639.7813,21.2188 Q639.4688,20.8906 638.9063,20.7031 Q638.3438,20.5 637.7813,20.5 Q637.0781,20.5 636.4844,20.7813 Q635.9063,21.0625 635.4531,21.6875 Q635,22.3125 635,23.1719 L635,24.0938 Q635,25.125 635.8438,25.8125 Q636.6875,26.5 638.1875,26.5 Q639.0781,26.5 639.7031,26.2969 Q640.0625,26.1875 640.4688,25.8281 Q640.7344,25.625 640.875,25.5625 Q641.0156,25.5 641.1875,25.5 Q641.5156,25.5 641.75,25.7656 Q642,26.0156 642,26.375 Q642,26.7188 641.6563,27.125 Q641.1563,27.7188 640.3594,28.0469 Q639.3125,28.5 638.0313,28.5 Q636.5313,28.5 635.3281,27.9063 Q634.3594,27.4375 633.6719,26.4219 Q633,25.4063 633,24.2031 L633,23.1094 Q633,21.8594 633.5938,20.7656 Q634.2031,19.6719 635.25,19.0938 Q636.3125,18.5 637.5,18.5 Q638.2188,18.5 638.8438,18.75 Q639.4688,19 640,19.5 Z " fill="#000000"/><text fill="#000000" font-family="sans-serif" font-size="12" lengthAdjust="spacing" textLength="55" x="652" y="27.9102">Employee</text><line style="stroke:#A80036;stroke-width:1.5;" x1="624" x2="709" y1="39" y2="39"/><text fill="#000000" font-family="sans-serif" font-size="11" lengthAdjust="spacing" textLength="58" x="629" y="54.4189">-employeeId</text><text fill="#000000" font-family="sans-serif" font-size="11" lengthAdjust="spacing" textLength="30" x="629" y="68.2549">-name</text><text fill="#000000" font-family="sans-serif" font-size="11" lengthAdjust="spacing" textLength="44" x="629" y="82.0908">-address</text><text fill="#000000" font-family="sans-serif" font-size="11" lengthAdjust="spacing" textLength="71" x="629" y="95.9268">-phoneNumber</text><text fill="#000000" font-family="sans-serif" font-size="11" lengthAdjust="spacing" textLength="28" x="629" y="109.7627">-email</text><text fill="#000000" font-family="sans-serif" font-size="11" lengthAdjust="spacing" textLength="47" x="629" y="123.5986">-socCode</text><!--MD5=[3fd616f346a44cd59a91eb10b19e157c]
class User--><rect codeLine="21" fill="#FEFECE" filter="url(#f1hkpfzw7vs69o)" height="81.5078" id="User" style="stroke:#A80036;stroke-width:1.5;" width="66" x="839" y="27.5"/><ellipse cx="857.15" cy="43.5" fill="#ADD1B2" rx="11" ry="11" style="stroke:#A80036;stroke-width:1.0;"/><path d="M859.15,40 Q859.3531,39.5 859.5875,39.25 Q859.8219,39 860.0875,39 Q860.5563,39 860.8531,39.2813 Q861.15,39.5625 861.15,40.2188 L861.15,41.7813 Q861.15,42.4375 860.8688,42.7188 Q860.5875,43 860.15,43 Q859.7594,43 859.5094,42.8281 Q859.2594,42.6563 859.15,42.2031 Q859.1031,41.8906 858.9313,41.7188 Q858.6188,41.3906 858.0563,41.2031 Q857.4938,41 856.9313,41 Q856.2281,41 855.6344,41.2813 Q855.0563,41.5625 854.6031,42.1875 Q854.15,42.8125 854.15,43.6719 L854.15,44.5938 Q854.15,45.625 854.9938,46.3125 Q855.8375,47 857.3375,47 Q858.2281,47 858.8531,46.7969 Q859.2125,46.6875 859.6188,46.3281 Q859.8844,46.125 860.025,46.0625 Q860.1656,46 860.3375,46 Q860.6656,46 860.9,46.2656 Q861.15,46.5156 861.15,46.875 Q861.15,47.2188 860.8063,47.625 Q860.3063,48.2188 859.5094,48.5469 Q858.4625,49 857.1813,49 Q855.6813,49 854.4781,48.4063 Q853.5094,47.9375 852.8219,46.9219 Q852.15,45.9063 852.15,44.7031 L852.15,43.6094 Q852.15,42.3594 852.7438,41.2656 Q853.3531,40.1719 854.4,39.5938 Q855.4625,39 856.65,39 Q857.3688,39 857.9938,39.25 Q858.6188,39.5 859.15,40 Z " fill="#000000"/><text fill="#000000" font-family="sans-serif" font-size="12" lengthAdjust="spacing" textLength="27" x="871.85" y="48.4102">User</text><line style="stroke:#A80036;stroke-width:1.5;" x1="840" x2="904" y1="59.5" y2="59.5"/><text fill="#000000" font-family="sans-serif" font-size="11" lengthAdjust="spacing" textLength="30" x="845" y="74.9189">-name</text><text fill="#000000" font-family="sans-serif" font-size="11" lengthAdjust="spacing" textLength="28" x="845" y="88.7549">-email</text><text fill="#000000" font-family="sans-serif" font-size="11" lengthAdjust="spacing" textLength="54" x="845" y="102.5908">-password</text><!--MD5=[df38be88ccee13e832d6fafd6288a4ca]
class Test--><rect codeLine="27" fill="#FEFECE" filter="url(#f1hkpfzw7vs69o)" height="67.6719" id="Test" style="stroke:#A80036;stroke-width:1.5;" width="62" x="216" y="80.5"/><ellipse cx="233.7" cy="96.5" fill="#ADD1B2" rx="11" ry="11" style="stroke:#A80036;stroke-width:1.0;"/><path d="M235.7,93 Q235.9031,92.5 236.1375,92.25 Q236.3719,92 236.6375,92 Q237.1063,92 237.4031,92.2813 Q237.7,92.5625 237.7,93.2188 L237.7,94.7813 Q237.7,95.4375 237.4188,95.7188 Q237.1375,96 236.7,96 Q236.3094,96 236.0594,95.8281 Q235.8094,95.6563 235.7,95.2031 Q235.6531,94.8906 235.4813,94.7188 Q235.1688,94.3906 234.6063,94.2031 Q234.0438,94 233.4813,94 Q232.7781,94 232.1844,94.2813 Q231.6063,94.5625 231.1531,95.1875 Q230.7,95.8125 230.7,96.6719 L230.7,97.5938 Q230.7,98.625 231.5438,99.3125 Q232.3875,100 233.8875,100 Q234.7781,100 235.4031,99.7969 Q235.7625,99.6875 236.1688,99.3281 Q236.4344,99.125 236.575,99.0625 Q236.7156,99 236.8875,99 Q237.2156,99 237.45,99.2656 Q237.7,99.5156 237.7,99.875 Q237.7,100.2188 237.3563,100.625 Q236.8563,101.2188 236.0594,101.5469 Q235.0125,102 233.7313,102 Q232.2313,102 231.0281,101.4063 Q230.0594,100.9375 229.3719,99.9219 Q228.7,98.9063 228.7,97.7031 L228.7,96.6094 Q228.7,95.3594 229.2938,94.2656 Q229.9031,93.1719 230.95,92.5938 Q232.0125,92 233.2,92 Q233.9188,92 234.5438,92.25 Q235.1688,92.5 235.7,93 Z " fill="#000000"/><text fill="#000000" font-family="sans-serif" font-size="12" lengthAdjust="spacing" textLength="24" x="248.3" y="101.4102">Test</text><line style="stroke:#A80036;stroke-width:1.5;" x1="217" x2="277" y1="112.5" y2="112.5"/><text fill="#000000" font-family="sans-serif" font-size="11" lengthAdjust="spacing" textLength="50" x="222" y="127.9189">-LabOrder</text><text fill="#000000" font-family="sans-serif" font-size="11" lengthAdjust="spacing" textLength="38" x="222" y="141.7549">-sample</text><!--MD5=[9681492165142af2a4a3a169d90ee8d4]
class Sample--><rect codeLine="32" fill="#FEFECE" filter="url(#f1hkpfzw7vs69o)" height="53.8359" id="Sample" style="stroke:#A80036;stroke-width:1.5;" width="75" x="384" y="89.5"/><ellipse cx="399" cy="105.5" fill="#ADD1B2" rx="11" ry="11" style="stroke:#A80036;stroke-width:1.0;"/><path d="M401,102 Q401.2031,101.5 401.4375,101.25 Q401.6719,101 401.9375,101 Q402.4063,101 402.7031,101.2813 Q403,101.5625 403,102.2188 L403,103.7813 Q403,104.4375 402.7188,104.7188 Q402.4375,105 402,105 Q401.6094,105 401.3594,104.8281 Q401.1094,104.6563 401,104.2031 Q400.9531,103.8906 400.7813,103.7188 Q400.4688,103.3906 399.9063,103.2031 Q399.3438,103 398.7813,103 Q398.0781,103 397.4844,103.2813 Q396.9063,103.5625 396.4531,104.1875 Q396,104.8125 396,105.6719 L396,106.5938 Q396,107.625 396.8438,108.3125 Q397.6875,109 399.1875,109 Q400.0781,109 400.7031,108.7969 Q401.0625,108.6875 401.4688,108.3281 Q401.7344,108.125 401.875,108.0625 Q402.0156,108 402.1875,108 Q402.5156,108 402.75,108.2656 Q403,108.5156 403,108.875 Q403,109.2188 402.6563,109.625 Q402.1563,110.2188 401.3594,110.5469 Q400.3125,111 399.0313,111 Q397.5313,111 396.3281,110.4063 Q395.3594,109.9375 394.6719,108.9219 Q394,107.9063 394,106.7031 L394,105.6094 Q394,104.3594 394.5938,103.2656 Q395.2031,102.1719 396.25,101.5938 Q397.3125,101 398.5,101 Q399.2188,101 399.8438,101.25 Q400.4688,101.5 401,102 Z " fill="#000000"/><text fill="#000000" font-family="sans-serif" font-size="12" lengthAdjust="spacing" textLength="43" x="413" y="110.4102">Sample</text><line style="stroke:#A80036;stroke-width:1.5;" x1="385" x2="458" y1="121.5" y2="121.5"/><text fill="#000000" font-family="sans-serif" font-size="11" lengthAdjust="spacing" textLength="44" x="390" y="136.9189">-barcode</text><!--MD5=[aeb3272166074d8737a70b61b1e71682]
class TestType--><rect codeLine="37" fill="#FEFECE" filter="url(#f1hkpfzw7vs69o)" height="95.3438" id="TestType" style="stroke:#A80036;stroke-width:1.5;" width="82" x="380.5" y="180"/><ellipse cx="395.5" cy="196" fill="#ADD1B2" rx="11" ry="11" style="stroke:#A80036;stroke-width:1.0;"/><path d="M397.5,192.5 Q397.7031,192 397.9375,191.75 Q398.1719,191.5 398.4375,191.5 Q398.9063,191.5 399.2031,191.7813 Q399.5,192.0625 399.5,192.7188 L399.5,194.2813 Q399.5,194.9375 399.2188,195.2188 Q398.9375,195.5 398.5,195.5 Q398.1094,195.5 397.8594,195.3281 Q397.6094,195.1563 397.5,194.7031 Q397.4531,194.3906 397.2813,194.2188 Q396.9688,193.8906 396.4063,193.7031 Q395.8438,193.5 395.2813,193.5 Q394.5781,193.5 393.9844,193.7813 Q393.4063,194.0625 392.9531,194.6875 Q392.5,195.3125 392.5,196.1719 L392.5,197.0938 Q392.5,198.125 393.3438,198.8125 Q394.1875,199.5 395.6875,199.5 Q396.5781,199.5 397.2031,199.2969 Q397.5625,199.1875 397.9688,198.8281 Q398.2344,198.625 398.375,198.5625 Q398.5156,198.5 398.6875,198.5 Q399.0156,198.5 399.25,198.7656 Q399.5,199.0156 399.5,199.375 Q399.5,199.7188 399.1563,200.125 Q398.6563,200.7188 397.8594,201.0469 Q396.8125,201.5 395.5313,201.5 Q394.0313,201.5 392.8281,200.9063 Q391.8594,200.4375 391.1719,199.4219 Q390.5,198.4063 390.5,197.2031 L390.5,196.1094 Q390.5,194.8594 391.0938,193.7656 Q391.7031,192.6719 392.75,192.0938 Q393.8125,191.5 395,191.5 Q395.7188,191.5 396.3438,191.75 Q396.9688,192 397.5,192.5 Z " fill="#000000"/><text fill="#000000" font-family="sans-serif" font-size="12" lengthAdjust="spacing" textLength="50" x="409.5" y="200.9102">TestType</text><line style="stroke:#A80036;stroke-width:1.5;" x1="381.5" x2="461.5" y1="212" y2="212"/><text fill="#000000" font-family="sans-serif" font-size="11" lengthAdjust="spacing" textLength="59" x="386.5" y="227.4189">-designation</text><text fill="#000000" font-family="sans-serif" font-size="11" lengthAdjust="spacing" textLength="57" x="386.5" y="241.2549">-description</text><text fill="#000000" font-family="sans-serif" font-size="11" lengthAdjust="spacing" textLength="64" x="386.5" y="255.0908">-internalCode</text><text fill="#000000" font-family="sans-serif" font-size="11" lengthAdjust="spacing" textLength="47" x="386.5" y="268.9268">-nhsCode</text><!--MD5=[a999c1570c205a2156b04a15307bc1ff]
class LabOrder--><rect codeLine="43" fill="#FEFECE" filter="url(#f1hkpfzw7vs69o)" height="67.6719" id="LabOrder" style="stroke:#A80036;stroke-width:1.5;" width="84" x="7.5" y="186.5"/><ellipse cx="22.5" cy="202.5" fill="#ADD1B2" rx="11" ry="11" style="stroke:#A80036;stroke-width:1.0;"/><path d="M24.5,199 Q24.7031,198.5 24.9375,198.25 Q25.1719,198 25.4375,198 Q25.9063,198 26.2031,198.2813 Q26.5,198.5625 26.5,199.2188 L26.5,200.7813 Q26.5,201.4375 26.2188,201.7188 Q25.9375,202 25.5,202 Q25.1094,202 24.8594,201.8281 Q24.6094,201.6563 24.5,201.2031 Q24.4531,200.8906 24.2813,200.7188 Q23.9688,200.3906 23.4063,200.2031 Q22.8438,200 22.2813,200 Q21.5781,200 20.9844,200.2813 Q20.4063,200.5625 19.9531,201.1875 Q19.5,201.8125 19.5,202.6719 L19.5,203.5938 Q19.5,204.625 20.3438,205.3125 Q21.1875,206 22.6875,206 Q23.5781,206 24.2031,205.7969 Q24.5625,205.6875 24.9688,205.3281 Q25.2344,205.125 25.375,205.0625 Q25.5156,205 25.6875,205 Q26.0156,205 26.25,205.2656 Q26.5,205.5156 26.5,205.875 Q26.5,206.2188 26.1563,206.625 Q25.6563,207.2188 24.8594,207.5469 Q23.8125,208 22.5313,208 Q21.0313,208 19.8281,207.4063 Q18.8594,206.9375 18.1719,205.9219 Q17.5,204.9063 17.5,203.7031 L17.5,202.6094 Q17.5,201.3594 18.0938,200.2656 Q18.7031,199.1719 19.75,198.5938 Q20.8125,198 22,198 Q22.7188,198 23.3438,198.25 Q23.9688,198.5 24.5,199 Z " fill="#000000"/><text fill="#000000" font-family="sans-serif" font-size="12" lengthAdjust="spacing" textLength="52" x="36.5" y="207.4102">LabOrder</text><line style="stroke:#A80036;stroke-width:1.5;" x1="8.5" x2="90.5" y1="218.5" y2="218.5"/><text fill="#000000" font-family="sans-serif" font-size="11" lengthAdjust="spacing" textLength="46" x="13.5" y="233.9189">-testType</text><text fill="#000000" font-family="sans-serif" font-size="11" lengthAdjust="spacing" textLength="59" x="13.5" y="247.7549">-Parameters</text><!--MD5=[7e4bc624457760b649895ff2ead938fa]
link Company to Test--><path codeLine="48" d="M92.44,114.5 C129.58,114.5 182.88,114.5 215.92,114.5 " fill="none" id="Company-Test" style="stroke:#A80036;stroke-width:1.0;"/><text fill="#000000" font-family="sans-serif" font-size="13" lengthAdjust="spacing" textLength="36" x="136" y="110.9951">does&gt;</text><text fill="#000000" font-family="sans-serif" font-size="13" lengthAdjust="spacing" textLength="7" x="100.1316" y="129.3628">1</text><text fill="#000000" font-family="sans-serif" font-size="13" lengthAdjust="spacing" textLength="5" x="203.1546" y="129.9237">*</text><!--MD5=[b72ac8ab7fb5921fceb5036a3902baea]
link Test to Sample--><path codeLine="49" d="M278.05,114.85 C307.49,115.19 352.4,115.71 383.91,116.08 " fill="none" id="Test-Sample" style="stroke:#A80036;stroke-width:1.0;"/><text fill="#000000" font-family="sans-serif" font-size="13" lengthAdjust="spacing" textLength="29" x="310.5" y="110.9951">has&gt;</text><text fill="#000000" font-family="sans-serif" font-size="13" lengthAdjust="spacing" textLength="7" x="286.0397" y="130.3546">1</text><text fill="#000000" font-family="sans-serif" font-size="13" lengthAdjust="spacing" textLength="7" x="369.0772" y="131.0692">1</text><!--MD5=[2fe054cd67471b8fea8c71114980d435]
link Test to Employee--><path codeLine="50" d="M278.18,100.38 C287.61,96.25 298.13,91.93 308,88.5 C335.8,78.84 343.07,76.88 372,71.5 C468.76,53.51 494.86,50.1 593,57.5 C602.65,58.23 612.96,59.49 622.68,60.91 " fill="none" id="Test-Employee" style="stroke:#A80036;stroke-width:1.0;"/><text fill="#000000" font-family="sans-serif" font-size="13" lengthAdjust="spacing" textLength="97" x="373" y="52.9951">is performed by&gt;</text><text fill="#000000" font-family="sans-serif" font-size="13" lengthAdjust="spacing" textLength="5" x="285.9685" y="112.5385">*</text><text fill="#000000" font-family="sans-serif" font-size="13" lengthAdjust="spacing" textLength="7" x="608.1384" y="74.4972">1</text><!--MD5=[e981d4f96c4342412d1e68160b30cf70]
link Test to TestType--><path codeLine="51" d="M278.05,134.18 C306.43,152.77 349.18,180.78 380.45,201.26 " fill="none" id="Test-TestType" style="stroke:#A80036;stroke-width:1.0;"/><text fill="#000000" font-family="sans-serif" font-size="13" lengthAdjust="spacing" textLength="32" x="309" y="149.9951">is of&gt;</text><text fill="#000000" font-family="sans-serif" font-size="13" lengthAdjust="spacing" textLength="7" x="286.0397" y="154.1547">1</text><text fill="#000000" font-family="sans-serif" font-size="13" lengthAdjust="spacing" textLength="7" x="365.5145" y="211.5068">1</text><!--MD5=[22fb9506fac029fc1d2ae00f0eb8d606]
link Employee to User--><path codeLine="52" d="M710.16,68.5 C748.5,68.5 803.98,68.5 838.74,68.5 " fill="none" id="Employee-User" style="stroke:#A80036;stroke-width:1.0;"/><polygon fill="#000000" points="750,59.6758,740.9549,56.7369,740.9549,62.6147,750,59.6758" style="stroke:#000000;stroke-width:1.0;"/><text fill="#000000" font-family="sans-serif" font-size="13" lengthAdjust="spacing" textLength="54" x="754" y="64.9951">relates to</text><text fill="#000000" font-family="sans-serif" font-size="13" lengthAdjust="spacing" textLength="22" x="717.8466" y="83.1437">0..1</text><text fill="#000000" font-family="sans-serif" font-size="13" lengthAdjust="spacing" textLength="7" x="824.1583" y="83.7321">1</text><!--MD5=[c550c0fb93424651c0337773082e9cc5]
link Sample to Employee--><path codeLine="53" d="M459.14,109.26 C503.03,100.59 576.42,86.1 622.82,76.93 " fill="none" id="Sample-Employee" style="stroke:#A80036;stroke-width:1.0;"/><text fill="#000000" font-family="sans-serif" font-size="13" lengthAdjust="spacing" textLength="90" x="502" y="79.9951">is recorded by&gt;</text><text fill="#000000" font-family="sans-serif" font-size="13" lengthAdjust="spacing" textLength="5" x="467.0426" y="122.9555">*</text><text fill="#000000" font-family="sans-serif" font-size="13" lengthAdjust="spacing" textLength="20" x="594.9358" y="92.8629">1..*</text><!--MD5=[84a279e28ad6c3248737114c29c49c27]
link LabOrder to Test--><path codeLine="54" d="M91.96,198.02 C129.06,177.9 182.57,148.89 215.77,130.89 " fill="none" id="LabOrder-Test" style="stroke:#A80036;stroke-width:1.0;"/><text fill="#000000" font-family="sans-serif" font-size="13" lengthAdjust="spacing" textLength="62" x="123" y="144.9951">gives rise&gt;</text><text fill="#000000" font-family="sans-serif" font-size="13" lengthAdjust="spacing" textLength="7" x="99.5721" y="209.1732">1</text><text fill="#000000" font-family="sans-serif" font-size="13" lengthAdjust="spacing" textLength="7" x="201.1728" y="149.7948">1</text><!--MD5=[fba3ac294f3c76c431d275cef443fef8]
link LabOrder to TestType--><path codeLine="56" d="M91.51,221.28 C163.01,222.63 309.6,225.4 380.43,226.74 " fill="none" id="LabOrder-TestType" style="stroke:#A80036;stroke-width:1.0;"/><text fill="#000000" font-family="sans-serif" font-size="13" lengthAdjust="spacing" textLength="29" x="232.5" y="219.9951">has&gt;</text><text fill="#000000" font-family="sans-serif" font-size="13" lengthAdjust="spacing" textLength="7" x="99.6165" y="236.3996">1</text><text fill="#000000" font-family="sans-serif" font-size="13" lengthAdjust="spacing" textLength="7" x="365.491" y="241.5254">1</text><!--MD5=[4a2a016eeec1373b7fb5f04798eb51c6]
@startuml
hide methods
left to right direction
skinparam classAttributeIconSize 0


class Company {
  -designation
}

class Employee {
  -employeeId
  -name
  -address
  -phoneNumber
  -email
  -socCode
}



class User{
  -name
  -email
  -password
}

class Test{
-LabOrder
-sample
}

class Sample{

-barcode
}

class TestType{
-designation
-description
-internalCode
-nhsCode
}
class LabOrder{
-testType
-Parameters
}

Company "1" - - "*" Test: does>
Test "1" - - "1" Sample : has>
Test "*" - - "1" Employee : is performed by>
Test "1" - - "1" TestType : is of>
Employee "0..1" - - "1" User: relates to >
Sample "*" - - "1..*" Employee : is recorded by>
LabOrder "1" - - "1" Test : gives rise>

LabOrder "1" - - "1" TestType : has>
@enduml

PlantUML version 1.2021.00(Sun Jan 10 10:25:05 GMT 2021)
(GPL source distribution)
Java Runtime: OpenJDK Runtime Environment
JVM: OpenJDK 64-Bit Server VM
Default Encoding: Cp1252
Language: pt
Country: PT
--></g></svg>