<?xml version="1.0" encoding="UTF-8" standalone="no"?><svg xmlns="http://www.w3.org/2000/svg" xmlns:xlink="http://www.w3.org/1999/xlink" contentScriptType="application/ecmascript" contentStyleType="text/css" height="306px" preserveAspectRatio="none" style="width:1045px;height:306px;background:#FFFFFF;" version="1.1" viewBox="0 0 1045 306" width="1045px" zoomAndPan="magnify"><defs><filter height="300%" id="f1e93oq31zhh8i" width="300%" x="-1" y="-1"><feGaussianBlur result="blurOut" stdDeviation="2.0"/><feColorMatrix in="blurOut" result="blurOut2" type="matrix" values="0 0 0 0 0 0 0 0 0 0 0 0 0 0 0 0 0 0 .4 0"/><feOffset dx="4.0" dy="4.0" in="blurOut2" result="blurOut3"/><feBlend in="SourceGraphic" in2="blurOut3" mode="normal"/></filter></defs><g><!--MD5=[02e4b9b7573f1156f41e60aa5b4e25a4]
class Company--><rect codeLine="6" fill="#FEFECE" filter="url(#f1e93oq31zhh8i)" height="52.8047" id="Company" style="stroke:#A80036;stroke-width:1.5;" width="88" x="7.5" y="65"/><ellipse cx="22.5" cy="81" fill="#ADD1B2" rx="11" ry="11" style="stroke:#A80036;stroke-width:1.0;"/><path d="M24.8438,76.6719 C23.9063,76.2344 23.3125,76.0938 22.4375,76.0938 C19.8125,76.0938 17.8125,78.1719 17.8125,80.8906 L17.8125,82.0156 C17.8125,84.5938 19.9219,86.4844 22.8125,86.4844 C24.0313,86.4844 25.1875,86.1875 25.9375,85.6406 C26.5156,85.2344 26.8438,84.7813 26.8438,84.3906 C26.8438,83.9375 26.4531,83.5469 25.9844,83.5469 C25.7656,83.5469 25.5625,83.625 25.375,83.8125 C24.9219,84.2969 24.9219,84.2969 24.7344,84.3906 C24.3125,84.6563 23.625,84.7813 22.8594,84.7813 C20.8125,84.7813 19.5156,83.6875 19.5156,81.9844 L19.5156,80.8906 C19.5156,79.1094 20.7656,77.7969 22.5,77.7969 C23.0781,77.7969 23.6875,77.9531 24.1563,78.2031 C24.6406,78.4844 24.8125,78.7031 24.9063,79.1094 C24.9688,79.5156 25,79.6406 25.1406,79.7656 C25.2813,79.9063 25.5156,80.0156 25.7344,80.0156 C26,80.0156 26.2656,79.875 26.4375,79.6563 C26.5469,79.5 26.5781,79.3125 26.5781,78.8906 L26.5781,77.4688 C26.5781,77.0313 26.5625,76.9063 26.4688,76.75 C26.3125,76.4844 26.0313,76.3438 25.7344,76.3438 C25.4375,76.3438 25.2344,76.4375 25.0156,76.75 L24.8438,76.6719 Z " fill="#000000"/><text fill="#000000" font-family="sans-serif" font-size="12" lengthAdjust="spacing" textLength="56" x="36.5" y="85.1543">Company</text><line style="stroke:#A80036;stroke-width:1.5;" x1="8.5" x2="94.5" y1="97" y2="97"/><text fill="#000000" font-family="sans-serif" font-size="11" lengthAdjust="spacing" textLength="70" x="13.5" y="111.2104">-designation</text><!--MD5=[7421f545a0d8420c5bec41e74b387d9c]
class Employee--><rect codeLine="10" fill="#FEFECE" filter="url(#f1e93oq31zhh8i)" height="116.8281" id="Employee" style="stroke:#A80036;stroke-width:1.5;" width="97" x="729" y="7"/><ellipse cx="746.25" cy="23" fill="#ADD1B2" rx="11" ry="11" style="stroke:#A80036;stroke-width:1.0;"/><path d="M748.5938,18.6719 C747.6563,18.2344 747.0625,18.0938 746.1875,18.0938 C743.5625,18.0938 741.5625,20.1719 741.5625,22.8906 L741.5625,24.0156 C741.5625,26.5938 743.6719,28.4844 746.5625,28.4844 C747.7813,28.4844 748.9375,28.1875 749.6875,27.6406 C750.2656,27.2344 750.5938,26.7813 750.5938,26.3906 C750.5938,25.9375 750.2031,25.5469 749.7344,25.5469 C749.5156,25.5469 749.3125,25.625 749.125,25.8125 C748.6719,26.2969 748.6719,26.2969 748.4844,26.3906 C748.0625,26.6563 747.375,26.7813 746.6094,26.7813 C744.5625,26.7813 743.2656,25.6875 743.2656,23.9844 L743.2656,22.8906 C743.2656,21.1094 744.5156,19.7969 746.25,19.7969 C746.8281,19.7969 747.4375,19.9531 747.9063,20.2031 C748.3906,20.4844 748.5625,20.7031 748.6563,21.1094 C748.7188,21.5156 748.75,21.6406 748.8906,21.7656 C749.0313,21.9063 749.2656,22.0156 749.4844,22.0156 C749.75,22.0156 750.0156,21.875 750.1875,21.6563 C750.2969,21.5 750.3281,21.3125 750.3281,20.8906 L750.3281,19.4688 C750.3281,19.0313 750.3125,18.9063 750.2188,18.75 C750.0625,18.4844 749.7813,18.3438 749.4844,18.3438 C749.1875,18.3438 748.9844,18.4375 748.7656,18.75 L748.5938,18.6719 Z " fill="#000000"/><text fill="#000000" font-family="sans-serif" font-size="12" lengthAdjust="spacing" textLength="60" x="760.75" y="27.1543">Employee</text><line style="stroke:#A80036;stroke-width:1.5;" x1="730" x2="825" y1="39" y2="39"/><text fill="#000000" font-family="sans-serif" font-size="11" lengthAdjust="spacing" textLength="73" x="735" y="53.2104">-employeeId</text><text fill="#000000" font-family="sans-serif" font-size="11" lengthAdjust="spacing" textLength="37" x="735" y="66.0151">-name</text><text fill="#000000" font-family="sans-serif" font-size="11" lengthAdjust="spacing" textLength="49" x="735" y="78.8198">-address</text><text fill="#000000" font-family="sans-serif" font-size="11" lengthAdjust="spacing" textLength="85" x="735" y="91.6245">-phoneNumber</text><text fill="#000000" font-family="sans-serif" font-size="11" lengthAdjust="spacing" textLength="36" x="735" y="104.4292">-email</text><text fill="#000000" font-family="sans-serif" font-size="11" lengthAdjust="spacing" textLength="53" x="735" y="117.2339">-socCode</text><!--MD5=[3fd616f346a44cd59a91eb10b19e157c]
class User--><rect codeLine="21" fill="#FEFECE" filter="url(#f1e93oq31zhh8i)" height="78.4141" id="User" style="stroke:#A80036;stroke-width:1.5;" width="69" x="962" y="26.5"/><ellipse cx="980.6" cy="42.5" fill="#ADD1B2" rx="11" ry="11" style="stroke:#A80036;stroke-width:1.0;"/><path d="M982.9438,38.1719 C982.0063,37.7344 981.4125,37.5938 980.5375,37.5938 C977.9125,37.5938 975.9125,39.6719 975.9125,42.3906 L975.9125,43.5156 C975.9125,46.0938 978.0219,47.9844 980.9125,47.9844 C982.1313,47.9844 983.2875,47.6875 984.0375,47.1406 C984.6156,46.7344 984.9438,46.2813 984.9438,45.8906 C984.9438,45.4375 984.5531,45.0469 984.0844,45.0469 C983.8656,45.0469 983.6625,45.125 983.475,45.3125 C983.0219,45.7969 983.0219,45.7969 982.8344,45.8906 C982.4125,46.1563 981.725,46.2813 980.9594,46.2813 C978.9125,46.2813 977.6156,45.1875 977.6156,43.4844 L977.6156,42.3906 C977.6156,40.6094 978.8656,39.2969 980.6,39.2969 C981.1781,39.2969 981.7875,39.4531 982.2563,39.7031 C982.7406,39.9844 982.9125,40.2031 983.0063,40.6094 C983.0688,41.0156 983.1,41.1406 983.2406,41.2656 C983.3813,41.4063 983.6156,41.5156 983.8344,41.5156 C984.1,41.5156 984.3656,41.375 984.5375,41.1563 C984.6469,41 984.6781,40.8125 984.6781,40.3906 L984.6781,38.9688 C984.6781,38.5313 984.6625,38.4063 984.5688,38.25 C984.4125,37.9844 984.1313,37.8438 983.8344,37.8438 C983.5375,37.8438 983.3344,37.9375 983.1156,38.25 L982.9438,38.1719 Z " fill="#000000"/><text fill="#000000" font-family="sans-serif" font-size="12" lengthAdjust="spacing" textLength="29" x="995.4" y="46.6543">User</text><line style="stroke:#A80036;stroke-width:1.5;" x1="963" x2="1030" y1="58.5" y2="58.5"/><text fill="#000000" font-family="sans-serif" font-size="11" lengthAdjust="spacing" textLength="37" x="968" y="72.7104">-name</text><text fill="#000000" font-family="sans-serif" font-size="11" lengthAdjust="spacing" textLength="36" x="968" y="85.5151">-email</text><text fill="#000000" font-family="sans-serif" font-size="11" lengthAdjust="spacing" textLength="57" x="968" y="98.3198">-password</text><!--MD5=[df38be88ccee13e832d6fafd6288a4ca]
class Test--><rect codeLine="27" fill="#FEFECE" filter="url(#f1e93oq31zhh8i)" height="65.6094" id="Test" style="stroke:#A80036;stroke-width:1.5;" width="67" x="229" y="99.5"/><ellipse cx="248.05" cy="115.5" fill="#ADD1B2" rx="11" ry="11" style="stroke:#A80036;stroke-width:1.0;"/><path d="M250.3938,111.1719 C249.4563,110.7344 248.8625,110.5938 247.9875,110.5938 C245.3625,110.5938 243.3625,112.6719 243.3625,115.3906 L243.3625,116.5156 C243.3625,119.0938 245.4719,120.9844 248.3625,120.9844 C249.5813,120.9844 250.7375,120.6875 251.4875,120.1406 C252.0656,119.7344 252.3938,119.2813 252.3938,118.8906 C252.3938,118.4375 252.0031,118.0469 251.5344,118.0469 C251.3156,118.0469 251.1125,118.125 250.925,118.3125 C250.4719,118.7969 250.4719,118.7969 250.2844,118.8906 C249.8625,119.1563 249.175,119.2813 248.4094,119.2813 C246.3625,119.2813 245.0656,118.1875 245.0656,116.4844 L245.0656,115.3906 C245.0656,113.6094 246.3156,112.2969 248.05,112.2969 C248.6281,112.2969 249.2375,112.4531 249.7063,112.7031 C250.1906,112.9844 250.3625,113.2031 250.4563,113.6094 C250.5188,114.0156 250.55,114.1406 250.6906,114.2656 C250.8313,114.4063 251.0656,114.5156 251.2844,114.5156 C251.55,114.5156 251.8156,114.375 251.9875,114.1563 C252.0969,114 252.1281,113.8125 252.1281,113.3906 L252.1281,111.9688 C252.1281,111.5313 252.1125,111.4063 252.0188,111.25 C251.8625,110.9844 251.5813,110.8438 251.2844,110.8438 C250.9875,110.8438 250.7844,110.9375 250.5656,111.25 L250.3938,111.1719 Z " fill="#000000"/><text fill="#000000" font-family="sans-serif" font-size="12" lengthAdjust="spacing" textLength="26" x="262.95" y="119.6543">Test</text><line style="stroke:#A80036;stroke-width:1.5;" x1="230" x2="295" y1="131.5" y2="131.5"/><text fill="#000000" font-family="sans-serif" font-size="11" lengthAdjust="spacing" textLength="55" x="235" y="145.7104">-testType</text><text fill="#000000" font-family="sans-serif" font-size="11" lengthAdjust="spacing" textLength="46" x="235" y="158.5151">-sample</text><!--MD5=[9681492165142af2a4a3a169d90ee8d4]
class Sample--><rect codeLine="33" fill="#FEFECE" filter="url(#f1e93oq31zhh8i)" height="65.6094" id="Sample" style="stroke:#A80036;stroke-width:1.5;" width="98" x="460" y="99.5"/><ellipse cx="484.45" cy="115.5" fill="#ADD1B2" rx="11" ry="11" style="stroke:#A80036;stroke-width:1.0;"/><path d="M486.7938,111.1719 C485.8563,110.7344 485.2625,110.5938 484.3875,110.5938 C481.7625,110.5938 479.7625,112.6719 479.7625,115.3906 L479.7625,116.5156 C479.7625,119.0938 481.8719,120.9844 484.7625,120.9844 C485.9813,120.9844 487.1375,120.6875 487.8875,120.1406 C488.4656,119.7344 488.7938,119.2813 488.7938,118.8906 C488.7938,118.4375 488.4031,118.0469 487.9344,118.0469 C487.7156,118.0469 487.5125,118.125 487.325,118.3125 C486.8719,118.7969 486.8719,118.7969 486.6844,118.8906 C486.2625,119.1563 485.575,119.2813 484.8094,119.2813 C482.7625,119.2813 481.4656,118.1875 481.4656,116.4844 L481.4656,115.3906 C481.4656,113.6094 482.7156,112.2969 484.45,112.2969 C485.0281,112.2969 485.6375,112.4531 486.1063,112.7031 C486.5906,112.9844 486.7625,113.2031 486.8563,113.6094 C486.9188,114.0156 486.95,114.1406 487.0906,114.2656 C487.2313,114.4063 487.4656,114.5156 487.6844,114.5156 C487.95,114.5156 488.2156,114.375 488.3875,114.1563 C488.4969,114 488.5281,113.8125 488.5281,113.3906 L488.5281,111.9688 C488.5281,111.5313 488.5125,111.4063 488.4188,111.25 C488.2625,110.9844 487.9813,110.8438 487.6844,110.8438 C487.3875,110.8438 487.1844,110.9375 486.9656,111.25 L486.7938,111.1719 Z " fill="#000000"/><text fill="#000000" font-family="sans-serif" font-size="12" lengthAdjust="spacing" textLength="45" x="500.55" y="119.6543">Sample</text><line style="stroke:#A80036;stroke-width:1.5;" x1="461" x2="557" y1="131.5" y2="131.5"/><text fill="#000000" font-family="sans-serif" font-size="11" lengthAdjust="spacing" textLength="86" x="466" y="145.7104">-dateCollection</text><text fill="#000000" font-family="sans-serif" font-size="11" lengthAdjust="spacing" textLength="86" x="466" y="158.5151">-timeCollection</text><!--MD5=[aeb3272166074d8737a70b61b1e71682]
class TestType--><rect codeLine="38" fill="#FEFECE" filter="url(#f1e93oq31zhh8i)" height="91.2188" id="TestType" style="stroke:#A80036;stroke-width:1.5;" width="89" x="464.5" y="201"/><ellipse cx="479.95" cy="217" fill="#ADD1B2" rx="11" ry="11" style="stroke:#A80036;stroke-width:1.0;"/><path d="M482.2938,212.6719 C481.3563,212.2344 480.7625,212.0938 479.8875,212.0938 C477.2625,212.0938 475.2625,214.1719 475.2625,216.8906 L475.2625,218.0156 C475.2625,220.5938 477.3719,222.4844 480.2625,222.4844 C481.4813,222.4844 482.6375,222.1875 483.3875,221.6406 C483.9656,221.2344 484.2938,220.7813 484.2938,220.3906 C484.2938,219.9375 483.9031,219.5469 483.4344,219.5469 C483.2156,219.5469 483.0125,219.625 482.825,219.8125 C482.3719,220.2969 482.3719,220.2969 482.1844,220.3906 C481.7625,220.6563 481.075,220.7813 480.3094,220.7813 C478.2625,220.7813 476.9656,219.6875 476.9656,217.9844 L476.9656,216.8906 C476.9656,215.1094 478.2156,213.7969 479.95,213.7969 C480.5281,213.7969 481.1375,213.9531 481.6063,214.2031 C482.0906,214.4844 482.2625,214.7031 482.3563,215.1094 C482.4188,215.5156 482.45,215.6406 482.5906,215.7656 C482.7313,215.9063 482.9656,216.0156 483.1844,216.0156 C483.45,216.0156 483.7156,215.875 483.8875,215.6563 C483.9969,215.5 484.0281,215.3125 484.0281,214.8906 L484.0281,213.4688 C484.0281,213.0313 484.0125,212.9063 483.9188,212.75 C483.7625,212.4844 483.4813,212.3438 483.1844,212.3438 C482.8875,212.3438 482.6844,212.4375 482.4656,212.75 L482.2938,212.6719 Z " fill="#000000"/><text fill="#000000" font-family="sans-serif" font-size="12" lengthAdjust="spacing" textLength="56" x="494.05" y="221.1543">TestType</text><line style="stroke:#A80036;stroke-width:1.5;" x1="465.5" x2="552.5" y1="233" y2="233"/><text fill="#000000" font-family="sans-serif" font-size="11" lengthAdjust="spacing" textLength="70" x="470.5" y="247.2104">-designation</text><text fill="#000000" font-family="sans-serif" font-size="11" lengthAdjust="spacing" textLength="66" x="470.5" y="260.0151">-description</text><text fill="#000000" font-family="sans-serif" font-size="11" lengthAdjust="spacing" textLength="77" x="470.5" y="272.8198">-internalCode</text><text fill="#000000" font-family="sans-serif" font-size="11" lengthAdjust="spacing" textLength="54" x="470.5" y="285.6245">-nhsCode</text><!--MD5=[a999c1570c205a2156b04a15307bc1ff]
class LabOrder--><rect fill="#FEFECE" filter="url(#f1e93oq31zhh8i)" height="40" id="LabOrder" style="stroke:#A80036;stroke-width:1.5;" width="89" x="7" y="153.5"/><ellipse cx="22" cy="169.5" fill="#ADD1B2" rx="11" ry="11" style="stroke:#A80036;stroke-width:1.0;"/><path d="M24.3438,165.1719 C23.4063,164.7344 22.8125,164.5938 21.9375,164.5938 C19.3125,164.5938 17.3125,166.6719 17.3125,169.3906 L17.3125,170.5156 C17.3125,173.0938 19.4219,174.9844 22.3125,174.9844 C23.5313,174.9844 24.6875,174.6875 25.4375,174.1406 C26.0156,173.7344 26.3438,173.2813 26.3438,172.8906 C26.3438,172.4375 25.9531,172.0469 25.4844,172.0469 C25.2656,172.0469 25.0625,172.125 24.875,172.3125 C24.4219,172.7969 24.4219,172.7969 24.2344,172.8906 C23.8125,173.1563 23.125,173.2813 22.3594,173.2813 C20.3125,173.2813 19.0156,172.1875 19.0156,170.4844 L19.0156,169.3906 C19.0156,167.6094 20.2656,166.2969 22,166.2969 C22.5781,166.2969 23.1875,166.4531 23.6563,166.7031 C24.1406,166.9844 24.3125,167.2031 24.4063,167.6094 C24.4688,168.0156 24.5,168.1406 24.6406,168.2656 C24.7813,168.4063 25.0156,168.5156 25.2344,168.5156 C25.5,168.5156 25.7656,168.375 25.9375,168.1563 C26.0469,168 26.0781,167.8125 26.0781,167.3906 L26.0781,165.9688 C26.0781,165.5313 26.0625,165.4063 25.9688,165.25 C25.8125,164.9844 25.5313,164.8438 25.2344,164.8438 C24.9375,164.8438 24.7344,164.9375 24.5156,165.25 L24.3438,165.1719 Z " fill="#000000"/><text fill="#000000" font-family="sans-serif" font-size="12" lengthAdjust="spacing" textLength="57" x="36" y="173.6543">LabOrder</text><line style="stroke:#A80036;stroke-width:1.5;" x1="8" x2="95" y1="185.5" y2="185.5"/><!--MD5=[7e4bc624457760b649895ff2ead938fa]
link Company to Test--><path codeLine="46" d="M95.5515,99.946 C135.105,107.705 192.874,119.037 228.775,126.08 " fill="none" id="Company-Test" style="stroke:#A80036;stroke-width:1.0;"/><text fill="#000000" font-family="sans-serif" font-size="13" lengthAdjust="spacing" textLength="41" x="142" y="101.5669">does&gt;</text><text fill="#000000" font-family="sans-serif" font-size="13" lengthAdjust="spacing" textLength="8" x="103.51" y="114.6811">1</text><text fill="#000000" font-family="sans-serif" font-size="13" lengthAdjust="spacing" textLength="7" x="214.0973" y="138.4236">*</text><!--MD5=[b72ac8ab7fb5921fceb5036a3902baea]
link Test to Sample--><path codeLine="47" d="M296.221,132.5 C338.251,132.5 411.536,132.5 459.913,132.5 " fill="none" id="Test-Sample" style="stroke:#A80036;stroke-width:1.0;"/><text fill="#000000" font-family="sans-serif" font-size="13" lengthAdjust="spacing" textLength="94" x="327" y="128.5669">originated by&gt;</text><text fill="#000000" font-family="sans-serif" font-size="13" lengthAdjust="spacing" textLength="8" x="304.001" y="146.1677">1</text><text fill="#000000" font-family="sans-serif" font-size="13" lengthAdjust="spacing" textLength="8" x="444.1158" y="145.7069">1</text><!--MD5=[2fe054cd67471b8fea8c71114980d435]
link Test to Employee--><path codeLine="48" d="M296.182,118.108 C305.673,114.29 316.14,110.423 326,107.5 C486.252,59.995 531.98,53.044 699,59.5 C708.709,59.875 719.087,60.514 728.99,61.238 " fill="none" id="Test-Employee" style="stroke:#A80036;stroke-width:1.0;"/><text fill="#000000" font-family="sans-serif" font-size="13" lengthAdjust="spacing" textLength="112" x="453" y="54.5669">is performed by&gt;</text><text fill="#000000" font-family="sans-serif" font-size="13" lengthAdjust="spacing" textLength="7" x="303.8508" y="110.7136">*</text><text fill="#000000" font-family="sans-serif" font-size="13" lengthAdjust="spacing" textLength="8" x="712.9494" y="73.824">1</text><!--MD5=[e981d4f96c4342412d1e68160b30cf70]
link Test to TestType--><path codeLine="49" d="M296.221,147.756 C339.552,167.96 416.103,203.6525 464.333,226.1399 " fill="none" id="Test-TestType" style="stroke:#A80036;stroke-width:1.0;"/><text fill="#000000" font-family="sans-serif" font-size="13" lengthAdjust="spacing" textLength="37" x="355.5" y="158.5669">is of&gt;</text><text fill="#000000" font-family="sans-serif" font-size="13" lengthAdjust="spacing" textLength="8" x="304.001" y="164.5703">1</text><text fill="#000000" font-family="sans-serif" font-size="13" lengthAdjust="spacing" textLength="8" x="448.5767" y="236.1504">1</text><!--MD5=[22fb9506fac029fc1d2ae00f0eb8d606]
link Employee to User--><path codeLine="50" d="M826.122,65.5 C867.168,65.5 925.401,65.5 961.784,65.5 " fill="none" id="Employee-User" style="stroke:#A80036;stroke-width:1.0;"/><polygon fill="#000000" points="866,57.0664,856.9549,54.1275,856.9549,60.0053,866,57.0664" style="stroke:#000000;stroke-width:1.0;"/><text fill="#000000" font-family="sans-serif" font-size="13" lengthAdjust="spacing" textLength="61" x="870" y="61.5669">relates to</text><text fill="#000000" font-family="sans-serif" font-size="13" lengthAdjust="spacing" textLength="24" x="833.8892" y="78.5474">0..1</text><text fill="#000000" font-family="sans-serif" font-size="13" lengthAdjust="spacing" textLength="8" x="945.7988" y="79.0848">1</text><!--MD5=[c550c0fb93424651c0337773082e9cc5]
link Sample to Employee--><path codeLine="51" d="M558.261,120.367 C606.56,108.224 680.426,89.654 728.598,77.543 " fill="none" id="Sample-Employee" style="stroke:#A80036;stroke-width:1.0;"/><text fill="#000000" font-family="sans-serif" font-size="13" lengthAdjust="spacing" textLength="101" x="597" y="80.5669">is recorded by&gt;</text><text fill="#000000" font-family="sans-serif" font-size="13" lengthAdjust="spacing" textLength="7" x="566.0103" y="131.7919">*</text><text fill="#000000" font-family="sans-serif" font-size="13" lengthAdjust="spacing" textLength="23" x="697.859" y="92.1334">1..*</text><!--MD5=[84a279e28ad6c3248737114c29c49c27]
link LabOrder to Test--><path codeLine="52" d="M96.0588,164.955 C135.657,157.187 193.201,145.898 228.937,138.888 " fill="none" id="LabOrder-Test" style="stroke:#A80036;stroke-width:1.0;"/><text fill="#000000" font-family="sans-serif" font-size="13" lengthAdjust="spacing" textLength="71" x="127" y="141.5669">gives rise&gt;</text><text fill="#000000" font-family="sans-serif" font-size="13" lengthAdjust="spacing" textLength="8" x="104.1014" y="176.8598">1</text><text fill="#000000" font-family="sans-serif" font-size="13" lengthAdjust="spacing" textLength="8" x="213.1896" y="153.8733">1</text><!--MD5=[8fed958e16b1cac5a43d85b50745fdb4]
@startuml
hide methods
left to right direction
skinparam classAttributeIconSize 0


class Company {
  -designation
}

class Employee {
  -employeeId
  -name
  -address
  -phoneNumber
  -email
  -socCode
}



class User{
  -name
  -email
  -password
}

class Test{

-testType
-sample
}

class Sample{

-dateCollection
-timeCollection
}
class TestType{
-designation
-description
-internalCode
-nhsCode
}


Company "1" - - "*" Test: does>
Test "1" - - "1" Sample : originated by>
Test "*" - - "1" Employee : is performed by>
Test "1" - - "1" TestType : is of>
Employee "0..1" - - "1" User: relates to >
Sample "*" - - "1..*" Employee : is recorded by>
LabOrder "1" - - "1" Test : gives rise>
@enduml

PlantUML version 1.2021.7beta1(Unknown compile time)
(GPL source distribution)
Java Runtime: Java(TM) SE Runtime Environment
JVM: Java HotSpot(TM) 64-Bit Server VM
Default Encoding: UTF-8
Language: en
Country: US
--></g></svg>