<?xml version="1.0" encoding="UTF-8" standalone="no"?><svg xmlns="http://www.w3.org/2000/svg" xmlns:xlink="http://www.w3.org/1999/xlink" contentScriptType="application/ecmascript" contentStyleType="text/css" height="1114px" preserveAspectRatio="none" style="width:628px;height:1114px;" version="1.1" viewBox="0 0 628 1114" width="628px" zoomAndPan="magnify"><defs><filter height="300%" id="f1mquv0ven93og" width="300%" x="-1" y="-1"><feGaussianBlur result="blurOut" stdDeviation="2.0"/><feColorMatrix in="blurOut" result="blurOut2" type="matrix" values="0 0 0 0 0 0 0 0 0 0 0 0 0 0 0 0 0 0 .4 0"/><feOffset dx="4.0" dy="4.0" in="blurOut2" result="blurOut3"/><feBlend in="SourceGraphic" in2="blurOut3" mode="normal"/></filter></defs><g><!--MD5=[9681dc6e01e10c6b4fe06895ae94f592]
cluster UI--><polygon fill="#FFFFFF" filter="url(#f1mquv0ven93og)" points="88,6,108,6,115,29.6094,248,29.6094,248,106,88,106,88,6" style="stroke:#000000;stroke-width:1.5;"/><line style="stroke:#000000;stroke-width:1.5;" x1="88" x2="115" y1="29.6094" y2="29.6094"/><text fill="#000000" font-family="sans-serif" font-size="14" font-weight="bold" lengthAdjust="spacing" textLength="14" x="92" y="22.5332">UI</text><!--MD5=[ed1d20ea533a2a0e7df5ba3c35e56ced]
cluster Controllers--><polygon fill="#FFFFFF" filter="url(#f1mquv0ven93og)" points="67,139,152,139,159,162.6094,269,162.6094,269,281,67,281,67,139" style="stroke:#000000;stroke-width:1.5;"/><line style="stroke:#000000;stroke-width:1.5;" x1="67" x2="159" y1="162.6094" y2="162.6094"/><text fill="#000000" font-family="sans-serif" font-size="14" font-weight="bold" lengthAdjust="spacing" textLength="79" x="71" y="155.5332">Controllers</text><!--MD5=[121a8bf1197281ab89ed693fab589f94]
cluster Domain--><polygon fill="#FFFFFF" filter="url(#f1mquv0ven93og)" points="44,314,102,314,109,337.6094,611,337.6094,611,1107,44,1107,44,314" style="stroke:#000000;stroke-width:1.5;"/><line style="stroke:#000000;stroke-width:1.5;" x1="44" x2="109" y1="337.6094" y2="337.6094"/><text fill="#000000" font-family="sans-serif" font-size="14" font-weight="bold" lengthAdjust="spacing" textLength="52" x="48" y="330.5332">Domain</text><!--MD5=[05ffea613565d111e9c4a041147710d4]
class RecordSampleUI--><rect codeLine="2" fill="#FEFECE" filter="url(#f1mquv0ven93og)" height="48" id="RecordSampleUI" style="stroke:#A80036;stroke-width:1.5;" width="127" x="104.5" y="42"/><ellipse cx="119.5" cy="58" fill="#ADD1B2" rx="11" ry="11" style="stroke:#A80036;stroke-width:1.0;"/><path d="M121.5,54.5 Q121.7031,54 121.9375,53.75 Q122.1719,53.5 122.4375,53.5 Q122.9063,53.5 123.2031,53.7813 Q123.5,54.0625 123.5,54.7188 L123.5,56.2813 Q123.5,56.9375 123.2188,57.2188 Q122.9375,57.5 122.5,57.5 Q122.1094,57.5 121.8594,57.3281 Q121.6094,57.1563 121.5,56.7031 Q121.4531,56.3906 121.2813,56.2188 Q120.9688,55.8906 120.4063,55.7031 Q119.8438,55.5 119.2813,55.5 Q118.5781,55.5 117.9844,55.7813 Q117.4063,56.0625 116.9531,56.6875 Q116.5,57.3125 116.5,58.1719 L116.5,59.0938 Q116.5,60.125 117.3438,60.8125 Q118.1875,61.5 119.6875,61.5 Q120.5781,61.5 121.2031,61.2969 Q121.5625,61.1875 121.9688,60.8281 Q122.2344,60.625 122.375,60.5625 Q122.5156,60.5 122.6875,60.5 Q123.0156,60.5 123.25,60.7656 Q123.5,61.0156 123.5,61.375 Q123.5,61.7188 123.1563,62.125 Q122.6563,62.7188 121.8594,63.0469 Q120.8125,63.5 119.5313,63.5 Q118.0313,63.5 116.8281,62.9063 Q115.8594,62.4375 115.1719,61.4219 Q114.5,60.4063 114.5,59.2031 L114.5,58.1094 Q114.5,56.8594 115.0938,55.7656 Q115.7031,54.6719 116.75,54.0938 Q117.8125,53.5 119,53.5 Q119.7188,53.5 120.3438,53.75 Q120.9688,54 121.5,54.5 Z " fill="#000000"/><text fill="#000000" font-family="sans-serif" font-size="12" lengthAdjust="spacing" textLength="95" x="133.5" y="62.9102">RecordSampleUI</text><line style="stroke:#A80036;stroke-width:1.5;" x1="105.5" x2="230.5" y1="74" y2="74"/><line style="stroke:#A80036;stroke-width:1.5;" x1="105.5" x2="230.5" y1="82" y2="82"/><!--MD5=[ecb4b8913618184ce1e3f8e48e5e993f]
class RecordSampleController--><rect codeLine="5" fill="#FEFECE" filter="url(#f1mquv0ven93og)" height="89.5078" id="RecordSampleController" style="stroke:#A80036;stroke-width:1.5;" width="169" x="83.5" y="175"/><ellipse cx="98.5" cy="191" fill="#ADD1B2" rx="11" ry="11" style="stroke:#A80036;stroke-width:1.0;"/><path d="M100.5,187.5 Q100.7031,187 100.9375,186.75 Q101.1719,186.5 101.4375,186.5 Q101.9063,186.5 102.2031,186.7813 Q102.5,187.0625 102.5,187.7188 L102.5,189.2813 Q102.5,189.9375 102.2188,190.2188 Q101.9375,190.5 101.5,190.5 Q101.1094,190.5 100.8594,190.3281 Q100.6094,190.1563 100.5,189.7031 Q100.4531,189.3906 100.2813,189.2188 Q99.9688,188.8906 99.4063,188.7031 Q98.8438,188.5 98.2813,188.5 Q97.5781,188.5 96.9844,188.7813 Q96.4063,189.0625 95.9531,189.6875 Q95.5,190.3125 95.5,191.1719 L95.5,192.0938 Q95.5,193.125 96.3438,193.8125 Q97.1875,194.5 98.6875,194.5 Q99.5781,194.5 100.2031,194.2969 Q100.5625,194.1875 100.9688,193.8281 Q101.2344,193.625 101.375,193.5625 Q101.5156,193.5 101.6875,193.5 Q102.0156,193.5 102.25,193.7656 Q102.5,194.0156 102.5,194.375 Q102.5,194.7188 102.1563,195.125 Q101.6563,195.7188 100.8594,196.0469 Q99.8125,196.5 98.5313,196.5 Q97.0313,196.5 95.8281,195.9063 Q94.8594,195.4375 94.1719,194.4219 Q93.5,193.4063 93.5,192.2031 L93.5,191.1094 Q93.5,189.8594 94.0938,188.7656 Q94.7031,187.6719 95.75,187.0938 Q96.8125,186.5 98,186.5 Q98.7188,186.5 99.3438,186.75 Q99.9688,187 100.5,187.5 Z " fill="#000000"/><text fill="#000000" font-family="sans-serif" font-size="12" lengthAdjust="spacing" textLength="137" x="112.5" y="195.9102">RecordSampleController</text><line style="stroke:#A80036;stroke-width:1.5;" x1="84.5" x2="251.5" y1="207" y2="207"/><line style="stroke:#A80036;stroke-width:1.5;" x1="84.5" x2="251.5" y1="215" y2="215"/><ellipse cx="94.5" cy="226" fill="#84BE84" rx="3" ry="3" style="stroke:#038048;stroke-width:1.0;"/><text fill="#000000" font-family="sans-serif" font-size="11" lengthAdjust="spacing" textLength="116" x="103.5" y="230.4189">RecordNewSample(dto)</text><ellipse cx="94.5" cy="239.8359" fill="#84BE84" rx="3" ry="3" style="stroke:#038048;stroke-width:1.0;"/><text fill="#000000" font-family="sans-serif" font-size="11" lengthAdjust="spacing" textLength="90" x="103.5" y="244.2549">saveNewSample()</text><ellipse cx="94.5" cy="253.6719" fill="#84BE84" rx="3" ry="3" style="stroke:#038048;stroke-width:1.0;"/><text fill="#000000" font-family="sans-serif" font-size="11" lengthAdjust="spacing" textLength="44" x="103.5" y="258.0908">getTest()</text><!--MD5=[02e4b9b7573f1156f41e60aa5b4e25a4]
class Company--><rect codeLine="8" fill="#FEFECE" filter="url(#f1mquv0ven93og)" height="75.6719" id="Company" style="stroke:#A80036;stroke-width:1.5;" width="110" x="201" y="350"/><ellipse cx="227.25" cy="366" fill="#ADD1B2" rx="11" ry="11" style="stroke:#A80036;stroke-width:1.0;"/><path d="M229.25,362.5 Q229.4531,362 229.6875,361.75 Q229.9219,361.5 230.1875,361.5 Q230.6563,361.5 230.9531,361.7813 Q231.25,362.0625 231.25,362.7188 L231.25,364.2813 Q231.25,364.9375 230.9688,365.2188 Q230.6875,365.5 230.25,365.5 Q229.8594,365.5 229.6094,365.3281 Q229.3594,365.1563 229.25,364.7031 Q229.2031,364.3906 229.0313,364.2188 Q228.7188,363.8906 228.1563,363.7031 Q227.5938,363.5 227.0313,363.5 Q226.3281,363.5 225.7344,363.7813 Q225.1563,364.0625 224.7031,364.6875 Q224.25,365.3125 224.25,366.1719 L224.25,367.0938 Q224.25,368.125 225.0938,368.8125 Q225.9375,369.5 227.4375,369.5 Q228.3281,369.5 228.9531,369.2969 Q229.3125,369.1875 229.7188,368.8281 Q229.9844,368.625 230.125,368.5625 Q230.2656,368.5 230.4375,368.5 Q230.7656,368.5 231,368.7656 Q231.25,369.0156 231.25,369.375 Q231.25,369.7188 230.9063,370.125 Q230.4063,370.7188 229.6094,371.0469 Q228.5625,371.5 227.2813,371.5 Q225.7813,371.5 224.5781,370.9063 Q223.6094,370.4375 222.9219,369.4219 Q222.25,368.4063 222.25,367.2031 L222.25,366.1094 Q222.25,364.8594 222.8438,363.7656 Q223.4531,362.6719 224.5,362.0938 Q225.5625,361.5 226.75,361.5 Q227.4688,361.5 228.0938,361.75 Q228.7188,362 229.25,362.5 Z " fill="#000000"/><text fill="#000000" font-family="sans-serif" font-size="12" lengthAdjust="spacing" textLength="53" x="243.75" y="370.9102">Company</text><line style="stroke:#A80036;stroke-width:1.5;" x1="202" x2="310" y1="382" y2="382"/><line style="stroke:#A80036;stroke-width:1.5;" x1="202" x2="310" y1="390" y2="390"/><ellipse cx="212" cy="401" fill="#84BE84" rx="3" ry="3" style="stroke:#038048;stroke-width:1.0;"/><text fill="#000000" font-family="sans-serif" font-size="11" lengthAdjust="spacing" textLength="70" x="221" y="405.4189">getTestStore()</text><ellipse cx="212" cy="414.8359" fill="#84BE84" rx="3" ry="3" style="stroke:#038048;stroke-width:1.0;"/><text fill="#000000" font-family="sans-serif" font-size="11" lengthAdjust="spacing" textLength="84" x="221" y="419.2549">getSampleStore()</text><!--MD5=[9681492165142af2a4a3a169d90ee8d4]
class Sample--><rect codeLine="9" fill="#FEFECE" filter="url(#f1mquv0ven93og)" height="89.5078" id="Sample" style="stroke:#A80036;stroke-width:1.5;" width="125" x="349.5" y="850"/><ellipse cx="387" cy="866" fill="#ADD1B2" rx="11" ry="11" style="stroke:#A80036;stroke-width:1.0;"/><path d="M389,862.5 Q389.2031,862 389.4375,861.75 Q389.6719,861.5 389.9375,861.5 Q390.4063,861.5 390.7031,861.7813 Q391,862.0625 391,862.7188 L391,864.2813 Q391,864.9375 390.7188,865.2188 Q390.4375,865.5 390,865.5 Q389.6094,865.5 389.3594,865.3281 Q389.1094,865.1563 389,864.7031 Q388.9531,864.3906 388.7813,864.2188 Q388.4688,863.8906 387.9063,863.7031 Q387.3438,863.5 386.7813,863.5 Q386.0781,863.5 385.4844,863.7813 Q384.9063,864.0625 384.4531,864.6875 Q384,865.3125 384,866.1719 L384,867.0938 Q384,868.125 384.8438,868.8125 Q385.6875,869.5 387.1875,869.5 Q388.0781,869.5 388.7031,869.2969 Q389.0625,869.1875 389.4688,868.8281 Q389.7344,868.625 389.875,868.5625 Q390.0156,868.5 390.1875,868.5 Q390.5156,868.5 390.75,868.7656 Q391,869.0156 391,869.375 Q391,869.7188 390.6563,870.125 Q390.1563,870.7188 389.3594,871.0469 Q388.3125,871.5 387.0313,871.5 Q385.5313,871.5 384.3281,870.9063 Q383.3594,870.4375 382.6719,869.4219 Q382,868.4063 382,867.2031 L382,866.1094 Q382,864.8594 382.5938,863.7656 Q383.2031,862.6719 384.25,862.0938 Q385.3125,861.5 386.5,861.5 Q387.2188,861.5 387.8438,861.75 Q388.4688,862 389,862.5 Z " fill="#000000"/><text fill="#000000" font-family="sans-serif" font-size="12" lengthAdjust="spacing" textLength="43" x="406" y="870.9102">Sample</text><line style="stroke:#A80036;stroke-width:1.5;" x1="350.5" x2="473.5" y1="882" y2="882"/><rect fill="none" height="6" style="stroke:#C82930;stroke-width:1.0;" width="6" x="357.5" y="890"/><text fill="#000000" font-family="sans-serif" font-size="11" lengthAdjust="spacing" textLength="40" x="369.5" y="897.4189">barcode</text><line style="stroke:#A80036;stroke-width:1.5;" x1="350.5" x2="473.5" y1="903.8359" y2="903.8359"/><ellipse cx="360.5" cy="914.8359" fill="#84BE84" rx="3" ry="3" style="stroke:#038048;stroke-width:1.0;"/><text fill="#000000" font-family="sans-serif" font-size="11" lengthAdjust="spacing" textLength="43" x="369.5" y="919.2549">Sample()</text><ellipse cx="360.5" cy="928.6719" fill="#84BE84" rx="3" ry="3" style="stroke:#038048;stroke-width:1.0;"/><text fill="#000000" font-family="sans-serif" font-size="11" lengthAdjust="spacing" textLength="99" x="369.5" y="933.0908">getBarcodecreator()</text><!--MD5=[144698ec4d0188f6929a3b58a3eeb1f6]
class TestMapper--><rect codeLine="10" fill="#FEFECE" filter="url(#f1mquv0ven93og)" height="61.8359" id="TestMapper" style="stroke:#A80036;stroke-width:1.5;" width="97" x="497.5" y="357"/><ellipse cx="512.5" cy="373" fill="#ADD1B2" rx="11" ry="11" style="stroke:#A80036;stroke-width:1.0;"/><path d="M514.5,369.5 Q514.7031,369 514.9375,368.75 Q515.1719,368.5 515.4375,368.5 Q515.9063,368.5 516.2031,368.7813 Q516.5,369.0625 516.5,369.7188 L516.5,371.2813 Q516.5,371.9375 516.2188,372.2188 Q515.9375,372.5 515.5,372.5 Q515.1094,372.5 514.8594,372.3281 Q514.6094,372.1563 514.5,371.7031 Q514.4531,371.3906 514.2813,371.2188 Q513.9688,370.8906 513.4063,370.7031 Q512.8438,370.5 512.2813,370.5 Q511.5781,370.5 510.9844,370.7813 Q510.4063,371.0625 509.9531,371.6875 Q509.5,372.3125 509.5,373.1719 L509.5,374.0938 Q509.5,375.125 510.3438,375.8125 Q511.1875,376.5 512.6875,376.5 Q513.5781,376.5 514.2031,376.2969 Q514.5625,376.1875 514.9688,375.8281 Q515.2344,375.625 515.375,375.5625 Q515.5156,375.5 515.6875,375.5 Q516.0156,375.5 516.25,375.7656 Q516.5,376.0156 516.5,376.375 Q516.5,376.7188 516.1563,377.125 Q515.6563,377.7188 514.8594,378.0469 Q513.8125,378.5 512.5313,378.5 Q511.0313,378.5 509.8281,377.9063 Q508.8594,377.4375 508.1719,376.4219 Q507.5,375.4063 507.5,374.2031 L507.5,373.1094 Q507.5,371.8594 508.0938,370.7656 Q508.7031,369.6719 509.75,369.0938 Q510.8125,368.5 512,368.5 Q512.7188,368.5 513.3438,368.75 Q513.9688,369 514.5,369.5 Z " fill="#000000"/><text fill="#000000" font-family="sans-serif" font-size="12" lengthAdjust="spacing" textLength="65" x="526.5" y="377.9102">TestMapper</text><line style="stroke:#A80036;stroke-width:1.5;" x1="498.5" x2="593.5" y1="389" y2="389"/><line style="stroke:#A80036;stroke-width:1.5;" x1="498.5" x2="593.5" y1="397" y2="397"/><ellipse cx="508.5" cy="408" fill="#84BE84" rx="3" ry="3" style="stroke:#038048;stroke-width:1.0;"/><text fill="#000000" font-family="sans-serif" font-size="11" lengthAdjust="spacing" textLength="62" x="517.5" y="412.4189">toDTO(tests)</text><!--MD5=[f3e1cea714716315318addd6917e91a9]
class SampleDTO--><rect codeLine="11" fill="#FEFECE" filter="url(#f1mquv0ven93og)" height="75.6719" id="SampleDTO" style="stroke:#A80036;stroke-width:1.5;" width="100" x="108" y="487"/><ellipse cx="123" cy="503" fill="#ADD1B2" rx="11" ry="11" style="stroke:#A80036;stroke-width:1.0;"/><path d="M125,499.5 Q125.2031,499 125.4375,498.75 Q125.6719,498.5 125.9375,498.5 Q126.4063,498.5 126.7031,498.7813 Q127,499.0625 127,499.7188 L127,501.2813 Q127,501.9375 126.7188,502.2188 Q126.4375,502.5 126,502.5 Q125.6094,502.5 125.3594,502.3281 Q125.1094,502.1563 125,501.7031 Q124.9531,501.3906 124.7813,501.2188 Q124.4688,500.8906 123.9063,500.7031 Q123.3438,500.5 122.7813,500.5 Q122.0781,500.5 121.4844,500.7813 Q120.9063,501.0625 120.4531,501.6875 Q120,502.3125 120,503.1719 L120,504.0938 Q120,505.125 120.8438,505.8125 Q121.6875,506.5 123.1875,506.5 Q124.0781,506.5 124.7031,506.2969 Q125.0625,506.1875 125.4688,505.8281 Q125.7344,505.625 125.875,505.5625 Q126.0156,505.5 126.1875,505.5 Q126.5156,505.5 126.75,505.7656 Q127,506.0156 127,506.375 Q127,506.7188 126.6563,507.125 Q126.1563,507.7188 125.3594,508.0469 Q124.3125,508.5 123.0313,508.5 Q121.5313,508.5 120.3281,507.9063 Q119.3594,507.4375 118.6719,506.4219 Q118,505.4063 118,504.2031 L118,503.1094 Q118,501.8594 118.5938,500.7656 Q119.2031,499.6719 120.25,499.0938 Q121.3125,498.5 122.5,498.5 Q123.2188,498.5 123.8438,498.75 Q124.4688,499 125,499.5 Z " fill="#000000"/><text fill="#000000" font-family="sans-serif" font-size="12" lengthAdjust="spacing" textLength="68" x="137" y="507.9102">SampleDTO</text><line style="stroke:#A80036;stroke-width:1.5;" x1="109" x2="207" y1="519" y2="519"/><rect fill="none" height="6" style="stroke:#C82930;stroke-width:1.0;" width="6" x="116" y="527"/><text fill="#000000" font-family="sans-serif" font-size="11" lengthAdjust="spacing" textLength="34" x="128" y="534.4189">orderid</text><line style="stroke:#A80036;stroke-width:1.5;" x1="109" x2="207" y1="540.8359" y2="540.8359"/><ellipse cx="119" cy="551.8359" fill="#84BE84" rx="3" ry="3" style="stroke:#038048;stroke-width:1.0;"/><text fill="#000000" font-family="sans-serif" font-size="11" lengthAdjust="spacing" textLength="59" x="128" y="556.2549">getOrderid()</text><!--MD5=[ae7e51bf7f64437d6b43a3b7d6fba6e1]
class SampleMapper--><rect codeLine="12" fill="#FEFECE" filter="url(#f1mquv0ven93og)" height="61.8359" id="SampleMapper" style="stroke:#A80036;stroke-width:1.5;" width="116" x="346" y="357"/><ellipse cx="361" cy="373" fill="#ADD1B2" rx="11" ry="11" style="stroke:#A80036;stroke-width:1.0;"/><path d="M363,369.5 Q363.2031,369 363.4375,368.75 Q363.6719,368.5 363.9375,368.5 Q364.4063,368.5 364.7031,368.7813 Q365,369.0625 365,369.7188 L365,371.2813 Q365,371.9375 364.7188,372.2188 Q364.4375,372.5 364,372.5 Q363.6094,372.5 363.3594,372.3281 Q363.1094,372.1563 363,371.7031 Q362.9531,371.3906 362.7813,371.2188 Q362.4688,370.8906 361.9063,370.7031 Q361.3438,370.5 360.7813,370.5 Q360.0781,370.5 359.4844,370.7813 Q358.9063,371.0625 358.4531,371.6875 Q358,372.3125 358,373.1719 L358,374.0938 Q358,375.125 358.8438,375.8125 Q359.6875,376.5 361.1875,376.5 Q362.0781,376.5 362.7031,376.2969 Q363.0625,376.1875 363.4688,375.8281 Q363.7344,375.625 363.875,375.5625 Q364.0156,375.5 364.1875,375.5 Q364.5156,375.5 364.75,375.7656 Q365,376.0156 365,376.375 Q365,376.7188 364.6563,377.125 Q364.1563,377.7188 363.3594,378.0469 Q362.3125,378.5 361.0313,378.5 Q359.5313,378.5 358.3281,377.9063 Q357.3594,377.4375 356.6719,376.4219 Q356,375.4063 356,374.2031 L356,373.1094 Q356,371.8594 356.5938,370.7656 Q357.2031,369.6719 358.25,369.0938 Q359.3125,368.5 360.5,368.5 Q361.2188,368.5 361.8438,368.75 Q362.4688,369 363,369.5 Z " fill="#000000"/><text fill="#000000" font-family="sans-serif" font-size="12" lengthAdjust="spacing" textLength="84" x="375" y="377.9102">SampleMapper</text><line style="stroke:#A80036;stroke-width:1.5;" x1="347" x2="461" y1="389" y2="389"/><line style="stroke:#A80036;stroke-width:1.5;" x1="347" x2="461" y1="397" y2="397"/><ellipse cx="357" cy="408" fill="#84BE84" rx="3" ry="3" style="stroke:#038048;stroke-width:1.0;"/><text fill="#000000" font-family="sans-serif" font-size="11" lengthAdjust="spacing" textLength="45" x="366" y="412.4189">toModel()</text><!--MD5=[0f6f7964b844a64b0496af0dda7914bd]
class TestStore--><rect codeLine="13" fill="#FEFECE" filter="url(#f1mquv0ven93og)" height="61.8359" id="TestStore" style="stroke:#A80036;stroke-width:1.5;" width="179" x="291.5" y="494"/><ellipse cx="350.25" cy="510" fill="#ADD1B2" rx="11" ry="11" style="stroke:#A80036;stroke-width:1.0;"/><path d="M352.25,506.5 Q352.4531,506 352.6875,505.75 Q352.9219,505.5 353.1875,505.5 Q353.6563,505.5 353.9531,505.7813 Q354.25,506.0625 354.25,506.7188 L354.25,508.2813 Q354.25,508.9375 353.9688,509.2188 Q353.6875,509.5 353.25,509.5 Q352.8594,509.5 352.6094,509.3281 Q352.3594,509.1563 352.25,508.7031 Q352.2031,508.3906 352.0313,508.2188 Q351.7188,507.8906 351.1563,507.7031 Q350.5938,507.5 350.0313,507.5 Q349.3281,507.5 348.7344,507.7813 Q348.1563,508.0625 347.7031,508.6875 Q347.25,509.3125 347.25,510.1719 L347.25,511.0938 Q347.25,512.125 348.0938,512.8125 Q348.9375,513.5 350.4375,513.5 Q351.3281,513.5 351.9531,513.2969 Q352.3125,513.1875 352.7188,512.8281 Q352.9844,512.625 353.125,512.5625 Q353.2656,512.5 353.4375,512.5 Q353.7656,512.5 354,512.7656 Q354.25,513.0156 354.25,513.375 Q354.25,513.7188 353.9063,514.125 Q353.4063,514.7188 352.6094,515.0469 Q351.5625,515.5 350.2813,515.5 Q348.7813,515.5 347.5781,514.9063 Q346.6094,514.4375 345.9219,513.4219 Q345.25,512.4063 345.25,511.2031 L345.25,510.1094 Q345.25,508.8594 345.8438,507.7656 Q346.4531,506.6719 347.5,506.0938 Q348.5625,505.5 349.75,505.5 Q350.4688,505.5 351.0938,505.75 Q351.7188,506 352.25,506.5 Z " fill="#000000"/><text fill="#000000" font-family="sans-serif" font-size="12" lengthAdjust="spacing" textLength="53" x="370.75" y="514.9102">TestStore</text><line style="stroke:#A80036;stroke-width:1.5;" x1="292.5" x2="469.5" y1="526" y2="526"/><line style="stroke:#A80036;stroke-width:1.5;" x1="292.5" x2="469.5" y1="534" y2="534"/><ellipse cx="302.5" cy="545" fill="#84BE84" rx="3" ry="3" style="stroke:#038048;stroke-width:1.0;"/><text fill="#000000" font-family="sans-serif" font-size="11" lengthAdjust="spacing" textLength="153" x="311.5" y="549.4189">getTestByTestTypeCode(testid)</text><!--MD5=[df38be88ccee13e832d6fafd6288a4ca]
class Test--><rect codeLine="14" fill="#FEFECE" filter="url(#f1mquv0ven93og)" height="131.0156" id="Test" style="stroke:#A80036;stroke-width:1.5;" width="155" x="387.5" y="641"/><ellipse cx="448.75" cy="657" fill="#ADD1B2" rx="11" ry="11" style="stroke:#A80036;stroke-width:1.0;"/><path d="M450.75,653.5 Q450.9531,653 451.1875,652.75 Q451.4219,652.5 451.6875,652.5 Q452.1563,652.5 452.4531,652.7813 Q452.75,653.0625 452.75,653.7188 L452.75,655.2813 Q452.75,655.9375 452.4688,656.2188 Q452.1875,656.5 451.75,656.5 Q451.3594,656.5 451.1094,656.3281 Q450.8594,656.1563 450.75,655.7031 Q450.7031,655.3906 450.5313,655.2188 Q450.2188,654.8906 449.6563,654.7031 Q449.0938,654.5 448.5313,654.5 Q447.8281,654.5 447.2344,654.7813 Q446.6563,655.0625 446.2031,655.6875 Q445.75,656.3125 445.75,657.1719 L445.75,658.0938 Q445.75,659.125 446.5938,659.8125 Q447.4375,660.5 448.9375,660.5 Q449.8281,660.5 450.4531,660.2969 Q450.8125,660.1875 451.2188,659.8281 Q451.4844,659.625 451.625,659.5625 Q451.7656,659.5 451.9375,659.5 Q452.2656,659.5 452.5,659.7656 Q452.75,660.0156 452.75,660.375 Q452.75,660.7188 452.4063,661.125 Q451.9063,661.7188 451.1094,662.0469 Q450.0625,662.5 448.7813,662.5 Q447.2813,662.5 446.0781,661.9063 Q445.1094,661.4375 444.4219,660.4219 Q443.75,659.4063 443.75,658.2031 L443.75,657.1094 Q443.75,655.8594 444.3438,654.7656 Q444.9531,653.6719 446,653.0938 Q447.0625,652.5 448.25,652.5 Q448.9688,652.5 449.5938,652.75 Q450.2188,653 450.75,653.5 Z " fill="#000000"/><text fill="#000000" font-family="sans-serif" font-size="12" lengthAdjust="spacing" textLength="24" x="469.25" y="661.9102">Test</text><line style="stroke:#A80036;stroke-width:1.5;" x1="388.5" x2="541.5" y1="673" y2="673"/><rect fill="none" height="6" style="stroke:#C82930;stroke-width:1.0;" width="6" x="395.5" y="681"/><text fill="#000000" font-family="sans-serif" font-size="11" lengthAdjust="spacing" textLength="46" x="407.5" y="688.4189">LabOrder</text><rect fill="none" height="6" style="stroke:#C82930;stroke-width:1.0;" width="6" x="395.5" y="694.8359"/><text fill="#000000" font-family="sans-serif" font-size="11" lengthAdjust="spacing" textLength="35" x="407.5" y="702.2549">Sample</text><line style="stroke:#A80036;stroke-width:1.5;" x1="388.5" x2="541.5" y1="708.6719" y2="708.6719"/><ellipse cx="398.5" cy="719.6719" fill="#84BE84" rx="3" ry="3" style="stroke:#038048;stroke-width:1.0;"/><text fill="#000000" font-family="sans-serif" font-size="11" lengthAdjust="spacing" textLength="116" x="407.5" y="724.0908">RecordNewSample(tdo)</text><ellipse cx="398.5" cy="733.5078" fill="#84BE84" rx="3" ry="3" style="stroke:#038048;stroke-width:1.0;"/><text fill="#000000" font-family="sans-serif" font-size="11" lengthAdjust="spacing" textLength="129" x="407.5" y="737.9268">validateNewSample(samp)</text><ellipse cx="398.5" cy="747.3438" fill="#84BE84" rx="3" ry="3" style="stroke:#038048;stroke-width:1.0;"/><text fill="#000000" font-family="sans-serif" font-size="11" lengthAdjust="spacing" textLength="116" x="407.5" y="751.7627">saveNewSample(samp)</text><ellipse cx="398.5" cy="761.1797" fill="#84BE84" rx="3" ry="3" style="stroke:#038048;stroke-width:1.0;"/><text fill="#000000" font-family="sans-serif" font-size="11" lengthAdjust="spacing" textLength="110" x="407.5" y="765.5986">addNewSample(samp)</text><!--MD5=[9fb704ffefcaf68bf1a361787afa998b]
class TestDTO--><rect codeLine="15" fill="#FEFECE" filter="url(#f1mquv0ven93og)" height="48" id="TestDTO" style="stroke:#A80036;stroke-width:1.5;" width="81" x="505.5" y="501"/><ellipse cx="520.5" cy="517" fill="#ADD1B2" rx="11" ry="11" style="stroke:#A80036;stroke-width:1.0;"/><path d="M522.5,513.5 Q522.7031,513 522.9375,512.75 Q523.1719,512.5 523.4375,512.5 Q523.9063,512.5 524.2031,512.7813 Q524.5,513.0625 524.5,513.7188 L524.5,515.2813 Q524.5,515.9375 524.2188,516.2188 Q523.9375,516.5 523.5,516.5 Q523.1094,516.5 522.8594,516.3281 Q522.6094,516.1563 522.5,515.7031 Q522.4531,515.3906 522.2813,515.2188 Q521.9688,514.8906 521.4063,514.7031 Q520.8438,514.5 520.2813,514.5 Q519.5781,514.5 518.9844,514.7813 Q518.4063,515.0625 517.9531,515.6875 Q517.5,516.3125 517.5,517.1719 L517.5,518.0938 Q517.5,519.125 518.3438,519.8125 Q519.1875,520.5 520.6875,520.5 Q521.5781,520.5 522.2031,520.2969 Q522.5625,520.1875 522.9688,519.8281 Q523.2344,519.625 523.375,519.5625 Q523.5156,519.5 523.6875,519.5 Q524.0156,519.5 524.25,519.7656 Q524.5,520.0156 524.5,520.375 Q524.5,520.7188 524.1563,521.125 Q523.6563,521.7188 522.8594,522.0469 Q521.8125,522.5 520.5313,522.5 Q519.0313,522.5 517.8281,521.9063 Q516.8594,521.4375 516.1719,520.4219 Q515.5,519.4063 515.5,518.2031 L515.5,517.1094 Q515.5,515.8594 516.0938,514.7656 Q516.7031,513.6719 517.75,513.0938 Q518.8125,512.5 520,512.5 Q520.7188,512.5 521.3438,512.75 Q521.9688,513 522.5,513.5 Z " fill="#000000"/><text fill="#000000" font-family="sans-serif" font-size="12" lengthAdjust="spacing" textLength="49" x="534.5" y="521.9102">TestDTO</text><line style="stroke:#A80036;stroke-width:1.5;" x1="506.5" x2="585.5" y1="533" y2="533"/><line style="stroke:#A80036;stroke-width:1.5;" x1="506.5" x2="585.5" y1="541" y2="541"/><!--MD5=[a999c1570c205a2156b04a15307bc1ff]
class LabOrder--><rect codeLine="16" fill="#FEFECE" filter="url(#f1mquv0ven93og)" height="75.6719" id="LabOrder" style="stroke:#A80036;stroke-width:1.5;" width="84" x="510" y="857"/><ellipse cx="525" cy="873" fill="#ADD1B2" rx="11" ry="11" style="stroke:#A80036;stroke-width:1.0;"/><path d="M527,869.5 Q527.2031,869 527.4375,868.75 Q527.6719,868.5 527.9375,868.5 Q528.4063,868.5 528.7031,868.7813 Q529,869.0625 529,869.7188 L529,871.2813 Q529,871.9375 528.7188,872.2188 Q528.4375,872.5 528,872.5 Q527.6094,872.5 527.3594,872.3281 Q527.1094,872.1563 527,871.7031 Q526.9531,871.3906 526.7813,871.2188 Q526.4688,870.8906 525.9063,870.7031 Q525.3438,870.5 524.7813,870.5 Q524.0781,870.5 523.4844,870.7813 Q522.9063,871.0625 522.4531,871.6875 Q522,872.3125 522,873.1719 L522,874.0938 Q522,875.125 522.8438,875.8125 Q523.6875,876.5 525.1875,876.5 Q526.0781,876.5 526.7031,876.2969 Q527.0625,876.1875 527.4688,875.8281 Q527.7344,875.625 527.875,875.5625 Q528.0156,875.5 528.1875,875.5 Q528.5156,875.5 528.75,875.7656 Q529,876.0156 529,876.375 Q529,876.7188 528.6563,877.125 Q528.1563,877.7188 527.3594,878.0469 Q526.3125,878.5 525.0313,878.5 Q523.5313,878.5 522.3281,877.9063 Q521.3594,877.4375 520.6719,876.4219 Q520,875.4063 520,874.2031 L520,873.1094 Q520,871.8594 520.5938,870.7656 Q521.2031,869.6719 522.25,869.0938 Q523.3125,868.5 524.5,868.5 Q525.2188,868.5 525.8438,868.75 Q526.4688,869 527,869.5 Z " fill="#000000"/><text fill="#000000" font-family="sans-serif" font-size="12" lengthAdjust="spacing" textLength="52" x="539" y="877.9102">LabOrder</text><line style="stroke:#A80036;stroke-width:1.5;" x1="511" x2="593" y1="889" y2="889"/><rect fill="none" height="6" style="stroke:#C82930;stroke-width:1.0;" width="6" x="518" y="897"/><text fill="#000000" font-family="sans-serif" font-size="11" lengthAdjust="spacing" textLength="42" x="530" y="904.4189">testType</text><rect fill="none" height="6" style="stroke:#C82930;stroke-width:1.0;" width="6" x="518" y="910.8359"/><text fill="#000000" font-family="sans-serif" font-size="11" lengthAdjust="spacing" textLength="55" x="530" y="918.2549">parameters</text><line style="stroke:#A80036;stroke-width:1.5;" x1="511" x2="593" y1="924.6719" y2="924.6719"/><!--MD5=[c787e3ea7cba08b6686a91ad4338f70b]
class ApiBarcode--><rect codeLine="17" fill="#FEFECE" filter="url(#f1mquv0ven93og)" height="61.8359" id="ApiBarcode" style="stroke:#A80036;stroke-width:1.5;" width="204" x="391" y="1015"/><ellipse cx="456.75" cy="1031" fill="#B4A7E5" rx="11" ry="11" style="stroke:#A80036;stroke-width:1.0;"/><path d="M457.75,1028 L457.75,1034 L459.75,1034 L460.2344,1034 L460.75,1034.625 L460.75,1035 L460.75,1035.375 L460.2344,1036 L459.75,1036 L453.75,1036 L453.2656,1036 L452.75,1035.375 L452.75,1035 L452.75,1034.625 L453.2656,1034 L453.75,1034 L455.75,1034 L455.75,1028 L453.75,1028 L453.2656,1028 L452.75,1027.375 L452.75,1027 L452.75,1026.625 L453.2656,1026 L453.75,1026 L459.75,1026 L460.2344,1026 L460.75,1026.625 L460.75,1027 L460.75,1027.375 L460.2344,1028 L459.75,1028 L457.75,1028 Z " fill="#000000"/><text fill="#000000" font-family="sans-serif" font-size="12" font-style="italic" lengthAdjust="spacing" textLength="64" x="477.25" y="1035.9102">ApiBarcode</text><line style="stroke:#A80036;stroke-width:1.5;" x1="392" x2="594" y1="1047" y2="1047"/><line style="stroke:#A80036;stroke-width:1.5;" x1="392" x2="594" y1="1055" y2="1055"/><ellipse cx="402" cy="1066" fill="#84BE84" rx="3" ry="3" style="stroke:#038048;stroke-width:1.0;"/><text fill="#000000" font-family="sans-serif" font-size="11" lengthAdjust="spacing" textLength="178" x="411" y="1070.4189">BarcodeCreate makeUPCABarcode()</text><!--MD5=[09699c8b762f7fa74b7dc251f2258f54]
class BarcodeAdapter--><rect codeLine="18" fill="#FEFECE" filter="url(#f1mquv0ven93og)" height="61.8359" id="BarcodeAdapter" style="stroke:#A80036;stroke-width:1.5;" width="204" x="108" y="864"/><ellipse cx="161.75" cy="880" fill="#ADD1B2" rx="11" ry="11" style="stroke:#A80036;stroke-width:1.0;"/><path d="M163.75,876.5 Q163.9531,876 164.1875,875.75 Q164.4219,875.5 164.6875,875.5 Q165.1563,875.5 165.4531,875.7813 Q165.75,876.0625 165.75,876.7188 L165.75,878.2813 Q165.75,878.9375 165.4688,879.2188 Q165.1875,879.5 164.75,879.5 Q164.3594,879.5 164.1094,879.3281 Q163.8594,879.1563 163.75,878.7031 Q163.7031,878.3906 163.5313,878.2188 Q163.2188,877.8906 162.6563,877.7031 Q162.0938,877.5 161.5313,877.5 Q160.8281,877.5 160.2344,877.7813 Q159.6563,878.0625 159.2031,878.6875 Q158.75,879.3125 158.75,880.1719 L158.75,881.0938 Q158.75,882.125 159.5938,882.8125 Q160.4375,883.5 161.9375,883.5 Q162.8281,883.5 163.4531,883.2969 Q163.8125,883.1875 164.2188,882.8281 Q164.4844,882.625 164.625,882.5625 Q164.7656,882.5 164.9375,882.5 Q165.2656,882.5 165.5,882.7656 Q165.75,883.0156 165.75,883.375 Q165.75,883.7188 165.4063,884.125 Q164.9063,884.7188 164.1094,885.0469 Q163.0625,885.5 161.7813,885.5 Q160.2813,885.5 159.0781,884.9063 Q158.1094,884.4375 157.4219,883.4219 Q156.75,882.4063 156.75,881.2031 L156.75,880.1094 Q156.75,878.8594 157.3438,877.7656 Q157.9531,876.6719 159,876.0938 Q160.0625,875.5 161.25,875.5 Q161.9688,875.5 162.5938,875.75 Q163.2188,876 163.75,876.5 Z " fill="#000000"/><text fill="#000000" font-family="sans-serif" font-size="12" lengthAdjust="spacing" textLength="88" x="182.25" y="884.9102">BarcodeAdapter</text><line style="stroke:#A80036;stroke-width:1.5;" x1="109" x2="311" y1="896" y2="896"/><line style="stroke:#A80036;stroke-width:1.5;" x1="109" x2="311" y1="904" y2="904"/><ellipse cx="119" cy="915" fill="#84BE84" rx="3" ry="3" style="stroke:#038048;stroke-width:1.0;"/><text fill="#000000" font-family="sans-serif" font-size="11" lengthAdjust="spacing" textLength="178" x="128" y="919.4189">BarcodeCreate makeUPCABarcode()</text><!--MD5=[6cfa5c3b7c3b169d22de0dcd47d936aa]
class BarcodeCreate--><rect codeLine="19" fill="#FEFECE" filter="url(#f1mquv0ven93og)" height="89.5078" id="BarcodeCreate" style="stroke:#A80036;stroke-width:1.5;" width="295" x="60.5" y="1001"/><ellipse cx="162.25" cy="1017" fill="#ADD1B2" rx="11" ry="11" style="stroke:#A80036;stroke-width:1.0;"/><path d="M164.25,1013.5 Q164.4531,1013 164.6875,1012.75 Q164.9219,1012.5 165.1875,1012.5 Q165.6563,1012.5 165.9531,1012.7813 Q166.25,1013.0625 166.25,1013.7188 L166.25,1015.2813 Q166.25,1015.9375 165.9688,1016.2188 Q165.6875,1016.5 165.25,1016.5 Q164.8594,1016.5 164.6094,1016.3281 Q164.3594,1016.1563 164.25,1015.7031 Q164.2031,1015.3906 164.0313,1015.2188 Q163.7188,1014.8906 163.1563,1014.7031 Q162.5938,1014.5 162.0313,1014.5 Q161.3281,1014.5 160.7344,1014.7813 Q160.1563,1015.0625 159.7031,1015.6875 Q159.25,1016.3125 159.25,1017.1719 L159.25,1018.0938 Q159.25,1019.125 160.0938,1019.8125 Q160.9375,1020.5 162.4375,1020.5 Q163.3281,1020.5 163.9531,1020.2969 Q164.3125,1020.1875 164.7188,1019.8281 Q164.9844,1019.625 165.125,1019.5625 Q165.2656,1019.5 165.4375,1019.5 Q165.7656,1019.5 166,1019.7656 Q166.25,1020.0156 166.25,1020.375 Q166.25,1020.7188 165.9063,1021.125 Q165.4063,1021.7188 164.6094,1022.0469 Q163.5625,1022.5 162.2813,1022.5 Q160.7813,1022.5 159.5781,1021.9063 Q158.6094,1021.4375 157.9219,1020.4219 Q157.25,1019.4063 157.25,1018.2031 L157.25,1017.1094 Q157.25,1015.8594 157.8438,1014.7656 Q158.4531,1013.6719 159.5,1013.0938 Q160.5625,1012.5 161.75,1012.5 Q162.4688,1012.5 163.0938,1012.75 Q163.7188,1013 164.25,1013.5 Z " fill="#000000"/><text fill="#000000" font-family="sans-serif" font-size="12" lengthAdjust="spacing" textLength="83" x="182.75" y="1021.9102">BarcodeCreate</text><line style="stroke:#A80036;stroke-width:1.5;" x1="61.5" x2="354.5" y1="1033" y2="1033"/><rect fill="none" height="6" style="stroke:#C82930;stroke-width:1.0;" width="6" x="68.5" y="1041"/><text fill="#000000" font-family="sans-serif" font-size="11" lengthAdjust="spacing" textLength="40" x="80.5" y="1048.4189">barcode</text><rect fill="none" height="6" style="stroke:#C82930;stroke-width:1.0;" width="6" x="68.5" y="1054.8359"/><text fill="#000000" font-family="sans-serif" font-size="11" lengthAdjust="spacing" textLength="77" x="80.5" y="1062.2549">barcodeNumber</text><line style="stroke:#A80036;stroke-width:1.5;" x1="61.5" x2="354.5" y1="1068.6719" y2="1068.6719"/><ellipse cx="71.5" cy="1079.6719" fill="#84BE84" rx="3" ry="3" style="stroke:#038048;stroke-width:1.0;"/><text fill="#000000" font-family="sans-serif" font-size="11" lengthAdjust="spacing" textLength="269" x="80.5" y="1084.0908">BarcodeCreate(Object barcode, String barcodeNumber)</text><!--MD5=[b07fc2b2aa91da2436cc249a96980d64]
link RecordSampleUI to RecordSampleController--><path codeLine="23" d="M168,90.09 C168,111.11 168,142.85 168,169.58 " fill="none" id="RecordSampleUI-to-RecordSampleController" style="stroke:#A80036;stroke-width:1.0;stroke-dasharray:7.0,7.0;"/><polygon fill="#A80036" points="168,174.85,172,165.85,168,169.85,164,165.85,168,174.85" style="stroke:#A80036;stroke-width:1.0;"/><!--MD5=[ccf558741c2fb5a5f538be9d3a954f59]
link RecordSampleController to Company--><path codeLine="24" d="M191.35,265.05 C204.53,289.92 220.91,320.81 233.89,345.29 " fill="none" id="RecordSampleController-to-Company" style="stroke:#A80036;stroke-width:1.0;stroke-dasharray:7.0,7.0;"/><polygon fill="#A80036" points="236.27,349.78,235.5839,339.9551,233.926,345.3635,228.5175,343.7055,236.27,349.78" style="stroke:#A80036;stroke-width:1.0;"/><!--MD5=[46ce183c027ced3c8d5e339377570598]
link RecordSampleController to Sample--><path codeLine="25" d="M87.47,265.01 C46.82,293.63 6,335.25 6,387 C6,387 6,387 6,707.5 C6,864.81 188.58,781.09 330,850 C334.78,852.33 339.69,854.79 344.61,857.3 " fill="none" id="RecordSampleController-to-Sample" style="stroke:#A80036;stroke-width:1.0;stroke-dasharray:7.0,7.0;"/><polygon fill="#A80036" points="349.13,859.63,342.9569,851.9558,344.6839,857.3426,339.2971,859.0696,349.13,859.63" style="stroke:#A80036;stroke-width:1.0;"/><!--MD5=[aa7c76cfa0b9d80d0d0bfbab322591d0]
link RecordSampleController to TestMapper--><path codeLine="26" d="M252.57,229.74 C318.84,239.81 411.05,261.17 480,306 C498.07,317.75 513.59,336.04 525.02,352.28 " fill="none" id="RecordSampleController-to-TestMapper" style="stroke:#A80036;stroke-width:1.0;stroke-dasharray:7.0,7.0;"/><polygon fill="#A80036" points="528.14,356.79,526.3146,347.1118,525.2977,352.6765,519.733,351.6595,528.14,356.79" style="stroke:#A80036;stroke-width:1.0;"/><!--MD5=[a7cbd6ea75f3dbf8a10370ef60b1951f]
link RecordSampleController to SampleDTO--><path codeLine="27" d="M135.73,265.36 C130.07,275.32 125.03,286.16 122,297 C102.89,365.49 104.65,388.04 122,457 C124.11,465.38 127.49,473.85 131.36,481.82 " fill="none" id="RecordSampleController-to-SampleDTO" style="stroke:#A80036;stroke-width:1.0;stroke-dasharray:7.0,7.0;"/><polygon fill="#A80036" points="133.82,486.71,133.3476,476.8725,131.5725,482.2436,126.2014,480.4685,133.82,486.71" style="stroke:#A80036;stroke-width:1.0;"/><!--MD5=[e5a9667c400772c28cc59b9168c63c65]
link RecordSampleController to SampleMapper--><path codeLine="28" d="M252.75,258.94 C278.36,272.16 305.81,288.19 329,306 C346.66,319.56 363.73,337.49 377.12,353.03 " fill="none" id="RecordSampleController-to-SampleMapper" style="stroke:#A80036;stroke-width:1.0;stroke-dasharray:7.0,7.0;"/><polygon fill="#A80036" points="380.44,356.93,377.6579,347.4823,377.2013,353.1207,371.5629,352.6641,380.44,356.93" style="stroke:#A80036;stroke-width:1.0;"/><!--MD5=[5bb931d09ab0aebfaada3d823529a93c]
link RecordSampleController to TestStore--><path codeLine="29" d="M159.69,265.06 C153.81,309.56 151.85,378.36 184,426 C207.82,461.31 248.26,484.45 286.32,499.32 " fill="none" id="RecordSampleController-to-TestStore" style="stroke:#A80036;stroke-width:1.0;stroke-dasharray:7.0,7.0;"/><polygon fill="#A80036" points="291.43,501.28,284.4515,494.3301,286.7596,499.4947,281.595,501.8027,291.43,501.28" style="stroke:#A80036;stroke-width:1.0;"/><!--MD5=[b72ac8ab7fb5921fceb5036a3902baea]
link Test to Sample--><path codeLine="44" d="M446.61,772.21 C439.83,796.07 432.26,822.7 425.94,844.95 " fill="none" id="Test-to-Sample" style="stroke:#A80036;stroke-width:1.0;"/><polygon fill="#A80036" points="424.53,849.92,430.8219,842.3429,425.8866,845.1076,423.122,840.1723,424.53,849.92" style="stroke:#A80036;stroke-width:1.0;"/><text fill="#000000" font-family="sans-serif" font-size="13" lengthAdjust="spacing" textLength="21" x="437" y="816.4951">has</text><!--MD5=[7f6cf7f175eae0af66201860de5de971]
link Company to TestStore--><path codeLine="46" d="M290.49,426.25 C308.92,446.15 331.44,470.47 349.41,489.88 " fill="none" id="Company-to-TestStore" style="stroke:#A80036;stroke-width:1.0;"/><polygon fill="#A80036" points="352.94,493.69,349.7611,484.3683,349.5432,490.0209,343.8906,489.8031,352.94,493.69" style="stroke:#A80036;stroke-width:1.0;"/><!--MD5=[f6fda4afaf882dd39139bcbf06c50c8c]
link TestMapper to TestDTO--><path codeLine="50" d="M546,419.3 C546,442.18 546,473.37 546,495.74 " fill="none" id="TestMapper-to-TestDTO" style="stroke:#A80036;stroke-width:1.0;stroke-dasharray:7.0,7.0;"/><polygon fill="#A80036" points="546,500.94,550,491.94,546,495.94,542,491.94,546,500.94" style="stroke:#A80036;stroke-width:1.0;"/><!--MD5=[be3b39c7463182027323f9c0e531e936]
link TestDTO to Test--><path codeLine="51" d="M535.58,549.1 C525.68,571.03 510.3,605.12 496.41,635.89 " fill="none" id="TestDTO-to-Test" style="stroke:#A80036;stroke-width:1.0;stroke-dasharray:7.0,7.0;"/><polygon fill="#A80036" points="494.2,640.8,501.5487,634.2428,496.2572,636.2428,494.2571,630.9513,494.2,640.8" style="stroke:#A80036;stroke-width:1.0;"/><!--MD5=[b0f4f6db8206580012ef9cd998ed01c5]
link TestStore to Test--><path codeLine="54" d="M395.06,556.04 C405.26,577.84 419.48,608.23 432.44,635.92 " fill="none" id="TestStore-to-Test" style="stroke:#A80036;stroke-width:1.0;"/><polygon fill="#A80036" points="434.67,640.69,434.4616,630.8433,432.5431,636.1649,427.2215,634.2464,434.67,640.69" style="stroke:#A80036;stroke-width:1.0;"/><text fill="#000000" font-family="sans-serif" font-size="13" lengthAdjust="spacing" textLength="23" x="421" y="607.4951">Has</text><!--MD5=[081a105d9ba373b8c9f4c038e84d1e03]
link SampleMapper to SampleDTO--><path codeLine="55" d="M349.1,419.13 C308.55,441.38 253.58,471.55 213.01,493.81 " fill="none" id="SampleMapper-to-SampleDTO" style="stroke:#A80036;stroke-width:1.0;stroke-dasharray:7.0,7.0;"/><polygon fill="#A80036" points="208.13,496.49,217.9433,495.6539,212.5102,494.0788,214.0853,488.6456,208.13,496.49" style="stroke:#A80036;stroke-width:1.0;"/><!--MD5=[c88f814ecc8e75286b0c0023c0833471]
link TestMapper to TestStore--><path codeLine="58" d="M508.97,419.3 C483.07,440.49 448.47,468.79 421.78,490.63 " fill="none" id="TestMapper-to-TestStore" style="stroke:#A80036;stroke-width:1.0;stroke-dasharray:7.0,7.0;"/><polygon fill="#A80036" points="417.91,493.8,427.4127,491.212,421.7849,490.64,422.3568,485.0122,417.91,493.8" style="stroke:#A80036;stroke-width:1.0;"/><!--MD5=[7ae31b06ecb5db678e40497ee74dd179]
link Test to LabOrder--><path codeLine="60" d="M495.18,772.21 C507.56,798.74 521.53,828.68 532.52,852.24 " fill="none" id="Test-to-LabOrder" style="stroke:#A80036;stroke-width:1.0;stroke-dasharray:7.0,7.0;"/><polygon fill="#A80036" points="534.68,856.86,534.4971,847.0128,532.5648,852.3294,527.2482,850.3972,534.68,856.86" style="stroke:#A80036;stroke-width:1.0;"/><!--MD5=[3f5983f8009cc11d6ffa7fbef99c5461]
link SampleMapper to TestStore--><path codeLine="69" d="M398.84,419.3 C395.33,439.88 390.68,467.18 387.01,488.74 " fill="none" id="SampleMapper-to-TestStore" style="stroke:#A80036;stroke-width:1.0;stroke-dasharray:7.0,7.0;"/><polygon fill="#A80036" points="386.14,493.8,391.5999,485.6031,386.9828,488.8715,383.7143,484.2545,386.14,493.8" style="stroke:#A80036;stroke-width:1.0;"/><!--MD5=[7116ba69743c09e9de143a23f3e84625]
link Sample to ApiBarcode--><path codeLine="71" d="M436.08,940.3 C448.22,962.63 462.73,989.32 474.06,1010.16 " fill="none" id="Sample-to-ApiBarcode" style="stroke:#A80036;stroke-width:1.0;"/><polygon fill="#A80036" points="476.57,1014.79,475.7831,1004.9726,474.1808,1010.3978,468.7556,1008.7954,476.57,1014.79" style="stroke:#A80036;stroke-width:1.0;"/><!--MD5=[9191d7b7e5c5d78bd11b44e3739e6984]
link BarcodeAdapter to ApiBarcode--><path codeLine="73" d="M267.27,926.15 C314.83,951.2 382.36,986.75 431.15,1012.44 " fill="none" id="BarcodeAdapter-to-ApiBarcode" style="stroke:#A80036;stroke-width:1.0;stroke-dasharray:7.0,7.0;"/><polygon fill="#A80036" points="435.82,1014.89,429.7156,1007.161,431.3945,1012.563,425.9925,1014.2419,435.82,1014.89" style="stroke:#A80036;stroke-width:1.0;"/><!--MD5=[a2c13215787d2b0b04028d3ce7cea70e]
link BarcodeAdapter to BarcodeCreate--><path codeLine="75" d="M209.6,926.15 C209.33,946.07 208.97,972.65 208.66,995.62 " fill="none" id="BarcodeAdapter-to-BarcodeCreate" style="stroke:#A80036;stroke-width:1.0;"/><polygon fill="#A80036" points="208.59,1000.76,212.7182,991.8181,208.6614,995.7605,204.719,991.7038,208.59,1000.76" style="stroke:#A80036;stroke-width:1.0;"/><!--MD5=[c6a86d8b7bb7d0e8cb4dc9e7d1a2dd6e]
@startuml
package "UI" {
  Class RecordSampleUI
}
package "Controllers" {
 Class RecordSampleController
}
package "Domain" {
 Class Company
Class Sample
Class TestMapper
Class SampleDTO
Class SampleMapper
Class TestStore
Class Test
Class TestDTO
Class LabOrder
Interface ApiBarcode
Class BarcodeAdapter
Class BarcodeCreate
}


RecordSampleUI ..> RecordSampleController
RecordSampleController..>Company
RecordSampleController..>Sample
RecordSampleController..>TestMapper
RecordSampleController..>SampleDTO
RecordSampleController..>SampleMapper
RecordSampleController..>TestStore









RecordSampleController : +RecordNewSample(dto)
RecordSampleController : +saveNewSample()
RecordSampleController : +getTest()


Test - -> Sample: has

Company - -> TestStore

TestStore : +getTestByTestTypeCode(testid)

TestMapper ..> TestDTO
TestDTO..> Test


TestStore - -> Test : Has
SampleMapper ..> SampleDTO


TestMapper ..> TestStore

Test ..> LabOrder
LabOrder : -testType
LabOrder : -parameters


TestMapper : +toDTO(tests)

SampleMapper : +toModel()

SampleMapper ..> TestStore

Sample - -> ApiBarcode

BarcodeAdapter  ..> ApiBarcode

BarcodeAdapter - -> BarcodeCreate


ApiBarcode : +BarcodeCreate makeUPCABarcode()

BarcodeAdapter : +BarcodeCreate makeUPCABarcode()

BarcodeCreate : +BarcodeCreate(Object barcode, String barcodeNumber)
BarcodeCreate : -barcode
BarcodeCreate : -barcodeNumber


Company : +getTestStore()
Company : +getSampleStore()

Test : +RecordNewSample(tdo)
Test : +validateNewSample(samp)
Test : +saveNewSample(samp)
Test : +addNewSample(samp)
Test : -LabOrder
Test : -Sample

SampleDTO : +getOrderid()



SampleDTO : -orderid


Sample : +Sample()
Sample : +getBarcodecreator()
Sample : -barcode
@enduml

PlantUML version 1.2021.00(Sun Jan 10 10:25:05 GMT 2021)
(GPL source distribution)
Java Runtime: OpenJDK Runtime Environment
JVM: OpenJDK 64-Bit Server VM
Default Encoding: Cp1252
Language: pt
Country: PT
--></g></svg>