<?xml version="1.0" encoding="UTF-8" standalone="no"?><svg xmlns="http://www.w3.org/2000/svg" xmlns:xlink="http://www.w3.org/1999/xlink" contentScriptType="application/ecmascript" contentStyleType="text/css" height="871px" preserveAspectRatio="none" style="width:808px;height:871px;background:#FFFFFF;" version="1.1" viewBox="0 0 808 871" width="808px" zoomAndPan="magnify"><defs><filter height="300%" id="flkmrpv28diob" width="300%" x="-1" y="-1"><feGaussianBlur result="blurOut" stdDeviation="2.0"/><feColorMatrix in="blurOut" result="blurOut2" type="matrix" values="0 0 0 0 0 0 0 0 0 0 0 0 0 0 0 0 0 0 .4 0"/><feOffset dx="4.0" dy="4.0" in="blurOut2" result="blurOut3"/><feBlend in="SourceGraphic" in2="blurOut3" mode="normal"/></filter></defs><g><!--MD5=[05ffea613565d111e9c4a041147710d4]
class RecordSampleUI--><rect fill="#FEFECE" filter="url(#flkmrpv28diob)" height="48" id="RecordSampleUI" style="stroke:#A80036;stroke-width:1.5;" width="132" x="309.5" y="7"/><ellipse cx="324.5" cy="23" fill="#ADD1B2" rx="11" ry="11" style="stroke:#A80036;stroke-width:1.0;"/><path d="M326.8438,18.6719 C325.9063,18.2344 325.3125,18.0938 324.4375,18.0938 C321.8125,18.0938 319.8125,20.1719 319.8125,22.8906 L319.8125,24.0156 C319.8125,26.5938 321.9219,28.4844 324.8125,28.4844 C326.0313,28.4844 327.1875,28.1875 327.9375,27.6406 C328.5156,27.2344 328.8438,26.7813 328.8438,26.3906 C328.8438,25.9375 328.4531,25.5469 327.9844,25.5469 C327.7656,25.5469 327.5625,25.625 327.375,25.8125 C326.9219,26.2969 326.9219,26.2969 326.7344,26.3906 C326.3125,26.6563 325.625,26.7813 324.8594,26.7813 C322.8125,26.7813 321.5156,25.6875 321.5156,23.9844 L321.5156,22.8906 C321.5156,21.1094 322.7656,19.7969 324.5,19.7969 C325.0781,19.7969 325.6875,19.9531 326.1563,20.2031 C326.6406,20.4844 326.8125,20.7031 326.9063,21.1094 C326.9688,21.5156 327,21.6406 327.1406,21.7656 C327.2813,21.9063 327.5156,22.0156 327.7344,22.0156 C328,22.0156 328.2656,21.875 328.4375,21.6563 C328.5469,21.5 328.5781,21.3125 328.5781,20.8906 L328.5781,19.4688 C328.5781,19.0313 328.5625,18.9063 328.4688,18.75 C328.3125,18.4844 328.0313,18.3438 327.7344,18.3438 C327.4375,18.3438 327.2344,18.4375 327.0156,18.75 L326.8438,18.6719 Z " fill="#000000"/><text fill="#000000" font-family="sans-serif" font-size="12" lengthAdjust="spacing" textLength="100" x="338.5" y="27.1543">RecordSampleUI</text><line style="stroke:#A80036;stroke-width:1.5;" x1="310.5" x2="440.5" y1="39" y2="39"/><line style="stroke:#A80036;stroke-width:1.5;" x1="310.5" x2="440.5" y1="47" y2="47"/><!--MD5=[ecb4b8913618184ce1e3f8e48e5e993f]
class RecordSampleController--><rect fill="#FEFECE" filter="url(#flkmrpv28diob)" height="86.4141" id="RecordSampleController" style="stroke:#A80036;stroke-width:1.5;" width="179" x="286" y="116"/><ellipse cx="301" cy="132" fill="#ADD1B2" rx="11" ry="11" style="stroke:#A80036;stroke-width:1.0;"/><path d="M303.3438,127.6719 C302.4063,127.2344 301.8125,127.0938 300.9375,127.0938 C298.3125,127.0938 296.3125,129.1719 296.3125,131.8906 L296.3125,133.0156 C296.3125,135.5938 298.4219,137.4844 301.3125,137.4844 C302.5313,137.4844 303.6875,137.1875 304.4375,136.6406 C305.0156,136.2344 305.3438,135.7813 305.3438,135.3906 C305.3438,134.9375 304.9531,134.5469 304.4844,134.5469 C304.2656,134.5469 304.0625,134.625 303.875,134.8125 C303.4219,135.2969 303.4219,135.2969 303.2344,135.3906 C302.8125,135.6563 302.125,135.7813 301.3594,135.7813 C299.3125,135.7813 298.0156,134.6875 298.0156,132.9844 L298.0156,131.8906 C298.0156,130.1094 299.2656,128.7969 301,128.7969 C301.5781,128.7969 302.1875,128.9531 302.6563,129.2031 C303.1406,129.4844 303.3125,129.7031 303.4063,130.1094 C303.4688,130.5156 303.5,130.6406 303.6406,130.7656 C303.7813,130.9063 304.0156,131.0156 304.2344,131.0156 C304.5,131.0156 304.7656,130.875 304.9375,130.6563 C305.0469,130.5 305.0781,130.3125 305.0781,129.8906 L305.0781,128.4688 C305.0781,128.0313 305.0625,127.9063 304.9688,127.75 C304.8125,127.4844 304.5313,127.3438 304.2344,127.3438 C303.9375,127.3438 303.7344,127.4375 303.5156,127.75 L303.3438,127.6719 Z " fill="#000000"/><text fill="#000000" font-family="sans-serif" font-size="12" lengthAdjust="spacing" textLength="147" x="315" y="136.1543">RecordSampleController</text><line style="stroke:#A80036;stroke-width:1.5;" x1="287" x2="464" y1="148" y2="148"/><line style="stroke:#A80036;stroke-width:1.5;" x1="287" x2="464" y1="156" y2="156"/><ellipse cx="297" cy="167" fill="#84BE84" rx="3" ry="3" style="stroke:#038048;stroke-width:1.0;"/><text fill="#000000" font-family="sans-serif" font-size="11" lengthAdjust="spacing" textLength="134" x="306" y="170.2104">RecordNewSample(dto)</text><ellipse cx="297" cy="179.8047" fill="#84BE84" rx="3" ry="3" style="stroke:#038048;stroke-width:1.0;"/><text fill="#000000" font-family="sans-serif" font-size="11" lengthAdjust="spacing" textLength="105" x="306" y="183.0151">saveNewSample()</text><ellipse cx="297" cy="192.6094" fill="#84BE84" rx="3" ry="3" style="stroke:#038048;stroke-width:1.0;"/><text fill="#000000" font-family="sans-serif" font-size="11" lengthAdjust="spacing" textLength="52" x="306" y="195.8198">getTest()</text><!--MD5=[02e4b9b7573f1156f41e60aa5b4e25a4]
class Company--><rect fill="#FEFECE" filter="url(#flkmrpv28diob)" height="73.6094" id="Company" style="stroke:#A80036;stroke-width:1.5;" width="128" x="194.5" y="263"/><ellipse cx="227.5" cy="279" fill="#ADD1B2" rx="11" ry="11" style="stroke:#A80036;stroke-width:1.0;"/><path d="M229.8438,274.6719 C228.9063,274.2344 228.3125,274.0938 227.4375,274.0938 C224.8125,274.0938 222.8125,276.1719 222.8125,278.8906 L222.8125,280.0156 C222.8125,282.5938 224.9219,284.4844 227.8125,284.4844 C229.0313,284.4844 230.1875,284.1875 230.9375,283.6406 C231.5156,283.2344 231.8438,282.7813 231.8438,282.3906 C231.8438,281.9375 231.4531,281.5469 230.9844,281.5469 C230.7656,281.5469 230.5625,281.625 230.375,281.8125 C229.9219,282.2969 229.9219,282.2969 229.7344,282.3906 C229.3125,282.6563 228.625,282.7813 227.8594,282.7813 C225.8125,282.7813 224.5156,281.6875 224.5156,279.9844 L224.5156,278.8906 C224.5156,277.1094 225.7656,275.7969 227.5,275.7969 C228.0781,275.7969 228.6875,275.9531 229.1563,276.2031 C229.6406,276.4844 229.8125,276.7031 229.9063,277.1094 C229.9688,277.5156 230,277.6406 230.1406,277.7656 C230.2813,277.9063 230.5156,278.0156 230.7344,278.0156 C231,278.0156 231.2656,277.875 231.4375,277.6563 C231.5469,277.5 231.5781,277.3125 231.5781,276.8906 L231.5781,275.4688 C231.5781,275.0313 231.5625,274.9063 231.4688,274.75 C231.3125,274.4844 231.0313,274.3438 230.7344,274.3438 C230.4375,274.3438 230.2344,274.4375 230.0156,274.75 L229.8438,274.6719 Z " fill="#000000"/><text fill="#000000" font-family="sans-serif" font-size="12" lengthAdjust="spacing" textLength="56" x="245.5" y="283.1543">Company</text><line style="stroke:#A80036;stroke-width:1.5;" x1="195.5" x2="321.5" y1="295" y2="295"/><line style="stroke:#A80036;stroke-width:1.5;" x1="195.5" x2="321.5" y1="303" y2="303"/><ellipse cx="205.5" cy="314" fill="#84BE84" rx="3" ry="3" style="stroke:#038048;stroke-width:1.0;"/><text fill="#000000" font-family="sans-serif" font-size="11" lengthAdjust="spacing" textLength="83" x="214.5" y="317.2104">getTestStore()</text><ellipse cx="205.5" cy="326.8047" fill="#84BE84" rx="3" ry="3" style="stroke:#038048;stroke-width:1.0;"/><text fill="#000000" font-family="sans-serif" font-size="11" lengthAdjust="spacing" textLength="102" x="214.5" y="330.0151">getSampleStore()</text><!--MD5=[9681492165142af2a4a3a169d90ee8d4]
class Sample--><rect fill="#FEFECE" filter="url(#flkmrpv28diob)" height="86.4141" id="Sample" style="stroke:#A80036;stroke-width:1.5;" width="277" x="7" y="634"/><ellipse cx="118.75" cy="650" fill="#ADD1B2" rx="11" ry="11" style="stroke:#A80036;stroke-width:1.0;"/><path d="M121.0938,645.6719 C120.1563,645.2344 119.5625,645.0938 118.6875,645.0938 C116.0625,645.0938 114.0625,647.1719 114.0625,649.8906 L114.0625,651.0156 C114.0625,653.5938 116.1719,655.4844 119.0625,655.4844 C120.2813,655.4844 121.4375,655.1875 122.1875,654.6406 C122.7656,654.2344 123.0938,653.7813 123.0938,653.3906 C123.0938,652.9375 122.7031,652.5469 122.2344,652.5469 C122.0156,652.5469 121.8125,652.625 121.625,652.8125 C121.1719,653.2969 121.1719,653.2969 120.9844,653.3906 C120.5625,653.6563 119.875,653.7813 119.1094,653.7813 C117.0625,653.7813 115.7656,652.6875 115.7656,650.9844 L115.7656,649.8906 C115.7656,648.1094 117.0156,646.7969 118.75,646.7969 C119.3281,646.7969 119.9375,646.9531 120.4063,647.2031 C120.8906,647.4844 121.0625,647.7031 121.1563,648.1094 C121.2188,648.5156 121.25,648.6406 121.3906,648.7656 C121.5313,648.9063 121.7656,649.0156 121.9844,649.0156 C122.25,649.0156 122.5156,648.875 122.6875,648.6563 C122.7969,648.5 122.8281,648.3125 122.8281,647.8906 L122.8281,646.4688 C122.8281,646.0313 122.8125,645.9063 122.7188,645.75 C122.5625,645.4844 122.2813,645.3438 121.9844,645.3438 C121.6875,645.3438 121.4844,645.4375 121.2656,645.75 L121.0938,645.6719 Z " fill="#000000"/><text fill="#000000" font-family="sans-serif" font-size="12" lengthAdjust="spacing" textLength="45" x="139.25" y="654.1543">Sample</text><line style="stroke:#A80036;stroke-width:1.5;" x1="8" x2="283" y1="666" y2="666"/><rect fill="none" height="6" style="stroke:#C82930;stroke-width:1.0;" width="6" x="15" y="674"/><text fill="#000000" font-family="sans-serif" font-size="11" lengthAdjust="spacing" textLength="82" x="27" y="680.2104">timeCollection</text><rect fill="none" height="6" style="stroke:#C82930;stroke-width:1.0;" width="6" x="15" y="686.8047"/><text fill="#000000" font-family="sans-serif" font-size="11" lengthAdjust="spacing" textLength="82" x="27" y="693.0151">dateCollection</text><line style="stroke:#A80036;stroke-width:1.5;" x1="8" x2="283" y1="699.6094" y2="699.6094"/><ellipse cx="18" cy="710.6094" fill="#84BE84" rx="3" ry="3" style="stroke:#038048;stroke-width:1.0;"/><text fill="#000000" font-family="sans-serif" font-size="11" lengthAdjust="spacing" textLength="251" x="27" y="713.8198">Sample(dataCollection, timeCollection, test)</text><!--MD5=[d20d2b4573dff1fb5df630e48071c3b7]
class LabOrderMapper--><rect fill="#FEFECE" filter="url(#flkmrpv28diob)" height="60.8047" id="LabOrderMapper" style="stroke:#A80036;stroke-width:1.5;" width="135" x="429" y="269.5"/><ellipse cx="444" cy="285.5" fill="#ADD1B2" rx="11" ry="11" style="stroke:#A80036;stroke-width:1.0;"/><path d="M446.3438,281.1719 C445.4063,280.7344 444.8125,280.5938 443.9375,280.5938 C441.3125,280.5938 439.3125,282.6719 439.3125,285.3906 L439.3125,286.5156 C439.3125,289.0938 441.4219,290.9844 444.3125,290.9844 C445.5313,290.9844 446.6875,290.6875 447.4375,290.1406 C448.0156,289.7344 448.3438,289.2813 448.3438,288.8906 C448.3438,288.4375 447.9531,288.0469 447.4844,288.0469 C447.2656,288.0469 447.0625,288.125 446.875,288.3125 C446.4219,288.7969 446.4219,288.7969 446.2344,288.8906 C445.8125,289.1563 445.125,289.2813 444.3594,289.2813 C442.3125,289.2813 441.0156,288.1875 441.0156,286.4844 L441.0156,285.3906 C441.0156,283.6094 442.2656,282.2969 444,282.2969 C444.5781,282.2969 445.1875,282.4531 445.6563,282.7031 C446.1406,282.9844 446.3125,283.2031 446.4063,283.6094 C446.4688,284.0156 446.5,284.1406 446.6406,284.2656 C446.7813,284.4063 447.0156,284.5156 447.2344,284.5156 C447.5,284.5156 447.7656,284.375 447.9375,284.1563 C448.0469,284 448.0781,283.8125 448.0781,283.3906 L448.0781,281.9688 C448.0781,281.5313 448.0625,281.4063 447.9688,281.25 C447.8125,280.9844 447.5313,280.8438 447.2344,280.8438 C446.9375,280.8438 446.7344,280.9375 446.5156,281.25 L446.3438,281.1719 Z " fill="#000000"/><text fill="#000000" font-family="sans-serif" font-size="12" lengthAdjust="spacing" textLength="103" x="458" y="289.6543">LabOrderMapper</text><line style="stroke:#A80036;stroke-width:1.5;" x1="430" x2="563" y1="301.5" y2="301.5"/><line style="stroke:#A80036;stroke-width:1.5;" x1="430" x2="563" y1="309.5" y2="309.5"/><ellipse cx="440" cy="320.5" fill="#84BE84" rx="3" ry="3" style="stroke:#038048;stroke-width:1.0;"/><text fill="#000000" font-family="sans-serif" font-size="11" lengthAdjust="spacing" textLength="72" x="449" y="323.7104">toDTO(tests)</text><!--MD5=[f3e1cea714716315318addd6917e91a9]
class SampleDTO--><rect fill="#FEFECE" filter="url(#flkmrpv28diob)" height="112.0234" id="SampleDTO" style="stroke:#A80036;stroke-width:1.5;" width="108" x="613.5" y="414"/><ellipse cx="630.75" cy="430" fill="#ADD1B2" rx="11" ry="11" style="stroke:#A80036;stroke-width:1.0;"/><path d="M633.0938,425.6719 C632.1563,425.2344 631.5625,425.0938 630.6875,425.0938 C628.0625,425.0938 626.0625,427.1719 626.0625,429.8906 L626.0625,431.0156 C626.0625,433.5938 628.1719,435.4844 631.0625,435.4844 C632.2813,435.4844 633.4375,435.1875 634.1875,434.6406 C634.7656,434.2344 635.0938,433.7813 635.0938,433.3906 C635.0938,432.9375 634.7031,432.5469 634.2344,432.5469 C634.0156,432.5469 633.8125,432.625 633.625,432.8125 C633.1719,433.2969 633.1719,433.2969 632.9844,433.3906 C632.5625,433.6563 631.875,433.7813 631.1094,433.7813 C629.0625,433.7813 627.7656,432.6875 627.7656,430.9844 L627.7656,429.8906 C627.7656,428.1094 629.0156,426.7969 630.75,426.7969 C631.3281,426.7969 631.9375,426.9531 632.4063,427.2031 C632.8906,427.4844 633.0625,427.7031 633.1563,428.1094 C633.2188,428.5156 633.25,428.6406 633.3906,428.7656 C633.5313,428.9063 633.7656,429.0156 633.9844,429.0156 C634.25,429.0156 634.5156,428.875 634.6875,428.6563 C634.7969,428.5 634.8281,428.3125 634.8281,427.8906 L634.8281,426.4688 C634.8281,426.0313 634.8125,425.9063 634.7188,425.75 C634.5625,425.4844 634.2813,425.3438 633.9844,425.3438 C633.6875,425.3438 633.4844,425.4375 633.2656,425.75 L633.0938,425.6719 Z " fill="#000000"/><text fill="#000000" font-family="sans-serif" font-size="12" lengthAdjust="spacing" textLength="71" x="645.25" y="434.1543">SampleDTO</text><line style="stroke:#A80036;stroke-width:1.5;" x1="614.5" x2="720.5" y1="446" y2="446"/><rect fill="none" height="6" style="stroke:#C82930;stroke-width:1.0;" width="6" x="621.5" y="454"/><text fill="#000000" font-family="sans-serif" font-size="11" lengthAdjust="spacing" textLength="82" x="633.5" y="460.2104">timeCollection</text><rect fill="none" height="6" style="stroke:#C82930;stroke-width:1.0;" width="6" x="621.5" y="466.8047"/><text fill="#000000" font-family="sans-serif" font-size="11" lengthAdjust="spacing" textLength="82" x="633.5" y="473.0151">dateCollection</text><line style="stroke:#A80036;stroke-width:1.5;" x1="614.5" x2="720.5" y1="479.6094" y2="479.6094"/><ellipse cx="624.5" cy="490.6094" fill="#84BE84" rx="3" ry="3" style="stroke:#038048;stroke-width:1.0;"/><text fill="#000000" font-family="sans-serif" font-size="11" lengthAdjust="spacing" textLength="77" x="633.5" y="493.8198">getTimeColl()</text><ellipse cx="624.5" cy="503.4141" fill="#84BE84" rx="3" ry="3" style="stroke:#038048;stroke-width:1.0;"/><text fill="#000000" font-family="sans-serif" font-size="11" lengthAdjust="spacing" textLength="75" x="633.5" y="506.6245">getDataColl()</text><ellipse cx="624.5" cy="516.2188" fill="#84BE84" rx="3" ry="3" style="stroke:#038048;stroke-width:1.0;"/><text fill="#000000" font-family="sans-serif" font-size="11" lengthAdjust="spacing" textLength="81" x="633.5" y="519.4292">getgetTestId()</text><!--MD5=[fcd6df96e169c9fc6403c4dc9bdb4d83]
class SampleStore--><rect fill="#FEFECE" filter="url(#flkmrpv28diob)" height="99.2188" id="SampleStore" style="stroke:#A80036;stroke-width:1.5;" width="180" x="55.5" y="420.5"/><ellipse cx="102.25" cy="436.5" fill="#ADD1B2" rx="11" ry="11" style="stroke:#A80036;stroke-width:1.0;"/><path d="M104.5938,432.1719 C103.6563,431.7344 103.0625,431.5938 102.1875,431.5938 C99.5625,431.5938 97.5625,433.6719 97.5625,436.3906 L97.5625,437.5156 C97.5625,440.0938 99.6719,441.9844 102.5625,441.9844 C103.7813,441.9844 104.9375,441.6875 105.6875,441.1406 C106.2656,440.7344 106.5938,440.2813 106.5938,439.8906 C106.5938,439.4375 106.2031,439.0469 105.7344,439.0469 C105.5156,439.0469 105.3125,439.125 105.125,439.3125 C104.6719,439.7969 104.6719,439.7969 104.4844,439.8906 C104.0625,440.1563 103.375,440.2813 102.6094,440.2813 C100.5625,440.2813 99.2656,439.1875 99.2656,437.4844 L99.2656,436.3906 C99.2656,434.6094 100.5156,433.2969 102.25,433.2969 C102.8281,433.2969 103.4375,433.4531 103.9063,433.7031 C104.3906,433.9844 104.5625,434.2031 104.6563,434.6094 C104.7188,435.0156 104.75,435.1406 104.8906,435.2656 C105.0313,435.4063 105.2656,435.5156 105.4844,435.5156 C105.75,435.5156 106.0156,435.375 106.1875,435.1563 C106.2969,435 106.3281,434.8125 106.3281,434.3906 L106.3281,432.9688 C106.3281,432.5313 106.3125,432.4063 106.2188,432.25 C106.0625,431.9844 105.7813,431.8438 105.4844,431.8438 C105.1875,431.8438 104.9844,431.9375 104.7656,432.25 L104.5938,432.1719 Z " fill="#000000"/><text fill="#000000" font-family="sans-serif" font-size="12" lengthAdjust="spacing" textLength="78" x="122.75" y="440.6543">SampleStore</text><line style="stroke:#A80036;stroke-width:1.5;" x1="56.5" x2="234.5" y1="452.5" y2="452.5"/><line style="stroke:#A80036;stroke-width:1.5;" x1="56.5" x2="234.5" y1="460.5" y2="460.5"/><ellipse cx="66.5" cy="471.5" fill="#84BE84" rx="3" ry="3" style="stroke:#038048;stroke-width:1.0;"/><text fill="#000000" font-family="sans-serif" font-size="11" lengthAdjust="spacing" textLength="134" x="75.5" y="474.7104">RecordNewSample(tdo)</text><ellipse cx="66.5" cy="484.3047" fill="#84BE84" rx="3" ry="3" style="stroke:#038048;stroke-width:1.0;"/><text fill="#000000" font-family="sans-serif" font-size="11" lengthAdjust="spacing" textLength="154" x="75.5" y="487.5151">validateNewSample(samp)</text><ellipse cx="66.5" cy="497.1094" fill="#84BE84" rx="3" ry="3" style="stroke:#038048;stroke-width:1.0;"/><text fill="#000000" font-family="sans-serif" font-size="11" lengthAdjust="spacing" textLength="136" x="75.5" y="500.3198">saveNewSample(samp)</text><ellipse cx="66.5" cy="509.9141" fill="#84BE84" rx="3" ry="3" style="stroke:#038048;stroke-width:1.0;"/><text fill="#000000" font-family="sans-serif" font-size="11" lengthAdjust="spacing" textLength="129" x="75.5" y="513.1245">addNewSample(samp)</text><!--MD5=[ae7e51bf7f64437d6b43a3b7d6fba6e1]
class SampleMapper--><rect fill="#FEFECE" filter="url(#flkmrpv28diob)" height="60.8047" id="SampleMapper" style="stroke:#A80036;stroke-width:1.5;" width="123" x="671" y="269.5"/><ellipse cx="686" cy="285.5" fill="#ADD1B2" rx="11" ry="11" style="stroke:#A80036;stroke-width:1.0;"/><path d="M688.3438,281.1719 C687.4063,280.7344 686.8125,280.5938 685.9375,280.5938 C683.3125,280.5938 681.3125,282.6719 681.3125,285.3906 L681.3125,286.5156 C681.3125,289.0938 683.4219,290.9844 686.3125,290.9844 C687.5313,290.9844 688.6875,290.6875 689.4375,290.1406 C690.0156,289.7344 690.3438,289.2813 690.3438,288.8906 C690.3438,288.4375 689.9531,288.0469 689.4844,288.0469 C689.2656,288.0469 689.0625,288.125 688.875,288.3125 C688.4219,288.7969 688.4219,288.7969 688.2344,288.8906 C687.8125,289.1563 687.125,289.2813 686.3594,289.2813 C684.3125,289.2813 683.0156,288.1875 683.0156,286.4844 L683.0156,285.3906 C683.0156,283.6094 684.2656,282.2969 686,282.2969 C686.5781,282.2969 687.1875,282.4531 687.6563,282.7031 C688.1406,282.9844 688.3125,283.2031 688.4063,283.6094 C688.4688,284.0156 688.5,284.1406 688.6406,284.2656 C688.7813,284.4063 689.0156,284.5156 689.2344,284.5156 C689.5,284.5156 689.7656,284.375 689.9375,284.1563 C690.0469,284 690.0781,283.8125 690.0781,283.3906 L690.0781,281.9688 C690.0781,281.5313 690.0625,281.4063 689.9688,281.25 C689.8125,280.9844 689.5313,280.8438 689.2344,280.8438 C688.9375,280.8438 688.7344,280.9375 688.5156,281.25 L688.3438,281.1719 Z " fill="#000000"/><text fill="#000000" font-family="sans-serif" font-size="12" lengthAdjust="spacing" textLength="91" x="700" y="289.6543">SampleMapper</text><line style="stroke:#A80036;stroke-width:1.5;" x1="672" x2="793" y1="301.5" y2="301.5"/><line style="stroke:#A80036;stroke-width:1.5;" x1="672" x2="793" y1="309.5" y2="309.5"/><ellipse cx="682" cy="320.5" fill="#84BE84" rx="3" ry="3" style="stroke:#038048;stroke-width:1.0;"/><text fill="#000000" font-family="sans-serif" font-size="11" lengthAdjust="spacing" textLength="53" x="691" y="323.7104">toModel()</text><!--MD5=[b5068c708371f53deedcfa11f861b7c6]
class LabOrderStore--><rect fill="#FEFECE" filter="url(#flkmrpv28diob)" height="60.8047" id="LabOrderStore" style="stroke:#A80036;stroke-width:1.5;" width="209" x="271" y="439.5"/><ellipse cx="326.25" cy="455.5" fill="#ADD1B2" rx="11" ry="11" style="stroke:#A80036;stroke-width:1.0;"/><path d="M328.5938,451.1719 C327.6563,450.7344 327.0625,450.5938 326.1875,450.5938 C323.5625,450.5938 321.5625,452.6719 321.5625,455.3906 L321.5625,456.5156 C321.5625,459.0938 323.6719,460.9844 326.5625,460.9844 C327.7813,460.9844 328.9375,460.6875 329.6875,460.1406 C330.2656,459.7344 330.5938,459.2813 330.5938,458.8906 C330.5938,458.4375 330.2031,458.0469 329.7344,458.0469 C329.5156,458.0469 329.3125,458.125 329.125,458.3125 C328.6719,458.7969 328.6719,458.7969 328.4844,458.8906 C328.0625,459.1563 327.375,459.2813 326.6094,459.2813 C324.5625,459.2813 323.2656,458.1875 323.2656,456.4844 L323.2656,455.3906 C323.2656,453.6094 324.5156,452.2969 326.25,452.2969 C326.8281,452.2969 327.4375,452.4531 327.9063,452.7031 C328.3906,452.9844 328.5625,453.2031 328.6563,453.6094 C328.7188,454.0156 328.75,454.1406 328.8906,454.2656 C329.0313,454.4063 329.2656,454.5156 329.4844,454.5156 C329.75,454.5156 330.0156,454.375 330.1875,454.1563 C330.2969,454 330.3281,453.8125 330.3281,453.3906 L330.3281,451.9688 C330.3281,451.5313 330.3125,451.4063 330.2188,451.25 C330.0625,450.9844 329.7813,450.8438 329.4844,450.8438 C329.1875,450.8438 328.9844,450.9375 328.7656,451.25 L328.5938,451.1719 Z " fill="#000000"/><text fill="#000000" font-family="sans-serif" font-size="12" lengthAdjust="spacing" textLength="90" x="346.75" y="459.6543">LabOrderStore</text><line style="stroke:#A80036;stroke-width:1.5;" x1="272" x2="479" y1="471.5" y2="471.5"/><line style="stroke:#A80036;stroke-width:1.5;" x1="272" x2="479" y1="479.5" y2="479.5"/><ellipse cx="282" cy="490.5" fill="#84BE84" rx="3" ry="3" style="stroke:#038048;stroke-width:1.0;"/><text fill="#000000" font-family="sans-serif" font-size="11" lengthAdjust="spacing" textLength="183" x="291" y="493.7104">getTestByTestTypeCode(testid)</text><!--MD5=[127e4a623886e580b732ef0830c622d4]
class LabOrderDTO--><rect fill="#FEFECE" filter="url(#flkmrpv28diob)" height="48" id="LabOrderDTO" style="stroke:#A80036;stroke-width:1.5;" width="115" x="437" y="556"/><ellipse cx="452" cy="572" fill="#ADD1B2" rx="11" ry="11" style="stroke:#A80036;stroke-width:1.0;"/><path d="M454.3438,567.6719 C453.4063,567.2344 452.8125,567.0938 451.9375,567.0938 C449.3125,567.0938 447.3125,569.1719 447.3125,571.8906 L447.3125,573.0156 C447.3125,575.5938 449.4219,577.4844 452.3125,577.4844 C453.5313,577.4844 454.6875,577.1875 455.4375,576.6406 C456.0156,576.2344 456.3438,575.7813 456.3438,575.3906 C456.3438,574.9375 455.9531,574.5469 455.4844,574.5469 C455.2656,574.5469 455.0625,574.625 454.875,574.8125 C454.4219,575.2969 454.4219,575.2969 454.2344,575.3906 C453.8125,575.6563 453.125,575.7813 452.3594,575.7813 C450.3125,575.7813 449.0156,574.6875 449.0156,572.9844 L449.0156,571.8906 C449.0156,570.1094 450.2656,568.7969 452,568.7969 C452.5781,568.7969 453.1875,568.9531 453.6563,569.2031 C454.1406,569.4844 454.3125,569.7031 454.4063,570.1094 C454.4688,570.5156 454.5,570.6406 454.6406,570.7656 C454.7813,570.9063 455.0156,571.0156 455.2344,571.0156 C455.5,571.0156 455.7656,570.875 455.9375,570.6563 C456.0469,570.5 456.0781,570.3125 456.0781,569.8906 L456.0781,568.4688 C456.0781,568.0313 456.0625,567.9063 455.9688,567.75 C455.8125,567.4844 455.5313,567.3438 455.2344,567.3438 C454.9375,567.3438 454.7344,567.4375 454.5156,567.75 L454.3438,567.6719 Z " fill="#000000"/><text fill="#000000" font-family="sans-serif" font-size="12" lengthAdjust="spacing" textLength="83" x="466" y="576.1543">LabOrderDTO</text><line style="stroke:#A80036;stroke-width:1.5;" x1="438" x2="551" y1="588" y2="588"/><line style="stroke:#A80036;stroke-width:1.5;" x1="438" x2="551" y1="596" y2="596"/><!--MD5=[a999c1570c205a2156b04a15307bc1ff]
class LabOrder--><rect fill="#FEFECE" filter="url(#flkmrpv28diob)" height="60.8047" id="LabOrder" style="stroke:#A80036;stroke-width:1.5;" width="89" x="331" y="797"/><ellipse cx="346" cy="813" fill="#ADD1B2" rx="11" ry="11" style="stroke:#A80036;stroke-width:1.0;"/><path d="M348.3438,808.6719 C347.4063,808.2344 346.8125,808.0938 345.9375,808.0938 C343.3125,808.0938 341.3125,810.1719 341.3125,812.8906 L341.3125,814.0156 C341.3125,816.5938 343.4219,818.4844 346.3125,818.4844 C347.5313,818.4844 348.6875,818.1875 349.4375,817.6406 C350.0156,817.2344 350.3438,816.7813 350.3438,816.3906 C350.3438,815.9375 349.9531,815.5469 349.4844,815.5469 C349.2656,815.5469 349.0625,815.625 348.875,815.8125 C348.4219,816.2969 348.4219,816.2969 348.2344,816.3906 C347.8125,816.6563 347.125,816.7813 346.3594,816.7813 C344.3125,816.7813 343.0156,815.6875 343.0156,813.9844 L343.0156,812.8906 C343.0156,811.1094 344.2656,809.7969 346,809.7969 C346.5781,809.7969 347.1875,809.9531 347.6563,810.2031 C348.1406,810.4844 348.3125,810.7031 348.4063,811.1094 C348.4688,811.5156 348.5,811.6406 348.6406,811.7656 C348.7813,811.9063 349.0156,812.0156 349.2344,812.0156 C349.5,812.0156 349.7656,811.875 349.9375,811.6563 C350.0469,811.5 350.0781,811.3125 350.0781,810.8906 L350.0781,809.4688 C350.0781,809.0313 350.0625,808.9063 349.9688,808.75 C349.8125,808.4844 349.5313,808.3438 349.2344,808.3438 C348.9375,808.3438 348.7344,808.4375 348.5156,808.75 L348.3438,808.6719 Z " fill="#000000"/><text fill="#000000" font-family="sans-serif" font-size="12" lengthAdjust="spacing" textLength="57" x="360" y="817.1543">LabOrder</text><line style="stroke:#A80036;stroke-width:1.5;" x1="332" x2="419" y1="829" y2="829"/><rect fill="none" height="6" style="stroke:#C82930;stroke-width:1.0;" width="6" x="339" y="837"/><text fill="#000000" font-family="sans-serif" font-size="11" lengthAdjust="spacing" textLength="51" x="351" y="843.2104">testType</text><line style="stroke:#A80036;stroke-width:1.5;" x1="332" x2="419" y1="849.8047" y2="849.8047"/><!--MD5=[b07fc2b2aa91da2436cc249a96980d64]
link RecordSampleUI to RecordSampleController--><path codeLine="1" d="M375.5,55.11 C375.5,70.631 375.5,91.639 375.5,110.625 " fill="none" id="RecordSampleUI-to-RecordSampleController" style="stroke:#A80036;stroke-width:1.0;stroke-dasharray:7.0,7.0;"/><polygon fill="#A80036" points="375.5,115.921,379.5,106.921,375.5,110.921,371.5,106.921,375.5,115.921" style="stroke:#A80036;stroke-width:1.0;"/><!--MD5=[ccf558741c2fb5a5f538be9d3a954f59]
link RecordSampleController to Company--><path codeLine="2" d="M340.079,202.082 C324.947,220.059 307.361,240.951 292.4,258.725 " fill="none" id="RecordSampleController-to-Company" style="stroke:#A80036;stroke-width:1.0;stroke-dasharray:7.0,7.0;"/><polygon fill="#A80036" points="289.053,262.702,297.9088,258.3921,292.2727,258.8766,291.7882,253.2406,289.053,262.702" style="stroke:#A80036;stroke-width:1.0;"/><!--MD5=[46ce183c027ced3c8d5e339377570598]
link RecordSampleController to Sample--><path codeLine="3" d="M285.97,194.053 C257.42,205.486 225.882,218.721 197.5,232 C99.9469,277.642 69.0241,311.014 37.5,414 C22.9302,461.598 22.2195,478.626 37.5,526 C50.0341,564.86 76.7896,602.147 100.5327,629.825 " fill="none" id="RecordSampleController-to-Sample" style="stroke:#A80036;stroke-width:1.0;stroke-dasharray:7.0,7.0;"/><polygon fill="#A80036" points="104.0119,633.838,101.1401,624.4171,100.7372,630.0596,95.0947,629.6567,104.0119,633.838" style="stroke:#A80036;stroke-width:1.0;"/><!--MD5=[39a8dfa06995183743dfa651a2129b18]
link RecordSampleController to LabOrderMapper--><path codeLine="4" d="M412.132,202.082 C429.722,222.288 450.517,246.176 467.06,265.18 " fill="none" id="RecordSampleController-to-LabOrderMapper" style="stroke:#A80036;stroke-width:1.0;stroke-dasharray:7.0,7.0;"/><polygon fill="#A80036" points="470.737,269.405,467.845,259.9903,467.4542,265.6336,461.8109,265.2428,470.737,269.405" style="stroke:#A80036;stroke-width:1.0;"/><!--MD5=[a7cbd6ea75f3dbf8a10370ef60b1951f]
link RecordSampleController to SampleDTO--><path codeLine="5" d="M465.053,188.522 C504.964,204.988 549.976,229.25 581.5,263 C619.659,303.853 642.12,364.069 654.458,408.858 " fill="none" id="RecordSampleController-to-SampleDTO" style="stroke:#A80036;stroke-width:1.0;stroke-dasharray:7.0,7.0;"/><polygon fill="#A80036" points="655.766,413.691,657.2772,403.9588,654.4604,408.8645,649.5548,406.0477,655.766,413.691" style="stroke:#A80036;stroke-width:1.0;"/><!--MD5=[9510bf5b380887b573b83b1f9ca3e028]
link RecordSampleController to SampleStore--><path codeLine="6" d="M285.871,185.696 C246.275,201.612 202.823,226.227 176.5,263 C144.878,307.175 139.693,370.433 140.806,415.171 " fill="none" id="RecordSampleController-to-SampleStore" style="stroke:#A80036;stroke-width:1.0;stroke-dasharray:7.0,7.0;"/><polygon fill="#A80036" points="140.962,420.259,144.6824,411.1398,140.8077,415.2614,136.6862,411.3867,140.962,420.259" style="stroke:#A80036;stroke-width:1.0;"/><!--MD5=[e5a9667c400772c28cc59b9168c63c65]
link RecordSampleController to SampleMapper--><path codeLine="7" d="M465.143,175.135 C518.717,186.332 587.102,204.486 643.5,232 C661.772,240.914 680.044,253.804 695.235,265.902 " fill="none" id="RecordSampleController-to-SampleMapper" style="stroke:#A80036;stroke-width:1.0;stroke-dasharray:7.0,7.0;"/><polygon fill="#A80036" points="699.436,269.289,694.9402,260.5262,695.5435,266.1507,689.9189,266.7541,699.436,269.289" style="stroke:#A80036;stroke-width:1.0;"/><!--MD5=[288e130e46a9d714ce57c029db69905b]
link RecordSampleController to LabOrderStore--><path codeLine="8" d="M375.5,202.317 C375.5,263.928 375.5,377.178 375.5,434.223 " fill="none" id="RecordSampleController-to-LabOrderStore" style="stroke:#A80036;stroke-width:1.0;stroke-dasharray:7.0,7.0;"/><polygon fill="#A80036" points="375.5,439.232,379.5,430.232,375.5,434.232,371.5,430.232,375.5,439.232" style="stroke:#A80036;stroke-width:1.0;"/><!--MD5=[6fff8c743b4aac4516b5292cd3b50f72]
link Company to SampleStore--><path codeLine="18" d="M234.259,337.04 C218.81,360.008 198.523,390.169 181.244,415.859 " fill="none" id="Company-to-SampleStore" style="stroke:#A80036;stroke-width:1.0;"/><polygon fill="#A80036" points="178.277,420.27,186.62,415.036,181.0683,416.1217,179.9826,410.57,178.277,420.27" style="stroke:#A80036;stroke-width:1.0;"/><text fill="#000000" font-family="sans-serif" font-size="13" lengthAdjust="spacing" textLength="32" x="213.5" y="380.0669">have</text><!--MD5=[24da80e03bf7ae3160485df7795f9e59]
link SampleStore to Sample--><path codeLine="20" d="M145.5,519.582 C145.5,552.512 145.5,595.821 145.5,628.516 " fill="none" id="SampleStore-to-Sample" style="stroke:#A80036;stroke-width:1.0;"/><polygon fill="#A80036" points="145.5,633.67,149.5,624.67,145.5,628.67,141.5,624.67,145.5,633.67" style="stroke:#A80036;stroke-width:1.0;"/><text fill="#000000" font-family="sans-serif" font-size="13" lengthAdjust="spacing" textLength="23" x="146.5" y="584.5669">has</text><!--MD5=[4853eac7323a9cc92da9ed62b8157a4f]
link Company to LabOrderStore--><path codeLine="22" d="M283.599,337.04 C303.887,366.171 332.234,406.874 352.063,435.347 " fill="none" id="Company-to-LabOrderStore" style="stroke:#A80036;stroke-width:1.0;"/><polygon fill="#A80036" points="354.925,439.456,353.0659,429.7842,352.0683,435.3524,346.5001,434.3549,354.925,439.456" style="stroke:#A80036;stroke-width:1.0;"/><!--MD5=[8a5c5c7f1ece820e7b949fa03e614742]
link LabOrderMapper to LabOrderDTO--><path codeLine="26" d="M497.253,330.852 C498.2,373.95 499.477,456.105 497.5,526 C497.276,533.934 496.863,542.529 496.413,550.441 " fill="none" id="LabOrderMapper-to-LabOrderDTO" style="stroke:#A80036;stroke-width:1.0;stroke-dasharray:7.0,7.0;"/><polygon fill="#A80036" points="496.098,555.793,500.6208,547.044,496.3923,550.8017,492.6346,546.5732,496.098,555.793" style="stroke:#A80036;stroke-width:1.0;"/><!--MD5=[e503a91787edf3396b2d11f9aaf1137c]
link LabOrderDTO to LabOrder--><path codeLine="27" d="M483.305,604.096 C462.286,647.458 416.821,741.253 392.183,792.0832 " fill="none" id="LabOrderDTO-to-LabOrder" style="stroke:#A80036;stroke-width:1.0;stroke-dasharray:7.0,7.0;"/><polygon fill="#A80036" points="389.865,796.865,397.3898,790.5107,392.0457,792.3656,390.1908,787.0215,389.865,796.865" style="stroke:#A80036;stroke-width:1.0;"/><!--MD5=[a74437b408427e4a601a38d5ee7b1f8d]
link Sample to LabOrder--><path codeLine="28" d="M188.75,720.046 C206.412,735.933 227.582,753.433 248.5,767 C272.726,782.7127 301.762,796.6364 325.951,807.0567 " fill="none" id="Sample-to-LabOrder" style="stroke:#A80036;stroke-width:1.0;"/><polygon fill="#A80036" points="330.722,809.0935,324.0168,801.8796,326.1239,807.1294,320.8742,809.2365,330.722,809.0935" style="stroke:#A80036;stroke-width:1.0;"/><text fill="#000000" font-family="sans-serif" font-size="13" lengthAdjust="spacing" textLength="99" x="249.5" y="763.0669">originated from</text><!--MD5=[57b3d8f591a859c9e10ba6fce29e04f3]
link LabOrderStore to LabOrder--><path codeLine="31" d="M375.5,500.698 C375.5,565.998 375.5,721.788 375.5,791.608 " fill="none" id="LabOrderStore-to-LabOrder" style="stroke:#A80036;stroke-width:1.0;"/><polygon fill="#A80036" points="375.5,796.8867,379.5,787.8867,375.5,791.8867,371.5,787.8867,375.5,796.8867" style="stroke:#A80036;stroke-width:1.0;"/><text fill="#000000" font-family="sans-serif" font-size="13" lengthAdjust="spacing" textLength="24" x="376.5" y="681.5669">Has</text><!--MD5=[081a105d9ba373b8c9f4c038e84d1e03]
link SampleMapper to SampleDTO--><path codeLine="32" d="M721.029,330.648 C712.657,352.286 701.023,382.356 690.739,408.936 " fill="none" id="SampleMapper-to-SampleDTO" style="stroke:#A80036;stroke-width:1.0;stroke-dasharray:7.0,7.0;"/><polygon fill="#A80036" points="688.835,413.856,695.8133,406.906,690.6394,409.1929,688.3524,404.019,688.835,413.856" style="stroke:#A80036;stroke-width:1.0;"/><!--MD5=[9ce649ac3d98274833ef5cfc0e4f9c5e]
link LabOrderMapper to LabOrderStore--><path codeLine="35" d="M475.146,330.648 C454.13,359.828 422.07,404.341 400.021,434.954 " fill="none" id="LabOrderMapper-to-LabOrderStore" style="stroke:#A80036;stroke-width:1.0;stroke-dasharray:7.0,7.0;"/><polygon fill="#A80036" points="396.844,439.366,405.3503,434.4018,399.7667,435.3091,398.8593,429.7255,396.844,439.366" style="stroke:#A80036;stroke-width:1.0;"/><!--MD5=[d44d5045a6f48ed8a78bdbc7e8e9b0d1]
@startuml
RecordSampleUI ..> RecordSampleController
RecordSampleController..>Company
RecordSampleController..>Sample
RecordSampleController..>LabOrderMapper 
RecordSampleController..>SampleDTO
RecordSampleController..>SampleStore
RecordSampleController..>SampleMapper
RecordSampleController..>LabOrderStore




RecordSampleController : +RecordNewSample(dto)
RecordSampleController : +saveNewSample()
RecordSampleController : +getTest()


Company - -> SampleStore : have

SampleStore - -> Sample: has

Company - -> LabOrderStore

LabOrderStore : +getTestByTestTypeCode(testid)

LabOrderMapper ..> LabOrderDTO
LabOrderDTO..> LabOrder
Sample - -> LabOrder: originated from


LabOrderStore - -> LabOrder : Has
SampleMapper ..> SampleDTO


LabOrderMapper ..> LabOrderStore


LabOrder : -testType


LabOrderMapper : +toDTO(tests)

SampleMapper : +toModel()




Company : +getTestStore()
Company : +getSampleStore()

SampleStore : +RecordNewSample(tdo)
SampleStore : +validateNewSample(samp)
SampleStore : +saveNewSample(samp)
SampleStore : +addNewSample(samp)

SampleDTO : +getTimeColl()
SampleDTO : +getDataColl()
SampleDTO : +getgetTestId()


SampleDTO : -timeCollection
SampleDTO : -dateCollection


Sample : +Sample(dataCollection, timeCollection, test)
Sample : -timeCollection
Sample : -dateCollection
@enduml

PlantUML version 1.2021.7beta1(Unknown compile time)
(GPL source distribution)
Java Runtime: Java(TM) SE Runtime Environment
JVM: Java HotSpot(TM) 64-Bit Server VM
Default Encoding: UTF-8
Language: en
Country: US
--></g></svg>