<?xml version="1.0" encoding="UTF-8" standalone="no"?><svg xmlns="http://www.w3.org/2000/svg" xmlns:xlink="http://www.w3.org/1999/xlink" contentScriptType="application/ecmascript" contentStyleType="text/css" height="2532px" preserveAspectRatio="none" style="width:3840px;height:2532px;" version="1.1" viewBox="0 0 3840 2532" width="3840px" zoomAndPan="magnify"><defs><filter height="300%" id="f1d5o9ng6hpg9t" width="300%" x="-1" y="-1"><feGaussianBlur result="blurOut" stdDeviation="4.0"/><feColorMatrix in="blurOut" result="blurOut2" type="matrix" values="0 0 0 0 0 0 0 0 0 0 0 0 0 0 0 0 0 0 .4 0"/><feOffset dx="8.0" dy="8.0" in="blurOut2" result="blurOut3"/><feBlend in="SourceGraphic" in2="blurOut3" mode="normal"/></filter></defs><g><rect fill="#FFFFFF" filter="url(#f1d5o9ng6hpg9t)" height="2126.7969" style="stroke:#A80036;stroke-width:2.0;" width="20" x="155" y="199.2188"/><rect fill="#FFFFFF" filter="url(#f1d5o9ng6hpg9t)" height="544.9219" style="stroke:#A80036;stroke-width:2.0;" width="20" x="1219" y="243.9219"/><rect fill="#FFFFFF" filter="url(#f1d5o9ng6hpg9t)" height="60.7031" style="stroke:#A80036;stroke-width:2.0;" width="20" x="1219" y="849.5469"/><rect fill="#FFFFFF" filter="url(#f1d5o9ng6hpg9t)" height="818.8438" style="stroke:#A80036;stroke-width:2.0;" width="20" x="1219" y="970.9531"/><rect fill="#FFFFFF" filter="url(#f1d5o9ng6hpg9t)" height="475.5156" style="stroke:#A80036;stroke-width:2.0;" width="20" x="1219" y="1850.5"/><rect fill="#FFFFFF" filter="url(#f1d5o9ng6hpg9t)" height="423.5156" style="stroke:#A80036;stroke-width:2.0;" width="20" x="1585" y="304.625"/><rect fill="#FFFFFF" filter="url(#f1d5o9ng6hpg9t)" height="697.4375" style="stroke:#A80036;stroke-width:2.0;" width="20" x="1585" y="1031.6563"/><rect fill="#FFFFFF" filter="url(#f1d5o9ng6hpg9t)" height="340.1094" style="stroke:#A80036;stroke-width:2.0;" width="20" x="1585" y="1911.2031"/><rect fill="#FFFFFF" filter="url(#f1d5o9ng6hpg9t)" height="60" style="stroke:#A80036;stroke-width:2.0;" width="20" x="2043" y="365.3281"/><rect fill="#FFFFFF" filter="url(#f1d5o9ng6hpg9t)" height="60" style="stroke:#A80036;stroke-width:2.0;" width="20" x="2043" y="1092.3594"/><rect fill="#FFFFFF" filter="url(#f1d5o9ng6hpg9t)" height="60.7031" style="stroke:#A80036;stroke-width:2.0;" width="20" x="2243" y="606.7344"/><rect fill="#FFFFFF" filter="url(#f1d5o9ng6hpg9t)" height="60" style="stroke:#A80036;stroke-width:2.0;" width="20" x="2449" y="486.0313"/><rect fill="#FFFFFF" filter="url(#f1d5o9ng6hpg9t)" height="362.8125" style="stroke:#A80036;stroke-width:2.0;" width="20" x="2449" y="1213.0625"/><rect fill="#FFFFFF" filter="url(#f1d5o9ng6hpg9t)" height="60" style="stroke:#A80036;stroke-width:2.0;" width="20" x="2449" y="1669.0938"/><rect fill="#FFFFFF" filter="url(#f1d5o9ng6hpg9t)" height="279.4063" style="stroke:#A80036;stroke-width:2.0;" width="20" x="2449" y="1971.9063"/><rect fill="#FFFFFF" filter="url(#f1d5o9ng6hpg9t)" height="56" style="stroke:#A80036;stroke-width:2.0;" width="20" x="2459" y="2048.6094"/><rect fill="#FFFFFF" filter="url(#f1d5o9ng6hpg9t)" height="56" style="stroke:#A80036;stroke-width:2.0;" width="20" x="2459" y="2195.3125"/><rect fill="#FFFFFF" filter="url(#f1d5o9ng6hpg9t)" height="302.1094" style="stroke:#A80036;stroke-width:2.0;" width="20" x="2837" y="1273.7656"/><rect fill="#FFFFFF" filter="url(#f1d5o9ng6hpg9t)" height="60" style="stroke:#A80036;stroke-width:2.0;" width="20" x="3161" y="1334.4688"/><rect fill="#FFFFFF" filter="url(#f1d5o9ng6hpg9t)" height="60" style="stroke:#A80036;stroke-width:2.0;" width="20" x="3455" y="1455.1719"/><line style="stroke:#A80036;stroke-width:2.0;stroke-dasharray:5.0,5.0;" x1="164" x2="164" y1="179.2188" y2="2362.0156"/><line style="stroke:#A80036;stroke-width:2.0;stroke-dasharray:5.0,5.0;" x1="1228" x2="1228" y1="179.2188" y2="2362.0156"/><line style="stroke:#A80036;stroke-width:2.0;stroke-dasharray:5.0,5.0;" x1="1594" x2="1594" y1="179.2188" y2="2362.0156"/><line style="stroke:#A80036;stroke-width:2.0;stroke-dasharray:5.0,5.0;" x1="2053" x2="2053" y1="179.2188" y2="2362.0156"/><line style="stroke:#A80036;stroke-width:2.0;stroke-dasharray:5.0,5.0;" x1="2253" x2="2253" y1="179.2188" y2="2362.0156"/><line style="stroke:#A80036;stroke-width:2.0;stroke-dasharray:5.0,5.0;" x1="2459" x2="2459" y1="179.2188" y2="2362.0156"/><line style="stroke:#A80036;stroke-width:2.0;stroke-dasharray:5.0,5.0;" x1="2846" x2="2846" y1="179.2188" y2="2362.0156"/><line style="stroke:#A80036;stroke-width:2.0;stroke-dasharray:5.0,5.0;" x1="3170" x2="3170" y1="179.2188" y2="2362.0156"/><line style="stroke:#A80036;stroke-width:2.0;stroke-dasharray:5.0,5.0;" x1="3464" x2="3464" y1="179.2188" y2="2362.0156"/><line style="stroke:#A80036;stroke-width:2.0;stroke-dasharray:5.0,5.0;" x1="3712" x2="3712" y1="1597.7813" y2="2362.0156"/><text fill="#000000" font-family="sans-serif" font-size="28" lengthAdjust="spacing" textLength="298" x="10" y="173.0664">Medical Lab Technician</text><ellipse cx="165" cy="30" fill="#FEFECE" filter="url(#f1d5o9ng6hpg9t)" rx="16" ry="16" style="stroke:#A80036;stroke-width:4.0;"/><path d="M165,46 L165,100 M139,62 L191,62 M165,100 L139,130 M165,100 L191,130 " fill="none" filter="url(#f1d5o9ng6hpg9t)" style="stroke:#A80036;stroke-width:4.0;"/><text fill="#000000" font-family="sans-serif" font-size="28" lengthAdjust="spacing" textLength="298" x="10" y="2389.082">Medical Lab Technician</text><ellipse cx="165" cy="2415.2344" fill="#FEFECE" filter="url(#f1d5o9ng6hpg9t)" rx="16" ry="16" style="stroke:#A80036;stroke-width:4.0;"/><path d="M165,2431.2344 L165,2485.2344 M139,2447.2344 L191,2447.2344 M165,2485.2344 L139,2515.2344 M165,2485.2344 L191,2515.2344 " fill="none" filter="url(#f1d5o9ng6hpg9t)" style="stroke:#A80036;stroke-width:4.0;"/><rect fill="#FEFECE" filter="url(#f1d5o9ng6hpg9t)" height="63.2188" style="stroke:#A80036;stroke-width:3.0;" width="246" x="1102" y="106"/><text fill="#000000" font-family="sans-serif" font-size="28" lengthAdjust="spacing" textLength="218" x="1116" y="149.0664">:RecordSampleUI</text><rect fill="#FEFECE" filter="url(#f1d5o9ng6hpg9t)" height="63.2188" style="stroke:#A80036;stroke-width:3.0;" width="246" x="1102" y="2360.0156"/><text fill="#000000" font-family="sans-serif" font-size="28" lengthAdjust="spacing" textLength="218" x="1116" y="2403.082">:RecordSampleUI</text><rect fill="#FEFECE" filter="url(#f1d5o9ng6hpg9t)" height="63.2188" style="stroke:#A80036;stroke-width:3.0;" width="346" x="1418" y="106"/><text fill="#000000" font-family="sans-serif" font-size="28" lengthAdjust="spacing" textLength="318" x="1432" y="149.0664">:RecordSampleController</text><rect fill="#FEFECE" filter="url(#f1d5o9ng6hpg9t)" height="63.2188" style="stroke:#A80036;stroke-width:3.0;" width="346" x="1418" y="2360.0156"/><text fill="#000000" font-family="sans-serif" font-size="28" lengthAdjust="spacing" textLength="318" x="1432" y="2403.082">:RecordSampleController</text><rect fill="#FEFECE" filter="url(#f1d5o9ng6hpg9t)" height="63.2188" style="stroke:#A80036;stroke-width:3.0;" width="156" x="1971" y="106"/><text fill="#000000" font-family="sans-serif" font-size="28" lengthAdjust="spacing" textLength="128" x="1985" y="149.0664">:Company</text><rect fill="#FEFECE" filter="url(#f1d5o9ng6hpg9t)" height="63.2188" style="stroke:#A80036;stroke-width:3.0;" width="156" x="1971" y="2360.0156"/><text fill="#000000" font-family="sans-serif" font-size="28" lengthAdjust="spacing" textLength="128" x="1985" y="2403.082">:Company</text><rect fill="#FEFECE" filter="url(#f1d5o9ng6hpg9t)" height="63.2188" style="stroke:#A80036;stroke-width:3.0;" width="188" x="2155" y="106"/><text fill="#000000" font-family="sans-serif" font-size="28" lengthAdjust="spacing" textLength="160" x="2169" y="149.0664">:TestMapper</text><rect fill="#FEFECE" filter="url(#f1d5o9ng6hpg9t)" height="63.2188" style="stroke:#A80036;stroke-width:3.0;" width="188" x="2155" y="2360.0156"/><text fill="#000000" font-family="sans-serif" font-size="28" lengthAdjust="spacing" textLength="160" x="2169" y="2403.082">:TestMapper</text><rect fill="#FEFECE" filter="url(#f1d5o9ng6hpg9t)" height="98.4375" style="stroke:#A80036;stroke-width:3.0;" width="168" x="2371" y="70.7813"/><text fill="#000000" font-family="sans-serif" font-size="28" lengthAdjust="spacing" textLength="76" x="2413" y="113.8477">tStore</text><text fill="#000000" font-family="sans-serif" font-size="28" lengthAdjust="spacing" textLength="132" x="2393" y="149.0664">:TestStore</text><rect fill="#FEFECE" filter="url(#f1d5o9ng6hpg9t)" height="98.4375" style="stroke:#A80036;stroke-width:3.0;" width="168" x="2371" y="2360.0156"/><text fill="#000000" font-family="sans-serif" font-size="28" lengthAdjust="spacing" textLength="76" x="2413" y="2403.082">tStore</text><text fill="#000000" font-family="sans-serif" font-size="28" lengthAdjust="spacing" textLength="132" x="2393" y="2438.3008">:TestStore</text><rect fill="#FEFECE" filter="url(#f1d5o9ng6hpg9t)" height="63.2188" style="stroke:#A80036;stroke-width:3.0;" width="218" x="2734" y="106"/><text fill="#000000" font-family="sans-serif" font-size="28" lengthAdjust="spacing" textLength="190" x="2748" y="149.0664">SampleMapper</text><rect fill="#FEFECE" filter="url(#f1d5o9ng6hpg9t)" height="63.2188" style="stroke:#A80036;stroke-width:3.0;" width="218" x="2734" y="2360.0156"/><text fill="#000000" font-family="sans-serif" font-size="28" lengthAdjust="spacing" textLength="190" x="2748" y="2403.082">SampleMapper</text><rect fill="#FEFECE" filter="url(#f1d5o9ng6hpg9t)" height="63.2188" style="stroke:#A80036;stroke-width:3.0;" width="298" x="3018" y="106"/><text fill="#000000" font-family="sans-serif" font-size="28" lengthAdjust="spacing" textLength="270" x="3032" y="149.0664">SampDto: SampleDto</text><rect fill="#FEFECE" filter="url(#f1d5o9ng6hpg9t)" height="63.2188" style="stroke:#A80036;stroke-width:3.0;" width="298" x="3018" y="2360.0156"/><text fill="#000000" font-family="sans-serif" font-size="28" lengthAdjust="spacing" textLength="270" x="3032" y="2403.082">SampDto: SampleDto</text><rect fill="#FEFECE" filter="url(#f1d5o9ng6hpg9t)" height="98.4375" style="stroke:#A80036;stroke-width:3.0;" width="234" x="3344" y="70.7813"/><text fill="#000000" font-family="sans-serif" font-size="28" lengthAdjust="spacing" textLength="64" x="3425" y="113.8477">store</text><text fill="#000000" font-family="sans-serif" font-size="28" lengthAdjust="spacing" textLength="198" x="3366" y="149.0664">:LabOrderStore</text><rect fill="#FEFECE" filter="url(#f1d5o9ng6hpg9t)" height="98.4375" style="stroke:#A80036;stroke-width:3.0;" width="234" x="3344" y="2360.0156"/><text fill="#000000" font-family="sans-serif" font-size="28" lengthAdjust="spacing" textLength="64" x="3425" y="2403.082">store</text><text fill="#000000" font-family="sans-serif" font-size="28" lengthAdjust="spacing" textLength="198" x="3366" y="2438.3008">:LabOrderStore</text><rect fill="#FEFECE" filter="url(#f1d5o9ng6hpg9t)" height="63.2188" style="stroke:#A80036;stroke-width:3.0;" width="206" x="3606" y="2360.0156"/><text fill="#000000" font-family="sans-serif" font-size="28" lengthAdjust="spacing" textLength="178" x="3620" y="2403.082">samp: Sample</text><rect fill="#FFFFFF" filter="url(#f1d5o9ng6hpg9t)" height="2126.7969" style="stroke:#A80036;stroke-width:2.0;" width="20" x="155" y="199.2188"/><rect fill="#FFFFFF" filter="url(#f1d5o9ng6hpg9t)" height="544.9219" style="stroke:#A80036;stroke-width:2.0;" width="20" x="1219" y="243.9219"/><rect fill="#FFFFFF" filter="url(#f1d5o9ng6hpg9t)" height="60.7031" style="stroke:#A80036;stroke-width:2.0;" width="20" x="1219" y="849.5469"/><rect fill="#FFFFFF" filter="url(#f1d5o9ng6hpg9t)" height="818.8438" style="stroke:#A80036;stroke-width:2.0;" width="20" x="1219" y="970.9531"/><rect fill="#FFFFFF" filter="url(#f1d5o9ng6hpg9t)" height="475.5156" style="stroke:#A80036;stroke-width:2.0;" width="20" x="1219" y="1850.5"/><rect fill="#FFFFFF" filter="url(#f1d5o9ng6hpg9t)" height="423.5156" style="stroke:#A80036;stroke-width:2.0;" width="20" x="1585" y="304.625"/><rect fill="#FFFFFF" filter="url(#f1d5o9ng6hpg9t)" height="697.4375" style="stroke:#A80036;stroke-width:2.0;" width="20" x="1585" y="1031.6563"/><rect fill="#FFFFFF" filter="url(#f1d5o9ng6hpg9t)" height="340.1094" style="stroke:#A80036;stroke-width:2.0;" width="20" x="1585" y="1911.2031"/><rect fill="#FFFFFF" filter="url(#f1d5o9ng6hpg9t)" height="60" style="stroke:#A80036;stroke-width:2.0;" width="20" x="2043" y="365.3281"/><rect fill="#FFFFFF" filter="url(#f1d5o9ng6hpg9t)" height="60" style="stroke:#A80036;stroke-width:2.0;" width="20" x="2043" y="1092.3594"/><rect fill="#FFFFFF" filter="url(#f1d5o9ng6hpg9t)" height="60.7031" style="stroke:#A80036;stroke-width:2.0;" width="20" x="2243" y="606.7344"/><rect fill="#FFFFFF" filter="url(#f1d5o9ng6hpg9t)" height="60" style="stroke:#A80036;stroke-width:2.0;" width="20" x="2449" y="486.0313"/><rect fill="#FFFFFF" filter="url(#f1d5o9ng6hpg9t)" height="362.8125" style="stroke:#A80036;stroke-width:2.0;" width="20" x="2449" y="1213.0625"/><rect fill="#FFFFFF" filter="url(#f1d5o9ng6hpg9t)" height="60" style="stroke:#A80036;stroke-width:2.0;" width="20" x="2449" y="1669.0938"/><rect fill="#FFFFFF" filter="url(#f1d5o9ng6hpg9t)" height="279.4063" style="stroke:#A80036;stroke-width:2.0;" width="20" x="2449" y="1971.9063"/><rect fill="#FFFFFF" filter="url(#f1d5o9ng6hpg9t)" height="56" style="stroke:#A80036;stroke-width:2.0;" width="20" x="2459" y="2048.6094"/><rect fill="#FFFFFF" filter="url(#f1d5o9ng6hpg9t)" height="56" style="stroke:#A80036;stroke-width:2.0;" width="20" x="2459" y="2195.3125"/><rect fill="#FFFFFF" filter="url(#f1d5o9ng6hpg9t)" height="302.1094" style="stroke:#A80036;stroke-width:2.0;" width="20" x="2837" y="1273.7656"/><rect fill="#FFFFFF" filter="url(#f1d5o9ng6hpg9t)" height="60" style="stroke:#A80036;stroke-width:2.0;" width="20" x="3161" y="1334.4688"/><rect fill="#FFFFFF" filter="url(#f1d5o9ng6hpg9t)" height="60" style="stroke:#A80036;stroke-width:2.0;" width="20" x="3455" y="1455.1719"/><polygon fill="#A80036" points="1195,235.9219,1215,243.9219,1195,251.9219,1203,243.9219" style="stroke:#A80036;stroke-width:2.0;"/><line style="stroke:#A80036;stroke-width:2.0;" x1="175" x2="1207" y1="243.9219" y2="243.9219"/><text fill="#000000" font-family="sans-serif" font-size="26" font-weight="bold" lengthAdjust="spacing" textLength="14" x="189" y="234.209">1</text><text fill="#000000" font-family="sans-serif" font-size="26" lengthAdjust="spacing" textLength="348" x="211" y="234.209">starts recording a new sample</text><polygon fill="#A80036" points="1561,296.625,1581,304.625,1561,312.625,1569,304.625" style="stroke:#A80036;stroke-width:2.0;"/><line style="stroke:#A80036;stroke-width:2.0;" x1="1239" x2="1573" y1="304.625" y2="304.625"/><text fill="#000000" font-family="sans-serif" font-size="26" font-weight="bold" lengthAdjust="spacing" textLength="14" x="1253" y="294.9121">2</text><text fill="#000000" font-family="sans-serif" font-size="26" lengthAdjust="spacing" textLength="218" x="1275" y="294.9121">testDto = getTest()</text><polygon fill="#A80036" points="2019,357.3281,2039,365.3281,2019,373.3281,2027,365.3281" style="stroke:#A80036;stroke-width:2.0;"/><line style="stroke:#A80036;stroke-width:2.0;" x1="1605" x2="2031" y1="365.3281" y2="365.3281"/><text fill="#000000" font-family="sans-serif" font-size="26" font-weight="bold" lengthAdjust="spacing" textLength="14" x="1619" y="355.6152">3</text><text fill="#000000" font-family="sans-serif" font-size="26" lengthAdjust="spacing" textLength="250" x="1641" y="355.6152">tStore=getTestStore()</text><polygon fill="#A80036" points="2425,478.0313,2445,486.0313,2425,494.0313,2433,486.0313" style="stroke:#A80036;stroke-width:2.0;"/><line style="stroke:#A80036;stroke-width:2.0;" x1="1605" x2="2437" y1="486.0313" y2="486.0313"/><text fill="#000000" font-family="sans-serif" font-size="26" font-weight="bold" lengthAdjust="spacing" textLength="14" x="1619" y="476.3184">4</text><text fill="#000000" font-family="sans-serif" font-size="26" lengthAdjust="spacing" textLength="178" x="1641" y="476.3184">test = getTest()</text><polygon fill="#A80036" points="2219,598.7344,2239,606.7344,2219,614.7344,2227,606.7344" style="stroke:#A80036;stroke-width:2.0;"/><line style="stroke:#A80036;stroke-width:2.0;" x1="1605" x2="2231" y1="606.7344" y2="606.7344"/><text fill="#000000" font-family="sans-serif" font-size="26" font-weight="bold" lengthAdjust="spacing" textLength="14" x="1619" y="597.0215">5</text><text fill="#000000" font-family="sans-serif" font-size="26" lengthAdjust="spacing" textLength="250" x="1641" y="597.0215">testDto = toDTO(test)</text><polygon fill="#A80036" points="1627,659.4375,1607,667.4375,1627,675.4375,1619,667.4375" style="stroke:#A80036;stroke-width:2.0;"/><line style="stroke:#A80036;stroke-width:2.0;stroke-dasharray:2.0,2.0;" x1="1615" x2="2251" y1="667.4375" y2="667.4375"/><text fill="#000000" font-family="sans-serif" font-size="26" font-weight="bold" lengthAdjust="spacing" textLength="14" x="1639" y="657.7246">6</text><text fill="#000000" font-family="sans-serif" font-size="26" lengthAdjust="spacing" textLength="84" x="1661" y="657.7246">testDto</text><polygon fill="#A80036" points="1261,720.1406,1241,728.1406,1261,736.1406,1253,728.1406" style="stroke:#A80036;stroke-width:2.0;"/><line style="stroke:#A80036;stroke-width:2.0;stroke-dasharray:2.0,2.0;" x1="1249" x2="1593" y1="728.1406" y2="728.1406"/><text fill="#000000" font-family="sans-serif" font-size="26" font-weight="bold" lengthAdjust="spacing" textLength="14" x="1273" y="718.4277">7</text><text fill="#000000" font-family="sans-serif" font-size="26" lengthAdjust="spacing" textLength="84" x="1295" y="718.4277">testDto</text><polygon fill="#A80036" points="197,780.8438,177,788.8438,197,796.8438,189,788.8438" style="stroke:#A80036;stroke-width:2.0;"/><line style="stroke:#A80036;stroke-width:2.0;stroke-dasharray:2.0,2.0;" x1="185" x2="1227" y1="788.8438" y2="788.8438"/><text fill="#000000" font-family="sans-serif" font-size="26" font-weight="bold" lengthAdjust="spacing" textLength="14" x="209" y="779.1309">8</text><text fill="#000000" font-family="sans-serif" font-size="26" lengthAdjust="spacing" textLength="974" x="231" y="779.1309">shows the list of tests registered to be performed and requests to select one of them</text><polygon fill="#A80036" points="1195,841.5469,1215,849.5469,1195,857.5469,1203,849.5469" style="stroke:#A80036;stroke-width:2.0;"/><line style="stroke:#A80036;stroke-width:2.0;" x1="175" x2="1207" y1="849.5469" y2="849.5469"/><text fill="#000000" font-family="sans-serif" font-size="26" font-weight="bold" lengthAdjust="spacing" textLength="14" x="189" y="839.834">9</text><text fill="#000000" font-family="sans-serif" font-size="26" lengthAdjust="spacing" textLength="454" x="211" y="839.834">select a test registered to be performed</text><polygon fill="#A80036" points="197,902.25,177,910.25,197,918.25,189,910.25" style="stroke:#A80036;stroke-width:2.0;"/><line style="stroke:#A80036;stroke-width:2.0;stroke-dasharray:2.0,2.0;" x1="185" x2="1227" y1="910.25" y2="910.25"/><text fill="#000000" font-family="sans-serif" font-size="26" font-weight="bold" lengthAdjust="spacing" textLength="28" x="209" y="900.5371">10</text><text fill="#000000" font-family="sans-serif" font-size="26" lengthAdjust="spacing" textLength="490" x="245" y="900.5371">request how many samples want to record</text><polygon fill="#A80036" points="1195,962.9531,1215,970.9531,1195,978.9531,1203,970.9531" style="stroke:#A80036;stroke-width:2.0;"/><line style="stroke:#A80036;stroke-width:2.0;" x1="175" x2="1207" y1="970.9531" y2="970.9531"/><text fill="#000000" font-family="sans-serif" font-size="26" font-weight="bold" lengthAdjust="spacing" textLength="28" x="189" y="961.2402">11</text><text fill="#000000" font-family="sans-serif" font-size="26" lengthAdjust="spacing" textLength="274" x="225" y="961.2402">type the requested data</text><polygon fill="#A80036" points="1561,1023.6563,1581,1031.6563,1561,1039.6563,1569,1031.6563" style="stroke:#A80036;stroke-width:2.0;"/><line style="stroke:#A80036;stroke-width:2.0;" x1="1239" x2="1573" y1="1031.6563" y2="1031.6563"/><text fill="#000000" font-family="sans-serif" font-size="26" font-weight="bold" lengthAdjust="spacing" textLength="28" x="1253" y="1021.9434">12</text><text fill="#000000" font-family="sans-serif" font-size="26" lengthAdjust="spacing" textLength="272" x="1289" y="1021.9434">RecordNewSample(dto)</text><polygon fill="#A80036" points="2019,1084.3594,2039,1092.3594,2019,1100.3594,2027,1092.3594" style="stroke:#A80036;stroke-width:2.0;"/><line style="stroke:#A80036;stroke-width:2.0;" x1="1605" x2="2031" y1="1092.3594" y2="1092.3594"/><text fill="#000000" font-family="sans-serif" font-size="26" font-weight="bold" lengthAdjust="spacing" textLength="28" x="1619" y="1082.6465">13</text><text fill="#000000" font-family="sans-serif" font-size="26" lengthAdjust="spacing" textLength="364" x="1655" y="1082.6465">sampleStore=getSampleStore()</text><polygon fill="#A80036" points="2425,1205.0625,2445,1213.0625,2425,1221.0625,2433,1213.0625" style="stroke:#A80036;stroke-width:2.0;"/><line style="stroke:#A80036;stroke-width:2.0;" x1="1605" x2="2437" y1="1213.0625" y2="1213.0625"/><text fill="#000000" font-family="sans-serif" font-size="26" font-weight="bold" lengthAdjust="spacing" textLength="28" x="1619" y="1203.3496">14</text><text fill="#000000" font-family="sans-serif" font-size="26" lengthAdjust="spacing" textLength="352" x="1655" y="1203.3496">samp=RecordNewSample(dto)</text><polygon fill="#A80036" points="2813,1265.7656,2833,1273.7656,2813,1281.7656,2821,1273.7656" style="stroke:#A80036;stroke-width:2.0;"/><line style="stroke:#A80036;stroke-width:2.0;" x1="2469" x2="2825" y1="1273.7656" y2="1273.7656"/><text fill="#000000" font-family="sans-serif" font-size="26" font-weight="bold" lengthAdjust="spacing" textLength="28" x="2483" y="1264.0527">15</text><text fill="#000000" font-family="sans-serif" font-size="26" lengthAdjust="spacing" textLength="144" x="2519" y="1264.0527">toModel(dto)</text><polygon fill="#A80036" points="3137,1326.4688,3157,1334.4688,3137,1342.4688,3145,1334.4688" style="stroke:#A80036;stroke-width:2.0;"/><line style="stroke:#A80036;stroke-width:2.0;" x1="2857" x2="3149" y1="1334.4688" y2="1334.4688"/><text fill="#000000" font-family="sans-serif" font-size="26" font-weight="bold" lengthAdjust="spacing" textLength="28" x="2871" y="1324.7559">16</text><text fill="#000000" font-family="sans-serif" font-size="26" lengthAdjust="spacing" textLength="230" x="2907" y="1324.7559">orderid=getOrderId()</text><polygon fill="#A80036" points="3431,1447.1719,3451,1455.1719,3431,1463.1719,3439,1455.1719" style="stroke:#A80036;stroke-width:2.0;"/><line style="stroke:#A80036;stroke-width:2.0;" x1="2857" x2="3443" y1="1455.1719" y2="1455.1719"/><text fill="#000000" font-family="sans-serif" font-size="26" font-weight="bold" lengthAdjust="spacing" textLength="28" x="2871" y="1445.459">17</text><text fill="#000000" font-family="sans-serif" font-size="26" lengthAdjust="spacing" textLength="434" x="2907" y="1445.459">testype=getTestTypeByOrderId(order)</text><polygon fill="#A80036" points="3582,1567.875,3602,1575.875,3582,1583.875,3590,1575.875" style="stroke:#A80036;stroke-width:2.0;"/><line style="stroke:#A80036;stroke-width:2.0;" x1="2847" x2="3594" y1="1575.875" y2="1575.875"/><text fill="#000000" font-family="sans-serif" font-size="26" font-weight="bold" lengthAdjust="spacing" textLength="28" x="2861" y="1566.1621">18</text><text fill="#000000" font-family="sans-serif" font-size="26" lengthAdjust="spacing" textLength="174" x="2897" y="1566.1621">create(testype)</text><rect fill="#FEFECE" filter="url(#f1d5o9ng6hpg9t)" height="63.2188" style="stroke:#A80036;stroke-width:3.0;" width="206" x="3606" y="1531.1719"/><text fill="#000000" font-family="sans-serif" font-size="28" lengthAdjust="spacing" textLength="178" x="3620" y="1574.2383">samp: Sample</text><polygon fill="#A80036" points="2425,1661.0938,2445,1669.0938,2425,1677.0938,2433,1669.0938" style="stroke:#A80036;stroke-width:2.0;"/><line style="stroke:#A80036;stroke-width:2.0;" x1="1605" x2="2437" y1="1669.0938" y2="1669.0938"/><text fill="#000000" font-family="sans-serif" font-size="26" font-weight="bold" lengthAdjust="spacing" textLength="28" x="1619" y="1659.3809">19</text><text fill="#000000" font-family="sans-serif" font-size="26" lengthAdjust="spacing" textLength="304" x="1655" y="1659.3809">validateNewSample(samp)</text><polygon fill="#A80036" points="197,1781.7969,177,1789.7969,197,1797.7969,189,1789.7969" style="stroke:#A80036;stroke-width:2.0;"/><line style="stroke:#A80036;stroke-width:2.0;stroke-dasharray:2.0,2.0;" x1="185" x2="1227" y1="1789.7969" y2="1789.7969"/><text fill="#000000" font-family="sans-serif" font-size="26" font-weight="bold" lengthAdjust="spacing" textLength="28" x="209" y="1780.084">20</text><text fill="#000000" font-family="sans-serif" font-size="26" lengthAdjust="spacing" textLength="504" x="245" y="1780.084">shows the data and requests a confirmation</text><polygon fill="#A80036" points="1195,1842.5,1215,1850.5,1195,1858.5,1203,1850.5" style="stroke:#A80036;stroke-width:2.0;"/><line style="stroke:#A80036;stroke-width:2.0;" x1="175" x2="1207" y1="1850.5" y2="1850.5"/><text fill="#000000" font-family="sans-serif" font-size="26" font-weight="bold" lengthAdjust="spacing" textLength="28" x="189" y="1840.7871">21</text><text fill="#000000" font-family="sans-serif" font-size="26" lengthAdjust="spacing" textLength="200" x="225" y="1840.7871">confirms the data</text><polygon fill="#A80036" points="1561,1903.2031,1581,1911.2031,1561,1919.2031,1569,1911.2031" style="stroke:#A80036;stroke-width:2.0;"/><line style="stroke:#A80036;stroke-width:2.0;" x1="1239" x2="1573" y1="1911.2031" y2="1911.2031"/><text fill="#000000" font-family="sans-serif" font-size="26" font-weight="bold" lengthAdjust="spacing" textLength="28" x="1253" y="1901.4902">22</text><text fill="#000000" font-family="sans-serif" font-size="26" lengthAdjust="spacing" textLength="206" x="1289" y="1901.4902">saveNewSample()</text><polygon fill="#A80036" points="2425,1963.9063,2445,1971.9063,2425,1979.9063,2433,1971.9063" style="stroke:#A80036;stroke-width:2.0;"/><line style="stroke:#A80036;stroke-width:2.0;" x1="1605" x2="2437" y1="1971.9063" y2="1971.9063"/><text fill="#000000" font-family="sans-serif" font-size="26" font-weight="bold" lengthAdjust="spacing" textLength="28" x="1619" y="1962.1934">23</text><text fill="#000000" font-family="sans-serif" font-size="26" lengthAdjust="spacing" textLength="270" x="1655" y="1962.1934">saveNewSample(samp)</text><line style="stroke:#A80036;stroke-width:2.0;" x1="2479" x2="2563" y1="2032.6094" y2="2032.6094"/><line style="stroke:#A80036;stroke-width:2.0;" x1="2563" x2="2563" y1="2032.6094" y2="2058.6094"/><line style="stroke:#A80036;stroke-width:2.0;" x1="2481" x2="2563" y1="2058.6094" y2="2058.6094"/><polygon fill="#A80036" points="2501,2050.6094,2481,2058.6094,2501,2066.6094,2493,2058.6094" style="stroke:#A80036;stroke-width:2.0;"/><text fill="#000000" font-family="sans-serif" font-size="26" font-weight="bold" lengthAdjust="spacing" textLength="28" x="2493" y="2022.8965">24</text><text fill="#000000" font-family="sans-serif" font-size="26" lengthAdjust="spacing" textLength="304" x="2529" y="2022.8965">validateNewSample(samp)</text><line style="stroke:#A80036;stroke-width:2.0;" x1="2479" x2="2563" y1="2179.3125" y2="2179.3125"/><line style="stroke:#A80036;stroke-width:2.0;" x1="2563" x2="2563" y1="2179.3125" y2="2205.3125"/><line style="stroke:#A80036;stroke-width:2.0;" x1="2481" x2="2563" y1="2205.3125" y2="2205.3125"/><polygon fill="#A80036" points="2501,2197.3125,2481,2205.3125,2501,2213.3125,2493,2205.3125" style="stroke:#A80036;stroke-width:2.0;"/><text fill="#000000" font-family="sans-serif" font-size="26" font-weight="bold" lengthAdjust="spacing" textLength="28" x="2493" y="2169.5996">25</text><text fill="#000000" font-family="sans-serif" font-size="26" lengthAdjust="spacing" textLength="210" x="2529" y="2169.5996">addSample(samp)</text><polygon fill="#A80036" points="187,2318.0156,167,2326.0156,187,2334.0156,179,2326.0156" style="stroke:#A80036;stroke-width:2.0;"/><line style="stroke:#A80036;stroke-width:2.0;stroke-dasharray:2.0,2.0;" x1="175" x2="1227" y1="2326.0156" y2="2326.0156"/><text fill="#000000" font-family="sans-serif" font-size="26" font-weight="bold" lengthAdjust="spacing" textLength="28" x="199" y="2316.3027">26</text><text fill="#000000" font-family="sans-serif" font-size="26" lengthAdjust="spacing" textLength="304" x="235" y="2316.3027">informs operation success</text><!--MD5=[ecccc1f4cd755ad8cc010b518b64ff8e]
@startuml
actor "Medical Lab Technician" as Adm
participant ":RecordSampleUI" as Interface
participant ":RecordSampleController" as Controller
participant ":Company" as Company
participant ":TestMapper" as TM
participant "tStore \n :TestStore" as SS
participant "SampleMapper" as SM
participant "SampDto: SampleDto" as SD
participant "store \n :LabOrderStore" as TS


 
 
autonumber
activate Adm
Adm -> Interface: starts recording a new sample
activate Interface
Interface -> Controller: testDto = getTest()
activate Controller
Controller -> Company : tStore=getTestStore()
activate Company
deactivate Company
Controller -> SS: test = getTest()
activate SS
deactivate SS
Controller -> TM: testDto = toDTO(test)
activate TM

TM- ->Controller : testDto
deactivate TM
Controller- ->Interface : testDto
deactivate Controller
Interface - -> Adm: shows the list of tests registered to be performed and requests to select one of them
deactivate Interface



Adm -> Interface: select a test registered to be performed
activate Interface
Interface- -> Adm: request how many samples want to record
deactivate Interface

Adm -> Interface : type the requested data


activate Interface

Interface->Controller: RecordNewSample(dto)
activate Controller
Controller -> Company : sampleStore=getSampleStore()
activate Company
Deactivate Company
Controller->SS: samp=RecordNewSample(dto)
activate SS


SS->SM: toModel(dto)
activate SM
SM->SD: orderid=getOrderId()
activate SD
deactivate SD
SM->TS: testype=getTestTypeByOrderId(order)
activate TS
deactivate TS




create "samp: Sample" as samp
SM->samp:  create(testype)



deactivate SM
deactivate SS

Controller->SS:validateNewSample(samp)
Activate SS
deactivate SS

deactivate Controller


Interface- ->Adm : shows the data and requests a confirmation

deactivate Interface

Adm -> Interface: confirms the data
activate Interface
Interface->Controller: saveNewSample()
activate Controller
Controller->SS:saveNewSample(samp)
activate SS
SS->SS:validateNewSample(samp)
activate SS
deactivate SS
SS->SS:addSample(samp)
activate SS
deactivate SS

deactivate SS
deactivate Controller
Interface- -> Adm: informs operation success

deactivate Interface
deactivate Adm
@enduml

PlantUML version 1.2021.5(Sun Apr 25 12:20:28 BST 2021)
(GPL source distribution)
Java Runtime: OpenJDK Runtime Environment
JVM: Dynamic Code Evolution 64-Bit Server VM
Default Encoding: Cp1252
Language: pt
Country: PT
--></g></svg>