<?xml version="1.0" encoding="UTF-8" standalone="no"?><svg xmlns="http://www.w3.org/2000/svg" xmlns:xlink="http://www.w3.org/1999/xlink" contentScriptType="application/ecmascript" contentStyleType="text/css" height="1409px" preserveAspectRatio="none" style="width:2239px;height:1409px;background:#FFFFFF;" version="1.1" viewBox="0 0 2239 1409" width="2239px" zoomAndPan="magnify"><defs><filter height="300%" id="fenn3c4b56e0f" width="300%" x="-1" y="-1"><feGaussianBlur result="blurOut" stdDeviation="2.0"/><feColorMatrix in="blurOut" result="blurOut2" type="matrix" values="0 0 0 0 0 0 0 0 0 0 0 0 0 0 0 0 0 0 .4 0"/><feOffset dx="4.0" dy="4.0" in="blurOut2" result="blurOut3"/><feBlend in="SourceGraphic" in2="blurOut3" mode="normal"/></filter></defs><g><rect fill="#FFFFFF" filter="url(#fenn3c4b56e0f)" height="1209.0156" style="stroke:#A80036;stroke-width:1.0;" width="10" x="85.5" y="98.2969"/><rect fill="#FFFFFF" filter="url(#fenn3c4b56e0f)" height="263.9297" style="stroke:#A80036;stroke-width:1.0;" width="10" x="681.5" y="119.4297"/><rect fill="#FFFFFF" filter="url(#fenn3c4b56e0f)" height="29.1328" style="stroke:#A80036;stroke-width:1.0;" width="10" x="681.5" y="412.4922"/><rect fill="#FFFFFF" filter="url(#fenn3c4b56e0f)" height="575.7578" style="stroke:#A80036;stroke-width:1.0;" width="10" x="681.5" y="470.7578"/><rect fill="#FFFFFF" filter="url(#fenn3c4b56e0f)" height="231.6641" style="stroke:#A80036;stroke-width:1.0;" width="10" x="681.5" y="1075.6484"/><rect fill="#FFFFFF" filter="url(#fenn3c4b56e0f)" height="205.6641" style="stroke:#A80036;stroke-width:1.0;" width="10" x="884.5" y="148.5625"/><rect fill="#FFFFFF" filter="url(#fenn3c4b56e0f)" height="517.4922" style="stroke:#A80036;stroke-width:1.0;" width="10" x="884.5" y="499.8906"/><rect fill="#FFFFFF" filter="url(#fenn3c4b56e0f)" height="166.3984" style="stroke:#A80036;stroke-width:1.0;" width="10" x="884.5" y="1104.7813"/><rect fill="#FFFFFF" filter="url(#fenn3c4b56e0f)" height="30" style="stroke:#A80036;stroke-width:1.0;" width="10" x="1138.5" y="177.6953"/><rect fill="#FFFFFF" filter="url(#fenn3c4b56e0f)" height="30" style="stroke:#A80036;stroke-width:1.0;" width="10" x="1138.5" y="529.0234"/><rect fill="#FFFFFF" filter="url(#fenn3c4b56e0f)" height="29.1328" style="stroke:#A80036;stroke-width:1.0;" width="10" x="1266.5" y="295.9609"/><rect fill="#FFFFFF" filter="url(#fenn3c4b56e0f)" height="353.9297" style="stroke:#A80036;stroke-width:1.0;" width="10" x="1409.5" y="588.1563"/><rect fill="#FFFFFF" filter="url(#fenn3c4b56e0f)" height="30" style="stroke:#A80036;stroke-width:1.0;" width="10" x="1409.5" y="987.3828"/><rect fill="#FFFFFF" filter="url(#fenn3c4b56e0f)" height="137.2656" style="stroke:#A80036;stroke-width:1.0;" width="10" x="1409.5" y="1133.9141"/><rect fill="#FFFFFF" filter="url(#fenn3c4b56e0f)" height="28" style="stroke:#A80036;stroke-width:1.0;" width="10" x="1414.5" y="1171.0469"/><rect fill="#FFFFFF" filter="url(#fenn3c4b56e0f)" height="28" style="stroke:#A80036;stroke-width:1.0;" width="10" x="1414.5" y="1243.1797"/><rect fill="#FFFFFF" filter="url(#fenn3c4b56e0f)" height="324.7969" style="stroke:#A80036;stroke-width:1.0;" width="10" x="1628.5" y="617.2891"/><rect fill="#FFFFFF" filter="url(#fenn3c4b56e0f)" height="30" style="stroke:#A80036;stroke-width:1.0;" width="10" x="1862.5" y="646.4219"/><rect fill="#FFFFFF" filter="url(#fenn3c4b56e0f)" height="30" style="stroke:#A80036;stroke-width:1.0;" width="10" x="1862.5" y="705.5547"/><rect fill="#FFFFFF" filter="url(#fenn3c4b56e0f)" height="30" style="stroke:#A80036;stroke-width:1.0;" width="10" x="1862.5" y="764.6875"/><rect fill="#FFFFFF" filter="url(#fenn3c4b56e0f)" height="30" style="stroke:#A80036;stroke-width:1.0;" width="10" x="1862.5" y="823.8203"/><rect fill="#FFFFFF" filter="url(#fenn3c4b56e0f)" height="30" style="stroke:#A80036;stroke-width:1.0;" width="10" x="2027.5" y="236.8281"/><rect fill="#FFFFFF" filter="url(#fenn3c4b56e0f)" height="30" style="stroke:#A80036;stroke-width:1.0;" width="10" x="2027.5" y="882.9531"/><line style="stroke:#A80036;stroke-width:1.0;stroke-dasharray:5.0,5.0;" x1="90" x2="90" y1="88.2969" y2="1325.3125"/><line style="stroke:#A80036;stroke-width:1.0;stroke-dasharray:5.0,5.0;" x1="686" x2="686" y1="88.2969" y2="1325.3125"/><line style="stroke:#A80036;stroke-width:1.0;stroke-dasharray:5.0,5.0;" x1="889" x2="889" y1="88.2969" y2="1325.3125"/><line style="stroke:#A80036;stroke-width:1.0;stroke-dasharray:5.0,5.0;" x1="1143" x2="1143" y1="88.2969" y2="1325.3125"/><line style="stroke:#A80036;stroke-width:1.0;stroke-dasharray:5.0,5.0;" x1="1271" x2="1271" y1="88.2969" y2="1325.3125"/><line style="stroke:#A80036;stroke-width:1.0;stroke-dasharray:5.0,5.0;" x1="1414" x2="1414" y1="88.2969" y2="1325.3125"/><line style="stroke:#A80036;stroke-width:1.0;stroke-dasharray:5.0,5.0;" x1="1633" x2="1633" y1="88.2969" y2="1325.3125"/><line style="stroke:#A80036;stroke-width:1.0;stroke-dasharray:5.0,5.0;" x1="1867.5" x2="1867.5" y1="88.2969" y2="1325.3125"/><line style="stroke:#A80036;stroke-width:1.0;stroke-dasharray:5.0,5.0;" x1="2032.5" x2="2032.5" y1="88.2969" y2="1325.3125"/><line style="stroke:#A80036;stroke-width:1.0;stroke-dasharray:5.0,5.0;" x1="2169.5" x2="2169.5" y1="953.6016" y2="1325.3125"/><text fill="#000000" font-family="sans-serif" font-size="14" lengthAdjust="spacing" textLength="165" x="5" y="84.9951">Medical Lab Technician</text><ellipse cx="90.5" cy="15" fill="#FEFECE" filter="url(#fenn3c4b56e0f)" rx="8" ry="8" style="stroke:#A80036;stroke-width:2.0;"/><path d="M90.5,23 L90.5,50 M77.5,31 L103.5,31 M90.5,50 L77.5,65 M90.5,50 L103.5,65 " fill="none" filter="url(#fenn3c4b56e0f)" style="stroke:#A80036;stroke-width:2.0;"/><text fill="#000000" font-family="sans-serif" font-size="14" lengthAdjust="spacing" textLength="165" x="5" y="1337.3076">Medical Lab Technician</text><ellipse cx="90.5" cy="1350.6094" fill="#FEFECE" filter="url(#fenn3c4b56e0f)" rx="8" ry="8" style="stroke:#A80036;stroke-width:2.0;"/><path d="M90.5,1358.6094 L90.5,1385.6094 M77.5,1366.6094 L103.5,1366.6094 M90.5,1385.6094 L77.5,1400.6094 M90.5,1385.6094 L103.5,1400.6094 " fill="none" filter="url(#fenn3c4b56e0f)" style="stroke:#A80036;stroke-width:2.0;"/><rect fill="#FEFECE" filter="url(#fenn3c4b56e0f)" height="30.2969" style="stroke:#A80036;stroke-width:1.5;" width="137" x="616" y="53"/><text fill="#000000" font-family="sans-serif" font-size="14" lengthAdjust="spacing" textLength="123" x="623" y="72.9951">:RecordSampleUI</text><rect fill="#FEFECE" filter="url(#fenn3c4b56e0f)" height="30.2969" style="stroke:#A80036;stroke-width:1.5;" width="137" x="616" y="1324.3125"/><text fill="#000000" font-family="sans-serif" font-size="14" lengthAdjust="spacing" textLength="123" x="623" y="1344.3076">:RecordSampleUI</text><rect fill="#FEFECE" filter="url(#fenn3c4b56e0f)" height="30.2969" style="stroke:#A80036;stroke-width:1.5;" width="197" x="789" y="53"/><text fill="#000000" font-family="sans-serif" font-size="14" lengthAdjust="spacing" textLength="183" x="796" y="72.9951">:RecordSampleController</text><rect fill="#FEFECE" filter="url(#fenn3c4b56e0f)" height="30.2969" style="stroke:#A80036;stroke-width:1.5;" width="197" x="789" y="1324.3125"/><text fill="#000000" font-family="sans-serif" font-size="14" lengthAdjust="spacing" textLength="183" x="796" y="1344.3076">:RecordSampleController</text><rect fill="#FEFECE" filter="url(#fenn3c4b56e0f)" height="30.2969" style="stroke:#A80036;stroke-width:1.5;" width="87" x="1098" y="53"/><text fill="#000000" font-family="sans-serif" font-size="14" lengthAdjust="spacing" textLength="73" x="1105" y="72.9951">:Company</text><rect fill="#FEFECE" filter="url(#fenn3c4b56e0f)" height="30.2969" style="stroke:#A80036;stroke-width:1.5;" width="87" x="1098" y="1324.3125"/><text fill="#000000" font-family="sans-serif" font-size="14" lengthAdjust="spacing" textLength="73" x="1105" y="1344.3076">:Company</text><rect fill="#FEFECE" filter="url(#fenn3c4b56e0f)" height="30.2969" style="stroke:#A80036;stroke-width:1.5;" width="141" x="1199" y="53"/><text fill="#000000" font-family="sans-serif" font-size="14" lengthAdjust="spacing" textLength="127" x="1206" y="72.9951">:LabOrderMapper</text><rect fill="#FEFECE" filter="url(#fenn3c4b56e0f)" height="30.2969" style="stroke:#A80036;stroke-width:1.5;" width="141" x="1199" y="1324.3125"/><text fill="#000000" font-family="sans-serif" font-size="14" lengthAdjust="spacing" textLength="127" x="1206" y="1344.3076">:LabOrderMapper</text><rect fill="#FEFECE" filter="url(#fenn3c4b56e0f)" height="46.5938" style="stroke:#A80036;stroke-width:1.5;" width="117" x="1354" y="36.7031"/><text fill="#000000" font-family="sans-serif" font-size="14" lengthAdjust="spacing" textLength="38" x="1391.5" y="56.6982">store</text><text fill="#000000" font-family="sans-serif" font-size="14" lengthAdjust="spacing" textLength="99" x="1365" y="72.9951">:SampleStore</text><rect fill="#FEFECE" filter="url(#fenn3c4b56e0f)" height="46.5938" style="stroke:#A80036;stroke-width:1.5;" width="117" x="1354" y="1324.3125"/><text fill="#000000" font-family="sans-serif" font-size="14" lengthAdjust="spacing" textLength="38" x="1391.5" y="1344.3076">store</text><text fill="#000000" font-family="sans-serif" font-size="14" lengthAdjust="spacing" textLength="99" x="1365" y="1360.6045">:SampleStore</text><rect fill="#FEFECE" filter="url(#fenn3c4b56e0f)" height="30.2969" style="stroke:#A80036;stroke-width:1.5;" width="123" x="1570" y="53"/><text fill="#000000" font-family="sans-serif" font-size="14" lengthAdjust="spacing" textLength="109" x="1577" y="72.9951">SampleMapper</text><rect fill="#FEFECE" filter="url(#fenn3c4b56e0f)" height="30.2969" style="stroke:#A80036;stroke-width:1.5;" width="123" x="1570" y="1324.3125"/><text fill="#000000" font-family="sans-serif" font-size="14" lengthAdjust="spacing" textLength="109" x="1577" y="1344.3076">SampleMapper</text><rect fill="#FEFECE" filter="url(#fenn3c4b56e0f)" height="30.2969" style="stroke:#A80036;stroke-width:1.5;" width="172" x="1779.5" y="53"/><text fill="#000000" font-family="sans-serif" font-size="14" lengthAdjust="spacing" textLength="158" x="1786.5" y="72.9951">SampDto: SampleDto</text><rect fill="#FEFECE" filter="url(#fenn3c4b56e0f)" height="30.2969" style="stroke:#A80036;stroke-width:1.5;" width="172" x="1779.5" y="1324.3125"/><text fill="#000000" font-family="sans-serif" font-size="14" lengthAdjust="spacing" textLength="158" x="1786.5" y="1344.3076">SampDto: SampleDto</text><rect fill="#FEFECE" filter="url(#fenn3c4b56e0f)" height="46.5938" style="stroke:#A80036;stroke-width:1.5;" width="130" x="1965.5" y="36.7031"/><text fill="#000000" font-family="sans-serif" font-size="14" lengthAdjust="spacing" textLength="38" x="2009.5" y="56.6982">store</text><text fill="#000000" font-family="sans-serif" font-size="14" lengthAdjust="spacing" textLength="112" x="1976.5" y="72.9951">:LabOrderStore</text><rect fill="#FEFECE" filter="url(#fenn3c4b56e0f)" height="46.5938" style="stroke:#A80036;stroke-width:1.5;" width="130" x="1965.5" y="1324.3125"/><text fill="#000000" font-family="sans-serif" font-size="14" lengthAdjust="spacing" textLength="38" x="2009.5" y="1344.3076">store</text><text fill="#000000" font-family="sans-serif" font-size="14" lengthAdjust="spacing" textLength="112" x="1976.5" y="1360.6045">:LabOrderStore</text><rect fill="#FEFECE" filter="url(#fenn3c4b56e0f)" height="30.2969" style="stroke:#A80036;stroke-width:1.5;" width="116" x="2109.5" y="1324.3125"/><text fill="#000000" font-family="sans-serif" font-size="14" lengthAdjust="spacing" textLength="102" x="2116.5" y="1344.3076">samp: Sample</text><rect fill="#FFFFFF" filter="url(#fenn3c4b56e0f)" height="1209.0156" style="stroke:#A80036;stroke-width:1.0;" width="10" x="85.5" y="98.2969"/><rect fill="#FFFFFF" filter="url(#fenn3c4b56e0f)" height="263.9297" style="stroke:#A80036;stroke-width:1.0;" width="10" x="681.5" y="119.4297"/><rect fill="#FFFFFF" filter="url(#fenn3c4b56e0f)" height="29.1328" style="stroke:#A80036;stroke-width:1.0;" width="10" x="681.5" y="412.4922"/><rect fill="#FFFFFF" filter="url(#fenn3c4b56e0f)" height="575.7578" style="stroke:#A80036;stroke-width:1.0;" width="10" x="681.5" y="470.7578"/><rect fill="#FFFFFF" filter="url(#fenn3c4b56e0f)" height="231.6641" style="stroke:#A80036;stroke-width:1.0;" width="10" x="681.5" y="1075.6484"/><rect fill="#FFFFFF" filter="url(#fenn3c4b56e0f)" height="205.6641" style="stroke:#A80036;stroke-width:1.0;" width="10" x="884.5" y="148.5625"/><rect fill="#FFFFFF" filter="url(#fenn3c4b56e0f)" height="517.4922" style="stroke:#A80036;stroke-width:1.0;" width="10" x="884.5" y="499.8906"/><rect fill="#FFFFFF" filter="url(#fenn3c4b56e0f)" height="166.3984" style="stroke:#A80036;stroke-width:1.0;" width="10" x="884.5" y="1104.7813"/><rect fill="#FFFFFF" filter="url(#fenn3c4b56e0f)" height="30" style="stroke:#A80036;stroke-width:1.0;" width="10" x="1138.5" y="177.6953"/><rect fill="#FFFFFF" filter="url(#fenn3c4b56e0f)" height="30" style="stroke:#A80036;stroke-width:1.0;" width="10" x="1138.5" y="529.0234"/><rect fill="#FFFFFF" filter="url(#fenn3c4b56e0f)" height="29.1328" style="stroke:#A80036;stroke-width:1.0;" width="10" x="1266.5" y="295.9609"/><rect fill="#FFFFFF" filter="url(#fenn3c4b56e0f)" height="353.9297" style="stroke:#A80036;stroke-width:1.0;" width="10" x="1409.5" y="588.1563"/><rect fill="#FFFFFF" filter="url(#fenn3c4b56e0f)" height="30" style="stroke:#A80036;stroke-width:1.0;" width="10" x="1409.5" y="987.3828"/><rect fill="#FFFFFF" filter="url(#fenn3c4b56e0f)" height="137.2656" style="stroke:#A80036;stroke-width:1.0;" width="10" x="1409.5" y="1133.9141"/><rect fill="#FFFFFF" filter="url(#fenn3c4b56e0f)" height="28" style="stroke:#A80036;stroke-width:1.0;" width="10" x="1414.5" y="1171.0469"/><rect fill="#FFFFFF" filter="url(#fenn3c4b56e0f)" height="28" style="stroke:#A80036;stroke-width:1.0;" width="10" x="1414.5" y="1243.1797"/><rect fill="#FFFFFF" filter="url(#fenn3c4b56e0f)" height="324.7969" style="stroke:#A80036;stroke-width:1.0;" width="10" x="1628.5" y="617.2891"/><rect fill="#FFFFFF" filter="url(#fenn3c4b56e0f)" height="30" style="stroke:#A80036;stroke-width:1.0;" width="10" x="1862.5" y="646.4219"/><rect fill="#FFFFFF" filter="url(#fenn3c4b56e0f)" height="30" style="stroke:#A80036;stroke-width:1.0;" width="10" x="1862.5" y="705.5547"/><rect fill="#FFFFFF" filter="url(#fenn3c4b56e0f)" height="30" style="stroke:#A80036;stroke-width:1.0;" width="10" x="1862.5" y="764.6875"/><rect fill="#FFFFFF" filter="url(#fenn3c4b56e0f)" height="30" style="stroke:#A80036;stroke-width:1.0;" width="10" x="1862.5" y="823.8203"/><rect fill="#FFFFFF" filter="url(#fenn3c4b56e0f)" height="30" style="stroke:#A80036;stroke-width:1.0;" width="10" x="2027.5" y="236.8281"/><rect fill="#FFFFFF" filter="url(#fenn3c4b56e0f)" height="30" style="stroke:#A80036;stroke-width:1.0;" width="10" x="2027.5" y="882.9531"/><polygon fill="#A80036" points="669.5,115.4297,679.5,119.4297,669.5,123.4297,673.5,119.4297" style="stroke:#A80036;stroke-width:1.0;"/><line style="stroke:#A80036;stroke-width:1.0;" x1="95.5" x2="675.5" y1="119.4297" y2="119.4297"/><text fill="#000000" font-family="sans-serif" font-size="13" font-weight="bold" lengthAdjust="spacing" textLength="9" x="102.5" y="114.3638">1</text><text fill="#000000" font-family="sans-serif" font-size="13" lengthAdjust="spacing" textLength="195" x="115.5" y="114.3638">starts recording a new sample</text><polygon fill="#A80036" points="872.5,144.5625,882.5,148.5625,872.5,152.5625,876.5,148.5625" style="stroke:#A80036;stroke-width:1.0;"/><line style="stroke:#A80036;stroke-width:1.0;" x1="691.5" x2="878.5" y1="148.5625" y2="148.5625"/><text fill="#000000" font-family="sans-serif" font-size="13" font-weight="bold" lengthAdjust="spacing" textLength="9" x="698.5" y="143.4966">2</text><text fill="#000000" font-family="sans-serif" font-size="13" lengthAdjust="spacing" textLength="134" x="711.5" y="143.4966">orderDto = getTest()</text><polygon fill="#A80036" points="1126.5,173.6953,1136.5,177.6953,1126.5,181.6953,1130.5,177.6953" style="stroke:#A80036;stroke-width:1.0;"/><line style="stroke:#A80036;stroke-width:1.0;" x1="894.5" x2="1132.5" y1="177.6953" y2="177.6953"/><text fill="#000000" font-family="sans-serif" font-size="13" font-weight="bold" lengthAdjust="spacing" textLength="8" x="901.5" y="172.6294">3</text><text fill="#000000" font-family="sans-serif" font-size="13" lengthAdjust="spacing" textLength="202" x="913.5" y="172.6294">orderStore=getLabOrderStore()</text><polygon fill="#A80036" points="2015.5,232.8281,2025.5,236.8281,2015.5,240.8281,2019.5,236.8281" style="stroke:#A80036;stroke-width:1.0;"/><line style="stroke:#A80036;stroke-width:1.0;" x1="894.5" x2="2021.5" y1="236.8281" y2="236.8281"/><text fill="#000000" font-family="sans-serif" font-size="13" font-weight="bold" lengthAdjust="spacing" textLength="9" x="901.5" y="231.7622">4</text><text fill="#000000" font-family="sans-serif" font-size="13" lengthAdjust="spacing" textLength="142" x="914.5" y="231.7622">order = getLabOrder()</text><polygon fill="#A80036" points="1254.5,291.9609,1264.5,295.9609,1254.5,299.9609,1258.5,295.9609" style="stroke:#A80036;stroke-width:1.0;"/><line style="stroke:#A80036;stroke-width:1.0;" x1="894.5" x2="1260.5" y1="295.9609" y2="295.9609"/><text fill="#000000" font-family="sans-serif" font-size="13" font-weight="bold" lengthAdjust="spacing" textLength="9" x="901.5" y="290.895">5</text><text fill="#000000" font-family="sans-serif" font-size="13" lengthAdjust="spacing" textLength="162" x="914.5" y="290.895">OrderDto = toDTO(order)</text><polygon fill="#A80036" points="905.5,321.0938,895.5,325.0938,905.5,329.0938,901.5,325.0938" style="stroke:#A80036;stroke-width:1.0;"/><line style="stroke:#A80036;stroke-width:1.0;stroke-dasharray:2.0,2.0;" x1="899.5" x2="1270.5" y1="325.0938" y2="325.0938"/><text fill="#000000" font-family="sans-serif" font-size="13" font-weight="bold" lengthAdjust="spacing" textLength="9" x="911.5" y="320.0278">6</text><text fill="#000000" font-family="sans-serif" font-size="13" lengthAdjust="spacing" textLength="59" x="924.5" y="320.0278">OrderDto</text><polygon fill="#A80036" points="702.5,350.2266,692.5,354.2266,702.5,358.2266,698.5,354.2266" style="stroke:#A80036;stroke-width:1.0;"/><line style="stroke:#A80036;stroke-width:1.0;stroke-dasharray:2.0,2.0;" x1="696.5" x2="888.5" y1="354.2266" y2="354.2266"/><text fill="#000000" font-family="sans-serif" font-size="13" font-weight="bold" lengthAdjust="spacing" textLength="9" x="708.5" y="349.1606">7</text><text fill="#000000" font-family="sans-serif" font-size="13" lengthAdjust="spacing" textLength="59" x="721.5" y="349.1606">OrderDto</text><polygon fill="#A80036" points="106.5,379.3594,96.5,383.3594,106.5,387.3594,102.5,383.3594" style="stroke:#A80036;stroke-width:1.0;"/><line style="stroke:#A80036;stroke-width:1.0;stroke-dasharray:2.0,2.0;" x1="100.5" x2="685.5" y1="383.3594" y2="383.3594"/><text fill="#000000" font-family="sans-serif" font-size="13" font-weight="bold" lengthAdjust="spacing" textLength="9" x="112.5" y="378.2935">8</text><text fill="#000000" font-family="sans-serif" font-size="13" lengthAdjust="spacing" textLength="549" x="125.5" y="378.2935">shows the list of tests registered to be performed and requests to select one of them</text><polygon fill="#A80036" points="669.5,408.4922,679.5,412.4922,669.5,416.4922,673.5,412.4922" style="stroke:#A80036;stroke-width:1.0;"/><line style="stroke:#A80036;stroke-width:1.0;" x1="95.5" x2="675.5" y1="412.4922" y2="412.4922"/><text fill="#000000" font-family="sans-serif" font-size="13" font-weight="bold" lengthAdjust="spacing" textLength="9" x="102.5" y="407.4263">9</text><text fill="#000000" font-family="sans-serif" font-size="13" lengthAdjust="spacing" textLength="159" x="115.5" y="407.4263">selects the intended test</text><polygon fill="#A80036" points="106.5,437.625,96.5,441.625,106.5,445.625,102.5,441.625" style="stroke:#A80036;stroke-width:1.0;"/><line style="stroke:#A80036;stroke-width:1.0;stroke-dasharray:2.0,2.0;" x1="100.5" x2="685.5" y1="441.625" y2="441.625"/><text fill="#000000" font-family="sans-serif" font-size="13" font-weight="bold" lengthAdjust="spacing" textLength="19" x="112.5" y="436.5591">10</text><text fill="#000000" font-family="sans-serif" font-size="13" lengthAdjust="spacing" textLength="411" x="135.5" y="436.5591">request data (descriptionMethod, dateCollection, timeCollection)</text><polygon fill="#A80036" points="669.5,466.7578,679.5,470.7578,669.5,474.7578,673.5,470.7578" style="stroke:#A80036;stroke-width:1.0;"/><line style="stroke:#A80036;stroke-width:1.0;" x1="95.5" x2="675.5" y1="470.7578" y2="470.7578"/><text fill="#000000" font-family="sans-serif" font-size="13" font-weight="bold" lengthAdjust="spacing" textLength="18" x="102.5" y="465.6919">11</text><text fill="#000000" font-family="sans-serif" font-size="13" lengthAdjust="spacing" textLength="138" x="124.5" y="465.6919">types requested data</text><polygon fill="#A80036" points="872.5,495.8906,882.5,499.8906,872.5,503.8906,876.5,499.8906" style="stroke:#A80036;stroke-width:1.0;"/><line style="stroke:#A80036;stroke-width:1.0;" x1="691.5" x2="878.5" y1="499.8906" y2="499.8906"/><text fill="#000000" font-family="sans-serif" font-size="13" font-weight="bold" lengthAdjust="spacing" textLength="18" x="698.5" y="494.8247">12</text><text fill="#000000" font-family="sans-serif" font-size="13" lengthAdjust="spacing" textLength="152" x="720.5" y="494.8247">RecordNewSample(dto)</text><polygon fill="#A80036" points="1126.5,525.0234,1136.5,529.0234,1126.5,533.0234,1130.5,529.0234" style="stroke:#A80036;stroke-width:1.0;"/><line style="stroke:#A80036;stroke-width:1.0;" x1="894.5" x2="1132.5" y1="529.0234" y2="529.0234"/><text fill="#000000" font-family="sans-serif" font-size="13" font-weight="bold" lengthAdjust="spacing" textLength="17" x="901.5" y="523.9575">13</text><text fill="#000000" font-family="sans-serif" font-size="13" lengthAdjust="spacing" textLength="204" x="922.5" y="523.9575">sampleStore=getSampleStore()</text><polygon fill="#A80036" points="1397.5,584.1563,1407.5,588.1563,1397.5,592.1563,1401.5,588.1563" style="stroke:#A80036;stroke-width:1.0;"/><line style="stroke:#A80036;stroke-width:1.0;" x1="894.5" x2="1403.5" y1="588.1563" y2="588.1563"/><text fill="#000000" font-family="sans-serif" font-size="13" font-weight="bold" lengthAdjust="spacing" textLength="18" x="901.5" y="583.0903">14</text><text fill="#000000" font-family="sans-serif" font-size="13" lengthAdjust="spacing" textLength="198" x="923.5" y="583.0903">samp=RecordNewSample(dto)</text><polygon fill="#A80036" points="1616.5,613.2891,1626.5,617.2891,1616.5,621.2891,1620.5,617.2891" style="stroke:#A80036;stroke-width:1.0;"/><line style="stroke:#A80036;stroke-width:1.0;" x1="1419.5" x2="1622.5" y1="617.2891" y2="617.2891"/><text fill="#000000" font-family="sans-serif" font-size="13" font-weight="bold" lengthAdjust="spacing" textLength="18" x="1426.5" y="612.2231">15</text><text fill="#000000" font-family="sans-serif" font-size="13" lengthAdjust="spacing" textLength="81" x="1448.5" y="612.2231">toModel(dto)</text><polygon fill="#A80036" points="1850.5,642.4219,1860.5,646.4219,1850.5,650.4219,1854.5,646.4219" style="stroke:#A80036;stroke-width:1.0;"/><line style="stroke:#A80036;stroke-width:1.0;" x1="1638.5" x2="1856.5" y1="646.4219" y2="646.4219"/><text fill="#000000" font-family="sans-serif" font-size="13" font-weight="bold" lengthAdjust="spacing" textLength="18" x="1645.5" y="641.356">16</text><text fill="#000000" font-family="sans-serif" font-size="13" lengthAdjust="spacing" textLength="183" x="1667.5" y="641.356">description=getDescription()</text><polygon fill="#A80036" points="1850.5,701.5547,1860.5,705.5547,1850.5,709.5547,1854.5,705.5547" style="stroke:#A80036;stroke-width:1.0;"/><line style="stroke:#A80036;stroke-width:1.0;" x1="1638.5" x2="1856.5" y1="705.5547" y2="705.5547"/><text fill="#000000" font-family="sans-serif" font-size="13" font-weight="bold" lengthAdjust="spacing" textLength="18" x="1645.5" y="700.4888">17</text><text fill="#000000" font-family="sans-serif" font-size="13" lengthAdjust="spacing" textLength="147" x="1667.5" y="700.4888">dataColl=getDataColl()</text><polygon fill="#A80036" points="1850.5,760.6875,1860.5,764.6875,1850.5,768.6875,1854.5,764.6875" style="stroke:#A80036;stroke-width:1.0;"/><line style="stroke:#A80036;stroke-width:1.0;" x1="1638.5" x2="1856.5" y1="764.6875" y2="764.6875"/><text fill="#000000" font-family="sans-serif" font-size="13" font-weight="bold" lengthAdjust="spacing" textLength="18" x="1645.5" y="759.6216">18</text><text fill="#000000" font-family="sans-serif" font-size="13" lengthAdjust="spacing" textLength="148" x="1667.5" y="759.6216">timeColl=getTimeColl()</text><polygon fill="#A80036" points="1850.5,819.8203,1860.5,823.8203,1850.5,827.8203,1854.5,823.8203" style="stroke:#A80036;stroke-width:1.0;"/><line style="stroke:#A80036;stroke-width:1.0;" x1="1638.5" x2="1856.5" y1="823.8203" y2="823.8203"/><text fill="#000000" font-family="sans-serif" font-size="13" font-weight="bold" lengthAdjust="spacing" textLength="18" x="1645.5" y="818.7544">19</text><text fill="#000000" font-family="sans-serif" font-size="13" lengthAdjust="spacing" textLength="133" x="1667.5" y="818.7544">orderid=getOrderId()</text><polygon fill="#A80036" points="2015.5,878.9531,2025.5,882.9531,2015.5,886.9531,2019.5,882.9531" style="stroke:#A80036;stroke-width:1.0;"/><line style="stroke:#A80036;stroke-width:1.0;" x1="1638.5" x2="2021.5" y1="882.9531" y2="882.9531"/><text fill="#000000" font-family="sans-serif" font-size="13" font-weight="bold" lengthAdjust="spacing" textLength="19" x="1645.5" y="877.8872">20</text><text fill="#000000" font-family="sans-serif" font-size="13" lengthAdjust="spacing" textLength="247" x="1668.5" y="877.8872">testype=getTestTypeByOrderId(order)</text><polygon fill="#A80036" points="2097.5,938.0859,2107.5,942.0859,2097.5,946.0859,2101.5,942.0859" style="stroke:#A80036;stroke-width:1.0;"/><line style="stroke:#A80036;stroke-width:1.0;" x1="1633.5" x2="2103.5" y1="942.0859" y2="942.0859"/><text fill="#000000" font-family="sans-serif" font-size="13" font-weight="bold" lengthAdjust="spacing" textLength="18" x="1640.5" y="937.02">21</text><text fill="#000000" font-family="sans-serif" font-size="13" lengthAdjust="spacing" textLength="286" x="1662.5" y="937.02">create(description,dataColl,timeColl,testype)</text><rect fill="#FEFECE" filter="url(#fenn3c4b56e0f)" height="30.2969" style="stroke:#A80036;stroke-width:1.5;" width="116" x="2109.5" y="920.9531"/><text fill="#000000" font-family="sans-serif" font-size="14" lengthAdjust="spacing" textLength="102" x="2116.5" y="940.9482">samp: Sample</text><polygon fill="#A80036" points="1397.5,983.3828,1407.5,987.3828,1397.5,991.3828,1401.5,987.3828" style="stroke:#A80036;stroke-width:1.0;"/><line style="stroke:#A80036;stroke-width:1.0;" x1="894.5" x2="1403.5" y1="987.3828" y2="987.3828"/><text fill="#000000" font-family="sans-serif" font-size="13" font-weight="bold" lengthAdjust="spacing" textLength="18" x="901.5" y="982.3169">22</text><text fill="#000000" font-family="sans-serif" font-size="13" lengthAdjust="spacing" textLength="173" x="923.5" y="982.3169">validateNewSample(samp)</text><polygon fill="#A80036" points="106.5,1042.5156,96.5,1046.5156,106.5,1050.5156,102.5,1046.5156" style="stroke:#A80036;stroke-width:1.0;"/><line style="stroke:#A80036;stroke-width:1.0;stroke-dasharray:2.0,2.0;" x1="100.5" x2="685.5" y1="1046.5156" y2="1046.5156"/><text fill="#000000" font-family="sans-serif" font-size="13" font-weight="bold" lengthAdjust="spacing" textLength="17" x="112.5" y="1041.4497">23</text><text fill="#000000" font-family="sans-serif" font-size="13" lengthAdjust="spacing" textLength="277" x="133.5" y="1041.4497">shows the data and request a confirmation</text><polygon fill="#A80036" points="669.5,1071.6484,679.5,1075.6484,669.5,1079.6484,673.5,1075.6484" style="stroke:#A80036;stroke-width:1.0;"/><line style="stroke:#A80036;stroke-width:1.0;" x1="95.5" x2="675.5" y1="1075.6484" y2="1075.6484"/><text fill="#000000" font-family="sans-serif" font-size="13" font-weight="bold" lengthAdjust="spacing" textLength="18" x="102.5" y="1070.5825">24</text><text fill="#000000" font-family="sans-serif" font-size="13" lengthAdjust="spacing" textLength="114" x="124.5" y="1070.5825">confirms the data</text><polygon fill="#A80036" points="872.5,1100.7813,882.5,1104.7813,872.5,1108.7813,876.5,1104.7813" style="stroke:#A80036;stroke-width:1.0;"/><line style="stroke:#A80036;stroke-width:1.0;" x1="691.5" x2="878.5" y1="1104.7813" y2="1104.7813"/><text fill="#000000" font-family="sans-serif" font-size="13" font-weight="bold" lengthAdjust="spacing" textLength="18" x="698.5" y="1099.7153">25</text><text fill="#000000" font-family="sans-serif" font-size="13" lengthAdjust="spacing" textLength="117" x="720.5" y="1099.7153">saveNewSample()</text><polygon fill="#A80036" points="1397.5,1129.9141,1407.5,1133.9141,1397.5,1137.9141,1401.5,1133.9141" style="stroke:#A80036;stroke-width:1.0;"/><line style="stroke:#A80036;stroke-width:1.0;" x1="894.5" x2="1403.5" y1="1133.9141" y2="1133.9141"/><text fill="#000000" font-family="sans-serif" font-size="13" font-weight="bold" lengthAdjust="spacing" textLength="18" x="901.5" y="1128.8481">26</text><text fill="#000000" font-family="sans-serif" font-size="13" lengthAdjust="spacing" textLength="153" x="923.5" y="1128.8481">saveNewSample(samp)</text><line style="stroke:#A80036;stroke-width:1.0;" x1="1424.5" x2="1466.5" y1="1163.0469" y2="1163.0469"/><line style="stroke:#A80036;stroke-width:1.0;" x1="1466.5" x2="1466.5" y1="1163.0469" y2="1176.0469"/><line style="stroke:#A80036;stroke-width:1.0;" x1="1425.5" x2="1466.5" y1="1176.0469" y2="1176.0469"/><polygon fill="#A80036" points="1435.5,1172.0469,1425.5,1176.0469,1435.5,1180.0469,1431.5,1176.0469" style="stroke:#A80036;stroke-width:1.0;"/><text fill="#000000" font-family="sans-serif" font-size="13" font-weight="bold" lengthAdjust="spacing" textLength="18" x="1431.5" y="1157.981">27</text><text fill="#000000" font-family="sans-serif" font-size="13" lengthAdjust="spacing" textLength="173" x="1453.5" y="1157.981">validateNewSample(samp)</text><line style="stroke:#A80036;stroke-width:1.0;" x1="1424.5" x2="1466.5" y1="1235.1797" y2="1235.1797"/><line style="stroke:#A80036;stroke-width:1.0;" x1="1466.5" x2="1466.5" y1="1235.1797" y2="1248.1797"/><line style="stroke:#A80036;stroke-width:1.0;" x1="1425.5" x2="1466.5" y1="1248.1797" y2="1248.1797"/><polygon fill="#A80036" points="1435.5,1244.1797,1425.5,1248.1797,1435.5,1252.1797,1431.5,1248.1797" style="stroke:#A80036;stroke-width:1.0;"/><text fill="#000000" font-family="sans-serif" font-size="13" font-weight="bold" lengthAdjust="spacing" textLength="18" x="1431.5" y="1230.1138">28</text><text fill="#000000" font-family="sans-serif" font-size="13" lengthAdjust="spacing" textLength="146" x="1453.5" y="1230.1138">addNewSample(samp)</text><polygon fill="#A80036" points="101.5,1303.3125,91.5,1307.3125,101.5,1311.3125,97.5,1307.3125" style="stroke:#A80036;stroke-width:1.0;"/><line style="stroke:#A80036;stroke-width:1.0;stroke-dasharray:2.0,2.0;" x1="95.5" x2="685.5" y1="1307.3125" y2="1307.3125"/><text fill="#000000" font-family="sans-serif" font-size="13" font-weight="bold" lengthAdjust="spacing" textLength="18" x="107.5" y="1302.2466">29</text><text fill="#000000" font-family="sans-serif" font-size="13" lengthAdjust="spacing" textLength="169" x="129.5" y="1302.2466">informs operation success</text><!--MD5=[a236eb114fc7514457af284e33535015]
@startuml
actor "Medical Lab Technician" as Adm
participant ":RecordSampleUI" as Interface
participant ":RecordSampleController" as Controller
participant ":Company" as Company
participant ":LabOrderMapper" as TM
participant "store \n :SampleStore" as SS
participant "SampleMapper" as SM
participant "SampDto: SampleDto" as SD
participant "store \n :LabOrderStore" as TS




 
 
autonumber
activate Adm
Adm -> Interface: starts recording a new sample
activate Interface
Interface -> Controller: orderDto = getTest()
activate Controller
Controller -> Company : orderStore=getLabOrderStore()
activate Company
deactivate Company
Controller -> TS: order = getLabOrder()
activate TS
deactivate TS
Controller -> TM: OrderDto = toDTO(order)
activate TM

TM- ->Controller : OrderDto 
deactivate TM
Controller- ->Interface : OrderDto 
deactivate Controller
Interface - -> Adm: shows the list of tests registered to be performed and requests to select one of them
deactivate Interface



Adm -> Interface: selects the intended test
activate Interface
Interface - -> Adm: request data (descriptionMethod, dateCollection, timeCollection)
deactivate Interface


Adm -> Interface: types requested data
activate Interface
Interface->Controller: RecordNewSample(dto)
activate Controller
Controller -> Company : sampleStore=getSampleStore()
activate Company
Deactivate Company
Controller->SS: samp=RecordNewSample(dto)
activate SS


SS->SM: toModel(dto)
activate SM
SM->SD: description=getDescription()
activate SD
deactivate SD
SM->SD: dataColl=getDataColl()
activate SD
deactivate SD
SM->SD: timeColl=getTimeColl()
activate SD
deactivate SD
SM->SD: orderid=getOrderId()
activate SD
deactivate SD
SM->TS: testype=getTestTypeByOrderId(order)
activate TS
deactivate TS




create "samp: Sample" as samp
SM->samp:  create(description,dataColl,timeColl,testype)



deactivate SM
deactivate SS

Controller->SS:validateNewSample(samp)
Activate SS
deactivate SS

deactivate Controller

Interface- -> Adm: shows the data and request a confirmation
deactivate Interface


Adm -> Interface: confirms the data
activate Interface
Interface->Controller: saveNewSample()
activate Controller
Controller->SS:saveNewSample(samp)
activate SS
SS->SS:validateNewSample(samp)
activate SS
deactivate SS
SS->SS:addNewSample(samp)
activate SS
deactivate SS

deactivate SS
deactivate Controller
Interface- -> Adm: informs operation success

deactivate Interface
deactivate Adm
@enduml

PlantUML version 1.2021.7beta1(Unknown compile time)
(GPL source distribution)
Java Runtime: Java(TM) SE Runtime Environment
JVM: Java HotSpot(TM) 64-Bit Server VM
Default Encoding: UTF-8
Language: en
Country: US
--></g></svg>