<?xml version="1.0" encoding="UTF-8" standalone="no"?><svg xmlns="http://www.w3.org/2000/svg" xmlns:xlink="http://www.w3.org/1999/xlink" contentScriptType="application/ecmascript" contentStyleType="text/css" height="341px" preserveAspectRatio="none" style="width:631px;height:341px;background:#FFFFFF;" version="1.1" viewBox="0 0 631 341" width="631px" zoomAndPan="magnify"><defs><filter height="300%" id="f15x3am2n447ev" width="300%" x="-1" y="-1"><feGaussianBlur result="blurOut" stdDeviation="2.0"/><feColorMatrix in="blurOut" result="blurOut2" type="matrix" values="0 0 0 0 0 0 0 0 0 0 0 0 0 0 0 0 0 0 .4 0"/><feOffset dx="4.0" dy="4.0" in="blurOut2" result="blurOut3"/><feBlend in="SourceGraphic" in2="blurOut3" mode="normal"/></filter></defs><g><!--MD5=[02e4b9b7573f1156f41e60aa5b4e25a4]
class Company--><rect codeLine="6" fill="#FEFECE" filter="url(#f15x3am2n447ev)" height="52.8047" id="Company" style="stroke:#A80036;stroke-width:1.5;" width="88" x="7" y="45"/><ellipse cx="22" cy="61" fill="#ADD1B2" rx="11" ry="11" style="stroke:#A80036;stroke-width:1.0;"/><path d="M24.3438,56.6719 C23.4063,56.2344 22.8125,56.0938 21.9375,56.0938 C19.3125,56.0938 17.3125,58.1719 17.3125,60.8906 L17.3125,62.0156 C17.3125,64.5938 19.4219,66.4844 22.3125,66.4844 C23.5313,66.4844 24.6875,66.1875 25.4375,65.6406 C26.0156,65.2344 26.3438,64.7813 26.3438,64.3906 C26.3438,63.9375 25.9531,63.5469 25.4844,63.5469 C25.2656,63.5469 25.0625,63.625 24.875,63.8125 C24.4219,64.2969 24.4219,64.2969 24.2344,64.3906 C23.8125,64.6563 23.125,64.7813 22.3594,64.7813 C20.3125,64.7813 19.0156,63.6875 19.0156,61.9844 L19.0156,60.8906 C19.0156,59.1094 20.2656,57.7969 22,57.7969 C22.5781,57.7969 23.1875,57.9531 23.6563,58.2031 C24.1406,58.4844 24.3125,58.7031 24.4063,59.1094 C24.4688,59.5156 24.5,59.6406 24.6406,59.7656 C24.7813,59.9063 25.0156,60.0156 25.2344,60.0156 C25.5,60.0156 25.7656,59.875 25.9375,59.6563 C26.0469,59.5 26.0781,59.3125 26.0781,58.8906 L26.0781,57.4688 C26.0781,57.0313 26.0625,56.9063 25.9688,56.75 C25.8125,56.4844 25.5313,56.3438 25.2344,56.3438 C24.9375,56.3438 24.7344,56.4375 24.5156,56.75 L24.3438,56.6719 Z " fill="#000000"/><text fill="#000000" font-family="sans-serif" font-size="12" lengthAdjust="spacing" textLength="56" x="36" y="65.1543">Company</text><line style="stroke:#A80036;stroke-width:1.5;" x1="8" x2="94" y1="77" y2="77"/><text fill="#000000" font-family="sans-serif" font-size="11" lengthAdjust="spacing" textLength="70" x="13" y="91.2104">-designation</text><!--MD5=[7421f545a0d8420c5bec41e74b387d9c]
class Employee--><rect codeLine="10" fill="#FEFECE" filter="url(#f15x3am2n447ev)" height="116.8281" id="Employee" style="stroke:#A80036;stroke-width:1.5;" width="97" x="221" y="100"/><ellipse cx="238.25" cy="116" fill="#ADD1B2" rx="11" ry="11" style="stroke:#A80036;stroke-width:1.0;"/><path d="M240.5938,111.6719 C239.6563,111.2344 239.0625,111.0938 238.1875,111.0938 C235.5625,111.0938 233.5625,113.1719 233.5625,115.8906 L233.5625,117.0156 C233.5625,119.5938 235.6719,121.4844 238.5625,121.4844 C239.7813,121.4844 240.9375,121.1875 241.6875,120.6406 C242.2656,120.2344 242.5938,119.7813 242.5938,119.3906 C242.5938,118.9375 242.2031,118.5469 241.7344,118.5469 C241.5156,118.5469 241.3125,118.625 241.125,118.8125 C240.6719,119.2969 240.6719,119.2969 240.4844,119.3906 C240.0625,119.6563 239.375,119.7813 238.6094,119.7813 C236.5625,119.7813 235.2656,118.6875 235.2656,116.9844 L235.2656,115.8906 C235.2656,114.1094 236.5156,112.7969 238.25,112.7969 C238.8281,112.7969 239.4375,112.9531 239.9063,113.2031 C240.3906,113.4844 240.5625,113.7031 240.6563,114.1094 C240.7188,114.5156 240.75,114.6406 240.8906,114.7656 C241.0313,114.9063 241.2656,115.0156 241.4844,115.0156 C241.75,115.0156 242.0156,114.875 242.1875,114.6563 C242.2969,114.5 242.3281,114.3125 242.3281,113.8906 L242.3281,112.4688 C242.3281,112.0313 242.3125,111.9063 242.2188,111.75 C242.0625,111.4844 241.7813,111.3438 241.4844,111.3438 C241.1875,111.3438 240.9844,111.4375 240.7656,111.75 L240.5938,111.6719 Z " fill="#000000"/><text fill="#000000" font-family="sans-serif" font-size="12" lengthAdjust="spacing" textLength="60" x="252.75" y="120.1543">Employee</text><line style="stroke:#A80036;stroke-width:1.5;" x1="222" x2="317" y1="132" y2="132"/><text fill="#000000" font-family="sans-serif" font-size="11" lengthAdjust="spacing" textLength="73" x="227" y="146.2104">-employeeId</text><text fill="#000000" font-family="sans-serif" font-size="11" lengthAdjust="spacing" textLength="37" x="227" y="159.0151">-name</text><text fill="#000000" font-family="sans-serif" font-size="11" lengthAdjust="spacing" textLength="49" x="227" y="171.8198">-address</text><text fill="#000000" font-family="sans-serif" font-size="11" lengthAdjust="spacing" textLength="85" x="227" y="184.6245">-phoneNumber</text><text fill="#000000" font-family="sans-serif" font-size="11" lengthAdjust="spacing" textLength="36" x="227" y="197.4292">-email</text><text fill="#000000" font-family="sans-serif" font-size="11" lengthAdjust="spacing" textLength="53" x="227" y="210.2339">-socCode</text><!--MD5=[12e90e92236ca84f203192a07d84ec5e]
class OrganizationRole--><rect codeLine="19" fill="#FEFECE" filter="url(#f15x3am2n447ev)" height="52.8047" id="OrganizationRole" style="stroke:#A80036;stroke-width:1.5;" width="134" x="483" y="7"/><ellipse cx="498" cy="23" fill="#ADD1B2" rx="11" ry="11" style="stroke:#A80036;stroke-width:1.0;"/><path d="M500.3438,18.6719 C499.4063,18.2344 498.8125,18.0938 497.9375,18.0938 C495.3125,18.0938 493.3125,20.1719 493.3125,22.8906 L493.3125,24.0156 C493.3125,26.5938 495.4219,28.4844 498.3125,28.4844 C499.5313,28.4844 500.6875,28.1875 501.4375,27.6406 C502.0156,27.2344 502.3438,26.7813 502.3438,26.3906 C502.3438,25.9375 501.9531,25.5469 501.4844,25.5469 C501.2656,25.5469 501.0625,25.625 500.875,25.8125 C500.4219,26.2969 500.4219,26.2969 500.2344,26.3906 C499.8125,26.6563 499.125,26.7813 498.3594,26.7813 C496.3125,26.7813 495.0156,25.6875 495.0156,23.9844 L495.0156,22.8906 C495.0156,21.1094 496.2656,19.7969 498,19.7969 C498.5781,19.7969 499.1875,19.9531 499.6563,20.2031 C500.1406,20.4844 500.3125,20.7031 500.4063,21.1094 C500.4688,21.5156 500.5,21.6406 500.6406,21.7656 C500.7813,21.9063 501.0156,22.0156 501.2344,22.0156 C501.5,22.0156 501.7656,21.875 501.9375,21.6563 C502.0469,21.5 502.0781,21.3125 502.0781,20.8906 L502.0781,19.4688 C502.0781,19.0313 502.0625,18.9063 501.9688,18.75 C501.8125,18.4844 501.5313,18.3438 501.2344,18.3438 C500.9375,18.3438 500.7344,18.4375 500.5156,18.75 L500.3438,18.6719 Z " fill="#000000"/><text fill="#000000" font-family="sans-serif" font-size="12" lengthAdjust="spacing" textLength="102" x="512" y="27.1543">OrganizationRole</text><line style="stroke:#A80036;stroke-width:1.5;" x1="484" x2="616" y1="39" y2="39"/><text fill="#000000" font-family="sans-serif" font-size="11" lengthAdjust="spacing" textLength="66" x="489" y="53.2104">-description</text><!--MD5=[ed6624c6556d5e7b1bd23032162d20b7]
class Client--><rect codeLine="23" fill="#FEFECE" filter="url(#f15x3am2n447ev)" height="116.8281" id="Client" style="stroke:#A80036;stroke-width:1.5;" width="97" x="501.5" y="97"/><ellipse cx="530.9" cy="113" fill="#ADD1B2" rx="11" ry="11" style="stroke:#A80036;stroke-width:1.0;"/><path d="M533.2438,108.6719 C532.3063,108.2344 531.7125,108.0938 530.8375,108.0938 C528.2125,108.0938 526.2125,110.1719 526.2125,112.8906 L526.2125,114.0156 C526.2125,116.5938 528.3219,118.4844 531.2125,118.4844 C532.4313,118.4844 533.5875,118.1875 534.3375,117.6406 C534.9156,117.2344 535.2438,116.7813 535.2438,116.3906 C535.2438,115.9375 534.8531,115.5469 534.3844,115.5469 C534.1656,115.5469 533.9625,115.625 533.775,115.8125 C533.3219,116.2969 533.3219,116.2969 533.1344,116.3906 C532.7125,116.6563 532.025,116.7813 531.2594,116.7813 C529.2125,116.7813 527.9156,115.6875 527.9156,113.9844 L527.9156,112.8906 C527.9156,111.1094 529.1656,109.7969 530.9,109.7969 C531.4781,109.7969 532.0875,109.9531 532.5563,110.2031 C533.0406,110.4844 533.2125,110.7031 533.3063,111.1094 C533.3688,111.5156 533.4,111.6406 533.5406,111.7656 C533.6813,111.9063 533.9156,112.0156 534.1344,112.0156 C534.4,112.0156 534.6656,111.875 534.8375,111.6563 C534.9469,111.5 534.9781,111.3125 534.9781,110.8906 L534.9781,109.4688 C534.9781,109.0313 534.9625,108.9063 534.8688,108.75 C534.7125,108.4844 534.4313,108.3438 534.1344,108.3438 C533.8375,108.3438 533.6344,108.4375 533.4156,108.75 L533.2438,108.6719 Z " fill="#000000"/><text fill="#000000" font-family="sans-serif" font-size="12" lengthAdjust="spacing" textLength="33" x="548.1" y="117.1543">Client</text><line style="stroke:#A80036;stroke-width:1.5;" x1="502.5" x2="597.5" y1="129" y2="129"/><text fill="#000000" font-family="sans-serif" font-size="11" lengthAdjust="spacing" textLength="68" x="507.5" y="143.2104">-citizenCard</text><text fill="#000000" font-family="sans-serif" font-size="11" lengthAdjust="spacing" textLength="24" x="507.5" y="156.0151">-nhs</text><text fill="#000000" font-family="sans-serif" font-size="11" lengthAdjust="spacing" textLength="18" x="507.5" y="168.8198">-tin</text><text fill="#000000" font-family="sans-serif" font-size="11" lengthAdjust="spacing" textLength="52" x="507.5" y="181.6245">-birthDay</text><text fill="#000000" font-family="sans-serif" font-size="11" lengthAdjust="spacing" textLength="25" x="507.5" y="194.4292">-sex</text><text fill="#000000" font-family="sans-serif" font-size="11" lengthAdjust="spacing" textLength="85" x="507.5" y="207.2339">-phoneNumber</text><!--MD5=[3fd616f346a44cd59a91eb10b19e157c]
class User--><rect codeLine="32" fill="#FEFECE" filter="url(#f15x3am2n447ev)" height="78.4141" id="User" style="stroke:#A80036;stroke-width:1.5;" width="69" x="515.5" y="249.5"/><ellipse cx="534.1" cy="265.5" fill="#ADD1B2" rx="11" ry="11" style="stroke:#A80036;stroke-width:1.0;"/><path d="M536.4438,261.1719 C535.5063,260.7344 534.9125,260.5938 534.0375,260.5938 C531.4125,260.5938 529.4125,262.6719 529.4125,265.3906 L529.4125,266.5156 C529.4125,269.0938 531.5219,270.9844 534.4125,270.9844 C535.6313,270.9844 536.7875,270.6875 537.5375,270.1406 C538.1156,269.7344 538.4438,269.2813 538.4438,268.8906 C538.4438,268.4375 538.0531,268.0469 537.5844,268.0469 C537.3656,268.0469 537.1625,268.125 536.975,268.3125 C536.5219,268.7969 536.5219,268.7969 536.3344,268.8906 C535.9125,269.1563 535.225,269.2813 534.4594,269.2813 C532.4125,269.2813 531.1156,268.1875 531.1156,266.4844 L531.1156,265.3906 C531.1156,263.6094 532.3656,262.2969 534.1,262.2969 C534.6781,262.2969 535.2875,262.4531 535.7563,262.7031 C536.2406,262.9844 536.4125,263.2031 536.5063,263.6094 C536.5688,264.0156 536.6,264.1406 536.7406,264.2656 C536.8813,264.4063 537.1156,264.5156 537.3344,264.5156 C537.6,264.5156 537.8656,264.375 538.0375,264.1563 C538.1469,264 538.1781,263.8125 538.1781,263.3906 L538.1781,261.9688 C538.1781,261.5313 538.1625,261.4063 538.0688,261.25 C537.9125,260.9844 537.6313,260.8438 537.3344,260.8438 C537.0375,260.8438 536.8344,260.9375 536.6156,261.25 L536.4438,261.1719 Z " fill="#000000"/><text fill="#000000" font-family="sans-serif" font-size="12" lengthAdjust="spacing" textLength="29" x="548.9" y="269.6543">User</text><line style="stroke:#A80036;stroke-width:1.5;" x1="516.5" x2="583.5" y1="281.5" y2="281.5"/><text fill="#000000" font-family="sans-serif" font-size="11" lengthAdjust="spacing" textLength="37" x="521.5" y="295.7104">-name</text><text fill="#000000" font-family="sans-serif" font-size="11" lengthAdjust="spacing" textLength="36" x="521.5" y="308.5151">-email</text><text fill="#000000" font-family="sans-serif" font-size="11" lengthAdjust="spacing" textLength="57" x="521.5" y="321.3198">-password</text><!--MD5=[09366576ee87d48d594df10cacc83f45]
link Company to Employee--><path codeLine="40" d="M95.0323,88.792 C131.287,103.361 183.103,124.183 220.654,139.273 " fill="none" id="Company-Employee" style="stroke:#A80036;stroke-width:1.0;"/><polygon fill="#000000" points="134.6394,95.9308,127.3425,89.8311,125.1508,95.2851,134.6394,95.9308" style="stroke:#000000;stroke-width:1.0;"/><text fill="#000000" font-family="sans-serif" font-size="13" lengthAdjust="spacing" textLength="48" x="139" y="98.5669">employ</text><text fill="#000000" font-family="sans-serif" font-size="13" lengthAdjust="spacing" textLength="8" x="102.9876" y="104.9922">1</text><text fill="#000000" font-family="sans-serif" font-size="13" lengthAdjust="spacing" textLength="7" x="205.9657" y="149.6399">*</text><!--MD5=[9abf40ff36e4aa94ac761b2803c1dce8]
link Company to OrganizationRole--><path codeLine="41" d="M95.2361,68.194 C182.381,61.531 379.606,46.452 482.976,38.548 " fill="none" id="Company-OrganizationRole" style="stroke:#A80036;stroke-width:1.0;"/><polygon fill="#000000" points="227.9854,42.6852,218.7426,40.4444,219.1907,46.3052,227.9854,42.6852" style="stroke:#000000;stroke-width:1.0;"/><text fill="#000000" font-family="sans-serif" font-size="13" lengthAdjust="spacing" textLength="88" x="232" y="47.5669">comprehends</text><text fill="#000000" font-family="sans-serif" font-size="13" lengthAdjust="spacing" textLength="8" x="102.9237" y="80.9555">1</text><text fill="#000000" font-family="sans-serif" font-size="13" lengthAdjust="spacing" textLength="7" x="467.8217" y="52.0847">*</text><!--MD5=[241b49406f7a05442b1e788ffaf3787c]
link Employee to OrganizationRole--><path codeLine="42" d="M318.059,137.154 C365.521,115.851 438.565,83.067 489.765,60.087 " fill="none" id="Employee-OrganizationRole" style="stroke:#A80036;stroke-width:1.0;"/><polygon fill="#000000" points="387.0616,67.019,377.6062,68.0415,380.013,73.404,387.0616,67.019" style="stroke:#000000;stroke-width:1.0;"/><text fill="#000000" font-family="sans-serif" font-size="13" lengthAdjust="spacing" textLength="34" x="391.5" y="73.5669">plays</text><text fill="#000000" font-family="sans-serif" font-size="13" lengthAdjust="spacing" textLength="7" x="326.0305" y="147.1241">*</text><text fill="#000000" font-family="sans-serif" font-size="13" lengthAdjust="spacing" textLength="8" x="466.9107" y="80.0745">1</text><!--MD5=[22fb9506fac029fc1d2ae00f0eb8d606]
link Employee to User--><path codeLine="43" d="M318.059,180.7 C374.143,206.879 465.949,249.7329 515.222,272.7327 " fill="none" id="Employee-User" style="stroke:#A80036;stroke-width:1.0;"/><polygon fill="#000000" points="373.5307,190.1813,366.5777,183.6924,364.0915,189.0185,373.5307,190.1813" style="stroke:#000000;stroke-width:1.0;"/><text fill="#000000" font-family="sans-serif" font-size="13" lengthAdjust="spacing" textLength="61" x="378" y="192.5669">relates to</text><text fill="#000000" font-family="sans-serif" font-size="13" lengthAdjust="spacing" textLength="24" x="325.8181" y="196.5917">0..1</text><text fill="#000000" font-family="sans-serif" font-size="13" lengthAdjust="spacing" textLength="8" x="499.5876" y="283.1443">1</text><!--MD5=[07204f8b6ff0f6086f256a5d0ac9ff83]
link Employee to Client--><path codeLine="44" d="M318.059,157.988 C369.172,157.437 449.954,156.567 501.171,156.015 " fill="none" id="Employee-Client" style="stroke:#A80036;stroke-width:1.0;"/><polygon fill="#000000" points="360.9997,148.0125,351.9235,145.1712,351.9868,151.0487,360.9997,148.0125" style="stroke:#000000;stroke-width:1.0;"/><text fill="#000000" font-family="sans-serif" font-size="13" lengthAdjust="spacing" textLength="87" x="365" y="152.5669">interacts with</text><text fill="#000000" font-family="sans-serif" font-size="13" lengthAdjust="spacing" textLength="8" x="326.1071" y="171.1483">1</text><text fill="#000000" font-family="sans-serif" font-size="13" lengthAdjust="spacing" textLength="7" x="486.4852" y="169.2815">*</text><!--MD5=[c5e7f7713950ade003df609ee9d8fb1e]
@startuml
hide methods
left to right direction
skinparam classAttributeIconSize 0


class Company {
  -designation
}

class Employee {
  -employeeId
  -name
  -address
  -phoneNumber
  -email
  -socCode
}

class OrganizationRole {
  -description
}

class Client {
  -citizenCard
  -nhs
  -tin
  -birthDay
  -sex
  -phoneNumber
}

class User{
  -name
  -email
  -password
}



Company "1" - - "*" Employee : employ  >
Company "1" - - "*" OrganizationRole : comprehends >
Employee "*" - - "1" OrganizationRole : plays >
Employee "0..1" - - "1" User: relates to >
Employee "1" - - "*" Client: interacts with >
@enduml

PlantUML version 1.2021.6beta6(Unknown compile time)
(GPL source distribution)
Java Runtime: Java(TM) SE Runtime Environment
JVM: Java HotSpot(TM) 64-Bit Server VM
Default Encoding: UTF-8
Language: en
Country: US
--></g></svg>