<?xml version="1.0" encoding="UTF-8" standalone="no"?><svg xmlns="http://www.w3.org/2000/svg" xmlns:xlink="http://www.w3.org/1999/xlink" contentScriptType="application/ecmascript" contentStyleType="text/css" height="583.75px" preserveAspectRatio="none" style="width:1757px;height:583px;" version="1.1" viewBox="0 0 1757 583" width="1757.5px" zoomAndPan="magnify"><defs><filter height="300%" id="f1tjijuk1ff6wu" width="300%" x="-1" y="-1"><feGaussianBlur result="blurOut" stdDeviation="2.5"/><feColorMatrix in="blurOut" result="blurOut2" type="matrix" values="0 0 0 0 0 0 0 0 0 0 0 0 0 0 0 0 0 0 .4 0"/><feOffset dx="5.0" dy="5.0" in="blurOut2" result="blurOut3"/><feBlend in="SourceGraphic" in2="blurOut3" mode="normal"/></filter></defs><g><!--MD5=[02e4b9b7573f1156f41e60aa5b4e25a4]
class Company--><rect codeLine="26" fill="#FEFECE" filter="url(#f1tjijuk1ff6wu)" height="67.2949" id="Company" style="stroke:#A80036;stroke-width:1.875;" width="106.25" x="8.75" y="255"/><ellipse cx="27.5" cy="275" fill="#ADD1B2" rx="13.75" ry="13.75" style="stroke:#A80036;stroke-width:1.25;"/><path d="M30,270.625 Q30.2539,270 30.5469,269.6875 Q30.8398,269.375 31.1719,269.375 Q31.7578,269.375 32.1289,269.7266 Q32.5,270.0781 32.5,270.8984 L32.5,272.8516 Q32.5,273.6719 32.1484,274.0234 Q31.7969,274.375 31.25,274.375 Q30.7617,274.375 30.4492,274.1602 Q30.1367,273.9453 30,273.3789 Q29.9414,272.9883 29.7266,272.7734 Q29.3359,272.3633 28.6328,272.1289 Q27.9297,271.875 27.2266,271.875 Q26.3477,271.875 25.6055,272.2266 Q24.8828,272.5781 24.3164,273.3594 Q23.75,274.1406 23.75,275.2148 L23.75,276.3672 Q23.75,277.6563 24.8047,278.5156 Q25.8594,279.375 27.7344,279.375 Q28.8477,279.375 29.6289,279.1211 Q30.0781,278.9844 30.5859,278.5352 Q30.918,278.2813 31.0938,278.2031 Q31.2695,278.125 31.4844,278.125 Q31.8945,278.125 32.1875,278.457 Q32.5,278.7695 32.5,279.2188 Q32.5,279.6484 32.0703,280.1563 Q31.4453,280.8984 30.4492,281.3086 Q29.1406,281.875 27.5391,281.875 Q25.6641,281.875 24.1602,281.1328 Q22.9492,280.5469 22.0898,279.2773 Q21.25,278.0078 21.25,276.5039 L21.25,275.1367 Q21.25,273.5742 21.9922,272.207 Q22.7539,270.8398 24.0625,270.1172 Q25.3906,269.375 26.875,269.375 Q27.7734,269.375 28.5547,269.6875 Q29.3359,270 30,270.625 Z " fill="#000000"/><text fill="#000000" font-family="sans-serif" font-size="15" lengthAdjust="spacing" textLength="66.25" x="45" y="281.1377">Company</text><line style="stroke:#A80036;stroke-width:1.875;" x1="10" x2="113.75" y1="295" y2="295"/><text fill="#000000" font-family="sans-serif" font-size="13.75" lengthAdjust="spacing" textLength="73.75" x="16.25" y="314.2737">-designation</text><!--MD5=[df38be88ccee13e832d6fafd6288a4ca]
class Test--><rect codeLine="30" fill="#FEFECE" filter="url(#f1tjijuk1ff6wu)" height="119.1797" id="Test" style="stroke:#A80036;stroke-width:1.875;" width="103.75" x="271.25" y="229.375"/><ellipse cx="305.1875" cy="249.375" fill="#ADD1B2" rx="13.75" ry="13.75" style="stroke:#A80036;stroke-width:1.25;"/><path d="M307.6875,245 Q307.9414,244.375 308.2344,244.0625 Q308.5273,243.75 308.8594,243.75 Q309.4453,243.75 309.8164,244.1016 Q310.1875,244.4531 310.1875,245.2734 L310.1875,247.2266 Q310.1875,248.0469 309.8359,248.3984 Q309.4844,248.75 308.9375,248.75 Q308.4492,248.75 308.1367,248.5352 Q307.8242,248.3203 307.6875,247.7539 Q307.6289,247.3633 307.4141,247.1484 Q307.0234,246.7383 306.3203,246.5039 Q305.6172,246.25 304.9141,246.25 Q304.0352,246.25 303.293,246.6016 Q302.5703,246.9531 302.0039,247.7344 Q301.4375,248.5156 301.4375,249.5898 L301.4375,250.7422 Q301.4375,252.0313 302.4922,252.8906 Q303.5469,253.75 305.4219,253.75 Q306.5352,253.75 307.3164,253.4961 Q307.7656,253.3594 308.2734,252.9102 Q308.6055,252.6563 308.7813,252.5781 Q308.957,252.5 309.1719,252.5 Q309.582,252.5 309.875,252.832 Q310.1875,253.1445 310.1875,253.5938 Q310.1875,254.0234 309.7578,254.5313 Q309.1328,255.2734 308.1367,255.6836 Q306.8281,256.25 305.2266,256.25 Q303.3516,256.25 301.8477,255.5078 Q300.6367,254.9219 299.7773,253.6523 Q298.9375,252.3828 298.9375,250.8789 L298.9375,249.5117 Q298.9375,247.9492 299.6797,246.582 Q300.4414,245.2148 301.75,244.4922 Q303.0781,243.75 304.5625,243.75 Q305.4609,243.75 306.2422,244.0625 Q307.0234,244.375 307.6875,245 Z " fill="#000000"/><text fill="#000000" font-family="sans-serif" font-size="15" lengthAdjust="spacing" textLength="30" x="326.0625" y="255.5127">Test</text><line style="stroke:#A80036;stroke-width:1.875;" x1="272.5" x2="373.75" y1="269.375" y2="269.375"/><text fill="#000000" font-family="sans-serif" font-size="13.75" lengthAdjust="spacing" textLength="35" x="278.75" y="288.6487">-code</text><text fill="#000000" font-family="sans-serif" font-size="13.75" lengthAdjust="spacing" textLength="58.75" x="278.75" y="305.9436">-nhsCode</text><text fill="#000000" font-family="sans-serif" font-size="13.75" lengthAdjust="spacing" textLength="31.25" x="278.75" y="323.2385">-date</text><text fill="#000000" font-family="sans-serif" font-size="13.75" lengthAdjust="spacing" textLength="88.75" x="278.75" y="340.5334">-validationDate</text><!--MD5=[1c357e7e7fdba398bcadd6e61afe49f5]
class ReferenceValue--><rect codeLine="37" fill="#FEFECE" filter="url(#f1tjijuk1ff6wu)" height="101.8848" id="ReferenceValue" style="stroke:#A80036;stroke-width:1.875;" width="150" x="1270" y="8.75"/><ellipse cx="1288.75" cy="28.75" fill="#ADD1B2" rx="13.75" ry="13.75" style="stroke:#A80036;stroke-width:1.25;"/><path d="M1291.25,24.375 Q1291.5039,23.75 1291.7969,23.4375 Q1292.0898,23.125 1292.4219,23.125 Q1293.0078,23.125 1293.3789,23.4766 Q1293.75,23.8281 1293.75,24.6484 L1293.75,26.6016 Q1293.75,27.4219 1293.3984,27.7734 Q1293.0469,28.125 1292.5,28.125 Q1292.0117,28.125 1291.6992,27.9102 Q1291.3867,27.6953 1291.25,27.1289 Q1291.1914,26.7383 1290.9766,26.5234 Q1290.5859,26.1133 1289.8828,25.8789 Q1289.1797,25.625 1288.4766,25.625 Q1287.5977,25.625 1286.8555,25.9766 Q1286.1328,26.3281 1285.5664,27.1094 Q1285,27.8906 1285,28.9648 L1285,30.1172 Q1285,31.4063 1286.0547,32.2656 Q1287.1094,33.125 1288.9844,33.125 Q1290.0977,33.125 1290.8789,32.8711 Q1291.3281,32.7344 1291.8359,32.2852 Q1292.168,32.0313 1292.3438,31.9531 Q1292.5195,31.875 1292.7344,31.875 Q1293.1445,31.875 1293.4375,32.207 Q1293.75,32.5195 1293.75,32.9688 Q1293.75,33.3984 1293.3203,33.9063 Q1292.6953,34.6484 1291.6992,35.0586 Q1290.3906,35.625 1288.7891,35.625 Q1286.9141,35.625 1285.4102,34.8828 Q1284.1992,34.2969 1283.3398,33.0273 Q1282.5,31.7578 1282.5,30.2539 L1282.5,28.8867 Q1282.5,27.3242 1283.2422,25.957 Q1284.0039,24.5898 1285.3125,23.8672 Q1286.6406,23.125 1288.125,23.125 Q1289.0234,23.125 1289.8047,23.4375 Q1290.5859,23.75 1291.25,24.375 Z " fill="#000000"/><text fill="#000000" font-family="sans-serif" font-size="15" lengthAdjust="spacing" textLength="110" x="1306.25" y="34.8877">ReferenceValue</text><line style="stroke:#A80036;stroke-width:1.875;" x1="1271.25" x2="1418.75" y1="48.75" y2="48.75"/><text fill="#000000" font-family="sans-serif" font-size="13.75" lengthAdjust="spacing" textLength="60" x="1277.5" y="68.0237">-maximum</text><text fill="#000000" font-family="sans-serif" font-size="13.75" lengthAdjust="spacing" textLength="55" x="1277.5" y="85.3186">-minimum</text><text fill="#000000" font-family="sans-serif" font-size="13.75" lengthAdjust="spacing" textLength="41.25" x="1277.5" y="102.6135">-metric</text><!--MD5=[8f188b89eff49accb0f38c057b38a9f2]
class ExternalModule--><rect codeLine="43" fill="#FEFECE" filter="url(#f1tjijuk1ff6wu)" height="50" id="ExternalModule" style="stroke:#A80036;stroke-width:1.875;" width="145" x="1595" y="35"/><ellipse cx="1613.75" cy="55" fill="#ADD1B2" rx="13.75" ry="13.75" style="stroke:#A80036;stroke-width:1.25;"/><path d="M1616.25,50.625 Q1616.5039,50 1616.7969,49.6875 Q1617.0898,49.375 1617.4219,49.375 Q1618.0078,49.375 1618.3789,49.7266 Q1618.75,50.0781 1618.75,50.8984 L1618.75,52.8516 Q1618.75,53.6719 1618.3984,54.0234 Q1618.0469,54.375 1617.5,54.375 Q1617.0117,54.375 1616.6992,54.1602 Q1616.3867,53.9453 1616.25,53.3789 Q1616.1914,52.9883 1615.9766,52.7734 Q1615.5859,52.3633 1614.8828,52.1289 Q1614.1797,51.875 1613.4766,51.875 Q1612.5977,51.875 1611.8555,52.2266 Q1611.1328,52.5781 1610.5664,53.3594 Q1610,54.1406 1610,55.2148 L1610,56.3672 Q1610,57.6563 1611.0547,58.5156 Q1612.1094,59.375 1613.9844,59.375 Q1615.0977,59.375 1615.8789,59.1211 Q1616.3281,58.9844 1616.8359,58.5352 Q1617.168,58.2813 1617.3438,58.2031 Q1617.5195,58.125 1617.7344,58.125 Q1618.1445,58.125 1618.4375,58.457 Q1618.75,58.7695 1618.75,59.2188 Q1618.75,59.6484 1618.3203,60.1563 Q1617.6953,60.8984 1616.6992,61.3086 Q1615.3906,61.875 1613.7891,61.875 Q1611.9141,61.875 1610.4102,61.1328 Q1609.1992,60.5469 1608.3398,59.2773 Q1607.5,58.0078 1607.5,56.5039 L1607.5,55.1367 Q1607.5,53.5742 1608.2422,52.207 Q1609.0039,50.8398 1610.3125,50.1172 Q1611.6406,49.375 1613.125,49.375 Q1614.0234,49.375 1614.8047,49.6875 Q1615.5859,50 1616.25,50.625 Z " fill="#000000"/><text fill="#000000" font-family="sans-serif" font-size="15" lengthAdjust="spacing" textLength="105" x="1631.25" y="61.1377">ExternalModule</text><line style="stroke:#A80036;stroke-width:1.875;" x1="1596.25" x2="1738.75" y1="75" y2="75"/><!--MD5=[1f6362a5c8f21d8d6a0fce68f3a92a4e]
class Parameter--><rect codeLine="60" fill="#FEFECE" filter="url(#f1tjijuk1ff6wu)" height="101.8848" id="Parameter" style="stroke:#A80036;stroke-width:1.875;" width="112.5" x="972.5" y="168.75"/><ellipse cx="991.25" cy="188.75" fill="#ADD1B2" rx="13.75" ry="13.75" style="stroke:#A80036;stroke-width:1.25;"/><path d="M993.75,184.375 Q994.0039,183.75 994.2969,183.4375 Q994.5898,183.125 994.9219,183.125 Q995.5078,183.125 995.8789,183.4766 Q996.25,183.8281 996.25,184.6484 L996.25,186.6016 Q996.25,187.4219 995.8984,187.7734 Q995.5469,188.125 995,188.125 Q994.5117,188.125 994.1992,187.9102 Q993.8867,187.6953 993.75,187.1289 Q993.6914,186.7383 993.4766,186.5234 Q993.0859,186.1133 992.3828,185.8789 Q991.6797,185.625 990.9766,185.625 Q990.0977,185.625 989.3555,185.9766 Q988.6328,186.3281 988.0664,187.1094 Q987.5,187.8906 987.5,188.9648 L987.5,190.1172 Q987.5,191.4063 988.5547,192.2656 Q989.6094,193.125 991.4844,193.125 Q992.5977,193.125 993.3789,192.8711 Q993.8281,192.7344 994.3359,192.2852 Q994.668,192.0313 994.8438,191.9531 Q995.0195,191.875 995.2344,191.875 Q995.6445,191.875 995.9375,192.207 Q996.25,192.5195 996.25,192.9688 Q996.25,193.3984 995.8203,193.9063 Q995.1953,194.6484 994.1992,195.0586 Q992.8906,195.625 991.2891,195.625 Q989.4141,195.625 987.9102,194.8828 Q986.6992,194.2969 985.8398,193.0273 Q985,191.7578 985,190.2539 L985,188.8867 Q985,187.3242 985.7422,185.957 Q986.5039,184.5898 987.8125,183.8672 Q989.1406,183.125 990.625,183.125 Q991.5234,183.125 992.3047,183.4375 Q993.0859,183.75 993.75,184.375 Z " fill="#000000"/><text fill="#000000" font-family="sans-serif" font-size="15" lengthAdjust="spacing" textLength="72.5" x="1008.75" y="194.8877">Parameter</text><line style="stroke:#A80036;stroke-width:1.875;" x1="973.75" x2="1083.75" y1="208.75" y2="208.75"/><text fill="#000000" font-family="sans-serif" font-size="13.75" lengthAdjust="spacing" textLength="35" x="980" y="228.0237">-code</text><text fill="#000000" font-family="sans-serif" font-size="13.75" lengthAdjust="spacing" textLength="70" x="980" y="245.3186">-shortName</text><text fill="#000000" font-family="sans-serif" font-size="13.75" lengthAdjust="spacing" textLength="71.25" x="980" y="262.6135">-description</text><!--MD5=[0f07739f46effee96e095e9c408da841]
class TestParameter--><rect codeLine="12" fill="#FEFECE" filter="url(#f1tjijuk1ff6wu)" height="50" id="TestParameter" style="stroke:#A80036;stroke-width:1.875;" width="142.5" x="626.875" y="35"/><ellipse cx="645.625" cy="55" fill="#ADD1B2" rx="13.75" ry="13.75" style="stroke:#A80036;stroke-width:1.25;"/><path d="M648.125,50.625 Q648.3789,50 648.6719,49.6875 Q648.9648,49.375 649.2969,49.375 Q649.8828,49.375 650.2539,49.7266 Q650.625,50.0781 650.625,50.8984 L650.625,52.8516 Q650.625,53.6719 650.2734,54.0234 Q649.9219,54.375 649.375,54.375 Q648.8867,54.375 648.5742,54.1602 Q648.2617,53.9453 648.125,53.3789 Q648.0664,52.9883 647.8516,52.7734 Q647.4609,52.3633 646.7578,52.1289 Q646.0547,51.875 645.3516,51.875 Q644.4727,51.875 643.7305,52.2266 Q643.0078,52.5781 642.4414,53.3594 Q641.875,54.1406 641.875,55.2148 L641.875,56.3672 Q641.875,57.6563 642.9297,58.5156 Q643.9844,59.375 645.8594,59.375 Q646.9727,59.375 647.7539,59.1211 Q648.2031,58.9844 648.7109,58.5352 Q649.043,58.2813 649.2188,58.2031 Q649.3945,58.125 649.6094,58.125 Q650.0195,58.125 650.3125,58.457 Q650.625,58.7695 650.625,59.2188 Q650.625,59.6484 650.1953,60.1563 Q649.5703,60.8984 648.5742,61.3086 Q647.2656,61.875 645.6641,61.875 Q643.7891,61.875 642.2852,61.1328 Q641.0742,60.5469 640.2148,59.2773 Q639.375,58.0078 639.375,56.5039 L639.375,55.1367 Q639.375,53.5742 640.1172,52.207 Q640.8789,50.8398 642.1875,50.1172 Q643.5156,49.375 645,49.375 Q645.8984,49.375 646.6797,49.6875 Q647.4609,50 648.125,50.625 Z " fill="#000000"/><text fill="#000000" font-family="sans-serif" font-size="15" lengthAdjust="spacing" textLength="102.5" x="663.125" y="61.1377">TestParameter</text><line style="stroke:#A80036;stroke-width:1.875;" x1="628.125" x2="768.125" y1="75" y2="75"/><!--MD5=[4e608140b854dae633589343bce77383]
class TestParameterResult--><rect codeLine="66" fill="#FEFECE" filter="url(#f1tjijuk1ff6wu)" height="84.5898" id="TestParameterResult" style="stroke:#A80036;stroke-width:1.875;" width="187.5" x="935" y="17.5"/><ellipse cx="953.75" cy="37.5" fill="#ADD1B2" rx="13.75" ry="13.75" style="stroke:#A80036;stroke-width:1.25;"/><path d="M956.25,33.125 Q956.5039,32.5 956.7969,32.1875 Q957.0898,31.875 957.4219,31.875 Q958.0078,31.875 958.3789,32.2266 Q958.75,32.5781 958.75,33.3984 L958.75,35.3516 Q958.75,36.1719 958.3984,36.5234 Q958.0469,36.875 957.5,36.875 Q957.0117,36.875 956.6992,36.6602 Q956.3867,36.4453 956.25,35.8789 Q956.1914,35.4883 955.9766,35.2734 Q955.5859,34.8633 954.8828,34.6289 Q954.1797,34.375 953.4766,34.375 Q952.5977,34.375 951.8555,34.7266 Q951.1328,35.0781 950.5664,35.8594 Q950,36.6406 950,37.7148 L950,38.8672 Q950,40.1563 951.0547,41.0156 Q952.1094,41.875 953.9844,41.875 Q955.0977,41.875 955.8789,41.6211 Q956.3281,41.4844 956.8359,41.0352 Q957.168,40.7813 957.3438,40.7031 Q957.5195,40.625 957.7344,40.625 Q958.1445,40.625 958.4375,40.957 Q958.75,41.2695 958.75,41.7188 Q958.75,42.1484 958.3203,42.6563 Q957.6953,43.3984 956.6992,43.8086 Q955.3906,44.375 953.7891,44.375 Q951.9141,44.375 950.4102,43.6328 Q949.1992,43.0469 948.3398,41.7773 Q947.5,40.5078 947.5,39.0039 L947.5,37.6367 Q947.5,36.0742 948.2422,34.707 Q949.0039,33.3398 950.3125,32.6172 Q951.6406,31.875 953.125,31.875 Q954.0234,31.875 954.8047,32.1875 Q955.5859,32.5 956.25,33.125 Z " fill="#000000"/><text fill="#000000" font-family="sans-serif" font-size="15" lengthAdjust="spacing" textLength="147.5" x="971.25" y="43.6377">TestParameterResult</text><line style="stroke:#A80036;stroke-width:1.875;" x1="936.25" x2="1121.25" y1="57.5" y2="57.5"/><text fill="#000000" font-family="sans-serif" font-size="13.75" lengthAdjust="spacing" textLength="37.5" x="942.5" y="76.7737">-value</text><text fill="#000000" font-family="sans-serif" font-size="13.75" lengthAdjust="spacing" textLength="41.25" x="942.5" y="94.0686">-metric</text><!--MD5=[ed6624c6556d5e7b1bd23032162d20b7]
class Client--><rect codeLine="48" fill="#FEFECE" filter="url(#f1tjijuk1ff6wu)" height="205.6543" id="Client" style="stroke:#A80036;stroke-width:1.875;" width="103.75" x="976.875" y="360.625"/><ellipse cx="1006.3125" cy="380.625" fill="#ADD1B2" rx="13.75" ry="13.75" style="stroke:#A80036;stroke-width:1.25;"/><path d="M1008.8125,376.25 Q1009.0664,375.625 1009.3594,375.3125 Q1009.6523,375 1009.9844,375 Q1010.5703,375 1010.9414,375.3516 Q1011.3125,375.7031 1011.3125,376.5234 L1011.3125,378.4766 Q1011.3125,379.2969 1010.9609,379.6484 Q1010.6094,380 1010.0625,380 Q1009.5742,380 1009.2617,379.7852 Q1008.9492,379.5703 1008.8125,379.0039 Q1008.7539,378.6133 1008.5391,378.3984 Q1008.1484,377.9883 1007.4453,377.7539 Q1006.7422,377.5 1006.0391,377.5 Q1005.1602,377.5 1004.418,377.8516 Q1003.6953,378.2031 1003.1289,378.9844 Q1002.5625,379.7656 1002.5625,380.8398 L1002.5625,381.9922 Q1002.5625,383.2813 1003.6172,384.1406 Q1004.6719,385 1006.5469,385 Q1007.6602,385 1008.4414,384.7461 Q1008.8906,384.6094 1009.3984,384.1602 Q1009.7305,383.9063 1009.9063,383.8281 Q1010.082,383.75 1010.2969,383.75 Q1010.707,383.75 1011,384.082 Q1011.3125,384.3945 1011.3125,384.8438 Q1011.3125,385.2734 1010.8828,385.7813 Q1010.2578,386.5234 1009.2617,386.9336 Q1007.9531,387.5 1006.3516,387.5 Q1004.4766,387.5 1002.9727,386.7578 Q1001.7617,386.1719 1000.9023,384.9023 Q1000.0625,383.6328 1000.0625,382.1289 L1000.0625,380.7617 Q1000.0625,379.1992 1000.8047,377.832 Q1001.5664,376.4648 1002.875,375.7422 Q1004.2031,375 1005.6875,375 Q1006.5859,375 1007.3672,375.3125 Q1008.1484,375.625 1008.8125,376.25 Z " fill="#000000"/><text fill="#000000" font-family="sans-serif" font-size="15" lengthAdjust="spacing" textLength="40" x="1026.1875" y="386.7627">Client</text><line style="stroke:#A80036;stroke-width:1.875;" x1="978.125" x2="1079.375" y1="400.625" y2="400.625"/><text fill="#000000" font-family="sans-serif" font-size="13.75" lengthAdjust="spacing" textLength="37.5" x="984.375" y="419.8987">-name</text><text fill="#000000" font-family="sans-serif" font-size="13.75" lengthAdjust="spacing" textLength="27.5" x="984.375" y="437.1936">-ccn</text><text fill="#000000" font-family="sans-serif" font-size="13.75" lengthAdjust="spacing" textLength="27.5" x="984.375" y="454.4885">-nhs</text><text fill="#000000" font-family="sans-serif" font-size="13.75" lengthAdjust="spacing" textLength="18.75" x="984.375" y="471.7834">-tin</text><text fill="#000000" font-family="sans-serif" font-size="13.75" lengthAdjust="spacing" textLength="55" x="984.375" y="489.0784">-birthDay</text><text fill="#000000" font-family="sans-serif" font-size="13.75" lengthAdjust="spacing" textLength="27.5" x="984.375" y="506.3733">-sex</text><text fill="#000000" font-family="sans-serif" font-size="13.75" lengthAdjust="spacing" textLength="88.75" x="984.375" y="523.6682">-phoneNumber</text><text fill="#000000" font-family="sans-serif" font-size="13.75" lengthAdjust="spacing" textLength="35" x="984.375" y="540.9631">-email</text><text fill="#000000" font-family="sans-serif" font-size="13.75" lengthAdjust="spacing" textLength="55" x="984.375" y="558.2581">-address</text><ellipse cx="698.125" cy="220" fill="#000000" rx="2.5" ry="2.5" style="stroke:none;stroke-width:1.25;"/><!--MD5=[7e4bc624457760b649895ff2ead938fa]
link Company to Test--><path codeLine="16" d="M115.4875,288.75 C160.825,288.75 225.9875,288.75 270.9125,288.75 " fill="none" id="Company-Test" style="stroke:#A80036;stroke-width:1.25;"/><polygon fill="#000000" points="165,277.7197,153.6936,274.0461,153.6936,281.3934,165,277.7197" style="stroke:#000000;stroke-width:1.25;"/><text fill="#000000" font-family="sans-serif" font-size="16.25" lengthAdjust="spacing" textLength="62.5" x="170" y="284.3689">performs</text><text fill="#000000" font-family="sans-serif" font-size="16.25" lengthAdjust="spacing" textLength="8.75" x="125.0917" y="307.3285">1</text><text fill="#000000" font-family="sans-serif" font-size="16.25" lengthAdjust="spacing" textLength="6.25" x="255.1514" y="307.3385">*</text><!--MD5=[12d76240d3c3c66074d4ec2ea8bf469c]
link Company to Parameter--><path codeLine="17" d="M115.0875,262.8125 C156.3125,243.6375 215.9875,218.95 271.25,207.5 C509.1375,158.1875 574.6,191.95 817.5,187.5 C853.05,186.85 862.2125,183.15 897.5,187.5 C922.4375,190.575 949.475,196.8375 972.3875,203.05 " fill="none" id="Company-Parameter" style="stroke:#A80036;stroke-width:1.25;"/><polygon fill="#000000" points="424.9849,168.5351,413.4504,165.6566,413.9614,172.9861,424.9849,168.5351" style="stroke:#000000;stroke-width:1.25;"/><text fill="#000000" font-family="sans-serif" font-size="16.25" lengthAdjust="spacing" textLength="147.5" x="430" y="175.6189">capable of analysing</text><text fill="#000000" font-family="sans-serif" font-size="16.25" lengthAdjust="spacing" textLength="8.75" x="124.9854" y="276.9975">1</text><text fill="#000000" font-family="sans-serif" font-size="16.25" lengthAdjust="spacing" textLength="6.25" x="956.2849" y="218.8551">*</text><!--MD5=[1f394cf52074e34239adcf3a4834e5a4]
link Test to apoint14737--><path d="M375.0875,268.725 C387.2,264.5125 400.1875,260.4625 412.5,257.5 C528.7,229.5625 676.9625,221.05 695.0375,220.0875 " fill="none" id="Test-apoint14737" style="stroke:#A80036;stroke-width:1.25;"/><!--MD5=[3d684eeb5c830aa2b8b26d6fa389fbdf]
link apoint14737 to Parameter--><path d="M700.8375,220 C718.0875,220 883.575,220 972.1625,220 " fill="none" id="apoint14737-Parameter" style="stroke:#A80036;stroke-width:1.25;"/><!--MD5=[54d614baec648ce814d796e9d28b224a]
link apoint14737 to TestParameter--><path d="M698.125,217.5 C698.125,173.4125 698.125,129.3125 698.125,85.225 " fill="none" id="apoint14737-TestParameter" style="stroke:#A80036;stroke-width:1.25;stroke-dasharray:7.0,7.0;"/><!--MD5=[0e00e25ac6b8c14659aaff2cf7e5df08]
link TestParameter to TestParameterResult--><path codeLine="19" d="M769.7625,60 C817.975,60 882.4125,60 934.7875,60 " fill="none" id="TestParameter-TestParameterResult" style="stroke:#A80036;stroke-width:1.25;"/><polygon fill="#000000" points="830,48.9697,818.6936,45.2961,818.6936,52.6434,830,48.9697" style="stroke:#000000;stroke-width:1.25;"/><text fill="#000000" font-family="sans-serif" font-size="16.25" lengthAdjust="spacing" textLength="61.25" x="835" y="55.6189">contains</text><text fill="#000000" font-family="sans-serif" font-size="16.25" lengthAdjust="spacing" textLength="8.75" x="779.5016" y="78.1783">1</text><text fill="#000000" font-family="sans-serif" font-size="16.25" lengthAdjust="spacing" textLength="8.75" x="916.3574" y="77.8951">1</text><!--MD5=[52200cc2361fa0ac0481dd6ffcdb824b]
link TestParameterResult to ReferenceValue--><path codeLine="20" d="M1122.8625,60 C1169.6625,60 1225.6375,60 1269.525,60 " fill="none" id="TestParameterResult-ReferenceValue" style="stroke:#A80036;stroke-width:1.25;"/><polygon fill="#000000" points="1172.5,48.9697,1161.1936,45.2961,1161.1936,52.6434,1172.5,48.9697" style="stroke:#000000;stroke-width:1.25;"/><text fill="#000000" font-family="sans-serif" font-size="16.25" lengthAdjust="spacing" textLength="53.75" x="1177.5" y="55.6189">records</text><text fill="#000000" font-family="sans-serif" font-size="16.25" lengthAdjust="spacing" textLength="8.75" x="1132.5574" y="77.8951">1</text><text fill="#000000" font-family="sans-serif" font-size="16.25" lengthAdjust="spacing" textLength="8.75" x="1251.0433" y="78.1519">1</text><!--MD5=[9735660ec8fc5abdb8afe2aef285d6e2]
link ReferenceValue to ExternalModule--><path codeLine="21" d="M1420.0625,60 C1472.4875,60 1542.5,60 1594.4625,60 " fill="none" id="ReferenceValue-ExternalModule" style="stroke:#A80036;stroke-width:1.25;"/><polygon fill="#000000" points="1470,48.9697,1458.6936,45.2961,1458.6936,52.6434,1470,48.9697" style="stroke:#000000;stroke-width:1.25;"/><text fill="#000000" font-family="sans-serif" font-size="16.25" lengthAdjust="spacing" textLength="81.25" x="1475" y="55.6189">provided by</text><text fill="#000000" font-family="sans-serif" font-size="16.25" lengthAdjust="spacing" textLength="8.75" x="1430.2404" y="78.2177">1</text><text fill="#000000" font-family="sans-serif" font-size="16.25" lengthAdjust="spacing" textLength="6.25" x="1578.9302" y="78.1144">*</text><!--MD5=[6eee883fdf517d3604e8bd0f2058e9aa]
link Company to Client--><path codeLine="22" d="M115.4125,313.3 C156.8125,331.7125 216.5625,356.05 271.25,370 C531.1625,436.3125 853.7375,456.3875 976.6875,461.875 " fill="none" id="Company-Client" style="stroke:#A80036;stroke-width:1.25;"/><polygon fill="#000000" points="485.534,391.2822,475.0167,385.74,473.7677,392.9804,485.534,391.2822" style="stroke:#000000;stroke-width:1.25;"/><text fill="#000000" font-family="sans-serif" font-size="16.25" lengthAdjust="spacing" textLength="26.25" x="490.625" y="396.8689">has</text><text fill="#000000" font-family="sans-serif" font-size="16.25" lengthAdjust="spacing" textLength="8.75" x="125.0043" y="335.9446">1</text><text fill="#000000" font-family="sans-serif" font-size="16.25" lengthAdjust="spacing" textLength="6.25" x="960.6072" y="480.2834">*</text><!--MD5=[3994f36c72829dbcddd1cf7021dddf61]
link Test to Client--><path codeLine="23" d="M375.5125,301.475 C505.3875,333.8 846.8875,418.8 976.5625,451.075 " fill="none" id="Test-Client" style="stroke:#A80036;stroke-width:1.25;"/><polygon fill="#000000" points="654.19,351.7293,644.1056,345.4336,642.331,352.5634,654.19,351.7293" style="stroke:#000000;stroke-width:1.25;"/><text fill="#000000" font-family="sans-serif" font-size="16.25" lengthAdjust="spacing" textLength="93.75" x="659.375" y="356.8689">requested by</text><text fill="#000000" font-family="sans-serif" font-size="16.25" lengthAdjust="spacing" textLength="25" x="385.0429" y="321.6823">1..*</text><text fill="#000000" font-family="sans-serif" font-size="16.25" lengthAdjust="spacing" textLength="8.75" x="958.0908" y="444.1356">1</text><!--MD5=[c23963f6e403fc3ebec8dae22c30ade6]
link Test to Parameter--><path codeLine="24" d="M375.1375,288.75 C459.4875,288.2125 633.7375,284.85 780,267.5 C846.6875,259.5875 922.3875,244.0875 972.3125,232.9375 " fill="none" id="Test-Parameter" style="stroke:#A80036;stroke-width:1.25;"/><polygon fill="#000000" points="628.7229,255.8881,617.1237,253.2825,617.8074,260.598,628.7229,255.8881" style="stroke:#000000;stroke-width:1.25;"/><text fill="#000000" font-family="sans-serif" font-size="16.25" lengthAdjust="spacing" textLength="145" x="633.75" y="263.1189">requests analysis of</text><text fill="#000000" font-family="sans-serif" font-size="16.25" lengthAdjust="spacing" textLength="25" x="385.016" y="284.0884">1..*</text><text fill="#000000" font-family="sans-serif" font-size="16.25" lengthAdjust="spacing" textLength="25" x="937.6182" y="253.1061">1..*</text><!--MD5=[a4895a619698f0b346e679058014a4c4]
@startuml
'https://plantuml.com/class-diagram

hide methods
left to right direction
skinparam classAttributeIconSize 0

class Company
class Test
class ReferenceValue
interface ExternalModule
class Parameter
class TestParameter
class TestParameterResult
class Client

Company "1" - - "*" Test: performs >
Company "1" - - "*" Parameter: capable of analysing >
(Test, Parameter) . TestParameter
TestParameter "1" - - "1" TestParameterResult: contains >
TestParameterResult "1" - - "1" ReferenceValue: records >
ReferenceValue "1" - - "*" ExternalModule: provided by >
Company "1" - - "*" Client: has >
Test "1..*" - - - "1" Client: requested by >
Test "1..*" - - "1..*" Parameter: requests analysis of >

class Company {
 -designation
}

class Test {
 -code
 -nhsCode
 -date
 -validationDate
}

class ReferenceValue{
 -maximum
 -minimum
 -metric
}

class ExternalModule {


}

class Client{
 -name
 -ccn
 -nhs
 -tin
 -birthDay
 -sex
 -phoneNumber
 -email
 -address
}

class Parameter{
-code
-shortName
-description
}

class TestParameterResult{
-value
-metric
}

@enduml

@startuml

hide methods
left to right direction
skinparam classAttributeIconSize 0

class Company
class Test
class ReferenceValue
interface ExternalModule
class Parameter
class TestParameter
class TestParameterResult
class Client

Company "1" - - "*" Test: performs >
Company "1" - - "*" Parameter: capable of analysing >
(Test, Parameter) . TestParameter
TestParameter "1" - - "1" TestParameterResult: contains >
TestParameterResult "1" - - "1" ReferenceValue: records >
ReferenceValue "1" - - "*" ExternalModule: provided by >
Company "1" - - "*" Client: has >
Test "1..*" - - - "1" Client: requested by >
Test "1..*" - - "1..*" Parameter: requests analysis of >

class Company {
 -designation
}

class Test {
 -code
 -nhsCode
 -date
 -validationDate
}

class ReferenceValue{
 -maximum
 -minimum
 -metric
}

class ExternalModule {


}

class Client{
 -name
 -ccn
 -nhs
 -tin
 -birthDay
 -sex
 -phoneNumber
 -email
 -address
}

class Parameter{
-code
-shortName
-description
}

class TestParameterResult{
-value
-metric
}

@enduml

PlantUML version 1.2021.4(Sun Apr 04 09:49:39 BST 2021)
(GPL source distribution)
Java Runtime: OpenJDK Runtime Environment
JVM: Dynamic Code Evolution 64-Bit Server VM
Default Encoding: Cp1252
Language: pt
Country: PT
--></g></svg>