<?xml version="1.0" encoding="UTF-8" standalone="no"?><svg xmlns="http://www.w3.org/2000/svg" xmlns:xlink="http://www.w3.org/1999/xlink" contentScriptType="application/ecmascript" contentStyleType="text/css" height="1570px" preserveAspectRatio="none" style="width:1426px;height:1570px;" version="1.1" viewBox="0 0 1426 1570" width="1426.25px" zoomAndPan="magnify"><defs><filter height="300%" id="fgt6cro9r3h2c" width="300%" x="-1" y="-1"><feGaussianBlur result="blurOut" stdDeviation="2.5"/><feColorMatrix in="blurOut" result="blurOut2" type="matrix" values="0 0 0 0 0 0 0 0 0 0 0 0 0 0 0 0 0 0 .4 0"/><feOffset dx="5.0" dy="5.0" in="blurOut2" result="blurOut3"/><feBlend in="SourceGraphic" in2="blurOut3" mode="normal"/></filter></defs><g><!--MD5=[9681dc6e01e10c6b4fe06895ae94f592]
cluster UI--><polygon fill="#FFFFFF" filter="url(#fgt6cro9r3h2c)" points="413.75,7.5,438.75,7.5,447.5,37.0117,636.25,37.0117,636.25,132.5,413.75,132.5,413.75,7.5" style="stroke:#000000;stroke-width:1.875;"/><line style="stroke:#000000;stroke-width:1.875;" x1="413.75" x2="447.5" y1="37.0117" y2="37.0117"/><text fill="#000000" font-family="sans-serif" font-size="17.5" font-weight="bold" lengthAdjust="spacing" textLength="17.5" x="418.75" y="28.1665">UI</text><!--MD5=[1f2cfc53d9d308f53762fd0fcbaa4873]
cluster Controller--><polygon fill="#FFFFFF" filter="url(#fgt6cro9r3h2c)" points="387.5,173.75,483.75,173.75,492.5,203.2617,662.5,203.2617,662.5,351.25,387.5,351.25,387.5,173.75" style="stroke:#000000;stroke-width:1.875;"/><line style="stroke:#000000;stroke-width:1.875;" x1="387.5" x2="492.5" y1="203.2617" y2="203.2617"/><text fill="#000000" font-family="sans-serif" font-size="17.5" font-weight="bold" lengthAdjust="spacing" textLength="88.75" x="392.5" y="194.4165">Controller</text><!--MD5=[32ff0bc6350c7c18bc045f793eb2f657]
cluster Mapper--><polygon fill="#FFFFFF" filter="url(#fgt6cro9r3h2c)" points="646.25,401.25,721.25,401.25,730,430.7617,1328.75,430.7617,1328.75,543.75,646.25,543.75,646.25,401.25" style="stroke:#000000;stroke-width:1.875;"/><line style="stroke:#000000;stroke-width:1.875;" x1="646.25" x2="730" y1="430.7617" y2="430.7617"/><text fill="#000000" font-family="sans-serif" font-size="17.5" font-weight="bold" lengthAdjust="spacing" textLength="67.5" x="651.25" y="421.9165">Mapper</text><!--MD5=[acb0c8402f85a957a6e5910fb75f4576]
cluster Auth--><polygon fill="#FFFFFF" filter="url(#fgt6cro9r3h2c)" points="20,638.125,67.5,638.125,76.25,667.6367,235,667.6367,235,992.5,20,992.5,20,638.125" style="stroke:#000000;stroke-width:1.875;"/><line style="stroke:#000000;stroke-width:1.875;" x1="20" x2="76.25" y1="667.6367" y2="667.6367"/><text fill="#000000" font-family="sans-serif" font-size="17.5" font-weight="bold" lengthAdjust="spacing" textLength="40" x="25" y="658.7915">Auth</text><!--MD5=[121a8bf1197281ab89ed693fab589f94]
cluster Domain--><polygon fill="#FFFFFF" filter="url(#fgt6cro9r3h2c)" points="323.75,392.5,396.25,392.5,405,422.0117,616.25,422.0117,616.25,1561.25,323.75,1561.25,323.75,392.5" style="stroke:#000000;stroke-width:1.875;"/><line style="stroke:#000000;stroke-width:1.875;" x1="323.75" x2="405" y1="422.0117" y2="422.0117"/><text fill="#000000" font-family="sans-serif" font-size="17.5" font-weight="bold" lengthAdjust="spacing" textLength="65" x="328.75" y="413.1665">Domain</text><!--MD5=[a7e26d82dece3a99be33d8557e72e039]
cluster Dto--><polygon fill="#FFFFFF" filter="url(#fgt6cro9r3h2c)" points="646.25,612.5,683.75,612.5,692.5,642.0117,1405,642.0117,1405,806.25,646.25,806.25,646.25,612.5" style="stroke:#000000;stroke-width:1.875;"/><line style="stroke:#000000;stroke-width:1.875;" x1="646.25" x2="692.5" y1="642.0117" y2="642.0117"/><text fill="#000000" font-family="sans-serif" font-size="17.5" font-weight="bold" lengthAdjust="spacing" textLength="30" x="651.25" y="633.1665">Dto</text><!--MD5=[f3f78f1617ae449f4b3008a79b2f3beb]
class CheckTestResultsUI--><rect codeLine="6" fill="#FEFECE" filter="url(#fgt6cro9r3h2c)" height="60" id="CheckTestResultsUI" style="stroke:#A80036;stroke-width:1.875;" width="182.5" x="433.75" y="52.5"/><ellipse cx="452.5" cy="72.5" fill="#ADD1B2" rx="13.75" ry="13.75" style="stroke:#A80036;stroke-width:1.25;"/><path d="M455,68.125 Q455.2539,67.5 455.5469,67.1875 Q455.8398,66.875 456.1719,66.875 Q456.7578,66.875 457.1289,67.2266 Q457.5,67.5781 457.5,68.3984 L457.5,70.3516 Q457.5,71.1719 457.1484,71.5234 Q456.7969,71.875 456.25,71.875 Q455.7617,71.875 455.4492,71.6602 Q455.1367,71.4453 455,70.8789 Q454.9414,70.4883 454.7266,70.2734 Q454.3359,69.8633 453.6328,69.6289 Q452.9297,69.375 452.2266,69.375 Q451.3477,69.375 450.6055,69.7266 Q449.8828,70.0781 449.3164,70.8594 Q448.75,71.6406 448.75,72.7148 L448.75,73.8672 Q448.75,75.1563 449.8047,76.0156 Q450.8594,76.875 452.7344,76.875 Q453.8477,76.875 454.6289,76.6211 Q455.0781,76.4844 455.5859,76.0352 Q455.918,75.7813 456.0938,75.7031 Q456.2695,75.625 456.4844,75.625 Q456.8945,75.625 457.1875,75.957 Q457.5,76.2695 457.5,76.7188 Q457.5,77.1484 457.0703,77.6563 Q456.4453,78.3984 455.4492,78.8086 Q454.1406,79.375 452.5391,79.375 Q450.6641,79.375 449.1602,78.6328 Q447.9492,78.0469 447.0898,76.7773 Q446.25,75.5078 446.25,74.0039 L446.25,72.6367 Q446.25,71.0742 446.9922,69.707 Q447.7539,68.3398 449.0625,67.6172 Q450.3906,66.875 451.875,66.875 Q452.7734,66.875 453.5547,67.1875 Q454.3359,67.5 455,68.125 Z " fill="#000000"/><text fill="#000000" font-family="sans-serif" font-size="15" lengthAdjust="spacing" textLength="142.5" x="470" y="78.6377">CheckTestResultsUI</text><line style="stroke:#A80036;stroke-width:1.875;" x1="435" x2="615" y1="92.5" y2="92.5"/><line style="stroke:#A80036;stroke-width:1.875;" x1="435" x2="615" y1="102.5" y2="102.5"/><!--MD5=[75fe0f929de49b1e011e8275784dd507]
class CheckTestResultsController--><rect codeLine="38" fill="#FEFECE" filter="url(#fgt6cro9r3h2c)" height="111.8848" id="CheckTestResultsController" style="stroke:#A80036;stroke-width:1.875;" width="235" x="407.5" y="218.75"/><ellipse cx="426.25" cy="238.75" fill="#ADD1B2" rx="13.75" ry="13.75" style="stroke:#A80036;stroke-width:1.25;"/><path d="M428.75,234.375 Q429.0039,233.75 429.2969,233.4375 Q429.5898,233.125 429.9219,233.125 Q430.5078,233.125 430.8789,233.4766 Q431.25,233.8281 431.25,234.6484 L431.25,236.6016 Q431.25,237.4219 430.8984,237.7734 Q430.5469,238.125 430,238.125 Q429.5117,238.125 429.1992,237.9102 Q428.8867,237.6953 428.75,237.1289 Q428.6914,236.7383 428.4766,236.5234 Q428.0859,236.1133 427.3828,235.8789 Q426.6797,235.625 425.9766,235.625 Q425.0977,235.625 424.3555,235.9766 Q423.6328,236.3281 423.0664,237.1094 Q422.5,237.8906 422.5,238.9648 L422.5,240.1172 Q422.5,241.4063 423.5547,242.2656 Q424.6094,243.125 426.4844,243.125 Q427.5977,243.125 428.3789,242.8711 Q428.8281,242.7344 429.3359,242.2852 Q429.668,242.0313 429.8438,241.9531 Q430.0195,241.875 430.2344,241.875 Q430.6445,241.875 430.9375,242.207 Q431.25,242.5195 431.25,242.9688 Q431.25,243.3984 430.8203,243.9063 Q430.1953,244.6484 429.1992,245.0586 Q427.8906,245.625 426.2891,245.625 Q424.4141,245.625 422.9102,244.8828 Q421.6992,244.2969 420.8398,243.0273 Q420,241.7578 420,240.2539 L420,238.8867 Q420,237.3242 420.7422,235.957 Q421.5039,234.5898 422.8125,233.8672 Q424.1406,233.125 425.625,233.125 Q426.5234,233.125 427.3047,233.4375 Q428.0859,233.75 428.75,234.375 Z " fill="#000000"/><text fill="#000000" font-family="sans-serif" font-size="15" lengthAdjust="spacing" textLength="195" x="443.75" y="244.8877">CheckTestResultsController</text><line style="stroke:#A80036;stroke-width:1.875;" x1="408.75" x2="641.25" y1="258.75" y2="258.75"/><line style="stroke:#A80036;stroke-width:1.875;" x1="408.75" x2="641.25" y1="268.75" y2="268.75"/><text fill="#000000" font-family="sans-serif" font-size="13.75" lengthAdjust="spacing" textLength="70" x="415" y="288.0237">+getTests()</text><text fill="#000000" font-family="sans-serif" font-size="13.75" lengthAdjust="spacing" textLength="153.75" x="415" y="305.3186">+getTestParameter(code)</text><text fill="#000000" font-family="sans-serif" font-size="13.75" lengthAdjust="spacing" textLength="157.5" x="415" y="322.6135">+getResult(testParameter)</text><!--MD5=[144698ec4d0188f6929a3b58a3eeb1f6]
class TestMapper--><rect codeLine="67" fill="#FEFECE" filter="url(#fgt6cro9r3h2c)" height="77.2949" id="TestMapper" style="stroke:#A80036;stroke-width:1.875;" width="121.25" x="666.875" y="446.25"/><ellipse cx="685.625" cy="466.25" fill="#ADD1B2" rx="13.75" ry="13.75" style="stroke:#A80036;stroke-width:1.25;"/><path d="M688.125,461.875 Q688.3789,461.25 688.6719,460.9375 Q688.9648,460.625 689.2969,460.625 Q689.8828,460.625 690.2539,460.9766 Q690.625,461.3281 690.625,462.1484 L690.625,464.1016 Q690.625,464.9219 690.2734,465.2734 Q689.9219,465.625 689.375,465.625 Q688.8867,465.625 688.5742,465.4102 Q688.2617,465.1953 688.125,464.6289 Q688.0664,464.2383 687.8516,464.0234 Q687.4609,463.6133 686.7578,463.3789 Q686.0547,463.125 685.3516,463.125 Q684.4727,463.125 683.7305,463.4766 Q683.0078,463.8281 682.4414,464.6094 Q681.875,465.3906 681.875,466.4648 L681.875,467.6172 Q681.875,468.9063 682.9297,469.7656 Q683.9844,470.625 685.8594,470.625 Q686.9727,470.625 687.7539,470.3711 Q688.2031,470.2344 688.7109,469.7852 Q689.043,469.5313 689.2188,469.4531 Q689.3945,469.375 689.6094,469.375 Q690.0195,469.375 690.3125,469.707 Q690.625,470.0195 690.625,470.4688 Q690.625,470.8984 690.1953,471.4063 Q689.5703,472.1484 688.5742,472.5586 Q687.2656,473.125 685.6641,473.125 Q683.7891,473.125 682.2852,472.3828 Q681.0742,471.7969 680.2148,470.5273 Q679.375,469.2578 679.375,467.7539 L679.375,466.3867 Q679.375,464.8242 680.1172,463.457 Q680.8789,462.0898 682.1875,461.3672 Q683.5156,460.625 685,460.625 Q685.8984,460.625 686.6797,460.9375 Q687.4609,461.25 688.125,461.875 Z " fill="#000000"/><text fill="#000000" font-family="sans-serif" font-size="15" lengthAdjust="spacing" textLength="81.25" x="703.125" y="472.3877">TestMapper</text><line style="stroke:#A80036;stroke-width:1.875;" x1="668.125" x2="786.875" y1="486.25" y2="486.25"/><line style="stroke:#A80036;stroke-width:1.875;" x1="668.125" x2="786.875" y1="496.25" y2="496.25"/><text fill="#000000" font-family="sans-serif" font-size="13.75" lengthAdjust="spacing" textLength="48.75" x="674.375" y="515.5237">+toDto()</text><!--MD5=[a82d32c079496d6dca2681dc0633feb0]
class TestParameterMapper--><rect codeLine="71" fill="#FEFECE" filter="url(#fgt6cro9r3h2c)" height="77.2949" id="TestParameterMapper" style="stroke:#A80036;stroke-width:1.875;" width="193.75" x="831.875" y="446.25"/><ellipse cx="850.625" cy="466.25" fill="#ADD1B2" rx="13.75" ry="13.75" style="stroke:#A80036;stroke-width:1.25;"/><path d="M853.125,461.875 Q853.3789,461.25 853.6719,460.9375 Q853.9648,460.625 854.2969,460.625 Q854.8828,460.625 855.2539,460.9766 Q855.625,461.3281 855.625,462.1484 L855.625,464.1016 Q855.625,464.9219 855.2734,465.2734 Q854.9219,465.625 854.375,465.625 Q853.8867,465.625 853.5742,465.4102 Q853.2617,465.1953 853.125,464.6289 Q853.0664,464.2383 852.8516,464.0234 Q852.4609,463.6133 851.7578,463.3789 Q851.0547,463.125 850.3516,463.125 Q849.4727,463.125 848.7305,463.4766 Q848.0078,463.8281 847.4414,464.6094 Q846.875,465.3906 846.875,466.4648 L846.875,467.6172 Q846.875,468.9063 847.9297,469.7656 Q848.9844,470.625 850.8594,470.625 Q851.9727,470.625 852.7539,470.3711 Q853.2031,470.2344 853.7109,469.7852 Q854.043,469.5313 854.2188,469.4531 Q854.3945,469.375 854.6094,469.375 Q855.0195,469.375 855.3125,469.707 Q855.625,470.0195 855.625,470.4688 Q855.625,470.8984 855.1953,471.4063 Q854.5703,472.1484 853.5742,472.5586 Q852.2656,473.125 850.6641,473.125 Q848.7891,473.125 847.2852,472.3828 Q846.0742,471.7969 845.2148,470.5273 Q844.375,469.2578 844.375,467.7539 L844.375,466.3867 Q844.375,464.8242 845.1172,463.457 Q845.8789,462.0898 847.1875,461.3672 Q848.5156,460.625 850,460.625 Q850.8984,460.625 851.6797,460.9375 Q852.4609,461.25 853.125,461.875 Z " fill="#000000"/><text fill="#000000" font-family="sans-serif" font-size="15" lengthAdjust="spacing" textLength="153.75" x="868.125" y="472.3877">TestParameterMapper</text><line style="stroke:#A80036;stroke-width:1.875;" x1="833.125" x2="1024.375" y1="486.25" y2="486.25"/><line style="stroke:#A80036;stroke-width:1.875;" x1="833.125" x2="1024.375" y1="496.25" y2="496.25"/><text fill="#000000" font-family="sans-serif" font-size="13.75" lengthAdjust="spacing" textLength="48.75" x="839.375" y="515.5237">+toDto()</text><!--MD5=[79c31928469f30619eb8fec47d55137b]
class TestParameterResultMapper--><rect codeLine="75" fill="#FEFECE" filter="url(#fgt6cro9r3h2c)" height="77.2949" id="TestParameterResultMapper" style="stroke:#A80036;stroke-width:1.875;" width="238.75" x="1069.375" y="446.25"/><ellipse cx="1088.125" cy="466.25" fill="#ADD1B2" rx="13.75" ry="13.75" style="stroke:#A80036;stroke-width:1.25;"/><path d="M1090.625,461.875 Q1090.8789,461.25 1091.1719,460.9375 Q1091.4648,460.625 1091.7969,460.625 Q1092.3828,460.625 1092.7539,460.9766 Q1093.125,461.3281 1093.125,462.1484 L1093.125,464.1016 Q1093.125,464.9219 1092.7734,465.2734 Q1092.4219,465.625 1091.875,465.625 Q1091.3867,465.625 1091.0742,465.4102 Q1090.7617,465.1953 1090.625,464.6289 Q1090.5664,464.2383 1090.3516,464.0234 Q1089.9609,463.6133 1089.2578,463.3789 Q1088.5547,463.125 1087.8516,463.125 Q1086.9727,463.125 1086.2305,463.4766 Q1085.5078,463.8281 1084.9414,464.6094 Q1084.375,465.3906 1084.375,466.4648 L1084.375,467.6172 Q1084.375,468.9063 1085.4297,469.7656 Q1086.4844,470.625 1088.3594,470.625 Q1089.4727,470.625 1090.2539,470.3711 Q1090.7031,470.2344 1091.2109,469.7852 Q1091.543,469.5313 1091.7188,469.4531 Q1091.8945,469.375 1092.1094,469.375 Q1092.5195,469.375 1092.8125,469.707 Q1093.125,470.0195 1093.125,470.4688 Q1093.125,470.8984 1092.6953,471.4063 Q1092.0703,472.1484 1091.0742,472.5586 Q1089.7656,473.125 1088.1641,473.125 Q1086.2891,473.125 1084.7852,472.3828 Q1083.5742,471.7969 1082.7148,470.5273 Q1081.875,469.2578 1081.875,467.7539 L1081.875,466.3867 Q1081.875,464.8242 1082.6172,463.457 Q1083.3789,462.0898 1084.6875,461.3672 Q1086.0156,460.625 1087.5,460.625 Q1088.3984,460.625 1089.1797,460.9375 Q1089.9609,461.25 1090.625,461.875 Z " fill="#000000"/><text fill="#000000" font-family="sans-serif" font-size="15" lengthAdjust="spacing" textLength="198.75" x="1105.625" y="472.3877">TestParameterResultMapper</text><line style="stroke:#A80036;stroke-width:1.875;" x1="1070.625" x2="1306.875" y1="486.25" y2="486.25"/><line style="stroke:#A80036;stroke-width:1.875;" x1="1070.625" x2="1306.875" y1="496.25" y2="496.25"/><text fill="#000000" font-family="sans-serif" font-size="13.75" lengthAdjust="spacing" textLength="48.75" x="1076.875" y="515.5237">+toDto()</text><!--MD5=[8ae808d068a8995f06b9b3ec51357f0b]
class AuthFacade--><rect codeLine="44" fill="#FEFECE" filter="url(#fgt6cro9r3h2c)" height="77.2949" id="AuthFacade" style="stroke:#A80036;stroke-width:1.875;" width="173.75" x="40.625" y="683.125"/><ellipse cx="83" cy="703.125" fill="#ADD1B2" rx="13.75" ry="13.75" style="stroke:#A80036;stroke-width:1.25;"/><path d="M85.5,698.75 Q85.7539,698.125 86.0469,697.8125 Q86.3398,697.5 86.6719,697.5 Q87.2578,697.5 87.6289,697.8516 Q88,698.2031 88,699.0234 L88,700.9766 Q88,701.7969 87.6484,702.1484 Q87.2969,702.5 86.75,702.5 Q86.2617,702.5 85.9492,702.2852 Q85.6367,702.0703 85.5,701.5039 Q85.4414,701.1133 85.2266,700.8984 Q84.8359,700.4883 84.1328,700.2539 Q83.4297,700 82.7266,700 Q81.8477,700 81.1055,700.3516 Q80.3828,700.7031 79.8164,701.4844 Q79.25,702.2656 79.25,703.3398 L79.25,704.4922 Q79.25,705.7813 80.3047,706.6406 Q81.3594,707.5 83.2344,707.5 Q84.3477,707.5 85.1289,707.2461 Q85.5781,707.1094 86.0859,706.6602 Q86.418,706.4063 86.5938,706.3281 Q86.7695,706.25 86.9844,706.25 Q87.3945,706.25 87.6875,706.582 Q88,706.8945 88,707.3438 Q88,707.7734 87.5703,708.2813 Q86.9453,709.0234 85.9492,709.4336 Q84.6406,710 83.0391,710 Q81.1641,710 79.6602,709.2578 Q78.4492,708.6719 77.5898,707.4023 Q76.75,706.1328 76.75,704.6289 L76.75,703.2617 Q76.75,701.6992 77.4922,700.332 Q78.2539,698.9648 79.5625,698.2422 Q80.8906,697.5 82.375,697.5 Q83.2734,697.5 84.0547,697.8125 Q84.8359,698.125 85.5,698.75 Z " fill="#000000"/><text fill="#000000" font-family="sans-serif" font-size="15" lengthAdjust="spacing" textLength="81.25" x="105.75" y="709.2627">AuthFacade</text><line style="stroke:#A80036;stroke-width:1.875;" x1="41.875" x2="213.125" y1="723.125" y2="723.125"/><line style="stroke:#A80036;stroke-width:1.875;" x1="41.875" x2="213.125" y1="733.125" y2="733.125"/><text fill="#000000" font-family="sans-serif" font-size="13.75" lengthAdjust="spacing" textLength="158.75" x="48.125" y="752.3987">+getCurrentUserSession()</text><!--MD5=[c5b08e60048ef1bcd788d24cf324082e]
class UserSession--><rect codeLine="48" fill="#FEFECE" filter="url(#fgt6cro9r3h2c)" height="77.2949" id="UserSession" style="stroke:#A80036;stroke-width:1.875;" width="131.25" x="73.125" y="895"/><ellipse cx="91.875" cy="915" fill="#ADD1B2" rx="13.75" ry="13.75" style="stroke:#A80036;stroke-width:1.25;"/><path d="M94.375,910.625 Q94.6289,910 94.9219,909.6875 Q95.2148,909.375 95.5469,909.375 Q96.1328,909.375 96.5039,909.7266 Q96.875,910.0781 96.875,910.8984 L96.875,912.8516 Q96.875,913.6719 96.5234,914.0234 Q96.1719,914.375 95.625,914.375 Q95.1367,914.375 94.8242,914.1602 Q94.5117,913.9453 94.375,913.3789 Q94.3164,912.9883 94.1016,912.7734 Q93.7109,912.3633 93.0078,912.1289 Q92.3047,911.875 91.6016,911.875 Q90.7227,911.875 89.9805,912.2266 Q89.2578,912.5781 88.6914,913.3594 Q88.125,914.1406 88.125,915.2148 L88.125,916.3672 Q88.125,917.6563 89.1797,918.5156 Q90.2344,919.375 92.1094,919.375 Q93.2227,919.375 94.0039,919.1211 Q94.4531,918.9844 94.9609,918.5352 Q95.293,918.2813 95.4688,918.2031 Q95.6445,918.125 95.8594,918.125 Q96.2695,918.125 96.5625,918.457 Q96.875,918.7695 96.875,919.2188 Q96.875,919.6484 96.4453,920.1563 Q95.8203,920.8984 94.8242,921.3086 Q93.5156,921.875 91.9141,921.875 Q90.0391,921.875 88.5352,921.1328 Q87.3242,920.5469 86.4648,919.2773 Q85.625,918.0078 85.625,916.5039 L85.625,915.1367 Q85.625,913.5742 86.3672,912.207 Q87.1289,910.8398 88.4375,910.1172 Q89.7656,909.375 91.25,909.375 Q92.1484,909.375 92.9297,909.6875 Q93.7109,910 94.375,910.625 Z " fill="#000000"/><text fill="#000000" font-family="sans-serif" font-size="15" lengthAdjust="spacing" textLength="91.25" x="109.375" y="921.1377">UserSession</text><line style="stroke:#A80036;stroke-width:1.875;" x1="74.375" x2="203.125" y1="935" y2="935"/><line style="stroke:#A80036;stroke-width:1.875;" x1="74.375" x2="203.125" y1="945" y2="945"/><text fill="#000000" font-family="sans-serif" font-size="13.75" lengthAdjust="spacing" textLength="75" x="80.625" y="964.2737">+getUserId()</text><!--MD5=[02e4b9b7573f1156f41e60aa5b4e25a4]
class Company--><rect codeLine="52" fill="#FEFECE" filter="url(#fgt6cro9r3h2c)" height="94.5898" id="Company" style="stroke:#A80036;stroke-width:1.875;" width="110" x="348.75" y="437.5"/><ellipse cx="369.1875" cy="457.5" fill="#ADD1B2" rx="13.75" ry="13.75" style="stroke:#A80036;stroke-width:1.25;"/><path d="M371.6875,453.125 Q371.9414,452.5 372.2344,452.1875 Q372.5273,451.875 372.8594,451.875 Q373.4453,451.875 373.8164,452.2266 Q374.1875,452.5781 374.1875,453.3984 L374.1875,455.3516 Q374.1875,456.1719 373.8359,456.5234 Q373.4844,456.875 372.9375,456.875 Q372.4492,456.875 372.1367,456.6602 Q371.8242,456.4453 371.6875,455.8789 Q371.6289,455.4883 371.4141,455.2734 Q371.0234,454.8633 370.3203,454.6289 Q369.6172,454.375 368.9141,454.375 Q368.0352,454.375 367.293,454.7266 Q366.5703,455.0781 366.0039,455.8594 Q365.4375,456.6406 365.4375,457.7148 L365.4375,458.8672 Q365.4375,460.1563 366.4922,461.0156 Q367.5469,461.875 369.4219,461.875 Q370.5352,461.875 371.3164,461.6211 Q371.7656,461.4844 372.2734,461.0352 Q372.6055,460.7813 372.7813,460.7031 Q372.957,460.625 373.1719,460.625 Q373.582,460.625 373.875,460.957 Q374.1875,461.2695 374.1875,461.7188 Q374.1875,462.1484 373.7578,462.6563 Q373.1328,463.3984 372.1367,463.8086 Q370.8281,464.375 369.2266,464.375 Q367.3516,464.375 365.8477,463.6328 Q364.6367,463.0469 363.7773,461.7773 Q362.9375,460.5078 362.9375,459.0039 L362.9375,457.6367 Q362.9375,456.0742 363.6797,454.707 Q364.4414,453.3398 365.75,452.6172 Q367.0781,451.875 368.5625,451.875 Q369.4609,451.875 370.2422,452.1875 Q371.0234,452.5 371.6875,453.125 Z " fill="#000000"/><text fill="#000000" font-family="sans-serif" font-size="15" lengthAdjust="spacing" textLength="66.25" x="387.0625" y="463.6377">Company</text><line style="stroke:#A80036;stroke-width:1.875;" x1="350" x2="457.5" y1="477.5" y2="477.5"/><line style="stroke:#A80036;stroke-width:1.875;" x1="350" x2="457.5" y1="487.5" y2="487.5"/><text fill="#000000" font-family="sans-serif" font-size="13.75" lengthAdjust="spacing" textLength="95" x="356.25" y="506.7737">+getTestStore()</text><text fill="#000000" font-family="sans-serif" font-size="13.75" lengthAdjust="spacing" textLength="62.5" x="356.25" y="524.0686">+getTest()</text><!--MD5=[df38be88ccee13e832d6fafd6288a4ca]
class Test--><rect codeLine="57" fill="#FEFECE" filter="url(#fgt6cro9r3h2c)" height="94.5898" id="Test" style="stroke:#A80036;stroke-width:1.875;" width="252.5" x="343.75" y="886.25"/><ellipse cx="449.6875" cy="906.25" fill="#ADD1B2" rx="13.75" ry="13.75" style="stroke:#A80036;stroke-width:1.25;"/><path d="M452.1875,901.875 Q452.4414,901.25 452.7344,900.9375 Q453.0273,900.625 453.3594,900.625 Q453.9453,900.625 454.3164,900.9766 Q454.6875,901.3281 454.6875,902.1484 L454.6875,904.1016 Q454.6875,904.9219 454.3359,905.2734 Q453.9844,905.625 453.4375,905.625 Q452.9492,905.625 452.6367,905.4102 Q452.3242,905.1953 452.1875,904.6289 Q452.1289,904.2383 451.9141,904.0234 Q451.5234,903.6133 450.8203,903.3789 Q450.1172,903.125 449.4141,903.125 Q448.5352,903.125 447.793,903.4766 Q447.0703,903.8281 446.5039,904.6094 Q445.9375,905.3906 445.9375,906.4648 L445.9375,907.6172 Q445.9375,908.9063 446.9922,909.7656 Q448.0469,910.625 449.9219,910.625 Q451.0352,910.625 451.8164,910.3711 Q452.2656,910.2344 452.7734,909.7852 Q453.1055,909.5313 453.2813,909.4531 Q453.457,909.375 453.6719,909.375 Q454.082,909.375 454.375,909.707 Q454.6875,910.0195 454.6875,910.4688 Q454.6875,910.8984 454.2578,911.4063 Q453.6328,912.1484 452.6367,912.5586 Q451.3281,913.125 449.7266,913.125 Q447.8516,913.125 446.3477,912.3828 Q445.1367,911.7969 444.2773,910.5273 Q443.4375,909.2578 443.4375,907.7539 L443.4375,906.3867 Q443.4375,904.8242 444.1797,903.457 Q444.9414,902.0898 446.25,901.3672 Q447.5781,900.625 449.0625,900.625 Q449.9609,900.625 450.7422,900.9375 Q451.5234,901.25 452.1875,901.875 Z " fill="#000000"/><text fill="#000000" font-family="sans-serif" font-size="15" lengthAdjust="spacing" textLength="30" x="475.3125" y="912.3877">Test</text><line style="stroke:#A80036;stroke-width:1.875;" x1="345" x2="595" y1="926.25" y2="926.25"/><line style="stroke:#A80036;stroke-width:1.875;" x1="345" x2="595" y1="936.25" y2="936.25"/><text fill="#000000" font-family="sans-serif" font-size="13.75" lengthAdjust="spacing" textLength="145" x="351.25" y="955.5237">+getTestParameterList()</text><text fill="#000000" font-family="sans-serif" font-size="13.75" lengthAdjust="spacing" textLength="237.5" x="351.25" y="972.8186">getTestParameterResult(testParameter)</text><!--MD5=[0f6f7964b844a64b0496af0dda7914bd]
class TestStore--><rect codeLine="63" fill="#FEFECE" filter="url(#fgt6cro9r3h2c)" height="77.2949" id="TestStore" style="stroke:#A80036;stroke-width:1.875;" width="143.75" x="433.125" y="683.125"/><ellipse cx="468.75" cy="703.125" fill="#ADD1B2" rx="13.75" ry="13.75" style="stroke:#A80036;stroke-width:1.25;"/><path d="M471.25,698.75 Q471.5039,698.125 471.7969,697.8125 Q472.0898,697.5 472.4219,697.5 Q473.0078,697.5 473.3789,697.8516 Q473.75,698.2031 473.75,699.0234 L473.75,700.9766 Q473.75,701.7969 473.3984,702.1484 Q473.0469,702.5 472.5,702.5 Q472.0117,702.5 471.6992,702.2852 Q471.3867,702.0703 471.25,701.5039 Q471.1914,701.1133 470.9766,700.8984 Q470.5859,700.4883 469.8828,700.2539 Q469.1797,700 468.4766,700 Q467.5977,700 466.8555,700.3516 Q466.1328,700.7031 465.5664,701.4844 Q465,702.2656 465,703.3398 L465,704.4922 Q465,705.7813 466.0547,706.6406 Q467.1094,707.5 468.9844,707.5 Q470.0977,707.5 470.8789,707.2461 Q471.3281,707.1094 471.8359,706.6602 Q472.168,706.4063 472.3438,706.3281 Q472.5195,706.25 472.7344,706.25 Q473.1445,706.25 473.4375,706.582 Q473.75,706.8945 473.75,707.3438 Q473.75,707.7734 473.3203,708.2813 Q472.6953,709.0234 471.6992,709.4336 Q470.3906,710 468.7891,710 Q466.9141,710 465.4102,709.2578 Q464.1992,708.6719 463.3398,707.4023 Q462.5,706.1328 462.5,704.6289 L462.5,703.2617 Q462.5,701.6992 463.2422,700.332 Q464.0039,698.9648 465.3125,698.2422 Q466.6406,697.5 468.125,697.5 Q469.0234,697.5 469.8047,697.8125 Q470.5859,698.125 471.25,698.75 Z " fill="#000000"/><text fill="#000000" font-family="sans-serif" font-size="15" lengthAdjust="spacing" textLength="66.25" x="490" y="709.2627">TestStore</text><line style="stroke:#A80036;stroke-width:1.875;" x1="434.375" x2="575.625" y1="723.125" y2="723.125"/><line style="stroke:#A80036;stroke-width:1.875;" x1="434.375" x2="575.625" y1="733.125" y2="733.125"/><text fill="#000000" font-family="sans-serif" font-size="13.75" lengthAdjust="spacing" textLength="128.75" x="440.625" y="752.3987">+getTestsByClient(id)</text><!--MD5=[1c357e7e7fdba398bcadd6e61afe49f5]
class ReferenceValue--><rect codeLine="79" fill="#FEFECE" filter="url(#fgt6cro9r3h2c)" height="111.8848" id="ReferenceValue" style="stroke:#A80036;stroke-width:1.875;" width="150" x="427.5" y="1428.75"/><ellipse cx="446.25" cy="1448.75" fill="#ADD1B2" rx="13.75" ry="13.75" style="stroke:#A80036;stroke-width:1.25;"/><path d="M448.75,1444.375 Q449.0039,1443.75 449.2969,1443.4375 Q449.5898,1443.125 449.9219,1443.125 Q450.5078,1443.125 450.8789,1443.4766 Q451.25,1443.8281 451.25,1444.6484 L451.25,1446.6016 Q451.25,1447.4219 450.8984,1447.7734 Q450.5469,1448.125 450,1448.125 Q449.5117,1448.125 449.1992,1447.9102 Q448.8867,1447.6953 448.75,1447.1289 Q448.6914,1446.7383 448.4766,1446.5234 Q448.0859,1446.1133 447.3828,1445.8789 Q446.6797,1445.625 445.9766,1445.625 Q445.0977,1445.625 444.3555,1445.9766 Q443.6328,1446.3281 443.0664,1447.1094 Q442.5,1447.8906 442.5,1448.9648 L442.5,1450.1172 Q442.5,1451.4063 443.5547,1452.2656 Q444.6094,1453.125 446.4844,1453.125 Q447.5977,1453.125 448.3789,1452.8711 Q448.8281,1452.7344 449.3359,1452.2852 Q449.668,1452.0313 449.8438,1451.9531 Q450.0195,1451.875 450.2344,1451.875 Q450.6445,1451.875 450.9375,1452.207 Q451.25,1452.5195 451.25,1452.9688 Q451.25,1453.3984 450.8203,1453.9063 Q450.1953,1454.6484 449.1992,1455.0586 Q447.8906,1455.625 446.2891,1455.625 Q444.4141,1455.625 442.9102,1454.8828 Q441.6992,1454.2969 440.8398,1453.0273 Q440,1451.7578 440,1450.2539 L440,1448.8867 Q440,1447.3242 440.7422,1445.957 Q441.5039,1444.5898 442.8125,1443.8672 Q444.1406,1443.125 445.625,1443.125 Q446.5234,1443.125 447.3047,1443.4375 Q448.0859,1443.75 448.75,1444.375 Z " fill="#000000"/><text fill="#000000" font-family="sans-serif" font-size="15" lengthAdjust="spacing" textLength="110" x="463.75" y="1454.8877">ReferenceValue</text><line style="stroke:#A80036;stroke-width:1.875;" x1="428.75" x2="576.25" y1="1468.75" y2="1468.75"/><text fill="#000000" font-family="sans-serif" font-size="13.75" lengthAdjust="spacing" textLength="98.75" x="435" y="1488.0237">-double minimum</text><text fill="#000000" font-family="sans-serif" font-size="13.75" lengthAdjust="spacing" textLength="103.75" x="435" y="1505.3186">-double maximum</text><text fill="#000000" font-family="sans-serif" font-size="13.75" lengthAdjust="spacing" textLength="80" x="435" y="1522.6135">-String metric</text><line style="stroke:#A80036;stroke-width:1.875;" x1="428.75" x2="576.25" y1="1530.6348" y2="1530.6348"/><!--MD5=[4e608140b854dae633589343bce77383]
class TestParameterResult--><rect codeLine="99" fill="#FEFECE" filter="url(#fgt6cro9r3h2c)" height="94.5898" id="TestParameterResult" style="stroke:#A80036;stroke-width:1.875;" width="187.5" x="408.75" y="1236.25"/><ellipse cx="427.5" cy="1256.25" fill="#ADD1B2" rx="13.75" ry="13.75" style="stroke:#A80036;stroke-width:1.25;"/><path d="M430,1251.875 Q430.2539,1251.25 430.5469,1250.9375 Q430.8398,1250.625 431.1719,1250.625 Q431.7578,1250.625 432.1289,1250.9766 Q432.5,1251.3281 432.5,1252.1484 L432.5,1254.1016 Q432.5,1254.9219 432.1484,1255.2734 Q431.7969,1255.625 431.25,1255.625 Q430.7617,1255.625 430.4492,1255.4102 Q430.1367,1255.1953 430,1254.6289 Q429.9414,1254.2383 429.7266,1254.0234 Q429.3359,1253.6133 428.6328,1253.3789 Q427.9297,1253.125 427.2266,1253.125 Q426.3477,1253.125 425.6055,1253.4766 Q424.8828,1253.8281 424.3164,1254.6094 Q423.75,1255.3906 423.75,1256.4648 L423.75,1257.6172 Q423.75,1258.9063 424.8047,1259.7656 Q425.8594,1260.625 427.7344,1260.625 Q428.8477,1260.625 429.6289,1260.3711 Q430.0781,1260.2344 430.5859,1259.7852 Q430.918,1259.5313 431.0938,1259.4531 Q431.2695,1259.375 431.4844,1259.375 Q431.8945,1259.375 432.1875,1259.707 Q432.5,1260.0195 432.5,1260.4688 Q432.5,1260.8984 432.0703,1261.4063 Q431.4453,1262.1484 430.4492,1262.5586 Q429.1406,1263.125 427.5391,1263.125 Q425.6641,1263.125 424.1602,1262.3828 Q422.9492,1261.7969 422.0898,1260.5273 Q421.25,1259.2578 421.25,1257.7539 L421.25,1256.3867 Q421.25,1254.8242 421.9922,1253.457 Q422.7539,1252.0898 424.0625,1251.3672 Q425.3906,1250.625 426.875,1250.625 Q427.7734,1250.625 428.5547,1250.9375 Q429.3359,1251.25 430,1251.875 Z " fill="#000000"/><text fill="#000000" font-family="sans-serif" font-size="15" lengthAdjust="spacing" textLength="147.5" x="445" y="1262.3877">TestParameterResult</text><line style="stroke:#A80036;stroke-width:1.875;" x1="410" x2="595" y1="1276.25" y2="1276.25"/><text fill="#000000" font-family="sans-serif" font-size="13.75" lengthAdjust="spacing" textLength="81.25" x="416.25" y="1295.5237">-double value</text><text fill="#000000" font-family="sans-serif" font-size="13.75" lengthAdjust="spacing" textLength="80" x="416.25" y="1312.8186">-String metric</text><line style="stroke:#A80036;stroke-width:1.875;" x1="410" x2="595" y1="1320.8398" y2="1320.8398"/><!--MD5=[0f07739f46effee96e095e9c408da841]
class TestParameter--><rect codeLine="104" fill="#FEFECE" filter="url(#fgt6cro9r3h2c)" height="60" id="TestParameter" style="stroke:#A80036;stroke-width:1.875;" width="142.5" x="431.25" y="1078.75"/><ellipse cx="450" cy="1098.75" fill="#ADD1B2" rx="13.75" ry="13.75" style="stroke:#A80036;stroke-width:1.25;"/><path d="M452.5,1094.375 Q452.7539,1093.75 453.0469,1093.4375 Q453.3398,1093.125 453.6719,1093.125 Q454.2578,1093.125 454.6289,1093.4766 Q455,1093.8281 455,1094.6484 L455,1096.6016 Q455,1097.4219 454.6484,1097.7734 Q454.2969,1098.125 453.75,1098.125 Q453.2617,1098.125 452.9492,1097.9102 Q452.6367,1097.6953 452.5,1097.1289 Q452.4414,1096.7383 452.2266,1096.5234 Q451.8359,1096.1133 451.1328,1095.8789 Q450.4297,1095.625 449.7266,1095.625 Q448.8477,1095.625 448.1055,1095.9766 Q447.3828,1096.3281 446.8164,1097.1094 Q446.25,1097.8906 446.25,1098.9648 L446.25,1100.1172 Q446.25,1101.4063 447.3047,1102.2656 Q448.3594,1103.125 450.2344,1103.125 Q451.3477,1103.125 452.1289,1102.8711 Q452.5781,1102.7344 453.0859,1102.2852 Q453.418,1102.0313 453.5938,1101.9531 Q453.7695,1101.875 453.9844,1101.875 Q454.3945,1101.875 454.6875,1102.207 Q455,1102.5195 455,1102.9688 Q455,1103.3984 454.5703,1103.9063 Q453.9453,1104.6484 452.9492,1105.0586 Q451.6406,1105.625 450.0391,1105.625 Q448.1641,1105.625 446.6602,1104.8828 Q445.4492,1104.2969 444.5898,1103.0273 Q443.75,1101.7578 443.75,1100.2539 L443.75,1098.8867 Q443.75,1097.3242 444.4922,1095.957 Q445.2539,1094.5898 446.5625,1093.8672 Q447.8906,1093.125 449.375,1093.125 Q450.2734,1093.125 451.0547,1093.4375 Q451.8359,1093.75 452.5,1094.375 Z " fill="#000000"/><text fill="#000000" font-family="sans-serif" font-size="15" lengthAdjust="spacing" textLength="102.5" x="467.5" y="1104.8877">TestParameter</text><line style="stroke:#A80036;stroke-width:1.875;" x1="432.5" x2="572.5" y1="1118.75" y2="1118.75"/><line style="stroke:#A80036;stroke-width:1.875;" x1="432.5" x2="572.5" y1="1128.75" y2="1128.75"/><!--MD5=[9fb704ffefcaf68bf1a361787afa998b]
class TestDTO--><rect codeLine="86" fill="#FEFECE" filter="url(#fgt6cro9r3h2c)" height="129.1797" id="TestDTO" style="stroke:#A80036;stroke-width:1.875;" width="237.5" x="666.25" y="657.5"/><ellipse cx="749.0625" cy="677.5" fill="#ADD1B2" rx="13.75" ry="13.75" style="stroke:#A80036;stroke-width:1.25;"/><path d="M751.5625,673.125 Q751.8164,672.5 752.1094,672.1875 Q752.4023,671.875 752.7344,671.875 Q753.3203,671.875 753.6914,672.2266 Q754.0625,672.5781 754.0625,673.3984 L754.0625,675.3516 Q754.0625,676.1719 753.7109,676.5234 Q753.3594,676.875 752.8125,676.875 Q752.3242,676.875 752.0117,676.6602 Q751.6992,676.4453 751.5625,675.8789 Q751.5039,675.4883 751.2891,675.2734 Q750.8984,674.8633 750.1953,674.6289 Q749.4922,674.375 748.7891,674.375 Q747.9102,674.375 747.168,674.7266 Q746.4453,675.0781 745.8789,675.8594 Q745.3125,676.6406 745.3125,677.7148 L745.3125,678.8672 Q745.3125,680.1563 746.3672,681.0156 Q747.4219,681.875 749.2969,681.875 Q750.4102,681.875 751.1914,681.6211 Q751.6406,681.4844 752.1484,681.0352 Q752.4805,680.7813 752.6563,680.7031 Q752.832,680.625 753.0469,680.625 Q753.457,680.625 753.75,680.957 Q754.0625,681.2695 754.0625,681.7188 Q754.0625,682.1484 753.6328,682.6563 Q753.0078,683.3984 752.0117,683.8086 Q750.7031,684.375 749.1016,684.375 Q747.2266,684.375 745.7227,683.6328 Q744.5117,683.0469 743.6523,681.7773 Q742.8125,680.5078 742.8125,679.0039 L742.8125,677.6367 Q742.8125,676.0742 743.5547,674.707 Q744.3164,673.3398 745.625,672.6172 Q746.9531,671.875 748.4375,671.875 Q749.3359,671.875 750.1172,672.1875 Q750.8984,672.5 751.5625,673.125 Z " fill="#000000"/><text fill="#000000" font-family="sans-serif" font-size="15" lengthAdjust="spacing" textLength="61.25" x="774.6875" y="683.6377">TestDTO</text><line style="stroke:#A80036;stroke-width:1.875;" x1="667.5" x2="902.5" y1="697.5" y2="697.5"/><text fill="#000000" font-family="sans-serif" font-size="13.75" lengthAdjust="spacing" textLength="73.75" x="673.75" y="716.7737">-String code</text><text fill="#000000" font-family="sans-serif" font-size="13.75" lengthAdjust="spacing" textLength="62.5" x="673.75" y="734.0686">-Date date</text><text fill="#000000" font-family="sans-serif" font-size="13.75" lengthAdjust="spacing" textLength="120" x="673.75" y="751.3635">-Date validationDate</text><text fill="#000000" font-family="sans-serif" font-size="13.75" lengthAdjust="spacing" textLength="222.5" x="673.75" y="768.6584">-List&lt;String&gt; testParameterResultList</text><line style="stroke:#A80036;stroke-width:1.875;" x1="667.5" x2="902.5" y1="776.6797" y2="776.6797"/><!--MD5=[9029832ed3ecb3cabd268e0ea1743d60]
class TestParameterResultDTO--><rect codeLine="94" fill="#FEFECE" filter="url(#fgt6cro9r3h2c)" height="94.5898" id="TestParameterResultDTO" style="stroke:#A80036;stroke-width:1.875;" width="218.75" x="1165.625" y="674.375"/><ellipse cx="1184.375" cy="694.375" fill="#ADD1B2" rx="13.75" ry="13.75" style="stroke:#A80036;stroke-width:1.25;"/><path d="M1186.875,690 Q1187.1289,689.375 1187.4219,689.0625 Q1187.7148,688.75 1188.0469,688.75 Q1188.6328,688.75 1189.0039,689.1016 Q1189.375,689.4531 1189.375,690.2734 L1189.375,692.2266 Q1189.375,693.0469 1189.0234,693.3984 Q1188.6719,693.75 1188.125,693.75 Q1187.6367,693.75 1187.3242,693.5352 Q1187.0117,693.3203 1186.875,692.7539 Q1186.8164,692.3633 1186.6016,692.1484 Q1186.2109,691.7383 1185.5078,691.5039 Q1184.8047,691.25 1184.1016,691.25 Q1183.2227,691.25 1182.4805,691.6016 Q1181.7578,691.9531 1181.1914,692.7344 Q1180.625,693.5156 1180.625,694.5898 L1180.625,695.7422 Q1180.625,697.0313 1181.6797,697.8906 Q1182.7344,698.75 1184.6094,698.75 Q1185.7227,698.75 1186.5039,698.4961 Q1186.9531,698.3594 1187.4609,697.9102 Q1187.793,697.6563 1187.9688,697.5781 Q1188.1445,697.5 1188.3594,697.5 Q1188.7695,697.5 1189.0625,697.832 Q1189.375,698.1445 1189.375,698.5938 Q1189.375,699.0234 1188.9453,699.5313 Q1188.3203,700.2734 1187.3242,700.6836 Q1186.0156,701.25 1184.4141,701.25 Q1182.5391,701.25 1181.0352,700.5078 Q1179.8242,699.9219 1178.9648,698.6523 Q1178.125,697.3828 1178.125,695.8789 L1178.125,694.5117 Q1178.125,692.9492 1178.8672,691.582 Q1179.6289,690.2148 1180.9375,689.4922 Q1182.2656,688.75 1183.75,688.75 Q1184.6484,688.75 1185.4297,689.0625 Q1186.2109,689.375 1186.875,690 Z " fill="#000000"/><text fill="#000000" font-family="sans-serif" font-size="15" lengthAdjust="spacing" textLength="178.75" x="1201.875" y="700.5127">TestParameterResultDTO</text><line style="stroke:#A80036;stroke-width:1.875;" x1="1166.875" x2="1383.125" y1="714.375" y2="714.375"/><text fill="#000000" font-family="sans-serif" font-size="13.75" lengthAdjust="spacing" textLength="81.25" x="1173.125" y="733.6487">-double value</text><text fill="#000000" font-family="sans-serif" font-size="13.75" lengthAdjust="spacing" textLength="80" x="1173.125" y="750.9436">-String metric</text><line style="stroke:#A80036;stroke-width:1.875;" x1="1166.875" x2="1383.125" y1="758.9648" y2="758.9648"/><!--MD5=[16358064a951ae5dfdda1035a51b763d]
class TestParameterDTO--><rect codeLine="107" fill="#FEFECE" filter="url(#fgt6cro9r3h2c)" height="60" id="TestParameterDTO" style="stroke:#A80036;stroke-width:1.875;" width="173.75" x="948.125" y="691.875"/><ellipse cx="966.875" cy="711.875" fill="#ADD1B2" rx="13.75" ry="13.75" style="stroke:#A80036;stroke-width:1.25;"/><path d="M969.375,707.5 Q969.6289,706.875 969.9219,706.5625 Q970.2148,706.25 970.5469,706.25 Q971.1328,706.25 971.5039,706.6016 Q971.875,706.9531 971.875,707.7734 L971.875,709.7266 Q971.875,710.5469 971.5234,710.8984 Q971.1719,711.25 970.625,711.25 Q970.1367,711.25 969.8242,711.0352 Q969.5117,710.8203 969.375,710.2539 Q969.3164,709.8633 969.1016,709.6484 Q968.7109,709.2383 968.0078,709.0039 Q967.3047,708.75 966.6016,708.75 Q965.7227,708.75 964.9805,709.1016 Q964.2578,709.4531 963.6914,710.2344 Q963.125,711.0156 963.125,712.0898 L963.125,713.2422 Q963.125,714.5313 964.1797,715.3906 Q965.2344,716.25 967.1094,716.25 Q968.2227,716.25 969.0039,715.9961 Q969.4531,715.8594 969.9609,715.4102 Q970.293,715.1563 970.4688,715.0781 Q970.6445,715 970.8594,715 Q971.2695,715 971.5625,715.332 Q971.875,715.6445 971.875,716.0938 Q971.875,716.5234 971.4453,717.0313 Q970.8203,717.7734 969.8242,718.1836 Q968.5156,718.75 966.9141,718.75 Q965.0391,718.75 963.5352,718.0078 Q962.3242,717.4219 961.4648,716.1523 Q960.625,714.8828 960.625,713.3789 L960.625,712.0117 Q960.625,710.4492 961.3672,709.082 Q962.1289,707.7148 963.4375,706.9922 Q964.7656,706.25 966.25,706.25 Q967.1484,706.25 967.9297,706.5625 Q968.7109,706.875 969.375,707.5 Z " fill="#000000"/><text fill="#000000" font-family="sans-serif" font-size="15" lengthAdjust="spacing" textLength="133.75" x="984.375" y="718.0127">TestParameterDTO</text><line style="stroke:#A80036;stroke-width:1.875;" x1="949.375" x2="1120.625" y1="731.875" y2="731.875"/><line style="stroke:#A80036;stroke-width:1.875;" x1="949.375" x2="1120.625" y1="741.875" y2="741.875"/><!--MD5=[94117bf2104ff28e6c53455756d5bd91]
link CheckTestResultsUI to CheckTestResultsController--><path codeLine="111" d="M525,112.6125 C525,138.8875 525,178.5625 525,211.975 " fill="none" id="CheckTestResultsUI-to-CheckTestResultsController" style="stroke:#A80036;stroke-width:1.25;stroke-dasharray:7.0,7.0;"/><polygon fill="#A80036" points="525,218.5625,530,207.3125,525,212.3125,520,207.3125,525,218.5625" style="stroke:#A80036;stroke-width:1.25;"/><!--MD5=[7f6cf7f175eae0af66201860de5de971]
link Company to TestStore--><path codeLine="112" d="M423.75,532.55 C441.875,574.5125 468.4,635.9 486.15,677 " fill="none" id="Company-to-TestStore" style="stroke:#A80036;stroke-width:1.25;"/><polygon fill="#A80036" points="488.7125,682.9125,488.8304,670.602,486.229,677.1771,479.6538,674.5757,488.7125,682.9125" style="stroke:#A80036;stroke-width:1.25;"/><text fill="#000000" font-family="sans-serif" font-size="16.25" lengthAdjust="spacing" textLength="35" x="448.75" y="588.1189">uses</text><text fill="#000000" font-family="sans-serif" font-size="16.25" lengthAdjust="spacing" textLength="8.75" x="417.5879" y="559.021">1</text><text fill="#000000" font-family="sans-serif" font-size="16.25" lengthAdjust="spacing" textLength="8.75" x="475.7009" y="669.7493">1</text><!--MD5=[97ff2f84a80eeb70af7f022bd4552df2]
link CheckTestResultsController to TestParameterMapper--><path codeLine="113" d="M642.5375,309.775 C695.6375,327.475 757.9875,351.925 810,382.5 C837.575,398.7125 864.975,421.5 886.5,441.3625 " fill="none" id="CheckTestResultsController-to-TestParameterMapper" style="stroke:#A80036;stroke-width:1.25;stroke-dasharray:7.0,7.0;"/><polygon fill="#A80036" points="891.275,445.8125,886.4401,434.4906,886.6976,441.5569,879.6312,441.8144,891.275,445.8125" style="stroke:#A80036;stroke-width:1.25;"/><!--MD5=[5c92b3b1af4e4ee99783d392f5e8b88f]
link CheckTestResultsController to TestParameterResultMapper--><path codeLine="114" d="M642.875,285.975 C751.65,298.2 915.775,325.05 1047.5,382.5 C1081.4625,397.3125 1115.35,421.2125 1141.4125,442.075 " fill="none" id="CheckTestResultsController-to-TestParameterResultMapper" style="stroke:#A80036;stroke-width:1.25;stroke-dasharray:7.0,7.0;"/><polygon fill="#A80036" points="1146.525,446.2125,1140.9223,435.2502,1141.6656,442.2821,1134.6337,443.0253,1146.525,446.2125" style="stroke:#A80036;stroke-width:1.25;"/><!--MD5=[6f2bb5e90fbe30ae2ed765a858b518f3]
link TestParameterMapper to TestParameterDTO--><path codeLine="115" d="M945.825,523.9125 C966,568.425 999.3375,641.95 1019.025,685.3875 " fill="none" id="TestParameterMapper-to-TestParameterDTO" style="stroke:#A80036;stroke-width:1.25;stroke-dasharray:7.0,7.0;"/><polygon fill="#A80036" points="1021.825,691.575,1021.707,679.2645,1019.232,685.8883,1012.6082,683.4133,1021.825,691.575" style="stroke:#A80036;stroke-width:1.25;"/><!--MD5=[71f56f3f60d9301fa58b8bd133de1255]
link TestParameterResultMapper to TestParameterResultDTO--><path codeLine="116" d="M1202.6125,523.9125 C1216.95,562.875 1239.475,624.075 1255.5875,667.8625 " fill="none" id="TestParameterResultMapper-to-TestParameterResultDTO" style="stroke:#A80036;stroke-width:1.25;stroke-dasharray:7.0,7.0;"/><polygon fill="#A80036" points="1257.9125,674.1875,1258.7098,661.9023,1255.7494,668.3238,1249.3279,665.3633,1257.9125,674.1875" style="stroke:#A80036;stroke-width:1.25;"/><!--MD5=[b0f4f6db8206580012ef9cd998ed01c5]
link TestStore to Test--><path codeLine="117" d="M498.6625,761.0375 C493.1125,794.2375 484.9875,842.8125 478.8125,879.7875 " fill="none" id="TestStore-to-Test" style="stroke:#A80036;stroke-width:1.25;"/><polygon fill="#A80036" points="477.7625,886.0875,484.5295,875.803,478.7813,879.9211,474.6632,874.1729,477.7625,886.0875" style="stroke:#A80036;stroke-width:1.25;"/><text fill="#000000" font-family="sans-serif" font-size="16.25" lengthAdjust="spacing" textLength="66.25" x="488.75" y="844.3689">conducts</text><text fill="#000000" font-family="sans-serif" font-size="16.25" lengthAdjust="spacing" textLength="8.75" x="487.8704" y="787.3394">1</text><text fill="#000000" font-family="sans-serif" font-size="16.25" lengthAdjust="spacing" textLength="25" x="451.9186" y="872.7609">1..*</text><!--MD5=[52200cc2361fa0ac0481dd6ffcdb824b]
link TestParameterResult to ReferenceValue--><path codeLine="118" d="M502.5,1331.6 C502.5,1358.5875 502.5,1392.8875 502.5,1422.0875 " fill="none" id="TestParameterResult-to-ReferenceValue" style="stroke:#A80036;stroke-width:1.25;"/><polygon fill="#A80036" points="502.5,1428.625,507.5,1417.375,502.5,1422.375,497.5,1417.375,502.5,1428.625" style="stroke:#A80036;stroke-width:1.25;"/><text fill="#000000" font-family="sans-serif" font-size="16.25" lengthAdjust="spacing" textLength="53.75" x="503.75" y="1386.8689">records</text><text fill="#000000" font-family="sans-serif" font-size="16.25" lengthAdjust="spacing" textLength="8.75" x="493.0527" y="1357.7564">1</text><text fill="#000000" font-family="sans-serif" font-size="16.25" lengthAdjust="spacing" textLength="8.75" x="493.0527" y="1414.9994">1</text><!--MD5=[0e00e25ac6b8c14659aaff2cf7e5df08]
link TestParameter to TestParameterResult--><path codeLine="119" d="M502.5,1138.875 C502.5,1163.5875 502.5,1199.8 502.5,1229.6875 " fill="none" id="TestParameter-to-TestParameterResult" style="stroke:#A80036;stroke-width:1.25;"/><polygon fill="#A80036" points="502.5,1235.9625,507.5,1224.7125,502.5,1229.7125,497.5,1224.7125,502.5,1235.9625" style="stroke:#A80036;stroke-width:1.25;"/><text fill="#000000" font-family="sans-serif" font-size="16.25" lengthAdjust="spacing" textLength="61.25" x="503.75" y="1194.3689">contains</text><text fill="#000000" font-family="sans-serif" font-size="16.25" lengthAdjust="spacing" textLength="8.75" x="492.6836" y="1165.5779">1</text><text fill="#000000" font-family="sans-serif" font-size="16.25" lengthAdjust="spacing" textLength="8.75" x="492.9707" y="1222.6137">1</text><!--MD5=[c88f814ecc8e75286b0c0023c0833471]
link TestMapper to TestStore--><path codeLine="120" d="M691.75,523.9125 C651.6875,566.1 586.9,634.3625 545.1375,678.35 " fill="none" id="TestMapper-to-TestStore" style="stroke:#A80036;stroke-width:1.25;stroke-dasharray:7.0,7.0;"/><polygon fill="#A80036" points="540.6625,683.0625,552.033,678.3429,544.9644,678.5286,544.7787,671.4599,540.6625,683.0625" style="stroke:#A80036;stroke-width:1.25;"/><!--MD5=[f24c888dadeb846430474fe80a58922b]
link Test to TestParameter--><path codeLine="121" d="M478.8,981.675 C484.1625,1010.2 490.925,1046.075 495.85,1072.2125 " fill="none" id="Test-to-TestParameter" style="stroke:#A80036;stroke-width:1.25;"/><polygon fill="#A80036" points="497.0625,1078.65,499.8804,1066.6658,495.8988,1072.5093,490.0553,1068.5277,497.0625,1078.65" style="stroke:#A80036;stroke-width:1.25;"/><text fill="#000000" font-family="sans-serif" font-size="16.25" lengthAdjust="spacing" textLength="145" x="490" y="1036.8689">requests analysis of</text><text fill="#000000" font-family="sans-serif" font-size="16.25" lengthAdjust="spacing" textLength="8.75" x="470.7552" y="1007.8434">1</text><text fill="#000000" font-family="sans-serif" font-size="16.25" lengthAdjust="spacing" textLength="25" x="467.466" y="1065.2996">1..*</text><!--MD5=[be3b39c7463182027323f9c0e531e936]
link TestDTO to Test--><path codeLine="122" d="M689.6375,786.5125 C643.35,817.275 588.5375,853.7125 545.25,882.4875 " fill="none" id="TestDTO-to-Test" style="stroke:#A80036;stroke-width:1.25;stroke-dasharray:7.0,7.0;"/><polygon fill="#A80036" points="540.025,885.95,552.1591,883.8699,545.2253,882.4831,546.6121,875.5494,540.025,885.95" style="stroke:#A80036;stroke-width:1.25;"/><!--MD5=[63f9d31e24ddc3bbaf125478cf3ab28f]
link CheckTestResultsController to Company--><path codeLine="123" d="M492.825,331.3125 C474.6625,362.4 452.0875,401.0125 434.2125,431.6125 " fill="none" id="CheckTestResultsController-to-Company" style="stroke:#A80036;stroke-width:1.25;stroke-dasharray:7.0,7.0;"/><polygon fill="#A80036" points="430.9375,437.225,440.9397,430.0474,434.0978,431.8329,432.3123,424.9909,430.9375,437.225" style="stroke:#A80036;stroke-width:1.25;"/><!--MD5=[56c472d6c7d173ca0cacb3dc595b0811]
link CheckTestResultsController to AuthFacade--><path codeLine="124" d="M407.3125,292.55 C352.8625,305.6125 291.0375,329.0875 248.75,371.25 C163.8,455.9625 138.2625,603.15 130.6625,676.475 " fill="none" id="CheckTestResultsController-to-AuthFacade" style="stroke:#A80036;stroke-width:1.25;stroke-dasharray:7.0,7.0;"/><polygon fill="#A80036" points="130.025,682.9125,136.1226,672.2176,130.6487,676.6937,126.1725,671.2197,130.025,682.9125" style="stroke:#A80036;stroke-width:1.25;"/><!--MD5=[f8a58454b393e453f1684428f532ef56]
link CheckTestResultsController to UserSession--><path codeLine="125" d="M407.2125,316.6875 C375.8875,332.675 344.925,354.175 323.75,382.5 C205.9875,540 321.525,639.0375 236.25,816.25 C223.1875,843.3875 202.3375,869.4875 183.275,890.0375 " fill="none" id="CheckTestResultsController-to-UserSession" style="stroke:#A80036;stroke-width:1.25;stroke-dasharray:7.0,7.0;"/><polygon fill="#A80036" points="178.975,894.6125,190.3164,889.8234,183.249,890.0523,183.0201,882.985,178.975,894.6125" style="stroke:#A80036;stroke-width:1.25;"/><!--MD5=[76b32111679a2bfd655c1686b6b5bb53]
link CheckTestResultsController to TestMapper--><path codeLine="126" d="M578.7375,331.3125 C612.4625,365.875 655.2875,409.75 686.3125,441.55 " fill="none" id="CheckTestResultsController-to-TestMapper" style="stroke:#A80036;stroke-width:1.25;stroke-dasharray:7.0,7.0;"/><polygon fill="#A80036" points="690.8125,446.15,686.5324,434.6069,686.4469,441.6774,679.3763,441.5919,690.8125,446.15" style="stroke:#A80036;stroke-width:1.25;"/><!--MD5=[717d4b03d3c4372f4eafe5e342a0a7dd]
link Company to AuthFacade--><path codeLine="127" d="M349.175,532.55 C299.1125,575.0375 225.5875,637.4125 177.1375,678.5125 " fill="none" id="Company-to-AuthFacade" style="stroke:#A80036;stroke-width:1.25;stroke-dasharray:7.0,7.0;"/><polygon fill="#A80036" points="171.95,682.9125,183.7672,679.4606,176.7205,678.8746,177.3065,671.8278,171.95,682.9125" style="stroke:#A80036;stroke-width:1.25;"/><!--MD5=[434feadd2b6df9bf2f29d4ac96be7aa9]
link AuthFacade to UserSession--><path codeLine="128" d="M129.5375,761.0375 C131.4625,796.9125 134.3625,850.7375 136.3875,888.4875 " fill="none" id="AuthFacade-to-UserSession" style="stroke:#A80036;stroke-width:1.25;stroke-dasharray:7.0,7.0;"/><polygon fill="#A80036" points="136.725,894.8625,141.1389,883.3699,136.4031,888.6208,131.1522,883.885,136.725,894.8625" style="stroke:#A80036;stroke-width:1.25;"/><!--MD5=[37fbe30a29f6951dbe302e73115039a8]
link TestParameterDTO to TestParameter--><path codeLine="129" d="M1005.375,752.075 C943.025,811.8875 791.95,951.0375 646.25,1041.25 C625.6375,1054.0125 602.1625,1065.8375 580.25,1075.875 " fill="none" id="TestParameterDTO-to-TestParameter" style="stroke:#A80036;stroke-width:1.25;stroke-dasharray:7.0,7.0;"/><polygon fill="#A80036" points="574.1125,1078.65,586.4231,1078.5465,579.8023,1076.0637,582.2851,1069.4429,574.1125,1078.65" style="stroke:#A80036;stroke-width:1.25;"/><!--MD5=[43f9b3bbdff847807d6be11cdde38324]
link TestParameterResultDTO to TestParameterResult--><path codeLine="130" d="M1211.125,769.375 C1067.5125,873.375 720.1,1124.925 571.65,1232.425 " fill="none" id="TestParameterResultDTO-to-TestParameterResult" style="stroke:#A80036;stroke-width:1.25;stroke-dasharray:7.0,7.0;"/><polygon fill="#A80036" points="566.45,1236.2,578.4881,1233.6217,571.5031,1232.5218,572.6029,1225.5368,566.45,1236.2" style="stroke:#A80036;stroke-width:1.25;"/><!--MD5=[d654f8df66db676ac1aeb2c3804f1930]
link CheckTestResultsController to TestStore--><path codeLine="131" d="M522.5125,331.6375 C518.5,420.8 510.675,594.4125 507,676.1 " fill="none" id="CheckTestResultsController-to-TestStore" style="stroke:#A80036;stroke-width:1.25;stroke-dasharray:7.0,7.0;"/><polygon fill="#A80036" points="506.7,682.775,512.2085,671.7651,506.9854,676.5315,502.219,671.3084,506.7,682.775" style="stroke:#A80036;stroke-width:1.25;"/><!--MD5=[e4caefb62e94584481bd7a10970239ee]
@startuml
'https://plantuml.com/class-diagram

skinparam classAttributeIconSize 0

package "UI" {
class CheckTestResultsUI
}
package "Controller" {
class CheckTestResultsController
}
package "Mapper" {
class TestMapper
class TestParameterMapper
class TestParameterResultMapper
}
package "Auth"{
class AuthFacade
class UserSession
}
package "Domain"{
class Company
class Test
class TestStore
class ReferenceValue
class TestParameterResult
class TestParameter
}

package "Dto"{
class TestDTO
class TestParameterResultDTO
class TestParameterDTO
}




class CheckTestResultsController{
+getTests()
+getTestParameter(code)
+getResult(testParameter)
}

class AuthFacade{
+getCurrentUserSession()
}

class UserSession{
+getUserId()
}

class Company{
+getTestStore()
+getTest()
}

class Test{
+getTestParameterList()
getTestParameterResult(testParameter)
}


class TestStore{
+getTestsByClient(id)
}

class TestMapper{
+toDto()
}

class TestParameterMapper{
+toDto()
}

class TestParameterResultMapper{
+toDto()
}

class ReferenceValue{
    -double minimum
    -double maximum
    -String metric
    }


class TestDTO{
-String code
-Date date
-Date validationDate
-List<String> testParameterResultList
}


class TestParameterResultDTO{
-double value
-String metric
}

class TestParameterResult{
-double value
-String metric
}

class TestParameter{
}

class TestParameterDTO{
}


CheckTestResultsUI ..> CheckTestResultsController
Company "1" - -> "1" TestStore: uses
CheckTestResultsController ..> TestParameterMapper
CheckTestResultsController ..> TestParameterResultMapper
TestParameterMapper ..> TestParameterDTO
TestParameterResultMapper ..> TestParameterResultDTO
TestStore "1" - -> "1..*" Test: conducts
TestParameterResult "1" - -> "1" ReferenceValue: records
TestParameter "1" - -> "1" TestParameterResult: contains
TestMapper ..> TestStore
Test "1" - -> "1..*" TestParameter: requests analysis of
TestDTO ..> Test
CheckTestResultsController ..> Company
CheckTestResultsController ..> AuthFacade
CheckTestResultsController ..> UserSession
CheckTestResultsController ..> TestMapper
Company ..> AuthFacade
AuthFacade ..> UserSession
TestParameterDTO ..> TestParameter
TestParameterResultDTO ..> TestParameterResult
CheckTestResultsController ..> TestStore

@enduml

@startuml

skinparam classAttributeIconSize 0

package "UI" {
class CheckTestResultsUI
}
package "Controller" {
class CheckTestResultsController
}
package "Mapper" {
class TestMapper
class TestParameterMapper
class TestParameterResultMapper
}
package "Auth"{
class AuthFacade
class UserSession
}
package "Domain"{
class Company
class Test
class TestStore
class ReferenceValue
class TestParameterResult
class TestParameter
}

package "Dto"{
class TestDTO
class TestParameterResultDTO
class TestParameterDTO
}




class CheckTestResultsController{
+getTests()
+getTestParameter(code)
+getResult(testParameter)
}

class AuthFacade{
+getCurrentUserSession()
}

class UserSession{
+getUserId()
}

class Company{
+getTestStore()
+getTest()
}

class Test{
+getTestParameterList()
getTestParameterResult(testParameter)
}


class TestStore{
+getTestsByClient(id)
}

class TestMapper{
+toDto()
}

class TestParameterMapper{
+toDto()
}

class TestParameterResultMapper{
+toDto()
}

class ReferenceValue{
    -double minimum
    -double maximum
    -String metric
    }


class TestDTO{
-String code
-Date date
-Date validationDate
-List<String> testParameterResultList
}


class TestParameterResultDTO{
-double value
-String metric
}

class TestParameterResult{
-double value
-String metric
}

class TestParameter{
}

class TestParameterDTO{
}


CheckTestResultsUI ..> CheckTestResultsController
Company "1" - -> "1" TestStore: uses
CheckTestResultsController ..> TestParameterMapper
CheckTestResultsController ..> TestParameterResultMapper
TestParameterMapper ..> TestParameterDTO
TestParameterResultMapper ..> TestParameterResultDTO
TestStore "1" - -> "1..*" Test: conducts
TestParameterResult "1" - -> "1" ReferenceValue: records
TestParameter "1" - -> "1" TestParameterResult: contains
TestMapper ..> TestStore
Test "1" - -> "1..*" TestParameter: requests analysis of
TestDTO ..> Test
CheckTestResultsController ..> Company
CheckTestResultsController ..> AuthFacade
CheckTestResultsController ..> UserSession
CheckTestResultsController ..> TestMapper
Company ..> AuthFacade
AuthFacade ..> UserSession
TestParameterDTO ..> TestParameter
TestParameterResultDTO ..> TestParameterResult
CheckTestResultsController ..> TestStore

@enduml

PlantUML version 1.2021.4(Sun Apr 04 09:49:39 BST 2021)
(GPL source distribution)
Java Runtime: OpenJDK Runtime Environment
JVM: Dynamic Code Evolution 64-Bit Server VM
Default Encoding: Cp1252
Language: pt
Country: PT
--></g></svg>