<?xml version="1.0" encoding="UTF-8" standalone="no"?><svg xmlns="http://www.w3.org/2000/svg" xmlns:xlink="http://www.w3.org/1999/xlink" contentScriptType="application/ecmascript" contentStyleType="text/css" height="583.75px" preserveAspectRatio="none" style="width:1810px;height:583px;" version="1.1" viewBox="0 0 1810 583" width="1810px" zoomAndPan="magnify"><defs><filter height="300%" id="f140ejri3du1lc" width="300%" x="-1" y="-1"><feGaussianBlur result="blurOut" stdDeviation="2.5"/><feColorMatrix in="blurOut" result="blurOut2" type="matrix" values="0 0 0 0 0 0 0 0 0 0 0 0 0 0 0 0 0 0 .4 0"/><feOffset dx="5.0" dy="5.0" in="blurOut2" result="blurOut3"/><feBlend in="SourceGraphic" in2="blurOut3" mode="normal"/></filter></defs><g><!--MD5=[02e4b9b7573f1156f41e60aa5b4e25a4]
class Company--><rect codeLine="26" fill="#FEFECE" filter="url(#f140ejri3du1lc)" height="67.2949" id="Company" style="stroke:#A80036;stroke-width:1.875;" width="127.5" x="8.75" y="255"/><ellipse cx="37.0625" cy="275" fill="#ADD1B2" rx="13.75" ry="13.75" style="stroke:#A80036;stroke-width:1.25;"/><path d="M39.5625,270.625 Q39.8164,270 40.1094,269.6875 Q40.4023,269.375 40.7344,269.375 Q41.3203,269.375 41.6914,269.7266 Q42.0625,270.0781 42.0625,270.8984 L42.0625,272.8516 Q42.0625,273.6719 41.7109,274.0234 Q41.3594,274.375 40.8125,274.375 Q40.3242,274.375 40.0117,274.1602 Q39.6992,273.9453 39.5625,273.3789 Q39.5039,272.9883 39.2891,272.7734 Q38.8984,272.3633 38.1953,272.1289 Q37.4922,271.875 36.7891,271.875 Q35.9102,271.875 35.168,272.2266 Q34.4453,272.5781 33.8789,273.3594 Q33.3125,274.1406 33.3125,275.2148 L33.3125,276.3672 Q33.3125,277.6563 34.3672,278.5156 Q35.4219,279.375 37.2969,279.375 Q38.4102,279.375 39.1914,279.1211 Q39.6406,278.9844 40.1484,278.5352 Q40.4805,278.2813 40.6563,278.2031 Q40.832,278.125 41.0469,278.125 Q41.457,278.125 41.75,278.457 Q42.0625,278.7695 42.0625,279.2188 Q42.0625,279.6484 41.6328,280.1563 Q41.0078,280.8984 40.0117,281.3086 Q38.7031,281.875 37.1016,281.875 Q35.2266,281.875 33.7227,281.1328 Q32.5117,280.5469 31.6523,279.2773 Q30.8125,278.0078 30.8125,276.5039 L30.8125,275.1367 Q30.8125,273.5742 31.5547,272.207 Q32.3164,270.8398 33.625,270.1172 Q34.9531,269.375 36.4375,269.375 Q37.3359,269.375 38.1172,269.6875 Q38.8984,270 39.5625,270.625 Z " fill="#000000"/><text fill="#000000" font-family="sans-serif" font-size="15" lengthAdjust="spacing" textLength="66.25" x="56.6875" y="281.1377">Company</text><line style="stroke:#A80036;stroke-width:1.875;" x1="10" x2="135" y1="295" y2="295"/><text fill="#000000" font-family="sans-serif" font-size="13.75" lengthAdjust="spacing" textLength="112.5" x="16.25" y="314.2737">-String designation</text><!--MD5=[df38be88ccee13e832d6fafd6288a4ca]
class Test--><rect codeLine="30" fill="#FEFECE" filter="url(#f140ejri3du1lc)" height="119.1797" id="Test" style="stroke:#A80036;stroke-width:1.875;" width="135" x="292.5" y="229.375"/><ellipse cx="340.5" cy="249.375" fill="#ADD1B2" rx="13.75" ry="13.75" style="stroke:#A80036;stroke-width:1.25;"/><path d="M343,245 Q343.2539,244.375 343.5469,244.0625 Q343.8398,243.75 344.1719,243.75 Q344.7578,243.75 345.1289,244.1016 Q345.5,244.4531 345.5,245.2734 L345.5,247.2266 Q345.5,248.0469 345.1484,248.3984 Q344.7969,248.75 344.25,248.75 Q343.7617,248.75 343.4492,248.5352 Q343.1367,248.3203 343,247.7539 Q342.9414,247.3633 342.7266,247.1484 Q342.3359,246.7383 341.6328,246.5039 Q340.9297,246.25 340.2266,246.25 Q339.3477,246.25 338.6055,246.6016 Q337.8828,246.9531 337.3164,247.7344 Q336.75,248.5156 336.75,249.5898 L336.75,250.7422 Q336.75,252.0313 337.8047,252.8906 Q338.8594,253.75 340.7344,253.75 Q341.8477,253.75 342.6289,253.4961 Q343.0781,253.3594 343.5859,252.9102 Q343.918,252.6563 344.0938,252.5781 Q344.2695,252.5 344.4844,252.5 Q344.8945,252.5 345.1875,252.832 Q345.5,253.1445 345.5,253.5938 Q345.5,254.0234 345.0703,254.5313 Q344.4453,255.2734 343.4492,255.6836 Q342.1406,256.25 340.5391,256.25 Q338.6641,256.25 337.1602,255.5078 Q335.9492,254.9219 335.0898,253.6523 Q334.25,252.3828 334.25,250.8789 L334.25,249.5117 Q334.25,247.9492 334.9922,246.582 Q335.7539,245.2148 337.0625,244.4922 Q338.3906,243.75 339.875,243.75 Q340.7734,243.75 341.5547,244.0625 Q342.3359,244.375 343,245 Z " fill="#000000"/><text fill="#000000" font-family="sans-serif" font-size="15" lengthAdjust="spacing" textLength="30" x="364.5" y="255.5127">Test</text><line style="stroke:#A80036;stroke-width:1.875;" x1="293.75" x2="426.25" y1="269.375" y2="269.375"/><text fill="#000000" font-family="sans-serif" font-size="13.75" lengthAdjust="spacing" textLength="73.75" x="300" y="288.6487">-String code</text><text fill="#000000" font-family="sans-serif" font-size="13.75" lengthAdjust="spacing" textLength="97.5" x="300" y="305.9436">-String nhsCode</text><text fill="#000000" font-family="sans-serif" font-size="13.75" lengthAdjust="spacing" textLength="62.5" x="300" y="323.2385">-Date date</text><text fill="#000000" font-family="sans-serif" font-size="13.75" lengthAdjust="spacing" textLength="120" x="300" y="340.5334">-Date validationDate</text><!--MD5=[1c357e7e7fdba398bcadd6e61afe49f5]
class ReferenceValue--><rect codeLine="37" fill="#FEFECE" filter="url(#f140ejri3du1lc)" height="101.8848" id="ReferenceValue" style="stroke:#A80036;stroke-width:1.875;" width="150" x="1322.5" y="8.75"/><ellipse cx="1341.25" cy="28.75" fill="#ADD1B2" rx="13.75" ry="13.75" style="stroke:#A80036;stroke-width:1.25;"/><path d="M1343.75,24.375 Q1344.0039,23.75 1344.2969,23.4375 Q1344.5898,23.125 1344.9219,23.125 Q1345.5078,23.125 1345.8789,23.4766 Q1346.25,23.8281 1346.25,24.6484 L1346.25,26.6016 Q1346.25,27.4219 1345.8984,27.7734 Q1345.5469,28.125 1345,28.125 Q1344.5117,28.125 1344.1992,27.9102 Q1343.8867,27.6953 1343.75,27.1289 Q1343.6914,26.7383 1343.4766,26.5234 Q1343.0859,26.1133 1342.3828,25.8789 Q1341.6797,25.625 1340.9766,25.625 Q1340.0977,25.625 1339.3555,25.9766 Q1338.6328,26.3281 1338.0664,27.1094 Q1337.5,27.8906 1337.5,28.9648 L1337.5,30.1172 Q1337.5,31.4063 1338.5547,32.2656 Q1339.6094,33.125 1341.4844,33.125 Q1342.5977,33.125 1343.3789,32.8711 Q1343.8281,32.7344 1344.3359,32.2852 Q1344.668,32.0313 1344.8438,31.9531 Q1345.0195,31.875 1345.2344,31.875 Q1345.6445,31.875 1345.9375,32.207 Q1346.25,32.5195 1346.25,32.9688 Q1346.25,33.3984 1345.8203,33.9063 Q1345.1953,34.6484 1344.1992,35.0586 Q1342.8906,35.625 1341.2891,35.625 Q1339.4141,35.625 1337.9102,34.8828 Q1336.6992,34.2969 1335.8398,33.0273 Q1335,31.7578 1335,30.2539 L1335,28.8867 Q1335,27.3242 1335.7422,25.957 Q1336.5039,24.5898 1337.8125,23.8672 Q1339.1406,23.125 1340.625,23.125 Q1341.5234,23.125 1342.3047,23.4375 Q1343.0859,23.75 1343.75,24.375 Z " fill="#000000"/><text fill="#000000" font-family="sans-serif" font-size="15" lengthAdjust="spacing" textLength="110" x="1358.75" y="34.8877">ReferenceValue</text><line style="stroke:#A80036;stroke-width:1.875;" x1="1323.75" x2="1471.25" y1="48.75" y2="48.75"/><text fill="#000000" font-family="sans-serif" font-size="13.75" lengthAdjust="spacing" textLength="103.75" x="1330" y="68.0237">-double maximum</text><text fill="#000000" font-family="sans-serif" font-size="13.75" lengthAdjust="spacing" textLength="98.75" x="1330" y="85.3186">-double minimum</text><text fill="#000000" font-family="sans-serif" font-size="13.75" lengthAdjust="spacing" textLength="80" x="1330" y="102.6135">-String metric</text><!--MD5=[8f188b89eff49accb0f38c057b38a9f2]
class ExternalModule--><rect codeLine="43" fill="#FEFECE" filter="url(#f140ejri3du1lc)" height="50" id="ExternalModule" style="stroke:#A80036;stroke-width:1.875;" width="145" x="1647.5" y="35"/><ellipse cx="1666.25" cy="55" fill="#ADD1B2" rx="13.75" ry="13.75" style="stroke:#A80036;stroke-width:1.25;"/><path d="M1668.75,50.625 Q1669.0039,50 1669.2969,49.6875 Q1669.5898,49.375 1669.9219,49.375 Q1670.5078,49.375 1670.8789,49.7266 Q1671.25,50.0781 1671.25,50.8984 L1671.25,52.8516 Q1671.25,53.6719 1670.8984,54.0234 Q1670.5469,54.375 1670,54.375 Q1669.5117,54.375 1669.1992,54.1602 Q1668.8867,53.9453 1668.75,53.3789 Q1668.6914,52.9883 1668.4766,52.7734 Q1668.0859,52.3633 1667.3828,52.1289 Q1666.6797,51.875 1665.9766,51.875 Q1665.0977,51.875 1664.3555,52.2266 Q1663.6328,52.5781 1663.0664,53.3594 Q1662.5,54.1406 1662.5,55.2148 L1662.5,56.3672 Q1662.5,57.6563 1663.5547,58.5156 Q1664.6094,59.375 1666.4844,59.375 Q1667.5977,59.375 1668.3789,59.1211 Q1668.8281,58.9844 1669.3359,58.5352 Q1669.668,58.2813 1669.8438,58.2031 Q1670.0195,58.125 1670.2344,58.125 Q1670.6445,58.125 1670.9375,58.457 Q1671.25,58.7695 1671.25,59.2188 Q1671.25,59.6484 1670.8203,60.1563 Q1670.1953,60.8984 1669.1992,61.3086 Q1667.8906,61.875 1666.2891,61.875 Q1664.4141,61.875 1662.9102,61.1328 Q1661.6992,60.5469 1660.8398,59.2773 Q1660,58.0078 1660,56.5039 L1660,55.1367 Q1660,53.5742 1660.7422,52.207 Q1661.5039,50.8398 1662.8125,50.1172 Q1664.1406,49.375 1665.625,49.375 Q1666.5234,49.375 1667.3047,49.6875 Q1668.0859,50 1668.75,50.625 Z " fill="#000000"/><text fill="#000000" font-family="sans-serif" font-size="15" lengthAdjust="spacing" textLength="105" x="1683.75" y="61.1377">ExternalModule</text><line style="stroke:#A80036;stroke-width:1.875;" x1="1648.75" x2="1791.25" y1="75" y2="75"/><!--MD5=[1f6362a5c8f21d8d6a0fce68f3a92a4e]
class Parameter--><rect codeLine="62" fill="#FEFECE" filter="url(#f140ejri3du1lc)" height="101.8848" id="Parameter" style="stroke:#A80036;stroke-width:1.875;" width="125" x="1018.75" y="168.75"/><ellipse cx="1043.125" cy="188.75" fill="#ADD1B2" rx="13.75" ry="13.75" style="stroke:#A80036;stroke-width:1.25;"/><path d="M1045.625,184.375 Q1045.8789,183.75 1046.1719,183.4375 Q1046.4648,183.125 1046.7969,183.125 Q1047.3828,183.125 1047.7539,183.4766 Q1048.125,183.8281 1048.125,184.6484 L1048.125,186.6016 Q1048.125,187.4219 1047.7734,187.7734 Q1047.4219,188.125 1046.875,188.125 Q1046.3867,188.125 1046.0742,187.9102 Q1045.7617,187.6953 1045.625,187.1289 Q1045.5664,186.7383 1045.3516,186.5234 Q1044.9609,186.1133 1044.2578,185.8789 Q1043.5547,185.625 1042.8516,185.625 Q1041.9727,185.625 1041.2305,185.9766 Q1040.5078,186.3281 1039.9414,187.1094 Q1039.375,187.8906 1039.375,188.9648 L1039.375,190.1172 Q1039.375,191.4063 1040.4297,192.2656 Q1041.4844,193.125 1043.3594,193.125 Q1044.4727,193.125 1045.2539,192.8711 Q1045.7031,192.7344 1046.2109,192.2852 Q1046.543,192.0313 1046.7188,191.9531 Q1046.8945,191.875 1047.1094,191.875 Q1047.5195,191.875 1047.8125,192.207 Q1048.125,192.5195 1048.125,192.9688 Q1048.125,193.3984 1047.6953,193.9063 Q1047.0703,194.6484 1046.0742,195.0586 Q1044.7656,195.625 1043.1641,195.625 Q1041.2891,195.625 1039.7852,194.8828 Q1038.5742,194.2969 1037.7148,193.0273 Q1036.875,191.7578 1036.875,190.2539 L1036.875,188.8867 Q1036.875,187.3242 1037.6172,185.957 Q1038.3789,184.5898 1039.6875,183.8672 Q1041.0156,183.125 1042.5,183.125 Q1043.3984,183.125 1044.1797,183.4375 Q1044.9609,183.75 1045.625,184.375 Z " fill="#000000"/><text fill="#000000" font-family="sans-serif" font-size="15" lengthAdjust="spacing" textLength="72.5" x="1061.875" y="194.8877">Parameter</text><line style="stroke:#A80036;stroke-width:1.875;" x1="1020" x2="1142.5" y1="208.75" y2="208.75"/><text fill="#000000" font-family="sans-serif" font-size="13.75" lengthAdjust="spacing" textLength="73.75" x="1026.25" y="228.0237">-String code</text><text fill="#000000" font-family="sans-serif" font-size="13.75" lengthAdjust="spacing" textLength="108.75" x="1026.25" y="245.3186">-String shortName</text><text fill="#000000" font-family="sans-serif" font-size="13.75" lengthAdjust="spacing" textLength="110" x="1026.25" y="262.6135">-String description</text><!--MD5=[0f07739f46effee96e095e9c408da841]
class TestParameter--><rect codeLine="12" fill="#FEFECE" filter="url(#f140ejri3du1lc)" height="50" id="TestParameter" style="stroke:#A80036;stroke-width:1.875;" width="142.5" x="679.375" y="35"/><ellipse cx="698.125" cy="55" fill="#ADD1B2" rx="13.75" ry="13.75" style="stroke:#A80036;stroke-width:1.25;"/><path d="M700.625,50.625 Q700.8789,50 701.1719,49.6875 Q701.4648,49.375 701.7969,49.375 Q702.3828,49.375 702.7539,49.7266 Q703.125,50.0781 703.125,50.8984 L703.125,52.8516 Q703.125,53.6719 702.7734,54.0234 Q702.4219,54.375 701.875,54.375 Q701.3867,54.375 701.0742,54.1602 Q700.7617,53.9453 700.625,53.3789 Q700.5664,52.9883 700.3516,52.7734 Q699.9609,52.3633 699.2578,52.1289 Q698.5547,51.875 697.8516,51.875 Q696.9727,51.875 696.2305,52.2266 Q695.5078,52.5781 694.9414,53.3594 Q694.375,54.1406 694.375,55.2148 L694.375,56.3672 Q694.375,57.6563 695.4297,58.5156 Q696.4844,59.375 698.3594,59.375 Q699.4727,59.375 700.2539,59.1211 Q700.7031,58.9844 701.2109,58.5352 Q701.543,58.2813 701.7188,58.2031 Q701.8945,58.125 702.1094,58.125 Q702.5195,58.125 702.8125,58.457 Q703.125,58.7695 703.125,59.2188 Q703.125,59.6484 702.6953,60.1563 Q702.0703,60.8984 701.0742,61.3086 Q699.7656,61.875 698.1641,61.875 Q696.2891,61.875 694.7852,61.1328 Q693.5742,60.5469 692.7148,59.2773 Q691.875,58.0078 691.875,56.5039 L691.875,55.1367 Q691.875,53.5742 692.6172,52.207 Q693.3789,50.8398 694.6875,50.1172 Q696.0156,49.375 697.5,49.375 Q698.3984,49.375 699.1797,49.6875 Q699.9609,50 700.625,50.625 Z " fill="#000000"/><text fill="#000000" font-family="sans-serif" font-size="15" lengthAdjust="spacing" textLength="102.5" x="715.625" y="61.1377">TestParameter</text><line style="stroke:#A80036;stroke-width:1.875;" x1="680.625" x2="820.625" y1="75" y2="75"/><!--MD5=[4e608140b854dae633589343bce77383]
class TestParameterResult--><rect codeLine="68" fill="#FEFECE" filter="url(#f140ejri3du1lc)" height="84.5898" id="TestParameterResult" style="stroke:#A80036;stroke-width:1.875;" width="187.5" x="987.5" y="17.5"/><ellipse cx="1006.25" cy="37.5" fill="#ADD1B2" rx="13.75" ry="13.75" style="stroke:#A80036;stroke-width:1.25;"/><path d="M1008.75,33.125 Q1009.0039,32.5 1009.2969,32.1875 Q1009.5898,31.875 1009.9219,31.875 Q1010.5078,31.875 1010.8789,32.2266 Q1011.25,32.5781 1011.25,33.3984 L1011.25,35.3516 Q1011.25,36.1719 1010.8984,36.5234 Q1010.5469,36.875 1010,36.875 Q1009.5117,36.875 1009.1992,36.6602 Q1008.8867,36.4453 1008.75,35.8789 Q1008.6914,35.4883 1008.4766,35.2734 Q1008.0859,34.8633 1007.3828,34.6289 Q1006.6797,34.375 1005.9766,34.375 Q1005.0977,34.375 1004.3555,34.7266 Q1003.6328,35.0781 1003.0664,35.8594 Q1002.5,36.6406 1002.5,37.7148 L1002.5,38.8672 Q1002.5,40.1563 1003.5547,41.0156 Q1004.6094,41.875 1006.4844,41.875 Q1007.5977,41.875 1008.3789,41.6211 Q1008.8281,41.4844 1009.3359,41.0352 Q1009.668,40.7813 1009.8438,40.7031 Q1010.0195,40.625 1010.2344,40.625 Q1010.6445,40.625 1010.9375,40.957 Q1011.25,41.2695 1011.25,41.7188 Q1011.25,42.1484 1010.8203,42.6563 Q1010.1953,43.3984 1009.1992,43.8086 Q1007.8906,44.375 1006.2891,44.375 Q1004.4141,44.375 1002.9102,43.6328 Q1001.6992,43.0469 1000.8398,41.7773 Q1000,40.5078 1000,39.0039 L1000,37.6367 Q1000,36.0742 1000.7422,34.707 Q1001.5039,33.3398 1002.8125,32.6172 Q1004.1406,31.875 1005.625,31.875 Q1006.5234,31.875 1007.3047,32.1875 Q1008.0859,32.5 1008.75,33.125 Z " fill="#000000"/><text fill="#000000" font-family="sans-serif" font-size="15" lengthAdjust="spacing" textLength="147.5" x="1023.75" y="43.6377">TestParameterResult</text><line style="stroke:#A80036;stroke-width:1.875;" x1="988.75" x2="1173.75" y1="57.5" y2="57.5"/><text fill="#000000" font-family="sans-serif" font-size="13.75" lengthAdjust="spacing" textLength="81.25" x="995" y="76.7737">-double value</text><text fill="#000000" font-family="sans-serif" font-size="13.75" lengthAdjust="spacing" textLength="80" x="995" y="94.0686">-String metric</text><!--MD5=[ed6624c6556d5e7b1bd23032162d20b7]
class Client--><rect codeLine="49" fill="#FEFECE" filter="url(#f140ejri3du1lc)" height="205.6543" id="Client" style="stroke:#A80036;stroke-width:1.875;" width="132.5" x="1015" y="360.625"/><ellipse cx="1057.375" cy="380.625" fill="#ADD1B2" rx="13.75" ry="13.75" style="stroke:#A80036;stroke-width:1.25;"/><path d="M1059.875,376.25 Q1060.1289,375.625 1060.4219,375.3125 Q1060.7148,375 1061.0469,375 Q1061.6328,375 1062.0039,375.3516 Q1062.375,375.7031 1062.375,376.5234 L1062.375,378.4766 Q1062.375,379.2969 1062.0234,379.6484 Q1061.6719,380 1061.125,380 Q1060.6367,380 1060.3242,379.7852 Q1060.0117,379.5703 1059.875,379.0039 Q1059.8164,378.6133 1059.6016,378.3984 Q1059.2109,377.9883 1058.5078,377.7539 Q1057.8047,377.5 1057.1016,377.5 Q1056.2227,377.5 1055.4805,377.8516 Q1054.7578,378.2031 1054.1914,378.9844 Q1053.625,379.7656 1053.625,380.8398 L1053.625,381.9922 Q1053.625,383.2813 1054.6797,384.1406 Q1055.7344,385 1057.6094,385 Q1058.7227,385 1059.5039,384.7461 Q1059.9531,384.6094 1060.4609,384.1602 Q1060.793,383.9063 1060.9688,383.8281 Q1061.1445,383.75 1061.3594,383.75 Q1061.7695,383.75 1062.0625,384.082 Q1062.375,384.3945 1062.375,384.8438 Q1062.375,385.2734 1061.9453,385.7813 Q1061.3203,386.5234 1060.3242,386.9336 Q1059.0156,387.5 1057.4141,387.5 Q1055.5391,387.5 1054.0352,386.7578 Q1052.8242,386.1719 1051.9648,384.9023 Q1051.125,383.6328 1051.125,382.1289 L1051.125,380.7617 Q1051.125,379.1992 1051.8672,377.832 Q1052.6289,376.4648 1053.9375,375.7422 Q1055.2656,375 1056.75,375 Q1057.6484,375 1058.4297,375.3125 Q1059.2109,375.625 1059.875,376.25 Z " fill="#000000"/><text fill="#000000" font-family="sans-serif" font-size="15" lengthAdjust="spacing" textLength="40" x="1080.125" y="386.7627">Client</text><line style="stroke:#A80036;stroke-width:1.875;" x1="1016.25" x2="1146.25" y1="400.625" y2="400.625"/><text fill="#000000" font-family="sans-serif" font-size="13.75" lengthAdjust="spacing" textLength="76.25" x="1022.5" y="419.8987">-String name</text><text fill="#000000" font-family="sans-serif" font-size="13.75" lengthAdjust="spacing" textLength="66.25" x="1022.5" y="437.1936">-String ccn</text><text fill="#000000" font-family="sans-serif" font-size="13.75" lengthAdjust="spacing" textLength="56.25" x="1022.5" y="454.4885">-long nhs</text><text fill="#000000" font-family="sans-serif" font-size="13.75" lengthAdjust="spacing" textLength="47.5" x="1022.5" y="471.7834">-long tin</text><text fill="#000000" font-family="sans-serif" font-size="13.75" lengthAdjust="spacing" textLength="93.75" x="1022.5" y="489.0784">-String birthDay</text><text fill="#000000" font-family="sans-serif" font-size="13.75" lengthAdjust="spacing" textLength="66.25" x="1022.5" y="506.3733">-String sex</text><text fill="#000000" font-family="sans-serif" font-size="13.75" lengthAdjust="spacing" textLength="117.5" x="1022.5" y="523.6682">-long phoneNumber</text><text fill="#000000" font-family="sans-serif" font-size="13.75" lengthAdjust="spacing" textLength="73.75" x="1022.5" y="540.9631">-String email</text><text fill="#000000" font-family="sans-serif" font-size="13.75" lengthAdjust="spacing" textLength="93.75" x="1022.5" y="558.2581">-String address</text><ellipse cx="750.625" cy="220" fill="#000000" rx="2.5" ry="2.5" style="stroke:none;stroke-width:1.25;"/><!--MD5=[7e4bc624457760b649895ff2ead938fa]
link Company to Test--><path codeLine="16" d="M136.3,288.75 C182.5,288.75 245.2875,288.75 292.3875,288.75 " fill="none" id="Company-Test" style="stroke:#A80036;stroke-width:1.25;"/><polygon fill="#000000" points="186.25,277.7197,174.9436,274.0461,174.9436,281.3934,186.25,277.7197" style="stroke:#000000;stroke-width:1.25;"/><text fill="#000000" font-family="sans-serif" font-size="16.25" lengthAdjust="spacing" textLength="62.5" x="191.25" y="284.3689">performs</text><text fill="#000000" font-family="sans-serif" font-size="16.25" lengthAdjust="spacing" textLength="8.75" x="146.3132" y="307.135">1</text><text fill="#000000" font-family="sans-serif" font-size="16.25" lengthAdjust="spacing" textLength="6.25" x="276.19" y="307.0258">*</text><!--MD5=[12d76240d3c3c66074d4ec2ea8bf469c]
link Company to Parameter--><path codeLine="17" d="M136.3125,259.375 C179.2375,240.775 238.05,218.2625 292.5,207.5 C544.45,157.7 613.2125,191.95 870,187.5 C905.55,186.8875 914.7125,183.15 950,187.5 C972.625,190.2875 996.9875,195.7 1018.425,201.325 " fill="none" id="Company-Parameter" style="stroke:#A80036;stroke-width:1.25;"/><polygon fill="#000000" points="477.4865,168.5593,465.9633,165.636,466.4458,172.9675,477.4865,168.5593" style="stroke:#000000;stroke-width:1.25;"/><text fill="#000000" font-family="sans-serif" font-size="16.25" lengthAdjust="spacing" textLength="147.5" x="482.5" y="175.6189">capable of analysing</text><text fill="#000000" font-family="sans-serif" font-size="16.25" lengthAdjust="spacing" textLength="8.75" x="146.3275" y="273.4455">1</text><text fill="#000000" font-family="sans-serif" font-size="16.25" lengthAdjust="spacing" textLength="6.25" x="1002.4886" y="216.9972">*</text><!--MD5=[c00ee55fb607997a8fe521d01f38cc98]
link Test to apoint80506--><path d="M427.8125,266.975 C440.0875,263.45 452.8625,260.1125 465,257.5 C581.85,232.375 729.55,221.4 747.55,220.125 " fill="none" id="Test-apoint80506" style="stroke:#A80036;stroke-width:1.25;"/><!--MD5=[6083715bc852a8448406ab4955878a67]
link apoint80506 to Parameter--><path d="M753.3375,220 C770.1875,220 928.6125,220 1018.4875,220 " fill="none" id="apoint80506-Parameter" style="stroke:#A80036;stroke-width:1.25;"/><!--MD5=[59940fd74b2b31f58fe00831b3889dcb]
link apoint80506 to TestParameter--><path d="M750.625,217.5 C750.625,173.4125 750.625,129.3125 750.625,85.225 " fill="none" id="apoint80506-TestParameter" style="stroke:#A80036;stroke-width:1.25;stroke-dasharray:7.0,7.0;"/><!--MD5=[0e00e25ac6b8c14659aaff2cf7e5df08]
link TestParameter to TestParameterResult--><path codeLine="19" d="M822.2625,60 C870.475,60 934.9125,60 987.2875,60 " fill="none" id="TestParameter-TestParameterResult" style="stroke:#A80036;stroke-width:1.25;"/><polygon fill="#000000" points="882.5,48.9697,871.1936,45.2961,871.1936,52.6434,882.5,48.9697" style="stroke:#000000;stroke-width:1.25;"/><text fill="#000000" font-family="sans-serif" font-size="16.25" lengthAdjust="spacing" textLength="61.25" x="887.5" y="55.6189">contains</text><text fill="#000000" font-family="sans-serif" font-size="16.25" lengthAdjust="spacing" textLength="8.75" x="832.0016" y="78.1783">1</text><text fill="#000000" font-family="sans-serif" font-size="16.25" lengthAdjust="spacing" textLength="8.75" x="968.8574" y="77.8951">1</text><!--MD5=[52200cc2361fa0ac0481dd6ffcdb824b]
link TestParameterResult to ReferenceValue--><path codeLine="20" d="M1175.3625,60 C1222.1625,60 1278.1375,60 1322.025,60 " fill="none" id="TestParameterResult-ReferenceValue" style="stroke:#A80036;stroke-width:1.25;"/><polygon fill="#000000" points="1225,48.9697,1213.6936,45.2961,1213.6936,52.6434,1225,48.9697" style="stroke:#000000;stroke-width:1.25;"/><text fill="#000000" font-family="sans-serif" font-size="16.25" lengthAdjust="spacing" textLength="53.75" x="1230" y="55.6189">records</text><text fill="#000000" font-family="sans-serif" font-size="16.25" lengthAdjust="spacing" textLength="8.75" x="1185.0574" y="77.8951">1</text><text fill="#000000" font-family="sans-serif" font-size="16.25" lengthAdjust="spacing" textLength="8.75" x="1303.5433" y="78.1519">1</text><!--MD5=[9735660ec8fc5abdb8afe2aef285d6e2]
link ReferenceValue to ExternalModule--><path codeLine="21" d="M1472.5625,60 C1524.9875,60 1595,60 1646.9625,60 " fill="none" id="ReferenceValue-ExternalModule" style="stroke:#A80036;stroke-width:1.25;"/><polygon fill="#000000" points="1522.5,48.9697,1511.1936,45.2961,1511.1936,52.6434,1522.5,48.9697" style="stroke:#000000;stroke-width:1.25;"/><text fill="#000000" font-family="sans-serif" font-size="16.25" lengthAdjust="spacing" textLength="81.25" x="1527.5" y="55.6189">provided by</text><text fill="#000000" font-family="sans-serif" font-size="16.25" lengthAdjust="spacing" textLength="8.75" x="1482.7404" y="78.2177">1</text><text fill="#000000" font-family="sans-serif" font-size="16.25" lengthAdjust="spacing" textLength="6.25" x="1631.4302" y="78.1144">*</text><!--MD5=[6eee883fdf517d3604e8bd0f2058e9aa]
link Company to Client--><path codeLine="22" d="M136.65,316.6125 C179.7125,334.5625 238.5625,356.9125 292.5,370 C555.4125,433.8125 878.6875,454.9 1014.7625,461.25 " fill="none" id="Company-Client" style="stroke:#A80036;stroke-width:1.25;"/><polygon fill="#000000" points="538.0419,396.2355,527.4829,390.7731,526.2888,398.0228,538.0419,396.2355" style="stroke:#000000;stroke-width:1.25;"/><text fill="#000000" font-family="sans-serif" font-size="16.25" lengthAdjust="spacing" textLength="26.25" x="543.125" y="401.8689">has</text><text fill="#000000" font-family="sans-serif" font-size="16.25" lengthAdjust="spacing" textLength="8.75" x="146.2863" y="338.8511">1</text><text fill="#000000" font-family="sans-serif" font-size="16.25" lengthAdjust="spacing" textLength="6.25" x="998.7232" y="479.2464">*</text><!--MD5=[3994f36c72829dbcddd1cf7021dddf61]
link Test to Client--><path codeLine="23" d="M427.575,304.9 C564.85,338.325 878.625,414.725 1014.8625,447.8875 " fill="none" id="Test-Client" style="stroke:#A80036;stroke-width:1.25;"/><polygon fill="#000000" points="706.6976,354.1982,696.5812,347.9542,694.8431,355.093,706.6976,354.1982" style="stroke:#000000;stroke-width:1.25;"/><text fill="#000000" font-family="sans-serif" font-size="16.25" lengthAdjust="spacing" textLength="93.75" x="711.875" y="359.3689">requested by</text><text fill="#000000" font-family="sans-serif" font-size="16.25" lengthAdjust="spacing" textLength="25" x="437.3341" y="324.9565">1..*</text><text fill="#000000" font-family="sans-serif" font-size="16.25" lengthAdjust="spacing" textLength="8.75" x="996.1615" y="441.1923">1</text><!--MD5=[c23963f6e403fc3ebec8dae22c30ade6]
link Test to Parameter--><path codeLine="24" d="M427.825,288.775 C519.3375,288.1125 688.95,284.425 832.5,267.5 C896.375,259.975 968.5,245.425 1018.3375,234.4 " fill="none" id="Test-Parameter" style="stroke:#A80036;stroke-width:1.25;"/><polygon fill="#000000" points="681.2237,255.8966,669.6281,253.2752,670.3018,260.5915,681.2237,255.8966" style="stroke:#000000;stroke-width:1.25;"/><text fill="#000000" font-family="sans-serif" font-size="16.25" lengthAdjust="spacing" textLength="145" x="686.25" y="263.1189">requests analysis of</text><text fill="#000000" font-family="sans-serif" font-size="16.25" lengthAdjust="spacing" textLength="25" x="437.6146" y="306.8663">1..*</text><text fill="#000000" font-family="sans-serif" font-size="16.25" lengthAdjust="spacing" textLength="25" x="983.6753" y="254.4627">1..*</text><!--MD5=[e5df9ee53390e0ae6ef56e78cd972bf3]
@startuml
'https://plantuml.com/class-diagram

hide methods
left to right direction
skinparam classAttributeIconSize 0

class Company
class Test
class ReferenceValue
interface ExternalModule
class Parameter
class TestParameter
class TestParameterResult
class Client

Company "1" - - "*" Test: performs >
Company "1" - - "*" Parameter: capable of analysing >
(Test, Parameter) . TestParameter
TestParameter "1" - - "1" TestParameterResult: contains >
TestParameterResult "1" - - "1" ReferenceValue: records >
ReferenceValue "1" - - "*" ExternalModule: provided by >
Company "1" - - "*" Client: has >
Test "1..*" - - - "1" Client: requested by >
Test "1..*" - - "1..*" Parameter: requests analysis of >

class Company {
 -String designation
}

class Test{
 -String code
 -String nhsCode
 -Date date
 -Date validationDate
}

class ReferenceValue{
 -double maximum
 -double minimum
 -String metric
}

class ExternalModule {


}


class Client{
 -String name
 -String ccn
 -long nhs
 -long tin
 -String birthDay
 -String sex
 -long phoneNumber
 -String email
 -String address
}


class Parameter{
-String code
-String shortName
-String description
}

class TestParameterResult{
-double value
-String metric
}


@enduml

@startuml

hide methods
left to right direction
skinparam classAttributeIconSize 0

class Company
class Test
class ReferenceValue
interface ExternalModule
class Parameter
class TestParameter
class TestParameterResult
class Client

Company "1" - - "*" Test: performs >
Company "1" - - "*" Parameter: capable of analysing >
(Test, Parameter) . TestParameter
TestParameter "1" - - "1" TestParameterResult: contains >
TestParameterResult "1" - - "1" ReferenceValue: records >
ReferenceValue "1" - - "*" ExternalModule: provided by >
Company "1" - - "*" Client: has >
Test "1..*" - - - "1" Client: requested by >
Test "1..*" - - "1..*" Parameter: requests analysis of >

class Company {
 -String designation
}

class Test{
 -String code
 -String nhsCode
 -Date date
 -Date validationDate
}

class ReferenceValue{
 -double maximum
 -double minimum
 -String metric
}

class ExternalModule {


}


class Client{
 -String name
 -String ccn
 -long nhs
 -long tin
 -String birthDay
 -String sex
 -long phoneNumber
 -String email
 -String address
}


class Parameter{
-String code
-String shortName
-String description
}

class TestParameterResult{
-double value
-String metric
}


@enduml

PlantUML version 1.2021.4(Sun Apr 04 09:49:39 BST 2021)
(GPL source distribution)
Java Runtime: OpenJDK Runtime Environment
JVM: Dynamic Code Evolution 64-Bit Server VM
Default Encoding: Cp1252
Language: pt
Country: PT
--></g></svg>