<?xml version="1.0" encoding="UTF-8" standalone="no"?><svg xmlns="http://www.w3.org/2000/svg" xmlns:xlink="http://www.w3.org/1999/xlink" contentScriptType="application/ecmascript" contentStyleType="text/css" height="1119px" preserveAspectRatio="none" style="width:2140px;height:1119px;background:#FFFFFF;" version="1.1" viewBox="0 0 2140 1119" width="2140px" zoomAndPan="magnify"><defs><filter height="300%" id="f1woe39gjne7zi" width="300%" x="-1" y="-1"><feGaussianBlur result="blurOut" stdDeviation="2.0"/><feColorMatrix in="blurOut" result="blurOut2" type="matrix" values="0 0 0 0 0 0 0 0 0 0 0 0 0 0 0 0 0 0 .4 0"/><feOffset dx="4.0" dy="4.0" in="blurOut2" result="blurOut3"/><feBlend in="SourceGraphic" in2="blurOut3" mode="normal"/></filter></defs><g><rect fill="#FFFFFF" filter="url(#f1woe39gjne7zi)" height="918.8047" style="stroke:#A80036;stroke-width:1.0;" width="10" x="68" y="98.2969"/><rect fill="#FFFFFF" filter="url(#f1woe39gjne7zi)" height="29.1328" style="stroke:#A80036;stroke-width:1.0;" width="10" x="564" y="119.4297"/><rect fill="#FFFFFF" filter="url(#f1woe39gjne7zi)" height="281.6875" style="stroke:#A80036;stroke-width:1.0;" width="10" x="564" y="177.6953"/><rect fill="#FFFFFF" filter="url(#f1woe39gjne7zi)" height="274.5234" style="stroke:#A80036;stroke-width:1.0;" width="10" x="564" y="541.7813"/><rect fill="#FFFFFF" filter="url(#f1woe39gjne7zi)" height="171.6641" style="stroke:#A80036;stroke-width:1.0;" width="10" x="564" y="845.4375"/><rect fill="#FFFFFF" filter="url(#f1woe39gjne7zi)" height="252.5547" style="stroke:#A80036;stroke-width:1.0;" width="10" x="922" y="206.8281"/><rect fill="#FFFFFF" filter="url(#f1woe39gjne7zi)" height="230.2578" style="stroke:#A80036;stroke-width:1.0;" width="10" x="922" y="586.0469"/><rect fill="#FFFFFF" filter="url(#f1woe39gjne7zi)" height="106.3984" style="stroke:#A80036;stroke-width:1.0;" width="10" x="922" y="874.5703"/><rect fill="#FFFFFF" filter="url(#f1woe39gjne7zi)" height="74.4297" style="stroke:#A80036;stroke-width:1.0;" width="10" x="1091" y="235.9609"/><rect fill="#FFFFFF" filter="url(#f1woe39gjne7zi)" height="531.8828" style="stroke:#A80036;stroke-width:1.0;" width="10" x="1300" y="98.2969"/><rect fill="#FFFFFF" filter="url(#f1woe39gjne7zi)" height="44.2656" style="stroke:#A80036;stroke-width:1.0;" width="10" x="1300" y="666.4453"/><rect fill="#FFFFFF" filter="url(#f1woe39gjne7zi)" height="30" style="stroke:#A80036;stroke-width:1.0;" width="10" x="1300" y="757.1719"/><rect fill="#FFFFFF" filter="url(#f1woe39gjne7zi)" height="148.9922" style="stroke:#A80036;stroke-width:1.0;" width="10" x="1435" y="310.3906"/><rect fill="#FFFFFF" filter="url(#f1woe39gjne7zi)" height="113.3984" style="stroke:#A80036;stroke-width:1.0;" width="10" x="1575.5" y="903.7031"/><rect fill="#FFFFFF" filter="url(#f1woe39gjne7zi)" height="148.7969" style="stroke:#000000;stroke-width:2.0;" width="1370.5" x="10" y="474.3828"/><line style="stroke:#A80036;stroke-width:1.0;stroke-dasharray:5.0,5.0;" x1="73" x2="73" y1="88.2969" y2="1035.1016"/><line style="stroke:#A80036;stroke-width:1.0;stroke-dasharray:5.0,5.0;" x1="568.5" x2="568.5" y1="88.2969" y2="1035.1016"/><line style="stroke:#A80036;stroke-width:1.0;stroke-dasharray:5.0,5.0;" x1="926.5" x2="926.5" y1="88.2969" y2="1035.1016"/><line style="stroke:#A80036;stroke-width:1.0;stroke-dasharray:5.0,5.0;" x1="1095.5" x2="1095.5" y1="88.2969" y2="1035.1016"/><line style="stroke:#A80036;stroke-width:1.0;stroke-dasharray:5.0,5.0;" x1="1304.5" x2="1304.5" y1="88.2969" y2="1035.1016"/><line style="stroke:#A80036;stroke-width:1.0;stroke-dasharray:5.0,5.0;" x1="1439.5" x2="1439.5" y1="88.2969" y2="1035.1016"/><line style="stroke:#A80036;stroke-width:1.0;stroke-dasharray:5.0,5.0;" x1="1580.5" x2="1580.5" y1="88.2969" y2="1035.1016"/><line style="stroke:#A80036;stroke-width:1.0;stroke-dasharray:5.0,5.0;" x1="1766.5" x2="1766.5" y1="276.6094" y2="1035.1016"/><line style="stroke:#A80036;stroke-width:1.0;stroke-dasharray:5.0,5.0;" x1="1945.5" x2="1945.5" y1="388.3203" y2="1035.1016"/><line style="stroke:#A80036;stroke-width:1.0;stroke-dasharray:5.0,5.0;" x1="2081.5" x2="2081.5" y1="715.2422" y2="1035.1016"/><text fill="#000000" font-family="sans-serif" font-size="14" lengthAdjust="spacing" textLength="100" x="20" y="84.9951">Administrator</text><ellipse cx="73" cy="15" fill="#FEFECE" filter="url(#f1woe39gjne7zi)" rx="8" ry="8" style="stroke:#A80036;stroke-width:2.0;"/><path d="M73,23 L73,50 M60,31 L86,31 M73,50 L60,65 M73,50 L86,65 " fill="none" filter="url(#f1woe39gjne7zi)" style="stroke:#A80036;stroke-width:2.0;"/><text fill="#000000" font-family="sans-serif" font-size="14" lengthAdjust="spacing" textLength="100" x="20" y="1047.0967">Administrator</text><ellipse cx="73" cy="1060.3984" fill="#FEFECE" filter="url(#f1woe39gjne7zi)" rx="8" ry="8" style="stroke:#A80036;stroke-width:2.0;"/><path d="M73,1068.3984 L73,1095.3984 M60,1076.3984 L86,1076.3984 M73,1095.3984 L60,1110.3984 M73,1095.3984 L86,1110.3984 " fill="none" filter="url(#f1woe39gjne7zi)" style="stroke:#A80036;stroke-width:2.0;"/><rect fill="#FEFECE" filter="url(#f1woe39gjne7zi)" height="30.2969" style="stroke:#A80036;stroke-width:1.5;" width="161" x="486.5" y="53"/><text fill="#000000" font-family="sans-serif" font-size="14" lengthAdjust="spacing" textLength="147" x="493.5" y="72.9951">:RegistLaboratory UI</text><rect fill="#FEFECE" filter="url(#f1woe39gjne7zi)" height="30.2969" style="stroke:#A80036;stroke-width:1.5;" width="161" x="486.5" y="1034.1016"/><text fill="#000000" font-family="sans-serif" font-size="14" lengthAdjust="spacing" textLength="147" x="493.5" y="1054.0967">:RegistLaboratory UI</text><rect fill="#FEFECE" filter="url(#f1woe39gjne7zi)" height="30.2969" style="stroke:#A80036;stroke-width:1.5;" width="223" x="813.5" y="53"/><text fill="#000000" font-family="sans-serif" font-size="14" lengthAdjust="spacing" textLength="209" x="820.5" y="72.9951">:RegistLaboratoryCrontroller</text><rect fill="#FEFECE" filter="url(#f1woe39gjne7zi)" height="30.2969" style="stroke:#A80036;stroke-width:1.5;" width="223" x="813.5" y="1034.1016"/><text fill="#000000" font-family="sans-serif" font-size="14" lengthAdjust="spacing" textLength="209" x="820.5" y="1054.0967">:RegistLaboratoryCrontroller</text><rect fill="#FEFECE" filter="url(#f1woe39gjne7zi)" height="30.2969" style="stroke:#A80036;stroke-width:1.5;" width="87" x="1050.5" y="53"/><text fill="#000000" font-family="sans-serif" font-size="14" lengthAdjust="spacing" textLength="73" x="1057.5" y="72.9951">:Company</text><rect fill="#FEFECE" filter="url(#f1woe39gjne7zi)" height="30.2969" style="stroke:#A80036;stroke-width:1.5;" width="87" x="1050.5" y="1034.1016"/><text fill="#000000" font-family="sans-serif" font-size="14" lengthAdjust="spacing" textLength="73" x="1057.5" y="1054.0967">:Company</text><rect fill="#FEFECE" filter="url(#f1woe39gjne7zi)" height="46.5938" style="stroke:#A80036;stroke-width:1.5;" width="127" x="1239.5" y="36.7031"/><text fill="#000000" font-family="sans-serif" font-size="14" lengthAdjust="spacing" textLength="38" x="1284" y="56.6982">store</text><text fill="#000000" font-family="sans-serif" font-size="14" lengthAdjust="spacing" textLength="113" x="1246.5" y="72.9951">:StoreTestType</text><rect fill="#FEFECE" filter="url(#f1woe39gjne7zi)" height="46.5938" style="stroke:#A80036;stroke-width:1.5;" width="127" x="1239.5" y="1034.1016"/><text fill="#000000" font-family="sans-serif" font-size="14" lengthAdjust="spacing" textLength="38" x="1284" y="1054.0967">store</text><text fill="#000000" font-family="sans-serif" font-size="14" lengthAdjust="spacing" textLength="113" x="1246.5" y="1070.3936">:StoreTestType</text><rect fill="#FEFECE" filter="url(#f1woe39gjne7zi)" height="30.2969" style="stroke:#A80036;stroke-width:1.5;" width="115" x="1380.5" y="53"/><text fill="#000000" font-family="sans-serif" font-size="14" lengthAdjust="spacing" textLength="101" x="1387.5" y="72.9951">:listPCMapper</text><rect fill="#FEFECE" filter="url(#f1woe39gjne7zi)" height="30.2969" style="stroke:#A80036;stroke-width:1.5;" width="115" x="1380.5" y="1034.1016"/><text fill="#000000" font-family="sans-serif" font-size="14" lengthAdjust="spacing" textLength="101" x="1387.5" y="1054.0967">:listPCMapper</text><rect fill="#FEFECE" filter="url(#f1woe39gjne7zi)" height="46.5938" style="stroke:#A80036;stroke-width:1.5;" width="138" x="1509.5" y="36.7031"/><text fill="#000000" font-family="sans-serif" font-size="14" lengthAdjust="spacing" textLength="38" x="1559.5" y="56.6982">store</text><text fill="#000000" font-family="sans-serif" font-size="14" lengthAdjust="spacing" textLength="124" x="1516.5" y="72.9951">:StoreLaboratory</text><rect fill="#FEFECE" filter="url(#f1woe39gjne7zi)" height="46.5938" style="stroke:#A80036;stroke-width:1.5;" width="138" x="1509.5" y="1034.1016"/><text fill="#000000" font-family="sans-serif" font-size="14" lengthAdjust="spacing" textLength="38" x="1559.5" y="1054.0967">store</text><text fill="#000000" font-family="sans-serif" font-size="14" lengthAdjust="spacing" textLength="124" x="1516.5" y="1070.3936">:StoreLaboratory</text><rect fill="#FEFECE" filter="url(#f1woe39gjne7zi)" height="30.2969" style="stroke:#A80036;stroke-width:1.5;" width="180" x="1674.5" y="1034.1016"/><text fill="#000000" font-family="sans-serif" font-size="14" lengthAdjust="spacing" textLength="166" x="1681.5" y="1054.0967">listPC :List&lt;TestType&gt;</text><rect fill="#FEFECE" filter="url(#f1woe39gjne7zi)" height="46.5938" style="stroke:#A80036;stroke-width:1.5;" width="151" x="1868.5" y="1034.1016"/><text fill="#000000" font-family="sans-serif" font-size="14" lengthAdjust="spacing" textLength="68" x="1910" y="1054.0967">listPCDto</text><text fill="#000000" font-family="sans-serif" font-size="14" lengthAdjust="spacing" textLength="137" x="1875.5" y="1070.3936">:List&lt;TestTypeDto</text><rect fill="#FEFECE" filter="url(#f1woe39gjne7zi)" height="46.5938" style="stroke:#A80036;stroke-width:1.5;" width="93" x="2033.5" y="1034.1016"/><text fill="#000000" font-family="sans-serif" font-size="14" lengthAdjust="spacing" textLength="17" x="2069.5" y="1054.0967">cl:</text><text fill="#000000" font-family="sans-serif" font-size="14" lengthAdjust="spacing" textLength="79" x="2040.5" y="1070.3936">Laboratory</text><rect fill="#FFFFFF" filter="url(#f1woe39gjne7zi)" height="918.8047" style="stroke:#A80036;stroke-width:1.0;" width="10" x="68" y="98.2969"/><rect fill="#FFFFFF" filter="url(#f1woe39gjne7zi)" height="29.1328" style="stroke:#A80036;stroke-width:1.0;" width="10" x="564" y="119.4297"/><rect fill="#FFFFFF" filter="url(#f1woe39gjne7zi)" height="281.6875" style="stroke:#A80036;stroke-width:1.0;" width="10" x="564" y="177.6953"/><rect fill="#FFFFFF" filter="url(#f1woe39gjne7zi)" height="274.5234" style="stroke:#A80036;stroke-width:1.0;" width="10" x="564" y="541.7813"/><rect fill="#FFFFFF" filter="url(#f1woe39gjne7zi)" height="171.6641" style="stroke:#A80036;stroke-width:1.0;" width="10" x="564" y="845.4375"/><rect fill="#FFFFFF" filter="url(#f1woe39gjne7zi)" height="252.5547" style="stroke:#A80036;stroke-width:1.0;" width="10" x="922" y="206.8281"/><rect fill="#FFFFFF" filter="url(#f1woe39gjne7zi)" height="230.2578" style="stroke:#A80036;stroke-width:1.0;" width="10" x="922" y="586.0469"/><rect fill="#FFFFFF" filter="url(#f1woe39gjne7zi)" height="106.3984" style="stroke:#A80036;stroke-width:1.0;" width="10" x="922" y="874.5703"/><rect fill="#FFFFFF" filter="url(#f1woe39gjne7zi)" height="74.4297" style="stroke:#A80036;stroke-width:1.0;" width="10" x="1091" y="235.9609"/><rect fill="#FFFFFF" filter="url(#f1woe39gjne7zi)" height="531.8828" style="stroke:#A80036;stroke-width:1.0;" width="10" x="1300" y="98.2969"/><rect fill="#FFFFFF" filter="url(#f1woe39gjne7zi)" height="44.2656" style="stroke:#A80036;stroke-width:1.0;" width="10" x="1300" y="666.4453"/><rect fill="#FFFFFF" filter="url(#f1woe39gjne7zi)" height="30" style="stroke:#A80036;stroke-width:1.0;" width="10" x="1300" y="757.1719"/><rect fill="#FFFFFF" filter="url(#f1woe39gjne7zi)" height="148.9922" style="stroke:#A80036;stroke-width:1.0;" width="10" x="1435" y="310.3906"/><rect fill="#FFFFFF" filter="url(#f1woe39gjne7zi)" height="113.3984" style="stroke:#A80036;stroke-width:1.0;" width="10" x="1575.5" y="903.7031"/><polygon fill="#A80036" points="552,115.4297,562,119.4297,552,123.4297,556,119.4297" style="stroke:#A80036;stroke-width:1.0;"/><line style="stroke:#A80036;stroke-width:1.0;" x1="78" x2="558" y1="119.4297" y2="119.4297"/><text fill="#000000" font-family="sans-serif" font-size="13" font-weight="bold" lengthAdjust="spacing" textLength="9" x="85" y="114.3638">1</text><text fill="#000000" font-family="sans-serif" font-size="13" lengthAdjust="spacing" textLength="162" x="98" y="114.3638">register a new laboratory</text><polygon fill="#A80036" points="89,144.5625,79,148.5625,89,152.5625,85,148.5625" style="stroke:#A80036;stroke-width:1.0;"/><line style="stroke:#A80036;stroke-width:1.0;stroke-dasharray:2.0,2.0;" x1="83" x2="568" y1="148.5625" y2="148.5625"/><text fill="#000000" font-family="sans-serif" font-size="13" font-weight="bold" lengthAdjust="spacing" textLength="9" x="95" y="143.4966">2</text><text fill="#000000" font-family="sans-serif" font-size="13" lengthAdjust="spacing" textLength="449" x="108" y="143.4966">request data(laboratoryID, name, address, phoneNumber, tinNumber)</text><polygon fill="#A80036" points="552,173.6953,562,177.6953,552,181.6953,556,177.6953" style="stroke:#A80036;stroke-width:1.0;"/><line style="stroke:#A80036;stroke-width:1.0;" x1="78" x2="558" y1="177.6953" y2="177.6953"/><text fill="#000000" font-family="sans-serif" font-size="13" font-weight="bold" lengthAdjust="spacing" textLength="8" x="85" y="172.6294">3</text><text fill="#000000" font-family="sans-serif" font-size="13" lengthAdjust="spacing" textLength="138" x="97" y="172.6294">types requested data</text><polygon fill="#A80036" points="910,202.8281,920,206.8281,910,210.8281,914,206.8281" style="stroke:#A80036;stroke-width:1.0;"/><line style="stroke:#A80036;stroke-width:1.0;stroke-dasharray:2.0,2.0;" x1="574" x2="916" y1="206.8281" y2="206.8281"/><text fill="#000000" font-family="sans-serif" font-size="13" font-weight="bold" lengthAdjust="spacing" textLength="9" x="581" y="201.7622">4</text><text fill="#000000" font-family="sans-serif" font-size="13" lengthAdjust="spacing" textLength="114" x="594" y="201.7622">m=getTestType()</text><polygon fill="#A80036" points="1079,231.9609,1089,235.9609,1079,239.9609,1083,235.9609" style="stroke:#A80036;stroke-width:1.0;"/><line style="stroke:#A80036;stroke-width:1.0;stroke-dasharray:2.0,2.0;" x1="932" x2="1085" y1="235.9609" y2="235.9609"/><text fill="#000000" font-family="sans-serif" font-size="13" font-weight="bold" lengthAdjust="spacing" textLength="9" x="939" y="230.895">5</text><text fill="#000000" font-family="sans-serif" font-size="13" lengthAdjust="spacing" textLength="114" x="952" y="230.895">m=getTestType()</text><polygon fill="#A80036" points="1662.5,261.0938,1672.5,265.0938,1662.5,269.0938,1666.5,265.0938" style="stroke:#A80036;stroke-width:1.0;"/><line style="stroke:#A80036;stroke-width:1.0;stroke-dasharray:2.0,2.0;" x1="1101" x2="1668.5" y1="265.0938" y2="265.0938"/><text fill="#000000" font-family="sans-serif" font-size="13" font-weight="bold" lengthAdjust="spacing" textLength="9" x="1108" y="260.0278">6</text><text fill="#000000" font-family="sans-serif" font-size="13" lengthAdjust="spacing" textLength="51" x="1121" y="260.0278">create()</text><rect fill="#FEFECE" filter="url(#f1woe39gjne7zi)" height="30.2969" style="stroke:#A80036;stroke-width:1.5;" width="180" x="1674.5" y="243.9609"/><text fill="#000000" font-family="sans-serif" font-size="14" lengthAdjust="spacing" textLength="166" x="1681.5" y="263.9561">listPC :List&lt;TestType&gt;</text><polygon fill="#A80036" points="943,306.3906,933,310.3906,943,314.3906,939,310.3906" style="stroke:#A80036;stroke-width:1.0;"/><line style="stroke:#A80036;stroke-width:1.0;stroke-dasharray:2.0,2.0;" x1="937" x2="1095" y1="310.3906" y2="310.3906"/><text fill="#000000" font-family="sans-serif" font-size="13" font-weight="bold" lengthAdjust="spacing" textLength="9" x="949" y="305.3247">7</text><text fill="#000000" font-family="sans-serif" font-size="13" lengthAdjust="spacing" textLength="35" x="962" y="305.3247">listPC</text><polygon fill="#A80036" points="1423,335.5234,1433,339.5234,1423,343.5234,1427,339.5234" style="stroke:#A80036;stroke-width:1.0;"/><line style="stroke:#A80036;stroke-width:1.0;stroke-dasharray:2.0,2.0;" x1="932" x2="1429" y1="339.5234" y2="339.5234"/><text fill="#000000" font-family="sans-serif" font-size="13" font-weight="bold" lengthAdjust="spacing" textLength="9" x="939" y="334.4575">8</text><text fill="#000000" font-family="sans-serif" font-size="13" lengthAdjust="spacing" textLength="86" x="952" y="334.4575">toDTO(listPC)</text><polygon fill="#A80036" points="1856.5,364.6563,1866.5,368.6563,1856.5,372.6563,1860.5,368.6563" style="stroke:#A80036;stroke-width:1.0;"/><line style="stroke:#A80036;stroke-width:1.0;stroke-dasharray:2.0,2.0;" x1="1445" x2="1862.5" y1="368.6563" y2="368.6563"/><text fill="#000000" font-family="sans-serif" font-size="13" font-weight="bold" lengthAdjust="spacing" textLength="9" x="1452" y="363.5903">9</text><text fill="#000000" font-family="sans-serif" font-size="13" lengthAdjust="spacing" textLength="51" x="1465" y="363.5903">create()</text><rect fill="#FEFECE" filter="url(#f1woe39gjne7zi)" height="46.5938" style="stroke:#A80036;stroke-width:1.5;" width="151" x="1868.5" y="347.5234"/><text fill="#000000" font-family="sans-serif" font-size="14" lengthAdjust="spacing" textLength="68" x="1910" y="367.5186">listPCDto</text><text fill="#000000" font-family="sans-serif" font-size="14" lengthAdjust="spacing" textLength="137" x="1875.5" y="383.8154">:List&lt;TestTypeDto</text><polygon fill="#A80036" points="943,426.25,933,430.25,943,434.25,939,430.25" style="stroke:#A80036;stroke-width:1.0;"/><line style="stroke:#A80036;stroke-width:1.0;stroke-dasharray:2.0,2.0;" x1="937" x2="1434" y1="430.25" y2="430.25"/><text fill="#000000" font-family="sans-serif" font-size="13" font-weight="bold" lengthAdjust="spacing" textLength="19" x="949" y="425.1841">10</text><text fill="#000000" font-family="sans-serif" font-size="13" lengthAdjust="spacing" textLength="58" x="972" y="425.1841">listPCDto</text><polygon fill="#A80036" points="580,455.3828,570,459.3828,580,463.3828,576,459.3828" style="stroke:#A80036;stroke-width:1.0;"/><line style="stroke:#A80036;stroke-width:1.0;stroke-dasharray:2.0,2.0;" x1="574" x2="926" y1="459.3828" y2="459.3828"/><text fill="#000000" font-family="sans-serif" font-size="13" font-weight="bold" lengthAdjust="spacing" textLength="18" x="586" y="454.3169">11</text><text fill="#000000" font-family="sans-serif" font-size="13" lengthAdjust="spacing" textLength="58" x="608" y="454.3169">listPCDto</text><path d="M10,474.3828 L88,474.3828 L88,481.3828 L78,491.3828 L10,491.3828 L10,474.3828 " fill="#EEEEEE" style="stroke:#000000;stroke-width:1.0;"/><rect fill="none" height="148.7969" style="stroke:#000000;stroke-width:2.0;" width="1370.5" x="10" y="474.3828"/><text fill="#000000" font-family="sans-serif" font-size="13" font-weight="bold" lengthAdjust="spacing" textLength="33" x="25" y="487.4497">loop</text><polygon fill="#A80036" points="89,508.6484,79,512.6484,89,516.6484,85,512.6484" style="stroke:#A80036;stroke-width:1.0;"/><line style="stroke:#A80036;stroke-width:1.0;stroke-dasharray:2.0,2.0;" x1="83" x2="568" y1="512.6484" y2="512.6484"/><text fill="#000000" font-family="sans-serif" font-size="13" font-weight="bold" lengthAdjust="spacing" textLength="18" x="95" y="507.5825">12</text><text fill="#000000" font-family="sans-serif" font-size="13" lengthAdjust="spacing" textLength="277" x="117" y="507.5825">shows the data and request a confirmation</text><polygon fill="#A80036" points="552,537.7813,562,541.7813,552,545.7813,556,541.7813" style="stroke:#A80036;stroke-width:1.0;"/><line style="stroke:#A80036;stroke-width:1.0;stroke-dasharray:2.0,2.0;" x1="78" x2="558" y1="541.7813" y2="541.7813"/><text fill="#000000" font-family="sans-serif" font-size="13" font-weight="bold" lengthAdjust="spacing" textLength="17" x="85" y="536.7153">13</text><text fill="#000000" font-family="sans-serif" font-size="13" lengthAdjust="spacing" textLength="136" x="106" y="536.7153">selects a type of test</text><polygon fill="#A80036" points="910,582.0469,920,586.0469,910,590.0469,914,586.0469" style="stroke:#A80036;stroke-width:1.0;"/><line style="stroke:#A80036;stroke-width:1.0;stroke-dasharray:2.0,2.0;" x1="574" x2="916" y1="586.0469" y2="586.0469"/><text fill="#000000" font-family="sans-serif" font-size="13" font-weight="bold" lengthAdjust="spacing" textLength="18" x="581" y="573.4146">14</text><text fill="#000000" font-family="sans-serif" font-size="13" lengthAdjust="spacing" textLength="303" x="603" y="565.8481">createLaboratory(laboratoryID, name, address,</text><text fill="#000000" font-family="sans-serif" font-size="13" lengthAdjust="spacing" textLength="236" x="607" y="580.981">phoneNumber, tinNumber, testType)</text><polygon fill="#A80036" points="1288,611.1797,1298,615.1797,1288,619.1797,1292,615.1797" style="stroke:#A80036;stroke-width:1.0;"/><line style="stroke:#A80036;stroke-width:1.0;stroke-dasharray:2.0,2.0;" x1="932" x2="1294" y1="615.1797" y2="615.1797"/><text fill="#000000" font-family="sans-serif" font-size="13" font-weight="bold" lengthAdjust="spacing" textLength="18" x="939" y="610.1138">15</text><text fill="#000000" font-family="sans-serif" font-size="13" lengthAdjust="spacing" textLength="206" x="961" y="610.1138">test=getTestTypeByCode(code)</text><polygon fill="#A80036" points="1288,662.4453,1298,666.4453,1288,670.4453,1292,666.4453" style="stroke:#A80036;stroke-width:1.0;"/><line style="stroke:#A80036;stroke-width:1.0;stroke-dasharray:2.0,2.0;" x1="932" x2="1294" y1="666.4453" y2="666.4453"/><text fill="#000000" font-family="sans-serif" font-size="13" font-weight="bold" lengthAdjust="spacing" textLength="18" x="939" y="653.813">16</text><text fill="#000000" font-family="sans-serif" font-size="13" lengthAdjust="spacing" textLength="323" x="961" y="646.2466">cl=createLaboratory(laboratoryID, name, address,</text><text fill="#000000" font-family="sans-serif" font-size="13" lengthAdjust="spacing" textLength="236" x="965" y="661.3794">phoneNumber, tinNumber, testType)</text><polygon fill="#A80036" points="2021.5,706.7109,2031.5,710.7109,2021.5,714.7109,2025.5,710.7109" style="stroke:#A80036;stroke-width:1.0;"/><line style="stroke:#A80036;stroke-width:1.0;stroke-dasharray:2.0,2.0;" x1="1305" x2="2027.5" y1="710.7109" y2="710.7109"/><text fill="#000000" font-family="sans-serif" font-size="13" font-weight="bold" lengthAdjust="spacing" textLength="18" x="1312" y="698.0786">17</text><text fill="#000000" font-family="sans-serif" font-size="13" lengthAdjust="spacing" textLength="233" x="1334" y="690.5122">create(laboratoryID, name, address,</text><text fill="#000000" font-family="sans-serif" font-size="13" lengthAdjust="spacing" textLength="204" x="1338" y="705.645">phoneNumber, tinNumber, test)</text><rect fill="#FEFECE" filter="url(#f1woe39gjne7zi)" height="46.5938" style="stroke:#A80036;stroke-width:1.5;" width="93" x="2033.5" y="674.4453"/><text fill="#000000" font-family="sans-serif" font-size="14" lengthAdjust="spacing" textLength="17" x="2069.5" y="694.4404">cl:</text><text fill="#000000" font-family="sans-serif" font-size="14" lengthAdjust="spacing" textLength="79" x="2040.5" y="710.7373">Laboratory</text><polygon fill="#A80036" points="1288,753.1719,1298,757.1719,1288,761.1719,1292,757.1719" style="stroke:#A80036;stroke-width:1.0;"/><line style="stroke:#A80036;stroke-width:1.0;stroke-dasharray:2.0,2.0;" x1="932" x2="1294" y1="757.1719" y2="757.1719"/><text fill="#000000" font-family="sans-serif" font-size="13" font-weight="bold" lengthAdjust="spacing" textLength="18" x="939" y="752.106">18</text><text fill="#000000" font-family="sans-serif" font-size="13" lengthAdjust="spacing" textLength="141" x="961" y="752.106">validateLaboratory(cl)</text><polygon fill="#A80036" points="89,812.3047,79,816.3047,89,820.3047,85,816.3047" style="stroke:#A80036;stroke-width:1.0;"/><line style="stroke:#A80036;stroke-width:1.0;stroke-dasharray:2.0,2.0;" x1="83" x2="568" y1="816.3047" y2="816.3047"/><text fill="#000000" font-family="sans-serif" font-size="13" font-weight="bold" lengthAdjust="spacing" textLength="18" x="95" y="811.2388">19</text><text fill="#000000" font-family="sans-serif" font-size="13" lengthAdjust="spacing" textLength="277" x="117" y="811.2388">shows all data and requests a confirmation</text><polygon fill="#A80036" points="552,841.4375,562,845.4375,552,849.4375,556,845.4375" style="stroke:#A80036;stroke-width:1.0;"/><line style="stroke:#A80036;stroke-width:1.0;stroke-dasharray:2.0,2.0;" x1="78" x2="558" y1="845.4375" y2="845.4375"/><text fill="#000000" font-family="sans-serif" font-size="13" font-weight="bold" lengthAdjust="spacing" textLength="19" x="85" y="840.3716">20</text><text fill="#000000" font-family="sans-serif" font-size="13" lengthAdjust="spacing" textLength="107" x="108" y="840.3716">confirms all data</text><polygon fill="#A80036" points="910,870.5703,920,874.5703,910,878.5703,914,874.5703" style="stroke:#A80036;stroke-width:1.0;"/><line style="stroke:#A80036;stroke-width:1.0;stroke-dasharray:2.0,2.0;" x1="574" x2="916" y1="874.5703" y2="874.5703"/><text fill="#000000" font-family="sans-serif" font-size="13" font-weight="bold" lengthAdjust="spacing" textLength="18" x="581" y="869.5044">21</text><text fill="#000000" font-family="sans-serif" font-size="13" lengthAdjust="spacing" textLength="111" x="603" y="869.5044">saveLaboratory()</text><polygon fill="#A80036" points="1563.5,899.7031,1573.5,903.7031,1563.5,907.7031,1567.5,903.7031" style="stroke:#A80036;stroke-width:1.0;"/><line style="stroke:#A80036;stroke-width:1.0;stroke-dasharray:2.0,2.0;" x1="932" x2="1569.5" y1="903.7031" y2="903.7031"/><text fill="#000000" font-family="sans-serif" font-size="13" font-weight="bold" lengthAdjust="spacing" textLength="18" x="939" y="898.6372">22</text><text fill="#000000" font-family="sans-serif" font-size="13" lengthAdjust="spacing" textLength="121" x="961" y="898.6372">saveLaboratory(cl)</text><line style="stroke:#A80036;stroke-width:1.0;stroke-dasharray:2.0,2.0;" x1="1585.5" x2="1627.5" y1="932.8359" y2="932.8359"/><line style="stroke:#A80036;stroke-width:1.0;stroke-dasharray:2.0,2.0;" x1="1627.5" x2="1627.5" y1="932.8359" y2="945.8359"/><line style="stroke:#A80036;stroke-width:1.0;stroke-dasharray:2.0,2.0;" x1="1586.5" x2="1627.5" y1="945.8359" y2="945.8359"/><polygon fill="#A80036" points="1596.5,941.8359,1586.5,945.8359,1596.5,949.8359,1592.5,945.8359" style="stroke:#A80036;stroke-width:1.0;"/><text fill="#000000" font-family="sans-serif" font-size="13" font-weight="bold" lengthAdjust="spacing" textLength="17" x="1592.5" y="927.77">23</text><text fill="#000000" font-family="sans-serif" font-size="13" lengthAdjust="spacing" textLength="141" x="1613.5" y="927.77">validateLaboratory(cl)</text><line style="stroke:#A80036;stroke-width:1.0;stroke-dasharray:2.0,2.0;" x1="1585.5" x2="1627.5" y1="979.9688" y2="979.9688"/><line style="stroke:#A80036;stroke-width:1.0;stroke-dasharray:2.0,2.0;" x1="1627.5" x2="1627.5" y1="979.9688" y2="992.9688"/><line style="stroke:#A80036;stroke-width:1.0;stroke-dasharray:2.0,2.0;" x1="1580.5" x2="1627.5" y1="992.9688" y2="992.9688"/><polygon fill="#A80036" points="1590.5,988.9688,1580.5,992.9688,1590.5,996.9688,1586.5,992.9688" style="stroke:#A80036;stroke-width:1.0;"/><text fill="#000000" font-family="sans-serif" font-size="13" font-weight="bold" lengthAdjust="spacing" textLength="18" x="1592.5" y="974.9028">24</text><text fill="#000000" font-family="sans-serif" font-size="13" lengthAdjust="spacing" textLength="114" x="1614.5" y="974.9028">addLaboratory(cl)</text><polygon fill="#A80036" points="84,1013.1016,74,1017.1016,84,1021.1016,80,1017.1016" style="stroke:#A80036;stroke-width:1.0;"/><line style="stroke:#A80036;stroke-width:1.0;stroke-dasharray:2.0,2.0;" x1="78" x2="568" y1="1017.1016" y2="1017.1016"/><text fill="#000000" font-family="sans-serif" font-size="13" font-weight="bold" lengthAdjust="spacing" textLength="18" x="90" y="1012.0356">25</text><text fill="#000000" font-family="sans-serif" font-size="13" lengthAdjust="spacing" textLength="169" x="112" y="1012.0356">informs operation success</text><!--MD5=[7c7f0b06c9e87abd9f886effc282981f]
@startuml
actor Administrator as Adm
participant ":RegistLaboratory UI" as System
participant ":RegistLaboratoryCrontroller" as RLC
participant ":Company" as ML
participant "store\n:StoreTestType" as tt
participant ":listPCMapper" as lpc
participant "store\n:StoreLaboratory" as lab


autonumber
activate Adm
Adm -> System: register a new laboratory
activate System
System - -> Adm: request data(laboratoryID, name, address, phoneNumber, tinNumber)
deactivate System




Adm -> System: types requested data
activate System
System- ->RLC: m=getTestType()
activate RLC
RLC- ->ML: m=getTestType()
activate ML
create "listPC :List<TestType>" as listpc
ML - -> listpc: create()
ML - -> RLC: listPC
deactivate ML
activate lpc
RLC - -> lpc: toDTO(listPC)
create "listPCDto\n:List<TestTypeDto" as lpcdt
lpc - -> lpcdt: create()
lpc - -> RLC: listPCDto
RLC - -> System: listPCDto
deactivate lpc
deactivate RLC
deactivate System


loop
System - -> Adm: shows the data and request a confirmation
Adm - -> System: selects a type of test
activate System

System - -> RLC: createLaboratory(laboratoryID, name, address, \n phoneNumber, tinNumber, testType)
activate RLC
RLC - -> tt: test=getTestTypeByCode(code)
end
activate tt
deactivate tt
RLC - -> tt: cl=createLaboratory(laboratoryID, name, address, \n phoneNumber, tinNumber, testType)
activate tt
create "cl: \nLaboratory" as CL
tt - -> CL: create(laboratoryID, name, address, \n phoneNumber, tinNumber, test)
deactivate tt
RLC - -> tt: validateLaboratory(cl)
activate tt
deactivate tt
System - -> Adm: shows all data and requests a confirmation
deactivate RLC
deactivate System
Adm - -> System: confirms all data
activate System
System - -> RLC: saveLaboratory()
activate RLC
RLC - -> lab: saveLaboratory(cl)
activate lab
lab - -> lab: validateLaboratory(cl)
lab - -> lab: addLaboratory(cl)
deactivate RLC
System - -> Adm: informs operation success
deactivate lab
deactivate System
deactivate Adm
@enduml

PlantUML version 1.2021.6beta6(Unknown compile time)
(GPL source distribution)
Java Runtime: Java(TM) SE Runtime Environment
JVM: Java HotSpot(TM) 64-Bit Server VM
Default Encoding: UTF-8
Language: en
Country: US
--></g></svg>