<?xml version="1.0" encoding="UTF-8" standalone="no"?><svg xmlns="http://www.w3.org/2000/svg" xmlns:xlink="http://www.w3.org/1999/xlink" contentScriptType="application/ecmascript" contentStyleType="text/css" height="841px" preserveAspectRatio="none" style="width:856px;height:841px;background:#FFFFFF;" version="1.1" viewBox="0 0 856 841" width="856px" zoomAndPan="magnify"><defs><filter height="300%" id="f1kmzrhpgmdb8s" width="300%" x="-1" y="-1"><feGaussianBlur result="blurOut" stdDeviation="2.0"/><feColorMatrix in="blurOut" result="blurOut2" type="matrix" values="0 0 0 0 0 0 0 0 0 0 0 0 0 0 0 0 0 0 .4 0"/><feOffset dx="4.0" dy="4.0" in="blurOut2" result="blurOut3"/><feBlend in="SourceGraphic" in2="blurOut3" mode="normal"/></filter></defs><g><!--MD5=[71fba8c2abd557a2f7006580273aba3e]
class WriteReportUI--><rect fill="#FEFECE" filter="url(#f1kmzrhpgmdb8s)" height="48" id="WriteReportUI" style="stroke:#A80036;stroke-width:1.5;" width="116" x="289.2998" y="7"/><ellipse cx="304.2998" cy="23" fill="#ADD1B2" rx="11" ry="11" style="stroke:#A80036;stroke-width:1.0;"/><path d="M306.6436,18.6719 C305.7061,18.2344 305.1123,18.0938 304.2373,18.0938 C301.6123,18.0938 299.6123,20.1719 299.6123,22.8906 L299.6123,24.0156 C299.6123,26.5938 301.7217,28.4844 304.6123,28.4844 C305.8311,28.4844 306.9873,28.1875 307.7373,27.6406 C308.3154,27.2344 308.6436,26.7813 308.6436,26.3906 C308.6436,25.9375 308.2529,25.5469 307.7842,25.5469 C307.5654,25.5469 307.3623,25.625 307.1748,25.8125 C306.7217,26.2969 306.7217,26.2969 306.5342,26.3906 C306.1123,26.6563 305.4248,26.7813 304.6592,26.7813 C302.6123,26.7813 301.3154,25.6875 301.3154,23.9844 L301.3154,22.8906 C301.3154,21.1094 302.5654,19.7969 304.2998,19.7969 C304.8779,19.7969 305.4873,19.9531 305.9561,20.2031 C306.4404,20.4844 306.6123,20.7031 306.7061,21.1094 C306.7686,21.5156 306.7998,21.6406 306.9404,21.7656 C307.0811,21.9063 307.3154,22.0156 307.5342,22.0156 C307.7998,22.0156 308.0654,21.875 308.2373,21.6563 C308.3467,21.5 308.3779,21.3125 308.3779,20.8906 L308.3779,19.4688 C308.3779,19.0313 308.3623,18.9063 308.2686,18.75 C308.1123,18.4844 307.8311,18.3438 307.5342,18.3438 C307.2373,18.3438 307.0342,18.4375 306.8154,18.75 L306.6436,18.6719 Z " fill="#000000"/><text fill="#000000" font-family="sans-serif" font-size="12" lengthAdjust="spacing" textLength="84" x="318.2998" y="27.1543">WriteReportUI</text><line style="stroke:#A80036;stroke-width:1.5;" x1="290.2998" x2="404.2998" y1="39" y2="39"/><line style="stroke:#A80036;stroke-width:1.5;" x1="290.2998" x2="404.2998" y1="47" y2="47"/><!--MD5=[d7b8916e3117ca4a3ffdab4f31ea783a]
class WriteReportController--><rect fill="#FEFECE" filter="url(#f1kmzrhpgmdb8s)" height="86.4141" id="WriteReportController" style="stroke:#A80036;stroke-width:1.5;" width="195" x="249.7998" y="116"/><ellipse cx="279.1998" cy="132" fill="#ADD1B2" rx="11" ry="11" style="stroke:#A80036;stroke-width:1.0;"/><path d="M281.5436,127.6719 C280.6061,127.2344 280.0123,127.0938 279.1373,127.0938 C276.5123,127.0938 274.5123,129.1719 274.5123,131.8906 L274.5123,133.0156 C274.5123,135.5938 276.6217,137.4844 279.5123,137.4844 C280.7311,137.4844 281.8873,137.1875 282.6373,136.6406 C283.2154,136.2344 283.5436,135.7813 283.5436,135.3906 C283.5436,134.9375 283.1529,134.5469 282.6842,134.5469 C282.4654,134.5469 282.2623,134.625 282.0748,134.8125 C281.6217,135.2969 281.6217,135.2969 281.4342,135.3906 C281.0123,135.6563 280.3248,135.7813 279.5592,135.7813 C277.5123,135.7813 276.2154,134.6875 276.2154,132.9844 L276.2154,131.8906 C276.2154,130.1094 277.4654,128.7969 279.1998,128.7969 C279.7779,128.7969 280.3873,128.9531 280.8561,129.2031 C281.3404,129.4844 281.5123,129.7031 281.6061,130.1094 C281.6686,130.5156 281.6998,130.6406 281.8404,130.7656 C281.9811,130.9063 282.2154,131.0156 282.4342,131.0156 C282.6998,131.0156 282.9654,130.875 283.1373,130.6563 C283.2467,130.5 283.2779,130.3125 283.2779,129.8906 L283.2779,128.4688 C283.2779,128.0313 283.2623,127.9063 283.1686,127.75 C283.0123,127.4844 282.7311,127.3438 282.4342,127.3438 C282.1373,127.3438 281.9342,127.4375 281.7154,127.75 L281.5436,127.6719 Z " fill="#000000"/><text fill="#000000" font-family="sans-serif" font-size="12" lengthAdjust="spacing" textLength="131" x="296.3998" y="136.1543">WriteReportController</text><line style="stroke:#A80036;stroke-width:1.5;" x1="250.7998" x2="443.7998" y1="148" y2="148"/><line style="stroke:#A80036;stroke-width:1.5;" x1="250.7998" x2="443.7998" y1="156" y2="156"/><ellipse cx="260.7998" cy="167" fill="#84BE84" rx="3" ry="3" style="stroke:#038048;stroke-width:1.0;"/><text fill="#000000" font-family="sans-serif" font-size="11" lengthAdjust="spacing" textLength="58" x="269.7998" y="170.2104">getTests()</text><ellipse cx="260.7998" cy="179.8047" fill="#84BE84" rx="3" ry="3" style="stroke:#038048;stroke-width:1.0;"/><text fill="#000000" font-family="sans-serif" font-size="11" lengthAdjust="spacing" textLength="169" x="269.7998" y="183.0151">getResultParameters(testDto)</text><ellipse cx="260.7998" cy="192.6094" fill="#84BE84" rx="3" ry="3" style="stroke:#038048;stroke-width:1.0;"/><text fill="#000000" font-family="sans-serif" font-size="11" lengthAdjust="spacing" textLength="161" x="269.7998" y="195.8198">createReport(diagnosisText)</text><!--MD5=[1c38f6084f2098752e2974895ca67f4c]
class TestDto--><rect fill="#FEFECE" filter="url(#f1kmzrhpgmdb8s)" height="60.8047" id="TestDto" style="stroke:#A80036;stroke-width:1.5;" width="83" x="65.7996" y="407.5"/><ellipse cx="82.5996" cy="423.5" fill="#ADD1B2" rx="11" ry="11" style="stroke:#A80036;stroke-width:1.0;"/><path d="M84.9434,419.1719 C84.0059,418.7344 83.4121,418.5938 82.5371,418.5938 C79.9121,418.5938 77.9121,420.6719 77.9121,423.3906 L77.9121,424.5156 C77.9121,427.0938 80.0215,428.9844 82.9121,428.9844 C84.1309,428.9844 85.2871,428.6875 86.0371,428.1406 C86.6152,427.7344 86.9434,427.2813 86.9434,426.8906 C86.9434,426.4375 86.5527,426.0469 86.084,426.0469 C85.8652,426.0469 85.6621,426.125 85.4746,426.3125 C85.0215,426.7969 85.0215,426.7969 84.834,426.8906 C84.4121,427.1563 83.7246,427.2813 82.959,427.2813 C80.9121,427.2813 79.6152,426.1875 79.6152,424.4844 L79.6152,423.3906 C79.6152,421.6094 80.8652,420.2969 82.5996,420.2969 C83.1777,420.2969 83.7871,420.4531 84.2559,420.7031 C84.7402,420.9844 84.9121,421.2031 85.0059,421.6094 C85.0684,422.0156 85.0996,422.1406 85.2402,422.2656 C85.3809,422.4063 85.6152,422.5156 85.834,422.5156 C86.0996,422.5156 86.3652,422.375 86.5371,422.1563 C86.6465,422 86.6777,421.8125 86.6777,421.3906 L86.6777,419.9688 C86.6777,419.5313 86.6621,419.4063 86.5684,419.25 C86.4121,418.9844 86.1309,418.8438 85.834,418.8438 C85.5371,418.8438 85.334,418.9375 85.1152,419.25 L84.9434,419.1719 Z " fill="#000000"/><text fill="#000000" font-family="sans-serif" font-size="12" lengthAdjust="spacing" textLength="47" x="96.9996" y="427.6543">TestDto</text><line style="stroke:#A80036;stroke-width:1.5;" x1="66.7996" x2="147.7996" y1="439.5" y2="439.5"/><line style="stroke:#A80036;stroke-width:1.5;" x1="66.7996" x2="147.7996" y1="447.5" y2="447.5"/><ellipse cx="76.7996" cy="458.5" fill="#84BE84" rx="3" ry="3" style="stroke:#038048;stroke-width:1.0;"/><text fill="#000000" font-family="sans-serif" font-size="11" lengthAdjust="spacing" textLength="57" x="85.7996" y="461.7104">getCode()</text><!--MD5=[fa2f44d2bdbb0499bd765719ad83ddd6]
class TestParameterDto--><rect fill="#FEFECE" filter="url(#f1kmzrhpgmdb8s)" height="48" id="TestParameterDto" style="stroke:#A80036;stroke-width:1.5;" width="140" x="674.2998" y="414"/><ellipse cx="689.2998" cy="430" fill="#ADD1B2" rx="11" ry="11" style="stroke:#A80036;stroke-width:1.0;"/><path d="M691.6436,425.6719 C690.7061,425.2344 690.1123,425.0938 689.2373,425.0938 C686.6123,425.0938 684.6123,427.1719 684.6123,429.8906 L684.6123,431.0156 C684.6123,433.5938 686.7217,435.4844 689.6123,435.4844 C690.8311,435.4844 691.9873,435.1875 692.7373,434.6406 C693.3154,434.2344 693.6436,433.7813 693.6436,433.3906 C693.6436,432.9375 693.2529,432.5469 692.7842,432.5469 C692.5654,432.5469 692.3623,432.625 692.1748,432.8125 C691.7217,433.2969 691.7217,433.2969 691.5342,433.3906 C691.1123,433.6563 690.4248,433.7813 689.6592,433.7813 C687.6123,433.7813 686.3154,432.6875 686.3154,430.9844 L686.3154,429.8906 C686.3154,428.1094 687.5654,426.7969 689.2998,426.7969 C689.8779,426.7969 690.4873,426.9531 690.9561,427.2031 C691.4404,427.4844 691.6123,427.7031 691.7061,428.1094 C691.7686,428.5156 691.7998,428.6406 691.9404,428.7656 C692.0811,428.9063 692.3154,429.0156 692.5342,429.0156 C692.7998,429.0156 693.0654,428.875 693.2373,428.6563 C693.3467,428.5 693.3779,428.3125 693.3779,427.8906 L693.3779,426.4688 C693.3779,426.0313 693.3623,425.9063 693.2686,425.75 C693.1123,425.4844 692.8311,425.3438 692.5342,425.3438 C692.2373,425.3438 692.0342,425.4375 691.8154,425.75 L691.6436,425.6719 Z " fill="#000000"/><text fill="#000000" font-family="sans-serif" font-size="12" lengthAdjust="spacing" textLength="108" x="703.2998" y="434.1543">TestParameterDto</text><line style="stroke:#A80036;stroke-width:1.5;" x1="675.2998" x2="813.2998" y1="446" y2="446"/><line style="stroke:#A80036;stroke-width:1.5;" x1="675.2998" x2="813.2998" y1="454" y2="454"/><!--MD5=[02e4b9b7573f1156f41e60aa5b4e25a4]
class Company--><rect fill="#FEFECE" filter="url(#f1kmzrhpgmdb8s)" height="60.8047" id="Company" style="stroke:#A80036;stroke-width:1.5;" width="109" x="346.7998" y="263"/><ellipse cx="371.2498" cy="279" fill="#ADD1B2" rx="11" ry="11" style="stroke:#A80036;stroke-width:1.0;"/><path d="M373.5936,274.6719 C372.6561,274.2344 372.0623,274.0938 371.1873,274.0938 C368.5623,274.0938 366.5623,276.1719 366.5623,278.8906 L366.5623,280.0156 C366.5623,282.5938 368.6717,284.4844 371.5623,284.4844 C372.7811,284.4844 373.9373,284.1875 374.6873,283.6406 C375.2654,283.2344 375.5936,282.7813 375.5936,282.3906 C375.5936,281.9375 375.2029,281.5469 374.7342,281.5469 C374.5154,281.5469 374.3123,281.625 374.1248,281.8125 C373.6717,282.2969 373.6717,282.2969 373.4842,282.3906 C373.0623,282.6563 372.3748,282.7813 371.6092,282.7813 C369.5623,282.7813 368.2654,281.6875 368.2654,279.9844 L368.2654,278.8906 C368.2654,277.1094 369.5154,275.7969 371.2498,275.7969 C371.8279,275.7969 372.4373,275.9531 372.9061,276.2031 C373.3904,276.4844 373.5623,276.7031 373.6561,277.1094 C373.7186,277.5156 373.7498,277.6406 373.8904,277.7656 C374.0311,277.9063 374.2654,278.0156 374.4842,278.0156 C374.7498,278.0156 375.0154,277.875 375.1873,277.6563 C375.2967,277.5 375.3279,277.3125 375.3279,276.8906 L375.3279,275.4688 C375.3279,275.0313 375.3123,274.9063 375.2186,274.75 C375.0623,274.4844 374.7811,274.3438 374.4842,274.3438 C374.1873,274.3438 373.9842,274.4375 373.7654,274.75 L373.5936,274.6719 Z " fill="#000000"/><text fill="#000000" font-family="sans-serif" font-size="12" lengthAdjust="spacing" textLength="56" x="387.3498" y="283.1543">Company</text><line style="stroke:#A80036;stroke-width:1.5;" x1="347.7998" x2="454.7998" y1="295" y2="295"/><line style="stroke:#A80036;stroke-width:1.5;" x1="347.7998" x2="454.7998" y1="303" y2="303"/><ellipse cx="357.7998" cy="314" fill="#84BE84" rx="3" ry="3" style="stroke:#038048;stroke-width:1.0;"/><text fill="#000000" font-family="sans-serif" font-size="11" lengthAdjust="spacing" textLength="83" x="366.7998" y="317.2104">getTestStore()</text><!--MD5=[a82d32c079496d6dca2681dc0633feb0]
class TestParameterMapper--><rect fill="#FEFECE" filter="url(#f1kmzrhpgmdb8s)" height="60.8047" id="TestParameterMapper" style="stroke:#A80036;stroke-width:1.5;" width="168" x="633.2998" y="263"/><ellipse cx="649.6498" cy="279" fill="#ADD1B2" rx="11" ry="11" style="stroke:#A80036;stroke-width:1.0;"/><path d="M651.9936,274.6719 C651.0561,274.2344 650.4623,274.0938 649.5873,274.0938 C646.9623,274.0938 644.9623,276.1719 644.9623,278.8906 L644.9623,280.0156 C644.9623,282.5938 647.0717,284.4844 649.9623,284.4844 C651.1811,284.4844 652.3373,284.1875 653.0873,283.6406 C653.6654,283.2344 653.9936,282.7813 653.9936,282.3906 C653.9936,281.9375 653.6029,281.5469 653.1342,281.5469 C652.9154,281.5469 652.7123,281.625 652.5248,281.8125 C652.0717,282.2969 652.0717,282.2969 651.8842,282.3906 C651.4623,282.6563 650.7748,282.7813 650.0092,282.7813 C647.9623,282.7813 646.6654,281.6875 646.6654,279.9844 L646.6654,278.8906 C646.6654,277.1094 647.9154,275.7969 649.6498,275.7969 C650.2279,275.7969 650.8373,275.9531 651.3061,276.2031 C651.7904,276.4844 651.9623,276.7031 652.0561,277.1094 C652.1186,277.5156 652.1498,277.6406 652.2904,277.7656 C652.4311,277.9063 652.6654,278.0156 652.8842,278.0156 C653.1498,278.0156 653.4154,277.875 653.5873,277.6563 C653.6967,277.5 653.7279,277.3125 653.7279,276.8906 L653.7279,275.4688 C653.7279,275.0313 653.7123,274.9063 653.6186,274.75 C653.4623,274.4844 653.1811,274.3438 652.8842,274.3438 C652.5873,274.3438 652.3842,274.4375 652.1654,274.75 L651.9936,274.6719 Z " fill="#000000"/><text fill="#000000" font-family="sans-serif" font-size="12" lengthAdjust="spacing" textLength="133" x="663.9498" y="283.1543">TestParameterMapper</text><line style="stroke:#A80036;stroke-width:1.5;" x1="634.2998" x2="800.2998" y1="295" y2="295"/><line style="stroke:#A80036;stroke-width:1.5;" x1="634.2998" x2="800.2998" y1="303" y2="303"/><ellipse cx="644.2998" cy="314" fill="#84BE84" rx="3" ry="3" style="stroke:#038048;stroke-width:1.0;"/><text fill="#000000" font-family="sans-serif" font-size="11" lengthAdjust="spacing" textLength="142" x="653.2998" y="317.2104">toDto(lResultParameters)</text><!--MD5=[0f07739f46effee96e095e9c408da841]
class TestParameter--><rect fill="#FEFECE" filter="url(#f1kmzrhpgmdb8s)" height="73.6094" id="TestParameter" style="stroke:#A80036;stroke-width:1.5;" width="119" x="449.7998" y="734"/><ellipse cx="464.7998" cy="750" fill="#ADD1B2" rx="11" ry="11" style="stroke:#A80036;stroke-width:1.0;"/><path d="M467.1436,745.6719 C466.2061,745.2344 465.6123,745.0938 464.7373,745.0938 C462.1123,745.0938 460.1123,747.1719 460.1123,749.8906 L460.1123,751.0156 C460.1123,753.5938 462.2217,755.4844 465.1123,755.4844 C466.3311,755.4844 467.4873,755.1875 468.2373,754.6406 C468.8154,754.2344 469.1436,753.7813 469.1436,753.3906 C469.1436,752.9375 468.7529,752.5469 468.2842,752.5469 C468.0654,752.5469 467.8623,752.625 467.6748,752.8125 C467.2217,753.2969 467.2217,753.2969 467.0342,753.3906 C466.6123,753.6563 465.9248,753.7813 465.1592,753.7813 C463.1123,753.7813 461.8154,752.6875 461.8154,750.9844 L461.8154,749.8906 C461.8154,748.1094 463.0654,746.7969 464.7998,746.7969 C465.3779,746.7969 465.9873,746.9531 466.4561,747.2031 C466.9404,747.4844 467.1123,747.7031 467.2061,748.1094 C467.2686,748.5156 467.2998,748.6406 467.4404,748.7656 C467.5811,748.9063 467.8154,749.0156 468.0342,749.0156 C468.2998,749.0156 468.5654,748.875 468.7373,748.6563 C468.8467,748.5 468.8779,748.3125 468.8779,747.8906 L468.8779,746.4688 C468.8779,746.0313 468.8623,745.9063 468.7686,745.75 C468.6123,745.4844 468.3311,745.3438 468.0342,745.3438 C467.7373,745.3438 467.5342,745.4375 467.3154,745.75 L467.1436,745.6719 Z " fill="#000000"/><text fill="#000000" font-family="sans-serif" font-size="12" lengthAdjust="spacing" textLength="87" x="478.7998" y="754.1543">TestParameter</text><line style="stroke:#A80036;stroke-width:1.5;" x1="450.7998" x2="567.7998" y1="766" y2="766"/><rect fill="none" height="6" style="stroke:#C82930;stroke-width:1.0;" width="6" x="457.7998" y="774"/><text fill="#000000" font-family="sans-serif" font-size="11" lengthAdjust="spacing" textLength="60" x="469.7998" y="780.2104">parameter</text><rect fill="none" height="6" style="stroke:#C82930;stroke-width:1.0;" width="6" x="457.7998" y="786.8047"/><text fill="#000000" font-family="sans-serif" font-size="11" lengthAdjust="spacing" textLength="15" x="469.7998" y="793.0151">tpr</text><line style="stroke:#A80036;stroke-width:1.5;" x1="450.7998" x2="567.7998" y1="799.6094" y2="799.6094"/><!--MD5=[df38be88ccee13e832d6fafd6288a4ca]
class Test--><rect fill="#FEFECE" filter="url(#f1kmzrhpgmdb8s)" height="86.4141" id="Test" style="stroke:#A80036;stroke-width:1.5;" width="171" x="116.7996" y="552"/><ellipse cx="185.0496" cy="568" fill="#ADD1B2" rx="11" ry="11" style="stroke:#A80036;stroke-width:1.0;"/><path d="M187.3934,563.6719 C186.4559,563.2344 185.8621,563.0938 184.9871,563.0938 C182.3621,563.0938 180.3621,565.1719 180.3621,567.8906 L180.3621,569.0156 C180.3621,571.5938 182.4715,573.4844 185.3621,573.4844 C186.5809,573.4844 187.7371,573.1875 188.4871,572.6406 C189.0652,572.2344 189.3934,571.7813 189.3934,571.3906 C189.3934,570.9375 189.0027,570.5469 188.534,570.5469 C188.3152,570.5469 188.1121,570.625 187.9246,570.8125 C187.4715,571.2969 187.4715,571.2969 187.284,571.3906 C186.8621,571.6563 186.1746,571.7813 185.409,571.7813 C183.3621,571.7813 182.0652,570.6875 182.0652,568.9844 L182.0652,567.8906 C182.0652,566.1094 183.3152,564.7969 185.0496,564.7969 C185.6277,564.7969 186.2371,564.9531 186.7059,565.2031 C187.1902,565.4844 187.3621,565.7031 187.4559,566.1094 C187.5184,566.5156 187.5496,566.6406 187.6902,566.7656 C187.8309,566.9063 188.0652,567.0156 188.284,567.0156 C188.5496,567.0156 188.8152,566.875 188.9871,566.6563 C189.0965,566.5 189.1277,566.3125 189.1277,565.8906 L189.1277,564.4688 C189.1277,564.0313 189.1121,563.9063 189.0184,563.75 C188.8621,563.4844 188.5809,563.3438 188.284,563.3438 C187.9871,563.3438 187.784,563.4375 187.5652,563.75 L187.3934,563.6719 Z " fill="#000000"/><text fill="#000000" font-family="sans-serif" font-size="12" lengthAdjust="spacing" textLength="26" x="205.5496" y="572.1543">Test</text><line style="stroke:#A80036;stroke-width:1.5;" x1="117.7996" x2="286.7996" y1="584" y2="584"/><rect fill="none" height="6" style="stroke:#C82930;stroke-width:1.0;" width="6" x="124.7996" y="592"/><text fill="#000000" font-family="sans-serif" font-size="11" lengthAdjust="spacing" textLength="34" x="136.7996" y="598.2104">report</text><line style="stroke:#A80036;stroke-width:1.5;" x1="117.7996" x2="286.7996" y1="604.8047" y2="604.8047"/><ellipse cx="127.7996" cy="615.8047" fill="#84BE84" rx="3" ry="3" style="stroke:#038048;stroke-width:1.0;"/><text fill="#000000" font-family="sans-serif" font-size="11" lengthAdjust="spacing" textLength="127" x="136.7996" y="619.0151">getResultParameters()</text><ellipse cx="127.7996" cy="628.6094" fill="#84BE84" rx="3" ry="3" style="stroke:#038048;stroke-width:1.0;"/><text fill="#000000" font-family="sans-serif" font-size="11" lengthAdjust="spacing" textLength="145" x="136.7996" y="631.8198">addReport(diagnosisText)</text><!--MD5=[144698ec4d0188f6929a3b58a3eeb1f6]
class TestMapper--><rect fill="#FEFECE" filter="url(#f1kmzrhpgmdb8s)" height="60.8047" id="TestMapper" style="stroke:#A80036;stroke-width:1.5;" width="104" x="136.2998" y="263"/><ellipse cx="151.2998" cy="279" fill="#ADD1B2" rx="11" ry="11" style="stroke:#A80036;stroke-width:1.0;"/><path d="M153.6436,274.6719 C152.7061,274.2344 152.1123,274.0938 151.2373,274.0938 C148.6123,274.0938 146.6123,276.1719 146.6123,278.8906 L146.6123,280.0156 C146.6123,282.5938 148.7217,284.4844 151.6123,284.4844 C152.8311,284.4844 153.9873,284.1875 154.7373,283.6406 C155.3154,283.2344 155.6436,282.7813 155.6436,282.3906 C155.6436,281.9375 155.2529,281.5469 154.7842,281.5469 C154.5654,281.5469 154.3623,281.625 154.1748,281.8125 C153.7217,282.2969 153.7217,282.2969 153.5342,282.3906 C153.1123,282.6563 152.4248,282.7813 151.6592,282.7813 C149.6123,282.7813 148.3154,281.6875 148.3154,279.9844 L148.3154,278.8906 C148.3154,277.1094 149.5654,275.7969 151.2998,275.7969 C151.8779,275.7969 152.4873,275.9531 152.9561,276.2031 C153.4404,276.4844 153.6123,276.7031 153.7061,277.1094 C153.7686,277.5156 153.7998,277.6406 153.9404,277.7656 C154.0811,277.9063 154.3154,278.0156 154.5342,278.0156 C154.7998,278.0156 155.0654,277.875 155.2373,277.6563 C155.3467,277.5 155.3779,277.3125 155.3779,276.8906 L155.3779,275.4688 C155.3779,275.0313 155.3623,274.9063 155.2686,274.75 C155.1123,274.4844 154.8311,274.3438 154.5342,274.3438 C154.2373,274.3438 154.0342,274.4375 153.8154,274.75 L153.6436,274.6719 Z " fill="#000000"/><text fill="#000000" font-family="sans-serif" font-size="12" lengthAdjust="spacing" textLength="72" x="165.2998" y="283.1543">TestMapper</text><line style="stroke:#A80036;stroke-width:1.5;" x1="137.2998" x2="239.2998" y1="295" y2="295"/><line style="stroke:#A80036;stroke-width:1.5;" x1="137.2998" x2="239.2998" y1="303" y2="303"/><ellipse cx="147.2998" cy="314" fill="#84BE84" rx="3" ry="3" style="stroke:#038048;stroke-width:1.0;"/><text fill="#000000" font-family="sans-serif" font-size="11" lengthAdjust="spacing" textLength="78" x="156.2998" y="317.2104">toDTO(lTests)</text><!--MD5=[0f6f7964b844a64b0496af0dda7914bd]
class TestStore--><rect fill="#FEFECE" filter="url(#f1kmzrhpgmdb8s)" height="73.6094" id="TestStore" style="stroke:#A80036;stroke-width:1.5;" width="151" x="255.7998" y="401"/><ellipse cx="297.7998" cy="417" fill="#ADD1B2" rx="11" ry="11" style="stroke:#A80036;stroke-width:1.0;"/><path d="M300.1436,412.6719 C299.2061,412.2344 298.6123,412.0938 297.7373,412.0938 C295.1123,412.0938 293.1123,414.1719 293.1123,416.8906 L293.1123,418.0156 C293.1123,420.5938 295.2217,422.4844 298.1123,422.4844 C299.3311,422.4844 300.4873,422.1875 301.2373,421.6406 C301.8154,421.2344 302.1436,420.7813 302.1436,420.3906 C302.1436,419.9375 301.7529,419.5469 301.2842,419.5469 C301.0654,419.5469 300.8623,419.625 300.6748,419.8125 C300.2217,420.2969 300.2217,420.2969 300.0342,420.3906 C299.6123,420.6563 298.9248,420.7813 298.1592,420.7813 C296.1123,420.7813 294.8154,419.6875 294.8154,417.9844 L294.8154,416.8906 C294.8154,415.1094 296.0654,413.7969 297.7998,413.7969 C298.3779,413.7969 298.9873,413.9531 299.4561,414.2031 C299.9404,414.4844 300.1123,414.7031 300.2061,415.1094 C300.2686,415.5156 300.2998,415.6406 300.4404,415.7656 C300.5811,415.9063 300.8154,416.0156 301.0342,416.0156 C301.2998,416.0156 301.5654,415.875 301.7373,415.6563 C301.8467,415.5 301.8779,415.3125 301.8779,414.8906 L301.8779,413.4688 C301.8779,413.0313 301.8623,412.9063 301.7686,412.75 C301.6123,412.4844 301.3311,412.3438 301.0342,412.3438 C300.7373,412.3438 300.5342,412.4375 300.3154,412.75 L300.1436,412.6719 Z " fill="#000000"/><text fill="#000000" font-family="sans-serif" font-size="12" lengthAdjust="spacing" textLength="59" x="317.7998" y="421.1543">TestStore</text><line style="stroke:#A80036;stroke-width:1.5;" x1="256.7998" x2="405.7998" y1="433" y2="433"/><line style="stroke:#A80036;stroke-width:1.5;" x1="256.7998" x2="405.7998" y1="441" y2="441"/><ellipse cx="266.7998" cy="452" fill="#84BE84" rx="3" ry="3" style="stroke:#038048;stroke-width:1.0;"/><text fill="#000000" font-family="sans-serif" font-size="11" lengthAdjust="spacing" textLength="58" x="275.7998" y="455.2104">getTests()</text><ellipse cx="266.7998" cy="464.8047" fill="#84BE84" rx="3" ry="3" style="stroke:#038048;stroke-width:1.0;"/><text fill="#000000" font-family="sans-serif" font-size="11" lengthAdjust="spacing" textLength="125" x="275.7998" y="468.0151">getTestByCode(code)</text><!--MD5=[f00dbe8c0302c6aec2cb26b3c659c8fc]
class Report--><rect fill="#FEFECE" filter="url(#f1kmzrhpgmdb8s)" height="112.0234" id="Report" style="stroke:#A80036;stroke-width:1.5;" width="159" x="122.7996" y="715"/><ellipse cx="178.0496" cy="731" fill="#ADD1B2" rx="11" ry="11" style="stroke:#A80036;stroke-width:1.0;"/><path d="M180.3934,726.6719 C179.4559,726.2344 178.8621,726.0938 177.9871,726.0938 C175.3621,726.0938 173.3621,728.1719 173.3621,730.8906 L173.3621,732.0156 C173.3621,734.5938 175.4715,736.4844 178.3621,736.4844 C179.5809,736.4844 180.7371,736.1875 181.4871,735.6406 C182.0652,735.2344 182.3934,734.7813 182.3934,734.3906 C182.3934,733.9375 182.0027,733.5469 181.534,733.5469 C181.3152,733.5469 181.1121,733.625 180.9246,733.8125 C180.4715,734.2969 180.4715,734.2969 180.284,734.3906 C179.8621,734.6563 179.1746,734.7813 178.409,734.7813 C176.3621,734.7813 175.0652,733.6875 175.0652,731.9844 L175.0652,730.8906 C175.0652,729.1094 176.3152,727.7969 178.0496,727.7969 C178.6277,727.7969 179.2371,727.9531 179.7059,728.2031 C180.1902,728.4844 180.3621,728.7031 180.4559,729.1094 C180.5184,729.5156 180.5496,729.6406 180.6902,729.7656 C180.8309,729.9063 181.0652,730.0156 181.284,730.0156 C181.5496,730.0156 181.8152,729.875 181.9871,729.6563 C182.0965,729.5 182.1277,729.3125 182.1277,728.8906 L182.1277,727.4688 C182.1277,727.0313 182.1121,726.9063 182.0184,726.75 C181.8621,726.4844 181.5809,726.3438 181.284,726.3438 C180.9871,726.3438 180.784,726.4375 180.5652,726.75 L180.3934,726.6719 Z " fill="#000000"/><text fill="#000000" font-family="sans-serif" font-size="12" lengthAdjust="spacing" textLength="40" x="198.5496" y="735.1543">Report</text><line style="stroke:#A80036;stroke-width:1.5;" x1="123.7996" x2="280.7996" y1="747" y2="747"/><rect fill="none" height="6" style="stroke:#C82930;stroke-width:1.0;" width="6" x="130.7996" y="755"/><text fill="#000000" font-family="sans-serif" font-size="11" lengthAdjust="spacing" textLength="53" x="142.7996" y="761.2104">diagnosis</text><rect fill="none" height="6" style="stroke:#C82930;stroke-width:1.0;" width="6" x="130.7996" y="767.8047"/><text fill="#000000" font-family="sans-serif" font-size="11" lengthAdjust="spacing" textLength="56" x="142.7996" y="774.0151">createdAt</text><line style="stroke:#A80036;stroke-width:1.5;" x1="123.7996" x2="280.7996" y1="780.6094" y2="780.6094"/><ellipse cx="133.7996" cy="791.6094" fill="#84BE84" rx="3" ry="3" style="stroke:#038048;stroke-width:1.0;"/><text fill="#000000" font-family="sans-serif" font-size="11" lengthAdjust="spacing" textLength="124" x="142.7996" y="794.8198">create(diagnosisText)</text><ellipse cx="133.7996" cy="804.4141" fill="#84BE84" rx="3" ry="3" style="stroke:#038048;stroke-width:1.0;"/><text fill="#000000" font-family="sans-serif" font-size="11" lengthAdjust="spacing" textLength="54" x="142.7996" y="807.6245">getData()</text><ellipse cx="133.7996" cy="817.2188" fill="#84BE84" rx="3" ry="3" style="stroke:#038048;stroke-width:1.0;"/><text fill="#000000" font-family="sans-serif" font-size="11" lengthAdjust="spacing" textLength="133" x="142.7996" y="820.4292">validate(diagnosisText)</text><!--MD5=[4ff913b72b026e4c95390310e4df5ddd]
link WriteReportUI to WriteReportController--><path codeLine="1" d="M347.2998,55.11 C347.2998,70.631 347.2998,91.639 347.2998,110.625 " fill="none" id="WriteReportUI-to-WriteReportController" style="stroke:#A80036;stroke-width:1.0;stroke-dasharray:7.0,7.0;"/><polygon fill="#A80036" points="347.2998,115.921,351.2998,106.921,347.2998,110.921,343.2998,106.921,347.2998,115.921" style="stroke:#A80036;stroke-width:1.0;"/><!--MD5=[9b2333fc4bb252fcbf463a8449033993]
link WriteReportUI to TestDto--><path codeLine="2" d="M298.9748,55.065 C233.8658,89.5 122.3162,161.362 89.2996,263 C74.1861,309.525 85.2181,366.39 95.4771,402.163 " fill="none" id="WriteReportUI-to-TestDto" style="stroke:#A80036;stroke-width:1.0;stroke-dasharray:7.0,7.0;"/><polygon fill="#A80036" points="96.9819,407.284,98.2843,397.5216,95.5732,402.4865,90.6083,399.7755,96.9819,407.284" style="stroke:#A80036;stroke-width:1.0;"/><!--MD5=[db007318cbcc310df0d29f2bfaf07d63]
link WriteReportUI to TestParameterDto--><path codeLine="3" d="M405.7058,40.596 C510.2858,59.485 727.1808,115.356 819.2998,263 C849.7088,311.738 803.7268,374.954 771.4268,410.213 " fill="none" id="WriteReportUI-to-TestParameterDto" style="stroke:#A80036;stroke-width:1.0;stroke-dasharray:7.0,7.0;"/><polygon fill="#A80036" points="767.9548,413.954,777.0094,410.0792,771.3565,410.2895,771.1462,404.6365,767.9548,413.954" style="stroke:#A80036;stroke-width:1.0;"/><!--MD5=[a3405a5a29c0a1359ce5b85a18cd6043]
link WriteReportController to Company--><path codeLine="4" d="M364.5338,202.288 C371.8698,220.287 380.3168,241.014 387.2628,258.058 " fill="none" id="WriteReportController-to-Company" style="stroke:#A80036;stroke-width:1.0;stroke-dasharray:7.0,7.0;"/><polygon fill="#A80036" points="389.1798,262.762,389.488,252.918,387.2931,258.1316,382.0794,255.9367,389.1798,262.762" style="stroke:#A80036;stroke-width:1.0;"/><!--MD5=[2a13b80ffc8ef808da3a7bc0ac83e972]
link WriteReportController to TestParameterMapper--><path codeLine="5" d="M444.9788,181.559 C494.2438,193.827 554.3968,210.962 606.2998,232 C625.8008,239.904 646.2638,250.374 664.2328,260.378 " fill="none" id="WriteReportController-to-TestParameterMapper" style="stroke:#A80036;stroke-width:1.0;stroke-dasharray:7.0,7.0;"/><polygon fill="#A80036" points="668.7458,262.91,662.8522,255.0191,664.3847,260.4645,658.9394,261.9969,668.7458,262.91" style="stroke:#A80036;stroke-width:1.0;"/><!--MD5=[4d3310fc4566637689da5334cbb1e821]
link WriteReportController to TestParameter--><path codeLine="6" d="M444.8078,200.843 C479.1168,222.175 509.2998,252.351 509.2998,292.5 C509.2998,292.5 509.2998,292.5 509.2998,596 C509.2998,641.348 509.2998,693.344 509.2998,728.5976 " fill="none" id="WriteReportController-to-TestParameter" style="stroke:#A80036;stroke-width:1.0;stroke-dasharray:7.0,7.0;"/><polygon fill="#A80036" points="509.2998,733.6747,513.2998,724.6747,509.2998,728.6747,505.2998,724.6747,509.2998,733.6747" style="stroke:#A80036;stroke-width:1.0;"/><!--MD5=[7278674e9ca3925782f5c87c1bd9dd49]
link WriteReportController to Test--><path codeLine="7" d="M249.7808,173.729 C193.8338,186.926 127.3498,212.714 89.2996,263 C31.3928,339.529 6,388.857 48.2996,475 C63.1429,505.228 89.7711,529.957 116.758,548.886 " fill="none" id="WriteReportController-to-Test" style="stroke:#A80036;stroke-width:1.0;stroke-dasharray:7.0,7.0;"/><polygon fill="#A80036" points="121.0905,551.874,115.9531,543.4712,116.9746,549.035,111.4108,550.0566,121.0905,551.874" style="stroke:#A80036;stroke-width:1.0;"/><!--MD5=[ba2f9852a26c2c8c4a0a839cdb68bb34]
link WriteReportController to TestDto--><path codeLine="8" d="M249.6408,179.178 C202.0038,193.833 148.5758,219.275 118.2996,263 C89.8528,304.082 93.5207,364.539 99.7134,402.297 " fill="none" id="WriteReportController-to-TestDto" style="stroke:#A80036;stroke-width:1.0;stroke-dasharray:7.0,7.0;"/><polygon fill="#A80036" points="100.5602,407.242,102.9831,397.6958,99.7159,402.3138,95.0979,399.0466,100.5602,407.242" style="stroke:#A80036;stroke-width:1.0;"/><!--MD5=[f27b4a25a5b059d18ef9f1b16d7419ab]
link WriteReportController to TestMapper--><path codeLine="9" d="M296.5538,202.288 C274.4008,220.749 248.8058,242.078 228.0658,259.361 " fill="none" id="WriteReportController-to-TestMapper" style="stroke:#A80036;stroke-width:1.0;stroke-dasharray:7.0,7.0;"/><polygon fill="#A80036" points="223.9858,262.762,233.4604,260.0729,227.8268,259.5609,228.3387,253.9273,223.9858,262.762" style="stroke:#A80036;stroke-width:1.0;"/><!--MD5=[aa4aa685cc8a1bee089823f9a2dac854]
link WriteReportController to TestStore--><path codeLine="10" d="M338.2408,202.129 C334.6888,220.697 331.0488,242.835 329.2998,263 C325.3688,308.325 326.7548,360.536 328.5628,395.848 " fill="none" id="WriteReportController-to-TestStore" style="stroke:#A80036;stroke-width:1.0;stroke-dasharray:7.0,7.0;"/><polygon fill="#A80036" points="328.8318,400.932,332.3505,391.7331,328.5675,395.939,324.3617,392.156,328.8318,400.932" style="stroke:#A80036;stroke-width:1.0;"/><!--MD5=[48de59b1e522be65590027d0278dc73c]
link WriteReportController to TestParameterDto--><path codeLine="11" d="M444.9768,187.306 C475.4608,198.408 508.1778,213.152 535.2998,232 C580.0358,263.089 577.8038,285.452 616.2998,324 C647.4168,355.158 685.5218,388.206 712.0268,410.458 " fill="none" id="WriteReportController-to-TestParameterDto" style="stroke:#A80036;stroke-width:1.0;stroke-dasharray:7.0,7.0;"/><polygon fill="#A80036" points="716.1778,413.935,711.8462,405.0898,712.3446,410.7247,706.7097,411.223,716.1778,413.935" style="stroke:#A80036;stroke-width:1.0;"/><!--MD5=[7f6cf7f175eae0af66201860de5de971]
link Company to TestStore--><path codeLine="18" d="M386.7958,324.026 C376.5088,344.967 362.5748,373.332 351.2428,396.401 " fill="none" id="Company-to-TestStore" style="stroke:#A80036;stroke-width:1.0;"/><polygon fill="#A80036" points="349.0128,400.941,356.5704,394.6258,351.2168,396.453,349.3896,391.0994,349.0128,400.941" style="stroke:#A80036;stroke-width:1.0;"/><text fill="#000000" font-family="sans-serif" font-size="13" lengthAdjust="spacing" textLength="24" x="372.2998" y="367.0669">Has</text><text fill="#000000" font-family="sans-serif" font-size="13" lengthAdjust="spacing" textLength="8" x="374.9794" y="343.9696">1</text><text fill="#000000" font-family="sans-serif" font-size="13" lengthAdjust="spacing" textLength="8" x="343.5411" y="389.8406">1</text><!--MD5=[b0f4f6db8206580012ef9cd998ed01c5]
link TestStore to Test--><path codeLine="22" d="M301.0548,475.341 C283.0328,496.995 259.9848,524.688 240.6888,547.874 " fill="none" id="TestStore-to-Test" style="stroke:#A80036;stroke-width:1.0;"/><polygon fill="#A80036" points="237.3788,551.85,246.2108,547.4916,240.5775,548.007,240.062,542.3737,237.3788,551.85" style="stroke:#A80036;stroke-width:1.0;"/><text fill="#000000" font-family="sans-serif" font-size="13" lengthAdjust="spacing" textLength="24" x="276.2998" y="518.0669">Has</text><text fill="#000000" font-family="sans-serif" font-size="13" lengthAdjust="spacing" textLength="8" x="287.597" y="494.5961">1</text><text fill="#000000" font-family="sans-serif" font-size="13" lengthAdjust="spacing" textLength="7" x="235.4117" y="540.8221">*</text><!--MD5=[8d9a2c3ea1bf73d8d45b939465e53fff]
link TestMapper to Test--><path codeLine="25" d="M189.6798,324.037 C192.1088,375.999 197.1658,484.166 200.0868,546.659 " fill="none" id="TestMapper-to-Test" style="stroke:#A80036;stroke-width:1.0;stroke-dasharray:7.0,7.0;"/><polygon fill="#A80036" points="200.3278,551.819,203.9018,542.6415,200.0936,546.8245,195.9106,543.0163,200.3278,551.819" style="stroke:#A80036;stroke-width:1.0;"/><!--MD5=[34b2fed5845bf5a187f4983fcf3f57bc]
link TestMapper to TestDto--><path codeLine="26" d="M171.5168,324.026 C158.5168,346.896 140.4828,378.621 126.8352,402.632 " fill="none" id="TestMapper-to-TestDto" style="stroke:#A80036;stroke-width:1.0;stroke-dasharray:7.0,7.0;"/><polygon fill="#A80036" points="124.34,407.021,132.2637,401.1716,126.8099,402.6736,125.3079,397.2198,124.34,407.021" style="stroke:#A80036;stroke-width:1.0;"/><!--MD5=[72163acd41df4db10e2bb78c0e4b52d4]
link Test to Report--><path codeLine="34" d="M202.2998,638.121 C202.2998,659.533 202.2998,685.941 202.2998,709.487 " fill="none" id="Test-to-Report" style="stroke:#A80036;stroke-width:1.0;"/><polygon fill="#A80036" points="202.2998,714.777,206.2998,705.777,202.2998,709.777,198.2998,705.777,202.2998,714.777" style="stroke:#A80036;stroke-width:1.0;"/><text fill="#000000" font-family="sans-serif" font-size="13" lengthAdjust="spacing" textLength="101" x="203.2998" y="681.0669">Associated with</text><text fill="#000000" font-family="sans-serif" font-size="13" lengthAdjust="spacing" textLength="8" x="193.6373" y="658.5487">1</text><text fill="#000000" font-family="sans-serif" font-size="13" lengthAdjust="spacing" textLength="7" x="194.8733" y="704.0843">*</text><!--MD5=[f24c888dadeb846430474fe80a58922b]
link Test to TestParameter--><path codeLine="35" d="M276.6158,638.121 C328.1208,667.312 396.0038,705.787 445.1458,733.6394 " fill="none" id="Test-to-TestParameter" style="stroke:#A80036;stroke-width:1.0;"/><polygon fill="#A80036" points="449.5438,736.1317,443.6867,728.2137,445.194,733.666,439.7417,735.1733,449.5438,736.1317" style="stroke:#A80036;stroke-width:1.0;"/><text fill="#000000" font-family="sans-serif" font-size="13" lengthAdjust="spacing" textLength="37" x="357.2998" y="681.0669">Rates</text><text fill="#000000" font-family="sans-serif" font-size="13" lengthAdjust="spacing" textLength="7" x="281.3447" y="658.5487">*</text><text fill="#000000" font-family="sans-serif" font-size="13" lengthAdjust="spacing" textLength="23" x="418.7502" y="728.5935">1..*</text><!--MD5=[886f81fd36c1ffd754dcf922ff388f49]
link TestParameterMapper to TestParameter--><path codeLine="38" d="M699.1518,324.236 C686.6498,345.291 670.0578,374.403 657.2998,401 C601.5468,517.233 548.3698,660.272 523.6848,729.137 " fill="none" id="TestParameterMapper-to-TestParameter" style="stroke:#A80036;stroke-width:1.0;stroke-dasharray:7.0,7.0;"/><polygon fill="#A80036" points="521.9578,733.9657,528.7555,726.8389,523.642,729.2579,521.223,724.1443,521.9578,733.9657" style="stroke:#A80036;stroke-width:1.0;"/><!--MD5=[0d2deb453e4521a8ecd45cf39c488e89]
link TestParameterMapper to TestParameterDto--><path codeLine="39" d="M722.8938,324.026 C727.5948,348.837 734.2708,384.071 738.9128,408.569 " fill="none" id="TestParameterMapper-to-TestParameterDto" style="stroke:#A80036;stroke-width:1.0;stroke-dasharray:7.0,7.0;"/><polygon fill="#A80036" points="739.8708,413.626,742.127,404.0391,738.9408,408.7132,734.2666,405.527,739.8708,413.626" style="stroke:#A80036;stroke-width:1.0;"/><!--MD5=[c9b8a9fe7c3b58e6182059e5a2a831ec]
link TestDto to Test--><path codeLine="44" d="M125.392,468.519 C139.0308,490.772 158.0018,521.725 173.6898,547.321 " fill="none" id="TestDto-to-Test" style="stroke:#A80036;stroke-width:1.0;stroke-dasharray:7.0,7.0;"/><polygon fill="#A80036" points="176.3778,551.706,175.0849,541.9424,173.7649,547.4431,168.2642,546.123,176.3778,551.706" style="stroke:#A80036;stroke-width:1.0;"/><!--MD5=[544b85b49e49e2cb6fc9697c5aa97aee]
@startuml
WriteReportUI ..> WriteReportController
WriteReportUI ..> TestDto
WriteReportUI ..> TestParameterDto
WriteReportController..>Company
WriteReportController..>TestParameterMapper
WriteReportController..>TestParameter
WriteReportController..>Test
WriteReportController..>TestDto
WriteReportController..>TestMapper
WriteReportController..>TestStore
WriteReportController..>TestParameterDto

WriteReportController : +getTests()
WriteReportController : +getResultParameters(testDto)
WriteReportController : +createReport(diagnosisText)

Company : +getTestStore()
Company"1" - -> "1"TestStore: Has

TestStore : +getTests()
TestStore : +getTestByCode(code)
TestStore"1" - -> "*"Test: Has

TestMapper : +toDTO(lTests)
TestMapper..>Test
TestMapper..>TestDto

TestDto : +getCode()

Test : +getResultParameters()
Test : +addReport(diagnosisText)
Test : -report

Test"1" - -> "*"Report : Associated with
Test"*" - -> "1..*"TestParameter: Rates

TestParameterMapper : +toDto(lResultParameters)
TestParameterMapper..>TestParameter
TestParameterMapper..>TestParameterDto

TestParameter : -parameter
TestParameter : -tpr

TestDto..>Test

Report : +create(diagnosisText)
Report : +getData()
Report : +validate(diagnosisText)
Report : -diagnosis
Report : -createdAt
@enduml

PlantUML version 1.2021.7(Sun May 23 12:40:07 UTC 2021)
(GPL source distribution)
Java Runtime: Java(TM) SE Runtime Environment
JVM: Java HotSpot(TM) 64-Bit Server VM
Default Encoding: UTF-8
Language: en
Country: US
--></g></svg>