<?xml version="1.0" encoding="UTF-8" standalone="no"?><svg xmlns="http://www.w3.org/2000/svg" xmlns:xlink="http://www.w3.org/1999/xlink" contentScriptType="application/ecmascript" contentStyleType="text/css" height="1221px" preserveAspectRatio="none" style="width:2156px;height:1221px;background:#FFFFFF;" version="1.1" viewBox="0 0 2156 1221" width="2156px" zoomAndPan="magnify"><defs><filter height="300%" id="fcu3g7tuaelvy" width="300%" x="-1" y="-1"><feGaussianBlur result="blurOut" stdDeviation="2.0"/><feColorMatrix in="blurOut" result="blurOut2" type="matrix" values="0 0 0 0 0 0 0 0 0 0 0 0 0 0 0 0 0 0 .4 0"/><feOffset dx="4.0" dy="4.0" in="blurOut2" result="blurOut3"/><feBlend in="SourceGraphic" in2="blurOut3" mode="normal"/></filter></defs><g><rect fill="#FFFFFF" filter="url(#fcu3g7tuaelvy)" height="1020.5156" style="stroke:#A80036;stroke-width:1.0;" width="10" x="65" y="98.2969"/><rect fill="#FFFFFF" filter="url(#fcu3g7tuaelvy)" height="235.6641" style="stroke:#A80036;stroke-width:1.0;" width="10" x="569" y="119.4297"/><rect fill="#FFFFFF" filter="url(#fcu3g7tuaelvy)" height="353.9297" style="stroke:#A80036;stroke-width:1.0;" width="10" x="569" y="384.2266"/><rect fill="#FFFFFF" filter="url(#fcu3g7tuaelvy)" height="29.1328" style="stroke:#A80036;stroke-width:1.0;" width="10" x="569" y="767.2891"/><rect fill="#FFFFFF" filter="url(#fcu3g7tuaelvy)" height="293.2578" style="stroke:#A80036;stroke-width:1.0;" width="10" x="569" y="825.5547"/><rect fill="#FFFFFF" filter="url(#fcu3g7tuaelvy)" height="177.3984" style="stroke:#A80036;stroke-width:1.0;" width="10" x="964" y="148.5625"/><rect fill="#FFFFFF" filter="url(#fcu3g7tuaelvy)" height="324.7969" style="stroke:#A80036;stroke-width:1.0;" width="10" x="964" y="413.3594"/><rect fill="#FFFFFF" filter="url(#fcu3g7tuaelvy)" height="227.9922" style="stroke:#A80036;stroke-width:1.0;" width="10" x="964" y="854.6875"/><rect fill="#FFFFFF" filter="url(#fcu3g7tuaelvy)" height="30" style="stroke:#A80036;stroke-width:1.0;" width="10" x="1156" y="177.6953"/><rect fill="#FFFFFF" filter="url(#fcu3g7tuaelvy)" height="30" style="stroke:#A80036;stroke-width:1.0;" width="10" x="1156" y="442.4922"/><rect fill="#FFFFFF" filter="url(#fcu3g7tuaelvy)" height="30" style="stroke:#A80036;stroke-width:1.0;" width="10" x="1259" y="236.8281"/><rect fill="#FFFFFF" filter="url(#fcu3g7tuaelvy)" height="30" style="stroke:#A80036;stroke-width:1.0;" width="10" x="1259" y="560.7578"/><rect fill="#FFFFFF" filter="url(#fcu3g7tuaelvy)" height="30" style="stroke:#A80036;stroke-width:1.0;" width="10" x="1371.5" y="295.9609"/><rect fill="#FFFFFF" filter="url(#fcu3g7tuaelvy)" height="30" style="stroke:#A80036;stroke-width:1.0;" width="10" x="1477.5" y="501.625"/><rect fill="#FFFFFF" filter="url(#fcu3g7tuaelvy)" height="30" style="stroke:#A80036;stroke-width:1.0;" width="10" x="1571" y="619.8906"/><rect fill="#FFFFFF" filter="url(#fcu3g7tuaelvy)" height="198.8594" style="stroke:#A80036;stroke-width:1.0;" width="10" x="1571" y="883.8203"/><rect fill="#FFFFFF" filter="url(#fcu3g7tuaelvy)" height="30" style="stroke:#A80036;stroke-width:1.0;" width="10" x="1716.5" y="679.0234"/><rect fill="#FFFFFF" filter="url(#fcu3g7tuaelvy)" height="159.7266" style="stroke:#A80036;stroke-width:1.0;" width="10" x="1856.5" y="922.9531"/><rect fill="#FFFFFF" filter="url(#fcu3g7tuaelvy)" height="28" style="stroke:#A80036;stroke-width:1.0;" width="10" x="1861.5" y="982.5469"/><rect fill="#FFFFFF" filter="url(#fcu3g7tuaelvy)" height="28" style="stroke:#A80036;stroke-width:1.0;" width="10" x="1861.5" y="1054.6797"/><line style="stroke:#A80036;stroke-width:1.0;stroke-dasharray:5.0,5.0;" x1="70" x2="70" y1="88.2969" y2="1136.8125"/><line style="stroke:#A80036;stroke-width:1.0;stroke-dasharray:5.0,5.0;" x1="573.5" x2="573.5" y1="88.2969" y2="1136.8125"/><line style="stroke:#A80036;stroke-width:1.0;stroke-dasharray:5.0,5.0;" x1="968.5" x2="968.5" y1="88.2969" y2="1136.8125"/><line style="stroke:#A80036;stroke-width:1.0;stroke-dasharray:5.0,5.0;" x1="1160.5" x2="1160.5" y1="88.2969" y2="1136.8125"/><line style="stroke:#A80036;stroke-width:1.0;stroke-dasharray:5.0,5.0;" x1="1263.5" x2="1263.5" y1="88.2969" y2="1136.8125"/><line style="stroke:#A80036;stroke-width:1.0;stroke-dasharray:5.0,5.0;" x1="1376.5" x2="1376.5" y1="88.2969" y2="1136.8125"/><line style="stroke:#A80036;stroke-width:1.0;stroke-dasharray:5.0,5.0;" x1="1482.5" x2="1482.5" y1="88.2969" y2="1136.8125"/><line style="stroke:#A80036;stroke-width:1.0;stroke-dasharray:5.0,5.0;" x1="1575.5" x2="1575.5" y1="88.2969" y2="1136.8125"/><line style="stroke:#A80036;stroke-width:1.0;stroke-dasharray:5.0,5.0;" x1="1721.5" x2="1721.5" y1="88.2969" y2="1136.8125"/><line style="stroke:#A80036;stroke-width:1.0;stroke-dasharray:5.0,5.0;" x1="1861.5" x2="1861.5" y1="932.6172" y2="1136.8125"/><line style="stroke:#A80036;stroke-width:1.0;stroke-dasharray:5.0,5.0;" x1="2083.5" x2="2083.5" y1="88.2969" y2="1136.8125"/><text fill="#000000" font-family="sans-serif" font-size="14" lengthAdjust="spacing" textLength="124" x="5" y="84.9951">Specialist Doctor</text><ellipse cx="70" cy="15" fill="#FEFECE" filter="url(#fcu3g7tuaelvy)" rx="8" ry="8" style="stroke:#A80036;stroke-width:2.0;"/><path d="M70,23 L70,50 M57,31 L83,31 M70,50 L57,65 M70,50 L83,65 " fill="none" filter="url(#fcu3g7tuaelvy)" style="stroke:#A80036;stroke-width:2.0;"/><text fill="#000000" font-family="sans-serif" font-size="14" lengthAdjust="spacing" textLength="124" x="5" y="1148.8076">Specialist Doctor</text><ellipse cx="70" cy="1162.1094" fill="#FEFECE" filter="url(#fcu3g7tuaelvy)" rx="8" ry="8" style="stroke:#A80036;stroke-width:2.0;"/><path d="M70,1170.1094 L70,1197.1094 M57,1178.1094 L83,1178.1094 M70,1197.1094 L57,1212.1094 M70,1197.1094 L83,1212.1094 " fill="none" filter="url(#fcu3g7tuaelvy)" style="stroke:#A80036;stroke-width:2.0;"/><rect fill="#FEFECE" filter="url(#fcu3g7tuaelvy)" height="30.2969" style="stroke:#A80036;stroke-width:1.5;" width="123" x="510.5" y="53"/><text fill="#000000" font-family="sans-serif" font-size="14" lengthAdjust="spacing" textLength="109" x="517.5" y="72.9951">:WriteReportUI</text><rect fill="#FEFECE" filter="url(#fcu3g7tuaelvy)" height="30.2969" style="stroke:#A80036;stroke-width:1.5;" width="123" x="510.5" y="1135.8125"/><text fill="#000000" font-family="sans-serif" font-size="14" lengthAdjust="spacing" textLength="109" x="517.5" y="1155.8076">:WriteReportUI</text><rect fill="#FEFECE" filter="url(#fcu3g7tuaelvy)" height="30.2969" style="stroke:#A80036;stroke-width:1.5;" width="183" x="875.5" y="53"/><text fill="#000000" font-family="sans-serif" font-size="14" lengthAdjust="spacing" textLength="169" x="882.5" y="72.9951">:WriteReportController</text><rect fill="#FEFECE" filter="url(#fcu3g7tuaelvy)" height="30.2969" style="stroke:#A80036;stroke-width:1.5;" width="183" x="875.5" y="1135.8125"/><text fill="#000000" font-family="sans-serif" font-size="14" lengthAdjust="spacing" textLength="169" x="882.5" y="1155.8076">:WriteReportController</text><rect fill="#FEFECE" filter="url(#fcu3g7tuaelvy)" height="30.2969" style="stroke:#A80036;stroke-width:1.5;" width="87" x="1115.5" y="53"/><text fill="#000000" font-family="sans-serif" font-size="14" lengthAdjust="spacing" textLength="73" x="1122.5" y="72.9951">:Company</text><rect fill="#FEFECE" filter="url(#fcu3g7tuaelvy)" height="30.2969" style="stroke:#A80036;stroke-width:1.5;" width="87" x="1115.5" y="1135.8125"/><text fill="#000000" font-family="sans-serif" font-size="14" lengthAdjust="spacing" textLength="73" x="1122.5" y="1155.8076">:Company</text><rect fill="#FEFECE" filter="url(#fcu3g7tuaelvy)" height="46.5938" style="stroke:#A80036;stroke-width:1.5;" width="91" x="1216.5" y="36.7031"/><text fill="#000000" font-family="sans-serif" font-size="14" lengthAdjust="spacing" textLength="47" x="1238.5" y="56.6982">tStore</text><text fill="#000000" font-family="sans-serif" font-size="14" lengthAdjust="spacing" textLength="77" x="1223.5" y="72.9951">:TestStore</text><rect fill="#FEFECE" filter="url(#fcu3g7tuaelvy)" height="46.5938" style="stroke:#A80036;stroke-width:1.5;" width="91" x="1216.5" y="1135.8125"/><text fill="#000000" font-family="sans-serif" font-size="14" lengthAdjust="spacing" textLength="47" x="1238.5" y="1155.8076">tStore</text><text fill="#000000" font-family="sans-serif" font-size="14" lengthAdjust="spacing" textLength="77" x="1223.5" y="1172.1045">:TestStore</text><rect fill="#FEFECE" filter="url(#fcu3g7tuaelvy)" height="30.2969" style="stroke:#A80036;stroke-width:1.5;" width="106" x="1321.5" y="53"/><text fill="#000000" font-family="sans-serif" font-size="14" lengthAdjust="spacing" textLength="92" x="1328.5" y="72.9951">:TestMapper</text><rect fill="#FEFECE" filter="url(#fcu3g7tuaelvy)" height="30.2969" style="stroke:#A80036;stroke-width:1.5;" width="106" x="1321.5" y="1135.8125"/><text fill="#000000" font-family="sans-serif" font-size="14" lengthAdjust="spacing" textLength="92" x="1328.5" y="1155.8076">:TestMapper</text><rect fill="#FEFECE" filter="url(#fcu3g7tuaelvy)" height="46.5938" style="stroke:#A80036;stroke-width:1.5;" width="78" x="1441.5" y="36.7031"/><text fill="#000000" font-family="sans-serif" font-size="14" lengthAdjust="spacing" textLength="57" x="1452" y="56.6982">testDto</text><text fill="#000000" font-family="sans-serif" font-size="14" lengthAdjust="spacing" textLength="64" x="1448.5" y="72.9951">:TestDto</text><rect fill="#FEFECE" filter="url(#fcu3g7tuaelvy)" height="46.5938" style="stroke:#A80036;stroke-width:1.5;" width="78" x="1441.5" y="1135.8125"/><text fill="#000000" font-family="sans-serif" font-size="14" lengthAdjust="spacing" textLength="57" x="1452" y="1155.8076">testDto</text><text fill="#000000" font-family="sans-serif" font-size="14" lengthAdjust="spacing" textLength="64" x="1448.5" y="1172.1045">:TestDto</text><rect fill="#FEFECE" filter="url(#fcu3g7tuaelvy)" height="30.2969" style="stroke:#A80036;stroke-width:1.5;" width="81" x="1533.5" y="53"/><text fill="#000000" font-family="sans-serif" font-size="14" lengthAdjust="spacing" textLength="67" x="1540.5" y="72.9951">test:Test</text><rect fill="#FEFECE" filter="url(#fcu3g7tuaelvy)" height="30.2969" style="stroke:#A80036;stroke-width:1.5;" width="81" x="1533.5" y="1135.8125"/><text fill="#000000" font-family="sans-serif" font-size="14" lengthAdjust="spacing" textLength="67" x="1540.5" y="1155.8076">test:Test</text><rect fill="#FEFECE" filter="url(#fcu3g7tuaelvy)" height="30.2969" style="stroke:#A80036;stroke-width:1.5;" width="182" x="1628.5" y="53"/><text fill="#000000" font-family="sans-serif" font-size="14" lengthAdjust="spacing" textLength="168" x="1635.5" y="72.9951">:TestParameterMapper</text><rect fill="#FEFECE" filter="url(#fcu3g7tuaelvy)" height="30.2969" style="stroke:#A80036;stroke-width:1.5;" width="182" x="1628.5" y="1135.8125"/><text fill="#000000" font-family="sans-serif" font-size="14" lengthAdjust="spacing" textLength="168" x="1635.5" y="1155.8076">:TestParameterMapper</text><rect fill="#FEFECE" filter="url(#fcu3g7tuaelvy)" height="46.5938" style="stroke:#A80036;stroke-width:1.5;" width="70" x="1824.5" y="1135.8125"/><text fill="#000000" font-family="sans-serif" font-size="14" lengthAdjust="spacing" textLength="47" x="1836" y="1155.8076">report</text><text fill="#000000" font-family="sans-serif" font-size="14" lengthAdjust="spacing" textLength="56" x="1831.5" y="1172.1045">:Report</text><rect fill="#FEFECE" filter="url(#fcu3g7tuaelvy)" height="30.2969" style="stroke:#A80036;stroke-width:1.5;" width="122" x="2020.5" y="53"/><text fill="#000000" font-family="sans-serif" font-size="14" lengthAdjust="spacing" textLength="108" x="2027.5" y="72.9951">TestParameter</text><rect fill="#FEFECE" filter="url(#fcu3g7tuaelvy)" height="30.2969" style="stroke:#A80036;stroke-width:1.5;" width="122" x="2020.5" y="1135.8125"/><text fill="#000000" font-family="sans-serif" font-size="14" lengthAdjust="spacing" textLength="108" x="2027.5" y="1155.8076">TestParameter</text><rect fill="#FFFFFF" filter="url(#fcu3g7tuaelvy)" height="1020.5156" style="stroke:#A80036;stroke-width:1.0;" width="10" x="65" y="98.2969"/><rect fill="#FFFFFF" filter="url(#fcu3g7tuaelvy)" height="235.6641" style="stroke:#A80036;stroke-width:1.0;" width="10" x="569" y="119.4297"/><rect fill="#FFFFFF" filter="url(#fcu3g7tuaelvy)" height="353.9297" style="stroke:#A80036;stroke-width:1.0;" width="10" x="569" y="384.2266"/><rect fill="#FFFFFF" filter="url(#fcu3g7tuaelvy)" height="29.1328" style="stroke:#A80036;stroke-width:1.0;" width="10" x="569" y="767.2891"/><rect fill="#FFFFFF" filter="url(#fcu3g7tuaelvy)" height="293.2578" style="stroke:#A80036;stroke-width:1.0;" width="10" x="569" y="825.5547"/><rect fill="#FFFFFF" filter="url(#fcu3g7tuaelvy)" height="177.3984" style="stroke:#A80036;stroke-width:1.0;" width="10" x="964" y="148.5625"/><rect fill="#FFFFFF" filter="url(#fcu3g7tuaelvy)" height="324.7969" style="stroke:#A80036;stroke-width:1.0;" width="10" x="964" y="413.3594"/><rect fill="#FFFFFF" filter="url(#fcu3g7tuaelvy)" height="227.9922" style="stroke:#A80036;stroke-width:1.0;" width="10" x="964" y="854.6875"/><rect fill="#FFFFFF" filter="url(#fcu3g7tuaelvy)" height="30" style="stroke:#A80036;stroke-width:1.0;" width="10" x="1156" y="177.6953"/><rect fill="#FFFFFF" filter="url(#fcu3g7tuaelvy)" height="30" style="stroke:#A80036;stroke-width:1.0;" width="10" x="1156" y="442.4922"/><rect fill="#FFFFFF" filter="url(#fcu3g7tuaelvy)" height="30" style="stroke:#A80036;stroke-width:1.0;" width="10" x="1259" y="236.8281"/><rect fill="#FFFFFF" filter="url(#fcu3g7tuaelvy)" height="30" style="stroke:#A80036;stroke-width:1.0;" width="10" x="1259" y="560.7578"/><rect fill="#FFFFFF" filter="url(#fcu3g7tuaelvy)" height="30" style="stroke:#A80036;stroke-width:1.0;" width="10" x="1371.5" y="295.9609"/><rect fill="#FFFFFF" filter="url(#fcu3g7tuaelvy)" height="30" style="stroke:#A80036;stroke-width:1.0;" width="10" x="1477.5" y="501.625"/><rect fill="#FFFFFF" filter="url(#fcu3g7tuaelvy)" height="30" style="stroke:#A80036;stroke-width:1.0;" width="10" x="1571" y="619.8906"/><rect fill="#FFFFFF" filter="url(#fcu3g7tuaelvy)" height="198.8594" style="stroke:#A80036;stroke-width:1.0;" width="10" x="1571" y="883.8203"/><rect fill="#FFFFFF" filter="url(#fcu3g7tuaelvy)" height="30" style="stroke:#A80036;stroke-width:1.0;" width="10" x="1716.5" y="679.0234"/><rect fill="#FFFFFF" filter="url(#fcu3g7tuaelvy)" height="159.7266" style="stroke:#A80036;stroke-width:1.0;" width="10" x="1856.5" y="922.9531"/><rect fill="#FFFFFF" filter="url(#fcu3g7tuaelvy)" height="28" style="stroke:#A80036;stroke-width:1.0;" width="10" x="1861.5" y="982.5469"/><rect fill="#FFFFFF" filter="url(#fcu3g7tuaelvy)" height="28" style="stroke:#A80036;stroke-width:1.0;" width="10" x="1861.5" y="1054.6797"/><polygon fill="#A80036" points="557,115.4297,567,119.4297,557,123.4297,561,119.4297" style="stroke:#A80036;stroke-width:1.0;"/><line style="stroke:#A80036;stroke-width:1.0;" x1="75" x2="563" y1="119.4297" y2="119.4297"/><text fill="#000000" font-family="sans-serif" font-size="13" font-weight="bold" lengthAdjust="spacing" textLength="9" x="82" y="114.3638">1</text><text fill="#000000" font-family="sans-serif" font-size="13" lengthAdjust="spacing" textLength="217" x="95" y="114.3638">starts the realization of the report</text><polygon fill="#A80036" points="952,144.5625,962,148.5625,952,152.5625,956,148.5625" style="stroke:#A80036;stroke-width:1.0;"/><line style="stroke:#A80036;stroke-width:1.0;" x1="579" x2="958" y1="148.5625" y2="148.5625"/><text fill="#000000" font-family="sans-serif" font-size="13" font-weight="bold" lengthAdjust="spacing" textLength="9" x="586" y="143.4966">2</text><text fill="#000000" font-family="sans-serif" font-size="13" lengthAdjust="spacing" textLength="145" x="599" y="143.4966">lTestsDto = getTests()</text><polygon fill="#A80036" points="1144,173.6953,1154,177.6953,1144,181.6953,1148,177.6953" style="stroke:#A80036;stroke-width:1.0;"/><line style="stroke:#A80036;stroke-width:1.0;" x1="974" x2="1150" y1="177.6953" y2="177.6953"/><text fill="#000000" font-family="sans-serif" font-size="13" font-weight="bold" lengthAdjust="spacing" textLength="8" x="981" y="172.6294">3</text><text fill="#000000" font-family="sans-serif" font-size="13" lengthAdjust="spacing" textLength="150" x="993" y="172.6294">tStore = getTestStore()</text><polygon fill="#A80036" points="1247,232.8281,1257,236.8281,1247,240.8281,1251,236.8281" style="stroke:#A80036;stroke-width:1.0;"/><line style="stroke:#A80036;stroke-width:1.0;" x1="974" x2="1253" y1="236.8281" y2="236.8281"/><text fill="#000000" font-family="sans-serif" font-size="13" font-weight="bold" lengthAdjust="spacing" textLength="9" x="981" y="231.7622">4</text><text fill="#000000" font-family="sans-serif" font-size="13" lengthAdjust="spacing" textLength="122" x="994" y="231.7622">lTests = getTests()</text><polygon fill="#A80036" points="1359.5,291.9609,1369.5,295.9609,1359.5,299.9609,1363.5,295.9609" style="stroke:#A80036;stroke-width:1.0;"/><line style="stroke:#A80036;stroke-width:1.0;" x1="974" x2="1365.5" y1="295.9609" y2="295.9609"/><text fill="#000000" font-family="sans-serif" font-size="13" font-weight="bold" lengthAdjust="spacing" textLength="9" x="981" y="290.895">5</text><text fill="#000000" font-family="sans-serif" font-size="13" lengthAdjust="spacing" textLength="168" x="994" y="290.895">lTestsDto = toDTO(lTests)</text><polygon fill="#A80036" points="86,351.0938,76,355.0938,86,359.0938,82,355.0938" style="stroke:#A80036;stroke-width:1.0;"/><line style="stroke:#A80036;stroke-width:1.0;stroke-dasharray:2.0,2.0;" x1="80" x2="573" y1="355.0938" y2="355.0938"/><text fill="#000000" font-family="sans-serif" font-size="13" font-weight="bold" lengthAdjust="spacing" textLength="9" x="92" y="350.0278">6</text><text fill="#000000" font-family="sans-serif" font-size="13" lengthAdjust="spacing" textLength="135" x="105" y="350.0278">ask to select the test</text><polygon fill="#A80036" points="557,380.2266,567,384.2266,557,388.2266,561,384.2266" style="stroke:#A80036;stroke-width:1.0;"/><line style="stroke:#A80036;stroke-width:1.0;" x1="75" x2="563" y1="384.2266" y2="384.2266"/><text fill="#000000" font-family="sans-serif" font-size="13" font-weight="bold" lengthAdjust="spacing" textLength="9" x="82" y="379.1606">7</text><text fill="#000000" font-family="sans-serif" font-size="13" lengthAdjust="spacing" textLength="159" x="95" y="379.1606">selects the intended test</text><polygon fill="#A80036" points="952,409.3594,962,413.3594,952,417.3594,956,413.3594" style="stroke:#A80036;stroke-width:1.0;"/><line style="stroke:#A80036;stroke-width:1.0;" x1="579" x2="958" y1="413.3594" y2="413.3594"/><text fill="#000000" font-family="sans-serif" font-size="13" font-weight="bold" lengthAdjust="spacing" textLength="9" x="586" y="408.2935">8</text><text fill="#000000" font-family="sans-serif" font-size="13" lengthAdjust="spacing" textLength="353" x="599" y="408.2935">lResultParametersDto = getResultParameters(testDto)</text><polygon fill="#A80036" points="1144,438.4922,1154,442.4922,1144,446.4922,1148,442.4922" style="stroke:#A80036;stroke-width:1.0;"/><line style="stroke:#A80036;stroke-width:1.0;" x1="974" x2="1150" y1="442.4922" y2="442.4922"/><text fill="#000000" font-family="sans-serif" font-size="13" font-weight="bold" lengthAdjust="spacing" textLength="9" x="981" y="437.4263">9</text><text fill="#000000" font-family="sans-serif" font-size="13" lengthAdjust="spacing" textLength="150" x="994" y="437.4263">tStore = getTestStore()</text><polygon fill="#A80036" points="1465.5,497.625,1475.5,501.625,1465.5,505.625,1469.5,501.625" style="stroke:#A80036;stroke-width:1.0;"/><line style="stroke:#A80036;stroke-width:1.0;" x1="974" x2="1471.5" y1="501.625" y2="501.625"/><text fill="#000000" font-family="sans-serif" font-size="13" font-weight="bold" lengthAdjust="spacing" textLength="19" x="981" y="496.5591">10</text><text fill="#000000" font-family="sans-serif" font-size="13" lengthAdjust="spacing" textLength="113" x="1004" y="496.5591">code = getCode()</text><polygon fill="#A80036" points="1247,556.7578,1257,560.7578,1247,564.7578,1251,560.7578" style="stroke:#A80036;stroke-width:1.0;"/><line style="stroke:#A80036;stroke-width:1.0;" x1="974" x2="1253" y1="560.7578" y2="560.7578"/><text fill="#000000" font-family="sans-serif" font-size="13" font-weight="bold" lengthAdjust="spacing" textLength="18" x="981" y="555.6919">11</text><text fill="#000000" font-family="sans-serif" font-size="13" lengthAdjust="spacing" textLength="182" x="1003" y="555.6919">test = getTestByCode(code)</text><polygon fill="#A80036" points="1559,615.8906,1569,619.8906,1559,623.8906,1563,619.8906" style="stroke:#A80036;stroke-width:1.0;"/><line style="stroke:#A80036;stroke-width:1.0;" x1="974" x2="1565" y1="619.8906" y2="619.8906"/><text fill="#000000" font-family="sans-serif" font-size="13" font-weight="bold" lengthAdjust="spacing" textLength="18" x="981" y="614.8247">12</text><text fill="#000000" font-family="sans-serif" font-size="13" lengthAdjust="spacing" textLength="282" x="1003" y="614.8247">lResultParameters = getResultParameters()</text><polygon fill="#A80036" points="1704.5,675.0234,1714.5,679.0234,1704.5,683.0234,1708.5,679.0234" style="stroke:#A80036;stroke-width:1.0;"/><line style="stroke:#A80036;stroke-width:1.0;" x1="974" x2="1710.5" y1="679.0234" y2="679.0234"/><text fill="#000000" font-family="sans-serif" font-size="13" font-weight="bold" lengthAdjust="spacing" textLength="17" x="981" y="673.9575">13</text><text fill="#000000" font-family="sans-serif" font-size="13" lengthAdjust="spacing" textLength="323" x="1002" y="673.9575">lResultParametersDto = toDto(lResultParameters)</text><polygon fill="#A80036" points="86,734.1563,76,738.1563,86,742.1563,82,738.1563" style="stroke:#A80036;stroke-width:1.0;"/><line style="stroke:#A80036;stroke-width:1.0;stroke-dasharray:2.0,2.0;" x1="80" x2="573" y1="738.1563" y2="738.1563"/><text fill="#000000" font-family="sans-serif" font-size="13" font-weight="bold" lengthAdjust="spacing" textLength="18" x="92" y="733.0903">14</text><text fill="#000000" font-family="sans-serif" font-size="13" lengthAdjust="spacing" textLength="448" x="114" y="733.0903">shows the list of parameters results and request data (diagnosisText)</text><polygon fill="#A80036" points="557,763.2891,567,767.2891,557,771.2891,561,767.2891" style="stroke:#A80036;stroke-width:1.0;"/><line style="stroke:#A80036;stroke-width:1.0;" x1="75" x2="563" y1="767.2891" y2="767.2891"/><text fill="#000000" font-family="sans-serif" font-size="13" font-weight="bold" lengthAdjust="spacing" textLength="18" x="82" y="762.2231">15</text><text fill="#000000" font-family="sans-serif" font-size="13" lengthAdjust="spacing" textLength="138" x="104" y="762.2231">types requested data</text><polygon fill="#A80036" points="86,792.4219,76,796.4219,86,800.4219,82,796.4219" style="stroke:#A80036;stroke-width:1.0;"/><line style="stroke:#A80036;stroke-width:1.0;stroke-dasharray:2.0,2.0;" x1="80" x2="573" y1="796.4219" y2="796.4219"/><text fill="#000000" font-family="sans-serif" font-size="13" font-weight="bold" lengthAdjust="spacing" textLength="18" x="92" y="791.356">16</text><text fill="#000000" font-family="sans-serif" font-size="13" lengthAdjust="spacing" textLength="284" x="114" y="791.356">shows the data and requests a confirmation</text><polygon fill="#A80036" points="557,821.5547,567,825.5547,557,829.5547,561,825.5547" style="stroke:#A80036;stroke-width:1.0;"/><line style="stroke:#A80036;stroke-width:1.0;" x1="75" x2="563" y1="825.5547" y2="825.5547"/><text fill="#000000" font-family="sans-serif" font-size="13" font-weight="bold" lengthAdjust="spacing" textLength="18" x="82" y="820.4888">17</text><text fill="#000000" font-family="sans-serif" font-size="13" lengthAdjust="spacing" textLength="114" x="104" y="820.4888">confirms the data</text><polygon fill="#A80036" points="952,850.6875,962,854.6875,952,858.6875,956,854.6875" style="stroke:#A80036;stroke-width:1.0;"/><line style="stroke:#A80036;stroke-width:1.0;" x1="579" x2="958" y1="854.6875" y2="854.6875"/><text fill="#000000" font-family="sans-serif" font-size="13" font-weight="bold" lengthAdjust="spacing" textLength="18" x="586" y="849.6216">18</text><text fill="#000000" font-family="sans-serif" font-size="13" lengthAdjust="spacing" textLength="183" x="608" y="849.6216">createReport(diagnosisText)</text><polygon fill="#A80036" points="1559,879.8203,1569,883.8203,1559,887.8203,1563,883.8203" style="stroke:#A80036;stroke-width:1.0;"/><line style="stroke:#A80036;stroke-width:1.0;" x1="974" x2="1565" y1="883.8203" y2="883.8203"/><text fill="#000000" font-family="sans-serif" font-size="13" font-weight="bold" lengthAdjust="spacing" textLength="18" x="981" y="878.7544">19</text><text fill="#000000" font-family="sans-serif" font-size="13" lengthAdjust="spacing" textLength="223" x="1003" y="878.7544">report = addReport(diagnosisText)</text><polygon fill="#A80036" points="1812.5,908.9531,1822.5,912.9531,1812.5,916.9531,1816.5,912.9531" style="stroke:#A80036;stroke-width:1.0;"/><line style="stroke:#A80036;stroke-width:1.0;" x1="1581" x2="1818.5" y1="912.9531" y2="912.9531"/><text fill="#000000" font-family="sans-serif" font-size="13" font-weight="bold" lengthAdjust="spacing" textLength="19" x="1588" y="907.8872">20</text><text fill="#000000" font-family="sans-serif" font-size="13" lengthAdjust="spacing" textLength="140" x="1611" y="907.8872">create(diagnosisText)</text><rect fill="#FEFECE" filter="url(#fcu3g7tuaelvy)" height="46.5938" style="stroke:#A80036;stroke-width:1.5;" width="70" x="1824.5" y="891.8203"/><text fill="#000000" font-family="sans-serif" font-size="14" lengthAdjust="spacing" textLength="47" x="1836" y="911.8154">report</text><text fill="#000000" font-family="sans-serif" font-size="14" lengthAdjust="spacing" textLength="56" x="1831.5" y="928.1123">:Report</text><line style="stroke:#A80036;stroke-width:1.0;" x1="1871.5" x2="1913.5" y1="974.5469" y2="974.5469"/><line style="stroke:#A80036;stroke-width:1.0;" x1="1913.5" x2="1913.5" y1="974.5469" y2="987.5469"/><line style="stroke:#A80036;stroke-width:1.0;" x1="1872.5" x2="1913.5" y1="987.5469" y2="987.5469"/><polygon fill="#A80036" points="1882.5,983.5469,1872.5,987.5469,1882.5,991.5469,1878.5,987.5469" style="stroke:#A80036;stroke-width:1.0;"/><text fill="#000000" font-family="sans-serif" font-size="13" font-weight="bold" lengthAdjust="spacing" textLength="18" x="1878.5" y="969.481">21</text><text fill="#000000" font-family="sans-serif" font-size="13" lengthAdjust="spacing" textLength="176" x="1900.5" y="969.481">submittedData = getData()</text><line style="stroke:#A80036;stroke-width:1.0;" x1="1871.5" x2="1913.5" y1="1046.6797" y2="1046.6797"/><line style="stroke:#A80036;stroke-width:1.0;" x1="1913.5" x2="1913.5" y1="1046.6797" y2="1059.6797"/><line style="stroke:#A80036;stroke-width:1.0;" x1="1872.5" x2="1913.5" y1="1059.6797" y2="1059.6797"/><polygon fill="#A80036" points="1882.5,1055.6797,1872.5,1059.6797,1882.5,1063.6797,1878.5,1059.6797" style="stroke:#A80036;stroke-width:1.0;"/><text fill="#000000" font-family="sans-serif" font-size="13" font-weight="bold" lengthAdjust="spacing" textLength="18" x="1878.5" y="1041.6138">22</text><text fill="#000000" font-family="sans-serif" font-size="13" lengthAdjust="spacing" textLength="150" x="1900.5" y="1041.6138">validate(diagnosisText)</text><polygon fill="#A80036" points="81,1114.8125,71,1118.8125,81,1122.8125,77,1118.8125" style="stroke:#A80036;stroke-width:1.0;"/><line style="stroke:#A80036;stroke-width:1.0;stroke-dasharray:2.0,2.0;" x1="75" x2="573" y1="1118.8125" y2="1118.8125"/><text fill="#000000" font-family="sans-serif" font-size="13" font-weight="bold" lengthAdjust="spacing" textLength="17" x="87" y="1113.7466">23</text><text fill="#000000" font-family="sans-serif" font-size="13" lengthAdjust="spacing" textLength="169" x="108" y="1113.7466">informs operation success</text><!--MD5=[c4d9a0fde1d9cb12165656c54bd7cc81]
@startuml
actor "Specialist Doctor" as SD
participant ":WriteReportUI" as Interface
participant ":WriteReportController" as Controller
participant ":Company" as Company
participant "tStore\n:TestStore" as tStore
participant ":TestMapper" as TestMapper
participant "testDto\n:TestDto" as TestDto
participant "test:Test" as Test
participant ":TestParameterMapper" as RLmapper
participant "report\n:Report" as Report
participant "TestParameter" as TestParameter

autonumber
activate SD
SD -> Interface: starts the realization of the report
activate Interface
Interface -> Controller: lTestsDto = getTests()
activate Controller
Controller -> Company: tStore = getTestStore()
activate Company
deactivate Company
Controller -> tStore: lTests = getTests()
activate tStore
deactivate tStore
Controller -> TestMapper: lTestsDto = toDTO(lTests)
activate TestMapper
deactivate TestMapper
deactivate Controller
Interface - -> SD: ask to select the test
deactivate Interface
SD -> Interface: selects the intended test
activate Interface
Interface -> Controller: lResultParametersDto = getResultParameters(testDto)
activate Controller
Controller -> Company: tStore = getTestStore()
activate Company
deactivate Company
Controller -> TestDto: code = getCode()
activate TestDto
deactivate TestDto
Controller -> tStore: test = getTestByCode(code)
activate tStore
deactivate tStore
Controller -> Test: lResultParameters = getResultParameters()
activate Test
deactivate Test
Controller -> RLmapper: lResultParametersDto = toDto(lResultParameters)
activate RLmapper
deactivate RLmapper
Interface - -> SD: shows the list of parameters results and request data (diagnosisText)
deactivate Controller
deactivate Interface
SD -> Interface: types requested data
activate Interface
Interface - -> SD: shows the data and requests a confirmation
deactivate Interface
SD -> Interface: confirms the data
activate Interface
Interface -> Controller: createReport(diagnosisText)
activate Controller
Controller -> Test: report = addReport(diagnosisText)
activate Test
Test -> Report**: create(diagnosisText)
activate Report
Report -> Report: submittedData = getData()
activate Report
deactivate Report
Report -> Report: validate(diagnosisText)
activate Report
deactivate Report
deactivate Report
deactivate Test
deactivate Controller
Interface - -> SD: informs operation success
deactivate Interface
deactivate SD
@enduml

PlantUML version 1.2021.7(Sun May 23 12:40:07 UTC 2021)
(GPL source distribution)
Java Runtime: Java(TM) SE Runtime Environment
JVM: Java HotSpot(TM) 64-Bit Server VM
Default Encoding: UTF-8
Language: en
Country: US
--></g></svg>