<?xml version="1.0" encoding="UTF-8" standalone="no"?><svg xmlns="http://www.w3.org/2000/svg" xmlns:xlink="http://www.w3.org/1999/xlink" contentScriptType="application/ecmascript" contentStyleType="text/css" height="425px" preserveAspectRatio="none" style="width:632px;height:425px;background:#FFFFFF;" version="1.1" viewBox="0 0 632 425" width="632px" zoomAndPan="magnify"><defs><filter height="300%" id="f14s6ike3l8tim" width="300%" x="-1" y="-1"><feGaussianBlur result="blurOut" stdDeviation="2.0"/><feColorMatrix in="blurOut" result="blurOut2" type="matrix" values="0 0 0 0 0 0 0 0 0 0 0 0 0 0 0 0 0 0 .4 0"/><feOffset dx="4.0" dy="4.0" in="blurOut2" result="blurOut3"/><feBlend in="SourceGraphic" in2="blurOut3" mode="normal"/></filter></defs><g><rect fill="#FFFFFF" filter="url(#f14s6ike3l8tim)" height="225.0625" style="stroke:#A80036;stroke-width:1.0;" width="10" x="65" y="98.2969"/><rect fill="#FFFFFF" filter="url(#f14s6ike3l8tim)" height="29.1328" style="stroke:#A80036;stroke-width:1.0;" width="10" x="579" y="119.4297"/><rect fill="#FFFFFF" filter="url(#f14s6ike3l8tim)" height="29.1328" style="stroke:#A80036;stroke-width:1.0;" width="10" x="579" y="177.6953"/><rect fill="#FFFFFF" filter="url(#f14s6ike3l8tim)" height="29.1328" style="stroke:#A80036;stroke-width:1.0;" width="10" x="579" y="235.9609"/><rect fill="#FFFFFF" filter="url(#f14s6ike3l8tim)" height="29.1328" style="stroke:#A80036;stroke-width:1.0;" width="10" x="579" y="294.2266"/><line style="stroke:#A80036;stroke-width:1.0;stroke-dasharray:5.0,5.0;" x1="70" x2="70" y1="88.2969" y2="341.3594"/><line style="stroke:#A80036;stroke-width:1.0;stroke-dasharray:5.0,5.0;" x1="583.5" x2="583.5" y1="88.2969" y2="341.3594"/><text fill="#000000" font-family="sans-serif" font-size="14" lengthAdjust="spacing" textLength="124" x="5" y="84.9951">Specialist Doctor</text><ellipse cx="70" cy="15" fill="#FEFECE" filter="url(#f14s6ike3l8tim)" rx="8" ry="8" style="stroke:#A80036;stroke-width:2.0;"/><path d="M70,23 L70,50 M57,31 L83,31 M70,50 L57,65 M70,50 L83,65 " fill="none" filter="url(#f14s6ike3l8tim)" style="stroke:#A80036;stroke-width:2.0;"/><text fill="#000000" font-family="sans-serif" font-size="14" lengthAdjust="spacing" textLength="124" x="5" y="353.3545">Specialist Doctor</text><ellipse cx="70" cy="366.6563" fill="#FEFECE" filter="url(#f14s6ike3l8tim)" rx="8" ry="8" style="stroke:#A80036;stroke-width:2.0;"/><path d="M70,374.6563 L70,401.6563 M57,382.6563 L83,382.6563 M70,401.6563 L57,416.6563 M70,401.6563 L83,416.6563 " fill="none" filter="url(#f14s6ike3l8tim)" style="stroke:#A80036;stroke-width:2.0;"/><rect fill="#FEFECE" filter="url(#f14s6ike3l8tim)" height="30.2969" style="stroke:#A80036;stroke-width:1.5;" width="73" x="545.5" y="53"/><text fill="#000000" font-family="sans-serif" font-size="14" lengthAdjust="spacing" textLength="59" x="552.5" y="72.9951">:System</text><rect fill="#FEFECE" filter="url(#f14s6ike3l8tim)" height="30.2969" style="stroke:#A80036;stroke-width:1.5;" width="73" x="545.5" y="340.3594"/><text fill="#000000" font-family="sans-serif" font-size="14" lengthAdjust="spacing" textLength="59" x="552.5" y="360.3545">:System</text><rect fill="#FFFFFF" filter="url(#f14s6ike3l8tim)" height="225.0625" style="stroke:#A80036;stroke-width:1.0;" width="10" x="65" y="98.2969"/><rect fill="#FFFFFF" filter="url(#f14s6ike3l8tim)" height="29.1328" style="stroke:#A80036;stroke-width:1.0;" width="10" x="579" y="119.4297"/><rect fill="#FFFFFF" filter="url(#f14s6ike3l8tim)" height="29.1328" style="stroke:#A80036;stroke-width:1.0;" width="10" x="579" y="177.6953"/><rect fill="#FFFFFF" filter="url(#f14s6ike3l8tim)" height="29.1328" style="stroke:#A80036;stroke-width:1.0;" width="10" x="579" y="235.9609"/><rect fill="#FFFFFF" filter="url(#f14s6ike3l8tim)" height="29.1328" style="stroke:#A80036;stroke-width:1.0;" width="10" x="579" y="294.2266"/><polygon fill="#A80036" points="567,115.4297,577,119.4297,567,123.4297,571,119.4297" style="stroke:#A80036;stroke-width:1.0;"/><line style="stroke:#A80036;stroke-width:1.0;" x1="75" x2="573" y1="119.4297" y2="119.4297"/><text fill="#000000" font-family="sans-serif" font-size="13" font-weight="bold" lengthAdjust="spacing" textLength="9" x="82" y="114.3638">1</text><text fill="#000000" font-family="sans-serif" font-size="13" lengthAdjust="spacing" textLength="217" x="95" y="114.3638">starts the realization of the report</text><polygon fill="#A80036" points="86,144.5625,76,148.5625,86,152.5625,82,148.5625" style="stroke:#A80036;stroke-width:1.0;"/><line style="stroke:#A80036;stroke-width:1.0;stroke-dasharray:2.0,2.0;" x1="80" x2="583" y1="148.5625" y2="148.5625"/><text fill="#000000" font-family="sans-serif" font-size="13" font-weight="bold" lengthAdjust="spacing" textLength="9" x="92" y="143.4966">2</text><text fill="#000000" font-family="sans-serif" font-size="13" lengthAdjust="spacing" textLength="467" x="105" y="143.4966">shows the list of tests to be reported and requests to select one of them</text><polygon fill="#A80036" points="567,173.6953,577,177.6953,567,181.6953,571,177.6953" style="stroke:#A80036;stroke-width:1.0;"/><line style="stroke:#A80036;stroke-width:1.0;" x1="75" x2="573" y1="177.6953" y2="177.6953"/><text fill="#000000" font-family="sans-serif" font-size="13" font-weight="bold" lengthAdjust="spacing" textLength="8" x="82" y="172.6294">3</text><text fill="#000000" font-family="sans-serif" font-size="13" lengthAdjust="spacing" textLength="175" x="94" y="172.6294">select a test to be reported</text><polygon fill="#A80036" points="86,202.8281,76,206.8281,86,210.8281,82,206.8281" style="stroke:#A80036;stroke-width:1.0;"/><line style="stroke:#A80036;stroke-width:1.0;stroke-dasharray:2.0,2.0;" x1="80" x2="583" y1="206.8281" y2="206.8281"/><text fill="#000000" font-family="sans-serif" font-size="13" font-weight="bold" lengthAdjust="spacing" textLength="9" x="92" y="201.7622">4</text><text fill="#000000" font-family="sans-serif" font-size="13" lengthAdjust="spacing" textLength="448" x="105" y="201.7622">shows the list of parameters results and request data (diagnosisText)</text><polygon fill="#A80036" points="567,231.9609,577,235.9609,567,239.9609,571,235.9609" style="stroke:#A80036;stroke-width:1.0;"/><line style="stroke:#A80036;stroke-width:1.0;" x1="75" x2="573" y1="235.9609" y2="235.9609"/><text fill="#000000" font-family="sans-serif" font-size="13" font-weight="bold" lengthAdjust="spacing" textLength="9" x="82" y="230.895">5</text><text fill="#000000" font-family="sans-serif" font-size="13" lengthAdjust="spacing" textLength="138" x="95" y="230.895">types requested data</text><polygon fill="#A80036" points="86,261.0938,76,265.0938,86,269.0938,82,265.0938" style="stroke:#A80036;stroke-width:1.0;"/><line style="stroke:#A80036;stroke-width:1.0;stroke-dasharray:2.0,2.0;" x1="80" x2="583" y1="265.0938" y2="265.0938"/><text fill="#000000" font-family="sans-serif" font-size="13" font-weight="bold" lengthAdjust="spacing" textLength="9" x="92" y="260.0278">6</text><text fill="#000000" font-family="sans-serif" font-size="13" lengthAdjust="spacing" textLength="284" x="105" y="260.0278">shows the data and requests a confirmation</text><polygon fill="#A80036" points="567,290.2266,577,294.2266,567,298.2266,571,294.2266" style="stroke:#A80036;stroke-width:1.0;"/><line style="stroke:#A80036;stroke-width:1.0;" x1="75" x2="573" y1="294.2266" y2="294.2266"/><text fill="#000000" font-family="sans-serif" font-size="13" font-weight="bold" lengthAdjust="spacing" textLength="9" x="82" y="289.1606">7</text><text fill="#000000" font-family="sans-serif" font-size="13" lengthAdjust="spacing" textLength="114" x="95" y="289.1606">confirms the data</text><polygon fill="#A80036" points="81,319.3594,71,323.3594,81,327.3594,77,323.3594" style="stroke:#A80036;stroke-width:1.0;"/><line style="stroke:#A80036;stroke-width:1.0;stroke-dasharray:2.0,2.0;" x1="75" x2="583" y1="323.3594" y2="323.3594"/><text fill="#000000" font-family="sans-serif" font-size="13" font-weight="bold" lengthAdjust="spacing" textLength="9" x="87" y="318.2935">8</text><text fill="#000000" font-family="sans-serif" font-size="13" lengthAdjust="spacing" textLength="176" x="100" y="318.2935">informs operations success</text><!--MD5=[9e9be8e188c87f068a808907f5ee5841]
@startuml
Actor "Specialist Doctor" as SD
participant ":System" as SY

autonumber

activate SD
SD -> SY : starts the realization of the report

activate SY
SY - -> SD : shows the list of tests to be reported and requests to select one of them
deactivate SY

SD -> SY : select a test to be reported

activate SY
SY - -> SD : shows the list of parameters results and request data (diagnosisText)
deactivate SY

SD -> SY : types requested data

activate SY
SY - -> SD : shows the data and requests a confirmation
deactivate SY

SD -> SY : confirms the data 

activate SY
SY - -> SD : informs operations success
deactivate SY

deactivate SD
@enduml

PlantUML version 1.2021.7(Sun May 23 12:40:07 UTC 2021)
(GPL source distribution)
Java Runtime: Java(TM) SE Runtime Environment
JVM: Java HotSpot(TM) 64-Bit Server VM
Default Encoding: UTF-8
Language: en
Country: US
--></g></svg>