<?xml version="1.0" encoding="UTF-8" standalone="no"?><svg xmlns="http://www.w3.org/2000/svg" xmlns:xlink="http://www.w3.org/1999/xlink" contentScriptType="application/ecmascript" contentStyleType="text/css" height="1148px" preserveAspectRatio="none" style="width:1853px;height:1148px;background:#FFFFFF;" version="1.1" viewBox="0 0 1853 1148" width="1853px" zoomAndPan="magnify"><defs><filter height="300%" id="f1cj5fskyekzi9" width="300%" x="-1" y="-1"><feGaussianBlur result="blurOut" stdDeviation="2.0"/><feColorMatrix in="blurOut" result="blurOut2" type="matrix" values="0 0 0 0 0 0 0 0 0 0 0 0 0 0 0 0 0 0 .4 0"/><feOffset dx="4.0" dy="4.0" in="blurOut2" result="blurOut3"/><feBlend in="SourceGraphic" in2="blurOut3" mode="normal"/></filter></defs><g><rect fill="#FFFFFF" filter="url(#f1cj5fskyekzi9)" height="948.3828" style="stroke:#A80036;stroke-width:1.0;" width="10" x="65" y="98.2969"/><rect fill="#FFFFFF" filter="url(#f1cj5fskyekzi9)" height="235.6641" style="stroke:#A80036;stroke-width:1.0;" width="10" x="352" y="119.4297"/><rect fill="#FFFFFF" filter="url(#f1cj5fskyekzi9)" height="353.9297" style="stroke:#A80036;stroke-width:1.0;" width="10" x="352" y="384.2266"/><rect fill="#FFFFFF" filter="url(#f1cj5fskyekzi9)" height="29.1328" style="stroke:#A80036;stroke-width:1.0;" width="10" x="352" y="767.2891"/><rect fill="#FFFFFF" filter="url(#f1cj5fskyekzi9)" height="221.125" style="stroke:#A80036;stroke-width:1.0;" width="10" x="352" y="825.5547"/><rect fill="#FFFFFF" filter="url(#f1cj5fskyekzi9)" height="177.3984" style="stroke:#A80036;stroke-width:1.0;" width="10" x="747" y="148.5625"/><rect fill="#FFFFFF" filter="url(#f1cj5fskyekzi9)" height="324.7969" style="stroke:#A80036;stroke-width:1.0;" width="10" x="747" y="413.3594"/><rect fill="#FFFFFF" filter="url(#f1cj5fskyekzi9)" height="155.8594" style="stroke:#A80036;stroke-width:1.0;" width="10" x="747" y="854.6875"/><rect fill="#FFFFFF" filter="url(#f1cj5fskyekzi9)" height="30" style="stroke:#A80036;stroke-width:1.0;" width="10" x="939" y="177.6953"/><rect fill="#FFFFFF" filter="url(#f1cj5fskyekzi9)" height="30" style="stroke:#A80036;stroke-width:1.0;" width="10" x="939" y="442.4922"/><rect fill="#FFFFFF" filter="url(#f1cj5fskyekzi9)" height="30" style="stroke:#A80036;stroke-width:1.0;" width="10" x="1042" y="236.8281"/><rect fill="#FFFFFF" filter="url(#f1cj5fskyekzi9)" height="30" style="stroke:#A80036;stroke-width:1.0;" width="10" x="1042" y="560.7578"/><rect fill="#FFFFFF" filter="url(#f1cj5fskyekzi9)" height="30" style="stroke:#A80036;stroke-width:1.0;" width="10" x="1154.5" y="295.9609"/><rect fill="#FFFFFF" filter="url(#f1cj5fskyekzi9)" height="30" style="stroke:#A80036;stroke-width:1.0;" width="10" x="1260.5" y="501.625"/><rect fill="#FFFFFF" filter="url(#f1cj5fskyekzi9)" height="30" style="stroke:#A80036;stroke-width:1.0;" width="10" x="1354" y="619.8906"/><rect fill="#FFFFFF" filter="url(#f1cj5fskyekzi9)" height="126.7266" style="stroke:#A80036;stroke-width:1.0;" width="10" x="1354" y="883.8203"/><rect fill="#FFFFFF" filter="url(#f1cj5fskyekzi9)" height="30" style="stroke:#A80036;stroke-width:1.0;" width="10" x="1506" y="679.0234"/><rect fill="#FFFFFF" filter="url(#f1cj5fskyekzi9)" height="87.5938" style="stroke:#A80036;stroke-width:1.0;" width="10" x="1652.5" y="922.9531"/><rect fill="#FFFFFF" filter="url(#f1cj5fskyekzi9)" height="28" style="stroke:#A80036;stroke-width:1.0;" width="10" x="1657.5" y="982.5469"/><line style="stroke:#A80036;stroke-width:1.0;stroke-dasharray:5.0,5.0;" x1="70" x2="70" y1="88.2969" y2="1064.6797"/><line style="stroke:#A80036;stroke-width:1.0;stroke-dasharray:5.0,5.0;" x1="356.5" x2="356.5" y1="88.2969" y2="1064.6797"/><line style="stroke:#A80036;stroke-width:1.0;stroke-dasharray:5.0,5.0;" x1="751.5" x2="751.5" y1="88.2969" y2="1064.6797"/><line style="stroke:#A80036;stroke-width:1.0;stroke-dasharray:5.0,5.0;" x1="943.5" x2="943.5" y1="88.2969" y2="1064.6797"/><line style="stroke:#A80036;stroke-width:1.0;stroke-dasharray:5.0,5.0;" x1="1046.5" x2="1046.5" y1="88.2969" y2="1064.6797"/><line style="stroke:#A80036;stroke-width:1.0;stroke-dasharray:5.0,5.0;" x1="1159.5" x2="1159.5" y1="88.2969" y2="1064.6797"/><line style="stroke:#A80036;stroke-width:1.0;stroke-dasharray:5.0,5.0;" x1="1265.5" x2="1265.5" y1="88.2969" y2="1064.6797"/><line style="stroke:#A80036;stroke-width:1.0;stroke-dasharray:5.0,5.0;" x1="1358.5" x2="1358.5" y1="88.2969" y2="1064.6797"/><line style="stroke:#A80036;stroke-width:1.0;stroke-dasharray:5.0,5.0;" x1="1510.5" x2="1510.5" y1="88.2969" y2="1064.6797"/><line style="stroke:#A80036;stroke-width:1.0;stroke-dasharray:5.0,5.0;" x1="1657.5" x2="1657.5" y1="932.6172" y2="1064.6797"/><text fill="#000000" font-family="sans-serif" font-size="14" lengthAdjust="spacing" textLength="124" x="5" y="84.9951">Specialist Doctor</text><ellipse cx="70" cy="15" fill="#FEFECE" filter="url(#f1cj5fskyekzi9)" rx="8" ry="8" style="stroke:#A80036;stroke-width:2.0;"/><path d="M70,23 L70,50 M57,31 L83,31 M70,50 L57,65 M70,50 L83,65 " fill="none" filter="url(#f1cj5fskyekzi9)" style="stroke:#A80036;stroke-width:2.0;"/><text fill="#000000" font-family="sans-serif" font-size="14" lengthAdjust="spacing" textLength="124" x="5" y="1076.6748">Specialist Doctor</text><ellipse cx="70" cy="1089.9766" fill="#FEFECE" filter="url(#f1cj5fskyekzi9)" rx="8" ry="8" style="stroke:#A80036;stroke-width:2.0;"/><path d="M70,1097.9766 L70,1124.9766 M57,1105.9766 L83,1105.9766 M70,1124.9766 L57,1139.9766 M70,1124.9766 L83,1139.9766 " fill="none" filter="url(#f1cj5fskyekzi9)" style="stroke:#A80036;stroke-width:2.0;"/><rect fill="#FEFECE" filter="url(#f1cj5fskyekzi9)" height="30.2969" style="stroke:#A80036;stroke-width:1.5;" width="123" x="293.5" y="53"/><text fill="#000000" font-family="sans-serif" font-size="14" lengthAdjust="spacing" textLength="109" x="300.5" y="72.9951">:WriteReportUI</text><rect fill="#FEFECE" filter="url(#f1cj5fskyekzi9)" height="30.2969" style="stroke:#A80036;stroke-width:1.5;" width="123" x="293.5" y="1063.6797"/><text fill="#000000" font-family="sans-serif" font-size="14" lengthAdjust="spacing" textLength="109" x="300.5" y="1083.6748">:WriteReportUI</text><rect fill="#FEFECE" filter="url(#f1cj5fskyekzi9)" height="30.2969" style="stroke:#A80036;stroke-width:1.5;" width="183" x="658.5" y="53"/><text fill="#000000" font-family="sans-serif" font-size="14" lengthAdjust="spacing" textLength="169" x="665.5" y="72.9951">:WriteReportController</text><rect fill="#FEFECE" filter="url(#f1cj5fskyekzi9)" height="30.2969" style="stroke:#A80036;stroke-width:1.5;" width="183" x="658.5" y="1063.6797"/><text fill="#000000" font-family="sans-serif" font-size="14" lengthAdjust="spacing" textLength="169" x="665.5" y="1083.6748">:WriteReportController</text><rect fill="#FEFECE" filter="url(#f1cj5fskyekzi9)" height="30.2969" style="stroke:#A80036;stroke-width:1.5;" width="87" x="898.5" y="53"/><text fill="#000000" font-family="sans-serif" font-size="14" lengthAdjust="spacing" textLength="73" x="905.5" y="72.9951">:Company</text><rect fill="#FEFECE" filter="url(#f1cj5fskyekzi9)" height="30.2969" style="stroke:#A80036;stroke-width:1.5;" width="87" x="898.5" y="1063.6797"/><text fill="#000000" font-family="sans-serif" font-size="14" lengthAdjust="spacing" textLength="73" x="905.5" y="1083.6748">:Company</text><rect fill="#FEFECE" filter="url(#f1cj5fskyekzi9)" height="46.5938" style="stroke:#A80036;stroke-width:1.5;" width="91" x="999.5" y="36.7031"/><text fill="#000000" font-family="sans-serif" font-size="14" lengthAdjust="spacing" textLength="47" x="1021.5" y="56.6982">tStore</text><text fill="#000000" font-family="sans-serif" font-size="14" lengthAdjust="spacing" textLength="77" x="1006.5" y="72.9951">:TestStore</text><rect fill="#FEFECE" filter="url(#f1cj5fskyekzi9)" height="46.5938" style="stroke:#A80036;stroke-width:1.5;" width="91" x="999.5" y="1063.6797"/><text fill="#000000" font-family="sans-serif" font-size="14" lengthAdjust="spacing" textLength="47" x="1021.5" y="1083.6748">tStore</text><text fill="#000000" font-family="sans-serif" font-size="14" lengthAdjust="spacing" textLength="77" x="1006.5" y="1099.9717">:TestStore</text><rect fill="#FEFECE" filter="url(#f1cj5fskyekzi9)" height="30.2969" style="stroke:#A80036;stroke-width:1.5;" width="106" x="1104.5" y="53"/><text fill="#000000" font-family="sans-serif" font-size="14" lengthAdjust="spacing" textLength="92" x="1111.5" y="72.9951">:TestMapper</text><rect fill="#FEFECE" filter="url(#f1cj5fskyekzi9)" height="30.2969" style="stroke:#A80036;stroke-width:1.5;" width="106" x="1104.5" y="1063.6797"/><text fill="#000000" font-family="sans-serif" font-size="14" lengthAdjust="spacing" textLength="92" x="1111.5" y="1083.6748">:TestMapper</text><rect fill="#FEFECE" filter="url(#f1cj5fskyekzi9)" height="46.5938" style="stroke:#A80036;stroke-width:1.5;" width="78" x="1224.5" y="36.7031"/><text fill="#000000" font-family="sans-serif" font-size="14" lengthAdjust="spacing" textLength="57" x="1235" y="56.6982">testDto</text><text fill="#000000" font-family="sans-serif" font-size="14" lengthAdjust="spacing" textLength="64" x="1231.5" y="72.9951">:TestDto</text><rect fill="#FEFECE" filter="url(#f1cj5fskyekzi9)" height="46.5938" style="stroke:#A80036;stroke-width:1.5;" width="78" x="1224.5" y="1063.6797"/><text fill="#000000" font-family="sans-serif" font-size="14" lengthAdjust="spacing" textLength="57" x="1235" y="1083.6748">testDto</text><text fill="#000000" font-family="sans-serif" font-size="14" lengthAdjust="spacing" textLength="64" x="1231.5" y="1099.9717">:TestDto</text><rect fill="#FEFECE" filter="url(#f1cj5fskyekzi9)" height="30.2969" style="stroke:#A80036;stroke-width:1.5;" width="81" x="1316.5" y="53"/><text fill="#000000" font-family="sans-serif" font-size="14" lengthAdjust="spacing" textLength="67" x="1323.5" y="72.9951">test:Test</text><rect fill="#FEFECE" filter="url(#f1cj5fskyekzi9)" height="30.2969" style="stroke:#A80036;stroke-width:1.5;" width="81" x="1316.5" y="1063.6797"/><text fill="#000000" font-family="sans-serif" font-size="14" lengthAdjust="spacing" textLength="67" x="1323.5" y="1083.6748">test:Test</text><rect fill="#FEFECE" filter="url(#f1cj5fskyekzi9)" height="30.2969" style="stroke:#A80036;stroke-width:1.5;" width="195" x="1411.5" y="53"/><text fill="#000000" font-family="sans-serif" font-size="14" lengthAdjust="spacing" textLength="181" x="1418.5" y="72.9951">:ResultParameterMapper</text><rect fill="#FEFECE" filter="url(#f1cj5fskyekzi9)" height="30.2969" style="stroke:#A80036;stroke-width:1.5;" width="195" x="1411.5" y="1063.6797"/><text fill="#000000" font-family="sans-serif" font-size="14" lengthAdjust="spacing" textLength="181" x="1418.5" y="1083.6748">:ResultParameterMapper</text><rect fill="#FEFECE" filter="url(#f1cj5fskyekzi9)" height="46.5938" style="stroke:#A80036;stroke-width:1.5;" width="70" x="1620.5" y="1063.6797"/><text fill="#000000" font-family="sans-serif" font-size="14" lengthAdjust="spacing" textLength="47" x="1632" y="1083.6748">report</text><text fill="#000000" font-family="sans-serif" font-size="14" lengthAdjust="spacing" textLength="56" x="1627.5" y="1099.9717">:Report</text><rect fill="#FFFFFF" filter="url(#f1cj5fskyekzi9)" height="948.3828" style="stroke:#A80036;stroke-width:1.0;" width="10" x="65" y="98.2969"/><rect fill="#FFFFFF" filter="url(#f1cj5fskyekzi9)" height="235.6641" style="stroke:#A80036;stroke-width:1.0;" width="10" x="352" y="119.4297"/><rect fill="#FFFFFF" filter="url(#f1cj5fskyekzi9)" height="353.9297" style="stroke:#A80036;stroke-width:1.0;" width="10" x="352" y="384.2266"/><rect fill="#FFFFFF" filter="url(#f1cj5fskyekzi9)" height="29.1328" style="stroke:#A80036;stroke-width:1.0;" width="10" x="352" y="767.2891"/><rect fill="#FFFFFF" filter="url(#f1cj5fskyekzi9)" height="221.125" style="stroke:#A80036;stroke-width:1.0;" width="10" x="352" y="825.5547"/><rect fill="#FFFFFF" filter="url(#f1cj5fskyekzi9)" height="177.3984" style="stroke:#A80036;stroke-width:1.0;" width="10" x="747" y="148.5625"/><rect fill="#FFFFFF" filter="url(#f1cj5fskyekzi9)" height="324.7969" style="stroke:#A80036;stroke-width:1.0;" width="10" x="747" y="413.3594"/><rect fill="#FFFFFF" filter="url(#f1cj5fskyekzi9)" height="155.8594" style="stroke:#A80036;stroke-width:1.0;" width="10" x="747" y="854.6875"/><rect fill="#FFFFFF" filter="url(#f1cj5fskyekzi9)" height="30" style="stroke:#A80036;stroke-width:1.0;" width="10" x="939" y="177.6953"/><rect fill="#FFFFFF" filter="url(#f1cj5fskyekzi9)" height="30" style="stroke:#A80036;stroke-width:1.0;" width="10" x="939" y="442.4922"/><rect fill="#FFFFFF" filter="url(#f1cj5fskyekzi9)" height="30" style="stroke:#A80036;stroke-width:1.0;" width="10" x="1042" y="236.8281"/><rect fill="#FFFFFF" filter="url(#f1cj5fskyekzi9)" height="30" style="stroke:#A80036;stroke-width:1.0;" width="10" x="1042" y="560.7578"/><rect fill="#FFFFFF" filter="url(#f1cj5fskyekzi9)" height="30" style="stroke:#A80036;stroke-width:1.0;" width="10" x="1154.5" y="295.9609"/><rect fill="#FFFFFF" filter="url(#f1cj5fskyekzi9)" height="30" style="stroke:#A80036;stroke-width:1.0;" width="10" x="1260.5" y="501.625"/><rect fill="#FFFFFF" filter="url(#f1cj5fskyekzi9)" height="30" style="stroke:#A80036;stroke-width:1.0;" width="10" x="1354" y="619.8906"/><rect fill="#FFFFFF" filter="url(#f1cj5fskyekzi9)" height="126.7266" style="stroke:#A80036;stroke-width:1.0;" width="10" x="1354" y="883.8203"/><rect fill="#FFFFFF" filter="url(#f1cj5fskyekzi9)" height="30" style="stroke:#A80036;stroke-width:1.0;" width="10" x="1506" y="679.0234"/><rect fill="#FFFFFF" filter="url(#f1cj5fskyekzi9)" height="87.5938" style="stroke:#A80036;stroke-width:1.0;" width="10" x="1652.5" y="922.9531"/><rect fill="#FFFFFF" filter="url(#f1cj5fskyekzi9)" height="28" style="stroke:#A80036;stroke-width:1.0;" width="10" x="1657.5" y="982.5469"/><polygon fill="#A80036" points="340,115.4297,350,119.4297,340,123.4297,344,119.4297" style="stroke:#A80036;stroke-width:1.0;"/><line style="stroke:#A80036;stroke-width:1.0;" x1="75" x2="346" y1="119.4297" y2="119.4297"/><text fill="#000000" font-family="sans-serif" font-size="13" font-weight="bold" lengthAdjust="spacing" textLength="9" x="82" y="114.3638">1</text><text fill="#000000" font-family="sans-serif" font-size="13" lengthAdjust="spacing" textLength="217" x="95" y="114.3638">starts the realization of the report</text><polygon fill="#A80036" points="735,144.5625,745,148.5625,735,152.5625,739,148.5625" style="stroke:#A80036;stroke-width:1.0;"/><line style="stroke:#A80036;stroke-width:1.0;" x1="362" x2="741" y1="148.5625" y2="148.5625"/><text fill="#000000" font-family="sans-serif" font-size="13" font-weight="bold" lengthAdjust="spacing" textLength="9" x="369" y="143.4966">2</text><text fill="#000000" font-family="sans-serif" font-size="13" lengthAdjust="spacing" textLength="145" x="382" y="143.4966">lTestsDto = getTests()</text><polygon fill="#A80036" points="927,173.6953,937,177.6953,927,181.6953,931,177.6953" style="stroke:#A80036;stroke-width:1.0;"/><line style="stroke:#A80036;stroke-width:1.0;" x1="757" x2="933" y1="177.6953" y2="177.6953"/><text fill="#000000" font-family="sans-serif" font-size="13" font-weight="bold" lengthAdjust="spacing" textLength="8" x="764" y="172.6294">3</text><text fill="#000000" font-family="sans-serif" font-size="13" lengthAdjust="spacing" textLength="150" x="776" y="172.6294">tStore = getTestStore()</text><polygon fill="#A80036" points="1030,232.8281,1040,236.8281,1030,240.8281,1034,236.8281" style="stroke:#A80036;stroke-width:1.0;"/><line style="stroke:#A80036;stroke-width:1.0;" x1="757" x2="1036" y1="236.8281" y2="236.8281"/><text fill="#000000" font-family="sans-serif" font-size="13" font-weight="bold" lengthAdjust="spacing" textLength="9" x="764" y="231.7622">4</text><text fill="#000000" font-family="sans-serif" font-size="13" lengthAdjust="spacing" textLength="213" x="777" y="231.7622">lTests = getTestsToBeReported()</text><polygon fill="#A80036" points="1142.5,291.9609,1152.5,295.9609,1142.5,299.9609,1146.5,295.9609" style="stroke:#A80036;stroke-width:1.0;"/><line style="stroke:#A80036;stroke-width:1.0;" x1="757" x2="1148.5" y1="295.9609" y2="295.9609"/><text fill="#000000" font-family="sans-serif" font-size="13" font-weight="bold" lengthAdjust="spacing" textLength="9" x="764" y="290.895">5</text><text fill="#000000" font-family="sans-serif" font-size="13" lengthAdjust="spacing" textLength="168" x="777" y="290.895">lTestsDto = toDTO(lTests)</text><polygon fill="#A80036" points="86,351.0938,76,355.0938,86,359.0938,82,355.0938" style="stroke:#A80036;stroke-width:1.0;"/><line style="stroke:#A80036;stroke-width:1.0;stroke-dasharray:2.0,2.0;" x1="80" x2="356" y1="355.0938" y2="355.0938"/><text fill="#000000" font-family="sans-serif" font-size="13" font-weight="bold" lengthAdjust="spacing" textLength="9" x="92" y="350.0278">6</text><text fill="#000000" font-family="sans-serif" font-size="13" lengthAdjust="spacing" textLength="135" x="105" y="350.0278">ask to select the test</text><polygon fill="#A80036" points="340,380.2266,350,384.2266,340,388.2266,344,384.2266" style="stroke:#A80036;stroke-width:1.0;"/><line style="stroke:#A80036;stroke-width:1.0;" x1="75" x2="346" y1="384.2266" y2="384.2266"/><text fill="#000000" font-family="sans-serif" font-size="13" font-weight="bold" lengthAdjust="spacing" textLength="9" x="82" y="379.1606">7</text><text fill="#000000" font-family="sans-serif" font-size="13" lengthAdjust="spacing" textLength="159" x="95" y="379.1606">selects the intended test</text><polygon fill="#A80036" points="735,409.3594,745,413.3594,735,417.3594,739,413.3594" style="stroke:#A80036;stroke-width:1.0;"/><line style="stroke:#A80036;stroke-width:1.0;" x1="362" x2="741" y1="413.3594" y2="413.3594"/><text fill="#000000" font-family="sans-serif" font-size="13" font-weight="bold" lengthAdjust="spacing" textLength="9" x="369" y="408.2935">8</text><text fill="#000000" font-family="sans-serif" font-size="13" lengthAdjust="spacing" textLength="353" x="382" y="408.2935">lResultParametersDto = getResultParameters(testDto)</text><polygon fill="#A80036" points="927,438.4922,937,442.4922,927,446.4922,931,442.4922" style="stroke:#A80036;stroke-width:1.0;"/><line style="stroke:#A80036;stroke-width:1.0;" x1="757" x2="933" y1="442.4922" y2="442.4922"/><text fill="#000000" font-family="sans-serif" font-size="13" font-weight="bold" lengthAdjust="spacing" textLength="9" x="764" y="437.4263">9</text><text fill="#000000" font-family="sans-serif" font-size="13" lengthAdjust="spacing" textLength="150" x="777" y="437.4263">tStore = getTestStore()</text><polygon fill="#A80036" points="1248.5,497.625,1258.5,501.625,1248.5,505.625,1252.5,501.625" style="stroke:#A80036;stroke-width:1.0;"/><line style="stroke:#A80036;stroke-width:1.0;" x1="757" x2="1254.5" y1="501.625" y2="501.625"/><text fill="#000000" font-family="sans-serif" font-size="13" font-weight="bold" lengthAdjust="spacing" textLength="19" x="764" y="496.5591">10</text><text fill="#000000" font-family="sans-serif" font-size="13" lengthAdjust="spacing" textLength="113" x="787" y="496.5591">code = getCode()</text><polygon fill="#A80036" points="1030,556.7578,1040,560.7578,1030,564.7578,1034,560.7578" style="stroke:#A80036;stroke-width:1.0;"/><line style="stroke:#A80036;stroke-width:1.0;" x1="757" x2="1036" y1="560.7578" y2="560.7578"/><text fill="#000000" font-family="sans-serif" font-size="13" font-weight="bold" lengthAdjust="spacing" textLength="18" x="764" y="555.6919">11</text><text fill="#000000" font-family="sans-serif" font-size="13" lengthAdjust="spacing" textLength="182" x="786" y="555.6919">test = getTestByCode(code)</text><polygon fill="#A80036" points="1342,615.8906,1352,619.8906,1342,623.8906,1346,619.8906" style="stroke:#A80036;stroke-width:1.0;"/><line style="stroke:#A80036;stroke-width:1.0;" x1="757" x2="1348" y1="619.8906" y2="619.8906"/><text fill="#000000" font-family="sans-serif" font-size="13" font-weight="bold" lengthAdjust="spacing" textLength="18" x="764" y="614.8247">12</text><text fill="#000000" font-family="sans-serif" font-size="13" lengthAdjust="spacing" textLength="282" x="786" y="614.8247">lResultParameters = getResultParameters()</text><polygon fill="#A80036" points="1494,675.0234,1504,679.0234,1494,683.0234,1498,679.0234" style="stroke:#A80036;stroke-width:1.0;"/><line style="stroke:#A80036;stroke-width:1.0;" x1="757" x2="1500" y1="679.0234" y2="679.0234"/><text fill="#000000" font-family="sans-serif" font-size="13" font-weight="bold" lengthAdjust="spacing" textLength="17" x="764" y="673.9575">13</text><text fill="#000000" font-family="sans-serif" font-size="13" lengthAdjust="spacing" textLength="323" x="785" y="673.9575">lResultParametersDto = toDto(lResultParameters)</text><polygon fill="#A80036" points="86,734.1563,76,738.1563,86,742.1563,82,738.1563" style="stroke:#A80036;stroke-width:1.0;"/><line style="stroke:#A80036;stroke-width:1.0;stroke-dasharray:2.0,2.0;" x1="80" x2="356" y1="738.1563" y2="738.1563"/><text fill="#000000" font-family="sans-serif" font-size="13" font-weight="bold" lengthAdjust="spacing" textLength="18" x="92" y="733.0903">14</text><text fill="#000000" font-family="sans-serif" font-size="13" lengthAdjust="spacing" textLength="231" x="114" y="733.0903">shows the list of parameters results</text><polygon fill="#A80036" points="340,763.2891,350,767.2891,340,771.2891,344,767.2891" style="stroke:#A80036;stroke-width:1.0;"/><line style="stroke:#A80036;stroke-width:1.0;" x1="75" x2="346" y1="767.2891" y2="767.2891"/><text fill="#000000" font-family="sans-serif" font-size="13" font-weight="bold" lengthAdjust="spacing" textLength="18" x="82" y="762.2231">15</text><text fill="#000000" font-family="sans-serif" font-size="13" lengthAdjust="spacing" textLength="114" x="104" y="762.2231">confirms the data</text><polygon fill="#A80036" points="86,792.4219,76,796.4219,86,800.4219,82,796.4219" style="stroke:#A80036;stroke-width:1.0;"/><line style="stroke:#A80036;stroke-width:1.0;stroke-dasharray:2.0,2.0;" x1="80" x2="356" y1="796.4219" y2="796.4219"/><text fill="#000000" font-family="sans-serif" font-size="13" font-weight="bold" lengthAdjust="spacing" textLength="18" x="92" y="791.356">16</text><text fill="#000000" font-family="sans-serif" font-size="13" lengthAdjust="spacing" textLength="185" x="114" y="791.356">request data (diagnosisText)</text><polygon fill="#A80036" points="340,821.5547,350,825.5547,340,829.5547,344,825.5547" style="stroke:#A80036;stroke-width:1.0;"/><line style="stroke:#A80036;stroke-width:1.0;" x1="75" x2="346" y1="825.5547" y2="825.5547"/><text fill="#000000" font-family="sans-serif" font-size="13" font-weight="bold" lengthAdjust="spacing" textLength="18" x="82" y="820.4888">17</text><text fill="#000000" font-family="sans-serif" font-size="13" lengthAdjust="spacing" textLength="138" x="104" y="820.4888">types requested data</text><polygon fill="#A80036" points="735,850.6875,745,854.6875,735,858.6875,739,854.6875" style="stroke:#A80036;stroke-width:1.0;"/><line style="stroke:#A80036;stroke-width:1.0;" x1="362" x2="741" y1="854.6875" y2="854.6875"/><text fill="#000000" font-family="sans-serif" font-size="13" font-weight="bold" lengthAdjust="spacing" textLength="18" x="369" y="849.6216">18</text><text fill="#000000" font-family="sans-serif" font-size="13" lengthAdjust="spacing" textLength="183" x="391" y="849.6216">createReport(diagnosisText)</text><polygon fill="#A80036" points="1342,879.8203,1352,883.8203,1342,887.8203,1346,883.8203" style="stroke:#A80036;stroke-width:1.0;"/><line style="stroke:#A80036;stroke-width:1.0;" x1="757" x2="1348" y1="883.8203" y2="883.8203"/><text fill="#000000" font-family="sans-serif" font-size="13" font-weight="bold" lengthAdjust="spacing" textLength="18" x="764" y="878.7544">19</text><text fill="#000000" font-family="sans-serif" font-size="13" lengthAdjust="spacing" textLength="223" x="786" y="878.7544">report = addReport(diagnosisText)</text><polygon fill="#A80036" points="1608.5,908.9531,1618.5,912.9531,1608.5,916.9531,1612.5,912.9531" style="stroke:#A80036;stroke-width:1.0;"/><line style="stroke:#A80036;stroke-width:1.0;" x1="1364" x2="1614.5" y1="912.9531" y2="912.9531"/><text fill="#000000" font-family="sans-serif" font-size="13" font-weight="bold" lengthAdjust="spacing" textLength="19" x="1371" y="907.8872">20</text><text fill="#000000" font-family="sans-serif" font-size="13" lengthAdjust="spacing" textLength="140" x="1394" y="907.8872">create(diagnosisText)</text><rect fill="#FEFECE" filter="url(#f1cj5fskyekzi9)" height="46.5938" style="stroke:#A80036;stroke-width:1.5;" width="70" x="1620.5" y="891.8203"/><text fill="#000000" font-family="sans-serif" font-size="14" lengthAdjust="spacing" textLength="47" x="1632" y="911.8154">report</text><text fill="#000000" font-family="sans-serif" font-size="14" lengthAdjust="spacing" textLength="56" x="1627.5" y="928.1123">:Report</text><line style="stroke:#A80036;stroke-width:1.0;" x1="1667.5" x2="1709.5" y1="974.5469" y2="974.5469"/><line style="stroke:#A80036;stroke-width:1.0;" x1="1709.5" x2="1709.5" y1="974.5469" y2="987.5469"/><line style="stroke:#A80036;stroke-width:1.0;" x1="1668.5" x2="1709.5" y1="987.5469" y2="987.5469"/><polygon fill="#A80036" points="1678.5,983.5469,1668.5,987.5469,1678.5,991.5469,1674.5,987.5469" style="stroke:#A80036;stroke-width:1.0;"/><text fill="#000000" font-family="sans-serif" font-size="13" font-weight="bold" lengthAdjust="spacing" textLength="18" x="1674.5" y="969.481">21</text><text fill="#000000" font-family="sans-serif" font-size="13" lengthAdjust="spacing" textLength="150" x="1696.5" y="969.481">validate(diagnosisText)</text><polygon fill="#A80036" points="81,1042.6797,71,1046.6797,81,1050.6797,77,1046.6797" style="stroke:#A80036;stroke-width:1.0;"/><line style="stroke:#A80036;stroke-width:1.0;stroke-dasharray:2.0,2.0;" x1="75" x2="356" y1="1046.6797" y2="1046.6797"/><text fill="#000000" font-family="sans-serif" font-size="13" font-weight="bold" lengthAdjust="spacing" textLength="18" x="87" y="1041.6138">22</text><text fill="#000000" font-family="sans-serif" font-size="13" lengthAdjust="spacing" textLength="169" x="109" y="1041.6138">informs operation success</text><!--MD5=[f505aff8ab4a5bc33a53bb5b52737941]
@startuml
actor "Specialist Doctor" as SD
participant ":WriteReportUI" as Interface
participant ":WriteReportController" as Controller
participant ":Company" as Company
participant "tStore\n:TestStore" as tStore
participant ":TestMapper" as TestMapper
participant "testDto\n:TestDto" as TestDto
participant "test:Test" as Test
participant ":ResultParameterMapper" as RLmapper
participant "report\n:Report" as Report

autonumber
activate SD
SD -> Interface: starts the realization of the report
activate Interface
Interface -> Controller: lTestsDto = getTests()
activate Controller
Controller -> Company: tStore = getTestStore()
activate Company
deactivate Company
Controller -> tStore: lTests = getTestsToBeReported()
activate tStore
deactivate tStore
Controller -> TestMapper: lTestsDto = toDTO(lTests)
activate TestMapper
deactivate TestMapper
deactivate Controller
Interface - -> SD: ask to select the test
deactivate Interface
SD -> Interface: selects the intended test
activate Interface
Interface -> Controller: lResultParametersDto = getResultParameters(testDto)
activate Controller
Controller -> Company: tStore = getTestStore()
activate Company
deactivate Company
Controller -> TestDto: code = getCode()
activate TestDto
deactivate TestDto
Controller -> tStore: test = getTestByCode(code)
activate tStore
deactivate tStore
Controller -> Test: lResultParameters = getResultParameters()
activate Test
deactivate Test
Controller -> RLmapper: lResultParametersDto = toDto(lResultParameters)
activate RLmapper
deactivate RLmapper
Interface - -> SD: shows the list of parameters results
deactivate Controller
deactivate Interface
SD -> Interface: confirms the data
activate Interface
Interface - -> SD: request data (diagnosisText)
deactivate Interface
SD -> Interface: types requested data
activate Interface
Interface -> Controller: createReport(diagnosisText)
activate Controller
Controller -> Test: report = addReport(diagnosisText)
activate Test
Test -> Report**: create(diagnosisText)
activate Report
Report -> Report: validate(diagnosisText)
activate Report
deactivate Report
deactivate Report
deactivate Test
deactivate Controller
Interface - -> SD: informs operation success
deactivate Interface
deactivate SD
@enduml

PlantUML version 1.2021.7beta4(Unknown compile time)
(GPL source distribution)
Java Runtime: Java(TM) SE Runtime Environment
JVM: Java HotSpot(TM) 64-Bit Server VM
Default Encoding: UTF-8
Language: en
Country: US
--></g></svg>