<?xml version="1.0" encoding="UTF-8" standalone="no"?><svg xmlns="http://www.w3.org/2000/svg" xmlns:xlink="http://www.w3.org/1999/xlink" contentScriptType="application/ecmascript" contentStyleType="text/css" height="320.8px" preserveAspectRatio="none" style="width:509px;height:320px;" version="1.1" viewBox="0 0 509 320" width="509.6px" zoomAndPan="magnify"><defs><filter height="300%" id="f140nwp2smrgw0" width="300%" x="-1" y="-1"><feGaussianBlur result="blurOut" stdDeviation="1.6000000000000003"/><feColorMatrix in="blurOut" result="blurOut2" type="matrix" values="0 0 0 0 0 0 0 0 0 0 0 0 0 0 0 0 0 0 .4 0"/><feOffset dx="3.2000000000000006" dy="3.2000000000000006" in="blurOut2" result="blurOut3"/><feBlend in="SourceGraphic" in2="blurOut3" mode="normal"/></filter></defs><g><!--MD5=[02e4b9b7573f1156f41e60aa5b4e25a4]
class Company--><rect codeLine="6" fill="#FEFECE" filter="url(#f140nwp2smrgw0)" height="43.0688" id="Company" style="stroke:#A80036;stroke-width:1.2000000000000002;" width="68" x="20.4" y="90.6852"/><ellipse cx="32.4" cy="103.4852" fill="#ADD1B2" rx="8.8" ry="8.8" style="stroke:#A80036;stroke-width:0.8000000000000002;"/><path d="M34,100.6852 Q34.1625,100.2852 34.35,100.0852 Q34.5375,99.8852 34.75,99.8852 Q35.125,99.8852 35.3625,100.1102 Q35.6,100.3352 35.6,100.8602 L35.6,102.1102 Q35.6,102.6352 35.375,102.8602 Q35.15,103.0852 34.8,103.0852 Q34.4875,103.0852 34.2875,102.9477 Q34.0875,102.8102 34,102.4477 Q33.9625,102.1977 33.825,102.0602 Q33.575,101.7977 33.125,101.6477 Q32.675,101.4852 32.225,101.4852 Q31.6625,101.4852 31.1875,101.7102 Q30.725,101.9352 30.3625,102.4352 Q30,102.9352 30,103.6227 L30,104.3602 Q30,105.1852 30.675,105.7352 Q31.35,106.2852 32.55,106.2852 Q33.2625,106.2852 33.7625,106.1227 Q34.05,106.0352 34.375,105.7477 Q34.5875,105.5852 34.7,105.5352 Q34.8125,105.4852 34.95,105.4852 Q35.2125,105.4852 35.4,105.6977 Q35.6,105.8977 35.6,106.1852 Q35.6,106.4602 35.325,106.7852 Q34.925,107.2602 34.2875,107.5227 Q33.45,107.8852 32.425,107.8852 Q31.225,107.8852 30.2625,107.4102 Q29.4875,107.0352 28.9375,106.2227 Q28.4,105.4102 28.4,104.4477 L28.4,103.5727 Q28.4,102.5727 28.875,101.6977 Q29.3625,100.8227 30.2,100.3602 Q31.05,99.8852 32,99.8852 Q32.575,99.8852 33.075,100.0852 Q33.575,100.2852 34,100.6852 Z " fill="#000000"/><text fill="#000000" font-family="sans-serif" font-size="9.6" lengthAdjust="spacing" textLength="42.4" x="43.6" y="107.4133">Company</text><line style="stroke:#A80036;stroke-width:1.2000000000000002;" x1="21.2" x2="87.6" y1="116.2852" y2="116.2852"/><text fill="#000000" font-family="sans-serif" font-size="8.8" lengthAdjust="spacing" textLength="47.2" x="25.2" y="128.6203">-designation</text><!--MD5=[df38be88ccee13e832d6fafd6288a4ca]
class Test--><rect codeLine="10" fill="#FEFECE" filter="url(#f140nwp2smrgw0)" height="43.0688" id="Test" style="stroke:#A80036;stroke-width:1.2000000000000002;" width="44.8" x="449.6" y="52.2852"/><ellipse cx="461.6" cy="65.0852" fill="#ADD1B2" rx="8.8" ry="8.8" style="stroke:#A80036;stroke-width:0.8000000000000002;"/><path d="M463.2,62.2852 Q463.3625,61.8852 463.55,61.6852 Q463.7375,61.4852 463.95,61.4852 Q464.325,61.4852 464.5625,61.7102 Q464.8,61.9352 464.8,62.4602 L464.8,63.7102 Q464.8,64.2352 464.575,64.4602 Q464.35,64.6852 464,64.6852 Q463.6875,64.6852 463.4875,64.5477 Q463.2875,64.4102 463.2,64.0477 Q463.1625,63.7977 463.025,63.6602 Q462.775,63.3977 462.325,63.2477 Q461.875,63.0852 461.425,63.0852 Q460.8625,63.0852 460.3875,63.3102 Q459.925,63.5352 459.5625,64.0352 Q459.2,64.5352 459.2,65.2227 L459.2,65.9602 Q459.2,66.7852 459.875,67.3352 Q460.55,67.8852 461.75,67.8852 Q462.4625,67.8852 462.9625,67.7227 Q463.25,67.6352 463.575,67.3477 Q463.7875,67.1852 463.9,67.1352 Q464.0125,67.0852 464.15,67.0852 Q464.4125,67.0852 464.6,67.2977 Q464.8,67.4977 464.8,67.7852 Q464.8,68.0602 464.525,68.3852 Q464.125,68.8602 463.4875,69.1227 Q462.65,69.4852 461.625,69.4852 Q460.425,69.4852 459.4625,69.0102 Q458.6875,68.6352 458.1375,67.8227 Q457.6,67.0102 457.6,66.0477 L457.6,65.1727 Q457.6,64.1727 458.075,63.2977 Q458.5625,62.4227 459.4,61.9602 Q460.25,61.4852 461.2,61.4852 Q461.775,61.4852 462.275,61.6852 Q462.775,61.8852 463.2,62.2852 Z " fill="#000000"/><text fill="#000000" font-family="sans-serif" font-size="9.6" lengthAdjust="spacing" textLength="19.2" x="472.8" y="69.0133">Test</text><line style="stroke:#A80036;stroke-width:1.2000000000000002;" x1="450.4" x2="493.6" y1="77.8852" y2="77.8852"/><text fill="#000000" font-family="sans-serif" font-size="8.8" lengthAdjust="spacing" textLength="26.4" x="454.4" y="90.2203">-report</text><!--MD5=[80e560c845ce9ec3c8b9ef25ef04dbf1]
class ParameterResult--><rect codeLine="14" fill="#FEFECE" filter="url(#f140nwp2smrgw0)" height="54.1375" id="ParameterResult" style="stroke:#A80036;stroke-width:1.2000000000000002;" width="100.8" x="190.4" y="46.6852"/><ellipse cx="202.4" cy="59.4852" fill="#ADD1B2" rx="8.8" ry="8.8" style="stroke:#A80036;stroke-width:0.8000000000000002;"/><path d="M204,56.6852 Q204.1625,56.2852 204.35,56.0852 Q204.5375,55.8852 204.75,55.8852 Q205.125,55.8852 205.3625,56.1102 Q205.6,56.3352 205.6,56.8602 L205.6,58.1102 Q205.6,58.6352 205.375,58.8602 Q205.15,59.0852 204.8,59.0852 Q204.4875,59.0852 204.2875,58.9477 Q204.0875,58.8102 204,58.4477 Q203.9625,58.1977 203.825,58.0602 Q203.575,57.7977 203.125,57.6477 Q202.675,57.4852 202.225,57.4852 Q201.6625,57.4852 201.1875,57.7102 Q200.725,57.9352 200.3625,58.4352 Q200,58.9352 200,59.6227 L200,60.3602 Q200,61.1852 200.675,61.7352 Q201.35,62.2852 202.55,62.2852 Q203.2625,62.2852 203.7625,62.1227 Q204.05,62.0352 204.375,61.7477 Q204.5875,61.5852 204.7,61.5352 Q204.8125,61.4852 204.95,61.4852 Q205.2125,61.4852 205.4,61.6977 Q205.6,61.8977 205.6,62.1852 Q205.6,62.4602 205.325,62.7852 Q204.925,63.2602 204.2875,63.5227 Q203.45,63.8852 202.425,63.8852 Q201.225,63.8852 200.2625,63.4102 Q199.4875,63.0352 198.9375,62.2227 Q198.4,61.4102 198.4,60.4477 L198.4,59.5727 Q198.4,58.5727 198.875,57.6977 Q199.3625,56.8227 200.2,56.3602 Q201.05,55.8852 202,55.8852 Q202.575,55.8852 203.075,56.0852 Q203.575,56.2852 204,56.6852 Z " fill="#000000"/><text fill="#000000" font-family="sans-serif" font-size="9.6" lengthAdjust="spacing" textLength="75.2" x="213.6" y="63.4133">ParameterResult</text><line style="stroke:#A80036;stroke-width:1.2000000000000002;" x1="191.2" x2="290.4" y1="72.2852" y2="72.2852"/><text fill="#000000" font-family="sans-serif" font-size="8.8" lengthAdjust="spacing" textLength="42.4" x="195.2" y="84.6203">-parameter</text><text fill="#000000" font-family="sans-serif" font-size="8.8" lengthAdjust="spacing" textLength="80.8" x="195.2" y="95.6891">-testParameterResult</text><!--MD5=[f00dbe8c0302c6aec2cb26b3c659c8fc]
class Report--><rect codeLine="19" fill="#FEFECE" filter="url(#f140nwp2smrgw0)" height="54.1375" id="Report" style="stroke:#A80036;stroke-width:1.2000000000000002;" width="55.2" x="213.2" y="129.0852"/><ellipse cx="225.2" cy="141.8852" fill="#ADD1B2" rx="8.8" ry="8.8" style="stroke:#A80036;stroke-width:0.8000000000000002;"/><path d="M226.8,139.0852 Q226.9625,138.6852 227.15,138.4852 Q227.3375,138.2852 227.55,138.2852 Q227.925,138.2852 228.1625,138.5102 Q228.4,138.7352 228.4,139.2602 L228.4,140.5102 Q228.4,141.0352 228.175,141.2602 Q227.95,141.4852 227.6,141.4852 Q227.2875,141.4852 227.0875,141.3477 Q226.8875,141.2102 226.8,140.8477 Q226.7625,140.5977 226.625,140.4602 Q226.375,140.1977 225.925,140.0477 Q225.475,139.8852 225.025,139.8852 Q224.4625,139.8852 223.9875,140.1102 Q223.525,140.3352 223.1625,140.8352 Q222.8,141.3352 222.8,142.0227 L222.8,142.7602 Q222.8,143.5852 223.475,144.1352 Q224.15,144.6852 225.35,144.6852 Q226.0625,144.6852 226.5625,144.5227 Q226.85,144.4352 227.175,144.1477 Q227.3875,143.9852 227.5,143.9352 Q227.6125,143.8852 227.75,143.8852 Q228.0125,143.8852 228.2,144.0977 Q228.4,144.2977 228.4,144.5852 Q228.4,144.8602 228.125,145.1852 Q227.725,145.6602 227.0875,145.9227 Q226.25,146.2852 225.225,146.2852 Q224.025,146.2852 223.0625,145.8102 Q222.2875,145.4352 221.7375,144.6227 Q221.2,143.8102 221.2,142.8477 L221.2,141.9727 Q221.2,140.9727 221.675,140.0977 Q222.1625,139.2227 223,138.7602 Q223.85,138.2852 224.8,138.2852 Q225.375,138.2852 225.875,138.4852 Q226.375,138.6852 226.8,139.0852 Z " fill="#000000"/><text fill="#000000" font-family="sans-serif" font-size="9.6" lengthAdjust="spacing" textLength="29.6" x="236.4" y="145.8133">Report</text><line style="stroke:#A80036;stroke-width:1.2000000000000002;" x1="214" x2="267.6" y1="154.6852" y2="154.6852"/><text fill="#000000" font-family="sans-serif" font-size="8.8" lengthAdjust="spacing" textLength="40" x="218" y="167.0203">-diagnosis</text><text fill="#000000" font-family="sans-serif" font-size="8.8" lengthAdjust="spacing" textLength="41.6" x="218" y="178.0891">-createdAt</text><!--MD5=[7d96fd15f3014691d2fcaf89c5791e2a]
class SpecialistDoctor--><rect codeLine="24" fill="#FEFECE" filter="url(#f140nwp2smrgw0)" height="43.0688" id="SpecialistDoctor" style="stroke:#A80036;stroke-width:1.2000000000000002;" width="97.6" x="5.6" y="172.2852"/><ellipse cx="17.6" cy="185.0852" fill="#ADD1B2" rx="8.8" ry="8.8" style="stroke:#A80036;stroke-width:0.8000000000000002;"/><path d="M19.2,182.2852 Q19.3625,181.8852 19.55,181.6852 Q19.7375,181.4852 19.95,181.4852 Q20.325,181.4852 20.5625,181.7102 Q20.8,181.9352 20.8,182.4602 L20.8,183.7102 Q20.8,184.2352 20.575,184.4602 Q20.35,184.6852 20,184.6852 Q19.6875,184.6852 19.4875,184.5477 Q19.2875,184.4102 19.2,184.0477 Q19.1625,183.7977 19.025,183.6602 Q18.775,183.3977 18.325,183.2477 Q17.875,183.0852 17.425,183.0852 Q16.8625,183.0852 16.3875,183.3102 Q15.925,183.5352 15.5625,184.0352 Q15.2,184.5352 15.2,185.2227 L15.2,185.9602 Q15.2,186.7852 15.875,187.3352 Q16.55,187.8852 17.75,187.8852 Q18.4625,187.8852 18.9625,187.7227 Q19.25,187.6352 19.575,187.3477 Q19.7875,187.1852 19.9,187.1352 Q20.0125,187.0852 20.15,187.0852 Q20.4125,187.0852 20.6,187.2977 Q20.8,187.4977 20.8,187.7852 Q20.8,188.0602 20.525,188.3852 Q20.125,188.8602 19.4875,189.1227 Q18.65,189.4852 17.625,189.4852 Q16.425,189.4852 15.4625,189.0102 Q14.6875,188.6352 14.1375,187.8227 Q13.6,187.0102 13.6,186.0477 L13.6,185.1727 Q13.6,184.1727 14.075,183.2977 Q14.5625,182.4227 15.4,181.9602 Q16.25,181.4852 17.2,181.4852 Q17.775,181.4852 18.275,181.6852 Q18.775,181.8852 19.2,182.2852 Z " fill="#000000"/><text fill="#000000" font-family="sans-serif" font-size="9.6" lengthAdjust="spacing" textLength="72" x="28.8" y="189.0133">SpecialistDoctor</text><line style="stroke:#A80036;stroke-width:1.2000000000000002;" x1="6.4" x2="102.4" y1="197.8852" y2="197.8852"/><text fill="#000000" font-family="sans-serif" font-size="8.8" lengthAdjust="spacing" textLength="68" x="10.4" y="210.2203">-docIndexNumber</text><!--MD5=[7421f545a0d8420c5bec41e74b387d9c]
class Employee--><rect codeLine="28" fill="#FEFECE" filter="url(#f140nwp2smrgw0)" height="98.4125" id="Employee" style="stroke:#A80036;stroke-width:1.2000000000000002;" width="69.6" x="206" y="211.8852"/><ellipse cx="218" cy="224.6852" fill="#ADD1B2" rx="8.8" ry="8.8" style="stroke:#A80036;stroke-width:0.8000000000000002;"/><path d="M219.6,221.8852 Q219.7625,221.4852 219.95,221.2852 Q220.1375,221.0852 220.35,221.0852 Q220.725,221.0852 220.9625,221.3102 Q221.2,221.5352 221.2,222.0602 L221.2,223.3102 Q221.2,223.8352 220.975,224.0602 Q220.75,224.2852 220.4,224.2852 Q220.0875,224.2852 219.8875,224.1477 Q219.6875,224.0102 219.6,223.6477 Q219.5625,223.3977 219.425,223.2602 Q219.175,222.9977 218.725,222.8477 Q218.275,222.6852 217.825,222.6852 Q217.2625,222.6852 216.7875,222.9102 Q216.325,223.1352 215.9625,223.6352 Q215.6,224.1352 215.6,224.8227 L215.6,225.5602 Q215.6,226.3852 216.275,226.9352 Q216.95,227.4852 218.15,227.4852 Q218.8625,227.4852 219.3625,227.3227 Q219.65,227.2352 219.975,226.9477 Q220.1875,226.7852 220.3,226.7352 Q220.4125,226.6852 220.55,226.6852 Q220.8125,226.6852 221,226.8977 Q221.2,227.0977 221.2,227.3852 Q221.2,227.6602 220.925,227.9852 Q220.525,228.4602 219.8875,228.7227 Q219.05,229.0852 218.025,229.0852 Q216.825,229.0852 215.8625,228.6102 Q215.0875,228.2352 214.5375,227.4227 Q214,226.6102 214,225.6477 L214,224.7727 Q214,223.7727 214.475,222.8977 Q214.9625,222.0227 215.8,221.5602 Q216.65,221.0852 217.6,221.0852 Q218.175,221.0852 218.675,221.2852 Q219.175,221.4852 219.6,221.8852 Z " fill="#000000"/><text fill="#000000" font-family="sans-serif" font-size="9.6" lengthAdjust="spacing" textLength="44" x="229.2" y="228.6133">Employee</text><line style="stroke:#A80036;stroke-width:1.2000000000000002;" x1="206.8" x2="274.8" y1="237.4852" y2="237.4852"/><text fill="#000000" font-family="sans-serif" font-size="8.8" lengthAdjust="spacing" textLength="47.2" x="210.8" y="249.8203">-employeeID</text><text fill="#000000" font-family="sans-serif" font-size="8.8" lengthAdjust="spacing" textLength="24" x="210.8" y="260.8891">-name</text><text fill="#000000" font-family="sans-serif" font-size="8.8" lengthAdjust="spacing" textLength="35.2" x="210.8" y="271.9578">-address</text><text fill="#000000" font-family="sans-serif" font-size="8.8" lengthAdjust="spacing" textLength="56.8" x="210.8" y="283.0266">-phoneNumber</text><text fill="#000000" font-family="sans-serif" font-size="8.8" lengthAdjust="spacing" textLength="22.4" x="210.8" y="294.0953">-email</text><text fill="#000000" font-family="sans-serif" font-size="8.8" lengthAdjust="spacing" textLength="37.6" x="210.8" y="305.1641">-socCode</text><!--MD5=[3fd616f346a44cd59a91eb10b19e157c]
class User--><rect codeLine="37" fill="#FEFECE" filter="url(#f140nwp2smrgw0)" height="65.2063" id="User" style="stroke:#A80036;stroke-width:1.2000000000000002;" width="52.8" x="445.6" y="228.2852"/><ellipse cx="460.12" cy="241.0852" fill="#ADD1B2" rx="8.8" ry="8.8" style="stroke:#A80036;stroke-width:0.8000000000000002;"/><path d="M461.72,238.2852 Q461.8825,237.8852 462.07,237.6852 Q462.2575,237.4852 462.47,237.4852 Q462.845,237.4852 463.0825,237.7102 Q463.32,237.9352 463.32,238.4602 L463.32,239.7102 Q463.32,240.2352 463.095,240.4602 Q462.87,240.6852 462.52,240.6852 Q462.2075,240.6852 462.0075,240.5477 Q461.8075,240.4102 461.72,240.0477 Q461.6825,239.7977 461.545,239.6602 Q461.295,239.3977 460.845,239.2477 Q460.395,239.0852 459.945,239.0852 Q459.3825,239.0852 458.9075,239.3102 Q458.445,239.5352 458.0825,240.0352 Q457.72,240.5352 457.72,241.2227 L457.72,241.9602 Q457.72,242.7852 458.395,243.3352 Q459.07,243.8852 460.27,243.8852 Q460.9825,243.8852 461.4825,243.7227 Q461.77,243.6352 462.095,243.3477 Q462.3075,243.1852 462.42,243.1352 Q462.5325,243.0852 462.67,243.0852 Q462.9325,243.0852 463.12,243.2977 Q463.32,243.4977 463.32,243.7852 Q463.32,244.0602 463.045,244.3852 Q462.645,244.8602 462.0075,245.1227 Q461.17,245.4852 460.145,245.4852 Q458.945,245.4852 457.9825,245.0102 Q457.2075,244.6352 456.6575,243.8227 Q456.12,243.0102 456.12,242.0477 L456.12,241.1727 Q456.12,240.1727 456.595,239.2977 Q457.0825,238.4227 457.92,237.9602 Q458.77,237.4852 459.72,237.4852 Q460.295,237.4852 460.795,237.6852 Q461.295,237.8852 461.72,238.2852 Z " fill="#000000"/><text fill="#000000" font-family="sans-serif" font-size="9.6" lengthAdjust="spacing" textLength="21.6" x="471.88" y="245.0133">User</text><line style="stroke:#A80036;stroke-width:1.2000000000000002;" x1="446.4" x2="497.6" y1="253.8852" y2="253.8852"/><text fill="#000000" font-family="sans-serif" font-size="8.8" lengthAdjust="spacing" textLength="24" x="450.4" y="266.2203">-name</text><text fill="#000000" font-family="sans-serif" font-size="8.8" lengthAdjust="spacing" textLength="22.4" x="450.4" y="277.2891">-email</text><text fill="#000000" font-family="sans-serif" font-size="8.8" lengthAdjust="spacing" textLength="43.2" x="450.4" y="288.3578">-password</text><!--MD5=[7e4bc624457760b649895ff2ead938fa]
link Company to Test--><path codeLine="43" d="M81.936,90.5332 C107.872,70.9412 149.232,43.5492 190.4,32.2852 C289.912,5.0532 322.384,24.8052 421.6,53.0852 C430.936,55.7492 440.88,59.6772 449.384,63.4132 " fill="none" id="Company-Test" style="stroke:#A80036;stroke-width:0.8000000000000002;"/><polygon fill="#000000" points="222.7891,12.1314,215.3997,10.3192,215.7458,15.0087,222.7891,12.1314" style="stroke:#000000;stroke-width:0.8000000000000002;"/><text fill="#000000" font-family="sans-serif" font-size="10.4" lengthAdjust="spacing" textLength="40" x="226" y="16.6813">performs</text><text fill="#000000" font-family="sans-serif" font-size="10.4" lengthAdjust="spacing" textLength="5.6" x="82.0562" y="82.0668">1</text><text fill="#000000" font-family="sans-serif" font-size="10.4" lengthAdjust="spacing" textLength="4" x="439.0762" y="73.2187">*</text><!--MD5=[63d25d625ab355317a074a623d33bba8]
link Report to Test--><path codeLine="44" d="M268.64,147.6612 C304.032,136.2292 367.88,115.1172 421.6,94.6852 C430.848,91.1652 440.944,86.9972 449.6,83.3172 " fill="none" id="Report-Test" style="stroke:#A80036;stroke-width:0.8000000000000002;"/><polygon fill="#000000" points="322.9688,86.2857,315.3633,86.4947,316.9386,90.9252,322.9688,86.2857" style="stroke:#000000;stroke-width:0.8000000000000002;"/><text fill="#000000" font-family="sans-serif" font-size="10.4" lengthAdjust="spacing" textLength="94.4" x="326.4" y="91.8813">created according to</text><text fill="#000000" font-family="sans-serif" font-size="10.4" lengthAdjust="spacing" textLength="5.6" x="274.9595" y="158.0546">1</text><text fill="#000000" font-family="sans-serif" font-size="10.4" lengthAdjust="spacing" textLength="5.6" x="437.5425" y="98.2231">1</text><!--MD5=[2583600c66c07148b976f1ae06a56d76]
link ParameterResult to Test--><path codeLine="45" d="M291.416,73.8852 C340.616,73.8852 413.544,73.8852 449.52,73.8852 " fill="none" id="ParameterResult-Test" style="stroke:#A80036;stroke-width:0.8000000000000002;"/><polygon fill="#000000" points="332,66.8258,324.7639,64.4746,324.7639,69.1769,332,66.8258" style="stroke:#000000;stroke-width:0.8000000000000002;"/><text fill="#000000" font-family="sans-serif" font-size="10.4" lengthAdjust="spacing" textLength="76.8" x="335.2" y="71.0813">obtained through</text><text fill="#000000" font-family="sans-serif" font-size="10.4" lengthAdjust="spacing" textLength="16" x="297.4608" y="85.3693">1..*</text><text fill="#000000" font-family="sans-serif" font-size="10.4" lengthAdjust="spacing" textLength="5.6" x="437.758" y="86.2915">1</text><!--MD5=[e66f8c4fa516e197a55cf1b13c3927b3]
link SpecialistDoctor to Employee--><path codeLine="46" d="M103.272,211.3652 C130.184,221.1492 163.664,233.3252 190.76,243.1812 " fill="none" id="SpecialistDoctor-to-Employee" style="stroke:#A80036;stroke-width:0.8000000000000002;"/><polygon fill="none" points="192.752,237.9492,205.88,248.6772,188.928,248.4692,192.752,237.9492" style="stroke:#A80036;stroke-width:0.8000000000000002;"/><!--MD5=[09366576ee87d48d594df10cacc83f45]
link Company to Employee--><path codeLine="47" d="M88.592,117.6932 C112.544,123.0212 144.344,133.2452 166.4,152.2852 C183.496,167.0452 178.104,178.1332 190.4,197.0852 C195.144,204.3972 200.496,211.9172 205.888,219.1252 " fill="none" id="Company-Employee" style="stroke:#A80036;stroke-width:0.8000000000000002;"/><polygon fill="#000000" points="139.4256,125.4422,135.4901,118.9306,132.4143,122.4875,139.4256,125.4422" style="stroke:#000000;stroke-width:0.8000000000000002;"/><text fill="#000000" font-family="sans-serif" font-size="10.4" lengthAdjust="spacing" textLength="16.8" x="143.6" y="127.0813">has</text><text fill="#000000" font-family="sans-serif" font-size="10.4" lengthAdjust="spacing" textLength="5.6" x="94.7188" y="130.4791">1</text><text fill="#000000" font-family="sans-serif" font-size="10.4" lengthAdjust="spacing" textLength="16" x="183.5853" y="224.7181">1..*</text><!--MD5=[35c5d5b78cc27fdb07caaeeaa436e174]
link SpecialistDoctor to Report--><path codeLine="48" d="M103.272,184.1012 C138.24,176.9892 184.312,167.6132 213.048,161.7732 " fill="none" id="SpecialistDoctor-Report" style="stroke:#A80036;stroke-width:0.8000000000000002;"/><polygon fill="#000000" points="135.1197,164.4285,127.5602,163.5668,128.4975,168.1747,135.1197,164.4285" style="stroke:#000000;stroke-width:0.8000000000000002;"/><text fill="#000000" font-family="sans-serif" font-size="10.4" lengthAdjust="spacing" textLength="27.2" x="138.4" y="169.4813">writes</text><text fill="#000000" font-family="sans-serif" font-size="10.4" lengthAdjust="spacing" textLength="5.6" x="109.5695" y="194.51">1</text><text fill="#000000" font-family="sans-serif" font-size="10.4" lengthAdjust="spacing" textLength="16" x="190.9031" y="174.6592">1..*</text><!--MD5=[22fb9506fac029fc1d2ae00f0eb8d606]
link Employee to User--><path codeLine="49" d="M275.728,261.0852 C322.072,261.0852 403.888,261.0852 445.432,261.0852 " fill="none" id="Employee-User" style="stroke:#A80036;stroke-width:0.8000000000000002;"/><polygon fill="#000000" points="348.8,254.0258,341.5639,251.6746,341.5639,256.3769,348.8,254.0258" style="stroke:#000000;stroke-width:0.8000000000000002;"/><text fill="#000000" font-family="sans-serif" font-size="10.4" lengthAdjust="spacing" textLength="43.2" x="352" y="258.2813">relates to</text><text fill="#000000" font-family="sans-serif" font-size="10.4" lengthAdjust="spacing" textLength="17.6" x="281.8773" y="272.8001">0..1</text><text fill="#000000" font-family="sans-serif" font-size="10.4" lengthAdjust="spacing" textLength="5.6" x="433.7749" y="273.2709">1</text><!--MD5=[d184cc90160e7eace89bea50d2525d88]
@startuml
hide methods
left to right direction
skinparam classAttributeIconSize 0


class Company {
  -designation
}

class Test {
  -report
}

class ParameterResult {
  -parameter
  -testParameterResult
}

class Report {
  -diagnosis
  -createdAt
}

class SpecialistDoctor {
  -docIndexNumber
}

class Employee {
  -employeeID
  -name
  -address
  -phoneNumber
  -email
  -socCode
}

class User{
  -name
  -email
  -password
}

Company "1" - - "*" Test : performs  >
Report "1" - - "1" Test : created according to >
ParameterResult "1..*" - - "1" Test : obtained through >
SpecialistDoctor - -|> Employee
Company "1" - - "1..*" Employee : has >
SpecialistDoctor "1" - - "1..*" Report : writes >
Employee "0..1" - - "1" User: relates to >

@enduml

PlantUML version 1.2021.5(Sun Apr 25 12:20:28 BST 2021)
(GPL source distribution)
Java Runtime: OpenJDK Runtime Environment
JVM: OpenJDK 64-Bit Server VM
Default Encoding: Cp1252
Language: pt
Country: PT
--></g></svg>