<?xml version="1.0" encoding="UTF-8" standalone="no"?><svg xmlns="http://www.w3.org/2000/svg" xmlns:xlink="http://www.w3.org/1999/xlink" contentScriptType="application/ecmascript" contentStyleType="text/css" height="831px" preserveAspectRatio="none" style="width:540px;height:831px;background:#FFFFFF;" version="1.1" viewBox="0 0 540 831" width="540px" zoomAndPan="magnify"><defs><filter height="300%" id="f7ng1pspxl2oi" width="300%" x="-1" y="-1"><feGaussianBlur result="blurOut" stdDeviation="2.0"/><feColorMatrix in="blurOut" result="blurOut2" type="matrix" values="0 0 0 0 0 0 0 0 0 0 0 0 0 0 0 0 0 0 .4 0"/><feOffset dx="4.0" dy="4.0" in="blurOut2" result="blurOut3"/><feBlend in="SourceGraphic" in2="blurOut3" mode="normal"/></filter></defs><g><!--MD5=[734d827952257e4d95c0647b0b324940]
class RegistClientUI--><rect fill="#FEFECE" filter="url(#f7ng1pspxl2oi)" height="48" id="RegistClientUI" style="stroke:#A80036;stroke-width:1.5;" width="114" x="278.5" y="7"/><ellipse cx="293.5" cy="23" fill="#ADD1B2" rx="11" ry="11" style="stroke:#A80036;stroke-width:1.0;"/><path d="M295.8438,18.6719 C294.9063,18.2344 294.3125,18.0938 293.4375,18.0938 C290.8125,18.0938 288.8125,20.1719 288.8125,22.8906 L288.8125,24.0156 C288.8125,26.5938 290.9219,28.4844 293.8125,28.4844 C295.0313,28.4844 296.1875,28.1875 296.9375,27.6406 C297.5156,27.2344 297.8438,26.7813 297.8438,26.3906 C297.8438,25.9375 297.4531,25.5469 296.9844,25.5469 C296.7656,25.5469 296.5625,25.625 296.375,25.8125 C295.9219,26.2969 295.9219,26.2969 295.7344,26.3906 C295.3125,26.6563 294.625,26.7813 293.8594,26.7813 C291.8125,26.7813 290.5156,25.6875 290.5156,23.9844 L290.5156,22.8906 C290.5156,21.1094 291.7656,19.7969 293.5,19.7969 C294.0781,19.7969 294.6875,19.9531 295.1563,20.2031 C295.6406,20.4844 295.8125,20.7031 295.9063,21.1094 C295.9688,21.5156 296,21.6406 296.1406,21.7656 C296.2813,21.9063 296.5156,22.0156 296.7344,22.0156 C297,22.0156 297.2656,21.875 297.4375,21.6563 C297.5469,21.5 297.5781,21.3125 297.5781,20.8906 L297.5781,19.4688 C297.5781,19.0313 297.5625,18.9063 297.4688,18.75 C297.3125,18.4844 297.0313,18.3438 296.7344,18.3438 C296.4375,18.3438 296.2344,18.4375 296.0156,18.75 L295.8438,18.6719 Z " fill="#000000"/><text fill="#000000" font-family="sans-serif" font-size="12" lengthAdjust="spacing" textLength="82" x="307.5" y="27.1543">RegistClientUI</text><line style="stroke:#A80036;stroke-width:1.5;" x1="279.5" x2="391.5" y1="39" y2="39"/><line style="stroke:#A80036;stroke-width:1.5;" x1="279.5" x2="391.5" y1="47" y2="47"/><!--MD5=[7abb8e50f75027088f76ff381c171a61]
class RegistClientController--><rect fill="#FEFECE" filter="url(#f7ng1pspxl2oi)" height="73.6094" id="RegistClientController" style="stroke:#A80036;stroke-width:1.5;" width="161" x="255" y="116"/><ellipse cx="270" cy="132" fill="#ADD1B2" rx="11" ry="11" style="stroke:#A80036;stroke-width:1.0;"/><path d="M272.3438,127.6719 C271.4063,127.2344 270.8125,127.0938 269.9375,127.0938 C267.3125,127.0938 265.3125,129.1719 265.3125,131.8906 L265.3125,133.0156 C265.3125,135.5938 267.4219,137.4844 270.3125,137.4844 C271.5313,137.4844 272.6875,137.1875 273.4375,136.6406 C274.0156,136.2344 274.3438,135.7813 274.3438,135.3906 C274.3438,134.9375 273.9531,134.5469 273.4844,134.5469 C273.2656,134.5469 273.0625,134.625 272.875,134.8125 C272.4219,135.2969 272.4219,135.2969 272.2344,135.3906 C271.8125,135.6563 271.125,135.7813 270.3594,135.7813 C268.3125,135.7813 267.0156,134.6875 267.0156,132.9844 L267.0156,131.8906 C267.0156,130.1094 268.2656,128.7969 270,128.7969 C270.5781,128.7969 271.1875,128.9531 271.6563,129.2031 C272.1406,129.4844 272.3125,129.7031 272.4063,130.1094 C272.4688,130.5156 272.5,130.6406 272.6406,130.7656 C272.7813,130.9063 273.0156,131.0156 273.2344,131.0156 C273.5,131.0156 273.7656,130.875 273.9375,130.6563 C274.0469,130.5 274.0781,130.3125 274.0781,129.8906 L274.0781,128.4688 C274.0781,128.0313 274.0625,127.9063 273.9688,127.75 C273.8125,127.4844 273.5313,127.3438 273.2344,127.3438 C272.9375,127.3438 272.7344,127.4375 272.5156,127.75 L272.3438,127.6719 Z " fill="#000000"/><text fill="#000000" font-family="sans-serif" font-size="12" lengthAdjust="spacing" textLength="129" x="284" y="136.1543">RegistClientController</text><line style="stroke:#A80036;stroke-width:1.5;" x1="256" x2="415" y1="148" y2="148"/><line style="stroke:#A80036;stroke-width:1.5;" x1="256" x2="415" y1="156" y2="156"/><ellipse cx="266" cy="167" fill="#84BE84" rx="3" ry="3" style="stroke:#038048;stroke-width:1.0;"/><text fill="#000000" font-family="sans-serif" font-size="11" lengthAdjust="spacing" textLength="121" x="275" y="170.2104">createNewClient(dto)</text><ellipse cx="266" cy="179.8047" fill="#84BE84" rx="3" ry="3" style="stroke:#038048;stroke-width:1.0;"/><text fill="#000000" font-family="sans-serif" font-size="11" lengthAdjust="spacing" textLength="94" x="275" y="183.0151">saveNewClient()</text><!--MD5=[02e4b9b7573f1156f41e60aa5b4e25a4]
class Company--><rect fill="#FEFECE" filter="url(#f7ng1pspxl2oi)" height="99.2188" id="Company" style="stroke:#A80036;stroke-width:1.5;" width="154" x="161.5" y="251"/><ellipse cx="206.25" cy="267" fill="#ADD1B2" rx="11" ry="11" style="stroke:#A80036;stroke-width:1.0;"/><path d="M208.5938,262.6719 C207.6563,262.2344 207.0625,262.0938 206.1875,262.0938 C203.5625,262.0938 201.5625,264.1719 201.5625,266.8906 L201.5625,268.0156 C201.5625,270.5938 203.6719,272.4844 206.5625,272.4844 C207.7813,272.4844 208.9375,272.1875 209.6875,271.6406 C210.2656,271.2344 210.5938,270.7813 210.5938,270.3906 C210.5938,269.9375 210.2031,269.5469 209.7344,269.5469 C209.5156,269.5469 209.3125,269.625 209.125,269.8125 C208.6719,270.2969 208.6719,270.2969 208.4844,270.3906 C208.0625,270.6563 207.375,270.7813 206.6094,270.7813 C204.5625,270.7813 203.2656,269.6875 203.2656,267.9844 L203.2656,266.8906 C203.2656,265.1094 204.5156,263.7969 206.25,263.7969 C206.8281,263.7969 207.4375,263.9531 207.9063,264.2031 C208.3906,264.4844 208.5625,264.7031 208.6563,265.1094 C208.7188,265.5156 208.75,265.6406 208.8906,265.7656 C209.0313,265.9063 209.2656,266.0156 209.4844,266.0156 C209.75,266.0156 210.0156,265.875 210.1875,265.6563 C210.2969,265.5 210.3281,265.3125 210.3281,264.8906 L210.3281,263.4688 C210.3281,263.0313 210.3125,262.9063 210.2188,262.75 C210.0625,262.4844 209.7813,262.3438 209.4844,262.3438 C209.1875,262.3438 208.9844,262.4375 208.7656,262.75 L208.5938,262.6719 Z " fill="#000000"/><text fill="#000000" font-family="sans-serif" font-size="12" lengthAdjust="spacing" textLength="56" x="226.75" y="271.1543">Company</text><line style="stroke:#A80036;stroke-width:1.5;" x1="162.5" x2="314.5" y1="283" y2="283"/><line style="stroke:#A80036;stroke-width:1.5;" x1="162.5" x2="314.5" y1="291" y2="291"/><ellipse cx="172.5" cy="302" fill="#84BE84" rx="3" ry="3" style="stroke:#038048;stroke-width:1.0;"/><text fill="#000000" font-family="sans-serif" font-size="11" lengthAdjust="spacing" textLength="121" x="181.5" y="305.2104">createNewClient(tdo)</text><ellipse cx="172.5" cy="314.8047" fill="#84BE84" rx="3" ry="3" style="stroke:#038048;stroke-width:1.0;"/><text fill="#000000" font-family="sans-serif" font-size="11" lengthAdjust="spacing" textLength="110" x="181.5" y="318.0151">saveNewClient(NC)</text><ellipse cx="172.5" cy="327.6094" fill="#84BE84" rx="3" ry="3" style="stroke:#038048;stroke-width:1.0;"/><text fill="#000000" font-family="sans-serif" font-size="11" lengthAdjust="spacing" textLength="128" x="181.5" y="330.8198">validateNewClient(NC)</text><ellipse cx="172.5" cy="340.4141" fill="#84BE84" rx="3" ry="3" style="stroke:#038048;stroke-width:1.0;"/><text fill="#000000" font-family="sans-serif" font-size="11" lengthAdjust="spacing" textLength="103" x="181.5" y="343.6245">addNewClient(NC)</text><!--MD5=[ed6624c6556d5e7b1bd23032162d20b7]
class Client--><rect fill="#FEFECE" filter="url(#f7ng1pspxl2oi)" height="163.2422" id="Client" style="stroke:#A80036;stroke-width:1.5;" width="351" x="7" y="610"/><ellipse cx="161.75" cy="626" fill="#ADD1B2" rx="11" ry="11" style="stroke:#A80036;stroke-width:1.0;"/><path d="M164.0938,621.6719 C163.1563,621.2344 162.5625,621.0938 161.6875,621.0938 C159.0625,621.0938 157.0625,623.1719 157.0625,625.8906 L157.0625,627.0156 C157.0625,629.5938 159.1719,631.4844 162.0625,631.4844 C163.2813,631.4844 164.4375,631.1875 165.1875,630.6406 C165.7656,630.2344 166.0938,629.7813 166.0938,629.3906 C166.0938,628.9375 165.7031,628.5469 165.2344,628.5469 C165.0156,628.5469 164.8125,628.625 164.625,628.8125 C164.1719,629.2969 164.1719,629.2969 163.9844,629.3906 C163.5625,629.6563 162.875,629.7813 162.1094,629.7813 C160.0625,629.7813 158.7656,628.6875 158.7656,626.9844 L158.7656,625.8906 C158.7656,624.1094 160.0156,622.7969 161.75,622.7969 C162.3281,622.7969 162.9375,622.9531 163.4063,623.2031 C163.8906,623.4844 164.0625,623.7031 164.1563,624.1094 C164.2188,624.5156 164.25,624.6406 164.3906,624.7656 C164.5313,624.9063 164.7656,625.0156 164.9844,625.0156 C165.25,625.0156 165.5156,624.875 165.6875,624.6563 C165.7969,624.5 165.8281,624.3125 165.8281,623.8906 L165.8281,622.4688 C165.8281,622.0313 165.8125,621.9063 165.7188,621.75 C165.5625,621.4844 165.2813,621.3438 164.9844,621.3438 C164.6875,621.3438 164.4844,621.4375 164.2656,621.75 L164.0938,621.6719 Z " fill="#000000"/><text fill="#000000" font-family="sans-serif" font-size="12" lengthAdjust="spacing" textLength="33" x="182.25" y="630.1543">Client</text><line style="stroke:#A80036;stroke-width:1.5;" x1="8" x2="357" y1="642" y2="642"/><rect fill="none" height="6" style="stroke:#C82930;stroke-width:1.0;" width="6" x="15" y="650"/><text fill="#000000" font-family="sans-serif" font-size="11" lengthAdjust="spacing" textLength="19" x="27" y="656.2104">ccn</text><rect fill="none" height="6" style="stroke:#C82930;stroke-width:1.0;" width="6" x="15" y="662.8047"/><text fill="#000000" font-family="sans-serif" font-size="11" lengthAdjust="spacing" textLength="20" x="27" y="669.0151">nhs</text><rect fill="none" height="6" style="stroke:#C82930;stroke-width:1.0;" width="6" x="15" y="675.6094"/><text fill="#000000" font-family="sans-serif" font-size="11" lengthAdjust="spacing" textLength="46" x="27" y="681.8198">birtDate</text><rect fill="none" height="6" style="stroke:#C82930;stroke-width:1.0;" width="6" x="15" y="688.4141"/><text fill="#000000" font-family="sans-serif" font-size="11" lengthAdjust="spacing" textLength="21" x="27" y="694.6245">sex</text><rect fill="none" height="6" style="stroke:#C82930;stroke-width:1.0;" width="6" x="15" y="701.2188"/><text fill="#000000" font-family="sans-serif" font-size="11" lengthAdjust="spacing" textLength="11" x="27" y="707.4292">tif</text><rect fill="none" height="6" style="stroke:#C82930;stroke-width:1.0;" width="6" x="15" y="714.0234"/><text fill="#000000" font-family="sans-serif" font-size="11" lengthAdjust="spacing" textLength="32" x="27" y="720.2339">email</text><rect fill="none" height="6" style="stroke:#C82930;stroke-width:1.0;" width="6" x="15" y="726.8281"/><text fill="#000000" font-family="sans-serif" font-size="11" lengthAdjust="spacing" textLength="33" x="27" y="733.0386">name</text><rect fill="none" height="6" style="stroke:#C82930;stroke-width:1.0;" width="6" x="15" y="739.6328"/><text fill="#000000" font-family="sans-serif" font-size="11" lengthAdjust="spacing" textLength="81" x="27" y="745.8433">phoneNumber</text><line style="stroke:#A80036;stroke-width:1.5;" x1="8" x2="357" y1="752.4375" y2="752.4375"/><ellipse cx="18" cy="763.4375" fill="#84BE84" rx="3" ry="3" style="stroke:#038048;stroke-width:1.0;"/><text fill="#000000" font-family="sans-serif" font-size="11" lengthAdjust="spacing" textLength="325" x="27" y="766.6479">Client(ccn,nhs,birtDate,sex,tif,email,name,phoneNumber)</text><!--MD5=[d9af5e34e5bc78cd5a2caff02363fedd]
class ClientMapper--><rect fill="#FEFECE" filter="url(#f7ng1pspxl2oi)" height="60.8047" id="ClientMapper" style="stroke:#A80036;stroke-width:1.5;" width="111" x="295" y="427"/><ellipse cx="310" cy="443" fill="#ADD1B2" rx="11" ry="11" style="stroke:#A80036;stroke-width:1.0;"/><path d="M312.3438,438.6719 C311.4063,438.2344 310.8125,438.0938 309.9375,438.0938 C307.3125,438.0938 305.3125,440.1719 305.3125,442.8906 L305.3125,444.0156 C305.3125,446.5938 307.4219,448.4844 310.3125,448.4844 C311.5313,448.4844 312.6875,448.1875 313.4375,447.6406 C314.0156,447.2344 314.3438,446.7813 314.3438,446.3906 C314.3438,445.9375 313.9531,445.5469 313.4844,445.5469 C313.2656,445.5469 313.0625,445.625 312.875,445.8125 C312.4219,446.2969 312.4219,446.2969 312.2344,446.3906 C311.8125,446.6563 311.125,446.7813 310.3594,446.7813 C308.3125,446.7813 307.0156,445.6875 307.0156,443.9844 L307.0156,442.8906 C307.0156,441.1094 308.2656,439.7969 310,439.7969 C310.5781,439.7969 311.1875,439.9531 311.6563,440.2031 C312.1406,440.4844 312.3125,440.7031 312.4063,441.1094 C312.4688,441.5156 312.5,441.6406 312.6406,441.7656 C312.7813,441.9063 313.0156,442.0156 313.2344,442.0156 C313.5,442.0156 313.7656,441.875 313.9375,441.6563 C314.0469,441.5 314.0781,441.3125 314.0781,440.8906 L314.0781,439.4688 C314.0781,439.0313 314.0625,438.9063 313.9688,438.75 C313.8125,438.4844 313.5313,438.3438 313.2344,438.3438 C312.9375,438.3438 312.7344,438.4375 312.5156,438.75 L312.3438,438.6719 Z " fill="#000000"/><text fill="#000000" font-family="sans-serif" font-size="12" lengthAdjust="spacing" textLength="79" x="324" y="447.1543">ClientMapper</text><line style="stroke:#A80036;stroke-width:1.5;" x1="296" x2="405" y1="459" y2="459"/><line style="stroke:#A80036;stroke-width:1.5;" x1="296" x2="405" y1="467" y2="467"/><ellipse cx="306" cy="478" fill="#84BE84" rx="3" ry="3" style="stroke:#038048;stroke-width:1.0;"/><text fill="#000000" font-family="sans-serif" font-size="11" lengthAdjust="spacing" textLength="53" x="315" y="481.2104">toModel()</text><!--MD5=[d92da6d3e9b1e9631354e1a6db35e891]
class ClientDTO--><rect fill="#FEFECE" filter="url(#f7ng1pspxl2oi)" height="252.875" id="ClientDTO" style="stroke:#A80036;stroke-width:1.5;" width="133" x="393" y="565"/><ellipse cx="426.9" cy="581" fill="#ADD1B2" rx="11" ry="11" style="stroke:#A80036;stroke-width:1.0;"/><path d="M429.2438,576.6719 C428.3063,576.2344 427.7125,576.0938 426.8375,576.0938 C424.2125,576.0938 422.2125,578.1719 422.2125,580.8906 L422.2125,582.0156 C422.2125,584.5938 424.3219,586.4844 427.2125,586.4844 C428.4313,586.4844 429.5875,586.1875 430.3375,585.6406 C430.9156,585.2344 431.2438,584.7813 431.2438,584.3906 C431.2438,583.9375 430.8531,583.5469 430.3844,583.5469 C430.1656,583.5469 429.9625,583.625 429.775,583.8125 C429.3219,584.2969 429.3219,584.2969 429.1344,584.3906 C428.7125,584.6563 428.025,584.7813 427.2594,584.7813 C425.2125,584.7813 423.9156,583.6875 423.9156,581.9844 L423.9156,580.8906 C423.9156,579.1094 425.1656,577.7969 426.9,577.7969 C427.4781,577.7969 428.0875,577.9531 428.5563,578.2031 C429.0406,578.4844 429.2125,578.7031 429.3063,579.1094 C429.3688,579.5156 429.4,579.6406 429.5406,579.7656 C429.6813,579.9063 429.9156,580.0156 430.1344,580.0156 C430.4,580.0156 430.6656,579.875 430.8375,579.6563 C430.9469,579.5 430.9781,579.3125 430.9781,578.8906 L430.9781,577.4688 C430.9781,577.0313 430.9625,576.9063 430.8688,576.75 C430.7125,576.4844 430.4313,576.3438 430.1344,576.3438 C429.8375,576.3438 429.6344,576.4375 429.4156,576.75 L429.2438,576.6719 Z " fill="#000000"/><text fill="#000000" font-family="sans-serif" font-size="12" lengthAdjust="spacing" textLength="59" x="445.1" y="585.1543">ClientDTO</text><line style="stroke:#A80036;stroke-width:1.5;" x1="394" x2="525" y1="597" y2="597"/><rect fill="none" height="6" style="stroke:#C82930;stroke-width:1.0;" width="6" x="401" y="605"/><text fill="#000000" font-family="sans-serif" font-size="11" lengthAdjust="spacing" textLength="19" x="413" y="611.2104">ccn</text><rect fill="none" height="6" style="stroke:#C82930;stroke-width:1.0;" width="6" x="401" y="617.8047"/><text fill="#000000" font-family="sans-serif" font-size="11" lengthAdjust="spacing" textLength="20" x="413" y="624.0151">nhs</text><rect fill="none" height="6" style="stroke:#C82930;stroke-width:1.0;" width="6" x="401" y="630.6094"/><text fill="#000000" font-family="sans-serif" font-size="11" lengthAdjust="spacing" textLength="46" x="413" y="636.8198">birtDate</text><rect fill="none" height="6" style="stroke:#C82930;stroke-width:1.0;" width="6" x="401" y="643.4141"/><text fill="#000000" font-family="sans-serif" font-size="11" lengthAdjust="spacing" textLength="21" x="413" y="649.6245">sex</text><rect fill="none" height="6" style="stroke:#C82930;stroke-width:1.0;" width="6" x="401" y="656.2188"/><text fill="#000000" font-family="sans-serif" font-size="11" lengthAdjust="spacing" textLength="11" x="413" y="662.4292">tif</text><rect fill="none" height="6" style="stroke:#C82930;stroke-width:1.0;" width="6" x="401" y="669.0234"/><text fill="#000000" font-family="sans-serif" font-size="11" lengthAdjust="spacing" textLength="32" x="413" y="675.2339">email</text><rect fill="none" height="6" style="stroke:#C82930;stroke-width:1.0;" width="6" x="401" y="681.8281"/><text fill="#000000" font-family="sans-serif" font-size="11" lengthAdjust="spacing" textLength="33" x="413" y="688.0386">name</text><rect fill="none" height="6" style="stroke:#C82930;stroke-width:1.0;" width="6" x="401" y="694.6328"/><text fill="#000000" font-family="sans-serif" font-size="11" lengthAdjust="spacing" textLength="81" x="413" y="700.8433">phoneNumber</text><line style="stroke:#A80036;stroke-width:1.5;" x1="394" x2="525" y1="707.4375" y2="707.4375"/><ellipse cx="404" cy="718.4375" fill="#84BE84" rx="3" ry="3" style="stroke:#038048;stroke-width:1.0;"/><text fill="#000000" font-family="sans-serif" font-size="11" lengthAdjust="spacing" textLength="51" x="413" y="721.6479">getCCN()</text><ellipse cx="404" cy="731.2422" fill="#84BE84" rx="3" ry="3" style="stroke:#038048;stroke-width:1.0;"/><text fill="#000000" font-family="sans-serif" font-size="11" lengthAdjust="spacing" textLength="51" x="413" y="734.4526">getNHS()</text><ellipse cx="404" cy="744.0469" fill="#84BE84" rx="3" ry="3" style="stroke:#038048;stroke-width:1.0;"/><text fill="#000000" font-family="sans-serif" font-size="11" lengthAdjust="spacing" textLength="81" x="413" y="747.2573">getBirthDate()</text><ellipse cx="404" cy="756.8516" fill="#84BE84" rx="3" ry="3" style="stroke:#038048;stroke-width:1.0;"/><text fill="#000000" font-family="sans-serif" font-size="11" lengthAdjust="spacing" textLength="50" x="413" y="760.062">getSex()</text><ellipse cx="404" cy="769.6563" fill="#84BE84" rx="3" ry="3" style="stroke:#038048;stroke-width:1.0;"/><text fill="#000000" font-family="sans-serif" font-size="11" lengthAdjust="spacing" textLength="43" x="413" y="772.8667">getTIF()</text><ellipse cx="404" cy="782.4609" fill="#84BE84" rx="3" ry="3" style="stroke:#038048;stroke-width:1.0;"/><text fill="#000000" font-family="sans-serif" font-size="11" lengthAdjust="spacing" textLength="58" x="413" y="785.6714">getEmail()</text><ellipse cx="404" cy="795.2656" fill="#84BE84" rx="3" ry="3" style="stroke:#038048;stroke-width:1.0;"/><text fill="#000000" font-family="sans-serif" font-size="11" lengthAdjust="spacing" textLength="61" x="413" y="798.4761">getName()</text><ellipse cx="404" cy="808.0703" fill="#84BE84" rx="3" ry="3" style="stroke:#038048;stroke-width:1.0;"/><text fill="#000000" font-family="sans-serif" font-size="11" lengthAdjust="spacing" textLength="107" x="413" y="811.2808">getPhoneNumber()</text><!--MD5=[55cb992be19579b505cea3c5691093cb]
class ClientStore--><rect fill="#FEFECE" filter="url(#f7ng1pspxl2oi)" height="48" id="ClientStore" style="stroke:#A80036;stroke-width:1.5;" width="98" x="161.5" y="433.5"/><ellipse cx="176.5" cy="449.5" fill="#ADD1B2" rx="11" ry="11" style="stroke:#A80036;stroke-width:1.0;"/><path d="M178.8438,445.1719 C177.9063,444.7344 177.3125,444.5938 176.4375,444.5938 C173.8125,444.5938 171.8125,446.6719 171.8125,449.3906 L171.8125,450.5156 C171.8125,453.0938 173.9219,454.9844 176.8125,454.9844 C178.0313,454.9844 179.1875,454.6875 179.9375,454.1406 C180.5156,453.7344 180.8438,453.2813 180.8438,452.8906 C180.8438,452.4375 180.4531,452.0469 179.9844,452.0469 C179.7656,452.0469 179.5625,452.125 179.375,452.3125 C178.9219,452.7969 178.9219,452.7969 178.7344,452.8906 C178.3125,453.1563 177.625,453.2813 176.8594,453.2813 C174.8125,453.2813 173.5156,452.1875 173.5156,450.4844 L173.5156,449.3906 C173.5156,447.6094 174.7656,446.2969 176.5,446.2969 C177.0781,446.2969 177.6875,446.4531 178.1563,446.7031 C178.6406,446.9844 178.8125,447.2031 178.9063,447.6094 C178.9688,448.0156 179,448.1406 179.1406,448.2656 C179.2813,448.4063 179.5156,448.5156 179.7344,448.5156 C180,448.5156 180.2656,448.375 180.4375,448.1563 C180.5469,448 180.5781,447.8125 180.5781,447.3906 L180.5781,445.9688 C180.5781,445.5313 180.5625,445.4063 180.4688,445.25 C180.3125,444.9844 180.0313,444.8438 179.7344,444.8438 C179.4375,444.8438 179.2344,444.9375 179.0156,445.25 L178.8438,445.1719 Z " fill="#000000"/><text fill="#000000" font-family="sans-serif" font-size="12" lengthAdjust="spacing" textLength="66" x="190.5" y="453.6543">ClientStore</text><line style="stroke:#A80036;stroke-width:1.5;" x1="162.5" x2="258.5" y1="465.5" y2="465.5"/><line style="stroke:#A80036;stroke-width:1.5;" x1="162.5" x2="258.5" y1="473.5" y2="473.5"/><!--MD5=[d22d559d3bed93f327b238e6a51c14ce]
link RegistClientUI to RegistClientController--><path codeLine="1" d="M335.5,55.137 C335.5,70.825 335.5,92.003 335.5,110.555 " fill="none" id="RegistClientUI-to-RegistClientController" style="stroke:#A80036;stroke-width:1.0;stroke-dasharray:7.0,7.0;"/><polygon fill="#A80036" points="335.5,115.711,339.5,106.711,335.5,110.711,331.5,106.711,335.5,115.711" style="stroke:#A80036;stroke-width:1.0;"/><!--MD5=[653b105a31da1ff40987627e589ef784]
link RegistClientController to Company--><path codeLine="2" d="M311.273,190.34 C299.952,207.322 286.254,227.868 273.81,246.535 " fill="none" id="RegistClientController-to-Company" style="stroke:#A80036;stroke-width:1.0;stroke-dasharray:7.0,7.0;"/><polygon fill="#A80036" points="271.01,250.735,279.3313,245.4667,273.7842,246.5752,272.6756,241.028,271.01,250.735" style="stroke:#A80036;stroke-width:1.0;"/><!--MD5=[9f20b539bc3df376f2f48f46336da9d0]
link RegistClientController to Client--><path codeLine="3" d="M254.848,173.141 C213.939,187.373 167.862,211.398 143.5,251 C77.0915,358.952 112.816,510.952 146.393,604.967 " fill="none" id="RegistClientController-to-Client" style="stroke:#A80036;stroke-width:1.0;stroke-dasharray:7.0,7.0;"/><polygon fill="#A80036" points="148.092,609.679,148.8057,599.856,146.3977,604.9748,141.279,602.5668,148.092,609.679" style="stroke:#A80036;stroke-width:1.0;"/><!--MD5=[43b01cfbbe14c8a4cd34011290b2f2e5]
link RegistClientController to ClientMapper--><path codeLine="4" d="M337.294,190.188 C340.201,248.796 345.9,363.733 348.767,421.542 " fill="none" id="RegistClientController-to-ClientMapper" style="stroke:#A80036;stroke-width:1.0;stroke-dasharray:7.0,7.0;"/><polygon fill="#A80036" points="349.018,426.617,352.5655,417.4292,348.7694,421.6232,344.5754,417.827,349.018,426.617" style="stroke:#A80036;stroke-width:1.0;"/><!--MD5=[b45f2b291b93b7266f8953fcd57d1753]
link RegistClientController to ClientDTO--><path codeLine="5" d="M353.178,190.24 C357.506,199.798 361.919,210.186 365.5,220 C398.253,309.754 404.099,333.447 423.5,427 C432.397,469.901 439.644,517.202 445.243,559.746 " fill="none" id="RegistClientController-to-ClientDTO" style="stroke:#A80036;stroke-width:1.0;stroke-dasharray:7.0,7.0;"/><polygon fill="#A80036" points="445.918,564.91,448.7193,555.4679,445.2708,559.9521,440.7866,556.5035,445.918,564.91" style="stroke:#A80036;stroke-width:1.0;"/><!--MD5=[a11230341c8e65219708844feaa40162]
link Company to ClientStore--><path codeLine="10" d="M229.717,350.118 C225.085,375.762 219.563,406.329 215.63,428.104 " fill="none" id="Company-to-ClientStore" style="stroke:#A80036;stroke-width:1.0;"/><polygon fill="#A80036" points="214.716,433.164,220.2538,425.0195,215.6058,428.2438,212.3814,423.5958,214.716,433.164" style="stroke:#A80036;stroke-width:1.0;"/><text fill="#000000" font-family="sans-serif" font-size="13" lengthAdjust="spacing" textLength="32" x="225.5" y="393.0669">have</text><!--MD5=[1d934105a045dbf126514c6917bd5072]
link ClientStore to Client--><path codeLine="12" d="M207.713,481.593 C204.257,510.232 198.169,560.673 192.841,604.815 " fill="none" id="ClientStore-to-Client" style="stroke:#A80036;stroke-width:1.0;"/><polygon fill="#A80036" points="192.229,609.889,197.2779,601.4327,192.8277,604.925,189.3355,600.4748,192.229,609.889" style="stroke:#A80036;stroke-width:1.0;"/><text fill="#000000" font-family="sans-serif" font-size="13" lengthAdjust="spacing" textLength="23" x="204.5" y="531.0669">has</text><!--MD5=[c40e7bfd1ee72f3f025d7ffbefb4f5c7]
link Company to ClientMapper--><path codeLine="14" d="M273.63,350.118 C290.59,373.589 310.531,401.186 325.852,422.389 " fill="none" id="Company-to-ClientMapper" style="stroke:#A80036;stroke-width:1.0;stroke-dasharray:7.0,7.0;"/><polygon fill="#A80036" points="328.852,426.541,326.8252,416.903,325.9245,422.4876,320.3398,421.587,328.852,426.541" style="stroke:#A80036;stroke-width:1.0;"/><!--MD5=[af3939234646809cec66923e43961aa6]
link ClientMapper to ClientDTO--><path codeLine="16" d="M364.527,488.355 C373.414,507.27 385.59,533.186 398.259,560.153 " fill="none" id="ClientMapper-to-ClientDTO" style="stroke:#A80036;stroke-width:1.0;stroke-dasharray:7.0,7.0;"/><polygon fill="#A80036" points="400.463,564.842,400.2573,554.9953,398.3373,560.3164,393.0163,558.3964,400.463,564.842" style="stroke:#A80036;stroke-width:1.0;"/><!--MD5=[7e87959ebe2e461efeab352c4ade48a9]
link ClientMapper to Client--><path codeLine="18" d="M328.881,488.355 C307.504,517.875 273.78,564.446 244.087,605.451 " fill="none" id="ClientMapper-to-Client" style="stroke:#A80036;stroke-width:1.0;stroke-dasharray:7.0,7.0;"/><polygon fill="#A80036" points="240.859,609.91,249.3763,604.9647,243.7907,605.8597,242.8957,600.274,240.859,609.91" style="stroke:#A80036;stroke-width:1.0;"/><!--MD5=[1242ab779be50f881936ea72704b70c6]
@startuml
RegistClientUI ..> RegistClientController
RegistClientController ..>Company
RegistClientController ..>Client
RegistClientController ..>ClientMapper
RegistClientController ..>ClientDTO

RegistClientController : +createNewClient(dto)
RegistClientController : +saveNewClient()

Company - -> ClientStore: have

ClientStore - -> Client: has

Company ..> ClientMapper

ClientMapper ..> ClientDTO

ClientMapper ..> Client

ClientMapper : +toModel()

Company : +createNewClient(tdo)
Company : +saveNewClient(NC)
Company : +validateNewClient(NC)
Company : +addNewClient(NC)

ClientDTO : +getCCN()
ClientDTO : +getNHS()
ClientDTO : +getBirthDate()
ClientDTO : +getSex()
ClientDTO : +getTIF()
ClientDTO : +getEmail()
ClientDTO : +getName()
ClientDTO : +getPhoneNumber()

ClientDTO : -ccn
ClientDTO : -nhs
ClientDTO : -birtDate
ClientDTO : -sex
ClientDTO : -tif
ClientDTO : -email
ClientDTO : -name
ClientDTO : -phoneNumber


Client : +Client(ccn,nhs,birtDate,sex,tif,email,name,phoneNumber)
Client : -ccn
Client : -nhs
Client : -birtDate
Client : -sex
Client : -tif
Client : -email
Client : -name
Client : -phoneNumber
@enduml

PlantUML version 1.2021.6beta6(Unknown compile time)
(GPL source distribution)
Java Runtime: Java(TM) SE Runtime Environment
JVM: Java HotSpot(TM) 64-Bit Server VM
Default Encoding: UTF-8
Language: en
Country: US
--></g></svg>