<?xml version="1.0" encoding="UTF-8" standalone="no"?><svg xmlns="http://www.w3.org/2000/svg" xmlns:xlink="http://www.w3.org/1999/xlink" contentScriptType="application/ecmascript" contentStyleType="text/css" height="812px" preserveAspectRatio="none" style="width:540px;height:812px;" version="1.1" viewBox="0 0 540 812" width="540px" zoomAndPan="magnify"><defs><filter height="300%" id="f13mz4q8uoveaj" width="300%" x="-1" y="-1"><feGaussianBlur result="blurOut" stdDeviation="2.0"/><feColorMatrix in="blurOut" result="blurOut2" type="matrix" values="0 0 0 0 0 0 0 0 0 0 0 0 0 0 0 0 0 0 .4 0"/><feOffset dx="4.0" dy="4.0" in="blurOut2" result="blurOut3"/><feBlend in="SourceGraphic" in2="blurOut3" mode="normal"/></filter></defs><g><!--MD5=[734d827952257e4d95c0647b0b324940]
class RegistClientUI--><rect fill="#FEFECE" filter="url(#f13mz4q8uoveaj)" height="48" id="RegistClientUI" style="stroke:#A80036;stroke-width:1.5;" width="114" x="288.5" y="7"/><ellipse cx="303.5" cy="23" fill="#ADD1B2" rx="11" ry="11" style="stroke:#A80036;stroke-width:1.0;"/><path d="M305.8438,18.6719 C304.9063,18.2344 304.3125,18.0938 303.4375,18.0938 C300.8125,18.0938 298.8125,20.1719 298.8125,22.8906 L298.8125,24.0156 C298.8125,26.5938 300.9219,28.4844 303.8125,28.4844 C305.0313,28.4844 306.1875,28.1875 306.9375,27.6406 C307.5156,27.2344 307.8438,26.7813 307.8438,26.3906 C307.8438,25.9375 307.4531,25.5469 306.9844,25.5469 C306.7656,25.5469 306.5625,25.625 306.375,25.8125 C305.9219,26.2969 305.9219,26.2969 305.7344,26.3906 C305.3125,26.6563 304.625,26.7813 303.8594,26.7813 C301.8125,26.7813 300.5156,25.6875 300.5156,23.9844 L300.5156,22.8906 C300.5156,21.1094 301.7656,19.7969 303.5,19.7969 C304.0781,19.7969 304.6875,19.9531 305.1563,20.2031 C305.6406,20.4844 305.8125,20.7031 305.9063,21.1094 C305.9688,21.5156 306,21.6406 306.1406,21.7656 C306.2813,21.9063 306.5156,22.0156 306.7344,22.0156 C307,22.0156 307.2656,21.875 307.4375,21.6563 C307.5469,21.5 307.5781,21.3125 307.5781,20.8906 L307.5781,19.4688 C307.5781,19.0313 307.5625,18.9063 307.4688,18.75 C307.3125,18.4844 307.0313,18.3438 306.7344,18.3438 C306.4375,18.3438 306.2344,18.4375 306.0156,18.75 L305.8438,18.6719 Z " fill="#000000"/><text fill="#000000" font-family="sans-serif" font-size="12" lengthAdjust="spacing" textLength="82" x="317.5" y="27.1543">RegistClientUI</text><line style="stroke:#A80036;stroke-width:1.5;" x1="289.5" x2="401.5" y1="39" y2="39"/><line style="stroke:#A80036;stroke-width:1.5;" x1="289.5" x2="401.5" y1="47" y2="47"/><!--MD5=[7abb8e50f75027088f76ff381c171a61]
class RegistClientController--><rect fill="#FEFECE" filter="url(#f13mz4q8uoveaj)" height="73.6094" id="RegistClientController" style="stroke:#A80036;stroke-width:1.5;" width="161" x="265" y="116"/><ellipse cx="280" cy="132" fill="#ADD1B2" rx="11" ry="11" style="stroke:#A80036;stroke-width:1.0;"/><path d="M282.3438,127.6719 C281.4063,127.2344 280.8125,127.0938 279.9375,127.0938 C277.3125,127.0938 275.3125,129.1719 275.3125,131.8906 L275.3125,133.0156 C275.3125,135.5938 277.4219,137.4844 280.3125,137.4844 C281.5313,137.4844 282.6875,137.1875 283.4375,136.6406 C284.0156,136.2344 284.3438,135.7813 284.3438,135.3906 C284.3438,134.9375 283.9531,134.5469 283.4844,134.5469 C283.2656,134.5469 283.0625,134.625 282.875,134.8125 C282.4219,135.2969 282.4219,135.2969 282.2344,135.3906 C281.8125,135.6563 281.125,135.7813 280.3594,135.7813 C278.3125,135.7813 277.0156,134.6875 277.0156,132.9844 L277.0156,131.8906 C277.0156,130.1094 278.2656,128.7969 280,128.7969 C280.5781,128.7969 281.1875,128.9531 281.6563,129.2031 C282.1406,129.4844 282.3125,129.7031 282.4063,130.1094 C282.4688,130.5156 282.5,130.6406 282.6406,130.7656 C282.7813,130.9063 283.0156,131.0156 283.2344,131.0156 C283.5,131.0156 283.7656,130.875 283.9375,130.6563 C284.0469,130.5 284.0781,130.3125 284.0781,129.8906 L284.0781,128.4688 C284.0781,128.0313 284.0625,127.9063 283.9688,127.75 C283.8125,127.4844 283.5313,127.3438 283.2344,127.3438 C282.9375,127.3438 282.7344,127.4375 282.5156,127.75 L282.3438,127.6719 Z " fill="#000000"/><text fill="#000000" font-family="sans-serif" font-size="12" lengthAdjust="spacing" textLength="129" x="294" y="136.1543">RegistClientController</text><line style="stroke:#A80036;stroke-width:1.5;" x1="266" x2="425" y1="148" y2="148"/><line style="stroke:#A80036;stroke-width:1.5;" x1="266" x2="425" y1="156" y2="156"/><ellipse cx="276" cy="167" fill="#84BE84" rx="3" ry="3" style="stroke:#038048;stroke-width:1.0;"/><text fill="#000000" font-family="sans-serif" font-size="11" lengthAdjust="spacing" textLength="121" x="285" y="170.2104">createNewClient(dto)</text><ellipse cx="276" cy="179.8047" fill="#84BE84" rx="3" ry="3" style="stroke:#038048;stroke-width:1.0;"/><text fill="#000000" font-family="sans-serif" font-size="11" lengthAdjust="spacing" textLength="94" x="285" y="183.0151">saveNewClient()</text><!--MD5=[02e4b9b7573f1156f41e60aa5b4e25a4]
class Company--><rect fill="#FEFECE" filter="url(#f13mz4q8uoveaj)" height="99.2188" id="Company" style="stroke:#A80036;stroke-width:1.5;" width="154" x="181.5" y="251"/><ellipse cx="226.25" cy="267" fill="#ADD1B2" rx="11" ry="11" style="stroke:#A80036;stroke-width:1.0;"/><path d="M228.5938,262.6719 C227.6563,262.2344 227.0625,262.0938 226.1875,262.0938 C223.5625,262.0938 221.5625,264.1719 221.5625,266.8906 L221.5625,268.0156 C221.5625,270.5938 223.6719,272.4844 226.5625,272.4844 C227.7813,272.4844 228.9375,272.1875 229.6875,271.6406 C230.2656,271.2344 230.5938,270.7813 230.5938,270.3906 C230.5938,269.9375 230.2031,269.5469 229.7344,269.5469 C229.5156,269.5469 229.3125,269.625 229.125,269.8125 C228.6719,270.2969 228.6719,270.2969 228.4844,270.3906 C228.0625,270.6563 227.375,270.7813 226.6094,270.7813 C224.5625,270.7813 223.2656,269.6875 223.2656,267.9844 L223.2656,266.8906 C223.2656,265.1094 224.5156,263.7969 226.25,263.7969 C226.8281,263.7969 227.4375,263.9531 227.9063,264.2031 C228.3906,264.4844 228.5625,264.7031 228.6563,265.1094 C228.7188,265.5156 228.75,265.6406 228.8906,265.7656 C229.0313,265.9063 229.2656,266.0156 229.4844,266.0156 C229.75,266.0156 230.0156,265.875 230.1875,265.6563 C230.2969,265.5 230.3281,265.3125 230.3281,264.8906 L230.3281,263.4688 C230.3281,263.0313 230.3125,262.9063 230.2188,262.75 C230.0625,262.4844 229.7813,262.3438 229.4844,262.3438 C229.1875,262.3438 228.9844,262.4375 228.7656,262.75 L228.5938,262.6719 Z " fill="#000000"/><text fill="#000000" font-family="sans-serif" font-size="12" lengthAdjust="spacing" textLength="56" x="246.75" y="271.1543">Company</text><line style="stroke:#A80036;stroke-width:1.5;" x1="182.5" x2="334.5" y1="283" y2="283"/><line style="stroke:#A80036;stroke-width:1.5;" x1="182.5" x2="334.5" y1="291" y2="291"/><ellipse cx="192.5" cy="302" fill="#84BE84" rx="3" ry="3" style="stroke:#038048;stroke-width:1.0;"/><text fill="#000000" font-family="sans-serif" font-size="11" lengthAdjust="spacing" textLength="121" x="201.5" y="305.2104">createNewClient(tdo)</text><ellipse cx="192.5" cy="314.8047" fill="#84BE84" rx="3" ry="3" style="stroke:#038048;stroke-width:1.0;"/><text fill="#000000" font-family="sans-serif" font-size="11" lengthAdjust="spacing" textLength="110" x="201.5" y="318.0151">saveNewClient(NC)</text><ellipse cx="192.5" cy="327.6094" fill="#84BE84" rx="3" ry="3" style="stroke:#038048;stroke-width:1.0;"/><text fill="#000000" font-family="sans-serif" font-size="11" lengthAdjust="spacing" textLength="128" x="201.5" y="330.8198">validateNewClient(NC)</text><ellipse cx="192.5" cy="340.4141" fill="#84BE84" rx="3" ry="3" style="stroke:#038048;stroke-width:1.0;"/><text fill="#000000" font-family="sans-serif" font-size="11" lengthAdjust="spacing" textLength="103" x="201.5" y="343.6245">addNewClient(NC)</text><!--MD5=[ed6624c6556d5e7b1bd23032162d20b7]
class Client--><rect fill="#FEFECE" filter="url(#f13mz4q8uoveaj)" height="265.6797" id="Client" style="stroke:#A80036;stroke-width:1.5;" width="351" x="7" y="533"/><ellipse cx="161.75" cy="549" fill="#ADD1B2" rx="11" ry="11" style="stroke:#A80036;stroke-width:1.0;"/><path d="M164.0938,544.6719 C163.1563,544.2344 162.5625,544.0938 161.6875,544.0938 C159.0625,544.0938 157.0625,546.1719 157.0625,548.8906 L157.0625,550.0156 C157.0625,552.5938 159.1719,554.4844 162.0625,554.4844 C163.2813,554.4844 164.4375,554.1875 165.1875,553.6406 C165.7656,553.2344 166.0938,552.7813 166.0938,552.3906 C166.0938,551.9375 165.7031,551.5469 165.2344,551.5469 C165.0156,551.5469 164.8125,551.625 164.625,551.8125 C164.1719,552.2969 164.1719,552.2969 163.9844,552.3906 C163.5625,552.6563 162.875,552.7813 162.1094,552.7813 C160.0625,552.7813 158.7656,551.6875 158.7656,549.9844 L158.7656,548.8906 C158.7656,547.1094 160.0156,545.7969 161.75,545.7969 C162.3281,545.7969 162.9375,545.9531 163.4063,546.2031 C163.8906,546.4844 164.0625,546.7031 164.1563,547.1094 C164.2188,547.5156 164.25,547.6406 164.3906,547.7656 C164.5313,547.9063 164.7656,548.0156 164.9844,548.0156 C165.25,548.0156 165.5156,547.875 165.6875,547.6563 C165.7969,547.5 165.8281,547.3125 165.8281,546.8906 L165.8281,545.4688 C165.8281,545.0313 165.8125,544.9063 165.7188,544.75 C165.5625,544.4844 165.2813,544.3438 164.9844,544.3438 C164.6875,544.3438 164.4844,544.4375 164.2656,544.75 L164.0938,544.6719 Z " fill="#000000"/><text fill="#000000" font-family="sans-serif" font-size="12" lengthAdjust="spacing" textLength="33" x="182.25" y="553.1543">Client</text><line style="stroke:#A80036;stroke-width:1.5;" x1="8" x2="357" y1="565" y2="565"/><rect fill="none" height="6" style="stroke:#C82930;stroke-width:1.0;" width="6" x="15" y="573"/><text fill="#000000" font-family="sans-serif" font-size="11" lengthAdjust="spacing" textLength="19" x="27" y="579.2104">ccn</text><rect fill="none" height="6" style="stroke:#C82930;stroke-width:1.0;" width="6" x="15" y="585.8047"/><text fill="#000000" font-family="sans-serif" font-size="11" lengthAdjust="spacing" textLength="20" x="27" y="592.0151">nhs</text><rect fill="none" height="6" style="stroke:#C82930;stroke-width:1.0;" width="6" x="15" y="598.6094"/><text fill="#000000" font-family="sans-serif" font-size="11" lengthAdjust="spacing" textLength="46" x="27" y="604.8198">birtDate</text><rect fill="none" height="6" style="stroke:#C82930;stroke-width:1.0;" width="6" x="15" y="611.4141"/><text fill="#000000" font-family="sans-serif" font-size="11" lengthAdjust="spacing" textLength="21" x="27" y="617.6245">sex</text><rect fill="none" height="6" style="stroke:#C82930;stroke-width:1.0;" width="6" x="15" y="624.2188"/><text fill="#000000" font-family="sans-serif" font-size="11" lengthAdjust="spacing" textLength="11" x="27" y="630.4292">tif</text><rect fill="none" height="6" style="stroke:#C82930;stroke-width:1.0;" width="6" x="15" y="637.0234"/><text fill="#000000" font-family="sans-serif" font-size="11" lengthAdjust="spacing" textLength="32" x="27" y="643.2339">email</text><rect fill="none" height="6" style="stroke:#C82930;stroke-width:1.0;" width="6" x="15" y="649.8281"/><text fill="#000000" font-family="sans-serif" font-size="11" lengthAdjust="spacing" textLength="33" x="27" y="656.0386">name</text><rect fill="none" height="6" style="stroke:#C82930;stroke-width:1.0;" width="6" x="15" y="662.6328"/><text fill="#000000" font-family="sans-serif" font-size="11" lengthAdjust="spacing" textLength="81" x="27" y="668.8433">phoneNumber</text><line style="stroke:#A80036;stroke-width:1.5;" x1="8" x2="357" y1="675.4375" y2="675.4375"/><ellipse cx="18" cy="686.4375" fill="#84BE84" rx="3" ry="3" style="stroke:#038048;stroke-width:1.0;"/><text fill="#000000" font-family="sans-serif" font-size="11" lengthAdjust="spacing" textLength="78" x="27" y="689.6479">validateCCN()</text><ellipse cx="18" cy="699.2422" fill="#84BE84" rx="3" ry="3" style="stroke:#038048;stroke-width:1.0;"/><text fill="#000000" font-family="sans-serif" font-size="11" lengthAdjust="spacing" textLength="78" x="27" y="702.4526">validateNHS()</text><ellipse cx="18" cy="712.0469" fill="#84BE84" rx="3" ry="3" style="stroke:#038048;stroke-width:1.0;"/><text fill="#000000" font-family="sans-serif" font-size="11" lengthAdjust="spacing" textLength="108" x="27" y="715.2573">validateBirthDate()</text><ellipse cx="18" cy="724.8516" fill="#84BE84" rx="3" ry="3" style="stroke:#038048;stroke-width:1.0;"/><text fill="#000000" font-family="sans-serif" font-size="11" lengthAdjust="spacing" textLength="77" x="27" y="728.062">validateSex()</text><ellipse cx="18" cy="737.6563" fill="#84BE84" rx="3" ry="3" style="stroke:#038048;stroke-width:1.0;"/><text fill="#000000" font-family="sans-serif" font-size="11" lengthAdjust="spacing" textLength="70" x="27" y="740.8667">validateTIF()</text><ellipse cx="18" cy="750.4609" fill="#84BE84" rx="3" ry="3" style="stroke:#038048;stroke-width:1.0;"/><text fill="#000000" font-family="sans-serif" font-size="11" lengthAdjust="spacing" textLength="85" x="27" y="753.6714">validateEmail()</text><ellipse cx="18" cy="763.2656" fill="#84BE84" rx="3" ry="3" style="stroke:#038048;stroke-width:1.0;"/><text fill="#000000" font-family="sans-serif" font-size="11" lengthAdjust="spacing" textLength="88" x="27" y="766.4761">validateName()</text><ellipse cx="18" cy="776.0703" fill="#84BE84" rx="3" ry="3" style="stroke:#038048;stroke-width:1.0;"/><text fill="#000000" font-family="sans-serif" font-size="11" lengthAdjust="spacing" textLength="134" x="27" y="779.2808">validatePhoneNumber()</text><ellipse cx="18" cy="788.875" fill="#84BE84" rx="3" ry="3" style="stroke:#038048;stroke-width:1.0;"/><text fill="#000000" font-family="sans-serif" font-size="11" lengthAdjust="spacing" textLength="325" x="27" y="792.0854">Client(ccn,nhs,birtDate,sex,tif,email,name,phoneNumber)</text><!--MD5=[d9af5e34e5bc78cd5a2caff02363fedd]
class ClientMapper--><rect fill="#FEFECE" filter="url(#f13mz4q8uoveaj)" height="60.8047" id="ClientMapper" style="stroke:#A80036;stroke-width:1.5;" width="111" x="287" y="411"/><ellipse cx="302" cy="427" fill="#ADD1B2" rx="11" ry="11" style="stroke:#A80036;stroke-width:1.0;"/><path d="M304.3438,422.6719 C303.4063,422.2344 302.8125,422.0938 301.9375,422.0938 C299.3125,422.0938 297.3125,424.1719 297.3125,426.8906 L297.3125,428.0156 C297.3125,430.5938 299.4219,432.4844 302.3125,432.4844 C303.5313,432.4844 304.6875,432.1875 305.4375,431.6406 C306.0156,431.2344 306.3438,430.7813 306.3438,430.3906 C306.3438,429.9375 305.9531,429.5469 305.4844,429.5469 C305.2656,429.5469 305.0625,429.625 304.875,429.8125 C304.4219,430.2969 304.4219,430.2969 304.2344,430.3906 C303.8125,430.6563 303.125,430.7813 302.3594,430.7813 C300.3125,430.7813 299.0156,429.6875 299.0156,427.9844 L299.0156,426.8906 C299.0156,425.1094 300.2656,423.7969 302,423.7969 C302.5781,423.7969 303.1875,423.9531 303.6563,424.2031 C304.1406,424.4844 304.3125,424.7031 304.4063,425.1094 C304.4688,425.5156 304.5,425.6406 304.6406,425.7656 C304.7813,425.9063 305.0156,426.0156 305.2344,426.0156 C305.5,426.0156 305.7656,425.875 305.9375,425.6563 C306.0469,425.5 306.0781,425.3125 306.0781,424.8906 L306.0781,423.4688 C306.0781,423.0313 306.0625,422.9063 305.9688,422.75 C305.8125,422.4844 305.5313,422.3438 305.2344,422.3438 C304.9375,422.3438 304.7344,422.4375 304.5156,422.75 L304.3438,422.6719 Z " fill="#000000"/><text fill="#000000" font-family="sans-serif" font-size="12" lengthAdjust="spacing" textLength="79" x="316" y="431.1543">ClientMapper</text><line style="stroke:#A80036;stroke-width:1.5;" x1="288" x2="397" y1="443" y2="443"/><line style="stroke:#A80036;stroke-width:1.5;" x1="288" x2="397" y1="451" y2="451"/><ellipse cx="298" cy="462" fill="#84BE84" rx="3" ry="3" style="stroke:#038048;stroke-width:1.0;"/><text fill="#000000" font-family="sans-serif" font-size="11" lengthAdjust="spacing" textLength="53" x="307" y="465.2104">toModel()</text><!--MD5=[d92da6d3e9b1e9631354e1a6db35e891]
class ClientDTO--><rect fill="#FEFECE" filter="url(#f13mz4q8uoveaj)" height="252.875" id="ClientDTO" style="stroke:#A80036;stroke-width:1.5;" width="133" x="393" y="539.5"/><ellipse cx="426.9" cy="555.5" fill="#ADD1B2" rx="11" ry="11" style="stroke:#A80036;stroke-width:1.0;"/><path d="M429.2438,551.1719 C428.3063,550.7344 427.7125,550.5938 426.8375,550.5938 C424.2125,550.5938 422.2125,552.6719 422.2125,555.3906 L422.2125,556.5156 C422.2125,559.0938 424.3219,560.9844 427.2125,560.9844 C428.4313,560.9844 429.5875,560.6875 430.3375,560.1406 C430.9156,559.7344 431.2438,559.2813 431.2438,558.8906 C431.2438,558.4375 430.8531,558.0469 430.3844,558.0469 C430.1656,558.0469 429.9625,558.125 429.775,558.3125 C429.3219,558.7969 429.3219,558.7969 429.1344,558.8906 C428.7125,559.1563 428.025,559.2813 427.2594,559.2813 C425.2125,559.2813 423.9156,558.1875 423.9156,556.4844 L423.9156,555.3906 C423.9156,553.6094 425.1656,552.2969 426.9,552.2969 C427.4781,552.2969 428.0875,552.4531 428.5563,552.7031 C429.0406,552.9844 429.2125,553.2031 429.3063,553.6094 C429.3688,554.0156 429.4,554.1406 429.5406,554.2656 C429.6813,554.4063 429.9156,554.5156 430.1344,554.5156 C430.4,554.5156 430.6656,554.375 430.8375,554.1563 C430.9469,554 430.9781,553.8125 430.9781,553.3906 L430.9781,551.9688 C430.9781,551.5313 430.9625,551.4063 430.8688,551.25 C430.7125,550.9844 430.4313,550.8438 430.1344,550.8438 C429.8375,550.8438 429.6344,550.9375 429.4156,551.25 L429.2438,551.1719 Z " fill="#000000"/><text fill="#000000" font-family="sans-serif" font-size="12" lengthAdjust="spacing" textLength="59" x="445.1" y="559.6543">ClientDTO</text><line style="stroke:#A80036;stroke-width:1.5;" x1="394" x2="525" y1="571.5" y2="571.5"/><rect fill="none" height="6" style="stroke:#C82930;stroke-width:1.0;" width="6" x="401" y="579.5"/><text fill="#000000" font-family="sans-serif" font-size="11" lengthAdjust="spacing" textLength="19" x="413" y="585.7104">ccn</text><rect fill="none" height="6" style="stroke:#C82930;stroke-width:1.0;" width="6" x="401" y="592.3047"/><text fill="#000000" font-family="sans-serif" font-size="11" lengthAdjust="spacing" textLength="20" x="413" y="598.5151">nhs</text><rect fill="none" height="6" style="stroke:#C82930;stroke-width:1.0;" width="6" x="401" y="605.1094"/><text fill="#000000" font-family="sans-serif" font-size="11" lengthAdjust="spacing" textLength="46" x="413" y="611.3198">birtDate</text><rect fill="none" height="6" style="stroke:#C82930;stroke-width:1.0;" width="6" x="401" y="617.9141"/><text fill="#000000" font-family="sans-serif" font-size="11" lengthAdjust="spacing" textLength="21" x="413" y="624.1245">sex</text><rect fill="none" height="6" style="stroke:#C82930;stroke-width:1.0;" width="6" x="401" y="630.7188"/><text fill="#000000" font-family="sans-serif" font-size="11" lengthAdjust="spacing" textLength="11" x="413" y="636.9292">tif</text><rect fill="none" height="6" style="stroke:#C82930;stroke-width:1.0;" width="6" x="401" y="643.5234"/><text fill="#000000" font-family="sans-serif" font-size="11" lengthAdjust="spacing" textLength="32" x="413" y="649.7339">email</text><rect fill="none" height="6" style="stroke:#C82930;stroke-width:1.0;" width="6" x="401" y="656.3281"/><text fill="#000000" font-family="sans-serif" font-size="11" lengthAdjust="spacing" textLength="33" x="413" y="662.5386">name</text><rect fill="none" height="6" style="stroke:#C82930;stroke-width:1.0;" width="6" x="401" y="669.1328"/><text fill="#000000" font-family="sans-serif" font-size="11" lengthAdjust="spacing" textLength="81" x="413" y="675.3433">phoneNumber</text><line style="stroke:#A80036;stroke-width:1.5;" x1="394" x2="525" y1="681.9375" y2="681.9375"/><ellipse cx="404" cy="692.9375" fill="#84BE84" rx="3" ry="3" style="stroke:#038048;stroke-width:1.0;"/><text fill="#000000" font-family="sans-serif" font-size="11" lengthAdjust="spacing" textLength="51" x="413" y="696.1479">getCCN()</text><ellipse cx="404" cy="705.7422" fill="#84BE84" rx="3" ry="3" style="stroke:#038048;stroke-width:1.0;"/><text fill="#000000" font-family="sans-serif" font-size="11" lengthAdjust="spacing" textLength="51" x="413" y="708.9526">getNHS()</text><ellipse cx="404" cy="718.5469" fill="#84BE84" rx="3" ry="3" style="stroke:#038048;stroke-width:1.0;"/><text fill="#000000" font-family="sans-serif" font-size="11" lengthAdjust="spacing" textLength="81" x="413" y="721.7573">getBirthDate()</text><ellipse cx="404" cy="731.3516" fill="#84BE84" rx="3" ry="3" style="stroke:#038048;stroke-width:1.0;"/><text fill="#000000" font-family="sans-serif" font-size="11" lengthAdjust="spacing" textLength="50" x="413" y="734.562">getSex()</text><ellipse cx="404" cy="744.1563" fill="#84BE84" rx="3" ry="3" style="stroke:#038048;stroke-width:1.0;"/><text fill="#000000" font-family="sans-serif" font-size="11" lengthAdjust="spacing" textLength="43" x="413" y="747.3667">getTIF()</text><ellipse cx="404" cy="756.9609" fill="#84BE84" rx="3" ry="3" style="stroke:#038048;stroke-width:1.0;"/><text fill="#000000" font-family="sans-serif" font-size="11" lengthAdjust="spacing" textLength="58" x="413" y="760.1714">getEmail()</text><ellipse cx="404" cy="769.7656" fill="#84BE84" rx="3" ry="3" style="stroke:#038048;stroke-width:1.0;"/><text fill="#000000" font-family="sans-serif" font-size="11" lengthAdjust="spacing" textLength="61" x="413" y="772.9761">getName()</text><ellipse cx="404" cy="782.5703" fill="#84BE84" rx="3" ry="3" style="stroke:#038048;stroke-width:1.0;"/><text fill="#000000" font-family="sans-serif" font-size="11" lengthAdjust="spacing" textLength="107" x="413" y="785.7808">getPhoneNumber()</text><!--MD5=[d22d559d3bed93f327b238e6a51c14ce]
link RegistClientUI to RegistClientController--><path codeLine="1" d="M345.5,55.137 C345.5,70.825 345.5,92.003 345.5,110.555 " fill="none" id="RegistClientUI-to-RegistClientController" style="stroke:#A80036;stroke-width:1.0;stroke-dasharray:7.0,7.0;"/><polygon fill="#A80036" points="345.5,115.711,349.5,106.711,345.5,110.711,341.5,106.711,345.5,115.711" style="stroke:#A80036;stroke-width:1.0;"/><!--MD5=[653b105a31da1ff40987627e589ef784]
link RegistClientController to Company--><path codeLine="2" d="M323.771,190.34 C313.702,207.179 301.538,227.523 290.452,246.064 " fill="none" id="RegistClientController-to-Company" style="stroke:#A80036;stroke-width:1.0;stroke-dasharray:7.0,7.0;"/><polygon fill="#A80036" points="287.658,250.735,295.7095,245.0629,290.2238,246.4435,288.8432,240.9577,287.658,250.735" style="stroke:#A80036;stroke-width:1.0;"/><!--MD5=[9f20b539bc3df376f2f48f46336da9d0]
link RegistClientController to Client--><path codeLine="3" d="M264.701,175.85 C226.983,190.544 185.611,214.16 163.5,251 C114.127,333.262 121.343,442.15 139.592,527.608 " fill="none" id="RegistClientController-to-Client" style="stroke:#A80036;stroke-width:1.0;stroke-dasharray:7.0,7.0;"/><polygon fill="#A80036" points="140.695,532.687,142.6931,523.043,139.6335,527.801,134.8755,524.7414,140.695,532.687" style="stroke:#A80036;stroke-width:1.0;"/><!--MD5=[43b01cfbbe14c8a4cd34011290b2f2e5]
link RegistClientController to ClientMapper--><path codeLine="4" d="M349.211,190.345 C350.886,208.537 352.673,230.909 353.5,251 C355.31,294.963 356.159,306.08 353.5,350 C352.382,368.469 349.991,388.943 347.723,405.739 " fill="none" id="RegistClientController-to-ClientMapper" style="stroke:#A80036;stroke-width:1.0;stroke-dasharray:7.0,7.0;"/><polygon fill="#A80036" points="347.024,410.827,352.211,402.4547,347.7041,405.8735,344.2853,401.3666,347.024,410.827" style="stroke:#A80036;stroke-width:1.0;"/><!--MD5=[b45f2b291b93b7266f8953fcd57d1753]
link RegistClientController to ClientDTO--><path codeLine="5" d="M365.148,190.304 C369.699,199.772 374.176,210.101 377.5,220 C412.04,322.875 433.18,444.298 445.325,534.297 " fill="none" id="RegistClientController-to-ClientDTO" style="stroke:#A80036;stroke-width:1.0;stroke-dasharray:7.0,7.0;"/><polygon fill="#A80036" points="446.004,539.368,448.7728,529.9164,445.3397,534.4123,440.8438,530.9792,446.004,539.368" style="stroke:#A80036;stroke-width:1.0;"/><!--MD5=[6eee883fdf517d3604e8bd0f2058e9aa]
link Company to Client--><path codeLine="10" d="M248.329,350.146 C238.848,395.495 224.25,465.316 211.207,527.695 " fill="none" id="Company-to-Client" style="stroke:#A80036;stroke-width:1.0;"/><polygon fill="#A80036" points="210.111,532.938,215.8698,524.9482,211.1352,528.044,208.0394,523.3095,210.111,532.938" style="stroke:#A80036;stroke-width:1.0;"/><text fill="#000000" font-family="sans-serif" font-size="13" lengthAdjust="spacing" textLength="23" x="236.5" y="446.0669">has</text><!--MD5=[c40e7bfd1ee72f3f025d7ffbefb4f5c7]
link Company to ClientMapper--><path codeLine="12" d="M287.879,350.115 C299.036,368.578 311.504,389.208 321.707,406.092 " fill="none" id="Company-to-ClientMapper" style="stroke:#A80036;stroke-width:1.0;stroke-dasharray:7.0,7.0;"/><polygon fill="#A80036" points="324.522,410.75,323.2904,400.9785,321.9359,406.4708,316.4436,405.1163,324.522,410.75" style="stroke:#A80036;stroke-width:1.0;"/><!--MD5=[af3939234646809cec66923e43961aa6]
link ClientMapper to ClientDTO--><path codeLine="14" d="M358.037,472.046 C366.836,488.781 378.526,511.012 390.836,534.421 " fill="none" id="ClientMapper-to-ClientDTO" style="stroke:#A80036;stroke-width:1.0;stroke-dasharray:7.0,7.0;"/><polygon fill="#A80036" points="393.305,539.117,392.6567,529.2895,390.978,534.6915,385.576,533.0127,393.305,539.117" style="stroke:#A80036;stroke-width:1.0;"/><!--MD5=[7e87959ebe2e461efeab352c4ade48a9]
link ClientMapper to Client--><path codeLine="16" d="M321.253,472.046 C310.256,487.34 295.956,507.225 280.726,528.404 " fill="none" id="ClientMapper-to-Client" style="stroke:#A80036;stroke-width:1.0;stroke-dasharray:7.0,7.0;"/><polygon fill="#A80036" points="277.669,532.656,286.1701,527.683,280.5875,528.5961,279.6744,523.0135,277.669,532.656" style="stroke:#A80036;stroke-width:1.0;"/><!--MD5=[12d9b16cb5557cea0465aa2e3d14b8bb]
@startuml
RegistClientUI ..> RegistClientController
RegistClientController ..>Company
RegistClientController ..>Client
RegistClientController ..>ClientMapper
RegistClientController ..>ClientDTO

RegistClientController : +createNewClient(dto)
RegistClientController : +saveNewClient()

Company - -> Client: has

Company ..> ClientMapper

ClientMapper ..> ClientDTO

ClientMapper ..> Client

ClientMapper : +toModel()

Company : +createNewClient(tdo)
Company : +saveNewClient(NC)
Company : +validateNewClient(NC)
Company : +addNewClient(NC)

ClientDTO : +getCCN()
ClientDTO : +getNHS()
ClientDTO : +getBirthDate()
ClientDTO : +getSex()
ClientDTO : +getTIF()
ClientDTO : +getEmail()
ClientDTO : +getName()
ClientDTO : +getPhoneNumber()

ClientDTO : -ccn
ClientDTO : -nhs
ClientDTO : -birtDate
ClientDTO : -sex
ClientDTO : -tif
ClientDTO : -email
ClientDTO : -name
ClientDTO : -phoneNumber

Client : +validateCCN()
Client : +validateNHS()
Client : +validateBirthDate()
Client : +validateSex()
Client : +validateTIF()
Client : +validateEmail()
Client : +validateName()
Client : +validatePhoneNumber()

Client : +Client(ccn,nhs,birtDate,sex,tif,email,name,phoneNumber)
Client : -ccn
Client : -nhs
Client : -birtDate
Client : -sex
Client : -tif
Client : -email
Client : -name
Client : -phoneNumber
@enduml

PlantUML version 1.2021.6beta4(Unknown compile time)
(GPL source distribution)
Java Runtime: Java(TM) SE Runtime Environment
JVM: Java HotSpot(TM) 64-Bit Server VM
Default Encoding: UTF-8
Language: en
Country: US
--></g></svg>