<?xml version="1.0" encoding="UTF-8" standalone="no"?><svg xmlns="http://www.w3.org/2000/svg" xmlns:xlink="http://www.w3.org/1999/xlink" contentScriptType="application/ecmascript" contentStyleType="text/css" height="1827px" preserveAspectRatio="none" style="width:1912px;height:1827px;" version="1.1" viewBox="0 0 1912 1827" width="1912px" zoomAndPan="magnify"><defs><filter height="300%" id="fnvvlas29v1fm" width="300%" x="-1" y="-1"><feGaussianBlur result="blurOut" stdDeviation="2.0"/><feColorMatrix in="blurOut" result="blurOut2" type="matrix" values="0 0 0 0 0 0 0 0 0 0 0 0 0 0 0 0 0 0 .4 0"/><feOffset dx="4.0" dy="4.0" in="blurOut2" result="blurOut3"/><feBlend in="SourceGraphic" in2="blurOut3" mode="normal"/></filter></defs><g><rect fill="#FFFFFF" filter="url(#fnvvlas29v1fm)" height="1626.4141" style="stroke:#A80036;stroke-width:1.0;" width="10" x="49.5" y="98.2969"/><rect fill="#FFFFFF" filter="url(#fnvvlas29v1fm)" height="44.2656" style="stroke:#A80036;stroke-width:1.0;" width="10" x="664.5" y="119.4297"/><rect fill="#FFFFFF" filter="url(#fnvvlas29v1fm)" height="1211.9531" style="stroke:#A80036;stroke-width:1.0;" width="10" x="664.5" y="192.8281"/><rect fill="#FFFFFF" filter="url(#fnvvlas29v1fm)" height="290.7969" style="stroke:#A80036;stroke-width:1.0;" width="10" x="664.5" y="1433.9141"/><rect fill="#FFFFFF" filter="url(#fnvvlas29v1fm)" height="1146.6875" style="stroke:#A80036;stroke-width:1.0;" width="10" x="842.5" y="221.9609"/><rect fill="#FFFFFF" filter="url(#fnvvlas29v1fm)" height="232.5313" style="stroke:#A80036;stroke-width:1.0;" width="10" x="842.5" y="1463.0469"/><rect fill="#FFFFFF" filter="url(#fnvvlas29v1fm)" height="1117.5547" style="stroke:#A80036;stroke-width:1.0;" width="10" x="1045.5" y="251.0938"/><rect fill="#FFFFFF" filter="url(#fnvvlas29v1fm)" height="203.3984" style="stroke:#A80036;stroke-width:1.0;" width="10" x="1045.5" y="1492.1797"/><rect fill="#FFFFFF" filter="url(#fnvvlas29v1fm)" height="28" style="stroke:#A80036;stroke-width:1.0;" width="10" x="1050.5" y="1529.3125"/><rect fill="#FFFFFF" filter="url(#fnvvlas29v1fm)" height="28" style="stroke:#A80036;stroke-width:1.0;" width="10" x="1050.5" y="1601.4453"/><rect fill="#FFFFFF" filter="url(#fnvvlas29v1fm)" height="1088.4219" style="stroke:#A80036;stroke-width:1.0;" width="10" x="1234.5" y="280.2266"/><rect fill="#FFFFFF" filter="url(#fnvvlas29v1fm)" height="30" style="stroke:#A80036;stroke-width:1.0;" width="10" x="1508.5" y="309.3594"/><rect fill="#FFFFFF" filter="url(#fnvvlas29v1fm)" height="30" style="stroke:#A80036;stroke-width:1.0;" width="10" x="1508.5" y="368.4922"/><rect fill="#FFFFFF" filter="url(#fnvvlas29v1fm)" height="30" style="stroke:#A80036;stroke-width:1.0;" width="10" x="1508.5" y="427.625"/><rect fill="#FFFFFF" filter="url(#fnvvlas29v1fm)" height="30" style="stroke:#A80036;stroke-width:1.0;" width="10" x="1508.5" y="486.7578"/><rect fill="#FFFFFF" filter="url(#fnvvlas29v1fm)" height="30" style="stroke:#A80036;stroke-width:1.0;" width="10" x="1508.5" y="545.8906"/><rect fill="#FFFFFF" filter="url(#fnvvlas29v1fm)" height="30" style="stroke:#A80036;stroke-width:1.0;" width="10" x="1508.5" y="605.0234"/><rect fill="#FFFFFF" filter="url(#fnvvlas29v1fm)" height="30" style="stroke:#A80036;stroke-width:1.0;" width="10" x="1508.5" y="664.1563"/><rect fill="#FFFFFF" filter="url(#fnvvlas29v1fm)" height="30" style="stroke:#A80036;stroke-width:1.0;" width="10" x="1508.5" y="723.2891"/><rect fill="#FFFFFF" filter="url(#fnvvlas29v1fm)" height="28" style="stroke:#A80036;stroke-width:1.0;" width="10" x="1623" y="835.7188"/><rect fill="#FFFFFF" filter="url(#fnvvlas29v1fm)" height="28" style="stroke:#A80036;stroke-width:1.0;" width="10" x="1623" y="907.8516"/><rect fill="#FFFFFF" filter="url(#fnvvlas29v1fm)" height="28" style="stroke:#A80036;stroke-width:1.0;" width="10" x="1623" y="979.9844"/><rect fill="#FFFFFF" filter="url(#fnvvlas29v1fm)" height="28" style="stroke:#A80036;stroke-width:1.0;" width="10" x="1623" y="1052.1172"/><rect fill="#FFFFFF" filter="url(#fnvvlas29v1fm)" height="28" style="stroke:#A80036;stroke-width:1.0;" width="10" x="1623" y="1124.25"/><rect fill="#FFFFFF" filter="url(#fnvvlas29v1fm)" height="28" style="stroke:#A80036;stroke-width:1.0;" width="10" x="1623" y="1196.3828"/><rect fill="#FFFFFF" filter="url(#fnvvlas29v1fm)" height="28" style="stroke:#A80036;stroke-width:1.0;" width="10" x="1623" y="1268.5156"/><rect fill="#FFFFFF" filter="url(#fnvvlas29v1fm)" height="28" style="stroke:#A80036;stroke-width:1.0;" width="10" x="1623" y="1340.6484"/><rect fill="#FFFFFF" filter="url(#fnvvlas29v1fm)" height="30" style="stroke:#A80036;stroke-width:1.0;" width="10" x="1623" y="1665.5781"/><line style="stroke:#A80036;stroke-width:1.0;stroke-dasharray:5.0,5.0;" x1="54" x2="54" y1="88.2969" y2="1742.7109"/><line style="stroke:#A80036;stroke-width:1.0;stroke-dasharray:5.0,5.0;" x1="669" x2="669" y1="88.2969" y2="1742.7109"/><line style="stroke:#A80036;stroke-width:1.0;stroke-dasharray:5.0,5.0;" x1="847" x2="847" y1="88.2969" y2="1742.7109"/><line style="stroke:#A80036;stroke-width:1.0;stroke-dasharray:5.0,5.0;" x1="1050" x2="1050" y1="88.2969" y2="1742.7109"/><line style="stroke:#A80036;stroke-width:1.0;stroke-dasharray:5.0,5.0;" x1="1239" x2="1239" y1="88.2969" y2="1742.7109"/><line style="stroke:#A80036;stroke-width:1.0;stroke-dasharray:5.0,5.0;" x1="1513.5" x2="1513.5" y1="88.2969" y2="1742.7109"/><line style="stroke:#A80036;stroke-width:1.0;stroke-dasharray:5.0,5.0;" x1="1627.5" x2="1627.5" y1="793.9375" y2="1742.7109"/><text fill="#000000" font-family="sans-serif" font-size="14" lengthAdjust="spacing" textLength="93" x="5" y="84.9951">Receptionist</text><ellipse cx="54.5" cy="15" fill="#FEFECE" filter="url(#fnvvlas29v1fm)" rx="8" ry="8" style="stroke:#A80036;stroke-width:2.0;"/><path d="M54.5,23 L54.5,50 M41.5,31 L67.5,31 M54.5,50 L41.5,65 M54.5,50 L67.5,65 " fill="none" filter="url(#fnvvlas29v1fm)" style="stroke:#A80036;stroke-width:2.0;"/><text fill="#000000" font-family="sans-serif" font-size="14" lengthAdjust="spacing" textLength="93" x="5" y="1754.7061">Receptionist</text><ellipse cx="54.5" cy="1768.0078" fill="#FEFECE" filter="url(#fnvvlas29v1fm)" rx="8" ry="8" style="stroke:#A80036;stroke-width:2.0;"/><path d="M54.5,1776.0078 L54.5,1803.0078 M41.5,1784.0078 L67.5,1784.0078 M54.5,1803.0078 L41.5,1818.0078 M54.5,1803.0078 L67.5,1818.0078 " fill="none" filter="url(#fnvvlas29v1fm)" style="stroke:#A80036;stroke-width:2.0;"/><rect fill="#FEFECE" filter="url(#fnvvlas29v1fm)" height="30.2969" style="stroke:#A80036;stroke-width:1.5;" width="125" x="605" y="53"/><text fill="#000000" font-family="sans-serif" font-size="14" lengthAdjust="spacing" textLength="111" x="612" y="72.9951">:RegistClient UI</text><rect fill="#FEFECE" filter="url(#fnvvlas29v1fm)" height="30.2969" style="stroke:#A80036;stroke-width:1.5;" width="125" x="605" y="1741.7109"/><text fill="#000000" font-family="sans-serif" font-size="14" lengthAdjust="spacing" textLength="111" x="612" y="1761.7061">:RegistClient UI</text><rect fill="#FEFECE" filter="url(#fnvvlas29v1fm)" height="30.2969" style="stroke:#A80036;stroke-width:1.5;" width="187" x="752" y="53"/><text fill="#000000" font-family="sans-serif" font-size="14" lengthAdjust="spacing" textLength="173" x="759" y="72.9951">:RegistClientCrontroller</text><rect fill="#FEFECE" filter="url(#fnvvlas29v1fm)" height="30.2969" style="stroke:#A80036;stroke-width:1.5;" width="187" x="752" y="1741.7109"/><text fill="#000000" font-family="sans-serif" font-size="14" lengthAdjust="spacing" textLength="173" x="759" y="1761.7061">:RegistClientCrontroller</text><rect fill="#FEFECE" filter="url(#fnvvlas29v1fm)" height="30.2969" style="stroke:#A80036;stroke-width:1.5;" width="87" x="1005" y="53"/><text fill="#000000" font-family="sans-serif" font-size="14" lengthAdjust="spacing" textLength="73" x="1012" y="72.9951">:Company</text><rect fill="#FEFECE" filter="url(#fnvvlas29v1fm)" height="30.2969" style="stroke:#A80036;stroke-width:1.5;" width="87" x="1005" y="1741.7109"/><text fill="#000000" font-family="sans-serif" font-size="14" lengthAdjust="spacing" textLength="73" x="1012" y="1761.7061">:Company</text><rect fill="#FEFECE" filter="url(#fnvvlas29v1fm)" height="30.2969" style="stroke:#A80036;stroke-width:1.5;" width="117" x="1179" y="53"/><text fill="#000000" font-family="sans-serif" font-size="14" lengthAdjust="spacing" textLength="103" x="1186" y="72.9951">:ClientMapper</text><rect fill="#FEFECE" filter="url(#fnvvlas29v1fm)" height="30.2969" style="stroke:#A80036;stroke-width:1.5;" width="117" x="1179" y="1741.7109"/><text fill="#000000" font-family="sans-serif" font-size="14" lengthAdjust="spacing" textLength="103" x="1186" y="1761.7061">:ClientMapper</text><rect fill="#FEFECE" filter="url(#fnvvlas29v1fm)" height="30.2969" style="stroke:#A80036;stroke-width:1.5;" width="118" x="1452.5" y="53"/><text fill="#000000" font-family="sans-serif" font-size="14" lengthAdjust="spacing" textLength="104" x="1459.5" y="72.9951">dto:ClientDTO</text><rect fill="#FEFECE" filter="url(#fnvvlas29v1fm)" height="30.2969" style="stroke:#A80036;stroke-width:1.5;" width="118" x="1452.5" y="1741.7109"/><text fill="#000000" font-family="sans-serif" font-size="14" lengthAdjust="spacing" textLength="104" x="1459.5" y="1761.7061">dto:ClientDTO</text><rect fill="#FEFECE" filter="url(#fnvvlas29v1fm)" height="30.2969" style="stroke:#A80036;stroke-width:1.5;" width="83" x="1584.5" y="1741.7109"/><text fill="#000000" font-family="sans-serif" font-size="14" lengthAdjust="spacing" textLength="69" x="1591.5" y="1761.7061">nc: Client</text><rect fill="#FFFFFF" filter="url(#fnvvlas29v1fm)" height="1626.4141" style="stroke:#A80036;stroke-width:1.0;" width="10" x="49.5" y="98.2969"/><rect fill="#FFFFFF" filter="url(#fnvvlas29v1fm)" height="44.2656" style="stroke:#A80036;stroke-width:1.0;" width="10" x="664.5" y="119.4297"/><rect fill="#FFFFFF" filter="url(#fnvvlas29v1fm)" height="1211.9531" style="stroke:#A80036;stroke-width:1.0;" width="10" x="664.5" y="192.8281"/><rect fill="#FFFFFF" filter="url(#fnvvlas29v1fm)" height="290.7969" style="stroke:#A80036;stroke-width:1.0;" width="10" x="664.5" y="1433.9141"/><rect fill="#FFFFFF" filter="url(#fnvvlas29v1fm)" height="1146.6875" style="stroke:#A80036;stroke-width:1.0;" width="10" x="842.5" y="221.9609"/><rect fill="#FFFFFF" filter="url(#fnvvlas29v1fm)" height="232.5313" style="stroke:#A80036;stroke-width:1.0;" width="10" x="842.5" y="1463.0469"/><rect fill="#FFFFFF" filter="url(#fnvvlas29v1fm)" height="1117.5547" style="stroke:#A80036;stroke-width:1.0;" width="10" x="1045.5" y="251.0938"/><rect fill="#FFFFFF" filter="url(#fnvvlas29v1fm)" height="203.3984" style="stroke:#A80036;stroke-width:1.0;" width="10" x="1045.5" y="1492.1797"/><rect fill="#FFFFFF" filter="url(#fnvvlas29v1fm)" height="28" style="stroke:#A80036;stroke-width:1.0;" width="10" x="1050.5" y="1529.3125"/><rect fill="#FFFFFF" filter="url(#fnvvlas29v1fm)" height="28" style="stroke:#A80036;stroke-width:1.0;" width="10" x="1050.5" y="1601.4453"/><rect fill="#FFFFFF" filter="url(#fnvvlas29v1fm)" height="1088.4219" style="stroke:#A80036;stroke-width:1.0;" width="10" x="1234.5" y="280.2266"/><rect fill="#FFFFFF" filter="url(#fnvvlas29v1fm)" height="30" style="stroke:#A80036;stroke-width:1.0;" width="10" x="1508.5" y="309.3594"/><rect fill="#FFFFFF" filter="url(#fnvvlas29v1fm)" height="30" style="stroke:#A80036;stroke-width:1.0;" width="10" x="1508.5" y="368.4922"/><rect fill="#FFFFFF" filter="url(#fnvvlas29v1fm)" height="30" style="stroke:#A80036;stroke-width:1.0;" width="10" x="1508.5" y="427.625"/><rect fill="#FFFFFF" filter="url(#fnvvlas29v1fm)" height="30" style="stroke:#A80036;stroke-width:1.0;" width="10" x="1508.5" y="486.7578"/><rect fill="#FFFFFF" filter="url(#fnvvlas29v1fm)" height="30" style="stroke:#A80036;stroke-width:1.0;" width="10" x="1508.5" y="545.8906"/><rect fill="#FFFFFF" filter="url(#fnvvlas29v1fm)" height="30" style="stroke:#A80036;stroke-width:1.0;" width="10" x="1508.5" y="605.0234"/><rect fill="#FFFFFF" filter="url(#fnvvlas29v1fm)" height="30" style="stroke:#A80036;stroke-width:1.0;" width="10" x="1508.5" y="664.1563"/><rect fill="#FFFFFF" filter="url(#fnvvlas29v1fm)" height="30" style="stroke:#A80036;stroke-width:1.0;" width="10" x="1508.5" y="723.2891"/><rect fill="#FFFFFF" filter="url(#fnvvlas29v1fm)" height="28" style="stroke:#A80036;stroke-width:1.0;" width="10" x="1623" y="835.7188"/><rect fill="#FFFFFF" filter="url(#fnvvlas29v1fm)" height="28" style="stroke:#A80036;stroke-width:1.0;" width="10" x="1623" y="907.8516"/><rect fill="#FFFFFF" filter="url(#fnvvlas29v1fm)" height="28" style="stroke:#A80036;stroke-width:1.0;" width="10" x="1623" y="979.9844"/><rect fill="#FFFFFF" filter="url(#fnvvlas29v1fm)" height="28" style="stroke:#A80036;stroke-width:1.0;" width="10" x="1623" y="1052.1172"/><rect fill="#FFFFFF" filter="url(#fnvvlas29v1fm)" height="28" style="stroke:#A80036;stroke-width:1.0;" width="10" x="1623" y="1124.25"/><rect fill="#FFFFFF" filter="url(#fnvvlas29v1fm)" height="28" style="stroke:#A80036;stroke-width:1.0;" width="10" x="1623" y="1196.3828"/><rect fill="#FFFFFF" filter="url(#fnvvlas29v1fm)" height="28" style="stroke:#A80036;stroke-width:1.0;" width="10" x="1623" y="1268.5156"/><rect fill="#FFFFFF" filter="url(#fnvvlas29v1fm)" height="28" style="stroke:#A80036;stroke-width:1.0;" width="10" x="1623" y="1340.6484"/><rect fill="#FFFFFF" filter="url(#fnvvlas29v1fm)" height="30" style="stroke:#A80036;stroke-width:1.0;" width="10" x="1623" y="1665.5781"/><polygon fill="#A80036" points="652.5,115.4297,662.5,119.4297,652.5,123.4297,656.5,119.4297" style="stroke:#A80036;stroke-width:1.0;"/><line style="stroke:#A80036;stroke-width:1.0;" x1="59.5" x2="658.5" y1="119.4297" y2="119.4297"/><text fill="#000000" font-family="sans-serif" font-size="13" font-weight="bold" lengthAdjust="spacing" textLength="9" x="66.5" y="114.3638">1</text><text fill="#000000" font-family="sans-serif" font-size="13" lengthAdjust="spacing" textLength="108" x="79.5" y="114.3638">starts new Client</text><polygon fill="#A80036" points="70.5,159.6953,60.5,163.6953,70.5,167.6953,66.5,163.6953" style="stroke:#A80036;stroke-width:1.0;"/><line style="stroke:#A80036;stroke-width:1.0;stroke-dasharray:2.0,2.0;" x1="64.5" x2="668.5" y1="163.6953" y2="163.6953"/><text fill="#000000" font-family="sans-serif" font-size="13" font-weight="bold" lengthAdjust="spacing" textLength="9" x="76.5" y="151.063">2</text><text fill="#000000" font-family="sans-serif" font-size="13" lengthAdjust="spacing" textLength="396" x="89.5" y="143.4966">request data(CCN, National Healthcare Service (NHS) number,</text><text fill="#000000" font-family="sans-serif" font-size="13" lengthAdjust="spacing" textLength="564" x="93.5" y="158.6294">Birth date, Sex(Opcional), Tax Identification number (TIF), E-mail, Name, Phone number)</text><polygon fill="#A80036" points="652.5,188.8281,662.5,192.8281,652.5,196.8281,656.5,192.8281" style="stroke:#A80036;stroke-width:1.0;"/><line style="stroke:#A80036;stroke-width:1.0;" x1="59.5" x2="658.5" y1="192.8281" y2="192.8281"/><text fill="#000000" font-family="sans-serif" font-size="13" font-weight="bold" lengthAdjust="spacing" textLength="8" x="66.5" y="187.7622">3</text><text fill="#000000" font-family="sans-serif" font-size="13" lengthAdjust="spacing" textLength="138" x="78.5" y="187.7622">types requested data</text><polygon fill="#A80036" points="830.5,217.9609,840.5,221.9609,830.5,225.9609,834.5,221.9609" style="stroke:#A80036;stroke-width:1.0;"/><line style="stroke:#A80036;stroke-width:1.0;stroke-dasharray:2.0,2.0;" x1="674.5" x2="836.5" y1="221.9609" y2="221.9609"/><text fill="#000000" font-family="sans-serif" font-size="13" font-weight="bold" lengthAdjust="spacing" textLength="9" x="681.5" y="216.895">4</text><text fill="#000000" font-family="sans-serif" font-size="13" lengthAdjust="spacing" textLength="136" x="694.5" y="216.895">createNewClient(dto)</text><polygon fill="#A80036" points="1033.5,247.0938,1043.5,251.0938,1033.5,255.0938,1037.5,251.0938" style="stroke:#A80036;stroke-width:1.0;"/><line style="stroke:#A80036;stroke-width:1.0;stroke-dasharray:2.0,2.0;" x1="852.5" x2="1039.5" y1="251.0938" y2="251.0938"/><text fill="#000000" font-family="sans-serif" font-size="13" font-weight="bold" lengthAdjust="spacing" textLength="9" x="859.5" y="246.0278">5</text><text fill="#000000" font-family="sans-serif" font-size="13" lengthAdjust="spacing" textLength="161" x="872.5" y="246.0278">nc=createNewClient(dto)</text><polygon fill="#A80036" points="1222.5,276.2266,1232.5,280.2266,1222.5,284.2266,1226.5,280.2266" style="stroke:#A80036;stroke-width:1.0;"/><line style="stroke:#A80036;stroke-width:1.0;stroke-dasharray:2.0,2.0;" x1="1055.5" x2="1228.5" y1="280.2266" y2="280.2266"/><text fill="#000000" font-family="sans-serif" font-size="13" font-weight="bold" lengthAdjust="spacing" textLength="9" x="1062.5" y="275.1606">6</text><text fill="#000000" font-family="sans-serif" font-size="13" lengthAdjust="spacing" textLength="81" x="1075.5" y="275.1606">toModel(dto)</text><polygon fill="#A80036" points="1496.5,305.3594,1506.5,309.3594,1496.5,313.3594,1500.5,309.3594" style="stroke:#A80036;stroke-width:1.0;"/><line style="stroke:#A80036;stroke-width:1.0;stroke-dasharray:2.0,2.0;" x1="1244.5" x2="1502.5" y1="309.3594" y2="309.3594"/><text fill="#000000" font-family="sans-serif" font-size="13" font-weight="bold" lengthAdjust="spacing" textLength="9" x="1251.5" y="304.2935">7</text><text fill="#000000" font-family="sans-serif" font-size="13" lengthAdjust="spacing" textLength="90" x="1264.5" y="304.2935">ccn=getCCN()</text><polygon fill="#A80036" points="1496.5,364.4922,1506.5,368.4922,1496.5,372.4922,1500.5,368.4922" style="stroke:#A80036;stroke-width:1.0;"/><line style="stroke:#A80036;stroke-width:1.0;stroke-dasharray:2.0,2.0;" x1="1244.5" x2="1502.5" y1="368.4922" y2="368.4922"/><text fill="#000000" font-family="sans-serif" font-size="13" font-weight="bold" lengthAdjust="spacing" textLength="9" x="1251.5" y="363.4263">8</text><text fill="#000000" font-family="sans-serif" font-size="13" lengthAdjust="spacing" textLength="90" x="1264.5" y="363.4263">nhs=getNHS()</text><polygon fill="#A80036" points="1496.5,423.625,1506.5,427.625,1496.5,431.625,1500.5,427.625" style="stroke:#A80036;stroke-width:1.0;"/><line style="stroke:#A80036;stroke-width:1.0;stroke-dasharray:2.0,2.0;" x1="1244.5" x2="1502.5" y1="427.625" y2="427.625"/><text fill="#000000" font-family="sans-serif" font-size="13" font-weight="bold" lengthAdjust="spacing" textLength="9" x="1251.5" y="422.5591">9</text><text fill="#000000" font-family="sans-serif" font-size="13" lengthAdjust="spacing" textLength="161" x="1264.5" y="422.5591">birthDate=getBirthDate()</text><polygon fill="#A80036" points="1496.5,482.7578,1506.5,486.7578,1496.5,490.7578,1500.5,486.7578" style="stroke:#A80036;stroke-width:1.0;"/><line style="stroke:#A80036;stroke-width:1.0;stroke-dasharray:2.0,2.0;" x1="1244.5" x2="1502.5" y1="486.7578" y2="486.7578"/><text fill="#000000" font-family="sans-serif" font-size="13" font-weight="bold" lengthAdjust="spacing" textLength="19" x="1251.5" y="481.6919">10</text><text fill="#000000" font-family="sans-serif" font-size="13" lengthAdjust="spacing" textLength="88" x="1274.5" y="481.6919">sex=getSex()</text><polygon fill="#A80036" points="1496.5,541.8906,1506.5,545.8906,1496.5,549.8906,1500.5,545.8906" style="stroke:#A80036;stroke-width:1.0;"/><line style="stroke:#A80036;stroke-width:1.0;stroke-dasharray:2.0,2.0;" x1="1244.5" x2="1502.5" y1="545.8906" y2="545.8906"/><text fill="#000000" font-family="sans-serif" font-size="13" font-weight="bold" lengthAdjust="spacing" textLength="18" x="1251.5" y="540.8247">11</text><text fill="#000000" font-family="sans-serif" font-size="13" lengthAdjust="spacing" textLength="72" x="1273.5" y="540.8247">tif=getTIF()</text><polygon fill="#A80036" points="1496.5,601.0234,1506.5,605.0234,1496.5,609.0234,1500.5,605.0234" style="stroke:#A80036;stroke-width:1.0;"/><line style="stroke:#A80036;stroke-width:1.0;stroke-dasharray:2.0,2.0;" x1="1244.5" x2="1502.5" y1="605.0234" y2="605.0234"/><text fill="#000000" font-family="sans-serif" font-size="13" font-weight="bold" lengthAdjust="spacing" textLength="18" x="1251.5" y="599.9575">12</text><text fill="#000000" font-family="sans-serif" font-size="13" lengthAdjust="spacing" textLength="111" x="1273.5" y="599.9575">email=getEmail()</text><polygon fill="#A80036" points="1496.5,660.1563,1506.5,664.1563,1496.5,668.1563,1500.5,664.1563" style="stroke:#A80036;stroke-width:1.0;"/><line style="stroke:#A80036;stroke-width:1.0;stroke-dasharray:2.0,2.0;" x1="1244.5" x2="1502.5" y1="664.1563" y2="664.1563"/><text fill="#000000" font-family="sans-serif" font-size="13" font-weight="bold" lengthAdjust="spacing" textLength="17" x="1251.5" y="659.0903">13</text><text fill="#000000" font-family="sans-serif" font-size="13" lengthAdjust="spacing" textLength="116" x="1272.5" y="659.0903">name=getName()</text><polygon fill="#A80036" points="1496.5,719.2891,1506.5,723.2891,1496.5,727.2891,1500.5,723.2891" style="stroke:#A80036;stroke-width:1.0;"/><line style="stroke:#A80036;stroke-width:1.0;stroke-dasharray:2.0,2.0;" x1="1244.5" x2="1502.5" y1="723.2891" y2="723.2891"/><text fill="#000000" font-family="sans-serif" font-size="13" font-weight="bold" lengthAdjust="spacing" textLength="18" x="1251.5" y="718.2231">14</text><text fill="#000000" font-family="sans-serif" font-size="13" lengthAdjust="spacing" textLength="223" x="1273.5" y="718.2231">phoneNumber=getPhoneNumber()</text><polygon fill="#A80036" points="1572.5,793.5547,1582.5,797.5547,1572.5,801.5547,1576.5,797.5547" style="stroke:#A80036;stroke-width:1.0;"/><line style="stroke:#A80036;stroke-width:1.0;stroke-dasharray:2.0,2.0;" x1="1244.5" x2="1578.5" y1="797.5547" y2="797.5547"/><text fill="#000000" font-family="sans-serif" font-size="13" font-weight="bold" lengthAdjust="spacing" textLength="18" x="1251.5" y="784.9224">15</text><text fill="#000000" font-family="sans-serif" font-size="13" lengthAdjust="spacing" textLength="223" x="1273.5" y="777.356">create(ccn, nhs, birthDate, sex, tif,</text><text fill="#000000" font-family="sans-serif" font-size="13" lengthAdjust="spacing" textLength="184" x="1277.5" y="792.4888">email, name, phoneNumber)</text><rect fill="#FEFECE" filter="url(#fnvvlas29v1fm)" height="30.2969" style="stroke:#A80036;stroke-width:1.5;" width="83" x="1584.5" y="761.2891"/><text fill="#000000" font-family="sans-serif" font-size="14" lengthAdjust="spacing" textLength="69" x="1591.5" y="781.2842">nc: Client</text><line style="stroke:#A80036;stroke-width:1.0;stroke-dasharray:2.0,2.0;" x1="1633" x2="1675" y1="827.7188" y2="827.7188"/><line style="stroke:#A80036;stroke-width:1.0;stroke-dasharray:2.0,2.0;" x1="1675" x2="1675" y1="827.7188" y2="840.7188"/><line style="stroke:#A80036;stroke-width:1.0;stroke-dasharray:2.0,2.0;" x1="1634" x2="1675" y1="840.7188" y2="840.7188"/><polygon fill="#A80036" points="1644,836.7188,1634,840.7188,1644,844.7188,1640,840.7188" style="stroke:#A80036;stroke-width:1.0;"/><text fill="#000000" font-family="sans-serif" font-size="13" font-weight="bold" lengthAdjust="spacing" textLength="18" x="1640" y="822.6528">16</text><text fill="#000000" font-family="sans-serif" font-size="13" lengthAdjust="spacing" textLength="146" x="1662" y="822.6528">validateAge(birthDate)</text><line style="stroke:#A80036;stroke-width:1.0;stroke-dasharray:2.0,2.0;" x1="1633" x2="1675" y1="899.8516" y2="899.8516"/><line style="stroke:#A80036;stroke-width:1.0;stroke-dasharray:2.0,2.0;" x1="1675" x2="1675" y1="899.8516" y2="912.8516"/><line style="stroke:#A80036;stroke-width:1.0;stroke-dasharray:2.0,2.0;" x1="1634" x2="1675" y1="912.8516" y2="912.8516"/><polygon fill="#A80036" points="1644,908.8516,1634,912.8516,1644,916.8516,1640,912.8516" style="stroke:#A80036;stroke-width:1.0;"/><text fill="#000000" font-family="sans-serif" font-size="13" font-weight="bold" lengthAdjust="spacing" textLength="18" x="1640" y="894.7856">17</text><text fill="#000000" font-family="sans-serif" font-size="13" lengthAdjust="spacing" textLength="136" x="1662" y="894.7856">validateName(name)</text><line style="stroke:#A80036;stroke-width:1.0;stroke-dasharray:2.0,2.0;" x1="1633" x2="1675" y1="971.9844" y2="971.9844"/><line style="stroke:#A80036;stroke-width:1.0;stroke-dasharray:2.0,2.0;" x1="1675" x2="1675" y1="971.9844" y2="984.9844"/><line style="stroke:#A80036;stroke-width:1.0;stroke-dasharray:2.0,2.0;" x1="1634" x2="1675" y1="984.9844" y2="984.9844"/><polygon fill="#A80036" points="1644,980.9844,1634,984.9844,1644,988.9844,1640,984.9844" style="stroke:#A80036;stroke-width:1.0;"/><text fill="#000000" font-family="sans-serif" font-size="13" font-weight="bold" lengthAdjust="spacing" textLength="18" x="1640" y="966.9185">18</text><text fill="#000000" font-family="sans-serif" font-size="13" lengthAdjust="spacing" textLength="131" x="1662" y="966.9185">validateEmail(email)</text><line style="stroke:#A80036;stroke-width:1.0;stroke-dasharray:2.0,2.0;" x1="1633" x2="1675" y1="1044.1172" y2="1044.1172"/><line style="stroke:#A80036;stroke-width:1.0;stroke-dasharray:2.0,2.0;" x1="1675" x2="1675" y1="1044.1172" y2="1057.1172"/><line style="stroke:#A80036;stroke-width:1.0;stroke-dasharray:2.0,2.0;" x1="1634" x2="1675" y1="1057.1172" y2="1057.1172"/><polygon fill="#A80036" points="1644,1053.1172,1634,1057.1172,1644,1061.1172,1640,1057.1172" style="stroke:#A80036;stroke-width:1.0;"/><text fill="#000000" font-family="sans-serif" font-size="13" font-weight="bold" lengthAdjust="spacing" textLength="18" x="1640" y="1039.0513">19</text><text fill="#000000" font-family="sans-serif" font-size="13" lengthAdjust="spacing" textLength="108" x="1662" y="1039.0513">validateSex(sex)</text><line style="stroke:#A80036;stroke-width:1.0;stroke-dasharray:2.0,2.0;" x1="1633" x2="1675" y1="1116.25" y2="1116.25"/><line style="stroke:#A80036;stroke-width:1.0;stroke-dasharray:2.0,2.0;" x1="1675" x2="1675" y1="1116.25" y2="1129.25"/><line style="stroke:#A80036;stroke-width:1.0;stroke-dasharray:2.0,2.0;" x1="1634" x2="1675" y1="1129.25" y2="1129.25"/><polygon fill="#A80036" points="1644,1125.25,1634,1129.25,1644,1133.25,1640,1129.25" style="stroke:#A80036;stroke-width:1.0;"/><text fill="#000000" font-family="sans-serif" font-size="13" font-weight="bold" lengthAdjust="spacing" textLength="19" x="1640" y="1111.1841">20</text><text fill="#000000" font-family="sans-serif" font-size="13" lengthAdjust="spacing" textLength="108" x="1663" y="1111.1841">validateNhs(nhs)</text><line style="stroke:#A80036;stroke-width:1.0;stroke-dasharray:2.0,2.0;" x1="1633" x2="1675" y1="1188.3828" y2="1188.3828"/><line style="stroke:#A80036;stroke-width:1.0;stroke-dasharray:2.0,2.0;" x1="1675" x2="1675" y1="1188.3828" y2="1201.3828"/><line style="stroke:#A80036;stroke-width:1.0;stroke-dasharray:2.0,2.0;" x1="1634" x2="1675" y1="1201.3828" y2="1201.3828"/><polygon fill="#A80036" points="1644,1197.3828,1634,1201.3828,1644,1205.3828,1640,1201.3828" style="stroke:#A80036;stroke-width:1.0;"/><text fill="#000000" font-family="sans-serif" font-size="13" font-weight="bold" lengthAdjust="spacing" textLength="18" x="1640" y="1183.3169">21</text><text fill="#000000" font-family="sans-serif" font-size="13" lengthAdjust="spacing" textLength="90" x="1662" y="1183.3169">validateTif(tif)</text><line style="stroke:#A80036;stroke-width:1.0;stroke-dasharray:2.0,2.0;" x1="1633" x2="1675" y1="1260.5156" y2="1260.5156"/><line style="stroke:#A80036;stroke-width:1.0;stroke-dasharray:2.0,2.0;" x1="1675" x2="1675" y1="1260.5156" y2="1273.5156"/><line style="stroke:#A80036;stroke-width:1.0;stroke-dasharray:2.0,2.0;" x1="1634" x2="1675" y1="1273.5156" y2="1273.5156"/><polygon fill="#A80036" points="1644,1269.5156,1634,1273.5156,1644,1277.5156,1640,1273.5156" style="stroke:#A80036;stroke-width:1.0;"/><text fill="#000000" font-family="sans-serif" font-size="13" font-weight="bold" lengthAdjust="spacing" textLength="18" x="1640" y="1255.4497">22</text><text fill="#000000" font-family="sans-serif" font-size="13" lengthAdjust="spacing" textLength="243" x="1662" y="1255.4497">validatePhoneNumber(phoneNumber)</text><line style="stroke:#A80036;stroke-width:1.0;stroke-dasharray:2.0,2.0;" x1="1633" x2="1675" y1="1332.6484" y2="1332.6484"/><line style="stroke:#A80036;stroke-width:1.0;stroke-dasharray:2.0,2.0;" x1="1675" x2="1675" y1="1332.6484" y2="1345.6484"/><line style="stroke:#A80036;stroke-width:1.0;stroke-dasharray:2.0,2.0;" x1="1634" x2="1675" y1="1345.6484" y2="1345.6484"/><polygon fill="#A80036" points="1644,1341.6484,1634,1345.6484,1644,1349.6484,1640,1345.6484" style="stroke:#A80036;stroke-width:1.0;"/><text fill="#000000" font-family="sans-serif" font-size="13" font-weight="bold" lengthAdjust="spacing" textLength="17" x="1640" y="1327.5825">23</text><text fill="#000000" font-family="sans-serif" font-size="13" lengthAdjust="spacing" textLength="107" x="1661" y="1327.5825">validateCcn(ccn)</text><polygon fill="#A80036" points="70.5,1400.7813,60.5,1404.7813,70.5,1408.7813,66.5,1404.7813" style="stroke:#A80036;stroke-width:1.0;"/><line style="stroke:#A80036;stroke-width:1.0;stroke-dasharray:2.0,2.0;" x1="64.5" x2="668.5" y1="1404.7813" y2="1404.7813"/><text fill="#000000" font-family="sans-serif" font-size="13" font-weight="bold" lengthAdjust="spacing" textLength="18" x="76.5" y="1399.7153">24</text><text fill="#000000" font-family="sans-serif" font-size="13" lengthAdjust="spacing" textLength="277" x="98.5" y="1399.7153">shows the data and request a confirmation</text><polygon fill="#A80036" points="652.5,1429.9141,662.5,1433.9141,652.5,1437.9141,656.5,1433.9141" style="stroke:#A80036;stroke-width:1.0;"/><line style="stroke:#A80036;stroke-width:1.0;" x1="59.5" x2="658.5" y1="1433.9141" y2="1433.9141"/><text fill="#000000" font-family="sans-serif" font-size="13" font-weight="bold" lengthAdjust="spacing" textLength="18" x="66.5" y="1428.8481">25</text><text fill="#000000" font-family="sans-serif" font-size="13" lengthAdjust="spacing" textLength="114" x="88.5" y="1428.8481">confirms the data</text><polygon fill="#A80036" points="830.5,1459.0469,840.5,1463.0469,830.5,1467.0469,834.5,1463.0469" style="stroke:#A80036;stroke-width:1.0;"/><line style="stroke:#A80036;stroke-width:1.0;stroke-dasharray:2.0,2.0;" x1="674.5" x2="836.5" y1="1463.0469" y2="1463.0469"/><text fill="#000000" font-family="sans-serif" font-size="13" font-weight="bold" lengthAdjust="spacing" textLength="18" x="681.5" y="1457.981">26</text><text fill="#000000" font-family="sans-serif" font-size="13" lengthAdjust="spacing" textLength="105" x="703.5" y="1457.981">saveNewClient()</text><polygon fill="#A80036" points="1033.5,1488.1797,1043.5,1492.1797,1033.5,1496.1797,1037.5,1492.1797" style="stroke:#A80036;stroke-width:1.0;"/><line style="stroke:#A80036;stroke-width:1.0;stroke-dasharray:2.0,2.0;" x1="852.5" x2="1039.5" y1="1492.1797" y2="1492.1797"/><text fill="#000000" font-family="sans-serif" font-size="13" font-weight="bold" lengthAdjust="spacing" textLength="18" x="859.5" y="1487.1138">27</text><text fill="#000000" font-family="sans-serif" font-size="13" lengthAdjust="spacing" textLength="123" x="881.5" y="1487.1138">saveNewClient(NC)</text><line style="stroke:#A80036;stroke-width:1.0;stroke-dasharray:2.0,2.0;" x1="1060.5" x2="1102.5" y1="1521.3125" y2="1521.3125"/><line style="stroke:#A80036;stroke-width:1.0;stroke-dasharray:2.0,2.0;" x1="1102.5" x2="1102.5" y1="1521.3125" y2="1534.3125"/><line style="stroke:#A80036;stroke-width:1.0;stroke-dasharray:2.0,2.0;" x1="1061.5" x2="1102.5" y1="1534.3125" y2="1534.3125"/><polygon fill="#A80036" points="1071.5,1530.3125,1061.5,1534.3125,1071.5,1538.3125,1067.5,1534.3125" style="stroke:#A80036;stroke-width:1.0;"/><text fill="#000000" font-family="sans-serif" font-size="13" font-weight="bold" lengthAdjust="spacing" textLength="18" x="1067.5" y="1516.2466">28</text><text fill="#000000" font-family="sans-serif" font-size="13" lengthAdjust="spacing" textLength="143" x="1089.5" y="1516.2466">validateNewClient(NC)</text><line style="stroke:#A80036;stroke-width:1.0;stroke-dasharray:2.0,2.0;" x1="1060.5" x2="1102.5" y1="1593.4453" y2="1593.4453"/><line style="stroke:#A80036;stroke-width:1.0;stroke-dasharray:2.0,2.0;" x1="1102.5" x2="1102.5" y1="1593.4453" y2="1606.4453"/><line style="stroke:#A80036;stroke-width:1.0;stroke-dasharray:2.0,2.0;" x1="1061.5" x2="1102.5" y1="1606.4453" y2="1606.4453"/><polygon fill="#A80036" points="1071.5,1602.4453,1061.5,1606.4453,1071.5,1610.4453,1067.5,1606.4453" style="stroke:#A80036;stroke-width:1.0;"/><text fill="#000000" font-family="sans-serif" font-size="13" font-weight="bold" lengthAdjust="spacing" textLength="18" x="1067.5" y="1588.3794">29</text><text fill="#000000" font-family="sans-serif" font-size="13" lengthAdjust="spacing" textLength="116" x="1089.5" y="1588.3794">addNewClient(NC)</text><polygon fill="#A80036" points="1611,1661.5781,1621,1665.5781,1611,1669.5781,1615,1665.5781" style="stroke:#A80036;stroke-width:1.0;"/><line style="stroke:#A80036;stroke-width:1.0;stroke-dasharray:2.0,2.0;" x1="1055.5" x2="1617" y1="1665.5781" y2="1665.5781"/><text fill="#000000" font-family="sans-serif" font-size="13" font-weight="bold" lengthAdjust="spacing" textLength="18" x="1062.5" y="1660.5122">30</text><text fill="#000000" font-family="sans-serif" font-size="13" lengthAdjust="spacing" textLength="94" x="1084.5" y="1660.5122">sendEmail(NC)</text><polygon fill="#A80036" points="65.5,1720.7109,55.5,1724.7109,65.5,1728.7109,61.5,1724.7109" style="stroke:#A80036;stroke-width:1.0;"/><line style="stroke:#A80036;stroke-width:1.0;stroke-dasharray:2.0,2.0;" x1="59.5" x2="668.5" y1="1724.7109" y2="1724.7109"/><text fill="#000000" font-family="sans-serif" font-size="13" font-weight="bold" lengthAdjust="spacing" textLength="17" x="71.5" y="1719.645">31</text><text fill="#000000" font-family="sans-serif" font-size="13" lengthAdjust="spacing" textLength="169" x="92.5" y="1719.645">informs operation success</text><!--MD5=[faaafb5d95861c1579e675020dc486b5]
@startuml
actor Receptionist as Adm
participant ":RegistClient UI" as System
participant ":RegistClientCrontroller" as RCC
participant ":Company" as ML
participant ":ClientMapper" as cm
participant "dto:ClientDTO" as cdto


autonumber
activate Adm
Adm -> System: starts new Client
activate System
System - -> Adm: request data(CCN, National Healthcare Service (NHS) number,\n Birth date, Sex(Opcional), Tax Identification number (TIF), E-mail, Name, Phone number)
deactivate System




Adm -> System: types requested data
activate System
System- ->RCC: createNewClient(dto)
activate RCC
RCC- ->ML: nc=createNewClient(dto)
activate ML


ML- ->cm: toModel(dto)
activate cm
cm- ->cdto: ccn=getCCN()
activate cdto
deactivate cdto
cm- ->cdto: nhs=getNHS()
activate cdto
deactivate cdto
cm- ->cdto: birthDate=getBirthDate()
activate cdto
deactivate cdto
cm- ->cdto: sex=getSex()
activate cdto
deactivate cdto
cm- ->cdto: tif=getTIF()
activate cdto
deactivate cdto
cm- ->cdto: email=getEmail()
activate cdto
deactivate cdto
cm- ->cdto: name=getName()
activate cdto
deactivate cdto
cm- ->cdto: phoneNumber=getPhoneNumber()
activate cdto
deactivate cdto


create "nc: Client" as NC
cm- ->NC:  create(ccn, nhs, birthDate, sex, tif,\n email, name, phoneNumber)
NC- ->NC: validateAge(birthDate)
activate NC
deactivate NC
NC- ->NC: validateName(name)
activate NC
deactivate NC
NC- ->NC: validateEmail(email)
activate NC
deactivate NC
NC- ->NC: validateSex(sex)
activate NC
deactivate NC
NC- ->NC: validateNhs(nhs)
activate NC
deactivate NC
NC- ->NC: validateTif(tif)
activate NC
deactivate NC
NC- ->NC: validatePhoneNumber(phoneNumber)
activate NC
deactivate NC
NC- ->NC: validateCcn(ccn)
activate NC
deactivate NC



deactivate ML
deactivate RCC
deactivate cm
System - -> Adm: shows the data and request a confirmation
deactivate System


Adm -> System: confirms the data
activate System
System- ->RCC: saveNewClient()
activate RCC
RCC- ->ML:saveNewClient(NC)
activate ML
ML- ->ML:validateNewClient(NC)
activate ML
deactivate ML
ML- ->ML:addNewClient(NC)
activate ML
deactivate ML
ML- ->NC:sendEmail(NC)
activate NC
deactivate NC
deactivate ML
deactivate RCC
System - -> Adm: informs operation success
deactivate System
deactivate Adm
@enduml

PlantUML version 1.2021.6beta4(Unknown compile time)
(GPL source distribution)
Java Runtime: Java(TM) SE Runtime Environment
JVM: Java HotSpot(TM) 64-Bit Server VM
Default Encoding: UTF-8
Language: en
Country: US
--></g></svg>