<?xml version="1.0" encoding="UTF-8" standalone="no"?><svg xmlns="http://www.w3.org/2000/svg" xmlns:xlink="http://www.w3.org/1999/xlink" contentScriptType="application/ecmascript" contentStyleType="text/css" height="440px" preserveAspectRatio="none" style="width:433px;height:440px;background:#FFFFFF;" version="1.1" viewBox="0 0 433 440" width="433px" zoomAndPan="magnify"><defs><filter height="300%" id="f132pbfnwjf8rk" width="300%" x="-1" y="-1"><feGaussianBlur result="blurOut" stdDeviation="2.0"/><feColorMatrix in="blurOut" result="blurOut2" type="matrix" values="0 0 0 0 0 0 0 0 0 0 0 0 0 0 0 0 0 0 .4 0"/><feOffset dx="4.0" dy="4.0" in="blurOut2" result="blurOut3"/><feBlend in="SourceGraphic" in2="blurOut3" mode="normal"/></filter></defs><g><rect fill="#FFFFFF" filter="url(#f132pbfnwjf8rk)" height="240.1953" style="stroke:#A80036;stroke-width:1.0;" width="10" x="53" y="98.2969"/><rect fill="#FFFFFF" filter="url(#f132pbfnwjf8rk)" height="29.1328" style="stroke:#A80036;stroke-width:1.0;" width="10" x="380" y="134.5625"/><rect fill="#FFFFFF" filter="url(#f132pbfnwjf8rk)" height="29.1328" style="stroke:#A80036;stroke-width:1.0;" width="10" x="380" y="192.8281"/><rect fill="#FFFFFF" filter="url(#f132pbfnwjf8rk)" height="29.1328" style="stroke:#A80036;stroke-width:1.0;" width="10" x="380" y="251.0938"/><rect fill="#FFFFFF" filter="url(#f132pbfnwjf8rk)" height="29.1328" style="stroke:#A80036;stroke-width:1.0;" width="10" x="380" y="309.3594"/><line style="stroke:#A80036;stroke-width:1.0;stroke-dasharray:5.0,5.0;" x1="58" x2="58" y1="88.2969" y2="356.4922"/><line style="stroke:#A80036;stroke-width:1.0;stroke-dasharray:5.0,5.0;" x1="384.5" x2="384.5" y1="88.2969" y2="356.4922"/><text fill="#000000" font-family="sans-serif" font-size="14" lengthAdjust="spacing" textLength="100" x="5" y="84.9951">Administrator</text><ellipse cx="58" cy="15" fill="#FEFECE" filter="url(#f132pbfnwjf8rk)" rx="8" ry="8" style="stroke:#A80036;stroke-width:2.0;"/><path d="M58,23 L58,50 M45,31 L71,31 M58,50 L45,65 M58,50 L71,65 " fill="none" filter="url(#f132pbfnwjf8rk)" style="stroke:#A80036;stroke-width:2.0;"/><text fill="#000000" font-family="sans-serif" font-size="14" lengthAdjust="spacing" textLength="100" x="5" y="368.4873">Administrator</text><ellipse cx="58" cy="381.7891" fill="#FEFECE" filter="url(#f132pbfnwjf8rk)" rx="8" ry="8" style="stroke:#A80036;stroke-width:2.0;"/><path d="M58,389.7891 L58,416.7891 M45,397.7891 L71,397.7891 M58,416.7891 L45,431.7891 M58,416.7891 L71,431.7891 " fill="none" filter="url(#f132pbfnwjf8rk)" style="stroke:#A80036;stroke-width:2.0;"/><rect fill="#FEFECE" filter="url(#f132pbfnwjf8rk)" height="30.2969" style="stroke:#A80036;stroke-width:1.5;" width="73" x="346.5" y="53"/><text fill="#000000" font-family="sans-serif" font-size="14" lengthAdjust="spacing" textLength="59" x="353.5" y="72.9951">:System</text><rect fill="#FEFECE" filter="url(#f132pbfnwjf8rk)" height="30.2969" style="stroke:#A80036;stroke-width:1.5;" width="73" x="346.5" y="355.4922"/><text fill="#000000" font-family="sans-serif" font-size="14" lengthAdjust="spacing" textLength="59" x="353.5" y="375.4873">:System</text><rect fill="#FFFFFF" filter="url(#f132pbfnwjf8rk)" height="240.1953" style="stroke:#A80036;stroke-width:1.0;" width="10" x="53" y="98.2969"/><rect fill="#FFFFFF" filter="url(#f132pbfnwjf8rk)" height="29.1328" style="stroke:#A80036;stroke-width:1.0;" width="10" x="380" y="134.5625"/><rect fill="#FFFFFF" filter="url(#f132pbfnwjf8rk)" height="29.1328" style="stroke:#A80036;stroke-width:1.0;" width="10" x="380" y="192.8281"/><rect fill="#FFFFFF" filter="url(#f132pbfnwjf8rk)" height="29.1328" style="stroke:#A80036;stroke-width:1.0;" width="10" x="380" y="251.0938"/><rect fill="#FFFFFF" filter="url(#f132pbfnwjf8rk)" height="29.1328" style="stroke:#A80036;stroke-width:1.0;" width="10" x="380" y="309.3594"/><polygon fill="#A80036" points="368,130.5625,378,134.5625,368,138.5625,372,134.5625" style="stroke:#A80036;stroke-width:1.0;"/><line style="stroke:#A80036;stroke-width:1.0;" x1="63" x2="374" y1="134.5625" y2="134.5625"/><text fill="#000000" font-family="sans-serif" font-size="13" font-weight="bold" lengthAdjust="spacing" textLength="9" x="70" y="121.9302">1</text><text fill="#000000" font-family="sans-serif" font-size="13" lengthAdjust="spacing" textLength="281" x="83" y="114.3638">ask to validate the work done by the clinical</text><text fill="#000000" font-family="sans-serif" font-size="13" lengthAdjust="spacing" textLength="282" x="83" y="129.4966">chemistry technologist and specialist doctor</text><polygon fill="#A80036" points="74,159.6953,64,163.6953,74,167.6953,70,163.6953" style="stroke:#A80036;stroke-width:1.0;"/><line style="stroke:#A80036;stroke-width:1.0;stroke-dasharray:2.0,2.0;" x1="68" x2="384" y1="163.6953" y2="163.6953"/><text fill="#000000" font-family="sans-serif" font-size="13" font-weight="bold" lengthAdjust="spacing" textLength="9" x="80" y="158.6294">2</text><text fill="#000000" font-family="sans-serif" font-size="13" lengthAdjust="spacing" textLength="263" x="93" y="158.6294">shows the tests registered in the system</text><polygon fill="#A80036" points="368,188.8281,378,192.8281,368,196.8281,372,192.8281" style="stroke:#A80036;stroke-width:1.0;"/><line style="stroke:#A80036;stroke-width:1.0;" x1="63" x2="374" y1="192.8281" y2="192.8281"/><text fill="#000000" font-family="sans-serif" font-size="13" font-weight="bold" lengthAdjust="spacing" textLength="8" x="70" y="187.7622">3</text><text fill="#000000" font-family="sans-serif" font-size="13" lengthAdjust="spacing" textLength="164" x="82" y="187.7622">select the test to validate</text><polygon fill="#A80036" points="74,217.9609,64,221.9609,74,225.9609,70,221.9609" style="stroke:#A80036;stroke-width:1.0;"/><line style="stroke:#A80036;stroke-width:1.0;stroke-dasharray:2.0,2.0;" x1="68" x2="384" y1="221.9609" y2="221.9609"/><text fill="#000000" font-family="sans-serif" font-size="13" font-weight="bold" lengthAdjust="spacing" textLength="9" x="80" y="216.895">4</text><text fill="#000000" font-family="sans-serif" font-size="13" lengthAdjust="spacing" textLength="106" x="93" y="216.895">shows the dates</text><polygon fill="#A80036" points="368,247.0938,378,251.0938,368,255.0938,372,251.0938" style="stroke:#A80036;stroke-width:1.0;"/><line style="stroke:#A80036;stroke-width:1.0;" x1="63" x2="374" y1="251.0938" y2="251.0938"/><text fill="#000000" font-family="sans-serif" font-size="13" font-weight="bold" lengthAdjust="spacing" textLength="9" x="70" y="246.0278">5</text><text fill="#000000" font-family="sans-serif" font-size="13" lengthAdjust="spacing" textLength="51" x="83" y="246.0278">validate</text><polygon fill="#A80036" points="74,276.2266,64,280.2266,74,284.2266,70,280.2266" style="stroke:#A80036;stroke-width:1.0;"/><line style="stroke:#A80036;stroke-width:1.0;stroke-dasharray:2.0,2.0;" x1="68" x2="384" y1="280.2266" y2="280.2266"/><text fill="#000000" font-family="sans-serif" font-size="13" font-weight="bold" lengthAdjust="spacing" textLength="9" x="80" y="275.1606">6</text><text fill="#000000" font-family="sans-serif" font-size="13" lengthAdjust="spacing" textLength="134" x="93" y="275.1606">request confirmation</text><polygon fill="#A80036" points="368,305.3594,378,309.3594,368,313.3594,372,309.3594" style="stroke:#A80036;stroke-width:1.0;"/><line style="stroke:#A80036;stroke-width:1.0;" x1="63" x2="374" y1="309.3594" y2="309.3594"/><text fill="#000000" font-family="sans-serif" font-size="13" font-weight="bold" lengthAdjust="spacing" textLength="9" x="70" y="304.2935">7</text><text fill="#000000" font-family="sans-serif" font-size="13" lengthAdjust="spacing" textLength="56" x="83" y="304.2935">confirms</text><polygon fill="#A80036" points="69,334.4922,59,338.4922,69,342.4922,65,338.4922" style="stroke:#A80036;stroke-width:1.0;"/><line style="stroke:#A80036;stroke-width:1.0;stroke-dasharray:2.0,2.0;" x1="63" x2="384" y1="338.4922" y2="338.4922"/><text fill="#000000" font-family="sans-serif" font-size="13" font-weight="bold" lengthAdjust="spacing" textLength="9" x="75" y="333.4263">8</text><text fill="#000000" font-family="sans-serif" font-size="13" lengthAdjust="spacing" textLength="176" x="88" y="333.4263">informs operations success</text><!--MD5=[99399fba985a4a8c99249d2e073859c9]
@startuml
actor Administrator as Adm
participant ":System" as System

autonumber
activate Adm
Adm -> System: ask to validate the work done by the clinical \nchemistry technologist and specialist doctor
activate System
System - -> Adm: shows the tests registered in the system
deactivate System
Adm -> System: select the test to validate
activate System
System - -> Adm: shows the dates
deactivate System
Adm -> System: validate
activate System
System - -> Adm: request confirmation
deactivate System
Adm -> System: confirms
activate System
System - -> Adm: informs operations success
deactivate System
deactivate Adm
@enduml

PlantUML version 1.2021.7beta1(Unknown compile time)
(GPL source distribution)
Java Runtime: Java(TM) SE Runtime Environment
JVM: Java HotSpot(TM) 64-Bit Server VM
Default Encoding: UTF-8
Language: en
Country: US
--></g></svg>