<?xml version="1.0" encoding="UTF-8" standalone="no"?><svg xmlns="http://www.w3.org/2000/svg" xmlns:xlink="http://www.w3.org/1999/xlink" contentScriptType="application/ecmascript" contentStyleType="text/css" height="349px" preserveAspectRatio="none" style="width:1315px;height:349px;background:#FFFFFF;" version="1.1" viewBox="0 0 1315 349" width="1315px" zoomAndPan="magnify"><defs><filter height="300%" id="fru148c1rot4i" width="300%" x="-1" y="-1"><feGaussianBlur result="blurOut" stdDeviation="2.0"/><feColorMatrix in="blurOut" result="blurOut2" type="matrix" values="0 0 0 0 0 0 0 0 0 0 0 0 0 0 0 0 0 0 .4 0"/><feOffset dx="4.0" dy="4.0" in="blurOut2" result="blurOut3"/><feBlend in="SourceGraphic" in2="blurOut3" mode="normal"/></filter></defs><g><!--MD5=[02e4b9b7573f1156f41e60aa5b4e25a4]
class Company--><rect codeLine="6" fill="#FEFECE" filter="url(#fru148c1rot4i)" height="52.8047" id="Company" style="stroke:#A80036;stroke-width:1.5;" width="88" x="7" y="166.1375"/><ellipse cx="22" cy="182.1375" fill="#ADD1B2" rx="11" ry="11" style="stroke:#A80036;stroke-width:1.0;"/><path d="M24.3438,177.8093 C23.4063,177.3718 22.8125,177.2312 21.9375,177.2312 C19.3125,177.2312 17.3125,179.3093 17.3125,182.0281 L17.3125,183.1531 C17.3125,185.7312 19.4219,187.6218 22.3125,187.6218 C23.5313,187.6218 24.6875,187.325 25.4375,186.7781 C26.0156,186.3718 26.3438,185.9187 26.3438,185.5281 C26.3438,185.075 25.9531,184.6843 25.4844,184.6843 C25.2656,184.6843 25.0625,184.7625 24.875,184.95 C24.4219,185.4343 24.4219,185.4343 24.2344,185.5281 C23.8125,185.7937 23.125,185.9187 22.3594,185.9187 C20.3125,185.9187 19.0156,184.825 19.0156,183.1218 L19.0156,182.0281 C19.0156,180.2468 20.2656,178.9343 22,178.9343 C22.5781,178.9343 23.1875,179.0906 23.6563,179.3406 C24.1406,179.6218 24.3125,179.8406 24.4063,180.2468 C24.4688,180.6531 24.5,180.7781 24.6406,180.9031 C24.7813,181.0437 25.0156,181.1531 25.2344,181.1531 C25.5,181.1531 25.7656,181.0125 25.9375,180.7937 C26.0469,180.6375 26.0781,180.45 26.0781,180.0281 L26.0781,178.6062 C26.0781,178.1687 26.0625,178.0437 25.9688,177.8875 C25.8125,177.6218 25.5313,177.4812 25.2344,177.4812 C24.9375,177.4812 24.7344,177.575 24.5156,177.8875 L24.3438,177.8093 Z " fill="#000000"/><text fill="#000000" font-family="sans-serif" font-size="12" lengthAdjust="spacing" textLength="56" x="36" y="186.2918">Company</text><line style="stroke:#A80036;stroke-width:1.5;" x1="8" x2="94" y1="198.1375" y2="198.1375"/><text fill="#000000" font-family="sans-serif" font-size="11" lengthAdjust="spacing" textLength="70" x="13" y="212.3479">-designation</text><!--MD5=[052425de1c0eb6cc1c1b48342b0bb88f]
class LaboratoryCoordinator--><rect codeLine="10" fill="#FEFECE" filter="url(#fru148c1rot4i)" height="40" id="LaboratoryCoordinator" style="stroke:#A80036;stroke-width:1.5;" width="168" x="193" y="30.6375"/><ellipse cx="208" cy="46.6375" fill="#ADD1B2" rx="11" ry="11" style="stroke:#A80036;stroke-width:1.0;"/><path d="M210.3438,42.3093 C209.4063,41.8718 208.8125,41.7312 207.9375,41.7312 C205.3125,41.7312 203.3125,43.8093 203.3125,46.5281 L203.3125,47.6531 C203.3125,50.2312 205.4219,52.1218 208.3125,52.1218 C209.5313,52.1218 210.6875,51.825 211.4375,51.2781 C212.0156,50.8718 212.3438,50.4187 212.3438,50.0281 C212.3438,49.575 211.9531,49.1843 211.4844,49.1843 C211.2656,49.1843 211.0625,49.2625 210.875,49.45 C210.4219,49.9343 210.4219,49.9343 210.2344,50.0281 C209.8125,50.2937 209.125,50.4187 208.3594,50.4187 C206.3125,50.4187 205.0156,49.325 205.0156,47.6218 L205.0156,46.5281 C205.0156,44.7468 206.2656,43.4343 208,43.4343 C208.5781,43.4343 209.1875,43.5906 209.6563,43.8406 C210.1406,44.1218 210.3125,44.3406 210.4063,44.7468 C210.4688,45.1531 210.5,45.2781 210.6406,45.4031 C210.7813,45.5437 211.0156,45.6531 211.2344,45.6531 C211.5,45.6531 211.7656,45.5125 211.9375,45.2937 C212.0469,45.1375 212.0781,44.95 212.0781,44.5281 L212.0781,43.1062 C212.0781,42.6687 212.0625,42.5437 211.9688,42.3875 C211.8125,42.1218 211.5313,41.9812 211.2344,41.9812 C210.9375,41.9812 210.7344,42.075 210.5156,42.3875 L210.3438,42.3093 Z " fill="#000000"/><text fill="#000000" font-family="sans-serif" font-size="12" lengthAdjust="spacing" textLength="136" x="222" y="50.7918">LaboratoryCoordinator</text><line style="stroke:#A80036;stroke-width:1.5;" x1="194" x2="360" y1="62.6375" y2="62.6375"/><!--MD5=[f00dbe8c0302c6aec2cb26b3c659c8fc]
class Report--><rect codeLine="14" fill="#FEFECE" filter="url(#fru148c1rot4i)" height="40" id="Report" style="stroke:#A80036;stroke-width:1.5;" width="72" x="640.5" y="157.6375"/><ellipse cx="655.5" cy="173.6375" fill="#ADD1B2" rx="11" ry="11" style="stroke:#A80036;stroke-width:1.0;"/><path d="M657.8438,169.3093 C656.9063,168.8718 656.3125,168.7312 655.4375,168.7312 C652.8125,168.7312 650.8125,170.8093 650.8125,173.5281 L650.8125,174.6531 C650.8125,177.2312 652.9219,179.1218 655.8125,179.1218 C657.0313,179.1218 658.1875,178.825 658.9375,178.2781 C659.5156,177.8718 659.8438,177.4187 659.8438,177.0281 C659.8438,176.575 659.4531,176.1843 658.9844,176.1843 C658.7656,176.1843 658.5625,176.2625 658.375,176.45 C657.9219,176.9343 657.9219,176.9343 657.7344,177.0281 C657.3125,177.2937 656.625,177.4187 655.8594,177.4187 C653.8125,177.4187 652.5156,176.325 652.5156,174.6218 L652.5156,173.5281 C652.5156,171.7468 653.7656,170.4343 655.5,170.4343 C656.0781,170.4343 656.6875,170.5906 657.1563,170.8406 C657.6406,171.1218 657.8125,171.3406 657.9063,171.7468 C657.9688,172.1531 658,172.2781 658.1406,172.4031 C658.2813,172.5437 658.5156,172.6531 658.7344,172.6531 C659,172.6531 659.2656,172.5125 659.4375,172.2937 C659.5469,172.1375 659.5781,171.95 659.5781,171.5281 L659.5781,170.1062 C659.5781,169.6687 659.5625,169.5437 659.4688,169.3875 C659.3125,169.1218 659.0313,168.9812 658.7344,168.9812 C658.4375,168.9812 658.2344,169.075 658.0156,169.3875 L657.8438,169.3093 Z " fill="#000000"/><text fill="#000000" font-family="sans-serif" font-size="12" lengthAdjust="spacing" textLength="40" x="669.5" y="177.7918">Report</text><line style="stroke:#A80036;stroke-width:1.5;" x1="641.5" x2="711.5" y1="189.6375" y2="189.6375"/><!--MD5=[7d96fd15f3014691d2fcaf89c5791e2a]
class SpecialistDoctor--><rect codeLine="18" fill="#FEFECE" filter="url(#fru148c1rot4i)" height="40" id="SpecialistDoctor" style="stroke:#A80036;stroke-width:1.5;" width="131" x="211.5" y="172.6375"/><ellipse cx="226.5" cy="188.6375" fill="#ADD1B2" rx="11" ry="11" style="stroke:#A80036;stroke-width:1.0;"/><path d="M228.8438,184.3093 C227.9063,183.8718 227.3125,183.7312 226.4375,183.7312 C223.8125,183.7312 221.8125,185.8093 221.8125,188.5281 L221.8125,189.6531 C221.8125,192.2312 223.9219,194.1218 226.8125,194.1218 C228.0313,194.1218 229.1875,193.825 229.9375,193.2781 C230.5156,192.8718 230.8438,192.4187 230.8438,192.0281 C230.8438,191.575 230.4531,191.1843 229.9844,191.1843 C229.7656,191.1843 229.5625,191.2625 229.375,191.45 C228.9219,191.9343 228.9219,191.9343 228.7344,192.0281 C228.3125,192.2937 227.625,192.4187 226.8594,192.4187 C224.8125,192.4187 223.5156,191.325 223.5156,189.6218 L223.5156,188.5281 C223.5156,186.7468 224.7656,185.4343 226.5,185.4343 C227.0781,185.4343 227.6875,185.5906 228.1563,185.8406 C228.6406,186.1218 228.8125,186.3406 228.9063,186.7468 C228.9688,187.1531 229,187.2781 229.1406,187.4031 C229.2813,187.5437 229.5156,187.6531 229.7344,187.6531 C230,187.6531 230.2656,187.5125 230.4375,187.2937 C230.5469,187.1375 230.5781,186.95 230.5781,186.5281 L230.5781,185.1062 C230.5781,184.6687 230.5625,184.5437 230.4688,184.3875 C230.3125,184.1218 230.0313,183.9812 229.7344,183.9812 C229.4375,183.9812 229.2344,184.075 229.0156,184.3875 L228.8438,184.3093 Z " fill="#000000"/><text fill="#000000" font-family="sans-serif" font-size="12" lengthAdjust="spacing" textLength="99" x="240.5" y="192.7918">SpecialistDoctor</text><line style="stroke:#A80036;stroke-width:1.5;" x1="212.5" x2="341.5" y1="204.6375" y2="204.6375"/><!--MD5=[10d06bcee75aaf74ab8f6040820ceef2]
class Diagnosis--><rect codeLine="22" fill="#FEFECE" filter="url(#fru148c1rot4i)" height="52.8047" id="Diagnosis" style="stroke:#A80036;stroke-width:1.5;" width="91" x="631" y="52.1375"/><ellipse cx="646" cy="68.1375" fill="#ADD1B2" rx="11" ry="11" style="stroke:#A80036;stroke-width:1.0;"/><path d="M648.3438,63.8093 C647.4063,63.3718 646.8125,63.2312 645.9375,63.2312 C643.3125,63.2312 641.3125,65.3093 641.3125,68.0281 L641.3125,69.1531 C641.3125,71.7312 643.4219,73.6218 646.3125,73.6218 C647.5313,73.6218 648.6875,73.325 649.4375,72.7781 C650.0156,72.3718 650.3438,71.9187 650.3438,71.5281 C650.3438,71.075 649.9531,70.6843 649.4844,70.6843 C649.2656,70.6843 649.0625,70.7625 648.875,70.95 C648.4219,71.4343 648.4219,71.4343 648.2344,71.5281 C647.8125,71.7937 647.125,71.9187 646.3594,71.9187 C644.3125,71.9187 643.0156,70.825 643.0156,69.1218 L643.0156,68.0281 C643.0156,66.2468 644.2656,64.9343 646,64.9343 C646.5781,64.9343 647.1875,65.0906 647.6563,65.3406 C648.1406,65.6218 648.3125,65.8406 648.4063,66.2468 C648.4688,66.6531 648.5,66.7781 648.6406,66.9031 C648.7813,67.0437 649.0156,67.1531 649.2344,67.1531 C649.5,67.1531 649.7656,67.0125 649.9375,66.7937 C650.0469,66.6375 650.0781,66.45 650.0781,66.0281 L650.0781,64.6062 C650.0781,64.1687 650.0625,64.0437 649.9688,63.8875 C649.8125,63.6218 649.5313,63.4812 649.2344,63.4812 C648.9375,63.4812 648.7344,63.575 648.5156,63.8875 L648.3438,63.8093 Z " fill="#000000"/><text fill="#000000" font-family="sans-serif" font-size="12" lengthAdjust="spacing" textLength="59" x="660" y="72.2918">Diagnosis</text><line style="stroke:#A80036;stroke-width:1.5;" x1="632" x2="721" y1="84.1375" y2="84.1375"/><text fill="#000000" font-family="sans-serif" font-size="11" lengthAdjust="spacing" textLength="66" x="637" y="98.3479">-description</text><!--MD5=[80e560c845ce9ec3c8b9ef25ef04dbf1]
class ParameterResult--><rect codeLine="26" fill="#FEFECE" filter="url(#fru148c1rot4i)" height="52.8047" id="ParameterResult" style="stroke:#A80036;stroke-width:1.5;" width="129" x="1172" y="191.1375"/><ellipse cx="1187" cy="207.1375" fill="#ADD1B2" rx="11" ry="11" style="stroke:#A80036;stroke-width:1.0;"/><path d="M1189.3438,202.8093 C1188.4063,202.3718 1187.8125,202.2312 1186.9375,202.2312 C1184.3125,202.2312 1182.3125,204.3093 1182.3125,207.0281 L1182.3125,208.1531 C1182.3125,210.7312 1184.4219,212.6218 1187.3125,212.6218 C1188.5313,212.6218 1189.6875,212.325 1190.4375,211.7781 C1191.0156,211.3718 1191.3438,210.9187 1191.3438,210.5281 C1191.3438,210.075 1190.9531,209.6843 1190.4844,209.6843 C1190.2656,209.6843 1190.0625,209.7625 1189.875,209.95 C1189.4219,210.4343 1189.4219,210.4343 1189.2344,210.5281 C1188.8125,210.7937 1188.125,210.9187 1187.3594,210.9187 C1185.3125,210.9187 1184.0156,209.825 1184.0156,208.1218 L1184.0156,207.0281 C1184.0156,205.2468 1185.2656,203.9343 1187,203.9343 C1187.5781,203.9343 1188.1875,204.0906 1188.6563,204.3406 C1189.1406,204.6218 1189.3125,204.8406 1189.4063,205.2468 C1189.4688,205.6531 1189.5,205.7781 1189.6406,205.9031 C1189.7813,206.0437 1190.0156,206.1531 1190.2344,206.1531 C1190.5,206.1531 1190.7656,206.0125 1190.9375,205.7937 C1191.0469,205.6375 1191.0781,205.45 1191.0781,205.0281 L1191.0781,203.6062 C1191.0781,203.1687 1191.0625,203.0437 1190.9688,202.8875 C1190.8125,202.6218 1190.5313,202.4812 1190.2344,202.4812 C1189.9375,202.4812 1189.7344,202.575 1189.5156,202.8875 L1189.3438,202.8093 Z " fill="#000000"/><text fill="#000000" font-family="sans-serif" font-size="12" lengthAdjust="spacing" textLength="97" x="1201" y="211.2918">ParameterResult</text><line style="stroke:#A80036;stroke-width:1.5;" x1="1173" x2="1300" y1="223.1375" y2="223.1375"/><text fill="#000000" font-family="sans-serif" font-size="11" lengthAdjust="spacing" textLength="97" x="1178" y="237.3479">-parameterValue</text><!--MD5=[012ee2a8bf3ae2b319009b06f951c2e5]
class ClinicalChemistryTechnologist--><rect codeLine="31" fill="#FEFECE" filter="url(#fru148c1rot4i)" height="40" id="ClinicalChemistryTechnologist" style="stroke:#A80036;stroke-width:1.5;" width="210" x="391" y="287.6371"/><ellipse cx="406" cy="303.6371" fill="#ADD1B2" rx="11" ry="11" style="stroke:#A80036;stroke-width:1.0;"/><path d="M408.3438,299.3089 C407.4063,298.8714 406.8125,298.7308 405.9375,298.7308 C403.3125,298.7308 401.3125,300.8089 401.3125,303.5277 L401.3125,304.6527 C401.3125,307.2308 403.4219,309.1214 406.3125,309.1214 C407.5313,309.1214 408.6875,308.8246 409.4375,308.2777 C410.0156,307.8714 410.3438,307.4183 410.3438,307.0277 C410.3438,306.5746 409.9531,306.1839 409.4844,306.1839 C409.2656,306.1839 409.0625,306.2621 408.875,306.4496 C408.4219,306.9339 408.4219,306.9339 408.2344,307.0277 C407.8125,307.2933 407.125,307.4183 406.3594,307.4183 C404.3125,307.4183 403.0156,306.3246 403.0156,304.6214 L403.0156,303.5277 C403.0156,301.7464 404.2656,300.4339 406,300.4339 C406.5781,300.4339 407.1875,300.5902 407.6563,300.8402 C408.1406,301.1214 408.3125,301.3402 408.4063,301.7464 C408.4688,302.1527 408.5,302.2777 408.6406,302.4027 C408.7813,302.5433 409.0156,302.6527 409.2344,302.6527 C409.5,302.6527 409.7656,302.5121 409.9375,302.2933 C410.0469,302.1371 410.0781,301.9496 410.0781,301.5277 L410.0781,300.1058 C410.0781,299.6683 410.0625,299.5433 409.9688,299.3871 C409.8125,299.1214 409.5313,298.9808 409.2344,298.9808 C408.9375,298.9808 408.7344,299.0746 408.5156,299.3871 L408.3438,299.3089 Z " fill="#000000"/><text fill="#000000" font-family="sans-serif" font-size="12" lengthAdjust="spacing" textLength="178" x="420" y="307.7914">ClinicalChemistryTechnologist</text><line style="stroke:#A80036;stroke-width:1.5;" x1="392" x2="600" y1="319.6371" y2="319.6371"/><!--MD5=[df38be88ccee13e832d6fafd6288a4ca]
class Test--><rect codeLine="35" fill="#FEFECE" filter="url(#fru148c1rot4i)" height="40" id="Test" style="stroke:#A80036;stroke-width:1.5;" width="58" x="929" y="157.6375"/><ellipse cx="944" cy="173.6375" fill="#ADD1B2" rx="11" ry="11" style="stroke:#A80036;stroke-width:1.0;"/><path d="M946.3438,169.3093 C945.4063,168.8718 944.8125,168.7312 943.9375,168.7312 C941.3125,168.7312 939.3125,170.8093 939.3125,173.5281 L939.3125,174.6531 C939.3125,177.2312 941.4219,179.1218 944.3125,179.1218 C945.5313,179.1218 946.6875,178.825 947.4375,178.2781 C948.0156,177.8718 948.3438,177.4187 948.3438,177.0281 C948.3438,176.575 947.9531,176.1843 947.4844,176.1843 C947.2656,176.1843 947.0625,176.2625 946.875,176.45 C946.4219,176.9343 946.4219,176.9343 946.2344,177.0281 C945.8125,177.2937 945.125,177.4187 944.3594,177.4187 C942.3125,177.4187 941.0156,176.325 941.0156,174.6218 L941.0156,173.5281 C941.0156,171.7468 942.2656,170.4343 944,170.4343 C944.5781,170.4343 945.1875,170.5906 945.6563,170.8406 C946.1406,171.1218 946.3125,171.3406 946.4063,171.7468 C946.4688,172.1531 946.5,172.2781 946.6406,172.4031 C946.7813,172.5437 947.0156,172.6531 947.2344,172.6531 C947.5,172.6531 947.7656,172.5125 947.9375,172.2937 C948.0469,172.1375 948.0781,171.95 948.0781,171.5281 L948.0781,170.1062 C948.0781,169.6687 948.0625,169.5437 947.9688,169.3875 C947.8125,169.1218 947.5313,168.9812 947.2344,168.9812 C946.9375,168.9812 946.7344,169.075 946.5156,169.3875 L946.3438,169.3093 Z " fill="#000000"/><text fill="#000000" font-family="sans-serif" font-size="12" lengthAdjust="spacing" textLength="26" x="958" y="177.7918">Test</text><line style="stroke:#A80036;stroke-width:1.5;" x1="930" x2="986" y1="189.6375" y2="189.6375"/><!--MD5=[baa6ff38ec20def42e063e01f85f91ae]
link Company to LaboratoryCoordinator--><path codeLine="41" d="M93.8699,166.0945 C137.43,138.4805 204.673,95.8535 244.111,70.8525 " fill="none" id="Company-LaboratoryCoordinator" style="stroke:#A80036;stroke-width:1.0;"/><polygon fill="#000000" points="134.223,114.5268,125.01,116.8875,128.1571,121.8519,134.223,114.5268" style="stroke:#000000;stroke-width:1.0;"/><text fill="#000000" font-family="sans-serif" font-size="13" lengthAdjust="spacing" textLength="23" x="139" y="121.7044">has</text><text fill="#000000" font-family="sans-serif" font-size="13" lengthAdjust="spacing" textLength="8" x="95.3444" y="154.9034">1</text><text fill="#000000" font-family="sans-serif" font-size="13" lengthAdjust="spacing" textLength="7" x="226.8766" y="90.7329">*</text><!--MD5=[137816425ceb0c0d2300eee5a01b984a]
link Company to SpecialistDoctor--><path codeLine="42" d="M95.1895,192.6375 C128.117,192.6375 173.999,192.6375 211.304,192.6375 " fill="none" id="Company-SpecialistDoctor" style="stroke:#A80036;stroke-width:1.0;"/><polygon fill="#000000" points="135,184.2039,125.9549,181.265,125.9549,187.1428,135,184.2039" style="stroke:#000000;stroke-width:1.0;"/><text fill="#000000" font-family="sans-serif" font-size="13" lengthAdjust="spacing" textLength="23" x="139" y="188.7044">has</text><text fill="#000000" font-family="sans-serif" font-size="13" lengthAdjust="spacing" textLength="8" x="102.8697" y="205.9258">1</text><text fill="#000000" font-family="sans-serif" font-size="13" lengthAdjust="spacing" textLength="7" x="196.3032" y="205.5792">*</text><!--MD5=[1ca3dfffd6d11e2dcc22d81a95bb4023]
link Company to ClinicalChemistryTechnologist--><path codeLine="43" d="M95.0245,208.1005 C104.8236,211.4185 115.228,214.7815 125,217.6375 C218.597,244.9855 327.169,270.6968 402.387,287.5786 " fill="none" id="Company-ClinicalChemistryTechnologist" style="stroke:#A80036;stroke-width:1.0;"/><polygon fill="#000000" points="134.8408,210.4556,126.8195,205.3459,125.348,211.0365,134.8408,210.4556" style="stroke:#000000;stroke-width:1.0;"/><text fill="#000000" font-family="sans-serif" font-size="13" lengthAdjust="spacing" textLength="23" x="139" y="213.7044">has</text><text fill="#000000" font-family="sans-serif" font-size="13" lengthAdjust="spacing" textLength="8" x="102.9786" y="223.9978">1</text><text fill="#000000" font-family="sans-serif" font-size="13" lengthAdjust="spacing" textLength="7" x="376.2679" y="279.233">*</text><!--MD5=[35c5d5b78cc27fdb07caaeeaa436e174]
link SpecialistDoctor to Report--><path codeLine="44" d="M342.612,198.0625 C408.006,202.4235 511.904,206.2475 601,195.6375 C613.949,194.0955 627.901,191.0955 640.191,187.9815 " fill="none" id="SpecialistDoctor-Report" style="stroke:#A80036;stroke-width:1.0;"/><polygon fill="#000000" points="478.9971,187.0346,469.8577,184.4036,470.0567,190.2781,478.9971,187.0346" style="stroke:#000000;stroke-width:1.0;"/><text fill="#000000" font-family="sans-serif" font-size="13" lengthAdjust="spacing" textLength="39" x="483" y="191.7044">writes</text><text fill="#000000" font-family="sans-serif" font-size="13" lengthAdjust="spacing" textLength="8" x="350.6609" y="194.8971">1</text><text fill="#000000" font-family="sans-serif" font-size="13" lengthAdjust="spacing" textLength="8" x="624.5071" y="203.4625">1</text><!--MD5=[ea4a37a070b547a484eb1acc58a2b0bb]
link SpecialistDoctor to Diagnosis--><path codeLine="45" d="M342.648,182.2505 C435.216,167.3175 595.116,141.2775 601,138.6375 C618.879,130.6135 636.104,117.2395 649.48,105.1515 " fill="none" id="SpecialistDoctor-Diagnosis" style="stroke:#A80036;stroke-width:1.0;"/><polygon fill="#000000" points="476.8493,128.9854,467.3607,128.3393,468.7931,134.04,476.8493,128.9854" style="stroke:#000000;stroke-width:1.0;"/><text fill="#000000" font-family="sans-serif" font-size="13" lengthAdjust="spacing" textLength="43" x="481" y="134.7044">makes</text><text fill="#000000" font-family="sans-serif" font-size="13" lengthAdjust="spacing" textLength="8" x="350.7011" y="177.2569">1</text><text fill="#000000" font-family="sans-serif" font-size="13" lengthAdjust="spacing" textLength="23" x="617.5723" y="125.122">1..*</text><!--MD5=[7d825deaa3c1b8fecb9f5eabaa9b99ee]
link SpecialistDoctor to ParameterResult--><path codeLine="46" d="M342.67,203.7795 C358.437,206.1045 375.288,208.2645 391,209.6375 C681.669,235.0355 1030.74,225.7815 1171.77,220.4015 " fill="none" id="SpecialistDoctor-ParameterResult" style="stroke:#A80036;stroke-width:1.0;"/><polygon fill="#000000" points="801.999,217.3041,793.0146,214.1845,792.8968,220.0611,801.999,217.3041" style="stroke:#000000;stroke-width:1.0;"/><text fill="#000000" font-family="sans-serif" font-size="13" lengthAdjust="spacing" textLength="52" x="806" y="221.7044">analysis</text><text fill="#000000" font-family="sans-serif" font-size="13" lengthAdjust="spacing" textLength="8" x="350.2902" y="217.8926">1</text><text fill="#000000" font-family="sans-serif" font-size="13" lengthAdjust="spacing" textLength="23" x="1140.9088" y="233.5438">1..*</text><!--MD5=[ff45e86ffcf19d3f3fb7531e16bd7c99]
link LaboratoryCoordinator to Diagnosis--><path codeLine="47" d="M361.032,48.5245 C426.502,47.9855 519.963,49.7115 601,60.6375 C610.758,61.9525 621.1,64.0115 630.873,66.2745 " fill="none" id="LaboratoryCoordinator-Diagnosis" style="stroke:#A80036;stroke-width:1.0;"/><polygon fill="#000000" points="469.4892,39.5321,460.6565,36.0058,460.2707,41.871,469.4892,39.5321" style="stroke:#000000;stroke-width:1.0;"/><text fill="#000000" font-family="sans-serif" font-size="13" lengthAdjust="spacing" textLength="58" x="473.5" y="43.7044">validates</text><text fill="#000000" font-family="sans-serif" font-size="13" lengthAdjust="spacing" textLength="8" x="368.8724" y="61.0771">1</text><text fill="#000000" font-family="sans-serif" font-size="13" lengthAdjust="spacing" textLength="7" x="616.0434" y="77.5925">*</text><!--MD5=[848c8065b29fb9bba3c9b45c1c07083f]
link LaboratoryCoordinator to Report--><path codeLine="48" d="M336.78,70.6635 C354.1,76.0675 373.186,81.5455 391,85.6375 C483.014,106.7735 514.588,79.6055 601,117.6375 C622.28,127.0035 642.566,144.0695 656.581,157.6125 " fill="none" id="LaboratoryCoordinator-Report" style="stroke:#A80036;stroke-width:1.0;"/><polygon fill="#000000" points="469.3248,78.5157,461.3677,73.3066,459.8256,78.9786,469.3248,78.5157" style="stroke:#000000;stroke-width:1.0;"/><text fill="#000000" font-family="sans-serif" font-size="13" lengthAdjust="spacing" textLength="58" x="473.5" y="81.7044">validates</text><text fill="#000000" font-family="sans-serif" font-size="13" lengthAdjust="spacing" textLength="8" x="345.1654" y="90.8356">1</text><text fill="#000000" font-family="sans-serif" font-size="13" lengthAdjust="spacing" textLength="7" x="642.7017" y="146.6134">*</text><!--MD5=[16b5f8c2c6a74e98fcfba8a1e767c369]
link LaboratoryCoordinator to ParameterResult--><path codeLine="49" d="M347.429,30.6275 C361.721,27.3035 376.756,24.3755 391,22.6375 C483.646,11.3295 507.781,18.0255 601,22.6375 C848.841,34.8965 915.368,59.5755 1142,160.6375 C1160.75,168.9995 1180.32,180.4505 1196.68,190.8965 " fill="none" id="LaboratoryCoordinator-ParameterResult" style="stroke:#A80036;stroke-width:1.0;"/><polygon fill="#000000" points="798.9133,26.1311,790.5701,21.5658,789.4801,27.3417,798.9133,26.1311" style="stroke:#000000;stroke-width:1.0;"/><text fill="#000000" font-family="sans-serif" font-size="13" lengthAdjust="spacing" textLength="58" x="803" y="29.7044">validates</text><text fill="#000000" font-family="sans-serif" font-size="13" lengthAdjust="spacing" textLength="8" x="358.9425" y="19.6328">1</text><text fill="#000000" font-family="sans-serif" font-size="13" lengthAdjust="spacing" textLength="7" x="1179.6623" y="180.0831">*</text><!--MD5=[07baaabf6b2244de2e134c53bc689618]
link ClinicalChemistryTechnologist to ParameterResult--><path codeLine="50" d="M601.275,321.2275 C732.008,334.1367 960.928,342.9316 1142,276.6371 C1162.91,268.9822 1184.07,256.1506 1200.95,244.4053 " fill="none" id="ClinicalChemistryTechnologist-ParameterResult" style="stroke:#A80036;stroke-width:1.0;"/><polygon fill="#000000" points="803.9595,316.5681,794.6143,314.8024,795.3611,320.6326,803.9595,316.5681" style="stroke:#000000;stroke-width:1.0;"/><text fill="#000000" font-family="sans-serif" font-size="13" lengthAdjust="spacing" textLength="48" x="808" y="321.704">records</text><text fill="#000000" font-family="sans-serif" font-size="13" lengthAdjust="spacing" textLength="8" x="608.9584" y="334.782">1</text><text fill="#000000" font-family="sans-serif" font-size="13" lengthAdjust="spacing" textLength="7" x="1185.4078" y="264.0041">*</text><!--MD5=[3176281dfb34e7fae32060ece8ad45db]
link Test to ParameterResult--><path codeLine="51" d="M987.034,181.6925 C1030.08,187.9195 1113.56,199.9965 1171.83,208.4255 " fill="none" id="Test-ParameterResult" style="stroke:#A80036;stroke-width:1.0;"/><polygon fill="#000000" points="1026.9485,177.9197,1018.4174,173.7161,1017.5758,179.5334,1026.9485,177.9197" style="stroke:#000000;stroke-width:1.0;"/><text fill="#000000" font-family="sans-serif" font-size="13" lengthAdjust="spacing" textLength="110" x="1031" y="181.7044">obtained through</text><text fill="#000000" font-family="sans-serif" font-size="13" lengthAdjust="spacing" textLength="23" x="995.0141" y="196.0473">1..*</text><text fill="#000000" font-family="sans-serif" font-size="13" lengthAdjust="spacing" textLength="8" x="1155.89" y="203.579">1</text><!--MD5=[63d25d625ab355317a074a623d33bba8]
link Report to Test--><path codeLine="52" d="M712.616,177.6375 C768.77,177.6375 877.663,177.6375 928.971,177.6375 " fill="none" id="Report-Test" style="stroke:#A80036;stroke-width:1.0;"/><polygon fill="#000000" points="762,169.2039,752.9549,166.265,752.9549,172.1428,762,169.2039" style="stroke:#000000;stroke-width:1.0;"/><text fill="#000000" font-family="sans-serif" font-size="13" lengthAdjust="spacing" textLength="132" x="766" y="173.7044">created according to</text><text fill="#000000" font-family="sans-serif" font-size="13" lengthAdjust="spacing" textLength="8" x="720.5138" y="191.194">1</text><text fill="#000000" font-family="sans-serif" font-size="13" lengthAdjust="spacing" textLength="8" x="912.9202" y="191.5487">1</text><!--MD5=[13a6b8549adb4a999eb4e924d45bc8d2]
@startuml
hide methods
left to right direction
skinparam classAttributeIconSize 0


class Company {
  -designation
}

class LaboratoryCoordinator {

}

class Report {

}

class SpecialistDoctor {
  
}

class Diagnosis {
  - description
}

class ParameterResult {
  - parameterValue

}

class ClinicalChemistryTechnologist {

}

class Test {

}



Company "1" - - "*" LaboratoryCoordinator : has  >
Company "1" - - "*" SpecialistDoctor : has >
Company "1" - - "*" ClinicalChemistryTechnologist: has >
SpecialistDoctor "1" - - "1" Report: writes >
SpecialistDoctor "1" - - "1..*" Diagnosis: makes >
SpecialistDoctor "1" - - "1..*" ParameterResult: analysis >
LaboratoryCoordinator "1" - - "*" Diagnosis: validates >
LaboratoryCoordinator "1" - - "*" Report: validates >
LaboratoryCoordinator "1" - - "*" ParameterResult: validates >
ClinicalChemistryTechnologist "1" - - "*" ParameterResult: records >
Test "1..*" - - "1" ParameterResult: obtained through >
Report "1" - - "1" Test: created according to >
@enduml

PlantUML version 1.2021.7(Sun May 23 12:40:07 UTC 2021)
(GPL source distribution)
Java Runtime: Java(TM) SE Runtime Environment
JVM: Java HotSpot(TM) 64-Bit Server VM
Default Encoding: UTF-8
Language: en
Country: US
--></g></svg>