<?xml version="1.0" encoding="UTF-8" standalone="no"?><svg xmlns="http://www.w3.org/2000/svg" xmlns:xlink="http://www.w3.org/1999/xlink" contentScriptType="application/ecmascript" contentStyleType="text/css" height="754px" preserveAspectRatio="none" style="width:575px;height:754px;background:#FFFFFF;" version="1.1" viewBox="0 0 575 754" width="575px" zoomAndPan="magnify"><defs><filter height="300%" id="fjktehwufck35" width="300%" x="-1" y="-1"><feGaussianBlur result="blurOut" stdDeviation="2.0"/><feColorMatrix in="blurOut" result="blurOut2" type="matrix" values="0 0 0 0 0 0 0 0 0 0 0 0 0 0 0 0 0 0 .4 0"/><feOffset dx="4.0" dy="4.0" in="blurOut2" result="blurOut3"/><feBlend in="SourceGraphic" in2="blurOut3" mode="normal"/></filter></defs><g><!--MD5=[02e4b9b7573f1156f41e60aa5b4e25a4]
class Company--><rect codeLine="3" fill="#FEFECE" filter="url(#fjktehwufck35)" height="86.4141" id="Company" style="stroke:#A80036;stroke-width:1.5;" width="119" x="21.5" y="251"/><ellipse cx="50.45" cy="267" fill="#ADD1B2" rx="11" ry="11" style="stroke:#A80036;stroke-width:1.0;"/><path d="M52.7938,262.6719 C51.8563,262.2344 51.2625,262.0938 50.3875,262.0938 C47.7625,262.0938 45.7625,264.1719 45.7625,266.8906 L45.7625,268.0156 C45.7625,270.5938 47.8719,272.4844 50.7625,272.4844 C51.9813,272.4844 53.1375,272.1875 53.8875,271.6406 C54.4656,271.2344 54.7938,270.7813 54.7938,270.3906 C54.7938,269.9375 54.4031,269.5469 53.9344,269.5469 C53.7156,269.5469 53.5125,269.625 53.325,269.8125 C52.8719,270.2969 52.8719,270.2969 52.6844,270.3906 C52.2625,270.6563 51.575,270.7813 50.8094,270.7813 C48.7625,270.7813 47.4656,269.6875 47.4656,267.9844 L47.4656,266.8906 C47.4656,265.1094 48.7156,263.7969 50.45,263.7969 C51.0281,263.7969 51.6375,263.9531 52.1063,264.2031 C52.5906,264.4844 52.7625,264.7031 52.8563,265.1094 C52.9188,265.5156 52.95,265.6406 53.0906,265.7656 C53.2313,265.9063 53.4656,266.0156 53.6844,266.0156 C53.95,266.0156 54.2156,265.875 54.3875,265.6563 C54.4969,265.5 54.5281,265.3125 54.5281,264.8906 L54.5281,263.4688 C54.5281,263.0313 54.5125,262.9063 54.4188,262.75 C54.2625,262.4844 53.9813,262.3438 53.6844,262.3438 C53.3875,262.3438 53.1844,262.4375 52.9656,262.75 L52.7938,262.6719 Z " fill="#000000"/><text fill="#000000" font-family="sans-serif" font-size="12" lengthAdjust="spacing" textLength="56" x="67.55" y="271.1543">Company</text><line style="stroke:#A80036;stroke-width:1.5;" x1="22.5" x2="139.5" y1="283" y2="283"/><text fill="#000000" font-family="sans-serif" font-size="11" lengthAdjust="spacing" textLength="107" x="27.5" y="297.2104">-String designation</text><line style="stroke:#A80036;stroke-width:1.5;" x1="22.5" x2="139.5" y1="303.8047" y2="303.8047"/><text fill="#000000" font-family="sans-serif" font-size="11" lengthAdjust="spacing" textLength="92" x="27.5" y="318.0151">+getTestStore()</text><text fill="#000000" font-family="sans-serif" font-size="11" lengthAdjust="spacing" textLength="67" x="27.5" y="330.8198">+getTests()</text><!--MD5=[df38be88ccee13e832d6fafd6288a4ca]
class Test--><rect codeLine="11" fill="#FEFECE" filter="url(#fjktehwufck35)" height="150.4375" id="Test" style="stroke:#A80036;stroke-width:1.5;" width="185" x="144.5" y="590"/><ellipse cx="219.75" cy="606" fill="#ADD1B2" rx="11" ry="11" style="stroke:#A80036;stroke-width:1.0;"/><path d="M222.0938,601.6719 C221.1563,601.2344 220.5625,601.0938 219.6875,601.0938 C217.0625,601.0938 215.0625,603.1719 215.0625,605.8906 L215.0625,607.0156 C215.0625,609.5938 217.1719,611.4844 220.0625,611.4844 C221.2813,611.4844 222.4375,611.1875 223.1875,610.6406 C223.7656,610.2344 224.0938,609.7813 224.0938,609.3906 C224.0938,608.9375 223.7031,608.5469 223.2344,608.5469 C223.0156,608.5469 222.8125,608.625 222.625,608.8125 C222.1719,609.2969 222.1719,609.2969 221.9844,609.3906 C221.5625,609.6563 220.875,609.7813 220.1094,609.7813 C218.0625,609.7813 216.7656,608.6875 216.7656,606.9844 L216.7656,605.8906 C216.7656,604.1094 218.0156,602.7969 219.75,602.7969 C220.3281,602.7969 220.9375,602.9531 221.4063,603.2031 C221.8906,603.4844 222.0625,603.7031 222.1563,604.1094 C222.2188,604.5156 222.25,604.6406 222.3906,604.7656 C222.5313,604.9063 222.7656,605.0156 222.9844,605.0156 C223.25,605.0156 223.5156,604.875 223.6875,604.6563 C223.7969,604.5 223.8281,604.3125 223.8281,603.8906 L223.8281,602.4688 C223.8281,602.0313 223.8125,601.9063 223.7188,601.75 C223.5625,601.4844 223.2813,601.3438 222.9844,601.3438 C222.6875,601.3438 222.4844,601.4375 222.2656,601.75 L222.0938,601.6719 Z " fill="#000000"/><text fill="#000000" font-family="sans-serif" font-size="12" lengthAdjust="spacing" textLength="26" x="240.25" y="610.1543">Test</text><line style="stroke:#A80036;stroke-width:1.5;" x1="145.5" x2="328.5" y1="622" y2="622"/><text fill="#000000" font-family="sans-serif" font-size="11" lengthAdjust="spacing" textLength="50" x="150.5" y="636.2104">-int code</text><text fill="#000000" font-family="sans-serif" font-size="11" lengthAdjust="spacing" textLength="91" x="150.5" y="649.0151">-String nhsCode</text><text fill="#000000" font-family="sans-serif" font-size="11" lengthAdjust="spacing" textLength="173" x="150.5" y="661.8198">-List &lt;TestType&gt; listTestType</text><text fill="#000000" font-family="sans-serif" font-size="11" lengthAdjust="spacing" textLength="92" x="150.5" y="674.6245">-Date createdAt</text><text fill="#000000" font-family="sans-serif" font-size="11" lengthAdjust="spacing" textLength="103" x="150.5" y="687.4292">-Date resultRegist</text><line style="stroke:#A80036;stroke-width:1.5;" x1="145.5" x2="328.5" y1="694.0234" y2="694.0234"/><text fill="#000000" font-family="sans-serif" font-size="11" lengthAdjust="spacing" textLength="42" x="150.5" y="708.2339">+Test()</text><text fill="#000000" font-family="sans-serif" font-size="11" lengthAdjust="spacing" textLength="94" x="150.5" y="721.0386">+getCreatedAt()</text><text fill="#000000" font-family="sans-serif" font-size="11" lengthAdjust="spacing" textLength="106" x="150.5" y="733.8433">+getResultRegist()</text><!--MD5=[0f6f7964b844a64b0496af0dda7914bd]
class TestStore--><rect codeLine="22" fill="#FEFECE" filter="url(#fjktehwufck35)" height="73.6094" id="TestStore" style="stroke:#A80036;stroke-width:1.5;" width="148" x="7" y="426.5"/><ellipse cx="47.65" cy="442.5" fill="#ADD1B2" rx="11" ry="11" style="stroke:#A80036;stroke-width:1.0;"/><path d="M49.9938,438.1719 C49.0563,437.7344 48.4625,437.5938 47.5875,437.5938 C44.9625,437.5938 42.9625,439.6719 42.9625,442.3906 L42.9625,443.5156 C42.9625,446.0938 45.0719,447.9844 47.9625,447.9844 C49.1813,447.9844 50.3375,447.6875 51.0875,447.1406 C51.6656,446.7344 51.9938,446.2813 51.9938,445.8906 C51.9938,445.4375 51.6031,445.0469 51.1344,445.0469 C50.9156,445.0469 50.7125,445.125 50.525,445.3125 C50.0719,445.7969 50.0719,445.7969 49.8844,445.8906 C49.4625,446.1563 48.775,446.2813 48.0094,446.2813 C45.9625,446.2813 44.6656,445.1875 44.6656,443.4844 L44.6656,442.3906 C44.6656,440.6094 45.9156,439.2969 47.65,439.2969 C48.2281,439.2969 48.8375,439.4531 49.3063,439.7031 C49.7906,439.9844 49.9625,440.2031 50.0563,440.6094 C50.1188,441.0156 50.15,441.1406 50.2906,441.2656 C50.4313,441.4063 50.6656,441.5156 50.8844,441.5156 C51.15,441.5156 51.4156,441.375 51.5875,441.1563 C51.6969,441 51.7281,440.8125 51.7281,440.3906 L51.7281,438.9688 C51.7281,438.5313 51.7125,438.4063 51.6188,438.25 C51.4625,437.9844 51.1813,437.8438 50.8844,437.8438 C50.5875,437.8438 50.3844,437.9375 50.1656,438.25 L49.9938,438.1719 Z " fill="#000000"/><text fill="#000000" font-family="sans-serif" font-size="12" lengthAdjust="spacing" textLength="59" x="67.35" y="446.6543">TestStore</text><line style="stroke:#A80036;stroke-width:1.5;" x1="8" x2="154" y1="458.5" y2="458.5"/><line style="stroke:#A80036;stroke-width:1.5;" x1="8" x2="154" y1="466.5" y2="466.5"/><text fill="#000000" font-family="sans-serif" font-size="11" lengthAdjust="spacing" textLength="136" x="13" y="480.7104">+getTestByCode(Code)</text><text fill="#000000" font-family="sans-serif" font-size="11" lengthAdjust="spacing" textLength="110" x="13" y="493.5151">+validateTest(test)</text><!--MD5=[db921183028456ae22ec890b9d583b60]
class ValidateWorkDoneController--><rect codeLine="28" fill="#FEFECE" filter="url(#fjktehwufck35)" height="73.6094" id="ValidateWorkDoneController" style="stroke:#A80036;stroke-width:1.5;" width="203" x="92.5" y="116"/><ellipse cx="107.5" cy="132" fill="#ADD1B2" rx="11" ry="11" style="stroke:#A80036;stroke-width:1.0;"/><path d="M109.8438,127.6719 C108.9063,127.2344 108.3125,127.0938 107.4375,127.0938 C104.8125,127.0938 102.8125,129.1719 102.8125,131.8906 L102.8125,133.0156 C102.8125,135.5938 104.9219,137.4844 107.8125,137.4844 C109.0313,137.4844 110.1875,137.1875 110.9375,136.6406 C111.5156,136.2344 111.8438,135.7813 111.8438,135.3906 C111.8438,134.9375 111.4531,134.5469 110.9844,134.5469 C110.7656,134.5469 110.5625,134.625 110.375,134.8125 C109.9219,135.2969 109.9219,135.2969 109.7344,135.3906 C109.3125,135.6563 108.625,135.7813 107.8594,135.7813 C105.8125,135.7813 104.5156,134.6875 104.5156,132.9844 L104.5156,131.8906 C104.5156,130.1094 105.7656,128.7969 107.5,128.7969 C108.0781,128.7969 108.6875,128.9531 109.1563,129.2031 C109.6406,129.4844 109.8125,129.7031 109.9063,130.1094 C109.9688,130.5156 110,130.6406 110.1406,130.7656 C110.2813,130.9063 110.5156,131.0156 110.7344,131.0156 C111,131.0156 111.2656,130.875 111.4375,130.6563 C111.5469,130.5 111.5781,130.3125 111.5781,129.8906 L111.5781,128.4688 C111.5781,128.0313 111.5625,127.9063 111.4688,127.75 C111.3125,127.4844 111.0313,127.3438 110.7344,127.3438 C110.4375,127.3438 110.2344,127.4375 110.0156,127.75 L109.8438,127.6719 Z " fill="#000000"/><text fill="#000000" font-family="sans-serif" font-size="12" lengthAdjust="spacing" textLength="171" x="121.5" y="136.1543">ValidateWorkDoneController</text><line style="stroke:#A80036;stroke-width:1.5;" x1="93.5" x2="294.5" y1="148" y2="148"/><line style="stroke:#A80036;stroke-width:1.5;" x1="93.5" x2="294.5" y1="156" y2="156"/><text fill="#000000" font-family="sans-serif" font-size="11" lengthAdjust="spacing" textLength="67" x="98.5" y="170.2104">+getTests()</text><text fill="#000000" font-family="sans-serif" font-size="11" lengthAdjust="spacing" textLength="110" x="98.5" y="183.0151">+validateTest(test)</text><!--MD5=[81bb5adcf338171fdcf2b9c1599aa745]
class ValidateWorkDoneUI--><rect codeLine="33" fill="#FEFECE" filter="url(#fjktehwufck35)" height="48" id="ValidateWorkDoneUI" style="stroke:#A80036;stroke-width:1.5;" width="156" x="116" y="7"/><ellipse cx="131" cy="23" fill="#ADD1B2" rx="11" ry="11" style="stroke:#A80036;stroke-width:1.0;"/><path d="M133.3438,18.6719 C132.4063,18.2344 131.8125,18.0938 130.9375,18.0938 C128.3125,18.0938 126.3125,20.1719 126.3125,22.8906 L126.3125,24.0156 C126.3125,26.5938 128.4219,28.4844 131.3125,28.4844 C132.5313,28.4844 133.6875,28.1875 134.4375,27.6406 C135.0156,27.2344 135.3438,26.7813 135.3438,26.3906 C135.3438,25.9375 134.9531,25.5469 134.4844,25.5469 C134.2656,25.5469 134.0625,25.625 133.875,25.8125 C133.4219,26.2969 133.4219,26.2969 133.2344,26.3906 C132.8125,26.6563 132.125,26.7813 131.3594,26.7813 C129.3125,26.7813 128.0156,25.6875 128.0156,23.9844 L128.0156,22.8906 C128.0156,21.1094 129.2656,19.7969 131,19.7969 C131.5781,19.7969 132.1875,19.9531 132.6563,20.2031 C133.1406,20.4844 133.3125,20.7031 133.4063,21.1094 C133.4688,21.5156 133.5,21.6406 133.6406,21.7656 C133.7813,21.9063 134.0156,22.0156 134.2344,22.0156 C134.5,22.0156 134.7656,21.875 134.9375,21.6563 C135.0469,21.5 135.0781,21.3125 135.0781,20.8906 L135.0781,19.4688 C135.0781,19.0313 135.0625,18.9063 134.9688,18.75 C134.8125,18.4844 134.5313,18.3438 134.2344,18.3438 C133.9375,18.3438 133.7344,18.4375 133.5156,18.75 L133.3438,18.6719 Z " fill="#000000"/><text fill="#000000" font-family="sans-serif" font-size="12" lengthAdjust="spacing" textLength="124" x="145" y="27.1543">ValidateWorkDoneUI</text><line style="stroke:#A80036;stroke-width:1.5;" x1="117" x2="271" y1="39" y2="39"/><line style="stroke:#A80036;stroke-width:1.5;" x1="117" x2="271" y1="47" y2="47"/><!--MD5=[144698ec4d0188f6929a3b58a3eeb1f6]
class TestMapper--><rect codeLine="37" fill="#FEFECE" filter="url(#fjktehwufck35)" height="60.8047" id="TestMapper" style="stroke:#A80036;stroke-width:1.5;" width="104" x="261" y="263.5"/><ellipse cx="276" cy="279.5" fill="#ADD1B2" rx="11" ry="11" style="stroke:#A80036;stroke-width:1.0;"/><path d="M278.3438,275.1719 C277.4063,274.7344 276.8125,274.5938 275.9375,274.5938 C273.3125,274.5938 271.3125,276.6719 271.3125,279.3906 L271.3125,280.5156 C271.3125,283.0938 273.4219,284.9844 276.3125,284.9844 C277.5313,284.9844 278.6875,284.6875 279.4375,284.1406 C280.0156,283.7344 280.3438,283.2813 280.3438,282.8906 C280.3438,282.4375 279.9531,282.0469 279.4844,282.0469 C279.2656,282.0469 279.0625,282.125 278.875,282.3125 C278.4219,282.7969 278.4219,282.7969 278.2344,282.8906 C277.8125,283.1563 277.125,283.2813 276.3594,283.2813 C274.3125,283.2813 273.0156,282.1875 273.0156,280.4844 L273.0156,279.3906 C273.0156,277.6094 274.2656,276.2969 276,276.2969 C276.5781,276.2969 277.1875,276.4531 277.6563,276.7031 C278.1406,276.9844 278.3125,277.2031 278.4063,277.6094 C278.4688,278.0156 278.5,278.1406 278.6406,278.2656 C278.7813,278.4063 279.0156,278.5156 279.2344,278.5156 C279.5,278.5156 279.7656,278.375 279.9375,278.1563 C280.0469,278 280.0781,277.8125 280.0781,277.3906 L280.0781,275.9688 C280.0781,275.5313 280.0625,275.4063 279.9688,275.25 C279.8125,274.9844 279.5313,274.8438 279.2344,274.8438 C278.9375,274.8438 278.7344,274.9375 278.5156,275.25 L278.3438,275.1719 Z " fill="#000000"/><text fill="#000000" font-family="sans-serif" font-size="12" lengthAdjust="spacing" textLength="72" x="290" y="283.6543">TestMapper</text><line style="stroke:#A80036;stroke-width:1.5;" x1="262" x2="364" y1="295.5" y2="295.5"/><line style="stroke:#A80036;stroke-width:1.5;" x1="262" x2="364" y1="303.5" y2="303.5"/><text fill="#000000" font-family="sans-serif" font-size="11" lengthAdjust="spacing" textLength="76" x="267" y="317.7104">+toDtoDate()</text><!--MD5=[1c38f6084f2098752e2974895ca67f4c]
class TestDto--><rect codeLine="41" fill="#FEFECE" filter="url(#fjktehwufck35)" height="99.2188" id="TestDto" style="stroke:#A80036;stroke-width:1.5;" width="129" x="290.5" y="414"/><ellipse cx="328" cy="430" fill="#ADD1B2" rx="11" ry="11" style="stroke:#A80036;stroke-width:1.0;"/><path d="M330.3438,425.6719 C329.4063,425.2344 328.8125,425.0938 327.9375,425.0938 C325.3125,425.0938 323.3125,427.1719 323.3125,429.8906 L323.3125,431.0156 C323.3125,433.5938 325.4219,435.4844 328.3125,435.4844 C329.5313,435.4844 330.6875,435.1875 331.4375,434.6406 C332.0156,434.2344 332.3438,433.7813 332.3438,433.3906 C332.3438,432.9375 331.9531,432.5469 331.4844,432.5469 C331.2656,432.5469 331.0625,432.625 330.875,432.8125 C330.4219,433.2969 330.4219,433.2969 330.2344,433.3906 C329.8125,433.6563 329.125,433.7813 328.3594,433.7813 C326.3125,433.7813 325.0156,432.6875 325.0156,430.9844 L325.0156,429.8906 C325.0156,428.1094 326.2656,426.7969 328,426.7969 C328.5781,426.7969 329.1875,426.9531 329.6563,427.2031 C330.1406,427.4844 330.3125,427.7031 330.4063,428.1094 C330.4688,428.5156 330.5,428.6406 330.6406,428.7656 C330.7813,428.9063 331.0156,429.0156 331.2344,429.0156 C331.5,429.0156 331.7656,428.875 331.9375,428.6563 C332.0469,428.5 332.0781,428.3125 332.0781,427.8906 L332.0781,426.4688 C332.0781,426.0313 332.0625,425.9063 331.9688,425.75 C331.8125,425.4844 331.5313,425.3438 331.2344,425.3438 C330.9375,425.3438 330.7344,425.4375 330.5156,425.75 L330.3438,425.6719 Z " fill="#000000"/><text fill="#000000" font-family="sans-serif" font-size="12" lengthAdjust="spacing" textLength="47" x="347" y="434.1543">TestDto</text><line style="stroke:#A80036;stroke-width:1.5;" x1="291.5" x2="418.5" y1="446" y2="446"/><text fill="#000000" font-family="sans-serif" font-size="11" lengthAdjust="spacing" textLength="96" x="296.5" y="460.2104">-Date registDate</text><text fill="#000000" font-family="sans-serif" font-size="11" lengthAdjust="spacing" textLength="110" x="296.5" y="473.0151">-Date analysisDate</text><text fill="#000000" font-family="sans-serif" font-size="11" lengthAdjust="spacing" textLength="117" x="296.5" y="485.8198">-Date diagnosisDate</text><line style="stroke:#A80036;stroke-width:1.5;" x1="291.5" x2="418.5" y1="492.4141" y2="492.4141"/><text fill="#000000" font-family="sans-serif" font-size="11" lengthAdjust="spacing" textLength="62" x="296.5" y="506.6245">+TestDto()</text><!--MD5=[f00dbe8c0302c6aec2cb26b3c659c8fc]
class Report--><rect codeLine="47" fill="#FEFECE" filter="url(#fjktehwufck35)" height="73.6094" id="Report" style="stroke:#A80036;stroke-width:1.5;" width="106" x="455" y="426.5"/><ellipse cx="485.3" cy="442.5" fill="#ADD1B2" rx="11" ry="11" style="stroke:#A80036;stroke-width:1.0;"/><path d="M487.6438,438.1719 C486.7063,437.7344 486.1125,437.5938 485.2375,437.5938 C482.6125,437.5938 480.6125,439.6719 480.6125,442.3906 L480.6125,443.5156 C480.6125,446.0938 482.7219,447.9844 485.6125,447.9844 C486.8313,447.9844 487.9875,447.6875 488.7375,447.1406 C489.3156,446.7344 489.6438,446.2813 489.6438,445.8906 C489.6438,445.4375 489.2531,445.0469 488.7844,445.0469 C488.5656,445.0469 488.3625,445.125 488.175,445.3125 C487.7219,445.7969 487.7219,445.7969 487.5344,445.8906 C487.1125,446.1563 486.425,446.2813 485.6594,446.2813 C483.6125,446.2813 482.3156,445.1875 482.3156,443.4844 L482.3156,442.3906 C482.3156,440.6094 483.5656,439.2969 485.3,439.2969 C485.8781,439.2969 486.4875,439.4531 486.9563,439.7031 C487.4406,439.9844 487.6125,440.2031 487.7063,440.6094 C487.7688,441.0156 487.8,441.1406 487.9406,441.2656 C488.0813,441.4063 488.3156,441.5156 488.5344,441.5156 C488.8,441.5156 489.0656,441.375 489.2375,441.1563 C489.3469,441 489.3781,440.8125 489.3781,440.3906 L489.3781,438.9688 C489.3781,438.5313 489.3625,438.4063 489.2688,438.25 C489.1125,437.9844 488.8313,437.8438 488.5344,437.8438 C488.2375,437.8438 488.0344,437.9375 487.8156,438.25 L487.6438,438.1719 Z " fill="#000000"/><text fill="#000000" font-family="sans-serif" font-size="12" lengthAdjust="spacing" textLength="40" x="502.7" y="446.6543">Report</text><line style="stroke:#A80036;stroke-width:1.5;" x1="456" x2="560" y1="458.5" y2="458.5"/><text fill="#000000" font-family="sans-serif" font-size="11" lengthAdjust="spacing" textLength="92" x="461" y="472.7104">-Date createdAt</text><line style="stroke:#A80036;stroke-width:1.5;" x1="456" x2="560" y1="479.3047" y2="479.3047"/><text fill="#000000" font-family="sans-serif" font-size="11" lengthAdjust="spacing" textLength="94" x="461" y="493.5151">+getCreatedAt()</text><!--MD5=[001d459faaea6399543a04750678f0ab]
link ValidateWorkDoneUI to ValidateWorkDoneController--><path codeLine="53" d="M194,55.137 C194,70.825 194,92.003 194,110.555 " fill="none" id="ValidateWorkDoneUI-to-ValidateWorkDoneController" style="stroke:#A80036;stroke-width:1.0;stroke-dasharray:7.0,7.0;"/><polygon fill="#A80036" points="194,115.711,198,106.711,194,110.711,190,106.711,194,115.711" style="stroke:#A80036;stroke-width:1.0;"/><!--MD5=[506ef67715507d04377eaf4a0302e92d]
link ValidateWorkDoneController to TestStore--><path codeLine="54" d="M190.721,190.137 C186.428,227.834 177.08,288.138 158,337 C146.183,367.262 127.122,398.407 110.921,422.101 " fill="none" id="ValidateWorkDoneController-to-TestStore" style="stroke:#A80036;stroke-width:1.0;stroke-dasharray:7.0,7.0;"/><polygon fill="#A80036" points="107.932,426.436,116.3334,421.2962,110.7698,422.3193,109.7467,416.7558,107.932,426.436" style="stroke:#A80036;stroke-width:1.0;"/><!--MD5=[da71f009ae07e4258c9c1bb20e96cde0]
link ValidateWorkDoneController to Company--><path codeLine="55" d="M164.606,190.158 C150.562,207.433 133.59,228.31 118.617,246.727 " fill="none" id="ValidateWorkDoneController-to-Company" style="stroke:#A80036;stroke-width:1.0;stroke-dasharray:7.0,7.0;"/><polygon fill="#A80036" points="115.257,250.861,124.038,246.4008,118.411,246.9813,117.8305,241.3543,115.257,250.861" style="stroke:#A80036;stroke-width:1.0;"/><!--MD5=[f4db34bc6292bb027996a0e65c908adc]
link ValidateWorkDoneController to TestMapper--><path codeLine="56" d="M224.955,190.158 C243.237,211.513 266.232,238.371 284.136,259.285 " fill="none" id="ValidateWorkDoneController-to-TestMapper" style="stroke:#A80036;stroke-width:1.0;stroke-dasharray:7.0,7.0;"/><polygon fill="#A80036" points="287.418,263.118,284.6026,253.6801,284.1659,259.3201,278.526,258.8834,287.418,263.118" style="stroke:#A80036;stroke-width:1.0;"/><!--MD5=[8d9a2c3ea1bf73d8d45b939465e53fff]
link TestMapper to Test--><path codeLine="57" d="M301.272,324.885 C292.342,348.691 280.367,383.043 273,414 C259.578,470.399 250.417,535.223 244.697,584.727 " fill="none" id="TestMapper-to-Test" style="stroke:#A80036;stroke-width:1.0;stroke-dasharray:7.0,7.0;"/><polygon fill="#A80036" points="244.12,589.772,249.1173,581.2851,244.6885,584.8044,241.1692,580.3756,244.12,589.772" style="stroke:#A80036;stroke-width:1.0;"/><!--MD5=[34b2fed5845bf5a187f4983fcf3f57bc]
link TestMapper to TestDto--><path codeLine="58" d="M320.412,324.56 C326.243,347.813 334.522,380.833 341.519,408.737 " fill="none" id="TestMapper-to-TestDto" style="stroke:#A80036;stroke-width:1.0;stroke-dasharray:7.0,7.0;"/><polygon fill="#A80036" points="342.81,413.884,344.5017,404.1815,341.5943,409.034,336.7418,406.1266,342.81,413.884" style="stroke:#A80036;stroke-width:1.0;"/><!--MD5=[54a054b5639f006c556065428f642b72]
link TestMapper to Report--><path codeLine="59" d="M347.413,324.56 C379.143,351.815 426.495,392.489 461.566,422.614 " fill="none" id="TestMapper-to-Report" style="stroke:#A80036;stroke-width:1.0;stroke-dasharray:7.0,7.0;"/><polygon fill="#A80036" points="465.78,426.234,461.5581,417.3359,461.9867,422.9765,456.3462,423.4051,465.78,426.234" style="stroke:#A80036;stroke-width:1.0;"/><!--MD5=[c9b8a9fe7c3b58e6182059e5a2a831ec]
link TestDto to Test--><path codeLine="60" d="M326.285,513.048 C313.44,534.764 297.969,560.922 283.539,585.318 " fill="none" id="TestDto-to-Test" style="stroke:#A80036;stroke-width:1.0;stroke-dasharray:7.0,7.0;"/><polygon fill="#A80036" points="280.858,589.851,288.8833,584.1419,283.404,585.5477,281.9981,580.0684,280.858,589.851" style="stroke:#A80036;stroke-width:1.0;"/><!--MD5=[b0f4f6db8206580012ef9cd998ed01c5]
link TestStore to Test--><path codeLine="61" d="M70.9996,500.52 C67.8075,519.313 67.2644,542.06 77,560 C91.1165,586.012 114.864,606.534 139.802,622.23 " fill="none" id="TestStore-to-Test" style="stroke:#A80036;stroke-width:1.0;"/><polygon fill="#A80036" points="144.14,624.906,138.5789,616.7774,139.8841,622.2816,134.3799,623.5868,144.14,624.906" style="stroke:#A80036;stroke-width:1.0;"/><text fill="#000000" font-family="sans-serif" font-size="13" lengthAdjust="spacing" textLength="132" x="78" y="556.0669">capable of analysing</text><text fill="#000000" font-family="sans-serif" font-size="13" lengthAdjust="spacing" textLength="8" x="60.5933" y="520.2838">1</text><text fill="#000000" font-family="sans-serif" font-size="13" lengthAdjust="spacing" textLength="7" x="129.4613" y="618.1681">*</text><!--MD5=[7f6cf7f175eae0af66201860de5de971]
link Company to TestStore--><path codeLine="62" d="M81,337.267 C81,363.071 81,395.903 81,421.476 " fill="none" id="Company-to-TestStore" style="stroke:#A80036;stroke-width:1.0;"/><polygon fill="#A80036" points="81,426.49,85,417.49,81,421.49,77,417.49,81,426.49" style="stroke:#A80036;stroke-width:1.0;"/><text fill="#000000" font-family="sans-serif" font-size="13" lengthAdjust="spacing" textLength="30" x="82" y="380.0669">uses</text><text fill="#000000" font-family="sans-serif" font-size="13" lengthAdjust="spacing" textLength="8" x="72.3625" y="357.4025">1</text><text fill="#000000" font-family="sans-serif" font-size="13" lengthAdjust="spacing" textLength="8" x="72.2625" y="415.3986">1</text><!--MD5=[6585eb838c13a02c6fc8f2264286f9e3]
@startuml
skinparam classAttributeIconSize 0

class Company
{
  -String designation
  +getTestStore()
  +getTests()
}


class Test {
  -int code
  -String nhsCode
  -List <TestType> listTestType
  -Date createdAt
  -Date resultRegist
  +Test()
  +getCreatedAt()
  +getResultRegist()
}

class TestStore {
  +getTestByCode(Code)
  +validateTest(test)
}


class ValidateWorkDoneController {
  +getTests()
  +validateTest(test)
}

class ValidateWorkDoneUI {

}

class TestMapper {
   +toDtoDate()
}

class TestDto {
  -Date registDate
  -Date analysisDate
  -Date diagnosisDate
  +TestDto()
}
class Report {
  -Date createdAt
  +getCreatedAt()
}


ValidateWorkDoneUI ..> ValidateWorkDoneController
ValidateWorkDoneController ..> TestStore
ValidateWorkDoneController ..> Company
ValidateWorkDoneController ..> TestMapper
TestMapper ..> Test
TestMapper ..> TestDto
TestMapper ..> Report
TestDto ..> Test
TestStore "1" - -> "*" Test : capable of analysing
Company "1" - -> "1" TestStore : uses
@enduml

PlantUML version 1.2021.7(Sun May 23 12:40:07 UTC 2021)
(GPL source distribution)
Java Runtime: Java(TM) SE Runtime Environment
JVM: Java HotSpot(TM) 64-Bit Server VM
Default Encoding: UTF-8
Language: en
Country: US
--></g></svg>