<?xml version="1.0" encoding="UTF-8" standalone="no"?><svg xmlns="http://www.w3.org/2000/svg" xmlns:xlink="http://www.w3.org/1999/xlink" contentScriptType="application/ecmascript" contentStyleType="text/css" height="979px" preserveAspectRatio="none" style="width:564px;height:979px;background:#FFFFFF;" version="1.1" viewBox="0 0 564 979" width="564px" zoomAndPan="magnify"><defs><filter height="300%" id="fm89c5rx6i49b" width="300%" x="-1" y="-1"><feGaussianBlur result="blurOut" stdDeviation="2.0"/><feColorMatrix in="blurOut" result="blurOut2" type="matrix" values="0 0 0 0 0 0 0 0 0 0 0 0 0 0 0 0 0 0 .4 0"/><feOffset dx="4.0" dy="4.0" in="blurOut2" result="blurOut3"/><feBlend in="SourceGraphic" in2="blurOut3" mode="normal"/></filter></defs><g><!--MD5=[9681dc6e01e10c6b4fe06895ae94f592]
cluster UI--><polygon fill="#FFFFFF" filter="url(#fm89c5rx6i49b)" points="303,6,325,6,332,28.2969,491,28.2969,491,105,303,105,303,6" style="stroke:#000000;stroke-width:1.5;"/><line style="stroke:#000000;stroke-width:1.5;" x1="303" x2="332" y1="28.2969" y2="28.2969"/><text fill="#000000" font-family="sans-serif" font-size="14" font-weight="bold" lengthAdjust="spacing" textLength="16" x="307" y="20.9951">UI</text><!--MD5=[ed1d20ea533a2a0e7df5ba3c35e56ced]
cluster Controllers--><polygon fill="#FFFFFF" filter="url(#fm89c5rx6i49b)" points="279,138,375,138,382,160.2969,515,160.2969,515,263,279,263,279,138" style="stroke:#000000;stroke-width:1.5;"/><line style="stroke:#000000;stroke-width:1.5;" x1="279" x2="382" y1="160.2969" y2="160.2969"/><text fill="#000000" font-family="sans-serif" font-size="14" font-weight="bold" lengthAdjust="spacing" textLength="90" x="283" y="152.9951">Controllers</text><!--MD5=[121a8bf1197281ab89ed693fab589f94]
cluster Domain--><polygon fill="#FFFFFF" filter="url(#fm89c5rx6i49b)" points="16,296,83,296,90,318.2969,547,318.2969,547,972,16,972,16,296" style="stroke:#000000;stroke-width:1.5;"/><line style="stroke:#000000;stroke-width:1.5;" x1="16" x2="90" y1="318.2969" y2="318.2969"/><text fill="#000000" font-family="sans-serif" font-size="14" font-weight="bold" lengthAdjust="spacing" textLength="61" x="20" y="310.9951">Domain</text><!--MD5=[81bb5adcf338171fdcf2b9c1599aa745]
class ValidateWorkDoneUI--><rect codeLine="50" fill="#FEFECE" filter="url(#fm89c5rx6i49b)" height="48" id="ValidateWorkDoneUI" style="stroke:#A80036;stroke-width:1.5;" width="156" x="319" y="41"/><ellipse cx="334" cy="57" fill="#ADD1B2" rx="11" ry="11" style="stroke:#A80036;stroke-width:1.0;"/><path d="M336.3438,52.6719 C335.4063,52.2344 334.8125,52.0938 333.9375,52.0938 C331.3125,52.0938 329.3125,54.1719 329.3125,56.8906 L329.3125,58.0156 C329.3125,60.5938 331.4219,62.4844 334.3125,62.4844 C335.5313,62.4844 336.6875,62.1875 337.4375,61.6406 C338.0156,61.2344 338.3438,60.7813 338.3438,60.3906 C338.3438,59.9375 337.9531,59.5469 337.4844,59.5469 C337.2656,59.5469 337.0625,59.625 336.875,59.8125 C336.4219,60.2969 336.4219,60.2969 336.2344,60.3906 C335.8125,60.6563 335.125,60.7813 334.3594,60.7813 C332.3125,60.7813 331.0156,59.6875 331.0156,57.9844 L331.0156,56.8906 C331.0156,55.1094 332.2656,53.7969 334,53.7969 C334.5781,53.7969 335.1875,53.9531 335.6563,54.2031 C336.1406,54.4844 336.3125,54.7031 336.4063,55.1094 C336.4688,55.5156 336.5,55.6406 336.6406,55.7656 C336.7813,55.9063 337.0156,56.0156 337.2344,56.0156 C337.5,56.0156 337.7656,55.875 337.9375,55.6563 C338.0469,55.5 338.0781,55.3125 338.0781,54.8906 L338.0781,53.4688 C338.0781,53.0313 338.0625,52.9063 337.9688,52.75 C337.8125,52.4844 337.5313,52.3438 337.2344,52.3438 C336.9375,52.3438 336.7344,52.4375 336.5156,52.75 L336.3438,52.6719 Z " fill="#000000"/><text fill="#000000" font-family="sans-serif" font-size="12" lengthAdjust="spacing" textLength="124" x="348" y="61.1543">ValidateWorkDoneUI</text><line style="stroke:#A80036;stroke-width:1.5;" x1="320" x2="474" y1="73" y2="73"/><line style="stroke:#A80036;stroke-width:1.5;" x1="320" x2="474" y1="81" y2="81"/><!--MD5=[db921183028456ae22ec890b9d583b60]
class ValidateWorkDoneController--><rect codeLine="45" fill="#FEFECE" filter="url(#fm89c5rx6i49b)" height="73.6094" id="ValidateWorkDoneController" style="stroke:#A80036;stroke-width:1.5;" width="203" x="295.5" y="173"/><ellipse cx="310.5" cy="189" fill="#ADD1B2" rx="11" ry="11" style="stroke:#A80036;stroke-width:1.0;"/><path d="M312.8438,184.6719 C311.9063,184.2344 311.3125,184.0938 310.4375,184.0938 C307.8125,184.0938 305.8125,186.1719 305.8125,188.8906 L305.8125,190.0156 C305.8125,192.5938 307.9219,194.4844 310.8125,194.4844 C312.0313,194.4844 313.1875,194.1875 313.9375,193.6406 C314.5156,193.2344 314.8438,192.7813 314.8438,192.3906 C314.8438,191.9375 314.4531,191.5469 313.9844,191.5469 C313.7656,191.5469 313.5625,191.625 313.375,191.8125 C312.9219,192.2969 312.9219,192.2969 312.7344,192.3906 C312.3125,192.6563 311.625,192.7813 310.8594,192.7813 C308.8125,192.7813 307.5156,191.6875 307.5156,189.9844 L307.5156,188.8906 C307.5156,187.1094 308.7656,185.7969 310.5,185.7969 C311.0781,185.7969 311.6875,185.9531 312.1563,186.2031 C312.6406,186.4844 312.8125,186.7031 312.9063,187.1094 C312.9688,187.5156 313,187.6406 313.1406,187.7656 C313.2813,187.9063 313.5156,188.0156 313.7344,188.0156 C314,188.0156 314.2656,187.875 314.4375,187.6563 C314.5469,187.5 314.5781,187.3125 314.5781,186.8906 L314.5781,185.4688 C314.5781,185.0313 314.5625,184.9063 314.4688,184.75 C314.3125,184.4844 314.0313,184.3438 313.7344,184.3438 C313.4375,184.3438 313.2344,184.4375 313.0156,184.75 L312.8438,184.6719 Z " fill="#000000"/><text fill="#000000" font-family="sans-serif" font-size="12" lengthAdjust="spacing" textLength="171" x="324.5" y="193.1543">ValidateWorkDoneController</text><line style="stroke:#A80036;stroke-width:1.5;" x1="296.5" x2="497.5" y1="205" y2="205"/><line style="stroke:#A80036;stroke-width:1.5;" x1="296.5" x2="497.5" y1="213" y2="213"/><text fill="#000000" font-family="sans-serif" font-size="11" lengthAdjust="spacing" textLength="67" x="301.5" y="227.2104">+getTests()</text><text fill="#000000" font-family="sans-serif" font-size="11" lengthAdjust="spacing" textLength="110" x="301.5" y="240.0151">+validateTest(test)</text><!--MD5=[02e4b9b7573f1156f41e60aa5b4e25a4]
class Company--><rect codeLine="20" fill="#FEFECE" filter="url(#fm89c5rx6i49b)" height="73.6094" id="Company" style="stroke:#A80036;stroke-width:1.5;" width="119" x="337.5" y="331"/><ellipse cx="366.45" cy="347" fill="#ADD1B2" rx="11" ry="11" style="stroke:#A80036;stroke-width:1.0;"/><path d="M368.7938,342.6719 C367.8563,342.2344 367.2625,342.0938 366.3875,342.0938 C363.7625,342.0938 361.7625,344.1719 361.7625,346.8906 L361.7625,348.0156 C361.7625,350.5938 363.8719,352.4844 366.7625,352.4844 C367.9813,352.4844 369.1375,352.1875 369.8875,351.6406 C370.4656,351.2344 370.7938,350.7813 370.7938,350.3906 C370.7938,349.9375 370.4031,349.5469 369.9344,349.5469 C369.7156,349.5469 369.5125,349.625 369.325,349.8125 C368.8719,350.2969 368.8719,350.2969 368.6844,350.3906 C368.2625,350.6563 367.575,350.7813 366.8094,350.7813 C364.7625,350.7813 363.4656,349.6875 363.4656,347.9844 L363.4656,346.8906 C363.4656,345.1094 364.7156,343.7969 366.45,343.7969 C367.0281,343.7969 367.6375,343.9531 368.1063,344.2031 C368.5906,344.4844 368.7625,344.7031 368.8563,345.1094 C368.9188,345.5156 368.95,345.6406 369.0906,345.7656 C369.2313,345.9063 369.4656,346.0156 369.6844,346.0156 C369.95,346.0156 370.2156,345.875 370.3875,345.6563 C370.4969,345.5 370.5281,345.3125 370.5281,344.8906 L370.5281,343.4688 C370.5281,343.0313 370.5125,342.9063 370.4188,342.75 C370.2625,342.4844 369.9813,342.3438 369.6844,342.3438 C369.3875,342.3438 369.1844,342.4375 368.9656,342.75 L368.7938,342.6719 Z " fill="#000000"/><text fill="#000000" font-family="sans-serif" font-size="12" lengthAdjust="spacing" textLength="56" x="383.55" y="351.1543">Company</text><line style="stroke:#A80036;stroke-width:1.5;" x1="338.5" x2="455.5" y1="363" y2="363"/><text fill="#000000" font-family="sans-serif" font-size="11" lengthAdjust="spacing" textLength="107" x="343.5" y="377.2104">-String designation</text><line style="stroke:#A80036;stroke-width:1.5;" x1="338.5" x2="455.5" y1="383.8047" y2="383.8047"/><text fill="#000000" font-family="sans-serif" font-size="11" lengthAdjust="spacing" textLength="92" x="343.5" y="398.0151">+getTestStore()</text><!--MD5=[df38be88ccee13e832d6fafd6288a4ca]
class Test--><rect codeLine="27" fill="#FEFECE" filter="url(#fm89c5rx6i49b)" height="163.2422" id="Test" style="stroke:#A80036;stroke-width:1.5;" width="185" x="246.5" y="671"/><ellipse cx="321.75" cy="687" fill="#ADD1B2" rx="11" ry="11" style="stroke:#A80036;stroke-width:1.0;"/><path d="M324.0938,682.6719 C323.1563,682.2344 322.5625,682.0938 321.6875,682.0938 C319.0625,682.0938 317.0625,684.1719 317.0625,686.8906 L317.0625,688.0156 C317.0625,690.5938 319.1719,692.4844 322.0625,692.4844 C323.2813,692.4844 324.4375,692.1875 325.1875,691.6406 C325.7656,691.2344 326.0938,690.7813 326.0938,690.3906 C326.0938,689.9375 325.7031,689.5469 325.2344,689.5469 C325.0156,689.5469 324.8125,689.625 324.625,689.8125 C324.1719,690.2969 324.1719,690.2969 323.9844,690.3906 C323.5625,690.6563 322.875,690.7813 322.1094,690.7813 C320.0625,690.7813 318.7656,689.6875 318.7656,687.9844 L318.7656,686.8906 C318.7656,685.1094 320.0156,683.7969 321.75,683.7969 C322.3281,683.7969 322.9375,683.9531 323.4063,684.2031 C323.8906,684.4844 324.0625,684.7031 324.1563,685.1094 C324.2188,685.5156 324.25,685.6406 324.3906,685.7656 C324.5313,685.9063 324.7656,686.0156 324.9844,686.0156 C325.25,686.0156 325.5156,685.875 325.6875,685.6563 C325.7969,685.5 325.8281,685.3125 325.8281,684.8906 L325.8281,683.4688 C325.8281,683.0313 325.8125,682.9063 325.7188,682.75 C325.5625,682.4844 325.2813,682.3438 324.9844,682.3438 C324.6875,682.3438 324.4844,682.4375 324.2656,682.75 L324.0938,682.6719 Z " fill="#000000"/><text fill="#000000" font-family="sans-serif" font-size="12" lengthAdjust="spacing" textLength="26" x="342.25" y="691.1543">Test</text><line style="stroke:#A80036;stroke-width:1.5;" x1="247.5" x2="430.5" y1="703" y2="703"/><text fill="#000000" font-family="sans-serif" font-size="11" lengthAdjust="spacing" textLength="50" x="252.5" y="717.2104">-int code</text><text fill="#000000" font-family="sans-serif" font-size="11" lengthAdjust="spacing" textLength="91" x="252.5" y="730.0151">-String nhsCode</text><text fill="#000000" font-family="sans-serif" font-size="11" lengthAdjust="spacing" textLength="173" x="252.5" y="742.8198">-List &lt;TestType&gt; listTestType</text><text fill="#000000" font-family="sans-serif" font-size="11" lengthAdjust="spacing" textLength="92" x="252.5" y="755.6245">-Date createdAt</text><text fill="#000000" font-family="sans-serif" font-size="11" lengthAdjust="spacing" textLength="103" x="252.5" y="768.4292">-Date resultRegist</text><line style="stroke:#A80036;stroke-width:1.5;" x1="247.5" x2="430.5" y1="775.0234" y2="775.0234"/><text fill="#000000" font-family="sans-serif" font-size="11" lengthAdjust="spacing" textLength="42" x="252.5" y="789.2339">+Test()</text><text fill="#000000" font-family="sans-serif" font-size="11" lengthAdjust="spacing" textLength="94" x="252.5" y="802.0386">+getCreatedAt()</text><text fill="#000000" font-family="sans-serif" font-size="11" lengthAdjust="spacing" textLength="106" x="252.5" y="814.8433">+getResultRegist()</text><text fill="#000000" font-family="sans-serif" font-size="11" lengthAdjust="spacing" textLength="88" x="252.5" y="827.6479">+validateTest()</text><!--MD5=[0f6f7964b844a64b0496af0dda7914bd]
class TestStore--><rect codeLine="39" fill="#FEFECE" filter="url(#fm89c5rx6i49b)" height="73.6094" id="TestStore" style="stroke:#A80036;stroke-width:1.5;" width="156" x="375" y="501"/><ellipse cx="419.25" cy="517" fill="#ADD1B2" rx="11" ry="11" style="stroke:#A80036;stroke-width:1.0;"/><path d="M421.5938,512.6719 C420.6563,512.2344 420.0625,512.0938 419.1875,512.0938 C416.5625,512.0938 414.5625,514.1719 414.5625,516.8906 L414.5625,518.0156 C414.5625,520.5938 416.6719,522.4844 419.5625,522.4844 C420.7813,522.4844 421.9375,522.1875 422.6875,521.6406 C423.2656,521.2344 423.5938,520.7813 423.5938,520.3906 C423.5938,519.9375 423.2031,519.5469 422.7344,519.5469 C422.5156,519.5469 422.3125,519.625 422.125,519.8125 C421.6719,520.2969 421.6719,520.2969 421.4844,520.3906 C421.0625,520.6563 420.375,520.7813 419.6094,520.7813 C417.5625,520.7813 416.2656,519.6875 416.2656,517.9844 L416.2656,516.8906 C416.2656,515.1094 417.5156,513.7969 419.25,513.7969 C419.8281,513.7969 420.4375,513.9531 420.9063,514.2031 C421.3906,514.4844 421.5625,514.7031 421.6563,515.1094 C421.7188,515.5156 421.75,515.6406 421.8906,515.7656 C422.0313,515.9063 422.2656,516.0156 422.4844,516.0156 C422.75,516.0156 423.0156,515.875 423.1875,515.6563 C423.2969,515.5 423.3281,515.3125 423.3281,514.8906 L423.3281,513.4688 C423.3281,513.0313 423.3125,512.9063 423.2188,512.75 C423.0625,512.4844 422.7813,512.3438 422.4844,512.3438 C422.1875,512.3438 421.9844,512.4375 421.7656,512.75 L421.5938,512.6719 Z " fill="#000000"/><text fill="#000000" font-family="sans-serif" font-size="12" lengthAdjust="spacing" textLength="59" x="439.75" y="521.1543">TestStore</text><line style="stroke:#A80036;stroke-width:1.5;" x1="376" x2="530" y1="533" y2="533"/><line style="stroke:#A80036;stroke-width:1.5;" x1="376" x2="530" y1="541" y2="541"/><text fill="#000000" font-family="sans-serif" font-size="11" lengthAdjust="spacing" textLength="136" x="381" y="555.2104">+getTestByCode(Code)</text><text fill="#000000" font-family="sans-serif" font-size="11" lengthAdjust="spacing" textLength="144" x="381" y="568.0151">+validateWorkDone(test)</text><!--MD5=[144698ec4d0188f6929a3b58a3eeb1f6]
class TestMapper--><rect codeLine="54" fill="#FEFECE" filter="url(#fm89c5rx6i49b)" height="60.8047" id="TestMapper" style="stroke:#A80036;stroke-width:1.5;" width="104" x="198" y="337.5"/><ellipse cx="213" cy="353.5" fill="#ADD1B2" rx="11" ry="11" style="stroke:#A80036;stroke-width:1.0;"/><path d="M215.3438,349.1719 C214.4063,348.7344 213.8125,348.5938 212.9375,348.5938 C210.3125,348.5938 208.3125,350.6719 208.3125,353.3906 L208.3125,354.5156 C208.3125,357.0938 210.4219,358.9844 213.3125,358.9844 C214.5313,358.9844 215.6875,358.6875 216.4375,358.1406 C217.0156,357.7344 217.3438,357.2813 217.3438,356.8906 C217.3438,356.4375 216.9531,356.0469 216.4844,356.0469 C216.2656,356.0469 216.0625,356.125 215.875,356.3125 C215.4219,356.7969 215.4219,356.7969 215.2344,356.8906 C214.8125,357.1563 214.125,357.2813 213.3594,357.2813 C211.3125,357.2813 210.0156,356.1875 210.0156,354.4844 L210.0156,353.3906 C210.0156,351.6094 211.2656,350.2969 213,350.2969 C213.5781,350.2969 214.1875,350.4531 214.6563,350.7031 C215.1406,350.9844 215.3125,351.2031 215.4063,351.6094 C215.4688,352.0156 215.5,352.1406 215.6406,352.2656 C215.7813,352.4063 216.0156,352.5156 216.2344,352.5156 C216.5,352.5156 216.7656,352.375 216.9375,352.1563 C217.0469,352 217.0781,351.8125 217.0781,351.3906 L217.0781,349.9688 C217.0781,349.5313 217.0625,349.4063 216.9688,349.25 C216.8125,348.9844 216.5313,348.8438 216.2344,348.8438 C215.9375,348.8438 215.7344,348.9375 215.5156,349.25 L215.3438,349.1719 Z " fill="#000000"/><text fill="#000000" font-family="sans-serif" font-size="12" lengthAdjust="spacing" textLength="72" x="227" y="357.6543">TestMapper</text><line style="stroke:#A80036;stroke-width:1.5;" x1="199" x2="301" y1="369.5" y2="369.5"/><line style="stroke:#A80036;stroke-width:1.5;" x1="199" x2="301" y1="377.5" y2="377.5"/><text fill="#000000" font-family="sans-serif" font-size="11" lengthAdjust="spacing" textLength="76" x="204" y="391.7104">+toDtoDate()</text><!--MD5=[3787f20f4b23ef216427bf01315aa659]
class TestDtoDate--><rect codeLine="58" fill="#FEFECE" filter="url(#fm89c5rx6i49b)" height="112.0234" id="TestDtoDate" style="stroke:#A80036;stroke-width:1.5;" width="129" x="32.5" y="482"/><ellipse cx="57.4" cy="498" fill="#ADD1B2" rx="11" ry="11" style="stroke:#A80036;stroke-width:1.0;"/><path d="M59.7438,493.6719 C58.8063,493.2344 58.2125,493.0938 57.3375,493.0938 C54.7125,493.0938 52.7125,495.1719 52.7125,497.8906 L52.7125,499.0156 C52.7125,501.5938 54.8219,503.4844 57.7125,503.4844 C58.9313,503.4844 60.0875,503.1875 60.8375,502.6406 C61.4156,502.2344 61.7438,501.7813 61.7438,501.3906 C61.7438,500.9375 61.3531,500.5469 60.8844,500.5469 C60.6656,500.5469 60.4625,500.625 60.275,500.8125 C59.8219,501.2969 59.8219,501.2969 59.6344,501.3906 C59.2125,501.6563 58.525,501.7813 57.7594,501.7813 C55.7125,501.7813 54.4156,500.6875 54.4156,498.9844 L54.4156,497.8906 C54.4156,496.1094 55.6656,494.7969 57.4,494.7969 C57.9781,494.7969 58.5875,494.9531 59.0563,495.2031 C59.5406,495.4844 59.7125,495.7031 59.8063,496.1094 C59.8688,496.5156 59.9,496.6406 60.0406,496.7656 C60.1813,496.9063 60.4156,497.0156 60.6344,497.0156 C60.9,497.0156 61.1656,496.875 61.3375,496.6563 C61.4469,496.5 61.4781,496.3125 61.4781,495.8906 L61.4781,494.4688 C61.4781,494.0313 61.4625,493.9063 61.3688,493.75 C61.2125,493.4844 60.9313,493.3438 60.6344,493.3438 C60.3375,493.3438 60.1344,493.4375 59.9156,493.75 L59.7438,493.6719 Z " fill="#000000"/><text fill="#000000" font-family="sans-serif" font-size="12" lengthAdjust="spacing" textLength="75" x="73.6" y="502.1543">TestDtoDate</text><line style="stroke:#A80036;stroke-width:1.5;" x1="33.5" x2="160.5" y1="514" y2="514"/><text fill="#000000" font-family="sans-serif" font-size="11" lengthAdjust="spacing" textLength="71" x="38.5" y="528.2104">-String Code</text><text fill="#000000" font-family="sans-serif" font-size="11" lengthAdjust="spacing" textLength="96" x="38.5" y="541.0151">-Date registDate</text><text fill="#000000" font-family="sans-serif" font-size="11" lengthAdjust="spacing" textLength="110" x="38.5" y="553.8198">-Date analysisDate</text><text fill="#000000" font-family="sans-serif" font-size="11" lengthAdjust="spacing" textLength="117" x="38.5" y="566.6245">-Date diagnosisDate</text><line style="stroke:#A80036;stroke-width:1.5;" x1="33.5" x2="160.5" y1="573.2188" y2="573.2188"/><text fill="#000000" font-family="sans-serif" font-size="11" lengthAdjust="spacing" textLength="90" x="38.5" y="587.4292">+TestDtoDate()</text><!--MD5=[f00dbe8c0302c6aec2cb26b3c659c8fc]
class Report--><rect codeLine="65" fill="#FEFECE" filter="url(#fm89c5rx6i49b)" height="73.6094" id="Report" style="stroke:#A80036;stroke-width:1.5;" width="106" x="197" y="501"/><ellipse cx="227.3" cy="517" fill="#ADD1B2" rx="11" ry="11" style="stroke:#A80036;stroke-width:1.0;"/><path d="M229.6438,512.6719 C228.7063,512.2344 228.1125,512.0938 227.2375,512.0938 C224.6125,512.0938 222.6125,514.1719 222.6125,516.8906 L222.6125,518.0156 C222.6125,520.5938 224.7219,522.4844 227.6125,522.4844 C228.8313,522.4844 229.9875,522.1875 230.7375,521.6406 C231.3156,521.2344 231.6438,520.7813 231.6438,520.3906 C231.6438,519.9375 231.2531,519.5469 230.7844,519.5469 C230.5656,519.5469 230.3625,519.625 230.175,519.8125 C229.7219,520.2969 229.7219,520.2969 229.5344,520.3906 C229.1125,520.6563 228.425,520.7813 227.6594,520.7813 C225.6125,520.7813 224.3156,519.6875 224.3156,517.9844 L224.3156,516.8906 C224.3156,515.1094 225.5656,513.7969 227.3,513.7969 C227.8781,513.7969 228.4875,513.9531 228.9563,514.2031 C229.4406,514.4844 229.6125,514.7031 229.7063,515.1094 C229.7688,515.5156 229.8,515.6406 229.9406,515.7656 C230.0813,515.9063 230.3156,516.0156 230.5344,516.0156 C230.8,516.0156 231.0656,515.875 231.2375,515.6563 C231.3469,515.5 231.3781,515.3125 231.3781,514.8906 L231.3781,513.4688 C231.3781,513.0313 231.3625,512.9063 231.2688,512.75 C231.1125,512.4844 230.8313,512.3438 230.5344,512.3438 C230.2375,512.3438 230.0344,512.4375 229.8156,512.75 L229.6438,512.6719 Z " fill="#000000"/><text fill="#000000" font-family="sans-serif" font-size="12" lengthAdjust="spacing" textLength="40" x="244.7" y="521.1543">Report</text><line style="stroke:#A80036;stroke-width:1.5;" x1="198" x2="302" y1="533" y2="533"/><text fill="#000000" font-family="sans-serif" font-size="11" lengthAdjust="spacing" textLength="92" x="203" y="547.2104">-Date createdAt</text><line style="stroke:#A80036;stroke-width:1.5;" x1="198" x2="302" y1="553.8047" y2="553.8047"/><text fill="#000000" font-family="sans-serif" font-size="11" lengthAdjust="spacing" textLength="94" x="203" y="568.0151">+getCreatedAt()</text><!--MD5=[ed6624c6556d5e7b1bd23032162d20b7]
class Client--><rect codeLine="70" fill="#FEFECE" filter="url(#fm89c5rx6i49b)" height="60.8047" id="Client" style="stroke:#A80036;stroke-width:1.5;" width="94" x="292" y="895"/><ellipse cx="320.05" cy="911" fill="#ADD1B2" rx="11" ry="11" style="stroke:#A80036;stroke-width:1.0;"/><path d="M322.3938,906.6719 C321.4563,906.2344 320.8625,906.0938 319.9875,906.0938 C317.3625,906.0938 315.3625,908.1719 315.3625,910.8906 L315.3625,912.0156 C315.3625,914.5938 317.4719,916.4844 320.3625,916.4844 C321.5813,916.4844 322.7375,916.1875 323.4875,915.6406 C324.0656,915.2344 324.3938,914.7813 324.3938,914.3906 C324.3938,913.9375 324.0031,913.5469 323.5344,913.5469 C323.3156,913.5469 323.1125,913.625 322.925,913.8125 C322.4719,914.2969 322.4719,914.2969 322.2844,914.3906 C321.8625,914.6563 321.175,914.7813 320.4094,914.7813 C318.3625,914.7813 317.0656,913.6875 317.0656,911.9844 L317.0656,910.8906 C317.0656,909.1094 318.3156,907.7969 320.05,907.7969 C320.6281,907.7969 321.2375,907.9531 321.7063,908.2031 C322.1906,908.4844 322.3625,908.7031 322.4563,909.1094 C322.5188,909.5156 322.55,909.6406 322.6906,909.7656 C322.8313,909.9063 323.0656,910.0156 323.2844,910.0156 C323.55,910.0156 323.8156,909.875 323.9875,909.6563 C324.0969,909.5 324.1281,909.3125 324.1281,908.8906 L324.1281,907.4688 C324.1281,907.0313 324.1125,906.9063 324.0188,906.75 C323.8625,906.4844 323.5813,906.3438 323.2844,906.3438 C322.9875,906.3438 322.7844,906.4375 322.5656,906.75 L322.3938,906.6719 Z " fill="#000000"/><text fill="#000000" font-family="sans-serif" font-size="12" lengthAdjust="spacing" textLength="33" x="336.95" y="915.1543">Client</text><line style="stroke:#A80036;stroke-width:1.5;" x1="293" x2="385" y1="927" y2="927"/><line style="stroke:#A80036;stroke-width:1.5;" x1="293" x2="385" y1="935" y2="935"/><text fill="#000000" font-family="sans-serif" font-size="11" lengthAdjust="spacing" textLength="82" x="298" y="949.2104">+notifyClient()</text><!--MD5=[001d459faaea6399543a04750678f0ab]
link ValidateWorkDoneUI to ValidateWorkDoneController--><path codeLine="75" d="M397,89.294 C397,110.514 397,142.337 397,167.839 " fill="none" id="ValidateWorkDoneUI-to-ValidateWorkDoneController" style="stroke:#A80036;stroke-width:1.0;stroke-dasharray:7.0,7.0;"/><polygon fill="#A80036" points="397,172.85,401,163.85,397,167.85,393,163.85,397,172.85" style="stroke:#A80036;stroke-width:1.0;"/><!--MD5=[506ef67715507d04377eaf4a0302e92d]
link ValidateWorkDoneController to TestStore--><path codeLine="76" d="M444.734,247.101 C456.545,258.728 467.633,272.63 474,288 C502.467,356.725 483.378,445.095 467.668,495.962 " fill="none" id="ValidateWorkDoneController-to-TestStore" style="stroke:#A80036;stroke-width:1.0;stroke-dasharray:7.0,7.0;"/><polygon fill="#A80036" points="466.16,500.766,472.671,493.3763,467.6569,495.9953,465.0379,490.9813,466.16,500.766" style="stroke:#A80036;stroke-width:1.0;"/><!--MD5=[da71f009ae07e4258c9c1bb20e96cde0]
link ValidateWorkDoneController to Company--><path codeLine="77" d="M397,247.182 C397,270.626 397,301.227 397,325.635 " fill="none" id="ValidateWorkDoneController-to-Company" style="stroke:#A80036;stroke-width:1.0;stroke-dasharray:7.0,7.0;"/><polygon fill="#A80036" points="397,330.745,401,321.745,397,325.745,393,321.745,397,330.745" style="stroke:#A80036;stroke-width:1.0;"/><!--MD5=[f4db34bc6292bb027996a0e65c908adc]
link ValidateWorkDoneController to TestMapper--><path codeLine="78" d="M359.725,247.372 C346.96,260.064 332.7,274.51 320,288 C306.222,302.635 291.4,319.232 278.958,333.423 " fill="none" id="ValidateWorkDoneController-to-TestMapper" style="stroke:#A80036;stroke-width:1.0;stroke-dasharray:7.0,7.0;"/><polygon fill="#A80036" points="275.515,337.358,284.4512,333.2174,278.8069,333.5946,278.4297,327.9503,275.515,337.358" style="stroke:#A80036;stroke-width:1.0;"/><!--MD5=[8d9a2c3ea1bf73d8d45b939465e53fff]
link TestMapper to Test--><path codeLine="79" d="M274.354,398.574 C290.691,420.245 310.986,451.148 321,482 C340.248,541.303 344.357,611.704 343.861,665.677 " fill="none" id="TestMapper-to-Test" style="stroke:#A80036;stroke-width:1.0;stroke-dasharray:7.0,7.0;"/><polygon fill="#A80036" points="343.799,670.847,347.9067,661.8957,343.859,665.8474,339.9073,661.7996,343.799,670.847" style="stroke:#A80036;stroke-width:1.0;"/><!--MD5=[c012175ee975a5bd02ff75a360be086e]
link TestMapper to TestDtoDate--><path codeLine="80" d="M222.999,398.648 C203.048,420.555 175.225,451.106 150.798,477.927 " fill="none" id="TestMapper-to-TestDtoDate" style="stroke:#A80036;stroke-width:1.0;stroke-dasharray:7.0,7.0;"/><polygon fill="#A80036" points="147.22,481.856,156.2374,477.8954,150.5867,478.1593,150.3227,472.5086,147.22,481.856" style="stroke:#A80036;stroke-width:1.0;"/><!--MD5=[54a054b5639f006c556065428f642b72]
link TestMapper to Report--><path codeLine="81" d="M250,398.648 C250,425.629 250,465.722 250,495.811 " fill="none" id="TestMapper-to-Report" style="stroke:#A80036;stroke-width:1.0;stroke-dasharray:7.0,7.0;"/><polygon fill="#A80036" points="250,500.928,254,491.928,250,495.928,246,491.928,250,500.928" style="stroke:#A80036;stroke-width:1.0;"/><!--MD5=[3f3d46f072b1a3221bb9c14ad1e2a83d]
link TestDtoDate to Test--><path codeLine="82" d="M159.636,594 C185.101,616.362 215.102,642.705 243.204,667.382 " fill="none" id="TestDtoDate-to-Test" style="stroke:#A80036;stroke-width:1.0;stroke-dasharray:7.0,7.0;"/><polygon fill="#A80036" points="246.978,670.695,242.8537,661.7513,243.2206,667.3962,237.5757,667.7631,246.978,670.695" style="stroke:#A80036;stroke-width:1.0;"/><!--MD5=[3994f36c72829dbcddd1cf7021dddf61]
link Test to Client--><path codeLine="83" d="M339,834.243 C339,853.666 339,873.418 339,889.4715 " fill="none" id="Test-to-Client" style="stroke:#A80036;stroke-width:1.0;"/><polygon fill="#A80036" points="339,894.7683,343,885.7683,339,889.7683,335,885.7683,339,894.7683" style="stroke:#A80036;stroke-width:1.0;"/><!--MD5=[b0f4f6db8206580012ef9cd998ed01c5]
link TestStore to Test--><path codeLine="84" d="M433.661,575.048 C420.281,599.99 401.888,634.275 384.871,665.994 " fill="none" id="TestStore-to-Test" style="stroke:#A80036;stroke-width:1.0;"/><polygon fill="#A80036" points="382.372,670.654,390.1523,664.6152,384.7363,666.2483,383.1031,660.8323,382.372,670.654" style="stroke:#A80036;stroke-width:1.0;"/><text fill="#000000" font-family="sans-serif" font-size="13" lengthAdjust="spacing" textLength="132" x="407" y="637.0669">capable of analysing</text><text fill="#000000" font-family="sans-serif" font-size="13" lengthAdjust="spacing" textLength="8" x="421.7955" y="594.5365">1</text><text fill="#000000" font-family="sans-serif" font-size="13" lengthAdjust="spacing" textLength="7" x="378.7985" y="660.038">*</text><!--MD5=[7f6cf7f175eae0af66201860de5de971]
link Company to TestStore--><path codeLine="85" d="M409.013,405.04 C417.878,431.634 429.958,467.873 439.216,495.647 " fill="none" id="Company-to-TestStore" style="stroke:#A80036;stroke-width:1.0;"/><polygon fill="#A80036" points="440.91,500.73,441.8578,490.9269,439.3284,495.9867,434.2686,493.4574,440.91,500.73" style="stroke:#A80036;stroke-width:1.0;"/><text fill="#000000" font-family="sans-serif" font-size="13" lengthAdjust="spacing" textLength="30" x="424" y="448.0669">uses</text><text fill="#000000" font-family="sans-serif" font-size="13" lengthAdjust="spacing" textLength="8" x="402.3902" y="424.8072">1</text><text fill="#000000" font-family="sans-serif" font-size="13" lengthAdjust="spacing" textLength="8" x="430.044" y="489.8689">1</text><!--MD5=[1bf23847d94fb97c8954faf07787b6e1]
@startuml
skinparam classAttributeIconSize 0
package UI  {
  class ValidateWorkDoneUI
}

package Controllers {
  class ValidateWorkDoneController
}

package Domain {
  class Company
  class Test
  class TestStore
  class TestMapper
  class TestDtoDate
  class Report
  class Client
}

class Company
{
  -String designation
  +getTestStore()
}


class Test {
  -int code
  -String nhsCode
  -List <TestType> listTestType
  -Date createdAt
  -Date resultRegist
  +Test()
  +getCreatedAt()
  +getResultRegist()
  +validateTest()
}

class TestStore {
  +getTestByCode(Code)
  +validateWorkDone(test)
}


class ValidateWorkDoneController {
  +getTests()
  +validateTest(test)
}

class ValidateWorkDoneUI {

}

class TestMapper {
   +toDtoDate()
}

class TestDtoDate {
  -String Code
  -Date registDate
  -Date analysisDate
  -Date diagnosisDate
  +TestDtoDate()
}
class Report {
  -Date createdAt
  +getCreatedAt()
}

class Client {
  +notifyClient()
}


ValidateWorkDoneUI ..> ValidateWorkDoneController
ValidateWorkDoneController ..> TestStore
ValidateWorkDoneController ..> Company
ValidateWorkDoneController ..> TestMapper
TestMapper ..> Test
TestMapper ..> TestDtoDate
TestMapper ..> Report
TestDtoDate ..> Test
Test - -> Client
TestStore "1" - -> "*" Test : capable of analysing
Company "1" - -> "1" TestStore : uses
@enduml

PlantUML version 1.2021.7(Sun May 23 12:40:07 UTC 2021)
(GPL source distribution)
Java Runtime: Java(TM) SE Runtime Environment
JVM: Java HotSpot(TM) 64-Bit Server VM
Default Encoding: UTF-8
Language: en
Country: US
--></g></svg>