<?xml version="1.0" encoding="UTF-8" standalone="no"?><svg xmlns="http://www.w3.org/2000/svg" xmlns:xlink="http://www.w3.org/1999/xlink" contentScriptType="application/ecmascript" contentStyleType="text/css" height="703px" preserveAspectRatio="none" style="width:453px;height:703px;background:#FFFFFF;" version="1.1" viewBox="0 0 453 703" width="453px" zoomAndPan="magnify"><defs><filter height="300%" id="f5a593q6m4ci5" width="300%" x="-1" y="-1"><feGaussianBlur result="blurOut" stdDeviation="2.0"/><feColorMatrix in="blurOut" result="blurOut2" type="matrix" values="0 0 0 0 0 0 0 0 0 0 0 0 0 0 0 0 0 0 .4 0"/><feOffset dx="4.0" dy="4.0" in="blurOut2" result="blurOut3"/><feBlend in="SourceGraphic" in2="blurOut3" mode="normal"/></filter></defs><g><!--MD5=[02e4b9b7573f1156f41e60aa5b4e25a4]
class Company--><rect codeLine="3" fill="#FEFECE" filter="url(#f5a593q6m4ci5)" height="86.4141" id="Company" style="stroke:#A80036;stroke-width:1.5;" width="119" x="109.8062" y="251"/><ellipse cx="138.7562" cy="267" fill="#ADD1B2" rx="11" ry="11" style="stroke:#A80036;stroke-width:1.0;"/><path d="M141.0999,262.6719 C140.1624,262.2344 139.5687,262.0938 138.6937,262.0938 C136.0687,262.0938 134.0687,264.1719 134.0687,266.8906 L134.0687,268.0156 C134.0687,270.5938 136.178,272.4844 139.0687,272.4844 C140.2874,272.4844 141.4437,272.1875 142.1937,271.6406 C142.7718,271.2344 143.0999,270.7813 143.0999,270.3906 C143.0999,269.9375 142.7093,269.5469 142.2405,269.5469 C142.0218,269.5469 141.8187,269.625 141.6312,269.8125 C141.178,270.2969 141.178,270.2969 140.9905,270.3906 C140.5687,270.6563 139.8812,270.7813 139.1155,270.7813 C137.0687,270.7813 135.7718,269.6875 135.7718,267.9844 L135.7718,266.8906 C135.7718,265.1094 137.0218,263.7969 138.7562,263.7969 C139.3343,263.7969 139.9437,263.9531 140.4124,264.2031 C140.8968,264.4844 141.0687,264.7031 141.1624,265.1094 C141.2249,265.5156 141.2562,265.6406 141.3968,265.7656 C141.5374,265.9063 141.7718,266.0156 141.9905,266.0156 C142.2562,266.0156 142.5218,265.875 142.6937,265.6563 C142.803,265.5 142.8343,265.3125 142.8343,264.8906 L142.8343,263.4688 C142.8343,263.0313 142.8187,262.9063 142.7249,262.75 C142.5687,262.4844 142.2874,262.3438 141.9905,262.3438 C141.6937,262.3438 141.4905,262.4375 141.2718,262.75 L141.0999,262.6719 Z " fill="#000000"/><text fill="#000000" font-family="sans-serif" font-size="12" lengthAdjust="spacing" textLength="56" x="155.8562" y="271.1543">Company</text><line style="stroke:#A80036;stroke-width:1.5;" x1="110.8062" x2="227.8062" y1="283" y2="283"/><text fill="#000000" font-family="sans-serif" font-size="11" lengthAdjust="spacing" textLength="107" x="115.8062" y="297.2104">-String designation</text><line style="stroke:#A80036;stroke-width:1.5;" x1="110.8062" x2="227.8062" y1="303.8047" y2="303.8047"/><text fill="#000000" font-family="sans-serif" font-size="11" lengthAdjust="spacing" textLength="92" x="115.8062" y="318.0151">+getTestStore()</text><text fill="#000000" font-family="sans-serif" font-size="11" lengthAdjust="spacing" textLength="67" x="115.8062" y="330.8198">+getTests()</text><!--MD5=[df38be88ccee13e832d6fafd6288a4ca]
class Test--><rect codeLine="11" fill="#FEFECE" filter="url(#f5a593q6m4ci5)" height="99.2188" id="Test" style="stroke:#A80036;stroke-width:1.5;" width="185" x="36.8062" y="590"/><ellipse cx="112.0562" cy="606" fill="#ADD1B2" rx="11" ry="11" style="stroke:#A80036;stroke-width:1.0;"/><path d="M114.3999,601.6719 C113.4624,601.2344 112.8687,601.0938 111.9937,601.0938 C109.3687,601.0938 107.3687,603.1719 107.3687,605.8906 L107.3687,607.0156 C107.3687,609.5938 109.478,611.4844 112.3687,611.4844 C113.5874,611.4844 114.7437,611.1875 115.4937,610.6406 C116.0718,610.2344 116.3999,609.7813 116.3999,609.3906 C116.3999,608.9375 116.0093,608.5469 115.5405,608.5469 C115.3218,608.5469 115.1187,608.625 114.9312,608.8125 C114.478,609.2969 114.478,609.2969 114.2905,609.3906 C113.8687,609.6563 113.1812,609.7813 112.4155,609.7813 C110.3687,609.7813 109.0718,608.6875 109.0718,606.9844 L109.0718,605.8906 C109.0718,604.1094 110.3218,602.7969 112.0562,602.7969 C112.6343,602.7969 113.2437,602.9531 113.7124,603.2031 C114.1968,603.4844 114.3687,603.7031 114.4624,604.1094 C114.5249,604.5156 114.5562,604.6406 114.6968,604.7656 C114.8374,604.9063 115.0718,605.0156 115.2905,605.0156 C115.5562,605.0156 115.8218,604.875 115.9937,604.6563 C116.103,604.5 116.1343,604.3125 116.1343,603.8906 L116.1343,602.4688 C116.1343,602.0313 116.1187,601.9063 116.0249,601.75 C115.8687,601.4844 115.5874,601.3438 115.2905,601.3438 C114.9937,601.3438 114.7905,601.4375 114.5718,601.75 L114.3999,601.6719 Z " fill="#000000"/><text fill="#000000" font-family="sans-serif" font-size="12" lengthAdjust="spacing" textLength="26" x="132.5562" y="610.1543">Test</text><line style="stroke:#A80036;stroke-width:1.5;" x1="37.8062" x2="220.8062" y1="622" y2="622"/><text fill="#000000" font-family="sans-serif" font-size="11" lengthAdjust="spacing" textLength="50" x="42.8062" y="636.2104">-int code</text><text fill="#000000" font-family="sans-serif" font-size="11" lengthAdjust="spacing" textLength="91" x="42.8062" y="649.0151">-String nhsCode</text><text fill="#000000" font-family="sans-serif" font-size="11" lengthAdjust="spacing" textLength="173" x="42.8062" y="661.8198">-List &lt;TestType&gt; listTestType</text><line style="stroke:#A80036;stroke-width:1.5;" x1="37.8062" x2="220.8062" y1="668.4141" y2="668.4141"/><text fill="#000000" font-family="sans-serif" font-size="11" lengthAdjust="spacing" textLength="42" x="42.8062" y="682.6245">+Test()</text><!--MD5=[0f6f7964b844a64b0496af0dda7914bd]
class TestStore--><rect codeLine="18" fill="#FEFECE" filter="url(#f5a593q6m4ci5)" height="73.6094" id="TestStore" style="stroke:#A80036;stroke-width:1.5;" width="181" x="38.8062" y="426.5"/><ellipse cx="95.5562" cy="442.5" fill="#ADD1B2" rx="11" ry="11" style="stroke:#A80036;stroke-width:1.0;"/><path d="M97.8999,438.1719 C96.9624,437.7344 96.3687,437.5938 95.4937,437.5938 C92.8687,437.5938 90.8687,439.6719 90.8687,442.3906 L90.8687,443.5156 C90.8687,446.0938 92.978,447.9844 95.8687,447.9844 C97.0874,447.9844 98.2437,447.6875 98.9937,447.1406 C99.5718,446.7344 99.8999,446.2813 99.8999,445.8906 C99.8999,445.4375 99.5093,445.0469 99.0405,445.0469 C98.8218,445.0469 98.6187,445.125 98.4312,445.3125 C97.978,445.7969 97.978,445.7969 97.7905,445.8906 C97.3687,446.1563 96.6812,446.2813 95.9155,446.2813 C93.8687,446.2813 92.5718,445.1875 92.5718,443.4844 L92.5718,442.3906 C92.5718,440.6094 93.8218,439.2969 95.5562,439.2969 C96.1343,439.2969 96.7437,439.4531 97.2124,439.7031 C97.6968,439.9844 97.8687,440.2031 97.9624,440.6094 C98.0249,441.0156 98.0562,441.1406 98.1968,441.2656 C98.3374,441.4063 98.5718,441.5156 98.7905,441.5156 C99.0562,441.5156 99.3218,441.375 99.4937,441.1563 C99.603,441 99.6343,440.8125 99.6343,440.3906 L99.6343,438.9688 C99.6343,438.5313 99.6187,438.4063 99.5249,438.25 C99.3687,437.9844 99.0874,437.8438 98.7905,437.8438 C98.4937,437.8438 98.2905,437.9375 98.0718,438.25 L97.8999,438.1719 Z " fill="#000000"/><text fill="#000000" font-family="sans-serif" font-size="12" lengthAdjust="spacing" textLength="59" x="116.0562" y="446.6543">TestStore</text><line style="stroke:#A80036;stroke-width:1.5;" x1="39.8062" x2="218.8062" y1="458.5" y2="458.5"/><line style="stroke:#A80036;stroke-width:1.5;" x1="39.8062" x2="218.8062" y1="466.5" y2="466.5"/><text fill="#000000" font-family="sans-serif" font-size="11" lengthAdjust="spacing" textLength="169" x="44.8062" y="480.7104">+getTestByBarcode(barcode)</text><text fill="#000000" font-family="sans-serif" font-size="11" lengthAdjust="spacing" textLength="110" x="44.8062" y="493.5151">+validateTest(test)</text><!--MD5=[db921183028456ae22ec890b9d583b60]
class ValidateWorkDoneController--><rect codeLine="24" fill="#FEFECE" filter="url(#f5a593q6m4ci5)" height="73.6094" id="ValidateWorkDoneController" style="stroke:#A80036;stroke-width:1.5;" width="203" x="67.8062" y="116"/><ellipse cx="82.8062" cy="132" fill="#ADD1B2" rx="11" ry="11" style="stroke:#A80036;stroke-width:1.0;"/><path d="M85.1499,127.6719 C84.2124,127.2344 83.6187,127.0938 82.7437,127.0938 C80.1187,127.0938 78.1187,129.1719 78.1187,131.8906 L78.1187,133.0156 C78.1187,135.5938 80.228,137.4844 83.1187,137.4844 C84.3374,137.4844 85.4937,137.1875 86.2437,136.6406 C86.8218,136.2344 87.1499,135.7813 87.1499,135.3906 C87.1499,134.9375 86.7593,134.5469 86.2905,134.5469 C86.0718,134.5469 85.8687,134.625 85.6812,134.8125 C85.228,135.2969 85.228,135.2969 85.0405,135.3906 C84.6187,135.6563 83.9312,135.7813 83.1655,135.7813 C81.1187,135.7813 79.8218,134.6875 79.8218,132.9844 L79.8218,131.8906 C79.8218,130.1094 81.0718,128.7969 82.8062,128.7969 C83.3843,128.7969 83.9937,128.9531 84.4624,129.2031 C84.9468,129.4844 85.1187,129.7031 85.2124,130.1094 C85.2749,130.5156 85.3062,130.6406 85.4468,130.7656 C85.5874,130.9063 85.8218,131.0156 86.0405,131.0156 C86.3062,131.0156 86.5718,130.875 86.7437,130.6563 C86.853,130.5 86.8843,130.3125 86.8843,129.8906 L86.8843,128.4688 C86.8843,128.0313 86.8687,127.9063 86.7749,127.75 C86.6187,127.4844 86.3374,127.3438 86.0405,127.3438 C85.7437,127.3438 85.5405,127.4375 85.3218,127.75 L85.1499,127.6719 Z " fill="#000000"/><text fill="#000000" font-family="sans-serif" font-size="12" lengthAdjust="spacing" textLength="171" x="96.8062" y="136.1543">ValidateWorkDoneController</text><line style="stroke:#A80036;stroke-width:1.5;" x1="68.8062" x2="269.8062" y1="148" y2="148"/><line style="stroke:#A80036;stroke-width:1.5;" x1="68.8062" x2="269.8062" y1="156" y2="156"/><text fill="#000000" font-family="sans-serif" font-size="11" lengthAdjust="spacing" textLength="67" x="73.8062" y="170.2104">+getTests()</text><text fill="#000000" font-family="sans-serif" font-size="11" lengthAdjust="spacing" textLength="110" x="73.8062" y="183.0151">+validateTest(test)</text><!--MD5=[81bb5adcf338171fdcf2b9c1599aa745]
class ValidateWorkDoneUI--><rect codeLine="29" fill="#FEFECE" filter="url(#f5a593q6m4ci5)" height="48" id="ValidateWorkDoneUI" style="stroke:#A80036;stroke-width:1.5;" width="156" x="91.3062" y="7"/><ellipse cx="106.3062" cy="23" fill="#ADD1B2" rx="11" ry="11" style="stroke:#A80036;stroke-width:1.0;"/><path d="M108.6499,18.6719 C107.7124,18.2344 107.1187,18.0938 106.2437,18.0938 C103.6187,18.0938 101.6187,20.1719 101.6187,22.8906 L101.6187,24.0156 C101.6187,26.5938 103.728,28.4844 106.6187,28.4844 C107.8374,28.4844 108.9937,28.1875 109.7437,27.6406 C110.3218,27.2344 110.6499,26.7813 110.6499,26.3906 C110.6499,25.9375 110.2593,25.5469 109.7905,25.5469 C109.5718,25.5469 109.3687,25.625 109.1812,25.8125 C108.728,26.2969 108.728,26.2969 108.5405,26.3906 C108.1187,26.6563 107.4312,26.7813 106.6655,26.7813 C104.6187,26.7813 103.3218,25.6875 103.3218,23.9844 L103.3218,22.8906 C103.3218,21.1094 104.5718,19.7969 106.3062,19.7969 C106.8843,19.7969 107.4937,19.9531 107.9624,20.2031 C108.4468,20.4844 108.6187,20.7031 108.7124,21.1094 C108.7749,21.5156 108.8062,21.6406 108.9468,21.7656 C109.0874,21.9063 109.3218,22.0156 109.5405,22.0156 C109.8062,22.0156 110.0718,21.875 110.2437,21.6563 C110.353,21.5 110.3843,21.3125 110.3843,20.8906 L110.3843,19.4688 C110.3843,19.0313 110.3687,18.9063 110.2749,18.75 C110.1187,18.4844 109.8374,18.3438 109.5405,18.3438 C109.2437,18.3438 109.0405,18.4375 108.8218,18.75 L108.6499,18.6719 Z " fill="#000000"/><text fill="#000000" font-family="sans-serif" font-size="12" lengthAdjust="spacing" textLength="124" x="120.3062" y="27.1543">ValidateWorkDoneUI</text><line style="stroke:#A80036;stroke-width:1.5;" x1="92.3062" x2="246.3062" y1="39" y2="39"/><line style="stroke:#A80036;stroke-width:1.5;" x1="92.3062" x2="246.3062" y1="47" y2="47"/><!--MD5=[144698ec4d0188f6929a3b58a3eeb1f6]
class TestMapper--><rect codeLine="33" fill="#FEFECE" filter="url(#f5a593q6m4ci5)" height="60.8047" id="TestMapper" style="stroke:#A80036;stroke-width:1.5;" width="104" x="335.3063" y="263.5"/><ellipse cx="350.3063" cy="279.5" fill="#ADD1B2" rx="11" ry="11" style="stroke:#A80036;stroke-width:1.0;"/><path d="M352.65,275.1719 C351.7125,274.7344 351.1188,274.5938 350.2438,274.5938 C347.6188,274.5938 345.6188,276.6719 345.6188,279.3906 L345.6188,280.5156 C345.6188,283.0938 347.7281,284.9844 350.6188,284.9844 C351.8375,284.9844 352.9938,284.6875 353.7438,284.1406 C354.3219,283.7344 354.65,283.2813 354.65,282.8906 C354.65,282.4375 354.2594,282.0469 353.7906,282.0469 C353.5719,282.0469 353.3688,282.125 353.1813,282.3125 C352.7281,282.7969 352.7281,282.7969 352.5406,282.8906 C352.1188,283.1563 351.4313,283.2813 350.6656,283.2813 C348.6188,283.2813 347.3219,282.1875 347.3219,280.4844 L347.3219,279.3906 C347.3219,277.6094 348.5719,276.2969 350.3063,276.2969 C350.8844,276.2969 351.4938,276.4531 351.9625,276.7031 C352.4469,276.9844 352.6188,277.2031 352.7125,277.6094 C352.775,278.0156 352.8063,278.1406 352.9469,278.2656 C353.0875,278.4063 353.3219,278.5156 353.5406,278.5156 C353.8063,278.5156 354.0719,278.375 354.2438,278.1563 C354.3531,278 354.3844,277.8125 354.3844,277.3906 L354.3844,275.9688 C354.3844,275.5313 354.3688,275.4063 354.275,275.25 C354.1188,274.9844 353.8375,274.8438 353.5406,274.8438 C353.2438,274.8438 353.0406,274.9375 352.8219,275.25 L352.65,275.1719 Z " fill="#000000"/><text fill="#000000" font-family="sans-serif" font-size="12" lengthAdjust="spacing" textLength="72" x="364.3063" y="283.6543">TestMapper</text><line style="stroke:#A80036;stroke-width:1.5;" x1="336.3063" x2="438.3063" y1="295.5" y2="295.5"/><line style="stroke:#A80036;stroke-width:1.5;" x1="336.3063" x2="438.3063" y1="303.5" y2="303.5"/><text fill="#000000" font-family="sans-serif" font-size="11" lengthAdjust="spacing" textLength="48" x="341.3063" y="317.7104">+toDto()</text><!--MD5=[1c38f6084f2098752e2974895ca67f4c]
class TestDto--><rect codeLine="37" fill="#FEFECE" filter="url(#f5a593q6m4ci5)" height="99.2188" id="TestDto" style="stroke:#A80036;stroke-width:1.5;" width="129" x="254.8063" y="414"/><ellipse cx="292.3063" cy="430" fill="#ADD1B2" rx="11" ry="11" style="stroke:#A80036;stroke-width:1.0;"/><path d="M294.65,425.6719 C293.7125,425.2344 293.1188,425.0938 292.2438,425.0938 C289.6188,425.0938 287.6188,427.1719 287.6188,429.8906 L287.6188,431.0156 C287.6188,433.5938 289.7281,435.4844 292.6188,435.4844 C293.8375,435.4844 294.9938,435.1875 295.7438,434.6406 C296.3219,434.2344 296.65,433.7813 296.65,433.3906 C296.65,432.9375 296.2594,432.5469 295.7906,432.5469 C295.5719,432.5469 295.3688,432.625 295.1813,432.8125 C294.7281,433.2969 294.7281,433.2969 294.5406,433.3906 C294.1188,433.6563 293.4313,433.7813 292.6656,433.7813 C290.6188,433.7813 289.3219,432.6875 289.3219,430.9844 L289.3219,429.8906 C289.3219,428.1094 290.5719,426.7969 292.3063,426.7969 C292.8844,426.7969 293.4938,426.9531 293.9625,427.2031 C294.4469,427.4844 294.6188,427.7031 294.7125,428.1094 C294.775,428.5156 294.8063,428.6406 294.9469,428.7656 C295.0875,428.9063 295.3219,429.0156 295.5406,429.0156 C295.8063,429.0156 296.0719,428.875 296.2438,428.6563 C296.3531,428.5 296.3844,428.3125 296.3844,427.8906 L296.3844,426.4688 C296.3844,426.0313 296.3688,425.9063 296.275,425.75 C296.1188,425.4844 295.8375,425.3438 295.5406,425.3438 C295.2438,425.3438 295.0406,425.4375 294.8219,425.75 L294.65,425.6719 Z " fill="#000000"/><text fill="#000000" font-family="sans-serif" font-size="12" lengthAdjust="spacing" textLength="47" x="311.3063" y="434.1543">TestDto</text><line style="stroke:#A80036;stroke-width:1.5;" x1="255.8063" x2="382.8063" y1="446" y2="446"/><text fill="#000000" font-family="sans-serif" font-size="11" lengthAdjust="spacing" textLength="96" x="260.8063" y="460.2104">-Date registDate</text><text fill="#000000" font-family="sans-serif" font-size="11" lengthAdjust="spacing" textLength="110" x="260.8063" y="473.0151">-Date analysisDate</text><text fill="#000000" font-family="sans-serif" font-size="11" lengthAdjust="spacing" textLength="117" x="260.8063" y="485.8198">-Date diagnosisDate</text><line style="stroke:#A80036;stroke-width:1.5;" x1="255.8063" x2="382.8063" y1="492.4141" y2="492.4141"/><text fill="#000000" font-family="sans-serif" font-size="11" lengthAdjust="spacing" textLength="62" x="260.8063" y="506.6245">+TestDto()</text><!--MD5=[001d459faaea6399543a04750678f0ab]
link ValidateWorkDoneUI to ValidateWorkDoneController--><path codeLine="45" d="M169.3063,55.137 C169.3063,70.825 169.3063,92.003 169.3063,110.555 " fill="none" id="ValidateWorkDoneUI-to-ValidateWorkDoneController" style="stroke:#A80036;stroke-width:1.0;stroke-dasharray:7.0,7.0;"/><polygon fill="#A80036" points="169.3063,115.711,173.3063,106.711,169.3063,110.711,165.3063,106.711,169.3063,115.711" style="stroke:#A80036;stroke-width:1.0;"/><!--MD5=[506ef67715507d04377eaf4a0302e92d]
link ValidateWorkDoneController to TestStore--><path codeLine="46" d="M130.7433,190.416 C115.6833,207.235 100.1635,228.464 92.3062,251 C72.2953,308.394 92.7872,378.48 110.304,421.805 " fill="none" id="ValidateWorkDoneController-to-TestStore" style="stroke:#A80036;stroke-width:1.0;stroke-dasharray:7.0,7.0;"/><polygon fill="#A80036" points="112.2049,426.432,112.4849,416.5871,110.3049,421.8071,105.085,419.6271,112.2049,426.432" style="stroke:#A80036;stroke-width:1.0;"/><!--MD5=[da71f009ae07e4258c9c1bb20e96cde0]
link ValidateWorkDoneController to Company--><path codeLine="47" d="M169.3063,190.158 C169.3063,207.142 169.3063,227.609 169.3063,245.797 " fill="none" id="ValidateWorkDoneController-to-Company" style="stroke:#A80036;stroke-width:1.0;stroke-dasharray:7.0,7.0;"/><polygon fill="#A80036" points="169.3063,250.861,173.3063,241.861,169.3063,245.861,165.3063,241.861,169.3063,250.861" style="stroke:#A80036;stroke-width:1.0;"/><!--MD5=[f4db34bc6292bb027996a0e65c908adc]
link ValidateWorkDoneController to TestMapper--><path codeLine="48" d="M255.7133,190.032 C273.6583,198.877 292.0413,209.001 308.3063,220 C325.1323,231.379 341.9223,246.268 355.6693,259.629 " fill="none" id="ValidateWorkDoneController-to-TestMapper" style="stroke:#A80036;stroke-width:1.0;stroke-dasharray:7.0,7.0;"/><polygon fill="#A80036" points="359.4633,263.353,355.8425,254.1939,355.895,259.8505,350.2384,259.903,359.4633,263.353" style="stroke:#A80036;stroke-width:1.0;"/><!--MD5=[f2a619b2110de8cf3b8ff0c6abb57eae]
link ValidateWorkDoneController to TestDto--><path codeLine="49" d="M202.8303,190.133 C217.6703,207.544 234.4163,229.32 246.3063,251 C274.0953,301.667 294.2383,364.871 306.2383,408.93 " fill="none" id="ValidateWorkDoneController-to-TestDto" style="stroke:#A80036;stroke-width:1.0;stroke-dasharray:7.0,7.0;"/><polygon fill="#A80036" points="307.5893,413.937,309.1059,404.2056,306.2864,409.1097,301.3823,406.2902,307.5893,413.937" style="stroke:#A80036;stroke-width:1.0;"/><!--MD5=[dc09f242af10100c66626043d609010e]
link ValidateWorkDoneController to Test--><path codeLine="50" d="M128.4953,190.182 C118.6013,199.567 108.2937,209.887 99.3062,220 C37.5723,289.462 36.3606,322.297 21.3062,414 C14.1783,457.419 6,471.748 21.3062,513 C31.3788,540.147 50.2458,565.361 69.4269,585.96 " fill="none" id="ValidateWorkDoneController-to-Test" style="stroke:#A80036;stroke-width:1.0;stroke-dasharray:7.0,7.0;"/><polygon fill="#A80036" points="73.0101,589.7521,69.7359,580.4634,69.5759,586.118,63.9214,585.958,73.0101,589.7521" style="stroke:#A80036;stroke-width:1.0;"/><!--MD5=[34b2fed5845bf5a187f4983fcf3f57bc]
link TestMapper to TestDto--><path codeLine="51" d="M375.3053,324.56 C365.8263,347.91 352.3493,381.108 340.9913,409.084 " fill="none" id="TestMapper-to-TestDto" style="stroke:#A80036;stroke-width:1.0;stroke-dasharray:7.0,7.0;"/><polygon fill="#A80036" points="339.0423,413.884,346.1347,407.0504,340.9236,409.2514,338.7226,404.0403,339.0423,413.884" style="stroke:#A80036;stroke-width:1.0;"/><!--MD5=[c9b8a9fe7c3b58e6182059e5a2a831ec]
link TestDto to Test--><path codeLine="52" d="M301.6563,513.258 C294.1023,529.475 284.0383,546.757 271.3063,560 C258.4573,573.364 242.8303,585.044 226.7023,595.0242 " fill="none" id="TestDto-to-Test" style="stroke:#A80036;stroke-width:1.0;stroke-dasharray:7.0,7.0;"/><polygon fill="#A80036" points="222.1413,597.7939,231.91,596.5405,226.4147,595.1982,227.757,589.7029,222.1413,597.7939" style="stroke:#A80036;stroke-width:1.0;"/><!--MD5=[b0f4f6db8206580012ef9cd998ed01c5]
link TestStore to Test--><path codeLine="53" d="M129.3063,500.553 C129.3063,524.917 129.3063,557.513 129.3063,584.902 " fill="none" id="TestStore-to-Test" style="stroke:#A80036;stroke-width:1.0;"/><polygon fill="#A80036" points="129.3063,589.9518,133.3063,580.9518,129.3063,584.9518,125.3063,580.9518,129.3063,589.9518" style="stroke:#A80036;stroke-width:1.0;"/><text fill="#000000" font-family="sans-serif" font-size="13" lengthAdjust="spacing" textLength="132" x="130.3063" y="556.0669">capable of analysing</text><text fill="#000000" font-family="sans-serif" font-size="13" lengthAdjust="spacing" textLength="8" x="120.6438" y="520.0423">1</text><text fill="#000000" font-family="sans-serif" font-size="13" lengthAdjust="spacing" textLength="7" x="121.8141" y="578.9905">*</text><!--MD5=[7f6cf7f175eae0af66201860de5de971]
link Company to TestStore--><path codeLine="54" d="M159.2123,337.267 C153.0503,363.071 145.2103,395.903 139.1033,421.476 " fill="none" id="Company-to-TestStore" style="stroke:#A80036;stroke-width:1.0;"/><polygon fill="#A80036" points="137.9053,426.49,143.8866,418.6654,139.0668,421.6268,136.1054,416.807,137.9053,426.49" style="stroke:#A80036;stroke-width:1.0;"/><text fill="#000000" font-family="sans-serif" font-size="13" lengthAdjust="spacing" textLength="30" x="153.3063" y="380.0669">uses</text><text fill="#000000" font-family="sans-serif" font-size="13" lengthAdjust="spacing" textLength="8" x="148.9661" y="357.4025">1</text><text fill="#000000" font-family="sans-serif" font-size="13" lengthAdjust="spacing" textLength="8" x="130.7532" y="415.3986">1</text><!--MD5=[2bf9ac04588bd60057872e17cf5292a3]
@startuml
skinparam classAttributeIconSize 0

class Company
{
  -String designation
  +getTestStore()
  +getTests()
}


class Test {
  -int code
  -String nhsCode
  -List <TestType> listTestType
  +Test()
}

class TestStore {
  +getTestByBarcode(barcode)
  +validateTest(test)
}


class ValidateWorkDoneController {
  +getTests()
  +validateTest(test)
}

class ValidateWorkDoneUI {

}

class TestMapper {
   +toDto()
}

class TestDto {
  -Date registDate
  -Date analysisDate
  -Date diagnosisDate
  +TestDto()
}


ValidateWorkDoneUI ..> ValidateWorkDoneController
ValidateWorkDoneController ..> TestStore
ValidateWorkDoneController ..> Company
ValidateWorkDoneController ..> TestMapper
ValidateWorkDoneController ..> TestDto
ValidateWorkDoneController ..> Test
TestMapper ..> TestDto
TestDto ..> Test
TestStore "1" - -> "*" Test : capable of analysing
Company "1" - -> "1" TestStore : uses
@enduml

PlantUML version 1.2021.7beta3(Unknown compile time)
(GPL source distribution)
Java Runtime: Java(TM) SE Runtime Environment
JVM: Java HotSpot(TM) 64-Bit Server VM
Default Encoding: UTF-8
Language: en
Country: US
--></g></svg>