<?xml version="1.0" encoding="UTF-8" standalone="no"?><svg xmlns="http://www.w3.org/2000/svg" xmlns:xlink="http://www.w3.org/1999/xlink" contentScriptType="application/ecmascript" contentStyleType="text/css" height="382px" preserveAspectRatio="none" style="width:489px;height:382px;background:#FFFFFF;" version="1.1" viewBox="0 0 489 382" width="489px" zoomAndPan="magnify"><defs><filter height="300%" id="f158j9z2bwfpf3" width="300%" x="-1" y="-1"><feGaussianBlur result="blurOut" stdDeviation="2.0"/><feColorMatrix in="blurOut" result="blurOut2" type="matrix" values="0 0 0 0 0 0 0 0 0 0 0 0 0 0 0 0 0 0 .4 0"/><feOffset dx="4.0" dy="4.0" in="blurOut2" result="blurOut3"/><feBlend in="SourceGraphic" in2="blurOut3" mode="normal"/></filter></defs><g><rect fill="#FFFFFF" filter="url(#f158j9z2bwfpf3)" height="181.9297" style="stroke:#A80036;stroke-width:1.0;" width="10" x="87.5" y="98.2969"/><rect fill="#FFFFFF" filter="url(#f158j9z2bwfpf3)" height="29.1328" style="stroke:#A80036;stroke-width:1.0;" width="10" x="435.5" y="134.5625"/><rect fill="#FFFFFF" filter="url(#f158j9z2bwfpf3)" height="29.1328" style="stroke:#A80036;stroke-width:1.0;" width="10" x="435.5" y="192.8281"/><rect fill="#FFFFFF" filter="url(#f158j9z2bwfpf3)" height="29.1328" style="stroke:#A80036;stroke-width:1.0;" width="10" x="435.5" y="251.0938"/><line style="stroke:#A80036;stroke-width:1.0;stroke-dasharray:5.0,5.0;" x1="92" x2="92" y1="88.2969" y2="298.2266"/><line style="stroke:#A80036;stroke-width:1.0;stroke-dasharray:5.0,5.0;" x1="440" x2="440" y1="88.2969" y2="298.2266"/><text fill="#000000" font-family="sans-serif" font-size="14" lengthAdjust="spacing" textLength="169" x="5" y="84.9951">Laboratory Coordinator</text><ellipse cx="92.5" cy="15" fill="#FEFECE" filter="url(#f158j9z2bwfpf3)" rx="8" ry="8" style="stroke:#A80036;stroke-width:2.0;"/><path d="M92.5,23 L92.5,50 M79.5,31 L105.5,31 M92.5,50 L79.5,65 M92.5,50 L105.5,65 " fill="none" filter="url(#f158j9z2bwfpf3)" style="stroke:#A80036;stroke-width:2.0;"/><text fill="#000000" font-family="sans-serif" font-size="14" lengthAdjust="spacing" textLength="169" x="5" y="310.2217">Laboratory Coordinator</text><ellipse cx="92.5" cy="323.5234" fill="#FEFECE" filter="url(#f158j9z2bwfpf3)" rx="8" ry="8" style="stroke:#A80036;stroke-width:2.0;"/><path d="M92.5,331.5234 L92.5,358.5234 M79.5,339.5234 L105.5,339.5234 M92.5,358.5234 L79.5,373.5234 M92.5,358.5234 L105.5,373.5234 " fill="none" filter="url(#f158j9z2bwfpf3)" style="stroke:#A80036;stroke-width:2.0;"/><rect fill="#FEFECE" filter="url(#f158j9z2bwfpf3)" height="30.2969" style="stroke:#A80036;stroke-width:1.5;" width="73" x="402" y="53"/><text fill="#000000" font-family="sans-serif" font-size="14" lengthAdjust="spacing" textLength="59" x="409" y="72.9951">:System</text><rect fill="#FEFECE" filter="url(#f158j9z2bwfpf3)" height="30.2969" style="stroke:#A80036;stroke-width:1.5;" width="73" x="402" y="297.2266"/><text fill="#000000" font-family="sans-serif" font-size="14" lengthAdjust="spacing" textLength="59" x="409" y="317.2217">:System</text><rect fill="#FFFFFF" filter="url(#f158j9z2bwfpf3)" height="181.9297" style="stroke:#A80036;stroke-width:1.0;" width="10" x="87.5" y="98.2969"/><rect fill="#FFFFFF" filter="url(#f158j9z2bwfpf3)" height="29.1328" style="stroke:#A80036;stroke-width:1.0;" width="10" x="435.5" y="134.5625"/><rect fill="#FFFFFF" filter="url(#f158j9z2bwfpf3)" height="29.1328" style="stroke:#A80036;stroke-width:1.0;" width="10" x="435.5" y="192.8281"/><rect fill="#FFFFFF" filter="url(#f158j9z2bwfpf3)" height="29.1328" style="stroke:#A80036;stroke-width:1.0;" width="10" x="435.5" y="251.0938"/><polygon fill="#A80036" points="423.5,130.5625,433.5,134.5625,423.5,138.5625,427.5,134.5625" style="stroke:#A80036;stroke-width:1.0;"/><line style="stroke:#A80036;stroke-width:1.0;" x1="97.5" x2="429.5" y1="134.5625" y2="134.5625"/><text fill="#000000" font-family="sans-serif" font-size="13" font-weight="bold" lengthAdjust="spacing" textLength="9" x="104.5" y="121.9302">1</text><text fill="#000000" font-family="sans-serif" font-size="13" lengthAdjust="spacing" textLength="281" x="117.5" y="114.3638">ask to validate the work done by the clinical</text><text fill="#000000" font-family="sans-serif" font-size="13" lengthAdjust="spacing" textLength="282" x="117.5" y="129.4966">chemistry technologist and specialist doctor</text><polygon fill="#A80036" points="108.5,159.6953,98.5,163.6953,108.5,167.6953,104.5,163.6953" style="stroke:#A80036;stroke-width:1.0;"/><line style="stroke:#A80036;stroke-width:1.0;stroke-dasharray:2.0,2.0;" x1="102.5" x2="439.5" y1="163.6953" y2="163.6953"/><text fill="#000000" font-family="sans-serif" font-size="13" font-weight="bold" lengthAdjust="spacing" textLength="9" x="114.5" y="158.6294">2</text><text fill="#000000" font-family="sans-serif" font-size="13" lengthAdjust="spacing" textLength="243" x="127.5" y="158.6294">shows the tests ready to be validated</text><polygon fill="#A80036" points="423.5,188.8281,433.5,192.8281,423.5,196.8281,427.5,192.8281" style="stroke:#A80036;stroke-width:1.0;"/><line style="stroke:#A80036;stroke-width:1.0;" x1="97.5" x2="429.5" y1="192.8281" y2="192.8281"/><text fill="#000000" font-family="sans-serif" font-size="13" font-weight="bold" lengthAdjust="spacing" textLength="8" x="104.5" y="187.7622">3</text><text fill="#000000" font-family="sans-serif" font-size="13" lengthAdjust="spacing" textLength="146" x="116.5" y="187.7622">select tests to validate</text><polygon fill="#A80036" points="108.5,217.9609,98.5,221.9609,108.5,225.9609,104.5,221.9609" style="stroke:#A80036;stroke-width:1.0;"/><line style="stroke:#A80036;stroke-width:1.0;stroke-dasharray:2.0,2.0;" x1="102.5" x2="439.5" y1="221.9609" y2="221.9609"/><text fill="#000000" font-family="sans-serif" font-size="13" font-weight="bold" lengthAdjust="spacing" textLength="9" x="114.5" y="216.895">4</text><text fill="#000000" font-family="sans-serif" font-size="13" lengthAdjust="spacing" textLength="301" x="127.5" y="216.895">shows tests selected and request confirmation</text><polygon fill="#A80036" points="423.5,247.0938,433.5,251.0938,423.5,255.0938,427.5,251.0938" style="stroke:#A80036;stroke-width:1.0;"/><line style="stroke:#A80036;stroke-width:1.0;" x1="97.5" x2="429.5" y1="251.0938" y2="251.0938"/><text fill="#000000" font-family="sans-serif" font-size="13" font-weight="bold" lengthAdjust="spacing" textLength="9" x="104.5" y="246.0278">5</text><text fill="#000000" font-family="sans-serif" font-size="13" lengthAdjust="spacing" textLength="89" x="117.5" y="246.0278">confirms data</text><polygon fill="#A80036" points="103.5,276.2266,93.5,280.2266,103.5,284.2266,99.5,280.2266" style="stroke:#A80036;stroke-width:1.0;"/><line style="stroke:#A80036;stroke-width:1.0;stroke-dasharray:2.0,2.0;" x1="97.5" x2="439.5" y1="280.2266" y2="280.2266"/><text fill="#000000" font-family="sans-serif" font-size="13" font-weight="bold" lengthAdjust="spacing" textLength="9" x="109.5" y="275.1606">6</text><text fill="#000000" font-family="sans-serif" font-size="13" lengthAdjust="spacing" textLength="176" x="122.5" y="275.1606">informs operations success</text><!--MD5=[302ef2fccf7be4bbb5586417250754d9]
@startuml
actor "Laboratory Coordinator" as Adm
participant ":System" as System

autonumber
activate Adm
Adm -> System: ask to validate the work done by the clinical \nchemistry technologist and specialist doctor
activate System
System - -> Adm: shows the tests ready to be validated
deactivate System
Adm -> System: select tests to validate
activate System
System - -> Adm: shows tests selected and request confirmation
deactivate System
Adm -> System: confirms data
activate System
System - -> Adm: informs operations success
deactivate System
deactivate Adm
@enduml

PlantUML version 1.2021.7(Sun May 23 12:40:07 UTC 2021)
(GPL source distribution)
Java Runtime: Java(TM) SE Runtime Environment
JVM: Java HotSpot(TM) 64-Bit Server VM
Default Encoding: UTF-8
Language: en
Country: US
--></g></svg>