<?xml version="1.0" encoding="UTF-8" standalone="no"?><svg xmlns="http://www.w3.org/2000/svg" xmlns:xlink="http://www.w3.org/1999/xlink" contentScriptType="application/ecmascript" contentStyleType="text/css" height="768px" preserveAspectRatio="none" style="width:575px;height:768px;background:#FFFFFF;" version="1.1" viewBox="0 0 575 768" width="575px" zoomAndPan="magnify"><defs><filter height="300%" id="f8tf172k708li" width="300%" x="-1" y="-1"><feGaussianBlur result="blurOut" stdDeviation="2.0"/><feColorMatrix in="blurOut" result="blurOut2" type="matrix" values="0 0 0 0 0 0 0 0 0 0 0 0 0 0 0 0 0 0 .4 0"/><feOffset dx="4.0" dy="4.0" in="blurOut2" result="blurOut3"/><feBlend in="SourceGraphic" in2="blurOut3" mode="normal"/></filter></defs><g><!--MD5=[02e4b9b7573f1156f41e60aa5b4e25a4]
class Company--><rect codeLine="3" fill="#FEFECE" filter="url(#f8tf172k708li)" height="73.6094" id="Company" style="stroke:#A80036;stroke-width:1.5;" width="119" x="21.5" y="251"/><ellipse cx="50.45" cy="267" fill="#ADD1B2" rx="11" ry="11" style="stroke:#A80036;stroke-width:1.0;"/><path d="M52.7938,262.6719 C51.8563,262.2344 51.2625,262.0938 50.3875,262.0938 C47.7625,262.0938 45.7625,264.1719 45.7625,266.8906 L45.7625,268.0156 C45.7625,270.5938 47.8719,272.4844 50.7625,272.4844 C51.9813,272.4844 53.1375,272.1875 53.8875,271.6406 C54.4656,271.2344 54.7938,270.7813 54.7938,270.3906 C54.7938,269.9375 54.4031,269.5469 53.9344,269.5469 C53.7156,269.5469 53.5125,269.625 53.325,269.8125 C52.8719,270.2969 52.8719,270.2969 52.6844,270.3906 C52.2625,270.6563 51.575,270.7813 50.8094,270.7813 C48.7625,270.7813 47.4656,269.6875 47.4656,267.9844 L47.4656,266.8906 C47.4656,265.1094 48.7156,263.7969 50.45,263.7969 C51.0281,263.7969 51.6375,263.9531 52.1063,264.2031 C52.5906,264.4844 52.7625,264.7031 52.8563,265.1094 C52.9188,265.5156 52.95,265.6406 53.0906,265.7656 C53.2313,265.9063 53.4656,266.0156 53.6844,266.0156 C53.95,266.0156 54.2156,265.875 54.3875,265.6563 C54.4969,265.5 54.5281,265.3125 54.5281,264.8906 L54.5281,263.4688 C54.5281,263.0313 54.5125,262.9063 54.4188,262.75 C54.2625,262.4844 53.9813,262.3438 53.6844,262.3438 C53.3875,262.3438 53.1844,262.4375 52.9656,262.75 L52.7938,262.6719 Z " fill="#000000"/><text fill="#000000" font-family="sans-serif" font-size="12" lengthAdjust="spacing" textLength="56" x="67.55" y="271.1543">Company</text><line style="stroke:#A80036;stroke-width:1.5;" x1="22.5" x2="139.5" y1="283" y2="283"/><text fill="#000000" font-family="sans-serif" font-size="11" lengthAdjust="spacing" textLength="107" x="27.5" y="297.2104">-String designation</text><line style="stroke:#A80036;stroke-width:1.5;" x1="22.5" x2="139.5" y1="303.8047" y2="303.8047"/><text fill="#000000" font-family="sans-serif" font-size="11" lengthAdjust="spacing" textLength="92" x="27.5" y="318.0151">+getTestStore()</text><!--MD5=[df38be88ccee13e832d6fafd6288a4ca]
class Test--><rect codeLine="10" fill="#FEFECE" filter="url(#f8tf172k708li)" height="163.2422" id="Test" style="stroke:#A80036;stroke-width:1.5;" width="185" x="144.5" y="591"/><ellipse cx="219.75" cy="607" fill="#ADD1B2" rx="11" ry="11" style="stroke:#A80036;stroke-width:1.0;"/><path d="M222.0938,602.6719 C221.1563,602.2344 220.5625,602.0938 219.6875,602.0938 C217.0625,602.0938 215.0625,604.1719 215.0625,606.8906 L215.0625,608.0156 C215.0625,610.5938 217.1719,612.4844 220.0625,612.4844 C221.2813,612.4844 222.4375,612.1875 223.1875,611.6406 C223.7656,611.2344 224.0938,610.7813 224.0938,610.3906 C224.0938,609.9375 223.7031,609.5469 223.2344,609.5469 C223.0156,609.5469 222.8125,609.625 222.625,609.8125 C222.1719,610.2969 222.1719,610.2969 221.9844,610.3906 C221.5625,610.6563 220.875,610.7813 220.1094,610.7813 C218.0625,610.7813 216.7656,609.6875 216.7656,607.9844 L216.7656,606.8906 C216.7656,605.1094 218.0156,603.7969 219.75,603.7969 C220.3281,603.7969 220.9375,603.9531 221.4063,604.2031 C221.8906,604.4844 222.0625,604.7031 222.1563,605.1094 C222.2188,605.5156 222.25,605.6406 222.3906,605.7656 C222.5313,605.9063 222.7656,606.0156 222.9844,606.0156 C223.25,606.0156 223.5156,605.875 223.6875,605.6563 C223.7969,605.5 223.8281,605.3125 223.8281,604.8906 L223.8281,603.4688 C223.8281,603.0313 223.8125,602.9063 223.7188,602.75 C223.5625,602.4844 223.2813,602.3438 222.9844,602.3438 C222.6875,602.3438 222.4844,602.4375 222.2656,602.75 L222.0938,602.6719 Z " fill="#000000"/><text fill="#000000" font-family="sans-serif" font-size="12" lengthAdjust="spacing" textLength="26" x="240.25" y="611.1543">Test</text><line style="stroke:#A80036;stroke-width:1.5;" x1="145.5" x2="328.5" y1="623" y2="623"/><text fill="#000000" font-family="sans-serif" font-size="11" lengthAdjust="spacing" textLength="50" x="150.5" y="637.2104">-int code</text><text fill="#000000" font-family="sans-serif" font-size="11" lengthAdjust="spacing" textLength="91" x="150.5" y="650.0151">-String nhsCode</text><text fill="#000000" font-family="sans-serif" font-size="11" lengthAdjust="spacing" textLength="173" x="150.5" y="662.8198">-List &lt;TestType&gt; listTestType</text><text fill="#000000" font-family="sans-serif" font-size="11" lengthAdjust="spacing" textLength="92" x="150.5" y="675.6245">-Date createdAt</text><text fill="#000000" font-family="sans-serif" font-size="11" lengthAdjust="spacing" textLength="103" x="150.5" y="688.4292">-Date resultRegist</text><line style="stroke:#A80036;stroke-width:1.5;" x1="145.5" x2="328.5" y1="695.0234" y2="695.0234"/><text fill="#000000" font-family="sans-serif" font-size="11" lengthAdjust="spacing" textLength="42" x="150.5" y="709.2339">+Test()</text><text fill="#000000" font-family="sans-serif" font-size="11" lengthAdjust="spacing" textLength="94" x="150.5" y="722.0386">+getCreatedAt()</text><text fill="#000000" font-family="sans-serif" font-size="11" lengthAdjust="spacing" textLength="106" x="150.5" y="734.8433">+getResultRegist()</text><text fill="#000000" font-family="sans-serif" font-size="11" lengthAdjust="spacing" textLength="88" x="150.5" y="747.6479">+validateTest()</text><!--MD5=[0f6f7964b844a64b0496af0dda7914bd]
class TestStore--><rect codeLine="22" fill="#FEFECE" filter="url(#f8tf172k708li)" height="73.6094" id="TestStore" style="stroke:#A80036;stroke-width:1.5;" width="148" x="7" y="421"/><ellipse cx="47.65" cy="437" fill="#ADD1B2" rx="11" ry="11" style="stroke:#A80036;stroke-width:1.0;"/><path d="M49.9938,432.6719 C49.0563,432.2344 48.4625,432.0938 47.5875,432.0938 C44.9625,432.0938 42.9625,434.1719 42.9625,436.8906 L42.9625,438.0156 C42.9625,440.5938 45.0719,442.4844 47.9625,442.4844 C49.1813,442.4844 50.3375,442.1875 51.0875,441.6406 C51.6656,441.2344 51.9938,440.7813 51.9938,440.3906 C51.9938,439.9375 51.6031,439.5469 51.1344,439.5469 C50.9156,439.5469 50.7125,439.625 50.525,439.8125 C50.0719,440.2969 50.0719,440.2969 49.8844,440.3906 C49.4625,440.6563 48.775,440.7813 48.0094,440.7813 C45.9625,440.7813 44.6656,439.6875 44.6656,437.9844 L44.6656,436.8906 C44.6656,435.1094 45.9156,433.7969 47.65,433.7969 C48.2281,433.7969 48.8375,433.9531 49.3063,434.2031 C49.7906,434.4844 49.9625,434.7031 50.0563,435.1094 C50.1188,435.5156 50.15,435.6406 50.2906,435.7656 C50.4313,435.9063 50.6656,436.0156 50.8844,436.0156 C51.15,436.0156 51.4156,435.875 51.5875,435.6563 C51.6969,435.5 51.7281,435.3125 51.7281,434.8906 L51.7281,433.4688 C51.7281,433.0313 51.7125,432.9063 51.6188,432.75 C51.4625,432.4844 51.1813,432.3438 50.8844,432.3438 C50.5875,432.3438 50.3844,432.4375 50.1656,432.75 L49.9938,432.6719 Z " fill="#000000"/><text fill="#000000" font-family="sans-serif" font-size="12" lengthAdjust="spacing" textLength="59" x="67.35" y="441.1543">TestStore</text><line style="stroke:#A80036;stroke-width:1.5;" x1="8" x2="154" y1="453" y2="453"/><line style="stroke:#A80036;stroke-width:1.5;" x1="8" x2="154" y1="461" y2="461"/><text fill="#000000" font-family="sans-serif" font-size="11" lengthAdjust="spacing" textLength="136" x="13" y="475.2104">+getTestByCode(Code)</text><text fill="#000000" font-family="sans-serif" font-size="11" lengthAdjust="spacing" textLength="110" x="13" y="488.0151">+validateTest(test)</text><!--MD5=[db921183028456ae22ec890b9d583b60]
class ValidateWorkDoneController--><rect codeLine="28" fill="#FEFECE" filter="url(#f8tf172k708li)" height="73.6094" id="ValidateWorkDoneController" style="stroke:#A80036;stroke-width:1.5;" width="203" x="92.5" y="116"/><ellipse cx="107.5" cy="132" fill="#ADD1B2" rx="11" ry="11" style="stroke:#A80036;stroke-width:1.0;"/><path d="M109.8438,127.6719 C108.9063,127.2344 108.3125,127.0938 107.4375,127.0938 C104.8125,127.0938 102.8125,129.1719 102.8125,131.8906 L102.8125,133.0156 C102.8125,135.5938 104.9219,137.4844 107.8125,137.4844 C109.0313,137.4844 110.1875,137.1875 110.9375,136.6406 C111.5156,136.2344 111.8438,135.7813 111.8438,135.3906 C111.8438,134.9375 111.4531,134.5469 110.9844,134.5469 C110.7656,134.5469 110.5625,134.625 110.375,134.8125 C109.9219,135.2969 109.9219,135.2969 109.7344,135.3906 C109.3125,135.6563 108.625,135.7813 107.8594,135.7813 C105.8125,135.7813 104.5156,134.6875 104.5156,132.9844 L104.5156,131.8906 C104.5156,130.1094 105.7656,128.7969 107.5,128.7969 C108.0781,128.7969 108.6875,128.9531 109.1563,129.2031 C109.6406,129.4844 109.8125,129.7031 109.9063,130.1094 C109.9688,130.5156 110,130.6406 110.1406,130.7656 C110.2813,130.9063 110.5156,131.0156 110.7344,131.0156 C111,131.0156 111.2656,130.875 111.4375,130.6563 C111.5469,130.5 111.5781,130.3125 111.5781,129.8906 L111.5781,128.4688 C111.5781,128.0313 111.5625,127.9063 111.4688,127.75 C111.3125,127.4844 111.0313,127.3438 110.7344,127.3438 C110.4375,127.3438 110.2344,127.4375 110.0156,127.75 L109.8438,127.6719 Z " fill="#000000"/><text fill="#000000" font-family="sans-serif" font-size="12" lengthAdjust="spacing" textLength="171" x="121.5" y="136.1543">ValidateWorkDoneController</text><line style="stroke:#A80036;stroke-width:1.5;" x1="93.5" x2="294.5" y1="148" y2="148"/><line style="stroke:#A80036;stroke-width:1.5;" x1="93.5" x2="294.5" y1="156" y2="156"/><text fill="#000000" font-family="sans-serif" font-size="11" lengthAdjust="spacing" textLength="67" x="98.5" y="170.2104">+getTests()</text><text fill="#000000" font-family="sans-serif" font-size="11" lengthAdjust="spacing" textLength="110" x="98.5" y="183.0151">+validateTest(test)</text><!--MD5=[81bb5adcf338171fdcf2b9c1599aa745]
class ValidateWorkDoneUI--><rect codeLine="33" fill="#FEFECE" filter="url(#f8tf172k708li)" height="48" id="ValidateWorkDoneUI" style="stroke:#A80036;stroke-width:1.5;" width="156" x="116" y="7"/><ellipse cx="131" cy="23" fill="#ADD1B2" rx="11" ry="11" style="stroke:#A80036;stroke-width:1.0;"/><path d="M133.3438,18.6719 C132.4063,18.2344 131.8125,18.0938 130.9375,18.0938 C128.3125,18.0938 126.3125,20.1719 126.3125,22.8906 L126.3125,24.0156 C126.3125,26.5938 128.4219,28.4844 131.3125,28.4844 C132.5313,28.4844 133.6875,28.1875 134.4375,27.6406 C135.0156,27.2344 135.3438,26.7813 135.3438,26.3906 C135.3438,25.9375 134.9531,25.5469 134.4844,25.5469 C134.2656,25.5469 134.0625,25.625 133.875,25.8125 C133.4219,26.2969 133.4219,26.2969 133.2344,26.3906 C132.8125,26.6563 132.125,26.7813 131.3594,26.7813 C129.3125,26.7813 128.0156,25.6875 128.0156,23.9844 L128.0156,22.8906 C128.0156,21.1094 129.2656,19.7969 131,19.7969 C131.5781,19.7969 132.1875,19.9531 132.6563,20.2031 C133.1406,20.4844 133.3125,20.7031 133.4063,21.1094 C133.4688,21.5156 133.5,21.6406 133.6406,21.7656 C133.7813,21.9063 134.0156,22.0156 134.2344,22.0156 C134.5,22.0156 134.7656,21.875 134.9375,21.6563 C135.0469,21.5 135.0781,21.3125 135.0781,20.8906 L135.0781,19.4688 C135.0781,19.0313 135.0625,18.9063 134.9688,18.75 C134.8125,18.4844 134.5313,18.3438 134.2344,18.3438 C133.9375,18.3438 133.7344,18.4375 133.5156,18.75 L133.3438,18.6719 Z " fill="#000000"/><text fill="#000000" font-family="sans-serif" font-size="12" lengthAdjust="spacing" textLength="124" x="145" y="27.1543">ValidateWorkDoneUI</text><line style="stroke:#A80036;stroke-width:1.5;" x1="117" x2="271" y1="39" y2="39"/><line style="stroke:#A80036;stroke-width:1.5;" x1="117" x2="271" y1="47" y2="47"/><!--MD5=[144698ec4d0188f6929a3b58a3eeb1f6]
class TestMapper--><rect codeLine="37" fill="#FEFECE" filter="url(#f8tf172k708li)" height="60.8047" id="TestMapper" style="stroke:#A80036;stroke-width:1.5;" width="104" x="261" y="257.5"/><ellipse cx="276" cy="273.5" fill="#ADD1B2" rx="11" ry="11" style="stroke:#A80036;stroke-width:1.0;"/><path d="M278.3438,269.1719 C277.4063,268.7344 276.8125,268.5938 275.9375,268.5938 C273.3125,268.5938 271.3125,270.6719 271.3125,273.3906 L271.3125,274.5156 C271.3125,277.0938 273.4219,278.9844 276.3125,278.9844 C277.5313,278.9844 278.6875,278.6875 279.4375,278.1406 C280.0156,277.7344 280.3438,277.2813 280.3438,276.8906 C280.3438,276.4375 279.9531,276.0469 279.4844,276.0469 C279.2656,276.0469 279.0625,276.125 278.875,276.3125 C278.4219,276.7969 278.4219,276.7969 278.2344,276.8906 C277.8125,277.1563 277.125,277.2813 276.3594,277.2813 C274.3125,277.2813 273.0156,276.1875 273.0156,274.4844 L273.0156,273.3906 C273.0156,271.6094 274.2656,270.2969 276,270.2969 C276.5781,270.2969 277.1875,270.4531 277.6563,270.7031 C278.1406,270.9844 278.3125,271.2031 278.4063,271.6094 C278.4688,272.0156 278.5,272.1406 278.6406,272.2656 C278.7813,272.4063 279.0156,272.5156 279.2344,272.5156 C279.5,272.5156 279.7656,272.375 279.9375,272.1563 C280.0469,272 280.0781,271.8125 280.0781,271.3906 L280.0781,269.9688 C280.0781,269.5313 280.0625,269.4063 279.9688,269.25 C279.8125,268.9844 279.5313,268.8438 279.2344,268.8438 C278.9375,268.8438 278.7344,268.9375 278.5156,269.25 L278.3438,269.1719 Z " fill="#000000"/><text fill="#000000" font-family="sans-serif" font-size="12" lengthAdjust="spacing" textLength="72" x="290" y="277.6543">TestMapper</text><line style="stroke:#A80036;stroke-width:1.5;" x1="262" x2="364" y1="289.5" y2="289.5"/><line style="stroke:#A80036;stroke-width:1.5;" x1="262" x2="364" y1="297.5" y2="297.5"/><text fill="#000000" font-family="sans-serif" font-size="11" lengthAdjust="spacing" textLength="76" x="267" y="311.7104">+toDtoDate()</text><!--MD5=[3787f20f4b23ef216427bf01315aa659]
class TestDtoDate--><rect codeLine="41" fill="#FEFECE" filter="url(#f8tf172k708li)" height="112.0234" id="TestDtoDate" style="stroke:#A80036;stroke-width:1.5;" width="129" x="290.5" y="402"/><ellipse cx="315.4" cy="418" fill="#ADD1B2" rx="11" ry="11" style="stroke:#A80036;stroke-width:1.0;"/><path d="M317.7438,413.6719 C316.8063,413.2344 316.2125,413.0938 315.3375,413.0938 C312.7125,413.0938 310.7125,415.1719 310.7125,417.8906 L310.7125,419.0156 C310.7125,421.5938 312.8219,423.4844 315.7125,423.4844 C316.9313,423.4844 318.0875,423.1875 318.8375,422.6406 C319.4156,422.2344 319.7438,421.7813 319.7438,421.3906 C319.7438,420.9375 319.3531,420.5469 318.8844,420.5469 C318.6656,420.5469 318.4625,420.625 318.275,420.8125 C317.8219,421.2969 317.8219,421.2969 317.6344,421.3906 C317.2125,421.6563 316.525,421.7813 315.7594,421.7813 C313.7125,421.7813 312.4156,420.6875 312.4156,418.9844 L312.4156,417.8906 C312.4156,416.1094 313.6656,414.7969 315.4,414.7969 C315.9781,414.7969 316.5875,414.9531 317.0563,415.2031 C317.5406,415.4844 317.7125,415.7031 317.8063,416.1094 C317.8688,416.5156 317.9,416.6406 318.0406,416.7656 C318.1813,416.9063 318.4156,417.0156 318.6344,417.0156 C318.9,417.0156 319.1656,416.875 319.3375,416.6563 C319.4469,416.5 319.4781,416.3125 319.4781,415.8906 L319.4781,414.4688 C319.4781,414.0313 319.4625,413.9063 319.3688,413.75 C319.2125,413.4844 318.9313,413.3438 318.6344,413.3438 C318.3375,413.3438 318.1344,413.4375 317.9156,413.75 L317.7438,413.6719 Z " fill="#000000"/><text fill="#000000" font-family="sans-serif" font-size="12" lengthAdjust="spacing" textLength="75" x="331.6" y="422.1543">TestDtoDate</text><line style="stroke:#A80036;stroke-width:1.5;" x1="291.5" x2="418.5" y1="434" y2="434"/><text fill="#000000" font-family="sans-serif" font-size="11" lengthAdjust="spacing" textLength="71" x="296.5" y="448.2104">-String Code</text><text fill="#000000" font-family="sans-serif" font-size="11" lengthAdjust="spacing" textLength="96" x="296.5" y="461.0151">-Date registDate</text><text fill="#000000" font-family="sans-serif" font-size="11" lengthAdjust="spacing" textLength="110" x="296.5" y="473.8198">-Date analysisDate</text><text fill="#000000" font-family="sans-serif" font-size="11" lengthAdjust="spacing" textLength="117" x="296.5" y="486.6245">-Date diagnosisDate</text><line style="stroke:#A80036;stroke-width:1.5;" x1="291.5" x2="418.5" y1="493.2188" y2="493.2188"/><text fill="#000000" font-family="sans-serif" font-size="11" lengthAdjust="spacing" textLength="90" x="296.5" y="507.4292">+TestDtoDate()</text><!--MD5=[f00dbe8c0302c6aec2cb26b3c659c8fc]
class Report--><rect codeLine="48" fill="#FEFECE" filter="url(#f8tf172k708li)" height="73.6094" id="Report" style="stroke:#A80036;stroke-width:1.5;" width="106" x="455" y="421"/><ellipse cx="485.3" cy="437" fill="#ADD1B2" rx="11" ry="11" style="stroke:#A80036;stroke-width:1.0;"/><path d="M487.6438,432.6719 C486.7063,432.2344 486.1125,432.0938 485.2375,432.0938 C482.6125,432.0938 480.6125,434.1719 480.6125,436.8906 L480.6125,438.0156 C480.6125,440.5938 482.7219,442.4844 485.6125,442.4844 C486.8313,442.4844 487.9875,442.1875 488.7375,441.6406 C489.3156,441.2344 489.6438,440.7813 489.6438,440.3906 C489.6438,439.9375 489.2531,439.5469 488.7844,439.5469 C488.5656,439.5469 488.3625,439.625 488.175,439.8125 C487.7219,440.2969 487.7219,440.2969 487.5344,440.3906 C487.1125,440.6563 486.425,440.7813 485.6594,440.7813 C483.6125,440.7813 482.3156,439.6875 482.3156,437.9844 L482.3156,436.8906 C482.3156,435.1094 483.5656,433.7969 485.3,433.7969 C485.8781,433.7969 486.4875,433.9531 486.9563,434.2031 C487.4406,434.4844 487.6125,434.7031 487.7063,435.1094 C487.7688,435.5156 487.8,435.6406 487.9406,435.7656 C488.0813,435.9063 488.3156,436.0156 488.5344,436.0156 C488.8,436.0156 489.0656,435.875 489.2375,435.6563 C489.3469,435.5 489.3781,435.3125 489.3781,434.8906 L489.3781,433.4688 C489.3781,433.0313 489.3625,432.9063 489.2688,432.75 C489.1125,432.4844 488.8313,432.3438 488.5344,432.3438 C488.2375,432.3438 488.0344,432.4375 487.8156,432.75 L487.6438,432.6719 Z " fill="#000000"/><text fill="#000000" font-family="sans-serif" font-size="12" lengthAdjust="spacing" textLength="40" x="502.7" y="441.1543">Report</text><line style="stroke:#A80036;stroke-width:1.5;" x1="456" x2="560" y1="453" y2="453"/><text fill="#000000" font-family="sans-serif" font-size="11" lengthAdjust="spacing" textLength="92" x="461" y="467.2104">-Date createdAt</text><line style="stroke:#A80036;stroke-width:1.5;" x1="456" x2="560" y1="473.8047" y2="473.8047"/><text fill="#000000" font-family="sans-serif" font-size="11" lengthAdjust="spacing" textLength="94" x="461" y="488.0151">+getCreatedAt()</text><!--MD5=[001d459faaea6399543a04750678f0ab]
link ValidateWorkDoneUI to ValidateWorkDoneController--><path codeLine="54" d="M194,55.137 C194,70.825 194,92.003 194,110.555 " fill="none" id="ValidateWorkDoneUI-to-ValidateWorkDoneController" style="stroke:#A80036;stroke-width:1.0;stroke-dasharray:7.0,7.0;"/><polygon fill="#A80036" points="194,115.711,198,106.711,194,110.711,190,106.711,194,115.711" style="stroke:#A80036;stroke-width:1.0;"/><!--MD5=[506ef67715507d04377eaf4a0302e92d]
link ValidateWorkDoneController to TestStore--><path codeLine="55" d="M189.789,190.327 C184.909,225.617 175.235,280.271 158,325 C145.511,357.413 125.656,391.198 109.237,416.473 " fill="none" id="ValidateWorkDoneController-to-TestStore" style="stroke:#A80036;stroke-width:1.0;stroke-dasharray:7.0,7.0;"/><polygon fill="#A80036" points="106.4235,420.773,114.6978,415.431,109.1606,416.5887,108.0029,411.0516,106.4235,420.773" style="stroke:#A80036;stroke-width:1.0;"/><!--MD5=[da71f009ae07e4258c9c1bb20e96cde0]
link ValidateWorkDoneController to Company--><path codeLine="56" d="M163.122,190.343 C148.299,207.79 130.49,228.75 115.251,246.686 " fill="none" id="ValidateWorkDoneController-to-Company" style="stroke:#A80036;stroke-width:1.0;stroke-dasharray:7.0,7.0;"/><polygon fill="#A80036" points="111.84,250.701,120.7149,246.4307,115.0767,246.89,114.6174,241.2519,111.84,250.701" style="stroke:#A80036;stroke-width:1.0;"/><!--MD5=[f4db34bc6292bb027996a0e65c908adc]
link ValidateWorkDoneController to TestMapper--><path codeLine="57" d="M226.517,190.343 C244.194,210.1 265.903,234.362 283.148,253.636 " fill="none" id="ValidateWorkDoneController-to-TestMapper" style="stroke:#A80036;stroke-width:1.0;stroke-dasharray:7.0,7.0;"/><polygon fill="#A80036" points="286.535,257.421,283.5155,248.0464,283.2013,253.6945,277.5532,253.3803,286.535,257.421" style="stroke:#A80036;stroke-width:1.0;"/><!--MD5=[8d9a2c3ea1bf73d8d45b939465e53fff]
link TestMapper to Test--><path codeLine="58" d="M300.575,318.703 C291.637,341.2 279.973,373.069 273,402 C258.401,462.571 249.287,532.325 243.882,585.691 " fill="none" id="TestMapper-to-Test" style="stroke:#A80036;stroke-width:1.0;stroke-dasharray:7.0,7.0;"/><polygon fill="#A80036" points="243.37,590.803,248.2452,582.2454,243.8672,585.8278,240.2849,581.4498,243.37,590.803" style="stroke:#A80036;stroke-width:1.0;"/><!--MD5=[c012175ee975a5bd02ff75a360be086e]
link TestMapper to TestDtoDate--><path codeLine="59" d="M320.412,318.648 C325.821,340.286 333.339,370.356 339.984,396.936 " fill="none" id="TestMapper-to-TestDtoDate" style="stroke:#A80036;stroke-width:1.0;stroke-dasharray:7.0,7.0;"/><polygon fill="#A80036" points="341.214,401.856,342.9111,392.1545,340.001,397.0054,335.1501,394.0953,341.214,401.856" style="stroke:#A80036;stroke-width:1.0;"/><!--MD5=[54a054b5639f006c556065428f642b72]
link TestMapper to Report--><path codeLine="60" d="M347.413,318.648 C379.378,346.187 427.196,387.384 462.341,417.663 " fill="none" id="TestMapper-to-Report" style="stroke:#A80036;stroke-width:1.0;stroke-dasharray:7.0,7.0;"/><polygon fill="#A80036" points="466.131,420.928,461.9218,412.0239,462.3424,417.6651,456.7012,418.0857,466.131,420.928" style="stroke:#A80036;stroke-width:1.0;"/><!--MD5=[3f3d46f072b1a3221bb9c14ad1e2a83d]
link TestDtoDate to Test--><path codeLine="61" d="M324.459,514 C312.244,535.996 297.89,561.846 284.382,586.172 " fill="none" id="TestDtoDate-to-Test" style="stroke:#A80036;stroke-width:1.0;stroke-dasharray:7.0,7.0;"/><polygon fill="#A80036" points="281.87,590.695,289.7374,584.7702,284.2982,586.3242,282.7442,580.885,281.87,590.695" style="stroke:#A80036;stroke-width:1.0;"/><!--MD5=[b0f4f6db8206580012ef9cd998ed01c5]
link TestStore to Test--><path codeLine="62" d="M71.0108,495.416 C67.4458,515.811 66.5431,541.07 77,561 C91.0854,587.846 114.978,609.455 140.064,626.197 " fill="none" id="TestStore-to-Test" style="stroke:#A80036;stroke-width:1.0;"/><polygon fill="#A80036" points="144.428,629.054,139.0893,620.7776,140.2448,626.3152,134.7072,627.4707,144.428,629.054" style="stroke:#A80036;stroke-width:1.0;"/><text fill="#000000" font-family="sans-serif" font-size="13" lengthAdjust="spacing" textLength="132" x="78" y="557.0669">capable of analysing</text><text fill="#000000" font-family="sans-serif" font-size="13" lengthAdjust="spacing" textLength="8" x="60.7813" y="514.6831">1</text><text fill="#000000" font-family="sans-serif" font-size="13" lengthAdjust="spacing" textLength="7" x="129.472" y="621.8974">*</text><!--MD5=[7f6cf7f175eae0af66201860de5de971]
link Company to TestStore--><path codeLine="63" d="M81,325.04 C81,351.634 81,387.873 81,415.647 " fill="none" id="Company-to-TestStore" style="stroke:#A80036;stroke-width:1.0;"/><polygon fill="#A80036" points="81,420.73,85,411.73,81,415.73,77,411.73,81,420.73" style="stroke:#A80036;stroke-width:1.0;"/><text fill="#000000" font-family="sans-serif" font-size="13" lengthAdjust="spacing" textLength="30" x="82" y="368.0669">uses</text><text fill="#000000" font-family="sans-serif" font-size="13" lengthAdjust="spacing" textLength="8" x="72.3125" y="344.8072">1</text><text fill="#000000" font-family="sans-serif" font-size="13" lengthAdjust="spacing" textLength="8" x="72.2875" y="409.8689">1</text><!--MD5=[133298edccc29fe1a36c1388b52b97c8]
@startuml
skinparam classAttributeIconSize 0

class Company
{
  -String designation
  +getTestStore()
}


class Test {
  -int code
  -String nhsCode
  -List <TestType> listTestType
  -Date createdAt
  -Date resultRegist
  +Test()
  +getCreatedAt()
  +getResultRegist()
  +validateTest()
}

class TestStore {
  +getTestByCode(Code)
  +validateTest(test)
}


class ValidateWorkDoneController {
  +getTests()
  +validateTest(test)
}

class ValidateWorkDoneUI {

}

class TestMapper {
   +toDtoDate()
}

class TestDtoDate {
  -String Code
  -Date registDate
  -Date analysisDate
  -Date diagnosisDate
  +TestDtoDate()
}
class Report {
  -Date createdAt
  +getCreatedAt()
}


ValidateWorkDoneUI ..> ValidateWorkDoneController
ValidateWorkDoneController ..> TestStore
ValidateWorkDoneController ..> Company
ValidateWorkDoneController ..> TestMapper
TestMapper ..> Test
TestMapper ..> TestDtoDate
TestMapper ..> Report
TestDtoDate ..> Test
TestStore "1" - -> "*" Test : capable of analysing
Company "1" - -> "1" TestStore : uses
@enduml

PlantUML version 1.2021.7(Sun May 23 12:40:07 UTC 2021)
(GPL source distribution)
Java Runtime: Java(TM) SE Runtime Environment
JVM: Java HotSpot(TM) 64-Bit Server VM
Default Encoding: UTF-8
Language: en
Country: US
--></g></svg>