<?xml version="1.0" encoding="UTF-8" standalone="no"?><svg xmlns="http://www.w3.org/2000/svg" xmlns:xlink="http://www.w3.org/1999/xlink" contentScriptType="application/ecmascript" contentStyleType="text/css" height="259px" preserveAspectRatio="none" style="width:1296px;height:259px;background:#FFFFFF;" version="1.1" viewBox="0 0 1296 259" width="1296px" zoomAndPan="magnify"><defs><filter height="300%" id="f1akfwz79hf56h" width="300%" x="-1" y="-1"><feGaussianBlur result="blurOut" stdDeviation="2.0"/><feColorMatrix in="blurOut" result="blurOut2" type="matrix" values="0 0 0 0 0 0 0 0 0 0 0 0 0 0 0 0 0 0 .4 0"/><feOffset dx="4.0" dy="4.0" in="blurOut2" result="blurOut3"/><feBlend in="SourceGraphic" in2="blurOut3" mode="normal"/></filter></defs><g><!--MD5=[02e4b9b7573f1156f41e60aa5b4e25a4]
class Company--><rect codeLine="6" fill="#FEFECE" filter="url(#f1akfwz79hf56h)" height="52.8047" id="Company" style="stroke:#A80036;stroke-width:1.5;" width="88" x="7" y="100.0659"/><ellipse cx="22" cy="116.0659" fill="#ADD1B2" rx="11" ry="11" style="stroke:#A80036;stroke-width:1.0;"/><path d="M24.3438,111.7378 C23.4063,111.3003 22.8125,111.1597 21.9375,111.1597 C19.3125,111.1597 17.3125,113.2378 17.3125,115.9565 L17.3125,117.0815 C17.3125,119.6597 19.4219,121.5503 22.3125,121.5503 C23.5313,121.5503 24.6875,121.2534 25.4375,120.7065 C26.0156,120.3003 26.3438,119.8472 26.3438,119.4565 C26.3438,119.0034 25.9531,118.6128 25.4844,118.6128 C25.2656,118.6128 25.0625,118.6909 24.875,118.8784 C24.4219,119.3628 24.4219,119.3628 24.2344,119.4565 C23.8125,119.7222 23.125,119.8472 22.3594,119.8472 C20.3125,119.8472 19.0156,118.7534 19.0156,117.0503 L19.0156,115.9565 C19.0156,114.1753 20.2656,112.8628 22,112.8628 C22.5781,112.8628 23.1875,113.019 23.6563,113.269 C24.1406,113.5503 24.3125,113.769 24.4063,114.1753 C24.4688,114.5815 24.5,114.7065 24.6406,114.8315 C24.7813,114.9722 25.0156,115.0815 25.2344,115.0815 C25.5,115.0815 25.7656,114.9409 25.9375,114.7222 C26.0469,114.5659 26.0781,114.3784 26.0781,113.9565 L26.0781,112.5347 C26.0781,112.0972 26.0625,111.9722 25.9688,111.8159 C25.8125,111.5503 25.5313,111.4097 25.2344,111.4097 C24.9375,111.4097 24.7344,111.5034 24.5156,111.8159 L24.3438,111.7378 Z " fill="#000000"/><text fill="#000000" font-family="sans-serif" font-size="12" lengthAdjust="spacing" textLength="56" x="36" y="120.2202">Company</text><line style="stroke:#A80036;stroke-width:1.5;" x1="8" x2="94" y1="132.0659" y2="132.0659"/><text fill="#000000" font-family="sans-serif" font-size="11" lengthAdjust="spacing" textLength="70" x="13" y="146.2764">-designation</text><!--MD5=[052425de1c0eb6cc1c1b48342b0bb88f]
class LaboratoryCoordinator--><rect codeLine="10" fill="#FEFECE" filter="url(#f1akfwz79hf56h)" height="40" id="LaboratoryCoordinator" style="stroke:#A80036;stroke-width:1.5;" width="168" x="193" y="26.5659"/><ellipse cx="208" cy="42.5659" fill="#ADD1B2" rx="11" ry="11" style="stroke:#A80036;stroke-width:1.0;"/><path d="M210.3438,38.2378 C209.4063,37.8003 208.8125,37.6597 207.9375,37.6597 C205.3125,37.6597 203.3125,39.7378 203.3125,42.4565 L203.3125,43.5815 C203.3125,46.1597 205.4219,48.0503 208.3125,48.0503 C209.5313,48.0503 210.6875,47.7534 211.4375,47.2065 C212.0156,46.8003 212.3438,46.3472 212.3438,45.9565 C212.3438,45.5034 211.9531,45.1128 211.4844,45.1128 C211.2656,45.1128 211.0625,45.1909 210.875,45.3784 C210.4219,45.8628 210.4219,45.8628 210.2344,45.9565 C209.8125,46.2222 209.125,46.3472 208.3594,46.3472 C206.3125,46.3472 205.0156,45.2534 205.0156,43.5503 L205.0156,42.4565 C205.0156,40.6753 206.2656,39.3628 208,39.3628 C208.5781,39.3628 209.1875,39.519 209.6563,39.769 C210.1406,40.0503 210.3125,40.269 210.4063,40.6753 C210.4688,41.0815 210.5,41.2065 210.6406,41.3315 C210.7813,41.4722 211.0156,41.5815 211.2344,41.5815 C211.5,41.5815 211.7656,41.4409 211.9375,41.2222 C212.0469,41.0659 212.0781,40.8784 212.0781,40.4565 L212.0781,39.0347 C212.0781,38.5972 212.0625,38.4722 211.9688,38.3159 C211.8125,38.0503 211.5313,37.9097 211.2344,37.9097 C210.9375,37.9097 210.7344,38.0034 210.5156,38.3159 L210.3438,38.2378 Z " fill="#000000"/><text fill="#000000" font-family="sans-serif" font-size="12" lengthAdjust="spacing" textLength="136" x="222" y="46.7202">LaboratoryCoordinator</text><line style="stroke:#A80036;stroke-width:1.5;" x1="194" x2="360" y1="58.5659" y2="58.5659"/><!--MD5=[f00dbe8c0302c6aec2cb26b3c659c8fc]
class Report--><rect codeLine="14" fill="#FEFECE" filter="url(#f1akfwz79hf56h)" height="65.6094" id="Report" style="stroke:#A80036;stroke-width:1.5;" width="72" x="631" y="42.5659"/><ellipse cx="646" cy="58.5659" fill="#ADD1B2" rx="11" ry="11" style="stroke:#A80036;stroke-width:1.0;"/><path d="M648.3438,54.2378 C647.4063,53.8003 646.8125,53.6597 645.9375,53.6597 C643.3125,53.6597 641.3125,55.7378 641.3125,58.4565 L641.3125,59.5815 C641.3125,62.1597 643.4219,64.0503 646.3125,64.0503 C647.5313,64.0503 648.6875,63.7534 649.4375,63.2065 C650.0156,62.8003 650.3438,62.3472 650.3438,61.9565 C650.3438,61.5034 649.9531,61.1128 649.4844,61.1128 C649.2656,61.1128 649.0625,61.1909 648.875,61.3784 C648.4219,61.8628 648.4219,61.8628 648.2344,61.9565 C647.8125,62.2222 647.125,62.3472 646.3594,62.3472 C644.3125,62.3472 643.0156,61.2534 643.0156,59.5503 L643.0156,58.4565 C643.0156,56.6753 644.2656,55.3628 646,55.3628 C646.5781,55.3628 647.1875,55.519 647.6563,55.769 C648.1406,56.0503 648.3125,56.269 648.4063,56.6753 C648.4688,57.0815 648.5,57.2065 648.6406,57.3315 C648.7813,57.4722 649.0156,57.5815 649.2344,57.5815 C649.5,57.5815 649.7656,57.4409 649.9375,57.2222 C650.0469,57.0659 650.0781,56.8784 650.0781,56.4565 L650.0781,55.0347 C650.0781,54.5972 650.0625,54.4722 649.9688,54.3159 C649.8125,54.0503 649.5313,53.9097 649.2344,53.9097 C648.9375,53.9097 648.7344,54.0034 648.5156,54.3159 L648.3438,54.2378 Z " fill="#000000"/><text fill="#000000" font-family="sans-serif" font-size="12" lengthAdjust="spacing" textLength="40" x="660" y="62.7202">Report</text><line style="stroke:#A80036;stroke-width:1.5;" x1="632" x2="702" y1="74.5659" y2="74.5659"/><text fill="#000000" font-family="sans-serif" font-size="11" lengthAdjust="spacing" textLength="57" x="637" y="88.7764">-diagnosis</text><text fill="#000000" font-family="sans-serif" font-size="11" lengthAdjust="spacing" textLength="60" x="637" y="101.5811">-createdAt</text><!--MD5=[7d96fd15f3014691d2fcaf89c5791e2a]
class SpecialistDoctor--><rect codeLine="19" fill="#FEFECE" filter="url(#f1akfwz79hf56h)" height="40" id="SpecialistDoctor" style="stroke:#A80036;stroke-width:1.5;" width="131" x="211.5" y="106.5659"/><ellipse cx="226.5" cy="122.5659" fill="#ADD1B2" rx="11" ry="11" style="stroke:#A80036;stroke-width:1.0;"/><path d="M228.8438,118.2378 C227.9063,117.8003 227.3125,117.6597 226.4375,117.6597 C223.8125,117.6597 221.8125,119.7378 221.8125,122.4565 L221.8125,123.5815 C221.8125,126.1597 223.9219,128.0503 226.8125,128.0503 C228.0313,128.0503 229.1875,127.7534 229.9375,127.2065 C230.5156,126.8003 230.8438,126.3472 230.8438,125.9565 C230.8438,125.5034 230.4531,125.1128 229.9844,125.1128 C229.7656,125.1128 229.5625,125.1909 229.375,125.3784 C228.9219,125.8628 228.9219,125.8628 228.7344,125.9565 C228.3125,126.2222 227.625,126.3472 226.8594,126.3472 C224.8125,126.3472 223.5156,125.2534 223.5156,123.5503 L223.5156,122.4565 C223.5156,120.6753 224.7656,119.3628 226.5,119.3628 C227.0781,119.3628 227.6875,119.519 228.1563,119.769 C228.6406,120.0503 228.8125,120.269 228.9063,120.6753 C228.9688,121.0815 229,121.2065 229.1406,121.3315 C229.2813,121.4722 229.5156,121.5815 229.7344,121.5815 C230,121.5815 230.2656,121.4409 230.4375,121.2222 C230.5469,121.0659 230.5781,120.8784 230.5781,120.4565 L230.5781,119.0347 C230.5781,118.5972 230.5625,118.4722 230.4688,118.3159 C230.3125,118.0503 230.0313,117.9097 229.7344,117.9097 C229.4375,117.9097 229.2344,118.0034 229.0156,118.3159 L228.8438,118.2378 Z " fill="#000000"/><text fill="#000000" font-family="sans-serif" font-size="12" lengthAdjust="spacing" textLength="99" x="240.5" y="126.7202">SpecialistDoctor</text><line style="stroke:#A80036;stroke-width:1.5;" x1="212.5" x2="341.5" y1="138.5659" y2="138.5659"/><!--MD5=[80e560c845ce9ec3c8b9ef25ef04dbf1]
class ParameterResult--><rect codeLine="23" fill="#FEFECE" filter="url(#f1akfwz79hf56h)" height="52.8047" id="ParameterResult" style="stroke:#A80036;stroke-width:1.5;" width="129" x="1153" y="101.0659"/><ellipse cx="1168" cy="117.0659" fill="#ADD1B2" rx="11" ry="11" style="stroke:#A80036;stroke-width:1.0;"/><path d="M1170.3438,112.7378 C1169.4063,112.3003 1168.8125,112.1597 1167.9375,112.1597 C1165.3125,112.1597 1163.3125,114.2378 1163.3125,116.9565 L1163.3125,118.0815 C1163.3125,120.6597 1165.4219,122.5503 1168.3125,122.5503 C1169.5313,122.5503 1170.6875,122.2534 1171.4375,121.7065 C1172.0156,121.3003 1172.3438,120.8472 1172.3438,120.4565 C1172.3438,120.0034 1171.9531,119.6128 1171.4844,119.6128 C1171.2656,119.6128 1171.0625,119.6909 1170.875,119.8784 C1170.4219,120.3628 1170.4219,120.3628 1170.2344,120.4565 C1169.8125,120.7222 1169.125,120.8472 1168.3594,120.8472 C1166.3125,120.8472 1165.0156,119.7534 1165.0156,118.0503 L1165.0156,116.9565 C1165.0156,115.1753 1166.2656,113.8628 1168,113.8628 C1168.5781,113.8628 1169.1875,114.019 1169.6563,114.269 C1170.1406,114.5503 1170.3125,114.769 1170.4063,115.1753 C1170.4688,115.5815 1170.5,115.7065 1170.6406,115.8315 C1170.7813,115.9722 1171.0156,116.0815 1171.2344,116.0815 C1171.5,116.0815 1171.7656,115.9409 1171.9375,115.7222 C1172.0469,115.5659 1172.0781,115.3784 1172.0781,114.9565 L1172.0781,113.5347 C1172.0781,113.0972 1172.0625,112.9722 1171.9688,112.8159 C1171.8125,112.5503 1171.5313,112.4097 1171.2344,112.4097 C1170.9375,112.4097 1170.7344,112.5034 1170.5156,112.8159 L1170.3438,112.7378 Z " fill="#000000"/><text fill="#000000" font-family="sans-serif" font-size="12" lengthAdjust="spacing" textLength="97" x="1182" y="121.2202">ParameterResult</text><line style="stroke:#A80036;stroke-width:1.5;" x1="1154" x2="1281" y1="133.0659" y2="133.0659"/><text fill="#000000" font-family="sans-serif" font-size="11" lengthAdjust="spacing" textLength="97" x="1159" y="147.2764">-parameterValue</text><!--MD5=[012ee2a8bf3ae2b319009b06f951c2e5]
class ClinicalChemistryTechnologist--><rect codeLine="28" fill="#FEFECE" filter="url(#f1akfwz79hf56h)" height="40" id="ClinicalChemistryTechnologist" style="stroke:#A80036;stroke-width:1.5;" width="210" x="391" y="198.5654"/><ellipse cx="406" cy="214.5654" fill="#ADD1B2" rx="11" ry="11" style="stroke:#A80036;stroke-width:1.0;"/><path d="M408.3438,210.2373 C407.4063,209.7998 406.8125,209.6592 405.9375,209.6592 C403.3125,209.6592 401.3125,211.7373 401.3125,214.456 L401.3125,215.581 C401.3125,218.1592 403.4219,220.0498 406.3125,220.0498 C407.5313,220.0498 408.6875,219.7529 409.4375,219.206 C410.0156,218.7998 410.3438,218.3467 410.3438,217.956 C410.3438,217.5029 409.9531,217.1123 409.4844,217.1123 C409.2656,217.1123 409.0625,217.1904 408.875,217.3779 C408.4219,217.8623 408.4219,217.8623 408.2344,217.956 C407.8125,218.2217 407.125,218.3467 406.3594,218.3467 C404.3125,218.3467 403.0156,217.2529 403.0156,215.5498 L403.0156,214.456 C403.0156,212.6748 404.2656,211.3623 406,211.3623 C406.5781,211.3623 407.1875,211.5185 407.6563,211.7685 C408.1406,212.0498 408.3125,212.2685 408.4063,212.6748 C408.4688,213.081 408.5,213.206 408.6406,213.331 C408.7813,213.4717 409.0156,213.581 409.2344,213.581 C409.5,213.581 409.7656,213.4404 409.9375,213.2217 C410.0469,213.0654 410.0781,212.8779 410.0781,212.456 L410.0781,211.0342 C410.0781,210.5967 410.0625,210.4717 409.9688,210.3154 C409.8125,210.0498 409.5313,209.9092 409.2344,209.9092 C408.9375,209.9092 408.7344,210.0029 408.5156,210.3154 L408.3438,210.2373 Z " fill="#000000"/><text fill="#000000" font-family="sans-serif" font-size="12" lengthAdjust="spacing" textLength="178" x="420" y="218.7197">ClinicalChemistryTechnologist</text><line style="stroke:#A80036;stroke-width:1.5;" x1="392" x2="600" y1="230.5654" y2="230.5654"/><!--MD5=[df38be88ccee13e832d6fafd6288a4ca]
class Test--><rect codeLine="32" fill="#FEFECE" filter="url(#f1akfwz79hf56h)" height="40" id="Test" style="stroke:#A80036;stroke-width:1.5;" width="58" x="910" y="64.5659"/><ellipse cx="925" cy="80.5659" fill="#ADD1B2" rx="11" ry="11" style="stroke:#A80036;stroke-width:1.0;"/><path d="M927.3438,76.2378 C926.4063,75.8003 925.8125,75.6597 924.9375,75.6597 C922.3125,75.6597 920.3125,77.7378 920.3125,80.4565 L920.3125,81.5815 C920.3125,84.1597 922.4219,86.0503 925.3125,86.0503 C926.5313,86.0503 927.6875,85.7534 928.4375,85.2065 C929.0156,84.8003 929.3438,84.3472 929.3438,83.9565 C929.3438,83.5034 928.9531,83.1128 928.4844,83.1128 C928.2656,83.1128 928.0625,83.1909 927.875,83.3784 C927.4219,83.8628 927.4219,83.8628 927.2344,83.9565 C926.8125,84.2222 926.125,84.3472 925.3594,84.3472 C923.3125,84.3472 922.0156,83.2534 922.0156,81.5503 L922.0156,80.4565 C922.0156,78.6753 923.2656,77.3628 925,77.3628 C925.5781,77.3628 926.1875,77.519 926.6563,77.769 C927.1406,78.0503 927.3125,78.269 927.4063,78.6753 C927.4688,79.0815 927.5,79.2065 927.6406,79.3315 C927.7813,79.4722 928.0156,79.5815 928.2344,79.5815 C928.5,79.5815 928.7656,79.4409 928.9375,79.2222 C929.0469,79.0659 929.0781,78.8784 929.0781,78.4565 L929.0781,77.0347 C929.0781,76.5972 929.0625,76.4722 928.9688,76.3159 C928.8125,76.0503 928.5313,75.9097 928.2344,75.9097 C927.9375,75.9097 927.7344,76.0034 927.5156,76.3159 L927.3438,76.2378 Z " fill="#000000"/><text fill="#000000" font-family="sans-serif" font-size="12" lengthAdjust="spacing" textLength="26" x="939" y="84.7202">Test</text><line style="stroke:#A80036;stroke-width:1.5;" x1="911" x2="967" y1="96.5659" y2="96.5659"/><!--MD5=[baa6ff38ec20def42e063e01f85f91ae]
link Company to LaboratoryCoordinator--><path codeLine="38" d="M95.1895,111.1409 C130.659,98.4729 181.163,80.4359 219.783,66.6429 " fill="none" id="Company-LaboratoryCoordinator" style="stroke:#A80036;stroke-width:1.0;"/><polygon fill="#000000" points="134.7087,79.4506,125.2021,79.7251,127.1791,85.2606,134.7087,79.4506" style="stroke:#000000;stroke-width:1.0;"/><text fill="#000000" font-family="sans-serif" font-size="13" lengthAdjust="spacing" textLength="23" x="139" y="85.6328">has</text><text fill="#000000" font-family="sans-serif" font-size="13" lengthAdjust="spacing" textLength="8" x="102.8697" y="121.9709">1</text><text fill="#000000" font-family="sans-serif" font-size="13" lengthAdjust="spacing" textLength="7" x="195.7063" y="86.4845">*</text><!--MD5=[137816425ceb0c0d2300eee5a01b984a]
link Company to SpecialistDoctor--><path codeLine="39" d="M95.1895,126.5659 C128.117,126.5659 173.999,126.5659 211.304,126.5659 " fill="none" id="Company-SpecialistDoctor" style="stroke:#A80036;stroke-width:1.0;"/><polygon fill="#000000" points="135,118.1323,125.9549,115.1934,125.9549,121.0713,135,118.1323" style="stroke:#000000;stroke-width:1.0;"/><text fill="#000000" font-family="sans-serif" font-size="13" lengthAdjust="spacing" textLength="23" x="139" y="122.6328">has</text><text fill="#000000" font-family="sans-serif" font-size="13" lengthAdjust="spacing" textLength="8" x="102.8697" y="139.8543">1</text><text fill="#000000" font-family="sans-serif" font-size="13" lengthAdjust="spacing" textLength="7" x="196.3032" y="139.5077">*</text><!--MD5=[1ca3dfffd6d11e2dcc22d81a95bb4023]
link Company to ClinicalChemistryTechnologist--><path codeLine="40" d="M95.2923,142.5909 C104.9848,145.8419 115.277,149.0355 125,151.5654 C213.606,174.6196 316.179,192.5228 390.82,203.9993 " fill="none" id="Company-ClinicalChemistryTechnologist" style="stroke:#A80036;stroke-width:1.0;"/><polygon fill="#000000" points="134.8954,144.1496,126.6374,139.4319,125.4416,145.1868,134.8954,144.1496" style="stroke:#000000;stroke-width:1.0;"/><text fill="#000000" font-family="sans-serif" font-size="13" lengthAdjust="spacing" textLength="23" x="139" y="147.6328">has</text><text fill="#000000" font-family="sans-serif" font-size="13" lengthAdjust="spacing" textLength="8" x="102.9889" y="158.4333">1</text><text fill="#000000" font-family="sans-serif" font-size="13" lengthAdjust="spacing" textLength="7" x="375.8388" y="215.5522">*</text><!--MD5=[35c5d5b78cc27fdb07caaeeaa436e174]
link SpecialistDoctor to Report--><path codeLine="41" d="M342.654,124.7339 C408.303,121.9019 512.596,114.7209 601,96.5659 C610.874,94.5379 621.357,91.5409 630.956,88.4429 " fill="none" id="SpecialistDoctor-Report" style="stroke:#A80036;stroke-width:1.0;"/><polygon fill="#000000" points="478.9609,87.5079,469.6195,85.7216,470.3536,91.5534,478.9609,87.5079" style="stroke:#000000;stroke-width:1.0;"/><text fill="#000000" font-family="sans-serif" font-size="13" lengthAdjust="spacing" textLength="39" x="483" y="92.6328">writes</text><text fill="#000000" font-family="sans-serif" font-size="13" lengthAdjust="spacing" textLength="8" x="350.7077" y="137.4639">1</text><text fill="#000000" font-family="sans-serif" font-size="13" lengthAdjust="spacing" textLength="8" x="615.0723" y="104.5731">1</text><!--MD5=[7d825deaa3c1b8fecb9f5eabaa9b99ee]
link SpecialistDoctor to ParameterResult--><path codeLine="42" d="M342.527,129.2439 C358.375,129.7929 375.298,130.2879 391,130.5659 C675.081,135.5919 1014.24,131.0339 1152.8,128.7219 " fill="none" id="SpecialistDoctor-ParameterResult" style="stroke:#A80036;stroke-width:1.0;"/><polygon fill="#000000" points="783,124.1291,773.953,121.196,773.9568,127.0739,783,124.1291" style="stroke:#000000;stroke-width:1.0;"/><text fill="#000000" font-family="sans-serif" font-size="13" lengthAdjust="spacing" textLength="52" x="787" y="128.6328">analysis</text><text fill="#000000" font-family="sans-serif" font-size="13" lengthAdjust="spacing" textLength="8" x="350.5661" y="125.7609">1</text><text fill="#000000" font-family="sans-serif" font-size="13" lengthAdjust="spacing" textLength="23" x="1121.9419" y="141.6984">1..*</text><!--MD5=[848c8065b29fb9bba3c9b45c1c07083f]
link LaboratoryCoordinator to Report--><path codeLine="43" d="M361.236,52.7869 C444.96,59.0439 570.076,68.3959 630.636,72.9219 " fill="none" id="LaboratoryCoordinator-Report" style="stroke:#A80036;stroke-width:1.0;"/><polygon fill="#000000" points="469.4861,47.505,460.6852,43.9001,460.2471,49.7616,469.4861,47.505" style="stroke:#000000;stroke-width:1.0;"/><text fill="#000000" font-family="sans-serif" font-size="13" lengthAdjust="spacing" textLength="58" x="473.5" y="51.6328">validates</text><text fill="#000000" font-family="sans-serif" font-size="13" lengthAdjust="spacing" textLength="8" x="369.0945" y="66.0818">1</text><text fill="#000000" font-family="sans-serif" font-size="13" lengthAdjust="spacing" textLength="7" x="616.0369" y="85.9644">*</text><!--MD5=[16b5f8c2c6a74e98fcfba8a1e767c369]
link LaboratoryCoordinator to ParameterResult--><path codeLine="44" d="M361.187,33.6749 C371.213,32.4509 381.325,31.3689 391,30.5659 C646.664,9.3409 713.154,17.1099 968,46.5659 C1037.18,54.5619 1057.61,45.6019 1123,69.5659 C1143.63,77.1239 1164.59,89.5959 1181.42,101.0419 " fill="none" id="LaboratoryCoordinator-ParameterResult" style="stroke:#A80036;stroke-width:1.0;"/><polygon fill="#000000" points="779.9832,15.5416,771.2091,11.8721,770.7279,17.7303,779.9832,15.5416" style="stroke:#000000;stroke-width:1.0;"/><text fill="#000000" font-family="sans-serif" font-size="13" lengthAdjust="spacing" textLength="58" x="784" y="19.6328">validates</text><text fill="#000000" font-family="sans-serif" font-size="13" lengthAdjust="spacing" textLength="8" x="369.0412" y="45.2676">1</text><text fill="#000000" font-family="sans-serif" font-size="13" lengthAdjust="spacing" textLength="7" x="1164.7724" y="89.8555">*</text><!--MD5=[07baaabf6b2244de2e134c53bc689618]
link ClinicalChemistryTechnologist to ParameterResult--><path codeLine="45" d="M601.062,232.0139 C728.467,244.3428 948.771,252.1076 1123,187.5654 C1144.34,179.6595 1165.87,166.294 1182.89,154.1817 " fill="none" id="ClinicalChemistryTechnologist-ParameterResult" style="stroke:#A80036;stroke-width:1.0;"/><polygon fill="#000000" points="784.9559,227.4689,775.601,225.7552,776.3803,231.5811,784.9559,227.4689" style="stroke:#000000;stroke-width:1.0;"/><text fill="#000000" font-family="sans-serif" font-size="13" lengthAdjust="spacing" textLength="48" x="789" y="232.6323">records</text><text fill="#000000" font-family="sans-serif" font-size="13" lengthAdjust="spacing" textLength="8" x="609.0712" y="245.6241">1</text><text fill="#000000" font-family="sans-serif" font-size="13" lengthAdjust="spacing" textLength="7" x="1167.5534" y="173.7473">*</text><!--MD5=[3176281dfb34e7fae32060ece8ad45db]
link Test to ParameterResult--><path codeLine="46" d="M968.034,88.9249 C1011.08,95.6189 1094.56,108.6019 1152.83,117.6629 " fill="none" id="Test-ParameterResult" style="stroke:#A80036;stroke-width:1.0;"/><polygon fill="#000000" points="1007.9406,86.9006,999.4546,82.6067,998.5513,88.4148,1007.9406,86.9006" style="stroke:#000000;stroke-width:1.0;"/><text fill="#000000" font-family="sans-serif" font-size="13" lengthAdjust="spacing" textLength="110" x="1012" y="90.6328">obtained through</text><text fill="#000000" font-family="sans-serif" font-size="13" lengthAdjust="spacing" textLength="23" x="976.0141" y="103.3396">1..*</text><text fill="#000000" font-family="sans-serif" font-size="13" lengthAdjust="spacing" textLength="8" x="1136.89" y="112.7366">1</text><!--MD5=[63d25d625ab355317a074a623d33bba8]
link Report to Test--><path codeLine="47" d="M703.021,76.7329 C757.099,78.5359 859.872,81.9609 909.617,83.6189 " fill="none" id="Report-Test" style="stroke:#A80036;stroke-width:1.0;"/><polygon fill="#000000" points="742.9972,70.2989,734.0551,67.0603,733.8593,72.9349,742.9972,70.2989" style="stroke:#000000;stroke-width:1.0;"/><text fill="#000000" font-family="sans-serif" font-size="13" lengthAdjust="spacing" textLength="132" x="747" y="74.6328">created according to</text><text fill="#000000" font-family="sans-serif" font-size="13" lengthAdjust="spacing" textLength="8" x="710.9001" y="90.5577">1</text><text fill="#000000" font-family="sans-serif" font-size="13" lengthAdjust="spacing" textLength="8" x="893.8972" y="97.2166">1</text><!--MD5=[13ee93bf65384580492532a1f6af4358]
@startuml
hide methods
left to right direction
skinparam classAttributeIconSize 0


class Company {
  -designation
}

class LaboratoryCoordinator {

}

class Report {
   - diagnosis
   - createdAt
}

class SpecialistDoctor {
  
}

class ParameterResult {
  - parameterValue

}

class ClinicalChemistryTechnologist {

}

class Test {

}



Company "1" - - "*" LaboratoryCoordinator : has  >
Company "1" - - "*" SpecialistDoctor : has >
Company "1" - - "*" ClinicalChemistryTechnologist: has >
SpecialistDoctor "1" - - "1" Report: writes >
SpecialistDoctor "1" - - "1..*" ParameterResult: analysis >
LaboratoryCoordinator "1" - - "*" Report: validates >
LaboratoryCoordinator "1" - - "*" ParameterResult: validates >
ClinicalChemistryTechnologist "1" - - "*" ParameterResult: records >
Test "1..*" - - "1" ParameterResult: obtained through >
Report "1" - - "1" Test: created according to >
@enduml

PlantUML version 1.2021.7(Sun May 23 12:40:07 UTC 2021)
(GPL source distribution)
Java Runtime: Java(TM) SE Runtime Environment
JVM: Java HotSpot(TM) 64-Bit Server VM
Default Encoding: UTF-8
Language: en
Country: US
--></g></svg>