<?xml version="1.0" encoding="UTF-8" standalone="no"?><svg xmlns="http://www.w3.org/2000/svg" xmlns:xlink="http://www.w3.org/1999/xlink" contentScriptType="application/ecmascript" contentStyleType="text/css" height="456px" preserveAspectRatio="none" style="width:607px;height:456px;" version="1.1" viewBox="0 0 607 456" width="607px" zoomAndPan="magnify"><defs><filter height="300%" id="f174kj7bgzabkg" width="300%" x="-1" y="-1"><feGaussianBlur result="blurOut" stdDeviation="2.0"/><feColorMatrix in="blurOut" result="blurOut2" type="matrix" values="0 0 0 0 0 0 0 0 0 0 0 0 0 0 0 0 0 0 .4 0"/><feOffset dx="4.0" dy="4.0" in="blurOut2" result="blurOut3"/><feBlend in="SourceGraphic" in2="blurOut3" mode="normal"/></filter></defs><g><rect fill="#FFFFFF" filter="url(#f174kj7bgzabkg)" height="256.1953" style="stroke:#A80036;stroke-width:1.0;" width="10" x="68" y="98.2969"/><rect fill="#FFFFFF" filter="url(#f174kj7bgzabkg)" height="29.1328" style="stroke:#A80036;stroke-width:1.0;" width="10" x="540" y="119.4297"/><rect fill="#FFFFFF" filter="url(#f174kj7bgzabkg)" height="29.1328" style="stroke:#A80036;stroke-width:1.0;" width="10" x="540" y="177.6953"/><rect fill="#FFFFFF" filter="url(#f174kj7bgzabkg)" height="29.1328" style="stroke:#A80036;stroke-width:1.0;" width="10" x="540" y="260.0938"/><rect fill="#FFFFFF" filter="url(#f174kj7bgzabkg)" height="29.1328" style="stroke:#A80036;stroke-width:1.0;" width="10" x="540" y="325.3594"/><rect fill="#FFFFFF" filter="url(#f174kj7bgzabkg)" height="75.3984" style="stroke:#000000;stroke-width:2.0;" width="583.5" x="10" y="221.8281"/><line style="stroke:#A80036;stroke-width:1.0;stroke-dasharray:5.0,5.0;" x1="73" x2="73" y1="88.2969" y2="372.4922"/><line style="stroke:#A80036;stroke-width:1.0;stroke-dasharray:5.0,5.0;" x1="544.5" x2="544.5" y1="88.2969" y2="372.4922"/><text fill="#000000" font-family="sans-serif" font-size="14" lengthAdjust="spacing" textLength="100" x="20" y="84.9951">Administrator</text><ellipse cx="73" cy="15" fill="#FEFECE" filter="url(#f174kj7bgzabkg)" rx="8" ry="8" style="stroke:#A80036;stroke-width:2.0;"/><path d="M73,23 L73,50 M60,31 L86,31 M73,50 L60,65 M73,50 L86,65 " fill="none" filter="url(#f174kj7bgzabkg)" style="stroke:#A80036;stroke-width:2.0;"/><text fill="#000000" font-family="sans-serif" font-size="14" lengthAdjust="spacing" textLength="100" x="20" y="384.4873">Administrator</text><ellipse cx="73" cy="397.7891" fill="#FEFECE" filter="url(#f174kj7bgzabkg)" rx="8" ry="8" style="stroke:#A80036;stroke-width:2.0;"/><path d="M73,405.7891 L73,432.7891 M60,413.7891 L86,413.7891 M73,432.7891 L60,447.7891 M73,432.7891 L86,447.7891 " fill="none" filter="url(#f174kj7bgzabkg)" style="stroke:#A80036;stroke-width:2.0;"/><rect fill="#FEFECE" filter="url(#f174kj7bgzabkg)" height="30.2969" style="stroke:#A80036;stroke-width:1.5;" width="73" x="506.5" y="53"/><text fill="#000000" font-family="sans-serif" font-size="14" lengthAdjust="spacing" textLength="59" x="513.5" y="72.9951">:System</text><rect fill="#FEFECE" filter="url(#f174kj7bgzabkg)" height="30.2969" style="stroke:#A80036;stroke-width:1.5;" width="73" x="506.5" y="371.4922"/><text fill="#000000" font-family="sans-serif" font-size="14" lengthAdjust="spacing" textLength="59" x="513.5" y="391.4873">:System</text><rect fill="#FFFFFF" filter="url(#f174kj7bgzabkg)" height="256.1953" style="stroke:#A80036;stroke-width:1.0;" width="10" x="68" y="98.2969"/><rect fill="#FFFFFF" filter="url(#f174kj7bgzabkg)" height="29.1328" style="stroke:#A80036;stroke-width:1.0;" width="10" x="540" y="119.4297"/><rect fill="#FFFFFF" filter="url(#f174kj7bgzabkg)" height="29.1328" style="stroke:#A80036;stroke-width:1.0;" width="10" x="540" y="177.6953"/><rect fill="#FFFFFF" filter="url(#f174kj7bgzabkg)" height="29.1328" style="stroke:#A80036;stroke-width:1.0;" width="10" x="540" y="260.0938"/><rect fill="#FFFFFF" filter="url(#f174kj7bgzabkg)" height="29.1328" style="stroke:#A80036;stroke-width:1.0;" width="10" x="540" y="325.3594"/><polygon fill="#A80036" points="528,115.4297,538,119.4297,528,123.4297,532,119.4297" style="stroke:#A80036;stroke-width:1.0;"/><line style="stroke:#A80036;stroke-width:1.0;" x1="78" x2="534" y1="119.4297" y2="119.4297"/><text fill="#000000" font-family="sans-serif" font-size="13" font-weight="bold" lengthAdjust="spacing" textLength="9" x="85" y="114.3638">1</text><text fill="#000000" font-family="sans-serif" font-size="13" lengthAdjust="spacing" textLength="162" x="98" y="114.3638">register a new laboratory</text><polygon fill="#A80036" points="89,144.5625,79,148.5625,89,152.5625,85,148.5625" style="stroke:#A80036;stroke-width:1.0;"/><line style="stroke:#A80036;stroke-width:1.0;stroke-dasharray:2.0,2.0;" x1="83" x2="544" y1="148.5625" y2="148.5625"/><text fill="#000000" font-family="sans-serif" font-size="13" font-weight="bold" lengthAdjust="spacing" textLength="9" x="95" y="143.4966">2</text><text fill="#000000" font-family="sans-serif" font-size="13" lengthAdjust="spacing" textLength="425" x="108" y="143.4966">request data(laboratoryID,name,adress,phoneNumber,tinNumber)</text><polygon fill="#A80036" points="528,173.6953,538,177.6953,528,181.6953,532,177.6953" style="stroke:#A80036;stroke-width:1.0;"/><line style="stroke:#A80036;stroke-width:1.0;" x1="78" x2="534" y1="177.6953" y2="177.6953"/><text fill="#000000" font-family="sans-serif" font-size="13" font-weight="bold" lengthAdjust="spacing" textLength="8" x="85" y="172.6294">3</text><text fill="#000000" font-family="sans-serif" font-size="13" lengthAdjust="spacing" textLength="138" x="97" y="172.6294">types requested data</text><polygon fill="#A80036" points="89,202.8281,79,206.8281,89,210.8281,85,206.8281" style="stroke:#A80036;stroke-width:1.0;"/><line style="stroke:#A80036;stroke-width:1.0;stroke-dasharray:2.0,2.0;" x1="83" x2="544" y1="206.8281" y2="206.8281"/><text fill="#000000" font-family="sans-serif" font-size="13" font-weight="bold" lengthAdjust="spacing" textLength="9" x="95" y="201.7622">4</text><text fill="#000000" font-family="sans-serif" font-size="13" lengthAdjust="spacing" textLength="394" x="108" y="201.7622">shows the list of types of tests and ask to select one or more</text><path d="M10,221.8281 L88,221.8281 L88,228.8281 L78,238.8281 L10,238.8281 L10,221.8281 " fill="#EEEEEE" style="stroke:#000000;stroke-width:1.0;"/><rect fill="none" height="75.3984" style="stroke:#000000;stroke-width:2.0;" width="583.5" x="10" y="221.8281"/><text fill="#000000" font-family="sans-serif" font-size="13" font-weight="bold" lengthAdjust="spacing" textLength="33" x="25" y="234.895">loop</text><polygon fill="#A80036" points="528,256.0938,538,260.0938,528,264.0938,532,260.0938" style="stroke:#A80036;stroke-width:1.0;"/><line style="stroke:#A80036;stroke-width:1.0;" x1="78" x2="534" y1="260.0938" y2="260.0938"/><text fill="#000000" font-family="sans-serif" font-size="13" font-weight="bold" lengthAdjust="spacing" textLength="9" x="85" y="255.0278">5</text><text fill="#000000" font-family="sans-serif" font-size="13" lengthAdjust="spacing" textLength="136" x="98" y="255.0278">selects a type of test</text><polygon fill="#A80036" points="89,285.2266,79,289.2266,89,293.2266,85,289.2266" style="stroke:#A80036;stroke-width:1.0;"/><line style="stroke:#A80036;stroke-width:1.0;stroke-dasharray:2.0,2.0;" x1="83" x2="544" y1="289.2266" y2="289.2266"/><text fill="#000000" font-family="sans-serif" font-size="13" font-weight="bold" lengthAdjust="spacing" textLength="9" x="95" y="284.1606">6</text><text fill="#000000" font-family="sans-serif" font-size="13" lengthAdjust="spacing" textLength="258" x="108" y="284.1606">shows all data and request confirmation</text><polygon fill="#A80036" points="528,321.3594,538,325.3594,528,329.3594,532,325.3594" style="stroke:#A80036;stroke-width:1.0;"/><line style="stroke:#A80036;stroke-width:1.0;" x1="78" x2="534" y1="325.3594" y2="325.3594"/><text fill="#000000" font-family="sans-serif" font-size="13" font-weight="bold" lengthAdjust="spacing" textLength="9" x="85" y="320.2935">7</text><text fill="#000000" font-family="sans-serif" font-size="13" lengthAdjust="spacing" textLength="114" x="98" y="320.2935">confirms the data</text><polygon fill="#A80036" points="84,350.4922,74,354.4922,84,358.4922,80,354.4922" style="stroke:#A80036;stroke-width:1.0;"/><line style="stroke:#A80036;stroke-width:1.0;stroke-dasharray:2.0,2.0;" x1="78" x2="544" y1="354.4922" y2="354.4922"/><text fill="#000000" font-family="sans-serif" font-size="13" font-weight="bold" lengthAdjust="spacing" textLength="9" x="90" y="349.4263">8</text><text fill="#000000" font-family="sans-serif" font-size="13" lengthAdjust="spacing" textLength="169" x="103" y="349.4263">informs operation success</text><!--MD5=[1be0bc583ff750812daa8f09d846d0ff]
@startuml
actor "Administrator" as Adm
participant ":System" as System

autonumber
activate Adm
Adm -> System: register a new laboratory
activate System
System - -> Adm: request data(laboratoryID,name,adress,phoneNumber,tinNumber)
deactivate System
Adm -> System: types requested data
activate System
System - -> Adm: shows the list of types of tests and ask to select one or more
deactivate System
loop
Adm -> System: selects a type of test
activate System
System - -> Adm: shows all data and request confirmation
deactivate System
end
Adm -> System: confirms the data
activate System
System - -> Adm: informs operation success
deactivate System
deactivate Adm
@enduml

PlantUML version 1.2021.6beta2(Unknown compile time)
(GPL source distribution)
Java Runtime: Java(TM) SE Runtime Environment
JVM: Java HotSpot(TM) 64-Bit Server VM
Default Encoding: UTF-8
Language: en
Country: US
--></g></svg>