<?xml version="1.0" encoding="UTF-8" standalone="no"?><svg xmlns="http://www.w3.org/2000/svg" xmlns:xlink="http://www.w3.org/1999/xlink" contentScriptType="application/ecmascript" contentStyleType="text/css" height="903px" preserveAspectRatio="none" style="width:551px;height:903px;background:#FFFFFF;" version="1.1" viewBox="0 0 551 903" width="551px" zoomAndPan="magnify"><defs><filter height="300%" id="f10oi85v87jtwe" width="300%" x="-1" y="-1"><feGaussianBlur result="blurOut" stdDeviation="2.0"/><feColorMatrix in="blurOut" result="blurOut2" type="matrix" values="0 0 0 0 0 0 0 0 0 0 0 0 0 0 0 0 0 0 .4 0"/><feOffset dx="4.0" dy="4.0" in="blurOut2" result="blurOut3"/><feBlend in="SourceGraphic" in2="blurOut3" mode="normal"/></filter></defs><g><!--MD5=[af93a5482aeb9f4389f00f922967505c]
class RegistLaboratoryUI--><rect fill="#FEFECE" filter="url(#f10oi85v87jtwe)" height="48" id="RegistLaboratoryUI" style="stroke:#A80036;stroke-width:1.5;" width="146" x="186" y="7"/><ellipse cx="201" cy="23" fill="#ADD1B2" rx="11" ry="11" style="stroke:#A80036;stroke-width:1.0;"/><path d="M203.3438,18.6719 C202.4063,18.2344 201.8125,18.0938 200.9375,18.0938 C198.3125,18.0938 196.3125,20.1719 196.3125,22.8906 L196.3125,24.0156 C196.3125,26.5938 198.4219,28.4844 201.3125,28.4844 C202.5313,28.4844 203.6875,28.1875 204.4375,27.6406 C205.0156,27.2344 205.3438,26.7813 205.3438,26.3906 C205.3438,25.9375 204.9531,25.5469 204.4844,25.5469 C204.2656,25.5469 204.0625,25.625 203.875,25.8125 C203.4219,26.2969 203.4219,26.2969 203.2344,26.3906 C202.8125,26.6563 202.125,26.7813 201.3594,26.7813 C199.3125,26.7813 198.0156,25.6875 198.0156,23.9844 L198.0156,22.8906 C198.0156,21.1094 199.2656,19.7969 201,19.7969 C201.5781,19.7969 202.1875,19.9531 202.6563,20.2031 C203.1406,20.4844 203.3125,20.7031 203.4063,21.1094 C203.4688,21.5156 203.5,21.6406 203.6406,21.7656 C203.7813,21.9063 204.0156,22.0156 204.2344,22.0156 C204.5,22.0156 204.7656,21.875 204.9375,21.6563 C205.0469,21.5 205.0781,21.3125 205.0781,20.8906 L205.0781,19.4688 C205.0781,19.0313 205.0625,18.9063 204.9688,18.75 C204.8125,18.4844 204.5313,18.3438 204.2344,18.3438 C203.9375,18.3438 203.7344,18.4375 203.5156,18.75 L203.3438,18.6719 Z " fill="#000000"/><text fill="#000000" font-family="sans-serif" font-size="12" lengthAdjust="spacing" textLength="114" x="215" y="27.1543">RegistLaboratoryUI</text><line style="stroke:#A80036;stroke-width:1.5;" x1="187" x2="331" y1="39" y2="39"/><line style="stroke:#A80036;stroke-width:1.5;" x1="187" x2="331" y1="47" y2="47"/><!--MD5=[57b933e181c39dd4a61920b3604a5fb4]
class RegistLaboratoryController--><rect fill="#FEFECE" filter="url(#f10oi85v87jtwe)" height="86.4141" id="RegistLaboratoryController" style="stroke:#A80036;stroke-width:1.5;" width="504" x="7" y="115"/><ellipse cx="174.25" cy="131" fill="#ADD1B2" rx="11" ry="11" style="stroke:#A80036;stroke-width:1.0;"/><path d="M176.5938,126.6719 C175.6563,126.2344 175.0625,126.0938 174.1875,126.0938 C171.5625,126.0938 169.5625,128.1719 169.5625,130.8906 L169.5625,132.0156 C169.5625,134.5938 171.6719,136.4844 174.5625,136.4844 C175.7813,136.4844 176.9375,136.1875 177.6875,135.6406 C178.2656,135.2344 178.5938,134.7813 178.5938,134.3906 C178.5938,133.9375 178.2031,133.5469 177.7344,133.5469 C177.5156,133.5469 177.3125,133.625 177.125,133.8125 C176.6719,134.2969 176.6719,134.2969 176.4844,134.3906 C176.0625,134.6563 175.375,134.7813 174.6094,134.7813 C172.5625,134.7813 171.2656,133.6875 171.2656,131.9844 L171.2656,130.8906 C171.2656,129.1094 172.5156,127.7969 174.25,127.7969 C174.8281,127.7969 175.4375,127.9531 175.9063,128.2031 C176.3906,128.4844 176.5625,128.7031 176.6563,129.1094 C176.7188,129.5156 176.75,129.6406 176.8906,129.7656 C177.0313,129.9063 177.2656,130.0156 177.4844,130.0156 C177.75,130.0156 178.0156,129.875 178.1875,129.6563 C178.2969,129.5 178.3281,129.3125 178.3281,128.8906 L178.3281,127.4688 C178.3281,127.0313 178.3125,126.9063 178.2188,126.75 C178.0625,126.4844 177.7813,126.3438 177.4844,126.3438 C177.1875,126.3438 176.9844,126.4375 176.7656,126.75 L176.5938,126.6719 Z " fill="#000000"/><text fill="#000000" font-family="sans-serif" font-size="12" lengthAdjust="spacing" textLength="161" x="194.75" y="135.1543">RegistLaboratoryController</text><line style="stroke:#A80036;stroke-width:1.5;" x1="8" x2="510" y1="147" y2="147"/><line style="stroke:#A80036;stroke-width:1.5;" x1="8" x2="510" y1="155" y2="155"/><ellipse cx="18" cy="166" fill="#84BE84" rx="3" ry="3" style="stroke:#038048;stroke-width:1.0;"/><text fill="#000000" font-family="sans-serif" font-size="11" lengthAdjust="spacing" textLength="81" x="27" y="169.2104">getTestType()</text><ellipse cx="18" cy="178.8047" fill="#84BE84" rx="3" ry="3" style="stroke:#038048;stroke-width:1.0;"/><text fill="#000000" font-family="sans-serif" font-size="11" lengthAdjust="spacing" textLength="478" x="27" y="182.0151">createLaboratory(laboratoryID, name, address, phoneNumber, tinNumber, testType)</text><ellipse cx="18" cy="191.6094" fill="#84BE84" rx="3" ry="3" style="stroke:#038048;stroke-width:1.0;"/><text fill="#000000" font-family="sans-serif" font-size="11" lengthAdjust="spacing" textLength="96" x="27" y="194.8198">saveLaboratory()</text><!--MD5=[02e4b9b7573f1156f41e60aa5b4e25a4]
class Company--><rect fill="#FEFECE" filter="url(#f10oi85v87jtwe)" height="73.6094" id="Company" style="stroke:#A80036;stroke-width:1.5;" width="144" x="187" y="261"/><ellipse cx="227.2" cy="277" fill="#ADD1B2" rx="11" ry="11" style="stroke:#A80036;stroke-width:1.0;"/><path d="M229.5438,272.6719 C228.6063,272.2344 228.0125,272.0938 227.1375,272.0938 C224.5125,272.0938 222.5125,274.1719 222.5125,276.8906 L222.5125,278.0156 C222.5125,280.5938 224.6219,282.4844 227.5125,282.4844 C228.7313,282.4844 229.8875,282.1875 230.6375,281.6406 C231.2156,281.2344 231.5438,280.7813 231.5438,280.3906 C231.5438,279.9375 231.1531,279.5469 230.6844,279.5469 C230.4656,279.5469 230.2625,279.625 230.075,279.8125 C229.6219,280.2969 229.6219,280.2969 229.4344,280.3906 C229.0125,280.6563 228.325,280.7813 227.5594,280.7813 C225.5125,280.7813 224.2156,279.6875 224.2156,277.9844 L224.2156,276.8906 C224.2156,275.1094 225.4656,273.7969 227.2,273.7969 C227.7781,273.7969 228.3875,273.9531 228.8563,274.2031 C229.3406,274.4844 229.5125,274.7031 229.6063,275.1094 C229.6688,275.5156 229.7,275.6406 229.8406,275.7656 C229.9813,275.9063 230.2156,276.0156 230.4344,276.0156 C230.7,276.0156 230.9656,275.875 231.1375,275.6563 C231.2469,275.5 231.2781,275.3125 231.2781,274.8906 L231.2781,273.4688 C231.2781,273.0313 231.2625,272.9063 231.1688,272.75 C231.0125,272.4844 230.7313,272.3438 230.4344,272.3438 C230.1375,272.3438 229.9344,272.4375 229.7156,272.75 L229.5438,272.6719 Z " fill="#000000"/><text fill="#000000" font-family="sans-serif" font-size="12" lengthAdjust="spacing" textLength="56" x="246.8" y="281.1543">Company</text><line style="stroke:#A80036;stroke-width:1.5;" x1="188" x2="330" y1="293" y2="293"/><line style="stroke:#A80036;stroke-width:1.5;" x1="188" x2="330" y1="301" y2="301"/><ellipse cx="198" cy="312" fill="#84BE84" rx="3" ry="3" style="stroke:#038048;stroke-width:1.0;"/><text fill="#000000" font-family="sans-serif" font-size="11" lengthAdjust="spacing" textLength="81" x="207" y="315.2104">getTestType()</text><ellipse cx="198" cy="324.8047" fill="#84BE84" rx="3" ry="3" style="stroke:#038048;stroke-width:1.0;"/><text fill="#000000" font-family="sans-serif" font-size="11" lengthAdjust="spacing" textLength="118" x="207" y="328.0151">getStoreLaboratory()</text><!--MD5=[a607eba86c83b44fdb8195238d29832c]
class StoreTestType--><rect fill="#FEFECE" filter="url(#f10oi85v87jtwe)" height="60.8047" id="StoreTestType" style="stroke:#A80036;stroke-width:1.5;" width="180" x="27" y="420.5"/><ellipse cx="68.55" cy="436.5" fill="#ADD1B2" rx="11" ry="11" style="stroke:#A80036;stroke-width:1.0;"/><path d="M70.8938,432.1719 C69.9563,431.7344 69.3625,431.5938 68.4875,431.5938 C65.8625,431.5938 63.8625,433.6719 63.8625,436.3906 L63.8625,437.5156 C63.8625,440.0938 65.9719,441.9844 68.8625,441.9844 C70.0813,441.9844 71.2375,441.6875 71.9875,441.1406 C72.5656,440.7344 72.8938,440.2813 72.8938,439.8906 C72.8938,439.4375 72.5031,439.0469 72.0344,439.0469 C71.8156,439.0469 71.6125,439.125 71.425,439.3125 C70.9719,439.7969 70.9719,439.7969 70.7844,439.8906 C70.3625,440.1563 69.675,440.2813 68.9094,440.2813 C66.8625,440.2813 65.5656,439.1875 65.5656,437.4844 L65.5656,436.3906 C65.5656,434.6094 66.8156,433.2969 68.55,433.2969 C69.1281,433.2969 69.7375,433.4531 70.2063,433.7031 C70.6906,433.9844 70.8625,434.2031 70.9563,434.6094 C71.0188,435.0156 71.05,435.1406 71.1906,435.2656 C71.3313,435.4063 71.5656,435.5156 71.7844,435.5156 C72.05,435.5156 72.3156,435.375 72.4875,435.1563 C72.5969,435 72.6281,434.8125 72.6281,434.3906 L72.6281,432.9688 C72.6281,432.5313 72.6125,432.4063 72.5188,432.25 C72.3625,431.9844 72.0813,431.8438 71.7844,431.8438 C71.4875,431.8438 71.2844,431.9375 71.0656,432.25 L70.8938,432.1719 Z " fill="#000000"/><text fill="#000000" font-family="sans-serif" font-size="12" lengthAdjust="spacing" textLength="89" x="88.45" y="440.6543">StoreTestType</text><line style="stroke:#A80036;stroke-width:1.5;" x1="28" x2="206" y1="452.5" y2="452.5"/><line style="stroke:#A80036;stroke-width:1.5;" x1="28" x2="206" y1="460.5" y2="460.5"/><ellipse cx="38" cy="471.5" fill="#84BE84" rx="3" ry="3" style="stroke:#038048;stroke-width:1.0;"/><text fill="#000000" font-family="sans-serif" font-size="11" lengthAdjust="spacing" textLength="154" x="47" y="474.7104">getTestTypeByCode(code)</text><!--MD5=[56811ce029b2300bd7759ae4e03e23e7]
class StoreLaboratory--><rect fill="#FEFECE" filter="url(#f10oi85v87jtwe)" height="112.0234" id="StoreLaboratory" style="stroke:#A80036;stroke-width:1.5;" width="295" x="242.5" y="395"/><ellipse cx="336.75" cy="411" fill="#ADD1B2" rx="11" ry="11" style="stroke:#A80036;stroke-width:1.0;"/><path d="M339.0938,406.6719 C338.1563,406.2344 337.5625,406.0938 336.6875,406.0938 C334.0625,406.0938 332.0625,408.1719 332.0625,410.8906 L332.0625,412.0156 C332.0625,414.5938 334.1719,416.4844 337.0625,416.4844 C338.2813,416.4844 339.4375,416.1875 340.1875,415.6406 C340.7656,415.2344 341.0938,414.7813 341.0938,414.3906 C341.0938,413.9375 340.7031,413.5469 340.2344,413.5469 C340.0156,413.5469 339.8125,413.625 339.625,413.8125 C339.1719,414.2969 339.1719,414.2969 338.9844,414.3906 C338.5625,414.6563 337.875,414.7813 337.1094,414.7813 C335.0625,414.7813 333.7656,413.6875 333.7656,411.9844 L333.7656,410.8906 C333.7656,409.1094 335.0156,407.7969 336.75,407.7969 C337.3281,407.7969 337.9375,407.9531 338.4063,408.2031 C338.8906,408.4844 339.0625,408.7031 339.1563,409.1094 C339.2188,409.5156 339.25,409.6406 339.3906,409.7656 C339.5313,409.9063 339.7656,410.0156 339.9844,410.0156 C340.25,410.0156 340.5156,409.875 340.6875,409.6563 C340.7969,409.5 340.8281,409.3125 340.8281,408.8906 L340.8281,407.4688 C340.8281,407.0313 340.8125,406.9063 340.7188,406.75 C340.5625,406.4844 340.2813,406.3438 339.9844,406.3438 C339.6875,406.3438 339.4844,406.4375 339.2656,406.75 L339.0938,406.6719 Z " fill="#000000"/><text fill="#000000" font-family="sans-serif" font-size="12" lengthAdjust="spacing" textLength="98" x="357.25" y="415.1543">StoreLaboratory</text><line style="stroke:#A80036;stroke-width:1.5;" x1="243.5" x2="536.5" y1="427" y2="427"/><line style="stroke:#A80036;stroke-width:1.5;" x1="243.5" x2="536.5" y1="435" y2="435"/><ellipse cx="253.5" cy="446" fill="#84BE84" rx="3" ry="3" style="stroke:#038048;stroke-width:1.0;"/><text fill="#000000" font-family="sans-serif" font-size="11" lengthAdjust="spacing" textLength="265" x="262.5" y="449.2104">createLaboratory(laboratoryID, name, address,</text><text fill="#000000" font-family="sans-serif" font-size="11" lengthAdjust="spacing" textLength="209" x="266.5" y="462.0151">phoneNumber, tinNumber, testType)</text><ellipse cx="253.5" cy="471.6094" fill="#84BE84" rx="3" ry="3" style="stroke:#038048;stroke-width:1.0;"/><text fill="#000000" font-family="sans-serif" font-size="11" lengthAdjust="spacing" textLength="123" x="262.5" y="474.8198">validateLaboratory(cl)</text><ellipse cx="253.5" cy="484.4141" fill="#84BE84" rx="3" ry="3" style="stroke:#038048;stroke-width:1.0;"/><text fill="#000000" font-family="sans-serif" font-size="11" lengthAdjust="spacing" textLength="98" x="262.5" y="487.6245">addLaboratory(cl)</text><ellipse cx="253.5" cy="497.2188" fill="#84BE84" rx="3" ry="3" style="stroke:#038048;stroke-width:1.0;"/><text fill="#000000" font-family="sans-serif" font-size="11" lengthAdjust="spacing" textLength="105" x="262.5" y="500.4292">saveLaboratory(cl)</text><!--MD5=[0caf3a413731a0de34fc6162fe213ed9]
class Laboratory--><rect fill="#FEFECE" filter="url(#f10oi85v87jtwe)" height="150.4375" id="Laboratory" style="stroke:#A80036;stroke-width:1.5;" width="258" x="238" y="567"/><ellipse cx="330.25" cy="583" fill="#ADD1B2" rx="11" ry="11" style="stroke:#A80036;stroke-width:1.0;"/><path d="M332.5938,578.6719 C331.6563,578.2344 331.0625,578.0938 330.1875,578.0938 C327.5625,578.0938 325.5625,580.1719 325.5625,582.8906 L325.5625,584.0156 C325.5625,586.5938 327.6719,588.4844 330.5625,588.4844 C331.7813,588.4844 332.9375,588.1875 333.6875,587.6406 C334.2656,587.2344 334.5938,586.7813 334.5938,586.3906 C334.5938,585.9375 334.2031,585.5469 333.7344,585.5469 C333.5156,585.5469 333.3125,585.625 333.125,585.8125 C332.6719,586.2969 332.6719,586.2969 332.4844,586.3906 C332.0625,586.6563 331.375,586.7813 330.6094,586.7813 C328.5625,586.7813 327.2656,585.6875 327.2656,583.9844 L327.2656,582.8906 C327.2656,581.1094 328.5156,579.7969 330.25,579.7969 C330.8281,579.7969 331.4375,579.9531 331.9063,580.2031 C332.3906,580.4844 332.5625,580.7031 332.6563,581.1094 C332.7188,581.5156 332.75,581.6406 332.8906,581.7656 C333.0313,581.9063 333.2656,582.0156 333.4844,582.0156 C333.75,582.0156 334.0156,581.875 334.1875,581.6563 C334.2969,581.5 334.3281,581.3125 334.3281,580.8906 L334.3281,579.4688 C334.3281,579.0313 334.3125,578.9063 334.2188,578.75 C334.0625,578.4844 333.7813,578.3438 333.4844,578.3438 C333.1875,578.3438 332.9844,578.4375 332.7656,578.75 L332.5938,578.6719 Z " fill="#000000"/><text fill="#000000" font-family="sans-serif" font-size="12" lengthAdjust="spacing" textLength="65" x="350.75" y="587.1543">Laboratory</text><line style="stroke:#A80036;stroke-width:1.5;" x1="239" x2="495" y1="599" y2="599"/><rect fill="none" height="6" style="stroke:#C82930;stroke-width:1.0;" width="6" x="246" y="607"/><text fill="#000000" font-family="sans-serif" font-size="11" lengthAdjust="spacing" textLength="106" x="258" y="613.2104">String laboratoryID</text><rect fill="none" height="6" style="stroke:#C82930;stroke-width:1.0;" width="6" x="246" y="619.8047"/><text fill="#000000" font-family="sans-serif" font-size="11" lengthAdjust="spacing" textLength="70" x="258" y="626.0151">String name</text><rect fill="none" height="6" style="stroke:#C82930;stroke-width:1.0;" width="6" x="246" y="632.6094"/><text fill="#000000" font-family="sans-serif" font-size="11" lengthAdjust="spacing" textLength="82" x="258" y="638.8198">String address</text><rect fill="none" height="6" style="stroke:#C82930;stroke-width:1.0;" width="6" x="246" y="645.4141"/><text fill="#000000" font-family="sans-serif" font-size="11" lengthAdjust="spacing" textLength="99" x="258" y="651.6245">Int phoneNumber</text><rect fill="none" height="6" style="stroke:#C82930;stroke-width:1.0;" width="6" x="246" y="658.2188"/><text fill="#000000" font-family="sans-serif" font-size="11" lengthAdjust="spacing" textLength="77" x="258" y="664.4292">Int tinNumber</text><rect fill="none" height="6" style="stroke:#C82930;stroke-width:1.0;" width="6" x="246" y="671.0234"/><text fill="#000000" font-family="sans-serif" font-size="11" lengthAdjust="spacing" textLength="169" x="258" y="677.2339">List &lt;TestType&gt; listTestType</text><line style="stroke:#A80036;stroke-width:1.5;" x1="239" x2="495" y1="683.8281" y2="683.8281"/><ellipse cx="249" cy="694.8281" fill="#84BE84" rx="3" ry="3" style="stroke:#038048;stroke-width:1.0;"/><text fill="#000000" font-family="sans-serif" font-size="11" lengthAdjust="spacing" textLength="228" x="258" y="698.0386">Laboratory(laboratoryID, name, address,</text><text fill="#000000" font-family="sans-serif" font-size="11" lengthAdjust="spacing" textLength="180" x="262" y="710.8433">phoneNumber, tinNumber, test)</text><!--MD5=[aeb3272166074d8737a70b61b1e71682]
class TestType--><rect fill="#FEFECE" filter="url(#f10oi85v87jtwe)" height="112.0234" id="TestType" style="stroke:#A80036;stroke-width:1.5;" width="333" x="97.5" y="777"/><ellipse cx="231.75" cy="793" fill="#ADD1B2" rx="11" ry="11" style="stroke:#A80036;stroke-width:1.0;"/><path d="M234.0938,788.6719 C233.1563,788.2344 232.5625,788.0938 231.6875,788.0938 C229.0625,788.0938 227.0625,790.1719 227.0625,792.8906 L227.0625,794.0156 C227.0625,796.5938 229.1719,798.4844 232.0625,798.4844 C233.2813,798.4844 234.4375,798.1875 235.1875,797.6406 C235.7656,797.2344 236.0938,796.7813 236.0938,796.3906 C236.0938,795.9375 235.7031,795.5469 235.2344,795.5469 C235.0156,795.5469 234.8125,795.625 234.625,795.8125 C234.1719,796.2969 234.1719,796.2969 233.9844,796.3906 C233.5625,796.6563 232.875,796.7813 232.1094,796.7813 C230.0625,796.7813 228.7656,795.6875 228.7656,793.9844 L228.7656,792.8906 C228.7656,791.1094 230.0156,789.7969 231.75,789.7969 C232.3281,789.7969 232.9375,789.9531 233.4063,790.2031 C233.8906,790.4844 234.0625,790.7031 234.1563,791.1094 C234.2188,791.5156 234.25,791.6406 234.3906,791.7656 C234.5313,791.9063 234.7656,792.0156 234.9844,792.0156 C235.25,792.0156 235.5156,791.875 235.6875,791.6563 C235.7969,791.5 235.8281,791.3125 235.8281,790.8906 L235.8281,789.4688 C235.8281,789.0313 235.8125,788.9063 235.7188,788.75 C235.5625,788.4844 235.2813,788.3438 234.9844,788.3438 C234.6875,788.3438 234.4844,788.4375 234.2656,788.75 L234.0938,788.6719 Z " fill="#000000"/><text fill="#000000" font-family="sans-serif" font-size="12" lengthAdjust="spacing" textLength="56" x="252.25" y="797.1543">TestType</text><line style="stroke:#A80036;stroke-width:1.5;" x1="98.5" x2="429.5" y1="809" y2="809"/><rect fill="none" height="6" style="stroke:#C82930;stroke-width:1.0;" width="6" x="105.5" y="817"/><text fill="#000000" font-family="sans-serif" font-size="11" lengthAdjust="spacing" textLength="99" x="117.5" y="823.2104">String description</text><rect fill="none" height="6" style="stroke:#C82930;stroke-width:1.0;" width="6" x="105.5" y="829.8047"/><text fill="#000000" font-family="sans-serif" font-size="11" lengthAdjust="spacing" textLength="133" x="117.5" y="836.0151">String collectingMethod</text><rect fill="none" height="6" style="stroke:#C82930;stroke-width:1.0;" width="6" x="105.5" y="842.6094"/><text fill="#000000" font-family="sans-serif" font-size="11" lengthAdjust="spacing" textLength="65" x="117.5" y="848.8198">String code</text><rect fill="none" height="6" style="stroke:#C82930;stroke-width:1.0;" width="6" x="105.5" y="855.4141"/><text fill="#000000" font-family="sans-serif" font-size="11" lengthAdjust="spacing" textLength="73" x="117.5" y="861.6245">List category</text><line style="stroke:#A80036;stroke-width:1.5;" x1="98.5" x2="429.5" y1="868.2188" y2="868.2188"/><ellipse cx="108.5" cy="879.2188" fill="#84BE84" rx="3" ry="3" style="stroke:#038048;stroke-width:1.0;"/><text fill="#000000" font-family="sans-serif" font-size="11" lengthAdjust="spacing" textLength="307" x="117.5" y="882.4292">TestType(description,collectingMethod,code,category)</text><!--MD5=[7735579de12e837e8cc271bfe3ff1033]
link RegistLaboratoryUI to RegistLaboratoryController--><path codeLine="1" d="M259,55.219 C259,70.514 259,91.087 259,109.734 " fill="none" id="RegistLaboratoryUI-to-RegistLaboratoryController" style="stroke:#A80036;stroke-width:1.0;stroke-dasharray:7.0,7.0;"/><polygon fill="#A80036" points="259,114.936,263,105.936,259,109.936,255,105.936,259,114.936" style="stroke:#A80036;stroke-width:1.0;"/><!--MD5=[eb67c66933a44af12c97796100710525]
link RegistLaboratoryController to Company--><path codeLine="2" d="M259,201.154 C259,218.394 259,238.283 259,255.46 " fill="none" id="RegistLaboratoryController-to-Company" style="stroke:#A80036;stroke-width:1.0;stroke-dasharray:7.0,7.0;"/><polygon fill="#A80036" points="259,260.697,263,251.697,259,255.697,255,251.697,259,260.697" style="stroke:#A80036;stroke-width:1.0;"/><!--MD5=[bd1661a73bb598c0a8eca24e88ce1666]
link RegistLaboratoryController to StoreTestType--><path codeLine="3" d="M213.848,201.327 C197.727,218.511 180.683,239.396 169,261 C142.043,310.849 128.153,375.817 121.737,415.143 " fill="none" id="RegistLaboratoryController-to-StoreTestType" style="stroke:#A80036;stroke-width:1.0;stroke-dasharray:7.0,7.0;"/><polygon fill="#A80036" points="120.918,420.281,126.2871,412.0243,121.7064,415.3435,118.3871,410.7629,120.918,420.281" style="stroke:#A80036;stroke-width:1.0;"/><!--MD5=[92c857a92cff998b7d4b3926ecc76413]
link RegistLaboratoryController to StoreLaboratory--><path codeLine="4" d="M304.207,201.106 C320.217,218.263 336.973,239.187 348,261 C368.318,301.192 378.873,351.085 384.319,389.514 " fill="none" id="RegistLaboratoryController-to-StoreLaboratory" style="stroke:#A80036;stroke-width:1.0;stroke-dasharray:7.0,7.0;"/><polygon fill="#A80036" points="385.022,394.619,387.758,385.1578,384.3405,389.6657,379.8326,386.2482,385.022,394.619" style="stroke:#A80036;stroke-width:1.0;"/><!--MD5=[6e26920c1456e82a4bfd19c76a28221c]
link Company to StoreLaboratory--><path codeLine="11" d="M290.378,335.168 C304.804,351.797 322.294,371.957 338.568,390.716 " fill="none" id="Company-to-StoreLaboratory" style="stroke:#A80036;stroke-width:1.0;stroke-dasharray:7.0,7.0;"/><polygon fill="#A80036" points="342.238,394.946,339.3612,385.5266,338.9613,391.1693,333.3186,390.7694,342.238,394.946" style="stroke:#A80036;stroke-width:1.0;"/><!--MD5=[7d83db4f22686323470bd9ed8c83f833]
link Company to StoreTestType--><path codeLine="12" d="M224.987,335.168 C201.778,359.848 171.253,392.308 148.58,416.418 " fill="none" id="Company-to-StoreTestType" style="stroke:#A80036;stroke-width:1.0;stroke-dasharray:7.0,7.0;"/><polygon fill="#A80036" points="145.011,420.214,154.0905,416.3979,148.4363,416.5716,148.2626,410.9174,145.011,420.214" style="stroke:#A80036;stroke-width:1.0;"/><!--MD5=[cc14e122d52c11c8791303a6694e7510]
link StoreLaboratory to Laboratory--><path codeLine="25" d="M383.286,507.175 C381.213,524.205 378.888,543.31 376.658,561.635 " fill="none" id="StoreLaboratory-to-Laboratory" style="stroke:#A80036;stroke-width:1.0;stroke-dasharray:7.0,7.0;"/><polygon fill="#A80036" points="376.032,566.78,381.0905,558.3295,376.6363,561.8167,373.1491,557.3625,376.032,566.78" style="stroke:#A80036;stroke-width:1.0;"/><!--MD5=[5d04ed042f846d11be9781438a7a95b8]
link StoreTestType to TestType--><path codeLine="35" d="M128.413,481.502 C152.488,543.736 208.879,689.51 240.837,772.122 " fill="none" id="StoreTestType-to-TestType" style="stroke:#A80036;stroke-width:1.0;stroke-dasharray:7.0,7.0;"/><polygon fill="#A80036" points="242.717,776.983,243.1996,767.146,240.9126,772.3199,235.7387,770.033,242.717,776.983" style="stroke:#A80036;stroke-width:1.0;"/><!--MD5=[a32db2ae47f770b2d8b2519730eeef10]
link Laboratory to TestType--><path codeLine="36" d="M326.587,717.155 C316.612,735.46 306.053,754.834 296.508,772.35 " fill="none" id="Laboratory-to-TestType" style="stroke:#A80036;stroke-width:1.0;stroke-dasharray:7.0,7.0;"/><polygon fill="#A80036" points="294.103,776.762,301.9217,770.773,296.4954,772.3715,294.8968,766.9452,294.103,776.762" style="stroke:#A80036;stroke-width:1.0;"/><!--MD5=[d8c2d8b5953352594db8be92d396ad1c]
@startuml
RegistLaboratoryUI ..> RegistLaboratoryController
RegistLaboratoryController ..>Company
RegistLaboratoryController ..>StoreTestType
RegistLaboratoryController ..>StoreLaboratory


RegistLaboratoryController : +getTestType()
RegistLaboratoryController : +createLaboratory(laboratoryID, name, address, phoneNumber, tinNumber, testType)
RegistLaboratoryController : +saveLaboratory()

Company ..> StoreLaboratory
Company ..> StoreTestType

Company : +getTestType()
Company : +getStoreLaboratory()


StoreTestType : +getTestTypeByCode(code)

StoreLaboratory : +createLaboratory(laboratoryID, name, address, \n phoneNumber, tinNumber, testType)
StoreLaboratory : +validateLaboratory(cl)
StoreLaboratory : +addLaboratory(cl)
StoreLaboratory : +saveLaboratory(cl)

StoreLaboratory ..> Laboratory

Laboratory : -String laboratoryID
Laboratory : -String name
Laboratory : -String address
Laboratory : -Int phoneNumber
Laboratory : -Int tinNumber
Laboratory : -List <TestType> listTestType
Laboratory : +Laboratory(laboratoryID, name, address, \n phoneNumber, tinNumber, test)

StoreTestType ..> TestType
Laboratory ..> TestType

TestType : -String description
TestType : -String collectingMethod
TestType : -String code
TestType : -List category
TestType : +TestType(description,collectingMethod,code,category)
@enduml

PlantUML version 1.2021.6beta6(Unknown compile time)
(GPL source distribution)
Java Runtime: Java(TM) SE Runtime Environment
JVM: Java HotSpot(TM) 64-Bit Server VM
Default Encoding: UTF-8
Language: en
Country: US
--></g></svg>