<?xml version="1.0" encoding="UTF-8" standalone="no"?><svg xmlns="http://www.w3.org/2000/svg" xmlns:xlink="http://www.w3.org/1999/xlink" contentScriptType="application/ecmascript" contentStyleType="text/css" height="983.25px" preserveAspectRatio="none" style="width:1035px;height:983px;" version="1.1" viewBox="0 0 1035 983" width="1035px" zoomAndPan="magnify"><defs><filter height="300%" id="f1idt932knbeze" width="300%" x="-1" y="-1"><feGaussianBlur result="blurOut" stdDeviation="1.5"/><feColorMatrix in="blurOut" result="blurOut2" type="matrix" values="0 0 0 0 0 0 0 0 0 0 0 0 0 0 0 0 0 0 .4 0"/><feOffset dx="3.0" dy="3.0" in="blurOut2" result="blurOut3"/><feBlend in="SourceGraphic" in2="blurOut3" mode="normal"/></filter></defs><g><!--MD5=[9681dc6e01e10c6b4fe06895ae94f592]
cluster UI--><polygon fill="#FFFFFF" filter="url(#f1idt932knbeze)" points="340.905,4.5,355.905,4.5,361.155,22.207,474.405,22.207,474.405,79.5,340.905,79.5,340.905,4.5" style="stroke:#000000;stroke-width:1.125;"/><line style="stroke:#000000;stroke-width:1.125;" x1="340.905" x2="361.155" y1="22.207" y2="22.207"/><text fill="#000000" font-family="sans-serif" font-size="10.5" font-weight="bold" lengthAdjust="spacing" textLength="10.5" x="343.905" y="16.8999">UI</text><!--MD5=[1f2cfc53d9d308f53762fd0fcbaa4873]
cluster Controller--><polygon fill="#FFFFFF" filter="url(#f1idt932knbeze)" points="325.155,104.25,382.905,104.25,388.155,121.957,490.155,121.957,490.155,210.75,325.155,210.75,325.155,104.25" style="stroke:#000000;stroke-width:1.125;"/><line style="stroke:#000000;stroke-width:1.125;" x1="325.155" x2="388.155" y1="121.957" y2="121.957"/><text fill="#000000" font-family="sans-serif" font-size="10.5" font-weight="bold" lengthAdjust="spacing" textLength="53.25" x="328.155" y="116.6499">Controller</text><!--MD5=[121a8bf1197281ab89ed693fab589f94]
cluster Domain--><polygon fill="#FFFFFF" filter="url(#f1idt932knbeze)" points="46.905,382.125,90.405,382.125,95.655,399.832,360.405,399.832,360.405,978,46.905,978,46.905,382.125" style="stroke:#000000;stroke-width:1.125;"/><line style="stroke:#000000;stroke-width:1.125;" x1="46.905" x2="95.655" y1="399.832" y2="399.832"/><text fill="#000000" font-family="sans-serif" font-size="10.5" font-weight="bold" lengthAdjust="spacing" textLength="39" x="49.905" y="394.5249">Domain</text><!--MD5=[32ff0bc6350c7c18bc045f793eb2f657]
cluster Mapper--><polygon fill="#FFFFFF" filter="url(#f1idt932knbeze)" points="408.405,235.5,453.405,235.5,458.655,253.207,922.905,253.207,922.905,321,408.405,321,408.405,235.5" style="stroke:#000000;stroke-width:1.125;"/><line style="stroke:#000000;stroke-width:1.125;" x1="408.405" x2="458.655" y1="253.207" y2="253.207"/><text fill="#000000" font-family="sans-serif" font-size="10.5" font-weight="bold" lengthAdjust="spacing" textLength="40.5" x="411.405" y="247.8999">Mapper</text><!--MD5=[7b8bc9ee8bb84b99fb3a3f9477c19238]
cluster DTO--><polygon fill="#FFFFFF" filter="url(#f1idt932knbeze)" points="461.655,345.75,487.905,345.75,493.155,363.457,1022.655,363.457,1022.655,514.5,461.655,514.5,461.655,345.75" style="stroke:#000000;stroke-width:1.125;"/><line style="stroke:#000000;stroke-width:1.125;" x1="461.655" x2="493.155" y1="363.457" y2="363.457"/><text fill="#000000" font-family="sans-serif" font-size="10.5" font-weight="bold" lengthAdjust="spacing" textLength="21.75" x="464.655" y="358.1499">DTO</text><!--MD5=[0a128958ef6a4b158f5f16d32a9f79ea]
class ClinicalChemTechUI--><rect codeLine="7" fill="#FEFECE" filter="url(#f1idt932knbeze)" height="36" id="ClinicalChemTechUI" style="stroke:#A80036;stroke-width:1.125;" width="109.5" x="352.905" y="31.5"/><ellipse cx="364.155" cy="43.5" fill="#ADD1B2" rx="8.25" ry="8.25" style="stroke:#A80036;stroke-width:0.75;"/><path d="M365.655,40.875 Q365.8073,40.5 365.9831,40.3125 Q366.1589,40.125 366.3581,40.125 Q366.7097,40.125 366.9323,40.3359 Q367.155,40.5469 367.155,41.0391 L367.155,42.2109 Q367.155,42.7031 366.9441,42.9141 Q366.7331,43.125 366.405,43.125 Q366.112,43.125 365.9245,42.9961 Q365.737,42.8672 365.655,42.5273 Q365.6198,42.293 365.4909,42.1641 Q365.2566,41.918 364.8347,41.7773 Q364.4128,41.625 363.9909,41.625 Q363.4636,41.625 363.0183,41.8359 Q362.5847,42.0469 362.2448,42.5156 Q361.905,42.9844 361.905,43.6289 L361.905,44.3203 Q361.905,45.0938 362.5378,45.6094 Q363.1706,46.125 364.2956,46.125 Q364.9636,46.125 365.4323,45.9727 Q365.7019,45.8906 366.0066,45.6211 Q366.2058,45.4688 366.3113,45.4219 Q366.4167,45.375 366.5456,45.375 Q366.7917,45.375 366.9675,45.5742 Q367.155,45.7617 367.155,46.0313 Q367.155,46.2891 366.8972,46.5938 Q366.5222,47.0391 365.9245,47.2852 Q365.1394,47.625 364.1784,47.625 Q363.0534,47.625 362.1511,47.1797 Q361.4245,46.8281 360.9089,46.0664 Q360.405,45.3047 360.405,44.4023 L360.405,43.582 Q360.405,42.6445 360.8503,41.8242 Q361.3073,41.0039 362.0925,40.5703 Q362.8894,40.125 363.78,40.125 Q364.3191,40.125 364.7878,40.3125 Q365.2566,40.5 365.655,40.875 Z " fill="#000000"/><text fill="#000000" font-family="sans-serif" font-size="9" lengthAdjust="spacing" textLength="85.5" x="374.655" y="47.1826">ClinicalChemTechUI</text><line style="stroke:#A80036;stroke-width:1.125;" x1="353.655" x2="461.655" y1="55.5" y2="55.5"/><line style="stroke:#A80036;stroke-width:1.125;" x1="353.655" x2="461.655" y1="61.5" y2="61.5"/><!--MD5=[ebffdb2d01573289f108f41d0fd40488]
class ClinicalChemTechController--><rect codeLine="41" fill="#FEFECE" filter="url(#f1idt932knbeze)" height="67.1309" id="ClinicalChemTechController" style="stroke:#A80036;stroke-width:1.125;" width="141" x="337.155" y="131.25"/><ellipse cx="348.405" cy="143.25" fill="#ADD1B2" rx="8.25" ry="8.25" style="stroke:#A80036;stroke-width:0.75;"/><path d="M349.905,140.625 Q350.0573,140.25 350.2331,140.0625 Q350.4089,139.875 350.6081,139.875 Q350.9597,139.875 351.1823,140.0859 Q351.405,140.2969 351.405,140.7891 L351.405,141.9609 Q351.405,142.4531 351.1941,142.6641 Q350.9831,142.875 350.655,142.875 Q350.362,142.875 350.1745,142.7461 Q349.987,142.6172 349.905,142.2773 Q349.8698,142.043 349.7409,141.9141 Q349.5066,141.668 349.0847,141.5273 Q348.6628,141.375 348.2409,141.375 Q347.7136,141.375 347.2683,141.5859 Q346.8347,141.7969 346.4948,142.2656 Q346.155,142.7344 346.155,143.3789 L346.155,144.0703 Q346.155,144.8438 346.7878,145.3594 Q347.4206,145.875 348.5456,145.875 Q349.2136,145.875 349.6823,145.7227 Q349.9519,145.6406 350.2566,145.3711 Q350.4558,145.2188 350.5613,145.1719 Q350.6667,145.125 350.7956,145.125 Q351.0417,145.125 351.2175,145.3242 Q351.405,145.5117 351.405,145.7813 Q351.405,146.0391 351.1472,146.3438 Q350.7722,146.7891 350.1745,147.0352 Q349.3894,147.375 348.4284,147.375 Q347.3034,147.375 346.4011,146.9297 Q345.6745,146.5781 345.1589,145.8164 Q344.655,145.0547 344.655,144.1523 L344.655,143.332 Q344.655,142.3945 345.1003,141.5742 Q345.5573,140.7539 346.3425,140.3203 Q347.1394,139.875 348.03,139.875 Q348.5691,139.875 349.0378,140.0625 Q349.5066,140.25 349.905,140.625 Z " fill="#000000"/><text fill="#000000" font-family="sans-serif" font-size="9" lengthAdjust="spacing" textLength="117" x="358.905" y="146.9326">ClinicalChemTechController</text><line style="stroke:#A80036;stroke-width:1.125;" x1="337.905" x2="477.405" y1="155.25" y2="155.25"/><line style="stroke:#A80036;stroke-width:1.125;" x1="337.905" x2="477.405" y1="161.25" y2="161.25"/><text fill="#000000" font-family="sans-serif" font-size="8.25" lengthAdjust="spacing" textLength="45.75" x="341.655" y="172.8142">+getClients()</text><text fill="#000000" font-family="sans-serif" font-size="8.25" lengthAdjust="spacing" textLength="130.5" x="341.655" y="183.1912">+getOrderingAlgorithms(clientsDTO)</text><text fill="#000000" font-family="sans-serif" font-size="8.25" lengthAdjust="spacing" textLength="87" x="341.655" y="193.5681">+getTestsForClientX(tin)</text><!--MD5=[02e4b9b7573f1156f41e60aa5b4e25a4]
class Company--><rect codeLine="47" fill="#FEFECE" filter="url(#f1idt932knbeze)" height="56.7539" id="Company" style="stroke:#A80036;stroke-width:1.125;" width="69.75" x="217.53" y="409.125"/><ellipse cx="231.48" cy="421.125" fill="#ADD1B2" rx="8.25" ry="8.25" style="stroke:#A80036;stroke-width:0.75;"/><path d="M232.98,418.5 Q233.1323,418.125 233.3081,417.9375 Q233.4839,417.75 233.6831,417.75 Q234.0347,417.75 234.2573,417.9609 Q234.48,418.1719 234.48,418.6641 L234.48,419.8359 Q234.48,420.3281 234.2691,420.5391 Q234.0581,420.75 233.73,420.75 Q233.437,420.75 233.2495,420.6211 Q233.062,420.4922 232.98,420.1523 Q232.9448,419.918 232.8159,419.7891 Q232.5816,419.543 232.1597,419.4023 Q231.7378,419.25 231.3159,419.25 Q230.7886,419.25 230.3433,419.4609 Q229.9097,419.6719 229.5698,420.1406 Q229.23,420.6094 229.23,421.2539 L229.23,421.9453 Q229.23,422.7188 229.8628,423.2344 Q230.4956,423.75 231.6206,423.75 Q232.2886,423.75 232.7573,423.5977 Q233.0269,423.5156 233.3316,423.2461 Q233.5308,423.0938 233.6363,423.0469 Q233.7417,423 233.8706,423 Q234.1167,423 234.2925,423.1992 Q234.48,423.3867 234.48,423.6563 Q234.48,423.9141 234.2222,424.2188 Q233.8472,424.6641 233.2495,424.9102 Q232.4644,425.25 231.5034,425.25 Q230.3784,425.25 229.4761,424.8047 Q228.7495,424.4531 228.2339,423.6914 Q227.73,422.9297 227.73,422.0273 L227.73,421.207 Q227.73,420.2695 228.1753,419.4492 Q228.6323,418.6289 229.4175,418.1953 Q230.2144,417.75 231.105,417.75 Q231.6441,417.75 232.1128,417.9375 Q232.5816,418.125 232.98,418.5 Z " fill="#000000"/><text fill="#000000" font-family="sans-serif" font-size="9" lengthAdjust="spacing" textLength="39.75" x="242.58" y="424.8076">Company</text><line style="stroke:#A80036;stroke-width:1.125;" x1="218.28" x2="286.53" y1="433.125" y2="433.125"/><line style="stroke:#A80036;stroke-width:1.125;" x1="218.28" x2="286.53" y1="439.125" y2="439.125"/><text fill="#000000" font-family="sans-serif" font-size="8.25" lengthAdjust="spacing" textLength="60.75" x="222.03" y="450.6892">+getClientStore()</text><text fill="#000000" font-family="sans-serif" font-size="8.25" lengthAdjust="spacing" textLength="57" x="222.03" y="461.0662">+getTestStore()</text><!--MD5=[55cb992be19579b505cea3c5691093cb]
class ClientStore--><rect codeLine="64" fill="#FEFECE" filter="url(#f1idt932knbeze)" height="56.7539" id="ClientStore" style="stroke:#A80036;stroke-width:1.125;" width="100.5" x="247.905" y="562.5"/><ellipse cx="272.9925" cy="574.5" fill="#ADD1B2" rx="8.25" ry="8.25" style="stroke:#A80036;stroke-width:0.75;"/><path d="M274.4925,571.875 Q274.6448,571.5 274.8206,571.3125 Q274.9964,571.125 275.1956,571.125 Q275.5472,571.125 275.7698,571.3359 Q275.9925,571.5469 275.9925,572.0391 L275.9925,573.2109 Q275.9925,573.7031 275.7816,573.9141 Q275.5706,574.125 275.2425,574.125 Q274.9495,574.125 274.762,573.9961 Q274.5745,573.8672 274.4925,573.5273 Q274.4573,573.293 274.3284,573.1641 Q274.0941,572.918 273.6722,572.7773 Q273.2503,572.625 272.8284,572.625 Q272.3011,572.625 271.8558,572.8359 Q271.4222,573.0469 271.0823,573.5156 Q270.7425,573.9844 270.7425,574.6289 L270.7425,575.3203 Q270.7425,576.0938 271.3753,576.6094 Q272.0081,577.125 273.1331,577.125 Q273.8011,577.125 274.2698,576.9727 Q274.5394,576.8906 274.8441,576.6211 Q275.0433,576.4688 275.1488,576.4219 Q275.2542,576.375 275.3831,576.375 Q275.6292,576.375 275.805,576.5742 Q275.9925,576.7617 275.9925,577.0313 Q275.9925,577.2891 275.7347,577.5938 Q275.3597,578.0391 274.762,578.2852 Q273.9769,578.625 273.0159,578.625 Q271.8909,578.625 270.9886,578.1797 Q270.262,577.8281 269.7464,577.0664 Q269.2425,576.3047 269.2425,575.4023 L269.2425,574.582 Q269.2425,573.6445 269.6878,572.8242 Q270.1448,572.0039 270.93,571.5703 Q271.7269,571.125 272.6175,571.125 Q273.1566,571.125 273.6253,571.3125 Q274.0941,571.5 274.4925,571.875 Z " fill="#000000"/><text fill="#000000" font-family="sans-serif" font-size="9" lengthAdjust="spacing" textLength="45.75" x="286.5675" y="578.1826">ClientStore</text><line style="stroke:#A80036;stroke-width:1.125;" x1="248.655" x2="347.655" y1="586.5" y2="586.5"/><line style="stroke:#A80036;stroke-width:1.125;" x1="248.655" x2="347.655" y1="592.5" y2="592.5"/><text fill="#000000" font-family="sans-serif" font-size="8.25" lengthAdjust="spacing" textLength="54" x="252.405" y="604.0642">+getClientList()</text><text fill="#000000" font-family="sans-serif" font-size="8.25" lengthAdjust="spacing" textLength="91.5" x="252.405" y="614.4412">+getOrderingAlgorithms()</text><!--MD5=[b7b4fd945e6c93d3d26dcc8e9e28d05a]
class SortingAlgorithms--><rect codeLine="73" fill="#FEFECE" filter="url(#f1idt932knbeze)" height="56.7539" id="SortingAlgorithms" style="stroke:#A80036;stroke-width:1.125;" width="132" x="58.905" y="409.125"/><ellipse cx="85.68" cy="421.125" fill="#ADD1B2" rx="8.25" ry="8.25" style="stroke:#A80036;stroke-width:0.75;"/><path d="M87.18,418.5 Q87.3323,418.125 87.5081,417.9375 Q87.6839,417.75 87.8831,417.75 Q88.2347,417.75 88.4573,417.9609 Q88.68,418.1719 88.68,418.6641 L88.68,419.8359 Q88.68,420.3281 88.4691,420.5391 Q88.2581,420.75 87.93,420.75 Q87.637,420.75 87.4495,420.6211 Q87.262,420.4922 87.18,420.1523 Q87.1448,419.918 87.0159,419.7891 Q86.7816,419.543 86.3597,419.4023 Q85.9378,419.25 85.5159,419.25 Q84.9886,419.25 84.5433,419.4609 Q84.1097,419.6719 83.7698,420.1406 Q83.43,420.6094 83.43,421.2539 L83.43,421.9453 Q83.43,422.7188 84.0628,423.2344 Q84.6956,423.75 85.8206,423.75 Q86.4886,423.75 86.9573,423.5977 Q87.2269,423.5156 87.5316,423.2461 Q87.7308,423.0938 87.8362,423.0469 Q87.9417,423 88.0706,423 Q88.3167,423 88.4925,423.1992 Q88.68,423.3867 88.68,423.6563 Q88.68,423.9141 88.4222,424.2188 Q88.0472,424.6641 87.4495,424.9102 Q86.6644,425.25 85.7034,425.25 Q84.5784,425.25 83.6761,424.8047 Q82.9495,424.4531 82.4339,423.6914 Q81.93,422.9297 81.93,422.0273 L81.93,421.207 Q81.93,420.2695 82.3753,419.4492 Q82.8323,418.6289 83.6175,418.1953 Q84.4144,417.75 85.305,417.75 Q85.8441,417.75 86.3128,417.9375 Q86.7816,418.125 87.18,418.5 Z " fill="#000000"/><text fill="#000000" font-family="sans-serif" font-size="9" lengthAdjust="spacing" textLength="73.5" x="99.63" y="424.8076">SortingAlgorithms</text><line style="stroke:#A80036;stroke-width:1.125;" x1="59.655" x2="190.155" y1="433.125" y2="433.125"/><line style="stroke:#A80036;stroke-width:1.125;" x1="59.655" x2="190.155" y1="439.125" y2="439.125"/><text fill="#000000" font-family="sans-serif" font-size="8.25" lengthAdjust="spacing" textLength="113.25" x="63.405" y="450.6892">+orderClientsByTin(clientsDTO)</text><text fill="#000000" font-family="sans-serif" font-size="8.25" lengthAdjust="spacing" textLength="123" x="63.405" y="461.0662">+orderClientsByName(clientsDTO)</text><!--MD5=[0f6f7964b844a64b0496af0dda7914bd]
class TestStore--><rect codeLine="78" fill="#FEFECE" filter="url(#f1idt932knbeze)" height="46.377" id="TestStore" style="stroke:#A80036;stroke-width:1.125;" width="93.75" x="127.53" y="567.75"/><ellipse cx="152.28" cy="579.75" fill="#ADD1B2" rx="8.25" ry="8.25" style="stroke:#A80036;stroke-width:0.75;"/><path d="M153.78,577.125 Q153.9323,576.75 154.1081,576.5625 Q154.2839,576.375 154.4831,576.375 Q154.8347,576.375 155.0573,576.5859 Q155.28,576.7969 155.28,577.2891 L155.28,578.4609 Q155.28,578.9531 155.0691,579.1641 Q154.8581,579.375 154.53,579.375 Q154.237,579.375 154.0495,579.2461 Q153.862,579.1172 153.78,578.7773 Q153.7448,578.543 153.6159,578.4141 Q153.3816,578.168 152.9597,578.0273 Q152.5378,577.875 152.1159,577.875 Q151.5886,577.875 151.1433,578.0859 Q150.7097,578.2969 150.3698,578.7656 Q150.03,579.2344 150.03,579.8789 L150.03,580.5703 Q150.03,581.3438 150.6628,581.8594 Q151.2956,582.375 152.4206,582.375 Q153.0886,582.375 153.5573,582.2227 Q153.8269,582.1406 154.1316,581.8711 Q154.3308,581.7188 154.4363,581.6719 Q154.5417,581.625 154.6706,581.625 Q154.9167,581.625 155.0925,581.8242 Q155.28,582.0117 155.28,582.2813 Q155.28,582.5391 155.0222,582.8438 Q154.6472,583.2891 154.0495,583.5352 Q153.2644,583.875 152.3034,583.875 Q151.1784,583.875 150.2761,583.4297 Q149.5495,583.0781 149.0339,582.3164 Q148.53,581.5547 148.53,580.6523 L148.53,579.832 Q148.53,578.8945 148.9753,578.0742 Q149.4323,577.2539 150.2175,576.8203 Q151.0144,576.375 151.905,576.375 Q152.4441,576.375 152.9128,576.5625 Q153.3816,576.75 153.78,577.125 Z " fill="#000000"/><text fill="#000000" font-family="sans-serif" font-size="9" lengthAdjust="spacing" textLength="39.75" x="165.78" y="583.4326">TestStore</text><line style="stroke:#A80036;stroke-width:1.125;" x1="128.28" x2="220.53" y1="591.75" y2="591.75"/><line style="stroke:#A80036;stroke-width:1.125;" x1="128.28" x2="220.53" y1="597.75" y2="597.75"/><text fill="#000000" font-family="sans-serif" font-size="8.25" lengthAdjust="spacing" textLength="84.75" x="132.03" y="609.3142">+getTestsByClient(test)</text><!--MD5=[ed6624c6556d5e7b1bd23032162d20b7]
class Client--><rect codeLine="103" fill="#FEFECE" filter="url(#f1idt932knbeze)" height="36" id="Client" style="stroke:#A80036;stroke-width:1.125;" width="48" x="91.905" y="678"/><ellipse cx="103.155" cy="690" fill="#ADD1B2" rx="8.25" ry="8.25" style="stroke:#A80036;stroke-width:0.75;"/><path d="M104.655,687.375 Q104.8073,687 104.9831,686.8125 Q105.1589,686.625 105.3581,686.625 Q105.7097,686.625 105.9323,686.8359 Q106.155,687.0469 106.155,687.5391 L106.155,688.7109 Q106.155,689.2031 105.9441,689.4141 Q105.7331,689.625 105.405,689.625 Q105.112,689.625 104.9245,689.4961 Q104.737,689.3672 104.655,689.0273 Q104.6198,688.793 104.4909,688.6641 Q104.2566,688.418 103.8347,688.2773 Q103.4128,688.125 102.9909,688.125 Q102.4636,688.125 102.0183,688.3359 Q101.5847,688.5469 101.2448,689.0156 Q100.905,689.4844 100.905,690.1289 L100.905,690.8203 Q100.905,691.5938 101.5378,692.1094 Q102.1706,692.625 103.2956,692.625 Q103.9636,692.625 104.4323,692.4727 Q104.7019,692.3906 105.0066,692.1211 Q105.2058,691.9688 105.3113,691.9219 Q105.4167,691.875 105.5456,691.875 Q105.7917,691.875 105.9675,692.0742 Q106.155,692.2617 106.155,692.5313 Q106.155,692.7891 105.8972,693.0938 Q105.5222,693.5391 104.9245,693.7852 Q104.1394,694.125 103.1784,694.125 Q102.0534,694.125 101.1511,693.6797 Q100.4245,693.3281 99.9089,692.5664 Q99.405,691.8047 99.405,690.9023 L99.405,690.082 Q99.405,689.1445 99.8503,688.3242 Q100.3073,687.5039 101.0925,687.0703 Q101.8894,686.625 102.78,686.625 Q103.3191,686.625 103.7878,686.8125 Q104.2566,687 104.655,687.375 Z " fill="#000000"/><text fill="#000000" font-family="sans-serif" font-size="9" lengthAdjust="spacing" textLength="24" x="113.655" y="693.6826">Client</text><line style="stroke:#A80036;stroke-width:1.125;" x1="92.655" x2="139.155" y1="702" y2="702"/><line style="stroke:#A80036;stroke-width:1.125;" x1="92.655" x2="139.155" y1="708" y2="708"/><!--MD5=[df38be88ccee13e832d6fafd6288a4ca]
class Test--><rect codeLine="113" fill="#FEFECE" filter="url(#f1idt932knbeze)" height="36" id="Test" style="stroke:#A80036;stroke-width:1.125;" width="42" x="58.905" y="573"/><ellipse cx="70.155" cy="585" fill="#ADD1B2" rx="8.25" ry="8.25" style="stroke:#A80036;stroke-width:0.75;"/><path d="M71.655,582.375 Q71.8073,582 71.9831,581.8125 Q72.1589,581.625 72.3581,581.625 Q72.7097,581.625 72.9323,581.8359 Q73.155,582.0469 73.155,582.5391 L73.155,583.7109 Q73.155,584.2031 72.9441,584.4141 Q72.7331,584.625 72.405,584.625 Q72.112,584.625 71.9245,584.4961 Q71.737,584.3672 71.655,584.0273 Q71.6198,583.793 71.4909,583.6641 Q71.2566,583.418 70.8347,583.2773 Q70.4128,583.125 69.9909,583.125 Q69.4636,583.125 69.0183,583.3359 Q68.5847,583.5469 68.2448,584.0156 Q67.905,584.4844 67.905,585.1289 L67.905,585.8203 Q67.905,586.5938 68.5378,587.1094 Q69.1706,587.625 70.2956,587.625 Q70.9636,587.625 71.4323,587.4727 Q71.7019,587.3906 72.0066,587.1211 Q72.2058,586.9688 72.3113,586.9219 Q72.4167,586.875 72.5456,586.875 Q72.7917,586.875 72.9675,587.0742 Q73.155,587.2617 73.155,587.5313 Q73.155,587.7891 72.8972,588.0938 Q72.5222,588.5391 71.9245,588.7852 Q71.1394,589.125 70.1784,589.125 Q69.0534,589.125 68.1511,588.6797 Q67.4245,588.3281 66.9089,587.5664 Q66.405,586.8047 66.405,585.9023 L66.405,585.082 Q66.405,584.1445 66.8503,583.3242 Q67.3073,582.5039 68.0925,582.0703 Q68.8894,581.625 69.78,581.625 Q70.3191,581.625 70.7878,581.8125 Q71.2566,582 71.655,582.375 Z " fill="#000000"/><text fill="#000000" font-family="sans-serif" font-size="9" lengthAdjust="spacing" textLength="18" x="80.655" y="588.6826">Test</text><line style="stroke:#A80036;stroke-width:1.125;" x1="59.655" x2="100.155" y1="597" y2="597"/><line style="stroke:#A80036;stroke-width:1.125;" x1="59.655" x2="100.155" y1="603" y2="603"/><!--MD5=[1f6362a5c8f21d8d6a0fce68f3a92a4e]
class Parameter--><rect codeLine="58" fill="#FEFECE" filter="url(#f1idt932knbeze)" height="67.1309" id="Parameter" style="stroke:#A80036;stroke-width:1.125;" width="75" x="134.655" y="772.5"/><ellipse cx="149.28" cy="784.5" fill="#ADD1B2" rx="8.25" ry="8.25" style="stroke:#A80036;stroke-width:0.75;"/><path d="M150.78,781.875 Q150.9323,781.5 151.1081,781.3125 Q151.2839,781.125 151.4831,781.125 Q151.8347,781.125 152.0573,781.3359 Q152.28,781.5469 152.28,782.0391 L152.28,783.2109 Q152.28,783.7031 152.0691,783.9141 Q151.8581,784.125 151.53,784.125 Q151.237,784.125 151.0495,783.9961 Q150.862,783.8672 150.78,783.5273 Q150.7448,783.293 150.6159,783.1641 Q150.3816,782.918 149.9597,782.7773 Q149.5378,782.625 149.1159,782.625 Q148.5886,782.625 148.1433,782.8359 Q147.7097,783.0469 147.3698,783.5156 Q147.03,783.9844 147.03,784.6289 L147.03,785.3203 Q147.03,786.0938 147.6628,786.6094 Q148.2956,787.125 149.4206,787.125 Q150.0886,787.125 150.5573,786.9727 Q150.8269,786.8906 151.1316,786.6211 Q151.3308,786.4688 151.4363,786.4219 Q151.5417,786.375 151.6706,786.375 Q151.9167,786.375 152.0925,786.5742 Q152.28,786.7617 152.28,787.0313 Q152.28,787.2891 152.0222,787.5938 Q151.6472,788.0391 151.0495,788.2852 Q150.2644,788.625 149.3034,788.625 Q148.1784,788.625 147.2761,788.1797 Q146.5495,787.8281 146.0339,787.0664 Q145.53,786.3047 145.53,785.4023 L145.53,784.582 Q145.53,783.6445 145.9753,782.8242 Q146.4323,782.0039 147.2175,781.5703 Q148.0144,781.125 148.905,781.125 Q149.4441,781.125 149.9128,781.3125 Q150.3816,781.5 150.78,781.875 Z " fill="#000000"/><text fill="#000000" font-family="sans-serif" font-size="9" lengthAdjust="spacing" textLength="43.5" x="160.53" y="788.1826">Parameter</text><line style="stroke:#A80036;stroke-width:1.125;" x1="135.405" x2="208.905" y1="796.5" y2="796.5"/><text fill="#000000" font-family="sans-serif" font-size="8.25" lengthAdjust="spacing" textLength="44.25" x="139.155" y="808.0642">-String code</text><text fill="#000000" font-family="sans-serif" font-size="8.25" lengthAdjust="spacing" textLength="65.25" x="139.155" y="818.4412">-String shortName</text><text fill="#000000" font-family="sans-serif" font-size="8.25" lengthAdjust="spacing" textLength="66" x="139.155" y="828.8181">-String description</text><line style="stroke:#A80036;stroke-width:1.125;" x1="135.405" x2="208.905" y1="833.6309" y2="833.6309"/><!--MD5=[4e608140b854dae633589343bce77383]
class TestParameterResult--><rect codeLine="116" fill="#FEFECE" filter="url(#f1idt932knbeze)" height="36" id="TestParameterResult" style="stroke:#A80036;stroke-width:1.125;" width="112.5" x="235.905" y="788.25"/><ellipse cx="247.155" cy="800.25" fill="#ADD1B2" rx="8.25" ry="8.25" style="stroke:#A80036;stroke-width:0.75;"/><path d="M248.655,797.625 Q248.8073,797.25 248.9831,797.0625 Q249.1589,796.875 249.3581,796.875 Q249.7097,796.875 249.9323,797.0859 Q250.155,797.2969 250.155,797.7891 L250.155,798.9609 Q250.155,799.4531 249.9441,799.6641 Q249.7331,799.875 249.405,799.875 Q249.112,799.875 248.9245,799.7461 Q248.737,799.6172 248.655,799.2773 Q248.6198,799.043 248.4909,798.9141 Q248.2566,798.668 247.8347,798.5273 Q247.4128,798.375 246.9909,798.375 Q246.4636,798.375 246.0183,798.5859 Q245.5847,798.7969 245.2448,799.2656 Q244.905,799.7344 244.905,800.3789 L244.905,801.0703 Q244.905,801.8438 245.5378,802.3594 Q246.1706,802.875 247.2956,802.875 Q247.9636,802.875 248.4323,802.7227 Q248.7019,802.6406 249.0066,802.3711 Q249.2058,802.2188 249.3113,802.1719 Q249.4167,802.125 249.5456,802.125 Q249.7917,802.125 249.9675,802.3242 Q250.155,802.5117 250.155,802.7813 Q250.155,803.0391 249.8972,803.3438 Q249.5222,803.7891 248.9245,804.0352 Q248.1394,804.375 247.1784,804.375 Q246.0534,804.375 245.1511,803.9297 Q244.4245,803.5781 243.9089,802.8164 Q243.405,802.0547 243.405,801.1523 L243.405,800.332 Q243.405,799.3945 243.8503,798.5742 Q244.3073,797.7539 245.0925,797.3203 Q245.8894,796.875 246.78,796.875 Q247.3191,796.875 247.7878,797.0625 Q248.2566,797.25 248.655,797.625 Z " fill="#000000"/><text fill="#000000" font-family="sans-serif" font-size="9" lengthAdjust="spacing" textLength="88.5" x="257.655" y="803.9326">TestParameterResult</text><line style="stroke:#A80036;stroke-width:1.125;" x1="236.655" x2="347.655" y1="812.25" y2="812.25"/><line style="stroke:#A80036;stroke-width:1.125;" x1="236.655" x2="347.655" y1="818.25" y2="818.25"/><!--MD5=[0f07739f46effee96e095e9c408da841]
class TestParameter--><rect codeLine="124" fill="#FEFECE" filter="url(#f1idt932knbeze)" height="36" id="TestParameter" style="stroke:#A80036;stroke-width:1.125;" width="85.5" x="208.155" y="678"/><ellipse cx="219.405" cy="690" fill="#ADD1B2" rx="8.25" ry="8.25" style="stroke:#A80036;stroke-width:0.75;"/><path d="M220.905,687.375 Q221.0573,687 221.2331,686.8125 Q221.4089,686.625 221.6081,686.625 Q221.9597,686.625 222.1823,686.8359 Q222.405,687.0469 222.405,687.5391 L222.405,688.7109 Q222.405,689.2031 222.1941,689.4141 Q221.9831,689.625 221.655,689.625 Q221.362,689.625 221.1745,689.4961 Q220.987,689.3672 220.905,689.0273 Q220.8698,688.793 220.7409,688.6641 Q220.5066,688.418 220.0847,688.2773 Q219.6628,688.125 219.2409,688.125 Q218.7136,688.125 218.2683,688.3359 Q217.8347,688.5469 217.4948,689.0156 Q217.155,689.4844 217.155,690.1289 L217.155,690.8203 Q217.155,691.5938 217.7878,692.1094 Q218.4206,692.625 219.5456,692.625 Q220.2136,692.625 220.6823,692.4727 Q220.9519,692.3906 221.2566,692.1211 Q221.4558,691.9688 221.5613,691.9219 Q221.6667,691.875 221.7956,691.875 Q222.0417,691.875 222.2175,692.0742 Q222.405,692.2617 222.405,692.5313 Q222.405,692.7891 222.1472,693.0938 Q221.7722,693.5391 221.1745,693.7852 Q220.3894,694.125 219.4284,694.125 Q218.3034,694.125 217.4011,693.6797 Q216.6745,693.3281 216.1589,692.5664 Q215.655,691.8047 215.655,690.9023 L215.655,690.082 Q215.655,689.1445 216.1003,688.3242 Q216.5573,687.5039 217.3425,687.0703 Q218.1394,686.625 219.03,686.625 Q219.5691,686.625 220.0378,686.8125 Q220.5066,687 220.905,687.375 Z " fill="#000000"/><text fill="#000000" font-family="sans-serif" font-size="9" lengthAdjust="spacing" textLength="61.5" x="229.905" y="693.6826">TestParameter</text><line style="stroke:#A80036;stroke-width:1.125;" x1="208.905" x2="292.905" y1="702" y2="702"/><line style="stroke:#A80036;stroke-width:1.125;" x1="208.905" x2="292.905" y1="708" y2="708"/><!--MD5=[1c357e7e7fdba398bcadd6e61afe49f5]
class ReferenceValue--><rect codeLine="52" fill="#FEFECE" filter="url(#f1idt932knbeze)" height="67.1309" id="ReferenceValue" style="stroke:#A80036;stroke-width:1.125;" width="90" x="247.155" y="898.5"/><ellipse cx="258.405" cy="910.5" fill="#ADD1B2" rx="8.25" ry="8.25" style="stroke:#A80036;stroke-width:0.75;"/><path d="M259.905,907.875 Q260.0573,907.5 260.2331,907.3125 Q260.4089,907.125 260.6081,907.125 Q260.9597,907.125 261.1823,907.3359 Q261.405,907.5469 261.405,908.0391 L261.405,909.2109 Q261.405,909.7031 261.1941,909.9141 Q260.9831,910.125 260.655,910.125 Q260.362,910.125 260.1745,909.9961 Q259.987,909.8672 259.905,909.5273 Q259.8698,909.293 259.7409,909.1641 Q259.5066,908.918 259.0847,908.7773 Q258.6628,908.625 258.2409,908.625 Q257.7136,908.625 257.2683,908.8359 Q256.8347,909.0469 256.4948,909.5156 Q256.155,909.9844 256.155,910.6289 L256.155,911.3203 Q256.155,912.0938 256.7878,912.6094 Q257.4206,913.125 258.5456,913.125 Q259.2136,913.125 259.6823,912.9727 Q259.9519,912.8906 260.2566,912.6211 Q260.4558,912.4688 260.5613,912.4219 Q260.6667,912.375 260.7956,912.375 Q261.0417,912.375 261.2175,912.5742 Q261.405,912.7617 261.405,913.0313 Q261.405,913.2891 261.1472,913.5938 Q260.7722,914.0391 260.1745,914.2852 Q259.3894,914.625 258.4284,914.625 Q257.3034,914.625 256.4011,914.1797 Q255.6745,913.8281 255.1589,913.0664 Q254.655,912.3047 254.655,911.4023 L254.655,910.582 Q254.655,909.6445 255.1003,908.8242 Q255.5573,908.0039 256.3425,907.5703 Q257.1394,907.125 258.03,907.125 Q258.5691,907.125 259.0378,907.3125 Q259.5066,907.5 259.905,907.875 Z " fill="#000000"/><text fill="#000000" font-family="sans-serif" font-size="9" lengthAdjust="spacing" textLength="66" x="268.905" y="914.1826">ReferenceValue</text><line style="stroke:#A80036;stroke-width:1.125;" x1="247.905" x2="336.405" y1="922.5" y2="922.5"/><text fill="#000000" font-family="sans-serif" font-size="8.25" lengthAdjust="spacing" textLength="59.25" x="251.655" y="934.0642">-double minimum</text><text fill="#000000" font-family="sans-serif" font-size="8.25" lengthAdjust="spacing" textLength="62.25" x="251.655" y="944.4412">-oduble maximum</text><text fill="#000000" font-family="sans-serif" font-size="8.25" lengthAdjust="spacing" textLength="48" x="251.655" y="954.8181">-String metric</text><line style="stroke:#A80036;stroke-width:1.125;" x1="247.905" x2="336.405" y1="959.6309" y2="959.6309"/><!--MD5=[d9af5e34e5bc78cd5a2caff02363fedd]
class ClientMapper--><rect codeLine="69" fill="#FEFECE" filter="url(#f1idt932knbeze)" height="46.377" id="ClientMapper" style="stroke:#A80036;stroke-width:1.125;" width="78.75" x="420.78" y="262.5"/><ellipse cx="432.03" cy="274.5" fill="#ADD1B2" rx="8.25" ry="8.25" style="stroke:#A80036;stroke-width:0.75;"/><path d="M433.53,271.875 Q433.6823,271.5 433.8581,271.3125 Q434.0339,271.125 434.2331,271.125 Q434.5847,271.125 434.8073,271.3359 Q435.03,271.5469 435.03,272.0391 L435.03,273.2109 Q435.03,273.7031 434.8191,273.9141 Q434.6081,274.125 434.28,274.125 Q433.987,274.125 433.7995,273.9961 Q433.612,273.8672 433.53,273.5273 Q433.4948,273.293 433.3659,273.1641 Q433.1316,272.918 432.7097,272.7773 Q432.2878,272.625 431.8659,272.625 Q431.3386,272.625 430.8933,272.8359 Q430.4597,273.0469 430.1198,273.5156 Q429.78,273.9844 429.78,274.6289 L429.78,275.3203 Q429.78,276.0938 430.4128,276.6094 Q431.0456,277.125 432.1706,277.125 Q432.8386,277.125 433.3073,276.9727 Q433.5769,276.8906 433.8816,276.6211 Q434.0808,276.4688 434.1863,276.4219 Q434.2917,276.375 434.4206,276.375 Q434.6667,276.375 434.8425,276.5742 Q435.03,276.7617 435.03,277.0313 Q435.03,277.2891 434.7722,277.5938 Q434.3972,278.0391 433.7995,278.2852 Q433.0144,278.625 432.0534,278.625 Q430.9284,278.625 430.0261,278.1797 Q429.2995,277.8281 428.7839,277.0664 Q428.28,276.3047 428.28,275.4023 L428.28,274.582 Q428.28,273.6445 428.7253,272.8242 Q429.1823,272.0039 429.9675,271.5703 Q430.7644,271.125 431.655,271.125 Q432.1941,271.125 432.6628,271.3125 Q433.1316,271.5 433.53,271.875 Z " fill="#000000"/><text fill="#000000" font-family="sans-serif" font-size="9" lengthAdjust="spacing" textLength="54.75" x="442.53" y="278.1826">ClientMapper</text><line style="stroke:#A80036;stroke-width:1.125;" x1="421.53" x2="498.78" y1="286.5" y2="286.5"/><line style="stroke:#A80036;stroke-width:1.125;" x1="421.53" x2="498.78" y1="292.5" y2="292.5"/><text fill="#000000" font-family="sans-serif" font-size="8.25" lengthAdjust="spacing" textLength="29.25" x="425.28" y="304.0642">+toDto()</text><!--MD5=[144698ec4d0188f6929a3b58a3eeb1f6]
class TestMapper--><rect codeLine="82" fill="#FEFECE" filter="url(#f1idt932knbeze)" height="46.377" id="TestMapper" style="stroke:#A80036;stroke-width:1.125;" width="72.75" x="525.78" y="262.5"/><ellipse cx="537.03" cy="274.5" fill="#ADD1B2" rx="8.25" ry="8.25" style="stroke:#A80036;stroke-width:0.75;"/><path d="M538.53,271.875 Q538.6823,271.5 538.8581,271.3125 Q539.0339,271.125 539.2331,271.125 Q539.5847,271.125 539.8073,271.3359 Q540.03,271.5469 540.03,272.0391 L540.03,273.2109 Q540.03,273.7031 539.8191,273.9141 Q539.6081,274.125 539.28,274.125 Q538.987,274.125 538.7995,273.9961 Q538.612,273.8672 538.53,273.5273 Q538.4948,273.293 538.3659,273.1641 Q538.1316,272.918 537.7097,272.7773 Q537.2878,272.625 536.8659,272.625 Q536.3386,272.625 535.8933,272.8359 Q535.4597,273.0469 535.1198,273.5156 Q534.78,273.9844 534.78,274.6289 L534.78,275.3203 Q534.78,276.0938 535.4128,276.6094 Q536.0456,277.125 537.1706,277.125 Q537.8386,277.125 538.3073,276.9727 Q538.5769,276.8906 538.8816,276.6211 Q539.0808,276.4688 539.1863,276.4219 Q539.2917,276.375 539.4206,276.375 Q539.6667,276.375 539.8425,276.5742 Q540.03,276.7617 540.03,277.0313 Q540.03,277.2891 539.7722,277.5938 Q539.3972,278.0391 538.7995,278.2852 Q538.0144,278.625 537.0534,278.625 Q535.9284,278.625 535.0261,278.1797 Q534.2995,277.8281 533.7839,277.0664 Q533.28,276.3047 533.28,275.4023 L533.28,274.582 Q533.28,273.6445 533.7253,272.8242 Q534.1823,272.0039 534.9675,271.5703 Q535.7644,271.125 536.655,271.125 Q537.1941,271.125 537.6628,271.3125 Q538.1316,271.5 538.53,271.875 Z " fill="#000000"/><text fill="#000000" font-family="sans-serif" font-size="9" lengthAdjust="spacing" textLength="48.75" x="547.53" y="278.1826">TestMapper</text><line style="stroke:#A80036;stroke-width:1.125;" x1="526.53" x2="597.78" y1="286.5" y2="286.5"/><line style="stroke:#A80036;stroke-width:1.125;" x1="526.53" x2="597.78" y1="292.5" y2="292.5"/><text fill="#000000" font-family="sans-serif" font-size="8.25" lengthAdjust="spacing" textLength="29.25" x="530.28" y="304.0642">+toDto()</text><!--MD5=[a82d32c079496d6dca2681dc0633feb0]
class TestParameterMapper--><rect codeLine="99" fill="#FEFECE" filter="url(#f1idt932knbeze)" height="46.377" id="TestParameterMapper" style="stroke:#A80036;stroke-width:1.125;" width="116.25" x="624.78" y="262.5"/><ellipse cx="636.03" cy="274.5" fill="#ADD1B2" rx="8.25" ry="8.25" style="stroke:#A80036;stroke-width:0.75;"/><path d="M637.53,271.875 Q637.6823,271.5 637.8581,271.3125 Q638.0339,271.125 638.2331,271.125 Q638.5847,271.125 638.8073,271.3359 Q639.03,271.5469 639.03,272.0391 L639.03,273.2109 Q639.03,273.7031 638.8191,273.9141 Q638.6081,274.125 638.28,274.125 Q637.987,274.125 637.7995,273.9961 Q637.612,273.8672 637.53,273.5273 Q637.4948,273.293 637.3659,273.1641 Q637.1316,272.918 636.7097,272.7773 Q636.2878,272.625 635.8659,272.625 Q635.3386,272.625 634.8933,272.8359 Q634.4597,273.0469 634.1198,273.5156 Q633.78,273.9844 633.78,274.6289 L633.78,275.3203 Q633.78,276.0938 634.4128,276.6094 Q635.0456,277.125 636.1706,277.125 Q636.8386,277.125 637.3073,276.9727 Q637.5769,276.8906 637.8816,276.6211 Q638.0808,276.4688 638.1863,276.4219 Q638.2917,276.375 638.4206,276.375 Q638.6667,276.375 638.8425,276.5742 Q639.03,276.7617 639.03,277.0313 Q639.03,277.2891 638.7722,277.5938 Q638.3972,278.0391 637.7995,278.2852 Q637.0144,278.625 636.0534,278.625 Q634.9284,278.625 634.0261,278.1797 Q633.2995,277.8281 632.7839,277.0664 Q632.28,276.3047 632.28,275.4023 L632.28,274.582 Q632.28,273.6445 632.7253,272.8242 Q633.1823,272.0039 633.9675,271.5703 Q634.7644,271.125 635.655,271.125 Q636.1941,271.125 636.6628,271.3125 Q637.1316,271.5 637.53,271.875 Z " fill="#000000"/><text fill="#000000" font-family="sans-serif" font-size="9" lengthAdjust="spacing" textLength="92.25" x="646.53" y="278.1826">TestParameterMapper</text><line style="stroke:#A80036;stroke-width:1.125;" x1="625.53" x2="740.28" y1="286.5" y2="286.5"/><line style="stroke:#A80036;stroke-width:1.125;" x1="625.53" x2="740.28" y1="292.5" y2="292.5"/><text fill="#000000" font-family="sans-serif" font-size="8.25" lengthAdjust="spacing" textLength="29.25" x="629.28" y="304.0642">+toDto()</text><!--MD5=[79c31928469f30619eb8fec47d55137b]
class TestParameterResultMapper--><rect codeLine="130" fill="#FEFECE" filter="url(#f1idt932knbeze)" height="46.377" id="TestParameterResultMapper" style="stroke:#A80036;stroke-width:1.125;" width="143.25" x="767.28" y="262.5"/><ellipse cx="778.53" cy="274.5" fill="#ADD1B2" rx="8.25" ry="8.25" style="stroke:#A80036;stroke-width:0.75;"/><path d="M780.03,271.875 Q780.1823,271.5 780.3581,271.3125 Q780.5339,271.125 780.7331,271.125 Q781.0847,271.125 781.3073,271.3359 Q781.53,271.5469 781.53,272.0391 L781.53,273.2109 Q781.53,273.7031 781.3191,273.9141 Q781.1081,274.125 780.78,274.125 Q780.487,274.125 780.2995,273.9961 Q780.112,273.8672 780.03,273.5273 Q779.9948,273.293 779.8659,273.1641 Q779.6316,272.918 779.2097,272.7773 Q778.7878,272.625 778.3659,272.625 Q777.8386,272.625 777.3933,272.8359 Q776.9597,273.0469 776.6198,273.5156 Q776.28,273.9844 776.28,274.6289 L776.28,275.3203 Q776.28,276.0938 776.9128,276.6094 Q777.5456,277.125 778.6706,277.125 Q779.3386,277.125 779.8073,276.9727 Q780.0769,276.8906 780.3816,276.6211 Q780.5808,276.4688 780.6863,276.4219 Q780.7917,276.375 780.9206,276.375 Q781.1667,276.375 781.3425,276.5742 Q781.53,276.7617 781.53,277.0313 Q781.53,277.2891 781.2722,277.5938 Q780.8972,278.0391 780.2995,278.2852 Q779.5144,278.625 778.5534,278.625 Q777.4284,278.625 776.5261,278.1797 Q775.7995,277.8281 775.2839,277.0664 Q774.78,276.3047 774.78,275.4023 L774.78,274.582 Q774.78,273.6445 775.2253,272.8242 Q775.6823,272.0039 776.4675,271.5703 Q777.2644,271.125 778.155,271.125 Q778.6941,271.125 779.1628,271.3125 Q779.6316,271.5 780.03,271.875 Z " fill="#000000"/><text fill="#000000" font-family="sans-serif" font-size="9" lengthAdjust="spacing" textLength="119.25" x="789.03" y="278.1826">TestParameterResultMapper</text><line style="stroke:#A80036;stroke-width:1.125;" x1="768.03" x2="909.78" y1="286.5" y2="286.5"/><line style="stroke:#A80036;stroke-width:1.125;" x1="768.03" x2="909.78" y1="292.5" y2="292.5"/><text fill="#000000" font-family="sans-serif" font-size="8.25" lengthAdjust="spacing" textLength="29.25" x="771.78" y="304.0642">+toDto()</text><!--MD5=[d92da6d3e9b1e9631354e1a6db35e891]
class ClientDTO--><rect codeLine="87" fill="#FEFECE" filter="url(#f1idt932knbeze)" height="129.3926" id="ClientDTO" style="stroke:#A80036;stroke-width:1.125;" width="79.5" x="473.655" y="372.75"/><ellipse cx="490.6425" cy="384.75" fill="#ADD1B2" rx="8.25" ry="8.25" style="stroke:#A80036;stroke-width:0.75;"/><path d="M492.1425,382.125 Q492.2948,381.75 492.4706,381.5625 Q492.6464,381.375 492.8456,381.375 Q493.1972,381.375 493.4198,381.5859 Q493.6425,381.7969 493.6425,382.2891 L493.6425,383.4609 Q493.6425,383.9531 493.4316,384.1641 Q493.2206,384.375 492.8925,384.375 Q492.5995,384.375 492.412,384.2461 Q492.2245,384.1172 492.1425,383.7773 Q492.1073,383.543 491.9784,383.4141 Q491.7441,383.168 491.3222,383.0273 Q490.9003,382.875 490.4784,382.875 Q489.9511,382.875 489.5058,383.0859 Q489.0722,383.2969 488.7323,383.7656 Q488.3925,384.2344 488.3925,384.8789 L488.3925,385.5703 Q488.3925,386.3438 489.0253,386.8594 Q489.6581,387.375 490.7831,387.375 Q491.4511,387.375 491.9198,387.2227 Q492.1894,387.1406 492.4941,386.8711 Q492.6933,386.7188 492.7987,386.6719 Q492.9042,386.625 493.0331,386.625 Q493.2792,386.625 493.455,386.8242 Q493.6425,387.0117 493.6425,387.2813 Q493.6425,387.5391 493.3847,387.8438 Q493.0097,388.2891 492.412,388.5352 Q491.6269,388.875 490.6659,388.875 Q489.5409,388.875 488.6386,388.4297 Q487.912,388.0781 487.3964,387.3164 Q486.8925,386.5547 486.8925,385.6523 L486.8925,384.832 Q486.8925,383.8945 487.3378,383.0742 Q487.7948,382.2539 488.58,381.8203 Q489.3769,381.375 490.2675,381.375 Q490.8066,381.375 491.2753,381.5625 Q491.7441,381.75 492.1425,382.125 Z " fill="#000000"/><text fill="#000000" font-family="sans-serif" font-size="9" lengthAdjust="spacing" textLength="42.75" x="502.4175" y="388.4326">ClientDTO</text><line style="stroke:#A80036;stroke-width:1.125;" x1="474.405" x2="552.405" y1="396.75" y2="396.75"/><text fill="#000000" font-family="sans-serif" font-size="8.25" lengthAdjust="spacing" textLength="39.75" x="478.155" y="408.3142">-String ccn</text><text fill="#000000" font-family="sans-serif" font-size="8.25" lengthAdjust="spacing" textLength="33.75" x="478.155" y="418.6912">-long nhs</text><text fill="#000000" font-family="sans-serif" font-size="8.25" lengthAdjust="spacing" textLength="42" x="478.155" y="429.0681">-String birth</text><text fill="#000000" font-family="sans-serif" font-size="8.25" lengthAdjust="spacing" textLength="39.75" x="478.155" y="439.4451">-String sex</text><text fill="#000000" font-family="sans-serif" font-size="8.25" lengthAdjust="spacing" textLength="27" x="478.155" y="449.822">-long tif</text><text fill="#000000" font-family="sans-serif" font-size="8.25" lengthAdjust="spacing" textLength="44.25" x="478.155" y="460.199">-String email</text><text fill="#000000" font-family="sans-serif" font-size="8.25" lengthAdjust="spacing" textLength="45.75" x="478.155" y="470.5759">-String name</text><text fill="#000000" font-family="sans-serif" font-size="8.25" lengthAdjust="spacing" textLength="70.5" x="478.155" y="480.9529">-long phoneNumber</text><text fill="#000000" font-family="sans-serif" font-size="8.25" lengthAdjust="spacing" textLength="56.25" x="478.155" y="491.3298">-String address</text><line style="stroke:#A80036;stroke-width:1.125;" x1="474.405" x2="552.405" y1="496.1426" y2="496.1426"/><!--MD5=[9fb704ffefcaf68bf1a361787afa998b]
class TestDTO--><rect codeLine="107" fill="#FEFECE" filter="url(#f1idt932knbeze)" height="77.5078" id="TestDTO" style="stroke:#A80036;stroke-width:1.125;" width="142.5" x="579.405" y="399"/><ellipse cx="629.0925" cy="411" fill="#ADD1B2" rx="8.25" ry="8.25" style="stroke:#A80036;stroke-width:0.75;"/><path d="M630.5925,408.375 Q630.7448,408 630.9206,407.8125 Q631.0964,407.625 631.2956,407.625 Q631.6472,407.625 631.8698,407.8359 Q632.0925,408.0469 632.0925,408.5391 L632.0925,409.7109 Q632.0925,410.2031 631.8816,410.4141 Q631.6706,410.625 631.3425,410.625 Q631.0495,410.625 630.862,410.4961 Q630.6745,410.3672 630.5925,410.0273 Q630.5573,409.793 630.4284,409.6641 Q630.1941,409.418 629.7722,409.2773 Q629.3503,409.125 628.9284,409.125 Q628.4011,409.125 627.9558,409.3359 Q627.5222,409.5469 627.1823,410.0156 Q626.8425,410.4844 626.8425,411.1289 L626.8425,411.8203 Q626.8425,412.5938 627.4753,413.1094 Q628.1081,413.625 629.2331,413.625 Q629.9011,413.625 630.3698,413.4727 Q630.6394,413.3906 630.9441,413.1211 Q631.1433,412.9688 631.2488,412.9219 Q631.3542,412.875 631.4831,412.875 Q631.7292,412.875 631.905,413.0742 Q632.0925,413.2617 632.0925,413.5313 Q632.0925,413.7891 631.8347,414.0938 Q631.4597,414.5391 630.862,414.7852 Q630.0769,415.125 629.1159,415.125 Q627.9909,415.125 627.0886,414.6797 Q626.362,414.3281 625.8464,413.5664 Q625.3425,412.8047 625.3425,411.9023 L625.3425,411.082 Q625.3425,410.1445 625.7878,409.3242 Q626.2448,408.5039 627.03,408.0703 Q627.8269,407.625 628.7175,407.625 Q629.2566,407.625 629.7253,407.8125 Q630.1941,408 630.5925,408.375 Z " fill="#000000"/><text fill="#000000" font-family="sans-serif" font-size="9" lengthAdjust="spacing" textLength="36.75" x="644.4675" y="414.6826">TestDTO</text><line style="stroke:#A80036;stroke-width:1.125;" x1="580.155" x2="721.155" y1="423" y2="423"/><text fill="#000000" font-family="sans-serif" font-size="8.25" lengthAdjust="spacing" textLength="44.25" x="583.905" y="434.5642">-String code</text><text fill="#000000" font-family="sans-serif" font-size="8.25" lengthAdjust="spacing" textLength="133.5" x="583.905" y="444.9412">-List&lt;String&gt; testParameterResultList</text><text fill="#000000" font-family="sans-serif" font-size="8.25" lengthAdjust="spacing" textLength="37.5" x="583.905" y="455.3181">-Date date</text><text fill="#000000" font-family="sans-serif" font-size="8.25" lengthAdjust="spacing" textLength="72" x="583.905" y="465.6951">-Date validationDate</text><line style="stroke:#A80036;stroke-width:1.125;" x1="580.155" x2="721.155" y1="470.5078" y2="470.5078"/><!--MD5=[9029832ed3ecb3cabd268e0ea1743d60]
class TestParameterResultDTO--><rect codeLine="119" fill="#FEFECE" filter="url(#f1idt932knbeze)" height="56.7539" id="TestParameterResultDTO" style="stroke:#A80036;stroke-width:1.125;" width="131.25" x="879.03" y="409.125"/><ellipse cx="890.28" cy="421.125" fill="#ADD1B2" rx="8.25" ry="8.25" style="stroke:#A80036;stroke-width:0.75;"/><path d="M891.78,418.5 Q891.9323,418.125 892.1081,417.9375 Q892.2839,417.75 892.4831,417.75 Q892.8347,417.75 893.0573,417.9609 Q893.28,418.1719 893.28,418.6641 L893.28,419.8359 Q893.28,420.3281 893.0691,420.5391 Q892.8581,420.75 892.53,420.75 Q892.237,420.75 892.0495,420.6211 Q891.862,420.4922 891.78,420.1523 Q891.7448,419.918 891.6159,419.7891 Q891.3816,419.543 890.9597,419.4023 Q890.5378,419.25 890.1159,419.25 Q889.5886,419.25 889.1433,419.4609 Q888.7097,419.6719 888.3698,420.1406 Q888.03,420.6094 888.03,421.2539 L888.03,421.9453 Q888.03,422.7188 888.6628,423.2344 Q889.2956,423.75 890.4206,423.75 Q891.0886,423.75 891.5573,423.5977 Q891.8269,423.5156 892.1316,423.2461 Q892.3308,423.0938 892.4363,423.0469 Q892.5417,423 892.6706,423 Q892.9167,423 893.0925,423.1992 Q893.28,423.3867 893.28,423.6563 Q893.28,423.9141 893.0222,424.2188 Q892.6472,424.6641 892.0495,424.9102 Q891.2644,425.25 890.3034,425.25 Q889.1784,425.25 888.2761,424.8047 Q887.5495,424.4531 887.0339,423.6914 Q886.53,422.9297 886.53,422.0273 L886.53,421.207 Q886.53,420.2695 886.9753,419.4492 Q887.4323,418.6289 888.2175,418.1953 Q889.0144,417.75 889.905,417.75 Q890.4441,417.75 890.9128,417.9375 Q891.3816,418.125 891.78,418.5 Z " fill="#000000"/><text fill="#000000" font-family="sans-serif" font-size="9" lengthAdjust="spacing" textLength="107.25" x="900.78" y="424.8076">TestParameterResultDTO</text><line style="stroke:#A80036;stroke-width:1.125;" x1="879.78" x2="1009.53" y1="433.125" y2="433.125"/><text fill="#000000" font-family="sans-serif" font-size="8.25" lengthAdjust="spacing" textLength="48" x="883.53" y="444.6892">-String metric</text><text fill="#000000" font-family="sans-serif" font-size="8.25" lengthAdjust="spacing" textLength="48.75" x="883.53" y="455.0662">-double value</text><line style="stroke:#A80036;stroke-width:1.125;" x1="879.78" x2="1009.53" y1="459.8789" y2="459.8789"/><!--MD5=[16358064a951ae5dfdda1035a51b763d]
class TestParameterDTO--><rect codeLine="127" fill="#FEFECE" filter="url(#f1idt932knbeze)" height="36" id="TestParameterDTO" style="stroke:#A80036;stroke-width:1.125;" width="104.25" x="748.53" y="419.625"/><ellipse cx="759.78" cy="431.625" fill="#ADD1B2" rx="8.25" ry="8.25" style="stroke:#A80036;stroke-width:0.75;"/><path d="M761.28,429 Q761.4323,428.625 761.6081,428.4375 Q761.7839,428.25 761.9831,428.25 Q762.3347,428.25 762.5573,428.4609 Q762.78,428.6719 762.78,429.1641 L762.78,430.3359 Q762.78,430.8281 762.5691,431.0391 Q762.3581,431.25 762.03,431.25 Q761.737,431.25 761.5495,431.1211 Q761.362,430.9922 761.28,430.6523 Q761.2448,430.418 761.1159,430.2891 Q760.8816,430.043 760.4597,429.9023 Q760.0378,429.75 759.6159,429.75 Q759.0886,429.75 758.6433,429.9609 Q758.2097,430.1719 757.8698,430.6406 Q757.53,431.1094 757.53,431.7539 L757.53,432.4453 Q757.53,433.2188 758.1628,433.7344 Q758.7956,434.25 759.9206,434.25 Q760.5886,434.25 761.0573,434.0977 Q761.3269,434.0156 761.6316,433.7461 Q761.8308,433.5938 761.9363,433.5469 Q762.0417,433.5 762.1706,433.5 Q762.4167,433.5 762.5925,433.6992 Q762.78,433.8867 762.78,434.1563 Q762.78,434.4141 762.5222,434.7188 Q762.1472,435.1641 761.5495,435.4102 Q760.7644,435.75 759.8034,435.75 Q758.6784,435.75 757.7761,435.3047 Q757.0495,434.9531 756.5339,434.1914 Q756.03,433.4297 756.03,432.5273 L756.03,431.707 Q756.03,430.7695 756.4753,429.9492 Q756.9323,429.1289 757.7175,428.6953 Q758.5144,428.25 759.405,428.25 Q759.9441,428.25 760.4128,428.4375 Q760.8816,428.625 761.28,429 Z " fill="#000000"/><text fill="#000000" font-family="sans-serif" font-size="9" lengthAdjust="spacing" textLength="80.25" x="770.28" y="435.3076">TestParameterDTO</text><line style="stroke:#A80036;stroke-width:1.125;" x1="749.28" x2="852.03" y1="443.625" y2="443.625"/><line style="stroke:#A80036;stroke-width:1.125;" x1="749.28" x2="852.03" y1="449.625" y2="449.625"/><!--MD5=[b9356389c69ba79648cec74af73ea6c1]
link ClinicalChemTechUI to ClinicalChemTechController--><path codeLine="134" d="M407.655,67.5675 C407.655,83.3325 407.655,107.1375 407.655,127.185 " fill="none" id="ClinicalChemTechUI-to-ClinicalChemTechController" style="stroke:#A80036;stroke-width:0.75;stroke-dasharray:7.0,7.0;"/><polygon fill="#A80036" points="407.655,131.1375,410.655,124.3875,407.655,127.3875,404.655,124.3875,407.655,131.1375" style="stroke:#A80036;stroke-width:0.75;"/><!--MD5=[bd461912abedfa52bb73d4a623cb9a7a]
link ClinicalChemTechController to Company--><path codeLine="135" d="M337.08,196.3875 C326.085,203.7075 315.7725,212.4525 307.905,222.75 C266.25,277.245 255.705,359.9325 253.1325,404.94 " fill="none" id="ClinicalChemTechController-to-Company" style="stroke:#A80036;stroke-width:0.75;stroke-dasharray:7.0,7.0;"/><polygon fill="#A80036" points="252.9225,408.915,256.285,402.3381,253.1264,405.1705,250.2939,402.0119,252.9225,408.915" style="stroke:#A80036;stroke-width:0.75;"/><!--MD5=[4cd966faab73a09f686c81c936b01e61]
link ClinicalChemTechController to ClientStore--><path codeLine="136" d="M404.8275,198.96 C397.62,278.9625 376.9725,480.15 346.905,540 C343.4325,546.9075 338.6775,553.485 333.495,559.47 " fill="none" id="ClinicalChemTechController-to-ClientStore" style="stroke:#A80036;stroke-width:0.75;stroke-dasharray:7.0,7.0;"/><polygon fill="#A80036" points="330.915,562.3575,337.6482,559.32,333.4123,559.56,333.1723,555.3242,330.915,562.3575" style="stroke:#A80036;stroke-width:0.75;"/><!--MD5=[ce82326a273882b0cbe0791fcd07be81]
link ClinicalChemTechController to ClientMapper--><path codeLine="137" d="M422.28,198.9675 C430.5825,217.83 440.835,241.1175 448.575,258.705 " fill="none" id="ClinicalChemTechController-to-ClientMapper" style="stroke:#A80036;stroke-width:0.75;stroke-dasharray:7.0,7.0;"/><polygon fill="#A80036" points="450.09,262.1475,450.1221,254.7609,448.5819,258.7141,444.6287,257.1739,450.09,262.1475" style="stroke:#A80036;stroke-width:0.75;"/><!--MD5=[33d1016bc9250def4da347bd2cca3045]
link ClinicalChemTechController to TestStore--><path codeLine="138" d="M395.865,198.8025 C392.3775,208.665 388.5825,219.51 385.155,229.5 C368.3925,278.355 361.44,289.77 348.405,339.75 C325.5225,427.425 370.8525,472.725 310.155,540 C286.8375,565.8375 267.72,550.245 235.155,562.5 C231.885,563.73 228.5475,565.0575 225.195,566.4375 " fill="none" id="ClinicalChemTechController-to-TestStore" style="stroke:#A80036;stroke-width:0.75;stroke-dasharray:7.0,7.0;"/><polygon fill="#A80036" points="221.565,567.9525,228.9493,568.1369,225.0288,566.5155,226.6502,562.5949,221.565,567.9525" style="stroke:#A80036;stroke-width:0.75;"/><!--MD5=[cb78f90271a5f86143aba252ffecdd27]
link ClinicalChemTechController to TestMapper--><path codeLine="139" d="M469.155,198.9 C483.99,208.0125 499.3725,218.4525 512.655,229.5 C523.1775,238.26 533.475,249.2775 541.9275,259.1925 " fill="none" id="ClinicalChemTechController-to-TestMapper" style="stroke:#A80036;stroke-width:0.75;stroke-dasharray:7.0,7.0;"/><polygon fill="#A80036" points="544.4925,262.23,542.4499,255.1314,542.0813,259.358,537.8547,258.9893,544.4925,262.23" style="stroke:#A80036;stroke-width:0.75;"/><!--MD5=[ade1fd967b408c5bb941b9fd58949a50]
link ClinicalChemTechController to Test--><path codeLine="140" d="M337.0575,176.46 C250.725,193.7925 108.4125,237.09 46.155,339.75 C4.5,408.4425 28.2075,442.2 46.155,520.5 C50.145,537.9075 59.07,556.02 66.7425,569.4225 " fill="none" id="ClinicalChemTechController-to-Test" style="stroke:#A80036;stroke-width:0.75;stroke-dasharray:7.0,7.0;"/><polygon fill="#A80036" points="68.6625,572.7225,67.8663,565.3789,66.779,569.4798,62.678,568.3925,68.6625,572.7225" style="stroke:#A80036;stroke-width:0.75;"/><!--MD5=[50fb4847908780a85283429aa1658557]
link ClinicalChemTechController to TestParameterResultMapper--><path codeLine="141" d="M478.29,170.5125 C549.96,177.2175 663.015,193.005 754.155,229.5 C773.055,237.0675 792.195,249.1425 807.4875,260.1 " fill="none" id="ClinicalChemTechController-to-TestParameterResultMapper" style="stroke:#A80036;stroke-width:0.75;stroke-dasharray:7.0,7.0;"/><polygon fill="#A80036" points="810.69,262.4175,806.9982,256.0196,807.6582,260.2106,803.4672,260.8705,810.69,262.4175" style="stroke:#A80036;stroke-width:0.75;"/><!--MD5=[92544adffb5519912582d4de355d0f99]
link ClinicalChemTechController to TestParameterMapper--><path codeLine="142" d="M478.335,181.1625 C518.775,191.595 569.655,207.51 611.655,229.5 C627.15,237.615 642.6675,249.195 655.245,259.68 " fill="none" id="ClinicalChemTechController-to-TestParameterMapper" style="stroke:#A80036;stroke-width:0.75;stroke-dasharray:7.0,7.0;"/><polygon fill="#A80036" points="658.38,262.32,655.1516,255.6762,655.5124,259.9035,651.2852,260.2644,658.38,262.32" style="stroke:#A80036;stroke-width:0.75;"/><!--MD5=[7f6cf7f175eae0af66201860de5de971]
link Company to TestStore--><path codeLine="143" d="M238.095,466.23 C223.785,494.0925 201.9375,536.6325 187.9125,563.94 " fill="none" id="Company-to-TestStore" style="stroke:#A80036;stroke-width:0.75;"/><polygon fill="#A80036" points="186.075,567.525,191.8306,562.8952,187.7905,564.1904,186.4953,560.1503,186.075,567.525" style="stroke:#A80036;stroke-width:0.75;"/><text fill="#000000" font-family="sans-serif" font-size="9.75" lengthAdjust="spacing" textLength="21" x="206.655" y="537.3713">uses</text><text fill="#000000" font-family="sans-serif" font-size="9.75" lengthAdjust="spacing" textLength="5.25" x="230.146" y="481.9071">1</text><text fill="#000000" font-family="sans-serif" font-size="9.75" lengthAdjust="spacing" textLength="5.25" x="182.6905" y="559.607">1</text><!--MD5=[7e4bc624457760b649895ff2ead938fa]
link Company to Test--><path codeLine="144" d="M243.495,466.2375 C236.07,484.7325 223.5675,507.8625 204.405,520.5 C186.4575,532.335 176.1225,517.9425 156.405,526.5 C133.6575,536.3775 112.38,555.195 98.07,569.8425 " fill="none" id="Company-to-Test" style="stroke:#A80036;stroke-width:0.75;"/><polygon fill="#A80036" points="95.3025,572.7075,102.1474,569.931,97.9055,570.0081,97.8284,565.7661,95.3025,572.7075" style="stroke:#A80036;stroke-width:0.75;"/><text fill="#000000" font-family="sans-serif" font-size="9.75" lengthAdjust="spacing" textLength="37.5" x="157.155" y="537.3713">performs</text><text fill="#000000" font-family="sans-serif" font-size="9.75" lengthAdjust="spacing" textLength="5.25" x="236.4066" y="481.9158">1</text><text fill="#000000" font-family="sans-serif" font-size="9.75" lengthAdjust="spacing" textLength="15" x="82.2275" y="564.9397">1..*</text><!--MD5=[a11230341c8e65219708844feaa40162]
link Company to ClientStore--><path codeLine="145" d="M260.7975,466.23 C268.6725,492.375 280.4325,531.435 288.6525,558.7125 " fill="none" id="Company-to-ClientStore" style="stroke:#A80036;stroke-width:0.75;"/><polygon fill="#A80036" points="289.74,562.3125,290.6639,554.9839,288.6575,558.7221,284.9193,556.7158,289.74,562.3125" style="stroke:#A80036;stroke-width:0.75;"/><text fill="#000000" font-family="sans-serif" font-size="9.75" lengthAdjust="spacing" textLength="21" x="282.405" y="537.3713">uses</text><text fill="#000000" font-family="sans-serif" font-size="9.75" lengthAdjust="spacing" textLength="5.25" x="256.4667" y="481.9071">1</text><text fill="#000000" font-family="sans-serif" font-size="9.75" lengthAdjust="spacing" textLength="5.25" x="282.5235" y="554.3005">1</text><!--MD5=[d25d6c98c8c68b348c843183aefe7e56]
link ClientMapper to ClientStore--><path codeLine="146" d="M460.905,309.2175 C461.3025,357.1875 455.8125,470.1375 400.155,540 C387.87,555.4125 369.6525,566.4525 351.9975,574.1775 " fill="none" id="ClientMapper-to-ClientStore" style="stroke:#A80036;stroke-width:0.75;stroke-dasharray:7.0,7.0;"/><polygon fill="#A80036" points="348.48,575.6775,355.8657,575.7954,351.9307,574.2094,353.5167,570.2743,348.48,575.6775" style="stroke:#A80036;stroke-width:0.75;"/><!--MD5=[6f2bb5e90fbe30ae2ed765a858b518f3]
link TestParameterMapper to TestParameterDTO--><path codeLine="147" d="M707.1525,309.2025 C716.4,318.3375 726.78,329.19 735.405,339.75 C755.6925,364.5825 775.77,395.7225 788.1825,415.95 " fill="none" id="TestParameterMapper-to-TestParameterDTO" style="stroke:#A80036;stroke-width:0.75;stroke-dasharray:7.0,7.0;"/><polygon fill="#A80036" points="790.26,419.3475,789.2842,412.0256,788.2976,416.1519,784.1713,415.1654,790.26,419.3475" style="stroke:#A80036;stroke-width:0.75;"/><!--MD5=[71f56f3f60d9301fa58b8bd133de1255]
link TestParameterResultMapper to TestParameterResultDTO--><path codeLine="148" d="M854.7375,309.015 C872.8575,334.785 902.6475,377.145 922.935,405.99 " fill="none" id="TestParameterResultMapper-to-TestParameterResultDTO" style="stroke:#A80036;stroke-width:0.75;stroke-dasharray:7.0,7.0;"/><polygon fill="#A80036" points="925.11,409.0875,923.6782,401.8409,922.9516,406.0209,918.7717,405.2943,925.11,409.0875" style="stroke:#A80036;stroke-width:0.75;"/><!--MD5=[f6fda4afaf882dd39139bcbf06c50c8c]
link TestMapper to TestDTO--><path codeLine="149" d="M575.4,309.015 C588.795,331.77 609.795,367.455 626.2125,395.3475 " fill="none" id="TestMapper-to-TestDTO" style="stroke:#A80036;stroke-width:0.75;stroke-dasharray:7.0,7.0;"/><polygon fill="#A80036" points="628.1925,398.715,627.3389,391.3778,626.2837,395.4872,622.1744,394.432,628.1925,398.715" style="stroke:#A80036;stroke-width:0.75;"/><!--MD5=[f24c888dadeb846430474fe80a58922b]
link Test to TestParameter--><path codeLine="150" d="M99.6975,609.09 C104.355,612.765 109.4175,616.4475 114.405,619.5 C135.2775,632.2725 143.025,630.5475 164.655,642 C184.1175,652.305 205.1625,665.265 221.595,675.8175 " fill="none" id="Test-to-TestParameter" style="stroke:#A80036;stroke-width:0.75;"/><polygon fill="#A80036" points="224.82,677.895,220.7643,671.7214,221.6656,675.8672,217.5198,676.7684,224.82,677.895" style="stroke:#A80036;stroke-width:0.75;"/><text fill="#000000" font-family="sans-serif" font-size="9.75" lengthAdjust="spacing" textLength="87" x="187.155" y="652.8713">requests analysis of</text><text fill="#000000" font-family="sans-serif" font-size="9.75" lengthAdjust="spacing" textLength="5.25" x="98.6321" y="625.1154">1</text><text fill="#000000" font-family="sans-serif" font-size="9.75" lengthAdjust="spacing" textLength="15" x="201.2138" y="669.8732">1..*</text><!--MD5=[0e00e25ac6b8c14659aaff2cf7e5df08]
link TestParameter to TestParameterResult--><path codeLine="151" d="M257.5275,714.225 C264.78,733.3275 276.39,763.9425 284.1375,784.38 " fill="none" id="TestParameter-to-TestParameterResult" style="stroke:#A80036;stroke-width:0.75;"/><polygon fill="#A80036" points="285.54,788.07,285.9592,780.6953,284.2139,784.5623,280.3469,782.817,285.54,788.07" style="stroke:#A80036;stroke-width:0.75;"/><text fill="#000000" font-family="sans-serif" font-size="9.75" lengthAdjust="spacing" textLength="36.75" x="270.405" y="747.3713">contains</text><text fill="#000000" font-family="sans-serif" font-size="9.75" lengthAdjust="spacing" textLength="5.25" x="253.2019" y="729.9789">1</text><text fill="#000000" font-family="sans-serif" font-size="9.75" lengthAdjust="spacing" textLength="5.25" x="277.9222" y="780.029">1</text><!--MD5=[92e8e476cc9e9004a7125f53a120ec97]
link TestParameter to Parameter--><path codeLine="152" d="M238.2525,714.225 C227.52,729.0375 211.785,750.7725 198.36,769.3125 " fill="none" id="TestParameter-to-Parameter" style="stroke:#A80036;stroke-width:0.75;"/><polygon fill="#A80036" points="196.05,772.5,202.4394,768.7934,198.2499,769.4631,197.5803,765.2736,196.05,772.5" style="stroke:#A80036;stroke-width:0.75;"/><text fill="#000000" font-family="sans-serif" font-size="9.75" lengthAdjust="spacing" textLength="35.25" x="220.905" y="747.3713">refers to</text><text fill="#000000" font-family="sans-serif" font-size="9.75" lengthAdjust="spacing" textLength="3.75" x="231.143" y="729.9789">*</text><text fill="#000000" font-family="sans-serif" font-size="9.75" lengthAdjust="spacing" textLength="5.25" x="194.1899" y="764.3366">1</text><!--MD5=[52200cc2361fa0ac0481dd6ffcdb824b]
link TestParameterResult to ReferenceValue--><path codeLine="153" d="M292.155,824.31 C292.155,842.3775 292.155,871.2525 292.155,894.48 " fill="none" id="TestParameterResult-to-ReferenceValue" style="stroke:#A80036;stroke-width:0.75;"/><polygon fill="#A80036" points="292.155,898.455,295.155,891.705,292.155,894.705,289.155,891.705,292.155,898.455" style="stroke:#A80036;stroke-width:0.75;"/><text fill="#000000" font-family="sans-serif" font-size="9.75" lengthAdjust="spacing" textLength="32.25" x="292.905" y="873.3713">records</text><text fill="#000000" font-family="sans-serif" font-size="9.75" lengthAdjust="spacing" textLength="5.25" x="286.2652" y="840.3281">1</text><text fill="#000000" font-family="sans-serif" font-size="9.75" lengthAdjust="spacing" textLength="5.25" x="286.4866" y="890.2844">1</text><!--MD5=[3994f36c72829dbcddd1cf7021dddf61]
link Test to Client--><path codeLine="154" d="M85.9275,609.075 C92.16,626.985 101.8875,654.9675 108.5625,674.1525 " fill="none" id="Test-to-Client" style="stroke:#A80036;stroke-width:0.75;"/><polygon fill="#A80036" points="109.86,677.8725,110.4786,670.5118,108.6293,674.3302,104.8109,672.4809,109.86,677.8725" style="stroke:#A80036;stroke-width:0.75;"/><text fill="#000000" font-family="sans-serif" font-size="9.75" lengthAdjust="spacing" textLength="56.25" x="101.655" y="652.8713">requested by</text><text fill="#000000" font-family="sans-serif" font-size="9.75" lengthAdjust="spacing" textLength="15" x="70.5674" y="625.0968">1..*</text><text fill="#000000" font-family="sans-serif" font-size="9.75" lengthAdjust="spacing" textLength="5.25" x="102.3883" y="669.8449">1</text><!--MD5=[be3b39c7463182027323f9c0e531e936]
link TestDTO to Test--><path codeLine="155" d="M622.0275,476.28 C607.3875,492.7725 588.1275,510.5625 566.655,520.5 C475.05,562.8825 207.945,524.595 114.405,562.5 C109.635,564.435 105,567.255 100.755,570.36 " fill="none" id="TestDTO-to-Test" style="stroke:#A80036;stroke-width:0.75;stroke-dasharray:7.0,7.0;"/><polygon fill="#A80036" points="97.59,572.79,104.7727,571.0661,100.5667,570.5093,101.1235,566.3033,97.59,572.79" style="stroke:#A80036;stroke-width:0.75;"/><!--MD5=[37fbe30a29f6951dbe302e73115039a8]
link TestParameterDTO to TestParameter--><path codeLine="156" d="M790.83,455.82 C779.6175,474.2775 759.66,503.0775 735.405,520.5 C594.4575,621.72 388.785,669.9 297.51,687.285 " fill="none" id="TestParameterDTO-to-TestParameter" style="stroke:#A80036;stroke-width:0.75;stroke-dasharray:7.0,7.0;"/><polygon fill="#A80036" points="293.7825,687.99,300.9721,689.6846,297.4673,687.2937,299.8581,683.7889,293.7825,687.99" style="stroke:#A80036;stroke-width:0.75;"/><!--MD5=[af3939234646809cec66923e43961aa6]
link ClientMapper to ClientDTO--><path codeLine="157" d="M468.1275,309.015 C473.775,324.9675 481.68,347.28 489.3,368.8125 " fill="none" id="ClientMapper-to-ClientDTO" style="stroke:#A80036;stroke-width:0.75;stroke-dasharray:7.0,7.0;"/><polygon fill="#A80036" points="490.62,372.54,491.1919,365.1755,489.3669,369.0056,485.5368,367.1805,490.62,372.54" style="stroke:#A80036;stroke-width:0.75;"/><!--MD5=[681861d3e5936b0aefbcfdb495b78abc]
link ClientDTO to Client--><path codeLine="158" d="M473.58,501.03 C446.2275,539.73 406.8225,587.8725 361.905,619.5 C329.6925,642.18 318.21,642.8325 280.905,655.5 C255.6975,664.0575 183.885,680.3325 143.805,689.175 " fill="none" id="ClientDTO-to-Client" style="stroke:#A80036;stroke-width:0.75;stroke-dasharray:7.0,7.0;"/><polygon fill="#A80036" points="140.0325,690.0075,147.2726,691.4718,143.6932,689.194,145.971,685.6147,140.0325,690.0075" style="stroke:#A80036;stroke-width:0.75;"/><!--MD5=[43f9b3bbdff847807d6be11cdde38324]
link TestParameterResultDTO to TestParameterResult--><path codeLine="159" d="M922.245,466.26 C907.5,483.3825 887.0775,504.945 865.905,520.5 C690.63,649.29 448.335,747.6225 343.695,786.8775 " fill="none" id="TestParameterResultDTO-to-TestParameterResult" style="stroke:#A80036;stroke-width:0.75;stroke-dasharray:7.0,7.0;"/><polygon fill="#A80036" points="340.0275,788.25,347.4015,788.6815,343.5374,786.9298,345.2891,783.0656,340.0275,788.25" style="stroke:#A80036;stroke-width:0.75;"/><!--MD5=[83006581004d7b600d2cf15ad544262e]
@startuml
'https://plantuml.com/class-diagram


skinparam classAttributeIconSize 0

package "UI"{
class ClinicalChemTechUI
}
package "Controller" {
class ClinicalChemTechController
}
package "Domain"{
class Company
class ClientStore
interface SortingAlgorithms
class TestStore
class Client
class Test
class Parameter
class TestParameterResult
class TestParameter
class ReferenceValue
}

package "Mapper" {
class ClientMapper
class TestMapper
class TestParameterMapper
class TestParameterResultMapper
}

package "DTO" {
class ClientDTO
class TestDTO
class TestParameterResultDTO
class TestParameterDTO
}



class ClinicalChemTechController{
+getClients()
+getOrderingAlgorithms(clientsDTO)
+getTestsForClientX(tin)
}

class Company{
+getClientStore()
+getTestStore()
}

class ReferenceValue{
-double minimum
-oduble maximum
-String metric
}

class Parameter{
-String code
-String shortName
-String description
}

class ClientStore{
+getClientList()
+getOrderingAlgorithms()
}

class ClientMapper{
+toDto()
}

class SortingAlgorithms{
+orderClientsByTin(clientsDTO)
+orderClientsByName(clientsDTO)
}

class TestStore{
+getTestsByClient(test)
}

class TestMapper{
+toDto()
}


class ClientDTO{
-String ccn
-long nhs
-String birth
-String sex
-long tif
-String email
-String name
-long phoneNumber
-String address
}

class TestParameterMapper{
+toDto()
}

class Client{

}

class TestDTO{
-String code
-List<String> testParameterResultList
-Date date
-Date validationDate
}
class Test{
}

class TestParameterResult{
}

class TestParameterResultDTO{
-String metric
-double value
}

class TestParameter{
}

class TestParameterDTO{
}

class TestParameterResultMapper{
+toDto()
}

ClinicalChemTechUI ..> ClinicalChemTechController
ClinicalChemTechController ..> Company
ClinicalChemTechController ..> ClientStore
ClinicalChemTechController ..> ClientMapper
ClinicalChemTechController ..> TestStore
ClinicalChemTechController ..> TestMapper
ClinicalChemTechController ..> Test
ClinicalChemTechController ..> TestParameterResultMapper
ClinicalChemTechController ..> TestParameterMapper
Company "1" - -> "1" TestStore: uses
Company "1" - -> "1..*" Test: performs
Company "1" - -> "1" ClientStore: uses
ClientMapper ..> ClientStore
TestParameterMapper ..> TestParameterDTO
TestParameterResultMapper ..> TestParameterResultDTO
TestMapper ..> TestDTO
Test "1" - -> "1..*" TestParameter: requests analysis of
TestParameter "1" - -> "1"  TestParameterResult: contains
TestParameter "*" - -> "1" Parameter: refers to
TestParameterResult "1" - -> "1" ReferenceValue: records
Test "1..*" - -> "1" Client: requested by
TestDTO ..> Test
TestParameterDTO ..> TestParameter
ClientMapper ..> ClientDTO
ClientDTO ..> Client
TestParameterResultDTO ..> TestParameterResult





@enduml

@startuml


skinparam classAttributeIconSize 0

package "UI"{
class ClinicalChemTechUI
}
package "Controller" {
class ClinicalChemTechController
}
package "Domain"{
class Company
class ClientStore
interface SortingAlgorithms
class TestStore
class Client
class Test
class Parameter
class TestParameterResult
class TestParameter
class ReferenceValue
}

package "Mapper" {
class ClientMapper
class TestMapper
class TestParameterMapper
class TestParameterResultMapper
}

package "DTO" {
class ClientDTO
class TestDTO
class TestParameterResultDTO
class TestParameterDTO
}



class ClinicalChemTechController{
+getClients()
+getOrderingAlgorithms(clientsDTO)
+getTestsForClientX(tin)
}

class Company{
+getClientStore()
+getTestStore()
}

class ReferenceValue{
-double minimum
-oduble maximum
-String metric
}

class Parameter{
-String code
-String shortName
-String description
}

class ClientStore{
+getClientList()
+getOrderingAlgorithms()
}

class ClientMapper{
+toDto()
}

class SortingAlgorithms{
+orderClientsByTin(clientsDTO)
+orderClientsByName(clientsDTO)
}

class TestStore{
+getTestsByClient(test)
}

class TestMapper{
+toDto()
}


class ClientDTO{
-String ccn
-long nhs
-String birth
-String sex
-long tif
-String email
-String name
-long phoneNumber
-String address
}

class TestParameterMapper{
+toDto()
}

class Client{

}

class TestDTO{
-String code
-List<String> testParameterResultList
-Date date
-Date validationDate
}
class Test{
}

class TestParameterResult{
}

class TestParameterResultDTO{
-String metric
-double value
}

class TestParameter{
}

class TestParameterDTO{
}

class TestParameterResultMapper{
+toDto()
}

ClinicalChemTechUI ..> ClinicalChemTechController
ClinicalChemTechController ..> Company
ClinicalChemTechController ..> ClientStore
ClinicalChemTechController ..> ClientMapper
ClinicalChemTechController ..> TestStore
ClinicalChemTechController ..> TestMapper
ClinicalChemTechController ..> Test
ClinicalChemTechController ..> TestParameterResultMapper
ClinicalChemTechController ..> TestParameterMapper
Company "1" - -> "1" TestStore: uses
Company "1" - -> "1..*" Test: performs
Company "1" - -> "1" ClientStore: uses
ClientMapper ..> ClientStore
TestParameterMapper ..> TestParameterDTO
TestParameterResultMapper ..> TestParameterResultDTO
TestMapper ..> TestDTO
Test "1" - -> "1..*" TestParameter: requests analysis of
TestParameter "1" - -> "1"  TestParameterResult: contains
TestParameter "*" - -> "1" Parameter: refers to
TestParameterResult "1" - -> "1" ReferenceValue: records
Test "1..*" - -> "1" Client: requested by
TestDTO ..> Test
TestParameterDTO ..> TestParameter
ClientMapper ..> ClientDTO
ClientDTO ..> Client
TestParameterResultDTO ..> TestParameterResult





@enduml

PlantUML version 1.2021.4(Sun Apr 04 09:49:39 BST 2021)
(GPL source distribution)
Java Runtime: OpenJDK Runtime Environment
JVM: Dynamic Code Evolution 64-Bit Server VM
Default Encoding: Cp1252
Language: pt
Country: PT
--></g></svg>