<?xml version="1.0" encoding="UTF-8" standalone="no"?><svg xmlns="http://www.w3.org/2000/svg" xmlns:xlink="http://www.w3.org/1999/xlink" contentScriptType="application/ecmascript" contentStyleType="text/css" height="970px" preserveAspectRatio="none" style="width:1805px;height:970px;background:#FFFFFF;" version="1.1" viewBox="0 0 1805 970" width="1805px" zoomAndPan="magnify"><defs><filter height="300%" id="f1y0kquwjm1wfi" width="300%" x="-1" y="-1"><feGaussianBlur result="blurOut" stdDeviation="2.0"/><feColorMatrix in="blurOut" result="blurOut2" type="matrix" values="0 0 0 0 0 0 0 0 0 0 0 0 0 0 0 0 0 0 .4 0"/><feOffset dx="4.0" dy="4.0" in="blurOut2" result="blurOut3"/><feBlend in="SourceGraphic" in2="blurOut3" mode="normal"/></filter></defs><g><rect fill="#FFFFFF" filter="url(#f1y0kquwjm1wfi)" height="769.8125" style="stroke:#A80036;stroke-width:1.0;" width="10" x="68" y="98.2969"/><rect fill="#FFFFFF" filter="url(#f1y0kquwjm1wfi)" height="29.1328" style="stroke:#A80036;stroke-width:1.0;" width="10" x="564" y="119.4297"/><rect fill="#FFFFFF" filter="url(#f1y0kquwjm1wfi)" height="185.9609" style="stroke:#A80036;stroke-width:1.0;" width="10" x="564" y="177.6953"/><rect fill="#FFFFFF" filter="url(#f1y0kquwjm1wfi)" height="274.5234" style="stroke:#A80036;stroke-width:1.0;" width="10" x="564" y="392.7891"/><rect fill="#FFFFFF" filter="url(#f1y0kquwjm1wfi)" height="171.6641" style="stroke:#A80036;stroke-width:1.0;" width="10" x="564" y="696.4453"/><rect fill="#FFFFFF" filter="url(#f1y0kquwjm1wfi)" height="156.8281" style="stroke:#A80036;stroke-width:1.0;" width="10" x="923" y="206.8281"/><rect fill="#FFFFFF" filter="url(#f1y0kquwjm1wfi)" height="230.2578" style="stroke:#A80036;stroke-width:1.0;" width="10" x="923" y="437.0547"/><rect fill="#FFFFFF" filter="url(#f1y0kquwjm1wfi)" height="106.3984" style="stroke:#A80036;stroke-width:1.0;" width="10" x="923" y="725.5781"/><rect fill="#FFFFFF" filter="url(#f1y0kquwjm1wfi)" height="127.6953" style="stroke:#A80036;stroke-width:1.0;" width="10" x="1092" y="235.9609"/><rect fill="#FFFFFF" filter="url(#f1y0kquwjm1wfi)" height="382.8906" style="stroke:#A80036;stroke-width:1.0;" width="10" x="1301" y="98.2969"/><rect fill="#FFFFFF" filter="url(#f1y0kquwjm1wfi)" height="44.2656" style="stroke:#A80036;stroke-width:1.0;" width="10" x="1301" y="517.4531"/><rect fill="#FFFFFF" filter="url(#f1y0kquwjm1wfi)" height="30" style="stroke:#A80036;stroke-width:1.0;" width="10" x="1301" y="608.1797"/><rect fill="#FFFFFF" filter="url(#f1y0kquwjm1wfi)" height="113.3984" style="stroke:#A80036;stroke-width:1.0;" width="10" x="1405" y="754.7109"/><rect fill="#FFFFFF" filter="url(#f1y0kquwjm1wfi)" height="148.7969" style="stroke:#000000;stroke-width:2.0;" width="1351.5" x="10" y="325.3906"/><line style="stroke:#A80036;stroke-width:1.0;stroke-dasharray:5.0,5.0;" x1="73" x2="73" y1="88.2969" y2="886.1094"/><line style="stroke:#A80036;stroke-width:1.0;stroke-dasharray:5.0,5.0;" x1="568.5" x2="568.5" y1="88.2969" y2="886.1094"/><line style="stroke:#A80036;stroke-width:1.0;stroke-dasharray:5.0,5.0;" x1="927.5" x2="927.5" y1="88.2969" y2="886.1094"/><line style="stroke:#A80036;stroke-width:1.0;stroke-dasharray:5.0,5.0;" x1="1096.5" x2="1096.5" y1="88.2969" y2="886.1094"/><line style="stroke:#A80036;stroke-width:1.0;stroke-dasharray:5.0,5.0;" x1="1305.5" x2="1305.5" y1="88.2969" y2="886.1094"/><line style="stroke:#A80036;stroke-width:1.0;stroke-dasharray:5.0,5.0;" x1="1409.5" x2="1409.5" y1="88.2969" y2="886.1094"/><line style="stroke:#A80036;stroke-width:1.0;stroke-dasharray:5.0,5.0;" x1="1596.5" x2="1596.5" y1="276.6094" y2="886.1094"/><line style="stroke:#A80036;stroke-width:1.0;stroke-dasharray:5.0,5.0;" x1="1746.5" x2="1746.5" y1="566.25" y2="886.1094"/><text fill="#000000" font-family="sans-serif" font-size="14" lengthAdjust="spacing" textLength="100" x="20" y="84.9951">Administrator</text><ellipse cx="73" cy="15" fill="#FEFECE" filter="url(#f1y0kquwjm1wfi)" rx="8" ry="8" style="stroke:#A80036;stroke-width:2.0;"/><path d="M73,23 L73,50 M60,31 L86,31 M73,50 L60,65 M73,50 L86,65 " fill="none" filter="url(#f1y0kquwjm1wfi)" style="stroke:#A80036;stroke-width:2.0;"/><text fill="#000000" font-family="sans-serif" font-size="14" lengthAdjust="spacing" textLength="100" x="20" y="898.1045">Administrator</text><ellipse cx="73" cy="911.4063" fill="#FEFECE" filter="url(#f1y0kquwjm1wfi)" rx="8" ry="8" style="stroke:#A80036;stroke-width:2.0;"/><path d="M73,919.4063 L73,946.4063 M60,927.4063 L86,927.4063 M73,946.4063 L60,961.4063 M73,946.4063 L86,961.4063 " fill="none" filter="url(#f1y0kquwjm1wfi)" style="stroke:#A80036;stroke-width:2.0;"/><rect fill="#FEFECE" filter="url(#f1y0kquwjm1wfi)" height="30.2969" style="stroke:#A80036;stroke-width:1.5;" width="161" x="486.5" y="53"/><text fill="#000000" font-family="sans-serif" font-size="14" lengthAdjust="spacing" textLength="147" x="493.5" y="72.9951">:RegistLaboratory UI</text><rect fill="#FEFECE" filter="url(#f1y0kquwjm1wfi)" height="30.2969" style="stroke:#A80036;stroke-width:1.5;" width="161" x="486.5" y="885.1094"/><text fill="#000000" font-family="sans-serif" font-size="14" lengthAdjust="spacing" textLength="147" x="493.5" y="905.1045">:RegistLaboratory UI</text><rect fill="#FEFECE" filter="url(#f1y0kquwjm1wfi)" height="30.2969" style="stroke:#A80036;stroke-width:1.5;" width="223" x="814.5" y="53"/><text fill="#000000" font-family="sans-serif" font-size="14" lengthAdjust="spacing" textLength="209" x="821.5" y="72.9951">:RegistLaboratoryCrontroller</text><rect fill="#FEFECE" filter="url(#f1y0kquwjm1wfi)" height="30.2969" style="stroke:#A80036;stroke-width:1.5;" width="223" x="814.5" y="885.1094"/><text fill="#000000" font-family="sans-serif" font-size="14" lengthAdjust="spacing" textLength="209" x="821.5" y="905.1045">:RegistLaboratoryCrontroller</text><rect fill="#FEFECE" filter="url(#f1y0kquwjm1wfi)" height="30.2969" style="stroke:#A80036;stroke-width:1.5;" width="87" x="1051.5" y="53"/><text fill="#000000" font-family="sans-serif" font-size="14" lengthAdjust="spacing" textLength="73" x="1058.5" y="72.9951">:Company</text><rect fill="#FEFECE" filter="url(#f1y0kquwjm1wfi)" height="30.2969" style="stroke:#A80036;stroke-width:1.5;" width="87" x="1051.5" y="885.1094"/><text fill="#000000" font-family="sans-serif" font-size="14" lengthAdjust="spacing" textLength="73" x="1058.5" y="905.1045">:Company</text><rect fill="#FEFECE" filter="url(#f1y0kquwjm1wfi)" height="30.2969" style="stroke:#A80036;stroke-width:1.5;" width="87" x="1260.5" y="53"/><text fill="#000000" font-family="sans-serif" font-size="14" lengthAdjust="spacing" textLength="73" x="1267.5" y="72.9951">:TestType</text><rect fill="#FEFECE" filter="url(#f1y0kquwjm1wfi)" height="30.2969" style="stroke:#A80036;stroke-width:1.5;" width="87" x="1260.5" y="885.1094"/><text fill="#000000" font-family="sans-serif" font-size="14" lengthAdjust="spacing" textLength="73" x="1267.5" y="905.1045">:TestType</text><rect fill="#FEFECE" filter="url(#f1y0kquwjm1wfi)" height="30.2969" style="stroke:#A80036;stroke-width:1.5;" width="93" x="1361.5" y="53"/><text fill="#000000" font-family="sans-serif" font-size="14" lengthAdjust="spacing" textLength="79" x="1368.5" y="72.9951">Laboratory</text><rect fill="#FEFECE" filter="url(#f1y0kquwjm1wfi)" height="30.2969" style="stroke:#A80036;stroke-width:1.5;" width="93" x="1361.5" y="885.1094"/><text fill="#000000" font-family="sans-serif" font-size="14" lengthAdjust="spacing" textLength="79" x="1368.5" y="905.1045">Laboratory</text><rect fill="#FEFECE" filter="url(#f1y0kquwjm1wfi)" height="30.2969" style="stroke:#A80036;stroke-width:1.5;" width="179" x="1505.5" y="885.1094"/><text fill="#000000" font-family="sans-serif" font-size="14" lengthAdjust="spacing" textLength="165" x="1512.5" y="905.1045">listTT :List&lt;TestType&gt;</text><rect fill="#FEFECE" filter="url(#f1y0kquwjm1wfi)" height="46.5938" style="stroke:#A80036;stroke-width:1.5;" width="93" x="1698.5" y="885.1094"/><text fill="#000000" font-family="sans-serif" font-size="14" lengthAdjust="spacing" textLength="17" x="1734.5" y="905.1045">cl:</text><text fill="#000000" font-family="sans-serif" font-size="14" lengthAdjust="spacing" textLength="79" x="1705.5" y="921.4014">Laboratory</text><rect fill="#FFFFFF" filter="url(#f1y0kquwjm1wfi)" height="769.8125" style="stroke:#A80036;stroke-width:1.0;" width="10" x="68" y="98.2969"/><rect fill="#FFFFFF" filter="url(#f1y0kquwjm1wfi)" height="29.1328" style="stroke:#A80036;stroke-width:1.0;" width="10" x="564" y="119.4297"/><rect fill="#FFFFFF" filter="url(#f1y0kquwjm1wfi)" height="185.9609" style="stroke:#A80036;stroke-width:1.0;" width="10" x="564" y="177.6953"/><rect fill="#FFFFFF" filter="url(#f1y0kquwjm1wfi)" height="274.5234" style="stroke:#A80036;stroke-width:1.0;" width="10" x="564" y="392.7891"/><rect fill="#FFFFFF" filter="url(#f1y0kquwjm1wfi)" height="171.6641" style="stroke:#A80036;stroke-width:1.0;" width="10" x="564" y="696.4453"/><rect fill="#FFFFFF" filter="url(#f1y0kquwjm1wfi)" height="156.8281" style="stroke:#A80036;stroke-width:1.0;" width="10" x="923" y="206.8281"/><rect fill="#FFFFFF" filter="url(#f1y0kquwjm1wfi)" height="230.2578" style="stroke:#A80036;stroke-width:1.0;" width="10" x="923" y="437.0547"/><rect fill="#FFFFFF" filter="url(#f1y0kquwjm1wfi)" height="106.3984" style="stroke:#A80036;stroke-width:1.0;" width="10" x="923" y="725.5781"/><rect fill="#FFFFFF" filter="url(#f1y0kquwjm1wfi)" height="127.6953" style="stroke:#A80036;stroke-width:1.0;" width="10" x="1092" y="235.9609"/><rect fill="#FFFFFF" filter="url(#f1y0kquwjm1wfi)" height="382.8906" style="stroke:#A80036;stroke-width:1.0;" width="10" x="1301" y="98.2969"/><rect fill="#FFFFFF" filter="url(#f1y0kquwjm1wfi)" height="44.2656" style="stroke:#A80036;stroke-width:1.0;" width="10" x="1301" y="517.4531"/><rect fill="#FFFFFF" filter="url(#f1y0kquwjm1wfi)" height="30" style="stroke:#A80036;stroke-width:1.0;" width="10" x="1301" y="608.1797"/><rect fill="#FFFFFF" filter="url(#f1y0kquwjm1wfi)" height="113.3984" style="stroke:#A80036;stroke-width:1.0;" width="10" x="1405" y="754.7109"/><polygon fill="#A80036" points="552,115.4297,562,119.4297,552,123.4297,556,119.4297" style="stroke:#A80036;stroke-width:1.0;"/><line style="stroke:#A80036;stroke-width:1.0;" x1="78" x2="558" y1="119.4297" y2="119.4297"/><text fill="#000000" font-family="sans-serif" font-size="13" font-weight="bold" lengthAdjust="spacing" textLength="9" x="85" y="114.3638">1</text><text fill="#000000" font-family="sans-serif" font-size="13" lengthAdjust="spacing" textLength="162" x="98" y="114.3638">register a new laboratory</text><polygon fill="#A80036" points="89,144.5625,79,148.5625,89,152.5625,85,148.5625" style="stroke:#A80036;stroke-width:1.0;"/><line style="stroke:#A80036;stroke-width:1.0;stroke-dasharray:2.0,2.0;" x1="83" x2="568" y1="148.5625" y2="148.5625"/><text fill="#000000" font-family="sans-serif" font-size="13" font-weight="bold" lengthAdjust="spacing" textLength="9" x="95" y="143.4966">2</text><text fill="#000000" font-family="sans-serif" font-size="13" lengthAdjust="spacing" textLength="449" x="108" y="143.4966">request data(laboratoryID, name, address, phoneNumber, tinNumber)</text><polygon fill="#A80036" points="552,173.6953,562,177.6953,552,181.6953,556,177.6953" style="stroke:#A80036;stroke-width:1.0;"/><line style="stroke:#A80036;stroke-width:1.0;" x1="78" x2="558" y1="177.6953" y2="177.6953"/><text fill="#000000" font-family="sans-serif" font-size="13" font-weight="bold" lengthAdjust="spacing" textLength="8" x="85" y="172.6294">3</text><text fill="#000000" font-family="sans-serif" font-size="13" lengthAdjust="spacing" textLength="138" x="97" y="172.6294">types requested data</text><polygon fill="#A80036" points="911,202.8281,921,206.8281,911,210.8281,915,206.8281" style="stroke:#A80036;stroke-width:1.0;"/><line style="stroke:#A80036;stroke-width:1.0;stroke-dasharray:2.0,2.0;" x1="574" x2="917" y1="206.8281" y2="206.8281"/><text fill="#000000" font-family="sans-serif" font-size="13" font-weight="bold" lengthAdjust="spacing" textLength="9" x="581" y="201.7622">4</text><text fill="#000000" font-family="sans-serif" font-size="13" lengthAdjust="spacing" textLength="114" x="594" y="201.7622">m=getTestType()</text><polygon fill="#A80036" points="1080,231.9609,1090,235.9609,1080,239.9609,1084,235.9609" style="stroke:#A80036;stroke-width:1.0;"/><line style="stroke:#A80036;stroke-width:1.0;stroke-dasharray:2.0,2.0;" x1="933" x2="1086" y1="235.9609" y2="235.9609"/><text fill="#000000" font-family="sans-serif" font-size="13" font-weight="bold" lengthAdjust="spacing" textLength="9" x="940" y="230.895">5</text><text fill="#000000" font-family="sans-serif" font-size="13" lengthAdjust="spacing" textLength="114" x="953" y="230.895">m=getTestType()</text><polygon fill="#A80036" points="1493.5,261.0938,1503.5,265.0938,1493.5,269.0938,1497.5,265.0938" style="stroke:#A80036;stroke-width:1.0;"/><line style="stroke:#A80036;stroke-width:1.0;stroke-dasharray:2.0,2.0;" x1="1102" x2="1499.5" y1="265.0938" y2="265.0938"/><text fill="#000000" font-family="sans-serif" font-size="13" font-weight="bold" lengthAdjust="spacing" textLength="9" x="1109" y="260.0278">6</text><text fill="#000000" font-family="sans-serif" font-size="13" lengthAdjust="spacing" textLength="51" x="1122" y="260.0278">create()</text><rect fill="#FEFECE" filter="url(#f1y0kquwjm1wfi)" height="30.2969" style="stroke:#A80036;stroke-width:1.5;" width="179" x="1505.5" y="243.9609"/><text fill="#000000" font-family="sans-serif" font-size="14" lengthAdjust="spacing" textLength="165" x="1512.5" y="263.9561">listTT :List&lt;TestType&gt;</text><polygon fill="#A80036" points="1113,306.3906,1103,310.3906,1113,314.3906,1109,310.3906" style="stroke:#A80036;stroke-width:1.0;"/><line style="stroke:#A80036;stroke-width:1.0;stroke-dasharray:2.0,2.0;" x1="1107" x2="1596" y1="310.3906" y2="310.3906"/><text fill="#000000" font-family="sans-serif" font-size="13" font-weight="bold" lengthAdjust="spacing" textLength="9" x="1119" y="305.3247">7</text><text fill="#000000" font-family="sans-serif" font-size="13" lengthAdjust="spacing" textLength="34" x="1132" y="305.3247">listTT</text><path d="M10,325.3906 L88,325.3906 L88,332.3906 L78,342.3906 L10,342.3906 L10,325.3906 " fill="#EEEEEE" style="stroke:#000000;stroke-width:1.0;"/><rect fill="none" height="148.7969" style="stroke:#000000;stroke-width:2.0;" width="1351.5" x="10" y="325.3906"/><text fill="#000000" font-family="sans-serif" font-size="13" font-weight="bold" lengthAdjust="spacing" textLength="33" x="25" y="338.4575">loop</text><polygon fill="#A80036" points="89,359.6563,79,363.6563,89,367.6563,85,363.6563" style="stroke:#A80036;stroke-width:1.0;"/><line style="stroke:#A80036;stroke-width:1.0;stroke-dasharray:2.0,2.0;" x1="83" x2="568" y1="363.6563" y2="363.6563"/><text fill="#000000" font-family="sans-serif" font-size="13" font-weight="bold" lengthAdjust="spacing" textLength="9" x="95" y="358.5903">8</text><text fill="#000000" font-family="sans-serif" font-size="13" lengthAdjust="spacing" textLength="277" x="108" y="358.5903">shows the data and request a confirmation</text><polygon fill="#A80036" points="552,388.7891,562,392.7891,552,396.7891,556,392.7891" style="stroke:#A80036;stroke-width:1.0;"/><line style="stroke:#A80036;stroke-width:1.0;stroke-dasharray:2.0,2.0;" x1="78" x2="558" y1="392.7891" y2="392.7891"/><text fill="#000000" font-family="sans-serif" font-size="13" font-weight="bold" lengthAdjust="spacing" textLength="9" x="85" y="387.7231">9</text><text fill="#000000" font-family="sans-serif" font-size="13" lengthAdjust="spacing" textLength="136" x="98" y="387.7231">selects a type of test</text><polygon fill="#A80036" points="911,433.0547,921,437.0547,911,441.0547,915,437.0547" style="stroke:#A80036;stroke-width:1.0;"/><line style="stroke:#A80036;stroke-width:1.0;stroke-dasharray:2.0,2.0;" x1="574" x2="917" y1="437.0547" y2="437.0547"/><text fill="#000000" font-family="sans-serif" font-size="13" font-weight="bold" lengthAdjust="spacing" textLength="19" x="581" y="424.4224">10</text><text fill="#000000" font-family="sans-serif" font-size="13" lengthAdjust="spacing" textLength="303" x="604" y="416.856">createLaboratory(laboratoryID, name, address,</text><text fill="#000000" font-family="sans-serif" font-size="13" lengthAdjust="spacing" textLength="236" x="608" y="431.9888">phoneNumber, tinNumber, testType)</text><polygon fill="#A80036" points="1289,462.1875,1299,466.1875,1289,470.1875,1293,466.1875" style="stroke:#A80036;stroke-width:1.0;"/><line style="stroke:#A80036;stroke-width:1.0;stroke-dasharray:2.0,2.0;" x1="933" x2="1295" y1="466.1875" y2="466.1875"/><text fill="#000000" font-family="sans-serif" font-size="13" font-weight="bold" lengthAdjust="spacing" textLength="18" x="940" y="461.1216">11</text><text fill="#000000" font-family="sans-serif" font-size="13" lengthAdjust="spacing" textLength="206" x="962" y="461.1216">test=getTestTypeByCode(code)</text><polygon fill="#A80036" points="1289,513.4531,1299,517.4531,1289,521.4531,1293,517.4531" style="stroke:#A80036;stroke-width:1.0;"/><line style="stroke:#A80036;stroke-width:1.0;stroke-dasharray:2.0,2.0;" x1="933" x2="1295" y1="517.4531" y2="517.4531"/><text fill="#000000" font-family="sans-serif" font-size="13" font-weight="bold" lengthAdjust="spacing" textLength="18" x="940" y="504.8208">12</text><text fill="#000000" font-family="sans-serif" font-size="13" lengthAdjust="spacing" textLength="323" x="962" y="497.2544">cl=createLaboratory(laboratoryID, name, address,</text><text fill="#000000" font-family="sans-serif" font-size="13" lengthAdjust="spacing" textLength="236" x="966" y="512.3872">phoneNumber, tinNumber, testType)</text><polygon fill="#A80036" points="1686.5,557.7188,1696.5,561.7188,1686.5,565.7188,1690.5,561.7188" style="stroke:#A80036;stroke-width:1.0;"/><line style="stroke:#A80036;stroke-width:1.0;stroke-dasharray:2.0,2.0;" x1="1306" x2="1692.5" y1="561.7188" y2="561.7188"/><text fill="#000000" font-family="sans-serif" font-size="13" font-weight="bold" lengthAdjust="spacing" textLength="17" x="1313" y="549.0864">13</text><text fill="#000000" font-family="sans-serif" font-size="13" lengthAdjust="spacing" textLength="233" x="1334" y="541.52">create(laboratoryID, name, address,</text><text fill="#000000" font-family="sans-serif" font-size="13" lengthAdjust="spacing" textLength="204" x="1338" y="556.6528">phoneNumber, tinNumber, test)</text><rect fill="#FEFECE" filter="url(#f1y0kquwjm1wfi)" height="46.5938" style="stroke:#A80036;stroke-width:1.5;" width="93" x="1698.5" y="525.4531"/><text fill="#000000" font-family="sans-serif" font-size="14" lengthAdjust="spacing" textLength="17" x="1734.5" y="545.4482">cl:</text><text fill="#000000" font-family="sans-serif" font-size="14" lengthAdjust="spacing" textLength="79" x="1705.5" y="561.7451">Laboratory</text><polygon fill="#A80036" points="1289,604.1797,1299,608.1797,1289,612.1797,1293,608.1797" style="stroke:#A80036;stroke-width:1.0;"/><line style="stroke:#A80036;stroke-width:1.0;stroke-dasharray:2.0,2.0;" x1="933" x2="1295" y1="608.1797" y2="608.1797"/><text fill="#000000" font-family="sans-serif" font-size="13" font-weight="bold" lengthAdjust="spacing" textLength="18" x="940" y="603.1138">14</text><text fill="#000000" font-family="sans-serif" font-size="13" lengthAdjust="spacing" textLength="141" x="962" y="603.1138">validateLaboratory(cl)</text><polygon fill="#A80036" points="89,663.3125,79,667.3125,89,671.3125,85,667.3125" style="stroke:#A80036;stroke-width:1.0;"/><line style="stroke:#A80036;stroke-width:1.0;stroke-dasharray:2.0,2.0;" x1="83" x2="568" y1="667.3125" y2="667.3125"/><text fill="#000000" font-family="sans-serif" font-size="13" font-weight="bold" lengthAdjust="spacing" textLength="18" x="95" y="662.2466">15</text><text fill="#000000" font-family="sans-serif" font-size="13" lengthAdjust="spacing" textLength="277" x="117" y="662.2466">shows all data and requests a confirmation</text><polygon fill="#A80036" points="552,692.4453,562,696.4453,552,700.4453,556,696.4453" style="stroke:#A80036;stroke-width:1.0;"/><line style="stroke:#A80036;stroke-width:1.0;stroke-dasharray:2.0,2.0;" x1="78" x2="558" y1="696.4453" y2="696.4453"/><text fill="#000000" font-family="sans-serif" font-size="13" font-weight="bold" lengthAdjust="spacing" textLength="18" x="85" y="691.3794">16</text><text fill="#000000" font-family="sans-serif" font-size="13" lengthAdjust="spacing" textLength="107" x="107" y="691.3794">confirms all data</text><polygon fill="#A80036" points="911,721.5781,921,725.5781,911,729.5781,915,725.5781" style="stroke:#A80036;stroke-width:1.0;"/><line style="stroke:#A80036;stroke-width:1.0;stroke-dasharray:2.0,2.0;" x1="574" x2="917" y1="725.5781" y2="725.5781"/><text fill="#000000" font-family="sans-serif" font-size="13" font-weight="bold" lengthAdjust="spacing" textLength="18" x="581" y="720.5122">17</text><text fill="#000000" font-family="sans-serif" font-size="13" lengthAdjust="spacing" textLength="111" x="603" y="720.5122">saveLaboratory()</text><polygon fill="#A80036" points="1393,750.7109,1403,754.7109,1393,758.7109,1397,754.7109" style="stroke:#A80036;stroke-width:1.0;"/><line style="stroke:#A80036;stroke-width:1.0;stroke-dasharray:2.0,2.0;" x1="933" x2="1399" y1="754.7109" y2="754.7109"/><text fill="#000000" font-family="sans-serif" font-size="13" font-weight="bold" lengthAdjust="spacing" textLength="18" x="940" y="749.645">18</text><text fill="#000000" font-family="sans-serif" font-size="13" lengthAdjust="spacing" textLength="121" x="962" y="749.645">saveLaboratory(cl)</text><line style="stroke:#A80036;stroke-width:1.0;stroke-dasharray:2.0,2.0;" x1="1415" x2="1457" y1="783.8438" y2="783.8438"/><line style="stroke:#A80036;stroke-width:1.0;stroke-dasharray:2.0,2.0;" x1="1457" x2="1457" y1="783.8438" y2="796.8438"/><line style="stroke:#A80036;stroke-width:1.0;stroke-dasharray:2.0,2.0;" x1="1416" x2="1457" y1="796.8438" y2="796.8438"/><polygon fill="#A80036" points="1426,792.8438,1416,796.8438,1426,800.8438,1422,796.8438" style="stroke:#A80036;stroke-width:1.0;"/><text fill="#000000" font-family="sans-serif" font-size="13" font-weight="bold" lengthAdjust="spacing" textLength="18" x="1422" y="778.7778">19</text><text fill="#000000" font-family="sans-serif" font-size="13" lengthAdjust="spacing" textLength="141" x="1444" y="778.7778">validateLaboratory(cl)</text><line style="stroke:#A80036;stroke-width:1.0;stroke-dasharray:2.0,2.0;" x1="1415" x2="1457" y1="830.9766" y2="830.9766"/><line style="stroke:#A80036;stroke-width:1.0;stroke-dasharray:2.0,2.0;" x1="1457" x2="1457" y1="830.9766" y2="843.9766"/><line style="stroke:#A80036;stroke-width:1.0;stroke-dasharray:2.0,2.0;" x1="1410" x2="1457" y1="843.9766" y2="843.9766"/><polygon fill="#A80036" points="1420,839.9766,1410,843.9766,1420,847.9766,1416,843.9766" style="stroke:#A80036;stroke-width:1.0;"/><text fill="#000000" font-family="sans-serif" font-size="13" font-weight="bold" lengthAdjust="spacing" textLength="19" x="1422" y="825.9106">20</text><text fill="#000000" font-family="sans-serif" font-size="13" lengthAdjust="spacing" textLength="114" x="1445" y="825.9106">addLaboratory(cl)</text><polygon fill="#A80036" points="84,864.1094,74,868.1094,84,872.1094,80,868.1094" style="stroke:#A80036;stroke-width:1.0;"/><line style="stroke:#A80036;stroke-width:1.0;stroke-dasharray:2.0,2.0;" x1="78" x2="568" y1="868.1094" y2="868.1094"/><text fill="#000000" font-family="sans-serif" font-size="13" font-weight="bold" lengthAdjust="spacing" textLength="18" x="90" y="863.0435">21</text><text fill="#000000" font-family="sans-serif" font-size="13" lengthAdjust="spacing" textLength="169" x="112" y="863.0435">informs operation success</text><!--MD5=[1c8ed4ecd928a31b5e7b4e85dca8168d]
@startuml
actor Administrator as Adm
participant ":RegistLaboratory UI" as System
participant ":RegistLaboratoryCrontroller" as RLC
participant ":Company" as ML
participant ":TestType" as tt
participant "Laboratory" as lab


autonumber
activate Adm
Adm -> System: register a new laboratory
activate System
System - -> Adm: request data(laboratoryID, name, address, phoneNumber, tinNumber)
deactivate System




Adm -> System: types requested data
activate System
System- ->RLC: m=getTestType()
activate RLC
RLC- ->ML: m=getTestType()
activate ML
create "listTT :List<TestType>" as listtt
ML - -> listtt: create()
listtt - -> ML: listTT


loop
System - -> Adm: shows the data and request a confirmation
deactivate ML
deactivate RLC
deactivate System
Adm - -> System: selects a type of test
activate System
System - -> RLC: createLaboratory(laboratoryID, name, address, \n phoneNumber, tinNumber, testType)
activate RLC
RLC - -> tt: test=getTestTypeByCode(code)
end
activate tt
deactivate tt
RLC - -> tt: cl=createLaboratory(laboratoryID, name, address, \n phoneNumber, tinNumber, testType)
activate tt
create "cl: \nLaboratory" as CL
tt - -> CL: create(laboratoryID, name, address, \n phoneNumber, tinNumber, test)
deactivate tt
RLC - -> tt: validateLaboratory(cl)
activate tt
deactivate tt
System - -> Adm: shows all data and requests a confirmation
deactivate RLC
deactivate System
Adm - -> System: confirms all data
activate System
System - -> RLC: saveLaboratory()
activate RLC
RLC - -> lab: saveLaboratory(cl)
activate lab
lab - -> lab: validateLaboratory(cl)
lab - -> lab: addLaboratory(cl)
deactivate RLC
System - -> Adm: informs operation success
deactivate lab
deactivate System
deactivate Adm
@enduml

PlantUML version 1.2021.6(Fri May 14 07:09:51 UTC 2021)
(GPL source distribution)
Java Runtime: Java(TM) SE Runtime Environment
JVM: Java HotSpot(TM) 64-Bit Server VM
Default Encoding: UTF-8
Language: en
Country: US
--></g></svg>