<?xml version="1.0" encoding="UTF-8" standalone="no"?><svg xmlns="http://www.w3.org/2000/svg" xmlns:xlink="http://www.w3.org/1999/xlink" contentScriptType="application/ecmascript" contentStyleType="text/css" height="837px" preserveAspectRatio="none" style="width:693px;height:837px;" version="1.1" viewBox="0 0 693 837" width="693px" zoomAndPan="magnify"><defs><filter height="300%" id="f1gvoz9bp6w94a" width="300%" x="-1" y="-1"><feGaussianBlur result="blurOut" stdDeviation="2.0"/><feColorMatrix in="blurOut" result="blurOut2" type="matrix" values="0 0 0 0 0 0 0 0 0 0 0 0 0 0 0 0 0 0 .4 0"/><feOffset dx="4.0" dy="4.0" in="blurOut2" result="blurOut3"/><feBlend in="SourceGraphic" in2="blurOut3" mode="normal"/></filter></defs><g><rect fill="#FFFFFF" filter="url(#f1gvoz9bp6w94a)" height="130" style="stroke:#000000;stroke-width:1.5;" width="164" x="35" y="695"/><!--MD5=[cf1651d31d5f33993ae35e66637ebfa8]
cluster ManyLabs--><rect fill="#FFFFFF" filter="url(#f1gvoz9bp6w94a)" height="641" style="stroke:#000000;stroke-width:1.5;" width="409" x="272" y="92"/><text fill="#000000" font-family="sans-serif" font-size="14" font-weight="bold" lengthAdjust="spacing" textLength="81" x="436" y="106.9951">ManyLabs</text><!--MD5=[72f941736658486a9447ee9af01ffec8]
entity ss--><ellipse cx="117" cy="736.7969" fill="#FEFECE" filter="url(#f1gvoz9bp6w94a)" rx="8" ry="8" style="stroke:#A80036;stroke-width:1.5;"/><path d="M117,744.7969 L117,771.7969 M104,752.7969 L130,752.7969 M117,771.7969 L104,786.7969 M117,771.7969 L130,786.7969 " fill="none" filter="url(#f1gvoz9bp6w94a)" style="stroke:#A80036;stroke-width:1.5;"/><text fill="#000000" font-family="sans-serif" font-size="14" lengthAdjust="spacing" textLength="132" x="51" y="805.292">Summarize sistem</text><text fill="#000000" font-family="sans-serif" font-size="14" font-style="italic" lengthAdjust="spacing" textLength="103" x="65.5" y="723.9951">«Non-Human»</text><ellipse cx="476.4616" cy="417.9923" fill="#FEFECE" filter="url(#f1gvoz9bp6w94a)" rx="117.9616" ry="25.9923" style="stroke:#A80036;stroke-width:1.5;"/><text fill="#000000" font-family="sans-serif" font-size="14" lengthAdjust="spacing" textLength="203" x="374.9616" y="420.839">UC1-Make Chemical Analysis</text><ellipse cx="476.5416" cy="242.0083" fill="#FEFECE" filter="url(#f1gvoz9bp6w94a)" rx="155.5416" ry="33.5083" style="stroke:#A80036;stroke-width:1.5;"/><text fill="#000000" font-family="sans-serif" font-size="14" lengthAdjust="spacing" textLength="282" x="335.5416" y="244.855">UC2-Register the test to be performed</text><ellipse cx="476.7481" cy="149.8496" fill="#FEFECE" filter="url(#f1gvoz9bp6w94a)" rx="102.2481" ry="22.8496" style="stroke:#A80036;stroke-width:1.5;"/><text fill="#000000" font-family="sans-serif" font-size="14" lengthAdjust="spacing" textLength="169" x="392.2481" y="152.6963">UC3-Register the client</text><ellipse cx="476.5288" cy="519.1058" fill="#FEFECE" filter="url(#f1gvoz9bp6w94a)" rx="188.5288" ry="40.1058" style="stroke:#A80036;stroke-width:1.5;"/><text fill="#000000" font-family="sans-serif" font-size="14" lengthAdjust="spacing" textLength="350" x="301.5288" y="521.9524">UC4-Make a Diagnosis about the chemical results</text><ellipse cx="476.2915" cy="614.1583" fill="#FEFECE" filter="url(#f1gvoz9bp6w94a)" rx="88.7915" ry="20.1583" style="stroke:#A80036;stroke-width:1.5;"/><text fill="#000000" font-family="sans-serif" font-size="14" lengthAdjust="spacing" textLength="139" x="406.7915" y="617.005">UC5-Validate a test</text><ellipse cx="476.5751" cy="334.215" fill="#FEFECE" filter="url(#f1gvoz9bp6w94a)" rx="104.0751" ry="23.215" style="stroke:#A80036;stroke-width:1.5;"/><text fill="#000000" font-family="sans-serif" font-size="14" lengthAdjust="spacing" textLength="173" x="390.0751" y="337.0617">UC7-Colect the samples</text><ellipse cx="476.6701" cy="693.134" fill="#FEFECE" filter="url(#f1gvoz9bp6w94a)" rx="108.6701" ry="24.134" style="stroke:#A80036;stroke-width:1.5;"/><text fill="#000000" font-family="sans-serif" font-size="14" lengthAdjust="spacing" textLength="183" x="385.1701" y="695.9807">UC8-Summarize the tests</text><!--MD5=[cbf2a705c8c36a956106bd646f097c75]
entity r--><ellipse cx="117" cy="130" fill="#FEFECE" filter="url(#f1gvoz9bp6w94a)" rx="8" ry="8" style="stroke:#A80036;stroke-width:1.5;"/><path d="M117,138 L117,165 M104,146 L130,146 M117,165 L104,180 M117,165 L130,180 " fill="none" filter="url(#f1gvoz9bp6w94a)" style="stroke:#A80036;stroke-width:1.5;"/><text fill="#000000" font-family="sans-serif" font-size="14" lengthAdjust="spacing" textLength="93" x="70.5" y="198.4951">Receptionist</text><!--MD5=[ddc0993abd4478baf117d835cc4f0442]
entity mlt--><ellipse cx="117" cy="256" fill="#FEFECE" filter="url(#f1gvoz9bp6w94a)" rx="8" ry="8" style="stroke:#A80036;stroke-width:1.5;"/><path d="M117,264 L117,291 M104,272 L130,272 M117,291 L104,306 M117,291 L130,306 " fill="none" filter="url(#f1gvoz9bp6w94a)" style="stroke:#A80036;stroke-width:1.5;"/><text fill="#000000" font-family="sans-serif" font-size="14" lengthAdjust="spacing" textLength="159" x="37.5" y="324.4951">Medical lab technician</text><!--MD5=[72bd50b8814dffd24ca46f995a9a7d84]
entity cct--><ellipse cx="117" cy="372" fill="#FEFECE" filter="url(#f1gvoz9bp6w94a)" rx="8" ry="8" style="stroke:#A80036;stroke-width:1.5;"/><path d="M117,380 L117,407 M104,388 L130,388 M117,407 L104,422 M117,407 L130,422 " fill="none" filter="url(#f1gvoz9bp6w94a)" style="stroke:#A80036;stroke-width:1.5;"/><text fill="#000000" font-family="sans-serif" font-size="14" lengthAdjust="spacing" textLength="222" x="6" y="440.4951">Clinical chemistry technologist</text><!--MD5=[1865ce58b93b46dbf0f89b42133fbc97]
entity sd--><ellipse cx="117" cy="488" fill="#FEFECE" filter="url(#f1gvoz9bp6w94a)" rx="8" ry="8" style="stroke:#A80036;stroke-width:1.5;"/><path d="M117,496 L117,523 M104,504 L130,504 M117,523 L104,538 M117,523 L130,538 " fill="none" filter="url(#f1gvoz9bp6w94a)" style="stroke:#A80036;stroke-width:1.5;"/><text fill="#000000" font-family="sans-serif" font-size="14" lengthAdjust="spacing" textLength="122" x="56" y="556.4951">Specialist doctor</text><!--MD5=[9b765648a409d02f5ba0bbb9cb84ff33]
entity lc--><ellipse cx="117" cy="604" fill="#FEFECE" filter="url(#f1gvoz9bp6w94a)" rx="8" ry="8" style="stroke:#A80036;stroke-width:1.5;"/><path d="M117,612 L117,639 M104,620 L130,620 M117,639 L104,654 M117,639 L130,654 " fill="none" filter="url(#f1gvoz9bp6w94a)" style="stroke:#A80036;stroke-width:1.5;"/><text fill="#000000" font-family="sans-serif" font-size="14" lengthAdjust="spacing" textLength="167" x="33.5" y="672.4951">Laboratory coordinator</text><!--MD5=[db956f40f2dc50163091c98812b3e6f0]
entity cc--><ellipse cx="117" cy="14" fill="#FEFECE" filter="url(#f1gvoz9bp6w94a)" rx="8" ry="8" style="stroke:#A80036;stroke-width:1.5;"/><path d="M117,22 L117,49 M104,30 L130,30 M117,49 L104,64 M117,49 L130,64 " fill="none" filter="url(#f1gvoz9bp6w94a)" style="stroke:#A80036;stroke-width:1.5;"/><text fill="#000000" font-family="sans-serif" font-size="14" lengthAdjust="spacing" textLength="43" x="95.5" y="82.4951">Client</text><path d="M341,32.5 L341,41 L138.505,45 L341,49 L341,57.6328 A0,0 0 0 0 341,57.6328 L612,57.6328 A0,0 0 0 0 612,57.6328 L612,42.5 L602,32.5 L341,32.5 A0,0 0 0 0 341,32.5 " fill="#FBFB77" filter="url(#f1gvoz9bp6w94a)" style="stroke:#A80036;stroke-width:1.0;"/><path d="M602,32.5 L602,42.5 L612,42.5 L602,32.5 " fill="#FBFB77" style="stroke:#A80036;stroke-width:1.0;"/><text fill="#000000" font-family="sans-serif" font-size="13" lengthAdjust="spacing" textLength="250" x="347" y="49.5669">Actor identified but with no user cases.</text><!--MD5=[cf4083435b12df47fba7737af7fae5ab]
link r to UC2--><path d="M163.641,171.341 C215.03,182.984 300.28,202.3 368.672,217.796 " fill="none" id="r-UC2" style="stroke:#A80036;stroke-width:1.0;"/><!--MD5=[4b7061113a6e53411f47f9c8087da062]
link cct to UC1--><path d="M228.179,407.623 C270.134,409.383 318.03,411.393 360.428,413.172 " fill="none" id="cct-UC1" style="stroke:#A80036;stroke-width:1.0;"/><!--MD5=[3041f2bdf2a68f246ca872463daab7e5]
link r to UC3--><path d="M163.641,159.596 C216.724,157.962 305.938,155.217 375.38,153.081 " fill="none" id="r-UC3" style="stroke:#A80036;stroke-width:1.0;"/><!--MD5=[3641496ffb9b6d7a2b2554a1fe5e5f4f]
link sd to UC4--><path d="M178.241,519 C208.886,519 247.989,519 287.689,519 " fill="none" id="sd-UC4" style="stroke:#A80036;stroke-width:1.0;"/><!--MD5=[97fbf8a37cac34d5ae1239edf28658f2]
link lc to UC5--><path d="M200.916,630.129 C257.743,626.791 332.916,622.376 390.239,619.008 " fill="none" id="lc-UC5" style="stroke:#A80036;stroke-width:1.0;"/><!--MD5=[d6f4c20cc24b1ff6724b855781070039]
link mlt to UC7--><path d="M196.897,297.373 C253.033,304.753 328.514,314.676 386.75,322.332 " fill="none" id="mlt-UC7" style="stroke:#A80036;stroke-width:1.0;"/><!--MD5=[693d3671e112444d27eb4e4b458360ca]
link ss to UC8--><path d="M183.155,747.7891 C242.165,736.73 329.375,720.386 393.185,708.427 " fill="none" id="ss-UC8" style="stroke:#A80036;stroke-width:1.0;"/><!--MD5=[7ca2da5b887fb4a563c75372f039e93a]
@startuml
left to right direction
skinparam linetype polyline
actor Receptionist as r
actor "Medical lab technician" as mlt
actor "Clinical chemistry technologist" as cct
actor "Specialist doctor" as sd
actor "Laboratory coordinator" as lc
actor Client as cc
Rectangle {
actor "Summarize sistem" as ss << Non-Human >>
}

Rectangle ManyLabs{
usecase "UC1-Make Chemical Analysis" as UC1
usecase "UC2-Register the test to be performed" as UC2
usecase "UC3-Register the client" as UC3
usecase "UC4-Make a Diagnosis about the chemical results" as UC4
usecase "UC5-Validate a test" as UC5
usecase "UC7-Colect the samples" as UC7
usecase "UC8-Summarize the tests" as UC8

}

r- -UC2
cct- -UC1
r- -UC3
sd- -UC4
lc- -UC5
mlt- -UC7
ss- -UC8
note right of cc : Actor identified but with no user cases.
@enduml

PlantUML version 1.2021.5beta3(Unknown compile time)
(GPL source distribution)
Java Runtime: Java(TM) SE Runtime Environment
JVM: Java HotSpot(TM) 64-Bit Server VM
Default Encoding: UTF-8
Language: en
Country: US
--></g></svg>