<?xml version="1.0" encoding="UTF-8" standalone="no"?><svg xmlns="http://www.w3.org/2000/svg" xmlns:xlink="http://www.w3.org/1999/xlink" contentScriptType="application/ecmascript" contentStyleType="text/css" height="739px" preserveAspectRatio="none" style="width:674px;height:739px;" version="1.1" viewBox="0 0 674 739" width="674px" zoomAndPan="magnify"><defs><filter height="300%" id="f1hssrzg9owph6" width="300%" x="-1" y="-1"><feGaussianBlur result="blurOut" stdDeviation="2.0"/><feColorMatrix in="blurOut" result="blurOut2" type="matrix" values="0 0 0 0 0 0 0 0 0 0 0 0 0 0 0 0 0 0 .4 0"/><feOffset dx="4.0" dy="4.0" in="blurOut2" result="blurOut3"/><feBlend in="SourceGraphic" in2="blurOut3" mode="normal"/></filter></defs><g><rect fill="#FFFFFF" filter="url(#f1hssrzg9owph6)" height="696" style="stroke:#000000;stroke-width:1.5;" width="229" x="272" y="7"/><ellipse cx="386.5656" cy="390.1131" fill="#FEFECE" filter="url(#f1hssrzg9owph6)" rx="83.5656" ry="19.1131" style="stroke:#A80036;stroke-width:1.5;"/><text fill="#000000" font-family="sans-serif" font-size="14" lengthAdjust="spacing" textLength="127" x="322.6623" y="393.0974">Chemical Analysis</text><ellipse cx="386.5529" cy="110.2106" fill="#FEFECE" filter="url(#f1hssrzg9owph6)" rx="71.5529" ry="16.7106" style="stroke:#A80036;stroke-width:1.5;"/><text fill="#000000" font-family="sans-serif" font-size="14" lengthAdjust="spacing" textLength="97" x="335.0529" y="113.9581">Test Register</text><ellipse cx="386.2754" cy="41.0551" fill="#FEFECE" filter="url(#f1hssrzg9owph6)" rx="75.7754" ry="17.5551" style="stroke:#A80036;stroke-width:1.5;"/><text fill="#000000" font-family="sans-serif" font-size="14" lengthAdjust="spacing" textLength="108" x="329.2754" y="44.8026">Client Register</text><ellipse cx="386.313" cy="255.7771" fill="#FEFECE" filter="url(#f1hssrzg9owph6)" rx="60.813" ry="14.7771" style="stroke:#A80036;stroke-width:1.5;"/><text fill="#000000" font-family="sans-serif" font-size="14" lengthAdjust="spacing" textLength="68" x="349.313" y="259.5247">Diagnosis</text><ellipse cx="386.6224" cy="459.1723" fill="#FEFECE" filter="url(#f1hssrzg9owph6)" rx="48.1224" ry="14.6723" style="stroke:#A80036;stroke-width:1.5;"/><text fill="#000000" font-family="sans-serif" font-size="14" lengthAdjust="spacing" textLength="51" x="358.1224" y="462.9198">Report</text><ellipse cx="386.6147" cy="184.1229" fill="#FEFECE" filter="url(#f1hssrzg9owph6)" rx="98.6147" ry="22.1229" style="stroke:#A80036;stroke-width:1.5;"/><text fill="#000000" font-family="sans-serif" font-size="14" lengthAdjust="spacing" textLength="161" x="306.1147" y="186.9696">Automatic Association</text><ellipse cx="386.5868" cy="321.2397" fill="#FEFECE" filter="url(#f1hssrzg9owph6)" rx="55.5868" ry="14.7397" style="stroke:#A80036;stroke-width:1.5;"/><text fill="#000000" font-family="sans-serif" font-size="14" lengthAdjust="spacing" textLength="61" x="353.0868" y="324.9873">Samples</text><ellipse cx="386.4948" cy="601.899" fill="#FEFECE" filter="url(#f1hssrzg9owph6)" rx="74.9948" ry="17.399" style="stroke:#A80036;stroke-width:1.5;"/><text fill="#000000" font-family="sans-serif" font-size="14" lengthAdjust="spacing" textLength="106" x="330.4948" y="605.6465">Test validation</text><ellipse cx="386.6678" cy="670.8336" fill="#FEFECE" filter="url(#f1hssrzg9owph6)" rx="67.1678" ry="15.8336" style="stroke:#A80036;stroke-width:1.5;"/><text fill="#000000" font-family="sans-serif" font-size="14" lengthAdjust="spacing" textLength="85" x="341.1678" y="674.5811">Notification</text><ellipse cx="386.6144" cy="528.9229" fill="#FEFECE" filter="url(#f1hssrzg9owph6)" rx="90.1144" ry="20.4229" style="stroke:#A80036;stroke-width:1.5;"/><text fill="#000000" font-family="sans-serif" font-size="14" lengthAdjust="spacing" textLength="142" x="315.6144" y="531.7696">Register the results</text><!--MD5=[cbf2a705c8c36a956106bd646f097c75]
entity r--><ellipse cx="117" cy="17" fill="#FEFECE" filter="url(#f1hssrzg9owph6)" rx="8" ry="8" style="stroke:#A80036;stroke-width:1.5;"/><path d="M117,25 L117,52 M104,33 L130,33 M117,52 L104,67 M117,52 L130,67 " fill="none" filter="url(#f1hssrzg9owph6)" style="stroke:#A80036;stroke-width:1.5;"/><text fill="#000000" font-family="sans-serif" font-size="14" lengthAdjust="spacing" textLength="93" x="70.5" y="85.4951">Receptionist</text><!--MD5=[ddc0993abd4478baf117d835cc4f0442]
entity mlt--><ellipse cx="117" cy="146" fill="#FEFECE" filter="url(#f1hssrzg9owph6)" rx="8" ry="8" style="stroke:#A80036;stroke-width:1.5;"/><path d="M117,154 L117,181 M104,162 L130,162 M117,181 L104,196 M117,181 L130,196 " fill="none" filter="url(#f1hssrzg9owph6)" style="stroke:#A80036;stroke-width:1.5;"/><text fill="#000000" font-family="sans-serif" font-size="14" lengthAdjust="spacing" textLength="159" x="37.5" y="214.4951">Medical lab technician</text><!--MD5=[8e9b2d9d80e066cced8e5d90e9bdea61]
entity c--><ellipse cx="117" cy="276" fill="#FEFECE" filter="url(#f1hssrzg9owph6)" rx="8" ry="8" style="stroke:#A80036;stroke-width:1.5;"/><path d="M117,284 L117,311 M104,292 L130,292 M117,311 L104,326 M117,311 L130,326 " fill="none" filter="url(#f1hssrzg9owph6)" style="stroke:#A80036;stroke-width:1.5;"/><text fill="#000000" font-family="sans-serif" font-size="14" lengthAdjust="spacing" textLength="52" x="91" y="344.4951">Courier</text><!--MD5=[72bd50b8814dffd24ca46f995a9a7d84]
entity cct--><ellipse cx="117" cy="392" fill="#FEFECE" filter="url(#f1hssrzg9owph6)" rx="8" ry="8" style="stroke:#A80036;stroke-width:1.5;"/><path d="M117,400 L117,427 M104,408 L130,408 M117,427 L104,442 M117,427 L130,442 " fill="none" filter="url(#f1hssrzg9owph6)" style="stroke:#A80036;stroke-width:1.5;"/><text fill="#000000" font-family="sans-serif" font-size="14" lengthAdjust="spacing" textLength="222" x="6" y="460.4951">Clinical chemistry technologist</text><!--MD5=[1865ce58b93b46dbf0f89b42133fbc97]
entity sd--><ellipse cx="606" cy="359" fill="#FEFECE" filter="url(#f1hssrzg9owph6)" rx="8" ry="8" style="stroke:#A80036;stroke-width:1.5;"/><path d="M606,367 L606,394 M593,375 L619,375 M606,394 L593,409 M606,394 L619,409 " fill="none" filter="url(#f1hssrzg9owph6)" style="stroke:#A80036;stroke-width:1.5;"/><text fill="#000000" font-family="sans-serif" font-size="14" lengthAdjust="spacing" textLength="122" x="545" y="427.4951">Specialist doctor</text><!--MD5=[9b765648a409d02f5ba0bbb9cb84ff33]
entity lc--><ellipse cx="117" cy="547" fill="#FEFECE" filter="url(#f1hssrzg9owph6)" rx="8" ry="8" style="stroke:#A80036;stroke-width:1.5;"/><path d="M117,555 L117,582 M104,563 L130,563 M117,582 L104,597 M117,582 L130,597 " fill="none" filter="url(#f1hssrzg9owph6)" style="stroke:#A80036;stroke-width:1.5;"/><text fill="#000000" font-family="sans-serif" font-size="14" lengthAdjust="spacing" textLength="167" x="33.5" y="615.4951">Laboratory coordinator</text><!--MD5=[db956f40f2dc50163091c98812b3e6f0]
entity cc--><ellipse cx="606" cy="557" fill="#FEFECE" filter="url(#f1hssrzg9owph6)" rx="8" ry="8" style="stroke:#A80036;stroke-width:1.5;"/><path d="M606,565 L606,592 M593,573 L619,573 M606,592 L593,607 M606,592 L619,607 " fill="none" filter="url(#f1hssrzg9owph6)" style="stroke:#A80036;stroke-width:1.5;"/><text fill="#000000" font-family="sans-serif" font-size="14" lengthAdjust="spacing" textLength="43" x="584.5" y="625.4951">Client</text><!--MD5=[d8322213e5f4465576b8bf70cd9bce59]
entity s--><ellipse cx="117" cy="663" fill="#FEFECE" filter="url(#f1hssrzg9owph6)" rx="8" ry="8" style="stroke:#A80036;stroke-width:1.5;"/><path d="M117,671 L117,698 M104,679 L130,679 M117,698 L104,713 M117,698 L130,713 " fill="none" filter="url(#f1hssrzg9owph6)" style="stroke:#A80036;stroke-width:1.5;"/><text fill="#000000" font-family="sans-serif" font-size="14" lengthAdjust="spacing" textLength="54" x="90" y="731.4951">System</text><!--MD5=[cf4083435b12df47fba7737af7fae5ab]
link r to UC2--><path d="M163.681,58.588 C211.432,69.655 286.142,86.971 335.46,98.402 " fill="none" id="r-UC2" style="stroke:#A80036;stroke-width:1.0;"/><!--MD5=[e86d6f9ae0b534829c3ca8ae762c23af]
link mlt to UC6--><path d="M196.812,179.062 C225.477,179.812 258.217,180.669 288.288,181.456 " fill="none" id="mlt-UC6" style="stroke:#A80036;stroke-width:1.0;"/><!--MD5=[d801c68ee28d81825b1ac6efe6859205]
link c to UC7--><path d="M143.166,308.317 C186.15,310.567 274.617,315.197 331.937,318.197 " fill="none" id="c-UC7" style="stroke:#A80036;stroke-width:1.0;"/><!--MD5=[5d827089078693f8e1688e8606e02544]
link cct to UC7--><path d="M203.773,382.463 C235.553,367.444 264,354 264,354 C264,354 311.758,341.029 347.39,331.351 " fill="none" id="cct-UC7" style="stroke:#A80036;stroke-width:1.0;"/><!--MD5=[4b7061113a6e53411f47f9c8087da062]
link cct to UC1--><path d="M228.347,409.387 C256.843,405.872 286.801,402.176 312.83,398.965 " fill="none" id="cct-UC1" style="stroke:#A80036;stroke-width:1.0;"/><!--MD5=[cd9a8b4564af88b51ee648a6c736ef38]
link cct to UC10--><path d="M205.037,463.538 C236.304,478.1 264,491 264,491 C264,491 299.82,502.203 332.562,512.443 " fill="none" id="cct-UC10" style="stroke:#A80036;stroke-width:1.0;"/><!--MD5=[3041f2bdf2a68f246ca872463daab7e5]
link r to UC3--><path d="M163.681,46.805 C204.045,45.748 263.674,44.188 310.944,42.951 " fill="none" id="r-UC3" style="stroke:#A80036;stroke-width:1.0;"/><!--MD5=[bfed460e0039b1a5a89cff77321c8825]
link UC4 to sd--><path d="M428.296,267.08 C463.593,276.667 509,289 509,289 C509,289 539.586,321.179 566.23,349.211 " fill="none" id="UC4-sd" style="stroke:#A80036;stroke-width:1.0;"/><!--MD5=[ab29248cd149f3febfba59ee2ac86d5d]
link UC1 to sd--><path d="M470.038,390 C494.914,390 521.735,390 544.864,390 " fill="none" id="UC1-sd" style="stroke:#A80036;stroke-width:1.0;"/><!--MD5=[964c39ec72f99aec9aa6eb4114f1e6d1]
link UC5 to sd--><path d="M423.297,449.572 C459.136,440.133 509,427 509,427 C509,427 525.459,420.656 544.747,413.223 " fill="none" id="UC5-sd" style="stroke:#A80036;stroke-width:1.0;"/><!--MD5=[873bf35cedb08c8e357bf74dc3c88a85]
link UC5 to cc--><path d="M423.297,468.428 C459.136,477.867 509,491 509,491 C509,491 555.935,538.424 584.169,566.952 " fill="none" id="UC5-cc" style="stroke:#A80036;stroke-width:1.0;"/><!--MD5=[0c1f5b2aba23facd9e2aeb333553c598]
link s to UC9--><path d="M144.136,691.7528 C185.285,688.2148 266.326,681.2468 323.106,676.3647 " fill="none" id="s-UC9" style="stroke:#A80036;stroke-width:1.0;"/><!--MD5=[9dea0362058f5b60a4f299e69e1444c1]
link lc to UC8--><path d="M200.807,585.429 C237.786,588.747 280.874,592.613 316.126,595.776 " fill="none" id="lc-UC8" style="stroke:#A80036;stroke-width:1.0;"/><!--MD5=[41fe247da6c9f06cf4606a3c66064022]
link mlt to UC2--><path d="M196.812,157.26 C242.429,145.834 298.367,131.824 337.445,122.036 " fill="none" id="mlt-UC2" style="stroke:#A80036;stroke-width:1.0;"/><!--MD5=[8a1a5c8e0d5a71a59053084335ec604a]
link UC9 to cc--><path d="M430.678,658.9171 C465.601,649.1446 509,637 509,637 C509,637 555.935,613.044 584.169,598.632 " fill="none" id="UC9-cc" style="stroke:#A80036;stroke-width:1.0;"/><!--MD5=[4ee49a8c92bda01a5177c62c9379c35b]
@startuml
left to right direction
skinparam linetype polyline
actor Receptionist as r
actor "Medical lab technician" as mlt
actor Courier as c
actor "Clinical chemistry technologist" as cct
actor "Specialist doctor" as sd
actor "Laboratory coordinator" as lc
actor Client as cc
actor System as s

Rectangle {
usecase "Chemical Analysis" as UC1
usecase "Test Register" as UC2
usecase "Client Register" as UC3
usecase "Diagnosis" as UC4
usecase "Report" as UC5
usecase "Automatic Association" as UC6
usecase "Samples" as UC7
usecase "Test validation" as UC8
usecase "Notification" as UC9
usecase "Register the results" as UC10
}

r- -UC2
mlt- -UC6
c- -UC7
cct- -UC7
cct- -UC1
cct- -UC10
r- -UC3
UC4- -sd
UC1- -sd
UC5- -sd
UC5- -cc
s- -UC9
lc- -UC8
mlt- -UC2
UC9- -cc
@enduml

PlantUML version 1.2021.5beta3(Unknown compile time)
(GPL source distribution)
Java Runtime: Java(TM) SE Runtime Environment
JVM: Java HotSpot(TM) 64-Bit Server VM
Default Encoding: UTF-8
Language: en
Country: US
--></g></svg>