<?xml version="1.0" encoding="UTF-8" standalone="no"?><svg xmlns="http://www.w3.org/2000/svg" xmlns:xlink="http://www.w3.org/1999/xlink" contentScriptType="application/ecmascript" contentStyleType="text/css" height="715px" preserveAspectRatio="none" style="width:680px;height:715px;" version="1.1" viewBox="0 0 680 715" width="680px" zoomAndPan="magnify"><defs><filter height="300%" id="fp7h3xru32mo9" width="300%" x="-1" y="-1"><feGaussianBlur result="blurOut" stdDeviation="2.0"/><feColorMatrix in="blurOut" result="blurOut2" type="matrix" values="0 0 0 0 0 0 0 0 0 0 0 0 0 0 0 0 0 0 .4 0"/><feOffset dx="4.0" dy="4.0" in="blurOut2" result="blurOut3"/><feBlend in="SourceGraphic" in2="blurOut3" mode="normal"/></filter></defs><g><!--MD5=[02e4b9b7573f1156f41e60aa5b4e25a4]
class Company--><rect codeLine="3" fill="#FEFECE" filter="url(#fp7h3xru32mo9)" height="99.2188" id="Company" style="stroke:#A80036;stroke-width:1.5;" width="190" x="256.5" y="263"/><ellipse cx="319.25" cy="279" fill="#ADD1B2" rx="11" ry="11" style="stroke:#A80036;stroke-width:1.0;"/><path d="M321.5938,274.6719 C320.6563,274.2344 320.0625,274.0938 319.1875,274.0938 C316.5625,274.0938 314.5625,276.1719 314.5625,278.8906 L314.5625,280.0156 C314.5625,282.5938 316.6719,284.4844 319.5625,284.4844 C320.7813,284.4844 321.9375,284.1875 322.6875,283.6406 C323.2656,283.2344 323.5938,282.7813 323.5938,282.3906 C323.5938,281.9375 323.2031,281.5469 322.7344,281.5469 C322.5156,281.5469 322.3125,281.625 322.125,281.8125 C321.6719,282.2969 321.6719,282.2969 321.4844,282.3906 C321.0625,282.6563 320.375,282.7813 319.6094,282.7813 C317.5625,282.7813 316.2656,281.6875 316.2656,279.9844 L316.2656,278.8906 C316.2656,277.1094 317.5156,275.7969 319.25,275.7969 C319.8281,275.7969 320.4375,275.9531 320.9063,276.2031 C321.3906,276.4844 321.5625,276.7031 321.6563,277.1094 C321.7188,277.5156 321.75,277.6406 321.8906,277.7656 C322.0313,277.9063 322.2656,278.0156 322.4844,278.0156 C322.75,278.0156 323.0156,277.875 323.1875,277.6563 C323.2969,277.5 323.3281,277.3125 323.3281,276.8906 L323.3281,275.4688 C323.3281,275.0313 323.3125,274.9063 323.2188,274.75 C323.0625,274.4844 322.7813,274.3438 322.4844,274.3438 C322.1875,274.3438 321.9844,274.4375 321.7656,274.75 L321.5938,274.6719 Z " fill="#000000"/><text fill="#000000" font-family="sans-serif" font-size="12" lengthAdjust="spacing" textLength="56" x="339.75" y="283.1543">Company</text><line style="stroke:#A80036;stroke-width:1.5;" x1="257.5" x2="445.5" y1="295" y2="295"/><text fill="#000000" font-family="sans-serif" font-size="11" lengthAdjust="spacing" textLength="107" x="262.5" y="309.2104">-String designation</text><line style="stroke:#A80036;stroke-width:1.5;" x1="257.5" x2="445.5" y1="315.8047" y2="315.8047"/><text fill="#000000" font-family="sans-serif" font-size="11" lengthAdjust="spacing" textLength="178" x="262.5" y="330.0151">+getParameterCategoryStore()</text><text fill="#000000" font-family="sans-serif" font-size="11" lengthAdjust="spacing" textLength="147" x="262.5" y="342.8198">+getParameterCategory()</text><text fill="#000000" font-family="sans-serif" font-size="11" lengthAdjust="spacing" textLength="126" x="262.5" y="355.6245">+getParameterStore()</text><!--MD5=[1f6362a5c8f21d8d6a0fce68f3a92a4e]
class Parameter--><rect codeLine="12" fill="#FEFECE" filter="url(#fp7h3xru32mo9)" height="99.2188" id="Parameter" style="stroke:#A80036;stroke-width:1.5;" width="278" x="383.5" y="602"/><ellipse cx="487.75" cy="618" fill="#ADD1B2" rx="11" ry="11" style="stroke:#A80036;stroke-width:1.0;"/><path d="M490.0938,613.6719 C489.1563,613.2344 488.5625,613.0938 487.6875,613.0938 C485.0625,613.0938 483.0625,615.1719 483.0625,617.8906 L483.0625,619.0156 C483.0625,621.5938 485.1719,623.4844 488.0625,623.4844 C489.2813,623.4844 490.4375,623.1875 491.1875,622.6406 C491.7656,622.2344 492.0938,621.7813 492.0938,621.3906 C492.0938,620.9375 491.7031,620.5469 491.2344,620.5469 C491.0156,620.5469 490.8125,620.625 490.625,620.8125 C490.1719,621.2969 490.1719,621.2969 489.9844,621.3906 C489.5625,621.6563 488.875,621.7813 488.1094,621.7813 C486.0625,621.7813 484.7656,620.6875 484.7656,618.9844 L484.7656,617.8906 C484.7656,616.1094 486.0156,614.7969 487.75,614.7969 C488.3281,614.7969 488.9375,614.9531 489.4063,615.2031 C489.8906,615.4844 490.0625,615.7031 490.1563,616.1094 C490.2188,616.5156 490.25,616.6406 490.3906,616.7656 C490.5313,616.9063 490.7656,617.0156 490.9844,617.0156 C491.25,617.0156 491.5156,616.875 491.6875,616.6563 C491.7969,616.5 491.8281,616.3125 491.8281,615.8906 L491.8281,614.4688 C491.8281,614.0313 491.8125,613.9063 491.7188,613.75 C491.5625,613.4844 491.2813,613.3438 490.9844,613.3438 C490.6875,613.3438 490.4844,613.4375 490.2656,613.75 L490.0938,613.6719 Z " fill="#000000"/><text fill="#000000" font-family="sans-serif" font-size="12" lengthAdjust="spacing" textLength="61" x="508.25" y="622.1543">Parameter</text><line style="stroke:#A80036;stroke-width:1.5;" x1="384.5" x2="660.5" y1="634" y2="634"/><text fill="#000000" font-family="sans-serif" font-size="11" lengthAdjust="spacing" textLength="69" x="389.5" y="648.2104">-String code</text><text fill="#000000" font-family="sans-serif" font-size="11" lengthAdjust="spacing" textLength="103" x="389.5" y="661.0151">-String shortName</text><text fill="#000000" font-family="sans-serif" font-size="11" lengthAdjust="spacing" textLength="103" x="389.5" y="673.8198">-String description</text><line style="stroke:#A80036;stroke-width:1.5;" x1="384.5" x2="660.5" y1="680.4141" y2="680.4141"/><text fill="#000000" font-family="sans-serif" font-size="11" lengthAdjust="spacing" textLength="266" x="389.5" y="694.6245">+Parameter(code, shortName, description, cat)</text><!--MD5=[be7802b157a16874d39c59ca0e2b25be]
class ParameterStore--><rect codeLine="19" fill="#FEFECE" filter="url(#fp7h3xru32mo9)" height="86.4141" id="ParameterStore" style="stroke:#A80036;stroke-width:1.5;" width="315" x="7" y="439"/><ellipse cx="113.25" cy="455" fill="#ADD1B2" rx="11" ry="11" style="stroke:#A80036;stroke-width:1.0;"/><path d="M115.5938,450.6719 C114.6563,450.2344 114.0625,450.0938 113.1875,450.0938 C110.5625,450.0938 108.5625,452.1719 108.5625,454.8906 L108.5625,456.0156 C108.5625,458.5938 110.6719,460.4844 113.5625,460.4844 C114.7813,460.4844 115.9375,460.1875 116.6875,459.6406 C117.2656,459.2344 117.5938,458.7813 117.5938,458.3906 C117.5938,457.9375 117.2031,457.5469 116.7344,457.5469 C116.5156,457.5469 116.3125,457.625 116.125,457.8125 C115.6719,458.2969 115.6719,458.2969 115.4844,458.3906 C115.0625,458.6563 114.375,458.7813 113.6094,458.7813 C111.5625,458.7813 110.2656,457.6875 110.2656,455.9844 L110.2656,454.8906 C110.2656,453.1094 111.5156,451.7969 113.25,451.7969 C113.8281,451.7969 114.4375,451.9531 114.9063,452.2031 C115.3906,452.4844 115.5625,452.7031 115.6563,453.1094 C115.7188,453.5156 115.75,453.6406 115.8906,453.7656 C116.0313,453.9063 116.2656,454.0156 116.4844,454.0156 C116.75,454.0156 117.0156,453.875 117.1875,453.6563 C117.2969,453.5 117.3281,453.3125 117.3281,452.8906 L117.3281,451.4688 C117.3281,451.0313 117.3125,450.9063 117.2188,450.75 C117.0625,450.4844 116.7813,450.3438 116.4844,450.3438 C116.1875,450.3438 115.9844,450.4375 115.7656,450.75 L115.5938,450.6719 Z " fill="#000000"/><text fill="#000000" font-family="sans-serif" font-size="12" lengthAdjust="spacing" textLength="94" x="133.75" y="459.1543">ParameterStore</text><line style="stroke:#A80036;stroke-width:1.5;" x1="8" x2="321" y1="471" y2="471"/><line style="stroke:#A80036;stroke-width:1.5;" x1="8" x2="321" y1="479" y2="479"/><text fill="#000000" font-family="sans-serif" font-size="11" lengthAdjust="spacing" textLength="303" x="13" y="493.2104">+createParameter(code, shortName, description, cat)</text><text fill="#000000" font-family="sans-serif" font-size="11" lengthAdjust="spacing" textLength="182" x="13" y="506.0151">+validateParameter(parameter)</text><text fill="#000000" font-family="sans-serif" font-size="11" lengthAdjust="spacing" textLength="164" x="13" y="518.8198">+saveParameter(parameter)</text><!--MD5=[d802db621b5b215a6f0466f93cefcb42]
class ParameterCategoryStore--><rect codeLine="25" fill="#FEFECE" filter="url(#fp7h3xru32mo9)" height="60.8047" id="ParameterCategoryStore" style="stroke:#A80036;stroke-width:1.5;" width="284" x="357.5" y="451.5"/><ellipse cx="420.75" cy="467.5" fill="#ADD1B2" rx="11" ry="11" style="stroke:#A80036;stroke-width:1.0;"/><path d="M423.0938,463.1719 C422.1563,462.7344 421.5625,462.5938 420.6875,462.5938 C418.0625,462.5938 416.0625,464.6719 416.0625,467.3906 L416.0625,468.5156 C416.0625,471.0938 418.1719,472.9844 421.0625,472.9844 C422.2813,472.9844 423.4375,472.6875 424.1875,472.1406 C424.7656,471.7344 425.0938,471.2813 425.0938,470.8906 C425.0938,470.4375 424.7031,470.0469 424.2344,470.0469 C424.0156,470.0469 423.8125,470.125 423.625,470.3125 C423.1719,470.7969 423.1719,470.7969 422.9844,470.8906 C422.5625,471.1563 421.875,471.2813 421.1094,471.2813 C419.0625,471.2813 417.7656,470.1875 417.7656,468.4844 L417.7656,467.3906 C417.7656,465.6094 419.0156,464.2969 420.75,464.2969 C421.3281,464.2969 421.9375,464.4531 422.4063,464.7031 C422.8906,464.9844 423.0625,465.2031 423.1563,465.6094 C423.2188,466.0156 423.25,466.1406 423.3906,466.2656 C423.5313,466.4063 423.7656,466.5156 423.9844,466.5156 C424.25,466.5156 424.5156,466.375 424.6875,466.1563 C424.7969,466 424.8281,465.8125 424.8281,465.3906 L424.8281,463.9688 C424.8281,463.5313 424.8125,463.4063 424.7188,463.25 C424.5625,462.9844 424.2813,462.8438 423.9844,462.8438 C423.6875,462.8438 423.4844,462.9375 423.2656,463.25 L423.0938,463.1719 Z " fill="#000000"/><text fill="#000000" font-family="sans-serif" font-size="12" lengthAdjust="spacing" textLength="149" x="441.25" y="471.6543">ParameterCategoryStore</text><line style="stroke:#A80036;stroke-width:1.5;" x1="358.5" x2="640.5" y1="483.5" y2="483.5"/><line style="stroke:#A80036;stroke-width:1.5;" x1="358.5" x2="640.5" y1="491.5" y2="491.5"/><text fill="#000000" font-family="sans-serif" font-size="11" lengthAdjust="spacing" textLength="272" x="363.5" y="505.7104">+getParameterCategoryByCode(categoryCode)</text><!--MD5=[b9009a04d919d78a73c2eeec1e385786]
class CreateParameterController--><rect codeLine="30" fill="#FEFECE" filter="url(#fp7h3xru32mo9)" height="86.4141" id="CreateParameterController" style="stroke:#A80036;stroke-width:1.5;" width="315" x="305" y="116"/><ellipse cx="378.25" cy="132" fill="#ADD1B2" rx="11" ry="11" style="stroke:#A80036;stroke-width:1.0;"/><path d="M380.5938,127.6719 C379.6563,127.2344 379.0625,127.0938 378.1875,127.0938 C375.5625,127.0938 373.5625,129.1719 373.5625,131.8906 L373.5625,133.0156 C373.5625,135.5938 375.6719,137.4844 378.5625,137.4844 C379.7813,137.4844 380.9375,137.1875 381.6875,136.6406 C382.2656,136.2344 382.5938,135.7813 382.5938,135.3906 C382.5938,134.9375 382.2031,134.5469 381.7344,134.5469 C381.5156,134.5469 381.3125,134.625 381.125,134.8125 C380.6719,135.2969 380.6719,135.2969 380.4844,135.3906 C380.0625,135.6563 379.375,135.7813 378.6094,135.7813 C376.5625,135.7813 375.2656,134.6875 375.2656,132.9844 L375.2656,131.8906 C375.2656,130.1094 376.5156,128.7969 378.25,128.7969 C378.8281,128.7969 379.4375,128.9531 379.9063,129.2031 C380.3906,129.4844 380.5625,129.7031 380.6563,130.1094 C380.7188,130.5156 380.75,130.6406 380.8906,130.7656 C381.0313,130.9063 381.2656,131.0156 381.4844,131.0156 C381.75,131.0156 382.0156,130.875 382.1875,130.6563 C382.2969,130.5 382.3281,130.3125 382.3281,129.8906 L382.3281,128.4688 C382.3281,128.0313 382.3125,127.9063 382.2188,127.75 C382.0625,127.4844 381.7813,127.3438 381.4844,127.3438 C381.1875,127.3438 380.9844,127.4375 380.7656,127.75 L380.5938,127.6719 Z " fill="#000000"/><text fill="#000000" font-family="sans-serif" font-size="12" lengthAdjust="spacing" textLength="160" x="398.75" y="136.1543">CreateParameterController</text><line style="stroke:#A80036;stroke-width:1.5;" x1="306" x2="619" y1="148" y2="148"/><line style="stroke:#A80036;stroke-width:1.5;" x1="306" x2="619" y1="156" y2="156"/><text fill="#000000" font-family="sans-serif" font-size="11" lengthAdjust="spacing" textLength="157" x="311" y="170.2104">+getParameterCategories()</text><text fill="#000000" font-family="sans-serif" font-size="11" lengthAdjust="spacing" textLength="303" x="311" y="183.0151">+createParameter(code, shortName, description, cat)</text><text fill="#000000" font-family="sans-serif" font-size="11" lengthAdjust="spacing" textLength="104" x="311" y="195.8198">+saveParameter()</text><!--MD5=[5518e6815e09c51d4db6e17774f331d2]
class CreateParameterUI--><rect codeLine="36" fill="#FEFECE" filter="url(#fp7h3xru32mo9)" height="48" id="CreateParameterUI" style="stroke:#A80036;stroke-width:1.5;" width="145" x="390" y="7"/><ellipse cx="405" cy="23" fill="#ADD1B2" rx="11" ry="11" style="stroke:#A80036;stroke-width:1.0;"/><path d="M407.3438,18.6719 C406.4063,18.2344 405.8125,18.0938 404.9375,18.0938 C402.3125,18.0938 400.3125,20.1719 400.3125,22.8906 L400.3125,24.0156 C400.3125,26.5938 402.4219,28.4844 405.3125,28.4844 C406.5313,28.4844 407.6875,28.1875 408.4375,27.6406 C409.0156,27.2344 409.3438,26.7813 409.3438,26.3906 C409.3438,25.9375 408.9531,25.5469 408.4844,25.5469 C408.2656,25.5469 408.0625,25.625 407.875,25.8125 C407.4219,26.2969 407.4219,26.2969 407.2344,26.3906 C406.8125,26.6563 406.125,26.7813 405.3594,26.7813 C403.3125,26.7813 402.0156,25.6875 402.0156,23.9844 L402.0156,22.8906 C402.0156,21.1094 403.2656,19.7969 405,19.7969 C405.5781,19.7969 406.1875,19.9531 406.6563,20.2031 C407.1406,20.4844 407.3125,20.7031 407.4063,21.1094 C407.4688,21.5156 407.5,21.6406 407.6406,21.7656 C407.7813,21.9063 408.0156,22.0156 408.2344,22.0156 C408.5,22.0156 408.7656,21.875 408.9375,21.6563 C409.0469,21.5 409.0781,21.3125 409.0781,20.8906 L409.0781,19.4688 C409.0781,19.0313 409.0625,18.9063 408.9688,18.75 C408.8125,18.4844 408.5313,18.3438 408.2344,18.3438 C407.9375,18.3438 407.7344,18.4375 407.5156,18.75 L407.3438,18.6719 Z " fill="#000000"/><text fill="#000000" font-family="sans-serif" font-size="12" lengthAdjust="spacing" textLength="113" x="419" y="27.1543">CreateParameterUI</text><line style="stroke:#A80036;stroke-width:1.5;" x1="391" x2="534" y1="39" y2="39"/><line style="stroke:#A80036;stroke-width:1.5;" x1="391" x2="534" y1="47" y2="47"/><!--MD5=[9d3dd688f78c4545f26622cd23f9dd25]
link CreateParameterUI to CreateParameterController--><path codeLine="40" d="M462.5,55.11 C462.5,70.631 462.5,91.639 462.5,110.625 " fill="none" id="CreateParameterUI-to-CreateParameterController" style="stroke:#A80036;stroke-width:1.0;stroke-dasharray:7.0,7.0;"/><polygon fill="#A80036" points="462.5,115.921,466.5,106.921,462.5,110.921,458.5,106.921,462.5,115.921" style="stroke:#A80036;stroke-width:1.0;"/><!--MD5=[c56d23af98be554523068ac4fbdb568e]
link CreateParameterController to Parameter--><path codeLine="41" d="M505.003,202.17 C553.033,253.116 628.433,343.896 658.5,439 C670.022,475.444 673.833,489.988 658.5,525 C646.012,553.516 623.495,578.424 600.328,598.371 " fill="none" id="CreateParameterController-to-Parameter" style="stroke:#A80036;stroke-width:1.0;stroke-dasharray:7.0,7.0;"/><polygon fill="#A80036" points="596.303,601.7829,605.755,599.0152,600.1173,598.5501,600.5824,592.9124,596.303,601.7829" style="stroke:#A80036;stroke-width:1.0;"/><!--MD5=[46706d5726812879537e05899d80bc9e]
link CreateParameterController to ParameterStore--><path codeLine="42" d="M324.999,202.071 C293.234,217.112 261.927,237.008 238.5,263 C195.255,310.981 177.119,385.262 169.625,433.515 " fill="none" id="CreateParameterController-to-ParameterStore" style="stroke:#A80036;stroke-width:1.0;stroke-dasharray:7.0,7.0;"/><polygon fill="#A80036" points="168.847,438.683,174.1422,430.3787,169.5913,433.7387,166.2313,429.1878,168.847,438.683" style="stroke:#A80036;stroke-width:1.0;"/><!--MD5=[d4acd0f9b6f472dc8c1d58fc6da00ca5]
link CreateParameterController to ParameterCategoryStore--><path codeLine="43" d="M467.375,202.295 C474.766,266.415 488.667,387.014 495.501,446.302 " fill="none" id="CreateParameterController-to-ParameterCategoryStore" style="stroke:#A80036;stroke-width:1.0;stroke-dasharray:7.0,7.0;"/><polygon fill="#A80036" points="496.1,451.499,499.0425,442.1,495.5272,446.5319,491.0952,443.0165,496.1,451.499" style="stroke:#A80036;stroke-width:1.0;"/><!--MD5=[6d585fb02c26694275539b4f1508918e]
link CreateParameterController to Company--><path codeLine="44" d="M431.58,202.201 C418.758,219.702 403.742,240.196 390.2,258.68 " fill="none" id="CreateParameterController-to-Company" style="stroke:#A80036;stroke-width:1.0;stroke-dasharray:7.0,7.0;"/><polygon fill="#A80036" points="387.154,262.837,395.7005,257.9424,390.1097,258.8042,389.248,253.2133,387.154,262.837" style="stroke:#A80036;stroke-width:1.0;"/><!--MD5=[daf3d7412afa2c7651483be0b6e971d1]
link Company to ParameterStore--><path codeLine="45" d="M297.161,362.173 C271.468,385.186 240.961,412.512 215.683,435.154 " fill="none" id="Company-to-ParameterStore" style="stroke:#A80036;stroke-width:1.0;stroke-dasharray:7.0,7.0;"/><polygon fill="#A80036" points="211.672,438.747,221.0448,435.722,215.3965,435.4111,215.7074,429.7628,211.672,438.747" style="stroke:#A80036;stroke-width:1.0;"/><text fill="#000000" font-family="sans-serif" font-size="13" lengthAdjust="spacing" textLength="30" x="265.5" y="405.0669">uses</text><text fill="#000000" font-family="sans-serif" font-size="13" lengthAdjust="spacing" textLength="8" x="280.9571" y="382.2738">1</text><text fill="#000000" font-family="sans-serif" font-size="13" lengthAdjust="spacing" textLength="8" x="210.2827" y="428.0208">1</text><!--MD5=[d53d7490e5836ca5709858d7326f212b]
link Company to ParameterCategoryStore--><path codeLine="46" d="M394.706,362.398 C418.84,389.713 448.293,423.047 469.822,447.412 " fill="none" id="Company-to-ParameterCategoryStore" style="stroke:#A80036;stroke-width:1.0;stroke-dasharray:7.0,7.0;"/><polygon fill="#A80036" points="473.207,451.243,470.2445,441.8502,469.896,447.4964,464.2499,447.1478,473.207,451.243" style="stroke:#A80036;stroke-width:1.0;"/><text fill="#000000" font-family="sans-serif" font-size="13" lengthAdjust="spacing" textLength="30" x="435.5" y="405.0669">uses</text><text fill="#000000" font-family="sans-serif" font-size="13" lengthAdjust="spacing" textLength="8" x="391.9743" y="382.172">1</text><text fill="#000000" font-family="sans-serif" font-size="13" lengthAdjust="spacing" textLength="8" x="458.9591" y="440.4532">1</text><!--MD5=[a0992dda039fed1bb57aff5aacace800]
link ParameterStore to Parameter--><path codeLine="47" d="M254.376,525.051 C302.83,547.722 362.982,575.865 414.026,599.747 " fill="none" id="ParameterStore-to-Parameter" style="stroke:#A80036;stroke-width:1.0;stroke-dasharray:7.0,7.0;"/><polygon fill="#A80036" points="418.622,601.8978,412.167,594.4592,414.0937,599.7778,408.775,601.7045,418.622,601.8978" style="stroke:#A80036;stroke-width:1.0;"/><text fill="#000000" font-family="sans-serif" font-size="13" lengthAdjust="spacing" textLength="132" x="355.5" y="568.0669">capable of analysing</text><text fill="#000000" font-family="sans-serif" font-size="13" lengthAdjust="spacing" textLength="8" x="260.5992" y="545.4671">1</text><text fill="#000000" font-family="sans-serif" font-size="13" lengthAdjust="spacing" textLength="7" x="396.522" y="590.9289">*</text><!--MD5=[583ca99e64c732be8a505f7d0ee4d950]
@startuml
skinparam classAttributeIconSize 0

class Company
{
  -String designation
  +getParameterCategoryStore()
  +getParameterCategory()
  +getParameterStore()
}


class Parameter {
  -String code
  -String shortName
  -String description
  +Parameter(code, shortName, description, cat)
}

class ParameterStore {
  +createParameter(code, shortName, description, cat)
  +validateParameter(parameter)
  +saveParameter(parameter)
}

class ParameterCategoryStore {
  +getParameterCategoryByCode(categoryCode)
}


class CreateParameterController {
  +getParameterCategories()
  +createParameter(code, shortName, description, cat)
  +saveParameter()
}

class CreateParameterUI {

}

CreateParameterUI ..> CreateParameterController
CreateParameterController ..> Parameter
CreateParameterController ..> ParameterStore
CreateParameterController ..> ParameterCategoryStore
CreateParameterController ..> Company
Company "1" ..> "1" ParameterStore : uses
Company "1" ..> "1" ParameterCategoryStore : uses
ParameterStore "1" ..> "*" Parameter : capable of analysing
@enduml

PlantUML version 1.2021.6beta4(Unknown compile time)
(GPL source distribution)
Java Runtime: Java(TM) SE Runtime Environment
JVM: Java HotSpot(TM) 64-Bit Server VM
Default Encoding: UTF-8
Language: en
Country: US
--></g></svg>