<?xml version="1.0" encoding="UTF-8" standalone="no"?><svg xmlns="http://www.w3.org/2000/svg" xmlns:xlink="http://www.w3.org/1999/xlink" contentScriptType="application/ecmascript" contentStyleType="text/css" height="960px" preserveAspectRatio="none" style="width:862px;height:960px;background:#FFFFFF;" version="1.1" viewBox="0 0 862 960" width="862px" zoomAndPan="magnify"><defs><filter height="300%" id="f17v2twdg706uz" width="300%" x="-1" y="-1"><feGaussianBlur result="blurOut" stdDeviation="2.0"/><feColorMatrix in="blurOut" result="blurOut2" type="matrix" values="0 0 0 0 0 0 0 0 0 0 0 0 0 0 0 0 0 0 .4 0"/><feOffset dx="4.0" dy="4.0" in="blurOut2" result="blurOut3"/><feBlend in="SourceGraphic" in2="blurOut3" mode="normal"/></filter></defs><g><!--MD5=[02e4b9b7573f1156f41e60aa5b4e25a4]
class Company--><rect codeLine="3" fill="#FEFECE" filter="url(#f17v2twdg706uz)" height="99.2188" id="Company" style="stroke:#A80036;stroke-width:1.5;" width="190" x="268.3171" y="263"/><ellipse cx="331.0671" cy="279" fill="#ADD1B2" rx="11" ry="11" style="stroke:#A80036;stroke-width:1.0;"/><path d="M333.4109,274.6719 C332.4734,274.2344 331.8796,274.0938 331.0046,274.0938 C328.3796,274.0938 326.3796,276.1719 326.3796,278.8906 L326.3796,280.0156 C326.3796,282.5938 328.489,284.4844 331.3796,284.4844 C332.5984,284.4844 333.7546,284.1875 334.5046,283.6406 C335.0827,283.2344 335.4109,282.7813 335.4109,282.3906 C335.4109,281.9375 335.0202,281.5469 334.5515,281.5469 C334.3327,281.5469 334.1296,281.625 333.9421,281.8125 C333.489,282.2969 333.489,282.2969 333.3015,282.3906 C332.8796,282.6563 332.1921,282.7813 331.4265,282.7813 C329.3796,282.7813 328.0827,281.6875 328.0827,279.9844 L328.0827,278.8906 C328.0827,277.1094 329.3327,275.7969 331.0671,275.7969 C331.6452,275.7969 332.2546,275.9531 332.7234,276.2031 C333.2077,276.4844 333.3796,276.7031 333.4734,277.1094 C333.5359,277.5156 333.5671,277.6406 333.7077,277.7656 C333.8484,277.9063 334.0827,278.0156 334.3015,278.0156 C334.5671,278.0156 334.8327,277.875 335.0046,277.6563 C335.114,277.5 335.1452,277.3125 335.1452,276.8906 L335.1452,275.4688 C335.1452,275.0313 335.1296,274.9063 335.0359,274.75 C334.8796,274.4844 334.5984,274.3438 334.3015,274.3438 C334.0046,274.3438 333.8015,274.4375 333.5827,274.75 L333.4109,274.6719 Z " fill="#000000"/><text fill="#000000" font-family="sans-serif" font-size="12" lengthAdjust="spacing" textLength="56" x="351.5671" y="283.1543">Company</text><line style="stroke:#A80036;stroke-width:1.5;" x1="269.3171" x2="457.3171" y1="295" y2="295"/><text fill="#000000" font-family="sans-serif" font-size="11" lengthAdjust="spacing" textLength="107" x="274.3171" y="309.2104">-String designation</text><line style="stroke:#A80036;stroke-width:1.5;" x1="269.3171" x2="457.3171" y1="315.8047" y2="315.8047"/><text fill="#000000" font-family="sans-serif" font-size="11" lengthAdjust="spacing" textLength="178" x="274.3171" y="330.0151">+getParameterCategoryStore()</text><text fill="#000000" font-family="sans-serif" font-size="11" lengthAdjust="spacing" textLength="147" x="274.3171" y="342.8198">+getParameterCategory()</text><text fill="#000000" font-family="sans-serif" font-size="11" lengthAdjust="spacing" textLength="126" x="274.3171" y="355.6245">+getParameterStore()</text><!--MD5=[1f6362a5c8f21d8d6a0fce68f3a92a4e]
class Parameter--><rect codeLine="12" fill="#FEFECE" filter="url(#f17v2twdg706uz)" height="112.0234" id="Parameter" style="stroke:#A80036;stroke-width:1.5;" width="278" x="76.3176" y="671"/><ellipse cx="180.5676" cy="687" fill="#ADD1B2" rx="11" ry="11" style="stroke:#A80036;stroke-width:1.0;"/><path d="M182.9114,682.6719 C181.9739,682.2344 181.3801,682.0938 180.5051,682.0938 C177.8801,682.0938 175.8801,684.1719 175.8801,686.8906 L175.8801,688.0156 C175.8801,690.5938 177.9895,692.4844 180.8801,692.4844 C182.0989,692.4844 183.2551,692.1875 184.0051,691.6406 C184.5832,691.2344 184.9114,690.7813 184.9114,690.3906 C184.9114,689.9375 184.5207,689.5469 184.052,689.5469 C183.8332,689.5469 183.6301,689.625 183.4426,689.8125 C182.9895,690.2969 182.9895,690.2969 182.802,690.3906 C182.3801,690.6563 181.6926,690.7813 180.927,690.7813 C178.8801,690.7813 177.5832,689.6875 177.5832,687.9844 L177.5832,686.8906 C177.5832,685.1094 178.8332,683.7969 180.5676,683.7969 C181.1457,683.7969 181.7551,683.9531 182.2239,684.2031 C182.7082,684.4844 182.8801,684.7031 182.9739,685.1094 C183.0364,685.5156 183.0676,685.6406 183.2082,685.7656 C183.3489,685.9063 183.5832,686.0156 183.802,686.0156 C184.0676,686.0156 184.3332,685.875 184.5051,685.6563 C184.6145,685.5 184.6457,685.3125 184.6457,684.8906 L184.6457,683.4688 C184.6457,683.0313 184.6301,682.9063 184.5364,682.75 C184.3801,682.4844 184.0989,682.3438 183.802,682.3438 C183.5051,682.3438 183.302,682.4375 183.0832,682.75 L182.9114,682.6719 Z " fill="#000000"/><text fill="#000000" font-family="sans-serif" font-size="12" lengthAdjust="spacing" textLength="61" x="201.0676" y="691.1543">Parameter</text><line style="stroke:#A80036;stroke-width:1.5;" x1="77.3176" x2="353.3176" y1="703" y2="703"/><text fill="#000000" font-family="sans-serif" font-size="11" lengthAdjust="spacing" textLength="69" x="82.3176" y="717.2104">-String code</text><text fill="#000000" font-family="sans-serif" font-size="11" lengthAdjust="spacing" textLength="103" x="82.3176" y="730.0151">-String shortName</text><text fill="#000000" font-family="sans-serif" font-size="11" lengthAdjust="spacing" textLength="103" x="82.3176" y="742.8198">-String description</text><text fill="#000000" font-family="sans-serif" font-size="11" lengthAdjust="spacing" textLength="169" x="82.3176" y="755.6245">-ParameterCategory category</text><line style="stroke:#A80036;stroke-width:1.5;" x1="77.3176" x2="353.3176" y1="762.2188" y2="762.2188"/><text fill="#000000" font-family="sans-serif" font-size="11" lengthAdjust="spacing" textLength="266" x="82.3176" y="776.4292">+Parameter(code, shortName, description, cat)</text><!--MD5=[be7802b157a16874d39c59ca0e2b25be]
class ParameterStore--><rect codeLine="20" fill="#FEFECE" filter="url(#f17v2twdg706uz)" height="86.4141" id="ParameterStore" style="stroke:#A80036;stroke-width:1.5;" width="315" x="57.8176" y="439"/><ellipse cx="164.0676" cy="455" fill="#ADD1B2" rx="11" ry="11" style="stroke:#A80036;stroke-width:1.0;"/><path d="M166.4114,450.6719 C165.4739,450.2344 164.8801,450.0938 164.0051,450.0938 C161.3801,450.0938 159.3801,452.1719 159.3801,454.8906 L159.3801,456.0156 C159.3801,458.5938 161.4895,460.4844 164.3801,460.4844 C165.5989,460.4844 166.7551,460.1875 167.5051,459.6406 C168.0832,459.2344 168.4114,458.7813 168.4114,458.3906 C168.4114,457.9375 168.0207,457.5469 167.552,457.5469 C167.3332,457.5469 167.1301,457.625 166.9426,457.8125 C166.4895,458.2969 166.4895,458.2969 166.302,458.3906 C165.8801,458.6563 165.1926,458.7813 164.427,458.7813 C162.3801,458.7813 161.0832,457.6875 161.0832,455.9844 L161.0832,454.8906 C161.0832,453.1094 162.3332,451.7969 164.0676,451.7969 C164.6457,451.7969 165.2551,451.9531 165.7239,452.2031 C166.2082,452.4844 166.3801,452.7031 166.4739,453.1094 C166.5364,453.5156 166.5676,453.6406 166.7082,453.7656 C166.8489,453.9063 167.0832,454.0156 167.302,454.0156 C167.5676,454.0156 167.8332,453.875 168.0051,453.6563 C168.1145,453.5 168.1457,453.3125 168.1457,452.8906 L168.1457,451.4688 C168.1457,451.0313 168.1301,450.9063 168.0364,450.75 C167.8801,450.4844 167.5989,450.3438 167.302,450.3438 C167.0051,450.3438 166.802,450.4375 166.5832,450.75 L166.4114,450.6719 Z " fill="#000000"/><text fill="#000000" font-family="sans-serif" font-size="12" lengthAdjust="spacing" textLength="94" x="184.5676" y="459.1543">ParameterStore</text><line style="stroke:#A80036;stroke-width:1.5;" x1="58.8176" x2="371.8176" y1="471" y2="471"/><line style="stroke:#A80036;stroke-width:1.5;" x1="58.8176" x2="371.8176" y1="479" y2="479"/><text fill="#000000" font-family="sans-serif" font-size="11" lengthAdjust="spacing" textLength="303" x="63.8176" y="493.2104">+createParameter(code, shortName, description, cat)</text><text fill="#000000" font-family="sans-serif" font-size="11" lengthAdjust="spacing" textLength="182" x="63.8176" y="506.0151">+validateParameter(parameter)</text><text fill="#000000" font-family="sans-serif" font-size="11" lengthAdjust="spacing" textLength="164" x="63.8176" y="518.8198">+saveParameter(parameter)</text><!--MD5=[d802db621b5b215a6f0466f93cefcb42]
class ParameterCategoryStore--><rect codeLine="26" fill="#FEFECE" filter="url(#f17v2twdg706uz)" height="73.6094" id="ParameterCategoryStore" style="stroke:#A80036;stroke-width:1.5;" width="284" x="408.3171" y="445"/><ellipse cx="471.5671" cy="461" fill="#ADD1B2" rx="11" ry="11" style="stroke:#A80036;stroke-width:1.0;"/><path d="M473.9109,456.6719 C472.9734,456.2344 472.3796,456.0938 471.5046,456.0938 C468.8796,456.0938 466.8796,458.1719 466.8796,460.8906 L466.8796,462.0156 C466.8796,464.5938 468.989,466.4844 471.8796,466.4844 C473.0984,466.4844 474.2546,466.1875 475.0046,465.6406 C475.5827,465.2344 475.9109,464.7813 475.9109,464.3906 C475.9109,463.9375 475.5202,463.5469 475.0515,463.5469 C474.8327,463.5469 474.6296,463.625 474.4421,463.8125 C473.989,464.2969 473.989,464.2969 473.8015,464.3906 C473.3796,464.6563 472.6921,464.7813 471.9265,464.7813 C469.8796,464.7813 468.5827,463.6875 468.5827,461.9844 L468.5827,460.8906 C468.5827,459.1094 469.8327,457.7969 471.5671,457.7969 C472.1452,457.7969 472.7546,457.9531 473.2234,458.2031 C473.7077,458.4844 473.8796,458.7031 473.9734,459.1094 C474.0359,459.5156 474.0671,459.6406 474.2077,459.7656 C474.3484,459.9063 474.5827,460.0156 474.8015,460.0156 C475.0671,460.0156 475.3327,459.875 475.5046,459.6563 C475.614,459.5 475.6452,459.3125 475.6452,458.8906 L475.6452,457.4688 C475.6452,457.0313 475.6296,456.9063 475.5359,456.75 C475.3796,456.4844 475.0984,456.3438 474.8015,456.3438 C474.5046,456.3438 474.3015,456.4375 474.0827,456.75 L473.9109,456.6719 Z " fill="#000000"/><text fill="#000000" font-family="sans-serif" font-size="12" lengthAdjust="spacing" textLength="149" x="492.0671" y="465.1543">ParameterCategoryStore</text><line style="stroke:#A80036;stroke-width:1.5;" x1="409.3171" x2="691.3171" y1="477" y2="477"/><line style="stroke:#A80036;stroke-width:1.5;" x1="409.3171" x2="691.3171" y1="485" y2="485"/><text fill="#000000" font-family="sans-serif" font-size="11" lengthAdjust="spacing" textLength="272" x="414.3171" y="499.2104">+getParameterCategoryByCode(categoryCode)</text><text fill="#000000" font-family="sans-serif" font-size="11" lengthAdjust="spacing" textLength="157" x="414.3171" y="512.0151">+getParameterCategories()</text><!--MD5=[b9009a04d919d78a73c2eeec1e385786]
class CreateParameterController--><rect codeLine="32" fill="#FEFECE" filter="url(#f17v2twdg706uz)" height="86.4141" id="CreateParameterController" style="stroke:#A80036;stroke-width:1.5;" width="315" x="205.8171" y="116"/><ellipse cx="279.0671" cy="132" fill="#ADD1B2" rx="11" ry="11" style="stroke:#A80036;stroke-width:1.0;"/><path d="M281.4109,127.6719 C280.4734,127.2344 279.8796,127.0938 279.0046,127.0938 C276.3796,127.0938 274.3796,129.1719 274.3796,131.8906 L274.3796,133.0156 C274.3796,135.5938 276.489,137.4844 279.3796,137.4844 C280.5984,137.4844 281.7546,137.1875 282.5046,136.6406 C283.0827,136.2344 283.4109,135.7813 283.4109,135.3906 C283.4109,134.9375 283.0202,134.5469 282.5515,134.5469 C282.3327,134.5469 282.1296,134.625 281.9421,134.8125 C281.489,135.2969 281.489,135.2969 281.3015,135.3906 C280.8796,135.6563 280.1921,135.7813 279.4265,135.7813 C277.3796,135.7813 276.0827,134.6875 276.0827,132.9844 L276.0827,131.8906 C276.0827,130.1094 277.3327,128.7969 279.0671,128.7969 C279.6452,128.7969 280.2546,128.9531 280.7234,129.2031 C281.2077,129.4844 281.3796,129.7031 281.4734,130.1094 C281.5359,130.5156 281.5671,130.6406 281.7077,130.7656 C281.8484,130.9063 282.0827,131.0156 282.3015,131.0156 C282.5671,131.0156 282.8327,130.875 283.0046,130.6563 C283.114,130.5 283.1452,130.3125 283.1452,129.8906 L283.1452,128.4688 C283.1452,128.0313 283.1296,127.9063 283.0359,127.75 C282.8796,127.4844 282.5984,127.3438 282.3015,127.3438 C282.0046,127.3438 281.8015,127.4375 281.5827,127.75 L281.4109,127.6719 Z " fill="#000000"/><text fill="#000000" font-family="sans-serif" font-size="12" lengthAdjust="spacing" textLength="160" x="299.5671" y="136.1543">CreateParameterController</text><line style="stroke:#A80036;stroke-width:1.5;" x1="206.8171" x2="519.8171" y1="148" y2="148"/><line style="stroke:#A80036;stroke-width:1.5;" x1="206.8171" x2="519.8171" y1="156" y2="156"/><text fill="#000000" font-family="sans-serif" font-size="11" lengthAdjust="spacing" textLength="157" x="211.8171" y="170.2104">+getParameterCategories()</text><text fill="#000000" font-family="sans-serif" font-size="11" lengthAdjust="spacing" textLength="303" x="211.8171" y="183.0151">+createParameter(code, shortName, description, cat)</text><text fill="#000000" font-family="sans-serif" font-size="11" lengthAdjust="spacing" textLength="104" x="211.8171" y="195.8198">+saveParameter()</text><!--MD5=[5518e6815e09c51d4db6e17774f331d2]
class CreateParameterUI--><rect codeLine="38" fill="#FEFECE" filter="url(#f17v2twdg706uz)" height="48" id="CreateParameterUI" style="stroke:#A80036;stroke-width:1.5;" width="145" x="290.8171" y="7"/><ellipse cx="305.8171" cy="23" fill="#ADD1B2" rx="11" ry="11" style="stroke:#A80036;stroke-width:1.0;"/><path d="M308.1609,18.6719 C307.2234,18.2344 306.6296,18.0938 305.7546,18.0938 C303.1296,18.0938 301.1296,20.1719 301.1296,22.8906 L301.1296,24.0156 C301.1296,26.5938 303.239,28.4844 306.1296,28.4844 C307.3484,28.4844 308.5046,28.1875 309.2546,27.6406 C309.8327,27.2344 310.1609,26.7813 310.1609,26.3906 C310.1609,25.9375 309.7702,25.5469 309.3015,25.5469 C309.0827,25.5469 308.8796,25.625 308.6921,25.8125 C308.239,26.2969 308.239,26.2969 308.0515,26.3906 C307.6296,26.6563 306.9421,26.7813 306.1765,26.7813 C304.1296,26.7813 302.8327,25.6875 302.8327,23.9844 L302.8327,22.8906 C302.8327,21.1094 304.0827,19.7969 305.8171,19.7969 C306.3952,19.7969 307.0046,19.9531 307.4734,20.2031 C307.9577,20.4844 308.1296,20.7031 308.2234,21.1094 C308.2859,21.5156 308.3171,21.6406 308.4577,21.7656 C308.5984,21.9063 308.8327,22.0156 309.0515,22.0156 C309.3171,22.0156 309.5827,21.875 309.7546,21.6563 C309.864,21.5 309.8952,21.3125 309.8952,20.8906 L309.8952,19.4688 C309.8952,19.0313 309.8796,18.9063 309.7859,18.75 C309.6296,18.4844 309.3484,18.3438 309.0515,18.3438 C308.7546,18.3438 308.5515,18.4375 308.3327,18.75 L308.1609,18.6719 Z " fill="#000000"/><text fill="#000000" font-family="sans-serif" font-size="12" lengthAdjust="spacing" textLength="113" x="319.8171" y="27.1543">CreateParameterUI</text><line style="stroke:#A80036;stroke-width:1.5;" x1="291.8171" x2="434.8171" y1="39" y2="39"/><line style="stroke:#A80036;stroke-width:1.5;" x1="291.8171" x2="434.8171" y1="47" y2="47"/><!--MD5=[fab6cba0d8a30102bb3e071a5ce00b91]
class ParameterCategoryMapper--><rect codeLine="42" fill="#FEFECE" filter="url(#f17v2twdg706uz)" height="60.8047" id="ParameterCategoryMapper" style="stroke:#A80036;stroke-width:1.5;" width="194" x="493.3171" y="282"/><ellipse cx="508.3171" cy="298" fill="#ADD1B2" rx="11" ry="11" style="stroke:#A80036;stroke-width:1.0;"/><path d="M510.6609,293.6719 C509.7234,293.2344 509.1296,293.0938 508.2546,293.0938 C505.6296,293.0938 503.6296,295.1719 503.6296,297.8906 L503.6296,299.0156 C503.6296,301.5938 505.739,303.4844 508.6296,303.4844 C509.8484,303.4844 511.0046,303.1875 511.7546,302.6406 C512.3327,302.2344 512.6609,301.7813 512.6609,301.3906 C512.6609,300.9375 512.2702,300.5469 511.8015,300.5469 C511.5827,300.5469 511.3796,300.625 511.1921,300.8125 C510.739,301.2969 510.739,301.2969 510.5515,301.3906 C510.1296,301.6563 509.4421,301.7813 508.6765,301.7813 C506.6296,301.7813 505.3327,300.6875 505.3327,298.9844 L505.3327,297.8906 C505.3327,296.1094 506.5827,294.7969 508.3171,294.7969 C508.8952,294.7969 509.5046,294.9531 509.9734,295.2031 C510.4577,295.4844 510.6296,295.7031 510.7234,296.1094 C510.7859,296.5156 510.8171,296.6406 510.9577,296.7656 C511.0984,296.9063 511.3327,297.0156 511.5515,297.0156 C511.8171,297.0156 512.0827,296.875 512.2546,296.6563 C512.364,296.5 512.3952,296.3125 512.3952,295.8906 L512.3952,294.4688 C512.3952,294.0313 512.3796,293.9063 512.2859,293.75 C512.1296,293.4844 511.8484,293.3438 511.5515,293.3438 C511.2546,293.3438 511.0515,293.4375 510.8327,293.75 L510.6609,293.6719 Z " fill="#000000"/><text fill="#000000" font-family="sans-serif" font-size="12" lengthAdjust="spacing" textLength="162" x="522.3171" y="302.1543">ParameterCategoryMapper</text><line style="stroke:#A80036;stroke-width:1.5;" x1="494.3171" x2="686.3171" y1="314" y2="314"/><line style="stroke:#A80036;stroke-width:1.5;" x1="494.3171" x2="686.3171" y1="322" y2="322"/><text fill="#000000" font-family="sans-serif" font-size="11" lengthAdjust="spacing" textLength="48" x="499.3171" y="336.2104">+toDto()</text><!--MD5=[ae4ce8b9e36cc829775f8966335bc94b]
class ParameterCategoryDto--><rect codeLine="46" fill="#FEFECE" filter="url(#f17v2twdg706uz)" height="86.4141" id="ParameterCategoryDto" style="stroke:#A80036;stroke-width:1.5;" width="210" x="638.3171" y="555"/><ellipse cx="671.7671" cy="571" fill="#ADD1B2" rx="11" ry="11" style="stroke:#A80036;stroke-width:1.0;"/><path d="M674.1109,566.6719 C673.1734,566.2344 672.5796,566.0938 671.7046,566.0938 C669.0796,566.0938 667.0796,568.1719 667.0796,570.8906 L667.0796,572.0156 C667.0796,574.5938 669.189,576.4844 672.0796,576.4844 C673.2984,576.4844 674.4546,576.1875 675.2046,575.6406 C675.7827,575.2344 676.1109,574.7813 676.1109,574.3906 C676.1109,573.9375 675.7202,573.5469 675.2515,573.5469 C675.0327,573.5469 674.8296,573.625 674.6421,573.8125 C674.189,574.2969 674.189,574.2969 674.0015,574.3906 C673.5796,574.6563 672.8921,574.7813 672.1265,574.7813 C670.0796,574.7813 668.7827,573.6875 668.7827,571.9844 L668.7827,570.8906 C668.7827,569.1094 670.0327,567.7969 671.7671,567.7969 C672.3452,567.7969 672.9546,567.9531 673.4234,568.2031 C673.9077,568.4844 674.0796,568.7031 674.1734,569.1094 C674.2359,569.5156 674.2671,569.6406 674.4077,569.7656 C674.5484,569.9063 674.7827,570.0156 675.0015,570.0156 C675.2671,570.0156 675.5327,569.875 675.7046,569.6563 C675.814,569.5 675.8452,569.3125 675.8452,568.8906 L675.8452,567.4688 C675.8452,567.0313 675.8296,566.9063 675.7359,566.75 C675.5796,566.4844 675.2984,566.3438 675.0015,566.3438 C674.7046,566.3438 674.5015,566.4375 674.2827,566.75 L674.1109,566.6719 Z " fill="#000000"/><text fill="#000000" font-family="sans-serif" font-size="12" lengthAdjust="spacing" textLength="137" x="689.8671" y="575.1543">ParameterCategoryDto</text><line style="stroke:#A80036;stroke-width:1.5;" x1="639.3171" x2="847.3171" y1="587" y2="587"/><text fill="#000000" font-family="sans-serif" font-size="11" lengthAdjust="spacing" textLength="69" x="644.3171" y="601.2104">-String code</text><text fill="#000000" font-family="sans-serif" font-size="11" lengthAdjust="spacing" textLength="74" x="644.3171" y="614.0151">-String name</text><line style="stroke:#A80036;stroke-width:1.5;" x1="639.3171" x2="847.3171" y1="620.6094" y2="620.6094"/><text fill="#000000" font-family="sans-serif" font-size="11" lengthAdjust="spacing" textLength="198" x="644.3171" y="634.8198">+ParameterCategoryDto(category)</text><!--MD5=[36afb6bbd95a8ac778c4537c55a683d5]
class ParameterCategory--><rect codeLine="52" fill="#FEFECE" filter="url(#f17v2twdg706uz)" height="86.4141" id="ParameterCategory" style="stroke:#A80036;stroke-width:1.5;" width="208" x="446.3171" y="860"/><ellipse cx="488.3171" cy="876" fill="#ADD1B2" rx="11" ry="11" style="stroke:#A80036;stroke-width:1.0;"/><path d="M490.6609,871.6719 C489.7234,871.2344 489.1296,871.0938 488.2546,871.0938 C485.6296,871.0938 483.6296,873.1719 483.6296,875.8906 L483.6296,877.0156 C483.6296,879.5938 485.739,881.4844 488.6296,881.4844 C489.8484,881.4844 491.0046,881.1875 491.7546,880.6406 C492.3327,880.2344 492.6609,879.7813 492.6609,879.3906 C492.6609,878.9375 492.2702,878.5469 491.8015,878.5469 C491.5827,878.5469 491.3796,878.625 491.1921,878.8125 C490.739,879.2969 490.739,879.2969 490.5515,879.3906 C490.1296,879.6563 489.4421,879.7813 488.6765,879.7813 C486.6296,879.7813 485.3327,878.6875 485.3327,876.9844 L485.3327,875.8906 C485.3327,874.1094 486.5827,872.7969 488.3171,872.7969 C488.8952,872.7969 489.5046,872.9531 489.9734,873.2031 C490.4577,873.4844 490.6296,873.7031 490.7234,874.1094 C490.7859,874.5156 490.8171,874.6406 490.9577,874.7656 C491.0984,874.9063 491.3327,875.0156 491.5515,875.0156 C491.8171,875.0156 492.0827,874.875 492.2546,874.6563 C492.364,874.5 492.3952,874.3125 492.3952,873.8906 L492.3952,872.4688 C492.3952,872.0313 492.3796,871.9063 492.2859,871.75 C492.1296,871.4844 491.8484,871.3438 491.5515,871.3438 C491.2546,871.3438 491.0515,871.4375 490.8327,871.75 L490.6609,871.6719 Z " fill="#000000"/><text fill="#000000" font-family="sans-serif" font-size="12" lengthAdjust="spacing" textLength="116" x="508.3171" y="880.1543">ParameterCategory</text><line style="stroke:#A80036;stroke-width:1.5;" x1="447.3171" x2="653.3171" y1="892" y2="892"/><text fill="#000000" font-family="sans-serif" font-size="11" lengthAdjust="spacing" textLength="74" x="452.3171" y="906.2104">-String name</text><text fill="#000000" font-family="sans-serif" font-size="11" lengthAdjust="spacing" textLength="69" x="452.3171" y="919.0151">-String code</text><line style="stroke:#A80036;stroke-width:1.5;" x1="447.3171" x2="653.3171" y1="925.6094" y2="925.6094"/><text fill="#000000" font-family="sans-serif" font-size="11" lengthAdjust="spacing" textLength="196" x="452.3171" y="939.8198">+ParameterCategory(name, code)</text><!--MD5=[9d3dd688f78c4545f26622cd23f9dd25]
link CreateParameterUI to CreateParameterController--><path codeLine="58" d="M363.3171,55.11 C363.3171,70.631 363.3171,91.639 363.3171,110.625 " fill="none" id="CreateParameterUI-to-CreateParameterController" style="stroke:#A80036;stroke-width:1.0;stroke-dasharray:7.0,7.0;"/><polygon fill="#A80036" points="363.3171,115.921,367.3171,106.921,363.3171,110.921,359.3171,106.921,363.3171,115.921" style="stroke:#A80036;stroke-width:1.0;"/><!--MD5=[c56d23af98be554523068ac4fbdb568e]
link CreateParameterController to Parameter--><path codeLine="59" d="M279.6181,202.173 C199.6861,247.925 84.9882,329.378 40.3176,439 C6,523.216 78.3024,611.246 140.1401,667.244 " fill="none" id="CreateParameterController-to-Parameter" style="stroke:#A80036;stroke-width:1.0;stroke-dasharray:7.0,7.0;"/><polygon fill="#A80036" points="144.1971,670.885,140.1726,661.8959,140.4767,667.5446,134.828,667.8486,144.1971,670.885" style="stroke:#A80036;stroke-width:1.0;"/><!--MD5=[46706d5726812879537e05899d80bc9e]
link CreateParameterController to ParameterStore--><path codeLine="60" d="M302.6331,202.113 C282.9401,218.822 262.9371,239.647 250.3171,263 C221.4531,316.416 214.9081,387.188 214.1131,433.39 " fill="none" id="CreateParameterController-to-ParameterStore" style="stroke:#A80036;stroke-width:1.0;stroke-dasharray:7.0,7.0;"/><polygon fill="#A80036" points="214.0461,438.62,218.1615,429.6722,214.1104,433.6204,210.1622,429.5693,214.0461,438.62" style="stroke:#A80036;stroke-width:1.0;"/><!--MD5=[d4acd0f9b6f472dc8c1d58fc6da00ca5]
link CreateParameterController to ParameterCategoryStore--><path codeLine="61" d="M521.2321,188.662 C599.4611,206.406 682.1071,231.77 705.3171,263 C731.5631,298.315 724.7731,322.535 705.3171,362 C688.7321,395.643 657.5611,422.423 627.4971,441.992 " fill="none" id="CreateParameterController-to-ParameterCategoryStore" style="stroke:#A80036;stroke-width:1.0;stroke-dasharray:7.0,7.0;"/><polygon fill="#A80036" points="623.0711,444.827,632.8073,443.3416,627.2816,442.1304,628.4928,436.6048,623.0711,444.827" style="stroke:#A80036;stroke-width:1.0;"/><!--MD5=[6d585fb02c26694275539b4f1508918e]
link CreateParameterController to Company--><path codeLine="62" d="M363.3171,202.201 C363.3171,219.408 363.3171,239.508 363.3171,257.746 " fill="none" id="CreateParameterController-to-Company" style="stroke:#A80036;stroke-width:1.0;stroke-dasharray:7.0,7.0;"/><polygon fill="#A80036" points="363.3171,262.837,367.3171,253.837,363.3171,257.837,359.3171,253.837,363.3171,262.837" style="stroke:#A80036;stroke-width:1.0;"/><!--MD5=[28500599d7d52b0914bd4c3c68a17d33]
link CreateParameterController to ParameterCategoryMapper--><path codeLine="63" d="M426.2481,202 C462.6641,226.304 507.8101,256.434 541.5211,278.933 " fill="none" id="CreateParameterController-to-ParameterCategoryMapper" style="stroke:#A80036;stroke-width:1.0;stroke-dasharray:7.0,7.0;"/><polygon fill="#A80036" points="545.9911,281.916,540.7261,273.5926,541.8324,279.1402,536.2848,280.2465,545.9911,281.916" style="stroke:#A80036;stroke-width:1.0;"/><!--MD5=[e005011d3dd56600b4d93f763fb44423]
link ParameterCategoryMapper to ParameterCategoryStore--><path codeLine="64" d="M583.2581,343.06 C576.8551,369.872 567.3521,409.67 560.1951,439.636 " fill="none" id="ParameterCategoryMapper-to-ParameterCategoryStore" style="stroke:#A80036;stroke-width:1.0;stroke-dasharray:7.0,7.0;"/><polygon fill="#A80036" points="558.9781,444.734,564.9589,436.909,560.1393,439.8707,557.1776,435.0511,558.9781,444.734" style="stroke:#A80036;stroke-width:1.0;"/><!--MD5=[58fac5310c1666a6e65c137533900c90]
link ParameterCategoryMapper to ParameterCategoryDto--><path codeLine="65" d="M628.3681,343.216 C655.3961,366.406 690.3111,400.986 710.3171,439 C728.4661,473.484 736.6351,517.126 740.3111,549.801 " fill="none" id="ParameterCategoryMapper-to-ParameterCategoryDto" style="stroke:#A80036;stroke-width:1.0;stroke-dasharray:7.0,7.0;"/><polygon fill="#A80036" points="740.8641,554.948,743.8795,545.5721,740.3298,549.9766,735.9253,546.427,740.8641,554.948" style="stroke:#A80036;stroke-width:1.0;"/><!--MD5=[d98d76378912836715ac0aaaf0882568]
link ParameterCategoryDto to ParameterCategory--><path codeLine="66" d="M738.9171,641.011 C733.2011,680.324 720.3931,739.376 692.3171,783 C673.8941,811.627 646.4331,836.923 620.5561,856.7499 " fill="none" id="ParameterCategoryDto-to-ParameterCategory" style="stroke:#A80036;stroke-width:1.0;stroke-dasharray:7.0,7.0;"/><polygon fill="#A80036" points="616.4191,859.8847,626.0081,857.6374,620.4043,856.865,621.1766,851.2611,616.4191,859.8847" style="stroke:#A80036;stroke-width:1.0;"/><!--MD5=[d6274e3b73b5bc8f467c6cfbf5bf003e]
link ParameterCategoryStore to ParameterCategory--><path codeLine="67" d="M550.3171,519.086 C550.3171,594.721 550.3171,769.845 550.3171,854.4942 " fill="none" id="ParameterCategoryStore-to-ParameterCategory" style="stroke:#A80036;stroke-width:1.0;"/><polygon fill="#A80036" points="550.3171,859.6904,554.3171,850.6904,550.3171,854.6904,546.3171,850.6904,550.3171,859.6904" style="stroke:#A80036;stroke-width:1.0;"/><text fill="#000000" font-family="sans-serif" font-size="13" lengthAdjust="spacing" textLength="132" x="551.3171" y="731.5669">capable of analysing</text><text fill="#000000" font-family="sans-serif" font-size="13" lengthAdjust="spacing" textLength="8" x="541.6546" y="538.5808">1</text><text fill="#000000" font-family="sans-serif" font-size="13" lengthAdjust="spacing" textLength="7" x="542.7812" y="848.9551">*</text><!--MD5=[daf3d7412afa2c7651483be0b6e971d1]
link Company to ParameterStore--><path codeLine="68" d="M320.1121,362.398 C299.8681,385.31 275.8811,412.457 255.9681,434.994 " fill="none" id="Company-to-ParameterStore" style="stroke:#A80036;stroke-width:1.0;"/><polygon fill="#A80036" points="252.5541,438.857,261.5112,434.7618,255.8651,435.1104,255.5166,429.4642,252.5541,438.857" style="stroke:#A80036;stroke-width:1.0;"/><text fill="#000000" font-family="sans-serif" font-size="13" lengthAdjust="spacing" textLength="30" x="295.3171" y="405.0669">uses</text><text fill="#000000" font-family="sans-serif" font-size="13" lengthAdjust="spacing" textLength="8" x="305.7689" y="382.172">1</text><text fill="#000000" font-family="sans-serif" font-size="13" lengthAdjust="spacing" textLength="8" x="249.8512" y="427.8303">1</text><!--MD5=[d53d7490e5836ca5709858d7326f212b]
link Company to ParameterCategoryStore--><path codeLine="69" d="M417.6571,362.173 C445.8191,387.398 479.7661,417.806 506.2701,441.546 " fill="none" id="Company-to-ParameterCategoryStore" style="stroke:#A80036;stroke-width:1.0;"/><polygon fill="#A80036" points="510.1251,444.999,506.0897,436.0148,506.4006,441.6631,500.7523,441.974,510.1251,444.999" style="stroke:#A80036;stroke-width:1.0;"/><text fill="#000000" font-family="sans-serif" font-size="13" lengthAdjust="spacing" textLength="30" x="469.3171" y="405.0669">uses</text><text fill="#000000" font-family="sans-serif" font-size="13" lengthAdjust="spacing" textLength="8" x="416.7362" y="382.2738">1</text><text fill="#000000" font-family="sans-serif" font-size="13" lengthAdjust="spacing" textLength="8" x="493.9772" y="433.9093">1</text><!--MD5=[a0992dda039fed1bb57aff5aacace800]
link ParameterStore to Parameter--><path codeLine="70" d="M215.3171,525.05 C215.3171,563.818 215.3171,621.805 215.3171,665.538 " fill="none" id="ParameterStore-to-Parameter" style="stroke:#A80036;stroke-width:1.0;"/><polygon fill="#A80036" points="215.3171,670.798,219.3171,661.798,215.3171,665.798,211.3171,661.798,215.3171,670.798" style="stroke:#A80036;stroke-width:1.0;"/><text fill="#000000" font-family="sans-serif" font-size="13" lengthAdjust="spacing" textLength="44" x="216.3171" y="602.5669">adopts</text><text fill="#000000" font-family="sans-serif" font-size="13" lengthAdjust="spacing" textLength="8" x="206.6545" y="545.4659">1</text><text fill="#000000" font-family="sans-serif" font-size="13" lengthAdjust="spacing" textLength="7" x="207.8905" y="660.1079">*</text><!--MD5=[6df8849671cb880f6936e94aa30db6f9]
link Parameter to ParameterCategory--><path codeLine="71" d="M321.3141,783.055 C367.6451,807.119 421.2661,834.97 464.9701,857.6702 " fill="none" id="Parameter-to-ParameterCategory" style="stroke:#A80036;stroke-width:1.0;"/><polygon fill="#A80036" points="469.4371,859.9904,463.2933,852.2927,464.9997,857.6861,459.6064,859.3925,469.4371,859.9904" style="stroke:#A80036;stroke-width:1.0;"/><text fill="#000000" font-family="sans-serif" font-size="13" lengthAdjust="spacing" textLength="95" x="404.3171" y="826.0669">categorized by</text><text fill="#000000" font-family="sans-serif" font-size="13" lengthAdjust="spacing" textLength="8" x="326.3824" y="803.2719">1</text><text fill="#000000" font-family="sans-serif" font-size="13" lengthAdjust="spacing" textLength="8" x="447.9093" y="848.9845">1</text><!--MD5=[974b26aa3ca9268f15e1ed87b6d1bda6]
@startuml
skinparam classAttributeIconSize 0

class Company
{
  -String designation
  +getParameterCategoryStore()
  +getParameterCategory()
  +getParameterStore()
}


class Parameter {
  -String code
  -String shortName
  -String description
  -ParameterCategory category
  +Parameter(code, shortName, description, cat)
}

class ParameterStore {
  +createParameter(code, shortName, description, cat)
  +validateParameter(parameter)
  +saveParameter(parameter)
}

class ParameterCategoryStore {
  +getParameterCategoryByCode(categoryCode)
  +getParameterCategories()
}


class CreateParameterController {
  +getParameterCategories()
  +createParameter(code, shortName, description, cat)
  +saveParameter()
}

class CreateParameterUI {

}

class ParameterCategoryMapper {
   +toDto()
}

class ParameterCategoryDto {
  -String code
  -String name
  +ParameterCategoryDto(category)
}

class ParameterCategory {
   -String name
   -String code
   +ParameterCategory(name, code)
}

CreateParameterUI ..> CreateParameterController
CreateParameterController ..> Parameter
CreateParameterController ..> ParameterStore
CreateParameterController ..> ParameterCategoryStore
CreateParameterController ..> Company
CreateParameterController ..> ParameterCategoryMapper
ParameterCategoryMapper ..> ParameterCategoryStore
ParameterCategoryMapper ..> ParameterCategoryDto
ParameterCategoryDto ..> ParameterCategory
ParameterCategoryStore "1" - -> "*" ParameterCategory : capable of analysing
Company "1" - -> "1" ParameterStore : uses
Company "1" - -> "1" ParameterCategoryStore : uses
ParameterStore "1" - -> "*" Parameter : adopts
Parameter "1" - -> "1" ParameterCategory : categorized by
@enduml

PlantUML version 1.2021.6beta6(Unknown compile time)
(GPL source distribution)
Java Runtime: Java(TM) SE Runtime Environment
JVM: Java HotSpot(TM) 64-Bit Server VM
Default Encoding: UTF-8
Language: en
Country: US
--></g></svg>