<?xml version="1.0" encoding="UTF-8" standalone="no"?><svg xmlns="http://www.w3.org/2000/svg" xmlns:xlink="http://www.w3.org/1999/xlink" contentScriptType="application/ecmascript" contentStyleType="text/css" height="184px" preserveAspectRatio="none" style="width:994px;height:184px;" version="1.1" viewBox="0 0 994 184" width="994px" zoomAndPan="magnify"><defs><filter height="300%" id="fe9khf3se0704" width="300%" x="-1" y="-1"><feGaussianBlur result="blurOut" stdDeviation="2.0"/><feColorMatrix in="blurOut" result="blurOut2" type="matrix" values="0 0 0 0 0 0 0 0 0 0 0 0 0 0 0 0 0 0 .4 0"/><feOffset dx="4.0" dy="4.0" in="blurOut2" result="blurOut3"/><feBlend in="SourceGraphic" in2="blurOut3" mode="normal"/></filter></defs><g><!--MD5=[02e4b9b7573f1156f41e60aa5b4e25a4]
class Company--><rect codeLine="6" fill="#FEFECE" filter="url(#fe9khf3se0704)" height="52.8047" id="Company" style="stroke:#A80036;stroke-width:1.5;" width="88" x="7" y="64.0659"/><ellipse cx="22" cy="80.0659" fill="#ADD1B2" rx="11" ry="11" style="stroke:#A80036;stroke-width:1.0;"/><path d="M24.3438,75.7378 C23.4063,75.3003 22.8125,75.1597 21.9375,75.1597 C19.3125,75.1597 17.3125,77.2378 17.3125,79.9565 L17.3125,81.0815 C17.3125,83.6597 19.4219,85.5503 22.3125,85.5503 C23.5313,85.5503 24.6875,85.2534 25.4375,84.7065 C26.0156,84.3003 26.3438,83.8472 26.3438,83.4565 C26.3438,83.0034 25.9531,82.6128 25.4844,82.6128 C25.2656,82.6128 25.0625,82.6909 24.875,82.8784 C24.4219,83.3628 24.4219,83.3628 24.2344,83.4565 C23.8125,83.7222 23.125,83.8472 22.3594,83.8472 C20.3125,83.8472 19.0156,82.7534 19.0156,81.0503 L19.0156,79.9565 C19.0156,78.1753 20.2656,76.8628 22,76.8628 C22.5781,76.8628 23.1875,77.019 23.6563,77.269 C24.1406,77.5503 24.3125,77.769 24.4063,78.1753 C24.4688,78.5815 24.5,78.7065 24.6406,78.8315 C24.7813,78.9722 25.0156,79.0815 25.2344,79.0815 C25.5,79.0815 25.7656,78.9409 25.9375,78.7222 C26.0469,78.5659 26.0781,78.3784 26.0781,77.9565 L26.0781,76.5347 C26.0781,76.0972 26.0625,75.9722 25.9688,75.8159 C25.8125,75.5503 25.5313,75.4097 25.2344,75.4097 C24.9375,75.4097 24.7344,75.5034 24.5156,75.8159 L24.3438,75.7378 Z " fill="#000000"/><text fill="#000000" font-family="sans-serif" font-size="12" lengthAdjust="spacing" textLength="56" x="36" y="84.2202">Company</text><line style="stroke:#A80036;stroke-width:1.5;" x1="8" x2="94" y1="96.0659" y2="96.0659"/><text fill="#000000" font-family="sans-serif" font-size="11" lengthAdjust="spacing" textLength="70" x="13" y="110.2764">-designation</text><!--MD5=[da547346deef918ea16944ba046651ef]
class Administrator--><rect codeLine="10" fill="#FEFECE" filter="url(#fe9khf3se0704)" height="40" id="Administrator" style="stroke:#A80036;stroke-width:1.5;" width="112" x="868" y="11.5659"/><ellipse cx="883" cy="27.5659" fill="#ADD1B2" rx="11" ry="11" style="stroke:#A80036;stroke-width:1.0;"/><path d="M885.3438,23.2378 C884.4063,22.8003 883.8125,22.6597 882.9375,22.6597 C880.3125,22.6597 878.3125,24.7378 878.3125,27.4565 L878.3125,28.5815 C878.3125,31.1597 880.4219,33.0503 883.3125,33.0503 C884.5313,33.0503 885.6875,32.7534 886.4375,32.2065 C887.0156,31.8003 887.3438,31.3472 887.3438,30.9565 C887.3438,30.5034 886.9531,30.1128 886.4844,30.1128 C886.2656,30.1128 886.0625,30.1909 885.875,30.3784 C885.4219,30.8628 885.4219,30.8628 885.2344,30.9565 C884.8125,31.2222 884.125,31.3472 883.3594,31.3472 C881.3125,31.3472 880.0156,30.2534 880.0156,28.5503 L880.0156,27.4565 C880.0156,25.6753 881.2656,24.3628 883,24.3628 C883.5781,24.3628 884.1875,24.519 884.6563,24.769 C885.1406,25.0503 885.3125,25.269 885.4063,25.6753 C885.4688,26.0815 885.5,26.2065 885.6406,26.3315 C885.7813,26.4722 886.0156,26.5815 886.2344,26.5815 C886.5,26.5815 886.7656,26.4409 886.9375,26.2222 C887.0469,26.0659 887.0781,25.8784 887.0781,25.4565 L887.0781,24.0347 C887.0781,23.5972 887.0625,23.4722 886.9688,23.3159 C886.8125,23.0503 886.5313,22.9097 886.2344,22.9097 C885.9375,22.9097 885.7344,23.0034 885.5156,23.3159 L885.3438,23.2378 Z " fill="#000000"/><text fill="#000000" font-family="sans-serif" font-size="12" lengthAdjust="spacing" textLength="80" x="897" y="31.7202">Administrator</text><line style="stroke:#A80036;stroke-width:1.5;" x1="869" x2="979" y1="43.5659" y2="43.5659"/><!--MD5=[1f6362a5c8f21d8d6a0fce68f3a92a4e]
class Parameter--><rect codeLine="14" fill="#FEFECE" filter="url(#fe9khf3se0704)" height="78.4141" id="Parameter" style="stroke:#A80036;stroke-width:1.5;" width="93" x="302" y="51.5659"/><ellipse cx="317" cy="67.5659" fill="#ADD1B2" rx="11" ry="11" style="stroke:#A80036;stroke-width:1.0;"/><path d="M319.3438,63.2378 C318.4063,62.8003 317.8125,62.6597 316.9375,62.6597 C314.3125,62.6597 312.3125,64.7378 312.3125,67.4565 L312.3125,68.5815 C312.3125,71.1597 314.4219,73.0503 317.3125,73.0503 C318.5313,73.0503 319.6875,72.7534 320.4375,72.2065 C321.0156,71.8003 321.3438,71.3472 321.3438,70.9565 C321.3438,70.5034 320.9531,70.1128 320.4844,70.1128 C320.2656,70.1128 320.0625,70.1909 319.875,70.3784 C319.4219,70.8628 319.4219,70.8628 319.2344,70.9565 C318.8125,71.2222 318.125,71.3472 317.3594,71.3472 C315.3125,71.3472 314.0156,70.2534 314.0156,68.5503 L314.0156,67.4565 C314.0156,65.6753 315.2656,64.3628 317,64.3628 C317.5781,64.3628 318.1875,64.519 318.6563,64.769 C319.1406,65.0503 319.3125,65.269 319.4063,65.6753 C319.4688,66.0815 319.5,66.2065 319.6406,66.3315 C319.7813,66.4722 320.0156,66.5815 320.2344,66.5815 C320.5,66.5815 320.7656,66.4409 320.9375,66.2222 C321.0469,66.0659 321.0781,65.8784 321.0781,65.4565 L321.0781,64.0347 C321.0781,63.5972 321.0625,63.4722 320.9688,63.3159 C320.8125,63.0503 320.5313,62.9097 320.2344,62.9097 C319.9375,62.9097 319.7344,63.0034 319.5156,63.3159 L319.3438,63.2378 Z " fill="#000000"/><text fill="#000000" font-family="sans-serif" font-size="12" lengthAdjust="spacing" textLength="61" x="331" y="71.7202">Parameter</text><line style="stroke:#A80036;stroke-width:1.5;" x1="303" x2="394" y1="83.5659" y2="83.5659"/><text fill="#000000" font-family="sans-serif" font-size="11" lengthAdjust="spacing" textLength="32" x="308" y="97.7764">-code</text><text fill="#000000" font-family="sans-serif" font-size="11" lengthAdjust="spacing" textLength="66" x="308" y="110.5811">-shortName</text><text fill="#000000" font-family="sans-serif" font-size="11" lengthAdjust="spacing" textLength="66" x="308" y="123.3857">-description</text><!--MD5=[36afb6bbd95a8ac778c4537c55a683d5]
class ParameterCategory--><rect codeLine="20" fill="#FEFECE" filter="url(#fe9khf3se0704)" height="78.4141" id="ParameterCategory" style="stroke:#A80036;stroke-width:1.5;" width="148" x="576" y="51.5659"/><ellipse cx="591" cy="67.5659" fill="#ADD1B2" rx="11" ry="11" style="stroke:#A80036;stroke-width:1.0;"/><path d="M593.3438,63.2378 C592.4063,62.8003 591.8125,62.6597 590.9375,62.6597 C588.3125,62.6597 586.3125,64.7378 586.3125,67.4565 L586.3125,68.5815 C586.3125,71.1597 588.4219,73.0503 591.3125,73.0503 C592.5313,73.0503 593.6875,72.7534 594.4375,72.2065 C595.0156,71.8003 595.3438,71.3472 595.3438,70.9565 C595.3438,70.5034 594.9531,70.1128 594.4844,70.1128 C594.2656,70.1128 594.0625,70.1909 593.875,70.3784 C593.4219,70.8628 593.4219,70.8628 593.2344,70.9565 C592.8125,71.2222 592.125,71.3472 591.3594,71.3472 C589.3125,71.3472 588.0156,70.2534 588.0156,68.5503 L588.0156,67.4565 C588.0156,65.6753 589.2656,64.3628 591,64.3628 C591.5781,64.3628 592.1875,64.519 592.6563,64.769 C593.1406,65.0503 593.3125,65.269 593.4063,65.6753 C593.4688,66.0815 593.5,66.2065 593.6406,66.3315 C593.7813,66.4722 594.0156,66.5815 594.2344,66.5815 C594.5,66.5815 594.7656,66.4409 594.9375,66.2222 C595.0469,66.0659 595.0781,65.8784 595.0781,65.4565 L595.0781,64.0347 C595.0781,63.5972 595.0625,63.4722 594.9688,63.3159 C594.8125,63.0503 594.5313,62.9097 594.2344,62.9097 C593.9375,62.9097 593.7344,63.0034 593.5156,63.3159 L593.3438,63.2378 Z " fill="#000000"/><text fill="#000000" font-family="sans-serif" font-size="12" lengthAdjust="spacing" textLength="116" x="605" y="71.7202">ParameterCategory</text><line style="stroke:#A80036;stroke-width:1.5;" x1="577" x2="723" y1="83.5659" y2="83.5659"/><text fill="#000000" font-family="sans-serif" font-size="11" lengthAdjust="spacing" textLength="32" x="582" y="97.7764">-code</text><text fill="#000000" font-family="sans-serif" font-size="11" lengthAdjust="spacing" textLength="66" x="582" y="110.5811">-description</text><text fill="#000000" font-family="sans-serif" font-size="11" lengthAdjust="spacing" textLength="34" x="582" y="123.3857">-nhsId</text><!--MD5=[eaea43e34e45c5b9d20b595fc78f1f20]
link Company to Administrator--><path codeLine="28" d="M95.2918,74.5383 C104.9843,71.2875 115.276,68.0948 125,65.5659 C202.369,45.4479 222.435,41.3219 302,33.5659 C501.965,14.0739 553.093,28.1219 754,26.5659 C791.332,26.2769 800.683,25.4699 838,26.5659 C847.604,26.8489 857.811,27.3099 867.696,27.8409 " fill="none" id="Company-Administrator" style="stroke:#A80036;stroke-width:1.0;"/><polygon fill="#000000" points="476.4909,14.8306,467.2849,12.4429,467.6396,18.31,476.4909,14.8306" style="stroke:#000000;stroke-width:1.0;"/><text fill="#000000" font-family="sans-serif" font-size="13" lengthAdjust="spacing" textLength="23" x="480.5" y="19.6328">has</text><text fill="#000000" font-family="sans-serif" font-size="13" lengthAdjust="spacing" textLength="8" x="102.9883" y="85.2723">1</text><text fill="#000000" font-family="sans-serif" font-size="13" lengthAdjust="spacing" textLength="7" x="853.0336" y="40.4">*</text><!--MD5=[93b4f25fb503a8e0e9a46b1d30ff3f44]
link Company to ParameterCategory--><path codeLine="29" d="M95.4212,107.3498 C144.639,125.4003 227.699,152.9401 302,163.5663 C397.374,177.206 505.82,146.8873 575.712,121.2588 " fill="none" id="Company-ParameterCategory" style="stroke:#A80036;stroke-width:1.0;"/><polygon fill="#000000" points="328.9979,155.2774,320.0417,152.0778,319.8715,157.9532,328.9979,155.2774" style="stroke:#000000;stroke-width:1.0;"/><text fill="#000000" font-family="sans-serif" font-size="13" lengthAdjust="spacing" textLength="44" x="333" y="159.6331">adopts</text><text fill="#000000" font-family="sans-serif" font-size="13" lengthAdjust="spacing" textLength="8" x="103.1383" y="123.3131">1</text><text fill="#000000" font-family="sans-serif" font-size="13" lengthAdjust="spacing" textLength="7" x="561.0547" y="137.0715">*</text><!--MD5=[12d76240d3c3c66074d4ec2ea8bf469c]
link Company to Parameter--><path codeLine="30" d="M95.2847,90.5662 C150.431,90.5662 245.328,90.5662 301.668,90.5662 " fill="none" id="Company-Parameter" style="stroke:#A80036;stroke-width:1.0;"/><polygon fill="#000000" points="135,82.1326,125.9549,79.1937,125.9549,85.0716,135,82.1326" style="stroke:#000000;stroke-width:1.0;"/><text fill="#000000" font-family="sans-serif" font-size="13" lengthAdjust="spacing" textLength="132" x="139" y="86.6331">capable of analysing</text><text fill="#000000" font-family="sans-serif" font-size="13" lengthAdjust="spacing" textLength="8" x="102.9801" y="103.8546">1</text><text fill="#000000" font-family="sans-serif" font-size="13" lengthAdjust="spacing" textLength="7" x="286.9609" y="103.7601">*</text><!--MD5=[6df8849671cb880f6936e94aa30db6f9]
link Parameter to ParameterCategory--><path codeLine="31" d="M395.314,90.5662 C443.326,90.5662 519.466,90.5662 575.817,90.5662 " fill="none" id="Parameter-ParameterCategory" style="stroke:#A80036;stroke-width:1.0;"/><polygon fill="#000000" points="435,82.1326,425.9549,79.1937,425.9549,85.0716,435,82.1326" style="stroke:#000000;stroke-width:1.0;"/><text fill="#000000" font-family="sans-serif" font-size="13" lengthAdjust="spacing" textLength="106" x="439" y="86.6331">presented under</text><text fill="#000000" font-family="sans-serif" font-size="13" lengthAdjust="spacing" textLength="7" x="403.0183" y="103.7601">*</text><text fill="#000000" font-family="sans-serif" font-size="13" lengthAdjust="spacing" textLength="8" x="560.1209" y="103.3576">1</text><!--MD5=[8fed49cf12a674e36a1de475622ee091]
link ParameterCategory to Administrator--><path codeLine="32" d="M724.249,74.6777 C769.408,64.8819 826.389,52.5219 867.75,43.5509 " fill="none" id="ParameterCategory-Administrator" style="stroke:#A80036;stroke-width:1.0;"/><polygon fill="#000000" points="763.8864,42.0724,754.4238,41.1177,755.6698,46.8619,763.8864,42.0724" style="stroke:#000000;stroke-width:1.0;"/><text fill="#000000" font-family="sans-serif" font-size="13" lengthAdjust="spacing" textLength="69" x="768" y="47.6328">created by</text><text fill="#000000" font-family="sans-serif" font-size="13" lengthAdjust="spacing" textLength="7" x="731.9024" y="85.9051">*</text><text fill="#000000" font-family="sans-serif" font-size="13" lengthAdjust="spacing" textLength="8" x="852.0305" y="58.1228">1</text><!--MD5=[8cdd49ba34833f56a1f20836b1c33f6b]
@startuml
hide methods
left to right direction
skinparam classAttributeIconSize 0


class Company {
  -designation
}

class Administrator {

}

class Parameter {
  -code
  -shortName
  -description
}

class ParameterCategory {
  -code
  -description
  -nhsId
}



Company "1" - - "*" Administrator : has  >
Company "1" - - "*" ParameterCategory : adopts >
Company "1" - - "*" Parameter : capable of analysing >
Parameter "*" - - "1" ParameterCategory: presented under >
ParameterCategory "*" - - "1" Administrator: created by >
@enduml

PlantUML version 1.2021.6beta4(Unknown compile time)
(GPL source distribution)
Java Runtime: Java(TM) SE Runtime Environment
JVM: Java HotSpot(TM) 64-Bit Server VM
Default Encoding: UTF-8
Language: en
Country: US
--></g></svg>