<?xml version="1.0" encoding="UTF-8" standalone="no"?><svg xmlns="http://www.w3.org/2000/svg" xmlns:xlink="http://www.w3.org/1999/xlink" contentScriptType="application/ecmascript" contentStyleType="text/css" height="715px" preserveAspectRatio="none" style="width:680px;height:715px;" version="1.1" viewBox="0 0 680 715" width="680px" zoomAndPan="magnify"><defs><filter height="300%" id="fgne2m0uld154" width="300%" x="-1" y="-1"><feGaussianBlur result="blurOut" stdDeviation="2.0"/><feColorMatrix in="blurOut" result="blurOut2" type="matrix" values="0 0 0 0 0 0 0 0 0 0 0 0 0 0 0 0 0 0 .4 0"/><feOffset dx="4.0" dy="4.0" in="blurOut2" result="blurOut3"/><feBlend in="SourceGraphic" in2="blurOut3" mode="normal"/></filter></defs><g><!--MD5=[02e4b9b7573f1156f41e60aa5b4e25a4]
class Company--><rect codeLine="3" fill="#FEFECE" filter="url(#fgne2m0uld154)" height="99.2188" id="Company" style="stroke:#A80036;stroke-width:1.5;" width="182" x="264.5" y="263"/><ellipse cx="323.25" cy="279" fill="#ADD1B2" rx="11" ry="11" style="stroke:#A80036;stroke-width:1.0;"/><path d="M325.5938,274.6719 C324.6563,274.2344 324.0625,274.0938 323.1875,274.0938 C320.5625,274.0938 318.5625,276.1719 318.5625,278.8906 L318.5625,280.0156 C318.5625,282.5938 320.6719,284.4844 323.5625,284.4844 C324.7813,284.4844 325.9375,284.1875 326.6875,283.6406 C327.2656,283.2344 327.5938,282.7813 327.5938,282.3906 C327.5938,281.9375 327.2031,281.5469 326.7344,281.5469 C326.5156,281.5469 326.3125,281.625 326.125,281.8125 C325.6719,282.2969 325.6719,282.2969 325.4844,282.3906 C325.0625,282.6563 324.375,282.7813 323.6094,282.7813 C321.5625,282.7813 320.2656,281.6875 320.2656,279.9844 L320.2656,278.8906 C320.2656,277.1094 321.5156,275.7969 323.25,275.7969 C323.8281,275.7969 324.4375,275.9531 324.9063,276.2031 C325.3906,276.4844 325.5625,276.7031 325.6563,277.1094 C325.7188,277.5156 325.75,277.6406 325.8906,277.7656 C326.0313,277.9063 326.2656,278.0156 326.4844,278.0156 C326.75,278.0156 327.0156,277.875 327.1875,277.6563 C327.2969,277.5 327.3281,277.3125 327.3281,276.8906 L327.3281,275.4688 C327.3281,275.0313 327.3125,274.9063 327.2188,274.75 C327.0625,274.4844 326.7813,274.3438 326.4844,274.3438 C326.1875,274.3438 325.9844,274.4375 325.7656,274.75 L325.5938,274.6719 Z " fill="#000000"/><text fill="#000000" font-family="sans-serif" font-size="12" lengthAdjust="spacing" textLength="56" x="343.75" y="283.1543">Company</text><line style="stroke:#A80036;stroke-width:1.5;" x1="265.5" x2="445.5" y1="295" y2="295"/><text fill="#000000" font-family="sans-serif" font-size="11" lengthAdjust="spacing" textLength="107" x="270.5" y="309.2104">-String designation</text><text fill="#000000" font-family="sans-serif" font-size="11" lengthAdjust="spacing" textLength="170" x="270.5" y="322.0151">+getParameterCategoryStore</text><text fill="#000000" font-family="sans-serif" font-size="11" lengthAdjust="spacing" textLength="139" x="270.5" y="334.8198">+getParameterCategory</text><text fill="#000000" font-family="sans-serif" font-size="11" lengthAdjust="spacing" textLength="118" x="270.5" y="347.6245">+getParameterStore</text><line style="stroke:#A80036;stroke-width:1.5;" x1="265.5" x2="445.5" y1="354.2188" y2="354.2188"/><!--MD5=[1f6362a5c8f21d8d6a0fce68f3a92a4e]
class Parameter--><rect codeLine="12" fill="#FEFECE" filter="url(#fgne2m0uld154)" height="99.2188" id="Parameter" style="stroke:#A80036;stroke-width:1.5;" width="278" x="383.5" y="602"/><ellipse cx="487.75" cy="618" fill="#ADD1B2" rx="11" ry="11" style="stroke:#A80036;stroke-width:1.0;"/><path d="M490.0938,613.6719 C489.1563,613.2344 488.5625,613.0938 487.6875,613.0938 C485.0625,613.0938 483.0625,615.1719 483.0625,617.8906 L483.0625,619.0156 C483.0625,621.5938 485.1719,623.4844 488.0625,623.4844 C489.2813,623.4844 490.4375,623.1875 491.1875,622.6406 C491.7656,622.2344 492.0938,621.7813 492.0938,621.3906 C492.0938,620.9375 491.7031,620.5469 491.2344,620.5469 C491.0156,620.5469 490.8125,620.625 490.625,620.8125 C490.1719,621.2969 490.1719,621.2969 489.9844,621.3906 C489.5625,621.6563 488.875,621.7813 488.1094,621.7813 C486.0625,621.7813 484.7656,620.6875 484.7656,618.9844 L484.7656,617.8906 C484.7656,616.1094 486.0156,614.7969 487.75,614.7969 C488.3281,614.7969 488.9375,614.9531 489.4063,615.2031 C489.8906,615.4844 490.0625,615.7031 490.1563,616.1094 C490.2188,616.5156 490.25,616.6406 490.3906,616.7656 C490.5313,616.9063 490.7656,617.0156 490.9844,617.0156 C491.25,617.0156 491.5156,616.875 491.6875,616.6563 C491.7969,616.5 491.8281,616.3125 491.8281,615.8906 L491.8281,614.4688 C491.8281,614.0313 491.8125,613.9063 491.7188,613.75 C491.5625,613.4844 491.2813,613.3438 490.9844,613.3438 C490.6875,613.3438 490.4844,613.4375 490.2656,613.75 L490.0938,613.6719 Z " fill="#000000"/><text fill="#000000" font-family="sans-serif" font-size="12" lengthAdjust="spacing" textLength="61" x="508.25" y="622.1543">Parameter</text><line style="stroke:#A80036;stroke-width:1.5;" x1="384.5" x2="660.5" y1="634" y2="634"/><text fill="#000000" font-family="sans-serif" font-size="11" lengthAdjust="spacing" textLength="69" x="389.5" y="648.2104">-String code</text><text fill="#000000" font-family="sans-serif" font-size="11" lengthAdjust="spacing" textLength="103" x="389.5" y="661.0151">-String shortName</text><text fill="#000000" font-family="sans-serif" font-size="11" lengthAdjust="spacing" textLength="103" x="389.5" y="673.8198">-String description</text><line style="stroke:#A80036;stroke-width:1.5;" x1="384.5" x2="660.5" y1="680.4141" y2="680.4141"/><text fill="#000000" font-family="sans-serif" font-size="11" lengthAdjust="spacing" textLength="266" x="389.5" y="694.6245">+Parameter(code, shortName, description, cat)</text><!--MD5=[be7802b157a16874d39c59ca0e2b25be]
class ParameterStore--><rect codeLine="19" fill="#FEFECE" filter="url(#fgne2m0uld154)" height="86.4141" id="ParameterStore" style="stroke:#A80036;stroke-width:1.5;" width="315" x="7" y="439"/><ellipse cx="113.25" cy="455" fill="#ADD1B2" rx="11" ry="11" style="stroke:#A80036;stroke-width:1.0;"/><path d="M115.5938,450.6719 C114.6563,450.2344 114.0625,450.0938 113.1875,450.0938 C110.5625,450.0938 108.5625,452.1719 108.5625,454.8906 L108.5625,456.0156 C108.5625,458.5938 110.6719,460.4844 113.5625,460.4844 C114.7813,460.4844 115.9375,460.1875 116.6875,459.6406 C117.2656,459.2344 117.5938,458.7813 117.5938,458.3906 C117.5938,457.9375 117.2031,457.5469 116.7344,457.5469 C116.5156,457.5469 116.3125,457.625 116.125,457.8125 C115.6719,458.2969 115.6719,458.2969 115.4844,458.3906 C115.0625,458.6563 114.375,458.7813 113.6094,458.7813 C111.5625,458.7813 110.2656,457.6875 110.2656,455.9844 L110.2656,454.8906 C110.2656,453.1094 111.5156,451.7969 113.25,451.7969 C113.8281,451.7969 114.4375,451.9531 114.9063,452.2031 C115.3906,452.4844 115.5625,452.7031 115.6563,453.1094 C115.7188,453.5156 115.75,453.6406 115.8906,453.7656 C116.0313,453.9063 116.2656,454.0156 116.4844,454.0156 C116.75,454.0156 117.0156,453.875 117.1875,453.6563 C117.2969,453.5 117.3281,453.3125 117.3281,452.8906 L117.3281,451.4688 C117.3281,451.0313 117.3125,450.9063 117.2188,450.75 C117.0625,450.4844 116.7813,450.3438 116.4844,450.3438 C116.1875,450.3438 115.9844,450.4375 115.7656,450.75 L115.5938,450.6719 Z " fill="#000000"/><text fill="#000000" font-family="sans-serif" font-size="12" lengthAdjust="spacing" textLength="94" x="133.75" y="459.1543">ParameterStore</text><line style="stroke:#A80036;stroke-width:1.5;" x1="8" x2="321" y1="471" y2="471"/><line style="stroke:#A80036;stroke-width:1.5;" x1="8" x2="321" y1="479" y2="479"/><text fill="#000000" font-family="sans-serif" font-size="11" lengthAdjust="spacing" textLength="303" x="13" y="493.2104">+createParameter(code, shortName, description, cat)</text><text fill="#000000" font-family="sans-serif" font-size="11" lengthAdjust="spacing" textLength="182" x="13" y="506.0151">+validateParameter(parameter)</text><text fill="#000000" font-family="sans-serif" font-size="11" lengthAdjust="spacing" textLength="164" x="13" y="518.8198">+saveParameter(parameter)</text><!--MD5=[d802db621b5b215a6f0466f93cefcb42]
class ParameterCategoryStore--><rect codeLine="25" fill="#FEFECE" filter="url(#fgne2m0uld154)" height="60.8047" id="ParameterCategoryStore" style="stroke:#A80036;stroke-width:1.5;" width="284" x="357.5" y="451.5"/><ellipse cx="420.75" cy="467.5" fill="#ADD1B2" rx="11" ry="11" style="stroke:#A80036;stroke-width:1.0;"/><path d="M423.0938,463.1719 C422.1563,462.7344 421.5625,462.5938 420.6875,462.5938 C418.0625,462.5938 416.0625,464.6719 416.0625,467.3906 L416.0625,468.5156 C416.0625,471.0938 418.1719,472.9844 421.0625,472.9844 C422.2813,472.9844 423.4375,472.6875 424.1875,472.1406 C424.7656,471.7344 425.0938,471.2813 425.0938,470.8906 C425.0938,470.4375 424.7031,470.0469 424.2344,470.0469 C424.0156,470.0469 423.8125,470.125 423.625,470.3125 C423.1719,470.7969 423.1719,470.7969 422.9844,470.8906 C422.5625,471.1563 421.875,471.2813 421.1094,471.2813 C419.0625,471.2813 417.7656,470.1875 417.7656,468.4844 L417.7656,467.3906 C417.7656,465.6094 419.0156,464.2969 420.75,464.2969 C421.3281,464.2969 421.9375,464.4531 422.4063,464.7031 C422.8906,464.9844 423.0625,465.2031 423.1563,465.6094 C423.2188,466.0156 423.25,466.1406 423.3906,466.2656 C423.5313,466.4063 423.7656,466.5156 423.9844,466.5156 C424.25,466.5156 424.5156,466.375 424.6875,466.1563 C424.7969,466 424.8281,465.8125 424.8281,465.3906 L424.8281,463.9688 C424.8281,463.5313 424.8125,463.4063 424.7188,463.25 C424.5625,462.9844 424.2813,462.8438 423.9844,462.8438 C423.6875,462.8438 423.4844,462.9375 423.2656,463.25 L423.0938,463.1719 Z " fill="#000000"/><text fill="#000000" font-family="sans-serif" font-size="12" lengthAdjust="spacing" textLength="149" x="441.25" y="471.6543">ParameterCategoryStore</text><line style="stroke:#A80036;stroke-width:1.5;" x1="358.5" x2="640.5" y1="483.5" y2="483.5"/><line style="stroke:#A80036;stroke-width:1.5;" x1="358.5" x2="640.5" y1="491.5" y2="491.5"/><text fill="#000000" font-family="sans-serif" font-size="11" lengthAdjust="spacing" textLength="272" x="363.5" y="505.7104">+getParameterCategoryByCode(categoryCode)</text><!--MD5=[b9009a04d919d78a73c2eeec1e385786]
class CreateParameterController--><rect codeLine="30" fill="#FEFECE" filter="url(#fgne2m0uld154)" height="86.4141" id="CreateParameterController" style="stroke:#A80036;stroke-width:1.5;" width="315" x="306" y="116"/><ellipse cx="379.25" cy="132" fill="#ADD1B2" rx="11" ry="11" style="stroke:#A80036;stroke-width:1.0;"/><path d="M381.5938,127.6719 C380.6563,127.2344 380.0625,127.0938 379.1875,127.0938 C376.5625,127.0938 374.5625,129.1719 374.5625,131.8906 L374.5625,133.0156 C374.5625,135.5938 376.6719,137.4844 379.5625,137.4844 C380.7813,137.4844 381.9375,137.1875 382.6875,136.6406 C383.2656,136.2344 383.5938,135.7813 383.5938,135.3906 C383.5938,134.9375 383.2031,134.5469 382.7344,134.5469 C382.5156,134.5469 382.3125,134.625 382.125,134.8125 C381.6719,135.2969 381.6719,135.2969 381.4844,135.3906 C381.0625,135.6563 380.375,135.7813 379.6094,135.7813 C377.5625,135.7813 376.2656,134.6875 376.2656,132.9844 L376.2656,131.8906 C376.2656,130.1094 377.5156,128.7969 379.25,128.7969 C379.8281,128.7969 380.4375,128.9531 380.9063,129.2031 C381.3906,129.4844 381.5625,129.7031 381.6563,130.1094 C381.7188,130.5156 381.75,130.6406 381.8906,130.7656 C382.0313,130.9063 382.2656,131.0156 382.4844,131.0156 C382.75,131.0156 383.0156,130.875 383.1875,130.6563 C383.2969,130.5 383.3281,130.3125 383.3281,129.8906 L383.3281,128.4688 C383.3281,128.0313 383.3125,127.9063 383.2188,127.75 C383.0625,127.4844 382.7813,127.3438 382.4844,127.3438 C382.1875,127.3438 381.9844,127.4375 381.7656,127.75 L381.5938,127.6719 Z " fill="#000000"/><text fill="#000000" font-family="sans-serif" font-size="12" lengthAdjust="spacing" textLength="160" x="399.75" y="136.1543">CreateParameterController</text><line style="stroke:#A80036;stroke-width:1.5;" x1="307" x2="620" y1="148" y2="148"/><line style="stroke:#A80036;stroke-width:1.5;" x1="307" x2="620" y1="156" y2="156"/><text fill="#000000" font-family="sans-serif" font-size="11" lengthAdjust="spacing" textLength="157" x="312" y="170.2104">+getParameterCategories()</text><text fill="#000000" font-family="sans-serif" font-size="11" lengthAdjust="spacing" textLength="303" x="312" y="183.0151">+createParameter(code, shortName, description, cat)</text><text fill="#000000" font-family="sans-serif" font-size="11" lengthAdjust="spacing" textLength="104" x="312" y="195.8198">+saveParameter()</text><!--MD5=[5518e6815e09c51d4db6e17774f331d2]
class CreateParameterUI--><rect codeLine="36" fill="#FEFECE" filter="url(#fgne2m0uld154)" height="48" id="CreateParameterUI" style="stroke:#A80036;stroke-width:1.5;" width="145" x="391" y="7"/><ellipse cx="406" cy="23" fill="#ADD1B2" rx="11" ry="11" style="stroke:#A80036;stroke-width:1.0;"/><path d="M408.3438,18.6719 C407.4063,18.2344 406.8125,18.0938 405.9375,18.0938 C403.3125,18.0938 401.3125,20.1719 401.3125,22.8906 L401.3125,24.0156 C401.3125,26.5938 403.4219,28.4844 406.3125,28.4844 C407.5313,28.4844 408.6875,28.1875 409.4375,27.6406 C410.0156,27.2344 410.3438,26.7813 410.3438,26.3906 C410.3438,25.9375 409.9531,25.5469 409.4844,25.5469 C409.2656,25.5469 409.0625,25.625 408.875,25.8125 C408.4219,26.2969 408.4219,26.2969 408.2344,26.3906 C407.8125,26.6563 407.125,26.7813 406.3594,26.7813 C404.3125,26.7813 403.0156,25.6875 403.0156,23.9844 L403.0156,22.8906 C403.0156,21.1094 404.2656,19.7969 406,19.7969 C406.5781,19.7969 407.1875,19.9531 407.6563,20.2031 C408.1406,20.4844 408.3125,20.7031 408.4063,21.1094 C408.4688,21.5156 408.5,21.6406 408.6406,21.7656 C408.7813,21.9063 409.0156,22.0156 409.2344,22.0156 C409.5,22.0156 409.7656,21.875 409.9375,21.6563 C410.0469,21.5 410.0781,21.3125 410.0781,20.8906 L410.0781,19.4688 C410.0781,19.0313 410.0625,18.9063 409.9688,18.75 C409.8125,18.4844 409.5313,18.3438 409.2344,18.3438 C408.9375,18.3438 408.7344,18.4375 408.5156,18.75 L408.3438,18.6719 Z " fill="#000000"/><text fill="#000000" font-family="sans-serif" font-size="12" lengthAdjust="spacing" textLength="113" x="420" y="27.1543">CreateParameterUI</text><line style="stroke:#A80036;stroke-width:1.5;" x1="392" x2="535" y1="39" y2="39"/><line style="stroke:#A80036;stroke-width:1.5;" x1="392" x2="535" y1="47" y2="47"/><!--MD5=[9d3dd688f78c4545f26622cd23f9dd25]
link CreateParameterUI to CreateParameterController--><path codeLine="40" d="M463.5,55.11 C463.5,70.631 463.5,91.639 463.5,110.625 " fill="none" id="CreateParameterUI-to-CreateParameterController" style="stroke:#A80036;stroke-width:1.0;stroke-dasharray:7.0,7.0;"/><polygon fill="#A80036" points="463.5,115.921,467.5,106.921,463.5,110.921,459.5,106.921,463.5,115.921" style="stroke:#A80036;stroke-width:1.0;"/><!--MD5=[c56d23af98be554523068ac4fbdb568e]
link CreateParameterController to Parameter--><path codeLine="41" d="M505.79,202.213 C553.579,253.2 628.598,344.02 658.5,439 C669.978,475.458 673.833,489.988 658.5,525 C646.012,553.516 623.495,578.424 600.328,598.371 " fill="none" id="CreateParameterController-to-Parameter" style="stroke:#A80036;stroke-width:1.0;stroke-dasharray:7.0,7.0;"/><polygon fill="#A80036" points="596.303,601.7829,605.755,599.0152,600.1173,598.5501,600.5824,592.9124,596.303,601.7829" style="stroke:#A80036;stroke-width:1.0;"/><!--MD5=[46706d5726812879537e05899d80bc9e]
link CreateParameterController to ParameterStore--><path codeLine="42" d="M333.375,202.095 C301.732,217.268 270.216,237.219 246.5,263 C202.257,311.095 181.195,385.346 171.678,433.561 " fill="none" id="CreateParameterController-to-ParameterStore" style="stroke:#A80036;stroke-width:1.0;stroke-dasharray:7.0,7.0;"/><polygon fill="#A80036" points="170.684,438.725,176.314,430.644,171.6297,433.8152,168.4584,429.1309,170.684,438.725" style="stroke:#A80036;stroke-width:1.0;"/><!--MD5=[d4acd0f9b6f472dc8c1d58fc6da00ca5]
link CreateParameterController to ParameterCategoryStore--><path codeLine="43" d="M468.243,202.295 C475.434,266.415 488.96,387.014 495.609,446.302 " fill="none" id="CreateParameterController-to-ParameterCategoryStore" style="stroke:#A80036;stroke-width:1.0;stroke-dasharray:7.0,7.0;"/><polygon fill="#A80036" points="496.192,451.499,499.1642,442.1093,495.6348,446.5301,491.214,443.0008,496.192,451.499" style="stroke:#A80036;stroke-width:1.0;"/><!--MD5=[6d585fb02c26694275539b4f1508918e]
link CreateParameterController to Company--><path codeLine="44" d="M433.416,202.201 C420.94,219.702 406.33,240.196 393.154,258.68 " fill="none" id="CreateParameterController-to-Company" style="stroke:#A80036;stroke-width:1.0;stroke-dasharray:7.0,7.0;"/><polygon fill="#A80036" points="390.191,262.837,398.6728,257.831,393.0937,258.7658,392.1589,253.1867,390.191,262.837" style="stroke:#A80036;stroke-width:1.0;"/><!--MD5=[daf3d7412afa2c7651483be0b6e971d1]
link Company to ParameterStore--><path codeLine="45" d="M299.998,362.173 C273.648,385.281 242.34,412.737 216.459,435.434 " fill="none" id="Company-to-ParameterStore" style="stroke:#A80036;stroke-width:1.0;stroke-dasharray:7.0,7.0;"/><polygon fill="#A80036" points="212.681,438.747,222.0851,435.8207,216.4403,435.4504,216.8106,429.8057,212.681,438.747" style="stroke:#A80036;stroke-width:1.0;"/><text fill="#000000" font-family="sans-serif" font-size="13" lengthAdjust="spacing" textLength="30" x="267.5" y="405.0669">uses</text><text fill="#000000" font-family="sans-serif" font-size="13" lengthAdjust="spacing" textLength="8" x="283.6305" y="382.2738">1</text><text fill="#000000" font-family="sans-serif" font-size="13" lengthAdjust="spacing" textLength="8" x="211.4462" y="428.0208">1</text><!--MD5=[d53d7490e5836ca5709858d7326f212b]
link Company to ParameterCategoryStore--><path codeLine="46" d="M397.538,362.398 C421.02,389.713 449.677,423.047 470.624,447.412 " fill="none" id="Company-to-ParameterCategoryStore" style="stroke:#A80036;stroke-width:1.0;stroke-dasharray:7.0,7.0;"/><polygon fill="#A80036" points="473.918,451.243,471.0833,441.8109,470.6582,447.4518,465.0173,447.0266,473.918,451.243" style="stroke:#A80036;stroke-width:1.0;"/><text fill="#000000" font-family="sans-serif" font-size="13" lengthAdjust="spacing" textLength="30" x="437.5" y="405.0669">uses</text><text fill="#000000" font-family="sans-serif" font-size="13" lengthAdjust="spacing" textLength="8" x="394.6494" y="382.172">1</text><text fill="#000000" font-family="sans-serif" font-size="13" lengthAdjust="spacing" textLength="8" x="459.8167" y="440.4532">1</text><!--MD5=[a0992dda039fed1bb57aff5aacace800]
link ParameterStore to Parameter--><path codeLine="47" d="M254.376,525.051 C302.83,547.722 362.982,575.865 414.026,599.747 " fill="none" id="ParameterStore-to-Parameter" style="stroke:#A80036;stroke-width:1.0;stroke-dasharray:7.0,7.0;"/><polygon fill="#A80036" points="418.622,601.8978,412.167,594.4592,414.0937,599.7778,408.775,601.7045,418.622,601.8978" style="stroke:#A80036;stroke-width:1.0;"/><text fill="#000000" font-family="sans-serif" font-size="13" lengthAdjust="spacing" textLength="132" x="355.5" y="568.0669">capable of analysing</text><text fill="#000000" font-family="sans-serif" font-size="13" lengthAdjust="spacing" textLength="8" x="260.5992" y="545.4671">1</text><text fill="#000000" font-family="sans-serif" font-size="13" lengthAdjust="spacing" textLength="7" x="396.522" y="590.9289">*</text><!--MD5=[bee70097aa096a91f047da43ad667f9f]
@startuml
skinparam classAttributeIconSize 0

class Company
{
  -String designation
  +getParameterCategoryStore
  +getParameterCategory
  +getParameterStore
}


class Parameter {
  -String code
  -String shortName
  -String description
  +Parameter(code, shortName, description, cat)
}

class ParameterStore {
  +createParameter(code, shortName, description, cat)
  +validateParameter(parameter)
  +saveParameter(parameter)
}

class ParameterCategoryStore {
  +getParameterCategoryByCode(categoryCode)
}


class CreateParameterController {
  +getParameterCategories()
  +createParameter(code, shortName, description, cat)
  +saveParameter()
}

class CreateParameterUI {

}

CreateParameterUI ..> CreateParameterController
CreateParameterController ..> Parameter
CreateParameterController ..> ParameterStore
CreateParameterController ..> ParameterCategoryStore
CreateParameterController ..> Company
Company "1" ..> "1" ParameterStore : uses
Company "1" ..> "1" ParameterCategoryStore : uses
ParameterStore "1" ..> "*" Parameter : capable of analysing
@enduml

PlantUML version 1.2021.6beta4(Unknown compile time)
(GPL source distribution)
Java Runtime: Java(TM) SE Runtime Environment
JVM: Java HotSpot(TM) 64-Bit Server VM
Default Encoding: UTF-8
Language: en
Country: US
--></g></svg>