<?xml version="1.0" encoding="UTF-8" standalone="no"?><svg xmlns="http://www.w3.org/2000/svg" xmlns:xlink="http://www.w3.org/1999/xlink" contentScriptType="application/ecmascript" contentStyleType="text/css" height="157px" preserveAspectRatio="none" style="width:994px;height:157px;background:#FFFFFF;" version="1.1" viewBox="0 0 994 157" width="994px" zoomAndPan="magnify"><defs><filter height="300%" id="f1whuknfphhlnu" width="300%" x="-1" y="-1"><feGaussianBlur result="blurOut" stdDeviation="2.0"/><feColorMatrix in="blurOut" result="blurOut2" type="matrix" values="0 0 0 0 0 0 0 0 0 0 0 0 0 0 0 0 0 0 .4 0"/><feOffset dx="4.0" dy="4.0" in="blurOut2" result="blurOut3"/><feBlend in="SourceGraphic" in2="blurOut3" mode="normal"/></filter></defs><g><!--MD5=[02e4b9b7573f1156f41e60aa5b4e25a4]
class Company--><rect codeLine="6" fill="#FEFECE" filter="url(#f1whuknfphhlnu)" height="52.8047" id="Company" style="stroke:#A80036;stroke-width:1.5;" width="88" x="7" y="52.0655"/><ellipse cx="22" cy="68.0655" fill="#ADD1B2" rx="11" ry="11" style="stroke:#A80036;stroke-width:1.0;"/><path d="M24.3438,63.7374 C23.4063,63.2999 22.8125,63.1593 21.9375,63.1593 C19.3125,63.1593 17.3125,65.2374 17.3125,67.9561 L17.3125,69.0811 C17.3125,71.6593 19.4219,73.5499 22.3125,73.5499 C23.5313,73.5499 24.6875,73.253 25.4375,72.7061 C26.0156,72.2999 26.3438,71.8468 26.3438,71.4561 C26.3438,71.003 25.9531,70.6124 25.4844,70.6124 C25.2656,70.6124 25.0625,70.6905 24.875,70.878 C24.4219,71.3624 24.4219,71.3624 24.2344,71.4561 C23.8125,71.7218 23.125,71.8468 22.3594,71.8468 C20.3125,71.8468 19.0156,70.753 19.0156,69.0499 L19.0156,67.9561 C19.0156,66.1749 20.2656,64.8624 22,64.8624 C22.5781,64.8624 23.1875,65.0186 23.6563,65.2686 C24.1406,65.5499 24.3125,65.7686 24.4063,66.1749 C24.4688,66.5811 24.5,66.7061 24.6406,66.8311 C24.7813,66.9718 25.0156,67.0811 25.2344,67.0811 C25.5,67.0811 25.7656,66.9405 25.9375,66.7218 C26.0469,66.5655 26.0781,66.378 26.0781,65.9561 L26.0781,64.5343 C26.0781,64.0968 26.0625,63.9718 25.9688,63.8155 C25.8125,63.5499 25.5313,63.4093 25.2344,63.4093 C24.9375,63.4093 24.7344,63.503 24.5156,63.8155 L24.3438,63.7374 Z " fill="#000000"/><text fill="#000000" font-family="sans-serif" font-size="12" lengthAdjust="spacing" textLength="56" x="36" y="72.2198">Company</text><line style="stroke:#A80036;stroke-width:1.5;" x1="8" x2="94" y1="84.0655" y2="84.0655"/><text fill="#000000" font-family="sans-serif" font-size="11" lengthAdjust="spacing" textLength="70" x="13" y="98.276">-designation</text><!--MD5=[da547346deef918ea16944ba046651ef]
class Administrator--><rect codeLine="10" fill="#FEFECE" filter="url(#f1whuknfphhlnu)" height="40" id="Administrator" style="stroke:#A80036;stroke-width:1.5;" width="112" x="868" y="10.5659"/><ellipse cx="883" cy="26.5659" fill="#ADD1B2" rx="11" ry="11" style="stroke:#A80036;stroke-width:1.0;"/><path d="M885.3438,22.2378 C884.4063,21.8003 883.8125,21.6597 882.9375,21.6597 C880.3125,21.6597 878.3125,23.7378 878.3125,26.4565 L878.3125,27.5815 C878.3125,30.1597 880.4219,32.0503 883.3125,32.0503 C884.5313,32.0503 885.6875,31.7534 886.4375,31.2065 C887.0156,30.8003 887.3438,30.3472 887.3438,29.9565 C887.3438,29.5034 886.9531,29.1128 886.4844,29.1128 C886.2656,29.1128 886.0625,29.1909 885.875,29.3784 C885.4219,29.8628 885.4219,29.8628 885.2344,29.9565 C884.8125,30.2222 884.125,30.3472 883.3594,30.3472 C881.3125,30.3472 880.0156,29.2534 880.0156,27.5503 L880.0156,26.4565 C880.0156,24.6753 881.2656,23.3628 883,23.3628 C883.5781,23.3628 884.1875,23.519 884.6563,23.769 C885.1406,24.0503 885.3125,24.269 885.4063,24.6753 C885.4688,25.0815 885.5,25.2065 885.6406,25.3315 C885.7813,25.4722 886.0156,25.5815 886.2344,25.5815 C886.5,25.5815 886.7656,25.4409 886.9375,25.2222 C887.0469,25.0659 887.0781,24.8784 887.0781,24.4565 L887.0781,23.0347 C887.0781,22.5972 887.0625,22.4722 886.9688,22.3159 C886.8125,22.0503 886.5313,21.9097 886.2344,21.9097 C885.9375,21.9097 885.7344,22.0034 885.5156,22.3159 L885.3438,22.2378 Z " fill="#000000"/><text fill="#000000" font-family="sans-serif" font-size="12" lengthAdjust="spacing" textLength="80" x="897" y="30.7202">Administrator</text><line style="stroke:#A80036;stroke-width:1.5;" x1="869" x2="979" y1="42.5659" y2="42.5659"/><!--MD5=[1f6362a5c8f21d8d6a0fce68f3a92a4e]
class Parameter--><rect codeLine="14" fill="#FEFECE" filter="url(#f1whuknfphhlnu)" height="52.8047" id="Parameter" style="stroke:#A80036;stroke-width:1.5;" width="93" x="302" y="52.0655"/><ellipse cx="317" cy="68.0655" fill="#ADD1B2" rx="11" ry="11" style="stroke:#A80036;stroke-width:1.0;"/><path d="M319.3438,63.7374 C318.4063,63.2999 317.8125,63.1593 316.9375,63.1593 C314.3125,63.1593 312.3125,65.2374 312.3125,67.9561 L312.3125,69.0811 C312.3125,71.6593 314.4219,73.5499 317.3125,73.5499 C318.5313,73.5499 319.6875,73.253 320.4375,72.7061 C321.0156,72.2999 321.3438,71.8468 321.3438,71.4561 C321.3438,71.003 320.9531,70.6124 320.4844,70.6124 C320.2656,70.6124 320.0625,70.6905 319.875,70.878 C319.4219,71.3624 319.4219,71.3624 319.2344,71.4561 C318.8125,71.7218 318.125,71.8468 317.3594,71.8468 C315.3125,71.8468 314.0156,70.753 314.0156,69.0499 L314.0156,67.9561 C314.0156,66.1749 315.2656,64.8624 317,64.8624 C317.5781,64.8624 318.1875,65.0186 318.6563,65.2686 C319.1406,65.5499 319.3125,65.7686 319.4063,66.1749 C319.4688,66.5811 319.5,66.7061 319.6406,66.8311 C319.7813,66.9718 320.0156,67.0811 320.2344,67.0811 C320.5,67.0811 320.7656,66.9405 320.9375,66.7218 C321.0469,66.5655 321.0781,66.378 321.0781,65.9561 L321.0781,64.5343 C321.0781,64.0968 321.0625,63.9718 320.9688,63.8155 C320.8125,63.5499 320.5313,63.4093 320.2344,63.4093 C319.9375,63.4093 319.7344,63.503 319.5156,63.8155 L319.3438,63.7374 Z " fill="#000000"/><text fill="#000000" font-family="sans-serif" font-size="12" lengthAdjust="spacing" textLength="61" x="331" y="72.2198">Parameter</text><line style="stroke:#A80036;stroke-width:1.5;" x1="303" x2="394" y1="84.0655" y2="84.0655"/><text fill="#000000" font-family="sans-serif" font-size="11" lengthAdjust="spacing" textLength="70" x="308" y="98.276">-designation</text><!--MD5=[36afb6bbd95a8ac778c4537c55a683d5]
class ParameterCategory--><rect codeLine="18" fill="#FEFECE" filter="url(#f1whuknfphhlnu)" height="65.6094" id="ParameterCategory" style="stroke:#A80036;stroke-width:1.5;" width="148" x="576" y="51.5655"/><ellipse cx="591" cy="67.5655" fill="#ADD1B2" rx="11" ry="11" style="stroke:#A80036;stroke-width:1.0;"/><path d="M593.3438,63.2374 C592.4063,62.7999 591.8125,62.6593 590.9375,62.6593 C588.3125,62.6593 586.3125,64.7374 586.3125,67.4561 L586.3125,68.5811 C586.3125,71.1593 588.4219,73.0499 591.3125,73.0499 C592.5313,73.0499 593.6875,72.753 594.4375,72.2061 C595.0156,71.7999 595.3438,71.3468 595.3438,70.9561 C595.3438,70.503 594.9531,70.1124 594.4844,70.1124 C594.2656,70.1124 594.0625,70.1905 593.875,70.378 C593.4219,70.8624 593.4219,70.8624 593.2344,70.9561 C592.8125,71.2218 592.125,71.3468 591.3594,71.3468 C589.3125,71.3468 588.0156,70.253 588.0156,68.5499 L588.0156,67.4561 C588.0156,65.6749 589.2656,64.3624 591,64.3624 C591.5781,64.3624 592.1875,64.5186 592.6563,64.7686 C593.1406,65.0499 593.3125,65.2686 593.4063,65.6749 C593.4688,66.0811 593.5,66.2061 593.6406,66.3311 C593.7813,66.4718 594.0156,66.5811 594.2344,66.5811 C594.5,66.5811 594.7656,66.4405 594.9375,66.2218 C595.0469,66.0655 595.0781,65.878 595.0781,65.4561 L595.0781,64.0343 C595.0781,63.5968 595.0625,63.4718 594.9688,63.3155 C594.8125,63.0499 594.5313,62.9093 594.2344,62.9093 C593.9375,62.9093 593.7344,63.003 593.5156,63.3155 L593.3438,63.2374 Z " fill="#000000"/><text fill="#000000" font-family="sans-serif" font-size="12" lengthAdjust="spacing" textLength="116" x="605" y="71.7198">ParameterCategory</text><line style="stroke:#A80036;stroke-width:1.5;" x1="577" x2="723" y1="83.5655" y2="83.5655"/><text fill="#000000" font-family="sans-serif" font-size="11" lengthAdjust="spacing" textLength="32" x="582" y="97.776">-code</text><text fill="#000000" font-family="sans-serif" font-size="11" lengthAdjust="spacing" textLength="37" x="582" y="110.5807">-name</text><!--MD5=[eaea43e34e45c5b9d20b595fc78f1f20]
link Company to Administrator--><path codeLine="25" d="M95.1649,62.0107 C104.8647,58.7901 115.192,55.7428 125,53.5655 C202.238,36.4199 223.058,39.8419 302,34.5659 C502.512,21.1639 553.058,25.2319 754,22.5659 C791.33,22.0699 800.708,20.8149 838,22.5659 C847.624,23.0169 857.84,23.7559 867.728,24.6059 " fill="none" id="Company-Administrator" style="stroke:#A80036;stroke-width:1.0;"/><polygon fill="#000000" points="467.4941,14.8905,458.3175,12.3925,458.6018,18.2634,467.4941,14.8905" style="stroke:#000000;stroke-width:1.0;"/><text fill="#000000" font-family="sans-serif" font-size="13" lengthAdjust="spacing" textLength="41" x="471.5" y="19.6328">knows</text><text fill="#000000" font-family="sans-serif" font-size="13" lengthAdjust="spacing" textLength="8" x="103.1422" y="72.6051">1</text><text fill="#000000" font-family="sans-serif" font-size="13" lengthAdjust="spacing" textLength="7" x="853.0697" y="36.8786">*</text><!--MD5=[93b4f25fb503a8e0e9a46b1d30ff3f44]
link Company to ParameterCategory--><path codeLine="26" d="M95.2235,92.4636 C144.608,107.553 228.146,130.6856 302,139.5655 C396.926,150.979 505.701,127.795 575.776,108.1028 " fill="none" id="Company-ParameterCategory" style="stroke:#A80036;stroke-width:1.0;"/><polygon fill="#000000" points="328.9974,131.2946,320.0526,128.063,319.8615,133.9377,328.9974,131.2946" style="stroke:#000000;stroke-width:1.0;"/><text fill="#000000" font-family="sans-serif" font-size="13" lengthAdjust="spacing" textLength="44" x="333" y="135.6324">adopts</text><text fill="#000000" font-family="sans-serif" font-size="13" lengthAdjust="spacing" textLength="8" x="102.9091" y="107.967">1</text><text fill="#000000" font-family="sans-serif" font-size="13" lengthAdjust="spacing" textLength="7" x="560.7607" y="123.3974">*</text><!--MD5=[12d76240d3c3c66074d4ec2ea8bf469c]
link Company to Parameter--><path codeLine="27" d="M95.2847,78.5655 C150.431,78.5655 245.328,78.5655 301.668,78.5655 " fill="none" id="Company-Parameter" style="stroke:#A80036;stroke-width:1.0;"/><polygon fill="#000000" points="135,70.1319,125.9549,67.193,125.9549,73.0709,135,70.1319" style="stroke:#000000;stroke-width:1.0;"/><text fill="#000000" font-family="sans-serif" font-size="13" lengthAdjust="spacing" textLength="132" x="139" y="74.6324">capable of analysing</text><text fill="#000000" font-family="sans-serif" font-size="13" lengthAdjust="spacing" textLength="8" x="102.9801" y="91.8539">1</text><text fill="#000000" font-family="sans-serif" font-size="13" lengthAdjust="spacing" textLength="7" x="286.9609" y="91.806">*</text><!--MD5=[6df8849671cb880f6936e94aa30db6f9]
link Parameter to ParameterCategory--><path codeLine="28" d="M395.314,79.4833 C443.326,80.4451 519.466,81.9705 575.817,83.0994 " fill="none" id="Parameter-ParameterCategory" style="stroke:#A80036;stroke-width:1.0;"/><polygon fill="#000000" points="434.999,71.2321,426.0146,68.1126,425.8969,73.9892,434.999,71.2321" style="stroke:#000000;stroke-width:1.0;"/><text fill="#000000" font-family="sans-serif" font-size="13" lengthAdjust="spacing" textLength="106" x="439" y="75.6324">presented under</text><text fill="#000000" font-family="sans-serif" font-size="13" lengthAdjust="spacing" textLength="7" x="403.0183" y="92.8643">*</text><text fill="#000000" font-family="sans-serif" font-size="13" lengthAdjust="spacing" textLength="8" x="560.1209" y="95.786">1</text><!--MD5=[8fed49cf12a674e36a1de475622ee091]
link ParameterCategory to Administrator--><path codeLine="29" d="M724.249,70.0234 C769.408,61.058 826.389,49.7455 867.75,41.5339 " fill="none" id="ParameterCategory-Administrator" style="stroke:#A80036;stroke-width:1.0;"/><polygon fill="#000000" points="763.9043,38.1587,754.4601,37.0374,755.6047,42.8027,763.9043,38.1587" style="stroke:#000000;stroke-width:1.0;"/><text fill="#000000" font-family="sans-serif" font-size="13" lengthAdjust="spacing" textLength="69" x="768" y="43.6328">created by</text><text fill="#000000" font-family="sans-serif" font-size="13" lengthAdjust="spacing" textLength="7" x="731.9024" y="81.4229">*</text><text fill="#000000" font-family="sans-serif" font-size="13" lengthAdjust="spacing" textLength="8" x="852.0305" y="55.9755">1</text><!--MD5=[d48317b94cbd1e8bb92511b250bc7c53]
@startuml
hide methods
left to right direction
skinparam classAttributeIconSize 0


class Company {
  -designation
}

class Administrator {

}

class Parameter {
  -designation
}

class ParameterCategory {
  -code
  -name
}



Company "1" - - "*" Administrator : knows  >
Company "1" - - "*" ParameterCategory : adopts >
Company "1" - - "*" Parameter : capable of analysing >
Parameter "*" - - "1" ParameterCategory: presented under >
ParameterCategory "*" - - "1" Administrator: created by >
@enduml

PlantUML version 1.2021.6beta6(Unknown compile time)
(GPL source distribution)
Java Runtime: Java(TM) SE Runtime Environment
JVM: Java HotSpot(TM) 64-Bit Server VM
Default Encoding: UTF-8
Language: en
Country: US
--></g></svg>