<?xml version="1.0" encoding="UTF-8" standalone="no"?><svg xmlns="http://www.w3.org/2000/svg" xmlns:xlink="http://www.w3.org/1999/xlink" contentScriptType="application/ecmascript" contentStyleType="text/css" height="1070.25px" preserveAspectRatio="none" style="width:1872px;height:1070px;" version="1.1" viewBox="0 0 1872 1070" width="1872px" zoomAndPan="magnify"><defs><filter height="300%" id="f9iuyjeg35ax6" width="300%" x="-1" y="-1"><feGaussianBlur result="blurOut" stdDeviation="1.5"/><feColorMatrix in="blurOut" result="blurOut2" type="matrix" values="0 0 0 0 0 0 0 0 0 0 0 0 0 0 0 0 0 0 .4 0"/><feOffset dx="3.0" dy="3.0" in="blurOut2" result="blurOut3"/><feBlend in="SourceGraphic" in2="blurOut3" mode="normal"/></filter></defs><g><!--MD5=[121a8bf1197281ab89ed693fab589f94]
cluster Domain--><polygon fill="#FFFFFF" filter="url(#f9iuyjeg35ax6)" points="12,291.75,55.5,291.75,60.75,309.457,1511.25,309.457,1511.25,1065,12,1065,12,291.75" style="stroke:#000000;stroke-width:1.125;"/><line style="stroke:#000000;stroke-width:1.125;" x1="12" x2="60.75" y1="309.457" y2="309.457"/><text fill="#000000" font-family="sans-serif" font-size="10.5" font-weight="bold" lengthAdjust="spacing" textLength="39" x="15" y="304.1499">Domain</text><!--MD5=[1f2cfc53d9d308f53762fd0fcbaa4873]
cluster Controller--><polygon fill="#FFFFFF" filter="url(#f9iuyjeg35ax6)" points="1414.5,104.25,1472.25,104.25,1477.5,121.957,1653,121.957,1653,220.5,1414.5,220.5,1414.5,104.25" style="stroke:#000000;stroke-width:1.125;"/><line style="stroke:#000000;stroke-width:1.125;" x1="1414.5" x2="1477.5" y1="121.957" y2="121.957"/><text fill="#000000" font-family="sans-serif" font-size="10.5" font-weight="bold" lengthAdjust="spacing" textLength="53.25" x="1417.5" y="116.6499">Controller</text><!--MD5=[9681dc6e01e10c6b4fe06895ae94f592]
cluster UI--><polygon fill="#FFFFFF" filter="url(#f9iuyjeg35ax6)" points="1467.75,4.5,1482.75,4.5,1488,22.207,1599.75,22.207,1599.75,79.5,1467.75,79.5,1467.75,4.5" style="stroke:#000000;stroke-width:1.125;"/><line style="stroke:#000000;stroke-width:1.125;" x1="1467.75" x2="1488" y1="22.207" y2="22.207"/><text fill="#000000" font-family="sans-serif" font-size="10.5" font-weight="bold" lengthAdjust="spacing" textLength="10.5" x="1470.75" y="16.8999">UI</text><!--MD5=[32ff0bc6350c7c18bc045f793eb2f657]
cluster Mapper--><polygon fill="#FFFFFF" filter="url(#f9iuyjeg35ax6)" points="1561.5,297,1606.5,297,1611.75,314.707,1801.5,314.707,1801.5,382.5,1561.5,382.5,1561.5,297" style="stroke:#000000;stroke-width:1.125;"/><line style="stroke:#000000;stroke-width:1.125;" x1="1561.5" x2="1611.75" y1="314.707" y2="314.707"/><text fill="#000000" font-family="sans-serif" font-size="10.5" font-weight="bold" lengthAdjust="spacing" textLength="40.5" x="1564.5" y="309.3999">Mapper</text><!--MD5=[7b8bc9ee8bb84b99fb3a3f9477c19238]
cluster DTO--><polygon fill="#FFFFFF" filter="url(#f9iuyjeg35ax6)" points="1529.25,423.75,1555.5,423.75,1560.75,441.457,1830.75,441.457,1830.75,540,1529.25,540,1529.25,423.75" style="stroke:#000000;stroke-width:1.125;"/><line style="stroke:#000000;stroke-width:1.125;" x1="1529.25" x2="1560.75" y1="441.457" y2="441.457"/><text fill="#000000" font-family="sans-serif" font-size="10.5" font-weight="bold" lengthAdjust="spacing" textLength="21.75" x="1532.25" y="436.1499">DTO</text><!--MD5=[aeb3272166074d8737a70b61b1e71682]
class TestType--><rect codeLine="84" fill="#FEFECE" filter="url(#f9iuyjeg35ax6)" height="46.377" id="TestType" style="stroke:#A80036;stroke-width:1.125;" width="61.5" x="423.75" y="739.5"/><ellipse cx="435" cy="751.5" fill="#ADD1B2" rx="8.25" ry="8.25" style="stroke:#A80036;stroke-width:0.75;"/><path d="M436.5,748.875 Q436.6523,748.5 436.8281,748.3125 Q437.0039,748.125 437.2031,748.125 Q437.5547,748.125 437.7773,748.3359 Q438,748.5469 438,749.0391 L438,750.2109 Q438,750.7031 437.7891,750.9141 Q437.5781,751.125 437.25,751.125 Q436.957,751.125 436.7695,750.9961 Q436.582,750.8672 436.5,750.5273 Q436.4648,750.293 436.3359,750.1641 Q436.1016,749.918 435.6797,749.7773 Q435.2578,749.625 434.8359,749.625 Q434.3086,749.625 433.8633,749.8359 Q433.4297,750.0469 433.0898,750.5156 Q432.75,750.9844 432.75,751.6289 L432.75,752.3203 Q432.75,753.0938 433.3828,753.6094 Q434.0156,754.125 435.1406,754.125 Q435.8086,754.125 436.2773,753.9727 Q436.5469,753.8906 436.8516,753.6211 Q437.0508,753.4688 437.1563,753.4219 Q437.2617,753.375 437.3906,753.375 Q437.6367,753.375 437.8125,753.5742 Q438,753.7617 438,754.0313 Q438,754.2891 437.7422,754.5938 Q437.3672,755.0391 436.7695,755.2852 Q435.9844,755.625 435.0234,755.625 Q433.8984,755.625 432.9961,755.1797 Q432.2695,754.8281 431.7539,754.0664 Q431.25,753.3047 431.25,752.4023 L431.25,751.582 Q431.25,750.6445 431.6953,749.8242 Q432.1523,749.0039 432.9375,748.5703 Q433.7344,748.125 434.625,748.125 Q435.1641,748.125 435.6328,748.3125 Q436.1016,748.5 436.5,748.875 Z " fill="#000000"/><text fill="#000000" font-family="sans-serif" font-size="9" lengthAdjust="spacing" textLength="37.5" x="445.5" y="755.1826">TestType</text><line style="stroke:#A80036;stroke-width:1.125;" x1="424.5" x2="484.5" y1="763.5" y2="763.5"/><line style="stroke:#A80036;stroke-width:1.125;" x1="424.5" x2="484.5" y1="769.5" y2="769.5"/><text fill="#000000" font-family="sans-serif" font-size="8.25" lengthAdjust="spacing" textLength="33.75" x="428.25" y="781.0642">+getApi()</text><!--MD5=[1c357e7e7fdba398bcadd6e61afe49f5]
class ReferenceValue--><rect codeLine="95" fill="#FEFECE" filter="url(#f9iuyjeg35ax6)" height="67.1309" id="ReferenceValue" style="stroke:#A80036;stroke-width:1.125;" width="90" x="1185.75" y="985.5"/><ellipse cx="1197" cy="997.5" fill="#ADD1B2" rx="8.25" ry="8.25" style="stroke:#A80036;stroke-width:0.75;"/><path d="M1198.5,994.875 Q1198.6523,994.5 1198.8281,994.3125 Q1199.0039,994.125 1199.2031,994.125 Q1199.5547,994.125 1199.7773,994.3359 Q1200,994.5469 1200,995.0391 L1200,996.2109 Q1200,996.7031 1199.7891,996.9141 Q1199.5781,997.125 1199.25,997.125 Q1198.957,997.125 1198.7695,996.9961 Q1198.582,996.8672 1198.5,996.5273 Q1198.4648,996.293 1198.3359,996.1641 Q1198.1016,995.918 1197.6797,995.7773 Q1197.2578,995.625 1196.8359,995.625 Q1196.3086,995.625 1195.8633,995.8359 Q1195.4297,996.0469 1195.0898,996.5156 Q1194.75,996.9844 1194.75,997.6289 L1194.75,998.3203 Q1194.75,999.0938 1195.3828,999.6094 Q1196.0156,1000.125 1197.1406,1000.125 Q1197.8086,1000.125 1198.2773,999.9727 Q1198.5469,999.8906 1198.8516,999.6211 Q1199.0508,999.4688 1199.1563,999.4219 Q1199.2617,999.375 1199.3906,999.375 Q1199.6367,999.375 1199.8125,999.5742 Q1200,999.7617 1200,1000.0313 Q1200,1000.2891 1199.7422,1000.5938 Q1199.3672,1001.0391 1198.7695,1001.2852 Q1197.9844,1001.625 1197.0234,1001.625 Q1195.8984,1001.625 1194.9961,1001.1797 Q1194.2695,1000.8281 1193.7539,1000.0664 Q1193.25,999.3047 1193.25,998.4023 L1193.25,997.582 Q1193.25,996.6445 1193.6953,995.8242 Q1194.1523,995.0039 1194.9375,994.5703 Q1195.7344,994.125 1196.625,994.125 Q1197.1641,994.125 1197.6328,994.3125 Q1198.1016,994.5 1198.5,994.875 Z " fill="#000000"/><text fill="#000000" font-family="sans-serif" font-size="9" lengthAdjust="spacing" textLength="66" x="1207.5" y="1001.1826">ReferenceValue</text><line style="stroke:#A80036;stroke-width:1.125;" x1="1186.5" x2="1275" y1="1009.5" y2="1009.5"/><text fill="#000000" font-family="sans-serif" font-size="8.25" lengthAdjust="spacing" textLength="59.25" x="1190.25" y="1021.0642">-double minimum</text><text fill="#000000" font-family="sans-serif" font-size="8.25" lengthAdjust="spacing" textLength="62.25" x="1190.25" y="1031.4412">-double maximum</text><text fill="#000000" font-family="sans-serif" font-size="8.25" lengthAdjust="spacing" textLength="48" x="1190.25" y="1041.8181">-String metric</text><line style="stroke:#A80036;stroke-width:1.125;" x1="1186.5" x2="1275" y1="1046.6309" y2="1046.6309"/><!--MD5=[4e608140b854dae633589343bce77383]
class TestParameterResult--><rect codeLine="100" fill="#FEFECE" filter="url(#f9iuyjeg35ax6)" height="77.5078" id="TestParameterResult" style="stroke:#A80036;stroke-width:1.125;" width="176.25" x="1142.625" y="849.75"/><ellipse cx="1183.3125" cy="861.75" fill="#ADD1B2" rx="8.25" ry="8.25" style="stroke:#A80036;stroke-width:0.75;"/><path d="M1184.8125,859.125 Q1184.9648,858.75 1185.1406,858.5625 Q1185.3164,858.375 1185.5156,858.375 Q1185.8672,858.375 1186.0898,858.5859 Q1186.3125,858.7969 1186.3125,859.2891 L1186.3125,860.4609 Q1186.3125,860.9531 1186.1016,861.1641 Q1185.8906,861.375 1185.5625,861.375 Q1185.2695,861.375 1185.082,861.2461 Q1184.8945,861.1172 1184.8125,860.7773 Q1184.7773,860.543 1184.6484,860.4141 Q1184.4141,860.168 1183.9922,860.0273 Q1183.5703,859.875 1183.1484,859.875 Q1182.6211,859.875 1182.1758,860.0859 Q1181.7422,860.2969 1181.4023,860.7656 Q1181.0625,861.2344 1181.0625,861.8789 L1181.0625,862.5703 Q1181.0625,863.3438 1181.6953,863.8594 Q1182.3281,864.375 1183.4531,864.375 Q1184.1211,864.375 1184.5898,864.2227 Q1184.8594,864.1406 1185.1641,863.8711 Q1185.3633,863.7188 1185.4688,863.6719 Q1185.5742,863.625 1185.7031,863.625 Q1185.9492,863.625 1186.125,863.8242 Q1186.3125,864.0117 1186.3125,864.2813 Q1186.3125,864.5391 1186.0547,864.8438 Q1185.6797,865.2891 1185.082,865.5352 Q1184.2969,865.875 1183.3359,865.875 Q1182.2109,865.875 1181.3086,865.4297 Q1180.582,865.0781 1180.0664,864.3164 Q1179.5625,863.5547 1179.5625,862.6523 L1179.5625,861.832 Q1179.5625,860.8945 1180.0078,860.0742 Q1180.4648,859.2539 1181.25,858.8203 Q1182.0469,858.375 1182.9375,858.375 Q1183.4766,858.375 1183.9453,858.5625 Q1184.4141,858.75 1184.8125,859.125 Z " fill="#000000"/><text fill="#000000" font-family="sans-serif" font-size="9" lengthAdjust="spacing" textLength="88.5" x="1198.6875" y="865.4326">TestParameterResult</text><line style="stroke:#A80036;stroke-width:1.125;" x1="1143.375" x2="1318.125" y1="873.75" y2="873.75"/><text fill="#000000" font-family="sans-serif" font-size="8.25" lengthAdjust="spacing" textLength="96" x="1147.125" y="885.3142">-ReferenceValue refValue</text><text fill="#000000" font-family="sans-serif" font-size="8.25" lengthAdjust="spacing" textLength="48.75" x="1147.125" y="895.6912">-double value</text><text fill="#000000" font-family="sans-serif" font-size="8.25" lengthAdjust="spacing" textLength="48" x="1147.125" y="906.0681">-String metric</text><line style="stroke:#A80036;stroke-width:1.125;" x1="1143.375" x2="1318.125" y1="910.8809" y2="910.8809"/><text fill="#000000" font-family="sans-serif" font-size="8.25" lengthAdjust="spacing" textLength="167.25" x="1147.125" y="922.4451">+TestParameterResult(value, metric, refValue)</text><!--MD5=[0f07739f46effee96e095e9c408da841]
class TestParameter--><rect codeLine="106" fill="#FEFECE" filter="url(#f9iuyjeg35ax6)" height="56.7539" id="TestParameter" style="stroke:#A80036;stroke-width:1.125;" width="228.75" x="1270.125" y="734.25"/><ellipse cx="1350.5625" cy="746.25" fill="#ADD1B2" rx="8.25" ry="8.25" style="stroke:#A80036;stroke-width:0.75;"/><path d="M1352.0625,743.625 Q1352.2148,743.25 1352.3906,743.0625 Q1352.5664,742.875 1352.7656,742.875 Q1353.1172,742.875 1353.3398,743.0859 Q1353.5625,743.2969 1353.5625,743.7891 L1353.5625,744.9609 Q1353.5625,745.4531 1353.3516,745.6641 Q1353.1406,745.875 1352.8125,745.875 Q1352.5195,745.875 1352.332,745.7461 Q1352.1445,745.6172 1352.0625,745.2773 Q1352.0273,745.043 1351.8984,744.9141 Q1351.6641,744.668 1351.2422,744.5273 Q1350.8203,744.375 1350.3984,744.375 Q1349.8711,744.375 1349.4258,744.5859 Q1348.9922,744.7969 1348.6523,745.2656 Q1348.3125,745.7344 1348.3125,746.3789 L1348.3125,747.0703 Q1348.3125,747.8438 1348.9453,748.3594 Q1349.5781,748.875 1350.7031,748.875 Q1351.3711,748.875 1351.8398,748.7227 Q1352.1094,748.6406 1352.4141,748.3711 Q1352.6133,748.2188 1352.7188,748.1719 Q1352.8242,748.125 1352.9531,748.125 Q1353.1992,748.125 1353.375,748.3242 Q1353.5625,748.5117 1353.5625,748.7813 Q1353.5625,749.0391 1353.3047,749.3438 Q1352.9297,749.7891 1352.332,750.0352 Q1351.5469,750.375 1350.5859,750.375 Q1349.4609,750.375 1348.5586,749.9297 Q1347.832,749.5781 1347.3164,748.8164 Q1346.8125,748.0547 1346.8125,747.1523 L1346.8125,746.332 Q1346.8125,745.3945 1347.2578,744.5742 Q1347.7148,743.7539 1348.5,743.3203 Q1349.2969,742.875 1350.1875,742.875 Q1350.7266,742.875 1351.1953,743.0625 Q1351.6641,743.25 1352.0625,743.625 Z " fill="#000000"/><text fill="#000000" font-family="sans-serif" font-size="9" lengthAdjust="spacing" textLength="61.5" x="1365.9375" y="749.9326">TestParameter</text><line style="stroke:#A80036;stroke-width:1.125;" x1="1270.875" x2="1498.125" y1="758.25" y2="758.25"/><line style="stroke:#A80036;stroke-width:1.125;" x1="1270.875" x2="1498.125" y1="764.25" y2="764.25"/><text fill="#000000" font-family="sans-serif" font-size="8.25" lengthAdjust="spacing" textLength="58.5" x="1274.625" y="775.8142">+getParameter()</text><text fill="#000000" font-family="sans-serif" font-size="8.25" lengthAdjust="spacing" textLength="219.75" x="1274.625" y="786.1912">+addResult(Double result, String metric, ReferenceValue ref)</text><!--MD5=[1f6362a5c8f21d8d6a0fce68f3a92a4e]
class Parameter--><rect codeLine="111" fill="#FEFECE" filter="url(#f9iuyjeg35ax6)" height="77.5078" id="Parameter" style="stroke:#A80036;stroke-width:1.125;" width="153.75" x="1345.125" y="849.75"/><ellipse cx="1397.0625" cy="861.75" fill="#ADD1B2" rx="8.25" ry="8.25" style="stroke:#A80036;stroke-width:0.75;"/><path d="M1398.5625,859.125 Q1398.7148,858.75 1398.8906,858.5625 Q1399.0664,858.375 1399.2656,858.375 Q1399.6172,858.375 1399.8398,858.5859 Q1400.0625,858.7969 1400.0625,859.2891 L1400.0625,860.4609 Q1400.0625,860.9531 1399.8516,861.1641 Q1399.6406,861.375 1399.3125,861.375 Q1399.0195,861.375 1398.832,861.2461 Q1398.6445,861.1172 1398.5625,860.7773 Q1398.5273,860.543 1398.3984,860.4141 Q1398.1641,860.168 1397.7422,860.0273 Q1397.3203,859.875 1396.8984,859.875 Q1396.3711,859.875 1395.9258,860.0859 Q1395.4922,860.2969 1395.1523,860.7656 Q1394.8125,861.2344 1394.8125,861.8789 L1394.8125,862.5703 Q1394.8125,863.3438 1395.4453,863.8594 Q1396.0781,864.375 1397.2031,864.375 Q1397.8711,864.375 1398.3398,864.2227 Q1398.6094,864.1406 1398.9141,863.8711 Q1399.1133,863.7188 1399.2188,863.6719 Q1399.3242,863.625 1399.4531,863.625 Q1399.6992,863.625 1399.875,863.8242 Q1400.0625,864.0117 1400.0625,864.2813 Q1400.0625,864.5391 1399.8047,864.8438 Q1399.4297,865.2891 1398.832,865.5352 Q1398.0469,865.875 1397.0859,865.875 Q1395.9609,865.875 1395.0586,865.4297 Q1394.332,865.0781 1393.8164,864.3164 Q1393.3125,863.5547 1393.3125,862.6523 L1393.3125,861.832 Q1393.3125,860.8945 1393.7578,860.0742 Q1394.2148,859.2539 1395,858.8203 Q1395.7969,858.375 1396.6875,858.375 Q1397.2266,858.375 1397.6953,858.5625 Q1398.1641,858.75 1398.5625,859.125 Z " fill="#000000"/><text fill="#000000" font-family="sans-serif" font-size="9" lengthAdjust="spacing" textLength="43.5" x="1412.4375" y="865.4326">Parameter</text><line style="stroke:#A80036;stroke-width:1.125;" x1="1345.875" x2="1498.125" y1="873.75" y2="873.75"/><text fill="#000000" font-family="sans-serif" font-size="8.25" lengthAdjust="spacing" textLength="44.25" x="1349.625" y="885.3142">-String code</text><text fill="#000000" font-family="sans-serif" font-size="8.25" lengthAdjust="spacing" textLength="65.25" x="1349.625" y="895.6912">-String shortName</text><text fill="#000000" font-family="sans-serif" font-size="8.25" lengthAdjust="spacing" textLength="66" x="1349.625" y="906.0681">-String description</text><text fill="#000000" font-family="sans-serif" font-size="8.25" lengthAdjust="spacing" textLength="144.75" x="1349.625" y="916.4451">-ParameterCategory parameterCategory</text><line style="stroke:#A80036;stroke-width:1.125;" x1="1345.875" x2="1498.125" y1="921.2578" y2="921.2578"/><!--MD5=[df38be88ccee13e832d6fafd6288a4ca]
class Test--><rect codeLine="118" fill="#FEFECE" filter="url(#f9iuyjeg35ax6)" height="87.8848" id="Test" style="stroke:#A80036;stroke-width:1.125;" width="214.5" x="1281" y="588"/><ellipse cx="1376.0625" cy="600" fill="#ADD1B2" rx="8.25" ry="8.25" style="stroke:#A80036;stroke-width:0.75;"/><path d="M1377.5625,597.375 Q1377.7148,597 1377.8906,596.8125 Q1378.0664,596.625 1378.2656,596.625 Q1378.6172,596.625 1378.8398,596.8359 Q1379.0625,597.0469 1379.0625,597.5391 L1379.0625,598.7109 Q1379.0625,599.2031 1378.8516,599.4141 Q1378.6406,599.625 1378.3125,599.625 Q1378.0195,599.625 1377.832,599.4961 Q1377.6445,599.3672 1377.5625,599.0273 Q1377.5273,598.793 1377.3984,598.6641 Q1377.1641,598.418 1376.7422,598.2773 Q1376.3203,598.125 1375.8984,598.125 Q1375.3711,598.125 1374.9258,598.3359 Q1374.4922,598.5469 1374.1523,599.0156 Q1373.8125,599.4844 1373.8125,600.1289 L1373.8125,600.8203 Q1373.8125,601.5938 1374.4453,602.1094 Q1375.0781,602.625 1376.2031,602.625 Q1376.8711,602.625 1377.3398,602.4727 Q1377.6094,602.3906 1377.9141,602.1211 Q1378.1133,601.9688 1378.2188,601.9219 Q1378.3242,601.875 1378.4531,601.875 Q1378.6992,601.875 1378.875,602.0742 Q1379.0625,602.2617 1379.0625,602.5313 Q1379.0625,602.7891 1378.8047,603.0938 Q1378.4297,603.5391 1377.832,603.7852 Q1377.0469,604.125 1376.0859,604.125 Q1374.9609,604.125 1374.0586,603.6797 Q1373.332,603.3281 1372.8164,602.5664 Q1372.3125,601.8047 1372.3125,600.9023 L1372.3125,600.082 Q1372.3125,599.1445 1372.7578,598.3242 Q1373.2148,597.5039 1374,597.0703 Q1374.7969,596.625 1375.6875,596.625 Q1376.2266,596.625 1376.6953,596.8125 Q1377.1641,597 1377.5625,597.375 Z " fill="#000000"/><text fill="#000000" font-family="sans-serif" font-size="9" lengthAdjust="spacing" textLength="18" x="1391.4375" y="603.6826">Test</text><line style="stroke:#A80036;stroke-width:1.125;" x1="1281.75" x2="1494.75" y1="612" y2="612"/><text fill="#000000" font-family="sans-serif" font-size="8.25" lengthAdjust="spacing" textLength="62.25" x="1285.5" y="623.5642">-Double testCode</text><text fill="#000000" font-family="sans-serif" font-size="8.25" lengthAdjust="spacing" textLength="58.5" x="1285.5" y="633.9412">-String nhsCode</text><line style="stroke:#A80036;stroke-width:1.125;" x1="1281.75" x2="1494.75" y1="638.7539" y2="638.7539"/><text fill="#000000" font-family="sans-serif" font-size="8.25" lengthAdjust="spacing" textLength="205.5" x="1285.5" y="650.3181">+addTestParameterResult(parameterCode, result, metric)</text><text fill="#000000" font-family="sans-serif" font-size="8.25" lengthAdjust="spacing" textLength="149.25" x="1285.5" y="660.6951">+validateTestResult(testParameterResult)</text><text fill="#000000" font-family="sans-serif" font-size="8.25" lengthAdjust="spacing" textLength="135" x="1285.5" y="671.072">+addTestResult(testParameterResult)</text><!--MD5=[02e4b9b7573f1156f41e60aa5b4e25a4]
class Company--><rect codeLine="133" fill="#FEFECE" filter="url(#f9iuyjeg35ax6)" height="56.7539" id="Company" style="stroke:#A80036;stroke-width:1.125;" width="76.5" x="1417.5" y="318.75"/><ellipse cx="1434.4875" cy="330.75" fill="#ADD1B2" rx="8.25" ry="8.25" style="stroke:#A80036;stroke-width:0.75;"/><path d="M1435.9875,328.125 Q1436.1398,327.75 1436.3156,327.5625 Q1436.4914,327.375 1436.6906,327.375 Q1437.0422,327.375 1437.2648,327.5859 Q1437.4875,327.7969 1437.4875,328.2891 L1437.4875,329.4609 Q1437.4875,329.9531 1437.2766,330.1641 Q1437.0656,330.375 1436.7375,330.375 Q1436.4445,330.375 1436.257,330.2461 Q1436.0695,330.1172 1435.9875,329.7773 Q1435.9523,329.543 1435.8234,329.4141 Q1435.5891,329.168 1435.1672,329.0273 Q1434.7453,328.875 1434.3234,328.875 Q1433.7961,328.875 1433.3508,329.0859 Q1432.9172,329.2969 1432.5773,329.7656 Q1432.2375,330.2344 1432.2375,330.8789 L1432.2375,331.5703 Q1432.2375,332.3438 1432.8703,332.8594 Q1433.5031,333.375 1434.6281,333.375 Q1435.2961,333.375 1435.7648,333.2227 Q1436.0344,333.1406 1436.3391,332.8711 Q1436.5383,332.7188 1436.6438,332.6719 Q1436.7492,332.625 1436.8781,332.625 Q1437.1242,332.625 1437.3,332.8242 Q1437.4875,333.0117 1437.4875,333.2813 Q1437.4875,333.5391 1437.2297,333.8438 Q1436.8547,334.2891 1436.257,334.5352 Q1435.4719,334.875 1434.5109,334.875 Q1433.3859,334.875 1432.4836,334.4297 Q1431.757,334.0781 1431.2414,333.3164 Q1430.7375,332.5547 1430.7375,331.6523 L1430.7375,330.832 Q1430.7375,329.8945 1431.1828,329.0742 Q1431.6398,328.2539 1432.425,327.8203 Q1433.2219,327.375 1434.1125,327.375 Q1434.6516,327.375 1435.1203,327.5625 Q1435.5891,327.75 1435.9875,328.125 Z " fill="#000000"/><text fill="#000000" font-family="sans-serif" font-size="9" lengthAdjust="spacing" textLength="39.75" x="1446.2625" y="334.4326">Company</text><line style="stroke:#A80036;stroke-width:1.125;" x1="1418.25" x2="1493.25" y1="342.75" y2="342.75"/><text fill="#000000" font-family="sans-serif" font-size="8.25" lengthAdjust="spacing" textLength="67.5" x="1422" y="354.3142">-String designation</text><line style="stroke:#A80036;stroke-width:1.125;" x1="1418.25" x2="1493.25" y1="359.127" y2="359.127"/><text fill="#000000" font-family="sans-serif" font-size="8.25" lengthAdjust="spacing" textLength="57" x="1422" y="370.6912">+getTestStore()</text><!--MD5=[0f6f7964b844a64b0496af0dda7914bd]
class TestStore--><rect codeLine="128" fill="#FEFECE" filter="url(#f9iuyjeg35ax6)" height="56.7539" id="TestStore" style="stroke:#A80036;stroke-width:1.125;" width="87" x="1412.25" y="460.875"/><ellipse cx="1433.9625" cy="472.875" fill="#ADD1B2" rx="8.25" ry="8.25" style="stroke:#A80036;stroke-width:0.75;"/><path d="M1435.4625,470.25 Q1435.6148,469.875 1435.7906,469.6875 Q1435.9664,469.5 1436.1656,469.5 Q1436.5172,469.5 1436.7398,469.7109 Q1436.9625,469.9219 1436.9625,470.4141 L1436.9625,471.5859 Q1436.9625,472.0781 1436.7516,472.2891 Q1436.5406,472.5 1436.2125,472.5 Q1435.9195,472.5 1435.732,472.3711 Q1435.5445,472.2422 1435.4625,471.9023 Q1435.4273,471.668 1435.2984,471.5391 Q1435.0641,471.293 1434.6422,471.1523 Q1434.2203,471 1433.7984,471 Q1433.2711,471 1432.8258,471.2109 Q1432.3922,471.4219 1432.0523,471.8906 Q1431.7125,472.3594 1431.7125,473.0039 L1431.7125,473.6953 Q1431.7125,474.4688 1432.3453,474.9844 Q1432.9781,475.5 1434.1031,475.5 Q1434.7711,475.5 1435.2398,475.3477 Q1435.5094,475.2656 1435.8141,474.9961 Q1436.0133,474.8438 1436.1188,474.7969 Q1436.2242,474.75 1436.3531,474.75 Q1436.5992,474.75 1436.775,474.9492 Q1436.9625,475.1367 1436.9625,475.4063 Q1436.9625,475.6641 1436.7047,475.9688 Q1436.3297,476.4141 1435.732,476.6602 Q1434.9469,477 1433.9859,477 Q1432.8609,477 1431.9586,476.5547 Q1431.232,476.2031 1430.7164,475.4414 Q1430.2125,474.6797 1430.2125,473.7773 L1430.2125,472.957 Q1430.2125,472.0195 1430.6578,471.1992 Q1431.1148,470.3789 1431.9,469.9453 Q1432.6969,469.5 1433.5875,469.5 Q1434.1266,469.5 1434.5953,469.6875 Q1435.0641,469.875 1435.4625,470.25 Z " fill="#000000"/><text fill="#000000" font-family="sans-serif" font-size="9" lengthAdjust="spacing" textLength="39.75" x="1446.7875" y="476.5576">TestStore</text><line style="stroke:#A80036;stroke-width:1.125;" x1="1413" x2="1498.5" y1="484.875" y2="484.875"/><line style="stroke:#A80036;stroke-width:1.125;" x1="1413" x2="1498.5" y1="490.875" y2="490.875"/><text fill="#000000" font-family="sans-serif" font-size="8.25" lengthAdjust="spacing" textLength="78" x="1416.75" y="502.4392">+getTestByBarcode()</text><text fill="#000000" font-family="sans-serif" font-size="8.25" lengthAdjust="spacing" textLength="42" x="1416.75" y="512.8162">+getTests()</text><!--MD5=[49f70376ebab6675c25d1a1b9015092b]
class ExternalModuleAPI1--><rect codeLine="45" fill="#FEFECE" filter="url(#f9iuyjeg35ax6)" height="67.1309" id="ExternalModuleAPI1" style="stroke:#A80036;stroke-width:1.125;" width="271.5" x="575.25" y="854.625"/><ellipse cx="666.9375" cy="866.625" fill="#ADD1B2" rx="8.25" ry="8.25" style="stroke:#A80036;stroke-width:0.75;"/><path d="M668.4375,864 Q668.5898,863.625 668.7656,863.4375 Q668.9414,863.25 669.1406,863.25 Q669.4922,863.25 669.7148,863.4609 Q669.9375,863.6719 669.9375,864.1641 L669.9375,865.3359 Q669.9375,865.8281 669.7266,866.0391 Q669.5156,866.25 669.1875,866.25 Q668.8945,866.25 668.707,866.1211 Q668.5195,865.9922 668.4375,865.6523 Q668.4023,865.418 668.2734,865.2891 Q668.0391,865.043 667.6172,864.9023 Q667.1953,864.75 666.7734,864.75 Q666.2461,864.75 665.8008,864.9609 Q665.3672,865.1719 665.0273,865.6406 Q664.6875,866.1094 664.6875,866.7539 L664.6875,867.4453 Q664.6875,868.2188 665.3203,868.7344 Q665.9531,869.25 667.0781,869.25 Q667.7461,869.25 668.2148,869.0977 Q668.4844,869.0156 668.7891,868.7461 Q668.9883,868.5938 669.0938,868.5469 Q669.1992,868.5 669.3281,868.5 Q669.5742,868.5 669.75,868.6992 Q669.9375,868.8867 669.9375,869.1563 Q669.9375,869.4141 669.6797,869.7188 Q669.3047,870.1641 668.707,870.4102 Q667.9219,870.75 666.9609,870.75 Q665.8359,870.75 664.9336,870.3047 Q664.207,869.9531 663.6914,869.1914 Q663.1875,868.4297 663.1875,867.5273 L663.1875,866.707 Q663.1875,865.7695 663.6328,864.9492 Q664.0898,864.1289 664.875,863.6953 Q665.6719,863.25 666.5625,863.25 Q667.1016,863.25 667.5703,863.4375 Q668.0391,863.625 668.4375,864 Z " fill="#000000"/><text fill="#000000" font-family="sans-serif" font-size="9" lengthAdjust="spacing" textLength="81.75" x="682.3125" y="870.3076">ExternalModuleAPI1</text><line style="stroke:#A80036;stroke-width:1.125;" x1="576" x2="846" y1="878.625" y2="878.625"/><line style="stroke:#A80036;stroke-width:1.125;" x1="576" x2="846" y1="884.625" y2="884.625"/><text fill="#000000" font-family="sans-serif" font-size="8.25" lengthAdjust="spacing" textLength="213" x="579.75" y="896.1892">+String usedMetric(String parameterID, Integer accessKey)</text><text fill="#000000" font-family="sans-serif" font-size="8.25" lengthAdjust="spacing" textLength="259.5" x="579.75" y="906.5662">+Double getMinReferenceValue(String parameterID, Integer accessKey)</text><text fill="#000000" font-family="sans-serif" font-size="8.25" lengthAdjust="spacing" textLength="262.5" x="579.75" y="916.9431">+Double getMaxReferenceValue(String parameterID, Integer accessKey)</text><!--MD5=[1d2a2d03db1594c0ab43b8103c134f5f]
class ExternalModuleAPI2--><rect codeLine="51" fill="#FEFECE" filter="url(#f9iuyjeg35ax6)" height="67.1309" id="ExternalModuleAPI2" style="stroke:#A80036;stroke-width:1.125;" width="243" x="873" y="854.625"/><ellipse cx="950.4375" cy="866.625" fill="#ADD1B2" rx="8.25" ry="8.25" style="stroke:#A80036;stroke-width:0.75;"/><path d="M951.9375,864 Q952.0898,863.625 952.2656,863.4375 Q952.4414,863.25 952.6406,863.25 Q952.9922,863.25 953.2148,863.4609 Q953.4375,863.6719 953.4375,864.1641 L953.4375,865.3359 Q953.4375,865.8281 953.2266,866.0391 Q953.0156,866.25 952.6875,866.25 Q952.3945,866.25 952.207,866.1211 Q952.0195,865.9922 951.9375,865.6523 Q951.9023,865.418 951.7734,865.2891 Q951.5391,865.043 951.1172,864.9023 Q950.6953,864.75 950.2734,864.75 Q949.7461,864.75 949.3008,864.9609 Q948.8672,865.1719 948.5273,865.6406 Q948.1875,866.1094 948.1875,866.7539 L948.1875,867.4453 Q948.1875,868.2188 948.8203,868.7344 Q949.4531,869.25 950.5781,869.25 Q951.2461,869.25 951.7148,869.0977 Q951.9844,869.0156 952.2891,868.7461 Q952.4883,868.5938 952.5938,868.5469 Q952.6992,868.5 952.8281,868.5 Q953.0742,868.5 953.25,868.6992 Q953.4375,868.8867 953.4375,869.1563 Q953.4375,869.4141 953.1797,869.7188 Q952.8047,870.1641 952.207,870.4102 Q951.4219,870.75 950.4609,870.75 Q949.3359,870.75 948.4336,870.3047 Q947.707,869.9531 947.1914,869.1914 Q946.6875,868.4297 946.6875,867.5273 L946.6875,866.707 Q946.6875,865.7695 947.1328,864.9492 Q947.5898,864.1289 948.375,863.6953 Q949.1719,863.25 950.0625,863.25 Q950.6016,863.25 951.0703,863.4375 Q951.5391,863.625 951.9375,864 Z " fill="#000000"/><text fill="#000000" font-family="sans-serif" font-size="9" lengthAdjust="spacing" textLength="81.75" x="965.8125" y="870.3076">ExternalModuleAPI2</text><line style="stroke:#A80036;stroke-width:1.125;" x1="873.75" x2="1115.25" y1="878.625" y2="878.625"/><line style="stroke:#A80036;stroke-width:1.125;" x1="873.75" x2="1115.25" y1="884.625" y2="884.625"/><text fill="#000000" font-family="sans-serif" font-size="8.25" lengthAdjust="spacing" textLength="150" x="877.5" y="896.1892">+String getMetricsFor(String parameterID)</text><text fill="#000000" font-family="sans-serif" font-size="8.25" lengthAdjust="spacing" textLength="185.25" x="877.5" y="906.5662">+EMRefValue getReferenceFor(String parameterID)</text><text fill="#000000" font-family="sans-serif" font-size="8.25" lengthAdjust="spacing" textLength="234" x="877.5" y="916.9431">+EMRefValue getReferenceFor(String parameterID, Date onDate)</text><!--MD5=[ed2ada06f3b87c2092da660cadb03446]
class ExternalModuleAPI3--><rect codeLine="57" fill="#FEFECE" filter="url(#f9iuyjeg35ax6)" height="67.1309" id="ExternalModuleAPI3" style="stroke:#A80036;stroke-width:1.125;" width="270.75" x="24.375" y="854.625"/><ellipse cx="115.6875" cy="866.625" fill="#ADD1B2" rx="8.25" ry="8.25" style="stroke:#A80036;stroke-width:0.75;"/><path d="M117.1875,864 Q117.3398,863.625 117.5156,863.4375 Q117.6914,863.25 117.8906,863.25 Q118.2422,863.25 118.4648,863.4609 Q118.6875,863.6719 118.6875,864.1641 L118.6875,865.3359 Q118.6875,865.8281 118.4766,866.0391 Q118.2656,866.25 117.9375,866.25 Q117.6445,866.25 117.457,866.1211 Q117.2695,865.9922 117.1875,865.6523 Q117.1523,865.418 117.0234,865.2891 Q116.7891,865.043 116.3672,864.9023 Q115.9453,864.75 115.5234,864.75 Q114.9961,864.75 114.5508,864.9609 Q114.1172,865.1719 113.7773,865.6406 Q113.4375,866.1094 113.4375,866.7539 L113.4375,867.4453 Q113.4375,868.2188 114.0703,868.7344 Q114.7031,869.25 115.8281,869.25 Q116.4961,869.25 116.9648,869.0977 Q117.2344,869.0156 117.5391,868.7461 Q117.7383,868.5938 117.8438,868.5469 Q117.9492,868.5 118.0781,868.5 Q118.3242,868.5 118.5,868.6992 Q118.6875,868.8867 118.6875,869.1563 Q118.6875,869.4141 118.4297,869.7188 Q118.0547,870.1641 117.457,870.4102 Q116.6719,870.75 115.7109,870.75 Q114.5859,870.75 113.6836,870.3047 Q112.957,869.9531 112.4414,869.1914 Q111.9375,868.4297 111.9375,867.5273 L111.9375,866.707 Q111.9375,865.7695 112.3828,864.9492 Q112.8398,864.1289 113.625,863.6953 Q114.4219,863.25 115.3125,863.25 Q115.8516,863.25 116.3203,863.4375 Q116.7891,863.625 117.1875,864 Z " fill="#000000"/><text fill="#000000" font-family="sans-serif" font-size="9" lengthAdjust="spacing" textLength="81.75" x="131.0625" y="870.3076">ExternalModuleAPI3</text><line style="stroke:#A80036;stroke-width:1.125;" x1="25.125" x2="294.375" y1="878.625" y2="878.625"/><line style="stroke:#A80036;stroke-width:1.125;" x1="25.125" x2="294.375" y1="884.625" y2="884.625"/><text fill="#000000" font-family="sans-serif" font-size="8.25" lengthAdjust="spacing" textLength="213" x="28.875" y="896.1892">+String usedMetric(String parameterID, Integer accessKey)</text><text fill="#000000" font-family="sans-serif" font-size="8.25" lengthAdjust="spacing" textLength="258.75" x="28.875" y="906.5662">+Double getMinReferenceValue(String parameterId, Integer accessKey)</text><text fill="#000000" font-family="sans-serif" font-size="8.25" lengthAdjust="spacing" textLength="261.75" x="28.875" y="916.9431">+Double getMaxReferenceValue(String parameterId, Integer accessKey)</text><!--MD5=[0f11f0f60ee567100a99d4d7b98e8e2f]
class ExternalModuleAdapter1--><rect codeLine="63" fill="#FEFECE" filter="url(#f9iuyjeg35ax6)" height="46.377" id="ExternalModuleAdapter1" style="stroke:#A80036;stroke-width:1.125;" width="227.25" x="564.375" y="739.5"/><ellipse cx="624.9375" cy="751.5" fill="#ADD1B2" rx="8.25" ry="8.25" style="stroke:#A80036;stroke-width:0.75;"/><path d="M626.4375,748.875 Q626.5898,748.5 626.7656,748.3125 Q626.9414,748.125 627.1406,748.125 Q627.4922,748.125 627.7148,748.3359 Q627.9375,748.5469 627.9375,749.0391 L627.9375,750.2109 Q627.9375,750.7031 627.7266,750.9141 Q627.5156,751.125 627.1875,751.125 Q626.8945,751.125 626.707,750.9961 Q626.5195,750.8672 626.4375,750.5273 Q626.4023,750.293 626.2734,750.1641 Q626.0391,749.918 625.6172,749.7773 Q625.1953,749.625 624.7734,749.625 Q624.2461,749.625 623.8008,749.8359 Q623.3672,750.0469 623.0273,750.5156 Q622.6875,750.9844 622.6875,751.6289 L622.6875,752.3203 Q622.6875,753.0938 623.3203,753.6094 Q623.9531,754.125 625.0781,754.125 Q625.7461,754.125 626.2148,753.9727 Q626.4844,753.8906 626.7891,753.6211 Q626.9883,753.4688 627.0938,753.4219 Q627.1992,753.375 627.3281,753.375 Q627.5742,753.375 627.75,753.5742 Q627.9375,753.7617 627.9375,754.0313 Q627.9375,754.2891 627.6797,754.5938 Q627.3047,755.0391 626.707,755.2852 Q625.9219,755.625 624.9609,755.625 Q623.8359,755.625 622.9336,755.1797 Q622.207,754.8281 621.6914,754.0664 Q621.1875,753.3047 621.1875,752.4023 L621.1875,751.582 Q621.1875,750.6445 621.6328,749.8242 Q622.0898,749.0039 622.875,748.5703 Q623.6719,748.125 624.5625,748.125 Q625.1016,748.125 625.5703,748.3125 Q626.0391,748.5 626.4375,748.875 Z " fill="#000000"/><text fill="#000000" font-family="sans-serif" font-size="9" lengthAdjust="spacing" textLength="99.75" x="640.3125" y="755.1826">ExternalModuleAdapter1</text><line style="stroke:#A80036;stroke-width:1.125;" x1="565.125" x2="790.875" y1="763.5" y2="763.5"/><line style="stroke:#A80036;stroke-width:1.125;" x1="565.125" x2="790.875" y1="769.5" y2="769.5"/><text fill="#000000" font-family="sans-serif" font-size="8.25" lengthAdjust="spacing" textLength="218.25" x="568.875" y="781.0642">+ReferenceValue getReferenceValue(Parameter parameter)</text><!--MD5=[2191233c03d1d98f88ead7aa4dd76da0]
class ExternalModuleAdapter2--><rect codeLine="67" fill="#FEFECE" filter="url(#f9iuyjeg35ax6)" height="46.377" id="ExternalModuleAdapter2" style="stroke:#A80036;stroke-width:1.125;" width="227.25" x="841.875" y="739.5"/><ellipse cx="902.4375" cy="751.5" fill="#ADD1B2" rx="8.25" ry="8.25" style="stroke:#A80036;stroke-width:0.75;"/><path d="M903.9375,748.875 Q904.0898,748.5 904.2656,748.3125 Q904.4414,748.125 904.6406,748.125 Q904.9922,748.125 905.2148,748.3359 Q905.4375,748.5469 905.4375,749.0391 L905.4375,750.2109 Q905.4375,750.7031 905.2266,750.9141 Q905.0156,751.125 904.6875,751.125 Q904.3945,751.125 904.207,750.9961 Q904.0195,750.8672 903.9375,750.5273 Q903.9023,750.293 903.7734,750.1641 Q903.5391,749.918 903.1172,749.7773 Q902.6953,749.625 902.2734,749.625 Q901.7461,749.625 901.3008,749.8359 Q900.8672,750.0469 900.5273,750.5156 Q900.1875,750.9844 900.1875,751.6289 L900.1875,752.3203 Q900.1875,753.0938 900.8203,753.6094 Q901.4531,754.125 902.5781,754.125 Q903.2461,754.125 903.7148,753.9727 Q903.9844,753.8906 904.2891,753.6211 Q904.4883,753.4688 904.5938,753.4219 Q904.6992,753.375 904.8281,753.375 Q905.0742,753.375 905.25,753.5742 Q905.4375,753.7617 905.4375,754.0313 Q905.4375,754.2891 905.1797,754.5938 Q904.8047,755.0391 904.207,755.2852 Q903.4219,755.625 902.4609,755.625 Q901.3359,755.625 900.4336,755.1797 Q899.707,754.8281 899.1914,754.0664 Q898.6875,753.3047 898.6875,752.4023 L898.6875,751.582 Q898.6875,750.6445 899.1328,749.8242 Q899.5898,749.0039 900.375,748.5703 Q901.1719,748.125 902.0625,748.125 Q902.6016,748.125 903.0703,748.3125 Q903.5391,748.5 903.9375,748.875 Z " fill="#000000"/><text fill="#000000" font-family="sans-serif" font-size="9" lengthAdjust="spacing" textLength="99.75" x="917.8125" y="755.1826">ExternalModuleAdapter2</text><line style="stroke:#A80036;stroke-width:1.125;" x1="842.625" x2="1068.375" y1="763.5" y2="763.5"/><line style="stroke:#A80036;stroke-width:1.125;" x1="842.625" x2="1068.375" y1="769.5" y2="769.5"/><text fill="#000000" font-family="sans-serif" font-size="8.25" lengthAdjust="spacing" textLength="218.25" x="846.375" y="781.0642">+ReferenceValue getReferenceValue(Parameter parameter)</text><!--MD5=[63386ce01156be326996be41135b9514]
class ExternalModuleAdapter3--><rect codeLine="71" fill="#FEFECE" filter="url(#f9iuyjeg35ax6)" height="46.377" id="ExternalModuleAdapter3" style="stroke:#A80036;stroke-width:1.125;" width="227.25" x="140.625" y="739.5"/><ellipse cx="201.1875" cy="751.5" fill="#ADD1B2" rx="8.25" ry="8.25" style="stroke:#A80036;stroke-width:0.75;"/><path d="M202.6875,748.875 Q202.8398,748.5 203.0156,748.3125 Q203.1914,748.125 203.3906,748.125 Q203.7422,748.125 203.9648,748.3359 Q204.1875,748.5469 204.1875,749.0391 L204.1875,750.2109 Q204.1875,750.7031 203.9766,750.9141 Q203.7656,751.125 203.4375,751.125 Q203.1445,751.125 202.957,750.9961 Q202.7695,750.8672 202.6875,750.5273 Q202.6523,750.293 202.5234,750.1641 Q202.2891,749.918 201.8672,749.7773 Q201.4453,749.625 201.0234,749.625 Q200.4961,749.625 200.0508,749.8359 Q199.6172,750.0469 199.2773,750.5156 Q198.9375,750.9844 198.9375,751.6289 L198.9375,752.3203 Q198.9375,753.0938 199.5703,753.6094 Q200.2031,754.125 201.3281,754.125 Q201.9961,754.125 202.4648,753.9727 Q202.7344,753.8906 203.0391,753.6211 Q203.2383,753.4688 203.3438,753.4219 Q203.4492,753.375 203.5781,753.375 Q203.8242,753.375 204,753.5742 Q204.1875,753.7617 204.1875,754.0313 Q204.1875,754.2891 203.9297,754.5938 Q203.5547,755.0391 202.957,755.2852 Q202.1719,755.625 201.2109,755.625 Q200.0859,755.625 199.1836,755.1797 Q198.457,754.8281 197.9414,754.0664 Q197.4375,753.3047 197.4375,752.4023 L197.4375,751.582 Q197.4375,750.6445 197.8828,749.8242 Q198.3398,749.0039 199.125,748.5703 Q199.9219,748.125 200.8125,748.125 Q201.3516,748.125 201.8203,748.3125 Q202.2891,748.5 202.6875,748.875 Z " fill="#000000"/><text fill="#000000" font-family="sans-serif" font-size="9" lengthAdjust="spacing" textLength="99.75" x="216.5625" y="755.1826">ExternalModuleAdapter3</text><line style="stroke:#A80036;stroke-width:1.125;" x1="141.375" x2="367.125" y1="763.5" y2="763.5"/><line style="stroke:#A80036;stroke-width:1.125;" x1="141.375" x2="367.125" y1="769.5" y2="769.5"/><text fill="#000000" font-family="sans-serif" font-size="8.25" lengthAdjust="spacing" textLength="218.25" x="145.125" y="781.0642">+ReferenceValue getReferenceValue(Parameter parameter)</text><!--MD5=[8f188b89eff49accb0f38c057b38a9f2]
class ExternalModule--><rect codeLine="40" fill="#FEFECE" filter="url(#f9iuyjeg35ax6)" height="46.377" id="ExternalModule" style="stroke:#A80036;stroke-width:1.125;" width="227.25" x="321.375" y="865.125"/><ellipse cx="399.9375" cy="877.125" fill="#B4A7E5" rx="8.25" ry="8.25" style="stroke:#A80036;stroke-width:0.75;"/><path d="M400.6875,874.875 L400.6875,879.375 L402.1875,879.375 L402.5508,879.375 L402.9375,879.8438 L402.9375,880.125 L402.9375,880.4063 L402.5508,880.875 L402.1875,880.875 L397.6875,880.875 L397.3242,880.875 L396.9375,880.4063 L396.9375,880.125 L396.9375,879.8438 L397.3242,879.375 L397.6875,879.375 L399.1875,879.375 L399.1875,874.875 L397.6875,874.875 L397.3242,874.875 L396.9375,874.4063 L396.9375,874.125 L396.9375,873.8438 L397.3242,873.375 L397.6875,873.375 L402.1875,873.375 L402.5508,873.375 L402.9375,873.8438 L402.9375,874.125 L402.9375,874.4063 L402.5508,874.875 L402.1875,874.875 L400.6875,874.875 Z " fill="#000000"/><text fill="#000000" font-family="sans-serif" font-size="9" font-style="italic" lengthAdjust="spacing" textLength="63.75" x="415.3125" y="880.8076">ExternalModule</text><line style="stroke:#A80036;stroke-width:1.125;" x1="322.125" x2="547.875" y1="889.125" y2="889.125"/><line style="stroke:#A80036;stroke-width:1.125;" x1="322.125" x2="547.875" y1="895.125" y2="895.125"/><text fill="#000000" font-family="sans-serif" font-size="8.25" lengthAdjust="spacing" textLength="218.25" x="325.875" y="906.6892">+ReferenceValue getReferenceValue(Parameter parameter)</text><!--MD5=[ef30bcd9a8851b2fb15fb683dae6a22f]
class RecordTestResultController--><rect codeLine="140" fill="#FEFECE" filter="url(#f9iuyjeg35ax6)" height="77.5078" id="RecordTestResultController" style="stroke:#A80036;stroke-width:1.125;" width="214.5" x="1426.5" y="131.25"/><ellipse cx="1472.8125" cy="143.25" fill="#ADD1B2" rx="8.25" ry="8.25" style="stroke:#A80036;stroke-width:0.75;"/><path d="M1474.3125,140.625 Q1474.4648,140.25 1474.6406,140.0625 Q1474.8164,139.875 1475.0156,139.875 Q1475.3672,139.875 1475.5898,140.0859 Q1475.8125,140.2969 1475.8125,140.7891 L1475.8125,141.9609 Q1475.8125,142.4531 1475.6016,142.6641 Q1475.3906,142.875 1475.0625,142.875 Q1474.7695,142.875 1474.582,142.7461 Q1474.3945,142.6172 1474.3125,142.2773 Q1474.2773,142.043 1474.1484,141.9141 Q1473.9141,141.668 1473.4922,141.5273 Q1473.0703,141.375 1472.6484,141.375 Q1472.1211,141.375 1471.6758,141.5859 Q1471.2422,141.7969 1470.9023,142.2656 Q1470.5625,142.7344 1470.5625,143.3789 L1470.5625,144.0703 Q1470.5625,144.8438 1471.1953,145.3594 Q1471.8281,145.875 1472.9531,145.875 Q1473.6211,145.875 1474.0898,145.7227 Q1474.3594,145.6406 1474.6641,145.3711 Q1474.8633,145.2188 1474.9688,145.1719 Q1475.0742,145.125 1475.2031,145.125 Q1475.4492,145.125 1475.625,145.3242 Q1475.8125,145.5117 1475.8125,145.7813 Q1475.8125,146.0391 1475.5547,146.3438 Q1475.1797,146.7891 1474.582,147.0352 Q1473.7969,147.375 1472.8359,147.375 Q1471.7109,147.375 1470.8086,146.9297 Q1470.082,146.5781 1469.5664,145.8164 Q1469.0625,145.0547 1469.0625,144.1523 L1469.0625,143.332 Q1469.0625,142.3945 1469.5078,141.5742 Q1469.9648,140.7539 1470.75,140.3203 Q1471.5469,139.875 1472.4375,139.875 Q1472.9766,139.875 1473.4453,140.0625 Q1473.9141,140.25 1474.3125,140.625 Z " fill="#000000"/><text fill="#000000" font-family="sans-serif" font-size="9" lengthAdjust="spacing" textLength="115.5" x="1488.1875" y="146.9326">RecordTestResultController</text><line style="stroke:#A80036;stroke-width:1.125;" x1="1427.25" x2="1640.25" y1="155.25" y2="155.25"/><line style="stroke:#A80036;stroke-width:1.125;" x1="1427.25" x2="1640.25" y1="161.25" y2="161.25"/><text fill="#000000" font-family="sans-serif" font-size="8.25" lengthAdjust="spacing" textLength="69.75" x="1431" y="172.8142">+getTestListStore()</text><text fill="#000000" font-family="sans-serif" font-size="8.25" lengthAdjust="spacing" textLength="78.75" x="1431" y="183.1912">+getTestParameters()</text><text fill="#000000" font-family="sans-serif" font-size="8.25" lengthAdjust="spacing" textLength="205.5" x="1431" y="193.5681">+addTestParameterResult(parameterCode, result, metric)</text><text fill="#000000" font-family="sans-serif" font-size="8.25" lengthAdjust="spacing" textLength="176.25" x="1431" y="203.9451">+saveTestParameterResult(testParameterResult)</text><!--MD5=[62bdb6435f21fcc181756dc3392fb99a]
class RecordTestResultUI--><rect codeLine="148" fill="#FEFECE" filter="url(#f9iuyjeg35ax6)" height="36" id="RecordTestResultUI" style="stroke:#A80036;stroke-width:1.125;" width="108" x="1479.75" y="31.5"/><ellipse cx="1491" cy="43.5" fill="#ADD1B2" rx="8.25" ry="8.25" style="stroke:#A80036;stroke-width:0.75;"/><path d="M1492.5,40.875 Q1492.6523,40.5 1492.8281,40.3125 Q1493.0039,40.125 1493.2031,40.125 Q1493.5547,40.125 1493.7773,40.3359 Q1494,40.5469 1494,41.0391 L1494,42.2109 Q1494,42.7031 1493.7891,42.9141 Q1493.5781,43.125 1493.25,43.125 Q1492.957,43.125 1492.7695,42.9961 Q1492.582,42.8672 1492.5,42.5273 Q1492.4648,42.293 1492.3359,42.1641 Q1492.1016,41.918 1491.6797,41.7773 Q1491.2578,41.625 1490.8359,41.625 Q1490.3086,41.625 1489.8633,41.8359 Q1489.4297,42.0469 1489.0898,42.5156 Q1488.75,42.9844 1488.75,43.6289 L1488.75,44.3203 Q1488.75,45.0938 1489.3828,45.6094 Q1490.0156,46.125 1491.1406,46.125 Q1491.8086,46.125 1492.2773,45.9727 Q1492.5469,45.8906 1492.8516,45.6211 Q1493.0508,45.4688 1493.1563,45.4219 Q1493.2617,45.375 1493.3906,45.375 Q1493.6367,45.375 1493.8125,45.5742 Q1494,45.7617 1494,46.0313 Q1494,46.2891 1493.7422,46.5938 Q1493.3672,47.0391 1492.7695,47.2852 Q1491.9844,47.625 1491.0234,47.625 Q1489.8984,47.625 1488.9961,47.1797 Q1488.2695,46.8281 1487.7539,46.0664 Q1487.25,45.3047 1487.25,44.4023 L1487.25,43.582 Q1487.25,42.6445 1487.6953,41.8242 Q1488.1523,41.0039 1488.9375,40.5703 Q1489.7344,40.125 1490.625,40.125 Q1491.1641,40.125 1491.6328,40.3125 Q1492.1016,40.5 1492.5,40.875 Z " fill="#000000"/><text fill="#000000" font-family="sans-serif" font-size="9" lengthAdjust="spacing" textLength="84" x="1501.5" y="47.1826">RecordTestResultUI</text><line style="stroke:#A80036;stroke-width:1.125;" x1="1480.5" x2="1587" y1="55.5" y2="55.5"/><line style="stroke:#A80036;stroke-width:1.125;" x1="1480.5" x2="1587" y1="61.5" y2="61.5"/><!--MD5=[a82d32c079496d6dca2681dc0633feb0]
class TestParameterMapper--><rect codeLine="75" fill="#FEFECE" filter="url(#f9iuyjeg35ax6)" height="46.377" id="TestParameterMapper" style="stroke:#A80036;stroke-width:1.125;" width="116.25" x="1672.875" y="324"/><ellipse cx="1684.125" cy="336" fill="#ADD1B2" rx="8.25" ry="8.25" style="stroke:#A80036;stroke-width:0.75;"/><path d="M1685.625,333.375 Q1685.7773,333 1685.9531,332.8125 Q1686.1289,332.625 1686.3281,332.625 Q1686.6797,332.625 1686.9023,332.8359 Q1687.125,333.0469 1687.125,333.5391 L1687.125,334.7109 Q1687.125,335.2031 1686.9141,335.4141 Q1686.7031,335.625 1686.375,335.625 Q1686.082,335.625 1685.8945,335.4961 Q1685.707,335.3672 1685.625,335.0273 Q1685.5898,334.793 1685.4609,334.6641 Q1685.2266,334.418 1684.8047,334.2773 Q1684.3828,334.125 1683.9609,334.125 Q1683.4336,334.125 1682.9883,334.3359 Q1682.5547,334.5469 1682.2148,335.0156 Q1681.875,335.4844 1681.875,336.1289 L1681.875,336.8203 Q1681.875,337.5938 1682.5078,338.1094 Q1683.1406,338.625 1684.2656,338.625 Q1684.9336,338.625 1685.4023,338.4727 Q1685.6719,338.3906 1685.9766,338.1211 Q1686.1758,337.9688 1686.2813,337.9219 Q1686.3867,337.875 1686.5156,337.875 Q1686.7617,337.875 1686.9375,338.0742 Q1687.125,338.2617 1687.125,338.5313 Q1687.125,338.7891 1686.8672,339.0938 Q1686.4922,339.5391 1685.8945,339.7852 Q1685.1094,340.125 1684.1484,340.125 Q1683.0234,340.125 1682.1211,339.6797 Q1681.3945,339.3281 1680.8789,338.5664 Q1680.375,337.8047 1680.375,336.9023 L1680.375,336.082 Q1680.375,335.1445 1680.8203,334.3242 Q1681.2773,333.5039 1682.0625,333.0703 Q1682.8594,332.625 1683.75,332.625 Q1684.2891,332.625 1684.7578,332.8125 Q1685.2266,333 1685.625,333.375 Z " fill="#000000"/><text fill="#000000" font-family="sans-serif" font-size="9" lengthAdjust="spacing" textLength="92.25" x="1694.625" y="339.6826">TestParameterMapper</text><line style="stroke:#A80036;stroke-width:1.125;" x1="1673.625" x2="1788.375" y1="348" y2="348"/><text fill="#000000" font-family="sans-serif" font-size="8.25" lengthAdjust="spacing" textLength="23.25" x="1677.375" y="359.5642">+toDto</text><line style="stroke:#A80036;stroke-width:1.125;" x1="1673.625" x2="1788.375" y1="364.377" y2="364.377"/><!--MD5=[144698ec4d0188f6929a3b58a3eeb1f6]
class TestMapper--><rect codeLine="152" fill="#FEFECE" filter="url(#f9iuyjeg35ax6)" height="46.377" id="TestMapper" style="stroke:#A80036;stroke-width:1.125;" width="72.75" x="1573.875" y="324"/><ellipse cx="1585.125" cy="336" fill="#ADD1B2" rx="8.25" ry="8.25" style="stroke:#A80036;stroke-width:0.75;"/><path d="M1586.625,333.375 Q1586.7773,333 1586.9531,332.8125 Q1587.1289,332.625 1587.3281,332.625 Q1587.6797,332.625 1587.9023,332.8359 Q1588.125,333.0469 1588.125,333.5391 L1588.125,334.7109 Q1588.125,335.2031 1587.9141,335.4141 Q1587.7031,335.625 1587.375,335.625 Q1587.082,335.625 1586.8945,335.4961 Q1586.707,335.3672 1586.625,335.0273 Q1586.5898,334.793 1586.4609,334.6641 Q1586.2266,334.418 1585.8047,334.2773 Q1585.3828,334.125 1584.9609,334.125 Q1584.4336,334.125 1583.9883,334.3359 Q1583.5547,334.5469 1583.2148,335.0156 Q1582.875,335.4844 1582.875,336.1289 L1582.875,336.8203 Q1582.875,337.5938 1583.5078,338.1094 Q1584.1406,338.625 1585.2656,338.625 Q1585.9336,338.625 1586.4023,338.4727 Q1586.6719,338.3906 1586.9766,338.1211 Q1587.1758,337.9688 1587.2813,337.9219 Q1587.3867,337.875 1587.5156,337.875 Q1587.7617,337.875 1587.9375,338.0742 Q1588.125,338.2617 1588.125,338.5313 Q1588.125,338.7891 1587.8672,339.0938 Q1587.4922,339.5391 1586.8945,339.7852 Q1586.1094,340.125 1585.1484,340.125 Q1584.0234,340.125 1583.1211,339.6797 Q1582.3945,339.3281 1581.8789,338.5664 Q1581.375,337.8047 1581.375,336.9023 L1581.375,336.082 Q1581.375,335.1445 1581.8203,334.3242 Q1582.2773,333.5039 1583.0625,333.0703 Q1583.8594,332.625 1584.75,332.625 Q1585.2891,332.625 1585.7578,332.8125 Q1586.2266,333 1586.625,333.375 Z " fill="#000000"/><text fill="#000000" font-family="sans-serif" font-size="9" lengthAdjust="spacing" textLength="48.75" x="1595.625" y="339.6826">TestMapper</text><line style="stroke:#A80036;stroke-width:1.125;" x1="1574.625" x2="1645.875" y1="348" y2="348"/><line style="stroke:#A80036;stroke-width:1.125;" x1="1574.625" x2="1645.875" y1="354" y2="354"/><text fill="#000000" font-family="sans-serif" font-size="8.25" lengthAdjust="spacing" textLength="29.25" x="1578.375" y="365.5642">+toDto()</text><!--MD5=[fa2f44d2bdbb0499bd765719ad83ddd6]
class TestParameterDto--><rect codeLine="79" fill="#FEFECE" filter="url(#f9iuyjeg35ax6)" height="56.7539" id="TestParameterDto" style="stroke:#A80036;stroke-width:1.125;" width="110.25" x="1708.125" y="460.875"/><ellipse cx="1724.1" cy="472.875" fill="#ADD1B2" rx="8.25" ry="8.25" style="stroke:#A80036;stroke-width:0.75;"/><path d="M1725.6,470.25 Q1725.7523,469.875 1725.9281,469.6875 Q1726.1039,469.5 1726.3031,469.5 Q1726.6547,469.5 1726.8773,469.7109 Q1727.1,469.9219 1727.1,470.4141 L1727.1,471.5859 Q1727.1,472.0781 1726.8891,472.2891 Q1726.6781,472.5 1726.35,472.5 Q1726.057,472.5 1725.8695,472.3711 Q1725.682,472.2422 1725.6,471.9023 Q1725.5648,471.668 1725.4359,471.5391 Q1725.2016,471.293 1724.7797,471.1523 Q1724.3578,471 1723.9359,471 Q1723.4086,471 1722.9633,471.2109 Q1722.5297,471.4219 1722.1898,471.8906 Q1721.85,472.3594 1721.85,473.0039 L1721.85,473.6953 Q1721.85,474.4688 1722.4828,474.9844 Q1723.1156,475.5 1724.2406,475.5 Q1724.9086,475.5 1725.3773,475.3477 Q1725.6469,475.2656 1725.9516,474.9961 Q1726.1508,474.8438 1726.2563,474.7969 Q1726.3617,474.75 1726.4906,474.75 Q1726.7367,474.75 1726.9125,474.9492 Q1727.1,475.1367 1727.1,475.4063 Q1727.1,475.6641 1726.8422,475.9688 Q1726.4672,476.4141 1725.8695,476.6602 Q1725.0844,477 1724.1234,477 Q1722.9984,477 1722.0961,476.5547 Q1721.3695,476.2031 1720.8539,475.4414 Q1720.35,474.6797 1720.35,473.7773 L1720.35,472.957 Q1720.35,472.0195 1720.7953,471.1992 Q1721.2523,470.3789 1722.0375,469.9453 Q1722.8344,469.5 1723.725,469.5 Q1724.2641,469.5 1724.7328,469.6875 Q1725.2016,469.875 1725.6,470.25 Z " fill="#000000"/><text fill="#000000" font-family="sans-serif" font-size="9" lengthAdjust="spacing" textLength="75.75" x="1735.65" y="476.5576">TestParameterDto</text><line style="stroke:#A80036;stroke-width:1.125;" x1="1708.875" x2="1817.625" y1="484.875" y2="484.875"/><text fill="#000000" font-family="sans-serif" font-size="8.25" lengthAdjust="spacing" textLength="90" x="1712.625" y="496.4392">-Parameter parameterdto</text><text fill="#000000" font-family="sans-serif" font-size="8.25" lengthAdjust="spacing" textLength="101.25" x="1712.625" y="506.8162">-TestParameterResult tprdto</text><line style="stroke:#A80036;stroke-width:1.125;" x1="1708.875" x2="1817.625" y1="511.6289" y2="511.6289"/><!--MD5=[9fb704ffefcaf68bf1a361787afa998b]
class TestDTO--><rect codeLine="88" fill="#FEFECE" filter="url(#f9iuyjeg35ax6)" height="77.5078" id="TestDTO" style="stroke:#A80036;stroke-width:1.125;" width="140.25" x="1541.625" y="450.75"/><ellipse cx="1590.1875" cy="462.75" fill="#ADD1B2" rx="8.25" ry="8.25" style="stroke:#A80036;stroke-width:0.75;"/><path d="M1591.6875,460.125 Q1591.8398,459.75 1592.0156,459.5625 Q1592.1914,459.375 1592.3906,459.375 Q1592.7422,459.375 1592.9648,459.5859 Q1593.1875,459.7969 1593.1875,460.2891 L1593.1875,461.4609 Q1593.1875,461.9531 1592.9766,462.1641 Q1592.7656,462.375 1592.4375,462.375 Q1592.1445,462.375 1591.957,462.2461 Q1591.7695,462.1172 1591.6875,461.7773 Q1591.6523,461.543 1591.5234,461.4141 Q1591.2891,461.168 1590.8672,461.0273 Q1590.4453,460.875 1590.0234,460.875 Q1589.4961,460.875 1589.0508,461.0859 Q1588.6172,461.2969 1588.2773,461.7656 Q1587.9375,462.2344 1587.9375,462.8789 L1587.9375,463.5703 Q1587.9375,464.3438 1588.5703,464.8594 Q1589.2031,465.375 1590.3281,465.375 Q1590.9961,465.375 1591.4648,465.2227 Q1591.7344,465.1406 1592.0391,464.8711 Q1592.2383,464.7188 1592.3438,464.6719 Q1592.4492,464.625 1592.5781,464.625 Q1592.8242,464.625 1593,464.8242 Q1593.1875,465.0117 1593.1875,465.2813 Q1593.1875,465.5391 1592.9297,465.8438 Q1592.5547,466.2891 1591.957,466.5352 Q1591.1719,466.875 1590.2109,466.875 Q1589.0859,466.875 1588.1836,466.4297 Q1587.457,466.0781 1586.9414,465.3164 Q1586.4375,464.5547 1586.4375,463.6523 L1586.4375,462.832 Q1586.4375,461.8945 1586.8828,461.0742 Q1587.3398,460.2539 1588.125,459.8203 Q1588.9219,459.375 1589.8125,459.375 Q1590.3516,459.375 1590.8203,459.5625 Q1591.2891,459.75 1591.6875,460.125 Z " fill="#000000"/><text fill="#000000" font-family="sans-serif" font-size="9" lengthAdjust="spacing" textLength="36.75" x="1605.5625" y="466.4326">TestDTO</text><line style="stroke:#A80036;stroke-width:1.125;" x1="1542.375" x2="1681.125" y1="474.75" y2="474.75"/><text fill="#000000" font-family="sans-serif" font-size="8.25" lengthAdjust="spacing" textLength="71.25" x="1546.125" y="486.3142">-LabOrder labOrder</text><text fill="#000000" font-family="sans-serif" font-size="8.25" lengthAdjust="spacing" textLength="44.25" x="1546.125" y="496.6912">-String code</text><text fill="#000000" font-family="sans-serif" font-size="8.25" lengthAdjust="spacing" textLength="78.75" x="1546.125" y="507.0681">-List&lt;Sample&gt; sample</text><text fill="#000000" font-family="sans-serif" font-size="8.25" lengthAdjust="spacing" textLength="131.25" x="1546.125" y="517.4451">-List&lt;String&gt;testParameterResultList</text><line style="stroke:#A80036;stroke-width:1.125;" x1="1542.375" x2="1681.125" y1="522.2578" y2="522.2578"/><!--MD5=[e0fe53a4cfb5eba193304877d6f3c961]
link RecordTestResultUI to RecordTestResultController--><path codeLine="157" d="M1533.75,67.5375 C1533.75,83.175 1533.75,106.8375 1533.75,127.395 " fill="none" id="RecordTestResultUI-to-RecordTestResultController" style="stroke:#A80036;stroke-width:0.75;stroke-dasharray:7.0,7.0;"/><polygon fill="#A80036" points="1533.75,131.19,1536.75,124.44,1533.75,127.44,1530.75,124.44,1533.75,131.19" style="stroke:#A80036;stroke-width:0.75;"/><!--MD5=[ed726c1234fa7e1782d1ad4890aa3b36]
link RecordTestResultController to TestStore--><path codeLine="158" d="M1533.24,208.6725 C1531.725,252.8325 1526.295,327.4125 1507.5,388.5 C1499.9925,412.8975 1486.7025,438.4275 1475.4675,457.605 " fill="none" id="RecordTestResultController-to-TestStore" style="stroke:#A80036;stroke-width:0.75;stroke-dasharray:7.0,7.0;"/><polygon fill="#A80036" points="1473.54,460.8675,1479.5519,456.5757,1475.4441,457.6369,1474.383,453.5291,1473.54,460.8675" style="stroke:#A80036;stroke-width:0.75;"/><!--MD5=[8bbacdc053f49d02544283068f63af2b]
link RecordTestResultController to Company--><path codeLine="159" d="M1516.92,208.5675 C1502.805,240.3975 1482.885,285.3075 1469.6625,315.135 " fill="none" id="RecordTestResultController-to-Company" style="stroke:#A80036;stroke-width:0.75;stroke-dasharray:7.0,7.0;"/><polygon fill="#A80036" points="1468.08,318.6975,1473.56,313.7445,1469.601,315.2698,1468.0757,311.3109,1468.08,318.6975" style="stroke:#A80036;stroke-width:0.75;"/><!--MD5=[7f6cf7f175eae0af66201860de5de971]
link Company to TestStore--><path codeLine="160" d="M1455.75,375.78 C1455.75,399.105 1455.75,432.435 1455.75,456.825 " fill="none" id="Company-to-TestStore" style="stroke:#A80036;stroke-width:0.75;"/><polygon fill="#A80036" points="1455.75,460.6575,1458.75,453.9075,1455.75,456.9075,1452.75,453.9075,1455.75,460.6575" style="stroke:#A80036;stroke-width:0.75;"/><text fill="#000000" font-family="sans-serif" font-size="9.75" lengthAdjust="spacing" textLength="21" x="1456.5" y="409.1213">uses</text><text fill="#000000" font-family="sans-serif" font-size="9.75" lengthAdjust="spacing" textLength="5.25" x="1450.0652" y="391.6626">1</text><text fill="#000000" font-family="sans-serif" font-size="9.75" lengthAdjust="spacing" textLength="5.25" x="1450.0324" y="452.6402">1</text><!--MD5=[b0f4f6db8206580012ef9cd998ed01c5]
link TestStore to Test--><path codeLine="161" d="M1442.415,517.98 C1433.37,536.8725 1421.19,562.3125 1410.675,584.28 " fill="none" id="TestStore-to-Test" style="stroke:#A80036;stroke-width:0.75;"/><polygon fill="#A80036" points="1409.0025,587.775,1414.6196,582.9781,1410.6193,584.3915,1409.2059,580.3912,1409.0025,587.775" style="stroke:#A80036;stroke-width:0.75;"/><text fill="#000000" font-family="sans-serif" font-size="9.75" lengthAdjust="spacing" textLength="39.75" x="1426.5" y="562.8713">conducts</text><text fill="#000000" font-family="sans-serif" font-size="9.75" lengthAdjust="spacing" textLength="5.25" x="1434.6214" y="533.6571">1</text><text fill="#000000" font-family="sans-serif" font-size="9.75" lengthAdjust="spacing" textLength="15" x="1395.6176" y="579.7983">1..*</text><!--MD5=[61f1711cc6dafe4b5a03450e219ad1ef]
link RecordTestResultController to TestMapper--><path codeLine="162" d="M1550.2575,208.5675 C1564.9425,242.34 1586.04,290.835 1598.9025,320.415 " fill="none" id="RecordTestResultController-to-TestMapper" style="stroke:#A80036;stroke-width:0.75;stroke-dasharray:7.0,7.0;"/><polygon fill="#A80036" points="1600.4325,323.925,1600.4839,316.5385,1598.9334,320.4877,1594.9842,318.9372,1600.4325,323.925" style="stroke:#A80036;stroke-width:0.75;"/><!--MD5=[c88f814ecc8e75286b0c0023c0833471]
link TestMapper to TestStore--><path codeLine="163" d="M1595.355,370.6275 C1585.1025,384.4875 1570.2825,401.4675 1553.25,411.75 C1543.8375,417.435 1538.865,412.4175 1529.25,417.75 C1510.935,427.8975 1493.8725,443.775 1480.8075,457.9275 " fill="none" id="TestMapper-to-TestStore" style="stroke:#A80036;stroke-width:0.75;stroke-dasharray:7.0,7.0;"/><polygon fill="#A80036" points="1478.25,460.7325,1485.0138,457.7637,1480.7757,457.9606,1480.5788,453.7226,1478.25,460.7325" style="stroke:#A80036;stroke-width:0.75;"/><!--MD5=[f24c888dadeb846430474fe80a58922b]
link Test to TestParameter--><path codeLine="164" d="M1386.99,676.065 C1386.48,693.8025 1385.895,713.94 1385.4225,730.26 " fill="none" id="Test-to-TestParameter" style="stroke:#A80036;stroke-width:0.75;"/><polygon fill="#A80036" points="1385.31,734.1075,1388.5016,727.4459,1385.4171,730.359,1382.504,727.2746,1385.31,734.1075" style="stroke:#A80036;stroke-width:0.75;"/><text fill="#000000" font-family="sans-serif" font-size="9.75" lengthAdjust="spacing" textLength="87" x="1386.75" y="709.1213">requests analysis of</text><text fill="#000000" font-family="sans-serif" font-size="9.75" lengthAdjust="spacing" textLength="5.25" x="1381.2908" y="691.997">1</text><text fill="#000000" font-family="sans-serif" font-size="9.75" lengthAdjust="spacing" textLength="15" x="1369.1183" y="726.1035">1..*</text><!--MD5=[92e8e476cc9e9004a7125f53a120ec97]
link TestParameter to Parameter--><path codeLine="165" d="M1392.915,791.355 C1397.775,807.435 1403.9775,827.9775 1409.4075,845.9475 " fill="none" id="TestParameter-to-Parameter" style="stroke:#A80036;stroke-width:0.75;"/><polygon fill="#A80036" points="1410.555,849.7425,1411.4789,842.4139,1409.4725,846.1521,1405.7343,844.1458,1410.555,849.7425" style="stroke:#A80036;stroke-width:0.75;"/><text fill="#000000" font-family="sans-serif" font-size="9.75" lengthAdjust="spacing" textLength="35.25" x="1404" y="824.6213">refers to</text><text fill="#000000" font-family="sans-serif" font-size="9.75" lengthAdjust="spacing" textLength="3.75" x="1390.2073" y="807.0321">*</text><text fill="#000000" font-family="sans-serif" font-size="9.75" lengthAdjust="spacing" textLength="5.25" x="1403.3264" y="841.5878">1</text><!--MD5=[0e00e25ac6b8c14659aaff2cf7e5df08]
link TestParameter to TestParameterResult--><path codeLine="166" d="M1349.9925,791.355 C1329.5775,807.84 1303.3575,829.0125 1280.7,847.2975 " fill="none" id="TestParameter-to-TestParameterResult" style="stroke:#A80036;stroke-width:0.75;"/><polygon fill="#A80036" points="1277.6775,849.7425,1284.8165,847.8461,1280.5984,847.3907,1281.0537,843.1726,1277.6775,849.7425" style="stroke:#A80036;stroke-width:0.75;"/><text fill="#000000" font-family="sans-serif" font-size="9.75" lengthAdjust="spacing" textLength="36.75" x="1321.5" y="824.6213">contains</text><text fill="#000000" font-family="sans-serif" font-size="9.75" lengthAdjust="spacing" textLength="5.25" x="1338.8245" y="807.0321">1</text><text fill="#000000" font-family="sans-serif" font-size="9.75" lengthAdjust="spacing" textLength="5.25" x="1278.6575" y="841.5878">1</text><!--MD5=[52200cc2361fa0ac0481dd6ffcdb824b]
link TestParameterResult to ReferenceValue--><path codeLine="167" d="M1230.75,927.24 C1230.75,944.43 1230.75,964.6425 1230.75,981.6675 " fill="none" id="TestParameterResult-to-ReferenceValue" style="stroke:#A80036;stroke-width:0.75;"/><polygon fill="#A80036" points="1230.75,985.4775,1233.75,978.7275,1230.75,981.7275,1227.75,978.7275,1230.75,985.4775" style="stroke:#A80036;stroke-width:0.75;"/><text fill="#000000" font-family="sans-serif" font-size="9.75" lengthAdjust="spacing" textLength="32.25" x="1231.5" y="960.3713">records</text><text fill="#000000" font-family="sans-serif" font-size="9.75" lengthAdjust="spacing" textLength="5.25" x="1225.1473" y="943.3905">1</text><text fill="#000000" font-family="sans-serif" font-size="9.75" lengthAdjust="spacing" textLength="5.25" x="1225.0816" y="977.3105">1</text><!--MD5=[4583d935403064ae9badefc9a5fb28e7]
link ExternalModuleAdapter1 to ExternalModule--><path codeLine="168" d="M633.7125,786.12 C594.12,806.3475 535.86,836.1075 492.645,858.18 " fill="none" id="ExternalModuleAdapter1-to-ExternalModule" style="stroke:#A80036;stroke-width:0.75;stroke-dasharray:7.0,7.0;"/><polygon fill="none" points="494.9325,862.905,479.19,865.05,490.155,853.5525,494.9325,862.905" style="stroke:#A80036;stroke-width:0.75;"/><!--MD5=[96b97b575a021f78c1d69f4902851f2b]
link ExternalModuleAdapter2 to ExternalModule--><path codeLine="169" d="M842.5425,786.015 C763.7175,802.2825 656.265,825.57 562.5,849.75 C549.36,853.14 535.545,856.965 522.0375,860.85 " fill="none" id="ExternalModuleAdapter2-to-ExternalModule" style="stroke:#A80036;stroke-width:0.75;stroke-dasharray:7.0,7.0;"/><polygon fill="none" points="523.4325,865.9125,507.5625,865.0725,520.4925,855.8325,523.4325,865.9125" style="stroke:#A80036;stroke-width:0.75;"/><!--MD5=[c32bf7eabb548ed73c6516299a5e5c81]
link ExternalModuleAdapter3 to ExternalModule--><path codeLine="170" d="M287.19,786.12 C315.8325,805.785 357.6075,834.48 389.445,856.3425 " fill="none" id="ExternalModuleAdapter3-to-ExternalModule" style="stroke:#A80036;stroke-width:0.75;stroke-dasharray:7.0,7.0;"/><polygon fill="none" points="392.5875,852.1275,401.9775,864.9525,386.64,860.7825,392.5875,852.1275" style="stroke:#A80036;stroke-width:0.75;"/><!--MD5=[e981d4f96c4342412d1e68160b30cf70]
link Test to TestType--><path codeLine="171" d="M1280.685,640.2 C1120.515,652.7175 810.375,681.705 551.25,734.25 C530.295,738.5025 507.2775,745.0275 488.9475,750.6825 " fill="none" id="Test-to-TestType" style="stroke:#A80036;stroke-width:0.75;"/><polygon fill="#A80036" points="485.3475,751.8,492.6835,752.6638,488.9289,750.6882,490.9045,746.9336,485.3475,751.8" style="stroke:#A80036;stroke-width:0.75;"/><text fill="#000000" font-family="sans-serif" font-size="9.75" lengthAdjust="spacing" textLength="18" x="756.75" y="709.1213">is of</text><text fill="#000000" font-family="sans-serif" font-size="9.75" lengthAdjust="spacing" textLength="5.25" x="1269.7533" y="638.4445">1</text><text fill="#000000" font-family="sans-serif" font-size="9.75" lengthAdjust="spacing" textLength="3.75" x="491.1762" y="746.9366">*</text><!--MD5=[71e6920dcc27afae8f25537cd5357b5f]
link TestType to ExternalModule--><path codeLine="172" d="M450.9225,786.27 C447.6,807.435 442.6425,838.9725 439.1475,861.2325 " fill="none" id="TestType-to-ExternalModule" style="stroke:#A80036;stroke-width:0.75;"/><polygon fill="#A80036" points="438.555,865.005,442.5627,858.8001,439.1349,861.3001,436.6349,857.8723,438.555,865.005" style="stroke:#A80036;stroke-width:0.75;"/><text fill="#000000" font-family="sans-serif" font-size="9.75" lengthAdjust="spacing" textLength="58.5" x="447" y="824.6213">makes use of</text><text fill="#000000" font-family="sans-serif" font-size="9.75" lengthAdjust="spacing" textLength="3.75" x="446.1331" y="802.0554">*</text><text fill="#000000" font-family="sans-serif" font-size="9.75" lengthAdjust="spacing" textLength="5.25" x="433.4968" y="857.1087">1</text><!--MD5=[f4d8d40e61e78bc4f8ae97bf8db7bc12]
link RecordTestResultController to Test--><path codeLine="173" d="M1426.4175,191.9475 C1396.74,204.48 1372.5,224.3325 1372.5,255.75 C1372.5,255.75 1372.5,255.75 1372.5,490.125 C1372.5,521.4675 1376.3925,556.485 1380.3075,583.785 " fill="none" id="RecordTestResultController-to-Test" style="stroke:#A80036;stroke-width:0.75;stroke-dasharray:7.0,7.0;"/><polygon fill="#A80036" points="1380.885,587.7525,1382.8686,580.6372,1380.3382,584.0426,1376.9328,581.5121,1380.885,587.7525" style="stroke:#A80036;stroke-width:0.75;"/><!--MD5=[e69a02c8609c956cc015c82ed36f311a]
link RecordTestResultController to TestParameterMapper--><path codeLine="174" d="M1576.305,208.5675 C1614.5625,242.685 1669.68,291.825 1702.7475,321.315 " fill="none" id="RecordTestResultController-to-TestParameterMapper" style="stroke:#A80036;stroke-width:0.75;stroke-dasharray:7.0,7.0;"/><polygon fill="#A80036" points="1705.6875,323.925,1702.65,317.1918,1702.89,321.4277,1698.6542,321.6677,1705.6875,323.925" style="stroke:#A80036;stroke-width:0.75;"/><!--MD5=[9f211ed037a86bdc1a73686cc0284a43]
link ExternalModuleAdapter1 to ExternalModuleAPI1--><path codeLine="175" d="M684.0525,786.27 C688.8375,804.255 695.6025,829.725 701.1675,850.6275 " fill="none" id="ExternalModuleAdapter1-to-ExternalModuleAPI1" style="stroke:#A80036;stroke-width:0.75;"/><polygon fill="#A80036" points="702.1875,854.475,703.355,847.1812,701.2253,850.8506,697.5559,848.7208,702.1875,854.475" style="stroke:#A80036;stroke-width:0.75;"/><!--MD5=[8b1d4d243b64648b72326dce1b962819]
link ExternalModuleAdapter2 to ExternalModuleAPI2--><path codeLine="176" d="M962.655,786.27 C968.325,804.33 976.3725,829.935 982.9575,850.89 " fill="none" id="ExternalModuleAdapter2-to-ExternalModuleAPI2" style="stroke:#A80036;stroke-width:0.75;"/><polygon fill="#A80036" points="984.0825,854.475,984.9201,847.136,982.9579,850.8976,979.1963,848.9354,984.0825,854.475" style="stroke:#A80036;stroke-width:0.75;"/><!--MD5=[d3ab91088b038d35df6c99f7ec06c6a1]
link ExternalModuleAdapter3 to ExternalModuleAPI3--><path codeLine="177" d="M236.9175,786.27 C223.05,804.48 203.3475,830.355 187.32,851.4075 " fill="none" id="ExternalModuleAdapter3-to-ExternalModuleAPI3" style="stroke:#A80036;stroke-width:0.75;"/><polygon fill="#A80036" points="184.9875,854.475,191.4661,850.9268,187.2615,851.4931,186.6951,847.2884,184.9875,854.475" style="stroke:#A80036;stroke-width:0.75;"/><!--MD5=[f6fda4afaf882dd39139bcbf06c50c8c]
link TestMapper to TestDTO--><path codeLine="178" d="M1610.49,370.5975 C1610.7075,391.08 1611.0375,421.8 1611.3,446.7675 " fill="none" id="TestMapper-to-TestDTO" style="stroke:#A80036;stroke-width:0.75;stroke-dasharray:7.0,7.0;"/><polygon fill="#A80036" points="1611.345,450.72,1614.287,443.9445,1611.3129,446.9701,1608.2873,443.996,1611.345,450.72" style="stroke:#A80036;stroke-width:0.75;"/><!--MD5=[0d2deb453e4521a8ecd45cf39c488e89]
link TestParameterMapper to TestParameterDto--><path codeLine="179" d="M1736.1825,370.5975 C1741.545,393.975 1749.9675,430.695 1755.99,456.9675 " fill="none" id="TestParameterMapper-to-TestParameterDto" style="stroke:#A80036;stroke-width:0.75;stroke-dasharray:7.0,7.0;"/><polygon fill="#A80036" points="1756.86,460.7625,1758.2794,453.5135,1756.0238,457.1069,1752.4304,454.8514,1756.86,460.7625" style="stroke:#A80036;stroke-width:0.75;"/><!--MD5=[be3b39c7463182027323f9c0e531e936]
link TestDTO to Test--><path codeLine="180" d="M1551.5625,528.0975 C1523.31,545.9175 1489.4175,567.3 1459.8525,585.9525 " fill="none" id="TestDTO-to-Test" style="stroke:#A80036;stroke-width:0.75;stroke-dasharray:7.0,7.0;"/><polygon fill="#A80036" points="1456.6425,587.9775,1463.9514,586.9086,1459.8128,585.9746,1460.7468,581.8361,1456.6425,587.9775" style="stroke:#A80036;stroke-width:0.75;"/><!--MD5=[de6954503a1444a020d81aef7346139c]
link TestParameterMapper to Test--><path codeLine="181" d="M1781.6325,370.53 C1800.6225,381.7875 1820.16,397.4175 1830.75,417.75 C1857.0825,468.3 1867.05,502.05 1830.75,546 C1789.5075,595.935 1616.505,616.89 1499.43,625.455 " fill="none" id="TestParameterMapper-to-Test" style="stroke:#A80036;stroke-width:0.75;stroke-dasharray:7.0,7.0;"/><polygon fill="#A80036" points="1495.6425,625.7325,1502.5896,628.2425,1499.3829,625.4646,1502.1609,622.2579,1495.6425,625.7325" style="stroke:#A80036;stroke-width:0.75;"/><!--MD5=[41a16ee9e5eb800ae3da3ee75f43e0bb]
@startuml
skinparam classAttributeIconSize 0


package "Domain" {
class TestType
class ReferenceValue
class TestParameterResult
class TestParameter
class Parameter
class Test
class Company
class TestStore
class ExternalModuleAPI1
class ExternalModuleAPI2
class ExternalModuleAPI3
class ExternalModuleAdapter1
class ExternalModuleAdapter2
class ExternalModuleAdapter3
interface ExternalModule
}

package "Controller" {
class RecordTestResultController
}

package "UI" {
class RecordTestResultUI
}

package "Mapper" {
class TestParameterMapper
class TestMapper
}

package "DTO" {
class TestParameterDto
class TestDTO
}

interface ExternalModule{
+ReferenceValue getReferenceValue(Parameter parameter)
}


class ExternalModuleAPI1{
+String usedMetric(String parameterID, Integer accessKey)
+Double getMinReferenceValue(String parameterID, Integer accessKey)
+Double getMaxReferenceValue(String parameterID, Integer accessKey)
}

class ExternalModuleAPI2{
+String getMetricsFor(String parameterID)
+EMRefValue getReferenceFor(String parameterID)
+EMRefValue getReferenceFor(String parameterID, Date onDate)
}

class ExternalModuleAPI3{
+String usedMetric(String parameterID, Integer accessKey)
+Double getMinReferenceValue(String parameterId, Integer accessKey)
+Double getMaxReferenceValue(String parameterId, Integer accessKey)
}

class ExternalModuleAdapter1{
+ReferenceValue getReferenceValue(Parameter parameter)
}

class ExternalModuleAdapter2{
+ReferenceValue getReferenceValue(Parameter parameter)
}

class ExternalModuleAdapter3{
+ReferenceValue getReferenceValue(Parameter parameter)
}

class TestParameterMapper{
+toDto
}

class TestParameterDto{
-Parameter parameterdto
-TestParameterResult tprdto
}

class TestType{
+getApi()
}

class TestDTO{
-LabOrder labOrder
-String code
-List<Sample> sample
-List<String>testParameterResultList

}
class ReferenceValue{
-double minimum
-double maximum
-String metric
}
class TestParameterResult{
  -ReferenceValue refValue
  -double value
  -String metric
  +TestParameterResult(value, metric, refValue)
}
class TestParameter{
  +getParameter()
  +addResult(Double result, String metric, ReferenceValue ref)
}

class Parameter{
-String code
-String shortName
-String description
-ParameterCategory parameterCategory
}

class Test {
  -Double testCode
  -String nhsCode
  +addTestParameterResult(parameterCode, result, metric)
  +validateTestResult(testParameterResult)
  +addTestResult(testParameterResult)

}


class TestStore{
   +getTestByBarcode()
   +getTests()
}

class Company {
  -String designation
  +getTestStore()

}


class RecordTestResultController {
    +getTestListStore()
    +getTestParameters()
    +addTestParameterResult(parameterCode, result, metric)
    +saveTestParameterResult(testParameterResult)
}


class RecordTestResultUI {

}

class TestMapper{
+toDto()
}


RecordTestResultUI ..> RecordTestResultController
RecordTestResultController ..> TestStore
RecordTestResultController ..> Company
Company "1" - -> "1" TestStore: uses
TestStore "1" - -> "1..*" Test: conducts
RecordTestResultController ..> TestMapper
TestMapper ..> TestStore
Test "1" - -> "1..*" TestParameter: requests analysis of
TestParameter "*" - -> "1" Parameter: refers to
TestParameter "1" - -> "1" TestParameterResult: contains
TestParameterResult "1" - -> "1" ReferenceValue: records
ExternalModuleAdapter1 ..|> ExternalModule
ExternalModuleAdapter2 ..|> ExternalModule
ExternalModuleAdapter3 ..|> ExternalModule
Test "1" - -> "*" TestType: is of
TestType "*" - -> "1" ExternalModule: makes use of
RecordTestResultController  ..>  Test
RecordTestResultController ...> TestParameterMapper
ExternalModuleAdapter1 - -> ExternalModuleAPI1
ExternalModuleAdapter2 - -> ExternalModuleAPI2
ExternalModuleAdapter3 - -> ExternalModuleAPI3
TestMapper ..> TestDTO
TestParameterMapper ..> TestParameterDto
TestDTO ..> Test
TestParameterMapper ..> Test

@enduml

PlantUML version 1.2021.4(Sun Apr 04 09:49:39 BST 2021)
(GPL source distribution)
Java Runtime: OpenJDK Runtime Environment
JVM: Dynamic Code Evolution 64-Bit Server VM
Default Encoding: Cp1252
Language: pt
Country: PT
--></g></svg>