<?xml version="1.0" encoding="UTF-8" standalone="no"?><svg xmlns="http://www.w3.org/2000/svg" xmlns:xlink="http://www.w3.org/1999/xlink" contentScriptType="application/ecmascript" contentStyleType="text/css" height="714.6px" preserveAspectRatio="none" style="width:1063px;height:714px;" version="1.1" viewBox="0 0 1063 714" width="1063.8px" zoomAndPan="magnify"><defs><filter height="300%" id="fljll6siyhdtx" width="300%" x="-1" y="-1"><feGaussianBlur result="blurOut" stdDeviation="1.8"/><feColorMatrix in="blurOut" result="blurOut2" type="matrix" values="0 0 0 0 0 0 0 0 0 0 0 0 0 0 0 0 0 0 .4 0"/><feOffset dx="3.6" dy="3.6" in="blurOut2" result="blurOut3"/><feBlend in="SourceGraphic" in2="blurOut3" mode="normal"/></filter></defs><g><!--MD5=[9681dc6e01e10c6b4fe06895ae94f592]
cluster UI--><polygon fill="#FFFFFF" filter="url(#fljll6siyhdtx)" points="920.7,5.4,938.7,5.4,945,26.6484,1048.5,26.6484,1048.5,95.4,920.7,95.4,920.7,5.4" style="stroke:#000000;stroke-width:1.35;"/><line style="stroke:#000000;stroke-width:1.35;" x1="920.7" x2="945" y1="26.6484" y2="26.6484"/><text fill="#000000" font-family="sans-serif" font-size="12.6" font-weight="bold" lengthAdjust="spacing" textLength="12.6" x="924.3" y="20.2799">UI</text><!--MD5=[ed1d20ea533a2a0e7df5ba3c35e56ced]
cluster Controllers--><polygon fill="#FFFFFF" filter="url(#fljll6siyhdtx)" points="663.3,125.1,739.8,125.1,746.1,146.3484,881.1,146.3484,881.1,252.9,663.3,252.9,663.3,125.1" style="stroke:#000000;stroke-width:1.35;"/><line style="stroke:#000000;stroke-width:1.35;" x1="663.3" x2="746.1" y1="146.3484" y2="146.3484"/><text fill="#000000" font-family="sans-serif" font-size="12.6" font-weight="bold" lengthAdjust="spacing" textLength="71.1" x="666.9" y="139.9799">Controllers</text><!--MD5=[121a8bf1197281ab89ed693fab589f94]
cluster Domain--><polygon fill="#FFFFFF" filter="url(#fljll6siyhdtx)" points="14.4,282.6,66.6,282.6,72.9,303.8484,846,303.8484,846,708.75,14.4,708.75,14.4,282.6" style="stroke:#000000;stroke-width:1.35;"/><line style="stroke:#000000;stroke-width:1.35;" x1="14.4" x2="72.9" y1="303.8484" y2="303.8484"/><text fill="#000000" font-family="sans-serif" font-size="12.6" font-weight="bold" lengthAdjust="spacing" textLength="46.8" x="18" y="297.4799">Domain</text><!--MD5=[32ff0bc6350c7c18bc045f793eb2f657]
cluster Mapper--><polygon fill="#FFFFFF" filter="url(#fljll6siyhdtx)" points="867.6,282.6,921.6,282.6,927.9,303.8484,984.6,303.8484,984.6,385.2,867.6,385.2,867.6,282.6" style="stroke:#000000;stroke-width:1.35;"/><line style="stroke:#000000;stroke-width:1.35;" x1="867.6" x2="927.9" y1="303.8484" y2="303.8484"/><text fill="#000000" font-family="sans-serif" font-size="12.6" font-weight="bold" lengthAdjust="spacing" textLength="48.6" x="871.2" y="297.4799">Mapper</text><!--MD5=[a7e26d82dece3a99be33d8557e72e039]
cluster Dto--><polygon fill="#FFFFFF" filter="url(#fljll6siyhdtx)" points="874.8,430.2,901.8,430.2,908.1,451.4484,977.4,451.4484,977.4,545.4,874.8,545.4,874.8,430.2" style="stroke:#000000;stroke-width:1.35;"/><line style="stroke:#000000;stroke-width:1.35;" x1="874.8" x2="908.1" y1="451.4484" y2="451.4484"/><text fill="#000000" font-family="sans-serif" font-size="12.6" font-weight="bold" lengthAdjust="spacing" textLength="21.6" x="878.4" y="445.0799">Dto</text><!--MD5=[cec1df0efff5a41ef5f9c935e8501d13]
class LCOverviewUI--><rect codeLine="2" fill="#FEFECE" filter="url(#fljll6siyhdtx)" height="43.2" id="LCOverviewUI" style="stroke:#A80036;stroke-width:1.35;" width="98.1" x="935.55" y="37.8"/><ellipse cx="949.05" cy="52.2" fill="#ADD1B2" rx="9.9" ry="9.9" style="stroke:#A80036;stroke-width:0.9;"/><path d="M950.85,49.05 Q951.0328,48.6 951.2438,48.375 Q951.4547,48.15 951.6938,48.15 Q952.1156,48.15 952.3828,48.4031 Q952.65,48.6563 952.65,49.2469 L952.65,50.6531 Q952.65,51.2438 952.3969,51.4969 Q952.1438,51.75 951.75,51.75 Q951.3984,51.75 951.1734,51.5953 Q950.9484,51.4406 950.85,51.0328 Q950.8078,50.7516 950.6531,50.5969 Q950.3719,50.3016 949.8656,50.1328 Q949.3594,49.95 948.8531,49.95 Q948.2203,49.95 947.6859,50.2031 Q947.1656,50.4563 946.7578,51.0188 Q946.35,51.5813 946.35,52.3547 L946.35,53.1844 Q946.35,54.1125 947.1094,54.7313 Q947.8688,55.35 949.2188,55.35 Q950.0203,55.35 950.5828,55.1672 Q950.9063,55.0688 951.2719,54.7453 Q951.5109,54.5625 951.6375,54.5063 Q951.7641,54.45 951.9188,54.45 Q952.2141,54.45 952.425,54.6891 Q952.65,54.9141 952.65,55.2375 Q952.65,55.5469 952.3406,55.9125 Q951.8906,56.4469 951.1734,56.7422 Q950.2313,57.15 949.0781,57.15 Q947.7281,57.15 946.6453,56.6156 Q945.7734,56.1938 945.1547,55.2797 Q944.55,54.3656 944.55,53.2828 L944.55,52.2984 Q944.55,51.1734 945.0844,50.1891 Q945.6328,49.2047 946.575,48.6844 Q947.5313,48.15 948.6,48.15 Q949.2469,48.15 949.8094,48.375 Q950.3719,48.6 950.85,49.05 Z " fill="#000000"/><text fill="#000000" font-family="sans-serif" font-size="10.8" lengthAdjust="spacing" textLength="69.3" x="961.65" y="56.6191">LCOverviewUI</text><line style="stroke:#A80036;stroke-width:1.35;" x1="936.45" x2="1032.75" y1="66.6" y2="66.6"/><line style="stroke:#A80036;stroke-width:1.35;" x1="936.45" x2="1032.75" y1="73.8" y2="73.8"/><!--MD5=[6d346cf601e02a9b5e26adb42ae77892]
class LCOverviewController--><rect codeLine="5" fill="#FEFECE" filter="url(#fljll6siyhdtx)" height="80.557" id="LCOverviewController" style="stroke:#A80036;stroke-width:1.35;" width="188.1" x="678.15" y="157.5"/><ellipse cx="715.14" cy="171.9" fill="#ADD1B2" rx="9.9" ry="9.9" style="stroke:#A80036;stroke-width:0.9;"/><path d="M716.94,168.75 Q717.1228,168.3 717.3338,168.075 Q717.5447,167.85 717.7838,167.85 Q718.2056,167.85 718.4728,168.1031 Q718.74,168.3563 718.74,168.9469 L718.74,170.3531 Q718.74,170.9438 718.4869,171.1969 Q718.2338,171.45 717.84,171.45 Q717.4884,171.45 717.2634,171.2953 Q717.0384,171.1406 716.94,170.7328 Q716.8978,170.4516 716.7431,170.2969 Q716.4619,170.0016 715.9556,169.8328 Q715.4494,169.65 714.9431,169.65 Q714.3103,169.65 713.7759,169.9031 Q713.2556,170.1563 712.8478,170.7188 Q712.44,171.2813 712.44,172.0547 L712.44,172.8844 Q712.44,173.8125 713.1994,174.4313 Q713.9588,175.05 715.3088,175.05 Q716.1103,175.05 716.6728,174.8672 Q716.9963,174.7688 717.3619,174.4453 Q717.6009,174.2625 717.7275,174.2063 Q717.8541,174.15 718.0088,174.15 Q718.3041,174.15 718.515,174.3891 Q718.74,174.6141 718.74,174.9375 Q718.74,175.2469 718.4306,175.6125 Q717.9806,176.1469 717.2634,176.4422 Q716.3213,176.85 715.1681,176.85 Q713.8181,176.85 712.7353,176.3156 Q711.8634,175.8938 711.2447,174.9797 Q710.64,174.0656 710.64,172.9828 L710.64,171.9984 Q710.64,170.8734 711.1744,169.8891 Q711.7228,168.9047 712.665,168.3844 Q713.6213,167.85 714.69,167.85 Q715.3369,167.85 715.8994,168.075 Q716.4619,168.3 716.94,168.75 Z " fill="#000000"/><text fill="#000000" font-family="sans-serif" font-size="10.8" lengthAdjust="spacing" textLength="107.1" x="732.96" y="176.3191">LCOverviewController</text><line style="stroke:#A80036;stroke-width:1.35;" x1="679.05" x2="865.35" y1="186.3" y2="186.3"/><line style="stroke:#A80036;stroke-width:1.35;" x1="679.05" x2="865.35" y1="193.5" y2="193.5"/><ellipse cx="688.05" cy="203.4" fill="#84BE84" rx="2.7" ry="2.7" style="stroke:#038048;stroke-width:0.9;"/><text fill="#000000" font-family="sans-serif" font-size="9.9" lengthAdjust="spacing" textLength="45" x="696.15" y="207.3771">getTests()</text><ellipse cx="688.05" cy="215.8523" fill="#84BE84" rx="2.7" ry="2.7" style="stroke:#038048;stroke-width:0.9;"/><text fill="#000000" font-family="sans-serif" font-size="9.9" lengthAdjust="spacing" textLength="164.7" x="696.15" y="219.8294">getTestsInInterval(startDate, endDate)</text><ellipse cx="688.05" cy="228.3047" fill="#84BE84" rx="2.7" ry="2.7" style="stroke:#038048;stroke-width:0.9;"/><text fill="#000000" font-family="sans-serif" font-size="9.9" lengthAdjust="spacing" textLength="152.1" x="696.15" y="232.2817">orderedListInInterval(tListInInterval)</text><!--MD5=[02e4b9b7573f1156f41e60aa5b4e25a4]
class Company--><rect codeLine="8" fill="#FEFECE" filter="url(#fljll6siyhdtx)" height="55.6523" id="Company" style="stroke:#A80036;stroke-width:1.35;" width="86.4" x="535.5" y="315"/><ellipse cx="553.455" cy="329.4" fill="#ADD1B2" rx="9.9" ry="9.9" style="stroke:#A80036;stroke-width:0.9;"/><path d="M555.255,326.25 Q555.4378,325.8 555.6488,325.575 Q555.8597,325.35 556.0988,325.35 Q556.5206,325.35 556.7878,325.6031 Q557.055,325.8563 557.055,326.4469 L557.055,327.8531 Q557.055,328.4438 556.8019,328.6969 Q556.5488,328.95 556.155,328.95 Q555.8034,328.95 555.5784,328.7953 Q555.3534,328.6406 555.255,328.2328 Q555.2128,327.9516 555.0581,327.7969 Q554.7769,327.5016 554.2706,327.3328 Q553.7644,327.15 553.2581,327.15 Q552.6253,327.15 552.0909,327.4031 Q551.5706,327.6563 551.1628,328.2188 Q550.755,328.7813 550.755,329.5547 L550.755,330.3844 Q550.755,331.3125 551.5144,331.9313 Q552.2738,332.55 553.6238,332.55 Q554.4253,332.55 554.9878,332.3672 Q555.3113,332.2688 555.6769,331.9453 Q555.9159,331.7625 556.0425,331.7063 Q556.1691,331.65 556.3238,331.65 Q556.6191,331.65 556.83,331.8891 Q557.055,332.1141 557.055,332.4375 Q557.055,332.7469 556.7456,333.1125 Q556.2956,333.6469 555.5784,333.9422 Q554.6363,334.35 553.4831,334.35 Q552.1331,334.35 551.0503,333.8156 Q550.1784,333.3938 549.5597,332.4797 Q548.955,331.5656 548.955,330.4828 L548.955,329.4984 Q548.955,328.3734 549.4894,327.3891 Q550.0378,326.4047 550.98,325.8844 Q551.9363,325.35 553.005,325.35 Q553.6519,325.35 554.2144,325.575 Q554.7769,325.8 555.255,326.25 Z " fill="#000000"/><text fill="#000000" font-family="sans-serif" font-size="10.8" lengthAdjust="spacing" textLength="47.7" x="567.045" y="333.8191">Company</text><line style="stroke:#A80036;stroke-width:1.35;" x1="536.4" x2="621" y1="343.8" y2="343.8"/><line style="stroke:#A80036;stroke-width:1.35;" x1="536.4" x2="621" y1="351" y2="351"/><ellipse cx="545.4" cy="360.9" fill="#84BE84" rx="2.7" ry="2.7" style="stroke:#038048;stroke-width:0.9;"/><text fill="#000000" font-family="sans-serif" font-size="9.9" lengthAdjust="spacing" textLength="63" x="553.5" y="364.8771">getTestStore()</text><!--MD5=[0f6f7964b844a64b0496af0dda7914bd]
class TestStore--><rect codeLine="9" fill="#FEFECE" filter="url(#fljll6siyhdtx)" height="55.6523" id="TestStore" style="stroke:#A80036;stroke-width:1.35;" width="83.7" x="747.45" y="468.9"/><ellipse cx="764.19" cy="483.3" fill="#ADD1B2" rx="9.9" ry="9.9" style="stroke:#A80036;stroke-width:0.9;"/><path d="M765.99,480.15 Q766.1728,479.7 766.3838,479.475 Q766.5947,479.25 766.8338,479.25 Q767.2556,479.25 767.5228,479.5031 Q767.79,479.7563 767.79,480.3469 L767.79,481.7531 Q767.79,482.3438 767.5369,482.5969 Q767.2838,482.85 766.89,482.85 Q766.5384,482.85 766.3134,482.6953 Q766.0884,482.5406 765.99,482.1328 Q765.9478,481.8516 765.7931,481.6969 Q765.5119,481.4016 765.0056,481.2328 Q764.4994,481.05 763.9931,481.05 Q763.3603,481.05 762.8259,481.3031 Q762.3056,481.5563 761.8978,482.1188 Q761.49,482.6813 761.49,483.4547 L761.49,484.2844 Q761.49,485.2125 762.2494,485.8313 Q763.0088,486.45 764.3588,486.45 Q765.1603,486.45 765.7228,486.2672 Q766.0463,486.1688 766.4119,485.8453 Q766.6509,485.6625 766.7775,485.6063 Q766.9041,485.55 767.0588,485.55 Q767.3541,485.55 767.565,485.7891 Q767.79,486.0141 767.79,486.3375 Q767.79,486.6469 767.4806,487.0125 Q767.0306,487.5469 766.3134,487.8422 Q765.3713,488.25 764.2181,488.25 Q762.8681,488.25 761.7853,487.7156 Q760.9134,487.2938 760.2947,486.3797 Q759.69,485.4656 759.69,484.3828 L759.69,483.3984 Q759.69,482.2734 760.2244,481.2891 Q760.7728,480.3047 761.715,479.7844 Q762.6713,479.25 763.74,479.25 Q764.3869,479.25 764.9494,479.475 Q765.5119,479.7 765.99,480.15 Z " fill="#000000"/><text fill="#000000" font-family="sans-serif" font-size="10.8" lengthAdjust="spacing" textLength="47.7" x="777.51" y="487.7191">TestStore</text><line style="stroke:#A80036;stroke-width:1.35;" x1="748.35" x2="830.25" y1="497.7" y2="497.7"/><line style="stroke:#A80036;stroke-width:1.35;" x1="748.35" x2="830.25" y1="504.9" y2="504.9"/><ellipse cx="757.35" cy="514.8" fill="#84BE84" rx="2.7" ry="2.7" style="stroke:#038048;stroke-width:0.9;"/><text fill="#000000" font-family="sans-serif" font-size="9.9" lengthAdjust="spacing" textLength="60.3" x="765.45" y="518.7771">getTestsList()</text><!--MD5=[df38be88ccee13e832d6fafd6288a4ca]
class Test--><rect codeLine="10" fill="#FEFECE" filter="url(#fljll6siyhdtx)" height="68.1047" id="Test" style="stroke:#A80036;stroke-width:1.35;" width="61.2" x="765" y="619.65"/><ellipse cx="783.36" cy="634.05" fill="#ADD1B2" rx="9.9" ry="9.9" style="stroke:#A80036;stroke-width:0.9;"/><path d="M785.16,630.9 Q785.3428,630.45 785.5538,630.225 Q785.7647,630 786.0038,630 Q786.4256,630 786.6928,630.2531 Q786.96,630.5063 786.96,631.0969 L786.96,632.5031 Q786.96,633.0938 786.7069,633.3469 Q786.4538,633.6 786.06,633.6 Q785.7084,633.6 785.4834,633.4453 Q785.2584,633.2906 785.16,632.8828 Q785.1178,632.6016 784.9631,632.4469 Q784.6819,632.1516 784.1756,631.9828 Q783.6694,631.8 783.1631,631.8 Q782.5303,631.8 781.9959,632.0531 Q781.4756,632.3063 781.0678,632.8688 Q780.66,633.4313 780.66,634.2047 L780.66,635.0344 Q780.66,635.9625 781.4194,636.5813 Q782.1788,637.2 783.5288,637.2 Q784.3303,637.2 784.8928,637.0172 Q785.2163,636.9188 785.5819,636.5953 Q785.8209,636.4125 785.9475,636.3563 Q786.0741,636.3 786.2288,636.3 Q786.5241,636.3 786.735,636.5391 Q786.96,636.7641 786.96,637.0875 Q786.96,637.3969 786.6506,637.7625 Q786.2006,638.2969 785.4834,638.5922 Q784.5413,639 783.3881,639 Q782.0381,639 780.9553,638.4656 Q780.0834,638.0438 779.4647,637.1297 Q778.86,636.2156 778.86,635.1328 L778.86,634.1484 Q778.86,633.0234 779.3944,632.0391 Q779.9428,631.0547 780.885,630.5344 Q781.8413,630 782.91,630 Q783.5569,630 784.1194,630.225 Q784.6819,630.45 785.16,630.9 Z " fill="#000000"/><text fill="#000000" font-family="sans-serif" font-size="10.8" lengthAdjust="spacing" textLength="21.6" x="797.04" y="638.4691">Test</text><line style="stroke:#A80036;stroke-width:1.35;" x1="765.9" x2="825.3" y1="648.45" y2="648.45"/><rect fill="none" height="5.4" style="stroke:#C82930;stroke-width:0.9;" width="5.4" x="772.2" y="655.65"/><text fill="#000000" font-family="sans-serif" font-size="9.9" lengthAdjust="spacing" textLength="21.6" x="783" y="662.3271">code</text><rect fill="none" height="5.4" style="stroke:#C82930;stroke-width:0.9;" width="5.4" x="772.2" y="668.1023"/><text fill="#000000" font-family="sans-serif" font-size="9.9" lengthAdjust="spacing" textLength="37.8" x="783" y="674.7794">nhscode</text><line style="stroke:#A80036;stroke-width:1.35;" x1="765.9" x2="825.3" y1="680.5547" y2="680.5547"/><!--MD5=[896702bfce61b73dfbf765415205a76e]
class Sequence--><rect codeLine="11" fill="#FEFECE" filter="url(#fljll6siyhdtx)" height="55.6523" id="Sequence" style="stroke:#A80036;stroke-width:1.35;" width="119.7" x="328.05" y="468.9"/><ellipse cx="359.775" cy="483.3" fill="#ADD1B2" rx="9.9" ry="9.9" style="stroke:#A80036;stroke-width:0.9;"/><path d="M361.575,480.15 Q361.7578,479.7 361.9688,479.475 Q362.1797,479.25 362.4188,479.25 Q362.8406,479.25 363.1078,479.5031 Q363.375,479.7563 363.375,480.3469 L363.375,481.7531 Q363.375,482.3438 363.1219,482.5969 Q362.8688,482.85 362.475,482.85 Q362.1234,482.85 361.8984,482.6953 Q361.6734,482.5406 361.575,482.1328 Q361.5328,481.8516 361.3781,481.6969 Q361.0969,481.4016 360.5906,481.2328 Q360.0844,481.05 359.5781,481.05 Q358.9453,481.05 358.4109,481.3031 Q357.8906,481.5563 357.4828,482.1188 Q357.075,482.6813 357.075,483.4547 L357.075,484.2844 Q357.075,485.2125 357.8344,485.8313 Q358.5938,486.45 359.9438,486.45 Q360.7453,486.45 361.3078,486.2672 Q361.6313,486.1688 361.9969,485.8453 Q362.2359,485.6625 362.3625,485.6063 Q362.4891,485.55 362.6438,485.55 Q362.9391,485.55 363.15,485.7891 Q363.375,486.0141 363.375,486.3375 Q363.375,486.6469 363.0656,487.0125 Q362.6156,487.5469 361.8984,487.8422 Q360.9563,488.25 359.8031,488.25 Q358.4531,488.25 357.3703,487.7156 Q356.4984,487.2938 355.8797,486.3797 Q355.275,485.4656 355.275,484.3828 L355.275,483.3984 Q355.275,482.2734 355.8094,481.2891 Q356.3578,480.3047 357.3,479.7844 Q358.2563,479.25 359.325,479.25 Q359.9719,479.25 360.5344,479.475 Q361.0969,479.7 361.575,480.15 Z " fill="#000000"/><text fill="#000000" font-family="sans-serif" font-size="10.8" lengthAdjust="spacing" textLength="50.4" x="376.425" y="487.7191">Sequence</text><line style="stroke:#A80036;stroke-width:1.35;" x1="328.95" x2="446.85" y1="497.7" y2="497.7"/><line style="stroke:#A80036;stroke-width:1.35;" x1="328.95" x2="446.85" y1="504.9" y2="504.9"/><ellipse cx="337.95" cy="514.8" fill="#84BE84" rx="2.7" ry="2.7" style="stroke:#038048;stroke-width:0.9;"/><text fill="#000000" font-family="sans-serif" font-size="9.9" lengthAdjust="spacing" textLength="96.3" x="346.05" y="518.7771">Sequence(date, num);</text><!--MD5=[706e73df52f3df32f52be1ce9adb217e]
class Graph--><rect codeLine="12" fill="#FEFECE" filter="url(#fljll6siyhdtx)" height="93.0094" id="Graph" style="stroke:#A80036;stroke-width:1.35;" width="235.8" x="479.7" y="450.45"/><ellipse cx="578.475" cy="464.85" fill="#ADD1B2" rx="9.9" ry="9.9" style="stroke:#A80036;stroke-width:0.9;"/><path d="M580.275,461.7 Q580.4578,461.25 580.6688,461.025 Q580.8797,460.8 581.1188,460.8 Q581.5406,460.8 581.8078,461.0531 Q582.075,461.3063 582.075,461.8969 L582.075,463.3031 Q582.075,463.8938 581.8219,464.1469 Q581.5688,464.4 581.175,464.4 Q580.8234,464.4 580.5984,464.2453 Q580.3734,464.0906 580.275,463.6828 Q580.2328,463.4016 580.0781,463.2469 Q579.7969,462.9516 579.2906,462.7828 Q578.7844,462.6 578.2781,462.6 Q577.6453,462.6 577.1109,462.8531 Q576.5906,463.1063 576.1828,463.6688 Q575.775,464.2313 575.775,465.0047 L575.775,465.8344 Q575.775,466.7625 576.5344,467.3813 Q577.2938,468 578.6438,468 Q579.4453,468 580.0078,467.8172 Q580.3313,467.7188 580.6969,467.3953 Q580.9359,467.2125 581.0625,467.1563 Q581.1891,467.1 581.3438,467.1 Q581.6391,467.1 581.85,467.3391 Q582.075,467.5641 582.075,467.8875 Q582.075,468.1969 581.7656,468.5625 Q581.3156,469.0969 580.5984,469.3922 Q579.6563,469.8 578.5031,469.8 Q577.1531,469.8 576.0703,469.2656 Q575.1984,468.8438 574.5797,467.9297 Q573.975,467.0156 573.975,465.9328 L573.975,464.9484 Q573.975,463.8234 574.5094,462.8391 Q575.0578,461.8547 576,461.3344 Q576.9563,460.8 578.025,460.8 Q578.6719,460.8 579.2344,461.025 Q579.7969,461.25 580.275,461.7 Z " fill="#000000"/><text fill="#000000" font-family="sans-serif" font-size="10.8" lengthAdjust="spacing" textLength="30.6" x="596.925" y="469.2691">Graph</text><line style="stroke:#A80036;stroke-width:1.35;" x1="480.6" x2="714.6" y1="479.25" y2="479.25"/><line style="stroke:#A80036;stroke-width:1.35;" x1="480.6" x2="714.6" y1="486.45" y2="486.45"/><ellipse cx="489.6" cy="496.35" fill="#84BE84" rx="2.7" ry="2.7" style="stroke:#038048;stroke-width:0.9;"/><text fill="#000000" font-family="sans-serif" font-size="9.9" lengthAdjust="spacing" textLength="212.4" x="497.7" y="500.3271">sendLists(diffList, sequenceList, sequenceList2)</text><ellipse cx="489.6" cy="508.8023" fill="#84BE84" rx="2.7" ry="2.7" style="stroke:#038048;stroke-width:0.9;"/><text fill="#000000" font-family="sans-serif" font-size="9.9" lengthAdjust="spacing" textLength="117" x="497.7" y="512.7794">makeGraphDiffList(diffList)</text><ellipse cx="489.6" cy="521.2547" fill="#84BE84" rx="2.7" ry="2.7" style="stroke:#038048;stroke-width:0.9;"/><text fill="#000000" font-family="sans-serif" font-size="9.9" lengthAdjust="spacing" textLength="174.6" x="497.7" y="525.2317">makeGraphSequenceList(sequenceList)</text><ellipse cx="489.6" cy="533.707" fill="#84BE84" rx="2.7" ry="2.7" style="stroke:#038048;stroke-width:0.9;"/><text fill="#000000" font-family="sans-serif" font-size="9.9" lengthAdjust="spacing" textLength="185.4" x="497.7" y="537.6841">makeGraphSequenceList2(sequenceList2)</text><!--MD5=[4b2835dc608910e9b77915db7bec9530]
class MaxSum--><rect codeLine="13" fill="#FEFECE" filter="url(#fljll6siyhdtx)" height="55.6523" id="MaxSum" style="stroke:#A80036;stroke-width:1.35;" width="117.9" x="178.65" y="625.95"/><ellipse cx="212.805" cy="640.35" fill="#B4A7E5" rx="9.9" ry="9.9" style="stroke:#A80036;stroke-width:0.9;"/><path d="M213.705,637.65 L213.705,643.05 L215.505,643.05 L215.9409,643.05 L216.405,643.6125 L216.405,643.95 L216.405,644.2875 L215.9409,644.85 L215.505,644.85 L210.105,644.85 L209.6691,644.85 L209.205,644.2875 L209.205,643.95 L209.205,643.6125 L209.6691,643.05 L210.105,643.05 L211.905,643.05 L211.905,637.65 L210.105,637.65 L209.6691,637.65 L209.205,637.0875 L209.205,636.75 L209.205,636.4125 L209.6691,635.85 L210.105,635.85 L215.505,635.85 L215.9409,635.85 L216.405,636.4125 L216.405,636.75 L216.405,637.0875 L215.9409,637.65 L215.505,637.65 L213.705,637.65 Z " fill="#000000"/><text fill="#000000" font-family="sans-serif" font-size="10.8" font-style="italic" lengthAdjust="spacing" textLength="43.2" x="229.995" y="644.7691">MaxSum</text><line style="stroke:#A80036;stroke-width:1.35;" x1="179.55" x2="295.65" y1="654.75" y2="654.75"/><line style="stroke:#A80036;stroke-width:1.35;" x1="179.55" x2="295.65" y1="661.95" y2="661.95"/><ellipse cx="188.55" cy="671.85" fill="#84BE84" rx="2.7" ry="2.7" style="stroke:#038048;stroke-width:0.9;"/><text fill="#000000" font-family="sans-serif" font-size="9.9" lengthAdjust="spacing" textLength="94.5" x="196.65" y="675.8271">int [] MaxSum(diffList)</text><!--MD5=[f951ccc707759c28da0a169c596cabd2]
class MaxSumAdapter1--><rect codeLine="14" fill="#FEFECE" filter="url(#fljll6siyhdtx)" height="55.6523" id="MaxSumAdapter1" style="stroke:#A80036;stroke-width:1.35;" width="117.9" x="178.65" y="468.9"/><ellipse cx="193.365" cy="483.3" fill="#ADD1B2" rx="9.9" ry="9.9" style="stroke:#A80036;stroke-width:0.9;"/><path d="M195.165,480.15 Q195.3478,479.7 195.5588,479.475 Q195.7697,479.25 196.0088,479.25 Q196.4306,479.25 196.6978,479.5031 Q196.965,479.7563 196.965,480.3469 L196.965,481.7531 Q196.965,482.3438 196.7119,482.5969 Q196.4588,482.85 196.065,482.85 Q195.7134,482.85 195.4884,482.6953 Q195.2634,482.5406 195.165,482.1328 Q195.1228,481.8516 194.9681,481.6969 Q194.6869,481.4016 194.1806,481.2328 Q193.6744,481.05 193.1681,481.05 Q192.5353,481.05 192.0009,481.3031 Q191.4806,481.5563 191.0728,482.1188 Q190.665,482.6813 190.665,483.4547 L190.665,484.2844 Q190.665,485.2125 191.4244,485.8313 Q192.1838,486.45 193.5338,486.45 Q194.3353,486.45 194.8978,486.2672 Q195.2213,486.1688 195.5869,485.8453 Q195.8259,485.6625 195.9525,485.6063 Q196.0791,485.55 196.2338,485.55 Q196.5291,485.55 196.74,485.7891 Q196.965,486.0141 196.965,486.3375 Q196.965,486.6469 196.6556,487.0125 Q196.2056,487.5469 195.4884,487.8422 Q194.5463,488.25 193.3931,488.25 Q192.0431,488.25 190.9603,487.7156 Q190.0884,487.2938 189.4697,486.3797 Q188.865,485.4656 188.865,484.3828 L188.865,483.3984 Q188.865,482.2734 189.3994,481.2891 Q189.9478,480.3047 190.89,479.7844 Q191.8463,479.25 192.915,479.25 Q193.5619,479.25 194.1244,479.475 Q194.6869,479.7 195.165,480.15 Z " fill="#000000"/><text fill="#000000" font-family="sans-serif" font-size="10.8" lengthAdjust="spacing" textLength="86.4" x="206.235" y="487.7191">MaxSumAdapter1</text><line style="stroke:#A80036;stroke-width:1.35;" x1="179.55" x2="295.65" y1="497.7" y2="497.7"/><line style="stroke:#A80036;stroke-width:1.35;" x1="179.55" x2="295.65" y1="504.9" y2="504.9"/><ellipse cx="188.55" cy="514.8" fill="#84BE84" rx="2.7" ry="2.7" style="stroke:#038048;stroke-width:0.9;"/><text fill="#000000" font-family="sans-serif" font-size="9.9" lengthAdjust="spacing" textLength="94.5" x="196.65" y="518.7771">int [] MaxSum(diffList)</text><!--MD5=[ecee570354bf9c744f87f24989658872]
class MaxSumAdapter2--><rect codeLine="15" fill="#FEFECE" filter="url(#fljll6siyhdtx)" height="55.6523" id="MaxSumAdapter2" style="stroke:#A80036;stroke-width:1.35;" width="117.9" x="29.25" y="468.9"/><ellipse cx="43.965" cy="483.3" fill="#ADD1B2" rx="9.9" ry="9.9" style="stroke:#A80036;stroke-width:0.9;"/><path d="M45.765,480.15 Q45.9478,479.7 46.1588,479.475 Q46.3697,479.25 46.6088,479.25 Q47.0306,479.25 47.2978,479.5031 Q47.565,479.7563 47.565,480.3469 L47.565,481.7531 Q47.565,482.3438 47.3119,482.5969 Q47.0588,482.85 46.665,482.85 Q46.3134,482.85 46.0884,482.6953 Q45.8634,482.5406 45.765,482.1328 Q45.7228,481.8516 45.5681,481.6969 Q45.2869,481.4016 44.7806,481.2328 Q44.2744,481.05 43.7681,481.05 Q43.1353,481.05 42.6009,481.3031 Q42.0806,481.5563 41.6728,482.1188 Q41.265,482.6813 41.265,483.4547 L41.265,484.2844 Q41.265,485.2125 42.0244,485.8313 Q42.7838,486.45 44.1338,486.45 Q44.9353,486.45 45.4978,486.2672 Q45.8213,486.1688 46.1869,485.8453 Q46.4259,485.6625 46.5525,485.6063 Q46.6791,485.55 46.8338,485.55 Q47.1291,485.55 47.34,485.7891 Q47.565,486.0141 47.565,486.3375 Q47.565,486.6469 47.2556,487.0125 Q46.8056,487.5469 46.0884,487.8422 Q45.1463,488.25 43.9931,488.25 Q42.6431,488.25 41.5603,487.7156 Q40.6884,487.2938 40.0697,486.3797 Q39.465,485.4656 39.465,484.3828 L39.465,483.3984 Q39.465,482.2734 39.9994,481.2891 Q40.5478,480.3047 41.49,479.7844 Q42.4463,479.25 43.515,479.25 Q44.1619,479.25 44.7244,479.475 Q45.2869,479.7 45.765,480.15 Z " fill="#000000"/><text fill="#000000" font-family="sans-serif" font-size="10.8" lengthAdjust="spacing" textLength="86.4" x="56.835" y="487.7191">MaxSumAdapter2</text><line style="stroke:#A80036;stroke-width:1.35;" x1="30.15" x2="146.25" y1="497.7" y2="497.7"/><line style="stroke:#A80036;stroke-width:1.35;" x1="30.15" x2="146.25" y1="504.9" y2="504.9"/><ellipse cx="39.15" cy="514.8" fill="#84BE84" rx="2.7" ry="2.7" style="stroke:#038048;stroke-width:0.9;"/><text fill="#000000" font-family="sans-serif" font-size="9.9" lengthAdjust="spacing" textLength="94.5" x="47.25" y="518.7771">int [] MaxSum(diffList)</text><!--MD5=[6f318a0d2ef1af18d0eb62d05bd5bbb2]
class LineChart--><rect codeLine="16" fill="#FEFECE" filter="url(#fljll6siyhdtx)" height="80.557" id="LineChart" style="stroke:#A80036;stroke-width:1.35;" width="148.5" x="523.35" y="613.35"/><ellipse cx="569.475" cy="627.75" fill="#ADD1B2" rx="9.9" ry="9.9" style="stroke:#A80036;stroke-width:0.9;"/><path d="M571.275,624.6 Q571.4578,624.15 571.6688,623.925 Q571.8797,623.7 572.1188,623.7 Q572.5406,623.7 572.8078,623.9531 Q573.075,624.2063 573.075,624.7969 L573.075,626.2031 Q573.075,626.7938 572.8219,627.0469 Q572.5688,627.3 572.175,627.3 Q571.8234,627.3 571.5984,627.1453 Q571.3734,626.9906 571.275,626.5828 Q571.2328,626.3016 571.0781,626.1469 Q570.7969,625.8516 570.2906,625.6828 Q569.7844,625.5 569.2781,625.5 Q568.6453,625.5 568.1109,625.7531 Q567.5906,626.0063 567.1828,626.5688 Q566.775,627.1313 566.775,627.9047 L566.775,628.7344 Q566.775,629.6625 567.5344,630.2813 Q568.2938,630.9 569.6438,630.9 Q570.4453,630.9 571.0078,630.7172 Q571.3313,630.6188 571.6969,630.2953 Q571.9359,630.1125 572.0625,630.0563 Q572.1891,630 572.3438,630 Q572.6391,630 572.85,630.2391 Q573.075,630.4641 573.075,630.7875 Q573.075,631.0969 572.7656,631.4625 Q572.3156,631.9969 571.5984,632.2922 Q570.6563,632.7 569.5031,632.7 Q568.1531,632.7 567.0703,632.1656 Q566.1984,631.7438 565.5797,630.8297 Q564.975,629.9156 564.975,628.8328 L564.975,627.8484 Q564.975,626.7234 565.5094,625.7391 Q566.0578,624.7547 567,624.2344 Q567.9563,623.7 569.025,623.7 Q569.6719,623.7 570.2344,623.925 Q570.7969,624.15 571.275,624.6 Z " fill="#000000"/><text fill="#000000" font-family="sans-serif" font-size="10.8" lengthAdjust="spacing" textLength="48.6" x="587.925" y="632.1691">LineChart</text><line style="stroke:#A80036;stroke-width:1.35;" x1="524.25" x2="670.95" y1="642.15" y2="642.15"/><line style="stroke:#A80036;stroke-width:1.35;" x1="524.25" x2="670.95" y1="649.35" y2="649.35"/><ellipse cx="533.25" cy="659.25" fill="#84BE84" rx="2.7" ry="2.7" style="stroke:#038048;stroke-width:0.9;"/><text fill="#000000" font-family="sans-serif" font-size="9.9" lengthAdjust="spacing" textLength="90.9" x="541.35" y="663.2271">create(graphDiffList)</text><ellipse cx="533.25" cy="671.7023" fill="#84BE84" rx="2.7" ry="2.7" style="stroke:#038048;stroke-width:0.9;"/><text fill="#000000" font-family="sans-serif" font-size="9.9" lengthAdjust="spacing" textLength="119.7" x="541.35" y="675.6794">create(graphSequenceList)</text><ellipse cx="533.25" cy="684.1547" fill="#84BE84" rx="2.7" ry="2.7" style="stroke:#038048;stroke-width:0.9;"/><text fill="#000000" font-family="sans-serif" font-size="9.9" lengthAdjust="spacing" textLength="125.1" x="541.35" y="688.1317">create(graphSequenceList2)</text><!--MD5=[144698ec4d0188f6929a3b58a3eeb1f6]
class TestMapper--><rect codeLine="20" fill="#FEFECE" filter="url(#fljll6siyhdtx)" height="55.6523" id="TestMapper" style="stroke:#A80036;stroke-width:1.35;" width="87.3" x="882.45" y="315"/><ellipse cx="895.95" cy="329.4" fill="#ADD1B2" rx="9.9" ry="9.9" style="stroke:#A80036;stroke-width:0.9;"/><path d="M897.75,326.25 Q897.9328,325.8 898.1438,325.575 Q898.3547,325.35 898.5938,325.35 Q899.0156,325.35 899.2828,325.6031 Q899.55,325.8563 899.55,326.4469 L899.55,327.8531 Q899.55,328.4438 899.2969,328.6969 Q899.0438,328.95 898.65,328.95 Q898.2984,328.95 898.0734,328.7953 Q897.8484,328.6406 897.75,328.2328 Q897.7078,327.9516 897.5531,327.7969 Q897.2719,327.5016 896.7656,327.3328 Q896.2594,327.15 895.7531,327.15 Q895.1203,327.15 894.5859,327.4031 Q894.0656,327.6563 893.6578,328.2188 Q893.25,328.7813 893.25,329.5547 L893.25,330.3844 Q893.25,331.3125 894.0094,331.9313 Q894.7688,332.55 896.1188,332.55 Q896.9203,332.55 897.4828,332.3672 Q897.8063,332.2688 898.1719,331.9453 Q898.4109,331.7625 898.5375,331.7063 Q898.6641,331.65 898.8188,331.65 Q899.1141,331.65 899.325,331.8891 Q899.55,332.1141 899.55,332.4375 Q899.55,332.7469 899.2406,333.1125 Q898.7906,333.6469 898.0734,333.9422 Q897.1313,334.35 895.9781,334.35 Q894.6281,334.35 893.5453,333.8156 Q892.6734,333.3938 892.0547,332.4797 Q891.45,331.5656 891.45,330.4828 L891.45,329.4984 Q891.45,328.3734 891.9844,327.3891 Q892.5328,326.4047 893.475,325.8844 Q894.4313,325.35 895.5,325.35 Q896.1469,325.35 896.7094,325.575 Q897.2719,325.8 897.75,326.25 Z " fill="#000000"/><text fill="#000000" font-family="sans-serif" font-size="10.8" lengthAdjust="spacing" textLength="58.5" x="908.55" y="333.8191">TestMapper</text><line style="stroke:#A80036;stroke-width:1.35;" x1="883.35" x2="968.85" y1="343.8" y2="343.8"/><line style="stroke:#A80036;stroke-width:1.35;" x1="883.35" x2="968.85" y1="351" y2="351"/><ellipse cx="892.35" cy="360.9" fill="#84BE84" rx="2.7" ry="2.7" style="stroke:#038048;stroke-width:0.9;"/><text fill="#000000" font-family="sans-serif" font-size="9.9" lengthAdjust="spacing" textLength="47.7" x="900.45" y="364.8771">toDto(tList)</text><!--MD5=[9fb704ffefcaf68bf1a361787afa998b]
class TestDTO--><rect codeLine="24" fill="#FEFECE" filter="url(#fljll6siyhdtx)" height="68.1047" id="TestDTO" style="stroke:#A80036;stroke-width:1.35;" width="72.9" x="889.65" y="462.6"/><ellipse cx="903.15" cy="477" fill="#ADD1B2" rx="9.9" ry="9.9" style="stroke:#A80036;stroke-width:0.9;"/><path d="M904.95,473.85 Q905.1328,473.4 905.3438,473.175 Q905.5547,472.95 905.7938,472.95 Q906.2156,472.95 906.4828,473.2031 Q906.75,473.4563 906.75,474.0469 L906.75,475.4531 Q906.75,476.0438 906.4969,476.2969 Q906.2438,476.55 905.85,476.55 Q905.4984,476.55 905.2734,476.3953 Q905.0484,476.2406 904.95,475.8328 Q904.9078,475.5516 904.7531,475.3969 Q904.4719,475.1016 903.9656,474.9328 Q903.4594,474.75 902.9531,474.75 Q902.3203,474.75 901.7859,475.0031 Q901.2656,475.2563 900.8578,475.8188 Q900.45,476.3813 900.45,477.1547 L900.45,477.9844 Q900.45,478.9125 901.2094,479.5313 Q901.9688,480.15 903.3188,480.15 Q904.1203,480.15 904.6828,479.9672 Q905.0063,479.8688 905.3719,479.5453 Q905.6109,479.3625 905.7375,479.3063 Q905.8641,479.25 906.0188,479.25 Q906.3141,479.25 906.525,479.4891 Q906.75,479.7141 906.75,480.0375 Q906.75,480.3469 906.4406,480.7125 Q905.9906,481.2469 905.2734,481.5422 Q904.3313,481.95 903.1781,481.95 Q901.8281,481.95 900.7453,481.4156 Q899.8734,480.9938 899.2547,480.0797 Q898.65,479.1656 898.65,478.0828 L898.65,477.0984 Q898.65,475.9734 899.1844,474.9891 Q899.7328,474.0047 900.675,473.4844 Q901.6313,472.95 902.7,472.95 Q903.3469,472.95 903.9094,473.175 Q904.4719,473.4 904.95,473.85 Z " fill="#000000"/><text fill="#000000" font-family="sans-serif" font-size="10.8" lengthAdjust="spacing" textLength="44.1" x="915.75" y="481.4191">TestDTO</text><line style="stroke:#A80036;stroke-width:1.35;" x1="890.55" x2="961.65" y1="491.4" y2="491.4"/><rect fill="none" height="5.4" style="stroke:#C82930;stroke-width:0.9;" width="5.4" x="896.85" y="498.6"/><text fill="#000000" font-family="sans-serif" font-size="9.9" lengthAdjust="spacing" textLength="21.6" x="907.65" y="505.2771">code</text><rect fill="none" height="5.4" style="stroke:#C82930;stroke-width:0.9;" width="5.4" x="896.85" y="511.0523"/><text fill="#000000" font-family="sans-serif" font-size="9.9" lengthAdjust="spacing" textLength="37.8" x="907.65" y="517.7294">nhscode</text><line style="stroke:#A80036;stroke-width:1.35;" x1="890.55" x2="961.65" y1="523.5047" y2="523.5047"/><!--MD5=[8046bf92e2130e564f69361a7838eaa3]
link LCOverviewUI to LCOverviewController--><path codeLine="28" d="M952.344,81.081 C922.05,100.584 875.817,130.365 837.774,154.863 " fill="none" id="LCOverviewUI-to-LCOverviewController" style="stroke:#A80036;stroke-width:0.9;stroke-dasharray:7.0,7.0;"/><polygon fill="#A80036" points="833.886,157.365,842.6483,156.0266,837.6751,154.9374,838.7642,149.9641,833.886,157.365" style="stroke:#A80036;stroke-width:0.9;"/><!--MD5=[9aebb95b795ed2867d1a8fda9314dde6]
link LCOverviewController to Company--><path codeLine="29" d="M696.447,238.518 C681.714,247.32 666.72,257.094 653.4,267.3 C636.489,280.26 619.551,296.838 606.078,311.085 " fill="none" id="LCOverviewController-to-Company" style="stroke:#A80036;stroke-width:0.9;stroke-dasharray:7.0,7.0;"/><polygon fill="#A80036" points="602.739,314.649,610.9048,311.2009,605.8163,311.3657,605.6515,306.2772,602.739,314.649" style="stroke:#A80036;stroke-width:0.9;"/><!--MD5=[6eddf99bb0a2194712f54d835bad6230]
link LCOverviewController to TestMapper--><path codeLine="30" d="M815.067,238.761 C839.907,261.855 870.687,290.475 893.529,311.715 " fill="none" id="LCOverviewController-to-TestMapper" style="stroke:#A80036;stroke-width:0.9;stroke-dasharray:7.0,7.0;"/><polygon fill="#A80036" points="896.841,314.793,893.344,306.648,893.5393,311.7354,888.4519,311.9307,896.841,314.793" style="stroke:#A80036;stroke-width:0.9;"/><!--MD5=[473de22122ce542dfbec7792f7688175]
link LCOverviewController to Graph--><path codeLine="31" d="M766.143,238.86 C757.62,284.94 738.612,361.323 700.2,415.8 C692.181,427.167 682.092,437.697 671.391,447.138 " fill="none" id="LCOverviewController-to-Graph" style="stroke:#A80036;stroke-width:0.9;stroke-dasharray:7.0,7.0;"/><polygon fill="#A80036" points="667.737,450.297,676.2195,447.7247,671.1418,447.3547,671.5119,442.277,667.737,450.297" style="stroke:#A80036;stroke-width:0.9;"/><!--MD5=[dc5e9e891e4baa2ea4b2457e1fd51403]
link LCOverviewController to Sequence--><path codeLine="32" d="M735.192,238.734 C725.895,250.038 716.499,262.728 709.2,275.4 C675.981,333.09 710.946,376.785 657,415.8 C639.648,428.346 484.128,414.675 464.4,423 C443.187,431.955 424.386,449.649 410.733,465.363 " fill="none" id="LCOverviewController-to-Sequence" style="stroke:#A80036;stroke-width:0.9;stroke-dasharray:7.0,7.0;"/><polygon fill="#A80036" points="407.718,468.891,415.7144,465.0665,410.6391,465.468,410.2376,460.3927,407.718,468.891" style="stroke:#A80036;stroke-width:0.9;"/><!--MD5=[bf8badd392de732102cc7fe988b71096]
link Graph to MaxSum--><path codeLine="34" d="M492.021,543.231 C430.065,569.952 353.844,602.82 301.059,625.581 " fill="none" id="Graph-to-MaxSum" style="stroke:#A80036;stroke-width:0.9;"/><polygon fill="#A80036" points="296.667,627.48,305.5303,627.5882,300.8012,625.7027,302.6866,620.9735,296.667,627.48" style="stroke:#A80036;stroke-width:0.9;"/><text fill="#000000" font-family="sans-serif" font-size="11.7" lengthAdjust="spacing" textLength="70.2" x="428.4" y="583.1956">makes use of</text><text fill="#000000" font-family="sans-serif" font-size="11.7" lengthAdjust="spacing" textLength="18" x="457.9083" y="562.919">1..*</text><text fill="#000000" font-family="sans-serif" font-size="11.7" lengthAdjust="spacing" textLength="6.3" x="303.8608" y="621.3709">1</text><!--MD5=[f8e6638ebc735c593d18be47933dbe0b]
link MaxSumAdapter1 to MaxSum--><path codeLine="36" d="M237.6,524.745 C237.6,551.511 237.6,592.506 237.6,620.901 " fill="none" id="MaxSumAdapter1-to-MaxSum" style="stroke:#A80036;stroke-width:0.9;stroke-dasharray:7.0,7.0;"/><polygon fill="#A80036" points="237.6,625.698,241.2,617.598,237.6,621.198,234,617.598,237.6,625.698" style="stroke:#A80036;stroke-width:0.9;"/><!--MD5=[5d5a2f34869db75b421fa9e786b71e03]
link MaxSumAdapter2 to MaxSum--><path codeLine="37" d="M114.219,524.745 C140.409,551.961 180.738,593.865 208.107,622.296 " fill="none" id="MaxSumAdapter2-to-MaxSum" style="stroke:#A80036;stroke-width:0.9;stroke-dasharray:7.0,7.0;"/><polygon fill="#A80036" points="211.374,625.698,208.3429,617.3684,208.2504,622.4587,203.1601,622.3661,211.374,625.698" style="stroke:#A80036;stroke-width:0.9;"/><!--MD5=[2d3a9cabf4a530fdc7c107d8f167701b]
link Graph to LineChart--><path codeLine="39" d="M597.6,543.438 C597.6,564.066 597.6,588.321 597.6,608.751 " fill="none" id="Graph-to-LineChart" style="stroke:#A80036;stroke-width:0.9;stroke-dasharray:7.0,7.0;"/><polygon fill="#A80036" points="597.6,613.323,601.2,605.223,597.6,608.823,594,605.223,597.6,613.323" style="stroke:#A80036;stroke-width:0.9;"/><!--MD5=[da50866975fb6765bc7d3e6c2803b029]
link LCOverviewController to TestStore--><path codeLine="41" d="M774.486,238.644 C777.915,298.179 784.314,409.329 787.464,463.95 " fill="none" id="LCOverviewController-to-TestStore" style="stroke:#A80036;stroke-width:0.9;stroke-dasharray:7.0,7.0;"/><polygon fill="#A80036" points="787.734,468.729,790.8647,460.4363,787.4765,464.2364,783.6765,460.8482,787.734,468.729" style="stroke:#A80036;stroke-width:0.9;"/><!--MD5=[79c87088a46d1ad6282b8104610cbdb0]
link LCOverviewUI to TestDTO--><path codeLine="43" d="M988.245,81.369 C996.669,134.604 1014.597,278.37 984.6,392.4 C978.426,415.881 965.574,439.632 953.478,458.46 " fill="none" id="LCOverviewUI-to-TestDTO" style="stroke:#A80036;stroke-width:0.9;stroke-dasharray:7.0,7.0;"/><polygon fill="#A80036" points="950.913,462.393,958.3522,457.5734,953.3704,458.6232,952.3205,453.6415,950.913,462.393" style="stroke:#A80036;stroke-width:0.9;"/><!--MD5=[7f6cf7f175eae0af66201860de5de971]
link Company to TestStore--><path codeLine="76" d="M622.188,360.414 C654.525,374.103 698.598,395.685 731.7,423 C746.028,434.826 759.123,450.765 769.194,464.724 " fill="none" id="Company-to-TestStore" style="stroke:#A80036;stroke-width:0.9;"/><polygon fill="#A80036" points="771.957,468.603,770.19,459.9169,769.3463,464.9377,764.3255,464.0941,771.957,468.603" style="stroke:#A80036;stroke-width:0.9;"/><text fill="#000000" font-family="sans-serif" font-size="11.7" lengthAdjust="spacing" textLength="18.9" x="720.9" y="412.6456">has</text><text fill="#000000" font-family="sans-serif" font-size="11.7" lengthAdjust="spacing" textLength="6.3" x="629.038" y="359.7086">1</text><text fill="#000000" font-family="sans-serif" font-size="11.7" lengthAdjust="spacing" textLength="6.3" x="761.4303" y="459.0958">1</text><!--MD5=[cc5f12b6113b43e9afb37f463ad3f94e]
link Company to Graph--><path codeLine="77" d="M573.426,370.944 C571.905,380.016 570.456,390.213 569.7,399.6 C569.124,406.773 568.503,408.699 569.7,415.8 C571.644,427.266 575.037,439.29 578.817,450.423 " fill="none" id="Company-Graph" style="stroke:#A80036;stroke-width:0.9;"/><text fill="#000000" font-family="sans-serif" font-size="11.7" lengthAdjust="spacing" textLength="25.2" x="570.6" y="412.6456">uses</text><text fill="#000000" font-family="sans-serif" font-size="11.7" lengthAdjust="spacing" textLength="6.3" x="565.4675" y="390.0739">1</text><text fill="#000000" font-family="sans-serif" font-size="11.7" lengthAdjust="spacing" textLength="18" x="556.91" y="440.6348">1..*</text><!--MD5=[a1d266774c4fb5462b842d0579fa2fb4]
link Company to Sequence--><path codeLine="78" d="M536.301,370.89 C514.26,385.542 487.233,404.397 464.4,423 C446.904,437.256 428.562,454.635 414.225,468.855 " fill="none" id="Company-Sequence" style="stroke:#A80036;stroke-width:0.9;"/><text fill="#000000" font-family="sans-serif" font-size="11.7" lengthAdjust="spacing" textLength="18.9" x="495" y="412.6456">has</text><text fill="#000000" font-family="sans-serif" font-size="11.7" lengthAdjust="spacing" textLength="6.3" x="521.8876" y="372.3802">1</text><text fill="#000000" font-family="sans-serif" font-size="11.7" lengthAdjust="spacing" textLength="4.5" x="414.9914" y="458.9634">*</text><!--MD5=[f6fda4afaf882dd39139bcbf06c50c8c]
link TestMapper to TestDTO--><path codeLine="83" d="M926.1,370.989 C926.1,395.226 926.1,430.938 926.1,457.974 " fill="none" id="TestMapper-to-TestDTO" style="stroke:#A80036;stroke-width:0.9;stroke-dasharray:7.0,7.0;"/><polygon fill="#A80036" points="926.1,462.573,929.7,454.473,926.1,458.073,922.5,454.473,926.1,462.573" style="stroke:#A80036;stroke-width:0.9;"/><!--MD5=[be3b39c7463182027323f9c0e531e936]
link TestDTO to Test--><path codeLine="84" d="M898.101,531.009 C877.185,555.885 848.592,589.905 826.92,615.69 " fill="none" id="TestDTO-to-Test" style="stroke:#A80036;stroke-width:0.9;stroke-dasharray:7.0,7.0;"/><polygon fill="#A80036" points="823.77,619.434,831.7438,615.5626,826.671,615.9939,826.2397,610.921,823.77,619.434" style="stroke:#A80036;stroke-width:0.9;"/><!--MD5=[b0f4f6db8206580012ef9cd998ed01c5]
link TestStore to Test--><path codeLine="87" d="M790.398,524.745 C791.406,549.63 792.918,586.791 794.052,614.709 " fill="none" id="TestStore-to-Test" style="stroke:#A80036;stroke-width:0.9;"/><polygon fill="#A80036" points="794.241,619.461,797.5144,611.2236,794.0611,614.9646,790.3201,611.5114,794.241,619.461" style="stroke:#A80036;stroke-width:0.9;"/><text fill="#000000" font-family="sans-serif" font-size="11.7" lengthAdjust="spacing" textLength="20.7" x="792.9" y="583.1956">Has</text><text fill="#000000" font-family="sans-serif" font-size="11.7" lengthAdjust="spacing" textLength="6.3" x="783.694" y="543.8555">1</text><text fill="#000000" font-family="sans-serif" font-size="11.7" lengthAdjust="spacing" textLength="4.5" x="789.0981" y="609.853">*</text><!--MD5=[c88f814ecc8e75286b0c0023c0833471]
link TestMapper to TestStore--><path codeLine="89" d="M901.647,370.989 C877.887,397.404 841.869,437.454 817.047,465.048 " fill="none" id="TestMapper-to-TestStore" style="stroke:#A80036;stroke-width:0.9;stroke-dasharray:7.0,7.0;"/><polygon fill="#A80036" points="813.78,468.684,821.8745,465.0716,816.7903,465.3392,816.5228,460.255,813.78,468.684" style="stroke:#A80036;stroke-width:0.9;"/><!--MD5=[e7626c5e06cca20bf2915e7266c94091]
@startuml
package "UI" {
  Class LCOverviewUI
}
package "Controllers" {
 Class LCOverviewController
}
package "Domain" {
 Class Company
Class TestStore
Class Test
Class Sequence
Class Graph
Interface MaxSum
Class MaxSumAdapter1
Class MaxSumAdapter2
Class LineChart

}
package "Mapper" {
Class TestMapper

}
package "Dto"{
Class TestDTO
}


LCOverviewUI ..> LCOverviewController
LCOverviewController..>Company
LCOverviewController..>TestMapper
LCOverviewController ..> Graph
LCOverviewController ..> Sequence

Graph "1..*" - -> "1"MaxSum : makes use of

MaxSumAdapter1 ..>MaxSum
MaxSumAdapter2 ..>MaxSum

Graph..>LineChart

LCOverviewController..>TestStore

LCOverviewUI ..> TestDTO








LCOverviewController : +getTests()
LCOverviewController : +getTestsInInterval(startDate, endDate)
LCOverviewController : +orderedListInInterval(tListInInterval)


Graph : +sendLists(diffList, sequenceList, sequenceList2)

MaxSum : +int [] MaxSum(diffList)

MaxSumAdapter2 : +int [] MaxSum(diffList)
MaxSumAdapter1 : +int [] MaxSum(diffList)

Graph : +makeGraphDiffList(diffList)
Graph : +makeGraphSequenceList(sequenceList)
Graph : +makeGraphSequenceList2(sequenceList2)

LineChart : +create(graphDiffList)
LineChart : +create(graphSequenceList)
LineChart : +create(graphSequenceList2)



Sequence : +Sequence(date, num);

Company"1" - ->"1" TestStore :has
Company "1" - - "1..*" Graph : uses
Company "1" - - "*" Sequence : has


TestStore : +getTestsList()

TestMapper ..> TestDTO
TestDTO..> Test


TestStore"1" - ->"*"Test : Has

TestMapper ..> TestStore



TestMapper : +toDto(tList)




Company : +getTestStore()


Test : -code
Test : -nhscode


TestDTO : -code
TestDTO : -nhscode

@enduml

PlantUML version 1.2021.00(Sun Jan 10 10:25:05 GMT 2021)
(GPL source distribution)
Java Runtime: OpenJDK Runtime Environment
JVM: OpenJDK 64-Bit Server VM
Default Encoding: Cp1252
Language: pt
Country: PT
--></g></svg>