<?xml version="1.0" encoding="UTF-8" standalone="no"?><svg xmlns="http://www.w3.org/2000/svg" xmlns:xlink="http://www.w3.org/1999/xlink" contentScriptType="application/ecmascript" contentStyleType="text/css" height="1467px" preserveAspectRatio="none" style="width:2313px;height:1467px;" version="1.1" viewBox="0 0 2313 1467" width="2313px" zoomAndPan="magnify"><defs><filter height="300%" id="fdixekotpbyi4" width="300%" x="-1" y="-1"><feGaussianBlur result="blurOut" stdDeviation="2.0"/><feColorMatrix in="blurOut" result="blurOut2" type="matrix" values="0 0 0 0 0 0 0 0 0 0 0 0 0 0 0 0 0 0 .4 0"/><feOffset dx="4.0" dy="4.0" in="blurOut2" result="blurOut3"/><feBlend in="SourceGraphic" in2="blurOut3" mode="normal"/></filter></defs><g><rect fill="#FFFFFF" filter="url(#fdixekotpbyi4)" height="1257.0234" style="stroke:#A80036;stroke-width:1.0;" width="10" x="92.5" y="99.6094"/><rect fill="#FFFFFF" filter="url(#fdixekotpbyi4)" height="272.4609" style="stroke:#A80036;stroke-width:1.0;" width="10" x="624.5" y="121.9609"/><rect fill="#FFFFFF" filter="url(#fdixekotpbyi4)" height="30.3516" style="stroke:#A80036;stroke-width:1.0;" width="10" x="624.5" y="424.7734"/><rect fill="#FFFFFF" filter="url(#fdixekotpbyi4)" height="603.0469" style="stroke:#A80036;stroke-width:1.0;" width="10" x="624.5" y="485.4766"/><rect fill="#FFFFFF" filter="url(#fdixekotpbyi4)" height="237.7578" style="stroke:#A80036;stroke-width:1.0;" width="10" x="624.5" y="1118.875"/><rect fill="#FFFFFF" filter="url(#fdixekotpbyi4)" height="211.7578" style="stroke:#A80036;stroke-width:1.0;" width="10" x="807.5" y="152.3125"/><rect fill="#FFFFFF" filter="url(#fdixekotpbyi4)" height="516.9922" style="stroke:#A80036;stroke-width:1.0;" width="10" x="807.5" y="541.1797"/><rect fill="#FFFFFF" filter="url(#fdixekotpbyi4)" height="170.0547" style="stroke:#A80036;stroke-width:1.0;" width="10" x="807.5" y="1149.2266"/><rect fill="#FFFFFF" filter="url(#fdixekotpbyi4)" height="30" style="stroke:#A80036;stroke-width:1.0;" width="10" x="997.5" y="182.6641"/><rect fill="#FFFFFF" filter="url(#fdixekotpbyi4)" height="30" style="stroke:#A80036;stroke-width:1.0;" width="10" x="997.5" y="571.5313"/><rect fill="#FFFFFF" filter="url(#fdixekotpbyi4)" height="30.3516" style="stroke:#A80036;stroke-width:1.0;" width="10" x="1097.5" y="303.3672"/><rect fill="#FFFFFF" filter="url(#fdixekotpbyi4)" height="120.7031" style="stroke:#A80036;stroke-width:1.0;" width="10" x="1213" y="631.8828"/><rect fill="#FFFFFF" filter="url(#fdixekotpbyi4)" height="30" style="stroke:#A80036;stroke-width:1.0;" width="10" x="1356" y="662.2344"/><rect fill="#FFFFFF" filter="url(#fdixekotpbyi4)" height="30" style="stroke:#A80036;stroke-width:1.0;" width="10" x="1486.5" y="243.0156"/><rect fill="#FFFFFF" filter="url(#fdixekotpbyi4)" height="30" style="stroke:#A80036;stroke-width:1.0;" width="10" x="1486.5" y="722.5859"/><rect fill="#FFFFFF" filter="url(#fdixekotpbyi4)" height="214.8828" style="stroke:#A80036;stroke-width:1.0;" width="10" x="1700.5" y="782.9375"/><rect fill="#FFFFFF" filter="url(#fdixekotpbyi4)" height="30" style="stroke:#A80036;stroke-width:1.0;" width="10" x="1700.5" y="1028.1719"/><rect fill="#FFFFFF" filter="url(#fdixekotpbyi4)" height="139.7031" style="stroke:#A80036;stroke-width:1.0;" width="10" x="1700.5" y="1179.5781"/><rect fill="#FFFFFF" filter="url(#fdixekotpbyi4)" height="28" style="stroke:#A80036;stroke-width:1.0;" width="10" x="1705.5" y="1217.9297"/><rect fill="#FFFFFF" filter="url(#fdixekotpbyi4)" height="28" style="stroke:#A80036;stroke-width:1.0;" width="10" x="1705.5" y="1291.2813"/><rect fill="#FFFFFF" filter="url(#fdixekotpbyi4)" height="94.5703" style="stroke:#A80036;stroke-width:1.0;" width="10" x="1894.5" y="903.25"/><rect fill="#FFFFFF" filter="url(#fdixekotpbyi4)" height="174.5313" style="stroke:#A80036;stroke-width:1.0;" width="10" x="2065.5" y="823.2891"/><rect fill="#FFFFFF" filter="url(#fdixekotpbyi4)" height="864.1563" style="stroke:#000000;stroke-width:2.0;" width="2289.5" x="10" y="500.4766"/><line style="stroke:#A80036;stroke-width:1.0;stroke-dasharray:5.0,5.0;" x1="97" x2="97" y1="89.6094" y2="1381.6328"/><line style="stroke:#A80036;stroke-width:1.0;stroke-dasharray:5.0,5.0;" x1="629" x2="629" y1="89.6094" y2="1381.6328"/><line style="stroke:#A80036;stroke-width:1.0;stroke-dasharray:5.0,5.0;" x1="812" x2="812" y1="89.6094" y2="1381.6328"/><line style="stroke:#A80036;stroke-width:1.0;stroke-dasharray:5.0,5.0;" x1="1002.5" x2="1002.5" y1="89.6094" y2="1381.6328"/><line style="stroke:#A80036;stroke-width:1.0;stroke-dasharray:5.0,5.0;" x1="1102.5" x2="1102.5" y1="89.6094" y2="1381.6328"/><line style="stroke:#A80036;stroke-width:1.0;stroke-dasharray:5.0,5.0;" x1="1217.5" x2="1217.5" y1="89.6094" y2="1381.6328"/><line style="stroke:#A80036;stroke-width:1.0;stroke-dasharray:5.0,5.0;" x1="1360.5" x2="1360.5" y1="89.6094" y2="1381.6328"/><line style="stroke:#A80036;stroke-width:1.0;stroke-dasharray:5.0,5.0;" x1="1491.5" x2="1491.5" y1="89.6094" y2="1381.6328"/><line style="stroke:#A80036;stroke-width:1.0;stroke-dasharray:5.0,5.0;" x1="1605.5" x2="1605.5" y1="89.6094" y2="1381.6328"/><line style="stroke:#A80036;stroke-width:1.0;stroke-dasharray:5.0,5.0;" x1="1705.5" x2="1705.5" y1="89.6094" y2="1381.6328"/><line style="stroke:#A80036;stroke-width:1.0;stroke-dasharray:5.0,5.0;" x1="1899" x2="1899" y1="89.6094" y2="1381.6328"/><line style="stroke:#A80036;stroke-width:1.0;stroke-dasharray:5.0,5.0;" x1="2070" x2="2070" y1="824.2422" y2="1381.6328"/><line style="stroke:#A80036;stroke-width:1.0;stroke-dasharray:5.0,5.0;" x1="2226.5" x2="2226.5" y1="953.3594" y2="1381.6328"/><text fill="#000000" font-family="sans-serif" font-size="14" lengthAdjust="spacing" textLength="149" x="20" y="86.5332">Medical Lab Technician</text><ellipse cx="97.5" cy="15" fill="#FEFECE" filter="url(#fdixekotpbyi4)" rx="8" ry="8" style="stroke:#A80036;stroke-width:2.0;"/><path d="M97.5,23 L97.5,50 M84.5,31 L110.5,31 M97.5,50 L84.5,65 M97.5,50 L110.5,65 " fill="none" filter="url(#fdixekotpbyi4)" style="stroke:#A80036;stroke-width:2.0;"/><text fill="#000000" font-family="sans-serif" font-size="14" lengthAdjust="spacing" textLength="149" x="20" y="1395.166">Medical Lab Technician</text><ellipse cx="97.5" cy="1408.2422" fill="#FEFECE" filter="url(#fdixekotpbyi4)" rx="8" ry="8" style="stroke:#A80036;stroke-width:2.0;"/><path d="M97.5,1416.2422 L97.5,1443.2422 M84.5,1424.2422 L110.5,1424.2422 M97.5,1443.2422 L84.5,1458.2422 M97.5,1443.2422 L110.5,1458.2422 " fill="none" filter="url(#fdixekotpbyi4)" style="stroke:#A80036;stroke-width:2.0;"/><rect fill="#FEFECE" filter="url(#fdixekotpbyi4)" height="31.6094" style="stroke:#A80036;stroke-width:1.5;" width="123" x="566" y="53"/><text fill="#000000" font-family="sans-serif" font-size="14" lengthAdjust="spacing" textLength="109" x="573" y="74.5332">:RecordSampleUI</text><rect fill="#FEFECE" filter="url(#fdixekotpbyi4)" height="31.6094" style="stroke:#A80036;stroke-width:1.5;" width="123" x="566" y="1380.6328"/><text fill="#000000" font-family="sans-serif" font-size="14" lengthAdjust="spacing" textLength="109" x="573" y="1402.166">:RecordSampleUI</text><rect fill="#FEFECE" filter="url(#fdixekotpbyi4)" height="31.6094" style="stroke:#A80036;stroke-width:1.5;" width="173" x="724" y="53"/><text fill="#000000" font-family="sans-serif" font-size="14" lengthAdjust="spacing" textLength="159" x="731" y="74.5332">:RecordSampleController</text><rect fill="#FEFECE" filter="url(#fdixekotpbyi4)" height="31.6094" style="stroke:#A80036;stroke-width:1.5;" width="173" x="724" y="1380.6328"/><text fill="#000000" font-family="sans-serif" font-size="14" lengthAdjust="spacing" textLength="159" x="731" y="1402.166">:RecordSampleController</text><rect fill="#FEFECE" filter="url(#fdixekotpbyi4)" height="31.6094" style="stroke:#A80036;stroke-width:1.5;" width="78" x="961.5" y="53"/><text fill="#000000" font-family="sans-serif" font-size="14" lengthAdjust="spacing" textLength="64" x="968.5" y="74.5332">:Company</text><rect fill="#FEFECE" filter="url(#fdixekotpbyi4)" height="31.6094" style="stroke:#A80036;stroke-width:1.5;" width="78" x="961.5" y="1380.6328"/><text fill="#000000" font-family="sans-serif" font-size="14" lengthAdjust="spacing" textLength="64" x="968.5" y="1402.166">:Company</text><rect fill="#FEFECE" filter="url(#fdixekotpbyi4)" height="31.6094" style="stroke:#A80036;stroke-width:1.5;" width="94" x="1053.5" y="53"/><text fill="#000000" font-family="sans-serif" font-size="14" lengthAdjust="spacing" textLength="80" x="1060.5" y="74.5332">:TestMapper</text><rect fill="#FEFECE" filter="url(#fdixekotpbyi4)" height="31.6094" style="stroke:#A80036;stroke-width:1.5;" width="94" x="1053.5" y="1380.6328"/><text fill="#000000" font-family="sans-serif" font-size="14" lengthAdjust="spacing" textLength="80" x="1060.5" y="1402.166">:TestMapper</text><rect fill="#FEFECE" filter="url(#fdixekotpbyi4)" height="31.6094" style="stroke:#A80036;stroke-width:1.5;" width="109" x="1161.5" y="53"/><text fill="#000000" font-family="sans-serif" font-size="14" lengthAdjust="spacing" textLength="95" x="1168.5" y="74.5332">SampleMapper</text><rect fill="#FEFECE" filter="url(#fdixekotpbyi4)" height="31.6094" style="stroke:#A80036;stroke-width:1.5;" width="109" x="1161.5" y="1380.6328"/><text fill="#000000" font-family="sans-serif" font-size="14" lengthAdjust="spacing" textLength="95" x="1168.5" y="1402.166">SampleMapper</text><rect fill="#FEFECE" filter="url(#fdixekotpbyi4)" height="31.6094" style="stroke:#A80036;stroke-width:1.5;" width="149" x="1284.5" y="53"/><text fill="#000000" font-family="sans-serif" font-size="14" lengthAdjust="spacing" textLength="135" x="1291.5" y="74.5332">SampDto: SampleDto</text><rect fill="#FEFECE" filter="url(#fdixekotpbyi4)" height="31.6094" style="stroke:#A80036;stroke-width:1.5;" width="149" x="1284.5" y="1380.6328"/><text fill="#000000" font-family="sans-serif" font-size="14" lengthAdjust="spacing" textLength="135" x="1291.5" y="1402.166">SampDto: SampleDto</text><rect fill="#FEFECE" filter="url(#fdixekotpbyi4)" height="49.2188" style="stroke:#A80036;stroke-width:1.5;" width="84" x="1447.5" y="35.3906"/><text fill="#000000" font-family="sans-serif" font-size="14" lengthAdjust="spacing" textLength="38" x="1468.5" y="56.9238">tStore</text><text fill="#000000" font-family="sans-serif" font-size="14" lengthAdjust="spacing" textLength="66" x="1458.5" y="74.5332">:TestStore</text><rect fill="#FEFECE" filter="url(#fdixekotpbyi4)" height="49.2188" style="stroke:#A80036;stroke-width:1.5;" width="84" x="1447.5" y="1380.6328"/><text fill="#000000" font-family="sans-serif" font-size="14" lengthAdjust="spacing" textLength="38" x="1468.5" y="1402.166">tStore</text><text fill="#000000" font-family="sans-serif" font-size="14" lengthAdjust="spacing" textLength="66" x="1458.5" y="1419.7754">:TestStore</text><rect fill="#FEFECE" filter="url(#fdixekotpbyi4)" height="49.2188" style="stroke:#A80036;stroke-width:1.5;" width="117" x="1545.5" y="35.3906"/><text fill="#000000" font-family="sans-serif" font-size="14" lengthAdjust="spacing" textLength="32" x="1586" y="56.9238">store</text><text fill="#000000" font-family="sans-serif" font-size="14" lengthAdjust="spacing" textLength="99" x="1556.5" y="74.5332">:LabOrderStore</text><rect fill="#FEFECE" filter="url(#fdixekotpbyi4)" height="49.2188" style="stroke:#A80036;stroke-width:1.5;" width="117" x="1545.5" y="1380.6328"/><text fill="#000000" font-family="sans-serif" font-size="14" lengthAdjust="spacing" textLength="32" x="1586" y="1402.166">store</text><text fill="#000000" font-family="sans-serif" font-size="14" lengthAdjust="spacing" textLength="99" x="1556.5" y="1419.7754">:LabOrderStore</text><rect fill="#FEFECE" filter="url(#fdixekotpbyi4)" height="49.2188" style="stroke:#A80036;stroke-width:1.5;" width="54" x="1676.5" y="35.3906"/><text fill="#000000" font-family="sans-serif" font-size="14" lengthAdjust="spacing" textLength="23" x="1692" y="56.9238">test</text><text fill="#000000" font-family="sans-serif" font-size="14" lengthAdjust="spacing" textLength="36" x="1687.5" y="74.5332">: Test</text><rect fill="#FEFECE" filter="url(#fdixekotpbyi4)" height="49.2188" style="stroke:#A80036;stroke-width:1.5;" width="54" x="1676.5" y="1380.6328"/><text fill="#000000" font-family="sans-serif" font-size="14" lengthAdjust="spacing" textLength="23" x="1692" y="1402.166">test</text><text fill="#000000" font-family="sans-serif" font-size="14" lengthAdjust="spacing" textLength="36" x="1687.5" y="1419.7754">: Test</text><rect fill="#FEFECE" filter="url(#fdixekotpbyi4)" height="49.2188" style="stroke:#A80036;stroke-width:1.5;" width="123" x="1836" y="35.3906"/><text fill="#000000" font-family="sans-serif" font-size="14" lengthAdjust="spacing" textLength="19" x="1888" y="56.9238">em</text><text fill="#000000" font-family="sans-serif" font-size="14" lengthAdjust="spacing" textLength="105" x="1847" y="74.5332">: ExternalModule</text><rect fill="#FEFECE" filter="url(#fdixekotpbyi4)" height="49.2188" style="stroke:#A80036;stroke-width:1.5;" width="123" x="1836" y="1380.6328"/><text fill="#000000" font-family="sans-serif" font-size="14" lengthAdjust="spacing" textLength="19" x="1888" y="1402.166">em</text><text fill="#000000" font-family="sans-serif" font-size="14" lengthAdjust="spacing" textLength="105" x="1847" y="1419.7754">: ExternalModule</text><rect fill="#FEFECE" filter="url(#fdixekotpbyi4)" height="31.6094" style="stroke:#A80036;stroke-width:1.5;" width="103" x="2017" y="1380.6328"/><text fill="#000000" font-family="sans-serif" font-size="14" lengthAdjust="spacing" textLength="89" x="2024" y="1402.166">samp: Sample</text><rect fill="#FEFECE" filter="url(#fdixekotpbyi4)" height="49.2188" style="stroke:#A80036;stroke-width:1.5;" width="122" x="2163.5" y="1380.6328"/><text fill="#000000" font-family="sans-serif" font-size="14" lengthAdjust="spacing" textLength="52" x="2198.5" y="1402.166">barcode</text><text fill="#000000" font-family="sans-serif" font-size="14" lengthAdjust="spacing" textLength="104" x="2174.5" y="1419.7754">: BarcodeCreate</text><rect fill="#FFFFFF" filter="url(#fdixekotpbyi4)" height="1257.0234" style="stroke:#A80036;stroke-width:1.0;" width="10" x="92.5" y="99.6094"/><rect fill="#FFFFFF" filter="url(#fdixekotpbyi4)" height="272.4609" style="stroke:#A80036;stroke-width:1.0;" width="10" x="624.5" y="121.9609"/><rect fill="#FFFFFF" filter="url(#fdixekotpbyi4)" height="30.3516" style="stroke:#A80036;stroke-width:1.0;" width="10" x="624.5" y="424.7734"/><rect fill="#FFFFFF" filter="url(#fdixekotpbyi4)" height="603.0469" style="stroke:#A80036;stroke-width:1.0;" width="10" x="624.5" y="485.4766"/><rect fill="#FFFFFF" filter="url(#fdixekotpbyi4)" height="237.7578" style="stroke:#A80036;stroke-width:1.0;" width="10" x="624.5" y="1118.875"/><rect fill="#FFFFFF" filter="url(#fdixekotpbyi4)" height="211.7578" style="stroke:#A80036;stroke-width:1.0;" width="10" x="807.5" y="152.3125"/><rect fill="#FFFFFF" filter="url(#fdixekotpbyi4)" height="516.9922" style="stroke:#A80036;stroke-width:1.0;" width="10" x="807.5" y="541.1797"/><rect fill="#FFFFFF" filter="url(#fdixekotpbyi4)" height="170.0547" style="stroke:#A80036;stroke-width:1.0;" width="10" x="807.5" y="1149.2266"/><rect fill="#FFFFFF" filter="url(#fdixekotpbyi4)" height="30" style="stroke:#A80036;stroke-width:1.0;" width="10" x="997.5" y="182.6641"/><rect fill="#FFFFFF" filter="url(#fdixekotpbyi4)" height="30" style="stroke:#A80036;stroke-width:1.0;" width="10" x="997.5" y="571.5313"/><rect fill="#FFFFFF" filter="url(#fdixekotpbyi4)" height="30.3516" style="stroke:#A80036;stroke-width:1.0;" width="10" x="1097.5" y="303.3672"/><rect fill="#FFFFFF" filter="url(#fdixekotpbyi4)" height="120.7031" style="stroke:#A80036;stroke-width:1.0;" width="10" x="1213" y="631.8828"/><rect fill="#FFFFFF" filter="url(#fdixekotpbyi4)" height="30" style="stroke:#A80036;stroke-width:1.0;" width="10" x="1356" y="662.2344"/><rect fill="#FFFFFF" filter="url(#fdixekotpbyi4)" height="30" style="stroke:#A80036;stroke-width:1.0;" width="10" x="1486.5" y="243.0156"/><rect fill="#FFFFFF" filter="url(#fdixekotpbyi4)" height="30" style="stroke:#A80036;stroke-width:1.0;" width="10" x="1486.5" y="722.5859"/><rect fill="#FFFFFF" filter="url(#fdixekotpbyi4)" height="214.8828" style="stroke:#A80036;stroke-width:1.0;" width="10" x="1700.5" y="782.9375"/><rect fill="#FFFFFF" filter="url(#fdixekotpbyi4)" height="30" style="stroke:#A80036;stroke-width:1.0;" width="10" x="1700.5" y="1028.1719"/><rect fill="#FFFFFF" filter="url(#fdixekotpbyi4)" height="139.7031" style="stroke:#A80036;stroke-width:1.0;" width="10" x="1700.5" y="1179.5781"/><rect fill="#FFFFFF" filter="url(#fdixekotpbyi4)" height="28" style="stroke:#A80036;stroke-width:1.0;" width="10" x="1705.5" y="1217.9297"/><rect fill="#FFFFFF" filter="url(#fdixekotpbyi4)" height="28" style="stroke:#A80036;stroke-width:1.0;" width="10" x="1705.5" y="1291.2813"/><rect fill="#FFFFFF" filter="url(#fdixekotpbyi4)" height="94.5703" style="stroke:#A80036;stroke-width:1.0;" width="10" x="1894.5" y="903.25"/><rect fill="#FFFFFF" filter="url(#fdixekotpbyi4)" height="174.5313" style="stroke:#A80036;stroke-width:1.0;" width="10" x="2065.5" y="823.2891"/><polygon fill="#A80036" points="612.5,117.9609,622.5,121.9609,612.5,125.9609,616.5,121.9609" style="stroke:#A80036;stroke-width:1.0;"/><line style="stroke:#A80036;stroke-width:1.0;" x1="102.5" x2="618.5" y1="121.9609" y2="121.9609"/><text fill="#000000" font-family="sans-serif" font-size="13" font-weight="bold" lengthAdjust="spacing" textLength="7" x="109.5" y="117.1045">1</text><text fill="#000000" font-family="sans-serif" font-size="13" lengthAdjust="spacing" textLength="174" x="120.5" y="117.1045">starts recording a new sample</text><polygon fill="#A80036" points="795.5,148.3125,805.5,152.3125,795.5,156.3125,799.5,152.3125" style="stroke:#A80036;stroke-width:1.0;"/><line style="stroke:#A80036;stroke-width:1.0;" x1="634.5" x2="801.5" y1="152.3125" y2="152.3125"/><text fill="#000000" font-family="sans-serif" font-size="13" font-weight="bold" lengthAdjust="spacing" textLength="7" x="641.5" y="147.4561">2</text><text fill="#000000" font-family="sans-serif" font-size="13" lengthAdjust="spacing" textLength="109" x="652.5" y="147.4561">testDto = getTest()</text><polygon fill="#A80036" points="985.5,178.6641,995.5,182.6641,985.5,186.6641,989.5,182.6641" style="stroke:#A80036;stroke-width:1.0;"/><line style="stroke:#A80036;stroke-width:1.0;" x1="817.5" x2="991.5" y1="182.6641" y2="182.6641"/><text fill="#000000" font-family="sans-serif" font-size="13" font-weight="bold" lengthAdjust="spacing" textLength="7" x="824.5" y="177.8076">3</text><text fill="#000000" font-family="sans-serif" font-size="13" lengthAdjust="spacing" textLength="125" x="835.5" y="177.8076">tStore=getTestStore()</text><polygon fill="#A80036" points="1474.5,239.0156,1484.5,243.0156,1474.5,247.0156,1478.5,243.0156" style="stroke:#A80036;stroke-width:1.0;"/><line style="stroke:#A80036;stroke-width:1.0;" x1="817.5" x2="1480.5" y1="243.0156" y2="243.0156"/><text fill="#000000" font-family="sans-serif" font-size="13" font-weight="bold" lengthAdjust="spacing" textLength="7" x="824.5" y="238.1592">4</text><text fill="#000000" font-family="sans-serif" font-size="13" lengthAdjust="spacing" textLength="89" x="835.5" y="238.1592">test = getTest()</text><polygon fill="#A80036" points="1085.5,299.3672,1095.5,303.3672,1085.5,307.3672,1089.5,303.3672" style="stroke:#A80036;stroke-width:1.0;"/><line style="stroke:#A80036;stroke-width:1.0;" x1="817.5" x2="1091.5" y1="303.3672" y2="303.3672"/><text fill="#000000" font-family="sans-serif" font-size="13" font-weight="bold" lengthAdjust="spacing" textLength="7" x="824.5" y="298.5107">5</text><text fill="#000000" font-family="sans-serif" font-size="13" lengthAdjust="spacing" textLength="125" x="835.5" y="298.5107">testDto = toDTO(test)</text><polygon fill="#A80036" points="828.5,329.7188,818.5,333.7188,828.5,337.7188,824.5,333.7188" style="stroke:#A80036;stroke-width:1.0;"/><line style="stroke:#A80036;stroke-width:1.0;stroke-dasharray:2.0,2.0;" x1="822.5" x2="1101.5" y1="333.7188" y2="333.7188"/><text fill="#000000" font-family="sans-serif" font-size="13" font-weight="bold" lengthAdjust="spacing" textLength="7" x="834.5" y="328.8623">6</text><text fill="#000000" font-family="sans-serif" font-size="13" lengthAdjust="spacing" textLength="42" x="845.5" y="328.8623">testDto</text><polygon fill="#A80036" points="645.5,360.0703,635.5,364.0703,645.5,368.0703,641.5,364.0703" style="stroke:#A80036;stroke-width:1.0;"/><line style="stroke:#A80036;stroke-width:1.0;stroke-dasharray:2.0,2.0;" x1="639.5" x2="811.5" y1="364.0703" y2="364.0703"/><text fill="#000000" font-family="sans-serif" font-size="13" font-weight="bold" lengthAdjust="spacing" textLength="7" x="651.5" y="359.2139">7</text><text fill="#000000" font-family="sans-serif" font-size="13" lengthAdjust="spacing" textLength="42" x="662.5" y="359.2139">testDto</text><polygon fill="#A80036" points="113.5,390.4219,103.5,394.4219,113.5,398.4219,109.5,394.4219" style="stroke:#A80036;stroke-width:1.0;"/><line style="stroke:#A80036;stroke-width:1.0;stroke-dasharray:2.0,2.0;" x1="107.5" x2="628.5" y1="394.4219" y2="394.4219"/><text fill="#000000" font-family="sans-serif" font-size="13" font-weight="bold" lengthAdjust="spacing" textLength="7" x="119.5" y="389.5654">8</text><text fill="#000000" font-family="sans-serif" font-size="13" lengthAdjust="spacing" textLength="487" x="130.5" y="389.5654">shows the list of tests registered to be performed and requests to select one of them</text><polygon fill="#A80036" points="612.5,420.7734,622.5,424.7734,612.5,428.7734,616.5,424.7734" style="stroke:#A80036;stroke-width:1.0;"/><line style="stroke:#A80036;stroke-width:1.0;" x1="102.5" x2="618.5" y1="424.7734" y2="424.7734"/><text fill="#000000" font-family="sans-serif" font-size="13" font-weight="bold" lengthAdjust="spacing" textLength="7" x="109.5" y="419.917">9</text><text fill="#000000" font-family="sans-serif" font-size="13" lengthAdjust="spacing" textLength="227" x="120.5" y="419.917">select a test registered to be performed</text><polygon fill="#A80036" points="113.5,451.125,103.5,455.125,113.5,459.125,109.5,455.125" style="stroke:#A80036;stroke-width:1.0;"/><line style="stroke:#A80036;stroke-width:1.0;stroke-dasharray:2.0,2.0;" x1="107.5" x2="628.5" y1="455.125" y2="455.125"/><text fill="#000000" font-family="sans-serif" font-size="13" font-weight="bold" lengthAdjust="spacing" textLength="14" x="119.5" y="450.2686">10</text><text fill="#000000" font-family="sans-serif" font-size="13" lengthAdjust="spacing" textLength="245" x="137.5" y="450.2686">request how many samples want to record</text><polygon fill="#A80036" points="612.5,481.4766,622.5,485.4766,612.5,489.4766,616.5,485.4766" style="stroke:#A80036;stroke-width:1.0;"/><line style="stroke:#A80036;stroke-width:1.0;" x1="102.5" x2="618.5" y1="485.4766" y2="485.4766"/><text fill="#000000" font-family="sans-serif" font-size="13" font-weight="bold" lengthAdjust="spacing" textLength="14" x="109.5" y="480.6201">11</text><text fill="#000000" font-family="sans-serif" font-size="13" lengthAdjust="spacing" textLength="137" x="127.5" y="480.6201">type the requested data</text><path d="M10,500.4766 L83,500.4766 L83,508.4766 L73,518.4766 L10,518.4766 L10,500.4766 " fill="#EEEEEE" style="stroke:#000000;stroke-width:1.0;"/><rect fill="none" height="864.1563" style="stroke:#000000;stroke-width:2.0;" width="2289.5" x="10" y="500.4766"/><text fill="#000000" font-family="sans-serif" font-size="13" font-weight="bold" lengthAdjust="spacing" textLength="28" x="25" y="514.9717">loop</text><polygon fill="#A80036" points="795.5,537.1797,805.5,541.1797,795.5,545.1797,799.5,541.1797" style="stroke:#A80036;stroke-width:1.0;"/><line style="stroke:#A80036;stroke-width:1.0;" x1="634.5" x2="801.5" y1="541.1797" y2="541.1797"/><text fill="#000000" font-family="sans-serif" font-size="13" font-weight="bold" lengthAdjust="spacing" textLength="14" x="641.5" y="536.3232">12</text><text fill="#000000" font-family="sans-serif" font-size="13" lengthAdjust="spacing" textLength="136" x="659.5" y="536.3232">RecordNewSample(dto)</text><polygon fill="#A80036" points="985.5,567.5313,995.5,571.5313,985.5,575.5313,989.5,571.5313" style="stroke:#A80036;stroke-width:1.0;"/><line style="stroke:#A80036;stroke-width:1.0;" x1="817.5" x2="991.5" y1="571.5313" y2="571.5313"/><text fill="#000000" font-family="sans-serif" font-size="13" font-weight="bold" lengthAdjust="spacing" textLength="14" x="824.5" y="566.6748">13</text><text fill="#000000" font-family="sans-serif" font-size="13" lengthAdjust="spacing" textLength="143" x="842.5" y="566.6748">testStore=getTestStore()</text><polygon fill="#A80036" points="1201,627.8828,1211,631.8828,1201,635.8828,1205,631.8828" style="stroke:#A80036;stroke-width:1.0;"/><line style="stroke:#A80036;stroke-width:1.0;" x1="817.5" x2="1207" y1="631.8828" y2="631.8828"/><text fill="#000000" font-family="sans-serif" font-size="13" font-weight="bold" lengthAdjust="spacing" textLength="14" x="824.5" y="627.0264">14</text><text fill="#000000" font-family="sans-serif" font-size="13" lengthAdjust="spacing" textLength="102" x="842.5" y="627.0264">test=toModel(dto)</text><polygon fill="#A80036" points="1344,658.2344,1354,662.2344,1344,666.2344,1348,662.2344" style="stroke:#A80036;stroke-width:1.0;"/><line style="stroke:#A80036;stroke-width:1.0;" x1="1223" x2="1350" y1="662.2344" y2="662.2344"/><text fill="#000000" font-family="sans-serif" font-size="13" font-weight="bold" lengthAdjust="spacing" textLength="14" x="1230" y="657.3779">15</text><text fill="#000000" font-family="sans-serif" font-size="13" lengthAdjust="spacing" textLength="92" x="1248" y="657.3779">code=getCode()</text><polygon fill="#A80036" points="1474.5,718.5859,1484.5,722.5859,1474.5,726.5859,1478.5,722.5859" style="stroke:#A80036;stroke-width:1.0;"/><line style="stroke:#A80036;stroke-width:1.0;" x1="1223" x2="1480.5" y1="722.5859" y2="722.5859"/><text fill="#000000" font-family="sans-serif" font-size="13" font-weight="bold" lengthAdjust="spacing" textLength="14" x="1230" y="717.7295">16</text><text fill="#000000" font-family="sans-serif" font-size="13" lengthAdjust="spacing" textLength="123" x="1248" y="717.7295">getTestbyCode(code)</text><polygon fill="#A80036" points="1688.5,778.9375,1698.5,782.9375,1688.5,786.9375,1692.5,782.9375" style="stroke:#A80036;stroke-width:1.0;"/><line style="stroke:#A80036;stroke-width:1.0;" x1="817.5" x2="1694.5" y1="782.9375" y2="782.9375"/><text fill="#000000" font-family="sans-serif" font-size="13" font-weight="bold" lengthAdjust="spacing" textLength="14" x="824.5" y="778.0811">17</text><text fill="#000000" font-family="sans-serif" font-size="13" lengthAdjust="spacing" textLength="158" x="842.5" y="778.0811">samp=RecordNewSample()</text><polygon fill="#A80036" points="2005,809.2891,2015,813.2891,2005,817.2891,2009,813.2891" style="stroke:#A80036;stroke-width:1.0;"/><line style="stroke:#A80036;stroke-width:1.0;" x1="1710.5" x2="2011" y1="813.2891" y2="813.2891"/><text fill="#000000" font-family="sans-serif" font-size="13" font-weight="bold" lengthAdjust="spacing" textLength="14" x="1717.5" y="808.4326">18</text><text fill="#000000" font-family="sans-serif" font-size="13" lengthAdjust="spacing" textLength="44" x="1735.5" y="808.4326">create()</text><rect fill="#FEFECE" filter="url(#fdixekotpbyi4)" height="31.6094" style="stroke:#A80036;stroke-width:1.5;" width="103" x="2017" y="790.9375"/><text fill="#000000" font-family="sans-serif" font-size="14" lengthAdjust="spacing" textLength="89" x="2024" y="812.4707">samp: Sample</text><line style="stroke:#A80036;stroke-width:1.0;" x1="2075.5" x2="2117.5" y1="859.8984" y2="859.8984"/><line style="stroke:#A80036;stroke-width:1.0;" x1="2117.5" x2="2117.5" y1="859.8984" y2="872.8984"/><line style="stroke:#A80036;stroke-width:1.0;" x1="2076.5" x2="2117.5" y1="872.8984" y2="872.8984"/><polygon fill="#A80036" points="2086.5,868.8984,2076.5,872.8984,2086.5,876.8984,2082.5,872.8984" style="stroke:#A80036;stroke-width:1.0;"/><text fill="#000000" font-family="sans-serif" font-size="13" font-weight="bold" lengthAdjust="spacing" textLength="14" x="2082.5" y="855.042">19</text><text fill="#000000" font-family="sans-serif" font-size="13" lengthAdjust="spacing" textLength="114" x="2100.5" y="855.042">getBarcodecreator()</text><polygon fill="#A80036" points="1915.5,899.25,1905.5,903.25,1915.5,907.25,1911.5,903.25" style="stroke:#A80036;stroke-width:1.0;"/><line style="stroke:#A80036;stroke-width:1.0;" x1="1909.5" x2="2064.5" y1="903.25" y2="903.25"/><text fill="#000000" font-family="sans-serif" font-size="13" font-weight="bold" lengthAdjust="spacing" textLength="14" x="1921.5" y="898.3936">20</text><text fill="#000000" font-family="sans-serif" font-size="13" lengthAdjust="spacing" textLength="124" x="1939.5" y="898.3936">makeUPCABarcode()</text><polygon fill="#A80036" points="2151.5,929.6016,2161.5,933.6016,2151.5,937.6016,2155.5,933.6016" style="stroke:#A80036;stroke-width:1.0;"/><line style="stroke:#A80036;stroke-width:1.0;" x1="1904.5" x2="2157.5" y1="933.6016" y2="933.6016"/><text fill="#000000" font-family="sans-serif" font-size="13" font-weight="bold" lengthAdjust="spacing" textLength="14" x="1911.5" y="928.7451">21</text><text fill="#000000" font-family="sans-serif" font-size="13" lengthAdjust="spacing" textLength="56" x="1929.5" y="928.7451">create(...)</text><rect fill="#FEFECE" filter="url(#fdixekotpbyi4)" height="49.2188" style="stroke:#A80036;stroke-width:1.5;" width="122" x="2163.5" y="911.25"/><text fill="#000000" font-family="sans-serif" font-size="14" lengthAdjust="spacing" textLength="52" x="2198.5" y="932.7832">barcode</text><text fill="#000000" font-family="sans-serif" font-size="14" lengthAdjust="spacing" textLength="104" x="2174.5" y="950.3926">: BarcodeCreate</text><polygon fill="#A80036" points="2058.5,993.8203,2068.5,997.8203,2058.5,1001.8203,2062.5,997.8203" style="stroke:#A80036;stroke-width:1.0;"/><line style="stroke:#A80036;stroke-width:1.0;stroke-dasharray:2.0,2.0;" x1="1899.5" x2="2064.5" y1="997.8203" y2="997.8203"/><text fill="#000000" font-family="sans-serif" font-size="13" font-weight="bold" lengthAdjust="spacing" textLength="14" x="1906.5" y="992.9639">22</text><text fill="#000000" font-family="sans-serif" font-size="13" lengthAdjust="spacing" textLength="46" x="1924.5" y="992.9639">barcode</text><polygon fill="#A80036" points="1688.5,1024.1719,1698.5,1028.1719,1688.5,1032.1719,1692.5,1028.1719" style="stroke:#A80036;stroke-width:1.0;"/><line style="stroke:#A80036;stroke-width:1.0;" x1="817.5" x2="1694.5" y1="1028.1719" y2="1028.1719"/><text fill="#000000" font-family="sans-serif" font-size="13" font-weight="bold" lengthAdjust="spacing" textLength="14" x="824.5" y="1023.3154">23</text><text fill="#000000" font-family="sans-serif" font-size="13" lengthAdjust="spacing" textLength="152" x="842.5" y="1023.3154">validateNewSample(samp)</text><polygon fill="#A80036" points="113.5,1084.5234,103.5,1088.5234,113.5,1092.5234,109.5,1088.5234" style="stroke:#A80036;stroke-width:1.0;"/><line style="stroke:#A80036;stroke-width:1.0;stroke-dasharray:2.0,2.0;" x1="107.5" x2="628.5" y1="1088.5234" y2="1088.5234"/><text fill="#000000" font-family="sans-serif" font-size="13" font-weight="bold" lengthAdjust="spacing" textLength="14" x="119.5" y="1083.667">24</text><text fill="#000000" font-family="sans-serif" font-size="13" lengthAdjust="spacing" textLength="252" x="137.5" y="1083.667">shows the data and requests a confirmation</text><polygon fill="#A80036" points="612.5,1114.875,622.5,1118.875,612.5,1122.875,616.5,1118.875" style="stroke:#A80036;stroke-width:1.0;"/><line style="stroke:#A80036;stroke-width:1.0;" x1="102.5" x2="618.5" y1="1118.875" y2="1118.875"/><text fill="#000000" font-family="sans-serif" font-size="13" font-weight="bold" lengthAdjust="spacing" textLength="14" x="109.5" y="1114.0186">25</text><text fill="#000000" font-family="sans-serif" font-size="13" lengthAdjust="spacing" textLength="100" x="127.5" y="1114.0186">confirms the data</text><polygon fill="#A80036" points="795.5,1145.2266,805.5,1149.2266,795.5,1153.2266,799.5,1149.2266" style="stroke:#A80036;stroke-width:1.0;"/><line style="stroke:#A80036;stroke-width:1.0;" x1="634.5" x2="801.5" y1="1149.2266" y2="1149.2266"/><text fill="#000000" font-family="sans-serif" font-size="13" font-weight="bold" lengthAdjust="spacing" textLength="14" x="641.5" y="1144.3701">26</text><text fill="#000000" font-family="sans-serif" font-size="13" lengthAdjust="spacing" textLength="103" x="659.5" y="1144.3701">saveNewSample()</text><polygon fill="#A80036" points="1688.5,1175.5781,1698.5,1179.5781,1688.5,1183.5781,1692.5,1179.5781" style="stroke:#A80036;stroke-width:1.0;"/><line style="stroke:#A80036;stroke-width:1.0;" x1="817.5" x2="1694.5" y1="1179.5781" y2="1179.5781"/><text fill="#000000" font-family="sans-serif" font-size="13" font-weight="bold" lengthAdjust="spacing" textLength="14" x="824.5" y="1174.7217">27</text><text fill="#000000" font-family="sans-serif" font-size="13" lengthAdjust="spacing" textLength="135" x="842.5" y="1174.7217">saveNewSample(samp)</text><line style="stroke:#A80036;stroke-width:1.0;" x1="1715.5" x2="1757.5" y1="1209.9297" y2="1209.9297"/><line style="stroke:#A80036;stroke-width:1.0;" x1="1757.5" x2="1757.5" y1="1209.9297" y2="1222.9297"/><line style="stroke:#A80036;stroke-width:1.0;" x1="1716.5" x2="1757.5" y1="1222.9297" y2="1222.9297"/><polygon fill="#A80036" points="1726.5,1218.9297,1716.5,1222.9297,1726.5,1226.9297,1722.5,1222.9297" style="stroke:#A80036;stroke-width:1.0;"/><text fill="#000000" font-family="sans-serif" font-size="13" font-weight="bold" lengthAdjust="spacing" textLength="14" x="1722.5" y="1205.0732">28</text><text fill="#000000" font-family="sans-serif" font-size="13" lengthAdjust="spacing" textLength="152" x="1740.5" y="1205.0732">validateNewSample(samp)</text><line style="stroke:#A80036;stroke-width:1.0;" x1="1715.5" x2="1757.5" y1="1283.2813" y2="1283.2813"/><line style="stroke:#A80036;stroke-width:1.0;" x1="1757.5" x2="1757.5" y1="1283.2813" y2="1296.2813"/><line style="stroke:#A80036;stroke-width:1.0;" x1="1716.5" x2="1757.5" y1="1296.2813" y2="1296.2813"/><polygon fill="#A80036" points="1726.5,1292.2813,1716.5,1296.2813,1726.5,1300.2813,1722.5,1296.2813" style="stroke:#A80036;stroke-width:1.0;"/><text fill="#000000" font-family="sans-serif" font-size="13" font-weight="bold" lengthAdjust="spacing" textLength="14" x="1722.5" y="1278.4248">29</text><text fill="#000000" font-family="sans-serif" font-size="13" lengthAdjust="spacing" textLength="105" x="1740.5" y="1278.4248">addSample(samp)</text><polygon fill="#A80036" points="108.5,1352.6328,98.5,1356.6328,108.5,1360.6328,104.5,1356.6328" style="stroke:#A80036;stroke-width:1.0;"/><line style="stroke:#A80036;stroke-width:1.0;stroke-dasharray:2.0,2.0;" x1="102.5" x2="628.5" y1="1356.6328" y2="1356.6328"/><text fill="#000000" font-family="sans-serif" font-size="13" font-weight="bold" lengthAdjust="spacing" textLength="14" x="114.5" y="1351.7764">30</text><text fill="#000000" font-family="sans-serif" font-size="13" lengthAdjust="spacing" textLength="152" x="132.5" y="1351.7764">informs operation success</text><!--MD5=[62580d63fae72de196a1b22832f21ce3]
@startuml
actor "Medical Lab Technician" as Adm
participant ":RecordSampleUI" as Interface
participant ":RecordSampleController" as Controller
participant ":Company" as Company
participant ":TestMapper" as TM
participant "SampleMapper" as SM
participant "SampDto: SampleDto" as SD
participant "tStore \n :TestStore" as SS
participant "store \n :LabOrderStore" as TS
participant "test\n : Test" as test
participant "em\n : ExternalModule" as em


 
 
autonumber
activate Adm
Adm -> Interface: starts recording a new sample
activate Interface
Interface -> Controller: testDto = getTest()
activate Controller
Controller -> Company : tStore=getTestStore()
activate Company
deactivate Company
Controller -> SS: test = getTest()
activate SS
deactivate SS
Controller -> TM: testDto = toDTO(test)
activate TM

TM- ->Controller : testDto
deactivate TM
Controller- ->Interface : testDto
deactivate Controller
Interface - -> Adm: shows the list of tests registered to be performed and requests to select one of them
deactivate Interface



Adm -> Interface: select a test registered to be performed
activate Interface
Interface- -> Adm: request how many samples want to record
deactivate Interface

Adm -> Interface : type the requested data
loop

activate Interface

Interface->Controller: RecordNewSample(dto)
activate Controller
Controller -> Company : testStore=getTestStore()
activate Company
Deactivate Company
Controller -> SM : test=toModel(dto)
activate SM
SM->SD : code=getCode()
activate SD
deactivate SD
SM->SS: getTestbyCode(code)
activate SS
deactivate SS
deactivate SS
deactivate SM
Controller->test: samp=RecordNewSample()
activate test

create "samp: Sample" as samp

test->samp:  create()
activate samp

samp -> samp : getBarcodecreator()

samp-> em : makeUPCABarcode()
activate em

create "barcode\n : BarcodeCreate" as BC

em->BC :create(...)

em- ->samp : barcode

deactivate em

deactivate samp


deactivate test

Controller->test:validateNewSample(samp)
Activate test
deactivate test

deactivate Controller


Interface- ->Adm : shows the data and requests a confirmation

deactivate Interface

Adm -> Interface: confirms the data
activate Interface
Interface->Controller: saveNewSample()
activate Controller
Controller->test:saveNewSample(samp)
activate test
test->test:validateNewSample(samp)
activate test
deactivate test
test->test:addSample(samp)
activate test
deactivate test

deactivate test
deactivate Controller
Interface- -> Adm: informs operation success

deactivate Interface
deactivate Adm
end
@enduml

PlantUML version 1.2021.00(Sun Jan 10 10:25:05 GMT 2021)
(GPL source distribution)
Java Runtime: OpenJDK Runtime Environment
JVM: OpenJDK 64-Bit Server VM
Default Encoding: Cp1252
Language: pt
Country: PT
--></g></svg>