<?xml version="1.0" encoding="UTF-8" standalone="no"?><svg xmlns="http://www.w3.org/2000/svg" xmlns:xlink="http://www.w3.org/1999/xlink" contentScriptType="application/ecmascript" contentStyleType="text/css" height="485px" preserveAspectRatio="none" style="width:628px;height:485px;" version="1.1" viewBox="0 0 628 485" width="628px" zoomAndPan="magnify"><defs><filter height="300%" id="f1e732vjdu8qtd" width="300%" x="-1" y="-1"><feGaussianBlur result="blurOut" stdDeviation="2.0"/><feColorMatrix in="blurOut" result="blurOut2" type="matrix" values="0 0 0 0 0 0 0 0 0 0 0 0 0 0 0 0 0 0 .4 0"/><feOffset dx="4.0" dy="4.0" in="blurOut2" result="blurOut3"/><feBlend in="SourceGraphic" in2="blurOut3" mode="normal"/></filter></defs><g><rect fill="#FFFFFF" filter="url(#f1e732vjdu8qtd)" height="285.3281" style="stroke:#A80036;stroke-width:1.0;" width="10" x="68" y="98.2969"/><rect fill="#FFFFFF" filter="url(#f1e732vjdu8qtd)" height="29.1328" style="stroke:#A80036;stroke-width:1.0;" width="10" x="561" y="119.4297"/><rect fill="#FFFFFF" filter="url(#f1e732vjdu8qtd)" height="97.3984" style="stroke:#A80036;stroke-width:1.0;" width="10" x="561" y="177.6953"/><rect fill="#FFFFFF" filter="url(#f1e732vjdu8qtd)" height="29.1328" style="stroke:#A80036;stroke-width:1.0;" width="10" x="561" y="296.2266"/><rect fill="#FFFFFF" filter="url(#f1e732vjdu8qtd)" height="29.1328" style="stroke:#A80036;stroke-width:1.0;" width="10" x="561" y="354.4922"/><rect fill="#FFFFFF" filter="url(#f1e732vjdu8qtd)" height="46.2656" style="stroke:#000000;stroke-width:2.0;" width="604.5" x="10" y="221.8281"/><line style="stroke:#A80036;stroke-width:1.0;stroke-dasharray:5.0,5.0;" x1="73" x2="73" y1="88.2969" y2="401.625"/><line style="stroke:#A80036;stroke-width:1.0;stroke-dasharray:5.0,5.0;" x1="565.5" x2="565.5" y1="88.2969" y2="401.625"/><text fill="#000000" font-family="sans-serif" font-size="14" lengthAdjust="spacing" textLength="100" x="20" y="84.9951">Administrator</text><ellipse cx="73" cy="15" fill="#FEFECE" filter="url(#f1e732vjdu8qtd)" rx="8" ry="8" style="stroke:#A80036;stroke-width:2.0;"/><path d="M73,23 L73,50 M60,31 L86,31 M73,50 L60,65 M73,50 L86,65 " fill="none" filter="url(#f1e732vjdu8qtd)" style="stroke:#A80036;stroke-width:2.0;"/><text fill="#000000" font-family="sans-serif" font-size="14" lengthAdjust="spacing" textLength="100" x="20" y="413.6201">Administrator</text><ellipse cx="73" cy="426.9219" fill="#FEFECE" filter="url(#f1e732vjdu8qtd)" rx="8" ry="8" style="stroke:#A80036;stroke-width:2.0;"/><path d="M73,434.9219 L73,461.9219 M60,442.9219 L86,442.9219 M73,461.9219 L60,476.9219 M73,461.9219 L86,476.9219 " fill="none" filter="url(#f1e732vjdu8qtd)" style="stroke:#A80036;stroke-width:2.0;"/><rect fill="#FEFECE" filter="url(#f1e732vjdu8qtd)" height="30.2969" style="stroke:#A80036;stroke-width:1.5;" width="73" x="527.5" y="53"/><text fill="#000000" font-family="sans-serif" font-size="14" lengthAdjust="spacing" textLength="59" x="534.5" y="72.9951">:System</text><rect fill="#FEFECE" filter="url(#f1e732vjdu8qtd)" height="30.2969" style="stroke:#A80036;stroke-width:1.5;" width="73" x="527.5" y="400.625"/><text fill="#000000" font-family="sans-serif" font-size="14" lengthAdjust="spacing" textLength="59" x="534.5" y="420.6201">:System</text><rect fill="#FFFFFF" filter="url(#f1e732vjdu8qtd)" height="285.3281" style="stroke:#A80036;stroke-width:1.0;" width="10" x="68" y="98.2969"/><rect fill="#FFFFFF" filter="url(#f1e732vjdu8qtd)" height="29.1328" style="stroke:#A80036;stroke-width:1.0;" width="10" x="561" y="119.4297"/><rect fill="#FFFFFF" filter="url(#f1e732vjdu8qtd)" height="97.3984" style="stroke:#A80036;stroke-width:1.0;" width="10" x="561" y="177.6953"/><rect fill="#FFFFFF" filter="url(#f1e732vjdu8qtd)" height="29.1328" style="stroke:#A80036;stroke-width:1.0;" width="10" x="561" y="296.2266"/><rect fill="#FFFFFF" filter="url(#f1e732vjdu8qtd)" height="29.1328" style="stroke:#A80036;stroke-width:1.0;" width="10" x="561" y="354.4922"/><polygon fill="#A80036" points="549,115.4297,559,119.4297,549,123.4297,553,119.4297" style="stroke:#A80036;stroke-width:1.0;"/><line style="stroke:#A80036;stroke-width:1.0;" x1="78" x2="555" y1="119.4297" y2="119.4297"/><text fill="#000000" font-family="sans-serif" font-size="13" font-weight="bold" lengthAdjust="spacing" textLength="9" x="85" y="114.3638">1</text><text fill="#000000" font-family="sans-serif" font-size="13" lengthAdjust="spacing" textLength="136" x="98" y="114.3638">starts new employee</text><polygon fill="#A80036" points="89,144.5625,79,148.5625,89,152.5625,85,148.5625" style="stroke:#A80036;stroke-width:1.0;"/><line style="stroke:#A80036;stroke-width:1.0;stroke-dasharray:2.0,2.0;" x1="83" x2="565" y1="148.5625" y2="148.5625"/><text fill="#000000" font-family="sans-serif" font-size="13" font-weight="bold" lengthAdjust="spacing" textLength="9" x="95" y="143.4966">2</text><text fill="#000000" font-family="sans-serif" font-size="13" lengthAdjust="spacing" textLength="446" x="108" y="143.4966">shows the list of organization roles and request to select one of them</text><polygon fill="#A80036" points="549,173.6953,559,177.6953,549,181.6953,553,177.6953" style="stroke:#A80036;stroke-width:1.0;"/><line style="stroke:#A80036;stroke-width:1.0;" x1="78" x2="555" y1="177.6953" y2="177.6953"/><text fill="#000000" font-family="sans-serif" font-size="13" font-weight="bold" lengthAdjust="spacing" textLength="8" x="85" y="172.6294">3</text><text fill="#000000" font-family="sans-serif" font-size="13" lengthAdjust="spacing" textLength="169" x="97" y="172.6294">select an organization role</text><polygon fill="#A80036" points="89,202.8281,79,206.8281,89,210.8281,85,206.8281" style="stroke:#A80036;stroke-width:1.0;"/><line style="stroke:#A80036;stroke-width:1.0;stroke-dasharray:2.0,2.0;" x1="83" x2="560" y1="206.8281" y2="206.8281"/><text fill="#000000" font-family="sans-serif" font-size="13" font-weight="bold" lengthAdjust="spacing" textLength="9" x="95" y="201.7622">4</text><text fill="#000000" font-family="sans-serif" font-size="13" lengthAdjust="spacing" textLength="395" x="108" y="201.7622">request data(name, adress, phone number, e-mail, soc code)</text><path d="M10,221.8281 L82,221.8281 L82,228.8281 L72,238.8281 L10,238.8281 L10,221.8281 " fill="#EEEEEE" style="stroke:#000000;stroke-width:1.0;"/><rect fill="none" height="46.2656" style="stroke:#000000;stroke-width:2.0;" width="604.5" x="10" y="221.8281"/><text fill="#000000" font-family="sans-serif" font-size="13" font-weight="bold" lengthAdjust="spacing" textLength="27" x="25" y="234.895">opt</text><text fill="#000000" font-family="sans-serif" font-size="11" font-weight="bold" lengthAdjust="spacing" textLength="170" x="97" y="234.0386">[role = Specialist Doctor]</text><polygon fill="#A80036" points="89,256.0938,79,260.0938,89,264.0938,85,260.0938" style="stroke:#A80036;stroke-width:1.0;"/><line style="stroke:#A80036;stroke-width:1.0;stroke-dasharray:2.0,2.0;" x1="83" x2="560" y1="260.0938" y2="260.0938"/><text fill="#000000" font-family="sans-serif" font-size="13" font-weight="bold" lengthAdjust="spacing" textLength="9" x="95" y="255.0278">5</text><text fill="#000000" font-family="sans-serif" font-size="13" lengthAdjust="spacing" textLength="219" x="108" y="255.0278">request data(doctorIndexNumber)</text><polygon fill="#A80036" points="549,292.2266,559,296.2266,549,300.2266,553,296.2266" style="stroke:#A80036;stroke-width:1.0;"/><line style="stroke:#A80036;stroke-width:1.0;" x1="78" x2="555" y1="296.2266" y2="296.2266"/><text fill="#000000" font-family="sans-serif" font-size="13" font-weight="bold" lengthAdjust="spacing" textLength="9" x="85" y="291.1606">6</text><text fill="#000000" font-family="sans-serif" font-size="13" lengthAdjust="spacing" textLength="138" x="98" y="291.1606">types requested data</text><polygon fill="#A80036" points="89,321.3594,79,325.3594,89,329.3594,85,325.3594" style="stroke:#A80036;stroke-width:1.0;"/><line style="stroke:#A80036;stroke-width:1.0;stroke-dasharray:2.0,2.0;" x1="83" x2="565" y1="325.3594" y2="325.3594"/><text fill="#000000" font-family="sans-serif" font-size="13" font-weight="bold" lengthAdjust="spacing" textLength="9" x="95" y="320.2935">7</text><text fill="#000000" font-family="sans-serif" font-size="13" lengthAdjust="spacing" textLength="277" x="108" y="320.2935">shows the data and request a confirmation</text><polygon fill="#A80036" points="549,350.4922,559,354.4922,549,358.4922,553,354.4922" style="stroke:#A80036;stroke-width:1.0;"/><line style="stroke:#A80036;stroke-width:1.0;" x1="78" x2="555" y1="354.4922" y2="354.4922"/><text fill="#000000" font-family="sans-serif" font-size="13" font-weight="bold" lengthAdjust="spacing" textLength="9" x="85" y="349.4263">8</text><text fill="#000000" font-family="sans-serif" font-size="13" lengthAdjust="spacing" textLength="114" x="98" y="349.4263">confirms the data</text><polygon fill="#A80036" points="84,379.625,74,383.625,84,387.625,80,383.625" style="stroke:#A80036;stroke-width:1.0;"/><line style="stroke:#A80036;stroke-width:1.0;stroke-dasharray:2.0,2.0;" x1="78" x2="565" y1="383.625" y2="383.625"/><text fill="#000000" font-family="sans-serif" font-size="13" font-weight="bold" lengthAdjust="spacing" textLength="9" x="90" y="378.5591">9</text><text fill="#000000" font-family="sans-serif" font-size="13" lengthAdjust="spacing" textLength="169" x="103" y="378.5591">informs operation success</text><!--MD5=[0008f7e18196a1380abdb3ec298c0e17]
@startuml
actor Administrator as Adm
participant ":System" as System

autonumber
activate Adm
Adm -> System: starts new employee
activate System
System - -> Adm: shows the list of organization roles and request to select one of them
deactivate System
Adm -> System: select an organization role
activate System
System - -> Adm: request data(name, adress, phone number, e-mail, soc code)
opt role = Specialist Doctor
    System - -> Adm: request data(doctorIndexNumber)
end
deactivate System
Adm -> System: types requested data
activate System
System - -> Adm: shows the data and request a confirmation
deactivate System
Adm -> System: confirms the data
activate System
System - -> Adm: informs operation success
deactivate System
deactivate Adm
@enduml

PlantUML version 1.2021.5(Sun Apr 25 11:20:28 UTC 2021)
(GPL source distribution)
Java Runtime: Java(TM) SE Runtime Environment
JVM: Java HotSpot(TM) 64-Bit Server VM
Default Encoding: UTF-8
Language: en
Country: US
--></g></svg>