<?xml version="1.0" encoding="UTF-8" standalone="no"?><svg xmlns="http://www.w3.org/2000/svg" xmlns:xlink="http://www.w3.org/1999/xlink" contentScriptType="application/ecmascript" contentStyleType="text/css" height="1700px" preserveAspectRatio="none" style="width:2802px;height:1700px;background:#FFFFFF;" version="1.1" viewBox="0 0 2802 1700" width="2802px" zoomAndPan="magnify"><defs><filter height="300%" id="f1sq2vroxpnjyl" width="300%" x="-1" y="-1"><feGaussianBlur result="blurOut" stdDeviation="2.0"/><feColorMatrix in="blurOut" result="blurOut2" type="matrix" values="0 0 0 0 0 0 0 0 0 0 0 0 0 0 0 0 0 0 .4 0"/><feOffset dx="4.0" dy="4.0" in="blurOut2" result="blurOut3"/><feBlend in="SourceGraphic" in2="blurOut3" mode="normal"/></filter></defs><g><rect fill="#FFFFFF" filter="url(#f1sq2vroxpnjyl)" height="1499.9766" style="stroke:#A80036;stroke-width:1.0;" width="10" x="68" y="98.2969"/><rect fill="#FFFFFF" filter="url(#f1sq2vroxpnjyl)" height="176.5313" style="stroke:#A80036;stroke-width:1.0;" width="10" x="564" y="119.4297"/><rect fill="#FFFFFF" filter="url(#f1sq2vroxpnjyl)" height="97.3984" style="stroke:#A80036;stroke-width:1.0;" width="10" x="564" y="325.0938"/><rect fill="#FFFFFF" filter="url(#f1sq2vroxpnjyl)" height="893.8516" style="stroke:#A80036;stroke-width:1.0;" width="10" x="564" y="443.625"/><rect fill="#FFFFFF" filter="url(#f1sq2vroxpnjyl)" height="231.6641" style="stroke:#A80036;stroke-width:1.0;" width="10" x="564" y="1366.6094"/><rect fill="#FFFFFF" filter="url(#f1sq2vroxpnjyl)" height="118.2656" style="stroke:#A80036;stroke-width:1.0;" width="10" x="783" y="148.5625"/><rect fill="#FFFFFF" filter="url(#f1sq2vroxpnjyl)" height="835.5859" style="stroke:#A80036;stroke-width:1.0;" width="10" x="783" y="472.7578"/><rect fill="#FFFFFF" filter="url(#f1sq2vroxpnjyl)" height="166.3984" style="stroke:#A80036;stroke-width:1.0;" width="10" x="783" y="1395.7422"/><rect fill="#FFFFFF" filter="url(#f1sq2vroxpnjyl)" height="30" style="stroke:#A80036;stroke-width:1.0;" width="10" x="1059.5" y="236.8281"/><rect fill="#FFFFFF" filter="url(#f1sq2vroxpnjyl)" height="755.3203" style="stroke:#A80036;stroke-width:1.0;" width="10" x="1197.5" y="501.8906"/><rect fill="#FFFFFF" filter="url(#f1sq2vroxpnjyl)" height="30" style="stroke:#A80036;stroke-width:1.0;" width="10" x="1197.5" y="1278.3438"/><rect fill="#FFFFFF" filter="url(#f1sq2vroxpnjyl)" height="137.2656" style="stroke:#A80036;stroke-width:1.0;" width="10" x="1197.5" y="1424.875"/><rect fill="#FFFFFF" filter="url(#f1sq2vroxpnjyl)" height="28" style="stroke:#A80036;stroke-width:1.0;" width="10" x="1202.5" y="1462.0078"/><rect fill="#FFFFFF" filter="url(#f1sq2vroxpnjyl)" height="28" style="stroke:#A80036;stroke-width:1.0;" width="10" x="1202.5" y="1534.1406"/><rect fill="#FFFFFF" filter="url(#f1sq2vroxpnjyl)" height="30" style="stroke:#A80036;stroke-width:1.0;" width="10" x="1553.5" y="531.0234"/><rect fill="#FFFFFF" filter="url(#f1sq2vroxpnjyl)" height="30" style="stroke:#A80036;stroke-width:1.0;" width="10" x="1553.5" y="649.2891"/><rect fill="#FFFFFF" filter="url(#f1sq2vroxpnjyl)" height="30" style="stroke:#A80036;stroke-width:1.0;" width="10" x="1553.5" y="708.4219"/><rect fill="#FFFFFF" filter="url(#f1sq2vroxpnjyl)" height="30" style="stroke:#A80036;stroke-width:1.0;" width="10" x="1553.5" y="767.5547"/><rect fill="#FFFFFF" filter="url(#f1sq2vroxpnjyl)" height="30" style="stroke:#A80036;stroke-width:1.0;" width="10" x="1553.5" y="826.6875"/><rect fill="#FFFFFF" filter="url(#f1sq2vroxpnjyl)" height="30" style="stroke:#A80036;stroke-width:1.0;" width="10" x="1553.5" y="885.8203"/><rect fill="#FFFFFF" filter="url(#f1sq2vroxpnjyl)" height="30" style="stroke:#A80036;stroke-width:1.0;" width="10" x="1553.5" y="944.9531"/><rect fill="#FFFFFF" filter="url(#f1sq2vroxpnjyl)" height="30" style="stroke:#A80036;stroke-width:1.0;" width="10" x="1553.5" y="1059.3516"/><rect fill="#FFFFFF" filter="url(#f1sq2vroxpnjyl)" height="30" style="stroke:#A80036;stroke-width:1.0;" width="10" x="1709.5" y="177.6953"/><rect fill="#FFFFFF" filter="url(#f1sq2vroxpnjyl)" height="30" style="stroke:#A80036;stroke-width:1.0;" width="10" x="1709.5" y="590.1563"/><rect fill="#FFFFFF" filter="url(#f1sq2vroxpnjyl)" height="228.9922" style="stroke:#A80036;stroke-width:1.0;" width="10" x="1954.5" y="1028.2188"/><rect fill="#FFFFFF" filter="url(#f1sq2vroxpnjyl)" height="46.2656" style="stroke:#000000;stroke-width:2.0;" width="646" x="10" y="369.2266"/><rect fill="#FFFFFF" filter="url(#f1sq2vroxpnjyl)" height="136.5313" style="stroke:#000000;stroke-width:2.0;" width="901" x="1123" y="989.9531"/><rect fill="#FFFFFF" height="90.2656" style="stroke:none;stroke-width:1.0;" width="901" x="1123" y="1036.2188"/><rect fill="#FFFFFF" filter="url(#f1sq2vroxpnjyl)" height="109.7266" style="stroke:#000000;stroke-width:2.0;" width="893.5" x="1895" y="1140.4844"/><rect fill="#FFFFFF" height="47.2969" style="stroke:none;stroke-width:1.0;" width="893.5" x="1895" y="1202.9141"/><line style="stroke:#A80036;stroke-width:1.0;stroke-dasharray:5.0,5.0;" x1="73" x2="73" y1="88.2969" y2="1616.2734"/><line style="stroke:#A80036;stroke-width:1.0;stroke-dasharray:5.0,5.0;" x1="569" x2="569" y1="88.2969" y2="1616.2734"/><line style="stroke:#A80036;stroke-width:1.0;stroke-dasharray:5.0,5.0;" x1="788" x2="788" y1="88.2969" y2="1616.2734"/><line style="stroke:#A80036;stroke-width:1.0;stroke-dasharray:5.0,5.0;" x1="950" x2="950" y1="88.2969" y2="1616.2734"/><line style="stroke:#A80036;stroke-width:1.0;stroke-dasharray:5.0,5.0;" x1="1064" x2="1064" y1="88.2969" y2="1616.2734"/><line style="stroke:#A80036;stroke-width:1.0;stroke-dasharray:5.0,5.0;" x1="1202" x2="1202" y1="88.2969" y2="1616.2734"/><line style="stroke:#A80036;stroke-width:1.0;stroke-dasharray:5.0,5.0;" x1="1558.5" x2="1558.5" y1="88.2969" y2="1616.2734"/><line style="stroke:#A80036;stroke-width:1.0;stroke-dasharray:5.0,5.0;" x1="1714.5" x2="1714.5" y1="88.2969" y2="1616.2734"/><line style="stroke:#A80036;stroke-width:1.0;stroke-dasharray:5.0,5.0;" x1="1959" x2="1959" y1="88.2969" y2="1616.2734"/><line style="stroke:#A80036;stroke-width:1.0;stroke-dasharray:5.0,5.0;" x1="2528.5" x2="2528.5" y1="1190.2656" y2="1616.2734"/><line style="stroke:#A80036;stroke-width:1.0;stroke-dasharray:5.0,5.0;" x1="2690.5" x2="2690.5" y1="1237.5625" y2="1616.2734"/><text fill="#000000" font-family="sans-serif" font-size="14" lengthAdjust="spacing" textLength="100" x="20" y="84.9951">Administrator</text><ellipse cx="73" cy="15" fill="#FEFECE" filter="url(#f1sq2vroxpnjyl)" rx="8" ry="8" style="stroke:#A80036;stroke-width:2.0;"/><path d="M73,23 L73,50 M60,31 L86,31 M73,50 L60,65 M73,50 L86,65 " fill="none" filter="url(#f1sq2vroxpnjyl)" style="stroke:#A80036;stroke-width:2.0;"/><text fill="#000000" font-family="sans-serif" font-size="14" lengthAdjust="spacing" textLength="100" x="20" y="1628.2686">Administrator</text><ellipse cx="73" cy="1641.5703" fill="#FEFECE" filter="url(#f1sq2vroxpnjyl)" rx="8" ry="8" style="stroke:#A80036;stroke-width:2.0;"/><path d="M73,1649.5703 L73,1676.5703 M60,1657.5703 L86,1657.5703 M73,1676.5703 L60,1691.5703 M73,1676.5703 L86,1691.5703 " fill="none" filter="url(#f1sq2vroxpnjyl)" style="stroke:#A80036;stroke-width:2.0;"/><rect fill="#FEFECE" filter="url(#f1sq2vroxpnjyl)" height="30.2969" style="stroke:#A80036;stroke-width:1.5;" width="150" x="492" y="53"/><text fill="#000000" font-family="sans-serif" font-size="14" lengthAdjust="spacing" textLength="136" x="499" y="72.9951">:RegistEmployeeUI</text><rect fill="#FEFECE" filter="url(#f1sq2vroxpnjyl)" height="30.2969" style="stroke:#A80036;stroke-width:1.5;" width="150" x="492" y="1615.2734"/><text fill="#000000" font-family="sans-serif" font-size="14" lengthAdjust="spacing" textLength="136" x="499" y="1635.2686">:RegistEmployeeUI</text><rect fill="#FEFECE" filter="url(#f1sq2vroxpnjyl)" height="30.2969" style="stroke:#A80036;stroke-width:1.5;" width="210" x="681" y="53"/><text fill="#000000" font-family="sans-serif" font-size="14" lengthAdjust="spacing" textLength="196" x="688" y="72.9951">:RegistEmployeeController</text><rect fill="#FEFECE" filter="url(#f1sq2vroxpnjyl)" height="30.2969" style="stroke:#A80036;stroke-width:1.5;" width="210" x="681" y="1615.2734"/><text fill="#000000" font-family="sans-serif" font-size="14" lengthAdjust="spacing" textLength="196" x="688" y="1635.2686">:RegistEmployeeController</text><rect fill="#FEFECE" filter="url(#f1sq2vroxpnjyl)" height="30.2969" style="stroke:#A80036;stroke-width:1.5;" width="87" x="905" y="53"/><text fill="#000000" font-family="sans-serif" font-size="14" lengthAdjust="spacing" textLength="73" x="912" y="72.9951">:Company</text><rect fill="#FEFECE" filter="url(#f1sq2vroxpnjyl)" height="30.2969" style="stroke:#A80036;stroke-width:1.5;" width="87" x="905" y="1615.2734"/><text fill="#000000" font-family="sans-serif" font-size="14" lengthAdjust="spacing" textLength="73" x="912" y="1635.2686">:Company</text><rect fill="#FEFECE" filter="url(#f1sq2vroxpnjyl)" height="30.2969" style="stroke:#A80036;stroke-width:1.5;" width="113" x="1006" y="53"/><text fill="#000000" font-family="sans-serif" font-size="14" lengthAdjust="spacing" textLength="99" x="1013" y="72.9951">:RolesMapper</text><rect fill="#FEFECE" filter="url(#f1sq2vroxpnjyl)" height="30.2969" style="stroke:#A80036;stroke-width:1.5;" width="113" x="1006" y="1615.2734"/><text fill="#000000" font-family="sans-serif" font-size="14" lengthAdjust="spacing" textLength="99" x="1013" y="1635.2686">:RolesMapper</text><rect fill="#FEFECE" filter="url(#f1sq2vroxpnjyl)" height="46.5938" style="stroke:#A80036;stroke-width:1.5;" width="135" x="1133" y="36.7031"/><text fill="#000000" font-family="sans-serif" font-size="14" lengthAdjust="spacing" textLength="38" x="1179.5" y="56.6982">store</text><text fill="#000000" font-family="sans-serif" font-size="14" lengthAdjust="spacing" textLength="117" x="1144" y="72.9951">:EmployeeStore</text><rect fill="#FEFECE" filter="url(#f1sq2vroxpnjyl)" height="46.5938" style="stroke:#A80036;stroke-width:1.5;" width="135" x="1133" y="1615.2734"/><text fill="#000000" font-family="sans-serif" font-size="14" lengthAdjust="spacing" textLength="38" x="1179.5" y="1635.2686">store</text><text fill="#000000" font-family="sans-serif" font-size="14" lengthAdjust="spacing" textLength="117" x="1144" y="1651.5654">:EmployeeStore</text><rect fill="#FEFECE" filter="url(#f1sq2vroxpnjyl)" height="30.2969" style="stroke:#A80036;stroke-width:1.5;" width="182" x="1465.5" y="53"/><text fill="#000000" font-family="sans-serif" font-size="14" lengthAdjust="spacing" textLength="168" x="1472.5" y="72.9951">empDto: EmployeeDto</text><rect fill="#FEFECE" filter="url(#f1sq2vroxpnjyl)" height="30.2969" style="stroke:#A80036;stroke-width:1.5;" width="182" x="1465.5" y="1615.2734"/><text fill="#000000" font-family="sans-serif" font-size="14" lengthAdjust="spacing" textLength="168" x="1472.5" y="1635.2686">empDto: EmployeeDto</text><rect fill="#FEFECE" filter="url(#f1sq2vroxpnjyl)" height="46.5938" style="stroke:#A80036;stroke-width:1.5;" width="102" x="1661.5" y="36.7031"/><text fill="#000000" font-family="sans-serif" font-size="14" lengthAdjust="spacing" textLength="38" x="1691.5" y="56.6982">store</text><text fill="#000000" font-family="sans-serif" font-size="14" lengthAdjust="spacing" textLength="84" x="1672.5" y="72.9951">:RolesStore</text><rect fill="#FEFECE" filter="url(#f1sq2vroxpnjyl)" height="46.5938" style="stroke:#A80036;stroke-width:1.5;" width="102" x="1661.5" y="1615.2734"/><text fill="#000000" font-family="sans-serif" font-size="14" lengthAdjust="spacing" textLength="38" x="1691.5" y="1635.2686">store</text><text fill="#000000" font-family="sans-serif" font-size="14" lengthAdjust="spacing" textLength="84" x="1672.5" y="1651.5654">:RolesStore</text><rect fill="#FEFECE" filter="url(#f1sq2vroxpnjyl)" height="30.2969" style="stroke:#A80036;stroke-width:1.5;" width="105" x="1905" y="53"/><text fill="#000000" font-family="sans-serif" font-size="14" lengthAdjust="spacing" textLength="91" x="1912" y="72.9951">role:OrgRole</text><rect fill="#FEFECE" filter="url(#f1sq2vroxpnjyl)" height="30.2969" style="stroke:#A80036;stroke-width:1.5;" width="105" x="1905" y="1615.2734"/><text fill="#000000" font-family="sans-serif" font-size="14" lengthAdjust="spacing" textLength="91" x="1912" y="1635.2686">role:OrgRole</text><rect fill="#FEFECE" filter="url(#f1sq2vroxpnjyl)" height="30.2969" style="stroke:#A80036;stroke-width:1.5;" width="124" x="2464.5" y="1615.2734"/><text fill="#000000" font-family="sans-serif" font-size="14" lengthAdjust="spacing" textLength="110" x="2471.5" y="1635.2686">emp:Employee</text><rect fill="#FEFECE" filter="url(#f1sq2vroxpnjyl)" height="30.2969" style="stroke:#A80036;stroke-width:1.5;" width="172" x="2602.5" y="1615.2734"/><text fill="#000000" font-family="sans-serif" font-size="14" lengthAdjust="spacing" textLength="158" x="2609.5" y="1635.2686">emp:SpecialistDoctor</text><rect fill="#FFFFFF" filter="url(#f1sq2vroxpnjyl)" height="1499.9766" style="stroke:#A80036;stroke-width:1.0;" width="10" x="68" y="98.2969"/><rect fill="#FFFFFF" filter="url(#f1sq2vroxpnjyl)" height="176.5313" style="stroke:#A80036;stroke-width:1.0;" width="10" x="564" y="119.4297"/><rect fill="#FFFFFF" filter="url(#f1sq2vroxpnjyl)" height="97.3984" style="stroke:#A80036;stroke-width:1.0;" width="10" x="564" y="325.0938"/><rect fill="#FFFFFF" filter="url(#f1sq2vroxpnjyl)" height="893.8516" style="stroke:#A80036;stroke-width:1.0;" width="10" x="564" y="443.625"/><rect fill="#FFFFFF" filter="url(#f1sq2vroxpnjyl)" height="231.6641" style="stroke:#A80036;stroke-width:1.0;" width="10" x="564" y="1366.6094"/><rect fill="#FFFFFF" filter="url(#f1sq2vroxpnjyl)" height="118.2656" style="stroke:#A80036;stroke-width:1.0;" width="10" x="783" y="148.5625"/><rect fill="#FFFFFF" filter="url(#f1sq2vroxpnjyl)" height="835.5859" style="stroke:#A80036;stroke-width:1.0;" width="10" x="783" y="472.7578"/><rect fill="#FFFFFF" filter="url(#f1sq2vroxpnjyl)" height="166.3984" style="stroke:#A80036;stroke-width:1.0;" width="10" x="783" y="1395.7422"/><rect fill="#FFFFFF" filter="url(#f1sq2vroxpnjyl)" height="30" style="stroke:#A80036;stroke-width:1.0;" width="10" x="1059.5" y="236.8281"/><rect fill="#FFFFFF" filter="url(#f1sq2vroxpnjyl)" height="755.3203" style="stroke:#A80036;stroke-width:1.0;" width="10" x="1197.5" y="501.8906"/><rect fill="#FFFFFF" filter="url(#f1sq2vroxpnjyl)" height="30" style="stroke:#A80036;stroke-width:1.0;" width="10" x="1197.5" y="1278.3438"/><rect fill="#FFFFFF" filter="url(#f1sq2vroxpnjyl)" height="137.2656" style="stroke:#A80036;stroke-width:1.0;" width="10" x="1197.5" y="1424.875"/><rect fill="#FFFFFF" filter="url(#f1sq2vroxpnjyl)" height="28" style="stroke:#A80036;stroke-width:1.0;" width="10" x="1202.5" y="1462.0078"/><rect fill="#FFFFFF" filter="url(#f1sq2vroxpnjyl)" height="28" style="stroke:#A80036;stroke-width:1.0;" width="10" x="1202.5" y="1534.1406"/><rect fill="#FFFFFF" filter="url(#f1sq2vroxpnjyl)" height="30" style="stroke:#A80036;stroke-width:1.0;" width="10" x="1553.5" y="531.0234"/><rect fill="#FFFFFF" filter="url(#f1sq2vroxpnjyl)" height="30" style="stroke:#A80036;stroke-width:1.0;" width="10" x="1553.5" y="649.2891"/><rect fill="#FFFFFF" filter="url(#f1sq2vroxpnjyl)" height="30" style="stroke:#A80036;stroke-width:1.0;" width="10" x="1553.5" y="708.4219"/><rect fill="#FFFFFF" filter="url(#f1sq2vroxpnjyl)" height="30" style="stroke:#A80036;stroke-width:1.0;" width="10" x="1553.5" y="767.5547"/><rect fill="#FFFFFF" filter="url(#f1sq2vroxpnjyl)" height="30" style="stroke:#A80036;stroke-width:1.0;" width="10" x="1553.5" y="826.6875"/><rect fill="#FFFFFF" filter="url(#f1sq2vroxpnjyl)" height="30" style="stroke:#A80036;stroke-width:1.0;" width="10" x="1553.5" y="885.8203"/><rect fill="#FFFFFF" filter="url(#f1sq2vroxpnjyl)" height="30" style="stroke:#A80036;stroke-width:1.0;" width="10" x="1553.5" y="944.9531"/><rect fill="#FFFFFF" filter="url(#f1sq2vroxpnjyl)" height="30" style="stroke:#A80036;stroke-width:1.0;" width="10" x="1553.5" y="1059.3516"/><rect fill="#FFFFFF" filter="url(#f1sq2vroxpnjyl)" height="30" style="stroke:#A80036;stroke-width:1.0;" width="10" x="1709.5" y="177.6953"/><rect fill="#FFFFFF" filter="url(#f1sq2vroxpnjyl)" height="30" style="stroke:#A80036;stroke-width:1.0;" width="10" x="1709.5" y="590.1563"/><rect fill="#FFFFFF" filter="url(#f1sq2vroxpnjyl)" height="228.9922" style="stroke:#A80036;stroke-width:1.0;" width="10" x="1954.5" y="1028.2188"/><polygon fill="#A80036" points="552,115.4297,562,119.4297,552,123.4297,556,119.4297" style="stroke:#A80036;stroke-width:1.0;"/><line style="stroke:#A80036;stroke-width:1.0;" x1="78" x2="558" y1="119.4297" y2="119.4297"/><text fill="#000000" font-family="sans-serif" font-size="13" font-weight="bold" lengthAdjust="spacing" textLength="9" x="85" y="114.3638">1</text><text fill="#000000" font-family="sans-serif" font-size="13" lengthAdjust="spacing" textLength="220" x="98" y="114.3638">starts registering a new employee</text><polygon fill="#A80036" points="771,144.5625,781,148.5625,771,152.5625,775,148.5625" style="stroke:#A80036;stroke-width:1.0;"/><line style="stroke:#A80036;stroke-width:1.0;" x1="574" x2="777" y1="148.5625" y2="148.5625"/><text fill="#000000" font-family="sans-serif" font-size="13" font-weight="bold" lengthAdjust="spacing" textLength="9" x="581" y="143.4966">2</text><text fill="#000000" font-family="sans-serif" font-size="13" lengthAdjust="spacing" textLength="145" x="594" y="143.4966">IRolesDto = getRoles()</text><polygon fill="#A80036" points="1697.5,173.6953,1707.5,177.6953,1697.5,181.6953,1701.5,177.6953" style="stroke:#A80036;stroke-width:1.0;"/><line style="stroke:#A80036;stroke-width:1.0;" x1="793" x2="1703.5" y1="177.6953" y2="177.6953"/><text fill="#000000" font-family="sans-serif" font-size="13" font-weight="bold" lengthAdjust="spacing" textLength="8" x="800" y="172.6294">3</text><text fill="#000000" font-family="sans-serif" font-size="13" lengthAdjust="spacing" textLength="122" x="812" y="172.6294">lRoles = getRoles()</text><polygon fill="#A80036" points="1047.5,232.8281,1057.5,236.8281,1047.5,240.8281,1051.5,236.8281" style="stroke:#A80036;stroke-width:1.0;"/><line style="stroke:#A80036;stroke-width:1.0;" x1="793" x2="1053.5" y1="236.8281" y2="236.8281"/><text fill="#000000" font-family="sans-serif" font-size="13" font-weight="bold" lengthAdjust="spacing" textLength="9" x="800" y="231.7622">4</text><text fill="#000000" font-family="sans-serif" font-size="13" lengthAdjust="spacing" textLength="168" x="813" y="231.7622">lRolesDto = toDTO(lRoles)</text><polygon fill="#A80036" points="89,291.9609,79,295.9609,89,299.9609,85,295.9609" style="stroke:#A80036;stroke-width:1.0;"/><line style="stroke:#A80036;stroke-width:1.0;stroke-dasharray:2.0,2.0;" x1="83" x2="568" y1="295.9609" y2="295.9609"/><text fill="#000000" font-family="sans-serif" font-size="13" font-weight="bold" lengthAdjust="spacing" textLength="9" x="95" y="290.895">5</text><text fill="#000000" font-family="sans-serif" font-size="13" lengthAdjust="spacing" textLength="202" x="108" y="290.895">ask to select the employee role</text><polygon fill="#A80036" points="552,321.0938,562,325.0938,552,329.0938,556,325.0938" style="stroke:#A80036;stroke-width:1.0;"/><line style="stroke:#A80036;stroke-width:1.0;" x1="78" x2="558" y1="325.0938" y2="325.0938"/><text fill="#000000" font-family="sans-serif" font-size="13" font-weight="bold" lengthAdjust="spacing" textLength="9" x="85" y="320.0278">6</text><text fill="#000000" font-family="sans-serif" font-size="13" lengthAdjust="spacing" textLength="158" x="98" y="320.0278">selects the intended role</text><polygon fill="#A80036" points="89,350.2266,79,354.2266,89,358.2266,85,354.2266" style="stroke:#A80036;stroke-width:1.0;"/><line style="stroke:#A80036;stroke-width:1.0;stroke-dasharray:2.0,2.0;" x1="83" x2="563" y1="354.2266" y2="354.2266"/><text fill="#000000" font-family="sans-serif" font-size="13" font-weight="bold" lengthAdjust="spacing" textLength="9" x="95" y="349.1606">7</text><text fill="#000000" font-family="sans-serif" font-size="13" lengthAdjust="spacing" textLength="449" x="108" y="349.1606">request data (name, address, phoneNumber, emailAddress, socCode)</text><path d="M10,369.2266 L82,369.2266 L82,376.2266 L72,386.2266 L10,386.2266 L10,369.2266 " fill="#EEEEEE" style="stroke:#000000;stroke-width:1.0;"/><rect fill="none" height="46.2656" style="stroke:#000000;stroke-width:2.0;" width="646" x="10" y="369.2266"/><text fill="#000000" font-family="sans-serif" font-size="13" font-weight="bold" lengthAdjust="spacing" textLength="27" x="25" y="382.2935">opt</text><text fill="#000000" font-family="sans-serif" font-size="11" font-weight="bold" lengthAdjust="spacing" textLength="170" x="97" y="381.437">[role = Specialist Doctor]</text><polygon fill="#A80036" points="89,403.4922,79,407.4922,89,411.4922,85,407.4922" style="stroke:#A80036;stroke-width:1.0;"/><line style="stroke:#A80036;stroke-width:1.0;stroke-dasharray:2.0,2.0;" x1="83" x2="563" y1="407.4922" y2="407.4922"/><text fill="#000000" font-family="sans-serif" font-size="13" font-weight="bold" lengthAdjust="spacing" textLength="9" x="95" y="402.4263">8</text><text fill="#000000" font-family="sans-serif" font-size="13" lengthAdjust="spacing" textLength="219" x="108" y="402.4263">request data(doctorIndexNumber)</text><polygon fill="#A80036" points="552,439.625,562,443.625,552,447.625,556,443.625" style="stroke:#A80036;stroke-width:1.0;"/><line style="stroke:#A80036;stroke-width:1.0;" x1="78" x2="558" y1="443.625" y2="443.625"/><text fill="#000000" font-family="sans-serif" font-size="13" font-weight="bold" lengthAdjust="spacing" textLength="9" x="85" y="438.5591">9</text><text fill="#000000" font-family="sans-serif" font-size="13" lengthAdjust="spacing" textLength="138" x="98" y="438.5591">types requested data</text><polygon fill="#A80036" points="771,468.7578,781,472.7578,771,476.7578,775,472.7578" style="stroke:#A80036;stroke-width:1.0;"/><line style="stroke:#A80036;stroke-width:1.0;stroke-dasharray:2.0,2.0;" x1="574" x2="777" y1="472.7578" y2="472.7578"/><text fill="#000000" font-family="sans-serif" font-size="13" font-weight="bold" lengthAdjust="spacing" textLength="19" x="581" y="467.6919">10</text><text fill="#000000" font-family="sans-serif" font-size="13" lengthAdjust="spacing" textLength="167" x="604" y="467.6919">createEmployee(empDto)</text><polygon fill="#A80036" points="1185.5,497.8906,1195.5,501.8906,1185.5,505.8906,1189.5,501.8906" style="stroke:#A80036;stroke-width:1.0;"/><line style="stroke:#A80036;stroke-width:1.0;" x1="793" x2="1191.5" y1="501.8906" y2="501.8906"/><text fill="#000000" font-family="sans-serif" font-size="13" font-weight="bold" lengthAdjust="spacing" textLength="18" x="800" y="496.8247">11</text><text fill="#000000" font-family="sans-serif" font-size="13" lengthAdjust="spacing" textLength="214" x="822" y="496.8247">emp = createEmployee(empDto)</text><polygon fill="#A80036" points="1541.5,527.0234,1551.5,531.0234,1541.5,535.0234,1545.5,531.0234" style="stroke:#A80036;stroke-width:1.0;"/><line style="stroke:#A80036;stroke-width:1.0;" x1="1207.5" x2="1547.5" y1="531.0234" y2="531.0234"/><text fill="#000000" font-family="sans-serif" font-size="13" font-weight="bold" lengthAdjust="spacing" textLength="18" x="1214.5" y="525.9575">12</text><text fill="#000000" font-family="sans-serif" font-size="13" lengthAdjust="spacing" textLength="123" x="1236.5" y="525.9575">roleId = getRoleId()</text><polygon fill="#A80036" points="1697.5,586.1563,1707.5,590.1563,1697.5,594.1563,1701.5,590.1563" style="stroke:#A80036;stroke-width:1.0;"/><line style="stroke:#A80036;stroke-width:1.0;" x1="1207.5" x2="1703.5" y1="590.1563" y2="590.1563"/><text fill="#000000" font-family="sans-serif" font-size="13" font-weight="bold" lengthAdjust="spacing" textLength="17" x="1214.5" y="585.0903">13</text><text fill="#000000" font-family="sans-serif" font-size="13" lengthAdjust="spacing" textLength="163" x="1235.5" y="585.0903">role = getRoleById(roleId)</text><polygon fill="#A80036" points="1541.5,645.2891,1551.5,649.2891,1541.5,653.2891,1545.5,649.2891" style="stroke:#A80036;stroke-width:1.0;"/><line style="stroke:#A80036;stroke-width:1.0;" x1="1207.5" x2="1547.5" y1="649.2891" y2="649.2891"/><text fill="#000000" font-family="sans-serif" font-size="13" font-weight="bold" lengthAdjust="spacing" textLength="18" x="1214.5" y="644.2231">14</text><text fill="#000000" font-family="sans-serif" font-size="13" lengthAdjust="spacing" textLength="71" x="1236.5" y="644.2231">id = getId()</text><polygon fill="#A80036" points="1541.5,704.4219,1551.5,708.4219,1541.5,712.4219,1545.5,708.4219" style="stroke:#A80036;stroke-width:1.0;"/><line style="stroke:#A80036;stroke-width:1.0;" x1="1207.5" x2="1547.5" y1="708.4219" y2="708.4219"/><text fill="#000000" font-family="sans-serif" font-size="13" font-weight="bold" lengthAdjust="spacing" textLength="18" x="1214.5" y="703.356">15</text><text fill="#000000" font-family="sans-serif" font-size="13" lengthAdjust="spacing" textLength="124" x="1236.5" y="703.356">name = getName()</text><polygon fill="#A80036" points="1541.5,763.5547,1551.5,767.5547,1541.5,771.5547,1545.5,767.5547" style="stroke:#A80036;stroke-width:1.0;"/><line style="stroke:#A80036;stroke-width:1.0;" x1="1207.5" x2="1547.5" y1="767.5547" y2="767.5547"/><text fill="#000000" font-family="sans-serif" font-size="13" font-weight="bold" lengthAdjust="spacing" textLength="18" x="1214.5" y="762.4888">16</text><text fill="#000000" font-family="sans-serif" font-size="13" lengthAdjust="spacing" textLength="136" x="1236.5" y="762.4888">adress = getAdress()</text><polygon fill="#A80036" points="1541.5,822.6875,1551.5,826.6875,1541.5,830.6875,1545.5,826.6875" style="stroke:#A80036;stroke-width:1.0;"/><line style="stroke:#A80036;stroke-width:1.0;" x1="1207.5" x2="1547.5" y1="826.6875" y2="826.6875"/><text fill="#000000" font-family="sans-serif" font-size="13" font-weight="bold" lengthAdjust="spacing" textLength="18" x="1214.5" y="821.6216">17</text><text fill="#000000" font-family="sans-serif" font-size="13" lengthAdjust="spacing" textLength="231" x="1236.5" y="821.6216">phoneNumber = getphoneNumber()</text><polygon fill="#A80036" points="1541.5,881.8203,1551.5,885.8203,1541.5,889.8203,1545.5,885.8203" style="stroke:#A80036;stroke-width:1.0;"/><line style="stroke:#A80036;stroke-width:1.0;" x1="1207.5" x2="1547.5" y1="885.8203" y2="885.8203"/><text fill="#000000" font-family="sans-serif" font-size="13" font-weight="bold" lengthAdjust="spacing" textLength="18" x="1214.5" y="880.7544">18</text><text fill="#000000" font-family="sans-serif" font-size="13" lengthAdjust="spacing" textLength="207" x="1236.5" y="880.7544">emailAdress = getEmailAdress()</text><polygon fill="#A80036" points="1541.5,940.9531,1551.5,944.9531,1541.5,948.9531,1545.5,944.9531" style="stroke:#A80036;stroke-width:1.0;"/><line style="stroke:#A80036;stroke-width:1.0;" x1="1207.5" x2="1547.5" y1="944.9531" y2="944.9531"/><text fill="#000000" font-family="sans-serif" font-size="13" font-weight="bold" lengthAdjust="spacing" textLength="18" x="1214.5" y="939.8872">19</text><text fill="#000000" font-family="sans-serif" font-size="13" lengthAdjust="spacing" textLength="159" x="1236.5" y="939.8872">socCode = getsocCode()</text><path d="M1123,989.9531 L1189,989.9531 L1189,996.9531 L1179,1006.9531 L1123,1006.9531 L1123,989.9531 " fill="#EEEEEE" style="stroke:#000000;stroke-width:1.0;"/><rect fill="none" height="136.5313" style="stroke:#000000;stroke-width:2.0;" width="901" x="1123" y="989.9531"/><text fill="#000000" font-family="sans-serif" font-size="13" font-weight="bold" lengthAdjust="spacing" textLength="21" x="1138" y="1003.02">alt</text><text fill="#000000" font-family="sans-serif" font-size="11" font-weight="bold" lengthAdjust="spacing" textLength="172" x="1204" y="1002.1636">[role != SpecialistDoctor]</text><polygon fill="#A80036" points="1942.5,1024.2188,1952.5,1028.2188,1942.5,1032.2188,1946.5,1028.2188" style="stroke:#A80036;stroke-width:1.0;"/><line style="stroke:#A80036;stroke-width:1.0;" x1="1207.5" x2="1948.5" y1="1028.2188" y2="1028.2188"/><text fill="#000000" font-family="sans-serif" font-size="13" font-weight="bold" lengthAdjust="spacing" textLength="19" x="1214.5" y="1023.1528">20</text><text fill="#000000" font-family="sans-serif" font-size="13" lengthAdjust="spacing" textLength="566" x="1237.5" y="1023.1528">emp = createEmployee(role, id, name, address, phoneNumber, emailAddress, socCode)</text><line style="stroke:#000000;stroke-width:1.0;stroke-dasharray:2.0,2.0;" x1="1123" x2="2024" y1="1037.2188" y2="1037.2188"/><polygon fill="#A80036" points="1541.5,1055.3516,1551.5,1059.3516,1541.5,1063.3516,1545.5,1059.3516" style="stroke:#A80036;stroke-width:1.0;"/><line style="stroke:#A80036;stroke-width:1.0;" x1="1207.5" x2="1547.5" y1="1059.3516" y2="1059.3516"/><text fill="#000000" font-family="sans-serif" font-size="13" font-weight="bold" lengthAdjust="spacing" textLength="18" x="1214.5" y="1054.2856">21</text><text fill="#000000" font-family="sans-serif" font-size="13" lengthAdjust="spacing" textLength="305" x="1236.5" y="1054.2856">doctorIndexNumber = getDoctorIndexNumber()</text><polygon fill="#A80036" points="1942.5,1114.4844,1952.5,1118.4844,1942.5,1122.4844,1946.5,1118.4844" style="stroke:#A80036;stroke-width:1.0;"/><line style="stroke:#A80036;stroke-width:1.0;" x1="1207.5" x2="1948.5" y1="1118.4844" y2="1118.4844"/><text fill="#000000" font-family="sans-serif" font-size="13" font-weight="bold" lengthAdjust="spacing" textLength="18" x="1214.5" y="1113.4185">22</text><text fill="#000000" font-family="sans-serif" font-size="13" lengthAdjust="spacing" textLength="701" x="1236.5" y="1113.4185">emp = createEmployee(role, id, name, address, phoneNumber, emailAddress, socCode, doctorIndexNumber)</text><path d="M1895,1140.4844 L1961,1140.4844 L1961,1147.4844 L1951,1157.4844 L1895,1157.4844 L1895,1140.4844 " fill="#EEEEEE" style="stroke:#000000;stroke-width:1.0;"/><rect fill="none" height="109.7266" style="stroke:#000000;stroke-width:2.0;" width="893.5" x="1895" y="1140.4844"/><text fill="#000000" font-family="sans-serif" font-size="13" font-weight="bold" lengthAdjust="spacing" textLength="21" x="1910" y="1153.5513">alt</text><text fill="#000000" font-family="sans-serif" font-size="11" font-weight="bold" lengthAdjust="spacing" textLength="172" x="1976" y="1152.6948">[role != SpecialistDoctor]</text><polygon fill="#A80036" points="2452.5,1174.75,2462.5,1178.75,2452.5,1182.75,2456.5,1178.75" style="stroke:#A80036;stroke-width:1.0;"/><line style="stroke:#A80036;stroke-width:1.0;" x1="1964.5" x2="2458.5" y1="1178.75" y2="1178.75"/><text fill="#000000" font-family="sans-serif" font-size="13" font-weight="bold" lengthAdjust="spacing" textLength="17" x="1971.5" y="1173.6841">23</text><text fill="#000000" font-family="sans-serif" font-size="13" lengthAdjust="spacing" textLength="455" x="1992.5" y="1173.6841">create(role, id, name, address, phoneNumber, emailAddress, socCode)</text><rect fill="#FEFECE" filter="url(#f1sq2vroxpnjyl)" height="30.2969" style="stroke:#A80036;stroke-width:1.5;" width="124" x="2464.5" y="1157.6172"/><text fill="#000000" font-family="sans-serif" font-size="14" lengthAdjust="spacing" textLength="110" x="2471.5" y="1177.6123">emp:Employee</text><line style="stroke:#000000;stroke-width:1.0;stroke-dasharray:2.0,2.0;" x1="1895" x2="2788.5" y1="1203.9141" y2="1203.9141"/><polygon fill="#A80036" points="2590.5,1222.0469,2600.5,1226.0469,2590.5,1230.0469,2594.5,1226.0469" style="stroke:#A80036;stroke-width:1.0;"/><line style="stroke:#A80036;stroke-width:1.0;" x1="1964.5" x2="2596.5" y1="1226.0469" y2="1226.0469"/><text fill="#000000" font-family="sans-serif" font-size="13" font-weight="bold" lengthAdjust="spacing" textLength="18" x="1971.5" y="1220.981">24</text><text fill="#000000" font-family="sans-serif" font-size="13" lengthAdjust="spacing" textLength="590" x="1993.5" y="1220.981">create(role, id, name, address, phoneNumber, emailAddress, socCode, doctorIndexNumber)</text><rect fill="#FEFECE" filter="url(#f1sq2vroxpnjyl)" height="30.2969" style="stroke:#A80036;stroke-width:1.5;" width="172" x="2602.5" y="1204.9141"/><text fill="#000000" font-family="sans-serif" font-size="14" lengthAdjust="spacing" textLength="158" x="2609.5" y="1224.9092">emp:SpecialistDoctor</text><polygon fill="#A80036" points="1185.5,1274.3438,1195.5,1278.3438,1185.5,1282.3438,1189.5,1278.3438" style="stroke:#A80036;stroke-width:1.0;"/><line style="stroke:#A80036;stroke-width:1.0;" x1="793" x2="1191.5" y1="1278.3438" y2="1278.3438"/><text fill="#000000" font-family="sans-serif" font-size="13" font-weight="bold" lengthAdjust="spacing" textLength="18" x="800" y="1273.2778">25</text><text fill="#000000" font-family="sans-serif" font-size="13" lengthAdjust="spacing" textLength="154" x="822" y="1273.2778">validateEmployee(emp)</text><polygon fill="#A80036" points="89,1333.4766,79,1337.4766,89,1341.4766,85,1337.4766" style="stroke:#A80036;stroke-width:1.0;"/><line style="stroke:#A80036;stroke-width:1.0;" x1="83" x2="568" y1="1337.4766" y2="1337.4766"/><text fill="#000000" font-family="sans-serif" font-size="13" font-weight="bold" lengthAdjust="spacing" textLength="18" x="95" y="1332.4106">26</text><text fill="#000000" font-family="sans-serif" font-size="13" lengthAdjust="spacing" textLength="284" x="117" y="1332.4106">shows the data and requests a confirmation</text><polygon fill="#A80036" points="552,1362.6094,562,1366.6094,552,1370.6094,556,1366.6094" style="stroke:#A80036;stroke-width:1.0;"/><line style="stroke:#A80036;stroke-width:1.0;" x1="78" x2="558" y1="1366.6094" y2="1366.6094"/><text fill="#000000" font-family="sans-serif" font-size="13" font-weight="bold" lengthAdjust="spacing" textLength="18" x="85" y="1361.5435">27</text><text fill="#000000" font-family="sans-serif" font-size="13" lengthAdjust="spacing" textLength="114" x="107" y="1361.5435">confirms the data</text><polygon fill="#A80036" points="771,1391.7422,781,1395.7422,771,1399.7422,775,1395.7422" style="stroke:#A80036;stroke-width:1.0;"/><line style="stroke:#A80036;stroke-width:1.0;" x1="574" x2="777" y1="1395.7422" y2="1395.7422"/><text fill="#000000" font-family="sans-serif" font-size="13" font-weight="bold" lengthAdjust="spacing" textLength="18" x="581" y="1390.6763">28</text><text fill="#000000" font-family="sans-serif" font-size="13" lengthAdjust="spacing" textLength="105" x="603" y="1390.6763">saveEmployee()</text><polygon fill="#A80036" points="1185.5,1420.875,1195.5,1424.875,1185.5,1428.875,1189.5,1424.875" style="stroke:#A80036;stroke-width:1.0;"/><line style="stroke:#A80036;stroke-width:1.0;" x1="793" x2="1191.5" y1="1424.875" y2="1424.875"/><text fill="#000000" font-family="sans-serif" font-size="13" font-weight="bold" lengthAdjust="spacing" textLength="18" x="800" y="1419.8091">29</text><text fill="#000000" font-family="sans-serif" font-size="13" lengthAdjust="spacing" textLength="134" x="822" y="1419.8091">saveEmployee(emp)</text><line style="stroke:#A80036;stroke-width:1.0;" x1="1212.5" x2="1254.5" y1="1454.0078" y2="1454.0078"/><line style="stroke:#A80036;stroke-width:1.0;" x1="1254.5" x2="1254.5" y1="1454.0078" y2="1467.0078"/><line style="stroke:#A80036;stroke-width:1.0;" x1="1213.5" x2="1254.5" y1="1467.0078" y2="1467.0078"/><polygon fill="#A80036" points="1223.5,1463.0078,1213.5,1467.0078,1223.5,1471.0078,1219.5,1467.0078" style="stroke:#A80036;stroke-width:1.0;"/><text fill="#000000" font-family="sans-serif" font-size="13" font-weight="bold" lengthAdjust="spacing" textLength="18" x="1219.5" y="1448.9419">30</text><text fill="#000000" font-family="sans-serif" font-size="13" lengthAdjust="spacing" textLength="154" x="1241.5" y="1448.9419">validateEmployee(emp)</text><line style="stroke:#A80036;stroke-width:1.0;" x1="1212.5" x2="1254.5" y1="1526.1406" y2="1526.1406"/><line style="stroke:#A80036;stroke-width:1.0;" x1="1254.5" x2="1254.5" y1="1526.1406" y2="1539.1406"/><line style="stroke:#A80036;stroke-width:1.0;" x1="1213.5" x2="1254.5" y1="1539.1406" y2="1539.1406"/><polygon fill="#A80036" points="1223.5,1535.1406,1213.5,1539.1406,1223.5,1543.1406,1219.5,1539.1406" style="stroke:#A80036;stroke-width:1.0;"/><text fill="#000000" font-family="sans-serif" font-size="13" font-weight="bold" lengthAdjust="spacing" textLength="17" x="1219.5" y="1521.0747">31</text><text fill="#000000" font-family="sans-serif" font-size="13" lengthAdjust="spacing" textLength="127" x="1240.5" y="1521.0747">addEmployee(emp)</text><polygon fill="#A80036" points="84,1594.2734,74,1598.2734,84,1602.2734,80,1598.2734" style="stroke:#A80036;stroke-width:1.0;"/><line style="stroke:#A80036;stroke-width:1.0;" x1="78" x2="568" y1="1598.2734" y2="1598.2734"/><text fill="#000000" font-family="sans-serif" font-size="13" font-weight="bold" lengthAdjust="spacing" textLength="17" x="90" y="1593.2075">32</text><text fill="#000000" font-family="sans-serif" font-size="13" lengthAdjust="spacing" textLength="169" x="111" y="1593.2075">informs operation success</text><!--MD5=[a2762d2eee24fd533b9da2ccaf82c617]
@startuml
actor Administrator as Adm
participant ":RegistEmployeeUI" as Interface
participant ":RegistEmployeeController" as Controller
participant ":Company" as Company
participant ":RolesMapper" as RolesMapper
participant "store \n :EmployeeStore" as estore
participant "empDto: EmployeeDto" as EmployeeDto
participant "store \n :RolesStore" as rstore
participant "role:OrgRole" as OrgRole


autonumber
activate Adm
Adm -> Interface: starts registering a new employee
activate Interface
Interface -> Controller: IRolesDto = getRoles()
activate Controller
Controller -> rstore: lRoles = getRoles()
activate rstore
deactivate rstore
Controller -> RolesMapper: lRolesDto = toDTO(lRoles)
activate RolesMapper
deactivate RolesMapper
deactivate Controller
Interface - -> Adm: ask to select the employee role
deactivate Interface
Adm -> Interface: selects the intended role
activate Interface
Interface - -> Adm: request data (name, address, phoneNumber, emailAddress, socCode)
opt role = Specialist Doctor
    Interface - -> Adm: request data(doctorIndexNumber)
end
deactivate Interface


Adm -> Interface: types requested data
activate Interface
Interface - -> Controller: createEmployee(empDto)
activate Controller
Controller -> estore: emp = createEmployee(empDto)
activate estore
estore -> EmployeeDto: roleId = getRoleId()
activate EmployeeDto
deactivate EmployeeDto
estore -> rstore: role = getRoleById(roleId)
activate rstore
deactivate rstore
estore -> EmployeeDto: id = getId()
activate EmployeeDto
deactivate EmployeeDto
estore -> EmployeeDto: name = getName()
activate EmployeeDto
deactivate EmployeeDto
estore -> EmployeeDto: adress = getAdress()
activate EmployeeDto
deactivate EmployeeDto
estore -> EmployeeDto: phoneNumber = getphoneNumber()
activate EmployeeDto
deactivate EmployeeDto
estore -> EmployeeDto: emailAdress = getEmailAdress()
activate EmployeeDto
deactivate EmployeeDto
estore -> EmployeeDto: socCode = getsocCode()
activate EmployeeDto
deactivate EmployeeDto
alt role != SpecialistDoctor
    estore -> OrgRole: emp = createEmployee(role, id, name, address, phoneNumber, emailAddress, socCode)
    activate OrgRole
else
    estore -> EmployeeDto: doctorIndexNumber = getDoctorIndexNumber()
    activate EmployeeDto
    deactivate EmployeeDto
    estore -> OrgRole: emp = createEmployee(role, id, name, address, phoneNumber, emailAddress, socCode, doctorIndexNumber)
end
alt role != SpecialistDoctor
    create "emp:Employee" as Employee
    OrgRole -> Employee: create(role, id, name, address, phoneNumber, emailAddress, socCode)
else
    create "emp:SpecialistDoctor" as Doctor
    OrgRole -> Doctor:create(role, id, name, address, phoneNumber, emailAddress, socCode, doctorIndexNumber)
end
deactivate OrgRole
deactivate estore
Controller -> estore: validateEmployee(emp)
activate estore
deactivate estore
deactivate Controller

Interface -> Adm: shows the data and requests a confirmation
deactivate Interface
Adm -> Interface: confirms the data

activate Interface
Interface -> Controller: saveEmployee()
activate Controller
Controller -> estore: saveEmployee(emp)
activate estore
estore -> estore: validateEmployee(emp)
activate estore
deactivate estore
estore -> estore: addEmployee(emp)
activate estore
deactivate estore
deactivate estore
deactivate Controller
Interface -> Adm: informs operation success
deactivate Interface
deactivate Adm
@enduml

PlantUML version 1.2021.6beta6(Unknown compile time)
(GPL source distribution)
Java Runtime: Java(TM) SE Runtime Environment
JVM: Java HotSpot(TM) 64-Bit Server VM
Default Encoding: UTF-8
Language: en
Country: US
--></g></svg>