<?xml version="1.0" encoding="UTF-8" standalone="no"?><svg xmlns="http://www.w3.org/2000/svg" xmlns:xlink="http://www.w3.org/1999/xlink" contentScriptType="application/ecmascript" contentStyleType="text/css" height="959px" preserveAspectRatio="none" style="width:1160px;height:959px;background:#FFFFFF;" version="1.1" viewBox="0 0 1160 959" width="1160px" zoomAndPan="magnify"><defs><filter height="300%" id="f12k47swji9cv5" width="300%" x="-1" y="-1"><feGaussianBlur result="blurOut" stdDeviation="2.0"/><feColorMatrix in="blurOut" result="blurOut2" type="matrix" values="0 0 0 0 0 0 0 0 0 0 0 0 0 0 0 0 0 0 .4 0"/><feOffset dx="4.0" dy="4.0" in="blurOut2" result="blurOut3"/><feBlend in="SourceGraphic" in2="blurOut3" mode="normal"/></filter></defs><g><!--MD5=[63ea8315b4fc5d16749b6deb3fd5a801]
class RegistEmployeeUI--><rect fill="#FEFECE" filter="url(#f12k47swji9cv5)" height="48" id="RegistEmployeeUI" style="stroke:#A80036;stroke-width:1.5;" width="141" x="790.5" y="7"/><ellipse cx="805.5" cy="23" fill="#ADD1B2" rx="11" ry="11" style="stroke:#A80036;stroke-width:1.0;"/><path d="M807.8438,18.6719 C806.9063,18.2344 806.3125,18.0938 805.4375,18.0938 C802.8125,18.0938 800.8125,20.1719 800.8125,22.8906 L800.8125,24.0156 C800.8125,26.5938 802.9219,28.4844 805.8125,28.4844 C807.0313,28.4844 808.1875,28.1875 808.9375,27.6406 C809.5156,27.2344 809.8438,26.7813 809.8438,26.3906 C809.8438,25.9375 809.4531,25.5469 808.9844,25.5469 C808.7656,25.5469 808.5625,25.625 808.375,25.8125 C807.9219,26.2969 807.9219,26.2969 807.7344,26.3906 C807.3125,26.6563 806.625,26.7813 805.8594,26.7813 C803.8125,26.7813 802.5156,25.6875 802.5156,23.9844 L802.5156,22.8906 C802.5156,21.1094 803.7656,19.7969 805.5,19.7969 C806.0781,19.7969 806.6875,19.9531 807.1563,20.2031 C807.6406,20.4844 807.8125,20.7031 807.9063,21.1094 C807.9688,21.5156 808,21.6406 808.1406,21.7656 C808.2813,21.9063 808.5156,22.0156 808.7344,22.0156 C809,22.0156 809.2656,21.875 809.4375,21.6563 C809.5469,21.5 809.5781,21.3125 809.5781,20.8906 L809.5781,19.4688 C809.5781,19.0313 809.5625,18.9063 809.4688,18.75 C809.3125,18.4844 809.0313,18.3438 808.7344,18.3438 C808.4375,18.3438 808.2344,18.4375 808.0156,18.75 L807.8438,18.6719 Z " fill="#000000"/><text fill="#000000" font-family="sans-serif" font-size="12" lengthAdjust="spacing" textLength="109" x="819.5" y="27.1543">RegistEmployeeUI</text><line style="stroke:#A80036;stroke-width:1.5;" x1="791.5" x2="930.5" y1="39" y2="39"/><line style="stroke:#A80036;stroke-width:1.5;" x1="791.5" x2="930.5" y1="47" y2="47"/><!--MD5=[24422a22d9cad4c0688c5344fc384838]
class RegistEmployeeController--><rect fill="#FEFECE" filter="url(#f12k47swji9cv5)" height="86.4141" id="RegistEmployeeController" style="stroke:#A80036;stroke-width:1.5;" width="188" x="767" y="116"/><ellipse cx="782" cy="132" fill="#ADD1B2" rx="11" ry="11" style="stroke:#A80036;stroke-width:1.0;"/><path d="M784.3438,127.6719 C783.4063,127.2344 782.8125,127.0938 781.9375,127.0938 C779.3125,127.0938 777.3125,129.1719 777.3125,131.8906 L777.3125,133.0156 C777.3125,135.5938 779.4219,137.4844 782.3125,137.4844 C783.5313,137.4844 784.6875,137.1875 785.4375,136.6406 C786.0156,136.2344 786.3438,135.7813 786.3438,135.3906 C786.3438,134.9375 785.9531,134.5469 785.4844,134.5469 C785.2656,134.5469 785.0625,134.625 784.875,134.8125 C784.4219,135.2969 784.4219,135.2969 784.2344,135.3906 C783.8125,135.6563 783.125,135.7813 782.3594,135.7813 C780.3125,135.7813 779.0156,134.6875 779.0156,132.9844 L779.0156,131.8906 C779.0156,130.1094 780.2656,128.7969 782,128.7969 C782.5781,128.7969 783.1875,128.9531 783.6563,129.2031 C784.1406,129.4844 784.3125,129.7031 784.4063,130.1094 C784.4688,130.5156 784.5,130.6406 784.6406,130.7656 C784.7813,130.9063 785.0156,131.0156 785.2344,131.0156 C785.5,131.0156 785.7656,130.875 785.9375,130.6563 C786.0469,130.5 786.0781,130.3125 786.0781,129.8906 L786.0781,128.4688 C786.0781,128.0313 786.0625,127.9063 785.9688,127.75 C785.8125,127.4844 785.5313,127.3438 785.2344,127.3438 C784.9375,127.3438 784.7344,127.4375 784.5156,127.75 L784.3438,127.6719 Z " fill="#000000"/><text fill="#000000" font-family="sans-serif" font-size="12" lengthAdjust="spacing" textLength="156" x="796" y="136.1543">RegistEmployeeController</text><line style="stroke:#A80036;stroke-width:1.5;" x1="768" x2="954" y1="148" y2="148"/><line style="stroke:#A80036;stroke-width:1.5;" x1="768" x2="954" y1="156" y2="156"/><ellipse cx="778" cy="167" fill="#84BE84" rx="3" ry="3" style="stroke:#038048;stroke-width:1.0;"/><text fill="#000000" font-family="sans-serif" font-size="11" lengthAdjust="spacing" textLength="58" x="787" y="170.2104">getRoles()</text><ellipse cx="778" cy="179.8047" fill="#84BE84" rx="3" ry="3" style="stroke:#038048;stroke-width:1.0;"/><text fill="#000000" font-family="sans-serif" font-size="11" lengthAdjust="spacing" textLength="149" x="787" y="183.0151">createEmployee(empDto)</text><ellipse cx="778" cy="192.6094" fill="#84BE84" rx="3" ry="3" style="stroke:#038048;stroke-width:1.0;"/><text fill="#000000" font-family="sans-serif" font-size="11" lengthAdjust="spacing" textLength="94" x="787" y="195.8198">saveEmployee()</text><!--MD5=[02e4b9b7573f1156f41e60aa5b4e25a4]
class Company--><rect fill="#FEFECE" filter="url(#f12k47swji9cv5)" height="124.8281" id="Company" style="stroke:#A80036;stroke-width:1.5;" width="175" x="773.5" y="263"/><ellipse cx="828.75" cy="279" fill="#ADD1B2" rx="11" ry="11" style="stroke:#A80036;stroke-width:1.0;"/><path d="M831.0938,274.6719 C830.1563,274.2344 829.5625,274.0938 828.6875,274.0938 C826.0625,274.0938 824.0625,276.1719 824.0625,278.8906 L824.0625,280.0156 C824.0625,282.5938 826.1719,284.4844 829.0625,284.4844 C830.2813,284.4844 831.4375,284.1875 832.1875,283.6406 C832.7656,283.2344 833.0938,282.7813 833.0938,282.3906 C833.0938,281.9375 832.7031,281.5469 832.2344,281.5469 C832.0156,281.5469 831.8125,281.625 831.625,281.8125 C831.1719,282.2969 831.1719,282.2969 830.9844,282.3906 C830.5625,282.6563 829.875,282.7813 829.1094,282.7813 C827.0625,282.7813 825.7656,281.6875 825.7656,279.9844 L825.7656,278.8906 C825.7656,277.1094 827.0156,275.7969 828.75,275.7969 C829.3281,275.7969 829.9375,275.9531 830.4063,276.2031 C830.8906,276.4844 831.0625,276.7031 831.1563,277.1094 C831.2188,277.5156 831.25,277.6406 831.3906,277.7656 C831.5313,277.9063 831.7656,278.0156 831.9844,278.0156 C832.25,278.0156 832.5156,277.875 832.6875,277.6563 C832.7969,277.5 832.8281,277.3125 832.8281,276.8906 L832.8281,275.4688 C832.8281,275.0313 832.8125,274.9063 832.7188,274.75 C832.5625,274.4844 832.2813,274.3438 831.9844,274.3438 C831.6875,274.3438 831.4844,274.4375 831.2656,274.75 L831.0938,274.6719 Z " fill="#000000"/><text fill="#000000" font-family="sans-serif" font-size="12" lengthAdjust="spacing" textLength="56" x="849.25" y="283.1543">Company</text><line style="stroke:#A80036;stroke-width:1.5;" x1="774.5" x2="947.5" y1="295" y2="295"/><line style="stroke:#A80036;stroke-width:1.5;" x1="774.5" x2="947.5" y1="303" y2="303"/><ellipse cx="784.5" cy="314" fill="#84BE84" rx="3" ry="3" style="stroke:#038048;stroke-width:1.0;"/><text fill="#000000" font-family="sans-serif" font-size="11" lengthAdjust="spacing" textLength="58" x="793.5" y="317.2104">getRoles()</text><ellipse cx="784.5" cy="326.8047" fill="#84BE84" rx="3" ry="3" style="stroke:#038048;stroke-width:1.0;"/><text fill="#000000" font-family="sans-serif" font-size="11" lengthAdjust="spacing" textLength="149" x="793.5" y="330.0151">createEmployee(empDto)</text><ellipse cx="784.5" cy="339.6094" fill="#84BE84" rx="3" ry="3" style="stroke:#038048;stroke-width:1.0;"/><text fill="#000000" font-family="sans-serif" font-size="11" lengthAdjust="spacing" textLength="109" x="793.5" y="342.8198">getRoleById(roleId)</text><ellipse cx="784.5" cy="352.4141" fill="#84BE84" rx="3" ry="3" style="stroke:#038048;stroke-width:1.0;"/><text fill="#000000" font-family="sans-serif" font-size="11" lengthAdjust="spacing" textLength="120" x="793.5" y="355.6245">saveEmployee(emp)</text><ellipse cx="784.5" cy="365.2188" fill="#84BE84" rx="3" ry="3" style="stroke:#038048;stroke-width:1.0;"/><text fill="#000000" font-family="sans-serif" font-size="11" lengthAdjust="spacing" textLength="138" x="793.5" y="368.4292">validateEmployee(emp)</text><ellipse cx="784.5" cy="378.0234" fill="#84BE84" rx="3" ry="3" style="stroke:#038048;stroke-width:1.0;"/><text fill="#000000" font-family="sans-serif" font-size="11" lengthAdjust="spacing" textLength="113" x="793.5" y="381.2339">addEmployee(emp)</text><!--MD5=[7421f545a0d8420c5bec41e74b387d9c]
class Employee--><rect fill="#FEFECE" filter="url(#f12k47swji9cv5)" height="137.6328" id="Employee" style="stroke:#A80036;stroke-width:1.5;" width="431" x="504.5" y="628.5"/><ellipse cx="685.75" cy="644.5" fill="#ADD1B2" rx="11" ry="11" style="stroke:#A80036;stroke-width:1.0;"/><path d="M688.0938,640.1719 C687.1563,639.7344 686.5625,639.5938 685.6875,639.5938 C683.0625,639.5938 681.0625,641.6719 681.0625,644.3906 L681.0625,645.5156 C681.0625,648.0938 683.1719,649.9844 686.0625,649.9844 C687.2813,649.9844 688.4375,649.6875 689.1875,649.1406 C689.7656,648.7344 690.0938,648.2813 690.0938,647.8906 C690.0938,647.4375 689.7031,647.0469 689.2344,647.0469 C689.0156,647.0469 688.8125,647.125 688.625,647.3125 C688.1719,647.7969 688.1719,647.7969 687.9844,647.8906 C687.5625,648.1563 686.875,648.2813 686.1094,648.2813 C684.0625,648.2813 682.7656,647.1875 682.7656,645.4844 L682.7656,644.3906 C682.7656,642.6094 684.0156,641.2969 685.75,641.2969 C686.3281,641.2969 686.9375,641.4531 687.4063,641.7031 C687.8906,641.9844 688.0625,642.2031 688.1563,642.6094 C688.2188,643.0156 688.25,643.1406 688.3906,643.2656 C688.5313,643.4063 688.7656,643.5156 688.9844,643.5156 C689.25,643.5156 689.5156,643.375 689.6875,643.1563 C689.7969,643 689.8281,642.8125 689.8281,642.3906 L689.8281,640.9688 C689.8281,640.5313 689.8125,640.4063 689.7188,640.25 C689.5625,639.9844 689.2813,639.8438 688.9844,639.8438 C688.6875,639.8438 688.4844,639.9375 688.2656,640.25 L688.0938,640.1719 Z " fill="#000000"/><text fill="#000000" font-family="sans-serif" font-size="12" lengthAdjust="spacing" textLength="60" x="706.25" y="648.6543">Employee</text><line style="stroke:#A80036;stroke-width:1.5;" x1="505.5" x2="934.5" y1="660.5" y2="660.5"/><rect fill="none" height="6" style="stroke:#C82930;stroke-width:1.0;" width="6" x="512.5" y="668.5"/><text fill="#000000" font-family="sans-serif" font-size="11" lengthAdjust="spacing" textLength="71" x="524.5" y="674.7104">employeeID</text><rect fill="none" height="6" style="stroke:#C82930;stroke-width:1.0;" width="6" x="512.5" y="681.3047"/><text fill="#000000" font-family="sans-serif" font-size="11" lengthAdjust="spacing" textLength="33" x="524.5" y="687.5151">name</text><rect fill="none" height="6" style="stroke:#C82930;stroke-width:1.0;" width="6" x="512.5" y="694.1094"/><text fill="#000000" font-family="sans-serif" font-size="11" lengthAdjust="spacing" textLength="45" x="524.5" y="700.3198">address</text><rect fill="none" height="6" style="stroke:#C82930;stroke-width:1.0;" width="6" x="512.5" y="706.9141"/><text fill="#000000" font-family="sans-serif" font-size="11" lengthAdjust="spacing" textLength="81" x="524.5" y="713.1245">phoneNumber</text><rect fill="none" height="6" style="stroke:#C82930;stroke-width:1.0;" width="6" x="512.5" y="719.7188"/><text fill="#000000" font-family="sans-serif" font-size="11" lengthAdjust="spacing" textLength="49" x="524.5" y="725.9292">socCode</text><rect fill="none" height="6" style="stroke:#C82930;stroke-width:1.0;" width="6" x="512.5" y="732.5234"/><text fill="#000000" font-family="sans-serif" font-size="11" lengthAdjust="spacing" textLength="32" x="524.5" y="738.7339">email</text><line style="stroke:#A80036;stroke-width:1.5;" x1="505.5" x2="934.5" y1="745.3281" y2="745.3281"/><ellipse cx="515.5" cy="756.3281" fill="#84BE84" rx="3" ry="3" style="stroke:#038048;stroke-width:1.0;"/><text fill="#000000" font-family="sans-serif" font-size="11" lengthAdjust="spacing" textLength="405" x="524.5" y="759.5386">create(role, id, name, address, phoneNumber, emailAddress, socCode)</text><!--MD5=[7d96fd15f3014691d2fcaf89c5791e2a]
class SpecialistDoctor--><rect fill="#FEFECE" filter="url(#f12k47swji9cv5)" height="73.6094" id="SpecialistDoctor" style="stroke:#A80036;stroke-width:1.5;" width="550" x="88" y="872"/><ellipse cx="309.25" cy="888" fill="#ADD1B2" rx="11" ry="11" style="stroke:#A80036;stroke-width:1.0;"/><path d="M311.5938,883.6719 C310.6563,883.2344 310.0625,883.0938 309.1875,883.0938 C306.5625,883.0938 304.5625,885.1719 304.5625,887.8906 L304.5625,889.0156 C304.5625,891.5938 306.6719,893.4844 309.5625,893.4844 C310.7813,893.4844 311.9375,893.1875 312.6875,892.6406 C313.2656,892.2344 313.5938,891.7813 313.5938,891.3906 C313.5938,890.9375 313.2031,890.5469 312.7344,890.5469 C312.5156,890.5469 312.3125,890.625 312.125,890.8125 C311.6719,891.2969 311.6719,891.2969 311.4844,891.3906 C311.0625,891.6563 310.375,891.7813 309.6094,891.7813 C307.5625,891.7813 306.2656,890.6875 306.2656,888.9844 L306.2656,887.8906 C306.2656,886.1094 307.5156,884.7969 309.25,884.7969 C309.8281,884.7969 310.4375,884.9531 310.9063,885.2031 C311.3906,885.4844 311.5625,885.7031 311.6563,886.1094 C311.7188,886.5156 311.75,886.6406 311.8906,886.7656 C312.0313,886.9063 312.2656,887.0156 312.4844,887.0156 C312.75,887.0156 313.0156,886.875 313.1875,886.6563 C313.2969,886.5 313.3281,886.3125 313.3281,885.8906 L313.3281,884.4688 C313.3281,884.0313 313.3125,883.9063 313.2188,883.75 C313.0625,883.4844 312.7813,883.3438 312.4844,883.3438 C312.1875,883.3438 311.9844,883.4375 311.7656,883.75 L311.5938,883.6719 Z " fill="#000000"/><text fill="#000000" font-family="sans-serif" font-size="12" lengthAdjust="spacing" textLength="99" x="329.75" y="892.1543">SpecialistDoctor</text><line style="stroke:#A80036;stroke-width:1.5;" x1="89" x2="637" y1="904" y2="904"/><rect fill="none" height="6" style="stroke:#C82930;stroke-width:1.0;" width="6" x="96" y="912"/><text fill="#000000" font-family="sans-serif" font-size="11" lengthAdjust="spacing" textLength="112" x="108" y="918.2104">doctorIndexNumber</text><line style="stroke:#A80036;stroke-width:1.5;" x1="89" x2="637" y1="924.8047" y2="924.8047"/><ellipse cx="99" cy="935.8047" fill="#84BE84" rx="3" ry="3" style="stroke:#038048;stroke-width:1.0;"/><text fill="#000000" font-family="sans-serif" font-size="11" lengthAdjust="spacing" textLength="524" x="108" y="939.0151">create(role, id, name, address, phoneNumber, emailAddress, socCode, doctorIndexNumber)</text><!--MD5=[0af8f8019f740f778e383a70d6c8693f]
class RolesMapper--><rect fill="#FEFECE" filter="url(#f12k47swji9cv5)" height="60.8047" id="RolesMapper" style="stroke:#A80036;stroke-width:1.5;" width="111" x="898.5" y="455.5"/><ellipse cx="913.5" cy="471.5" fill="#ADD1B2" rx="11" ry="11" style="stroke:#A80036;stroke-width:1.0;"/><path d="M915.8438,467.1719 C914.9063,466.7344 914.3125,466.5938 913.4375,466.5938 C910.8125,466.5938 908.8125,468.6719 908.8125,471.3906 L908.8125,472.5156 C908.8125,475.0938 910.9219,476.9844 913.8125,476.9844 C915.0313,476.9844 916.1875,476.6875 916.9375,476.1406 C917.5156,475.7344 917.8438,475.2813 917.8438,474.8906 C917.8438,474.4375 917.4531,474.0469 916.9844,474.0469 C916.7656,474.0469 916.5625,474.125 916.375,474.3125 C915.9219,474.7969 915.9219,474.7969 915.7344,474.8906 C915.3125,475.1563 914.625,475.2813 913.8594,475.2813 C911.8125,475.2813 910.5156,474.1875 910.5156,472.4844 L910.5156,471.3906 C910.5156,469.6094 911.7656,468.2969 913.5,468.2969 C914.0781,468.2969 914.6875,468.4531 915.1563,468.7031 C915.6406,468.9844 915.8125,469.2031 915.9063,469.6094 C915.9688,470.0156 916,470.1406 916.1406,470.2656 C916.2813,470.4063 916.5156,470.5156 916.7344,470.5156 C917,470.5156 917.2656,470.375 917.4375,470.1563 C917.5469,470 917.5781,469.8125 917.5781,469.3906 L917.5781,467.9688 C917.5781,467.5313 917.5625,467.4063 917.4688,467.25 C917.3125,466.9844 917.0313,466.8438 916.7344,466.8438 C916.4375,466.8438 916.2344,466.9375 916.0156,467.25 L915.8438,467.1719 Z " fill="#000000"/><text fill="#000000" font-family="sans-serif" font-size="12" lengthAdjust="spacing" textLength="79" x="927.5" y="475.6543">RolesMapper</text><line style="stroke:#A80036;stroke-width:1.5;" x1="899.5" x2="1008.5" y1="487.5" y2="487.5"/><line style="stroke:#A80036;stroke-width:1.5;" x1="899.5" x2="1008.5" y1="495.5" y2="495.5"/><ellipse cx="909.5" cy="506.5" fill="#84BE84" rx="3" ry="3" style="stroke:#038048;stroke-width:1.0;"/><text fill="#000000" font-family="sans-serif" font-size="11" lengthAdjust="spacing" textLength="78" x="918.5" y="509.7104">toDTO(lRoles)</text><!--MD5=[38bc9548dd9b3552396f9d08e2f99d94]
class EmployeeDto--><rect fill="#FEFECE" filter="url(#f12k47swji9cv5)" height="227.2656" id="EmployeeDto" style="stroke:#A80036;stroke-width:1.5;" width="167" x="979.5" y="584"/><ellipse cx="1018.8" cy="600" fill="#ADD1B2" rx="11" ry="11" style="stroke:#A80036;stroke-width:1.0;"/><path d="M1021.1438,595.6719 C1020.2063,595.2344 1019.6125,595.0938 1018.7375,595.0938 C1016.1125,595.0938 1014.1125,597.1719 1014.1125,599.8906 L1014.1125,601.0156 C1014.1125,603.5938 1016.2219,605.4844 1019.1125,605.4844 C1020.3313,605.4844 1021.4875,605.1875 1022.2375,604.6406 C1022.8156,604.2344 1023.1438,603.7813 1023.1438,603.3906 C1023.1438,602.9375 1022.7531,602.5469 1022.2844,602.5469 C1022.0656,602.5469 1021.8625,602.625 1021.675,602.8125 C1021.2219,603.2969 1021.2219,603.2969 1021.0344,603.3906 C1020.6125,603.6563 1019.925,603.7813 1019.1594,603.7813 C1017.1125,603.7813 1015.8156,602.6875 1015.8156,600.9844 L1015.8156,599.8906 C1015.8156,598.1094 1017.0656,596.7969 1018.8,596.7969 C1019.3781,596.7969 1019.9875,596.9531 1020.4563,597.2031 C1020.9406,597.4844 1021.1125,597.7031 1021.2063,598.1094 C1021.2688,598.5156 1021.3,598.6406 1021.4406,598.7656 C1021.5813,598.9063 1021.8156,599.0156 1022.0344,599.0156 C1022.3,599.0156 1022.5656,598.875 1022.7375,598.6563 C1022.8469,598.5 1022.8781,598.3125 1022.8781,597.8906 L1022.8781,596.4688 C1022.8781,596.0313 1022.8625,595.9063 1022.7688,595.75 C1022.6125,595.4844 1022.3313,595.3438 1022.0344,595.3438 C1021.7375,595.3438 1021.5344,595.4375 1021.3156,595.75 L1021.1438,595.6719 Z " fill="#000000"/><text fill="#000000" font-family="sans-serif" font-size="12" lengthAdjust="spacing" textLength="81" x="1038.2" y="604.1543">EmployeeDto</text><line style="stroke:#A80036;stroke-width:1.5;" x1="980.5" x2="1145.5" y1="616" y2="616"/><rect fill="none" height="6" style="stroke:#C82930;stroke-width:1.0;" width="6" x="987.5" y="624"/><text fill="#000000" font-family="sans-serif" font-size="11" lengthAdjust="spacing" textLength="71" x="999.5" y="630.2104">employeeID</text><rect fill="none" height="6" style="stroke:#C82930;stroke-width:1.0;" width="6" x="987.5" y="636.8047"/><text fill="#000000" font-family="sans-serif" font-size="11" lengthAdjust="spacing" textLength="33" x="999.5" y="643.0151">name</text><rect fill="none" height="6" style="stroke:#C82930;stroke-width:1.0;" width="6" x="987.5" y="649.6094"/><text fill="#000000" font-family="sans-serif" font-size="11" lengthAdjust="spacing" textLength="45" x="999.5" y="655.8198">address</text><rect fill="none" height="6" style="stroke:#C82930;stroke-width:1.0;" width="6" x="987.5" y="662.4141"/><text fill="#000000" font-family="sans-serif" font-size="11" lengthAdjust="spacing" textLength="81" x="999.5" y="668.6245">phoneNumber</text><rect fill="none" height="6" style="stroke:#C82930;stroke-width:1.0;" width="6" x="987.5" y="675.2188"/><text fill="#000000" font-family="sans-serif" font-size="11" lengthAdjust="spacing" textLength="49" x="999.5" y="681.4292">socCode</text><rect fill="none" height="6" style="stroke:#C82930;stroke-width:1.0;" width="6" x="987.5" y="688.0234"/><text fill="#000000" font-family="sans-serif" font-size="11" lengthAdjust="spacing" textLength="32" x="999.5" y="694.2339">email</text><line style="stroke:#A80036;stroke-width:1.5;" x1="980.5" x2="1145.5" y1="700.8281" y2="700.8281"/><ellipse cx="990.5" cy="711.8281" fill="#84BE84" rx="3" ry="3" style="stroke:#038048;stroke-width:1.0;"/><text fill="#000000" font-family="sans-serif" font-size="11" lengthAdjust="spacing" textLength="62" x="999.5" y="715.0386">getRoleId()</text><ellipse cx="990.5" cy="724.6328" fill="#84BE84" rx="3" ry="3" style="stroke:#038048;stroke-width:1.0;"/><text fill="#000000" font-family="sans-serif" font-size="11" lengthAdjust="spacing" textLength="37" x="999.5" y="727.8433">getId()</text><ellipse cx="990.5" cy="737.4375" fill="#84BE84" rx="3" ry="3" style="stroke:#038048;stroke-width:1.0;"/><text fill="#000000" font-family="sans-serif" font-size="11" lengthAdjust="spacing" textLength="61" x="999.5" y="740.6479">getName()</text><ellipse cx="990.5" cy="750.2422" fill="#84BE84" rx="3" ry="3" style="stroke:#038048;stroke-width:1.0;"/><text fill="#000000" font-family="sans-serif" font-size="11" lengthAdjust="spacing" textLength="66" x="999.5" y="753.4526">getAdress()</text><ellipse cx="990.5" cy="763.0469" fill="#84BE84" rx="3" ry="3" style="stroke:#038048;stroke-width:1.0;"/><text fill="#000000" font-family="sans-serif" font-size="11" lengthAdjust="spacing" textLength="107" x="999.5" y="766.2573">getPhoneNumber()</text><ellipse cx="990.5" cy="775.8516" fill="#84BE84" rx="3" ry="3" style="stroke:#038048;stroke-width:1.0;"/><text fill="#000000" font-family="sans-serif" font-size="11" lengthAdjust="spacing" textLength="78" x="999.5" y="779.062">getSocCode()</text><ellipse cx="990.5" cy="788.6563" fill="#84BE84" rx="3" ry="3" style="stroke:#038048;stroke-width:1.0;"/><text fill="#000000" font-family="sans-serif" font-size="11" lengthAdjust="spacing" textLength="58" x="999.5" y="791.8667">getEmail()</text><ellipse cx="990.5" cy="801.4609" fill="#84BE84" rx="3" ry="3" style="stroke:#038048;stroke-width:1.0;"/><text fill="#000000" font-family="sans-serif" font-size="11" lengthAdjust="spacing" textLength="141" x="999.5" y="804.6714">getDoctorIndexNumber()</text><!--MD5=[b65e6cec79d32d494d76fa2df2ac0ae9]
class OrgRole--><rect fill="#FEFECE" filter="url(#f12k47swji9cv5)" height="73.6094" id="OrgRole" style="stroke:#A80036;stroke-width:1.5;" width="608" x="59" y="449"/><ellipse cx="334.25" cy="465" fill="#ADD1B2" rx="11" ry="11" style="stroke:#A80036;stroke-width:1.0;"/><path d="M336.5938,460.6719 C335.6563,460.2344 335.0625,460.0938 334.1875,460.0938 C331.5625,460.0938 329.5625,462.1719 329.5625,464.8906 L329.5625,466.0156 C329.5625,468.5938 331.6719,470.4844 334.5625,470.4844 C335.7813,470.4844 336.9375,470.1875 337.6875,469.6406 C338.2656,469.2344 338.5938,468.7813 338.5938,468.3906 C338.5938,467.9375 338.2031,467.5469 337.7344,467.5469 C337.5156,467.5469 337.3125,467.625 337.125,467.8125 C336.6719,468.2969 336.6719,468.2969 336.4844,468.3906 C336.0625,468.6563 335.375,468.7813 334.6094,468.7813 C332.5625,468.7813 331.2656,467.6875 331.2656,465.9844 L331.2656,464.8906 C331.2656,463.1094 332.5156,461.7969 334.25,461.7969 C334.8281,461.7969 335.4375,461.9531 335.9063,462.2031 C336.3906,462.4844 336.5625,462.7031 336.6563,463.1094 C336.7188,463.5156 336.75,463.6406 336.8906,463.7656 C337.0313,463.9063 337.2656,464.0156 337.4844,464.0156 C337.75,464.0156 338.0156,463.875 338.1875,463.6563 C338.2969,463.5 338.3281,463.3125 338.3281,462.8906 L338.3281,461.4688 C338.3281,461.0313 338.3125,460.9063 338.2188,460.75 C338.0625,460.4844 337.7813,460.3438 337.4844,460.3438 C337.1875,460.3438 336.9844,460.4375 336.7656,460.75 L336.5938,460.6719 Z " fill="#000000"/><text fill="#000000" font-family="sans-serif" font-size="12" lengthAdjust="spacing" textLength="49" x="354.75" y="469.1543">OrgRole</text><line style="stroke:#A80036;stroke-width:1.5;" x1="60" x2="666" y1="481" y2="481"/><line style="stroke:#A80036;stroke-width:1.5;" x1="60" x2="666" y1="489" y2="489"/><ellipse cx="70" cy="500" fill="#84BE84" rx="3" ry="3" style="stroke:#038048;stroke-width:1.0;"/><text fill="#000000" font-family="sans-serif" font-size="11" lengthAdjust="spacing" textLength="463" x="79" y="503.2104">createEmployee(role, id, name, address, phoneNumber, emailAddress, socCode)</text><ellipse cx="70" cy="512.8047" fill="#84BE84" rx="3" ry="3" style="stroke:#038048;stroke-width:1.0;"/><text fill="#000000" font-family="sans-serif" font-size="11" lengthAdjust="spacing" textLength="582" x="79" y="516.0151">createEmployee(role, id, name, address, phoneNumber, emailAddress, socCode, doctorIndexNumber)</text><!--MD5=[33a7f872ce2468d1ec84bbf47d52f016]
link RegistEmployeeUI to RegistEmployeeController--><path codeLine="1" d="M861,55.11 C861,70.631 861,91.639 861,110.625 " fill="none" id="RegistEmployeeUI-to-RegistEmployeeController" style="stroke:#A80036;stroke-width:1.0;stroke-dasharray:7.0,7.0;"/><polygon fill="#A80036" points="861,115.921,865,106.921,861,110.921,857,106.921,861,115.921" style="stroke:#A80036;stroke-width:1.0;"/><!--MD5=[7879389e553e47099bb5ce963a6a89bb]
link RegistEmployeeController to Company--><path codeLine="2" d="M861,202.363 C861,219.157 861,238.878 861,257.515 " fill="none" id="RegistEmployeeController-to-Company" style="stroke:#A80036;stroke-width:1.0;stroke-dasharray:7.0,7.0;"/><polygon fill="#A80036" points="861,262.74,865,253.74,861,257.74,857,253.74,861,262.74" style="stroke:#A80036;stroke-width:1.0;"/><!--MD5=[cabe1ee7c4a8c7c592a978b516274c0f]
link RegistEmployeeController to Employee--><path codeLine="3" d="M803.913,202.128 C785.432,218.904 766.906,239.769 756,263 C701.193,379.74 703.487,533.635 711.089,623.166 " fill="none" id="RegistEmployeeController-to-Employee" style="stroke:#A80036;stroke-width:1.0;stroke-dasharray:7.0,7.0;"/><polygon fill="#A80036" points="711.526,628.174,714.7292,618.8606,711.0917,623.1929,706.7595,619.5554,711.526,628.174" style="stroke:#A80036;stroke-width:1.0;"/><!--MD5=[4badba6472209f0aa597282efe415a17]
link RegistEmployeeController to SpecialistDoctor--><path codeLine="4" d="M766.644,168.33 C544.286,189.226 6,247.739 6,324.5 C6,324.5 6,324.5 6,698.5 C6,788.514 91.4657,840.597 178.763,870.318 " fill="none" id="RegistEmployeeController-to-SpecialistDoctor" style="stroke:#A80036;stroke-width:1.0;stroke-dasharray:7.0,7.0;"/><polygon fill="#A80036" points="183.716,871.9798,176.4553,865.3254,178.9756,870.3897,173.9112,872.9101,183.716,871.9798" style="stroke:#A80036;stroke-width:1.0;"/><!--MD5=[5bcd26800992edffbcde82182f960fe0]
link RegistEmployeeController to RolesMapper--><path codeLine="5" d="M919.717,202.151 C938.112,218.797 956.164,239.573 966,263 C991.97,324.853 977.146,405.045 964.949,450.166 " fill="none" id="RegistEmployeeController-to-RolesMapper" style="stroke:#A80036;stroke-width:1.0;stroke-dasharray:7.0,7.0;"/><polygon fill="#A80036" points="963.553,455.223,969.8028,447.6112,964.883,450.4031,962.091,445.4833,963.553,455.223" style="stroke:#A80036;stroke-width:1.0;"/><!--MD5=[3ba3fc94fde4123e40d46e16e02d6f75]
link RegistEmployeeController to EmployeeDto--><path codeLine="6" d="M946.536,202.248 C968.571,217.916 989.128,238.087 1000,263 C1043.96,363.733 1058.36,488.884 1062.57,578.782 " fill="none" id="RegistEmployeeController-to-EmployeeDto" style="stroke:#A80036;stroke-width:1.0;stroke-dasharray:7.0,7.0;"/><polygon fill="#A80036" points="1062.8,583.843,1066.3915,574.6723,1062.5753,578.8481,1058.3996,575.0319,1062.8,583.843" style="stroke:#A80036;stroke-width:1.0;"/><!--MD5=[05bb443f13c24d2a3d695abe44919fbd]
link OrgRole to Employee--><path codeLine="7" d="M424.37,523.014 C472.362,551.177 540.577,591.209 599.39,625.722 " fill="none" id="OrgRole-to-Employee" style="stroke:#A80036;stroke-width:1.0;stroke-dasharray:7.0,7.0;"/><polygon fill="#A80036" points="603.967,628.408,598.228,620.404,599.6543,625.8781,594.1802,627.3043,603.967,628.408" style="stroke:#A80036;stroke-width:1.0;"/><!--MD5=[5b0c2fa1a27119611715da92b0d07929]
link OrgRole to SpecialistDoctor--><path codeLine="8" d="M363,523.259 C363,601.228 363,784.42 363,866.7063 " fill="none" id="OrgRole-to-SpecialistDoctor" style="stroke:#A80036;stroke-width:1.0;stroke-dasharray:7.0,7.0;"/><polygon fill="#A80036" points="363,871.9782,367,862.9782,363,866.9782,359,862.9782,363,871.9782" style="stroke:#A80036;stroke-width:1.0;"/><!--MD5=[372bd27a178b4208a6d241b4516ac7e6]
reverse link Employee to SpecialistDoctor--><path codeLine="9" d="M586.639,776.761 C530.915,809.462 468.909,845.849 424.348,871.9987 " fill="none" id="Employee-backto-SpecialistDoctor" style="stroke:#A80036;stroke-width:1.0;"/><polygon fill="none" points="583.3,770.604,604.092,766.519,590.386,782.678,583.3,770.604" style="stroke:#A80036;stroke-width:1.0;"/><!--MD5=[09366576ee87d48d594df10cacc83f45]
link Company to Employee--><path codeLine="15" d="M837.558,388.013 C812.896,452.731 774.093,554.553 747.878,623.345 " fill="none" id="Company-to-Employee" style="stroke:#A80036;stroke-width:1.0;"/><polygon fill="#A80036" points="746.013,628.24,752.9554,621.2541,747.7933,623.5677,745.4798,618.4056,746.013,628.24" style="stroke:#A80036;stroke-width:1.0;"/><text fill="#000000" font-family="sans-serif" font-size="13" lengthAdjust="spacing" textLength="23" x="816" y="490.5669">has</text><text fill="#000000" font-family="sans-serif" font-size="13" lengthAdjust="spacing" textLength="8" x="826.5565" y="407.7542">1</text><text fill="#000000" font-family="sans-serif" font-size="13" lengthAdjust="spacing" textLength="7" x="741.3347" y="617.4168">*</text><!--MD5=[b2a82ab0797c8b9283a46fdc25d6fab6]
link Company to RolesMapper--><path codeLine="17" d="M897.223,388.234 C909.729,409.549 923.28,432.643 934.006,450.923 " fill="none" id="Company-to-RolesMapper" style="stroke:#A80036;stroke-width:1.0;stroke-dasharray:7.0,7.0;"/><polygon fill="#A80036" points="936.669,455.463,935.5639,445.6763,934.1385,451.1506,928.6641,449.7252,936.669,455.463" style="stroke:#A80036;stroke-width:1.0;"/><!--MD5=[9db97311ab7c9c2de0c6a7607c8a3d3f]
link RolesMapper to EmployeeDto--><path codeLine="19" d="M969.386,516.572 C978.188,533.49 989.868,555.939 1001.984,579.226 " fill="none" id="RolesMapper-to-EmployeeDto" style="stroke:#A80036;stroke-width:1.0;stroke-dasharray:7.0,7.0;"/><polygon fill="#A80036" points="1004.412,583.893,1003.8052,574.0629,1002.1037,579.4577,996.7088,577.7562,1004.412,583.893" style="stroke:#A80036;stroke-width:1.0;"/><!--MD5=[198842342dbe8aaca683ed8c593a597f]
link RolesMapper to Employee--><path codeLine="21" d="M920.97,516.572 C889.727,544.544 841.599,587.633 800.274,624.631 " fill="none" id="RolesMapper-to-Employee" style="stroke:#A80036;stroke-width:1.0;stroke-dasharray:7.0,7.0;"/><polygon fill="#A80036" points="796.297,628.192,805.6698,625.167,800.0215,624.8561,800.3324,619.2078,796.297,628.192" style="stroke:#A80036;stroke-width:1.0;"/><!--MD5=[69360a927f1abf898e816ed47749258f]
@startuml
RegistEmployeeUI ..> RegistEmployeeController
RegistEmployeeController ..>Company
RegistEmployeeController ..>Employee
RegistEmployeeController ..>SpecialistDoctor
RegistEmployeeController ..>RolesMapper
RegistEmployeeController ..>EmployeeDto
OrgRole ..> Employee
OrgRole ..> SpecialistDoctor
Employee <|- - SpecialistDoctor

RegistEmployeeController : +getRoles()
RegistEmployeeController : +createEmployee(empDto)
RegistEmployeeController : +saveEmployee()

Company "1" - -> "*" Employee: has

Company ..> RolesMapper

RolesMapper ..> EmployeeDto

RolesMapper ..> Employee

RolesMapper : +toDTO(lRoles)

Company : +getRoles()
Company : +createEmployee(empDto)
Company : +getRoleById(roleId)
Company : +saveEmployee(emp)
Company : +validateEmployee(emp)
Company : +addEmployee(emp)

OrgRole : +createEmployee(role, id, name, address, phoneNumber, emailAddress, socCode)
OrgRole : +createEmployee(role, id, name, address, phoneNumber, emailAddress, socCode, doctorIndexNumber)

EmployeeDto : +getRoleId()
EmployeeDto : +getId()
EmployeeDto : +getName()
EmployeeDto : +getAdress()
EmployeeDto : +getPhoneNumber()
EmployeeDto : +getSocCode()
EmployeeDto : +getEmail()
EmployeeDto : +getDoctorIndexNumber()
EmployeeDto : -employeeID
EmployeeDto : -name
EmployeeDto : -address
EmployeeDto : -phoneNumber
EmployeeDto : -socCode
EmployeeDto : -email

Employee : +create(role, id, name, address, phoneNumber, emailAddress, socCode)
Employee : -employeeID
Employee : -name
Employee : -address
Employee : -phoneNumber
Employee : -socCode
Employee : -email

SpecialistDoctor : +create(role, id, name, address, phoneNumber, emailAddress, socCode, doctorIndexNumber)
SpecialistDoctor : -doctorIndexNumber
@enduml

PlantUML version 1.2021.6beta6(Unknown compile time)
(GPL source distribution)
Java Runtime: Java(TM) SE Runtime Environment
JVM: Java HotSpot(TM) 64-Bit Server VM
Default Encoding: UTF-8
Language: en
Country: US
--></g></svg>