<?xml version="1.0" encoding="UTF-8" standalone="no"?><svg xmlns="http://www.w3.org/2000/svg" xmlns:xlink="http://www.w3.org/1999/xlink" contentScriptType="application/ecmascript" contentStyleType="text/css" height="425px" preserveAspectRatio="none" style="width:599px;height:425px;" version="1.1" viewBox="0 0 599 425" width="599px" zoomAndPan="magnify"><defs><filter height="300%" id="fjlktykq2kakq" width="300%" x="-1" y="-1"><feGaussianBlur result="blurOut" stdDeviation="2.0"/><feColorMatrix in="blurOut" result="blurOut2" type="matrix" values="0 0 0 0 0 0 0 0 0 0 0 0 0 0 0 0 0 0 .4 0"/><feOffset dx="4.0" dy="4.0" in="blurOut2" result="blurOut3"/><feBlend in="SourceGraphic" in2="blurOut3" mode="normal"/></filter></defs><g><rect fill="#FFFFFF" filter="url(#fjlktykq2kakq)" height="225.0625" style="stroke:#A80036;stroke-width:1.0;" width="10" x="53" y="98.2969"/><rect fill="#FFFFFF" filter="url(#fjlktykq2kakq)" height="29.1328" style="stroke:#A80036;stroke-width:1.0;" width="10" x="546" y="119.4297"/><rect fill="#FFFFFF" filter="url(#fjlktykq2kakq)" height="29.1328" style="stroke:#A80036;stroke-width:1.0;" width="10" x="546" y="177.6953"/><rect fill="#FFFFFF" filter="url(#fjlktykq2kakq)" height="29.1328" style="stroke:#A80036;stroke-width:1.0;" width="10" x="546" y="235.9609"/><rect fill="#FFFFFF" filter="url(#fjlktykq2kakq)" height="29.1328" style="stroke:#A80036;stroke-width:1.0;" width="10" x="546" y="294.2266"/><line style="stroke:#A80036;stroke-width:1.0;stroke-dasharray:5.0,5.0;" x1="58" x2="58" y1="88.2969" y2="341.3594"/><line style="stroke:#A80036;stroke-width:1.0;stroke-dasharray:5.0,5.0;" x1="550.5" x2="550.5" y1="88.2969" y2="341.3594"/><text fill="#000000" font-family="sans-serif" font-size="14" lengthAdjust="spacing" textLength="100" x="5" y="84.9951">Administrator</text><ellipse cx="58" cy="15" fill="#FEFECE" filter="url(#fjlktykq2kakq)" rx="8" ry="8" style="stroke:#A80036;stroke-width:2.0;"/><path d="M58,23 L58,50 M45,31 L71,31 M58,50 L45,65 M58,50 L71,65 " fill="none" filter="url(#fjlktykq2kakq)" style="stroke:#A80036;stroke-width:2.0;"/><text fill="#000000" font-family="sans-serif" font-size="14" lengthAdjust="spacing" textLength="100" x="5" y="353.3545">Administrator</text><ellipse cx="58" cy="366.6563" fill="#FEFECE" filter="url(#fjlktykq2kakq)" rx="8" ry="8" style="stroke:#A80036;stroke-width:2.0;"/><path d="M58,374.6563 L58,401.6563 M45,382.6563 L71,382.6563 M58,401.6563 L45,416.6563 M58,401.6563 L71,416.6563 " fill="none" filter="url(#fjlktykq2kakq)" style="stroke:#A80036;stroke-width:2.0;"/><rect fill="#FEFECE" filter="url(#fjlktykq2kakq)" height="30.2969" style="stroke:#A80036;stroke-width:1.5;" width="73" x="512.5" y="53"/><text fill="#000000" font-family="sans-serif" font-size="14" lengthAdjust="spacing" textLength="59" x="519.5" y="72.9951">:System</text><rect fill="#FEFECE" filter="url(#fjlktykq2kakq)" height="30.2969" style="stroke:#A80036;stroke-width:1.5;" width="73" x="512.5" y="340.3594"/><text fill="#000000" font-family="sans-serif" font-size="14" lengthAdjust="spacing" textLength="59" x="519.5" y="360.3545">:System</text><rect fill="#FFFFFF" filter="url(#fjlktykq2kakq)" height="225.0625" style="stroke:#A80036;stroke-width:1.0;" width="10" x="53" y="98.2969"/><rect fill="#FFFFFF" filter="url(#fjlktykq2kakq)" height="29.1328" style="stroke:#A80036;stroke-width:1.0;" width="10" x="546" y="119.4297"/><rect fill="#FFFFFF" filter="url(#fjlktykq2kakq)" height="29.1328" style="stroke:#A80036;stroke-width:1.0;" width="10" x="546" y="177.6953"/><rect fill="#FFFFFF" filter="url(#fjlktykq2kakq)" height="29.1328" style="stroke:#A80036;stroke-width:1.0;" width="10" x="546" y="235.9609"/><rect fill="#FFFFFF" filter="url(#fjlktykq2kakq)" height="29.1328" style="stroke:#A80036;stroke-width:1.0;" width="10" x="546" y="294.2266"/><polygon fill="#A80036" points="534,115.4297,544,119.4297,534,123.4297,538,119.4297" style="stroke:#A80036;stroke-width:1.0;"/><line style="stroke:#A80036;stroke-width:1.0;" x1="63" x2="540" y1="119.4297" y2="119.4297"/><text fill="#000000" font-family="sans-serif" font-size="13" font-weight="bold" lengthAdjust="spacing" textLength="9" x="70" y="114.3638">1</text><text fill="#000000" font-family="sans-serif" font-size="13" lengthAdjust="spacing" textLength="136" x="83" y="114.3638">starts new employee</text><polygon fill="#A80036" points="74,144.5625,64,148.5625,74,152.5625,70,148.5625" style="stroke:#A80036;stroke-width:1.0;"/><line style="stroke:#A80036;stroke-width:1.0;stroke-dasharray:2.0,2.0;" x1="68" x2="550" y1="148.5625" y2="148.5625"/><text fill="#000000" font-family="sans-serif" font-size="13" font-weight="bold" lengthAdjust="spacing" textLength="9" x="80" y="143.4966">2</text><text fill="#000000" font-family="sans-serif" font-size="13" lengthAdjust="spacing" textLength="446" x="93" y="143.4966">shows the list of organization roles and request to select one of them</text><polygon fill="#A80036" points="534,173.6953,544,177.6953,534,181.6953,538,177.6953" style="stroke:#A80036;stroke-width:1.0;"/><line style="stroke:#A80036;stroke-width:1.0;" x1="63" x2="540" y1="177.6953" y2="177.6953"/><text fill="#000000" font-family="sans-serif" font-size="13" font-weight="bold" lengthAdjust="spacing" textLength="8" x="70" y="172.6294">3</text><text fill="#000000" font-family="sans-serif" font-size="13" lengthAdjust="spacing" textLength="169" x="82" y="172.6294">select an organization role</text><polygon fill="#A80036" points="74,202.8281,64,206.8281,74,210.8281,70,206.8281" style="stroke:#A80036;stroke-width:1.0;"/><line style="stroke:#A80036;stroke-width:1.0;stroke-dasharray:2.0,2.0;" x1="68" x2="550" y1="206.8281" y2="206.8281"/><text fill="#000000" font-family="sans-serif" font-size="13" font-weight="bold" lengthAdjust="spacing" textLength="9" x="80" y="201.7622">4</text><text fill="#000000" font-family="sans-serif" font-size="13" lengthAdjust="spacing" textLength="395" x="93" y="201.7622">request data(name, adress, phone number, e-mail, soc code)</text><polygon fill="#A80036" points="534,231.9609,544,235.9609,534,239.9609,538,235.9609" style="stroke:#A80036;stroke-width:1.0;"/><line style="stroke:#A80036;stroke-width:1.0;" x1="63" x2="540" y1="235.9609" y2="235.9609"/><text fill="#000000" font-family="sans-serif" font-size="13" font-weight="bold" lengthAdjust="spacing" textLength="9" x="70" y="230.895">5</text><text fill="#000000" font-family="sans-serif" font-size="13" lengthAdjust="spacing" textLength="138" x="83" y="230.895">types requested data</text><polygon fill="#A80036" points="74,261.0938,64,265.0938,74,269.0938,70,265.0938" style="stroke:#A80036;stroke-width:1.0;"/><line style="stroke:#A80036;stroke-width:1.0;stroke-dasharray:2.0,2.0;" x1="68" x2="550" y1="265.0938" y2="265.0938"/><text fill="#000000" font-family="sans-serif" font-size="13" font-weight="bold" lengthAdjust="spacing" textLength="9" x="80" y="260.0278">6</text><text fill="#000000" font-family="sans-serif" font-size="13" lengthAdjust="spacing" textLength="277" x="93" y="260.0278">shows the data and request a confirmation</text><polygon fill="#A80036" points="534,290.2266,544,294.2266,534,298.2266,538,294.2266" style="stroke:#A80036;stroke-width:1.0;"/><line style="stroke:#A80036;stroke-width:1.0;" x1="63" x2="540" y1="294.2266" y2="294.2266"/><text fill="#000000" font-family="sans-serif" font-size="13" font-weight="bold" lengthAdjust="spacing" textLength="9" x="70" y="289.1606">7</text><text fill="#000000" font-family="sans-serif" font-size="13" lengthAdjust="spacing" textLength="114" x="83" y="289.1606">confirms the data</text><polygon fill="#A80036" points="69,319.3594,59,323.3594,69,327.3594,65,323.3594" style="stroke:#A80036;stroke-width:1.0;"/><line style="stroke:#A80036;stroke-width:1.0;stroke-dasharray:2.0,2.0;" x1="63" x2="550" y1="323.3594" y2="323.3594"/><text fill="#000000" font-family="sans-serif" font-size="13" font-weight="bold" lengthAdjust="spacing" textLength="9" x="75" y="318.2935">8</text><text fill="#000000" font-family="sans-serif" font-size="13" lengthAdjust="spacing" textLength="169" x="88" y="318.2935">informs operation success</text><!--MD5=[cdd3858618b80451623769af3458f202]
@startuml
actor Administrator as Adm
participant ":System" as System

autonumber
activate Adm
Adm -> System: starts new employee
activate System
System - -> Adm: shows the list of organization roles and request to select one of them
deactivate System
Adm -> System: select an organization role
activate System
System - -> Adm: request data(name, adress, phone number, e-mail, soc code)
deactivate System
Adm -> System: types requested data
activate System
System - -> Adm: shows the data and request a confirmation
deactivate System
Adm -> System: confirms the data
activate System
System - -> Adm: informs operation success
deactivate System
deactivate Adm
@enduml

PlantUML version 1.2021.5(Sun Apr 25 11:20:28 UTC 2021)
(GPL source distribution)
Java Runtime: Java(TM) SE Runtime Environment
JVM: Java HotSpot(TM) 64-Bit Server VM
Default Encoding: UTF-8
Language: en
Country: US
--></g></svg>