<?xml version="1.0" encoding="UTF-8" standalone="no"?><svg xmlns="http://www.w3.org/2000/svg" xmlns:xlink="http://www.w3.org/1999/xlink" contentScriptType="application/ecmascript" contentStyleType="text/css" height="1788px" preserveAspectRatio="none" style="width:3065px;height:1788px;background:#FFFFFF;" version="1.1" viewBox="0 0 3065 1788" width="3065px" zoomAndPan="magnify"><defs><filter height="300%" id="fi2pjp97x5dkg" width="300%" x="-1" y="-1"><feGaussianBlur result="blurOut" stdDeviation="2.0"/><feColorMatrix in="blurOut" result="blurOut2" type="matrix" values="0 0 0 0 0 0 0 0 0 0 0 0 0 0 0 0 0 0 .4 0"/><feOffset dx="4.0" dy="4.0" in="blurOut2" result="blurOut3"/><feBlend in="SourceGraphic" in2="blurOut3" mode="normal"/></filter></defs><g><rect fill="#FFFFFF" filter="url(#fi2pjp97x5dkg)" height="1588.2422" style="stroke:#A80036;stroke-width:1.0;" width="10" x="68" y="98.2969"/><rect fill="#FFFFFF" filter="url(#fi2pjp97x5dkg)" height="176.5313" style="stroke:#A80036;stroke-width:1.0;" width="10" x="628" y="119.4297"/><rect fill="#FFFFFF" filter="url(#fi2pjp97x5dkg)" height="97.3984" style="stroke:#A80036;stroke-width:1.0;" width="10" x="628" y="325.0938"/><rect fill="#FFFFFF" filter="url(#fi2pjp97x5dkg)" height="922.9844" style="stroke:#A80036;stroke-width:1.0;" width="10" x="628" y="443.625"/><rect fill="#FFFFFF" filter="url(#fi2pjp97x5dkg)" height="290.7969" style="stroke:#A80036;stroke-width:1.0;" width="10" x="628" y="1395.7422"/><rect fill="#FFFFFF" filter="url(#fi2pjp97x5dkg)" height="118.2656" style="stroke:#A80036;stroke-width:1.0;" width="10" x="847" y="148.5625"/><rect fill="#FFFFFF" filter="url(#fi2pjp97x5dkg)" height="864.7188" style="stroke:#A80036;stroke-width:1.0;" width="10" x="847" y="472.7578"/><rect fill="#FFFFFF" filter="url(#fi2pjp97x5dkg)" height="232.5313" style="stroke:#A80036;stroke-width:1.0;" width="10" x="847" y="1424.875"/><rect fill="#FFFFFF" filter="url(#fi2pjp97x5dkg)" height="30" style="stroke:#A80036;stroke-width:1.0;" width="10" x="1123.5" y="236.8281"/><rect fill="#FFFFFF" filter="url(#fi2pjp97x5dkg)" height="784.4531" style="stroke:#A80036;stroke-width:1.0;" width="10" x="1261.5" y="501.8906"/><rect fill="#FFFFFF" filter="url(#fi2pjp97x5dkg)" height="30" style="stroke:#A80036;stroke-width:1.0;" width="10" x="1261.5" y="1307.4766"/><rect fill="#FFFFFF" filter="url(#fi2pjp97x5dkg)" height="203.3984" style="stroke:#A80036;stroke-width:1.0;" width="10" x="1261.5" y="1454.0078"/><rect fill="#FFFFFF" filter="url(#fi2pjp97x5dkg)" height="28" style="stroke:#A80036;stroke-width:1.0;" width="10" x="1266.5" y="1491.1406"/><rect fill="#FFFFFF" filter="url(#fi2pjp97x5dkg)" height="28" style="stroke:#A80036;stroke-width:1.0;" width="10" x="1266.5" y="1563.2734"/><rect fill="#FFFFFF" filter="url(#fi2pjp97x5dkg)" height="755.3203" style="stroke:#A80036;stroke-width:1.0;" width="10" x="1460.5" y="531.0234"/><rect fill="#FFFFFF" filter="url(#fi2pjp97x5dkg)" height="30" style="stroke:#A80036;stroke-width:1.0;" width="10" x="1816.5" y="560.1563"/><rect fill="#FFFFFF" filter="url(#fi2pjp97x5dkg)" height="30" style="stroke:#A80036;stroke-width:1.0;" width="10" x="1816.5" y="678.4219"/><rect fill="#FFFFFF" filter="url(#fi2pjp97x5dkg)" height="30" style="stroke:#A80036;stroke-width:1.0;" width="10" x="1816.5" y="737.5547"/><rect fill="#FFFFFF" filter="url(#fi2pjp97x5dkg)" height="30" style="stroke:#A80036;stroke-width:1.0;" width="10" x="1816.5" y="796.6875"/><rect fill="#FFFFFF" filter="url(#fi2pjp97x5dkg)" height="30" style="stroke:#A80036;stroke-width:1.0;" width="10" x="1816.5" y="855.8203"/><rect fill="#FFFFFF" filter="url(#fi2pjp97x5dkg)" height="30" style="stroke:#A80036;stroke-width:1.0;" width="10" x="1816.5" y="914.9531"/><rect fill="#FFFFFF" filter="url(#fi2pjp97x5dkg)" height="30" style="stroke:#A80036;stroke-width:1.0;" width="10" x="1816.5" y="974.0859"/><rect fill="#FFFFFF" filter="url(#fi2pjp97x5dkg)" height="30" style="stroke:#A80036;stroke-width:1.0;" width="10" x="1816.5" y="1088.4844"/><rect fill="#FFFFFF" filter="url(#fi2pjp97x5dkg)" height="30" style="stroke:#A80036;stroke-width:1.0;" width="10" x="1972.5" y="177.6953"/><rect fill="#FFFFFF" filter="url(#fi2pjp97x5dkg)" height="30" style="stroke:#A80036;stroke-width:1.0;" width="10" x="1972.5" y="619.2891"/><rect fill="#FFFFFF" filter="url(#fi2pjp97x5dkg)" height="228.9922" style="stroke:#A80036;stroke-width:1.0;" width="10" x="2216.5" y="1057.3516"/><rect fill="#FFFFFF" filter="url(#fi2pjp97x5dkg)" height="30" style="stroke:#A80036;stroke-width:1.0;" width="10" x="2332" y="1627.4063"/><rect fill="#FFFFFF" filter="url(#fi2pjp97x5dkg)" height="46.2656" style="stroke:#000000;stroke-width:2.0;" width="710" x="10" y="369.2266"/><rect fill="#FFFFFF" filter="url(#fi2pjp97x5dkg)" height="136.5313" style="stroke:#000000;stroke-width:2.0;" width="905.5" x="1380.5" y="1019.0859"/><rect fill="#FFFFFF" height="90.2656" style="stroke:none;stroke-width:1.0;" width="905.5" x="1380.5" y="1065.3516"/><rect fill="#FFFFFF" filter="url(#fi2pjp97x5dkg)" height="109.7266" style="stroke:#000000;stroke-width:2.0;" width="894.5" x="2157" y="1169.6172"/><rect fill="#FFFFFF" height="47.2969" style="stroke:none;stroke-width:1.0;" width="894.5" x="2157" y="1232.0469"/><line style="stroke:#A80036;stroke-width:1.0;stroke-dasharray:5.0,5.0;" x1="73" x2="73" y1="88.2969" y2="1704.5391"/><line style="stroke:#A80036;stroke-width:1.0;stroke-dasharray:5.0,5.0;" x1="633" x2="633" y1="88.2969" y2="1704.5391"/><line style="stroke:#A80036;stroke-width:1.0;stroke-dasharray:5.0,5.0;" x1="852" x2="852" y1="88.2969" y2="1704.5391"/><line style="stroke:#A80036;stroke-width:1.0;stroke-dasharray:5.0,5.0;" x1="1014" x2="1014" y1="88.2969" y2="1704.5391"/><line style="stroke:#A80036;stroke-width:1.0;stroke-dasharray:5.0,5.0;" x1="1128" x2="1128" y1="88.2969" y2="1704.5391"/><line style="stroke:#A80036;stroke-width:1.0;stroke-dasharray:5.0,5.0;" x1="1266" x2="1266" y1="88.2969" y2="1704.5391"/><line style="stroke:#A80036;stroke-width:1.0;stroke-dasharray:5.0,5.0;" x1="1465.5" x2="1465.5" y1="88.2969" y2="1704.5391"/><line style="stroke:#A80036;stroke-width:1.0;stroke-dasharray:5.0,5.0;" x1="1821.5" x2="1821.5" y1="88.2969" y2="1704.5391"/><line style="stroke:#A80036;stroke-width:1.0;stroke-dasharray:5.0,5.0;" x1="1977.5" x2="1977.5" y1="88.2969" y2="1704.5391"/><line style="stroke:#A80036;stroke-width:1.0;stroke-dasharray:5.0,5.0;" x1="2221" x2="2221" y1="88.2969" y2="1704.5391"/><line style="stroke:#A80036;stroke-width:1.0;stroke-dasharray:5.0,5.0;" x1="2337" x2="2337" y1="88.2969" y2="1704.5391"/><line style="stroke:#A80036;stroke-width:1.0;stroke-dasharray:5.0,5.0;" x1="2791.5" x2="2791.5" y1="1219.3984" y2="1704.5391"/><line style="stroke:#A80036;stroke-width:1.0;stroke-dasharray:5.0,5.0;" x1="2953.5" x2="2953.5" y1="1266.6953" y2="1704.5391"/><text fill="#000000" font-family="sans-serif" font-size="14" lengthAdjust="spacing" textLength="100" x="20" y="84.9951">Administrator</text><ellipse cx="73" cy="15" fill="#FEFECE" filter="url(#fi2pjp97x5dkg)" rx="8" ry="8" style="stroke:#A80036;stroke-width:2.0;"/><path d="M73,23 L73,50 M60,31 L86,31 M73,50 L60,65 M73,50 L86,65 " fill="none" filter="url(#fi2pjp97x5dkg)" style="stroke:#A80036;stroke-width:2.0;"/><text fill="#000000" font-family="sans-serif" font-size="14" lengthAdjust="spacing" textLength="100" x="20" y="1716.5342">Administrator</text><ellipse cx="73" cy="1729.8359" fill="#FEFECE" filter="url(#fi2pjp97x5dkg)" rx="8" ry="8" style="stroke:#A80036;stroke-width:2.0;"/><path d="M73,1737.8359 L73,1764.8359 M60,1745.8359 L86,1745.8359 M73,1764.8359 L60,1779.8359 M73,1764.8359 L86,1779.8359 " fill="none" filter="url(#fi2pjp97x5dkg)" style="stroke:#A80036;stroke-width:2.0;"/><rect fill="#FEFECE" filter="url(#fi2pjp97x5dkg)" height="30.2969" style="stroke:#A80036;stroke-width:1.5;" width="150" x="556" y="53"/><text fill="#000000" font-family="sans-serif" font-size="14" lengthAdjust="spacing" textLength="136" x="563" y="72.9951">:RegistEmployeeUI</text><rect fill="#FEFECE" filter="url(#fi2pjp97x5dkg)" height="30.2969" style="stroke:#A80036;stroke-width:1.5;" width="150" x="556" y="1703.5391"/><text fill="#000000" font-family="sans-serif" font-size="14" lengthAdjust="spacing" textLength="136" x="563" y="1723.5342">:RegistEmployeeUI</text><rect fill="#FEFECE" filter="url(#fi2pjp97x5dkg)" height="30.2969" style="stroke:#A80036;stroke-width:1.5;" width="210" x="745" y="53"/><text fill="#000000" font-family="sans-serif" font-size="14" lengthAdjust="spacing" textLength="196" x="752" y="72.9951">:RegistEmployeeController</text><rect fill="#FEFECE" filter="url(#fi2pjp97x5dkg)" height="30.2969" style="stroke:#A80036;stroke-width:1.5;" width="210" x="745" y="1703.5391"/><text fill="#000000" font-family="sans-serif" font-size="14" lengthAdjust="spacing" textLength="196" x="752" y="1723.5342">:RegistEmployeeController</text><rect fill="#FEFECE" filter="url(#fi2pjp97x5dkg)" height="30.2969" style="stroke:#A80036;stroke-width:1.5;" width="87" x="969" y="53"/><text fill="#000000" font-family="sans-serif" font-size="14" lengthAdjust="spacing" textLength="73" x="976" y="72.9951">:Company</text><rect fill="#FEFECE" filter="url(#fi2pjp97x5dkg)" height="30.2969" style="stroke:#A80036;stroke-width:1.5;" width="87" x="969" y="1703.5391"/><text fill="#000000" font-family="sans-serif" font-size="14" lengthAdjust="spacing" textLength="73" x="976" y="1723.5342">:Company</text><rect fill="#FEFECE" filter="url(#fi2pjp97x5dkg)" height="30.2969" style="stroke:#A80036;stroke-width:1.5;" width="113" x="1070" y="53"/><text fill="#000000" font-family="sans-serif" font-size="14" lengthAdjust="spacing" textLength="99" x="1077" y="72.9951">:RolesMapper</text><rect fill="#FEFECE" filter="url(#fi2pjp97x5dkg)" height="30.2969" style="stroke:#A80036;stroke-width:1.5;" width="113" x="1070" y="1703.5391"/><text fill="#000000" font-family="sans-serif" font-size="14" lengthAdjust="spacing" textLength="99" x="1077" y="1723.5342">:RolesMapper</text><rect fill="#FEFECE" filter="url(#fi2pjp97x5dkg)" height="46.5938" style="stroke:#A80036;stroke-width:1.5;" width="135" x="1197" y="36.7031"/><text fill="#000000" font-family="sans-serif" font-size="14" lengthAdjust="spacing" textLength="38" x="1243.5" y="56.6982">store</text><text fill="#000000" font-family="sans-serif" font-size="14" lengthAdjust="spacing" textLength="117" x="1208" y="72.9951">:EmployeeStore</text><rect fill="#FEFECE" filter="url(#fi2pjp97x5dkg)" height="46.5938" style="stroke:#A80036;stroke-width:1.5;" width="135" x="1197" y="1703.5391"/><text fill="#000000" font-family="sans-serif" font-size="14" lengthAdjust="spacing" textLength="38" x="1243.5" y="1723.5342">store</text><text fill="#000000" font-family="sans-serif" font-size="14" lengthAdjust="spacing" textLength="117" x="1208" y="1739.8311">:EmployeeStore</text><rect fill="#FEFECE" filter="url(#fi2pjp97x5dkg)" height="30.2969" style="stroke:#A80036;stroke-width:1.5;" width="146" x="1390.5" y="53"/><text fill="#000000" font-family="sans-serif" font-size="14" lengthAdjust="spacing" textLength="132" x="1397.5" y="72.9951">:EmployeeMapper</text><rect fill="#FEFECE" filter="url(#fi2pjp97x5dkg)" height="30.2969" style="stroke:#A80036;stroke-width:1.5;" width="146" x="1390.5" y="1703.5391"/><text fill="#000000" font-family="sans-serif" font-size="14" lengthAdjust="spacing" textLength="132" x="1397.5" y="1723.5342">:EmployeeMapper</text><rect fill="#FEFECE" filter="url(#fi2pjp97x5dkg)" height="30.2969" style="stroke:#A80036;stroke-width:1.5;" width="182" x="1728.5" y="53"/><text fill="#000000" font-family="sans-serif" font-size="14" lengthAdjust="spacing" textLength="168" x="1735.5" y="72.9951">empDto: EmployeeDto</text><rect fill="#FEFECE" filter="url(#fi2pjp97x5dkg)" height="30.2969" style="stroke:#A80036;stroke-width:1.5;" width="182" x="1728.5" y="1703.5391"/><text fill="#000000" font-family="sans-serif" font-size="14" lengthAdjust="spacing" textLength="168" x="1735.5" y="1723.5342">empDto: EmployeeDto</text><rect fill="#FEFECE" filter="url(#fi2pjp97x5dkg)" height="46.5938" style="stroke:#A80036;stroke-width:1.5;" width="102" x="1924.5" y="36.7031"/><text fill="#000000" font-family="sans-serif" font-size="14" lengthAdjust="spacing" textLength="38" x="1954.5" y="56.6982">store</text><text fill="#000000" font-family="sans-serif" font-size="14" lengthAdjust="spacing" textLength="84" x="1935.5" y="72.9951">:RolesStore</text><rect fill="#FEFECE" filter="url(#fi2pjp97x5dkg)" height="46.5938" style="stroke:#A80036;stroke-width:1.5;" width="102" x="1924.5" y="1703.5391"/><text fill="#000000" font-family="sans-serif" font-size="14" lengthAdjust="spacing" textLength="38" x="1954.5" y="1723.5342">store</text><text fill="#000000" font-family="sans-serif" font-size="14" lengthAdjust="spacing" textLength="84" x="1935.5" y="1739.8311">:RolesStore</text><rect fill="#FEFECE" filter="url(#fi2pjp97x5dkg)" height="30.2969" style="stroke:#A80036;stroke-width:1.5;" width="105" x="2167" y="53"/><text fill="#000000" font-family="sans-serif" font-size="14" lengthAdjust="spacing" textLength="91" x="2174" y="72.9951">role:OrgRole</text><rect fill="#FEFECE" filter="url(#fi2pjp97x5dkg)" height="30.2969" style="stroke:#A80036;stroke-width:1.5;" width="105" x="2167" y="1703.5391"/><text fill="#000000" font-family="sans-serif" font-size="14" lengthAdjust="spacing" textLength="91" x="2174" y="1723.5342">role:OrgRole</text><rect fill="#FEFECE" filter="url(#fi2pjp97x5dkg)" height="30.2969" style="stroke:#A80036;stroke-width:1.5;" width="98" x="2286" y="53"/><text fill="#000000" font-family="sans-serif" font-size="14" lengthAdjust="spacing" textLength="84" x="2293" y="72.9951">AuthFacade</text><rect fill="#FEFECE" filter="url(#fi2pjp97x5dkg)" height="30.2969" style="stroke:#A80036;stroke-width:1.5;" width="98" x="2286" y="1703.5391"/><text fill="#000000" font-family="sans-serif" font-size="14" lengthAdjust="spacing" textLength="84" x="2293" y="1723.5342">AuthFacade</text><rect fill="#FEFECE" filter="url(#fi2pjp97x5dkg)" height="30.2969" style="stroke:#A80036;stroke-width:1.5;" width="124" x="2727.5" y="1703.5391"/><text fill="#000000" font-family="sans-serif" font-size="14" lengthAdjust="spacing" textLength="110" x="2734.5" y="1723.5342">emp:Employee</text><rect fill="#FEFECE" filter="url(#fi2pjp97x5dkg)" height="30.2969" style="stroke:#A80036;stroke-width:1.5;" width="172" x="2865.5" y="1703.5391"/><text fill="#000000" font-family="sans-serif" font-size="14" lengthAdjust="spacing" textLength="158" x="2872.5" y="1723.5342">emp:SpecialistDoctor</text><rect fill="#FFFFFF" filter="url(#fi2pjp97x5dkg)" height="1588.2422" style="stroke:#A80036;stroke-width:1.0;" width="10" x="68" y="98.2969"/><rect fill="#FFFFFF" filter="url(#fi2pjp97x5dkg)" height="176.5313" style="stroke:#A80036;stroke-width:1.0;" width="10" x="628" y="119.4297"/><rect fill="#FFFFFF" filter="url(#fi2pjp97x5dkg)" height="97.3984" style="stroke:#A80036;stroke-width:1.0;" width="10" x="628" y="325.0938"/><rect fill="#FFFFFF" filter="url(#fi2pjp97x5dkg)" height="922.9844" style="stroke:#A80036;stroke-width:1.0;" width="10" x="628" y="443.625"/><rect fill="#FFFFFF" filter="url(#fi2pjp97x5dkg)" height="290.7969" style="stroke:#A80036;stroke-width:1.0;" width="10" x="628" y="1395.7422"/><rect fill="#FFFFFF" filter="url(#fi2pjp97x5dkg)" height="118.2656" style="stroke:#A80036;stroke-width:1.0;" width="10" x="847" y="148.5625"/><rect fill="#FFFFFF" filter="url(#fi2pjp97x5dkg)" height="864.7188" style="stroke:#A80036;stroke-width:1.0;" width="10" x="847" y="472.7578"/><rect fill="#FFFFFF" filter="url(#fi2pjp97x5dkg)" height="232.5313" style="stroke:#A80036;stroke-width:1.0;" width="10" x="847" y="1424.875"/><rect fill="#FFFFFF" filter="url(#fi2pjp97x5dkg)" height="30" style="stroke:#A80036;stroke-width:1.0;" width="10" x="1123.5" y="236.8281"/><rect fill="#FFFFFF" filter="url(#fi2pjp97x5dkg)" height="784.4531" style="stroke:#A80036;stroke-width:1.0;" width="10" x="1261.5" y="501.8906"/><rect fill="#FFFFFF" filter="url(#fi2pjp97x5dkg)" height="30" style="stroke:#A80036;stroke-width:1.0;" width="10" x="1261.5" y="1307.4766"/><rect fill="#FFFFFF" filter="url(#fi2pjp97x5dkg)" height="203.3984" style="stroke:#A80036;stroke-width:1.0;" width="10" x="1261.5" y="1454.0078"/><rect fill="#FFFFFF" filter="url(#fi2pjp97x5dkg)" height="28" style="stroke:#A80036;stroke-width:1.0;" width="10" x="1266.5" y="1491.1406"/><rect fill="#FFFFFF" filter="url(#fi2pjp97x5dkg)" height="28" style="stroke:#A80036;stroke-width:1.0;" width="10" x="1266.5" y="1563.2734"/><rect fill="#FFFFFF" filter="url(#fi2pjp97x5dkg)" height="755.3203" style="stroke:#A80036;stroke-width:1.0;" width="10" x="1460.5" y="531.0234"/><rect fill="#FFFFFF" filter="url(#fi2pjp97x5dkg)" height="30" style="stroke:#A80036;stroke-width:1.0;" width="10" x="1816.5" y="560.1563"/><rect fill="#FFFFFF" filter="url(#fi2pjp97x5dkg)" height="30" style="stroke:#A80036;stroke-width:1.0;" width="10" x="1816.5" y="678.4219"/><rect fill="#FFFFFF" filter="url(#fi2pjp97x5dkg)" height="30" style="stroke:#A80036;stroke-width:1.0;" width="10" x="1816.5" y="737.5547"/><rect fill="#FFFFFF" filter="url(#fi2pjp97x5dkg)" height="30" style="stroke:#A80036;stroke-width:1.0;" width="10" x="1816.5" y="796.6875"/><rect fill="#FFFFFF" filter="url(#fi2pjp97x5dkg)" height="30" style="stroke:#A80036;stroke-width:1.0;" width="10" x="1816.5" y="855.8203"/><rect fill="#FFFFFF" filter="url(#fi2pjp97x5dkg)" height="30" style="stroke:#A80036;stroke-width:1.0;" width="10" x="1816.5" y="914.9531"/><rect fill="#FFFFFF" filter="url(#fi2pjp97x5dkg)" height="30" style="stroke:#A80036;stroke-width:1.0;" width="10" x="1816.5" y="974.0859"/><rect fill="#FFFFFF" filter="url(#fi2pjp97x5dkg)" height="30" style="stroke:#A80036;stroke-width:1.0;" width="10" x="1816.5" y="1088.4844"/><rect fill="#FFFFFF" filter="url(#fi2pjp97x5dkg)" height="30" style="stroke:#A80036;stroke-width:1.0;" width="10" x="1972.5" y="177.6953"/><rect fill="#FFFFFF" filter="url(#fi2pjp97x5dkg)" height="30" style="stroke:#A80036;stroke-width:1.0;" width="10" x="1972.5" y="619.2891"/><rect fill="#FFFFFF" filter="url(#fi2pjp97x5dkg)" height="228.9922" style="stroke:#A80036;stroke-width:1.0;" width="10" x="2216.5" y="1057.3516"/><rect fill="#FFFFFF" filter="url(#fi2pjp97x5dkg)" height="30" style="stroke:#A80036;stroke-width:1.0;" width="10" x="2332" y="1627.4063"/><polygon fill="#A80036" points="616,115.4297,626,119.4297,616,123.4297,620,119.4297" style="stroke:#A80036;stroke-width:1.0;"/><line style="stroke:#A80036;stroke-width:1.0;" x1="78" x2="622" y1="119.4297" y2="119.4297"/><text fill="#000000" font-family="sans-serif" font-size="13" font-weight="bold" lengthAdjust="spacing" textLength="9" x="85" y="114.3638">1</text><text fill="#000000" font-family="sans-serif" font-size="13" lengthAdjust="spacing" textLength="220" x="98" y="114.3638">starts registering a new employee</text><polygon fill="#A80036" points="835,144.5625,845,148.5625,835,152.5625,839,148.5625" style="stroke:#A80036;stroke-width:1.0;"/><line style="stroke:#A80036;stroke-width:1.0;" x1="638" x2="841" y1="148.5625" y2="148.5625"/><text fill="#000000" font-family="sans-serif" font-size="13" font-weight="bold" lengthAdjust="spacing" textLength="9" x="645" y="143.4966">2</text><text fill="#000000" font-family="sans-serif" font-size="13" lengthAdjust="spacing" textLength="145" x="658" y="143.4966">IRolesDto = getRoles()</text><polygon fill="#A80036" points="1960.5,173.6953,1970.5,177.6953,1960.5,181.6953,1964.5,177.6953" style="stroke:#A80036;stroke-width:1.0;"/><line style="stroke:#A80036;stroke-width:1.0;" x1="857" x2="1966.5" y1="177.6953" y2="177.6953"/><text fill="#000000" font-family="sans-serif" font-size="13" font-weight="bold" lengthAdjust="spacing" textLength="8" x="864" y="172.6294">3</text><text fill="#000000" font-family="sans-serif" font-size="13" lengthAdjust="spacing" textLength="122" x="876" y="172.6294">lRoles = getRoles()</text><polygon fill="#A80036" points="1111.5,232.8281,1121.5,236.8281,1111.5,240.8281,1115.5,236.8281" style="stroke:#A80036;stroke-width:1.0;"/><line style="stroke:#A80036;stroke-width:1.0;" x1="857" x2="1117.5" y1="236.8281" y2="236.8281"/><text fill="#000000" font-family="sans-serif" font-size="13" font-weight="bold" lengthAdjust="spacing" textLength="9" x="864" y="231.7622">4</text><text fill="#000000" font-family="sans-serif" font-size="13" lengthAdjust="spacing" textLength="168" x="877" y="231.7622">lRolesDto = toDTO(lRoles)</text><polygon fill="#A80036" points="89,291.9609,79,295.9609,89,299.9609,85,295.9609" style="stroke:#A80036;stroke-width:1.0;"/><line style="stroke:#A80036;stroke-width:1.0;stroke-dasharray:2.0,2.0;" x1="83" x2="632" y1="295.9609" y2="295.9609"/><text fill="#000000" font-family="sans-serif" font-size="13" font-weight="bold" lengthAdjust="spacing" textLength="9" x="95" y="290.895">5</text><text fill="#000000" font-family="sans-serif" font-size="13" lengthAdjust="spacing" textLength="202" x="108" y="290.895">ask to select the employee role</text><polygon fill="#A80036" points="616,321.0938,626,325.0938,616,329.0938,620,325.0938" style="stroke:#A80036;stroke-width:1.0;"/><line style="stroke:#A80036;stroke-width:1.0;" x1="78" x2="622" y1="325.0938" y2="325.0938"/><text fill="#000000" font-family="sans-serif" font-size="13" font-weight="bold" lengthAdjust="spacing" textLength="9" x="85" y="320.0278">6</text><text fill="#000000" font-family="sans-serif" font-size="13" lengthAdjust="spacing" textLength="158" x="98" y="320.0278">selects the intended role</text><polygon fill="#A80036" points="89,350.2266,79,354.2266,89,358.2266,85,354.2266" style="stroke:#A80036;stroke-width:1.0;"/><line style="stroke:#A80036;stroke-width:1.0;stroke-dasharray:2.0,2.0;" x1="83" x2="627" y1="354.2266" y2="354.2266"/><text fill="#000000" font-family="sans-serif" font-size="13" font-weight="bold" lengthAdjust="spacing" textLength="9" x="95" y="349.1606">7</text><text fill="#000000" font-family="sans-serif" font-size="13" lengthAdjust="spacing" textLength="513" x="108" y="349.1606">request data (userRole, name, address, phoneNumber, emailAddress, socCode)</text><path d="M10,369.2266 L82,369.2266 L82,376.2266 L72,386.2266 L10,386.2266 L10,369.2266 " fill="#EEEEEE" style="stroke:#000000;stroke-width:1.0;"/><rect fill="none" height="46.2656" style="stroke:#000000;stroke-width:2.0;" width="710" x="10" y="369.2266"/><text fill="#000000" font-family="sans-serif" font-size="13" font-weight="bold" lengthAdjust="spacing" textLength="27" x="25" y="382.2935">opt</text><text fill="#000000" font-family="sans-serif" font-size="11" font-weight="bold" lengthAdjust="spacing" textLength="170" x="97" y="381.437">[role = Specialist Doctor]</text><polygon fill="#A80036" points="89,403.4922,79,407.4922,89,411.4922,85,407.4922" style="stroke:#A80036;stroke-width:1.0;"/><line style="stroke:#A80036;stroke-width:1.0;stroke-dasharray:2.0,2.0;" x1="83" x2="627" y1="407.4922" y2="407.4922"/><text fill="#000000" font-family="sans-serif" font-size="13" font-weight="bold" lengthAdjust="spacing" textLength="9" x="95" y="402.4263">8</text><text fill="#000000" font-family="sans-serif" font-size="13" lengthAdjust="spacing" textLength="219" x="108" y="402.4263">request data(doctorIndexNumber)</text><polygon fill="#A80036" points="616,439.625,626,443.625,616,447.625,620,443.625" style="stroke:#A80036;stroke-width:1.0;"/><line style="stroke:#A80036;stroke-width:1.0;" x1="78" x2="622" y1="443.625" y2="443.625"/><text fill="#000000" font-family="sans-serif" font-size="13" font-weight="bold" lengthAdjust="spacing" textLength="9" x="85" y="438.5591">9</text><text fill="#000000" font-family="sans-serif" font-size="13" lengthAdjust="spacing" textLength="138" x="98" y="438.5591">types requested data</text><polygon fill="#A80036" points="835,468.7578,845,472.7578,835,476.7578,839,472.7578" style="stroke:#A80036;stroke-width:1.0;"/><line style="stroke:#A80036;stroke-width:1.0;stroke-dasharray:2.0,2.0;" x1="638" x2="841" y1="472.7578" y2="472.7578"/><text fill="#000000" font-family="sans-serif" font-size="13" font-weight="bold" lengthAdjust="spacing" textLength="19" x="645" y="467.6919">10</text><text fill="#000000" font-family="sans-serif" font-size="13" lengthAdjust="spacing" textLength="167" x="668" y="467.6919">createEmployee(empDto)</text><polygon fill="#A80036" points="1249.5,497.8906,1259.5,501.8906,1249.5,505.8906,1253.5,501.8906" style="stroke:#A80036;stroke-width:1.0;"/><line style="stroke:#A80036;stroke-width:1.0;" x1="857" x2="1255.5" y1="501.8906" y2="501.8906"/><text fill="#000000" font-family="sans-serif" font-size="13" font-weight="bold" lengthAdjust="spacing" textLength="18" x="864" y="496.8247">11</text><text fill="#000000" font-family="sans-serif" font-size="13" lengthAdjust="spacing" textLength="167" x="886" y="496.8247">createEmployee(empDto)</text><polygon fill="#A80036" points="1448.5,527.0234,1458.5,531.0234,1448.5,535.0234,1452.5,531.0234" style="stroke:#A80036;stroke-width:1.0;"/><line style="stroke:#A80036;stroke-width:1.0;" x1="1271.5" x2="1454.5" y1="531.0234" y2="531.0234"/><text fill="#000000" font-family="sans-serif" font-size="13" font-weight="bold" lengthAdjust="spacing" textLength="18" x="1278.5" y="525.9575">12</text><text fill="#000000" font-family="sans-serif" font-size="13" lengthAdjust="spacing" textLength="103" x="1300.5" y="525.9575">toDTO(empDto)</text><polygon fill="#A80036" points="1804.5,556.1563,1814.5,560.1563,1804.5,564.1563,1808.5,560.1563" style="stroke:#A80036;stroke-width:1.0;"/><line style="stroke:#A80036;stroke-width:1.0;" x1="1470.5" x2="1810.5" y1="560.1563" y2="560.1563"/><text fill="#000000" font-family="sans-serif" font-size="13" font-weight="bold" lengthAdjust="spacing" textLength="17" x="1477.5" y="555.0903">13</text><text fill="#000000" font-family="sans-serif" font-size="13" lengthAdjust="spacing" textLength="123" x="1498.5" y="555.0903">roleId = getRoleId()</text><polygon fill="#A80036" points="1960.5,615.2891,1970.5,619.2891,1960.5,623.2891,1964.5,619.2891" style="stroke:#A80036;stroke-width:1.0;"/><line style="stroke:#A80036;stroke-width:1.0;" x1="1470.5" x2="1966.5" y1="619.2891" y2="619.2891"/><text fill="#000000" font-family="sans-serif" font-size="13" font-weight="bold" lengthAdjust="spacing" textLength="18" x="1477.5" y="614.2231">14</text><text fill="#000000" font-family="sans-serif" font-size="13" lengthAdjust="spacing" textLength="163" x="1499.5" y="614.2231">role = getRoleById(roleId)</text><polygon fill="#A80036" points="1804.5,674.4219,1814.5,678.4219,1804.5,682.4219,1808.5,678.4219" style="stroke:#A80036;stroke-width:1.0;"/><line style="stroke:#A80036;stroke-width:1.0;" x1="1470.5" x2="1810.5" y1="678.4219" y2="678.4219"/><text fill="#000000" font-family="sans-serif" font-size="13" font-weight="bold" lengthAdjust="spacing" textLength="18" x="1477.5" y="673.356">15</text><text fill="#000000" font-family="sans-serif" font-size="13" lengthAdjust="spacing" textLength="71" x="1499.5" y="673.356">id = getId()</text><polygon fill="#A80036" points="1804.5,733.5547,1814.5,737.5547,1804.5,741.5547,1808.5,737.5547" style="stroke:#A80036;stroke-width:1.0;"/><line style="stroke:#A80036;stroke-width:1.0;" x1="1470.5" x2="1810.5" y1="737.5547" y2="737.5547"/><text fill="#000000" font-family="sans-serif" font-size="13" font-weight="bold" lengthAdjust="spacing" textLength="18" x="1477.5" y="732.4888">16</text><text fill="#000000" font-family="sans-serif" font-size="13" lengthAdjust="spacing" textLength="124" x="1499.5" y="732.4888">name = getName()</text><polygon fill="#A80036" points="1804.5,792.6875,1814.5,796.6875,1804.5,800.6875,1808.5,796.6875" style="stroke:#A80036;stroke-width:1.0;"/><line style="stroke:#A80036;stroke-width:1.0;" x1="1470.5" x2="1810.5" y1="796.6875" y2="796.6875"/><text fill="#000000" font-family="sans-serif" font-size="13" font-weight="bold" lengthAdjust="spacing" textLength="18" x="1477.5" y="791.6216">17</text><text fill="#000000" font-family="sans-serif" font-size="13" lengthAdjust="spacing" textLength="136" x="1499.5" y="791.6216">adress = getAdress()</text><polygon fill="#A80036" points="1804.5,851.8203,1814.5,855.8203,1804.5,859.8203,1808.5,855.8203" style="stroke:#A80036;stroke-width:1.0;"/><line style="stroke:#A80036;stroke-width:1.0;" x1="1470.5" x2="1810.5" y1="855.8203" y2="855.8203"/><text fill="#000000" font-family="sans-serif" font-size="13" font-weight="bold" lengthAdjust="spacing" textLength="18" x="1477.5" y="850.7544">18</text><text fill="#000000" font-family="sans-serif" font-size="13" lengthAdjust="spacing" textLength="231" x="1499.5" y="850.7544">phoneNumber = getphoneNumber()</text><polygon fill="#A80036" points="1804.5,910.9531,1814.5,914.9531,1804.5,918.9531,1808.5,914.9531" style="stroke:#A80036;stroke-width:1.0;"/><line style="stroke:#A80036;stroke-width:1.0;" x1="1470.5" x2="1810.5" y1="914.9531" y2="914.9531"/><text fill="#000000" font-family="sans-serif" font-size="13" font-weight="bold" lengthAdjust="spacing" textLength="18" x="1477.5" y="909.8872">19</text><text fill="#000000" font-family="sans-serif" font-size="13" lengthAdjust="spacing" textLength="207" x="1499.5" y="909.8872">emailAdress = getEmailAdress()</text><polygon fill="#A80036" points="1804.5,970.0859,1814.5,974.0859,1804.5,978.0859,1808.5,974.0859" style="stroke:#A80036;stroke-width:1.0;"/><line style="stroke:#A80036;stroke-width:1.0;" x1="1470.5" x2="1810.5" y1="974.0859" y2="974.0859"/><text fill="#000000" font-family="sans-serif" font-size="13" font-weight="bold" lengthAdjust="spacing" textLength="19" x="1477.5" y="969.02">20</text><text fill="#000000" font-family="sans-serif" font-size="13" lengthAdjust="spacing" textLength="159" x="1500.5" y="969.02">socCode = getsocCode()</text><path d="M1380.5,1019.0859 L1446.5,1019.0859 L1446.5,1026.0859 L1436.5,1036.0859 L1380.5,1036.0859 L1380.5,1019.0859 " fill="#EEEEEE" style="stroke:#000000;stroke-width:1.0;"/><rect fill="none" height="136.5313" style="stroke:#000000;stroke-width:2.0;" width="905.5" x="1380.5" y="1019.0859"/><text fill="#000000" font-family="sans-serif" font-size="13" font-weight="bold" lengthAdjust="spacing" textLength="21" x="1395.5" y="1032.1528">alt</text><text fill="#000000" font-family="sans-serif" font-size="11" font-weight="bold" lengthAdjust="spacing" textLength="172" x="1461.5" y="1031.2964">[role != SpecialistDoctor]</text><polygon fill="#A80036" points="2204.5,1053.3516,2214.5,1057.3516,2204.5,1061.3516,2208.5,1057.3516" style="stroke:#A80036;stroke-width:1.0;"/><line style="stroke:#A80036;stroke-width:1.0;" x1="1470.5" x2="2210.5" y1="1057.3516" y2="1057.3516"/><text fill="#000000" font-family="sans-serif" font-size="13" font-weight="bold" lengthAdjust="spacing" textLength="18" x="1477.5" y="1052.2856">21</text><text fill="#000000" font-family="sans-serif" font-size="13" lengthAdjust="spacing" textLength="566" x="1499.5" y="1052.2856">emp = createEmployee(role, id, name, address, phoneNumber, emailAddress, socCode)</text><line style="stroke:#000000;stroke-width:1.0;stroke-dasharray:2.0,2.0;" x1="1380.5" x2="2286" y1="1066.3516" y2="1066.3516"/><polygon fill="#A80036" points="1804.5,1084.4844,1814.5,1088.4844,1804.5,1092.4844,1808.5,1088.4844" style="stroke:#A80036;stroke-width:1.0;"/><line style="stroke:#A80036;stroke-width:1.0;" x1="1470.5" x2="1810.5" y1="1088.4844" y2="1088.4844"/><text fill="#000000" font-family="sans-serif" font-size="13" font-weight="bold" lengthAdjust="spacing" textLength="18" x="1477.5" y="1083.4185">22</text><text fill="#000000" font-family="sans-serif" font-size="13" lengthAdjust="spacing" textLength="305" x="1499.5" y="1083.4185">doctorIndexNumber = getDoctorIndexNumber()</text><polygon fill="#A80036" points="2204.5,1143.6172,2214.5,1147.6172,2204.5,1151.6172,2208.5,1147.6172" style="stroke:#A80036;stroke-width:1.0;"/><line style="stroke:#A80036;stroke-width:1.0;" x1="1470.5" x2="2210.5" y1="1147.6172" y2="1147.6172"/><text fill="#000000" font-family="sans-serif" font-size="13" font-weight="bold" lengthAdjust="spacing" textLength="17" x="1477.5" y="1142.5513">23</text><text fill="#000000" font-family="sans-serif" font-size="13" lengthAdjust="spacing" textLength="701" x="1498.5" y="1142.5513">emp = createEmployee(role, id, name, address, phoneNumber, emailAddress, socCode, doctorIndexNumber)</text><path d="M2157,1169.6172 L2223,1169.6172 L2223,1176.6172 L2213,1186.6172 L2157,1186.6172 L2157,1169.6172 " fill="#EEEEEE" style="stroke:#000000;stroke-width:1.0;"/><rect fill="none" height="109.7266" style="stroke:#000000;stroke-width:2.0;" width="894.5" x="2157" y="1169.6172"/><text fill="#000000" font-family="sans-serif" font-size="13" font-weight="bold" lengthAdjust="spacing" textLength="21" x="2172" y="1182.6841">alt</text><text fill="#000000" font-family="sans-serif" font-size="11" font-weight="bold" lengthAdjust="spacing" textLength="172" x="2238" y="1181.8276">[role != SpecialistDoctor]</text><polygon fill="#A80036" points="2715.5,1203.8828,2725.5,1207.8828,2715.5,1211.8828,2719.5,1207.8828" style="stroke:#A80036;stroke-width:1.0;"/><line style="stroke:#A80036;stroke-width:1.0;" x1="2226.5" x2="2721.5" y1="1207.8828" y2="1207.8828"/><text fill="#000000" font-family="sans-serif" font-size="13" font-weight="bold" lengthAdjust="spacing" textLength="18" x="2233.5" y="1202.8169">24</text><text fill="#000000" font-family="sans-serif" font-size="13" lengthAdjust="spacing" textLength="455" x="2255.5" y="1202.8169">create(role, id, name, address, phoneNumber, emailAddress, socCode)</text><rect fill="#FEFECE" filter="url(#fi2pjp97x5dkg)" height="30.2969" style="stroke:#A80036;stroke-width:1.5;" width="124" x="2727.5" y="1186.75"/><text fill="#000000" font-family="sans-serif" font-size="14" lengthAdjust="spacing" textLength="110" x="2734.5" y="1206.7451">emp:Employee</text><line style="stroke:#000000;stroke-width:1.0;stroke-dasharray:2.0,2.0;" x1="2157" x2="3051.5" y1="1233.0469" y2="1233.0469"/><polygon fill="#A80036" points="2853.5,1251.1797,2863.5,1255.1797,2853.5,1259.1797,2857.5,1255.1797" style="stroke:#A80036;stroke-width:1.0;"/><line style="stroke:#A80036;stroke-width:1.0;" x1="2226.5" x2="2859.5" y1="1255.1797" y2="1255.1797"/><text fill="#000000" font-family="sans-serif" font-size="13" font-weight="bold" lengthAdjust="spacing" textLength="18" x="2233.5" y="1250.1138">25</text><text fill="#000000" font-family="sans-serif" font-size="13" lengthAdjust="spacing" textLength="590" x="2255.5" y="1250.1138">create(role, id, name, address, phoneNumber, emailAddress, socCode, doctorIndexNumber)</text><rect fill="#FEFECE" filter="url(#fi2pjp97x5dkg)" height="30.2969" style="stroke:#A80036;stroke-width:1.5;" width="172" x="2865.5" y="1234.0469"/><text fill="#000000" font-family="sans-serif" font-size="14" lengthAdjust="spacing" textLength="158" x="2872.5" y="1254.042">emp:SpecialistDoctor</text><polygon fill="#A80036" points="1249.5,1303.4766,1259.5,1307.4766,1249.5,1311.4766,1253.5,1307.4766" style="stroke:#A80036;stroke-width:1.0;"/><line style="stroke:#A80036;stroke-width:1.0;" x1="857" x2="1255.5" y1="1307.4766" y2="1307.4766"/><text fill="#000000" font-family="sans-serif" font-size="13" font-weight="bold" lengthAdjust="spacing" textLength="18" x="864" y="1302.4106">26</text><text fill="#000000" font-family="sans-serif" font-size="13" lengthAdjust="spacing" textLength="154" x="886" y="1302.4106">validateEmployee(emp)</text><polygon fill="#A80036" points="89,1362.6094,79,1366.6094,89,1370.6094,85,1366.6094" style="stroke:#A80036;stroke-width:1.0;"/><line style="stroke:#A80036;stroke-width:1.0;" x1="83" x2="632" y1="1366.6094" y2="1366.6094"/><text fill="#000000" font-family="sans-serif" font-size="13" font-weight="bold" lengthAdjust="spacing" textLength="18" x="95" y="1361.5435">27</text><text fill="#000000" font-family="sans-serif" font-size="13" lengthAdjust="spacing" textLength="284" x="117" y="1361.5435">shows the data and requests a confirmation</text><polygon fill="#A80036" points="616,1391.7422,626,1395.7422,616,1399.7422,620,1395.7422" style="stroke:#A80036;stroke-width:1.0;"/><line style="stroke:#A80036;stroke-width:1.0;" x1="78" x2="622" y1="1395.7422" y2="1395.7422"/><text fill="#000000" font-family="sans-serif" font-size="13" font-weight="bold" lengthAdjust="spacing" textLength="18" x="85" y="1390.6763">28</text><text fill="#000000" font-family="sans-serif" font-size="13" lengthAdjust="spacing" textLength="114" x="107" y="1390.6763">confirms the data</text><polygon fill="#A80036" points="835,1420.875,845,1424.875,835,1428.875,839,1424.875" style="stroke:#A80036;stroke-width:1.0;"/><line style="stroke:#A80036;stroke-width:1.0;" x1="638" x2="841" y1="1424.875" y2="1424.875"/><text fill="#000000" font-family="sans-serif" font-size="13" font-weight="bold" lengthAdjust="spacing" textLength="18" x="645" y="1419.8091">29</text><text fill="#000000" font-family="sans-serif" font-size="13" lengthAdjust="spacing" textLength="105" x="667" y="1419.8091">saveEmployee()</text><polygon fill="#A80036" points="1249.5,1450.0078,1259.5,1454.0078,1249.5,1458.0078,1253.5,1454.0078" style="stroke:#A80036;stroke-width:1.0;"/><line style="stroke:#A80036;stroke-width:1.0;" x1="857" x2="1255.5" y1="1454.0078" y2="1454.0078"/><text fill="#000000" font-family="sans-serif" font-size="13" font-weight="bold" lengthAdjust="spacing" textLength="18" x="864" y="1448.9419">30</text><text fill="#000000" font-family="sans-serif" font-size="13" lengthAdjust="spacing" textLength="134" x="886" y="1448.9419">saveEmployee(emp)</text><line style="stroke:#A80036;stroke-width:1.0;" x1="1276.5" x2="1318.5" y1="1483.1406" y2="1483.1406"/><line style="stroke:#A80036;stroke-width:1.0;" x1="1318.5" x2="1318.5" y1="1483.1406" y2="1496.1406"/><line style="stroke:#A80036;stroke-width:1.0;" x1="1277.5" x2="1318.5" y1="1496.1406" y2="1496.1406"/><polygon fill="#A80036" points="1287.5,1492.1406,1277.5,1496.1406,1287.5,1500.1406,1283.5,1496.1406" style="stroke:#A80036;stroke-width:1.0;"/><text fill="#000000" font-family="sans-serif" font-size="13" font-weight="bold" lengthAdjust="spacing" textLength="17" x="1283.5" y="1478.0747">31</text><text fill="#000000" font-family="sans-serif" font-size="13" lengthAdjust="spacing" textLength="154" x="1304.5" y="1478.0747">validateEmployee(emp)</text><line style="stroke:#A80036;stroke-width:1.0;" x1="1276.5" x2="1318.5" y1="1555.2734" y2="1555.2734"/><line style="stroke:#A80036;stroke-width:1.0;" x1="1318.5" x2="1318.5" y1="1555.2734" y2="1568.2734"/><line style="stroke:#A80036;stroke-width:1.0;" x1="1277.5" x2="1318.5" y1="1568.2734" y2="1568.2734"/><polygon fill="#A80036" points="1287.5,1564.2734,1277.5,1568.2734,1287.5,1572.2734,1283.5,1568.2734" style="stroke:#A80036;stroke-width:1.0;"/><text fill="#000000" font-family="sans-serif" font-size="13" font-weight="bold" lengthAdjust="spacing" textLength="17" x="1283.5" y="1550.2075">32</text><text fill="#000000" font-family="sans-serif" font-size="13" lengthAdjust="spacing" textLength="127" x="1304.5" y="1550.2075">addEmployee(emp)</text><polygon fill="#A80036" points="2320,1623.4063,2330,1627.4063,2320,1631.4063,2324,1627.4063" style="stroke:#A80036;stroke-width:1.0;"/><line style="stroke:#A80036;stroke-width:1.0;" x1="1271.5" x2="2326" y1="1627.4063" y2="1627.4063"/><text fill="#000000" font-family="sans-serif" font-size="13" font-weight="bold" lengthAdjust="spacing" textLength="16" x="1278.5" y="1622.3403">33</text><text fill="#000000" font-family="sans-serif" font-size="13" lengthAdjust="spacing" textLength="109" x="1298.5" y="1622.3403">createUser(emp)</text><polygon fill="#A80036" points="84,1682.5391,74,1686.5391,84,1690.5391,80,1686.5391" style="stroke:#A80036;stroke-width:1.0;"/><line style="stroke:#A80036;stroke-width:1.0;" x1="78" x2="632" y1="1686.5391" y2="1686.5391"/><text fill="#000000" font-family="sans-serif" font-size="13" font-weight="bold" lengthAdjust="spacing" textLength="17" x="90" y="1681.4731">34</text><text fill="#000000" font-family="sans-serif" font-size="13" lengthAdjust="spacing" textLength="169" x="111" y="1681.4731">informs operation success</text><!--MD5=[6585ae3478e68da84d1616d8e8e5e434]
@startuml
actor Administrator as Adm
participant ":RegistEmployeeUI" as Interface
participant ":RegistEmployeeController" as Controller
participant ":Company" as Company
participant ":RolesMapper" as RolesMapper
participant "store \n :EmployeeStore" as estore
participant ":EmployeeMapper" as eMapper
participant "empDto: EmployeeDto" as EmployeeDto
participant "store \n :RolesStore" as rstore
participant "role:OrgRole" as OrgRole
participant "AuthFacade" as AuthFacade
 
 
autonumber
activate Adm
Adm -> Interface: starts registering a new employee
activate Interface
Interface -> Controller: IRolesDto = getRoles()
activate Controller
Controller -> rstore: lRoles = getRoles()
activate rstore
deactivate rstore
Controller -> RolesMapper: lRolesDto = toDTO(lRoles)
activate RolesMapper
deactivate RolesMapper
deactivate Controller
Interface - -> Adm: ask to select the employee role
deactivate Interface
Adm -> Interface: selects the intended role
activate Interface
Interface - -> Adm: request data (userRole, name, address, phoneNumber, emailAddress, socCode)
opt role = Specialist Doctor
    Interface - -> Adm: request data(doctorIndexNumber)
end
deactivate Interface
 
 
Adm -> Interface: types requested data
activate Interface
Interface - -> Controller: createEmployee(empDto)
activate Controller
Controller -> estore: createEmployee(empDto)
activate estore
estore -> eMapper: toDTO(empDto)
activate eMapper
eMapper -> EmployeeDto: roleId = getRoleId()
activate EmployeeDto
deactivate EmployeeDto
eMapper -> rstore: role = getRoleById(roleId)
activate rstore
deactivate rstore
eMapper -> EmployeeDto: id = getId()
activate EmployeeDto
deactivate EmployeeDto
eMapper -> EmployeeDto: name = getName()
activate EmployeeDto
deactivate EmployeeDto
eMapper -> EmployeeDto: adress = getAdress()
activate EmployeeDto
deactivate EmployeeDto
eMapper -> EmployeeDto: phoneNumber = getphoneNumber()
activate EmployeeDto
deactivate EmployeeDto
eMapper -> EmployeeDto: emailAdress = getEmailAdress()
activate EmployeeDto
deactivate EmployeeDto
eMapper -> EmployeeDto: socCode = getsocCode()
activate EmployeeDto
deactivate EmployeeDto
alt role != SpecialistDoctor
    eMapper -> OrgRole: emp = createEmployee(role, id, name, address, phoneNumber, emailAddress, socCode)
    activate OrgRole
else
    eMapper -> EmployeeDto: doctorIndexNumber = getDoctorIndexNumber()
    activate EmployeeDto
    deactivate EmployeeDto
    eMapper -> OrgRole: emp = createEmployee(role, id, name, address, phoneNumber, emailAddress, socCode, doctorIndexNumber)
end
alt role != SpecialistDoctor
    create "emp:Employee" as Employee
    OrgRole -> Employee: create(role, id, name, address, phoneNumber, emailAddress, socCode)
else
    create "emp:SpecialistDoctor" as Doctor
    OrgRole -> Doctor:create(role, id, name, address, phoneNumber, emailAddress, socCode, doctorIndexNumber)
end
deactivate eMapper
deactivate OrgRole
deactivate estore
Controller -> estore: validateEmployee(emp)
activate estore
deactivate estore
deactivate Controller

Interface -> Adm: shows the data and requests a confirmation
deactivate Interface
Adm -> Interface: confirms the data

activate Interface
Interface -> Controller: saveEmployee()
activate Controller
Controller -> estore: saveEmployee(emp)
activate estore
estore -> estore: validateEmployee(emp)
activate estore
deactivate estore
estore -> estore: addEmployee(emp)
activate estore
deactivate estore
estore -> AuthFacade: createUser(emp)
activate AuthFacade
deactivate AuthFacade
deactivate estore
deactivate Controller
Interface -> Adm: informs operation success
deactivate Interface
deactivate Adm
@enduml

PlantUML version 1.2021.6beta6(Unknown compile time)
(GPL source distribution)
Java Runtime: Java(TM) SE Runtime Environment
JVM: Java HotSpot(TM) 64-Bit Server VM
Default Encoding: UTF-8
Language: en
Country: US
--></g></svg>