<?xml version="1.0" encoding="UTF-8" standalone="no"?><svg xmlns="http://www.w3.org/2000/svg" xmlns:xlink="http://www.w3.org/1999/xlink" contentScriptType="application/ecmascript" contentStyleType="text/css" height="1654px" preserveAspectRatio="none" style="width:2653px;height:1654px;" version="1.1" viewBox="0 0 2653 1654" width="2653px" zoomAndPan="magnify"><defs><filter height="300%" id="ft10rbhm73pgz" width="300%" x="-1" y="-1"><feGaussianBlur result="blurOut" stdDeviation="2.0"/><feColorMatrix in="blurOut" result="blurOut2" type="matrix" values="0 0 0 0 0 0 0 0 0 0 0 0 0 0 0 0 0 0 .4 0"/><feOffset dx="4.0" dy="4.0" in="blurOut2" result="blurOut3"/><feBlend in="SourceGraphic" in2="blurOut3" mode="normal"/></filter></defs><g><rect fill="#FFFFFF" filter="url(#ft10rbhm73pgz)" height="1453.8438" style="stroke:#A80036;stroke-width:1.0;" width="10" x="68" y="98.2969"/><rect fill="#FFFFFF" filter="url(#ft10rbhm73pgz)" height="176.5313" style="stroke:#A80036;stroke-width:1.0;" width="10" x="564" y="119.4297"/><rect fill="#FFFFFF" filter="url(#ft10rbhm73pgz)" height="97.3984" style="stroke:#A80036;stroke-width:1.0;" width="10" x="564" y="325.0938"/><rect fill="#FFFFFF" filter="url(#ft10rbhm73pgz)" height="847.7188" style="stroke:#A80036;stroke-width:1.0;" width="10" x="564" y="443.625"/><rect fill="#FFFFFF" filter="url(#ft10rbhm73pgz)" height="231.6641" style="stroke:#A80036;stroke-width:1.0;" width="10" x="564" y="1320.4766"/><rect fill="#FFFFFF" filter="url(#ft10rbhm73pgz)" height="118.2656" style="stroke:#A80036;stroke-width:1.0;" width="10" x="783" y="148.5625"/><rect fill="#FFFFFF" filter="url(#ft10rbhm73pgz)" height="797.4531" style="stroke:#A80036;stroke-width:1.0;" width="10" x="783" y="472.7578"/><rect fill="#FFFFFF" filter="url(#ft10rbhm73pgz)" height="166.3984" style="stroke:#A80036;stroke-width:1.0;" width="10" x="783" y="1349.6094"/><rect fill="#FFFFFF" filter="url(#ft10rbhm73pgz)" height="30" style="stroke:#A80036;stroke-width:1.0;" width="10" x="1048" y="177.6953"/><rect fill="#FFFFFF" filter="url(#ft10rbhm73pgz)" height="768.3203" style="stroke:#A80036;stroke-width:1.0;" width="10" x="1048" y="501.8906"/><rect fill="#FFFFFF" filter="url(#ft10rbhm73pgz)" height="28" style="stroke:#A80036;stroke-width:1.0;" width="10" x="1053" y="598.1563"/><rect fill="#FFFFFF" filter="url(#ft10rbhm73pgz)" height="137.2656" style="stroke:#A80036;stroke-width:1.0;" width="10" x="1048" y="1378.7422"/><rect fill="#FFFFFF" filter="url(#ft10rbhm73pgz)" height="28" style="stroke:#A80036;stroke-width:1.0;" width="10" x="1053" y="1415.875"/><rect fill="#FFFFFF" filter="url(#ft10rbhm73pgz)" height="28" style="stroke:#A80036;stroke-width:1.0;" width="10" x="1053" y="1488.0078"/><rect fill="#FFFFFF" filter="url(#ft10rbhm73pgz)" height="30" style="stroke:#A80036;stroke-width:1.0;" width="10" x="1256" y="236.8281"/><rect fill="#FFFFFF" filter="url(#ft10rbhm73pgz)" height="30" style="stroke:#A80036;stroke-width:1.0;" width="10" x="1417.5" y="531.0234"/><rect fill="#FFFFFF" filter="url(#ft10rbhm73pgz)" height="30" style="stroke:#A80036;stroke-width:1.0;" width="10" x="1417.5" y="662.2891"/><rect fill="#FFFFFF" filter="url(#ft10rbhm73pgz)" height="30" style="stroke:#A80036;stroke-width:1.0;" width="10" x="1417.5" y="721.4219"/><rect fill="#FFFFFF" filter="url(#ft10rbhm73pgz)" height="30" style="stroke:#A80036;stroke-width:1.0;" width="10" x="1417.5" y="780.5547"/><rect fill="#FFFFFF" filter="url(#ft10rbhm73pgz)" height="30" style="stroke:#A80036;stroke-width:1.0;" width="10" x="1417.5" y="839.6875"/><rect fill="#FFFFFF" filter="url(#ft10rbhm73pgz)" height="30" style="stroke:#A80036;stroke-width:1.0;" width="10" x="1417.5" y="898.8203"/><rect fill="#FFFFFF" filter="url(#ft10rbhm73pgz)" height="30" style="stroke:#A80036;stroke-width:1.0;" width="10" x="1417.5" y="957.9531"/><rect fill="#FFFFFF" filter="url(#ft10rbhm73pgz)" height="30" style="stroke:#A80036;stroke-width:1.0;" width="10" x="1417.5" y="1072.3516"/><rect fill="#FFFFFF" filter="url(#ft10rbhm73pgz)" height="228.9922" style="stroke:#A80036;stroke-width:1.0;" width="10" x="1805" y="1041.2188"/><rect fill="#FFFFFF" filter="url(#ft10rbhm73pgz)" height="46.2656" style="stroke:#000000;stroke-width:2.0;" width="653.5" x="10" y="369.2266"/><rect fill="#FFFFFF" filter="url(#ft10rbhm73pgz)" height="136.5313" style="stroke:#000000;stroke-width:2.0;" width="877" x="997.5" y="1002.9531"/><rect fill="#FFFFFF" height="90.2656" style="stroke:none;stroke-width:1.0;" width="877" x="997.5" y="1049.2188"/><rect fill="#FFFFFF" filter="url(#ft10rbhm73pgz)" height="109.7266" style="stroke:#000000;stroke-width:2.0;" width="893.5" x="1745.5" y="1153.4844"/><rect fill="#FFFFFF" height="47.2969" style="stroke:none;stroke-width:1.0;" width="893.5" x="1745.5" y="1215.9141"/><line style="stroke:#A80036;stroke-width:1.0;stroke-dasharray:5.0,5.0;" x1="73" x2="73" y1="88.2969" y2="1570.1406"/><line style="stroke:#A80036;stroke-width:1.0;stroke-dasharray:5.0,5.0;" x1="568.5" x2="568.5" y1="88.2969" y2="1570.1406"/><line style="stroke:#A80036;stroke-width:1.0;stroke-dasharray:5.0,5.0;" x1="787.5" x2="787.5" y1="88.2969" y2="1570.1406"/><line style="stroke:#A80036;stroke-width:1.0;stroke-dasharray:5.0,5.0;" x1="1052.5" x2="1052.5" y1="88.2969" y2="1570.1406"/><line style="stroke:#A80036;stroke-width:1.0;stroke-dasharray:5.0,5.0;" x1="1260.5" x2="1260.5" y1="88.2969" y2="1570.1406"/><line style="stroke:#A80036;stroke-width:1.0;stroke-dasharray:5.0,5.0;" x1="1422.5" x2="1422.5" y1="88.2969" y2="1570.1406"/><line style="stroke:#A80036;stroke-width:1.0;stroke-dasharray:5.0,5.0;" x1="1809.5" x2="1809.5" y1="88.2969" y2="1570.1406"/><line style="stroke:#A80036;stroke-width:1.0;stroke-dasharray:5.0,5.0;" x1="2379" x2="2379" y1="1203.2656" y2="1570.1406"/><line style="stroke:#A80036;stroke-width:1.0;stroke-dasharray:5.0,5.0;" x1="2541" x2="2541" y1="1250.5625" y2="1570.1406"/><text fill="#000000" font-family="sans-serif" font-size="14" lengthAdjust="spacing" textLength="100" x="20" y="84.9951">Administrator</text><ellipse cx="73" cy="15" fill="#FEFECE" filter="url(#ft10rbhm73pgz)" rx="8" ry="8" style="stroke:#A80036;stroke-width:2.0;"/><path d="M73,23 L73,50 M60,31 L86,31 M73,50 L60,65 M73,50 L86,65 " fill="none" filter="url(#ft10rbhm73pgz)" style="stroke:#A80036;stroke-width:2.0;"/><text fill="#000000" font-family="sans-serif" font-size="14" lengthAdjust="spacing" textLength="100" x="20" y="1582.1357">Administrator</text><ellipse cx="73" cy="1595.4375" fill="#FEFECE" filter="url(#ft10rbhm73pgz)" rx="8" ry="8" style="stroke:#A80036;stroke-width:2.0;"/><path d="M73,1603.4375 L73,1630.4375 M60,1611.4375 L86,1611.4375 M73,1630.4375 L60,1645.4375 M73,1630.4375 L86,1645.4375 " fill="none" filter="url(#ft10rbhm73pgz)" style="stroke:#A80036;stroke-width:2.0;"/><rect fill="#FEFECE" filter="url(#ft10rbhm73pgz)" height="30.2969" style="stroke:#A80036;stroke-width:1.5;" width="165" x="484.5" y="53"/><text fill="#000000" font-family="sans-serif" font-size="14" lengthAdjust="spacing" textLength="151" x="491.5" y="72.9951">:RegisterEmployeeUI</text><rect fill="#FEFECE" filter="url(#ft10rbhm73pgz)" height="30.2969" style="stroke:#A80036;stroke-width:1.5;" width="165" x="484.5" y="1569.1406"/><text fill="#000000" font-family="sans-serif" font-size="14" lengthAdjust="spacing" textLength="151" x="491.5" y="1589.1357">:RegisterEmployeeUI</text><rect fill="#FEFECE" filter="url(#ft10rbhm73pgz)" height="30.2969" style="stroke:#A80036;stroke-width:1.5;" width="225" x="673.5" y="53"/><text fill="#000000" font-family="sans-serif" font-size="14" lengthAdjust="spacing" textLength="211" x="680.5" y="72.9951">:RegisterEmployeeController</text><rect fill="#FEFECE" filter="url(#ft10rbhm73pgz)" height="30.2969" style="stroke:#A80036;stroke-width:1.5;" width="225" x="673.5" y="1569.1406"/><text fill="#000000" font-family="sans-serif" font-size="14" lengthAdjust="spacing" textLength="211" x="680.5" y="1589.1357">:RegisterEmployeeController</text><rect fill="#FEFECE" filter="url(#ft10rbhm73pgz)" height="30.2969" style="stroke:#A80036;stroke-width:1.5;" width="87" x="1007.5" y="53"/><text fill="#000000" font-family="sans-serif" font-size="14" lengthAdjust="spacing" textLength="73" x="1014.5" y="72.9951">:Company</text><rect fill="#FEFECE" filter="url(#ft10rbhm73pgz)" height="30.2969" style="stroke:#A80036;stroke-width:1.5;" width="87" x="1007.5" y="1569.1406"/><text fill="#000000" font-family="sans-serif" font-size="14" lengthAdjust="spacing" textLength="73" x="1014.5" y="1589.1357">:Company</text><rect fill="#FEFECE" filter="url(#ft10rbhm73pgz)" height="30.2969" style="stroke:#A80036;stroke-width:1.5;" width="113" x="1202.5" y="53"/><text fill="#000000" font-family="sans-serif" font-size="14" lengthAdjust="spacing" textLength="99" x="1209.5" y="72.9951">:RolesMapper</text><rect fill="#FEFECE" filter="url(#ft10rbhm73pgz)" height="30.2969" style="stroke:#A80036;stroke-width:1.5;" width="113" x="1202.5" y="1569.1406"/><text fill="#000000" font-family="sans-serif" font-size="14" lengthAdjust="spacing" textLength="99" x="1209.5" y="1589.1357">:RolesMapper</text><rect fill="#FEFECE" filter="url(#ft10rbhm73pgz)" height="30.2969" style="stroke:#A80036;stroke-width:1.5;" width="182" x="1329.5" y="53"/><text fill="#000000" font-family="sans-serif" font-size="14" lengthAdjust="spacing" textLength="168" x="1336.5" y="72.9951">empDto: EmployeeDto</text><rect fill="#FEFECE" filter="url(#ft10rbhm73pgz)" height="30.2969" style="stroke:#A80036;stroke-width:1.5;" width="182" x="1329.5" y="1569.1406"/><text fill="#000000" font-family="sans-serif" font-size="14" lengthAdjust="spacing" textLength="168" x="1336.5" y="1589.1357">empDto: EmployeeDto</text><rect fill="#FEFECE" filter="url(#ft10rbhm73pgz)" height="30.2969" style="stroke:#A80036;stroke-width:1.5;" width="105" x="1755.5" y="53"/><text fill="#000000" font-family="sans-serif" font-size="14" lengthAdjust="spacing" textLength="91" x="1762.5" y="72.9951">role:OrgRole</text><rect fill="#FEFECE" filter="url(#ft10rbhm73pgz)" height="30.2969" style="stroke:#A80036;stroke-width:1.5;" width="105" x="1755.5" y="1569.1406"/><text fill="#000000" font-family="sans-serif" font-size="14" lengthAdjust="spacing" textLength="91" x="1762.5" y="1589.1357">role:OrgRole</text><rect fill="#FEFECE" filter="url(#ft10rbhm73pgz)" height="30.2969" style="stroke:#A80036;stroke-width:1.5;" width="124" x="2315" y="1569.1406"/><text fill="#000000" font-family="sans-serif" font-size="14" lengthAdjust="spacing" textLength="110" x="2322" y="1589.1357">emp:Employee</text><rect fill="#FEFECE" filter="url(#ft10rbhm73pgz)" height="30.2969" style="stroke:#A80036;stroke-width:1.5;" width="172" x="2453" y="1569.1406"/><text fill="#000000" font-family="sans-serif" font-size="14" lengthAdjust="spacing" textLength="158" x="2460" y="1589.1357">emp:SpecialistDoctor</text><rect fill="#FFFFFF" filter="url(#ft10rbhm73pgz)" height="1453.8438" style="stroke:#A80036;stroke-width:1.0;" width="10" x="68" y="98.2969"/><rect fill="#FFFFFF" filter="url(#ft10rbhm73pgz)" height="176.5313" style="stroke:#A80036;stroke-width:1.0;" width="10" x="564" y="119.4297"/><rect fill="#FFFFFF" filter="url(#ft10rbhm73pgz)" height="97.3984" style="stroke:#A80036;stroke-width:1.0;" width="10" x="564" y="325.0938"/><rect fill="#FFFFFF" filter="url(#ft10rbhm73pgz)" height="847.7188" style="stroke:#A80036;stroke-width:1.0;" width="10" x="564" y="443.625"/><rect fill="#FFFFFF" filter="url(#ft10rbhm73pgz)" height="231.6641" style="stroke:#A80036;stroke-width:1.0;" width="10" x="564" y="1320.4766"/><rect fill="#FFFFFF" filter="url(#ft10rbhm73pgz)" height="118.2656" style="stroke:#A80036;stroke-width:1.0;" width="10" x="783" y="148.5625"/><rect fill="#FFFFFF" filter="url(#ft10rbhm73pgz)" height="797.4531" style="stroke:#A80036;stroke-width:1.0;" width="10" x="783" y="472.7578"/><rect fill="#FFFFFF" filter="url(#ft10rbhm73pgz)" height="166.3984" style="stroke:#A80036;stroke-width:1.0;" width="10" x="783" y="1349.6094"/><rect fill="#FFFFFF" filter="url(#ft10rbhm73pgz)" height="30" style="stroke:#A80036;stroke-width:1.0;" width="10" x="1048" y="177.6953"/><rect fill="#FFFFFF" filter="url(#ft10rbhm73pgz)" height="768.3203" style="stroke:#A80036;stroke-width:1.0;" width="10" x="1048" y="501.8906"/><rect fill="#FFFFFF" filter="url(#ft10rbhm73pgz)" height="28" style="stroke:#A80036;stroke-width:1.0;" width="10" x="1053" y="598.1563"/><rect fill="#FFFFFF" filter="url(#ft10rbhm73pgz)" height="137.2656" style="stroke:#A80036;stroke-width:1.0;" width="10" x="1048" y="1378.7422"/><rect fill="#FFFFFF" filter="url(#ft10rbhm73pgz)" height="28" style="stroke:#A80036;stroke-width:1.0;" width="10" x="1053" y="1415.875"/><rect fill="#FFFFFF" filter="url(#ft10rbhm73pgz)" height="28" style="stroke:#A80036;stroke-width:1.0;" width="10" x="1053" y="1488.0078"/><rect fill="#FFFFFF" filter="url(#ft10rbhm73pgz)" height="30" style="stroke:#A80036;stroke-width:1.0;" width="10" x="1256" y="236.8281"/><rect fill="#FFFFFF" filter="url(#ft10rbhm73pgz)" height="30" style="stroke:#A80036;stroke-width:1.0;" width="10" x="1417.5" y="531.0234"/><rect fill="#FFFFFF" filter="url(#ft10rbhm73pgz)" height="30" style="stroke:#A80036;stroke-width:1.0;" width="10" x="1417.5" y="662.2891"/><rect fill="#FFFFFF" filter="url(#ft10rbhm73pgz)" height="30" style="stroke:#A80036;stroke-width:1.0;" width="10" x="1417.5" y="721.4219"/><rect fill="#FFFFFF" filter="url(#ft10rbhm73pgz)" height="30" style="stroke:#A80036;stroke-width:1.0;" width="10" x="1417.5" y="780.5547"/><rect fill="#FFFFFF" filter="url(#ft10rbhm73pgz)" height="30" style="stroke:#A80036;stroke-width:1.0;" width="10" x="1417.5" y="839.6875"/><rect fill="#FFFFFF" filter="url(#ft10rbhm73pgz)" height="30" style="stroke:#A80036;stroke-width:1.0;" width="10" x="1417.5" y="898.8203"/><rect fill="#FFFFFF" filter="url(#ft10rbhm73pgz)" height="30" style="stroke:#A80036;stroke-width:1.0;" width="10" x="1417.5" y="957.9531"/><rect fill="#FFFFFF" filter="url(#ft10rbhm73pgz)" height="30" style="stroke:#A80036;stroke-width:1.0;" width="10" x="1417.5" y="1072.3516"/><rect fill="#FFFFFF" filter="url(#ft10rbhm73pgz)" height="228.9922" style="stroke:#A80036;stroke-width:1.0;" width="10" x="1805" y="1041.2188"/><polygon fill="#A80036" points="552,115.4297,562,119.4297,552,123.4297,556,119.4297" style="stroke:#A80036;stroke-width:1.0;"/><line style="stroke:#A80036;stroke-width:1.0;" x1="78" x2="558" y1="119.4297" y2="119.4297"/><text fill="#000000" font-family="sans-serif" font-size="13" font-weight="bold" lengthAdjust="spacing" textLength="9" x="85" y="114.3638">1</text><text fill="#000000" font-family="sans-serif" font-size="13" lengthAdjust="spacing" textLength="220" x="98" y="114.3638">starts registering a new employee</text><polygon fill="#A80036" points="771,144.5625,781,148.5625,771,152.5625,775,148.5625" style="stroke:#A80036;stroke-width:1.0;"/><line style="stroke:#A80036;stroke-width:1.0;" x1="574" x2="777" y1="148.5625" y2="148.5625"/><text fill="#000000" font-family="sans-serif" font-size="13" font-weight="bold" lengthAdjust="spacing" textLength="9" x="581" y="143.4966">2</text><text fill="#000000" font-family="sans-serif" font-size="13" lengthAdjust="spacing" textLength="145" x="594" y="143.4966">IRolesDto = getRoles()</text><polygon fill="#A80036" points="1036,173.6953,1046,177.6953,1036,181.6953,1040,177.6953" style="stroke:#A80036;stroke-width:1.0;"/><line style="stroke:#A80036;stroke-width:1.0;" x1="793" x2="1042" y1="177.6953" y2="177.6953"/><text fill="#000000" font-family="sans-serif" font-size="13" font-weight="bold" lengthAdjust="spacing" textLength="8" x="800" y="172.6294">3</text><text fill="#000000" font-family="sans-serif" font-size="13" lengthAdjust="spacing" textLength="145" x="812" y="172.6294">lRolesDto = getRoles()</text><polygon fill="#A80036" points="1244,232.8281,1254,236.8281,1244,240.8281,1248,236.8281" style="stroke:#A80036;stroke-width:1.0;"/><line style="stroke:#A80036;stroke-width:1.0;" x1="793" x2="1250" y1="236.8281" y2="236.8281"/><text fill="#000000" font-family="sans-serif" font-size="13" font-weight="bold" lengthAdjust="spacing" textLength="9" x="800" y="231.7622">4</text><text fill="#000000" font-family="sans-serif" font-size="13" lengthAdjust="spacing" textLength="168" x="813" y="231.7622">lRolesDto = toDTO(lRoles)</text><polygon fill="#A80036" points="89,291.9609,79,295.9609,89,299.9609,85,295.9609" style="stroke:#A80036;stroke-width:1.0;"/><line style="stroke:#A80036;stroke-width:1.0;stroke-dasharray:2.0,2.0;" x1="83" x2="568" y1="295.9609" y2="295.9609"/><text fill="#000000" font-family="sans-serif" font-size="13" font-weight="bold" lengthAdjust="spacing" textLength="9" x="95" y="290.895">5</text><text fill="#000000" font-family="sans-serif" font-size="13" lengthAdjust="spacing" textLength="202" x="108" y="290.895">ask to select the employee role</text><polygon fill="#A80036" points="552,321.0938,562,325.0938,552,329.0938,556,325.0938" style="stroke:#A80036;stroke-width:1.0;"/><line style="stroke:#A80036;stroke-width:1.0;" x1="78" x2="558" y1="325.0938" y2="325.0938"/><text fill="#000000" font-family="sans-serif" font-size="13" font-weight="bold" lengthAdjust="spacing" textLength="9" x="85" y="320.0278">6</text><text fill="#000000" font-family="sans-serif" font-size="13" lengthAdjust="spacing" textLength="158" x="98" y="320.0278">selects the intended role</text><polygon fill="#A80036" points="89,350.2266,79,354.2266,89,358.2266,85,354.2266" style="stroke:#A80036;stroke-width:1.0;"/><line style="stroke:#A80036;stroke-width:1.0;stroke-dasharray:2.0,2.0;" x1="83" x2="563" y1="354.2266" y2="354.2266"/><text fill="#000000" font-family="sans-serif" font-size="13" font-weight="bold" lengthAdjust="spacing" textLength="9" x="95" y="349.1606">7</text><text fill="#000000" font-family="sans-serif" font-size="13" lengthAdjust="spacing" textLength="449" x="108" y="349.1606">request data (name, address, phoneNumber, emailAddress, socCode)</text><path d="M10,369.2266 L82,369.2266 L82,376.2266 L72,386.2266 L10,386.2266 L10,369.2266 " fill="#EEEEEE" style="stroke:#000000;stroke-width:1.0;"/><rect fill="none" height="46.2656" style="stroke:#000000;stroke-width:2.0;" width="653.5" x="10" y="369.2266"/><text fill="#000000" font-family="sans-serif" font-size="13" font-weight="bold" lengthAdjust="spacing" textLength="27" x="25" y="382.2935">opt</text><text fill="#000000" font-family="sans-serif" font-size="11" font-weight="bold" lengthAdjust="spacing" textLength="170" x="97" y="381.437">[role = Specialist Doctor]</text><polygon fill="#A80036" points="89,403.4922,79,407.4922,89,411.4922,85,407.4922" style="stroke:#A80036;stroke-width:1.0;"/><line style="stroke:#A80036;stroke-width:1.0;stroke-dasharray:2.0,2.0;" x1="83" x2="563" y1="407.4922" y2="407.4922"/><text fill="#000000" font-family="sans-serif" font-size="13" font-weight="bold" lengthAdjust="spacing" textLength="9" x="95" y="402.4263">8</text><text fill="#000000" font-family="sans-serif" font-size="13" lengthAdjust="spacing" textLength="219" x="108" y="402.4263">request data(doctorIndexNumber)</text><polygon fill="#A80036" points="552,439.625,562,443.625,552,447.625,556,443.625" style="stroke:#A80036;stroke-width:1.0;"/><line style="stroke:#A80036;stroke-width:1.0;" x1="78" x2="558" y1="443.625" y2="443.625"/><text fill="#000000" font-family="sans-serif" font-size="13" font-weight="bold" lengthAdjust="spacing" textLength="9" x="85" y="438.5591">9</text><text fill="#000000" font-family="sans-serif" font-size="13" lengthAdjust="spacing" textLength="138" x="98" y="438.5591">types requested data</text><polygon fill="#A80036" points="771,468.7578,781,472.7578,771,476.7578,775,472.7578" style="stroke:#A80036;stroke-width:1.0;"/><line style="stroke:#A80036;stroke-width:1.0;stroke-dasharray:2.0,2.0;" x1="574" x2="777" y1="472.7578" y2="472.7578"/><text fill="#000000" font-family="sans-serif" font-size="13" font-weight="bold" lengthAdjust="spacing" textLength="19" x="581" y="467.6919">10</text><text fill="#000000" font-family="sans-serif" font-size="13" lengthAdjust="spacing" textLength="167" x="604" y="467.6919">createEmployee(empDto)</text><polygon fill="#A80036" points="1036,497.8906,1046,501.8906,1036,505.8906,1040,501.8906" style="stroke:#A80036;stroke-width:1.0;"/><line style="stroke:#A80036;stroke-width:1.0;" x1="793" x2="1042" y1="501.8906" y2="501.8906"/><text fill="#000000" font-family="sans-serif" font-size="13" font-weight="bold" lengthAdjust="spacing" textLength="18" x="800" y="496.8247">11</text><text fill="#000000" font-family="sans-serif" font-size="13" lengthAdjust="spacing" textLength="214" x="822" y="496.8247">emp = createEmployee(empDto)</text><polygon fill="#A80036" points="1405.5,527.0234,1415.5,531.0234,1405.5,535.0234,1409.5,531.0234" style="stroke:#A80036;stroke-width:1.0;"/><line style="stroke:#A80036;stroke-width:1.0;" x1="1058" x2="1411.5" y1="531.0234" y2="531.0234"/><text fill="#000000" font-family="sans-serif" font-size="13" font-weight="bold" lengthAdjust="spacing" textLength="18" x="1065" y="525.9575">12</text><text fill="#000000" font-family="sans-serif" font-size="13" lengthAdjust="spacing" textLength="123" x="1087" y="525.9575">roleId = getRoleId()</text><line style="stroke:#A80036;stroke-width:1.0;" x1="1063" x2="1105" y1="590.1563" y2="590.1563"/><line style="stroke:#A80036;stroke-width:1.0;" x1="1105" x2="1105" y1="590.1563" y2="603.1563"/><line style="stroke:#A80036;stroke-width:1.0;" x1="1064" x2="1105" y1="603.1563" y2="603.1563"/><polygon fill="#A80036" points="1074,599.1563,1064,603.1563,1074,607.1563,1070,603.1563" style="stroke:#A80036;stroke-width:1.0;"/><text fill="#000000" font-family="sans-serif" font-size="13" font-weight="bold" lengthAdjust="spacing" textLength="17" x="1070" y="585.0903">13</text><text fill="#000000" font-family="sans-serif" font-size="13" lengthAdjust="spacing" textLength="163" x="1091" y="585.0903">role = getRoleById(roleId)</text><polygon fill="#A80036" points="1405.5,658.2891,1415.5,662.2891,1405.5,666.2891,1409.5,662.2891" style="stroke:#A80036;stroke-width:1.0;"/><line style="stroke:#A80036;stroke-width:1.0;" x1="1058" x2="1411.5" y1="662.2891" y2="662.2891"/><text fill="#000000" font-family="sans-serif" font-size="13" font-weight="bold" lengthAdjust="spacing" textLength="18" x="1065" y="657.2231">14</text><text fill="#000000" font-family="sans-serif" font-size="13" lengthAdjust="spacing" textLength="71" x="1087" y="657.2231">id = getId()</text><polygon fill="#A80036" points="1405.5,717.4219,1415.5,721.4219,1405.5,725.4219,1409.5,721.4219" style="stroke:#A80036;stroke-width:1.0;"/><line style="stroke:#A80036;stroke-width:1.0;" x1="1058" x2="1411.5" y1="721.4219" y2="721.4219"/><text fill="#000000" font-family="sans-serif" font-size="13" font-weight="bold" lengthAdjust="spacing" textLength="18" x="1065" y="716.356">15</text><text fill="#000000" font-family="sans-serif" font-size="13" lengthAdjust="spacing" textLength="124" x="1087" y="716.356">name = getName()</text><polygon fill="#A80036" points="1405.5,776.5547,1415.5,780.5547,1405.5,784.5547,1409.5,780.5547" style="stroke:#A80036;stroke-width:1.0;"/><line style="stroke:#A80036;stroke-width:1.0;" x1="1058" x2="1411.5" y1="780.5547" y2="780.5547"/><text fill="#000000" font-family="sans-serif" font-size="13" font-weight="bold" lengthAdjust="spacing" textLength="18" x="1065" y="775.4888">16</text><text fill="#000000" font-family="sans-serif" font-size="13" lengthAdjust="spacing" textLength="136" x="1087" y="775.4888">adress = getAdress()</text><polygon fill="#A80036" points="1405.5,835.6875,1415.5,839.6875,1405.5,843.6875,1409.5,839.6875" style="stroke:#A80036;stroke-width:1.0;"/><line style="stroke:#A80036;stroke-width:1.0;" x1="1058" x2="1411.5" y1="839.6875" y2="839.6875"/><text fill="#000000" font-family="sans-serif" font-size="13" font-weight="bold" lengthAdjust="spacing" textLength="18" x="1065" y="834.6216">17</text><text fill="#000000" font-family="sans-serif" font-size="13" lengthAdjust="spacing" textLength="231" x="1087" y="834.6216">phoneNumber = getphoneNumber()</text><polygon fill="#A80036" points="1405.5,894.8203,1415.5,898.8203,1405.5,902.8203,1409.5,898.8203" style="stroke:#A80036;stroke-width:1.0;"/><line style="stroke:#A80036;stroke-width:1.0;" x1="1058" x2="1411.5" y1="898.8203" y2="898.8203"/><text fill="#000000" font-family="sans-serif" font-size="13" font-weight="bold" lengthAdjust="spacing" textLength="18" x="1065" y="893.7544">18</text><text fill="#000000" font-family="sans-serif" font-size="13" lengthAdjust="spacing" textLength="207" x="1087" y="893.7544">emailAdress = getEmailAdress()</text><polygon fill="#A80036" points="1405.5,953.9531,1415.5,957.9531,1405.5,961.9531,1409.5,957.9531" style="stroke:#A80036;stroke-width:1.0;"/><line style="stroke:#A80036;stroke-width:1.0;" x1="1058" x2="1411.5" y1="957.9531" y2="957.9531"/><text fill="#000000" font-family="sans-serif" font-size="13" font-weight="bold" lengthAdjust="spacing" textLength="18" x="1065" y="952.8872">19</text><text fill="#000000" font-family="sans-serif" font-size="13" lengthAdjust="spacing" textLength="159" x="1087" y="952.8872">socCode = getsocCode()</text><path d="M997.5,1002.9531 L1063.5,1002.9531 L1063.5,1009.9531 L1053.5,1019.9531 L997.5,1019.9531 L997.5,1002.9531 " fill="#EEEEEE" style="stroke:#000000;stroke-width:1.0;"/><rect fill="none" height="136.5313" style="stroke:#000000;stroke-width:2.0;" width="877" x="997.5" y="1002.9531"/><text fill="#000000" font-family="sans-serif" font-size="13" font-weight="bold" lengthAdjust="spacing" textLength="21" x="1012.5" y="1016.02">alt</text><text fill="#000000" font-family="sans-serif" font-size="11" font-weight="bold" lengthAdjust="spacing" textLength="172" x="1078.5" y="1015.1636">[role != SpecialistDoctor]</text><polygon fill="#A80036" points="1793,1037.2188,1803,1041.2188,1793,1045.2188,1797,1041.2188" style="stroke:#A80036;stroke-width:1.0;"/><line style="stroke:#A80036;stroke-width:1.0;" x1="1058" x2="1799" y1="1041.2188" y2="1041.2188"/><text fill="#000000" font-family="sans-serif" font-size="13" font-weight="bold" lengthAdjust="spacing" textLength="19" x="1065" y="1036.1528">20</text><text fill="#000000" font-family="sans-serif" font-size="13" lengthAdjust="spacing" textLength="566" x="1088" y="1036.1528">emp = createEmployee(role, id, name, address, phoneNumber, emailAddress, socCode)</text><line style="stroke:#000000;stroke-width:1.0;stroke-dasharray:2.0,2.0;" x1="997.5" x2="1874.5" y1="1050.2188" y2="1050.2188"/><polygon fill="#A80036" points="1405.5,1068.3516,1415.5,1072.3516,1405.5,1076.3516,1409.5,1072.3516" style="stroke:#A80036;stroke-width:1.0;"/><line style="stroke:#A80036;stroke-width:1.0;" x1="1058" x2="1411.5" y1="1072.3516" y2="1072.3516"/><text fill="#000000" font-family="sans-serif" font-size="13" font-weight="bold" lengthAdjust="spacing" textLength="18" x="1065" y="1067.2856">21</text><text fill="#000000" font-family="sans-serif" font-size="13" lengthAdjust="spacing" textLength="305" x="1087" y="1067.2856">doctorIndexNumber = getDoctorIndexNumber()</text><polygon fill="#A80036" points="1793,1127.4844,1803,1131.4844,1793,1135.4844,1797,1131.4844" style="stroke:#A80036;stroke-width:1.0;"/><line style="stroke:#A80036;stroke-width:1.0;" x1="1058" x2="1799" y1="1131.4844" y2="1131.4844"/><text fill="#000000" font-family="sans-serif" font-size="13" font-weight="bold" lengthAdjust="spacing" textLength="18" x="1065" y="1126.4185">22</text><text fill="#000000" font-family="sans-serif" font-size="13" lengthAdjust="spacing" textLength="701" x="1087" y="1126.4185">emp = createEmployee(role, id, name, address, phoneNumber, emailAddress, socCode, doctorIndexNumber)</text><path d="M1745.5,1153.4844 L1811.5,1153.4844 L1811.5,1160.4844 L1801.5,1170.4844 L1745.5,1170.4844 L1745.5,1153.4844 " fill="#EEEEEE" style="stroke:#000000;stroke-width:1.0;"/><rect fill="none" height="109.7266" style="stroke:#000000;stroke-width:2.0;" width="893.5" x="1745.5" y="1153.4844"/><text fill="#000000" font-family="sans-serif" font-size="13" font-weight="bold" lengthAdjust="spacing" textLength="21" x="1760.5" y="1166.5513">alt</text><text fill="#000000" font-family="sans-serif" font-size="11" font-weight="bold" lengthAdjust="spacing" textLength="172" x="1826.5" y="1165.6948">[role != SpecialistDoctor]</text><polygon fill="#A80036" points="2303,1187.75,2313,1191.75,2303,1195.75,2307,1191.75" style="stroke:#A80036;stroke-width:1.0;"/><line style="stroke:#A80036;stroke-width:1.0;" x1="1815" x2="2309" y1="1191.75" y2="1191.75"/><text fill="#000000" font-family="sans-serif" font-size="13" font-weight="bold" lengthAdjust="spacing" textLength="17" x="1822" y="1186.6841">23</text><text fill="#000000" font-family="sans-serif" font-size="13" lengthAdjust="spacing" textLength="455" x="1843" y="1186.6841">create(role, id, name, address, phoneNumber, emailAddress, socCode)</text><rect fill="#FEFECE" filter="url(#ft10rbhm73pgz)" height="30.2969" style="stroke:#A80036;stroke-width:1.5;" width="124" x="2315" y="1170.6172"/><text fill="#000000" font-family="sans-serif" font-size="14" lengthAdjust="spacing" textLength="110" x="2322" y="1190.6123">emp:Employee</text><line style="stroke:#000000;stroke-width:1.0;stroke-dasharray:2.0,2.0;" x1="1745.5" x2="2639" y1="1216.9141" y2="1216.9141"/><polygon fill="#A80036" points="2441,1235.0469,2451,1239.0469,2441,1243.0469,2445,1239.0469" style="stroke:#A80036;stroke-width:1.0;"/><line style="stroke:#A80036;stroke-width:1.0;" x1="1815" x2="2447" y1="1239.0469" y2="1239.0469"/><text fill="#000000" font-family="sans-serif" font-size="13" font-weight="bold" lengthAdjust="spacing" textLength="18" x="1822" y="1233.981">24</text><text fill="#000000" font-family="sans-serif" font-size="13" lengthAdjust="spacing" textLength="590" x="1844" y="1233.981">create(role, id, name, address, phoneNumber, emailAddress, socCode, doctorIndexNumber)</text><rect fill="#FEFECE" filter="url(#ft10rbhm73pgz)" height="30.2969" style="stroke:#A80036;stroke-width:1.5;" width="172" x="2453" y="1217.9141"/><text fill="#000000" font-family="sans-serif" font-size="14" lengthAdjust="spacing" textLength="158" x="2460" y="1237.9092">emp:SpecialistDoctor</text><polygon fill="#A80036" points="89,1287.3438,79,1291.3438,89,1295.3438,85,1291.3438" style="stroke:#A80036;stroke-width:1.0;"/><line style="stroke:#A80036;stroke-width:1.0;" x1="83" x2="568" y1="1291.3438" y2="1291.3438"/><text fill="#000000" font-family="sans-serif" font-size="13" font-weight="bold" lengthAdjust="spacing" textLength="18" x="95" y="1286.2778">25</text><text fill="#000000" font-family="sans-serif" font-size="13" lengthAdjust="spacing" textLength="284" x="117" y="1286.2778">shows the data and requests a confirmation</text><polygon fill="#A80036" points="552,1316.4766,562,1320.4766,552,1324.4766,556,1320.4766" style="stroke:#A80036;stroke-width:1.0;"/><line style="stroke:#A80036;stroke-width:1.0;" x1="78" x2="558" y1="1320.4766" y2="1320.4766"/><text fill="#000000" font-family="sans-serif" font-size="13" font-weight="bold" lengthAdjust="spacing" textLength="18" x="85" y="1315.4106">26</text><text fill="#000000" font-family="sans-serif" font-size="13" lengthAdjust="spacing" textLength="114" x="107" y="1315.4106">confirms the data</text><polygon fill="#A80036" points="771,1345.6094,781,1349.6094,771,1353.6094,775,1349.6094" style="stroke:#A80036;stroke-width:1.0;"/><line style="stroke:#A80036;stroke-width:1.0;" x1="574" x2="777" y1="1349.6094" y2="1349.6094"/><text fill="#000000" font-family="sans-serif" font-size="13" font-weight="bold" lengthAdjust="spacing" textLength="18" x="581" y="1344.5435">27</text><text fill="#000000" font-family="sans-serif" font-size="13" lengthAdjust="spacing" textLength="105" x="603" y="1344.5435">saveEmployee()</text><polygon fill="#A80036" points="1036,1374.7422,1046,1378.7422,1036,1382.7422,1040,1378.7422" style="stroke:#A80036;stroke-width:1.0;"/><line style="stroke:#A80036;stroke-width:1.0;" x1="793" x2="1042" y1="1378.7422" y2="1378.7422"/><text fill="#000000" font-family="sans-serif" font-size="13" font-weight="bold" lengthAdjust="spacing" textLength="18" x="800" y="1373.6763">28</text><text fill="#000000" font-family="sans-serif" font-size="13" lengthAdjust="spacing" textLength="134" x="822" y="1373.6763">saveEmployee(emp)</text><line style="stroke:#A80036;stroke-width:1.0;" x1="1063" x2="1105" y1="1407.875" y2="1407.875"/><line style="stroke:#A80036;stroke-width:1.0;" x1="1105" x2="1105" y1="1407.875" y2="1420.875"/><line style="stroke:#A80036;stroke-width:1.0;" x1="1064" x2="1105" y1="1420.875" y2="1420.875"/><polygon fill="#A80036" points="1074,1416.875,1064,1420.875,1074,1424.875,1070,1420.875" style="stroke:#A80036;stroke-width:1.0;"/><text fill="#000000" font-family="sans-serif" font-size="13" font-weight="bold" lengthAdjust="spacing" textLength="18" x="1070" y="1402.8091">29</text><text fill="#000000" font-family="sans-serif" font-size="13" lengthAdjust="spacing" textLength="154" x="1092" y="1402.8091">validateEmployee(emp)</text><line style="stroke:#A80036;stroke-width:1.0;" x1="1063" x2="1105" y1="1480.0078" y2="1480.0078"/><line style="stroke:#A80036;stroke-width:1.0;" x1="1105" x2="1105" y1="1480.0078" y2="1493.0078"/><line style="stroke:#A80036;stroke-width:1.0;" x1="1064" x2="1105" y1="1493.0078" y2="1493.0078"/><polygon fill="#A80036" points="1074,1489.0078,1064,1493.0078,1074,1497.0078,1070,1493.0078" style="stroke:#A80036;stroke-width:1.0;"/><text fill="#000000" font-family="sans-serif" font-size="13" font-weight="bold" lengthAdjust="spacing" textLength="18" x="1070" y="1474.9419">30</text><text fill="#000000" font-family="sans-serif" font-size="13" lengthAdjust="spacing" textLength="127" x="1092" y="1474.9419">addEmployee(emp)</text><polygon fill="#A80036" points="84,1548.1406,74,1552.1406,84,1556.1406,80,1552.1406" style="stroke:#A80036;stroke-width:1.0;"/><line style="stroke:#A80036;stroke-width:1.0;" x1="78" x2="568" y1="1552.1406" y2="1552.1406"/><text fill="#000000" font-family="sans-serif" font-size="13" font-weight="bold" lengthAdjust="spacing" textLength="17" x="90" y="1547.0747">31</text><text fill="#000000" font-family="sans-serif" font-size="13" lengthAdjust="spacing" textLength="169" x="111" y="1547.0747">informs operation success</text><!--MD5=[fe55c74f7c63637b07f7a8f2d5e12b4a]
@startuml
actor Administrator as Adm
participant ":RegisterEmployeeUI" as Interface
participant ":RegisterEmployeeController" as Controller
participant ":Company" as Company
participant ":RolesMapper" as RolesMapper
participant "empDto: EmployeeDto" as EmployeeDto
participant "role:OrgRole" as OrgRole


autonumber
activate Adm
Adm -> Interface: starts registering a new employee
activate Interface
Interface -> Controller: IRolesDto = getRoles()
activate Controller
Controller -> Company: lRolesDto = getRoles()
activate Company
deactivate Company
Controller -> RolesMapper: lRolesDto = toDTO(lRoles)
activate RolesMapper
deactivate RolesMapper
deactivate Controller
Interface - -> Adm: ask to select the employee role
deactivate Interface
Adm -> Interface: selects the intended role
activate Interface
Interface - -> Adm: request data (name, address, phoneNumber, emailAddress, socCode)
opt role = Specialist Doctor
    Interface - -> Adm: request data(doctorIndexNumber)
end
deactivate Interface


Adm -> Interface: types requested data
activate Interface
Interface - -> Controller: createEmployee(empDto)
activate Controller
Controller -> Company: emp = createEmployee(empDto)
activate Company
Company -> EmployeeDto: roleId = getRoleId()
activate EmployeeDto
deactivate EmployeeDto
Company -> Company: role = getRoleById(roleId)
activate Company
deactivate Company
Company -> EmployeeDto: id = getId()
activate EmployeeDto
deactivate EmployeeDto
Company -> EmployeeDto: name = getName()
activate EmployeeDto
deactivate EmployeeDto
Company -> EmployeeDto: adress = getAdress()
activate EmployeeDto
deactivate EmployeeDto
Company -> EmployeeDto: phoneNumber = getphoneNumber()
activate EmployeeDto
deactivate EmployeeDto
Company -> EmployeeDto: emailAdress = getEmailAdress()
activate EmployeeDto
deactivate EmployeeDto
Company -> EmployeeDto: socCode = getsocCode()
activate EmployeeDto
deactivate EmployeeDto
alt role != SpecialistDoctor
    Company -> OrgRole: emp = createEmployee(role, id, name, address, phoneNumber, emailAddress, socCode)
    activate OrgRole
else
    Company -> EmployeeDto: doctorIndexNumber = getDoctorIndexNumber()
    activate EmployeeDto
    deactivate EmployeeDto
    Company -> OrgRole: emp = createEmployee(role, id, name, address, phoneNumber, emailAddress, socCode, doctorIndexNumber)
end
alt role != SpecialistDoctor
    create "emp:Employee" as Employee
    OrgRole -> Employee: create(role, id, name, address, phoneNumber, emailAddress, socCode)
else
    create "emp:SpecialistDoctor" as Doctor
    OrgRole -> Doctor:create(role, id, name, address, phoneNumber, emailAddress, socCode, doctorIndexNumber)
end
deactivate OrgRole
deactivate Company
deactivate Controller

Interface -> Adm: shows the data and requests a confirmation
deactivate Interface
Adm -> Interface: confirms the data

activate Interface
Interface -> Controller: saveEmployee()
activate Controller
Controller -> Company: saveEmployee(emp)
activate Company
Company -> Company: validateEmployee(emp)
activate Company
deactivate Company
Company -> Company: addEmployee(emp)
activate Company
deactivate Company
deactivate Company
deactivate Controller
Interface -> Adm: informs operation success
deactivate Interface
deactivate Adm
@enduml

PlantUML version 1.2021.6beta4(Unknown compile time)
(GPL source distribution)
Java Runtime: Java(TM) SE Runtime Environment
JVM: Java HotSpot(TM) 64-Bit Server VM
Default Encoding: UTF-8
Language: en
Country: US
--></g></svg>