<?xml version="1.0" encoding="UTF-8" standalone="no"?><svg xmlns="http://www.w3.org/2000/svg" xmlns:xlink="http://www.w3.org/1999/xlink" contentScriptType="application/ecmascript" contentStyleType="text/css" height="1044px" preserveAspectRatio="none" style="width:1270px;height:1044px;background:#FFFFFF;" version="1.1" viewBox="0 0 1270 1044" width="1270px" zoomAndPan="magnify"><defs><filter height="300%" id="f1fsn2mc2uca2q" width="300%" x="-1" y="-1"><feGaussianBlur result="blurOut" stdDeviation="2.0"/><feColorMatrix in="blurOut" result="blurOut2" type="matrix" values="0 0 0 0 0 0 0 0 0 0 0 0 0 0 0 0 0 0 .4 0"/><feOffset dx="4.0" dy="4.0" in="blurOut2" result="blurOut3"/><feBlend in="SourceGraphic" in2="blurOut3" mode="normal"/></filter></defs><g><!--MD5=[63ea8315b4fc5d16749b6deb3fd5a801]
class RegistEmployeeUI--><rect fill="#FEFECE" filter="url(#f1fsn2mc2uca2q)" height="48" id="RegistEmployeeUI" style="stroke:#A80036;stroke-width:1.5;" width="141" x="239.5" y="7"/><ellipse cx="254.5" cy="23" fill="#ADD1B2" rx="11" ry="11" style="stroke:#A80036;stroke-width:1.0;"/><path d="M256.8438,18.6719 C255.9063,18.2344 255.3125,18.0938 254.4375,18.0938 C251.8125,18.0938 249.8125,20.1719 249.8125,22.8906 L249.8125,24.0156 C249.8125,26.5938 251.9219,28.4844 254.8125,28.4844 C256.0313,28.4844 257.1875,28.1875 257.9375,27.6406 C258.5156,27.2344 258.8438,26.7813 258.8438,26.3906 C258.8438,25.9375 258.4531,25.5469 257.9844,25.5469 C257.7656,25.5469 257.5625,25.625 257.375,25.8125 C256.9219,26.2969 256.9219,26.2969 256.7344,26.3906 C256.3125,26.6563 255.625,26.7813 254.8594,26.7813 C252.8125,26.7813 251.5156,25.6875 251.5156,23.9844 L251.5156,22.8906 C251.5156,21.1094 252.7656,19.7969 254.5,19.7969 C255.0781,19.7969 255.6875,19.9531 256.1563,20.2031 C256.6406,20.4844 256.8125,20.7031 256.9063,21.1094 C256.9688,21.5156 257,21.6406 257.1406,21.7656 C257.2813,21.9063 257.5156,22.0156 257.7344,22.0156 C258,22.0156 258.2656,21.875 258.4375,21.6563 C258.5469,21.5 258.5781,21.3125 258.5781,20.8906 L258.5781,19.4688 C258.5781,19.0313 258.5625,18.9063 258.4688,18.75 C258.3125,18.4844 258.0313,18.3438 257.7344,18.3438 C257.4375,18.3438 257.2344,18.4375 257.0156,18.75 L256.8438,18.6719 Z " fill="#000000"/><text fill="#000000" font-family="sans-serif" font-size="12" lengthAdjust="spacing" textLength="109" x="268.5" y="27.1543">RegistEmployeeUI</text><line style="stroke:#A80036;stroke-width:1.5;" x1="240.5" x2="379.5" y1="39" y2="39"/><line style="stroke:#A80036;stroke-width:1.5;" x1="240.5" x2="379.5" y1="47" y2="47"/><!--MD5=[24422a22d9cad4c0688c5344fc384838]
class RegistEmployeeController--><rect fill="#FEFECE" filter="url(#f1fsn2mc2uca2q)" height="86.4141" id="RegistEmployeeController" style="stroke:#A80036;stroke-width:1.5;" width="188" x="216" y="116"/><ellipse cx="231" cy="132" fill="#ADD1B2" rx="11" ry="11" style="stroke:#A80036;stroke-width:1.0;"/><path d="M233.3438,127.6719 C232.4063,127.2344 231.8125,127.0938 230.9375,127.0938 C228.3125,127.0938 226.3125,129.1719 226.3125,131.8906 L226.3125,133.0156 C226.3125,135.5938 228.4219,137.4844 231.3125,137.4844 C232.5313,137.4844 233.6875,137.1875 234.4375,136.6406 C235.0156,136.2344 235.3438,135.7813 235.3438,135.3906 C235.3438,134.9375 234.9531,134.5469 234.4844,134.5469 C234.2656,134.5469 234.0625,134.625 233.875,134.8125 C233.4219,135.2969 233.4219,135.2969 233.2344,135.3906 C232.8125,135.6563 232.125,135.7813 231.3594,135.7813 C229.3125,135.7813 228.0156,134.6875 228.0156,132.9844 L228.0156,131.8906 C228.0156,130.1094 229.2656,128.7969 231,128.7969 C231.5781,128.7969 232.1875,128.9531 232.6563,129.2031 C233.1406,129.4844 233.3125,129.7031 233.4063,130.1094 C233.4688,130.5156 233.5,130.6406 233.6406,130.7656 C233.7813,130.9063 234.0156,131.0156 234.2344,131.0156 C234.5,131.0156 234.7656,130.875 234.9375,130.6563 C235.0469,130.5 235.0781,130.3125 235.0781,129.8906 L235.0781,128.4688 C235.0781,128.0313 235.0625,127.9063 234.9688,127.75 C234.8125,127.4844 234.5313,127.3438 234.2344,127.3438 C233.9375,127.3438 233.7344,127.4375 233.5156,127.75 L233.3438,127.6719 Z " fill="#000000"/><text fill="#000000" font-family="sans-serif" font-size="12" lengthAdjust="spacing" textLength="156" x="245" y="136.1543">RegistEmployeeController</text><line style="stroke:#A80036;stroke-width:1.5;" x1="217" x2="403" y1="148" y2="148"/><line style="stroke:#A80036;stroke-width:1.5;" x1="217" x2="403" y1="156" y2="156"/><ellipse cx="227" cy="167" fill="#84BE84" rx="3" ry="3" style="stroke:#038048;stroke-width:1.0;"/><text fill="#000000" font-family="sans-serif" font-size="11" lengthAdjust="spacing" textLength="58" x="236" y="170.2104">getRoles()</text><ellipse cx="227" cy="179.8047" fill="#84BE84" rx="3" ry="3" style="stroke:#038048;stroke-width:1.0;"/><text fill="#000000" font-family="sans-serif" font-size="11" lengthAdjust="spacing" textLength="149" x="236" y="183.0151">createEmployee(empDto)</text><ellipse cx="227" cy="192.6094" fill="#84BE84" rx="3" ry="3" style="stroke:#038048;stroke-width:1.0;"/><text fill="#000000" font-family="sans-serif" font-size="11" lengthAdjust="spacing" textLength="94" x="236" y="195.8198">saveEmployee()</text><!--MD5=[02e4b9b7573f1156f41e60aa5b4e25a4]
class Company--><rect fill="#FEFECE" filter="url(#f1fsn2mc2uca2q)" height="48" id="Company" style="stroke:#A80036;stroke-width:1.5;" width="88" x="1142" y="392"/><ellipse cx="1157" cy="408" fill="#ADD1B2" rx="11" ry="11" style="stroke:#A80036;stroke-width:1.0;"/><path d="M1159.3438,403.6719 C1158.4063,403.2344 1157.8125,403.0938 1156.9375,403.0938 C1154.3125,403.0938 1152.3125,405.1719 1152.3125,407.8906 L1152.3125,409.0156 C1152.3125,411.5938 1154.4219,413.4844 1157.3125,413.4844 C1158.5313,413.4844 1159.6875,413.1875 1160.4375,412.6406 C1161.0156,412.2344 1161.3438,411.7813 1161.3438,411.3906 C1161.3438,410.9375 1160.9531,410.5469 1160.4844,410.5469 C1160.2656,410.5469 1160.0625,410.625 1159.875,410.8125 C1159.4219,411.2969 1159.4219,411.2969 1159.2344,411.3906 C1158.8125,411.6563 1158.125,411.7813 1157.3594,411.7813 C1155.3125,411.7813 1154.0156,410.6875 1154.0156,408.9844 L1154.0156,407.8906 C1154.0156,406.1094 1155.2656,404.7969 1157,404.7969 C1157.5781,404.7969 1158.1875,404.9531 1158.6563,405.2031 C1159.1406,405.4844 1159.3125,405.7031 1159.4063,406.1094 C1159.4688,406.5156 1159.5,406.6406 1159.6406,406.7656 C1159.7813,406.9063 1160.0156,407.0156 1160.2344,407.0156 C1160.5,407.0156 1160.7656,406.875 1160.9375,406.6563 C1161.0469,406.5 1161.0781,406.3125 1161.0781,405.8906 L1161.0781,404.4688 C1161.0781,404.0313 1161.0625,403.9063 1160.9688,403.75 C1160.8125,403.4844 1160.5313,403.3438 1160.2344,403.3438 C1159.9375,403.3438 1159.7344,403.4375 1159.5156,403.75 L1159.3438,403.6719 Z " fill="#000000"/><text fill="#000000" font-family="sans-serif" font-size="12" lengthAdjust="spacing" textLength="56" x="1171" y="412.1543">Company</text><line style="stroke:#A80036;stroke-width:1.5;" x1="1143" x2="1229" y1="424" y2="424"/><line style="stroke:#A80036;stroke-width:1.5;" x1="1143" x2="1229" y1="432" y2="432"/><!--MD5=[7421f545a0d8420c5bec41e74b387d9c]
class Employee--><rect fill="#FEFECE" filter="url(#f1fsn2mc2uca2q)" height="137.6328" id="Employee" style="stroke:#A80036;stroke-width:1.5;" width="431" x="141.5" y="758"/><ellipse cx="322.75" cy="774" fill="#ADD1B2" rx="11" ry="11" style="stroke:#A80036;stroke-width:1.0;"/><path d="M325.0938,769.6719 C324.1563,769.2344 323.5625,769.0938 322.6875,769.0938 C320.0625,769.0938 318.0625,771.1719 318.0625,773.8906 L318.0625,775.0156 C318.0625,777.5938 320.1719,779.4844 323.0625,779.4844 C324.2813,779.4844 325.4375,779.1875 326.1875,778.6406 C326.7656,778.2344 327.0938,777.7813 327.0938,777.3906 C327.0938,776.9375 326.7031,776.5469 326.2344,776.5469 C326.0156,776.5469 325.8125,776.625 325.625,776.8125 C325.1719,777.2969 325.1719,777.2969 324.9844,777.3906 C324.5625,777.6563 323.875,777.7813 323.1094,777.7813 C321.0625,777.7813 319.7656,776.6875 319.7656,774.9844 L319.7656,773.8906 C319.7656,772.1094 321.0156,770.7969 322.75,770.7969 C323.3281,770.7969 323.9375,770.9531 324.4063,771.2031 C324.8906,771.4844 325.0625,771.7031 325.1563,772.1094 C325.2188,772.5156 325.25,772.6406 325.3906,772.7656 C325.5313,772.9063 325.7656,773.0156 325.9844,773.0156 C326.25,773.0156 326.5156,772.875 326.6875,772.6563 C326.7969,772.5 326.8281,772.3125 326.8281,771.8906 L326.8281,770.4688 C326.8281,770.0313 326.8125,769.9063 326.7188,769.75 C326.5625,769.4844 326.2813,769.3438 325.9844,769.3438 C325.6875,769.3438 325.4844,769.4375 325.2656,769.75 L325.0938,769.6719 Z " fill="#000000"/><text fill="#000000" font-family="sans-serif" font-size="12" lengthAdjust="spacing" textLength="60" x="343.25" y="778.1543">Employee</text><line style="stroke:#A80036;stroke-width:1.5;" x1="142.5" x2="571.5" y1="790" y2="790"/><rect fill="none" height="6" style="stroke:#C82930;stroke-width:1.0;" width="6" x="149.5" y="798"/><text fill="#000000" font-family="sans-serif" font-size="11" lengthAdjust="spacing" textLength="71" x="161.5" y="804.2104">employeeID</text><rect fill="none" height="6" style="stroke:#C82930;stroke-width:1.0;" width="6" x="149.5" y="810.8047"/><text fill="#000000" font-family="sans-serif" font-size="11" lengthAdjust="spacing" textLength="33" x="161.5" y="817.0151">name</text><rect fill="none" height="6" style="stroke:#C82930;stroke-width:1.0;" width="6" x="149.5" y="823.6094"/><text fill="#000000" font-family="sans-serif" font-size="11" lengthAdjust="spacing" textLength="45" x="161.5" y="829.8198">address</text><rect fill="none" height="6" style="stroke:#C82930;stroke-width:1.0;" width="6" x="149.5" y="836.4141"/><text fill="#000000" font-family="sans-serif" font-size="11" lengthAdjust="spacing" textLength="81" x="161.5" y="842.6245">phoneNumber</text><rect fill="none" height="6" style="stroke:#C82930;stroke-width:1.0;" width="6" x="149.5" y="849.2188"/><text fill="#000000" font-family="sans-serif" font-size="11" lengthAdjust="spacing" textLength="49" x="161.5" y="855.4292">socCode</text><rect fill="none" height="6" style="stroke:#C82930;stroke-width:1.0;" width="6" x="149.5" y="862.0234"/><text fill="#000000" font-family="sans-serif" font-size="11" lengthAdjust="spacing" textLength="32" x="161.5" y="868.2339">email</text><line style="stroke:#A80036;stroke-width:1.5;" x1="142.5" x2="571.5" y1="874.8281" y2="874.8281"/><ellipse cx="152.5" cy="885.8281" fill="#84BE84" rx="3" ry="3" style="stroke:#038048;stroke-width:1.0;"/><text fill="#000000" font-family="sans-serif" font-size="11" lengthAdjust="spacing" textLength="405" x="161.5" y="889.0386">create(role, id, name, address, phoneNumber, emailAddress, socCode)</text><!--MD5=[7d96fd15f3014691d2fcaf89c5791e2a]
class SpecialistDoctor--><rect fill="#FEFECE" filter="url(#f1fsn2mc2uca2q)" height="73.6094" id="SpecialistDoctor" style="stroke:#A80036;stroke-width:1.5;" width="550" x="82" y="957"/><ellipse cx="303.25" cy="973" fill="#ADD1B2" rx="11" ry="11" style="stroke:#A80036;stroke-width:1.0;"/><path d="M305.5938,968.6719 C304.6563,968.2344 304.0625,968.0938 303.1875,968.0938 C300.5625,968.0938 298.5625,970.1719 298.5625,972.8906 L298.5625,974.0156 C298.5625,976.5938 300.6719,978.4844 303.5625,978.4844 C304.7813,978.4844 305.9375,978.1875 306.6875,977.6406 C307.2656,977.2344 307.5938,976.7813 307.5938,976.3906 C307.5938,975.9375 307.2031,975.5469 306.7344,975.5469 C306.5156,975.5469 306.3125,975.625 306.125,975.8125 C305.6719,976.2969 305.6719,976.2969 305.4844,976.3906 C305.0625,976.6563 304.375,976.7813 303.6094,976.7813 C301.5625,976.7813 300.2656,975.6875 300.2656,973.9844 L300.2656,972.8906 C300.2656,971.1094 301.5156,969.7969 303.25,969.7969 C303.8281,969.7969 304.4375,969.9531 304.9063,970.2031 C305.3906,970.4844 305.5625,970.7031 305.6563,971.1094 C305.7188,971.5156 305.75,971.6406 305.8906,971.7656 C306.0313,971.9063 306.2656,972.0156 306.4844,972.0156 C306.75,972.0156 307.0156,971.875 307.1875,971.6563 C307.2969,971.5 307.3281,971.3125 307.3281,970.8906 L307.3281,969.4688 C307.3281,969.0313 307.3125,968.9063 307.2188,968.75 C307.0625,968.4844 306.7813,968.3438 306.4844,968.3438 C306.1875,968.3438 305.9844,968.4375 305.7656,968.75 L305.5938,968.6719 Z " fill="#000000"/><text fill="#000000" font-family="sans-serif" font-size="12" lengthAdjust="spacing" textLength="99" x="323.75" y="977.1543">SpecialistDoctor</text><line style="stroke:#A80036;stroke-width:1.5;" x1="83" x2="631" y1="989" y2="989"/><rect fill="none" height="6" style="stroke:#C82930;stroke-width:1.0;" width="6" x="90" y="997"/><text fill="#000000" font-family="sans-serif" font-size="11" lengthAdjust="spacing" textLength="112" x="102" y="1003.2104">doctorIndexNumber</text><line style="stroke:#A80036;stroke-width:1.5;" x1="83" x2="631" y1="1009.8047" y2="1009.8047"/><ellipse cx="93" cy="1020.8047" fill="#84BE84" rx="3" ry="3" style="stroke:#038048;stroke-width:1.0;"/><text fill="#000000" font-family="sans-serif" font-size="11" lengthAdjust="spacing" textLength="524" x="102" y="1024.0151">create(role, id, name, address, phoneNumber, emailAddress, socCode, doctorIndexNumber)</text><!--MD5=[0af8f8019f740f778e383a70d6c8693f]
class RolesMapper--><rect fill="#FEFECE" filter="url(#f1fsn2mc2uca2q)" height="60.8047" id="RolesMapper" style="stroke:#A80036;stroke-width:1.5;" width="111" x="145.5" y="282"/><ellipse cx="160.5" cy="298" fill="#ADD1B2" rx="11" ry="11" style="stroke:#A80036;stroke-width:1.0;"/><path d="M162.8438,293.6719 C161.9063,293.2344 161.3125,293.0938 160.4375,293.0938 C157.8125,293.0938 155.8125,295.1719 155.8125,297.8906 L155.8125,299.0156 C155.8125,301.5938 157.9219,303.4844 160.8125,303.4844 C162.0313,303.4844 163.1875,303.1875 163.9375,302.6406 C164.5156,302.2344 164.8438,301.7813 164.8438,301.3906 C164.8438,300.9375 164.4531,300.5469 163.9844,300.5469 C163.7656,300.5469 163.5625,300.625 163.375,300.8125 C162.9219,301.2969 162.9219,301.2969 162.7344,301.3906 C162.3125,301.6563 161.625,301.7813 160.8594,301.7813 C158.8125,301.7813 157.5156,300.6875 157.5156,298.9844 L157.5156,297.8906 C157.5156,296.1094 158.7656,294.7969 160.5,294.7969 C161.0781,294.7969 161.6875,294.9531 162.1563,295.2031 C162.6406,295.4844 162.8125,295.7031 162.9063,296.1094 C162.9688,296.5156 163,296.6406 163.1406,296.7656 C163.2813,296.9063 163.5156,297.0156 163.7344,297.0156 C164,297.0156 164.2656,296.875 164.4375,296.6563 C164.5469,296.5 164.5781,296.3125 164.5781,295.8906 L164.5781,294.4688 C164.5781,294.0313 164.5625,293.9063 164.4688,293.75 C164.3125,293.4844 164.0313,293.3438 163.7344,293.3438 C163.4375,293.3438 163.2344,293.4375 163.0156,293.75 L162.8438,293.6719 Z " fill="#000000"/><text fill="#000000" font-family="sans-serif" font-size="12" lengthAdjust="spacing" textLength="79" x="174.5" y="302.1543">RolesMapper</text><line style="stroke:#A80036;stroke-width:1.5;" x1="146.5" x2="255.5" y1="314" y2="314"/><line style="stroke:#A80036;stroke-width:1.5;" x1="146.5" x2="255.5" y1="322" y2="322"/><ellipse cx="156.5" cy="333" fill="#84BE84" rx="3" ry="3" style="stroke:#038048;stroke-width:1.0;"/><text fill="#000000" font-family="sans-serif" font-size="11" lengthAdjust="spacing" textLength="78" x="165.5" y="336.2104">toDTO(lRoles)</text><!--MD5=[38bc9548dd9b3552396f9d08e2f99d94]
class EmployeeDto--><rect fill="#FEFECE" filter="url(#f1fsn2mc2uca2q)" height="227.2656" id="EmployeeDto" style="stroke:#A80036;stroke-width:1.5;" width="167" x="201.5" y="470"/><ellipse cx="240.8" cy="486" fill="#ADD1B2" rx="11" ry="11" style="stroke:#A80036;stroke-width:1.0;"/><path d="M243.1438,481.6719 C242.2063,481.2344 241.6125,481.0938 240.7375,481.0938 C238.1125,481.0938 236.1125,483.1719 236.1125,485.8906 L236.1125,487.0156 C236.1125,489.5938 238.2219,491.4844 241.1125,491.4844 C242.3313,491.4844 243.4875,491.1875 244.2375,490.6406 C244.8156,490.2344 245.1438,489.7813 245.1438,489.3906 C245.1438,488.9375 244.7531,488.5469 244.2844,488.5469 C244.0656,488.5469 243.8625,488.625 243.675,488.8125 C243.2219,489.2969 243.2219,489.2969 243.0344,489.3906 C242.6125,489.6563 241.925,489.7813 241.1594,489.7813 C239.1125,489.7813 237.8156,488.6875 237.8156,486.9844 L237.8156,485.8906 C237.8156,484.1094 239.0656,482.7969 240.8,482.7969 C241.3781,482.7969 241.9875,482.9531 242.4563,483.2031 C242.9406,483.4844 243.1125,483.7031 243.2063,484.1094 C243.2688,484.5156 243.3,484.6406 243.4406,484.7656 C243.5813,484.9063 243.8156,485.0156 244.0344,485.0156 C244.3,485.0156 244.5656,484.875 244.7375,484.6563 C244.8469,484.5 244.8781,484.3125 244.8781,483.8906 L244.8781,482.4688 C244.8781,482.0313 244.8625,481.9063 244.7688,481.75 C244.6125,481.4844 244.3313,481.3438 244.0344,481.3438 C243.7375,481.3438 243.5344,481.4375 243.3156,481.75 L243.1438,481.6719 Z " fill="#000000"/><text fill="#000000" font-family="sans-serif" font-size="12" lengthAdjust="spacing" textLength="81" x="260.2" y="490.1543">EmployeeDto</text><line style="stroke:#A80036;stroke-width:1.5;" x1="202.5" x2="367.5" y1="502" y2="502"/><rect fill="none" height="6" style="stroke:#C82930;stroke-width:1.0;" width="6" x="209.5" y="510"/><text fill="#000000" font-family="sans-serif" font-size="11" lengthAdjust="spacing" textLength="71" x="221.5" y="516.2104">employeeID</text><rect fill="none" height="6" style="stroke:#C82930;stroke-width:1.0;" width="6" x="209.5" y="522.8047"/><text fill="#000000" font-family="sans-serif" font-size="11" lengthAdjust="spacing" textLength="33" x="221.5" y="529.0151">name</text><rect fill="none" height="6" style="stroke:#C82930;stroke-width:1.0;" width="6" x="209.5" y="535.6094"/><text fill="#000000" font-family="sans-serif" font-size="11" lengthAdjust="spacing" textLength="45" x="221.5" y="541.8198">address</text><rect fill="none" height="6" style="stroke:#C82930;stroke-width:1.0;" width="6" x="209.5" y="548.4141"/><text fill="#000000" font-family="sans-serif" font-size="11" lengthAdjust="spacing" textLength="81" x="221.5" y="554.6245">phoneNumber</text><rect fill="none" height="6" style="stroke:#C82930;stroke-width:1.0;" width="6" x="209.5" y="561.2188"/><text fill="#000000" font-family="sans-serif" font-size="11" lengthAdjust="spacing" textLength="49" x="221.5" y="567.4292">socCode</text><rect fill="none" height="6" style="stroke:#C82930;stroke-width:1.0;" width="6" x="209.5" y="574.0234"/><text fill="#000000" font-family="sans-serif" font-size="11" lengthAdjust="spacing" textLength="32" x="221.5" y="580.2339">email</text><line style="stroke:#A80036;stroke-width:1.5;" x1="202.5" x2="367.5" y1="586.8281" y2="586.8281"/><ellipse cx="212.5" cy="597.8281" fill="#84BE84" rx="3" ry="3" style="stroke:#038048;stroke-width:1.0;"/><text fill="#000000" font-family="sans-serif" font-size="11" lengthAdjust="spacing" textLength="62" x="221.5" y="601.0386">getRoleId()</text><ellipse cx="212.5" cy="610.6328" fill="#84BE84" rx="3" ry="3" style="stroke:#038048;stroke-width:1.0;"/><text fill="#000000" font-family="sans-serif" font-size="11" lengthAdjust="spacing" textLength="37" x="221.5" y="613.8433">getId()</text><ellipse cx="212.5" cy="623.4375" fill="#84BE84" rx="3" ry="3" style="stroke:#038048;stroke-width:1.0;"/><text fill="#000000" font-family="sans-serif" font-size="11" lengthAdjust="spacing" textLength="61" x="221.5" y="626.6479">getName()</text><ellipse cx="212.5" cy="636.2422" fill="#84BE84" rx="3" ry="3" style="stroke:#038048;stroke-width:1.0;"/><text fill="#000000" font-family="sans-serif" font-size="11" lengthAdjust="spacing" textLength="66" x="221.5" y="639.4526">getAdress()</text><ellipse cx="212.5" cy="649.0469" fill="#84BE84" rx="3" ry="3" style="stroke:#038048;stroke-width:1.0;"/><text fill="#000000" font-family="sans-serif" font-size="11" lengthAdjust="spacing" textLength="107" x="221.5" y="652.2573">getPhoneNumber()</text><ellipse cx="212.5" cy="661.8516" fill="#84BE84" rx="3" ry="3" style="stroke:#038048;stroke-width:1.0;"/><text fill="#000000" font-family="sans-serif" font-size="11" lengthAdjust="spacing" textLength="78" x="221.5" y="665.062">getSocCode()</text><ellipse cx="212.5" cy="674.6563" fill="#84BE84" rx="3" ry="3" style="stroke:#038048;stroke-width:1.0;"/><text fill="#000000" font-family="sans-serif" font-size="11" lengthAdjust="spacing" textLength="58" x="221.5" y="677.8667">getEmail()</text><ellipse cx="212.5" cy="687.4609" fill="#84BE84" rx="3" ry="3" style="stroke:#038048;stroke-width:1.0;"/><text fill="#000000" font-family="sans-serif" font-size="11" lengthAdjust="spacing" textLength="141" x="221.5" y="690.6714">getDoctorIndexNumber()</text><!--MD5=[eb43809e1ad34cd297c168a029a4f88c]
class RolesStore--><rect fill="#FEFECE" filter="url(#f1fsn2mc2uca2q)" height="73.6094" id="RolesStore" style="stroke:#A80036;stroke-width:1.5;" width="135" x="1047.5" y="546.5"/><ellipse cx="1079.15" cy="562.5" fill="#ADD1B2" rx="11" ry="11" style="stroke:#A80036;stroke-width:1.0;"/><path d="M1081.4938,558.1719 C1080.5563,557.7344 1079.9625,557.5938 1079.0875,557.5938 C1076.4625,557.5938 1074.4625,559.6719 1074.4625,562.3906 L1074.4625,563.5156 C1074.4625,566.0938 1076.5719,567.9844 1079.4625,567.9844 C1080.6813,567.9844 1081.8375,567.6875 1082.5875,567.1406 C1083.1656,566.7344 1083.4938,566.2813 1083.4938,565.8906 C1083.4938,565.4375 1083.1031,565.0469 1082.6344,565.0469 C1082.4156,565.0469 1082.2125,565.125 1082.025,565.3125 C1081.5719,565.7969 1081.5719,565.7969 1081.3844,565.8906 C1080.9625,566.1563 1080.275,566.2813 1079.5094,566.2813 C1077.4625,566.2813 1076.1656,565.1875 1076.1656,563.4844 L1076.1656,562.3906 C1076.1656,560.6094 1077.4156,559.2969 1079.15,559.2969 C1079.7281,559.2969 1080.3375,559.4531 1080.8063,559.7031 C1081.2906,559.9844 1081.4625,560.2031 1081.5563,560.6094 C1081.6188,561.0156 1081.65,561.1406 1081.7906,561.2656 C1081.9313,561.4063 1082.1656,561.5156 1082.3844,561.5156 C1082.65,561.5156 1082.9156,561.375 1083.0875,561.1563 C1083.1969,561 1083.2281,560.8125 1083.2281,560.3906 L1083.2281,558.9688 C1083.2281,558.5313 1083.2125,558.4063 1083.1188,558.25 C1082.9625,557.9844 1082.6813,557.8438 1082.3844,557.8438 C1082.0875,557.8438 1081.8844,557.9375 1081.6656,558.25 L1081.4938,558.1719 Z " fill="#000000"/><text fill="#000000" font-family="sans-serif" font-size="12" lengthAdjust="spacing" textLength="66" x="1096.85" y="566.6543">RolesStore</text><line style="stroke:#A80036;stroke-width:1.5;" x1="1048.5" x2="1181.5" y1="578.5" y2="578.5"/><line style="stroke:#A80036;stroke-width:1.5;" x1="1048.5" x2="1181.5" y1="586.5" y2="586.5"/><ellipse cx="1058.5" cy="597.5" fill="#84BE84" rx="3" ry="3" style="stroke:#038048;stroke-width:1.0;"/><text fill="#000000" font-family="sans-serif" font-size="11" lengthAdjust="spacing" textLength="58" x="1067.5" y="600.7104">getRoles()</text><ellipse cx="1058.5" cy="610.3047" fill="#84BE84" rx="3" ry="3" style="stroke:#038048;stroke-width:1.0;"/><text fill="#000000" font-family="sans-serif" font-size="11" lengthAdjust="spacing" textLength="109" x="1067.5" y="613.5151">getRoleById(roleId)</text><!--MD5=[829fb52c07ade3ad64ef85b99d1fca10]
class EmployeeStore--><rect fill="#FEFECE" filter="url(#f1fsn2mc2uca2q)" height="99.2188" id="EmployeeStore" style="stroke:#A80036;stroke-width:1.5;" width="175" x="491.5" y="263"/><ellipse cx="529" cy="279" fill="#ADD1B2" rx="11" ry="11" style="stroke:#A80036;stroke-width:1.0;"/><path d="M531.3438,274.6719 C530.4063,274.2344 529.8125,274.0938 528.9375,274.0938 C526.3125,274.0938 524.3125,276.1719 524.3125,278.8906 L524.3125,280.0156 C524.3125,282.5938 526.4219,284.4844 529.3125,284.4844 C530.5313,284.4844 531.6875,284.1875 532.4375,283.6406 C533.0156,283.2344 533.3438,282.7813 533.3438,282.3906 C533.3438,281.9375 532.9531,281.5469 532.4844,281.5469 C532.2656,281.5469 532.0625,281.625 531.875,281.8125 C531.4219,282.2969 531.4219,282.2969 531.2344,282.3906 C530.8125,282.6563 530.125,282.7813 529.3594,282.7813 C527.3125,282.7813 526.0156,281.6875 526.0156,279.9844 L526.0156,278.8906 C526.0156,277.1094 527.2656,275.7969 529,275.7969 C529.5781,275.7969 530.1875,275.9531 530.6563,276.2031 C531.1406,276.4844 531.3125,276.7031 531.4063,277.1094 C531.4688,277.5156 531.5,277.6406 531.6406,277.7656 C531.7813,277.9063 532.0156,278.0156 532.2344,278.0156 C532.5,278.0156 532.7656,277.875 532.9375,277.6563 C533.0469,277.5 533.0781,277.3125 533.0781,276.8906 L533.0781,275.4688 C533.0781,275.0313 533.0625,274.9063 532.9688,274.75 C532.8125,274.4844 532.5313,274.3438 532.2344,274.3438 C531.9375,274.3438 531.7344,274.4375 531.5156,274.75 L531.3438,274.6719 Z " fill="#000000"/><text fill="#000000" font-family="sans-serif" font-size="12" lengthAdjust="spacing" textLength="93" x="548" y="283.1543">EmployeeStore</text><line style="stroke:#A80036;stroke-width:1.5;" x1="492.5" x2="665.5" y1="295" y2="295"/><line style="stroke:#A80036;stroke-width:1.5;" x1="492.5" x2="665.5" y1="303" y2="303"/><ellipse cx="502.5" cy="314" fill="#84BE84" rx="3" ry="3" style="stroke:#038048;stroke-width:1.0;"/><text fill="#000000" font-family="sans-serif" font-size="11" lengthAdjust="spacing" textLength="149" x="511.5" y="317.2104">createEmployee(empDto)</text><ellipse cx="502.5" cy="326.8047" fill="#84BE84" rx="3" ry="3" style="stroke:#038048;stroke-width:1.0;"/><text fill="#000000" font-family="sans-serif" font-size="11" lengthAdjust="spacing" textLength="120" x="511.5" y="330.0151">saveEmployee(emp)</text><ellipse cx="502.5" cy="339.6094" fill="#84BE84" rx="3" ry="3" style="stroke:#038048;stroke-width:1.0;"/><text fill="#000000" font-family="sans-serif" font-size="11" lengthAdjust="spacing" textLength="138" x="511.5" y="342.8198">validateEmployee(emp)</text><ellipse cx="502.5" cy="352.4141" fill="#84BE84" rx="3" ry="3" style="stroke:#038048;stroke-width:1.0;"/><text fill="#000000" font-family="sans-serif" font-size="11" lengthAdjust="spacing" textLength="113" x="511.5" y="355.6245">addEmployee(emp)</text><!--MD5=[b65e6cec79d32d494d76fa2df2ac0ae9]
class OrgRole--><rect fill="#FEFECE" filter="url(#f1fsn2mc2uca2q)" height="73.6094" id="OrgRole" style="stroke:#A80036;stroke-width:1.5;" width="608" x="404" y="546.5"/><ellipse cx="679.25" cy="562.5" fill="#ADD1B2" rx="11" ry="11" style="stroke:#A80036;stroke-width:1.0;"/><path d="M681.5938,558.1719 C680.6563,557.7344 680.0625,557.5938 679.1875,557.5938 C676.5625,557.5938 674.5625,559.6719 674.5625,562.3906 L674.5625,563.5156 C674.5625,566.0938 676.6719,567.9844 679.5625,567.9844 C680.7813,567.9844 681.9375,567.6875 682.6875,567.1406 C683.2656,566.7344 683.5938,566.2813 683.5938,565.8906 C683.5938,565.4375 683.2031,565.0469 682.7344,565.0469 C682.5156,565.0469 682.3125,565.125 682.125,565.3125 C681.6719,565.7969 681.6719,565.7969 681.4844,565.8906 C681.0625,566.1563 680.375,566.2813 679.6094,566.2813 C677.5625,566.2813 676.2656,565.1875 676.2656,563.4844 L676.2656,562.3906 C676.2656,560.6094 677.5156,559.2969 679.25,559.2969 C679.8281,559.2969 680.4375,559.4531 680.9063,559.7031 C681.3906,559.9844 681.5625,560.2031 681.6563,560.6094 C681.7188,561.0156 681.75,561.1406 681.8906,561.2656 C682.0313,561.4063 682.2656,561.5156 682.4844,561.5156 C682.75,561.5156 683.0156,561.375 683.1875,561.1563 C683.2969,561 683.3281,560.8125 683.3281,560.3906 L683.3281,558.9688 C683.3281,558.5313 683.3125,558.4063 683.2188,558.25 C683.0625,557.9844 682.7813,557.8438 682.4844,557.8438 C682.1875,557.8438 681.9844,557.9375 681.7656,558.25 L681.5938,558.1719 Z " fill="#000000"/><text fill="#000000" font-family="sans-serif" font-size="12" lengthAdjust="spacing" textLength="49" x="699.75" y="566.6543">OrgRole</text><line style="stroke:#A80036;stroke-width:1.5;" x1="405" x2="1011" y1="578.5" y2="578.5"/><line style="stroke:#A80036;stroke-width:1.5;" x1="405" x2="1011" y1="586.5" y2="586.5"/><ellipse cx="415" cy="597.5" fill="#84BE84" rx="3" ry="3" style="stroke:#038048;stroke-width:1.0;"/><text fill="#000000" font-family="sans-serif" font-size="11" lengthAdjust="spacing" textLength="463" x="424" y="600.7104">createEmployee(role, id, name, address, phoneNumber, emailAddress, socCode)</text><ellipse cx="415" cy="610.3047" fill="#84BE84" rx="3" ry="3" style="stroke:#038048;stroke-width:1.0;"/><text fill="#000000" font-family="sans-serif" font-size="11" lengthAdjust="spacing" textLength="582" x="424" y="613.5151">createEmployee(role, id, name, address, phoneNumber, emailAddress, socCode, doctorIndexNumber)</text><!--MD5=[33a7f872ce2468d1ec84bbf47d52f016]
link RegistEmployeeUI to RegistEmployeeController--><path codeLine="1" d="M310,55.11 C310,70.631 310,91.639 310,110.625 " fill="none" id="RegistEmployeeUI-to-RegistEmployeeController" style="stroke:#A80036;stroke-width:1.0;stroke-dasharray:7.0,7.0;"/><polygon fill="#A80036" points="310,115.921,314,106.921,310,110.921,306,106.921,310,115.921" style="stroke:#A80036;stroke-width:1.0;"/><!--MD5=[7879389e553e47099bb5ce963a6a89bb]
link RegistEmployeeController to Company--><path codeLine="2" d="M404.058,164.627 C555.808,173.104 847.323,193.856 943,232 C1033.06,267.904 1118.91,346.42 1160.28,387.97 " fill="none" id="RegistEmployeeController-to-Company" style="stroke:#A80036;stroke-width:1.0;stroke-dasharray:7.0,7.0;"/><polygon fill="#A80036" points="1164.15,391.873,1160.648,382.6678,1160.6274,388.3246,1154.9706,388.304,1164.15,391.873" style="stroke:#A80036;stroke-width:1.0;"/><!--MD5=[cabe1ee7c4a8c7c592a978b516274c0f]
link RegistEmployeeController to Employee--><path codeLine="3" d="M215.737,190.405 C181.921,206.381 147.386,229.754 128,263 C83.9556,338.535 23.1067,490.988 146,697 C159.455,719.556 178.528,738.698 199.766,754.77 " fill="none" id="RegistEmployeeController-to-Employee" style="stroke:#A80036;stroke-width:1.0;stroke-dasharray:7.0,7.0;"/><polygon fill="#A80036" points="204.041,757.943,199.1988,749.3667,200.0263,754.9627,194.4303,755.7902,204.041,757.943" style="stroke:#A80036;stroke-width:1.0;"/><!--MD5=[4badba6472209f0aa597282efe415a17]
link RegistEmployeeController to SpecialistDoctor--><path codeLine="4" d="M215.894,167.821 C126.613,181.005 6,216.413 6,311.5 C6,311.5 6,311.5 6,828 C6,891.82 54.1136,931.0008 114.714,955.0384 " fill="none" id="RegistEmployeeController-to-SpecialistDoctor" style="stroke:#A80036;stroke-width:1.0;stroke-dasharray:7.0,7.0;"/><polygon fill="#A80036" points="119.475,956.8865,112.5332,949.9,114.8141,955.0766,109.6374,957.3575,119.475,956.8865" style="stroke:#A80036;stroke-width:1.0;"/><!--MD5=[5bcd26800992edffbcde82182f960fe0]
link RegistEmployeeController to RolesMapper--><path codeLine="5" d="M279.637,202.201 C262.44,226.104 241.224,255.592 225.165,277.913 " fill="none" id="RegistEmployeeController-to-RolesMapper" style="stroke:#A80036;stroke-width:1.0;stroke-dasharray:7.0,7.0;"/><polygon fill="#A80036" points="222.228,281.994,230.7311,277.0244,225.1481,277.9353,224.2372,272.3523,222.228,281.994" style="stroke:#A80036;stroke-width:1.0;"/><!--MD5=[3ba3fc94fde4123e40d46e16e02d6f75]
link RegistEmployeeController to EmployeeDto--><path codeLine="6" d="M307.512,202.056 C303.921,262.733 297.15,377.157 291.969,464.731 " fill="none" id="RegistEmployeeController-to-EmployeeDto" style="stroke:#A80036;stroke-width:1.0;stroke-dasharray:7.0,7.0;"/><polygon fill="#A80036" points="291.661,469.932,296.1863,461.1843,291.9567,464.9408,288.2003,460.7112,291.661,469.932" style="stroke:#A80036;stroke-width:1.0;"/><!--MD5=[c9c09bde947793987373fe555a7a7ec3]
link RegistEmployeeController to RolesStore--><path codeLine="7" d="M404.201,178.524 C481.292,195.423 592.192,223.757 684,263 C848.775,333.433 896.64,350.306 1030,470 C1053.41,491.011 1074.74,519.275 1090.17,542.216 " fill="none" id="RegistEmployeeController-to-RolesStore" style="stroke:#A80036;stroke-width:1.0;stroke-dasharray:7.0,7.0;"/><polygon fill="#A80036" points="1092.98,546.435,1091.329,536.7255,1090.2121,542.271,1084.6666,541.1542,1092.98,546.435" style="stroke:#A80036;stroke-width:1.0;"/><!--MD5=[8647a42f40d73053167dfb792f5699c4]
link RegistEmployeeController to EmployeeStore--><path codeLine="8" d="M384.574,202 C416.716,220.102 454.598,241.437 488.344,260.443 " fill="none" id="RegistEmployeeController-to-EmployeeStore" style="stroke:#A80036;stroke-width:1.0;stroke-dasharray:7.0,7.0;"/><polygon fill="#A80036" points="492.864,262.988,486.9866,255.085,488.5079,260.5335,483.0595,262.0548,492.864,262.988" style="stroke:#A80036;stroke-width:1.0;"/><!--MD5=[05bb443f13c24d2a3d695abe44919fbd]
link OrgRole to Employee--><path codeLine="10" d="M655.452,620.655 C603.989,656.063 524.182,710.973 460.039,755.106 " fill="none" id="OrgRole-to-Employee" style="stroke:#A80036;stroke-width:1.0;stroke-dasharray:7.0,7.0;"/><polygon fill="#A80036" points="455.837,757.997,465.5187,756.19,459.9559,755.1625,460.9834,749.5997,455.837,757.997" style="stroke:#A80036;stroke-width:1.0;"/><!--MD5=[5b0c2fa1a27119611715da92b0d07929]
link OrgRole to SpecialistDoctor--><path codeLine="11" d="M703.68,620.699 C694.259,684.409 666.226,817.265 590,896 C565.236,921.579 532.719,940.6928 499.866,954.8682 " fill="none" id="OrgRole-to-SpecialistDoctor" style="stroke:#A80036;stroke-width:1.0;stroke-dasharray:7.0,7.0;"/><polygon fill="#A80036" points="495.017,956.924,504.8644,957.0916,499.6199,954.9713,501.7402,949.7269,495.017,956.924" style="stroke:#A80036;stroke-width:1.0;"/><!--MD5=[372bd27a178b4208a6d241b4516ac7e6]
reverse link Employee to SpecialistDoctor--><path codeLine="12" d="M357,916.233 C357,930.518 357,944.5721 357,956.672 " fill="none" id="Employee-backto-SpecialistDoctor" style="stroke:#A80036;stroke-width:1.0;"/><polygon fill="none" points="350,916.064,357,896.064,364,916.064,350,916.064" style="stroke:#A80036;stroke-width:1.0;"/><!--MD5=[09366576ee87d48d594df10cacc83f45]
link Company to Employee--><path codeLine="18" d="M1196.65,440.335 C1218.98,493.143 1263.57,622.96 1200,697 C1121.29,788.671 800.281,815.887 577.927,823.573 " fill="none" id="Company-to-Employee" style="stroke:#A80036;stroke-width:1.0;"/><polygon fill="#A80036" points="572.693,823.751,581.8238,827.4427,577.6901,823.581,581.5518,819.4473,572.693,823.751" style="stroke:#A80036;stroke-width:1.0;"/><text fill="#000000" font-family="sans-serif" font-size="13" lengthAdjust="spacing" textLength="23" x="1233" y="588.0669">has</text><text fill="#000000" font-family="sans-serif" font-size="13" lengthAdjust="spacing" textLength="8" x="1190.2709" y="460.1779">1</text><text fill="#000000" font-family="sans-serif" font-size="13" lengthAdjust="spacing" textLength="7" x="580.5702" y="820.4406">*</text><!--MD5=[4e174ecb1fa80f9039df9a21e1a7acca]
link EmployeeStore to EmployeeDto--><path codeLine="20" d="M513.85,362.174 C475.395,391.906 426.482,431.503 386,470 C381.377,474.396 376.722,478.972 372.082,483.653 " fill="none" id="EmployeeStore-to-EmployeeDto" style="stroke:#A80036;stroke-width:1.0;stroke-dasharray:7.0,7.0;"/><polygon fill="#A80036" points="368.537,487.252,377.7027,483.6478,372.046,483.6901,372.0037,478.0334,368.537,487.252" style="stroke:#A80036;stroke-width:1.0;"/><!--MD5=[f7651e2755be22b47e95b8473d502cc3]
link EmployeeStore to RolesStore--><path codeLine="21" d="M666.62,353.773 C728.354,380.966 813.497,416.12 891,440 C951.398,458.609 976.729,435.993 1030,470 C1057.49,487.546 1079.38,517.293 1094.06,541.792 " fill="none" id="EmployeeStore-to-RolesStore" style="stroke:#A80036;stroke-width:1.0;stroke-dasharray:7.0,7.0;"/><polygon fill="#A80036" points="1096.72,546.301,1095.6033,536.5157,1094.1843,541.9917,1088.7083,540.5727,1096.72,546.301" style="stroke:#A80036;stroke-width:1.0;"/><!--MD5=[81e84b04f1ede2408b2b7bfd9f3823aa]
link EmployeeStore to OrgRole--><path codeLine="22" d="M602.361,362.214 C626.979,413.549 665.319,493.499 688.411,541.652 " fill="none" id="EmployeeStore-to-OrgRole" style="stroke:#A80036;stroke-width:1.0;stroke-dasharray:7.0,7.0;"/><polygon fill="#A80036" points="690.597,546.211,690.3107,536.3663,688.4344,541.7029,683.0978,539.8265,690.597,546.211" style="stroke:#A80036;stroke-width:1.0;"/><!--MD5=[9db97311ab7c9c2de0c6a7607c8a3d3f]
link RolesMapper to EmployeeDto--><path codeLine="24" d="M210.23,343.057 C219.461,372.62 234.264,420.025 248.272,464.884 " fill="none" id="RolesMapper-to-EmployeeDto" style="stroke:#A80036;stroke-width:1.0;stroke-dasharray:7.0,7.0;"/><polygon fill="#A80036" points="249.8,469.777,250.9363,459.9939,248.31,465.0042,243.2997,462.3779,249.8,469.777" style="stroke:#A80036;stroke-width:1.0;"/><!--MD5=[198842342dbe8aaca683ed8c593a597f]
link RolesMapper to Employee--><path codeLine="26" d="M190.334,343.422 C168.224,410.808 124.225,577.864 184,697 C194.934,718.793 211.489,737.842 230.1,754.134 " fill="none" id="RolesMapper-to-Employee" style="stroke:#A80036;stroke-width:1.0;stroke-dasharray:7.0,7.0;"/><polygon fill="#A80036" points="234.357,757.783,230.128,748.8883,230.5611,754.5286,224.9209,754.9617,234.357,757.783" style="stroke:#A80036;stroke-width:1.0;"/><!--MD5=[df0f56d4e4b7b4daa019bd1debcf750c]
@startuml
RegistEmployeeUI ..> RegistEmployeeController
RegistEmployeeController ..>Company
RegistEmployeeController ..>Employee
RegistEmployeeController ..>SpecialistDoctor
RegistEmployeeController ..>RolesMapper
RegistEmployeeController ..>EmployeeDto
RegistEmployeeController ..>RolesStore
RegistEmployeeController ..>EmployeeStore

OrgRole ..> Employee
OrgRole ..> SpecialistDoctor
Employee <|- - SpecialistDoctor

RegistEmployeeController : +getRoles()
RegistEmployeeController : +createEmployee(empDto)
RegistEmployeeController : +saveEmployee()

Company "1" - -> "*" Employee: has

EmployeeStore ..>EmployeeDto
EmployeeStore ..>RolesStore
EmployeeStore ..>OrgRole 

RolesMapper ..> EmployeeDto

RolesMapper ..> Employee

RolesMapper : +toDTO(lRoles)

RolesStore : +getRoles()
EmployeeStore : +createEmployee(empDto)
RolesStore : +getRoleById(roleId)
EmployeeStore : +saveEmployee(emp)
EmployeeStore : +validateEmployee(emp)
EmployeeStore : +addEmployee(emp)

OrgRole : +createEmployee(role, id, name, address, phoneNumber, emailAddress, socCode)
OrgRole : +createEmployee(role, id, name, address, phoneNumber, emailAddress, socCode, doctorIndexNumber)

EmployeeDto : +getRoleId()
EmployeeDto : +getId()
EmployeeDto : +getName()
EmployeeDto : +getAdress()
EmployeeDto : +getPhoneNumber()
EmployeeDto : +getSocCode()
EmployeeDto : +getEmail()
EmployeeDto : +getDoctorIndexNumber()
EmployeeDto : -employeeID
EmployeeDto : -name
EmployeeDto : -address
EmployeeDto : -phoneNumber
EmployeeDto : -socCode
EmployeeDto : -email

Employee : +create(role, id, name, address, phoneNumber, emailAddress, socCode)
Employee : -employeeID
Employee : -name
Employee : -address
Employee : -phoneNumber
Employee : -socCode
Employee : -email

SpecialistDoctor : +create(role, id, name, address, phoneNumber, emailAddress, socCode, doctorIndexNumber)
SpecialistDoctor : -doctorIndexNumber
@enduml

PlantUML version 1.2021.6beta6(Unknown compile time)
(GPL source distribution)
Java Runtime: Java(TM) SE Runtime Environment
JVM: Java HotSpot(TM) 64-Bit Server VM
Default Encoding: UTF-8
Language: en
Country: US
--></g></svg>