<?xml version="1.0" encoding="UTF-8" standalone="no"?><svg xmlns="http://www.w3.org/2000/svg" xmlns:xlink="http://www.w3.org/1999/xlink" contentScriptType="application/ecmascript" contentStyleType="text/css" height="291px" preserveAspectRatio="none" style="width:637px;height:291px;background:#FFFFFF;" version="1.1" viewBox="0 0 637 291" width="637px" zoomAndPan="magnify"><defs><filter height="300%" id="fi8i9anz4yei9" width="300%" x="-1" y="-1"><feGaussianBlur result="blurOut" stdDeviation="2.0"/><feColorMatrix in="blurOut" result="blurOut2" type="matrix" values="0 0 0 0 0 0 0 0 0 0 0 0 0 0 0 0 0 0 .4 0"/><feOffset dx="4.0" dy="4.0" in="blurOut2" result="blurOut3"/><feBlend in="SourceGraphic" in2="blurOut3" mode="normal"/></filter></defs><g><!--MD5=[02e4b9b7573f1156f41e60aa5b4e25a4]
class Company--><rect codeLine="6" fill="#FEFECE" filter="url(#fi8i9anz4yei9)" height="52.8047" id="Company" style="stroke:#A80036;stroke-width:1.5;" width="88" x="19" y="23"/><ellipse cx="34" cy="39" fill="#ADD1B2" rx="11" ry="11" style="stroke:#A80036;stroke-width:1.0;"/><path d="M36.3438,34.6719 C35.4063,34.2344 34.8125,34.0938 33.9375,34.0938 C31.3125,34.0938 29.3125,36.1719 29.3125,38.8906 L29.3125,40.0156 C29.3125,42.5938 31.4219,44.4844 34.3125,44.4844 C35.5313,44.4844 36.6875,44.1875 37.4375,43.6406 C38.0156,43.2344 38.3438,42.7813 38.3438,42.3906 C38.3438,41.9375 37.9531,41.5469 37.4844,41.5469 C37.2656,41.5469 37.0625,41.625 36.875,41.8125 C36.4219,42.2969 36.4219,42.2969 36.2344,42.3906 C35.8125,42.6563 35.125,42.7813 34.3594,42.7813 C32.3125,42.7813 31.0156,41.6875 31.0156,39.9844 L31.0156,38.8906 C31.0156,37.1094 32.2656,35.7969 34,35.7969 C34.5781,35.7969 35.1875,35.9531 35.6563,36.2031 C36.1406,36.4844 36.3125,36.7031 36.4063,37.1094 C36.4688,37.5156 36.5,37.6406 36.6406,37.7656 C36.7813,37.9063 37.0156,38.0156 37.2344,38.0156 C37.5,38.0156 37.7656,37.875 37.9375,37.6563 C38.0469,37.5 38.0781,37.3125 38.0781,36.8906 L38.0781,35.4688 C38.0781,35.0313 38.0625,34.9063 37.9688,34.75 C37.8125,34.4844 37.5313,34.3438 37.2344,34.3438 C36.9375,34.3438 36.7344,34.4375 36.5156,34.75 L36.3438,34.6719 Z " fill="#000000"/><text fill="#000000" font-family="sans-serif" font-size="12" lengthAdjust="spacing" textLength="56" x="48" y="43.1543">Company</text><line style="stroke:#A80036;stroke-width:1.5;" x1="20" x2="106" y1="55" y2="55"/><text fill="#000000" font-family="sans-serif" font-size="11" lengthAdjust="spacing" textLength="70" x="25" y="69.2104">-designation</text><!--MD5=[7421f545a0d8420c5bec41e74b387d9c]
class Employee--><rect codeLine="10" fill="#FEFECE" filter="url(#fi8i9anz4yei9)" height="116.8281" id="Employee" style="stroke:#A80036;stroke-width:1.5;" width="97" x="253" y="87"/><ellipse cx="270.25" cy="103" fill="#ADD1B2" rx="11" ry="11" style="stroke:#A80036;stroke-width:1.0;"/><path d="M272.5938,98.6719 C271.6563,98.2344 271.0625,98.0938 270.1875,98.0938 C267.5625,98.0938 265.5625,100.1719 265.5625,102.8906 L265.5625,104.0156 C265.5625,106.5938 267.6719,108.4844 270.5625,108.4844 C271.7813,108.4844 272.9375,108.1875 273.6875,107.6406 C274.2656,107.2344 274.5938,106.7813 274.5938,106.3906 C274.5938,105.9375 274.2031,105.5469 273.7344,105.5469 C273.5156,105.5469 273.3125,105.625 273.125,105.8125 C272.6719,106.2969 272.6719,106.2969 272.4844,106.3906 C272.0625,106.6563 271.375,106.7813 270.6094,106.7813 C268.5625,106.7813 267.2656,105.6875 267.2656,103.9844 L267.2656,102.8906 C267.2656,101.1094 268.5156,99.7969 270.25,99.7969 C270.8281,99.7969 271.4375,99.9531 271.9063,100.2031 C272.3906,100.4844 272.5625,100.7031 272.6563,101.1094 C272.7188,101.5156 272.75,101.6406 272.8906,101.7656 C273.0313,101.9063 273.2656,102.0156 273.4844,102.0156 C273.75,102.0156 274.0156,101.875 274.1875,101.6563 C274.2969,101.5 274.3281,101.3125 274.3281,100.8906 L274.3281,99.4688 C274.3281,99.0313 274.3125,98.9063 274.2188,98.75 C274.0625,98.4844 273.7813,98.3438 273.4844,98.3438 C273.1875,98.3438 272.9844,98.4375 272.7656,98.75 L272.5938,98.6719 Z " fill="#000000"/><text fill="#000000" font-family="sans-serif" font-size="12" lengthAdjust="spacing" textLength="60" x="284.75" y="107.1543">Employee</text><line style="stroke:#A80036;stroke-width:1.5;" x1="254" x2="349" y1="119" y2="119"/><text fill="#000000" font-family="sans-serif" font-size="11" lengthAdjust="spacing" textLength="73" x="259" y="133.2104">-employeeId</text><text fill="#000000" font-family="sans-serif" font-size="11" lengthAdjust="spacing" textLength="37" x="259" y="146.0151">-name</text><text fill="#000000" font-family="sans-serif" font-size="11" lengthAdjust="spacing" textLength="49" x="259" y="158.8198">-address</text><text fill="#000000" font-family="sans-serif" font-size="11" lengthAdjust="spacing" textLength="85" x="259" y="171.6245">-phoneNumber</text><text fill="#000000" font-family="sans-serif" font-size="11" lengthAdjust="spacing" textLength="36" x="259" y="184.4292">-email</text><text fill="#000000" font-family="sans-serif" font-size="11" lengthAdjust="spacing" textLength="53" x="259" y="197.2339">-socCode</text><!--MD5=[12e90e92236ca84f203192a07d84ec5e]
class OrganizationRole--><rect codeLine="19" fill="#FEFECE" filter="url(#fi8i9anz4yei9)" height="52.8047" id="OrganizationRole" style="stroke:#A80036;stroke-width:1.5;" width="134" x="489" y="7"/><ellipse cx="504" cy="23" fill="#ADD1B2" rx="11" ry="11" style="stroke:#A80036;stroke-width:1.0;"/><path d="M506.3438,18.6719 C505.4063,18.2344 504.8125,18.0938 503.9375,18.0938 C501.3125,18.0938 499.3125,20.1719 499.3125,22.8906 L499.3125,24.0156 C499.3125,26.5938 501.4219,28.4844 504.3125,28.4844 C505.5313,28.4844 506.6875,28.1875 507.4375,27.6406 C508.0156,27.2344 508.3438,26.7813 508.3438,26.3906 C508.3438,25.9375 507.9531,25.5469 507.4844,25.5469 C507.2656,25.5469 507.0625,25.625 506.875,25.8125 C506.4219,26.2969 506.4219,26.2969 506.2344,26.3906 C505.8125,26.6563 505.125,26.7813 504.3594,26.7813 C502.3125,26.7813 501.0156,25.6875 501.0156,23.9844 L501.0156,22.8906 C501.0156,21.1094 502.2656,19.7969 504,19.7969 C504.5781,19.7969 505.1875,19.9531 505.6563,20.2031 C506.1406,20.4844 506.3125,20.7031 506.4063,21.1094 C506.4688,21.5156 506.5,21.6406 506.6406,21.7656 C506.7813,21.9063 507.0156,22.0156 507.2344,22.0156 C507.5,22.0156 507.7656,21.875 507.9375,21.6563 C508.0469,21.5 508.0781,21.3125 508.0781,20.8906 L508.0781,19.4688 C508.0781,19.0313 508.0625,18.9063 507.9688,18.75 C507.8125,18.4844 507.5313,18.3438 507.2344,18.3438 C506.9375,18.3438 506.7344,18.4375 506.5156,18.75 L506.3438,18.6719 Z " fill="#000000"/><text fill="#000000" font-family="sans-serif" font-size="12" lengthAdjust="spacing" textLength="102" x="518" y="27.1543">OrganizationRole</text><line style="stroke:#A80036;stroke-width:1.5;" x1="490" x2="622" y1="39" y2="39"/><text fill="#000000" font-family="sans-serif" font-size="11" lengthAdjust="spacing" textLength="66" x="495" y="53.2104">-description</text><!--MD5=[7d96fd15f3014691d2fcaf89c5791e2a]
class SpecialistDoctor--><rect codeLine="23" fill="#FEFECE" filter="url(#fi8i9anz4yei9)" height="52.8047" id="SpecialistDoctor" style="stroke:#A80036;stroke-width:1.5;" width="131" x="490.5" y="111"/><ellipse cx="505.5" cy="127" fill="#ADD1B2" rx="11" ry="11" style="stroke:#A80036;stroke-width:1.0;"/><path d="M507.8438,122.6719 C506.9063,122.2344 506.3125,122.0938 505.4375,122.0938 C502.8125,122.0938 500.8125,124.1719 500.8125,126.8906 L500.8125,128.0156 C500.8125,130.5938 502.9219,132.4844 505.8125,132.4844 C507.0313,132.4844 508.1875,132.1875 508.9375,131.6406 C509.5156,131.2344 509.8438,130.7813 509.8438,130.3906 C509.8438,129.9375 509.4531,129.5469 508.9844,129.5469 C508.7656,129.5469 508.5625,129.625 508.375,129.8125 C507.9219,130.2969 507.9219,130.2969 507.7344,130.3906 C507.3125,130.6563 506.625,130.7813 505.8594,130.7813 C503.8125,130.7813 502.5156,129.6875 502.5156,127.9844 L502.5156,126.8906 C502.5156,125.1094 503.7656,123.7969 505.5,123.7969 C506.0781,123.7969 506.6875,123.9531 507.1563,124.2031 C507.6406,124.4844 507.8125,124.7031 507.9063,125.1094 C507.9688,125.5156 508,125.6406 508.1406,125.7656 C508.2813,125.9063 508.5156,126.0156 508.7344,126.0156 C509,126.0156 509.2656,125.875 509.4375,125.6563 C509.5469,125.5 509.5781,125.3125 509.5781,124.8906 L509.5781,123.4688 C509.5781,123.0313 509.5625,122.9063 509.4688,122.75 C509.3125,122.4844 509.0313,122.3438 508.7344,122.3438 C508.4375,122.3438 508.2344,122.4375 508.0156,122.75 L507.8438,122.6719 Z " fill="#000000"/><text fill="#000000" font-family="sans-serif" font-size="12" lengthAdjust="spacing" textLength="99" x="519.5" y="131.1543">SpecialistDoctor</text><line style="stroke:#A80036;stroke-width:1.5;" x1="491.5" x2="620.5" y1="143" y2="143"/><text fill="#000000" font-family="sans-serif" font-size="11" lengthAdjust="spacing" textLength="101" x="496.5" y="157.2104">-docIndexNumber</text><!--MD5=[da547346deef918ea16944ba046651ef]
class Administrator--><rect codeLine="27" fill="#FEFECE" filter="url(#fi8i9anz4yei9)" height="40" id="Administrator" style="stroke:#A80036;stroke-width:1.5;" width="112" x="7" y="125.5"/><ellipse cx="22" cy="141.5" fill="#ADD1B2" rx="11" ry="11" style="stroke:#A80036;stroke-width:1.0;"/><path d="M24.3438,137.1719 C23.4063,136.7344 22.8125,136.5938 21.9375,136.5938 C19.3125,136.5938 17.3125,138.6719 17.3125,141.3906 L17.3125,142.5156 C17.3125,145.0938 19.4219,146.9844 22.3125,146.9844 C23.5313,146.9844 24.6875,146.6875 25.4375,146.1406 C26.0156,145.7344 26.3438,145.2813 26.3438,144.8906 C26.3438,144.4375 25.9531,144.0469 25.4844,144.0469 C25.2656,144.0469 25.0625,144.125 24.875,144.3125 C24.4219,144.7969 24.4219,144.7969 24.2344,144.8906 C23.8125,145.1563 23.125,145.2813 22.3594,145.2813 C20.3125,145.2813 19.0156,144.1875 19.0156,142.4844 L19.0156,141.3906 C19.0156,139.6094 20.2656,138.2969 22,138.2969 C22.5781,138.2969 23.1875,138.4531 23.6563,138.7031 C24.1406,138.9844 24.3125,139.2031 24.4063,139.6094 C24.4688,140.0156 24.5,140.1406 24.6406,140.2656 C24.7813,140.4063 25.0156,140.5156 25.2344,140.5156 C25.5,140.5156 25.7656,140.375 25.9375,140.1563 C26.0469,140 26.0781,139.8125 26.0781,139.3906 L26.0781,137.9688 C26.0781,137.5313 26.0625,137.4063 25.9688,137.25 C25.8125,136.9844 25.5313,136.8438 25.2344,136.8438 C24.9375,136.8438 24.7344,136.9375 24.5156,137.25 L24.3438,137.1719 Z " fill="#000000"/><text fill="#000000" font-family="sans-serif" font-size="12" lengthAdjust="spacing" textLength="80" x="36" y="145.6543">Administrator</text><line style="stroke:#A80036;stroke-width:1.5;" x1="8" x2="118" y1="157.5" y2="157.5"/><!--MD5=[3fd616f346a44cd59a91eb10b19e157c]
class User--><rect codeLine="31" fill="#FEFECE" filter="url(#fi8i9anz4yei9)" height="78.4141" id="User" style="stroke:#A80036;stroke-width:1.5;" width="69" x="521.5" y="199.5"/><ellipse cx="540.1" cy="215.5" fill="#ADD1B2" rx="11" ry="11" style="stroke:#A80036;stroke-width:1.0;"/><path d="M542.4438,211.1719 C541.5063,210.7344 540.9125,210.5938 540.0375,210.5938 C537.4125,210.5938 535.4125,212.6719 535.4125,215.3906 L535.4125,216.5156 C535.4125,219.0938 537.5219,220.9844 540.4125,220.9844 C541.6313,220.9844 542.7875,220.6875 543.5375,220.1406 C544.1156,219.7344 544.4438,219.2813 544.4438,218.8906 C544.4438,218.4375 544.0531,218.0469 543.5844,218.0469 C543.3656,218.0469 543.1625,218.125 542.975,218.3125 C542.5219,218.7969 542.5219,218.7969 542.3344,218.8906 C541.9125,219.1563 541.225,219.2813 540.4594,219.2813 C538.4125,219.2813 537.1156,218.1875 537.1156,216.4844 L537.1156,215.3906 C537.1156,213.6094 538.3656,212.2969 540.1,212.2969 C540.6781,212.2969 541.2875,212.4531 541.7563,212.7031 C542.2406,212.9844 542.4125,213.2031 542.5063,213.6094 C542.5688,214.0156 542.6,214.1406 542.7406,214.2656 C542.8813,214.4063 543.1156,214.5156 543.3344,214.5156 C543.6,214.5156 543.8656,214.375 544.0375,214.1563 C544.1469,214 544.1781,213.8125 544.1781,213.3906 L544.1781,211.9688 C544.1781,211.5313 544.1625,211.4063 544.0688,211.25 C543.9125,210.9844 543.6313,210.8438 543.3344,210.8438 C543.0375,210.8438 542.8344,210.9375 542.6156,211.25 L542.4438,211.1719 Z " fill="#000000"/><text fill="#000000" font-family="sans-serif" font-size="12" lengthAdjust="spacing" textLength="29" x="554.9" y="219.6543">User</text><line style="stroke:#A80036;stroke-width:1.5;" x1="522.5" x2="589.5" y1="231.5" y2="231.5"/><text fill="#000000" font-family="sans-serif" font-size="11" lengthAdjust="spacing" textLength="37" x="527.5" y="245.7104">-name</text><text fill="#000000" font-family="sans-serif" font-size="11" lengthAdjust="spacing" textLength="36" x="527.5" y="258.5151">-email</text><text fill="#000000" font-family="sans-serif" font-size="11" lengthAdjust="spacing" textLength="57" x="527.5" y="271.3198">-password</text><!--MD5=[09366576ee87d48d594df10cacc83f45]
link Company to Employee--><path codeLine="39" d="M107.103,66.996 C148.271,83.707 210.189,108.841 252.817,126.144 " fill="none" id="Company-Employee" style="stroke:#A80036;stroke-width:1.0;"/><polygon fill="#000000" points="162.6329,78.947,155.3573,72.8219,153.1466,78.2681,162.6329,78.947" style="stroke:#000000;stroke-width:1.0;"/><text fill="#000000" font-family="sans-serif" font-size="13" lengthAdjust="spacing" textLength="48" x="167" y="81.5669">employ</text><text fill="#000000" font-family="sans-serif" font-size="13" lengthAdjust="spacing" textLength="8" x="115.0701" y="83.23">1</text><text fill="#000000" font-family="sans-serif" font-size="13" lengthAdjust="spacing" textLength="7" x="238.1526" y="136.4919">*</text><!--MD5=[9abf40ff36e4aa94ac761b2803c1dce8]
link Company to OrganizationRole--><path codeLine="40" d="M107.143,48.094 C193.141,45.292 386.42,38.993 488.667,35.662 " fill="none" id="Company-OrganizationRole" style="stroke:#A80036;stroke-width:1.0;"/><polygon fill="#000000" points="259.9973,30.9036,250.8613,28.2608,251.0528,34.1355,259.9973,30.9036" style="stroke:#000000;stroke-width:1.0;"/><text fill="#000000" font-family="sans-serif" font-size="13" lengthAdjust="spacing" textLength="88" x="264" y="35.5669">comprehends</text><text fill="#000000" font-family="sans-serif" font-size="13" lengthAdjust="spacing" textLength="8" x="115.1167" y="61.1974">1</text><text fill="#000000" font-family="sans-serif" font-size="13" lengthAdjust="spacing" textLength="7" x="473.9196" y="48.8036">*</text><!--MD5=[241b49406f7a05442b1e788ffaf3787c]
link Employee to OrganizationRole--><path codeLine="41" d="M350.29,124.302 C391.324,106.101 450.677,79.774 494.919,60.15 " fill="none" id="Employee-OrganizationRole" style="stroke:#A80036;stroke-width:1.0;"/><polygon fill="#000000" points="406.0706,65.0391,396.6107,66.02,398.994,71.3931,406.0706,65.0391" style="stroke:#000000;stroke-width:1.0;"/><text fill="#000000" font-family="sans-serif" font-size="13" lengthAdjust="spacing" textLength="34" x="410.5" y="71.5669">plays</text><text fill="#000000" font-family="sans-serif" font-size="13" lengthAdjust="spacing" textLength="7" x="357.9701" y="134.3794">*</text><text fill="#000000" font-family="sans-serif" font-size="13" lengthAdjust="spacing" textLength="8" x="472.6825" y="79.7231">1</text><!--MD5=[372bd27a178b4208a6d241b4516ac7e6]
reverse link Employee to SpecialistDoctor--><path codeLine="42" d="M370.508,143.345 C407.712,142.167 453.558,140.714 490.241,139.552 " fill="none" id="Employee-backto-SpecialistDoctor" style="stroke:#A80036;stroke-width:1.0;"/><polygon fill="none" points="370.502,150.349,350.29,143.986,370.058,136.356,370.502,150.349" style="stroke:#A80036;stroke-width:1.0;"/><!--MD5=[22fb9506fac029fc1d2ae00f0eb8d606]
link Employee to User--><path codeLine="43" d="M350.29,163.102 C400.188,181.4801 477.176,209.8362 521.139,226.0283 " fill="none" id="Employee-User" style="stroke:#A80036;stroke-width:1.0;"/><polygon fill="#000000" points="392.6919,168.7945,385.2199,162.9105,383.1884,168.4262,392.6919,168.7945" style="stroke:#000000;stroke-width:1.0;"/><text fill="#000000" font-family="sans-serif" font-size="13" lengthAdjust="spacing" textLength="61" x="397" y="171.5669">relates to</text><text fill="#000000" font-family="sans-serif" font-size="13" lengthAdjust="spacing" textLength="24" x="358.0787" y="178.4046">0..1</text><text fill="#000000" font-family="sans-serif" font-size="13" lengthAdjust="spacing" textLength="8" x="505.4882" y="237.0887">1</text><!--MD5=[8f7dd94d56b58fc07b233ccd3dd98f8c]
link Administrator to Employee--><path codeLine="44" d="M119.15,145.5 C159.688,145.5 214.218,145.5 252.867,145.5 " fill="none" id="Administrator-Employee" style="stroke:#A80036;stroke-width:1.0;"/><polygon fill="#000000" points="159,137.0664,149.9549,134.1275,149.9549,140.0053,159,137.0664" style="stroke:#000000;stroke-width:1.0;"/><text fill="#000000" font-family="sans-serif" font-size="13" lengthAdjust="spacing" textLength="56" x="163" y="141.5669">registers</text><text fill="#000000" font-family="sans-serif" font-size="13" lengthAdjust="spacing" textLength="8" x="126.8567" y="158.5363">1</text><text fill="#000000" font-family="sans-serif" font-size="13" lengthAdjust="spacing" textLength="23" x="222.1625" y="158.5474">1..*</text><!--MD5=[fe4af3450cbdebfe0c4e797ecf2c8345]
@startuml
hide methods
left to right direction
skinparam classAttributeIconSize 0


class Company {
  -designation
}

class Employee {
  -employeeId
  -name
  -address
  -phoneNumber
  -email
  -socCode
}

class OrganizationRole {
  -description
}

class SpecialistDoctor {
  -docIndexNumber
}

class Administrator {

}

class User{
  -name
  -email
  -password
}



Company "1" - - "*" Employee : employ  >
Company "1" - - "*" OrganizationRole : comprehends >
Employee "*" - - "1" OrganizationRole : plays >
Employee <|- - SpecialistDoctor
Employee "0..1" - - "1" User: relates to >
Administrator "1" - - "1..*" Employee: registers >
@enduml

PlantUML version 1.2021.6beta6(Unknown compile time)
(GPL source distribution)
Java Runtime: Java(TM) SE Runtime Environment
JVM: Java HotSpot(TM) 64-Bit Server VM
Default Encoding: UTF-8
Language: en
Country: US
--></g></svg>