<?xml version="1.0" encoding="UTF-8" standalone="no"?><svg xmlns="http://www.w3.org/2000/svg" xmlns:xlink="http://www.w3.org/1999/xlink" contentScriptType="application/ecmascript" contentStyleType="text/css" height="367px" preserveAspectRatio="none" style="width:1216px;height:367px;" version="1.1" viewBox="0 0 1216 367" width="1216px" zoomAndPan="magnify"><defs><filter height="300%" id="f12zs9e1b6jqkc" width="300%" x="-1" y="-1"><feGaussianBlur result="blurOut" stdDeviation="2.0"/><feColorMatrix in="blurOut" result="blurOut2" type="matrix" values="0 0 0 0 0 0 0 0 0 0 0 0 0 0 0 0 0 0 .4 0"/><feOffset dx="4.0" dy="4.0" in="blurOut2" result="blurOut3"/><feBlend in="SourceGraphic" in2="blurOut3" mode="normal"/></filter></defs><g><rect fill="#FFFFFF" filter="url(#f12zs9e1b6jqkc)" height="166.7969" style="stroke:#A80036;stroke-width:1.0;" width="10" x="49.5" y="98.2969"/><rect fill="#FFFFFF" filter="url(#f12zs9e1b6jqkc)" height="29.1328" style="stroke:#A80036;stroke-width:1.0;" width="10" x="1162.5" y="119.4297"/><rect fill="#FFFFFF" filter="url(#f12zs9e1b6jqkc)" height="29.1328" style="stroke:#A80036;stroke-width:1.0;" width="10" x="1162.5" y="177.6953"/><rect fill="#FFFFFF" filter="url(#f12zs9e1b6jqkc)" height="29.1328" style="stroke:#A80036;stroke-width:1.0;" width="10" x="1162.5" y="235.9609"/><line style="stroke:#A80036;stroke-width:1.0;stroke-dasharray:5.0,5.0;" x1="54" x2="54" y1="88.2969" y2="283.0938"/><line style="stroke:#A80036;stroke-width:1.0;stroke-dasharray:5.0,5.0;" x1="1167" x2="1167" y1="88.2969" y2="283.0938"/><text fill="#000000" font-family="sans-serif" font-size="14" lengthAdjust="spacing" textLength="93" x="5" y="84.9951">Receptionist</text><ellipse cx="54.5" cy="15" fill="#FEFECE" filter="url(#f12zs9e1b6jqkc)" rx="8" ry="8" style="stroke:#A80036;stroke-width:2.0;"/><path d="M54.5,23 L54.5,50 M41.5,31 L67.5,31 M54.5,50 L41.5,65 M54.5,50 L67.5,65 " fill="none" filter="url(#f12zs9e1b6jqkc)" style="stroke:#A80036;stroke-width:2.0;"/><text fill="#000000" font-family="sans-serif" font-size="14" lengthAdjust="spacing" textLength="93" x="5" y="295.0889">Receptionist</text><ellipse cx="54.5" cy="308.3906" fill="#FEFECE" filter="url(#f12zs9e1b6jqkc)" rx="8" ry="8" style="stroke:#A80036;stroke-width:2.0;"/><path d="M54.5,316.3906 L54.5,343.3906 M41.5,324.3906 L67.5,324.3906 M54.5,343.3906 L41.5,358.3906 M54.5,343.3906 L67.5,358.3906 " fill="none" filter="url(#f12zs9e1b6jqkc)" style="stroke:#A80036;stroke-width:2.0;"/><rect fill="#FEFECE" filter="url(#f12zs9e1b6jqkc)" height="30.2969" style="stroke:#A80036;stroke-width:1.5;" width="73" x="1129" y="53"/><text fill="#000000" font-family="sans-serif" font-size="14" lengthAdjust="spacing" textLength="59" x="1136" y="72.9951">:System</text><rect fill="#FEFECE" filter="url(#f12zs9e1b6jqkc)" height="30.2969" style="stroke:#A80036;stroke-width:1.5;" width="73" x="1129" y="282.0938"/><text fill="#000000" font-family="sans-serif" font-size="14" lengthAdjust="spacing" textLength="59" x="1136" y="302.0889">:System</text><rect fill="#FFFFFF" filter="url(#f12zs9e1b6jqkc)" height="166.7969" style="stroke:#A80036;stroke-width:1.0;" width="10" x="49.5" y="98.2969"/><rect fill="#FFFFFF" filter="url(#f12zs9e1b6jqkc)" height="29.1328" style="stroke:#A80036;stroke-width:1.0;" width="10" x="1162.5" y="119.4297"/><rect fill="#FFFFFF" filter="url(#f12zs9e1b6jqkc)" height="29.1328" style="stroke:#A80036;stroke-width:1.0;" width="10" x="1162.5" y="177.6953"/><rect fill="#FFFFFF" filter="url(#f12zs9e1b6jqkc)" height="29.1328" style="stroke:#A80036;stroke-width:1.0;" width="10" x="1162.5" y="235.9609"/><polygon fill="#A80036" points="1150.5,115.4297,1160.5,119.4297,1150.5,123.4297,1154.5,119.4297" style="stroke:#A80036;stroke-width:1.0;"/><line style="stroke:#A80036;stroke-width:1.0;" x1="59.5" x2="1156.5" y1="119.4297" y2="119.4297"/><text fill="#000000" font-family="sans-serif" font-size="13" font-weight="bold" lengthAdjust="spacing" textLength="9" x="66.5" y="114.3638">1</text><text fill="#000000" font-family="sans-serif" font-size="13" lengthAdjust="spacing" textLength="108" x="79.5" y="114.3638">starts new Client</text><polygon fill="#A80036" points="70.5,144.5625,60.5,148.5625,70.5,152.5625,66.5,148.5625" style="stroke:#A80036;stroke-width:1.0;"/><line style="stroke:#A80036;stroke-width:1.0;stroke-dasharray:2.0,2.0;" x1="64.5" x2="1166.5" y1="148.5625" y2="148.5625"/><text fill="#000000" font-family="sans-serif" font-size="13" font-weight="bold" lengthAdjust="spacing" textLength="9" x="76.5" y="143.4966">2</text><text fill="#000000" font-family="sans-serif" font-size="13" lengthAdjust="spacing" textLength="1066" x="89.5" y="143.4966">request data(Citizen card number, National Healthcare Service (NHS) number, Birth date, Sex(Opcional), Tax Identification number (TIF), E-mail, Name, Phone number)</text><polygon fill="#A80036" points="1150.5,173.6953,1160.5,177.6953,1150.5,181.6953,1154.5,177.6953" style="stroke:#A80036;stroke-width:1.0;"/><line style="stroke:#A80036;stroke-width:1.0;" x1="59.5" x2="1156.5" y1="177.6953" y2="177.6953"/><text fill="#000000" font-family="sans-serif" font-size="13" font-weight="bold" lengthAdjust="spacing" textLength="8" x="66.5" y="172.6294">3</text><text fill="#000000" font-family="sans-serif" font-size="13" lengthAdjust="spacing" textLength="138" x="78.5" y="172.6294">types requested data</text><polygon fill="#A80036" points="70.5,202.8281,60.5,206.8281,70.5,210.8281,66.5,206.8281" style="stroke:#A80036;stroke-width:1.0;"/><line style="stroke:#A80036;stroke-width:1.0;stroke-dasharray:2.0,2.0;" x1="64.5" x2="1166.5" y1="206.8281" y2="206.8281"/><text fill="#000000" font-family="sans-serif" font-size="13" font-weight="bold" lengthAdjust="spacing" textLength="9" x="76.5" y="201.7622">4</text><text fill="#000000" font-family="sans-serif" font-size="13" lengthAdjust="spacing" textLength="277" x="89.5" y="201.7622">shows the data and request a confirmation</text><polygon fill="#A80036" points="1150.5,231.9609,1160.5,235.9609,1150.5,239.9609,1154.5,235.9609" style="stroke:#A80036;stroke-width:1.0;"/><line style="stroke:#A80036;stroke-width:1.0;" x1="59.5" x2="1156.5" y1="235.9609" y2="235.9609"/><text fill="#000000" font-family="sans-serif" font-size="13" font-weight="bold" lengthAdjust="spacing" textLength="9" x="66.5" y="230.895">5</text><text fill="#000000" font-family="sans-serif" font-size="13" lengthAdjust="spacing" textLength="114" x="79.5" y="230.895">confirms the data</text><polygon fill="#A80036" points="65.5,261.0938,55.5,265.0938,65.5,269.0938,61.5,265.0938" style="stroke:#A80036;stroke-width:1.0;"/><line style="stroke:#A80036;stroke-width:1.0;stroke-dasharray:2.0,2.0;" x1="59.5" x2="1166.5" y1="265.0938" y2="265.0938"/><text fill="#000000" font-family="sans-serif" font-size="13" font-weight="bold" lengthAdjust="spacing" textLength="9" x="71.5" y="260.0278">6</text><text fill="#000000" font-family="sans-serif" font-size="13" lengthAdjust="spacing" textLength="169" x="84.5" y="260.0278">informs operation success</text><!--MD5=[ea9183c171b0b1d593ee616aaf9ac090]
@startuml
actor Receptionist as Adm
participant ":System" as System

autonumber
activate Adm
Adm -> System: starts new Client
activate System
System - -> Adm: request data(Citizen card number, National Healthcare Service (NHS) number, Birth date, Sex(Opcional), Tax Identification number (TIF), E-mail, Name, Phone number)
deactivate System
Adm -> System: types requested data
activate System
System - -> Adm: shows the data and request a confirmation
deactivate System
Adm -> System: confirms the data
activate System
System - -> Adm: informs operation success 
deactivate System
deactivate Adm
@enduml

PlantUML version 1.2021.6beta4(Unknown compile time)
(GPL source distribution)
Java Runtime: Java(TM) SE Runtime Environment
JVM: Java HotSpot(TM) 64-Bit Server VM
Default Encoding: UTF-8
Language: en
Country: US
--></g></svg>