<?xml version="1.0" encoding="UTF-8" standalone="no"?><svg xmlns="http://www.w3.org/2000/svg" xmlns:xlink="http://www.w3.org/1999/xlink" contentScriptType="application/ecmascript" contentStyleType="text/css" height="157px" preserveAspectRatio="none" style="width:480px;height:157px;" version="1.1" viewBox="0 0 480 157" width="480px" zoomAndPan="magnify"><defs><filter height="300%" id="f795vuwzv7hyq" width="300%" x="-1" y="-1"><feGaussianBlur result="blurOut" stdDeviation="2.0"/><feColorMatrix in="blurOut" result="blurOut2" type="matrix" values="0 0 0 0 0 0 0 0 0 0 0 0 0 0 0 0 0 0 .4 0"/><feOffset dx="4.0" dy="4.0" in="blurOut2" result="blurOut3"/><feBlend in="SourceGraphic" in2="blurOut3" mode="normal"/></filter></defs><g><!--MD5=[02e4b9b7573f1156f41e60aa5b4e25a4]
class Company--><rect codeLine="6" fill="#FEFECE" filter="url(#f795vuwzv7hyq)" height="53.8359" id="Company" style="stroke:#A80036;stroke-width:1.5;" width="85" x="7" y="48.5"/><ellipse cx="22" cy="64.5" fill="#ADD1B2" rx="11" ry="11" style="stroke:#A80036;stroke-width:1.0;"/><path d="M24,61 Q24.2031,60.5 24.4375,60.25 Q24.6719,60 24.9375,60 Q25.4063,60 25.7031,60.2813 Q26,60.5625 26,61.2188 L26,62.7813 Q26,63.4375 25.7188,63.7188 Q25.4375,64 25,64 Q24.6094,64 24.3594,63.8281 Q24.1094,63.6563 24,63.2031 Q23.9531,62.8906 23.7813,62.7188 Q23.4688,62.3906 22.9063,62.2031 Q22.3438,62 21.7813,62 Q21.0781,62 20.4844,62.2813 Q19.9063,62.5625 19.4531,63.1875 Q19,63.8125 19,64.6719 L19,65.5938 Q19,66.625 19.8438,67.3125 Q20.6875,68 22.1875,68 Q23.0781,68 23.7031,67.7969 Q24.0625,67.6875 24.4688,67.3281 Q24.7344,67.125 24.875,67.0625 Q25.0156,67 25.1875,67 Q25.5156,67 25.75,67.2656 Q26,67.5156 26,67.875 Q26,68.2188 25.6563,68.625 Q25.1563,69.2188 24.3594,69.5469 Q23.3125,70 22.0313,70 Q20.5313,70 19.3281,69.4063 Q18.3594,68.9375 17.6719,67.9219 Q17,66.9063 17,65.7031 L17,64.6094 Q17,63.3594 17.5938,62.2656 Q18.2031,61.1719 19.25,60.5938 Q20.3125,60 21.5,60 Q22.2188,60 22.8438,60.25 Q23.4688,60.5 24,61 Z " fill="#000000"/><text fill="#000000" font-family="sans-serif" font-size="12" lengthAdjust="spacing" textLength="53" x="36" y="69.4102">Company</text><line style="stroke:#A80036;stroke-width:1.5;" x1="8" x2="91" y1="80.5" y2="80.5"/><text fill="#000000" font-family="sans-serif" font-size="11" lengthAdjust="spacing" textLength="59" x="13" y="95.9189">-designation</text><!--MD5=[ed6624c6556d5e7b1bd23032162d20b7]
class Client--><rect codeLine="10" fill="#FEFECE" filter="url(#f795vuwzv7hyq)" height="136.8516" id="Client" style="stroke:#A80036;stroke-width:1.5;" width="83" x="188" y="7"/><ellipse cx="211.55" cy="23" fill="#ADD1B2" rx="11" ry="11" style="stroke:#A80036;stroke-width:1.0;"/><path d="M213.55,19.5 Q213.7531,19 213.9875,18.75 Q214.2219,18.5 214.4875,18.5 Q214.9563,18.5 215.2531,18.7813 Q215.55,19.0625 215.55,19.7188 L215.55,21.2813 Q215.55,21.9375 215.2688,22.2188 Q214.9875,22.5 214.55,22.5 Q214.1594,22.5 213.9094,22.3281 Q213.6594,22.1563 213.55,21.7031 Q213.5031,21.3906 213.3313,21.2188 Q213.0188,20.8906 212.4563,20.7031 Q211.8938,20.5 211.3313,20.5 Q210.6281,20.5 210.0344,20.7813 Q209.4563,21.0625 209.0031,21.6875 Q208.55,22.3125 208.55,23.1719 L208.55,24.0938 Q208.55,25.125 209.3938,25.8125 Q210.2375,26.5 211.7375,26.5 Q212.6281,26.5 213.2531,26.2969 Q213.6125,26.1875 214.0188,25.8281 Q214.2844,25.625 214.425,25.5625 Q214.5656,25.5 214.7375,25.5 Q215.0656,25.5 215.3,25.7656 Q215.55,26.0156 215.55,26.375 Q215.55,26.7188 215.2063,27.125 Q214.7063,27.7188 213.9094,28.0469 Q212.8625,28.5 211.5813,28.5 Q210.0813,28.5 208.8781,27.9063 Q207.9094,27.4375 207.2219,26.4219 Q206.55,25.4063 206.55,24.2031 L206.55,23.1094 Q206.55,21.8594 207.1438,20.7656 Q207.7531,19.6719 208.8,19.0938 Q209.8625,18.5 211.05,18.5 Q211.7688,18.5 212.3938,18.75 Q213.0188,19 213.55,19.5 Z " fill="#000000"/><text fill="#000000" font-family="sans-serif" font-size="12" lengthAdjust="spacing" textLength="32" x="227.45" y="27.9102">Client</text><line style="stroke:#A80036;stroke-width:1.5;" x1="189" x2="270" y1="39" y2="39"/><text fill="#000000" font-family="sans-serif" font-size="11" lengthAdjust="spacing" textLength="58" x="194" y="54.4189">-citizenCard</text><text fill="#000000" font-family="sans-serif" font-size="11" lengthAdjust="spacing" textLength="22" x="194" y="68.2549">-nhs</text><text fill="#000000" font-family="sans-serif" font-size="11" lengthAdjust="spacing" textLength="15" x="194" y="82.0908">-tin</text><text fill="#000000" font-family="sans-serif" font-size="11" lengthAdjust="spacing" textLength="43" x="194" y="95.9268">-birthday</text><text fill="#000000" font-family="sans-serif" font-size="11" lengthAdjust="spacing" textLength="22" x="194" y="109.7627">-sex</text><text fill="#000000" font-family="sans-serif" font-size="11" lengthAdjust="spacing" textLength="71" x="194" y="123.5986">-phoneNumber</text><text fill="#000000" font-family="sans-serif" font-size="11" lengthAdjust="spacing" textLength="30" x="194" y="137.4346">-name</text><!--MD5=[3fd616f346a44cd59a91eb10b19e157c]
class User--><rect codeLine="20" fill="#FEFECE" filter="url(#f795vuwzv7hyq)" height="81.5078" id="User" style="stroke:#A80036;stroke-width:1.5;" width="66" x="400" y="34.5"/><ellipse cx="418.15" cy="50.5" fill="#ADD1B2" rx="11" ry="11" style="stroke:#A80036;stroke-width:1.0;"/><path d="M420.15,47 Q420.3531,46.5 420.5875,46.25 Q420.8219,46 421.0875,46 Q421.5563,46 421.8531,46.2813 Q422.15,46.5625 422.15,47.2188 L422.15,48.7813 Q422.15,49.4375 421.8688,49.7188 Q421.5875,50 421.15,50 Q420.7594,50 420.5094,49.8281 Q420.2594,49.6563 420.15,49.2031 Q420.1031,48.8906 419.9313,48.7188 Q419.6188,48.3906 419.0563,48.2031 Q418.4938,48 417.9313,48 Q417.2281,48 416.6344,48.2813 Q416.0563,48.5625 415.6031,49.1875 Q415.15,49.8125 415.15,50.6719 L415.15,51.5938 Q415.15,52.625 415.9938,53.3125 Q416.8375,54 418.3375,54 Q419.2281,54 419.8531,53.7969 Q420.2125,53.6875 420.6188,53.3281 Q420.8844,53.125 421.025,53.0625 Q421.1656,53 421.3375,53 Q421.6656,53 421.9,53.2656 Q422.15,53.5156 422.15,53.875 Q422.15,54.2188 421.8063,54.625 Q421.3063,55.2188 420.5094,55.5469 Q419.4625,56 418.1813,56 Q416.6813,56 415.4781,55.4063 Q414.5094,54.9375 413.8219,53.9219 Q413.15,52.9063 413.15,51.7031 L413.15,50.6094 Q413.15,49.3594 413.7438,48.2656 Q414.3531,47.1719 415.4,46.5938 Q416.4625,46 417.65,46 Q418.3688,46 418.9938,46.25 Q419.6188,46.5 420.15,47 Z " fill="#000000"/><text fill="#000000" font-family="sans-serif" font-size="12" lengthAdjust="spacing" textLength="27" x="432.85" y="55.4102">User</text><line style="stroke:#A80036;stroke-width:1.5;" x1="401" x2="465" y1="66.5" y2="66.5"/><text fill="#000000" font-family="sans-serif" font-size="11" lengthAdjust="spacing" textLength="30" x="406" y="81.9189">-name</text><text fill="#000000" font-family="sans-serif" font-size="11" lengthAdjust="spacing" textLength="28" x="406" y="95.7549">-email</text><text fill="#000000" font-family="sans-serif" font-size="11" lengthAdjust="spacing" textLength="54" x="406" y="109.5908">-password</text><!--MD5=[6eee883fdf517d3604e8bd0f2058e9aa]
link Company to Client--><path codeLine="28" d="M92.23,75.5 C121.11,75.5 159.33,75.5 187.95,75.5 " fill="none" id="Company-Client" style="stroke:#A80036;stroke-width:1.0;"/><polygon fill="#000000" points="132,66.6758,122.9549,63.7369,122.9549,69.6147,132,66.6758" style="stroke:#000000;stroke-width:1.0;"/><text fill="#000000" font-family="sans-serif" font-size="13" lengthAdjust="spacing" textLength="21" x="136" y="71.9951">has</text><text fill="#000000" font-family="sans-serif" font-size="13" lengthAdjust="spacing" textLength="7" x="99.8868" y="90.3628">1</text><text fill="#000000" font-family="sans-serif" font-size="13" lengthAdjust="spacing" textLength="5" x="175.1036" y="90.4646">*</text><!--MD5=[9a8dc34b38f85b9f3fcdb440f4bffc6a]
link Client to User--><path codeLine="29" d="M271.28,75.5 C309.23,75.5 365.02,75.5 399.9,75.5 " fill="none" id="Client-User" style="stroke:#A80036;stroke-width:1.0;"/><polygon fill="#000000" points="311,66.6758,301.9549,63.7369,301.9549,69.6147,311,66.6758" style="stroke:#000000;stroke-width:1.0;"/><text fill="#000000" font-family="sans-serif" font-size="13" lengthAdjust="spacing" textLength="54" x="315" y="71.9951">relates to</text><text fill="#000000" font-family="sans-serif" font-size="13" lengthAdjust="spacing" textLength="22" x="279.0321" y="90.2068">0..1</text><text fill="#000000" font-family="sans-serif" font-size="13" lengthAdjust="spacing" textLength="7" x="384.8937" y="90.8374">1</text><!--MD5=[08ac814d19feb063129352a9fef157ac]
@startuml
hide methods
left to right direction
skinparam classAttributeIconSize 0


class Company {
  -designation
}

class Client {
  -citizenCard
  -nhs
  -tin
  -birthday
  -sex
  -phoneNumber
  -name
}

class User{
  -name
  -email
  -password
}



Company "1" - - "*" Client : has  >
Client "0..1" - - "1" User: relates to >
@enduml

PlantUML version 1.2021.5(Sun Apr 25 12:20:28 BST 2021)
(GPL source distribution)
Java Runtime: OpenJDK Runtime Environment
JVM: OpenJDK 64-Bit Server VM
Default Encoding: Cp1252
Language: pt
Country: PT
--></g></svg>