<?xml version="1.0" encoding="UTF-8" standalone="no"?><svg xmlns="http://www.w3.org/2000/svg" xmlns:xlink="http://www.w3.org/1999/xlink" contentScriptType="application/ecmascript" contentStyleType="text/css" height="470px" preserveAspectRatio="none" style="width:481px;height:470px;" version="1.1" viewBox="0 0 481 470" width="481px" zoomAndPan="magnify"><defs><filter height="300%" id="fxcmee1vmrckl" width="300%" x="-1" y="-1"><feGaussianBlur result="blurOut" stdDeviation="2.0"/><feColorMatrix in="blurOut" result="blurOut2" type="matrix" values="0 0 0 0 0 0 0 0 0 0 0 0 0 0 0 0 0 0 .4 0"/><feOffset dx="4.0" dy="4.0" in="blurOut2" result="blurOut3"/><feBlend in="SourceGraphic" in2="blurOut3" mode="normal"/></filter></defs><g><rect fill="#FFFFFF" filter="url(#fxcmee1vmrckl)" height="275.1641" style="stroke:#A80036;stroke-width:1.0;" width="10" x="36" y="99.6094"/><rect fill="#FFFFFF" filter="url(#fxcmee1vmrckl)" height="30.3516" style="stroke:#A80036;stroke-width:1.0;" width="10" x="418" y="121.9609"/><rect fill="#FFFFFF" filter="url(#fxcmee1vmrckl)" height="30.3516" style="stroke:#A80036;stroke-width:1.0;" width="10" x="418" y="208.0156"/><rect fill="#FFFFFF" filter="url(#fxcmee1vmrckl)" height="30.3516" style="stroke:#A80036;stroke-width:1.0;" width="10" x="418" y="268.7188"/><rect fill="#FFFFFF" filter="url(#fxcmee1vmrckl)" height="30.3516" style="stroke:#A80036;stroke-width:1.0;" width="10" x="418" y="329.4219"/><rect fill="#FFFFFF" filter="url(#fxcmee1vmrckl)" height="200.4609" style="stroke:#000000;stroke-width:2.0;" width="457" x="10" y="167.3125"/><line style="stroke:#A80036;stroke-width:1.0;stroke-dasharray:5.0,5.0;" x1="41" x2="41" y1="89.6094" y2="384.7734"/><line style="stroke:#A80036;stroke-width:1.0;stroke-dasharray:5.0,5.0;" x1="423" x2="423" y1="89.6094" y2="384.7734"/><text fill="#000000" font-family="sans-serif" font-size="14" lengthAdjust="spacing" textLength="36" x="20" y="86.5332">Client</text><ellipse cx="41" cy="15" fill="#FEFECE" filter="url(#fxcmee1vmrckl)" rx="8" ry="8" style="stroke:#A80036;stroke-width:2.0;"/><path d="M41,23 L41,50 M28,31 L54,31 M41,50 L28,65 M41,50 L54,65 " fill="none" filter="url(#fxcmee1vmrckl)" style="stroke:#A80036;stroke-width:2.0;"/><text fill="#000000" font-family="sans-serif" font-size="14" lengthAdjust="spacing" textLength="36" x="20" y="398.3066">Client</text><ellipse cx="41" cy="411.3828" fill="#FEFECE" filter="url(#fxcmee1vmrckl)" rx="8" ry="8" style="stroke:#A80036;stroke-width:2.0;"/><path d="M41,419.3828 L41,446.3828 M28,427.3828 L54,427.3828 M41,446.3828 L28,461.3828 M41,446.3828 L54,461.3828 " fill="none" filter="url(#fxcmee1vmrckl)" style="stroke:#A80036;stroke-width:2.0;"/><rect fill="#FEFECE" filter="url(#fxcmee1vmrckl)" height="31.6094" style="stroke:#A80036;stroke-width:1.5;" width="64" x="389" y="53"/><text fill="#000000" font-family="sans-serif" font-size="14" lengthAdjust="spacing" textLength="50" x="396" y="74.5332">:System</text><rect fill="#FEFECE" filter="url(#fxcmee1vmrckl)" height="31.6094" style="stroke:#A80036;stroke-width:1.5;" width="64" x="389" y="383.7734"/><text fill="#000000" font-family="sans-serif" font-size="14" lengthAdjust="spacing" textLength="50" x="396" y="405.3066">:System</text><rect fill="#FFFFFF" filter="url(#fxcmee1vmrckl)" height="275.1641" style="stroke:#A80036;stroke-width:1.0;" width="10" x="36" y="99.6094"/><rect fill="#FFFFFF" filter="url(#fxcmee1vmrckl)" height="30.3516" style="stroke:#A80036;stroke-width:1.0;" width="10" x="418" y="121.9609"/><rect fill="#FFFFFF" filter="url(#fxcmee1vmrckl)" height="30.3516" style="stroke:#A80036;stroke-width:1.0;" width="10" x="418" y="208.0156"/><rect fill="#FFFFFF" filter="url(#fxcmee1vmrckl)" height="30.3516" style="stroke:#A80036;stroke-width:1.0;" width="10" x="418" y="268.7188"/><rect fill="#FFFFFF" filter="url(#fxcmee1vmrckl)" height="30.3516" style="stroke:#A80036;stroke-width:1.0;" width="10" x="418" y="329.4219"/><polygon fill="#A80036" points="406,117.9609,416,121.9609,406,125.9609,410,121.9609" style="stroke:#A80036;stroke-width:1.0;"/><line style="stroke:#A80036;stroke-width:1.0;" x1="46" x2="412" y1="121.9609" y2="121.9609"/><text fill="#000000" font-family="sans-serif" font-size="13" font-weight="bold" lengthAdjust="spacing" textLength="7" x="53" y="117.1045">1</text><text fill="#000000" font-family="sans-serif" font-size="13" lengthAdjust="spacing" textLength="186" x="64" y="117.1045">asks to update its personal data</text><polygon fill="#A80036" points="57,148.3125,47,152.3125,57,156.3125,53,152.3125" style="stroke:#A80036;stroke-width:1.0;"/><line style="stroke:#A80036;stroke-width:1.0;stroke-dasharray:2.0,2.0;" x1="51" x2="422" y1="152.3125" y2="152.3125"/><text fill="#000000" font-family="sans-serif" font-size="13" font-weight="bold" lengthAdjust="spacing" textLength="7" x="63" y="147.4561">2</text><text fill="#000000" font-family="sans-serif" font-size="13" lengthAdjust="spacing" textLength="337" x="74" y="147.4561">shows client's personal data and asks him to select a field</text><path d="M10,167.3125 L83,167.3125 L83,175.3125 L73,185.3125 L10,185.3125 L10,167.3125 " fill="#EEEEEE" style="stroke:#000000;stroke-width:1.0;"/><rect fill="none" height="200.4609" style="stroke:#000000;stroke-width:2.0;" width="457" x="10" y="167.3125"/><text fill="#000000" font-family="sans-serif" font-size="13" font-weight="bold" lengthAdjust="spacing" textLength="28" x="25" y="181.8076">loop</text><polygon fill="#A80036" points="406,204.0156,416,208.0156,406,212.0156,410,208.0156" style="stroke:#A80036;stroke-width:1.0;"/><line style="stroke:#A80036;stroke-width:1.0;" x1="46" x2="412" y1="208.0156" y2="208.0156"/><text fill="#000000" font-family="sans-serif" font-size="13" font-weight="bold" lengthAdjust="spacing" textLength="7" x="53" y="203.1592">3</text><text fill="#000000" font-family="sans-serif" font-size="13" lengthAdjust="spacing" textLength="80" x="64" y="203.1592">selects a field</text><polygon fill="#A80036" points="57,234.3672,47,238.3672,57,242.3672,53,238.3672" style="stroke:#A80036;stroke-width:1.0;"/><line style="stroke:#A80036;stroke-width:1.0;stroke-dasharray:2.0,2.0;" x1="51" x2="422" y1="238.3672" y2="238.3672"/><text fill="#000000" font-family="sans-serif" font-size="13" font-weight="bold" lengthAdjust="spacing" textLength="7" x="63" y="233.5107">4</text><text fill="#000000" font-family="sans-serif" font-size="13" lengthAdjust="spacing" textLength="79" x="74" y="233.5107">requests data</text><polygon fill="#A80036" points="406,264.7188,416,268.7188,406,272.7188,410,268.7188" style="stroke:#A80036;stroke-width:1.0;"/><line style="stroke:#A80036;stroke-width:1.0;" x1="46" x2="412" y1="268.7188" y2="268.7188"/><text fill="#000000" font-family="sans-serif" font-size="13" font-weight="bold" lengthAdjust="spacing" textLength="7" x="53" y="263.8623">5</text><text fill="#000000" font-family="sans-serif" font-size="13" lengthAdjust="spacing" textLength="122" x="64" y="263.8623">types requested data</text><polygon fill="#A80036" points="57,295.0703,47,299.0703,57,303.0703,53,299.0703" style="stroke:#A80036;stroke-width:1.0;"/><line style="stroke:#A80036;stroke-width:1.0;stroke-dasharray:2.0,2.0;" x1="51" x2="422" y1="299.0703" y2="299.0703"/><text fill="#000000" font-family="sans-serif" font-size="13" font-weight="bold" lengthAdjust="spacing" textLength="7" x="63" y="294.2139">6</text><text fill="#000000" font-family="sans-serif" font-size="13" lengthAdjust="spacing" textLength="236" x="74" y="294.2139">shows all data and requests confirmation</text><polygon fill="#A80036" points="406,325.4219,416,329.4219,406,333.4219,410,329.4219" style="stroke:#A80036;stroke-width:1.0;"/><line style="stroke:#A80036;stroke-width:1.0;" x1="46" x2="412" y1="329.4219" y2="329.4219"/><text fill="#000000" font-family="sans-serif" font-size="13" font-weight="bold" lengthAdjust="spacing" textLength="7" x="53" y="324.5654">7</text><text fill="#000000" font-family="sans-serif" font-size="13" lengthAdjust="spacing" textLength="100" x="64" y="324.5654">confirms the data</text><polygon fill="#A80036" points="57,355.7734,47,359.7734,57,363.7734,53,359.7734" style="stroke:#A80036;stroke-width:1.0;"/><line style="stroke:#A80036;stroke-width:1.0;stroke-dasharray:2.0,2.0;" x1="51" x2="422" y1="359.7734" y2="359.7734"/><text fill="#000000" font-family="sans-serif" font-size="13" font-weight="bold" lengthAdjust="spacing" textLength="7" x="63" y="354.917">8</text><text fill="#000000" font-family="sans-serif" font-size="13" lengthAdjust="spacing" textLength="147" x="74" y="354.917">shows operation success</text><!--MD5=[f05bf90338ea02a1d45db3445869129e]
@startuml
'https://plantuml.com/sequence-diagram

autonumber


actor "Client" as C
participant ":System" as S
activate C



C -> S: asks to update its personal data
activate S
S - -> C: shows client's personal data and asks him to select a field
deactivate S
loop
C -> S: selects a field
activate S
S - -> C: requests data
deactivate S
C -> S: types requested data
activate S
S - -> C: shows all data and requests confirmation
deactivate S
C -> S: confirms the data
activate S
S - -> C: shows operation success
deactivate S
end

deactivate C



@enduml

@startuml

autonumber


actor "Client" as C
participant ":System" as S
activate C



C -> S: asks to update its personal data
activate S
S - -> C: shows client's personal data and asks him to select a field
deactivate S
loop
C -> S: selects a field
activate S
S - -> C: requests data
deactivate S
C -> S: types requested data
activate S
S - -> C: shows all data and requests confirmation
deactivate S
C -> S: confirms the data
activate S
S - -> C: shows operation success
deactivate S
end

deactivate C



@enduml

PlantUML version 1.2021.00(Sun Jan 10 10:25:05 GMT 2021)
(GPL source distribution)
Java Runtime: OpenJDK Runtime Environment
JVM: OpenJDK 64-Bit Server VM
Default Encoding: Cp1252
Language: pt
Country: PT
--></g></svg>