<?xml version="1.0" encoding="UTF-8" standalone="no"?><svg xmlns="http://www.w3.org/2000/svg" xmlns:xlink="http://www.w3.org/1999/xlink" contentScriptType="application/ecmascript" contentStyleType="text/css" height="909px" preserveAspectRatio="none" style="width:821px;height:909px;" version="1.1" viewBox="0 0 821 909" width="821px" zoomAndPan="magnify"><defs><filter height="300%" id="fdojbt83qmj0v" width="300%" x="-1" y="-1"><feGaussianBlur result="blurOut" stdDeviation="2.0"/><feColorMatrix in="blurOut" result="blurOut2" type="matrix" values="0 0 0 0 0 0 0 0 0 0 0 0 0 0 0 0 0 0 .4 0"/><feOffset dx="4.0" dy="4.0" in="blurOut2" result="blurOut3"/><feBlend in="SourceGraphic" in2="blurOut3" mode="normal"/></filter></defs><g><!--MD5=[9681dc6e01e10c6b4fe06895ae94f592]
cluster UI--><polygon fill="#FFFFFF" filter="url(#fdojbt83qmj0v)" points="99.09,6,119.09,6,126.09,29.6094,247.09,29.6094,247.09,106,99.09,106,99.09,6" style="stroke:#000000;stroke-width:1.5;"/><line style="stroke:#000000;stroke-width:1.5;" x1="99.09" x2="126.09" y1="29.6094" y2="29.6094"/><text fill="#000000" font-family="sans-serif" font-size="14" font-weight="bold" lengthAdjust="spacing" textLength="14" x="103.09" y="22.5332">UI</text><!--MD5=[ed1d20ea533a2a0e7df5ba3c35e56ced]
cluster Controllers--><polygon fill="#FFFFFF" filter="url(#fdojbt83qmj0v)" points="125.09,139,210.09,139,217.09,162.6094,377.09,162.6094,377.09,267,125.09,267,125.09,139" style="stroke:#000000;stroke-width:1.5;"/><line style="stroke:#000000;stroke-width:1.5;" x1="125.09" x2="217.09" y1="162.6094" y2="162.6094"/><text fill="#000000" font-family="sans-serif" font-size="14" font-weight="bold" lengthAdjust="spacing" textLength="79" x="129.09" y="155.5332">Controllers</text><!--MD5=[121a8bf1197281ab89ed693fab589f94]
cluster Domain--><polygon fill="#FFFFFF" filter="url(#fdojbt83qmj0v)" points="314.09,300,372.09,300,379.09,323.6094,600.09,323.6094,600.09,902.5,314.09,902.5,314.09,300" style="stroke:#000000;stroke-width:1.5;"/><line style="stroke:#000000;stroke-width:1.5;" x1="314.09" x2="379.09" y1="323.6094" y2="323.6094"/><text fill="#000000" font-family="sans-serif" font-size="14" font-weight="bold" lengthAdjust="spacing" textLength="52" x="318.09" y="316.5332">Domain</text><!--MD5=[7b8bc9ee8bb84b99fb3a3f9477c19238]
cluster DTO--><polygon fill="#FFFFFF" filter="url(#fdojbt83qmj0v)" points="95.09,497,130.09,497,137.09,520.6094,217.09,520.6094,217.09,597,95.09,597,95.09,497" style="stroke:#000000;stroke-width:1.5;"/><line style="stroke:#000000;stroke-width:1.5;" x1="95.09" x2="137.09" y1="520.6094" y2="520.6094"/><text fill="#000000" font-family="sans-serif" font-size="14" font-weight="bold" lengthAdjust="spacing" textLength="29" x="99.09" y="513.5332">DTO</text><!--MD5=[701152d03fbf85133a1de050cfdbc7fd]
cluster Mappers--><polygon fill="#FFFFFF" filter="url(#fdojbt83qmj0v)" points="31.09,314,99.09,314,106.09,337.6094,169.09,337.6094,169.09,428,31.09,428,31.09,314" style="stroke:#000000;stroke-width:1.5;"/><line style="stroke:#000000;stroke-width:1.5;" x1="31.09" x2="106.09" y1="337.6094" y2="337.6094"/><text fill="#000000" font-family="sans-serif" font-size="14" font-weight="bold" lengthAdjust="spacing" textLength="62" x="35.09" y="330.5332">Mappers</text><!--MD5=[acb0c8402f85a957a6e5910fb75f4576]
cluster Auth--><polygon fill="#FFFFFF" filter="url(#fdojbt83qmj0v)" points="624.09,490,662.09,490,669.09,513.6094,804.09,513.6094,804.09,833.5,624.09,833.5,624.09,490" style="stroke:#000000;stroke-width:1.5;"/><line style="stroke:#000000;stroke-width:1.5;" x1="624.09" x2="669.09" y1="513.6094" y2="513.6094"/><text fill="#000000" font-family="sans-serif" font-size="14" font-weight="bold" lengthAdjust="spacing" textLength="32" x="628.09" y="506.5332">Auth</text><!--MD5=[c1c03f153bd816b6f382933d9cbece8a]
class UpdateClientUI--><rect codeLine="2" fill="#FEFECE" filter="url(#fdojbt83qmj0v)" height="48" id="UpdateClientUI" style="stroke:#A80036;stroke-width:1.5;" width="116" x="115.09" y="42"/><ellipse cx="130.09" cy="58" fill="#ADD1B2" rx="11" ry="11" style="stroke:#A80036;stroke-width:1.0;"/><path d="M132.09,54.5 Q132.2931,54 132.5275,53.75 Q132.7619,53.5 133.0275,53.5 Q133.4963,53.5 133.7931,53.7813 Q134.09,54.0625 134.09,54.7188 L134.09,56.2813 Q134.09,56.9375 133.8088,57.2188 Q133.5275,57.5 133.09,57.5 Q132.6994,57.5 132.4494,57.3281 Q132.1994,57.1563 132.09,56.7031 Q132.0431,56.3906 131.8713,56.2188 Q131.5588,55.8906 130.9963,55.7031 Q130.4338,55.5 129.8713,55.5 Q129.1681,55.5 128.5744,55.7813 Q127.9963,56.0625 127.5431,56.6875 Q127.09,57.3125 127.09,58.1719 L127.09,59.0938 Q127.09,60.125 127.9338,60.8125 Q128.7775,61.5 130.2775,61.5 Q131.1681,61.5 131.7931,61.2969 Q132.1525,61.1875 132.5588,60.8281 Q132.8244,60.625 132.965,60.5625 Q133.1056,60.5 133.2775,60.5 Q133.6056,60.5 133.84,60.7656 Q134.09,61.0156 134.09,61.375 Q134.09,61.7188 133.7463,62.125 Q133.2463,62.7188 132.4494,63.0469 Q131.4025,63.5 130.1213,63.5 Q128.6213,63.5 127.4181,62.9063 Q126.4494,62.4375 125.7619,61.4219 Q125.09,60.4063 125.09,59.2031 L125.09,58.1094 Q125.09,56.8594 125.6838,55.7656 Q126.2931,54.6719 127.34,54.0938 Q128.4025,53.5 129.59,53.5 Q130.3088,53.5 130.9338,53.75 Q131.5588,54 132.09,54.5 Z " fill="#000000"/><text fill="#000000" font-family="sans-serif" font-size="12" lengthAdjust="spacing" textLength="84" x="144.09" y="62.9102">UpdateClientUI</text><line style="stroke:#A80036;stroke-width:1.5;" x1="116.09" x2="230.09" y1="74" y2="74"/><line style="stroke:#A80036;stroke-width:1.5;" x1="116.09" x2="230.09" y1="82" y2="82"/><!--MD5=[57e60c0e0769cfb82c8b5dc1dd99acae]
class UpdateClientController--><rect codeLine="5" fill="#FEFECE" filter="url(#fdojbt83qmj0v)" height="75.6719" id="UpdateClientController" style="stroke:#A80036;stroke-width:1.5;" width="220" x="141.09" y="175"/><ellipse cx="183.99" cy="191" fill="#ADD1B2" rx="11" ry="11" style="stroke:#A80036;stroke-width:1.0;"/><path d="M185.99,187.5 Q186.1931,187 186.4275,186.75 Q186.6619,186.5 186.9275,186.5 Q187.3963,186.5 187.6931,186.7813 Q187.99,187.0625 187.99,187.7188 L187.99,189.2813 Q187.99,189.9375 187.7088,190.2188 Q187.4275,190.5 186.99,190.5 Q186.5994,190.5 186.3494,190.3281 Q186.0994,190.1563 185.99,189.7031 Q185.9431,189.3906 185.7713,189.2188 Q185.4588,188.8906 184.8963,188.7031 Q184.3338,188.5 183.7713,188.5 Q183.0681,188.5 182.4744,188.7813 Q181.8963,189.0625 181.4431,189.6875 Q180.99,190.3125 180.99,191.1719 L180.99,192.0938 Q180.99,193.125 181.8338,193.8125 Q182.6775,194.5 184.1775,194.5 Q185.0681,194.5 185.6931,194.2969 Q186.0525,194.1875 186.4588,193.8281 Q186.7244,193.625 186.865,193.5625 Q187.0056,193.5 187.1775,193.5 Q187.5056,193.5 187.74,193.7656 Q187.99,194.0156 187.99,194.375 Q187.99,194.7188 187.6463,195.125 Q187.1463,195.7188 186.3494,196.0469 Q185.3025,196.5 184.0213,196.5 Q182.5213,196.5 181.3181,195.9063 Q180.3494,195.4375 179.6619,194.4219 Q178.99,193.4063 178.99,192.2031 L178.99,191.1094 Q178.99,189.8594 179.5838,188.7656 Q180.1931,187.6719 181.24,187.0938 Q182.3025,186.5 183.49,186.5 Q184.2088,186.5 184.8338,186.75 Q185.4588,187 185.99,187.5 Z " fill="#000000"/><text fill="#000000" font-family="sans-serif" font-size="12" lengthAdjust="spacing" textLength="126" x="204.19" y="195.9102">UpdateClientController</text><line style="stroke:#A80036;stroke-width:1.5;" x1="142.09" x2="360.09" y1="207" y2="207"/><line style="stroke:#A80036;stroke-width:1.5;" x1="142.09" x2="360.09" y1="215" y2="215"/><ellipse cx="152.09" cy="226" fill="#84BE84" rx="3" ry="3" style="stroke:#038048;stroke-width:1.0;"/><text fill="#000000" font-family="sans-serif" font-size="11" lengthAdjust="spacing" textLength="49" x="161.09" y="230.4189">getClient()</text><ellipse cx="152.09" cy="239.8359" fill="#84BE84" rx="3" ry="3" style="stroke:#038048;stroke-width:1.0;"/><text fill="#000000" font-family="sans-serif" font-size="11" lengthAdjust="spacing" textLength="194" x="161.09" y="244.2549">updateData(attribute, updateInformation)</text><!--MD5=[02e4b9b7573f1156f41e60aa5b4e25a4]
class Company--><rect codeLine="9" fill="#FEFECE" filter="url(#fdojbt83qmj0v)" height="89.5078" id="Company" style="stroke:#A80036;stroke-width:1.5;" width="108" x="403.09" y="336"/><ellipse cx="428.44" cy="352" fill="#ADD1B2" rx="11" ry="11" style="stroke:#A80036;stroke-width:1.0;"/><path d="M430.44,348.5 Q430.6431,348 430.8775,347.75 Q431.1119,347.5 431.3775,347.5 Q431.8463,347.5 432.1431,347.7813 Q432.44,348.0625 432.44,348.7188 L432.44,350.2813 Q432.44,350.9375 432.1588,351.2188 Q431.8775,351.5 431.44,351.5 Q431.0494,351.5 430.7994,351.3281 Q430.5494,351.1563 430.44,350.7031 Q430.3931,350.3906 430.2213,350.2188 Q429.9088,349.8906 429.3463,349.7031 Q428.7838,349.5 428.2213,349.5 Q427.5181,349.5 426.9244,349.7813 Q426.3463,350.0625 425.8931,350.6875 Q425.44,351.3125 425.44,352.1719 L425.44,353.0938 Q425.44,354.125 426.2838,354.8125 Q427.1275,355.5 428.6275,355.5 Q429.5181,355.5 430.1431,355.2969 Q430.5025,355.1875 430.9088,354.8281 Q431.1744,354.625 431.315,354.5625 Q431.4556,354.5 431.6275,354.5 Q431.9556,354.5 432.19,354.7656 Q432.44,355.0156 432.44,355.375 Q432.44,355.7188 432.0963,356.125 Q431.5963,356.7188 430.7994,357.0469 Q429.7525,357.5 428.4713,357.5 Q426.9713,357.5 425.7681,356.9063 Q424.7994,356.4375 424.1119,355.4219 Q423.44,354.4063 423.44,353.2031 L423.44,352.1094 Q423.44,350.8594 424.0338,349.7656 Q424.6431,348.6719 425.69,348.0938 Q426.7525,347.5 427.94,347.5 Q428.6588,347.5 429.2838,347.75 Q429.9088,348 430.44,348.5 Z " fill="#000000"/><text fill="#000000" font-family="sans-serif" font-size="12" lengthAdjust="spacing" textLength="53" x="444.74" y="356.9102">Company</text><line style="stroke:#A80036;stroke-width:1.5;" x1="404.09" x2="510.09" y1="368" y2="368"/><rect fill="none" height="6" style="stroke:#C82930;stroke-width:1.0;" width="6" x="411.09" y="376"/><text fill="#000000" font-family="sans-serif" font-size="11" lengthAdjust="spacing" textLength="55" x="423.09" y="383.4189">designation</text><line style="stroke:#A80036;stroke-width:1.5;" x1="404.09" x2="510.09" y1="389.8359" y2="389.8359"/><ellipse cx="414.09" cy="400.8359" fill="#84BE84" rx="3" ry="3" style="stroke:#038048;stroke-width:1.0;"/><text fill="#000000" font-family="sans-serif" font-size="11" lengthAdjust="spacing" textLength="82" x="423.09" y="405.2549">getAuthFacade()</text><ellipse cx="414.09" cy="414.6719" fill="#84BE84" rx="3" ry="3" style="stroke:#038048;stroke-width:1.0;"/><text fill="#000000" font-family="sans-serif" font-size="11" lengthAdjust="spacing" textLength="75" x="423.09" y="419.0908">getClientStore()</text><!--MD5=[ed6624c6556d5e7b1bd23032162d20b7]
class Client--><rect codeLine="10" fill="#FEFECE" filter="url(#fdojbt83qmj0v)" height="200.1953" id="Client" style="stroke:#A80036;stroke-width:1.5;" width="202" x="330.09" y="686.5"/><ellipse cx="410.84" cy="702.5" fill="#ADD1B2" rx="11" ry="11" style="stroke:#A80036;stroke-width:1.0;"/><path d="M412.84,699 Q413.0431,698.5 413.2775,698.25 Q413.5119,698 413.7775,698 Q414.2463,698 414.5431,698.2813 Q414.84,698.5625 414.84,699.2188 L414.84,700.7813 Q414.84,701.4375 414.5588,701.7188 Q414.2775,702 413.84,702 Q413.4494,702 413.1994,701.8281 Q412.9494,701.6563 412.84,701.2031 Q412.7931,700.8906 412.6213,700.7188 Q412.3088,700.3906 411.7463,700.2031 Q411.1838,700 410.6213,700 Q409.9181,700 409.3244,700.2813 Q408.7463,700.5625 408.2931,701.1875 Q407.84,701.8125 407.84,702.6719 L407.84,703.5938 Q407.84,704.625 408.6838,705.3125 Q409.5275,706 411.0275,706 Q411.9181,706 412.5431,705.7969 Q412.9025,705.6875 413.3088,705.3281 Q413.5744,705.125 413.715,705.0625 Q413.8556,705 414.0275,705 Q414.3556,705 414.59,705.2656 Q414.84,705.5156 414.84,705.875 Q414.84,706.2188 414.4963,706.625 Q413.9963,707.2188 413.1994,707.5469 Q412.1525,708 410.8713,708 Q409.3713,708 408.1681,707.4063 Q407.1994,706.9375 406.5119,705.9219 Q405.84,704.9063 405.84,703.7031 L405.84,702.6094 Q405.84,701.3594 406.4338,700.2656 Q407.0431,699.1719 408.09,698.5938 Q409.1525,698 410.34,698 Q411.0588,698 411.6838,698.25 Q412.3088,698.5 412.84,699 Z " fill="#000000"/><text fill="#000000" font-family="sans-serif" font-size="12" lengthAdjust="spacing" textLength="32" x="431.34" y="707.4102">Client</text><line style="stroke:#A80036;stroke-width:1.5;" x1="331.09" x2="531.09" y1="718.5" y2="718.5"/><rect fill="none" height="6" style="stroke:#C82930;stroke-width:1.0;" width="6" x="338.09" y="726.5"/><text fill="#000000" font-family="sans-serif" font-size="11" lengthAdjust="spacing" textLength="54" x="350.09" y="733.9189">citizenCard</text><rect fill="none" height="6" style="stroke:#C82930;stroke-width:1.0;" width="6" x="338.09" y="740.3359"/><text fill="#000000" font-family="sans-serif" font-size="11" lengthAdjust="spacing" textLength="18" x="350.09" y="747.7549">nhs</text><rect fill="none" height="6" style="stroke:#C82930;stroke-width:1.0;" width="6" x="338.09" y="754.1719"/><text fill="#000000" font-family="sans-serif" font-size="11" lengthAdjust="spacing" textLength="11" x="350.09" y="761.5908">tin</text><rect fill="none" height="6" style="stroke:#C82930;stroke-width:1.0;" width="6" x="338.09" y="768.0078"/><text fill="#000000" font-family="sans-serif" font-size="11" lengthAdjust="spacing" textLength="39" x="350.09" y="775.4268">birthday</text><rect fill="none" height="6" style="stroke:#C82930;stroke-width:1.0;" width="6" x="338.09" y="781.8438"/><text fill="#000000" font-family="sans-serif" font-size="11" lengthAdjust="spacing" textLength="18" x="350.09" y="789.2627">sex</text><rect fill="none" height="6" style="stroke:#C82930;stroke-width:1.0;" width="6" x="338.09" y="795.6797"/><text fill="#000000" font-family="sans-serif" font-size="11" lengthAdjust="spacing" textLength="67" x="350.09" y="803.0986">phoneNumber</text><rect fill="none" height="6" style="stroke:#C82930;stroke-width:1.0;" width="6" x="338.09" y="809.5156"/><text fill="#000000" font-family="sans-serif" font-size="11" lengthAdjust="spacing" textLength="26" x="350.09" y="816.9346">name</text><line style="stroke:#A80036;stroke-width:1.5;" x1="331.09" x2="531.09" y1="823.3516" y2="823.3516"/><ellipse cx="341.09" cy="834.3516" fill="#84BE84" rx="3" ry="3" style="stroke:#038048;stroke-width:1.0;"/><text fill="#000000" font-family="sans-serif" font-size="11" lengthAdjust="spacing" textLength="136" x="350.09" y="838.7705">setName(updateInformation)</text><ellipse cx="341.09" cy="848.1875" fill="#84BE84" rx="3" ry="3" style="stroke:#038048;stroke-width:1.0;"/><text fill="#000000" font-family="sans-serif" font-size="11" lengthAdjust="spacing" textLength="151" x="350.09" y="852.6064">setAddress(updateInformation)</text><ellipse cx="341.09" cy="862.0234" fill="#84BE84" rx="3" ry="3" style="stroke:#038048;stroke-width:1.0;"/><text fill="#000000" font-family="sans-serif" font-size="11" lengthAdjust="spacing" textLength="128" x="350.09" y="866.4424">setSex(updateInformation)</text><ellipse cx="341.09" cy="875.8594" fill="#84BE84" rx="3" ry="3" style="stroke:#038048;stroke-width:1.0;"/><text fill="#000000" font-family="sans-serif" font-size="11" lengthAdjust="spacing" textLength="176" x="350.09" y="880.2783">setPhoneNumber(updateInformation)</text><!--MD5=[55cb992be19579b505cea3c5691093cb]
class ClientStore--><rect codeLine="11" fill="#FEFECE" filter="url(#fdojbt83qmj0v)" height="103.3438" id="ClientStore" style="stroke:#A80036;stroke-width:1.5;" width="254" x="330.09" y="505.5"/><ellipse cx="422.34" cy="521.5" fill="#ADD1B2" rx="11" ry="11" style="stroke:#A80036;stroke-width:1.0;"/><path d="M424.34,518 Q424.5431,517.5 424.7775,517.25 Q425.0119,517 425.2775,517 Q425.7463,517 426.0431,517.2813 Q426.34,517.5625 426.34,518.2188 L426.34,519.7813 Q426.34,520.4375 426.0588,520.7188 Q425.7775,521 425.34,521 Q424.9494,521 424.6994,520.8281 Q424.4494,520.6563 424.34,520.2031 Q424.2931,519.8906 424.1213,519.7188 Q423.8088,519.3906 423.2463,519.2031 Q422.6838,519 422.1213,519 Q421.4181,519 420.8244,519.2813 Q420.2463,519.5625 419.7931,520.1875 Q419.34,520.8125 419.34,521.6719 L419.34,522.5938 Q419.34,523.625 420.1838,524.3125 Q421.0275,525 422.5275,525 Q423.4181,525 424.0431,524.7969 Q424.4025,524.6875 424.8088,524.3281 Q425.0744,524.125 425.215,524.0625 Q425.3556,524 425.5275,524 Q425.8556,524 426.09,524.2656 Q426.34,524.5156 426.34,524.875 Q426.34,525.2188 425.9963,525.625 Q425.4963,526.2188 424.6994,526.5469 Q423.6525,527 422.3713,527 Q420.8713,527 419.6681,526.4063 Q418.6994,525.9375 418.0119,524.9219 Q417.34,523.9063 417.34,522.7031 L417.34,521.6094 Q417.34,520.3594 417.9338,519.2656 Q418.5431,518.1719 419.59,517.5938 Q420.6525,517 421.84,517 Q422.5588,517 423.1838,517.25 Q423.8088,517.5 424.34,518 Z " fill="#000000"/><text fill="#000000" font-family="sans-serif" font-size="12" lengthAdjust="spacing" textLength="61" x="442.84" y="526.4102">ClientStore</text><line style="stroke:#A80036;stroke-width:1.5;" x1="331.09" x2="583.09" y1="537.5" y2="537.5"/><line style="stroke:#A80036;stroke-width:1.5;" x1="331.09" x2="583.09" y1="545.5" y2="545.5"/><ellipse cx="341.09" cy="556.5" fill="#84BE84" rx="3" ry="3" style="stroke:#038048;stroke-width:1.0;"/><text fill="#000000" font-family="sans-serif" font-size="11" lengthAdjust="spacing" textLength="188" x="350.09" y="560.9189">changeName(client, updateInformation)</text><ellipse cx="341.09" cy="570.3359" fill="#84BE84" rx="3" ry="3" style="stroke:#038048;stroke-width:1.0;"/><text fill="#000000" font-family="sans-serif" font-size="11" lengthAdjust="spacing" textLength="203" x="350.09" y="574.7549">changeAddress(client, updateInformation)</text><ellipse cx="341.09" cy="584.1719" fill="#84BE84" rx="3" ry="3" style="stroke:#038048;stroke-width:1.0;"/><text fill="#000000" font-family="sans-serif" font-size="11" lengthAdjust="spacing" textLength="180" x="350.09" y="588.5908">changeSex(client, updateInformation)</text><ellipse cx="341.09" cy="598.0078" fill="#84BE84" rx="3" ry="3" style="stroke:#038048;stroke-width:1.0;"/><text fill="#000000" font-family="sans-serif" font-size="11" lengthAdjust="spacing" textLength="228" x="350.09" y="602.4268">changePhoneNumber(client, updateInformation)</text><!--MD5=[d92da6d3e9b1e9631354e1a6db35e891]
class ClientDTO--><rect codeLine="15" fill="#FEFECE" filter="url(#fdojbt83qmj0v)" height="48" id="ClientDTO" style="stroke:#A80036;stroke-width:1.5;" width="89" x="111.59" y="533"/><ellipse cx="126.59" cy="549" fill="#ADD1B2" rx="11" ry="11" style="stroke:#A80036;stroke-width:1.0;"/><path d="M128.59,545.5 Q128.7931,545 129.0275,544.75 Q129.2619,544.5 129.5275,544.5 Q129.9963,544.5 130.2931,544.7813 Q130.59,545.0625 130.59,545.7188 L130.59,547.2813 Q130.59,547.9375 130.3088,548.2188 Q130.0275,548.5 129.59,548.5 Q129.1994,548.5 128.9494,548.3281 Q128.6994,548.1563 128.59,547.7031 Q128.5431,547.3906 128.3713,547.2188 Q128.0588,546.8906 127.4963,546.7031 Q126.9338,546.5 126.3713,546.5 Q125.6681,546.5 125.0744,546.7813 Q124.4963,547.0625 124.0431,547.6875 Q123.59,548.3125 123.59,549.1719 L123.59,550.0938 Q123.59,551.125 124.4338,551.8125 Q125.2775,552.5 126.7775,552.5 Q127.6681,552.5 128.2931,552.2969 Q128.6525,552.1875 129.0588,551.8281 Q129.3244,551.625 129.465,551.5625 Q129.6056,551.5 129.7775,551.5 Q130.1056,551.5 130.34,551.7656 Q130.59,552.0156 130.59,552.375 Q130.59,552.7188 130.2463,553.125 Q129.7463,553.7188 128.9494,554.0469 Q127.9025,554.5 126.6213,554.5 Q125.1213,554.5 123.9181,553.9063 Q122.9494,553.4375 122.2619,552.4219 Q121.59,551.4063 121.59,550.2031 L121.59,549.1094 Q121.59,547.8594 122.1838,546.7656 Q122.7931,545.6719 123.84,545.0938 Q124.9025,544.5 126.09,544.5 Q126.8088,544.5 127.4338,544.75 Q128.0588,545 128.59,545.5 Z " fill="#000000"/><text fill="#000000" font-family="sans-serif" font-size="12" lengthAdjust="spacing" textLength="57" x="140.59" y="553.9102">ClientDTO</text><line style="stroke:#A80036;stroke-width:1.5;" x1="112.59" x2="199.59" y1="565" y2="565"/><line style="stroke:#A80036;stroke-width:1.5;" x1="112.59" x2="199.59" y1="573" y2="573"/><!--MD5=[d9af5e34e5bc78cd5a2caff02363fedd]
class ClientMapper--><rect codeLine="19" fill="#FEFECE" filter="url(#fdojbt83qmj0v)" height="61.8359" id="ClientMapper" style="stroke:#A80036;stroke-width:1.5;" width="105" x="47.59" y="350"/><ellipse cx="62.59" cy="366" fill="#ADD1B2" rx="11" ry="11" style="stroke:#A80036;stroke-width:1.0;"/><path d="M64.59,362.5 Q64.7931,362 65.0275,361.75 Q65.2619,361.5 65.5275,361.5 Q65.9963,361.5 66.2931,361.7813 Q66.59,362.0625 66.59,362.7188 L66.59,364.2813 Q66.59,364.9375 66.3088,365.2188 Q66.0275,365.5 65.59,365.5 Q65.1994,365.5 64.9494,365.3281 Q64.6994,365.1563 64.59,364.7031 Q64.5431,364.3906 64.3713,364.2188 Q64.0588,363.8906 63.4963,363.7031 Q62.9338,363.5 62.3713,363.5 Q61.6681,363.5 61.0744,363.7813 Q60.4963,364.0625 60.0431,364.6875 Q59.59,365.3125 59.59,366.1719 L59.59,367.0938 Q59.59,368.125 60.4338,368.8125 Q61.2775,369.5 62.7775,369.5 Q63.6681,369.5 64.2931,369.2969 Q64.6525,369.1875 65.0588,368.8281 Q65.3244,368.625 65.465,368.5625 Q65.6056,368.5 65.7775,368.5 Q66.1056,368.5 66.34,368.7656 Q66.59,369.0156 66.59,369.375 Q66.59,369.7188 66.2463,370.125 Q65.7463,370.7188 64.9494,371.0469 Q63.9025,371.5 62.6213,371.5 Q61.1213,371.5 59.9181,370.9063 Q58.9494,370.4375 58.2619,369.4219 Q57.59,368.4063 57.59,367.2031 L57.59,366.1094 Q57.59,364.8594 58.1838,363.7656 Q58.7931,362.6719 59.84,362.0938 Q60.9025,361.5 62.09,361.5 Q62.8088,361.5 63.4338,361.75 Q64.0588,362 64.59,362.5 Z " fill="#000000"/><text fill="#000000" font-family="sans-serif" font-size="12" lengthAdjust="spacing" textLength="73" x="76.59" y="370.9102">ClientMapper</text><line style="stroke:#A80036;stroke-width:1.5;" x1="48.59" x2="151.59" y1="382" y2="382"/><line style="stroke:#A80036;stroke-width:1.5;" x1="48.59" x2="151.59" y1="390" y2="390"/><ellipse cx="58.59" cy="401" fill="#84BE84" rx="3" ry="3" style="stroke:#038048;stroke-width:1.0;"/><text fill="#000000" font-family="sans-serif" font-size="11" lengthAdjust="spacing" textLength="58" x="67.59" y="405.4189">toDto(client)</text><!--MD5=[8ae808d068a8995f06b9b3ec51357f0b]
class AuthFacade--><rect codeLine="23" fill="#FEFECE" filter="url(#fdojbt83qmj0v)" height="61.8359" id="AuthFacade" style="stroke:#A80036;stroke-width:1.5;" width="147" x="640.59" y="526"/><ellipse cx="678.09" cy="542" fill="#ADD1B2" rx="11" ry="11" style="stroke:#A80036;stroke-width:1.0;"/><path d="M680.09,538.5 Q680.2931,538 680.5275,537.75 Q680.7619,537.5 681.0275,537.5 Q681.4963,537.5 681.7931,537.7813 Q682.09,538.0625 682.09,538.7188 L682.09,540.2813 Q682.09,540.9375 681.8088,541.2188 Q681.5275,541.5 681.09,541.5 Q680.6994,541.5 680.4494,541.3281 Q680.1994,541.1563 680.09,540.7031 Q680.0431,540.3906 679.8713,540.2188 Q679.5588,539.8906 678.9963,539.7031 Q678.4338,539.5 677.8713,539.5 Q677.1681,539.5 676.5744,539.7813 Q675.9963,540.0625 675.5431,540.6875 Q675.09,541.3125 675.09,542.1719 L675.09,543.0938 Q675.09,544.125 675.9338,544.8125 Q676.7775,545.5 678.2775,545.5 Q679.1681,545.5 679.7931,545.2969 Q680.1525,545.1875 680.5588,544.8281 Q680.8244,544.625 680.965,544.5625 Q681.1056,544.5 681.2775,544.5 Q681.6056,544.5 681.84,544.7656 Q682.09,545.0156 682.09,545.375 Q682.09,545.7188 681.7463,546.125 Q681.2463,546.7188 680.4494,547.0469 Q679.4025,547.5 678.1213,547.5 Q676.6213,547.5 675.4181,546.9063 Q674.4494,546.4375 673.7619,545.4219 Q673.09,544.4063 673.09,543.2031 L673.09,542.1094 Q673.09,540.8594 673.6838,539.7656 Q674.2931,538.6719 675.34,538.0938 Q676.4025,537.5 677.59,537.5 Q678.3088,537.5 678.9338,537.75 Q679.5588,538 680.09,538.5 Z " fill="#000000"/><text fill="#000000" font-family="sans-serif" font-size="12" lengthAdjust="spacing" textLength="65" x="697.09" y="546.9102">AuthFacade</text><line style="stroke:#A80036;stroke-width:1.5;" x1="641.59" x2="786.59" y1="558" y2="558"/><line style="stroke:#A80036;stroke-width:1.5;" x1="641.59" x2="786.59" y1="566" y2="566"/><ellipse cx="651.59" cy="577" fill="#84BE84" rx="3" ry="3" style="stroke:#038048;stroke-width:1.0;"/><text fill="#000000" font-family="sans-serif" font-size="11" lengthAdjust="spacing" textLength="121" x="660.59" y="581.4189">getCurrentUserSession()</text><!--MD5=[c5b08e60048ef1bcd788d24cf324082e]
class UserSession--><rect codeLine="24" fill="#FEFECE" filter="url(#fdojbt83qmj0v)" height="61.8359" id="UserSession" style="stroke:#A80036;stroke-width:1.5;" width="105" x="661.59" y="755.5"/><ellipse cx="676.59" cy="771.5" fill="#ADD1B2" rx="11" ry="11" style="stroke:#A80036;stroke-width:1.0;"/><path d="M678.59,768 Q678.7931,767.5 679.0275,767.25 Q679.2619,767 679.5275,767 Q679.9963,767 680.2931,767.2813 Q680.59,767.5625 680.59,768.2188 L680.59,769.7813 Q680.59,770.4375 680.3088,770.7188 Q680.0275,771 679.59,771 Q679.1994,771 678.9494,770.8281 Q678.6994,770.6563 678.59,770.2031 Q678.5431,769.8906 678.3713,769.7188 Q678.0588,769.3906 677.4963,769.2031 Q676.9338,769 676.3713,769 Q675.6681,769 675.0744,769.2813 Q674.4963,769.5625 674.0431,770.1875 Q673.59,770.8125 673.59,771.6719 L673.59,772.5938 Q673.59,773.625 674.4338,774.3125 Q675.2775,775 676.7775,775 Q677.6681,775 678.2931,774.7969 Q678.6525,774.6875 679.0588,774.3281 Q679.3244,774.125 679.465,774.0625 Q679.6056,774 679.7775,774 Q680.1056,774 680.34,774.2656 Q680.59,774.5156 680.59,774.875 Q680.59,775.2188 680.2463,775.625 Q679.7463,776.2188 678.9494,776.5469 Q677.9025,777 676.6213,777 Q675.1213,777 673.9181,776.4063 Q672.9494,775.9375 672.2619,774.9219 Q671.59,773.9063 671.59,772.7031 L671.59,771.6094 Q671.59,770.3594 672.1838,769.2656 Q672.7931,768.1719 673.84,767.5938 Q674.9025,767 676.09,767 Q676.8088,767 677.4338,767.25 Q678.0588,767.5 678.59,768 Z " fill="#000000"/><text fill="#000000" font-family="sans-serif" font-size="12" lengthAdjust="spacing" textLength="73" x="690.59" y="776.4102">UserSession</text><line style="stroke:#A80036;stroke-width:1.5;" x1="662.59" x2="765.59" y1="787.5" y2="787.5"/><line style="stroke:#A80036;stroke-width:1.5;" x1="662.59" x2="765.59" y1="795.5" y2="795.5"/><ellipse cx="672.59" cy="806.5" fill="#84BE84" rx="3" ry="3" style="stroke:#038048;stroke-width:1.0;"/><text fill="#000000" font-family="sans-serif" font-size="11" lengthAdjust="spacing" textLength="54" x="681.59" y="810.9189">getUserId()</text><!--MD5=[dd38717e8d8a8fa7b964258d3f7b1f44]
link UpdateClientUI to UpdateClientController--><path codeLine="27" d="M185.62,90.3 C197.23,111.86 214.75,144.43 228.74,170.45 " fill="none" id="UpdateClientUI-to-UpdateClientController" style="stroke:#A80036;stroke-width:1.0;stroke-dasharray:7.0,7.0;"/><polygon fill="#A80036" points="231.13,174.9,230.4192,165.0768,228.7748,170.4894,223.3622,168.8451,231.13,174.9" style="stroke:#A80036;stroke-width:1.0;"/><!--MD5=[93b83a5dade4da6454ce0cbb7b50db86]
link UpdateClientUI to ClientDTO--><path codeLine="28" d="M151.53,90.29 C117.63,128.74 53.41,209.51 31.09,292 C14.38,353.78 6,377.12 31.09,436 C48.01,475.7 85.22,508.58 114.66,529.83 " fill="none" id="UpdateClientUI-to-ClientDTO" style="stroke:#A80036;stroke-width:1.0;stroke-dasharray:7.0,7.0;"/><polygon fill="#A80036" points="118.95,532.88,113.9401,524.4006,114.8775,529.9792,109.2988,530.9166,118.95,532.88" style="stroke:#A80036;stroke-width:1.0;"/><!--MD5=[7ee85e3224ad4bac687a483818a9d592]
link UpdateClientController to Company--><path codeLine="29" d="M328,251.1 C344.27,260.48 360.82,271.26 375.09,283 C392.2,297.08 408.52,315.05 422.02,331.69 " fill="none" id="UpdateClientController-to-Company" style="stroke:#A80036;stroke-width:1.0;stroke-dasharray:7.0,7.0;"/><polygon fill="#A80036" points="425.39,335.89,422.8785,326.3668,422.2613,331.9898,416.6382,331.3727,425.39,335.89" style="stroke:#A80036;stroke-width:1.0;"/><!--MD5=[0727bedd3b36385c107f46f124f746cc]
link UpdateClientController to ClientDTO--><path codeLine="30" d="M240.74,251.25 C221.57,320.29 180.91,466.66 163.87,528.02 " fill="none" id="UpdateClientController-to-ClientDTO" style="stroke:#A80036;stroke-width:1.0;stroke-dasharray:7.0,7.0;"/><polygon fill="#A80036" points="162.48,532.99,168.751,525.3956,163.8234,528.1738,161.0452,523.2462,162.48,532.99" style="stroke:#A80036;stroke-width:1.0;"/><!--MD5=[f0a31e5bd9c3b861032eb25f374354e5]
link UpdateClientController to ClientMapper--><path codeLine="31" d="M211.26,251.21 C200.88,261.3 189.88,272.38 180.09,283 C161.52,303.15 141.93,326.85 126.79,345.79 " fill="none" id="UpdateClientController-to-ClientMapper" style="stroke:#A80036;stroke-width:1.0;stroke-dasharray:7.0,7.0;"/><polygon fill="#A80036" points="123.43,350,132.1717,345.4631,126.55,346.0929,125.9203,340.4712,123.43,350" style="stroke:#A80036;stroke-width:1.0;"/><!--MD5=[98cbf8f501c587175bff1ee74db65af1]
link UpdateClientController to ClientStore--><path codeLine="32" d="M280.74,251.24 C288.34,261.33 296.28,272.4 303.09,283 C344.93,348.07 347.94,368.7 386.09,436 C398.24,457.43 411.95,480.78 424.06,501.15 " fill="none" id="UpdateClientController-to-ClientStore" style="stroke:#A80036;stroke-width:1.0;stroke-dasharray:7.0,7.0;"/><polygon fill="#A80036" points="426.62,505.44,425.4578,495.66,424.0643,501.1425,418.5818,499.749,426.62,505.44" style="stroke:#A80036;stroke-width:1.0;"/><!--MD5=[674c0b4874794262cdfab96f1c1fd87f]
link UpdateClientController to Client--><path codeLine="33" d="M254.87,251.18 C263.87,336.38 287.71,543.43 313.09,608.5 C322.88,633.6 336.68,658.77 351.4,681.93 " fill="none" id="UpdateClientController-to-Client" style="stroke:#A80036;stroke-width:1.0;stroke-dasharray:7.0,7.0;"/><polygon fill="#A80036" points="354.16,686.24,352.6579,676.5064,351.4562,682.0341,345.9285,680.8324,354.16,686.24" style="stroke:#A80036;stroke-width:1.0;"/><!--MD5=[681861d3e5936b0aefbcfdb495b78abc]
link ClientDTO to Client--><path codeLine="56" d="M176.13,581.06 C194.65,601.79 223.41,632.58 251.09,656.5 C274.33,676.58 300.59,696.69 325.72,714.85 " fill="none" id="ClientDTO-to-Client" style="stroke:#A80036;stroke-width:1.0;stroke-dasharray:7.0,7.0;"/><polygon fill="#A80036" points="330.07,717.99,325.1137,709.4791,326.0159,715.0636,320.4314,715.9658,330.07,717.99" style="stroke:#A80036;stroke-width:1.0;"/><!--MD5=[a11230341c8e65219708844feaa40162]
link Company to ClientStore--><path codeLine="66" d="M457.09,426.36 C457.09,448.82 457.09,476.33 457.09,500.22 " fill="none" id="Company-to-ClientStore" style="stroke:#A80036;stroke-width:1.0;"/><polygon fill="#A80036" points="457.09,505.26,461.09,496.26,457.09,500.26,453.09,496.26,457.09,505.26" style="stroke:#A80036;stroke-width:1.0;"/><text fill="#000000" font-family="sans-serif" font-size="13" lengthAdjust="spacing" textLength="21" x="458.09" y="470.4951">has</text><text fill="#000000" font-family="sans-serif" font-size="13" lengthAdjust="spacing" textLength="7" x="449.6197" y="447.0821">1</text><text fill="#000000" font-family="sans-serif" font-size="13" lengthAdjust="spacing" textLength="7" x="449.6197" y="494.7281">1</text><!--MD5=[1d934105a045dbf126514c6917bd5072]
link ClientStore to Client--><path codeLine="68" d="M451.29,608.77 C448.83,630.26 445.88,656.12 443,681.35 " fill="none" id="ClientStore-to-Client" style="stroke:#A80036;stroke-width:1.0;"/><polygon fill="#A80036" points="442.42,686.38,447.3975,677.8815,442.9769,681.4111,439.4472,676.9905,442.42,686.38" style="stroke:#A80036;stroke-width:1.0;"/><text fill="#000000" font-family="sans-serif" font-size="13" lengthAdjust="spacing" textLength="21" x="448.09" y="652.9951">has</text><text fill="#000000" font-family="sans-serif" font-size="13" lengthAdjust="spacing" textLength="7" x="443.0403" y="630.2972">1</text><text fill="#000000" font-family="sans-serif" font-size="13" lengthAdjust="spacing" textLength="5" x="438.096" y="675.6032">*</text><!--MD5=[717d4b03d3c4372f4eafe5e342a0a7dd]
link Company to AuthFacade--><path codeLine="70" d="M511.28,418.69 C556.79,449.5 621.25,493.14 665.2,522.9 " fill="none" id="Company-to-AuthFacade" style="stroke:#A80036;stroke-width:1.0;stroke-dasharray:7.0,7.0;"/><polygon fill="#A80036" points="669.39,525.73,664.1732,517.3763,665.2474,522.9302,659.6935,524.0044,669.39,525.73" style="stroke:#A80036;stroke-width:1.0;"/><!--MD5=[434feadd2b6df9bf2f29d4ac96be7aa9]
link AuthFacade to UserSession--><path codeLine="71" d="M714.09,588.21 C714.09,630.02 714.09,705.4 714.09,749.9 " fill="none" id="AuthFacade-to-UserSession" style="stroke:#A80036;stroke-width:1.0;stroke-dasharray:7.0,7.0;"/><polygon fill="#A80036" points="714.09,755.16,718.09,746.16,714.09,750.16,710.09,746.16,714.09,755.16" style="stroke:#A80036;stroke-width:1.0;"/><!--MD5=[af3939234646809cec66923e43961aa6]
link ClientMapper to ClientDTO--><path codeLine="73" d="M109.85,412.31 C120.35,444.93 136.91,496.4 147.1,528.07 " fill="none" id="ClientMapper-to-ClientDTO" style="stroke:#A80036;stroke-width:1.0;stroke-dasharray:7.0,7.0;"/><polygon fill="#A80036" points="148.68,532.98,149.7435,523.1887,147.1546,528.2184,142.1249,525.6294,148.68,532.98" style="stroke:#A80036;stroke-width:1.0;"/><!--MD5=[ce98cda7904825d3ed52ea8f4959ac73]
@startuml
package UI{
    Class UpdateClientUI
}
package Controllers{
    Class UpdateClientController
}

package Domain{
    Class Company
    Class Client
    Class ClientStore
}

package DTO{
    Class ClientDTO
}

package Mappers{
    Class ClientMapper
}

package Auth{
    Class AuthFacade
    Class UserSession
}

UpdateClientUI ..> UpdateClientController
UpdateClientUI ..> ClientDTO
UpdateClientController..>Company
UpdateClientController..>ClientDTO
UpdateClientController..>ClientMapper
UpdateClientController..>ClientStore
UpdateClientController..>Client

UpdateClientController : +getClient()
UpdateClientController : +updateData(attribute, updateInformation)

AuthFacade : +getCurrentUserSession()

UserSession : +getUserId()

ClientMapper : +toDto(client)

Client : +setName(updateInformation)
Client : +setAddress(updateInformation)
Client : +setSex(updateInformation)
Client : +setPhoneNumber(updateInformation)
Client : -citizenCard
Client : -nhs
Client : -tin
Client : -birthday
Client : -sex
Client : -phoneNumber
Client : -name

ClientDTO..>Client

ClientStore : +changeName(client, updateInformation)
ClientStore : +changeAddress(client, updateInformation)
ClientStore : +changeSex(client, updateInformation)
ClientStore : +changePhoneNumber(client, updateInformation)

Company : +getAuthFacade()
Company : +getClientStore()
Company : -designation
Company"1" - -> "1"ClientStore: has

ClientStore"1" - -> "*"Client: has

Company..>AuthFacade
AuthFacade..>UserSession

ClientMapper..>ClientDTO
@enduml

PlantUML version 1.2021.5(Sun Apr 25 12:20:28 BST 2021)
(GPL source distribution)
Java Runtime: OpenJDK Runtime Environment
JVM: OpenJDK 64-Bit Server VM
Default Encoding: Cp1252
Language: pt
Country: PT
--></g></svg>