<?xml version="1.0" encoding="UTF-8" standalone="no"?><svg xmlns="http://www.w3.org/2000/svg" xmlns:xlink="http://www.w3.org/1999/xlink" contentScriptType="application/ecmascript" contentStyleType="text/css" height="553px" preserveAspectRatio="none" style="width:1096px;height:553px;background:#FFFFFF;" version="1.1" viewBox="0 0 1096 553" width="1096px" zoomAndPan="magnify"><defs><filter height="300%" id="fzv12uu2ugyft" width="300%" x="-1" y="-1"><feGaussianBlur result="blurOut" stdDeviation="2.0"/><feColorMatrix in="blurOut" result="blurOut2" type="matrix" values="0 0 0 0 0 0 0 0 0 0 0 0 0 0 0 0 0 0 .4 0"/><feOffset dx="4.0" dy="4.0" in="blurOut2" result="blurOut3"/><feBlend in="SourceGraphic" in2="blurOut3" mode="normal"/></filter></defs><g><!--MD5=[02e4b9b7573f1156f41e60aa5b4e25a4]
class Company--><rect codeLine="6" fill="#FEFECE" filter="url(#fzv12uu2ugyft)" height="52.8047" id="Company" style="stroke:#A80036;stroke-width:1.5;" width="88" x="7" y="271.0659"/><ellipse cx="22" cy="287.0659" fill="#ADD1B2" rx="11" ry="11" style="stroke:#A80036;stroke-width:1.0;"/><path d="M24.3438,282.7378 C23.4063,282.3003 22.8125,282.1597 21.9375,282.1597 C19.3125,282.1597 17.3125,284.2378 17.3125,286.9565 L17.3125,288.0815 C17.3125,290.6597 19.4219,292.5503 22.3125,292.5503 C23.5313,292.5503 24.6875,292.2534 25.4375,291.7065 C26.0156,291.3003 26.3438,290.8472 26.3438,290.4565 C26.3438,290.0034 25.9531,289.6128 25.4844,289.6128 C25.2656,289.6128 25.0625,289.6909 24.875,289.8784 C24.4219,290.3628 24.4219,290.3628 24.2344,290.4565 C23.8125,290.7222 23.125,290.8472 22.3594,290.8472 C20.3125,290.8472 19.0156,289.7534 19.0156,288.0503 L19.0156,286.9565 C19.0156,285.1753 20.2656,283.8628 22,283.8628 C22.5781,283.8628 23.1875,284.019 23.6563,284.269 C24.1406,284.5503 24.3125,284.769 24.4063,285.1753 C24.4688,285.5815 24.5,285.7065 24.6406,285.8315 C24.7813,285.9722 25.0156,286.0815 25.2344,286.0815 C25.5,286.0815 25.7656,285.9409 25.9375,285.7222 C26.0469,285.5659 26.0781,285.3784 26.0781,284.9565 L26.0781,283.5347 C26.0781,283.0972 26.0625,282.9722 25.9688,282.8159 C25.8125,282.5503 25.5313,282.4097 25.2344,282.4097 C24.9375,282.4097 24.7344,282.5034 24.5156,282.8159 L24.3438,282.7378 Z " fill="#000000"/><text fill="#000000" font-family="sans-serif" font-size="12" lengthAdjust="spacing" textLength="56" x="36" y="291.2202">Company</text><line style="stroke:#A80036;stroke-width:1.5;" x1="8" x2="94" y1="303.0659" y2="303.0659"/><text fill="#000000" font-family="sans-serif" font-size="11" lengthAdjust="spacing" textLength="70" x="13" y="317.2764">-designation</text><!--MD5=[aeb3272166074d8737a70b61b1e71682]
class TestType--><rect codeLine="10" fill="#FEFECE" filter="url(#fzv12uu2ugyft)" height="91.2188" id="TestType" style="stroke:#A80036;stroke-width:1.5;" width="128" x="954" y="48.0659"/><ellipse cx="987" cy="64.0659" fill="#ADD1B2" rx="11" ry="11" style="stroke:#A80036;stroke-width:1.0;"/><path d="M989.3438,59.7378 C988.4063,59.3003 987.8125,59.1597 986.9375,59.1597 C984.3125,59.1597 982.3125,61.2378 982.3125,63.9565 L982.3125,65.0815 C982.3125,67.6597 984.4219,69.5503 987.3125,69.5503 C988.5313,69.5503 989.6875,69.2534 990.4375,68.7065 C991.0156,68.3003 991.3438,67.8472 991.3438,67.4565 C991.3438,67.0034 990.9531,66.6128 990.4844,66.6128 C990.2656,66.6128 990.0625,66.6909 989.875,66.8784 C989.4219,67.3628 989.4219,67.3628 989.2344,67.4565 C988.8125,67.7222 988.125,67.8472 987.3594,67.8472 C985.3125,67.8472 984.0156,66.7534 984.0156,65.0503 L984.0156,63.9565 C984.0156,62.1753 985.2656,60.8628 987,60.8628 C987.5781,60.8628 988.1875,61.019 988.6563,61.269 C989.1406,61.5503 989.3125,61.769 989.4063,62.1753 C989.4688,62.5815 989.5,62.7065 989.6406,62.8315 C989.7813,62.9722 990.0156,63.0815 990.2344,63.0815 C990.5,63.0815 990.7656,62.9409 990.9375,62.7222 C991.0469,62.5659 991.0781,62.3784 991.0781,61.9565 L991.0781,60.5347 C991.0781,60.0972 991.0625,59.9722 990.9688,59.8159 C990.8125,59.5503 990.5313,59.4097 990.2344,59.4097 C989.9375,59.4097 989.7344,59.5034 989.5156,59.8159 L989.3438,59.7378 Z " fill="#000000"/><text fill="#000000" font-family="sans-serif" font-size="12" lengthAdjust="spacing" textLength="56" x="1005" y="68.2202">TestType</text><line style="stroke:#A80036;stroke-width:1.5;" x1="955" x2="1081" y1="80.0659" y2="80.0659"/><text fill="#000000" font-family="sans-serif" font-size="11" lengthAdjust="spacing" textLength="32" x="960" y="94.2764">-code</text><text fill="#000000" font-family="sans-serif" font-size="11" lengthAdjust="spacing" textLength="66" x="960" y="107.0811">-description</text><text fill="#000000" font-family="sans-serif" font-size="11" lengthAdjust="spacing" textLength="100" x="960" y="119.8857">-collectingMethod</text><text fill="#000000" font-family="sans-serif" font-size="11" lengthAdjust="spacing" textLength="116" x="960" y="132.6904">-parameterCategory</text><!--MD5=[a999c1570c205a2156b04a15307bc1ff]
class LabOrder--><rect codeLine="17" fill="#FEFECE" filter="url(#fzv12uu2ugyft)" height="65.6094" id="LabOrder" style="stroke:#A80036;stroke-width:1.5;" width="89" x="710" y="427.5659"/><ellipse cx="725" cy="443.5659" fill="#ADD1B2" rx="11" ry="11" style="stroke:#A80036;stroke-width:1.0;"/><path d="M727.3438,439.2378 C726.4063,438.8003 725.8125,438.6597 724.9375,438.6597 C722.3125,438.6597 720.3125,440.7378 720.3125,443.4565 L720.3125,444.5815 C720.3125,447.1597 722.4219,449.0503 725.3125,449.0503 C726.5313,449.0503 727.6875,448.7534 728.4375,448.2065 C729.0156,447.8003 729.3438,447.3472 729.3438,446.9565 C729.3438,446.5034 728.9531,446.1128 728.4844,446.1128 C728.2656,446.1128 728.0625,446.1909 727.875,446.3784 C727.4219,446.8628 727.4219,446.8628 727.2344,446.9565 C726.8125,447.2222 726.125,447.3472 725.3594,447.3472 C723.3125,447.3472 722.0156,446.2534 722.0156,444.5503 L722.0156,443.4565 C722.0156,441.6753 723.2656,440.3628 725,440.3628 C725.5781,440.3628 726.1875,440.519 726.6563,440.769 C727.1406,441.0503 727.3125,441.269 727.4063,441.6753 C727.4688,442.0815 727.5,442.2065 727.6406,442.3315 C727.7813,442.4722 728.0156,442.5815 728.2344,442.5815 C728.5,442.5815 728.7656,442.4409 728.9375,442.2222 C729.0469,442.0659 729.0781,441.8784 729.0781,441.4565 L729.0781,440.0347 C729.0781,439.5972 729.0625,439.4722 728.9688,439.3159 C728.8125,439.0503 728.5313,438.9097 728.2344,438.9097 C727.9375,438.9097 727.7344,439.0034 727.5156,439.3159 L727.3438,439.2378 Z " fill="#000000"/><text fill="#000000" font-family="sans-serif" font-size="12" lengthAdjust="spacing" textLength="57" x="739" y="447.7202">LabOrder</text><line style="stroke:#A80036;stroke-width:1.5;" x1="711" x2="798" y1="459.5659" y2="459.5659"/><text fill="#000000" font-family="sans-serif" font-size="11" lengthAdjust="spacing" textLength="55" x="716" y="473.7764">-testType</text><text fill="#000000" font-family="sans-serif" font-size="11" lengthAdjust="spacing" textLength="64" x="716" y="486.5811">-parameter</text><!--MD5=[ed6624c6556d5e7b1bd23032162d20b7]
class Client--><rect codeLine="22" fill="#FEFECE" filter="url(#fzv12uu2ugyft)" height="142.4375" id="Client" style="stroke:#A80036;stroke-width:1.5;" width="97" x="706" y="250.5659"/><ellipse cx="735.4" cy="266.5659" fill="#ADD1B2" rx="11" ry="11" style="stroke:#A80036;stroke-width:1.0;"/><path d="M737.7438,262.2378 C736.8063,261.8003 736.2125,261.6597 735.3375,261.6597 C732.7125,261.6597 730.7125,263.7378 730.7125,266.4565 L730.7125,267.5815 C730.7125,270.1597 732.8219,272.0503 735.7125,272.0503 C736.9313,272.0503 738.0875,271.7534 738.8375,271.2065 C739.4156,270.8003 739.7438,270.3472 739.7438,269.9565 C739.7438,269.5034 739.3531,269.1128 738.8844,269.1128 C738.6656,269.1128 738.4625,269.1909 738.275,269.3784 C737.8219,269.8628 737.8219,269.8628 737.6344,269.9565 C737.2125,270.2222 736.525,270.3472 735.7594,270.3472 C733.7125,270.3472 732.4156,269.2534 732.4156,267.5503 L732.4156,266.4565 C732.4156,264.6753 733.6656,263.3628 735.4,263.3628 C735.9781,263.3628 736.5875,263.519 737.0563,263.769 C737.5406,264.0503 737.7125,264.269 737.8063,264.6753 C737.8688,265.0815 737.9,265.2065 738.0406,265.3315 C738.1813,265.4722 738.4156,265.5815 738.6344,265.5815 C738.9,265.5815 739.1656,265.4409 739.3375,265.2222 C739.4469,265.0659 739.4781,264.8784 739.4781,264.4565 L739.4781,263.0347 C739.4781,262.5972 739.4625,262.4722 739.3688,262.3159 C739.2125,262.0503 738.9313,261.9097 738.6344,261.9097 C738.3375,261.9097 738.1344,262.0034 737.9156,262.3159 L737.7438,262.2378 Z " fill="#000000"/><text fill="#000000" font-family="sans-serif" font-size="12" lengthAdjust="spacing" textLength="33" x="752.6" y="270.7202">Client</text><line style="stroke:#A80036;stroke-width:1.5;" x1="707" x2="802" y1="282.5659" y2="282.5659"/><text fill="#000000" font-family="sans-serif" font-size="11" lengthAdjust="spacing" textLength="23" x="712" y="296.7764">-ccn</text><text fill="#000000" font-family="sans-serif" font-size="11" lengthAdjust="spacing" textLength="24" x="712" y="309.5811">-nhs</text><text fill="#000000" font-family="sans-serif" font-size="11" lengthAdjust="spacing" textLength="29" x="712" y="322.3857">-birth</text><text fill="#000000" font-family="sans-serif" font-size="11" lengthAdjust="spacing" textLength="25" x="712" y="335.1904">-sex</text><text fill="#000000" font-family="sans-serif" font-size="11" lengthAdjust="spacing" textLength="15" x="712" y="347.9951">-tif</text><text fill="#000000" font-family="sans-serif" font-size="11" lengthAdjust="spacing" textLength="36" x="712" y="360.7998">-email</text><text fill="#000000" font-family="sans-serif" font-size="11" lengthAdjust="spacing" textLength="37" x="712" y="373.6045">-name</text><text fill="#000000" font-family="sans-serif" font-size="11" lengthAdjust="spacing" textLength="85" x="712" y="386.4092">-phoneNumber</text><!--MD5=[1f6362a5c8f21d8d6a0fce68f3a92a4e]
class Parameter--><rect codeLine="33" fill="#FEFECE" filter="url(#fzv12uu2ugyft)" height="91.2188" id="Parameter" style="stroke:#A80036;stroke-width:1.5;" width="128" x="954" y="415.0659"/><ellipse cx="984.75" cy="431.0659" fill="#ADD1B2" rx="11" ry="11" style="stroke:#A80036;stroke-width:1.0;"/><path d="M987.0938,426.7378 C986.1563,426.3003 985.5625,426.1597 984.6875,426.1597 C982.0625,426.1597 980.0625,428.2378 980.0625,430.9565 L980.0625,432.0815 C980.0625,434.6597 982.1719,436.5503 985.0625,436.5503 C986.2813,436.5503 987.4375,436.2534 988.1875,435.7065 C988.7656,435.3003 989.0938,434.8472 989.0938,434.4565 C989.0938,434.0034 988.7031,433.6128 988.2344,433.6128 C988.0156,433.6128 987.8125,433.6909 987.625,433.8784 C987.1719,434.3628 987.1719,434.3628 986.9844,434.4565 C986.5625,434.7222 985.875,434.8472 985.1094,434.8472 C983.0625,434.8472 981.7656,433.7534 981.7656,432.0503 L981.7656,430.9565 C981.7656,429.1753 983.0156,427.8628 984.75,427.8628 C985.3281,427.8628 985.9375,428.019 986.4063,428.269 C986.8906,428.5503 987.0625,428.769 987.1563,429.1753 C987.2188,429.5815 987.25,429.7065 987.3906,429.8315 C987.5313,429.9722 987.7656,430.0815 987.9844,430.0815 C988.25,430.0815 988.5156,429.9409 988.6875,429.7222 C988.7969,429.5659 988.8281,429.3784 988.8281,428.9565 L988.8281,427.5347 C988.8281,427.0972 988.8125,426.9722 988.7188,426.8159 C988.5625,426.5503 988.2813,426.4097 987.9844,426.4097 C987.6875,426.4097 987.4844,426.5034 987.2656,426.8159 L987.0938,426.7378 Z " fill="#000000"/><text fill="#000000" font-family="sans-serif" font-size="12" lengthAdjust="spacing" textLength="61" x="1002.25" y="435.2202">Parameter</text><line style="stroke:#A80036;stroke-width:1.5;" x1="955" x2="1081" y1="447.0659" y2="447.0659"/><text fill="#000000" font-family="sans-serif" font-size="11" lengthAdjust="spacing" textLength="32" x="960" y="461.2764">-code</text><text fill="#000000" font-family="sans-serif" font-size="11" lengthAdjust="spacing" textLength="66" x="960" y="474.0811">-shortName</text><text fill="#000000" font-family="sans-serif" font-size="11" lengthAdjust="spacing" textLength="100" x="960" y="486.8857">-descriptionName</text><text fill="#000000" font-family="sans-serif" font-size="11" lengthAdjust="spacing" textLength="116" x="960" y="499.6904">-parameterCategory</text><!--MD5=[da547346deef918ea16944ba046651ef]
class Administrator--><rect codeLine="40" fill="#FEFECE" filter="url(#fzv12uu2ugyft)" height="40" id="Administrator" style="stroke:#A80036;stroke-width:1.5;" width="112" x="443" y="162.5659"/><ellipse cx="458" cy="178.5659" fill="#ADD1B2" rx="11" ry="11" style="stroke:#A80036;stroke-width:1.0;"/><path d="M460.3438,174.2378 C459.4063,173.8003 458.8125,173.6597 457.9375,173.6597 C455.3125,173.6597 453.3125,175.7378 453.3125,178.4565 L453.3125,179.5815 C453.3125,182.1597 455.4219,184.0503 458.3125,184.0503 C459.5313,184.0503 460.6875,183.7534 461.4375,183.2065 C462.0156,182.8003 462.3438,182.3472 462.3438,181.9565 C462.3438,181.5034 461.9531,181.1128 461.4844,181.1128 C461.2656,181.1128 461.0625,181.1909 460.875,181.3784 C460.4219,181.8628 460.4219,181.8628 460.2344,181.9565 C459.8125,182.2222 459.125,182.3472 458.3594,182.3472 C456.3125,182.3472 455.0156,181.2534 455.0156,179.5503 L455.0156,178.4565 C455.0156,176.6753 456.2656,175.3628 458,175.3628 C458.5781,175.3628 459.1875,175.519 459.6563,175.769 C460.1406,176.0503 460.3125,176.269 460.4063,176.6753 C460.4688,177.0815 460.5,177.2065 460.6406,177.3315 C460.7813,177.4722 461.0156,177.5815 461.2344,177.5815 C461.5,177.5815 461.7656,177.4409 461.9375,177.2222 C462.0469,177.0659 462.0781,176.8784 462.0781,176.4565 L462.0781,175.0347 C462.0781,174.5972 462.0625,174.4722 461.9688,174.3159 C461.8125,174.0503 461.5313,173.9097 461.2344,173.9097 C460.9375,173.9097 460.7344,174.0034 460.5156,174.3159 L460.3438,174.2378 Z " fill="#000000"/><text fill="#000000" font-family="sans-serif" font-size="12" lengthAdjust="spacing" textLength="80" x="472" y="182.7202">Administrator</text><line style="stroke:#A80036;stroke-width:1.5;" x1="444" x2="554" y1="194.5659" y2="194.5659"/><!--MD5=[03960189e81aa2c066c762ffabbee709]
class Receptionist--><rect codeLine="44" fill="#FEFECE" filter="url(#fzv12uu2ugyft)" height="40" id="Receptionist" style="stroke:#A80036;stroke-width:1.5;" width="106" x="193" y="336.5659"/><ellipse cx="208" cy="352.5659" fill="#ADD1B2" rx="11" ry="11" style="stroke:#A80036;stroke-width:1.0;"/><path d="M210.3438,348.2378 C209.4063,347.8003 208.8125,347.6597 207.9375,347.6597 C205.3125,347.6597 203.3125,349.7378 203.3125,352.4565 L203.3125,353.5815 C203.3125,356.1597 205.4219,358.0503 208.3125,358.0503 C209.5313,358.0503 210.6875,357.7534 211.4375,357.2065 C212.0156,356.8003 212.3438,356.3472 212.3438,355.9565 C212.3438,355.5034 211.9531,355.1128 211.4844,355.1128 C211.2656,355.1128 211.0625,355.1909 210.875,355.3784 C210.4219,355.8628 210.4219,355.8628 210.2344,355.9565 C209.8125,356.2222 209.125,356.3472 208.3594,356.3472 C206.3125,356.3472 205.0156,355.2534 205.0156,353.5503 L205.0156,352.4565 C205.0156,350.6753 206.2656,349.3628 208,349.3628 C208.5781,349.3628 209.1875,349.519 209.6563,349.769 C210.1406,350.0503 210.3125,350.269 210.4063,350.6753 C210.4688,351.0815 210.5,351.2065 210.6406,351.3315 C210.7813,351.4722 211.0156,351.5815 211.2344,351.5815 C211.5,351.5815 211.7656,351.4409 211.9375,351.2222 C212.0469,351.0659 212.0781,350.8784 212.0781,350.4565 L212.0781,349.0347 C212.0781,348.5972 212.0625,348.4722 211.9688,348.3159 C211.8125,348.0503 211.5313,347.9097 211.2344,347.9097 C210.9375,347.9097 210.7344,348.0034 210.5156,348.3159 L210.3438,348.2378 Z " fill="#000000"/><text fill="#000000" font-family="sans-serif" font-size="12" lengthAdjust="spacing" textLength="74" x="222" y="356.7202">Receptionist</text><line style="stroke:#A80036;stroke-width:1.5;" x1="194" x2="298" y1="368.5659" y2="368.5659"/><!--MD5=[df38be88ccee13e832d6fafd6288a4ca]
class Test--><rect codeLine="48" fill="#FEFECE" filter="url(#fzv12uu2ugyft)" height="78.4141" id="Test" style="stroke:#A80036;stroke-width:1.5;" width="75" x="461.5" y="331.5659"/><ellipse cx="484.15" cy="347.5659" fill="#ADD1B2" rx="11" ry="11" style="stroke:#A80036;stroke-width:1.0;"/><path d="M486.4938,343.2378 C485.5563,342.8003 484.9625,342.6597 484.0875,342.6597 C481.4625,342.6597 479.4625,344.7378 479.4625,347.4565 L479.4625,348.5815 C479.4625,351.1597 481.5719,353.0503 484.4625,353.0503 C485.6813,353.0503 486.8375,352.7534 487.5875,352.2065 C488.1656,351.8003 488.4938,351.3472 488.4938,350.9565 C488.4938,350.5034 488.1031,350.1128 487.6344,350.1128 C487.4156,350.1128 487.2125,350.1909 487.025,350.3784 C486.5719,350.8628 486.5719,350.8628 486.3844,350.9565 C485.9625,351.2222 485.275,351.3472 484.5094,351.3472 C482.4625,351.3472 481.1656,350.2534 481.1656,348.5503 L481.1656,347.4565 C481.1656,345.6753 482.4156,344.3628 484.15,344.3628 C484.7281,344.3628 485.3375,344.519 485.8063,344.769 C486.2906,345.0503 486.4625,345.269 486.5563,345.6753 C486.6188,346.0815 486.65,346.2065 486.7906,346.3315 C486.9313,346.4722 487.1656,346.5815 487.3844,346.5815 C487.65,346.5815 487.9156,346.4409 488.0875,346.2222 C488.1969,346.0659 488.2281,345.8784 488.2281,345.4565 L488.2281,344.0347 C488.2281,343.5972 488.2125,343.4722 488.1188,343.3159 C487.9625,343.0503 487.6813,342.9097 487.3844,342.9097 C487.0875,342.9097 486.8844,343.0034 486.6656,343.3159 L486.4938,343.2378 Z " fill="#000000"/><text fill="#000000" font-family="sans-serif" font-size="12" lengthAdjust="spacing" textLength="26" x="499.85" y="351.7202">Test</text><line style="stroke:#A80036;stroke-width:1.5;" x1="462.5" x2="535.5" y1="363.5659" y2="363.5659"/><text fill="#000000" font-family="sans-serif" font-size="11" lengthAdjust="spacing" textLength="63" x="467.5" y="377.7764">-tinNumber</text><text fill="#000000" font-family="sans-serif" font-size="11" lengthAdjust="spacing" textLength="54" x="467.5" y="390.5811">-nhsCode</text><text fill="#000000" font-family="sans-serif" font-size="11" lengthAdjust="spacing" textLength="53" x="467.5" y="403.3857">-labOrder</text><!--MD5=[3994f36c72829dbcddd1cf7021dddf61]
link Test to Client--><path codeLine="55" d="M536.59,363.4929 C581.152,354.8799 656.54,340.3079 705.664,330.8119 " fill="none" id="Test-Client" style="stroke:#A80036;stroke-width:1.0;"/><polygon fill="#000000" points="594.9091,328.1834,585.4707,327.0145,586.5862,332.7855,594.9091,328.1834" style="stroke:#000000;stroke-width:1.0;"/><text fill="#000000" font-family="sans-serif" font-size="13" lengthAdjust="spacing" textLength="76" x="599" y="333.6328">has a set of</text><text fill="#000000" font-family="sans-serif" font-size="13" lengthAdjust="spacing" textLength="8" x="544.5181" y="375.6144">1</text><text fill="#000000" font-family="sans-serif" font-size="13" lengthAdjust="spacing" textLength="23" x="674.9335" y="345.0049">1..*</text><!--MD5=[7ae31b06ecb5db678e40497ee74dd179]
link Test to LabOrder--><path codeLine="56" d="M536.59,383.5569 C582.386,399.8159 660.739,427.6329 709.684,445.0099 " fill="none" id="Test-LabOrder" style="stroke:#A80036;stroke-width:1.0;"/><polygon fill="#000000" points="594.7119,395.8052,587.1713,390.0094,585.2048,395.5485,594.7119,395.8052" style="stroke:#000000;stroke-width:1.0;"/><text fill="#000000" font-family="sans-serif" font-size="13" lengthAdjust="spacing" textLength="76" x="599" y="398.6328">has a set of</text><text fill="#000000" font-family="sans-serif" font-size="13" lengthAdjust="spacing" textLength="8" x="544.5181" y="399.5031">1</text><text fill="#000000" font-family="sans-serif" font-size="13" lengthAdjust="spacing" textLength="23" x="679.1165" y="456.0295">1..*</text><!--MD5=[fba3ac294f3c76c431d275cef443fef8]
link LabOrder to TestType--><path codeLine="57" d="M787.688,427.4789 C792.963,421.6449 798.251,415.5289 803,409.5659 C875.96,317.9599 950.185,202.2139 989.148,139.3299 " fill="none" id="LabOrder-TestType" style="stroke:#A80036;stroke-width:1.0;"/><polygon fill="#000000" points="840.865,229.0345,833.2736,234.7635,838.0908,238.1315,840.865,229.0345" style="stroke:#000000;stroke-width:1.0;"/><text fill="#000000" font-family="sans-serif" font-size="13" lengthAdjust="spacing" textLength="76" x="847" y="237.6328">has a set of</text><text fill="#000000" font-family="sans-serif" font-size="13" lengthAdjust="spacing" textLength="8" x="785.4344" y="416.6068">1</text><text fill="#000000" font-family="sans-serif" font-size="13" lengthAdjust="spacing" textLength="8" x="976.3229" y="159.2137">1</text><!--MD5=[ce196d60179d4c6ae847449fc07f987f]
link LabOrder to Parameter--><path codeLine="58" d="M799.269,460.5659 C841.579,460.5659 906.129,460.5659 953.97,460.5659 " fill="none" id="LabOrder-Parameter" style="stroke:#A80036;stroke-width:1.0;"/><polygon fill="#000000" points="843,452.1323,833.9549,449.1934,833.9549,455.0713,843,452.1323" style="stroke:#000000;stroke-width:1.0;"/><text fill="#000000" font-family="sans-serif" font-size="13" lengthAdjust="spacing" textLength="76" x="847" y="456.6328">has a set of</text><text fill="#000000" font-family="sans-serif" font-size="13" lengthAdjust="spacing" textLength="8" x="807.0416" y="473.8698">1</text><text fill="#000000" font-family="sans-serif" font-size="13" lengthAdjust="spacing" textLength="23" x="923.181" y="473.4018">1..*</text><!--MD5=[71159b3869b6d7a411768e18bcaa697a]
link Administrator to TestType--><path codeLine="59" d="M555.378,162.7539 C565.162,159.7049 575.316,156.8259 585,154.5659 C714.269,124.4009 869.001,106.9499 953.754,98.9409 " fill="none" id="Administrator-TestType" style="stroke:#A80036;stroke-width:1.0;"/><polygon fill="#000000" points="712.5629,108.9232,721.959,110.3945,721.0293,104.5906,712.5629,108.9232" style="stroke:#000000;stroke-width:1.0;"/><text fill="#000000" font-family="sans-serif" font-size="13" lengthAdjust="spacing" textLength="69" x="726.5" y="112.6328">created by</text><text fill="#000000" font-family="sans-serif" font-size="13" lengthAdjust="spacing" textLength="23" x="562.8022" y="173.4815">1..*</text><text fill="#000000" font-family="sans-serif" font-size="13" lengthAdjust="spacing" textLength="7" x="938.9209" y="112.4915">*</text><!--MD5=[0d1603d52dc1becaa38ecacfa2cec56a]
link Administrator to Client--><path codeLine="60" d="M539.934,202.5669 C554.066,209.4479 570.144,217.0549 585,223.5659 C624.836,241.0259 638.379,237.7389 676,259.5659 C686.135,265.4459 696.353,272.5769 705.896,279.8789 " fill="none" id="Administrator-Client" style="stroke:#A80036;stroke-width:1.0;"/><polygon fill="#000000" points="588.9677,213.021,595.9257,219.5045,598.4078,214.1764,588.9677,213.021" style="stroke:#000000;stroke-width:1.0;"/><text fill="#000000" font-family="sans-serif" font-size="13" lengthAdjust="spacing" textLength="69" x="602.5" y="219.6328">created by</text><text fill="#000000" font-family="sans-serif" font-size="13" lengthAdjust="spacing" textLength="23" x="525.5802" y="222.7317">1..*</text><text fill="#000000" font-family="sans-serif" font-size="13" lengthAdjust="spacing" textLength="7" x="690.9176" y="286.6876">*</text><!--MD5=[4816e9029af7918ac30a965ff8ded5aa]
link Administrator to Parameter--><path codeLine="61" d="M555.219,179.9189 C656.592,176.1829 867.204,173.9839 924,216.5659 C986.569,263.4759 1007.04,357.9539 1013.74,414.5959 " fill="none" id="Administrator-Parameter" style="stroke:#A80036;stroke-width:1.0;"/><polygon fill="#000000" points="713.0491,168.8543,719.7619,175.5915,722.4399,170.3591,713.0491,168.8543" style="stroke:#000000;stroke-width:1.0;"/><text fill="#000000" font-family="sans-serif" font-size="13" lengthAdjust="spacing" textLength="69" x="726.5" y="175.6328">created by</text><text fill="#000000" font-family="sans-serif" font-size="13" lengthAdjust="spacing" textLength="23" x="563.049" y="192.5546">1..*</text><text fill="#000000" font-family="sans-serif" font-size="13" lengthAdjust="spacing" textLength="7" x="1005.651" y="404.1376">*</text><!--MD5=[eaea43e34e45c5b9d20b595fc78f1f20]
link Company to Administrator--><path codeLine="62" d="M89.2645,270.9669 C100.3355,264.0849 112.78,257.2909 125,252.5659 C233.004,210.8039 368.514,193.3909 442.859,186.5779 " fill="none" id="Company-Administrator" style="stroke:#A80036;stroke-width:1.0;"/><polygon fill="#000000" points="236.8634,196.9716,227.3832,196.2127,228.7477,201.93,236.8634,196.9716" style="stroke:#000000;stroke-width:1.0;"/><text fill="#000000" font-family="sans-serif" font-size="13" lengthAdjust="spacing" textLength="23" x="241" y="202.6328">has</text><text fill="#000000" font-family="sans-serif" font-size="13" lengthAdjust="spacing" textLength="8" x="89.1882" y="260.1864">1</text><text fill="#000000" font-family="sans-serif" font-size="13" lengthAdjust="spacing" textLength="7" x="427.8447" y="200.2007">*</text><!--MD5=[5448e79142bdfcbfebd9929e0faf45a6]
link Company to Receptionist--><path codeLine="63" d="M95.1555,312.0219 C104.9478,315.2269 115.316,318.5629 125,321.5659 C147.178,328.4439 171.781,335.6869 192.906,341.7879 " fill="none" id="Company-Receptionist" style="stroke:#A80036;stroke-width:1.0;"/><polygon fill="#000000" points="134.7832,314.5888,126.9865,309.1425,125.2742,314.7654,134.7832,314.5888" style="stroke:#000000;stroke-width:1.0;"/><text fill="#000000" font-family="sans-serif" font-size="13" lengthAdjust="spacing" textLength="23" x="139" y="317.6328">has</text><text fill="#000000" font-family="sans-serif" font-size="13" lengthAdjust="spacing" textLength="8" x="103.1313" y="327.7524">1</text><text fill="#000000" font-family="sans-serif" font-size="13" lengthAdjust="spacing" textLength="7" x="177.9475" y="352.8407">*</text><!--MD5=[e8b34c2e6517a986175307f5599f058a]
link Receptionist to Test--><path codeLine="64" d="M299.007,359.4669 C347.542,362.1739 418.718,366.1439 461.49,368.5299 " fill="none" id="Receptionist-Test" style="stroke:#A80036;stroke-width:1.0;"/><polygon fill="#000000" points="329.0078,352.8539,337.8751,356.292,338.2025,350.4232,329.0078,352.8539" style="stroke:#000000;stroke-width:1.0;"/><text fill="#000000" font-family="sans-serif" font-size="13" lengthAdjust="spacing" textLength="69" x="343" y="357.6328">created by</text><text fill="#000000" font-family="sans-serif" font-size="13" lengthAdjust="spacing" textLength="7" x="306.9533" y="373.0058">*</text><text fill="#000000" font-family="sans-serif" font-size="13" lengthAdjust="spacing" textLength="7" x="446.4162" y="381.6449">*</text><!--MD5=[742a261f27a3dcd734c626287d811acd]
link Company to TestType--><path codeLine="65" d="M57.3802,270.7949 C72.9553,201.8489 124.847,23.5659 245,23.5659 C245,23.5659 245,23.5659 755.5,23.5659 C825.057,23.5659 901.589,46.9619 953.784,66.7019 " fill="none" id="Company-TestType" style="stroke:#A80036;stroke-width:1.0;"/><polygon fill="#000000" points="472.3752,14.0223,462.9034,13.1647,464.2083,18.8959,472.3752,14.0223" style="stroke:#000000;stroke-width:1.0;"/><text fill="#000000" font-family="sans-serif" font-size="13" lengthAdjust="spacing" textLength="58" x="476.5" y="19.6328">conducts</text><text fill="#000000" font-family="sans-serif" font-size="13" lengthAdjust="spacing" textLength="8" x="49.9306" y="259.9746">1</text><text fill="#000000" font-family="sans-serif" font-size="13" lengthAdjust="spacing" textLength="7" x="938.9543" y="76.5249">*</text><!--MD5=[6eee883fdf517d3604e8bd0f2058e9aa]
link Company to Client--><path codeLine="66" d="M95.1852,297.2449 C196.661,296.7869 458.177,297.3319 676,312.5659 C685.594,313.2369 695.827,314.2279 705.608,315.3099 " fill="none" id="Company-Client" style="stroke:#A80036;stroke-width:1.0;"/><polygon fill="#000000" points="344.4978,291.2802,335.5436,288.075,335.3697,293.9503,344.4978,291.2802" style="stroke:#000000;stroke-width:1.0;"/><text fill="#000000" font-family="sans-serif" font-size="13" lengthAdjust="spacing" textLength="58" x="348.5" y="295.6328">conducts</text><text fill="#000000" font-family="sans-serif" font-size="13" lengthAdjust="spacing" textLength="8" x="102.8647" y="310.4821">1</text><text fill="#000000" font-family="sans-serif" font-size="13" lengthAdjust="spacing" textLength="7" x="690.9129" y="327.5371">*</text><!--MD5=[74801e9e71ddeaf044457125baf4984a]
link Company to LabOrder--><path codeLine="67" d="M82.0814,324.2789 C109.121,346.6839 150.944,377.5189 193,393.5659 C375.44,463.1756 613.428,465.0155 709.976,462.4104 " fill="none" id="Company-LabOrder" style="stroke:#A80036;stroke-width:1.0;"/><polygon fill="#000000" points="344.3832,425.2066,336.1808,420.3929,334.9179,426.1335,344.3832,425.2066" style="stroke:#000000;stroke-width:1.0;"/><text fill="#000000" font-family="sans-serif" font-size="13" lengthAdjust="spacing" textLength="58" x="348.5" y="428.6328">conducts</text><text fill="#000000" font-family="sans-serif" font-size="13" lengthAdjust="spacing" textLength="8" x="80.0055" y="343.8658">1</text><text fill="#000000" font-family="sans-serif" font-size="13" lengthAdjust="spacing" textLength="7" x="695.022" y="476.0683">*</text><!--MD5=[12d76240d3c3c66074d4ec2ea8bf469c]
link Company to Parameter--><path codeLine="68" d="M58.8435,324.2129 C77.1151,388.4489 133.423,546.5659 245,546.5659 C245,546.5659 245,546.5659 755.5,546.5659 C825.992,546.5659 902.064,518.0161 953.885,493.8157 " fill="none" id="Company-Parameter" style="stroke:#A80036;stroke-width:1.0;"/><polygon fill="#000000" points="472.4126,539.0632,464.0728,534.4917,462.9785,540.2668,472.4126,539.0632" style="stroke:#000000;stroke-width:1.0;"/><text fill="#000000" font-family="sans-serif" font-size="13" lengthAdjust="spacing" textLength="58" x="476.5" y="542.6328">conducts</text><text fill="#000000" font-family="sans-serif" font-size="13" lengthAdjust="spacing" textLength="8" x="51.6843" y="343.7854">1</text><text fill="#000000" font-family="sans-serif" font-size="13" lengthAdjust="spacing" textLength="7" x="939.067" y="510.5893">*</text><!--MD5=[60b3d805b5f24db165105134e175ab57]
@startuml
hide methods
left to right direction
skinparam classAttributeIconSize 0


class Company {
  -designation
}

class TestType {
  -code
  -description
  -collectingMethod
  -parameterCategory
}

class LabOrder {
  -testType
  -parameter
}

class Client {
  -ccn
  -nhs
  -birth
  -sex
  -tif
  -email
  -name
  -phoneNumber
}

class Parameter {
  -code
  -shortName
  -descriptionName
  -parameterCategory
}

class Administrator {

}

class Receptionist {

}

class Test {
   -tinNumber
   -nhsCode
   -labOrder
}


Test "1" - - "1..*" Client: has a set of >
Test "1" - - "1..*" LabOrder: has a set of >
LabOrder "1" - - "1" TestType: has a set of >
LabOrder "1" - - "1..*" Parameter: has a set of >
Administrator "1..*" - - "*" TestType: created by <
Administrator "1..*" - - "*" Client: created by <
Administrator "1..*" - - "*" Parameter: created by <
Company "1" - - "*" Administrator: has >
Company "1" - - "*" Receptionist: has >
Receptionist "*" - - "*" Test: created by <
Company "1" - - "*" TestType: conducts >
Company "1" - - "*" Client: conducts >
Company "1" - - "*" LabOrder: conducts >
Company "1" - - "*" Parameter: conducts >
@enduml

PlantUML version 1.2021.7(Sun May 23 12:40:07 UTC 2021)
(GPL source distribution)
Java Runtime: Java(TM) SE Runtime Environment
JVM: Java HotSpot(TM) 64-Bit Server VM
Default Encoding: UTF-8
Language: en
Country: US
--></g></svg>