<?xml version="1.0" encoding="UTF-8" standalone="no"?><svg xmlns="http://www.w3.org/2000/svg" xmlns:xlink="http://www.w3.org/1999/xlink" contentScriptType="application/ecmascript" contentStyleType="text/css" height="1424px" preserveAspectRatio="none" style="width:1506px;height:1424px;background:#FFFFFF;" version="1.1" viewBox="0 0 1506 1424" width="1506px" zoomAndPan="magnify"><defs><filter height="300%" id="f1dm9o43ec5jp3" width="300%" x="-1" y="-1"><feGaussianBlur result="blurOut" stdDeviation="2.0"/><feColorMatrix in="blurOut" result="blurOut2" type="matrix" values="0 0 0 0 0 0 0 0 0 0 0 0 0 0 0 0 0 0 .4 0"/><feOffset dx="4.0" dy="4.0" in="blurOut2" result="blurOut3"/><feBlend in="SourceGraphic" in2="blurOut3" mode="normal"/></filter></defs><g><!--MD5=[df38be88ccee13e832d6fafd6288a4ca]
class Test--><rect codeLine="7" fill="#FEFECE" filter="url(#f1dm9o43ec5jp3)" height="99.2188" id="Test" style="stroke:#A80036;stroke-width:1.5;" width="255" x="558" y="800"/><ellipse cx="668.25" cy="816" fill="#ADD1B2" rx="11" ry="11" style="stroke:#A80036;stroke-width:1.0;"/><path d="M670.5938,811.6719 C669.6563,811.2344 669.0625,811.0938 668.1875,811.0938 C665.5625,811.0938 663.5625,813.1719 663.5625,815.8906 L663.5625,817.0156 C663.5625,819.5938 665.6719,821.4844 668.5625,821.4844 C669.7813,821.4844 670.9375,821.1875 671.6875,820.6406 C672.2656,820.2344 672.5938,819.7813 672.5938,819.3906 C672.5938,818.9375 672.2031,818.5469 671.7344,818.5469 C671.5156,818.5469 671.3125,818.625 671.125,818.8125 C670.6719,819.2969 670.6719,819.2969 670.4844,819.3906 C670.0625,819.6563 669.375,819.7813 668.6094,819.7813 C666.5625,819.7813 665.2656,818.6875 665.2656,816.9844 L665.2656,815.8906 C665.2656,814.1094 666.5156,812.7969 668.25,812.7969 C668.8281,812.7969 669.4375,812.9531 669.9063,813.2031 C670.3906,813.4844 670.5625,813.7031 670.6563,814.1094 C670.7188,814.5156 670.75,814.6406 670.8906,814.7656 C671.0313,814.9063 671.2656,815.0156 671.4844,815.0156 C671.75,815.0156 672.0156,814.875 672.1875,814.6563 C672.2969,814.5 672.3281,814.3125 672.3281,813.8906 L672.3281,812.4688 C672.3281,812.0313 672.3125,811.9063 672.2188,811.75 C672.0625,811.4844 671.7813,811.3438 671.4844,811.3438 C671.1875,811.3438 670.9844,811.4375 670.7656,811.75 L670.5938,811.6719 Z " fill="#000000"/><text fill="#000000" font-family="sans-serif" font-size="12" lengthAdjust="spacing" textLength="26" x="688.75" y="820.1543">Test</text><line style="stroke:#A80036;stroke-width:1.5;" x1="559" x2="812" y1="832" y2="832"/><text fill="#000000" font-family="sans-serif" font-size="11" lengthAdjust="spacing" textLength="91" x="564" y="846.2104">-long tinNumber</text><text fill="#000000" font-family="sans-serif" font-size="11" lengthAdjust="spacing" textLength="82" x="564" y="859.0151">-long nhsCode</text><text fill="#000000" font-family="sans-serif" font-size="11" lengthAdjust="spacing" textLength="109" x="564" y="871.8198">-LabOrder labOrder</text><line style="stroke:#A80036;stroke-width:1.5;" x1="559" x2="812" y1="878.4141" y2="878.4141"/><text fill="#000000" font-family="sans-serif" font-size="11" lengthAdjust="spacing" textLength="243" x="564" y="892.6245">+TestType(tinNumber, nhsCode, labOrder)</text><!--MD5=[6ba72ddf03822b91e8d41ca71de58ed3]
class TestTypeStore--><rect codeLine="14" fill="#FEFECE" filter="url(#f1dm9o43ec5jp3)" height="60.8047" id="TestTypeStore" style="stroke:#A80036;stroke-width:1.5;" width="198" x="107.5" y="510"/><ellipse cx="157.75" cy="526" fill="#ADD1B2" rx="11" ry="11" style="stroke:#A80036;stroke-width:1.0;"/><path d="M160.0938,521.6719 C159.1563,521.2344 158.5625,521.0938 157.6875,521.0938 C155.0625,521.0938 153.0625,523.1719 153.0625,525.8906 L153.0625,527.0156 C153.0625,529.5938 155.1719,531.4844 158.0625,531.4844 C159.2813,531.4844 160.4375,531.1875 161.1875,530.6406 C161.7656,530.2344 162.0938,529.7813 162.0938,529.3906 C162.0938,528.9375 161.7031,528.5469 161.2344,528.5469 C161.0156,528.5469 160.8125,528.625 160.625,528.8125 C160.1719,529.2969 160.1719,529.2969 159.9844,529.3906 C159.5625,529.6563 158.875,529.7813 158.1094,529.7813 C156.0625,529.7813 154.7656,528.6875 154.7656,526.9844 L154.7656,525.8906 C154.7656,524.1094 156.0156,522.7969 157.75,522.7969 C158.3281,522.7969 158.9375,522.9531 159.4063,523.2031 C159.8906,523.4844 160.0625,523.7031 160.1563,524.1094 C160.2188,524.5156 160.25,524.6406 160.3906,524.7656 C160.5313,524.9063 160.7656,525.0156 160.9844,525.0156 C161.25,525.0156 161.5156,524.875 161.6875,524.6563 C161.7969,524.5 161.8281,524.3125 161.8281,523.8906 L161.8281,522.4688 C161.8281,522.0313 161.8125,521.9063 161.7188,521.75 C161.5625,521.4844 161.2813,521.3438 160.9844,521.3438 C160.6875,521.3438 160.4844,521.4375 160.2656,521.75 L160.0938,521.6719 Z " fill="#000000"/><text fill="#000000" font-family="sans-serif" font-size="12" lengthAdjust="spacing" textLength="89" x="178.25" y="530.1543">TestTypeStore</text><line style="stroke:#A80036;stroke-width:1.5;" x1="108.5" x2="304.5" y1="542" y2="542"/><line style="stroke:#A80036;stroke-width:1.5;" x1="108.5" x2="304.5" y1="550" y2="550"/><text fill="#000000" font-family="sans-serif" font-size="11" lengthAdjust="spacing" textLength="186" x="113.5" y="564.2104">+getTestTypeByCode(testType)</text><!--MD5=[55cb992be19579b505cea3c5691093cb]
class ClientStore--><rect codeLine="18" fill="#FEFECE" filter="url(#f1dm9o43ec5jp3)" height="60.8047" id="ClientStore" style="stroke:#A80036;stroke-width:1.5;" width="217" x="1175" y="510"/><ellipse cx="1246.25" cy="526" fill="#ADD1B2" rx="11" ry="11" style="stroke:#A80036;stroke-width:1.0;"/><path d="M1248.5938,521.6719 C1247.6563,521.2344 1247.0625,521.0938 1246.1875,521.0938 C1243.5625,521.0938 1241.5625,523.1719 1241.5625,525.8906 L1241.5625,527.0156 C1241.5625,529.5938 1243.6719,531.4844 1246.5625,531.4844 C1247.7813,531.4844 1248.9375,531.1875 1249.6875,530.6406 C1250.2656,530.2344 1250.5938,529.7813 1250.5938,529.3906 C1250.5938,528.9375 1250.2031,528.5469 1249.7344,528.5469 C1249.5156,528.5469 1249.3125,528.625 1249.125,528.8125 C1248.6719,529.2969 1248.6719,529.2969 1248.4844,529.3906 C1248.0625,529.6563 1247.375,529.7813 1246.6094,529.7813 C1244.5625,529.7813 1243.2656,528.6875 1243.2656,526.9844 L1243.2656,525.8906 C1243.2656,524.1094 1244.5156,522.7969 1246.25,522.7969 C1246.8281,522.7969 1247.4375,522.9531 1247.9063,523.2031 C1248.3906,523.4844 1248.5625,523.7031 1248.6563,524.1094 C1248.7188,524.5156 1248.75,524.6406 1248.8906,524.7656 C1249.0313,524.9063 1249.2656,525.0156 1249.4844,525.0156 C1249.75,525.0156 1250.0156,524.875 1250.1875,524.6563 C1250.2969,524.5 1250.3281,524.3125 1250.3281,523.8906 L1250.3281,522.4688 C1250.3281,522.0313 1250.3125,521.9063 1250.2188,521.75 C1250.0625,521.4844 1249.7813,521.3438 1249.4844,521.3438 C1249.1875,521.3438 1248.9844,521.4375 1248.7656,521.75 L1248.5938,521.6719 Z " fill="#000000"/><text fill="#000000" font-family="sans-serif" font-size="12" lengthAdjust="spacing" textLength="66" x="1266.75" y="530.1543">ClientStore</text><line style="stroke:#A80036;stroke-width:1.5;" x1="1176" x2="1391" y1="542" y2="542"/><line style="stroke:#A80036;stroke-width:1.5;" x1="1176" x2="1391" y1="550" y2="550"/><text fill="#000000" font-family="sans-serif" font-size="11" lengthAdjust="spacing" textLength="205" x="1181" y="564.2104">+getClientByTinNumber(tinNumber)</text><!--MD5=[be7802b157a16874d39c59ca0e2b25be]
class ParameterStore--><rect codeLine="22" fill="#FEFECE" filter="url(#f1dm9o43ec5jp3)" height="60.8047" id="ParameterStore" style="stroke:#A80036;stroke-width:1.5;" width="176" x="892.5" y="510"/><ellipse cx="930" cy="526" fill="#ADD1B2" rx="11" ry="11" style="stroke:#A80036;stroke-width:1.0;"/><path d="M932.3438,521.6719 C931.4063,521.2344 930.8125,521.0938 929.9375,521.0938 C927.3125,521.0938 925.3125,523.1719 925.3125,525.8906 L925.3125,527.0156 C925.3125,529.5938 927.4219,531.4844 930.3125,531.4844 C931.5313,531.4844 932.6875,531.1875 933.4375,530.6406 C934.0156,530.2344 934.3438,529.7813 934.3438,529.3906 C934.3438,528.9375 933.9531,528.5469 933.4844,528.5469 C933.2656,528.5469 933.0625,528.625 932.875,528.8125 C932.4219,529.2969 932.4219,529.2969 932.2344,529.3906 C931.8125,529.6563 931.125,529.7813 930.3594,529.7813 C928.3125,529.7813 927.0156,528.6875 927.0156,526.9844 L927.0156,525.8906 C927.0156,524.1094 928.2656,522.7969 930,522.7969 C930.5781,522.7969 931.1875,522.9531 931.6563,523.2031 C932.1406,523.4844 932.3125,523.7031 932.4063,524.1094 C932.4688,524.5156 932.5,524.6406 932.6406,524.7656 C932.7813,524.9063 933.0156,525.0156 933.2344,525.0156 C933.5,525.0156 933.7656,524.875 933.9375,524.6563 C934.0469,524.5 934.0781,524.3125 934.0781,523.8906 L934.0781,522.4688 C934.0781,522.0313 934.0625,521.9063 933.9688,521.75 C933.8125,521.4844 933.5313,521.3438 933.2344,521.3438 C932.9375,521.3438 932.7344,521.4375 932.5156,521.75 L932.3438,521.6719 Z " fill="#000000"/><text fill="#000000" font-family="sans-serif" font-size="12" lengthAdjust="spacing" textLength="94" x="949" y="530.1543">ParameterStore</text><line style="stroke:#A80036;stroke-width:1.5;" x1="893.5" x2="1067.5" y1="542" y2="542"/><line style="stroke:#A80036;stroke-width:1.5;" x1="893.5" x2="1067.5" y1="550" y2="550"/><text fill="#000000" font-family="sans-serif" font-size="11" lengthAdjust="spacing" textLength="164" x="898.5" y="564.2104">+getParameterByCode(pars)</text><!--MD5=[b5068c708371f53deedcfa11f861b7c6]
class LabOrderStore--><rect codeLine="26" fill="#FEFECE" filter="url(#f1dm9o43ec5jp3)" height="60.8047" id="LabOrderStore" style="stroke:#A80036;stroke-width:1.5;" width="138" x="340.5" y="510"/><ellipse cx="362.7" cy="526" fill="#ADD1B2" rx="11" ry="11" style="stroke:#A80036;stroke-width:1.0;"/><path d="M365.0438,521.6719 C364.1063,521.2344 363.5125,521.0938 362.6375,521.0938 C360.0125,521.0938 358.0125,523.1719 358.0125,525.8906 L358.0125,527.0156 C358.0125,529.5938 360.1219,531.4844 363.0125,531.4844 C364.2313,531.4844 365.3875,531.1875 366.1375,530.6406 C366.7156,530.2344 367.0438,529.7813 367.0438,529.3906 C367.0438,528.9375 366.6531,528.5469 366.1844,528.5469 C365.9656,528.5469 365.7625,528.625 365.575,528.8125 C365.1219,529.2969 365.1219,529.2969 364.9344,529.3906 C364.5125,529.6563 363.825,529.7813 363.0594,529.7813 C361.0125,529.7813 359.7156,528.6875 359.7156,526.9844 L359.7156,525.8906 C359.7156,524.1094 360.9656,522.7969 362.7,522.7969 C363.2781,522.7969 363.8875,522.9531 364.3563,523.2031 C364.8406,523.4844 365.0125,523.7031 365.1063,524.1094 C365.1688,524.5156 365.2,524.6406 365.3406,524.7656 C365.4813,524.9063 365.7156,525.0156 365.9344,525.0156 C366.2,525.0156 366.4656,524.875 366.6375,524.6563 C366.7469,524.5 366.7781,524.3125 366.7781,523.8906 L366.7781,522.4688 C366.7781,522.0313 366.7625,521.9063 366.6688,521.75 C366.5125,521.4844 366.2313,521.3438 365.9344,521.3438 C365.6375,521.3438 365.4344,521.4375 365.2156,521.75 L365.0438,521.6719 Z " fill="#000000"/><text fill="#000000" font-family="sans-serif" font-size="12" lengthAdjust="spacing" textLength="90" x="378.3" y="530.1543">LabOrderStore</text><line style="stroke:#A80036;stroke-width:1.5;" x1="341.5" x2="477.5" y1="542" y2="542"/><line style="stroke:#A80036;stroke-width:1.5;" x1="341.5" x2="477.5" y1="550" y2="550"/><text fill="#000000" font-family="sans-serif" font-size="11" lengthAdjust="spacing" textLength="126" x="346.5" y="564.2104">createLabOrder(tt,par)</text><!--MD5=[a999c1570c205a2156b04a15307bc1ff]
class LabOrder--><rect codeLine="30" fill="#FEFECE" filter="url(#f1dm9o43ec5jp3)" height="60.8047" id="LabOrder" style="stroke:#A80036;stroke-width:1.5;" width="101" x="464" y="1109"/><ellipse cx="484.4" cy="1125" fill="#ADD1B2" rx="11" ry="11" style="stroke:#A80036;stroke-width:1.0;"/><path d="M486.7438,1120.6719 C485.8063,1120.2344 485.2125,1120.0938 484.3375,1120.0938 C481.7125,1120.0938 479.7125,1122.1719 479.7125,1124.8906 L479.7125,1126.0156 C479.7125,1128.5938 481.8219,1130.4844 484.7125,1130.4844 C485.9313,1130.4844 487.0875,1130.1875 487.8375,1129.6406 C488.4156,1129.2344 488.7438,1128.7813 488.7438,1128.3906 C488.7438,1127.9375 488.3531,1127.5469 487.8844,1127.5469 C487.6656,1127.5469 487.4625,1127.625 487.275,1127.8125 C486.8219,1128.2969 486.8219,1128.2969 486.6344,1128.3906 C486.2125,1128.6563 485.525,1128.7813 484.7594,1128.7813 C482.7125,1128.7813 481.4156,1127.6875 481.4156,1125.9844 L481.4156,1124.8906 C481.4156,1123.1094 482.6656,1121.7969 484.4,1121.7969 C484.9781,1121.7969 485.5875,1121.9531 486.0563,1122.2031 C486.5406,1122.4844 486.7125,1122.7031 486.8063,1123.1094 C486.8688,1123.5156 486.9,1123.6406 487.0406,1123.7656 C487.1813,1123.9063 487.4156,1124.0156 487.6344,1124.0156 C487.9,1124.0156 488.1656,1123.875 488.3375,1123.6563 C488.4469,1123.5 488.4781,1123.3125 488.4781,1122.8906 L488.4781,1121.4688 C488.4781,1121.0313 488.4625,1120.9063 488.3688,1120.75 C488.2125,1120.4844 487.9313,1120.3438 487.6344,1120.3438 C487.3375,1120.3438 487.1344,1120.4375 486.9156,1120.75 L486.7438,1120.6719 Z " fill="#000000"/><text fill="#000000" font-family="sans-serif" font-size="12" lengthAdjust="spacing" textLength="57" x="499.6" y="1129.1543">LabOrder</text><line style="stroke:#A80036;stroke-width:1.5;" x1="465" x2="564" y1="1141" y2="1141"/><line style="stroke:#A80036;stroke-width:1.5;" x1="465" x2="564" y1="1149" y2="1149"/><text fill="#000000" font-family="sans-serif" font-size="11" lengthAdjust="spacing" textLength="89" x="470" y="1163.2104">LabOrder(tt,par)</text><!--MD5=[0f6f7964b844a64b0496af0dda7914bd]
class TestStore--><rect codeLine="35" fill="#FEFECE" filter="url(#f1dm9o43ec5jp3)" height="99.2188" id="TestStore" style="stroke:#A80036;stroke-width:1.5;" width="344" x="513.5" y="491"/><ellipse cx="651.75" cy="507" fill="#ADD1B2" rx="11" ry="11" style="stroke:#A80036;stroke-width:1.0;"/><path d="M654.0938,502.6719 C653.1563,502.2344 652.5625,502.0938 651.6875,502.0938 C649.0625,502.0938 647.0625,504.1719 647.0625,506.8906 L647.0625,508.0156 C647.0625,510.5938 649.1719,512.4844 652.0625,512.4844 C653.2813,512.4844 654.4375,512.1875 655.1875,511.6406 C655.7656,511.2344 656.0938,510.7813 656.0938,510.3906 C656.0938,509.9375 655.7031,509.5469 655.2344,509.5469 C655.0156,509.5469 654.8125,509.625 654.625,509.8125 C654.1719,510.2969 654.1719,510.2969 653.9844,510.3906 C653.5625,510.6563 652.875,510.7813 652.1094,510.7813 C650.0625,510.7813 648.7656,509.6875 648.7656,507.9844 L648.7656,506.8906 C648.7656,505.1094 650.0156,503.7969 651.75,503.7969 C652.3281,503.7969 652.9375,503.9531 653.4063,504.2031 C653.8906,504.4844 654.0625,504.7031 654.1563,505.1094 C654.2188,505.5156 654.25,505.6406 654.3906,505.7656 C654.5313,505.9063 654.7656,506.0156 654.9844,506.0156 C655.25,506.0156 655.5156,505.875 655.6875,505.6563 C655.7969,505.5 655.8281,505.3125 655.8281,504.8906 L655.8281,503.4688 C655.8281,503.0313 655.8125,502.9063 655.7188,502.75 C655.5625,502.4844 655.2813,502.3438 654.9844,502.3438 C654.6875,502.3438 654.4844,502.4375 654.2656,502.75 L654.0938,502.6719 Z " fill="#000000"/><text fill="#000000" font-family="sans-serif" font-size="12" lengthAdjust="spacing" textLength="59" x="672.25" y="511.1543">TestStore</text><line style="stroke:#A80036;stroke-width:1.5;" x1="514.5" x2="856.5" y1="523" y2="523"/><line style="stroke:#A80036;stroke-width:1.5;" x1="514.5" x2="856.5" y1="531" y2="531"/><text fill="#000000" font-family="sans-serif" font-size="11" lengthAdjust="spacing" textLength="332" x="519.5" y="545.2104">+createTestType(description, collectingMethod, code, cat)</text><text fill="#000000" font-family="sans-serif" font-size="11" lengthAdjust="spacing" textLength="125" x="519.5" y="558.0151">+validateTestType(tt)</text><text fill="#000000" font-family="sans-serif" font-size="11" lengthAdjust="spacing" textLength="100" x="519.5" y="570.8198">+addTestType(tt)</text><text fill="#000000" font-family="sans-serif" font-size="11" lengthAdjust="spacing" textLength="107" x="519.5" y="583.6245">+saveTestType(tt)</text><!--MD5=[aeb3272166074d8737a70b61b1e71682]
class TestType--><rect codeLine="42" fill="#FEFECE" filter="url(#f1dm9o43ec5jp3)" height="112.0234" id="TestType" style="stroke:#A80036;stroke-width:1.5;" width="356" x="28.5" y="1298"/><ellipse cx="174.25" cy="1314" fill="#ADD1B2" rx="11" ry="11" style="stroke:#A80036;stroke-width:1.0;"/><path d="M176.5938,1309.6719 C175.6563,1309.2344 175.0625,1309.0938 174.1875,1309.0938 C171.5625,1309.0938 169.5625,1311.1719 169.5625,1313.8906 L169.5625,1315.0156 C169.5625,1317.5938 171.6719,1319.4844 174.5625,1319.4844 C175.7813,1319.4844 176.9375,1319.1875 177.6875,1318.6406 C178.2656,1318.2344 178.5938,1317.7813 178.5938,1317.3906 C178.5938,1316.9375 178.2031,1316.5469 177.7344,1316.5469 C177.5156,1316.5469 177.3125,1316.625 177.125,1316.8125 C176.6719,1317.2969 176.6719,1317.2969 176.4844,1317.3906 C176.0625,1317.6563 175.375,1317.7813 174.6094,1317.7813 C172.5625,1317.7813 171.2656,1316.6875 171.2656,1314.9844 L171.2656,1313.8906 C171.2656,1312.1094 172.5156,1310.7969 174.25,1310.7969 C174.8281,1310.7969 175.4375,1310.9531 175.9063,1311.2031 C176.3906,1311.4844 176.5625,1311.7031 176.6563,1312.1094 C176.7188,1312.5156 176.75,1312.6406 176.8906,1312.7656 C177.0313,1312.9063 177.2656,1313.0156 177.4844,1313.0156 C177.75,1313.0156 178.0156,1312.875 178.1875,1312.6563 C178.2969,1312.5 178.3281,1312.3125 178.3281,1311.8906 L178.3281,1310.4688 C178.3281,1310.0313 178.3125,1309.9063 178.2188,1309.75 C178.0625,1309.4844 177.7813,1309.3438 177.4844,1309.3438 C177.1875,1309.3438 176.9844,1309.4375 176.7656,1309.75 L176.5938,1309.6719 Z " fill="#000000"/><text fill="#000000" font-family="sans-serif" font-size="12" lengthAdjust="spacing" textLength="56" x="194.75" y="1318.1543">TestType</text><line style="stroke:#A80036;stroke-width:1.5;" x1="29.5" x2="383.5" y1="1330" y2="1330"/><text fill="#000000" font-family="sans-serif" font-size="11" lengthAdjust="spacing" textLength="69" x="34.5" y="1344.2104">-String code</text><text fill="#000000" font-family="sans-serif" font-size="11" lengthAdjust="spacing" textLength="103" x="34.5" y="1357.0151">-String description</text><text fill="#000000" font-family="sans-serif" font-size="11" lengthAdjust="spacing" textLength="137" x="34.5" y="1369.8198">-String collectingMethod</text><text fill="#000000" font-family="sans-serif" font-size="11" lengthAdjust="spacing" textLength="268" x="34.5" y="1382.6245">-List&lt;ParameterCategory&gt; parameterCategory</text><line style="stroke:#A80036;stroke-width:1.5;" x1="29.5" x2="383.5" y1="1389.2188" y2="1389.2188"/><text fill="#000000" font-family="sans-serif" font-size="11" lengthAdjust="spacing" textLength="344" x="34.5" y="1403.4292">+tt(code, description, collectingMethod, parameterCategory)</text><!--MD5=[ed6624c6556d5e7b1bd23032162d20b7]
class Client--><rect codeLine="50" fill="#FEFECE" filter="url(#f1dm9o43ec5jp3)" height="163.2422" id="Client" style="stroke:#A80036;stroke-width:1.5;" width="353" x="1107" y="1058"/><ellipse cx="1262.75" cy="1074" fill="#ADD1B2" rx="11" ry="11" style="stroke:#A80036;stroke-width:1.0;"/><path d="M1265.0938,1069.6719 C1264.1563,1069.2344 1263.5625,1069.0938 1262.6875,1069.0938 C1260.0625,1069.0938 1258.0625,1071.1719 1258.0625,1073.8906 L1258.0625,1075.0156 C1258.0625,1077.5938 1260.1719,1079.4844 1263.0625,1079.4844 C1264.2813,1079.4844 1265.4375,1079.1875 1266.1875,1078.6406 C1266.7656,1078.2344 1267.0938,1077.7813 1267.0938,1077.3906 C1267.0938,1076.9375 1266.7031,1076.5469 1266.2344,1076.5469 C1266.0156,1076.5469 1265.8125,1076.625 1265.625,1076.8125 C1265.1719,1077.2969 1265.1719,1077.2969 1264.9844,1077.3906 C1264.5625,1077.6563 1263.875,1077.7813 1263.1094,1077.7813 C1261.0625,1077.7813 1259.7656,1076.6875 1259.7656,1074.9844 L1259.7656,1073.8906 C1259.7656,1072.1094 1261.0156,1070.7969 1262.75,1070.7969 C1263.3281,1070.7969 1263.9375,1070.9531 1264.4063,1071.2031 C1264.8906,1071.4844 1265.0625,1071.7031 1265.1563,1072.1094 C1265.2188,1072.5156 1265.25,1072.6406 1265.3906,1072.7656 C1265.5313,1072.9063 1265.7656,1073.0156 1265.9844,1073.0156 C1266.25,1073.0156 1266.5156,1072.875 1266.6875,1072.6563 C1266.7969,1072.5 1266.8281,1072.3125 1266.8281,1071.8906 L1266.8281,1070.4688 C1266.8281,1070.0313 1266.8125,1069.9063 1266.7188,1069.75 C1266.5625,1069.4844 1266.2813,1069.3438 1265.9844,1069.3438 C1265.6875,1069.3438 1265.4844,1069.4375 1265.2656,1069.75 L1265.0938,1069.6719 Z " fill="#000000"/><text fill="#000000" font-family="sans-serif" font-size="12" lengthAdjust="spacing" textLength="33" x="1283.25" y="1078.1543">Client</text><line style="stroke:#A80036;stroke-width:1.5;" x1="1108" x2="1459" y1="1090" y2="1090"/><text fill="#000000" font-family="sans-serif" font-size="11" lengthAdjust="spacing" textLength="51" x="1113" y="1104.2104">-long ccn</text><text fill="#000000" font-family="sans-serif" font-size="11" lengthAdjust="spacing" textLength="52" x="1113" y="1117.0151">-long nhs</text><text fill="#000000" font-family="sans-serif" font-size="11" lengthAdjust="spacing" textLength="66" x="1113" y="1129.8198">-String birth</text><text fill="#000000" font-family="sans-serif" font-size="11" lengthAdjust="spacing" textLength="62" x="1113" y="1142.6245">-String sex</text><text fill="#000000" font-family="sans-serif" font-size="11" lengthAdjust="spacing" textLength="43" x="1113" y="1155.4292">-long tif</text><text fill="#000000" font-family="sans-serif" font-size="11" lengthAdjust="spacing" textLength="73" x="1113" y="1168.2339">-String email</text><text fill="#000000" font-family="sans-serif" font-size="11" lengthAdjust="spacing" textLength="74" x="1113" y="1181.0386">-String name</text><text fill="#000000" font-family="sans-serif" font-size="11" lengthAdjust="spacing" textLength="113" x="1113" y="1193.8433">-long phoneNumber</text><line style="stroke:#A80036;stroke-width:1.5;" x1="1108" x2="1459" y1="1200.4375" y2="1200.4375"/><text fill="#000000" font-family="sans-serif" font-size="11" lengthAdjust="spacing" textLength="341" x="1113" y="1214.6479">+Client(ccn, nhs, birth, sex, tif, email, name, phoneNumber)</text><!--MD5=[1f6362a5c8f21d8d6a0fce68f3a92a4e]
class Parameter--><rect codeLine="63" fill="#FEFECE" filter="url(#f1dm9o43ec5jp3)" height="112.0234" id="Parameter" style="stroke:#A80036;stroke-width:1.5;" width="366" x="797.5" y="1298"/><ellipse cx="945.75" cy="1314" fill="#ADD1B2" rx="11" ry="11" style="stroke:#A80036;stroke-width:1.0;"/><path d="M948.0938,1309.6719 C947.1563,1309.2344 946.5625,1309.0938 945.6875,1309.0938 C943.0625,1309.0938 941.0625,1311.1719 941.0625,1313.8906 L941.0625,1315.0156 C941.0625,1317.5938 943.1719,1319.4844 946.0625,1319.4844 C947.2813,1319.4844 948.4375,1319.1875 949.1875,1318.6406 C949.7656,1318.2344 950.0938,1317.7813 950.0938,1317.3906 C950.0938,1316.9375 949.7031,1316.5469 949.2344,1316.5469 C949.0156,1316.5469 948.8125,1316.625 948.625,1316.8125 C948.1719,1317.2969 948.1719,1317.2969 947.9844,1317.3906 C947.5625,1317.6563 946.875,1317.7813 946.1094,1317.7813 C944.0625,1317.7813 942.7656,1316.6875 942.7656,1314.9844 L942.7656,1313.8906 C942.7656,1312.1094 944.0156,1310.7969 945.75,1310.7969 C946.3281,1310.7969 946.9375,1310.9531 947.4063,1311.2031 C947.8906,1311.4844 948.0625,1311.7031 948.1563,1312.1094 C948.2188,1312.5156 948.25,1312.6406 948.3906,1312.7656 C948.5313,1312.9063 948.7656,1313.0156 948.9844,1313.0156 C949.25,1313.0156 949.5156,1312.875 949.6875,1312.6563 C949.7969,1312.5 949.8281,1312.3125 949.8281,1311.8906 L949.8281,1310.4688 C949.8281,1310.0313 949.8125,1309.9063 949.7188,1309.75 C949.5625,1309.4844 949.2813,1309.3438 948.9844,1309.3438 C948.6875,1309.3438 948.4844,1309.4375 948.2656,1309.75 L948.0938,1309.6719 Z " fill="#000000"/><text fill="#000000" font-family="sans-serif" font-size="12" lengthAdjust="spacing" textLength="61" x="966.25" y="1318.1543">Parameter</text><line style="stroke:#A80036;stroke-width:1.5;" x1="798.5" x2="1162.5" y1="1330" y2="1330"/><text fill="#000000" font-family="sans-serif" font-size="11" lengthAdjust="spacing" textLength="69" x="803.5" y="1344.2104">-String code</text><text fill="#000000" font-family="sans-serif" font-size="11" lengthAdjust="spacing" textLength="103" x="803.5" y="1357.0151">-String shortName</text><text fill="#000000" font-family="sans-serif" font-size="11" lengthAdjust="spacing" textLength="137" x="803.5" y="1369.8198">-String descriptionName</text><text fill="#000000" font-family="sans-serif" font-size="11" lengthAdjust="spacing" textLength="268" x="803.5" y="1382.6245">-List&lt;ParameterCategory&gt; parameterCategory</text><line style="stroke:#A80036;stroke-width:1.5;" x1="798.5" x2="1162.5" y1="1389.2188" y2="1389.2188"/><text fill="#000000" font-family="sans-serif" font-size="11" lengthAdjust="spacing" textLength="354" x="803.5" y="1403.4292">+par(code, shortName, descriptionName, parameterCategory)</text><!--MD5=[02e4b9b7573f1156f41e60aa5b4e25a4]
class Company--><rect codeLine="73" fill="#FEFECE" filter="url(#f1dm9o43ec5jp3)" height="124.8281" id="Company" style="stroke:#A80036;stroke-width:1.5;" width="138" x="607.5" y="289"/><ellipse cx="645" cy="305" fill="#ADD1B2" rx="11" ry="11" style="stroke:#A80036;stroke-width:1.0;"/><path d="M647.3438,300.6719 C646.4063,300.2344 645.8125,300.0938 644.9375,300.0938 C642.3125,300.0938 640.3125,302.1719 640.3125,304.8906 L640.3125,306.0156 C640.3125,308.5938 642.4219,310.4844 645.3125,310.4844 C646.5313,310.4844 647.6875,310.1875 648.4375,309.6406 C649.0156,309.2344 649.3438,308.7813 649.3438,308.3906 C649.3438,307.9375 648.9531,307.5469 648.4844,307.5469 C648.2656,307.5469 648.0625,307.625 647.875,307.8125 C647.4219,308.2969 647.4219,308.2969 647.2344,308.3906 C646.8125,308.6563 646.125,308.7813 645.3594,308.7813 C643.3125,308.7813 642.0156,307.6875 642.0156,305.9844 L642.0156,304.8906 C642.0156,303.1094 643.2656,301.7969 645,301.7969 C645.5781,301.7969 646.1875,301.9531 646.6563,302.2031 C647.1406,302.4844 647.3125,302.7031 647.4063,303.1094 C647.4688,303.5156 647.5,303.6406 647.6406,303.7656 C647.7813,303.9063 648.0156,304.0156 648.2344,304.0156 C648.5,304.0156 648.7656,303.875 648.9375,303.6563 C649.0469,303.5 649.0781,303.3125 649.0781,302.8906 L649.0781,301.4688 C649.0781,301.0313 649.0625,300.9063 648.9688,300.75 C648.8125,300.4844 648.5313,300.3438 648.2344,300.3438 C647.9375,300.3438 647.7344,300.4375 647.5156,300.75 L647.3438,300.6719 Z " fill="#000000"/><text fill="#000000" font-family="sans-serif" font-size="12" lengthAdjust="spacing" textLength="56" x="664" y="309.1543">Company</text><line style="stroke:#A80036;stroke-width:1.5;" x1="608.5" x2="744.5" y1="321" y2="321"/><text fill="#000000" font-family="sans-serif" font-size="11" lengthAdjust="spacing" textLength="107" x="613.5" y="335.2104">-String designation</text><line style="stroke:#A80036;stroke-width:1.5;" x1="608.5" x2="744.5" y1="341.8047" y2="341.8047"/><text fill="#000000" font-family="sans-serif" font-size="11" lengthAdjust="spacing" textLength="126" x="613.5" y="356.0151">+getParameterStore()</text><text fill="#000000" font-family="sans-serif" font-size="11" lengthAdjust="spacing" textLength="121" x="613.5" y="368.8198">+getTestTypeStore()</text><text fill="#000000" font-family="sans-serif" font-size="11" lengthAdjust="spacing" textLength="100" x="613.5" y="381.6245">+getClientStore()</text><text fill="#000000" font-family="sans-serif" font-size="11" lengthAdjust="spacing" textLength="92" x="613.5" y="394.4292">+getTestStore()</text><text fill="#000000" font-family="sans-serif" font-size="11" lengthAdjust="spacing" textLength="119" x="613.5" y="407.2339">+getLabOrderStore()</text><!--MD5=[f39222c906a5158620eb4ce0ead49545]
class TestController--><rect codeLine="83" fill="#FEFECE" filter="url(#f1dm9o43ec5jp3)" height="112.0234" id="TestController" style="stroke:#A80036;stroke-width:1.5;" width="263" x="708" y="116"/><ellipse cx="792.75" cy="132" fill="#ADD1B2" rx="11" ry="11" style="stroke:#A80036;stroke-width:1.0;"/><path d="M795.0938,127.6719 C794.1563,127.2344 793.5625,127.0938 792.6875,127.0938 C790.0625,127.0938 788.0625,129.1719 788.0625,131.8906 L788.0625,133.0156 C788.0625,135.5938 790.1719,137.4844 793.0625,137.4844 C794.2813,137.4844 795.4375,137.1875 796.1875,136.6406 C796.7656,136.2344 797.0938,135.7813 797.0938,135.3906 C797.0938,134.9375 796.7031,134.5469 796.2344,134.5469 C796.0156,134.5469 795.8125,134.625 795.625,134.8125 C795.1719,135.2969 795.1719,135.2969 794.9844,135.3906 C794.5625,135.6563 793.875,135.7813 793.1094,135.7813 C791.0625,135.7813 789.7656,134.6875 789.7656,132.9844 L789.7656,131.8906 C789.7656,130.1094 791.0156,128.7969 792.75,128.7969 C793.3281,128.7969 793.9375,128.9531 794.4063,129.2031 C794.8906,129.4844 795.0625,129.7031 795.1563,130.1094 C795.2188,130.5156 795.25,130.6406 795.3906,130.7656 C795.5313,130.9063 795.7656,131.0156 795.9844,131.0156 C796.25,131.0156 796.5156,130.875 796.6875,130.6563 C796.7969,130.5 796.8281,130.3125 796.8281,129.8906 L796.8281,128.4688 C796.8281,128.0313 796.8125,127.9063 796.7188,127.75 C796.5625,127.4844 796.2813,127.3438 795.9844,127.3438 C795.6875,127.3438 795.4844,127.4375 795.2656,127.75 L795.0938,127.6719 Z " fill="#000000"/><text fill="#000000" font-family="sans-serif" font-size="12" lengthAdjust="spacing" textLength="85" x="813.25" y="136.1543">TestController</text><line style="stroke:#A80036;stroke-width:1.5;" x1="709" x2="970" y1="148" y2="148"/><line style="stroke:#A80036;stroke-width:1.5;" x1="709" x2="970" y1="156" y2="156"/><text fill="#000000" font-family="sans-serif" font-size="11" lengthAdjust="spacing" textLength="121" x="714" y="170.2104">+getTestTypeStore()</text><text fill="#000000" font-family="sans-serif" font-size="11" lengthAdjust="spacing" textLength="100" x="714" y="183.0151">+getClientStore()</text><text fill="#000000" font-family="sans-serif" font-size="11" lengthAdjust="spacing" textLength="126" x="714" y="195.8198">+getParameterStore()</text><text fill="#000000" font-family="sans-serif" font-size="11" lengthAdjust="spacing" textLength="251" x="714" y="208.6245">+createTest(tinNumber, nhsCode, labOrder)</text><text fill="#000000" font-family="sans-serif" font-size="11" lengthAdjust="spacing" textLength="70" x="714" y="221.4292">+saveTest()</text><!--MD5=[0de185411ac6f39be4e6d8f4e4bd2bcc]
class TestUI--><rect codeLine="92" fill="#FEFECE" filter="url(#f1dm9o43ec5jp3)" height="48" id="TestUI" style="stroke:#A80036;stroke-width:1.5;" width="70" x="804.5" y="7"/><ellipse cx="819.5" cy="23" fill="#ADD1B2" rx="11" ry="11" style="stroke:#A80036;stroke-width:1.0;"/><path d="M821.8438,18.6719 C820.9063,18.2344 820.3125,18.0938 819.4375,18.0938 C816.8125,18.0938 814.8125,20.1719 814.8125,22.8906 L814.8125,24.0156 C814.8125,26.5938 816.9219,28.4844 819.8125,28.4844 C821.0313,28.4844 822.1875,28.1875 822.9375,27.6406 C823.5156,27.2344 823.8438,26.7813 823.8438,26.3906 C823.8438,25.9375 823.4531,25.5469 822.9844,25.5469 C822.7656,25.5469 822.5625,25.625 822.375,25.8125 C821.9219,26.2969 821.9219,26.2969 821.7344,26.3906 C821.3125,26.6563 820.625,26.7813 819.8594,26.7813 C817.8125,26.7813 816.5156,25.6875 816.5156,23.9844 L816.5156,22.8906 C816.5156,21.1094 817.7656,19.7969 819.5,19.7969 C820.0781,19.7969 820.6875,19.9531 821.1563,20.2031 C821.6406,20.4844 821.8125,20.7031 821.9063,21.1094 C821.9688,21.5156 822,21.6406 822.1406,21.7656 C822.2813,21.9063 822.5156,22.0156 822.7344,22.0156 C823,22.0156 823.2656,21.875 823.4375,21.6563 C823.5469,21.5 823.5781,21.3125 823.5781,20.8906 L823.5781,19.4688 C823.5781,19.0313 823.5625,18.9063 823.4688,18.75 C823.3125,18.4844 823.0313,18.3438 822.7344,18.3438 C822.4375,18.3438 822.2344,18.4375 822.0156,18.75 L821.8438,18.6719 Z " fill="#000000"/><text fill="#000000" font-family="sans-serif" font-size="12" lengthAdjust="spacing" textLength="38" x="833.5" y="27.1543">TestUI</text><line style="stroke:#A80036;stroke-width:1.5;" x1="805.5" x2="873.5" y1="39" y2="39"/><line style="stroke:#A80036;stroke-width:1.5;" x1="805.5" x2="873.5" y1="47" y2="47"/><!--MD5=[724ead17d3ca940995455a91cefd1e12]
class TestTypeMapper--><rect codeLine="96" fill="#FEFECE" filter="url(#f1dm9o43ec5jp3)" height="60.8047" id="TestTypeMapper" style="stroke:#A80036;stroke-width:1.5;" width="134" x="139.5" y="321"/><ellipse cx="154.5" cy="337" fill="#ADD1B2" rx="11" ry="11" style="stroke:#A80036;stroke-width:1.0;"/><path d="M156.8438,332.6719 C155.9063,332.2344 155.3125,332.0938 154.4375,332.0938 C151.8125,332.0938 149.8125,334.1719 149.8125,336.8906 L149.8125,338.0156 C149.8125,340.5938 151.9219,342.4844 154.8125,342.4844 C156.0313,342.4844 157.1875,342.1875 157.9375,341.6406 C158.5156,341.2344 158.8438,340.7813 158.8438,340.3906 C158.8438,339.9375 158.4531,339.5469 157.9844,339.5469 C157.7656,339.5469 157.5625,339.625 157.375,339.8125 C156.9219,340.2969 156.9219,340.2969 156.7344,340.3906 C156.3125,340.6563 155.625,340.7813 154.8594,340.7813 C152.8125,340.7813 151.5156,339.6875 151.5156,337.9844 L151.5156,336.8906 C151.5156,335.1094 152.7656,333.7969 154.5,333.7969 C155.0781,333.7969 155.6875,333.9531 156.1563,334.2031 C156.6406,334.4844 156.8125,334.7031 156.9063,335.1094 C156.9688,335.5156 157,335.6406 157.1406,335.7656 C157.2813,335.9063 157.5156,336.0156 157.7344,336.0156 C158,336.0156 158.2656,335.875 158.4375,335.6563 C158.5469,335.5 158.5781,335.3125 158.5781,334.8906 L158.5781,333.4688 C158.5781,333.0313 158.5625,332.9063 158.4688,332.75 C158.3125,332.4844 158.0313,332.3438 157.7344,332.3438 C157.4375,332.3438 157.2344,332.4375 157.0156,332.75 L156.8438,332.6719 Z " fill="#000000"/><text fill="#000000" font-family="sans-serif" font-size="12" lengthAdjust="spacing" textLength="102" x="168.5" y="341.1543">TestTypeMapper</text><line style="stroke:#A80036;stroke-width:1.5;" x1="140.5" x2="272.5" y1="353" y2="353"/><line style="stroke:#A80036;stroke-width:1.5;" x1="140.5" x2="272.5" y1="361" y2="361"/><text fill="#000000" font-family="sans-serif" font-size="11" lengthAdjust="spacing" textLength="48" x="145.5" y="375.2104">+toDto()</text><!--MD5=[d9af5e34e5bc78cd5a2caff02363fedd]
class ClientMapper--><rect codeLine="100" fill="#FEFECE" filter="url(#f1dm9o43ec5jp3)" height="60.8047" id="ClientMapper" style="stroke:#A80036;stroke-width:1.5;" width="111" x="1228" y="321"/><ellipse cx="1243" cy="337" fill="#ADD1B2" rx="11" ry="11" style="stroke:#A80036;stroke-width:1.0;"/><path d="M1245.3438,332.6719 C1244.4063,332.2344 1243.8125,332.0938 1242.9375,332.0938 C1240.3125,332.0938 1238.3125,334.1719 1238.3125,336.8906 L1238.3125,338.0156 C1238.3125,340.5938 1240.4219,342.4844 1243.3125,342.4844 C1244.5313,342.4844 1245.6875,342.1875 1246.4375,341.6406 C1247.0156,341.2344 1247.3438,340.7813 1247.3438,340.3906 C1247.3438,339.9375 1246.9531,339.5469 1246.4844,339.5469 C1246.2656,339.5469 1246.0625,339.625 1245.875,339.8125 C1245.4219,340.2969 1245.4219,340.2969 1245.2344,340.3906 C1244.8125,340.6563 1244.125,340.7813 1243.3594,340.7813 C1241.3125,340.7813 1240.0156,339.6875 1240.0156,337.9844 L1240.0156,336.8906 C1240.0156,335.1094 1241.2656,333.7969 1243,333.7969 C1243.5781,333.7969 1244.1875,333.9531 1244.6563,334.2031 C1245.1406,334.4844 1245.3125,334.7031 1245.4063,335.1094 C1245.4688,335.5156 1245.5,335.6406 1245.6406,335.7656 C1245.7813,335.9063 1246.0156,336.0156 1246.2344,336.0156 C1246.5,336.0156 1246.7656,335.875 1246.9375,335.6563 C1247.0469,335.5 1247.0781,335.3125 1247.0781,334.8906 L1247.0781,333.4688 C1247.0781,333.0313 1247.0625,332.9063 1246.9688,332.75 C1246.8125,332.4844 1246.5313,332.3438 1246.2344,332.3438 C1245.9375,332.3438 1245.7344,332.4375 1245.5156,332.75 L1245.3438,332.6719 Z " fill="#000000"/><text fill="#000000" font-family="sans-serif" font-size="12" lengthAdjust="spacing" textLength="79" x="1257" y="341.1543">ClientMapper</text><line style="stroke:#A80036;stroke-width:1.5;" x1="1229" x2="1338" y1="353" y2="353"/><line style="stroke:#A80036;stroke-width:1.5;" x1="1229" x2="1338" y1="361" y2="361"/><text fill="#000000" font-family="sans-serif" font-size="11" lengthAdjust="spacing" textLength="48" x="1234" y="375.2104">+toDto()</text><!--MD5=[e0569d1bc34b9d21face98cd33d75fba]
class ParameterMapper--><rect codeLine="104" fill="#FEFECE" filter="url(#f1dm9o43ec5jp3)" height="60.8047" id="ParameterMapper" style="stroke:#A80036;stroke-width:1.5;" width="139" x="964" y="321"/><ellipse cx="979" cy="337" fill="#ADD1B2" rx="11" ry="11" style="stroke:#A80036;stroke-width:1.0;"/><path d="M981.3438,332.6719 C980.4063,332.2344 979.8125,332.0938 978.9375,332.0938 C976.3125,332.0938 974.3125,334.1719 974.3125,336.8906 L974.3125,338.0156 C974.3125,340.5938 976.4219,342.4844 979.3125,342.4844 C980.5313,342.4844 981.6875,342.1875 982.4375,341.6406 C983.0156,341.2344 983.3438,340.7813 983.3438,340.3906 C983.3438,339.9375 982.9531,339.5469 982.4844,339.5469 C982.2656,339.5469 982.0625,339.625 981.875,339.8125 C981.4219,340.2969 981.4219,340.2969 981.2344,340.3906 C980.8125,340.6563 980.125,340.7813 979.3594,340.7813 C977.3125,340.7813 976.0156,339.6875 976.0156,337.9844 L976.0156,336.8906 C976.0156,335.1094 977.2656,333.7969 979,333.7969 C979.5781,333.7969 980.1875,333.9531 980.6563,334.2031 C981.1406,334.4844 981.3125,334.7031 981.4063,335.1094 C981.4688,335.5156 981.5,335.6406 981.6406,335.7656 C981.7813,335.9063 982.0156,336.0156 982.2344,336.0156 C982.5,336.0156 982.7656,335.875 982.9375,335.6563 C983.0469,335.5 983.0781,335.3125 983.0781,334.8906 L983.0781,333.4688 C983.0781,333.0313 983.0625,332.9063 982.9688,332.75 C982.8125,332.4844 982.5313,332.3438 982.2344,332.3438 C981.9375,332.3438 981.7344,332.4375 981.5156,332.75 L981.3438,332.6719 Z " fill="#000000"/><text fill="#000000" font-family="sans-serif" font-size="12" lengthAdjust="spacing" textLength="107" x="993" y="341.1543">ParameterMapper</text><line style="stroke:#A80036;stroke-width:1.5;" x1="965" x2="1102" y1="353" y2="353"/><line style="stroke:#A80036;stroke-width:1.5;" x1="965" x2="1102" y1="361" y2="361"/><text fill="#000000" font-family="sans-serif" font-size="11" lengthAdjust="spacing" textLength="48" x="970" y="375.2104">+toDto()</text><!--MD5=[39211d0b4e736fe88bd7c2891dab4eb8]
class TestTypeDto--><rect codeLine="109" fill="#FEFECE" filter="url(#f1dm9o43ec5jp3)" height="99.2188" id="TestTypeDto" style="stroke:#A80036;stroke-width:1.5;" width="149" x="7" y="645.5"/><ellipse cx="40" cy="661.5" fill="#ADD1B2" rx="11" ry="11" style="stroke:#A80036;stroke-width:1.0;"/><path d="M42.3438,657.1719 C41.4063,656.7344 40.8125,656.5938 39.9375,656.5938 C37.3125,656.5938 35.3125,658.6719 35.3125,661.3906 L35.3125,662.5156 C35.3125,665.0938 37.4219,666.9844 40.3125,666.9844 C41.5313,666.9844 42.6875,666.6875 43.4375,666.1406 C44.0156,665.7344 44.3438,665.2813 44.3438,664.8906 C44.3438,664.4375 43.9531,664.0469 43.4844,664.0469 C43.2656,664.0469 43.0625,664.125 42.875,664.3125 C42.4219,664.7969 42.4219,664.7969 42.2344,664.8906 C41.8125,665.1563 41.125,665.2813 40.3594,665.2813 C38.3125,665.2813 37.0156,664.1875 37.0156,662.4844 L37.0156,661.3906 C37.0156,659.6094 38.2656,658.2969 40,658.2969 C40.5781,658.2969 41.1875,658.4531 41.6563,658.7031 C42.1406,658.9844 42.3125,659.2031 42.4063,659.6094 C42.4688,660.0156 42.5,660.1406 42.6406,660.2656 C42.7813,660.4063 43.0156,660.5156 43.2344,660.5156 C43.5,660.5156 43.7656,660.375 43.9375,660.1563 C44.0469,660 44.0781,659.8125 44.0781,659.3906 L44.0781,657.9688 C44.0781,657.5313 44.0625,657.4063 43.9688,657.25 C43.8125,656.9844 43.5313,656.8438 43.2344,656.8438 C42.9375,656.8438 42.7344,656.9375 42.5156,657.25 L42.3438,657.1719 Z " fill="#000000"/><text fill="#000000" font-family="sans-serif" font-size="12" lengthAdjust="spacing" textLength="77" x="58" y="665.6543">TestTypeDto</text><line style="stroke:#A80036;stroke-width:1.5;" x1="8" x2="155" y1="677.5" y2="677.5"/><text fill="#000000" font-family="sans-serif" font-size="11" lengthAdjust="spacing" textLength="69" x="13" y="691.7104">-String code</text><text fill="#000000" font-family="sans-serif" font-size="11" lengthAdjust="spacing" textLength="103" x="13" y="704.5151">-String description</text><text fill="#000000" font-family="sans-serif" font-size="11" lengthAdjust="spacing" textLength="137" x="13" y="717.3198">-String collectingMethod</text><line style="stroke:#A80036;stroke-width:1.5;" x1="8" x2="155" y1="723.9141" y2="723.9141"/><text fill="#000000" font-family="sans-serif" font-size="11" lengthAdjust="spacing" textLength="121" x="13" y="738.1245">+TestTypeDto(listPC)</text><!--MD5=[687b2867e958f9e5343032874922dbed]
class ClientDto--><rect codeLine="116" fill="#FEFECE" filter="url(#f1dm9o43ec5jp3)" height="150.4375" id="ClientDto" style="stroke:#A80036;stroke-width:1.5;" width="125" x="1367" y="620"/><ellipse cx="1399.55" cy="636" fill="#ADD1B2" rx="11" ry="11" style="stroke:#A80036;stroke-width:1.0;"/><path d="M1401.8938,631.6719 C1400.9563,631.2344 1400.3625,631.0938 1399.4875,631.0938 C1396.8625,631.0938 1394.8625,633.1719 1394.8625,635.8906 L1394.8625,637.0156 C1394.8625,639.5938 1396.9719,641.4844 1399.8625,641.4844 C1401.0813,641.4844 1402.2375,641.1875 1402.9875,640.6406 C1403.5656,640.2344 1403.8938,639.7813 1403.8938,639.3906 C1403.8938,638.9375 1403.5031,638.5469 1403.0344,638.5469 C1402.8156,638.5469 1402.6125,638.625 1402.425,638.8125 C1401.9719,639.2969 1401.9719,639.2969 1401.7844,639.3906 C1401.3625,639.6563 1400.675,639.7813 1399.9094,639.7813 C1397.8625,639.7813 1396.5656,638.6875 1396.5656,636.9844 L1396.5656,635.8906 C1396.5656,634.1094 1397.8156,632.7969 1399.55,632.7969 C1400.1281,632.7969 1400.7375,632.9531 1401.2063,633.2031 C1401.6906,633.4844 1401.8625,633.7031 1401.9563,634.1094 C1402.0188,634.5156 1402.05,634.6406 1402.1906,634.7656 C1402.3313,634.9063 1402.5656,635.0156 1402.7844,635.0156 C1403.05,635.0156 1403.3156,634.875 1403.4875,634.6563 C1403.5969,634.5 1403.6281,634.3125 1403.6281,633.8906 L1403.6281,632.4688 C1403.6281,632.0313 1403.6125,631.9063 1403.5188,631.75 C1403.3625,631.4844 1403.0813,631.3438 1402.7844,631.3438 C1402.4875,631.3438 1402.2844,631.4375 1402.0656,631.75 L1401.8938,631.6719 Z " fill="#000000"/><text fill="#000000" font-family="sans-serif" font-size="12" lengthAdjust="spacing" textLength="54" x="1417.45" y="640.1543">ClientDto</text><line style="stroke:#A80036;stroke-width:1.5;" x1="1368" x2="1491" y1="652" y2="652"/><text fill="#000000" font-family="sans-serif" font-size="11" lengthAdjust="spacing" textLength="51" x="1373" y="666.2104">-long ccn</text><text fill="#000000" font-family="sans-serif" font-size="11" lengthAdjust="spacing" textLength="52" x="1373" y="679.0151">-long nhs</text><text fill="#000000" font-family="sans-serif" font-size="11" lengthAdjust="spacing" textLength="66" x="1373" y="691.8198">-String birth</text><text fill="#000000" font-family="sans-serif" font-size="11" lengthAdjust="spacing" textLength="62" x="1373" y="704.6245">-String sex</text><text fill="#000000" font-family="sans-serif" font-size="11" lengthAdjust="spacing" textLength="43" x="1373" y="717.4292">-long tif</text><text fill="#000000" font-family="sans-serif" font-size="11" lengthAdjust="spacing" textLength="73" x="1373" y="730.2339">-String email</text><text fill="#000000" font-family="sans-serif" font-size="11" lengthAdjust="spacing" textLength="74" x="1373" y="743.0386">-String name</text><text fill="#000000" font-family="sans-serif" font-size="11" lengthAdjust="spacing" textLength="113" x="1373" y="755.8433">-long phoneNumber</text><line style="stroke:#A80036;stroke-width:1.5;" x1="1368" x2="1491" y1="762.4375" y2="762.4375"/><!--MD5=[b42990f7a7d3650acbc29420386312ae]
class ParameterDto--><rect codeLine="128" fill="#FEFECE" filter="url(#f1dm9o43ec5jp3)" height="99.2188" id="ParameterDto" style="stroke:#A80036;stroke-width:1.5;" width="158" x="1037.5" y="929"/><ellipse cx="1072.3" cy="945" fill="#ADD1B2" rx="11" ry="11" style="stroke:#A80036;stroke-width:1.0;"/><path d="M1074.6438,940.6719 C1073.7063,940.2344 1073.1125,940.0938 1072.2375,940.0938 C1069.6125,940.0938 1067.6125,942.1719 1067.6125,944.8906 L1067.6125,946.0156 C1067.6125,948.5938 1069.7219,950.4844 1072.6125,950.4844 C1073.8313,950.4844 1074.9875,950.1875 1075.7375,949.6406 C1076.3156,949.2344 1076.6438,948.7813 1076.6438,948.3906 C1076.6438,947.9375 1076.2531,947.5469 1075.7844,947.5469 C1075.5656,947.5469 1075.3625,947.625 1075.175,947.8125 C1074.7219,948.2969 1074.7219,948.2969 1074.5344,948.3906 C1074.1125,948.6563 1073.425,948.7813 1072.6594,948.7813 C1070.6125,948.7813 1069.3156,947.6875 1069.3156,945.9844 L1069.3156,944.8906 C1069.3156,943.1094 1070.5656,941.7969 1072.3,941.7969 C1072.8781,941.7969 1073.4875,941.9531 1073.9563,942.2031 C1074.4406,942.4844 1074.6125,942.7031 1074.7063,943.1094 C1074.7688,943.5156 1074.8,943.6406 1074.9406,943.7656 C1075.0813,943.9063 1075.3156,944.0156 1075.5344,944.0156 C1075.8,944.0156 1076.0656,943.875 1076.2375,943.6563 C1076.3469,943.5 1076.3781,943.3125 1076.3781,942.8906 L1076.3781,941.4688 C1076.3781,941.0313 1076.3625,940.9063 1076.2688,940.75 C1076.1125,940.4844 1075.8313,940.3438 1075.5344,940.3438 C1075.2375,940.3438 1075.0344,940.4375 1074.8156,940.75 L1074.6438,940.6719 Z " fill="#000000"/><text fill="#000000" font-family="sans-serif" font-size="12" lengthAdjust="spacing" textLength="82" x="1090.7" y="949.1543">ParameterDto</text><line style="stroke:#A80036;stroke-width:1.5;" x1="1038.5" x2="1194.5" y1="961" y2="961"/><text fill="#000000" font-family="sans-serif" font-size="11" lengthAdjust="spacing" textLength="69" x="1043.5" y="975.2104">-String code</text><text fill="#000000" font-family="sans-serif" font-size="11" lengthAdjust="spacing" textLength="103" x="1043.5" y="988.0151">-String shortName</text><text fill="#000000" font-family="sans-serif" font-size="11" lengthAdjust="spacing" textLength="137" x="1043.5" y="1000.8198">-String descriptionName</text><line style="stroke:#A80036;stroke-width:1.5;" x1="1038.5" x2="1194.5" y1="1007.4141" y2="1007.4141"/><text fill="#000000" font-family="sans-serif" font-size="11" lengthAdjust="spacing" textLength="146" x="1043.5" y="1021.6245">+ParameterDto(category)</text><!--MD5=[74cd978ee99d39290863f0dd46ff2f89]
link TestUI to TestController--><path codeLine="135" d="M839.5,55.27 C839.5,70.45 839.5,91.02 839.5,110.6 " fill="none" id="TestUI-to-TestController" style="stroke:#A80036;stroke-width:1.0;stroke-dasharray:7.0,7.0;"/><polygon fill="#A80036" points="839.5,115.83,843.5,106.83,839.5,110.83,835.5,106.83,839.5,115.83" style="stroke:#A80036;stroke-width:1.0;"/><!--MD5=[4214af27f2b8d8cd4d1ac0255e746323]
link TestController to TestStore--><path codeLine="136" d="M849.489,228.25 C857.594,289.87 861.448,390.16 817.5,461 C811.351,470.912 803.448,479.73 794.571,487.536 " fill="none" id="TestController-to-TestStore" style="stroke:#A80036;stroke-width:1.0;stroke-dasharray:7.0,7.0;"/><polygon fill="#A80036" points="790.709,490.82,800.1565,488.0371,794.5181,487.581,794.9741,481.9426,790.709,490.82" style="stroke:#A80036;stroke-width:1.0;"/><!--MD5=[b3e932a0b9ddf5fd0fa9570af6d67299]
link TestController to Company--><path codeLine="137" d="M788.819,228.19 C772.26,246.22 753.71,266.42 736.531,285.13 " fill="none" id="TestController-to-Company" style="stroke:#A80036;stroke-width:1.0;stroke-dasharray:7.0,7.0;"/><polygon fill="#A80036" points="733.115,288.85,742.1515,284.9333,736.4996,285.1697,736.2631,279.5178,733.115,288.85" style="stroke:#A80036;stroke-width:1.0;"/><!--MD5=[10a9236994f21a943f7363e71bbb4e5b]
link TestController to TestTypeStore--><path codeLine="138" d="M707.945,197.29 C632.456,215.08 537.985,244.11 462.5,289 C363.793,347.7 274.266,452.083 232.049,505.681 " fill="none" id="TestController-to-TestTypeStore" style="stroke:#A80036;stroke-width:1.0;stroke-dasharray:7.0,7.0;"/><polygon fill="#A80036" points="228.846,509.765,237.5477,505.1519,231.9317,505.8307,231.2528,500.2148,228.846,509.765" style="stroke:#A80036;stroke-width:1.0;"/><!--MD5=[56747bfb865ac49d23ced99282e801d6]
link TestController to TestTypeMapper--><path codeLine="139" d="M707.954,185.4 C574.212,199.53 377.197,225.01 308.5,258 C279.489,271.93 252.784,296.79 233.981,317.23 " fill="none" id="TestController-to-TestTypeMapper" style="stroke:#A80036;stroke-width:1.0;stroke-dasharray:7.0,7.0;"/><polygon fill="#A80036" points="230.563,320.99,239.5806,317.0299,233.9299,317.2935,233.6663,311.6428,230.563,320.99" style="stroke:#A80036;stroke-width:1.0;"/><!--MD5=[928493a3f28d81a5dcadceb00815ac28]
link TestController to ClientStore--><path codeLine="140" d="M971.169,208.88 C1021.61,227.12 1077.35,253.19 1120.5,289 C1139.85,305.06 1223.36,440.429 1262.76,505.213 " fill="none" id="TestController-to-ClientStore" style="stroke:#A80036;stroke-width:1.0;stroke-dasharray:7.0,7.0;"/><polygon fill="#A80036" points="1265.52,509.753,1264.262,499.9848,1262.9224,505.4807,1257.4264,504.141,1265.52,509.753" style="stroke:#A80036;stroke-width:1.0;"/><!--MD5=[af4bf6274783dd8cc7be45076ded5bc4]
link TestController to ClientMapper--><path codeLine="141" d="M971.342,186.43 C1041.22,197.89 1126.43,219.04 1194.5,258 C1220.07,272.63 1242.96,296.82 1259.12,316.79 " fill="none" id="TestController-to-ClientMapper" style="stroke:#A80036;stroke-width:1.0;stroke-dasharray:7.0,7.0;"/><polygon fill="#A80036" points="1262.27,320.72,1259.7585,311.1968,1259.1413,316.8198,1253.5182,316.2027,1262.27,320.72" style="stroke:#A80036;stroke-width:1.0;"/><!--MD5=[415ad4ee0497e7fe75badba547dfd7e8]
link TestController to ParameterStore--><path codeLine="142" d="M860.762,228.27 C890.229,304.86 942.618,441.033 967.143,504.78 " fill="none" id="TestController-to-ParameterStore" style="stroke:#A80036;stroke-width:1.0;stroke-dasharray:7.0,7.0;"/><polygon fill="#A80036" points="969.002,509.613,969.5034,499.7769,967.2065,504.9465,962.0369,502.6497,969.002,509.613" style="stroke:#A80036;stroke-width:1.0;"/><!--MD5=[60873bf917fa4cf97b0b636547224812]
link TestController to ParameterMapper--><path codeLine="143" d="M903.236,228.17 C914.395,238.03 925.841,248.26 936.5,258 C957.592,277.28 980.772,299.35 999.181,317.1 " fill="none" id="TestController-to-ParameterMapper" style="stroke:#A80036;stroke-width:1.0;stroke-dasharray:7.0,7.0;"/><polygon fill="#A80036" points="1002.797,320.59,999.1131,311.4561,999.2047,317.1122,993.5486,317.2038,1002.797,320.59" style="stroke:#A80036;stroke-width:1.0;"/><!--MD5=[795e96b83fe876fb7ea1e86280d1e22a]
link TestController to LabOrderStore--><path codeLine="144" d="M707.689,222.15 C667.813,240.1 625.172,262.6 589.5,289 C515.121,344.04 500.299,366.01 450.5,444 C438.429,462.905 428.413,485.968 421.303,504.694 " fill="none" id="TestController-to-LabOrderStore" style="stroke:#A80036;stroke-width:1.0;stroke-dasharray:7.0,7.0;"/><polygon fill="#A80036" points="419.375,509.854,426.2717,502.823,421.1248,505.1702,418.7776,500.0233,419.375,509.854" style="stroke:#A80036;stroke-width:1.0;"/><!--MD5=[57b3d8f591a859c9e10ba6fce29e04f3]
link LabOrderStore to LabOrder--><path codeLine="145" d="M414.707,571.105 C432.304,671.157 489.511,996.421 508.392,1103.771 " fill="none" id="LabOrderStore-to-LabOrder" style="stroke:#A80036;stroke-width:1.0;stroke-dasharray:7.0,7.0;"/><polygon fill="#A80036" points="509.262,1108.716,511.6405,1099.1587,508.3949,1103.7918,503.7618,1100.5461,509.262,1108.716" style="stroke:#A80036;stroke-width:1.0;"/><!--MD5=[7f6cf7f175eae0af66201860de5de971]
link Company to TestStore--><path codeLine="146" d="M640.298,414.264 C635.315,429.414 633.188,445.682 637.5,461 C639.91,469.563 643.544,478.115 647.753,486.256 " fill="none" id="Company-to-TestStore" style="stroke:#A80036;stroke-width:1.0;"/><polygon fill="#A80036" points="650.147,490.734,649.4309,480.9112,647.7895,486.3247,642.376,484.6833,650.147,490.734" style="stroke:#A80036;stroke-width:1.0;"/><text fill="#000000" font-family="sans-serif" font-size="13" lengthAdjust="spacing" textLength="30" x="638.5" y="457.0669">uses</text><text fill="#000000" font-family="sans-serif" font-size="13" lengthAdjust="spacing" textLength="8" x="627.9009" y="434.0327">1</text><text fill="#000000" font-family="sans-serif" font-size="13" lengthAdjust="spacing" textLength="8" x="636.8589" y="480.1">1</text><!--MD5=[141c3afa12b2b3c0a39ffce56dbd5f19]
link Company to TestTypeStore--><path codeLine="147" d="M607.457,378.97 C535.973,406.5 421.148,451.086 322.5,491 C309.138,496.406 294.951,502.251 281.254,507.947 " fill="none" id="Company-to-TestTypeStore" style="stroke:#A80036;stroke-width:1.0;"/><polygon fill="#A80036" points="276.629,509.873,286.4751,510.107,281.245,507.9514,283.4006,502.7214,276.629,509.873" style="stroke:#A80036;stroke-width:1.0;"/><text fill="#000000" font-family="sans-serif" font-size="13" lengthAdjust="spacing" textLength="30" x="440.5" y="457.0669">uses</text><text fill="#000000" font-family="sans-serif" font-size="13" lengthAdjust="spacing" textLength="8" x="591.4679" y="378.2378">1</text><text fill="#000000" font-family="sans-serif" font-size="13" lengthAdjust="spacing" textLength="8" x="282.2681" y="499.11">1</text><!--MD5=[a11230341c8e65219708844feaa40162]
link Company to ClientStore--><path codeLine="148" d="M745.54,373.77 C852.502,406.72 1058.8,470.278 1182.52,508.391 " fill="none" id="Company-to-ClientStore" style="stroke:#A80036;stroke-width:1.0;"/><polygon fill="#A80036" points="1187.62,509.962,1180.1957,503.4906,1182.8414,508.4906,1177.8414,511.1363,1187.62,509.962" style="stroke:#A80036;stroke-width:1.0;"/><text fill="#000000" font-family="sans-serif" font-size="13" lengthAdjust="spacing" textLength="30" x="1017.5" y="457.0669">uses</text><text fill="#000000" font-family="sans-serif" font-size="13" lengthAdjust="spacing" textLength="8" x="753.5288" y="372.469">1</text><text fill="#000000" font-family="sans-serif" font-size="13" lengthAdjust="spacing" textLength="8" x="1159.0198" y="499.2174">1</text><!--MD5=[daf3d7412afa2c7651483be0b6e971d1]
link Company to ParameterStore--><path codeLine="149" d="M683.125,414.199 C687.908,431.55 695.974,448.952 709.5,461 C765.156,510.577 803.393,468.654 874.5,491 C888.897,495.524 903.901,501.528 917.936,507.766 " fill="none" id="Company-to-ParameterStore" style="stroke:#A80036;stroke-width:1.0;"/><polygon fill="#A80036" points="922.657,509.888,916.0876,502.5502,918.0964,507.8384,912.8082,509.8472,922.657,509.888" style="stroke:#A80036;stroke-width:1.0;"/><text fill="#000000" font-family="sans-serif" font-size="13" lengthAdjust="spacing" textLength="30" x="710.5" y="457.0669">uses</text><text fill="#000000" font-family="sans-serif" font-size="13" lengthAdjust="spacing" textLength="8" x="675.4121" y="433.9606">1</text><text fill="#000000" font-family="sans-serif" font-size="13" lengthAdjust="spacing" textLength="8" x="901.9019" y="499.1281">1</text><!--MD5=[4853eac7323a9cc92da9ed62b8157a4f]
link Company to LabOrderStore--><path codeLine="150" d="M607.368,404.27 C582.673,422.474 554.522,442.895 528.5,461 C506.215,476.505 481.181,493.134 459.844,507.078 " fill="none" id="Company-to-LabOrderStore" style="stroke:#A80036;stroke-width:1.0;"/><polygon fill="#A80036" points="455.628,509.83,465.351,508.2606,459.8151,507.0972,460.9785,501.5613,455.628,509.83" style="stroke:#A80036;stroke-width:1.0;"/><text fill="#000000" font-family="sans-serif" font-size="13" lengthAdjust="spacing" textLength="30" x="550.5" y="457.0669">uses</text><text fill="#000000" font-family="sans-serif" font-size="13" lengthAdjust="spacing" textLength="8" x="591.3692" y="406.305">1</text><text fill="#000000" font-family="sans-serif" font-size="13" lengthAdjust="spacing" textLength="8" x="456.3169" y="499.0582">1</text><!--MD5=[b0f4f6db8206580012ef9cd998ed01c5]
link TestStore to Test--><path codeLine="151" d="M685.5,590.145 C685.5,645.864 685.5,736.891 685.5,794.689 " fill="none" id="TestStore-to-Test" style="stroke:#A80036;stroke-width:1.0;"/><polygon fill="#A80036" points="685.5,799.829,689.5,790.829,685.5,794.829,681.5,790.829,685.5,799.829" style="stroke:#A80036;stroke-width:1.0;"/><text fill="#000000" font-family="sans-serif" font-size="13" lengthAdjust="spacing" textLength="58" x="686.5" y="699.5669">conducts</text><text fill="#000000" font-family="sans-serif" font-size="13" lengthAdjust="spacing" textLength="8" x="676.9375" y="610.2419">1</text><text fill="#000000" font-family="sans-serif" font-size="13" lengthAdjust="spacing" textLength="23" x="660.8828" y="788.8502">1..*</text><!--MD5=[fba3ac294f3c76c431d275cef443fef8]
link LabOrder to TestType--><path codeLine="152" d="M471.674,1170.047 C425.024,1202.233 349.231,1254.525 290.597,1294.978 " fill="none" id="LabOrder-to-TestType" style="stroke:#A80036;stroke-width:1.0;"/><polygon fill="#A80036" points="286.406,1297.87,296.0854,1296.0507,290.5213,1295.0303,291.5418,1289.4662,286.406,1297.87" style="stroke:#A80036;stroke-width:1.0;"/><text fill="#000000" font-family="sans-serif" font-size="13" lengthAdjust="spacing" textLength="76" x="352.5" y="1264.0669">has a set of</text><text fill="#000000" font-family="sans-serif" font-size="13" lengthAdjust="spacing" textLength="8" x="454.0161" y="1189.9949">1</text><text fill="#000000" font-family="sans-serif" font-size="13" lengthAdjust="spacing" textLength="8" x="288.1315" y="1286.7913">1</text><!--MD5=[3994f36c72829dbcddd1cf7021dddf61]
link Test to Client--><path codeLine="153" d="M720.849,899.1 C752.713,939.447 803.12,995.332 859.5,1028 C933.164,1070.682 1023.46,1097.164 1101.76,1113.453 " fill="none" id="Test-to-Client" style="stroke:#A80036;stroke-width:1.0;"/><polygon fill="#A80036" points="1106.9,1114.511,1098.8823,1108.7912,1102.0011,1113.5106,1097.2817,1116.6295,1106.9,1114.511" style="stroke:#A80036;stroke-width:1.0;"/><text fill="#000000" font-family="sans-serif" font-size="13" lengthAdjust="spacing" textLength="76" x="860.5" y="983.0669">has a set of</text><text fill="#000000" font-family="sans-serif" font-size="13" lengthAdjust="spacing" textLength="8" x="717.2575" y="919.1905">1</text><text fill="#000000" font-family="sans-serif" font-size="13" lengthAdjust="spacing" textLength="8" x="1091.2809" y="1110.205">1</text><!--MD5=[7ae31b06ecb5db678e40497ee74dd179]
link Test to LabOrder--><path codeLine="154" d="M656.686,899.03 C622.13,957.228 565.091,1053.294 534.827,1104.265 " fill="none" id="Test-to-LabOrder" style="stroke:#A80036;stroke-width:1.0;"/><polygon fill="#A80036" points="532.162,1108.754,540.1968,1103.0583,534.7151,1104.455,533.3184,1098.9733,532.162,1108.754" style="stroke:#A80036;stroke-width:1.0;"/><text fill="#000000" font-family="sans-serif" font-size="13" lengthAdjust="spacing" textLength="76" x="636.5" y="983.0669">has a set of</text><text fill="#000000" font-family="sans-serif" font-size="13" lengthAdjust="spacing" textLength="8" x="644.0715" y="919.1107">1</text><text fill="#000000" font-family="sans-serif" font-size="13" lengthAdjust="spacing" textLength="23" x="510.4329" y="1097.9665">1..*</text><!--MD5=[ce196d60179d4c6ae847449fc07f987f]
link LabOrder to Parameter--><path codeLine="155" d="M565.257,1163.646 C634.27,1195.116 759.994,1252.447 855.085,1295.81 " fill="none" id="LabOrder-to-Parameter" style="stroke:#A80036;stroke-width:1.0;"/><polygon fill="#A80036" points="859.874,1297.994,853.345,1290.6203,855.3247,1295.9194,850.0256,1297.8991,859.874,1297.994" style="stroke:#A80036;stroke-width:1.0;"/><text fill="#000000" font-family="sans-serif" font-size="13" lengthAdjust="spacing" textLength="76" x="790.5" y="1264.0669">has a set of</text><text fill="#000000" font-family="sans-serif" font-size="13" lengthAdjust="spacing" textLength="8" x="572.9572" y="1163.0768">1</text><text fill="#000000" font-family="sans-serif" font-size="13" lengthAdjust="spacing" textLength="23" x="819.9454" y="1286.9312">1..*</text><!--MD5=[3eebf0e5f359806b77b30e9524c37676]
link TestTypeStore to TestType--><path codeLine="156" d="M206.5,571.344 C206.5,690.152 206.5,1130.881 206.5,1292.814 " fill="none" id="TestTypeStore-to-TestType" style="stroke:#A80036;stroke-width:1.0;"/><polygon fill="#A80036" points="206.5,1297.99,210.5,1288.99,206.5,1292.99,202.5,1288.99,206.5,1297.99" style="stroke:#A80036;stroke-width:1.0;"/><text fill="#000000" font-family="sans-serif" font-size="13" lengthAdjust="spacing" textLength="44" x="207.5" y="983.0669">adopts</text><text fill="#000000" font-family="sans-serif" font-size="13" lengthAdjust="spacing" textLength="8" x="197.7375" y="590.7515">1</text><text fill="#000000" font-family="sans-serif" font-size="13" lengthAdjust="spacing" textLength="7" x="199.0516" y="1286.9267">*</text><!--MD5=[1d934105a045dbf126514c6917bd5072]
link ClientStore to Client--><path codeLine="157" d="M1283.5,571.105 C1283.5,658.331 1283.5,916.725 1283.5,1052.673 " fill="none" id="ClientStore-to-Client" style="stroke:#A80036;stroke-width:1.0;"/><polygon fill="#A80036" points="1283.5,1057.856,1287.5,1048.856,1283.5,1052.856,1279.5,1048.856,1283.5,1057.856" style="stroke:#A80036;stroke-width:1.0;"/><text fill="#000000" font-family="sans-serif" font-size="13" lengthAdjust="spacing" textLength="44" x="1284.5" y="854.0669">adopts</text><text fill="#000000" font-family="sans-serif" font-size="13" lengthAdjust="spacing" textLength="8" x="1274.675" y="591.0649">1</text><text fill="#000000" font-family="sans-serif" font-size="13" lengthAdjust="spacing" textLength="7" x="1276.1883" y="1046.9786">*</text><!--MD5=[a0992dda039fed1bb57aff5aacace800]
link ParameterStore to Parameter--><path codeLine="158" d="M979.555,571.115 C977.246,647.04 971.635,854.845 973.5,1028 C974.495,1120.401 977.081,1227.553 978.815,1292.789 " fill="none" id="ParameterStore-to-Parameter" style="stroke:#A80036;stroke-width:1.0;"/><polygon fill="#A80036" points="978.949,1297.801,982.7059,1288.6968,978.8147,1292.8028,974.7087,1288.9117,978.949,1297.801" style="stroke:#A80036;stroke-width:1.0;"/><text fill="#000000" font-family="sans-serif" font-size="13" lengthAdjust="spacing" textLength="44" x="974.5" y="983.0669">adopts</text><text fill="#000000" font-family="sans-serif" font-size="13" lengthAdjust="spacing" textLength="8" x="970.5351" y="591.077">1</text><text fill="#000000" font-family="sans-serif" font-size="13" lengthAdjust="spacing" textLength="7" x="971.3334" y="1287.1112">*</text><!--MD5=[a7c8137e1981f3a2a0a33e0bf148e360]
link TestTypeMapper to TestTypeStore--><path codeLine="160" d="M206.5,382.13 C206.5,415.407 206.5,469.356 206.5,504.634 " fill="none" id="TestTypeMapper-to-TestTypeStore" style="stroke:#A80036;stroke-width:1.0;stroke-dasharray:7.0,7.0;"/><polygon fill="#A80036" points="206.5,509.699,210.5,500.699,206.5,504.699,202.5,500.699,206.5,509.699" style="stroke:#A80036;stroke-width:1.0;"/><!--MD5=[98d49e16161496ef01b850527c42e20c]
link TestTypeMapper to TestTypeDto--><path codeLine="161" d="M170.885,382.21 C143.08,407.8 106.421,447.428 89.5,491 C70.8506,539.023 70.878,598.33 74.3409,640.411 " fill="none" id="TestTypeMapper-to-TestTypeDto" style="stroke:#A80036;stroke-width:1.0;stroke-dasharray:7.0,7.0;"/><polygon fill="#A80036" points="74.7792,645.456,77.985,636.1435,74.3463,640.4748,70.0151,636.8361,74.7792,645.456" style="stroke:#A80036;stroke-width:1.0;"/><!--MD5=[97f7f7b4196929e1ddbc0983021b61d7]
link TestTypeDto to TestType--><path codeLine="162" d="M87.816,744.628 C101.1602,843.826 134.793,1076.346 180.5,1268 C182.427,1276.08 184.693,1284.52 187.071,1292.812 " fill="none" id="TestTypeDto-to-TestType" style="stroke:#A80036;stroke-width:1.0;stroke-dasharray:7.0,7.0;"/><polygon fill="#A80036" points="188.563,1297.951,189.8945,1288.1926,187.1687,1293.1494,182.2119,1290.4235,188.563,1297.951" style="stroke:#A80036;stroke-width:1.0;"/><!--MD5=[d25d6c98c8c68b348c843183aefe7e56]
link ClientMapper to ClientStore--><path codeLine="164" d="M1283.5,382.13 C1283.5,415.407 1283.5,469.356 1283.5,504.634 " fill="none" id="ClientMapper-to-ClientStore" style="stroke:#A80036;stroke-width:1.0;stroke-dasharray:7.0,7.0;"/><polygon fill="#A80036" points="1283.5,509.699,1287.5,500.699,1283.5,504.699,1279.5,500.699,1283.5,509.699" style="stroke:#A80036;stroke-width:1.0;"/><!--MD5=[2372c001abf21b3b2df79a55ac61b7a2]
link ClientMapper to ClientDto--><path codeLine="165" d="M1321.42,382.18 C1350.9,407.61 1389.96,447.036 1409.5,491 C1426.57,529.405 1432.11,575.826 1433.14,614.579 " fill="none" id="ClientMapper-to-ClientDto" style="stroke:#A80036;stroke-width:1.0;stroke-dasharray:7.0,7.0;"/><polygon fill="#A80036" points="1433.26,619.751,1437.0637,610.6663,1433.1515,614.7522,1429.0656,610.84,1433.26,619.751" style="stroke:#A80036;stroke-width:1.0;"/><!--MD5=[23dbc5c50102548fffdec8e5d5c1b7ba]
link ClientDto to Client--><path codeLine="166" d="M1405.06,770.065 C1379.32,848.102 1338.82,970.848 1311.72,1052.96 " fill="none" id="ClientDto-to-Client" style="stroke:#A80036;stroke-width:1.0;stroke-dasharray:7.0,7.0;"/><polygon fill="#A80036" points="1310.12,1057.818,1316.7417,1050.5274,1311.6887,1053.0705,1309.1456,1048.0175,1310.12,1057.818" style="stroke:#A80036;stroke-width:1.0;"/><!--MD5=[310e85849b065df20736ccc116ed909e]
link ParameterMapper to ParameterDto--><path codeLine="168" d="M1047.61,382.25 C1059.96,409.79 1077.17,452.202 1085.5,491 C1118.66,645.509 1119.94,833.44 1118.2,923.842 " fill="none" id="ParameterMapper-to-ParameterDto" style="stroke:#A80036;stroke-width:1.0;stroke-dasharray:7.0,7.0;"/><polygon fill="#A80036" points="1118.1,928.864,1122.2817,919.947,1118.2014,923.865,1114.2834,919.7847,1118.1,928.864" style="stroke:#A80036;stroke-width:1.0;"/><!--MD5=[13561adf99777c4c8e9b8e925688a035]
link ParameterDto to Parameter--><path codeLine="169" d="M1098.72,1028.329 C1073.96,1096.34 1029.11,1219.493 1002.344,1293.009 " fill="none" id="ParameterDto-to-Parameter" style="stroke:#A80036;stroke-width:1.0;stroke-dasharray:7.0,7.0;"/><polygon fill="#A80036" points="1000.607,1297.779,1007.4445,1290.6903,1002.3174,1293.0807,999.9271,1287.9536,1000.607,1297.779" style="stroke:#A80036;stroke-width:1.0;"/><!--MD5=[5ae44b66f61d9cfc1385f886526242e9]
link ParameterMapper to ParameterStore--><path codeLine="170" d="M1025.1,382.13 C1015.67,415.407 1000.38,469.356 990.382,504.634 " fill="none" id="ParameterMapper-to-ParameterStore" style="stroke:#A80036;stroke-width:1.0;stroke-dasharray:7.0,7.0;"/><polygon fill="#A80036" points="988.946,509.699,995.25,502.132,990.3104,504.8887,987.5536,499.9491,988.946,509.699" style="stroke:#A80036;stroke-width:1.0;"/><!--MD5=[4044ad5d328393d45d425eddc09c2feb]
@startuml
skinparam classAttributeIconSize 0





class Test {
  -long tinNumber
  -long nhsCode
  -LabOrder labOrder
  +TestType(tinNumber, nhsCode, labOrder)
}

class TestTypeStore{
 +getTestTypeByCode(testType)
}

class ClientStore{
 +getClientByTinNumber(tinNumber)
}

class ParameterStore{
 +getParameterByCode(pars)
}

class LabOrderStore{
  createLabOrder(tt,par)
}

class LabOrder{
  LabOrder(tt,par)
}


class TestStore{
   +createTestType(description, collectingMethod, code, cat)
   +validateTestType(tt)
   +addTestType(tt)
   +saveTestType(tt)
   }

class TestType {
  -String code
  -String description
  -String collectingMethod
  -List<ParameterCategory> parameterCategory
  +tt(code, description, collectingMethod, parameterCategory)
}

class Client {
  -long ccn
  -long nhs
  -String birth
  -String sex
  -long tif
  -String email
  -String name
  -long phoneNumber
  +Client(ccn, nhs, birth, sex, tif, email, name, phoneNumber)
}


class Parameter {
  -String code
  -String shortName
  -String descriptionName
  -List<ParameterCategory> parameterCategory
  +par(code, shortName, descriptionName, parameterCategory)
}



class Company {
  -String designation
  +getParameterStore()
  +getTestTypeStore()
  +getClientStore()
  +getTestStore()
  +getLabOrderStore()
}


class TestController {
    +getTestTypeStore()
    +getClientStore()
    +getParameterStore()
    +createTest(tinNumber, nhsCode, labOrder)
    +saveTest()
}


class TestUI {

}

class TestTypeMapper{
+toDto()
}

class ClientMapper{
+toDto()
}

class ParameterMapper{
+toDto()
}


class TestTypeDto{
-String code
-String description
-String collectingMethod
+TestTypeDto(listPC)
}

class ClientDto{
-long ccn
-long nhs
-String birth
-String sex
-long tif
-String email
-String name
-long phoneNumber
}


class ParameterDto{
-String code
-String shortName
-String descriptionName
+ParameterDto(category)
}

TestUI ..> TestController
TestController ..> TestStore
TestController ..> Company
TestController ..> TestTypeStore
TestController ..> TestTypeMapper
TestController ..> ClientStore
TestController ..> ClientMapper
TestController ..> ParameterStore
TestController ..> ParameterMapper
TestController ..> LabOrderStore
LabOrderStore ..> LabOrder
Company "1" - -> "1" TestStore: uses
Company "1" - -> "1" TestTypeStore: uses
Company "1" - -> "1" ClientStore: uses
Company "1" - -> "1" ParameterStore: uses
Company "1" - -> "1" LabOrderStore: uses
TestStore "1" - -> "1..*" Test: conducts
LabOrder "1" - -> "1" TestType: has a set of
Test "1" - -> "1" Client: has a set of
Test "1" - -> "1..*" LabOrder: has a set of
LabOrder "1" - -> "1..*" Parameter: has a set of
TestTypeStore "1" -> "*" TestType: adopts
ClientStore "1" -> "*" Client: adopts
ParameterStore "1" -> "*" Parameter: adopts

TestTypeMapper ..> TestTypeStore
TestTypeMapper ..> TestTypeDto
TestTypeDto ..> TestType

ClientMapper ..> ClientStore
ClientMapper ..> ClientDto
ClientDto ..> Client

ParameterMapper ..> ParameterDto
ParameterDto ..> Parameter
ParameterMapper ..> ParameterStore
@enduml

PlantUML version 1.2021.7(Sun May 23 12:40:07 UTC 2021)
(GPL source distribution)
Java Runtime: Java(TM) SE Runtime Environment
JVM: Java HotSpot(TM) 64-Bit Server VM
Default Encoding: UTF-8
Language: en
Country: US
--></g></svg>