<?xml version="1.0" encoding="UTF-8" standalone="no"?><svg xmlns="http://www.w3.org/2000/svg" xmlns:xlink="http://www.w3.org/1999/xlink" contentScriptType="application/ecmascript" contentStyleType="text/css" height="1929px" preserveAspectRatio="none" style="width:2947px;height:1929px;background:#FFFFFF;" version="1.1" viewBox="0 0 2947 1929" width="2947px" zoomAndPan="magnify"><defs><filter height="300%" id="fev6n8r36w38d" width="300%" x="-1" y="-1"><feGaussianBlur result="blurOut" stdDeviation="2.0"/><feColorMatrix in="blurOut" result="blurOut2" type="matrix" values="0 0 0 0 0 0 0 0 0 0 0 0 0 0 0 0 0 0 .4 0"/><feOffset dx="4.0" dy="4.0" in="blurOut2" result="blurOut3"/><feBlend in="SourceGraphic" in2="blurOut3" mode="normal"/></filter></defs><g><rect fill="#FFFFFF" filter="url(#fev6n8r36w38d)" height="1738.1016" style="stroke:#A80036;stroke-width:1.0;" width="10" x="49.5" y="98.2969"/><rect fill="#FFFFFF" filter="url(#fev6n8r36w38d)" height="29.1328" style="stroke:#A80036;stroke-width:1.0;" width="10" x="576.5" y="119.4297"/><rect fill="#FFFFFF" filter="url(#fev6n8r36w38d)" height="235.6641" style="stroke:#A80036;stroke-width:1.0;" width="10" x="576.5" y="177.6953"/><rect fill="#FFFFFF" filter="url(#fev6n8r36w38d)" height="235.6641" style="stroke:#A80036;stroke-width:1.0;" width="10" x="576.5" y="442.4922"/><rect fill="#FFFFFF" filter="url(#fev6n8r36w38d)" height="235.6641" style="stroke:#A80036;stroke-width:1.0;" width="10" x="576.5" y="707.2891"/><rect fill="#FFFFFF" filter="url(#fev6n8r36w38d)" height="594.5156" style="stroke:#A80036;stroke-width:1.0;" width="10" x="576.5" y="972.0859"/><rect fill="#FFFFFF" filter="url(#fev6n8r36w38d)" height="231.6641" style="stroke:#A80036;stroke-width:1.0;" width="10" x="576.5" y="1595.7344"/><rect fill="#FFFFFF" filter="url(#fev6n8r36w38d)" height="177.3984" style="stroke:#A80036;stroke-width:1.0;" width="10" x="900.5" y="206.8281"/><rect fill="#FFFFFF" filter="url(#fev6n8r36w38d)" height="177.3984" style="stroke:#A80036;stroke-width:1.0;" width="10" x="900.5" y="471.625"/><rect fill="#FFFFFF" filter="url(#fev6n8r36w38d)" height="177.3984" style="stroke:#A80036;stroke-width:1.0;" width="10" x="900.5" y="736.4219"/><rect fill="#FFFFFF" filter="url(#fev6n8r36w38d)" height="536.25" style="stroke:#A80036;stroke-width:1.0;" width="10" x="900.5" y="1001.2188"/><rect fill="#FFFFFF" filter="url(#fev6n8r36w38d)" height="166.3984" style="stroke:#A80036;stroke-width:1.0;" width="10" x="900.5" y="1624.8672"/><rect fill="#FFFFFF" filter="url(#fev6n8r36w38d)" height="30" style="stroke:#A80036;stroke-width:1.0;" width="10" x="1204.5" y="235.9609"/><rect fill="#FFFFFF" filter="url(#fev6n8r36w38d)" height="30" style="stroke:#A80036;stroke-width:1.0;" width="10" x="1204.5" y="500.7578"/><rect fill="#FFFFFF" filter="url(#fev6n8r36w38d)" height="30" style="stroke:#A80036;stroke-width:1.0;" width="10" x="1204.5" y="765.5547"/><rect fill="#FFFFFF" filter="url(#fev6n8r36w38d)" height="30" style="stroke:#A80036;stroke-width:1.0;" width="10" x="1204.5" y="1207.75"/><rect fill="#FFFFFF" filter="url(#fev6n8r36w38d)" height="30" style="stroke:#A80036;stroke-width:1.0;" width="10" x="1204.5" y="1357.6094"/><rect fill="#FFFFFF" filter="url(#fev6n8r36w38d)" height="30" style="stroke:#A80036;stroke-width:1.0;" width="10" x="1325.5" y="295.0938"/><rect fill="#FFFFFF" filter="url(#fev6n8r36w38d)" height="30" style="stroke:#A80036;stroke-width:1.0;" width="10" x="1325.5" y="1030.3516"/><rect fill="#FFFFFF" filter="url(#fev6n8r36w38d)" height="30" style="stroke:#A80036;stroke-width:1.0;" width="10" x="1485" y="354.2266"/><rect fill="#FFFFFF" filter="url(#fev6n8r36w38d)" height="30" style="stroke:#A80036;stroke-width:1.0;" width="10" x="1632" y="559.8906"/><rect fill="#FFFFFF" filter="url(#fev6n8r36w38d)" height="30" style="stroke:#A80036;stroke-width:1.0;" width="10" x="1632" y="1089.4844"/><rect fill="#FFFFFF" filter="url(#fev6n8r36w38d)" height="30" style="stroke:#A80036;stroke-width:1.0;" width="10" x="1766.5" y="619.0234"/><rect fill="#FFFFFF" filter="url(#fev6n8r36w38d)" height="30" style="stroke:#A80036;stroke-width:1.0;" width="10" x="1917.5" y="824.6875"/><rect fill="#FFFFFF" filter="url(#fev6n8r36w38d)" height="30" style="stroke:#A80036;stroke-width:1.0;" width="10" x="1917.5" y="1148.6172"/><rect fill="#FFFFFF" filter="url(#fev6n8r36w38d)" height="30" style="stroke:#A80036;stroke-width:1.0;" width="10" x="2085" y="883.8203"/><rect fill="#FFFFFF" filter="url(#fev6n8r36w38d)" height="29.1328" style="stroke:#A80036;stroke-width:1.0;" width="10" x="2248" y="1266.8828"/><rect fill="#FFFFFF" filter="url(#fev6n8r36w38d)" height="29.1328" style="stroke:#A80036;stroke-width:1.0;" width="10" x="2470.5" y="1416.7422"/><rect fill="#FFFFFF" filter="url(#fev6n8r36w38d)" height="30" style="stroke:#A80036;stroke-width:1.0;" width="10" x="2470.5" y="1507.4688"/><rect fill="#FFFFFF" filter="url(#fev6n8r36w38d)" height="137.2656" style="stroke:#A80036;stroke-width:1.0;" width="10" x="2470.5" y="1654"/><rect fill="#FFFFFF" filter="url(#fev6n8r36w38d)" height="28" style="stroke:#A80036;stroke-width:1.0;" width="10" x="2475.5" y="1691.1328"/><rect fill="#FFFFFF" filter="url(#fev6n8r36w38d)" height="28" style="stroke:#A80036;stroke-width:1.0;" width="10" x="2475.5" y="1763.2656"/><line style="stroke:#A80036;stroke-width:1.0;stroke-dasharray:5.0,5.0;" x1="54" x2="54" y1="88.2969" y2="1845.3984"/><line style="stroke:#A80036;stroke-width:1.0;stroke-dasharray:5.0,5.0;" x1="581.5" x2="581.5" y1="88.2969" y2="1845.3984"/><line style="stroke:#A80036;stroke-width:1.0;stroke-dasharray:5.0,5.0;" x1="905.5" x2="905.5" y1="88.2969" y2="1845.3984"/><line style="stroke:#A80036;stroke-width:1.0;stroke-dasharray:5.0,5.0;" x1="1209" x2="1209" y1="88.2969" y2="1845.3984"/><line style="stroke:#A80036;stroke-width:1.0;stroke-dasharray:5.0,5.0;" x1="1330" x2="1330" y1="88.2969" y2="1845.3984"/><line style="stroke:#A80036;stroke-width:1.0;stroke-dasharray:5.0,5.0;" x1="1490" x2="1490" y1="88.2969" y2="1845.3984"/><line style="stroke:#A80036;stroke-width:1.0;stroke-dasharray:5.0,5.0;" x1="1637" x2="1637" y1="88.2969" y2="1845.3984"/><line style="stroke:#A80036;stroke-width:1.0;stroke-dasharray:5.0,5.0;" x1="1771" x2="1771" y1="88.2969" y2="1845.3984"/><line style="stroke:#A80036;stroke-width:1.0;stroke-dasharray:5.0,5.0;" x1="1922" x2="1922" y1="88.2969" y2="1845.3984"/><line style="stroke:#A80036;stroke-width:1.0;stroke-dasharray:5.0,5.0;" x1="2090" x2="2090" y1="88.2969" y2="1845.3984"/><line style="stroke:#A80036;stroke-width:1.0;stroke-dasharray:5.0,5.0;" x1="2253" x2="2253" y1="88.2969" y2="1845.3984"/><line style="stroke:#A80036;stroke-width:1.0;stroke-dasharray:5.0,5.0;" x1="2373" x2="2373" y1="88.2969" y2="1845.3984"/><line style="stroke:#A80036;stroke-width:1.0;stroke-dasharray:5.0,5.0;" x1="2475" x2="2475" y1="88.2969" y2="1845.3984"/><line style="stroke:#A80036;stroke-width:1.0;stroke-dasharray:5.0,5.0;" x1="2801.5" x2="2801.5" y1="1465.5391" y2="1845.3984"/><line style="stroke:#A80036;stroke-width:1.0;stroke-dasharray:5.0,5.0;" x1="2888.5" x2="2888.5" y1="1315.6797" y2="1845.3984"/><text fill="#000000" font-family="sans-serif" font-size="14" lengthAdjust="spacing" textLength="93" x="5" y="84.9951">Receptionist</text><ellipse cx="54.5" cy="15" fill="#FEFECE" filter="url(#fev6n8r36w38d)" rx="8" ry="8" style="stroke:#A80036;stroke-width:2.0;"/><path d="M54.5,23 L54.5,50 M41.5,31 L67.5,31 M54.5,50 L41.5,65 M54.5,50 L67.5,65 " fill="none" filter="url(#fev6n8r36w38d)" style="stroke:#A80036;stroke-width:2.0;"/><text fill="#000000" font-family="sans-serif" font-size="14" lengthAdjust="spacing" textLength="93" x="5" y="1857.3936">Receptionist</text><ellipse cx="54.5" cy="1870.6953" fill="#FEFECE" filter="url(#fev6n8r36w38d)" rx="8" ry="8" style="stroke:#A80036;stroke-width:2.0;"/><path d="M54.5,1878.6953 L54.5,1905.6953 M41.5,1886.6953 L67.5,1886.6953 M54.5,1905.6953 L41.5,1920.6953 M54.5,1905.6953 L67.5,1920.6953 " fill="none" filter="url(#fev6n8r36w38d)" style="stroke:#A80036;stroke-width:2.0;"/><rect fill="#FEFECE" filter="url(#fev6n8r36w38d)" height="30.2969" style="stroke:#A80036;stroke-width:1.5;" width="64" x="547.5" y="53"/><text fill="#000000" font-family="sans-serif" font-size="14" lengthAdjust="spacing" textLength="50" x="554.5" y="72.9951">:TestUI</text><rect fill="#FEFECE" filter="url(#fev6n8r36w38d)" height="30.2969" style="stroke:#A80036;stroke-width:1.5;" width="64" x="547.5" y="1844.3984"/><text fill="#000000" font-family="sans-serif" font-size="14" lengthAdjust="spacing" textLength="50" x="554.5" y="1864.3936">:TestUI</text><rect fill="#FEFECE" filter="url(#fev6n8r36w38d)" height="30.2969" style="stroke:#A80036;stroke-width:1.5;" width="170" x="818.5" y="53"/><text fill="#000000" font-family="sans-serif" font-size="14" lengthAdjust="spacing" textLength="156" x="825.5" y="72.9951">:RegistTestController</text><rect fill="#FEFECE" filter="url(#fev6n8r36w38d)" height="30.2969" style="stroke:#A80036;stroke-width:1.5;" width="170" x="818.5" y="1844.3984"/><text fill="#000000" font-family="sans-serif" font-size="14" lengthAdjust="spacing" textLength="156" x="825.5" y="1864.3936">:RegistTestController</text><rect fill="#FEFECE" filter="url(#fev6n8r36w38d)" height="30.2969" style="stroke:#A80036;stroke-width:1.5;" width="87" x="1164" y="53"/><text fill="#000000" font-family="sans-serif" font-size="14" lengthAdjust="spacing" textLength="73" x="1171" y="72.9951">:Company</text><rect fill="#FEFECE" filter="url(#fev6n8r36w38d)" height="30.2969" style="stroke:#A80036;stroke-width:1.5;" width="87" x="1164" y="1844.3984"/><text fill="#000000" font-family="sans-serif" font-size="14" lengthAdjust="spacing" textLength="73" x="1171" y="1864.3936">:Company</text><rect fill="#FEFECE" filter="url(#fev6n8r36w38d)" height="46.5938" style="stroke:#A80036;stroke-width:1.5;" width="127" x="1265" y="36.7031"/><text fill="#000000" font-family="sans-serif" font-size="14" lengthAdjust="spacing" textLength="54" x="1301.5" y="56.6982">ttStore</text><text fill="#000000" font-family="sans-serif" font-size="14" lengthAdjust="spacing" textLength="113" x="1272" y="72.9951">:TestTypeStore</text><rect fill="#FEFECE" filter="url(#fev6n8r36w38d)" height="46.5938" style="stroke:#A80036;stroke-width:1.5;" width="127" x="1265" y="1844.3984"/><text fill="#000000" font-family="sans-serif" font-size="14" lengthAdjust="spacing" textLength="54" x="1301.5" y="1864.3936">ttStore</text><text fill="#000000" font-family="sans-serif" font-size="14" lengthAdjust="spacing" textLength="113" x="1272" y="1880.6904">:TestTypeStore</text><rect fill="#FEFECE" filter="url(#fev6n8r36w38d)" height="30.2969" style="stroke:#A80036;stroke-width:1.5;" width="164" x="1406" y="53"/><text fill="#000000" font-family="sans-serif" font-size="14" lengthAdjust="spacing" textLength="150" x="1413" y="72.9951">:listTestTypeMapper</text><rect fill="#FEFECE" filter="url(#fev6n8r36w38d)" height="30.2969" style="stroke:#A80036;stroke-width:1.5;" width="164" x="1406" y="1844.3984"/><text fill="#000000" font-family="sans-serif" font-size="14" lengthAdjust="spacing" textLength="150" x="1413" y="1864.3936">:listTestTypeMapper</text><rect fill="#FEFECE" filter="url(#fev6n8r36w38d)" height="46.5938" style="stroke:#A80036;stroke-width:1.5;" width="102" x="1584" y="36.7031"/><text fill="#000000" font-family="sans-serif" font-size="14" lengthAdjust="spacing" textLength="48" x="1611" y="56.6982">cStore</text><text fill="#000000" font-family="sans-serif" font-size="14" lengthAdjust="spacing" textLength="88" x="1591" y="72.9951">:ClientStore</text><rect fill="#FEFECE" filter="url(#fev6n8r36w38d)" height="46.5938" style="stroke:#A80036;stroke-width:1.5;" width="102" x="1584" y="1844.3984"/><text fill="#000000" font-family="sans-serif" font-size="14" lengthAdjust="spacing" textLength="48" x="1611" y="1864.3936">cStore</text><text fill="#000000" font-family="sans-serif" font-size="14" lengthAdjust="spacing" textLength="88" x="1591" y="1880.6904">:ClientStore</text><rect fill="#FEFECE" filter="url(#fev6n8r36w38d)" height="30.2969" style="stroke:#A80036;stroke-width:1.5;" width="139" x="1700" y="53"/><text fill="#000000" font-family="sans-serif" font-size="14" lengthAdjust="spacing" textLength="125" x="1707" y="72.9951">:listClientMapper</text><rect fill="#FEFECE" filter="url(#fev6n8r36w38d)" height="30.2969" style="stroke:#A80036;stroke-width:1.5;" width="139" x="1700" y="1844.3984"/><text fill="#000000" font-family="sans-serif" font-size="14" lengthAdjust="spacing" textLength="125" x="1707" y="1864.3936">:listClientMapper</text><rect fill="#FEFECE" filter="url(#fev6n8r36w38d)" height="46.5938" style="stroke:#A80036;stroke-width:1.5;" width="135" x="1853" y="36.7031"/><text fill="#000000" font-family="sans-serif" font-size="14" lengthAdjust="spacing" textLength="50" x="1895.5" y="56.6982">pStore</text><text fill="#000000" font-family="sans-serif" font-size="14" lengthAdjust="spacing" textLength="121" x="1860" y="72.9951">:ParameterStore</text><rect fill="#FEFECE" filter="url(#fev6n8r36w38d)" height="46.5938" style="stroke:#A80036;stroke-width:1.5;" width="135" x="1853" y="1844.3984"/><text fill="#000000" font-family="sans-serif" font-size="14" lengthAdjust="spacing" textLength="50" x="1895.5" y="1864.3936">pStore</text><text fill="#000000" font-family="sans-serif" font-size="14" lengthAdjust="spacing" textLength="121" x="1860" y="1880.6904">:ParameterStore</text><rect fill="#FEFECE" filter="url(#fev6n8r36w38d)" height="30.2969" style="stroke:#A80036;stroke-width:1.5;" width="172" x="2002" y="53"/><text fill="#000000" font-family="sans-serif" font-size="14" lengthAdjust="spacing" textLength="158" x="2009" y="72.9951">:listParameterMapper</text><rect fill="#FEFECE" filter="url(#fev6n8r36w38d)" height="30.2969" style="stroke:#A80036;stroke-width:1.5;" width="172" x="2002" y="1844.3984"/><text fill="#000000" font-family="sans-serif" font-size="14" lengthAdjust="spacing" textLength="158" x="2009" y="1864.3936">:listParameterMapper</text><rect fill="#FEFECE" filter="url(#fev6n8r36w38d)" height="46.5938" style="stroke:#A80036;stroke-width:1.5;" width="126" x="2188" y="36.7031"/><text fill="#000000" font-family="sans-serif" font-size="14" lengthAdjust="spacing" textLength="49" x="2226.5" y="56.6982">:lStore</text><text fill="#000000" font-family="sans-serif" font-size="14" lengthAdjust="spacing" textLength="112" x="2195" y="72.9951">:LabOrderStore</text><rect fill="#FEFECE" filter="url(#fev6n8r36w38d)" height="46.5938" style="stroke:#A80036;stroke-width:1.5;" width="126" x="2188" y="1844.3984"/><text fill="#000000" font-family="sans-serif" font-size="14" lengthAdjust="spacing" textLength="49" x="2226.5" y="1864.3936">:lStore</text><text fill="#000000" font-family="sans-serif" font-size="14" lengthAdjust="spacing" textLength="112" x="2195" y="1880.6904">:LabOrderStore</text><rect fill="#FEFECE" filter="url(#fev6n8r36w38d)" height="30.2969" style="stroke:#A80036;stroke-width:1.5;" width="86" x="2328" y="53"/><text fill="#000000" font-family="sans-serif" font-size="14" lengthAdjust="spacing" textLength="72" x="2335" y="72.9951">:LabOrder</text><rect fill="#FEFECE" filter="url(#fev6n8r36w38d)" height="30.2969" style="stroke:#A80036;stroke-width:1.5;" width="86" x="2328" y="1844.3984"/><text fill="#000000" font-family="sans-serif" font-size="14" lengthAdjust="spacing" textLength="72" x="2335" y="1864.3936">:LabOrder</text><rect fill="#FEFECE" filter="url(#fev6n8r36w38d)" height="46.5938" style="stroke:#A80036;stroke-width:1.5;" width="91" x="2428" y="36.7031"/><text fill="#000000" font-family="sans-serif" font-size="14" lengthAdjust="spacing" textLength="47" x="2450" y="56.6982">tStore</text><text fill="#000000" font-family="sans-serif" font-size="14" lengthAdjust="spacing" textLength="77" x="2435" y="72.9951">:TestStore</text><rect fill="#FEFECE" filter="url(#fev6n8r36w38d)" height="46.5938" style="stroke:#A80036;stroke-width:1.5;" width="91" x="2428" y="1844.3984"/><text fill="#000000" font-family="sans-serif" font-size="14" lengthAdjust="spacing" textLength="47" x="2450" y="1864.3936">tStore</text><text fill="#000000" font-family="sans-serif" font-size="14" lengthAdjust="spacing" textLength="77" x="2435" y="1880.6904">:TestStore</text><rect fill="#FEFECE" filter="url(#fev6n8r36w38d)" height="46.5938" style="stroke:#A80036;stroke-width:1.5;" width="51" x="2774.5" y="1844.3984"/><text fill="#000000" font-family="sans-serif" font-size="14" lengthAdjust="spacing" textLength="7" x="2796.5" y="1864.3936">t</text><text fill="#000000" font-family="sans-serif" font-size="14" lengthAdjust="spacing" textLength="37" x="2781.5" y="1880.6904">:Test</text><rect fill="#FEFECE" filter="url(#fev6n8r36w38d)" height="46.5938" style="stroke:#A80036;stroke-width:1.5;" width="94" x="2839.5" y="1844.3984"/><text fill="#000000" font-family="sans-serif" font-size="14" lengthAdjust="spacing" textLength="63" x="2855" y="1864.3936">labOrder</text><text fill="#000000" font-family="sans-serif" font-size="14" lengthAdjust="spacing" textLength="76" x="2850.5" y="1880.6904">: LabOrder</text><rect fill="#FFFFFF" filter="url(#fev6n8r36w38d)" height="1738.1016" style="stroke:#A80036;stroke-width:1.0;" width="10" x="49.5" y="98.2969"/><rect fill="#FFFFFF" filter="url(#fev6n8r36w38d)" height="29.1328" style="stroke:#A80036;stroke-width:1.0;" width="10" x="576.5" y="119.4297"/><rect fill="#FFFFFF" filter="url(#fev6n8r36w38d)" height="235.6641" style="stroke:#A80036;stroke-width:1.0;" width="10" x="576.5" y="177.6953"/><rect fill="#FFFFFF" filter="url(#fev6n8r36w38d)" height="235.6641" style="stroke:#A80036;stroke-width:1.0;" width="10" x="576.5" y="442.4922"/><rect fill="#FFFFFF" filter="url(#fev6n8r36w38d)" height="235.6641" style="stroke:#A80036;stroke-width:1.0;" width="10" x="576.5" y="707.2891"/><rect fill="#FFFFFF" filter="url(#fev6n8r36w38d)" height="594.5156" style="stroke:#A80036;stroke-width:1.0;" width="10" x="576.5" y="972.0859"/><rect fill="#FFFFFF" filter="url(#fev6n8r36w38d)" height="231.6641" style="stroke:#A80036;stroke-width:1.0;" width="10" x="576.5" y="1595.7344"/><rect fill="#FFFFFF" filter="url(#fev6n8r36w38d)" height="177.3984" style="stroke:#A80036;stroke-width:1.0;" width="10" x="900.5" y="206.8281"/><rect fill="#FFFFFF" filter="url(#fev6n8r36w38d)" height="177.3984" style="stroke:#A80036;stroke-width:1.0;" width="10" x="900.5" y="471.625"/><rect fill="#FFFFFF" filter="url(#fev6n8r36w38d)" height="177.3984" style="stroke:#A80036;stroke-width:1.0;" width="10" x="900.5" y="736.4219"/><rect fill="#FFFFFF" filter="url(#fev6n8r36w38d)" height="536.25" style="stroke:#A80036;stroke-width:1.0;" width="10" x="900.5" y="1001.2188"/><rect fill="#FFFFFF" filter="url(#fev6n8r36w38d)" height="166.3984" style="stroke:#A80036;stroke-width:1.0;" width="10" x="900.5" y="1624.8672"/><rect fill="#FFFFFF" filter="url(#fev6n8r36w38d)" height="30" style="stroke:#A80036;stroke-width:1.0;" width="10" x="1204.5" y="235.9609"/><rect fill="#FFFFFF" filter="url(#fev6n8r36w38d)" height="30" style="stroke:#A80036;stroke-width:1.0;" width="10" x="1204.5" y="500.7578"/><rect fill="#FFFFFF" filter="url(#fev6n8r36w38d)" height="30" style="stroke:#A80036;stroke-width:1.0;" width="10" x="1204.5" y="765.5547"/><rect fill="#FFFFFF" filter="url(#fev6n8r36w38d)" height="30" style="stroke:#A80036;stroke-width:1.0;" width="10" x="1204.5" y="1207.75"/><rect fill="#FFFFFF" filter="url(#fev6n8r36w38d)" height="30" style="stroke:#A80036;stroke-width:1.0;" width="10" x="1204.5" y="1357.6094"/><rect fill="#FFFFFF" filter="url(#fev6n8r36w38d)" height="30" style="stroke:#A80036;stroke-width:1.0;" width="10" x="1325.5" y="295.0938"/><rect fill="#FFFFFF" filter="url(#fev6n8r36w38d)" height="30" style="stroke:#A80036;stroke-width:1.0;" width="10" x="1325.5" y="1030.3516"/><rect fill="#FFFFFF" filter="url(#fev6n8r36w38d)" height="30" style="stroke:#A80036;stroke-width:1.0;" width="10" x="1485" y="354.2266"/><rect fill="#FFFFFF" filter="url(#fev6n8r36w38d)" height="30" style="stroke:#A80036;stroke-width:1.0;" width="10" x="1632" y="559.8906"/><rect fill="#FFFFFF" filter="url(#fev6n8r36w38d)" height="30" style="stroke:#A80036;stroke-width:1.0;" width="10" x="1632" y="1089.4844"/><rect fill="#FFFFFF" filter="url(#fev6n8r36w38d)" height="30" style="stroke:#A80036;stroke-width:1.0;" width="10" x="1766.5" y="619.0234"/><rect fill="#FFFFFF" filter="url(#fev6n8r36w38d)" height="30" style="stroke:#A80036;stroke-width:1.0;" width="10" x="1917.5" y="824.6875"/><rect fill="#FFFFFF" filter="url(#fev6n8r36w38d)" height="30" style="stroke:#A80036;stroke-width:1.0;" width="10" x="1917.5" y="1148.6172"/><rect fill="#FFFFFF" filter="url(#fev6n8r36w38d)" height="30" style="stroke:#A80036;stroke-width:1.0;" width="10" x="2085" y="883.8203"/><rect fill="#FFFFFF" filter="url(#fev6n8r36w38d)" height="29.1328" style="stroke:#A80036;stroke-width:1.0;" width="10" x="2248" y="1266.8828"/><rect fill="#FFFFFF" filter="url(#fev6n8r36w38d)" height="29.1328" style="stroke:#A80036;stroke-width:1.0;" width="10" x="2470.5" y="1416.7422"/><rect fill="#FFFFFF" filter="url(#fev6n8r36w38d)" height="30" style="stroke:#A80036;stroke-width:1.0;" width="10" x="2470.5" y="1507.4688"/><rect fill="#FFFFFF" filter="url(#fev6n8r36w38d)" height="137.2656" style="stroke:#A80036;stroke-width:1.0;" width="10" x="2470.5" y="1654"/><rect fill="#FFFFFF" filter="url(#fev6n8r36w38d)" height="28" style="stroke:#A80036;stroke-width:1.0;" width="10" x="2475.5" y="1691.1328"/><rect fill="#FFFFFF" filter="url(#fev6n8r36w38d)" height="28" style="stroke:#A80036;stroke-width:1.0;" width="10" x="2475.5" y="1763.2656"/><polygon fill="#A80036" points="564.5,115.4297,574.5,119.4297,564.5,123.4297,568.5,119.4297" style="stroke:#A80036;stroke-width:1.0;"/><line style="stroke:#A80036;stroke-width:1.0;" x1="59.5" x2="570.5" y1="119.4297" y2="119.4297"/><text fill="#000000" font-family="sans-serif" font-size="13" font-weight="bold" lengthAdjust="spacing" textLength="9" x="66.5" y="114.3638">1</text><text fill="#000000" font-family="sans-serif" font-size="13" lengthAdjust="spacing" textLength="285" x="79.5" y="114.3638">starts a new test to be performed to a client</text><polygon fill="#A80036" points="70.5,144.5625,60.5,148.5625,70.5,152.5625,66.5,148.5625" style="stroke:#A80036;stroke-width:1.0;"/><line style="stroke:#A80036;stroke-width:1.0;stroke-dasharray:2.0,2.0;" x1="64.5" x2="580.5" y1="148.5625" y2="148.5625"/><text fill="#000000" font-family="sans-serif" font-size="13" font-weight="bold" lengthAdjust="spacing" textLength="9" x="76.5" y="143.4966">2</text><text fill="#000000" font-family="sans-serif" font-size="13" lengthAdjust="spacing" textLength="148" x="89.5" y="143.4966">request data(nhsCode)</text><polygon fill="#A80036" points="564.5,173.6953,574.5,177.6953,564.5,181.6953,568.5,177.6953" style="stroke:#A80036;stroke-width:1.0;"/><line style="stroke:#A80036;stroke-width:1.0;" x1="59.5" x2="570.5" y1="177.6953" y2="177.6953"/><text fill="#000000" font-family="sans-serif" font-size="13" font-weight="bold" lengthAdjust="spacing" textLength="8" x="66.5" y="172.6294">3</text><text fill="#000000" font-family="sans-serif" font-size="13" lengthAdjust="spacing" textLength="138" x="78.5" y="172.6294">types requested data</text><polygon fill="#A80036" points="888.5,202.8281,898.5,206.8281,888.5,210.8281,892.5,206.8281" style="stroke:#A80036;stroke-width:1.0;"/><line style="stroke:#A80036;stroke-width:1.0;" x1="586.5" x2="894.5" y1="206.8281" y2="206.8281"/><text fill="#000000" font-family="sans-serif" font-size="13" font-weight="bold" lengthAdjust="spacing" textLength="9" x="593.5" y="201.7622">4</text><text fill="#000000" font-family="sans-serif" font-size="13" lengthAdjust="spacing" textLength="210" x="606.5" y="201.7622">listTestTypeDto = getTestType()</text><polygon fill="#A80036" points="1192.5,231.9609,1202.5,235.9609,1192.5,239.9609,1196.5,235.9609" style="stroke:#A80036;stroke-width:1.0;"/><line style="stroke:#A80036;stroke-width:1.0;" x1="910.5" x2="1198.5" y1="235.9609" y2="235.9609"/><text fill="#000000" font-family="sans-serif" font-size="13" font-weight="bold" lengthAdjust="spacing" textLength="9" x="917.5" y="230.895">5</text><text fill="#000000" font-family="sans-serif" font-size="13" lengthAdjust="spacing" textLength="237" x="930.5" y="230.895">TestTypeStore = getTestTypeStore()</text><polygon fill="#A80036" points="1313.5,291.0938,1323.5,295.0938,1313.5,299.0938,1317.5,295.0938" style="stroke:#A80036;stroke-width:1.0;"/><line style="stroke:#A80036;stroke-width:1.0;" x1="910.5" x2="1319.5" y1="295.0938" y2="295.0938"/><text fill="#000000" font-family="sans-serif" font-size="13" font-weight="bold" lengthAdjust="spacing" textLength="9" x="917.5" y="290.0278">6</text><text fill="#000000" font-family="sans-serif" font-size="13" lengthAdjust="spacing" textLength="119" x="930.5" y="290.0278">tt = getTestType()</text><polygon fill="#A80036" points="1473,350.2266,1483,354.2266,1473,358.2266,1477,354.2266" style="stroke:#A80036;stroke-width:1.0;"/><line style="stroke:#A80036;stroke-width:1.0;" x1="910.5" x2="1479" y1="354.2266" y2="354.2266"/><text fill="#000000" font-family="sans-serif" font-size="13" font-weight="bold" lengthAdjust="spacing" textLength="9" x="917.5" y="349.1606">7</text><text fill="#000000" font-family="sans-serif" font-size="13" lengthAdjust="spacing" textLength="180" x="930.5" y="349.1606">listTestTypeDto = toDTO(tt)</text><polygon fill="#A80036" points="70.5,409.3594,60.5,413.3594,70.5,417.3594,66.5,413.3594" style="stroke:#A80036;stroke-width:1.0;"/><line style="stroke:#A80036;stroke-width:1.0;stroke-dasharray:2.0,2.0;" x1="64.5" x2="580.5" y1="413.3594" y2="413.3594"/><text fill="#000000" font-family="sans-serif" font-size="13" font-weight="bold" lengthAdjust="spacing" textLength="9" x="76.5" y="408.2935">8</text><text fill="#000000" font-family="sans-serif" font-size="13" lengthAdjust="spacing" textLength="460" x="89.5" y="408.2935">shows a list of test types registered and requests to select one of them</text><polygon fill="#A80036" points="564.5,438.4922,574.5,442.4922,564.5,446.4922,568.5,442.4922" style="stroke:#A80036;stroke-width:1.0;"/><line style="stroke:#A80036;stroke-width:1.0;" x1="59.5" x2="570.5" y1="442.4922" y2="442.4922"/><text fill="#000000" font-family="sans-serif" font-size="13" font-weight="bold" lengthAdjust="spacing" textLength="9" x="66.5" y="437.4263">9</text><text fill="#000000" font-family="sans-serif" font-size="13" lengthAdjust="spacing" textLength="214" x="79.5" y="437.4263">selects a test type from the code</text><polygon fill="#A80036" points="888.5,467.625,898.5,471.625,888.5,475.625,892.5,471.625" style="stroke:#A80036;stroke-width:1.0;"/><line style="stroke:#A80036;stroke-width:1.0;" x1="586.5" x2="894.5" y1="471.625" y2="471.625"/><text fill="#000000" font-family="sans-serif" font-size="13" font-weight="bold" lengthAdjust="spacing" textLength="19" x="593.5" y="466.5591">10</text><text fill="#000000" font-family="sans-serif" font-size="13" lengthAdjust="spacing" textLength="162" x="616.5" y="466.5591">listClientDto = getClient()</text><polygon fill="#A80036" points="1192.5,496.7578,1202.5,500.7578,1192.5,504.7578,1196.5,500.7578" style="stroke:#A80036;stroke-width:1.0;"/><line style="stroke:#A80036;stroke-width:1.0;" x1="910.5" x2="1198.5" y1="500.7578" y2="500.7578"/><text fill="#000000" font-family="sans-serif" font-size="13" font-weight="bold" lengthAdjust="spacing" textLength="18" x="917.5" y="495.6919">11</text><text fill="#000000" font-family="sans-serif" font-size="13" lengthAdjust="spacing" textLength="183" x="939.5" y="495.6919">TestClient = getClientStore()</text><polygon fill="#A80036" points="1620,555.8906,1630,559.8906,1620,563.8906,1624,559.8906" style="stroke:#A80036;stroke-width:1.0;"/><line style="stroke:#A80036;stroke-width:1.0;" x1="910.5" x2="1626" y1="559.8906" y2="559.8906"/><text fill="#000000" font-family="sans-serif" font-size="13" font-weight="bold" lengthAdjust="spacing" textLength="18" x="917.5" y="554.8247">12</text><text fill="#000000" font-family="sans-serif" font-size="13" lengthAdjust="spacing" textLength="92" x="939.5" y="554.8247">c = getClient()</text><polygon fill="#A80036" points="1754.5,615.0234,1764.5,619.0234,1754.5,623.0234,1758.5,619.0234" style="stroke:#A80036;stroke-width:1.0;"/><line style="stroke:#A80036;stroke-width:1.0;" x1="910.5" x2="1760.5" y1="619.0234" y2="619.0234"/><text fill="#000000" font-family="sans-serif" font-size="13" font-weight="bold" lengthAdjust="spacing" textLength="17" x="917.5" y="613.9575">13</text><text fill="#000000" font-family="sans-serif" font-size="13" lengthAdjust="spacing" textLength="156" x="938.5" y="613.9575">listClientDto = toDTO(tt)</text><polygon fill="#A80036" points="70.5,674.1563,60.5,678.1563,70.5,682.1563,66.5,678.1563" style="stroke:#A80036;stroke-width:1.0;"/><line style="stroke:#A80036;stroke-width:1.0;stroke-dasharray:2.0,2.0;" x1="64.5" x2="580.5" y1="678.1563" y2="678.1563"/><text fill="#000000" font-family="sans-serif" font-size="13" font-weight="bold" lengthAdjust="spacing" textLength="18" x="76.5" y="673.0903">14</text><text fill="#000000" font-family="sans-serif" font-size="13" lengthAdjust="spacing" textLength="460" x="98.5" y="673.0903">shows a list of test types registered and requests to select one of them</text><polygon fill="#A80036" points="564.5,703.2891,574.5,707.2891,564.5,711.2891,568.5,707.2891" style="stroke:#A80036;stroke-width:1.0;"/><line style="stroke:#A80036;stroke-width:1.0;" x1="59.5" x2="570.5" y1="707.2891" y2="707.2891"/><text fill="#000000" font-family="sans-serif" font-size="13" font-weight="bold" lengthAdjust="spacing" textLength="18" x="66.5" y="702.2231">15</text><text fill="#000000" font-family="sans-serif" font-size="13" lengthAdjust="spacing" textLength="326" x="88.5" y="702.2231">selects a Client from the Tax Identification Number</text><polygon fill="#A80036" points="888.5,732.4219,898.5,736.4219,888.5,740.4219,892.5,736.4219" style="stroke:#A80036;stroke-width:1.0;"/><line style="stroke:#A80036;stroke-width:1.0;" x1="586.5" x2="894.5" y1="736.4219" y2="736.4219"/><text fill="#000000" font-family="sans-serif" font-size="13" font-weight="bold" lengthAdjust="spacing" textLength="18" x="593.5" y="731.356">16</text><text fill="#000000" font-family="sans-serif" font-size="13" lengthAdjust="spacing" textLength="226" x="615.5" y="731.356">listParameterDto = getParameter()</text><polygon fill="#A80036" points="1192.5,761.5547,1202.5,765.5547,1192.5,769.5547,1196.5,765.5547" style="stroke:#A80036;stroke-width:1.0;"/><line style="stroke:#A80036;stroke-width:1.0;" x1="910.5" x2="1198.5" y1="765.5547" y2="765.5547"/><text fill="#000000" font-family="sans-serif" font-size="13" font-weight="bold" lengthAdjust="spacing" textLength="18" x="917.5" y="760.4888">17</text><text fill="#000000" font-family="sans-serif" font-size="13" lengthAdjust="spacing" textLength="253" x="939.5" y="760.4888">ParameterStore = getParameterStore()</text><polygon fill="#A80036" points="1905.5,820.6875,1915.5,824.6875,1905.5,828.6875,1909.5,824.6875" style="stroke:#A80036;stroke-width:1.0;"/><line style="stroke:#A80036;stroke-width:1.0;" x1="910.5" x2="1911.5" y1="824.6875" y2="824.6875"/><text fill="#000000" font-family="sans-serif" font-size="13" font-weight="bold" lengthAdjust="spacing" textLength="18" x="917.5" y="819.6216">18</text><text fill="#000000" font-family="sans-serif" font-size="13" lengthAdjust="spacing" textLength="138" x="939.5" y="819.6216">par = getParameter()</text><polygon fill="#A80036" points="2073,879.8203,2083,883.8203,2073,887.8203,2077,883.8203" style="stroke:#A80036;stroke-width:1.0;"/><line style="stroke:#A80036;stroke-width:1.0;" x1="910.5" x2="2079" y1="883.8203" y2="883.8203"/><text fill="#000000" font-family="sans-serif" font-size="13" font-weight="bold" lengthAdjust="spacing" textLength="18" x="917.5" y="878.7544">19</text><text fill="#000000" font-family="sans-serif" font-size="13" lengthAdjust="spacing" textLength="199" x="939.5" y="878.7544">listParameterDto = toDTO(par)</text><polygon fill="#A80036" points="70.5,938.9531,60.5,942.9531,70.5,946.9531,66.5,942.9531" style="stroke:#A80036;stroke-width:1.0;"/><line style="stroke:#A80036;stroke-width:1.0;stroke-dasharray:2.0,2.0;" x1="64.5" x2="580.5" y1="942.9531" y2="942.9531"/><text fill="#000000" font-family="sans-serif" font-size="13" font-weight="bold" lengthAdjust="spacing" textLength="19" x="76.5" y="937.8872">20</text><text fill="#000000" font-family="sans-serif" font-size="13" lengthAdjust="spacing" textLength="470" x="99.5" y="937.8872">shows a list of parameters registered and requests to select one of them</text><polygon fill="#A80036" points="564.5,968.0859,574.5,972.0859,564.5,976.0859,568.5,972.0859" style="stroke:#A80036;stroke-width:1.0;"/><line style="stroke:#A80036;stroke-width:1.0;" x1="59.5" x2="570.5" y1="972.0859" y2="972.0859"/><text fill="#000000" font-family="sans-serif" font-size="13" font-weight="bold" lengthAdjust="spacing" textLength="18" x="66.5" y="967.02">21</text><text fill="#000000" font-family="sans-serif" font-size="13" lengthAdjust="spacing" textLength="224" x="88.5" y="967.02">selects a parameter from the code</text><polygon fill="#A80036" points="888.5,997.2188,898.5,1001.2188,888.5,1005.2188,892.5,1001.2188" style="stroke:#A80036;stroke-width:1.0;"/><line style="stroke:#A80036;stroke-width:1.0;" x1="586.5" x2="894.5" y1="1001.2188" y2="1001.2188"/><text fill="#000000" font-family="sans-serif" font-size="13" font-weight="bold" lengthAdjust="spacing" textLength="18" x="593.5" y="996.1528">22</text><text fill="#000000" font-family="sans-serif" font-size="13" lengthAdjust="spacing" textLength="273" x="615.5" y="996.1528">createTest(tinNumber, nhsCode, labOrder)</text><polygon fill="#A80036" points="1313.5,1026.3516,1323.5,1030.3516,1313.5,1034.3516,1317.5,1030.3516" style="stroke:#A80036;stroke-width:1.0;"/><line style="stroke:#A80036;stroke-width:1.0;" x1="910.5" x2="1319.5" y1="1030.3516" y2="1030.3516"/><text fill="#000000" font-family="sans-serif" font-size="13" font-weight="bold" lengthAdjust="spacing" textLength="17" x="917.5" y="1025.2856">23</text><text fill="#000000" font-family="sans-serif" font-size="13" lengthAdjust="spacing" textLength="225" x="938.5" y="1025.2856">tt = getTestTypeByCode(testType)</text><polygon fill="#A80036" points="1620,1085.4844,1630,1089.4844,1620,1093.4844,1624,1089.4844" style="stroke:#A80036;stroke-width:1.0;"/><line style="stroke:#A80036;stroke-width:1.0;" x1="910.5" x2="1626" y1="1089.4844" y2="1089.4844"/><text fill="#000000" font-family="sans-serif" font-size="13" font-weight="bold" lengthAdjust="spacing" textLength="18" x="917.5" y="1084.4185">24</text><text fill="#000000" font-family="sans-serif" font-size="13" lengthAdjust="spacing" textLength="245" x="939.5" y="1084.4185">c = getClientByTinNumber(tinNumber)</text><polygon fill="#A80036" points="1905.5,1144.6172,1915.5,1148.6172,1905.5,1152.6172,1909.5,1148.6172" style="stroke:#A80036;stroke-width:1.0;"/><line style="stroke:#A80036;stroke-width:1.0;" x1="910.5" x2="1911.5" y1="1148.6172" y2="1148.6172"/><text fill="#000000" font-family="sans-serif" font-size="13" font-weight="bold" lengthAdjust="spacing" textLength="18" x="917.5" y="1143.5513">25</text><text fill="#000000" font-family="sans-serif" font-size="13" lengthAdjust="spacing" textLength="215" x="939.5" y="1143.5513">par = getParameterByCode(pars)</text><polygon fill="#A80036" points="1192.5,1203.75,1202.5,1207.75,1192.5,1211.75,1196.5,1207.75" style="stroke:#A80036;stroke-width:1.0;"/><line style="stroke:#A80036;stroke-width:1.0;" x1="910.5" x2="1198.5" y1="1207.75" y2="1207.75"/><text fill="#000000" font-family="sans-serif" font-size="13" font-weight="bold" lengthAdjust="spacing" textLength="18" x="917.5" y="1202.6841">26</text><text fill="#000000" font-family="sans-serif" font-size="13" lengthAdjust="spacing" textLength="179" x="939.5" y="1202.6841">lStore = getLabOrderStore()</text><polygon fill="#A80036" points="2236,1262.8828,2246,1266.8828,2236,1270.8828,2240,1266.8828" style="stroke:#A80036;stroke-width:1.0;"/><line style="stroke:#A80036;stroke-width:1.0;" x1="910.5" x2="2242" y1="1266.8828" y2="1266.8828"/><text fill="#000000" font-family="sans-serif" font-size="13" font-weight="bold" lengthAdjust="spacing" textLength="18" x="917.5" y="1261.8169">27</text><text fill="#000000" font-family="sans-serif" font-size="13" lengthAdjust="spacing" textLength="182" x="939.5" y="1261.8169">lab = createLabOrder(tt,par)</text><polygon fill="#A80036" points="2827.5,1292.0156,2837.5,1296.0156,2827.5,1300.0156,2831.5,1296.0156" style="stroke:#A80036;stroke-width:1.0;"/><line style="stroke:#A80036;stroke-width:1.0;" x1="2253" x2="2833.5" y1="1296.0156" y2="1296.0156"/><text fill="#000000" font-family="sans-serif" font-size="13" font-weight="bold" lengthAdjust="spacing" textLength="18" x="2260" y="1290.9497">28</text><text fill="#000000" font-family="sans-serif" font-size="13" lengthAdjust="spacing" textLength="90" x="2282" y="1290.9497">create (tt,par)</text><rect fill="#FEFECE" filter="url(#fev6n8r36w38d)" height="46.5938" style="stroke:#A80036;stroke-width:1.5;" width="94" x="2839.5" y="1274.8828"/><text fill="#000000" font-family="sans-serif" font-size="14" lengthAdjust="spacing" textLength="63" x="2855" y="1294.8779">labOrder</text><text fill="#000000" font-family="sans-serif" font-size="14" lengthAdjust="spacing" textLength="76" x="2850.5" y="1311.1748">: LabOrder</text><polygon fill="#A80036" points="1192.5,1353.6094,1202.5,1357.6094,1192.5,1361.6094,1196.5,1357.6094" style="stroke:#A80036;stroke-width:1.0;"/><line style="stroke:#A80036;stroke-width:1.0;" x1="910.5" x2="1198.5" y1="1357.6094" y2="1357.6094"/><text fill="#000000" font-family="sans-serif" font-size="13" font-weight="bold" lengthAdjust="spacing" textLength="18" x="917.5" y="1352.5435">29</text><text fill="#000000" font-family="sans-serif" font-size="13" lengthAdjust="spacing" textLength="150" x="939.5" y="1352.5435">tStore = getTestStore()</text><polygon fill="#A80036" points="2458.5,1412.7422,2468.5,1416.7422,2458.5,1420.7422,2462.5,1416.7422" style="stroke:#A80036;stroke-width:1.0;"/><line style="stroke:#A80036;stroke-width:1.0;" x1="910.5" x2="2464.5" y1="1416.7422" y2="1416.7422"/><text fill="#000000" font-family="sans-serif" font-size="13" font-weight="bold" lengthAdjust="spacing" textLength="18" x="917.5" y="1411.6763">30</text><text fill="#000000" font-family="sans-serif" font-size="13" lengthAdjust="spacing" textLength="296" x="939.5" y="1411.6763">t = createTest(tinNumber, nhsCode, labOrder)</text><polygon fill="#A80036" points="2762.5,1441.875,2772.5,1445.875,2762.5,1449.875,2766.5,1445.875" style="stroke:#A80036;stroke-width:1.0;"/><line style="stroke:#A80036;stroke-width:1.0;stroke-dasharray:2.0,2.0;" x1="2475.5" x2="2768.5" y1="1445.875" y2="1445.875"/><text fill="#000000" font-family="sans-serif" font-size="13" font-weight="bold" lengthAdjust="spacing" textLength="17" x="2482.5" y="1440.8091">31</text><text fill="#000000" font-family="sans-serif" font-size="13" lengthAdjust="spacing" textLength="249" x="2503.5" y="1440.8091">create (tinNumber, nhsCode, labOrder)</text><rect fill="#FEFECE" filter="url(#fev6n8r36w38d)" height="46.5938" style="stroke:#A80036;stroke-width:1.5;" width="51" x="2774.5" y="1424.7422"/><text fill="#000000" font-family="sans-serif" font-size="14" lengthAdjust="spacing" textLength="7" x="2796.5" y="1444.7373">t</text><text fill="#000000" font-family="sans-serif" font-size="14" lengthAdjust="spacing" textLength="37" x="2781.5" y="1461.0342">:Test</text><polygon fill="#A80036" points="2458.5,1503.4688,2468.5,1507.4688,2458.5,1511.4688,2462.5,1507.4688" style="stroke:#A80036;stroke-width:1.0;"/><line style="stroke:#A80036;stroke-width:1.0;" x1="910.5" x2="2464.5" y1="1507.4688" y2="1507.4688"/><text fill="#000000" font-family="sans-serif" font-size="13" font-weight="bold" lengthAdjust="spacing" textLength="17" x="917.5" y="1502.4028">32</text><text fill="#000000" font-family="sans-serif" font-size="13" lengthAdjust="spacing" textLength="94" x="938.5" y="1502.4028">validateTest(t)</text><polygon fill="#A80036" points="70.5,1562.6016,60.5,1566.6016,70.5,1570.6016,66.5,1566.6016" style="stroke:#A80036;stroke-width:1.0;"/><line style="stroke:#A80036;stroke-width:1.0;stroke-dasharray:2.0,2.0;" x1="64.5" x2="580.5" y1="1566.6016" y2="1566.6016"/><text fill="#000000" font-family="sans-serif" font-size="13" font-weight="bold" lengthAdjust="spacing" textLength="16" x="76.5" y="1561.5356">33</text><text fill="#000000" font-family="sans-serif" font-size="13" lengthAdjust="spacing" textLength="277" x="96.5" y="1561.5356">shows all data and requests a confirmation</text><polygon fill="#A80036" points="564.5,1591.7344,574.5,1595.7344,564.5,1599.7344,568.5,1595.7344" style="stroke:#A80036;stroke-width:1.0;"/><line style="stroke:#A80036;stroke-width:1.0;" x1="59.5" x2="570.5" y1="1595.7344" y2="1595.7344"/><text fill="#000000" font-family="sans-serif" font-size="13" font-weight="bold" lengthAdjust="spacing" textLength="17" x="66.5" y="1590.6685">34</text><text fill="#000000" font-family="sans-serif" font-size="13" lengthAdjust="spacing" textLength="107" x="87.5" y="1590.6685">confirms all data</text><polygon fill="#A80036" points="888.5,1620.8672,898.5,1624.8672,888.5,1628.8672,892.5,1624.8672" style="stroke:#A80036;stroke-width:1.0;"/><line style="stroke:#A80036;stroke-width:1.0;" x1="586.5" x2="894.5" y1="1624.8672" y2="1624.8672"/><text fill="#000000" font-family="sans-serif" font-size="13" font-weight="bold" lengthAdjust="spacing" textLength="17" x="593.5" y="1619.8013">35</text><text fill="#000000" font-family="sans-serif" font-size="13" lengthAdjust="spacing" textLength="69" x="614.5" y="1619.8013">saveTest()</text><polygon fill="#A80036" points="2458.5,1650,2468.5,1654,2458.5,1658,2462.5,1654" style="stroke:#A80036;stroke-width:1.0;"/><line style="stroke:#A80036;stroke-width:1.0;" x1="910.5" x2="2464.5" y1="1654" y2="1654"/><text fill="#000000" font-family="sans-serif" font-size="13" font-weight="bold" lengthAdjust="spacing" textLength="17" x="917.5" y="1648.9341">36</text><text fill="#000000" font-family="sans-serif" font-size="13" lengthAdjust="spacing" textLength="79" x="938.5" y="1648.9341">saveTest(tt)</text><line style="stroke:#A80036;stroke-width:1.0;" x1="2485.5" x2="2527.5" y1="1683.1328" y2="1683.1328"/><line style="stroke:#A80036;stroke-width:1.0;" x1="2527.5" x2="2527.5" y1="1683.1328" y2="1696.1328"/><line style="stroke:#A80036;stroke-width:1.0;" x1="2486.5" x2="2527.5" y1="1696.1328" y2="1696.1328"/><polygon fill="#A80036" points="2496.5,1692.1328,2486.5,1696.1328,2496.5,1700.1328,2492.5,1696.1328" style="stroke:#A80036;stroke-width:1.0;"/><text fill="#000000" font-family="sans-serif" font-size="13" font-weight="bold" lengthAdjust="spacing" textLength="17" x="2492.5" y="1678.0669">37</text><text fill="#000000" font-family="sans-serif" font-size="13" lengthAdjust="spacing" textLength="99" x="2513.5" y="1678.0669">validateTest(tt)</text><line style="stroke:#A80036;stroke-width:1.0;" x1="2485.5" x2="2527.5" y1="1755.2656" y2="1755.2656"/><line style="stroke:#A80036;stroke-width:1.0;" x1="2527.5" x2="2527.5" y1="1755.2656" y2="1768.2656"/><line style="stroke:#A80036;stroke-width:1.0;" x1="2486.5" x2="2527.5" y1="1768.2656" y2="1768.2656"/><polygon fill="#A80036" points="2496.5,1764.2656,2486.5,1768.2656,2496.5,1772.2656,2492.5,1768.2656" style="stroke:#A80036;stroke-width:1.0;"/><text fill="#000000" font-family="sans-serif" font-size="13" font-weight="bold" lengthAdjust="spacing" textLength="17" x="2492.5" y="1750.1997">38</text><text fill="#000000" font-family="sans-serif" font-size="13" lengthAdjust="spacing" textLength="72" x="2513.5" y="1750.1997">addTest(tt)</text><polygon fill="#A80036" points="70.5,1823.3984,60.5,1827.3984,70.5,1831.3984,66.5,1827.3984" style="stroke:#A80036;stroke-width:1.0;"/><line style="stroke:#A80036;stroke-width:1.0;stroke-dasharray:2.0,2.0;" x1="64.5" x2="580.5" y1="1827.3984" y2="1827.3984"/><text fill="#000000" font-family="sans-serif" font-size="13" font-weight="bold" lengthAdjust="spacing" textLength="17" x="76.5" y="1822.3325">39</text><text fill="#000000" font-family="sans-serif" font-size="13" lengthAdjust="spacing" textLength="169" x="97.5" y="1822.3325">informs operation success</text><!--MD5=[9b860e490acf779f95c2701234b33933]
@startuml
actor Receptionist as Adm
participant ":TestUI" as UI
participant ":RegistTestController" as TTC
participant ":Company" as ML
participant "ttStore\n:TestTypeStore" as TTS
participant ":listTestTypeMapper" as MAP1
participant "cStore\n:ClientStore" as CS
participant ":listClientMapper" as MAP2
participant "pStore\n:ParameterStore" as PS
participant ":listParameterMapper" as MAP3
participant ":lStore\n:LabOrderStore" as LS
participant ":LabOrder" as LAB
participant "tStore\n:TestStore" as TS
participant "t\n:Test" as T
autonumber


activate Adm
Adm -> UI: starts a new test to be performed to a client
activate UI
UI - -> Adm: request data(nhsCode)
deactivate UI

Adm -> UI: types requested data
activate UI
UI->TTC: listTestTypeDto = getTestType()
activate TTC
TTC->ML: TestTypeStore = getTestTypeStore()
activate ML
deactivate ML
TTC -> TTS: tt = getTestType()
activate TTS
deactivate TTS
TTC -> MAP1: listTestTypeDto = toDTO(tt)
activate MAP1
deactivate MAP1

deactivate TTC
UI - -> Adm: shows a list of test types registered and requests to select one of them
deactivate UI

Adm -> UI: selects a test type from the code
activate UI
UI->TTC: listClientDto = getClient()
activate TTC
TTC->ML: TestClient = getClientStore()
activate ML
deactivate ML
TTC -> CS: c = getClient()
activate CS
deactivate CS
TTC -> MAP2: listClientDto = toDTO(tt)
activate MAP2
deactivate MAP2

deactivate TTC
UI - -> Adm: shows a list of test types registered and requests to select one of them
deactivate UI



Adm -> UI: selects a Client from the Tax Identification Number
activate UI
UI->TTC: listParameterDto = getParameter()
activate TTC
TTC->ML: ParameterStore = getParameterStore()
activate ML
deactivate ML
TTC -> PS: par = getParameter()
activate PS
deactivate PS
TTC -> MAP3: listParameterDto = toDTO(par)
activate MAP3
deactivate MAP3

deactivate TTC
UI - -> Adm: shows a list of parameters registered and requests to select one of them
deactivate UI

Adm -> UI: selects a parameter from the code
activate UI
UI -> TTC: createTest(tinNumber, nhsCode, labOrder)
activate TTC
TTC -> TTS: tt = getTestTypeByCode(testType)
activate TTS
deactivate TTS
TTC -> CS: c = getClientByTinNumber(tinNumber)
activate CS
deactivate CS
TTC -> PS: par = getParameterByCode(pars)
activate PS
deactivate PS
TTC -> ML: lStore = getLabOrderStore()
activate ML
deactivate ML
TTC -> LS: lab = createLabOrder(tt,par)
activate LS
create "labOrder\n : LabOrder" as LC
LS -> LC: create (tt,par)
deactivate LS

TTC -> ML: tStore = getTestStore()
activate ML
deactivate ML
TTC -> TS: t = createTest(tinNumber, nhsCode, labOrder)
activate TS
TS - -> T**: create (tinNumber, nhsCode, labOrder)
deactivate TS
TTC -> TS: validateTest(t)
activate TS
deactivate TS
deactivate TTC
UI - -> Adm: shows all data and requests a confirmation
deactivate ML
deactivate UI


Adm -> UI: confirms all data
activate UI
UI -> TTC: saveTest()
activate TTC
TTC -> TS: saveTest(tt)
activate TS
TS -> TS: validateTest(tt)
activate TS
deactivate TS
TS -> TS: addTest(tt)
activate TS
deactivate TS
deactivate TTC
deactivate TS
UI - -> Adm: informs operation success
deactivate UI
@enduml

PlantUML version 1.2021.7(Sun May 23 12:40:07 UTC 2021)
(GPL source distribution)
Java Runtime: Java(TM) SE Runtime Environment
JVM: Java HotSpot(TM) 64-Bit Server VM
Default Encoding: UTF-8
Language: en
Country: US
--></g></svg>