<?xml version="1.0" encoding="UTF-8" standalone="no"?><svg xmlns="http://www.w3.org/2000/svg" xmlns:xlink="http://www.w3.org/1999/xlink" contentScriptType="application/ecmascript" contentStyleType="text/css" height="456px" preserveAspectRatio="none" style="width:668px;height:456px;background:#FFFFFF;" version="1.1" viewBox="0 0 668 456" width="668px" zoomAndPan="magnify"><defs><filter height="300%" id="f15arabjrpsz4x" width="300%" x="-1" y="-1"><feGaussianBlur result="blurOut" stdDeviation="2.0"/><feColorMatrix in="blurOut" result="blurOut2" type="matrix" values="0 0 0 0 0 0 0 0 0 0 0 0 0 0 0 0 0 0 .4 0"/><feOffset dx="4.0" dy="4.0" in="blurOut2" result="blurOut3"/><feBlend in="SourceGraphic" in2="blurOut3" mode="normal"/></filter></defs><g><rect fill="#FFFFFF" filter="url(#f15arabjrpsz4x)" height="256.1953" style="stroke:#A80036;stroke-width:1.0;" width="10" x="64.5" y="98.2969"/><rect fill="#FFFFFF" filter="url(#f15arabjrpsz4x)" height="29.1328" style="stroke:#A80036;stroke-width:1.0;" width="10" x="600.5" y="119.4297"/><rect fill="#FFFFFF" filter="url(#f15arabjrpsz4x)" height="118.5313" style="stroke:#A80036;stroke-width:1.0;" width="10" x="600.5" y="177.6953"/><rect fill="#FFFFFF" filter="url(#f15arabjrpsz4x)" height="29.1328" style="stroke:#A80036;stroke-width:1.0;" width="10" x="600.5" y="325.3594"/><rect fill="#FFFFFF" filter="url(#f15arabjrpsz4x)" height="75.3984" style="stroke:#000000;stroke-width:2.0;" width="644" x="10" y="192.6953"/><line style="stroke:#A80036;stroke-width:1.0;stroke-dasharray:5.0,5.0;" x1="69" x2="69" y1="88.2969" y2="372.4922"/><line style="stroke:#A80036;stroke-width:1.0;stroke-dasharray:5.0,5.0;" x1="605" x2="605" y1="88.2969" y2="372.4922"/><text fill="#000000" font-family="sans-serif" font-size="14" lengthAdjust="spacing" textLength="93" x="20" y="84.9951">Receptionist</text><ellipse cx="69.5" cy="15" fill="#FEFECE" filter="url(#f15arabjrpsz4x)" rx="8" ry="8" style="stroke:#A80036;stroke-width:2.0;"/><path d="M69.5,23 L69.5,50 M56.5,31 L82.5,31 M69.5,50 L56.5,65 M69.5,50 L82.5,65 " fill="none" filter="url(#f15arabjrpsz4x)" style="stroke:#A80036;stroke-width:2.0;"/><text fill="#000000" font-family="sans-serif" font-size="14" lengthAdjust="spacing" textLength="93" x="20" y="384.4873">Receptionist</text><ellipse cx="69.5" cy="397.7891" fill="#FEFECE" filter="url(#f15arabjrpsz4x)" rx="8" ry="8" style="stroke:#A80036;stroke-width:2.0;"/><path d="M69.5,405.7891 L69.5,432.7891 M56.5,413.7891 L82.5,413.7891 M69.5,432.7891 L56.5,447.7891 M69.5,432.7891 L82.5,447.7891 " fill="none" filter="url(#f15arabjrpsz4x)" style="stroke:#A80036;stroke-width:2.0;"/><rect fill="#FEFECE" filter="url(#f15arabjrpsz4x)" height="30.2969" style="stroke:#A80036;stroke-width:1.5;" width="73" x="567" y="53"/><text fill="#000000" font-family="sans-serif" font-size="14" lengthAdjust="spacing" textLength="59" x="574" y="72.9951">:System</text><rect fill="#FEFECE" filter="url(#f15arabjrpsz4x)" height="30.2969" style="stroke:#A80036;stroke-width:1.5;" width="73" x="567" y="371.4922"/><text fill="#000000" font-family="sans-serif" font-size="14" lengthAdjust="spacing" textLength="59" x="574" y="391.4873">:System</text><rect fill="#FFFFFF" filter="url(#f15arabjrpsz4x)" height="256.1953" style="stroke:#A80036;stroke-width:1.0;" width="10" x="64.5" y="98.2969"/><rect fill="#FFFFFF" filter="url(#f15arabjrpsz4x)" height="29.1328" style="stroke:#A80036;stroke-width:1.0;" width="10" x="600.5" y="119.4297"/><rect fill="#FFFFFF" filter="url(#f15arabjrpsz4x)" height="118.5313" style="stroke:#A80036;stroke-width:1.0;" width="10" x="600.5" y="177.6953"/><rect fill="#FFFFFF" filter="url(#f15arabjrpsz4x)" height="29.1328" style="stroke:#A80036;stroke-width:1.0;" width="10" x="600.5" y="325.3594"/><polygon fill="#A80036" points="588.5,115.4297,598.5,119.4297,588.5,123.4297,592.5,119.4297" style="stroke:#A80036;stroke-width:1.0;"/><line style="stroke:#A80036;stroke-width:1.0;" x1="74.5" x2="594.5" y1="119.4297" y2="119.4297"/><text fill="#000000" font-family="sans-serif" font-size="13" font-weight="bold" lengthAdjust="spacing" textLength="9" x="81.5" y="114.3638">1</text><text fill="#000000" font-family="sans-serif" font-size="13" lengthAdjust="spacing" textLength="285" x="94.5" y="114.3638">starts a new test to be performed to a client</text><polygon fill="#A80036" points="85.5,144.5625,75.5,148.5625,85.5,152.5625,81.5,148.5625" style="stroke:#A80036;stroke-width:1.0;"/><line style="stroke:#A80036;stroke-width:1.0;stroke-dasharray:2.0,2.0;" x1="79.5" x2="604.5" y1="148.5625" y2="148.5625"/><text fill="#000000" font-family="sans-serif" font-size="13" font-weight="bold" lengthAdjust="spacing" textLength="9" x="91.5" y="143.4966">2</text><text fill="#000000" font-family="sans-serif" font-size="13" lengthAdjust="spacing" textLength="252" x="104.5" y="143.4966">request data(code, nhsCode, testType)</text><polygon fill="#A80036" points="588.5,173.6953,598.5,177.6953,588.5,181.6953,592.5,177.6953" style="stroke:#A80036;stroke-width:1.0;"/><line style="stroke:#A80036;stroke-width:1.0;" x1="74.5" x2="594.5" y1="177.6953" y2="177.6953"/><text fill="#000000" font-family="sans-serif" font-size="13" font-weight="bold" lengthAdjust="spacing" textLength="8" x="81.5" y="172.6294">3</text><text fill="#000000" font-family="sans-serif" font-size="13" lengthAdjust="spacing" textLength="163" x="93.5" y="172.6294">types the requested data</text><path d="M10,192.6953 L88,192.6953 L88,199.6953 L78,209.6953 L10,209.6953 L10,192.6953 " fill="#EEEEEE" style="stroke:#000000;stroke-width:1.0;"/><rect fill="none" height="75.3984" style="stroke:#000000;stroke-width:2.0;" width="644" x="10" y="192.6953"/><text fill="#000000" font-family="sans-serif" font-size="13" font-weight="bold" lengthAdjust="spacing" textLength="33" x="25" y="205.7622">loop</text><polygon fill="#A80036" points="85.5,226.9609,75.5,230.9609,85.5,234.9609,81.5,230.9609" style="stroke:#A80036;stroke-width:1.0;"/><line style="stroke:#A80036;stroke-width:1.0;stroke-dasharray:2.0,2.0;" x1="79.5" x2="599.5" y1="230.9609" y2="230.9609"/><text fill="#000000" font-family="sans-serif" font-size="13" font-weight="bold" lengthAdjust="spacing" textLength="9" x="91.5" y="225.895">4</text><text fill="#000000" font-family="sans-serif" font-size="13" lengthAdjust="spacing" textLength="489" x="104.5" y="225.895">shows list of the parameters to be analised in accordance with the test type</text><polygon fill="#A80036" points="588.5,256.0938,598.5,260.0938,588.5,264.0938,592.5,260.0938" style="stroke:#A80036;stroke-width:1.0;"/><line style="stroke:#A80036;stroke-width:1.0;" x1="74.5" x2="594.5" y1="260.0938" y2="260.0938"/><text fill="#000000" font-family="sans-serif" font-size="13" font-weight="bold" lengthAdjust="spacing" textLength="9" x="81.5" y="255.0278">5</text><text fill="#000000" font-family="sans-serif" font-size="13" lengthAdjust="spacing" textLength="110" x="94.5" y="255.0278">select parameter</text><polygon fill="#A80036" points="85.5,292.2266,75.5,296.2266,85.5,300.2266,81.5,296.2266" style="stroke:#A80036;stroke-width:1.0;"/><line style="stroke:#A80036;stroke-width:1.0;stroke-dasharray:2.0,2.0;" x1="79.5" x2="604.5" y1="296.2266" y2="296.2266"/><text fill="#000000" font-family="sans-serif" font-size="13" font-weight="bold" lengthAdjust="spacing" textLength="9" x="91.5" y="291.1606">6</text><text fill="#000000" font-family="sans-serif" font-size="13" lengthAdjust="spacing" textLength="265" x="104.5" y="291.1606">shows the data and request confirmation</text><polygon fill="#A80036" points="588.5,321.3594,598.5,325.3594,588.5,329.3594,592.5,325.3594" style="stroke:#A80036;stroke-width:1.0;"/><line style="stroke:#A80036;stroke-width:1.0;" x1="74.5" x2="594.5" y1="325.3594" y2="325.3594"/><text fill="#000000" font-family="sans-serif" font-size="13" font-weight="bold" lengthAdjust="spacing" textLength="9" x="81.5" y="320.2935">7</text><text fill="#000000" font-family="sans-serif" font-size="13" lengthAdjust="spacing" textLength="89" x="94.5" y="320.2935">confirms data</text><polygon fill="#A80036" points="593.5,350.4922,603.5,354.4922,593.5,358.4922,597.5,354.4922" style="stroke:#A80036;stroke-width:1.0;"/><line style="stroke:#A80036;stroke-width:1.0;" x1="69.5" x2="599.5" y1="354.4922" y2="354.4922"/><text fill="#000000" font-family="sans-serif" font-size="13" font-weight="bold" lengthAdjust="spacing" textLength="9" x="76.5" y="349.4263">8</text><text fill="#000000" font-family="sans-serif" font-size="13" lengthAdjust="spacing" textLength="169" x="89.5" y="349.4263">informs operation success</text><!--MD5=[bc1b967b0eebf8b7cfb9147948708e90]
@startuml
actor Receptionist as Adm
participant ":System" as System

autonumber
activate Adm
Adm -> System: starts a new test to be performed to a client
activate System
System - -> Adm: request data(code, nhsCode, testType)
deactivate System
Adm -> System: types the requested data
activate System

loop
System - -> Adm: shows list of the parameters to be analised in accordance with the test type
Adm -> System: select parameter
end

System - -> Adm: shows the data and request confirmation
deactivate System
Adm -> System: confirms data
activate System
Adm -> System: informs operation success
deactivate System
deactivate Adm
@enduml

PlantUML version 1.2021.6beta6(Unknown compile time)
(GPL source distribution)
Java Runtime: Java(TM) SE Runtime Environment
JVM: Java HotSpot(TM) 64-Bit Server VM
Default Encoding: UTF-8
Language: en
Country: US
--></g></svg>