<?xml version="1.0" encoding="UTF-8" standalone="no"?><svg xmlns="http://www.w3.org/2000/svg" xmlns:xlink="http://www.w3.org/1999/xlink" contentScriptType="application/ecmascript" contentStyleType="text/css" height="573px" preserveAspectRatio="none" style="width:649px;height:573px;background:#FFFFFF;" version="1.1" viewBox="0 0 649 573" width="649px" zoomAndPan="magnify"><defs><filter height="300%" id="f1wa0avkx6y604" width="300%" x="-1" y="-1"><feGaussianBlur result="blurOut" stdDeviation="2.0"/><feColorMatrix in="blurOut" result="blurOut2" type="matrix" values="0 0 0 0 0 0 0 0 0 0 0 0 0 0 0 0 0 0 .4 0"/><feOffset dx="4.0" dy="4.0" in="blurOut2" result="blurOut3"/><feBlend in="SourceGraphic" in2="blurOut3" mode="normal"/></filter></defs><g><rect fill="#FFFFFF" filter="url(#f1wa0avkx6y604)" height="372.7266" style="stroke:#A80036;stroke-width:1.0;" width="10" x="64.5" y="98.2969"/><rect fill="#FFFFFF" filter="url(#f1wa0avkx6y604)" height="29.1328" style="stroke:#A80036;stroke-width:1.0;" width="10" x="581.5" y="119.4297"/><rect fill="#FFFFFF" filter="url(#f1wa0avkx6y604)" height="29.1328" style="stroke:#A80036;stroke-width:1.0;" width="10" x="581.5" y="177.6953"/><rect fill="#FFFFFF" filter="url(#f1wa0avkx6y604)" height="29.1328" style="stroke:#A80036;stroke-width:1.0;" width="10" x="581.5" y="235.9609"/><rect fill="#FFFFFF" filter="url(#f1wa0avkx6y604)" height="53.2656" style="stroke:#A80036;stroke-width:1.0;" width="10" x="581.5" y="294.2266"/><rect fill="#FFFFFF" filter="url(#f1wa0avkx6y604)" height="36.1328" style="stroke:#A80036;stroke-width:1.0;" width="10" x="581.5" y="376.625"/><rect fill="#FFFFFF" filter="url(#f1wa0avkx6y604)" height="29.1328" style="stroke:#A80036;stroke-width:1.0;" width="10" x="581.5" y="441.8906"/><rect fill="#FFFFFF" filter="url(#f1wa0avkx6y604)" height="75.3984" style="stroke:#000000;stroke-width:2.0;" width="625" x="10" y="309.2266"/><line style="stroke:#A80036;stroke-width:1.0;stroke-dasharray:5.0,5.0;" x1="69" x2="69" y1="88.2969" y2="489.0234"/><line style="stroke:#A80036;stroke-width:1.0;stroke-dasharray:5.0,5.0;" x1="586" x2="586" y1="88.2969" y2="489.0234"/><text fill="#000000" font-family="sans-serif" font-size="14" lengthAdjust="spacing" textLength="93" x="20" y="84.9951">Receptionist</text><ellipse cx="69.5" cy="15" fill="#FEFECE" filter="url(#f1wa0avkx6y604)" rx="8" ry="8" style="stroke:#A80036;stroke-width:2.0;"/><path d="M69.5,23 L69.5,50 M56.5,31 L82.5,31 M69.5,50 L56.5,65 M69.5,50 L82.5,65 " fill="none" filter="url(#f1wa0avkx6y604)" style="stroke:#A80036;stroke-width:2.0;"/><text fill="#000000" font-family="sans-serif" font-size="14" lengthAdjust="spacing" textLength="93" x="20" y="501.0186">Receptionist</text><ellipse cx="69.5" cy="514.3203" fill="#FEFECE" filter="url(#f1wa0avkx6y604)" rx="8" ry="8" style="stroke:#A80036;stroke-width:2.0;"/><path d="M69.5,522.3203 L69.5,549.3203 M56.5,530.3203 L82.5,530.3203 M69.5,549.3203 L56.5,564.3203 M69.5,549.3203 L82.5,564.3203 " fill="none" filter="url(#f1wa0avkx6y604)" style="stroke:#A80036;stroke-width:2.0;"/><rect fill="#FEFECE" filter="url(#f1wa0avkx6y604)" height="30.2969" style="stroke:#A80036;stroke-width:1.5;" width="73" x="548" y="53"/><text fill="#000000" font-family="sans-serif" font-size="14" lengthAdjust="spacing" textLength="59" x="555" y="72.9951">:System</text><rect fill="#FEFECE" filter="url(#f1wa0avkx6y604)" height="30.2969" style="stroke:#A80036;stroke-width:1.5;" width="73" x="548" y="488.0234"/><text fill="#000000" font-family="sans-serif" font-size="14" lengthAdjust="spacing" textLength="59" x="555" y="508.0186">:System</text><rect fill="#FFFFFF" filter="url(#f1wa0avkx6y604)" height="372.7266" style="stroke:#A80036;stroke-width:1.0;" width="10" x="64.5" y="98.2969"/><rect fill="#FFFFFF" filter="url(#f1wa0avkx6y604)" height="29.1328" style="stroke:#A80036;stroke-width:1.0;" width="10" x="581.5" y="119.4297"/><rect fill="#FFFFFF" filter="url(#f1wa0avkx6y604)" height="29.1328" style="stroke:#A80036;stroke-width:1.0;" width="10" x="581.5" y="177.6953"/><rect fill="#FFFFFF" filter="url(#f1wa0avkx6y604)" height="29.1328" style="stroke:#A80036;stroke-width:1.0;" width="10" x="581.5" y="235.9609"/><rect fill="#FFFFFF" filter="url(#f1wa0avkx6y604)" height="53.2656" style="stroke:#A80036;stroke-width:1.0;" width="10" x="581.5" y="294.2266"/><rect fill="#FFFFFF" filter="url(#f1wa0avkx6y604)" height="36.1328" style="stroke:#A80036;stroke-width:1.0;" width="10" x="581.5" y="376.625"/><rect fill="#FFFFFF" filter="url(#f1wa0avkx6y604)" height="29.1328" style="stroke:#A80036;stroke-width:1.0;" width="10" x="581.5" y="441.8906"/><polygon fill="#A80036" points="569.5,115.4297,579.5,119.4297,569.5,123.4297,573.5,119.4297" style="stroke:#A80036;stroke-width:1.0;"/><line style="stroke:#A80036;stroke-width:1.0;" x1="74.5" x2="575.5" y1="119.4297" y2="119.4297"/><text fill="#000000" font-family="sans-serif" font-size="13" font-weight="bold" lengthAdjust="spacing" textLength="9" x="81.5" y="114.3638">1</text><text fill="#000000" font-family="sans-serif" font-size="13" lengthAdjust="spacing" textLength="285" x="94.5" y="114.3638">starts a new test to be performed to a client</text><polygon fill="#A80036" points="85.5,144.5625,75.5,148.5625,85.5,152.5625,81.5,148.5625" style="stroke:#A80036;stroke-width:1.0;"/><line style="stroke:#A80036;stroke-width:1.0;stroke-dasharray:2.0,2.0;" x1="79.5" x2="585.5" y1="148.5625" y2="148.5625"/><text fill="#000000" font-family="sans-serif" font-size="13" font-weight="bold" lengthAdjust="spacing" textLength="9" x="91.5" y="143.4966">2</text><text fill="#000000" font-family="sans-serif" font-size="13" lengthAdjust="spacing" textLength="148" x="104.5" y="143.4966">request data(nhsCode)</text><polygon fill="#A80036" points="569.5,173.6953,579.5,177.6953,569.5,181.6953,573.5,177.6953" style="stroke:#A80036;stroke-width:1.0;"/><line style="stroke:#A80036;stroke-width:1.0;" x1="74.5" x2="575.5" y1="177.6953" y2="177.6953"/><text fill="#000000" font-family="sans-serif" font-size="13" font-weight="bold" lengthAdjust="spacing" textLength="8" x="81.5" y="172.6294">3</text><text fill="#000000" font-family="sans-serif" font-size="13" lengthAdjust="spacing" textLength="163" x="93.5" y="172.6294">types the requested data</text><polygon fill="#A80036" points="85.5,202.8281,75.5,206.8281,85.5,210.8281,81.5,206.8281" style="stroke:#A80036;stroke-width:1.0;"/><line style="stroke:#A80036;stroke-width:1.0;stroke-dasharray:2.0,2.0;" x1="79.5" x2="585.5" y1="206.8281" y2="206.8281"/><text fill="#000000" font-family="sans-serif" font-size="13" font-weight="bold" lengthAdjust="spacing" textLength="9" x="91.5" y="201.7622">4</text><text fill="#000000" font-family="sans-serif" font-size="13" lengthAdjust="spacing" textLength="460" x="104.5" y="201.7622">shows a list of test types registered and requests to select one of them</text><polygon fill="#A80036" points="569.5,231.9609,579.5,235.9609,569.5,239.9609,573.5,235.9609" style="stroke:#A80036;stroke-width:1.0;"/><line style="stroke:#A80036;stroke-width:1.0;" x1="74.5" x2="575.5" y1="235.9609" y2="235.9609"/><text fill="#000000" font-family="sans-serif" font-size="13" font-weight="bold" lengthAdjust="spacing" textLength="9" x="81.5" y="230.895">5</text><text fill="#000000" font-family="sans-serif" font-size="13" lengthAdjust="spacing" textLength="214" x="94.5" y="230.895">selects a test type from the code</text><polygon fill="#A80036" points="85.5,261.0938,75.5,265.0938,85.5,269.0938,81.5,265.0938" style="stroke:#A80036;stroke-width:1.0;"/><line style="stroke:#A80036;stroke-width:1.0;stroke-dasharray:2.0,2.0;" x1="79.5" x2="585.5" y1="265.0938" y2="265.0938"/><text fill="#000000" font-family="sans-serif" font-size="13" font-weight="bold" lengthAdjust="spacing" textLength="9" x="91.5" y="260.0278">6</text><text fill="#000000" font-family="sans-serif" font-size="13" lengthAdjust="spacing" textLength="438" x="104.5" y="260.0278">shows a list of Clients registered and requests to select one of them</text><polygon fill="#A80036" points="569.5,290.2266,579.5,294.2266,569.5,298.2266,573.5,294.2266" style="stroke:#A80036;stroke-width:1.0;"/><line style="stroke:#A80036;stroke-width:1.0;" x1="74.5" x2="575.5" y1="294.2266" y2="294.2266"/><text fill="#000000" font-family="sans-serif" font-size="13" font-weight="bold" lengthAdjust="spacing" textLength="9" x="81.5" y="289.1606">7</text><text fill="#000000" font-family="sans-serif" font-size="13" lengthAdjust="spacing" textLength="326" x="94.5" y="289.1606">selects a Client from the Tax Identification Number</text><path d="M10,309.2266 L88,309.2266 L88,316.2266 L78,326.2266 L10,326.2266 L10,309.2266 " fill="#EEEEEE" style="stroke:#000000;stroke-width:1.0;"/><rect fill="none" height="75.3984" style="stroke:#000000;stroke-width:2.0;" width="625" x="10" y="309.2266"/><text fill="#000000" font-family="sans-serif" font-size="13" font-weight="bold" lengthAdjust="spacing" textLength="33" x="25" y="322.2935">loop</text><polygon fill="#A80036" points="85.5,343.4922,75.5,347.4922,85.5,351.4922,81.5,347.4922" style="stroke:#A80036;stroke-width:1.0;"/><line style="stroke:#A80036;stroke-width:1.0;stroke-dasharray:2.0,2.0;" x1="79.5" x2="585.5" y1="347.4922" y2="347.4922"/><text fill="#000000" font-family="sans-serif" font-size="13" font-weight="bold" lengthAdjust="spacing" textLength="9" x="91.5" y="342.4263">8</text><text fill="#000000" font-family="sans-serif" font-size="13" lengthAdjust="spacing" textLength="470" x="104.5" y="342.4263">shows a list of parameters registered and requests to select one of them</text><polygon fill="#A80036" points="569.5,372.625,579.5,376.625,569.5,380.625,573.5,376.625" style="stroke:#A80036;stroke-width:1.0;"/><line style="stroke:#A80036;stroke-width:1.0;" x1="74.5" x2="575.5" y1="376.625" y2="376.625"/><text fill="#000000" font-family="sans-serif" font-size="13" font-weight="bold" lengthAdjust="spacing" textLength="9" x="81.5" y="371.5591">9</text><text fill="#000000" font-family="sans-serif" font-size="13" lengthAdjust="spacing" textLength="224" x="94.5" y="371.5591">selects a parameter from the code</text><polygon fill="#A80036" points="85.5,408.7578,75.5,412.7578,85.5,416.7578,81.5,412.7578" style="stroke:#A80036;stroke-width:1.0;"/><line style="stroke:#A80036;stroke-width:1.0;stroke-dasharray:2.0,2.0;" x1="79.5" x2="585.5" y1="412.7578" y2="412.7578"/><text fill="#000000" font-family="sans-serif" font-size="13" font-weight="bold" lengthAdjust="spacing" textLength="19" x="91.5" y="407.6919">10</text><text fill="#000000" font-family="sans-serif" font-size="13" lengthAdjust="spacing" textLength="265" x="114.5" y="407.6919">shows the data and request confirmation</text><polygon fill="#A80036" points="569.5,437.8906,579.5,441.8906,569.5,445.8906,573.5,441.8906" style="stroke:#A80036;stroke-width:1.0;"/><line style="stroke:#A80036;stroke-width:1.0;" x1="74.5" x2="575.5" y1="441.8906" y2="441.8906"/><text fill="#000000" font-family="sans-serif" font-size="13" font-weight="bold" lengthAdjust="spacing" textLength="18" x="81.5" y="436.8247">11</text><text fill="#000000" font-family="sans-serif" font-size="13" lengthAdjust="spacing" textLength="89" x="103.5" y="436.8247">confirms data</text><polygon fill="#A80036" points="80.5,467.0234,70.5,471.0234,80.5,475.0234,76.5,471.0234" style="stroke:#A80036;stroke-width:1.0;"/><line style="stroke:#A80036;stroke-width:1.0;stroke-dasharray:2.0,2.0;" x1="74.5" x2="585.5" y1="471.0234" y2="471.0234"/><text fill="#000000" font-family="sans-serif" font-size="13" font-weight="bold" lengthAdjust="spacing" textLength="18" x="86.5" y="465.9575">12</text><text fill="#000000" font-family="sans-serif" font-size="13" lengthAdjust="spacing" textLength="169" x="108.5" y="465.9575">informs operation success</text><!--MD5=[635c2d83a692481db72812cb1b732752]
@startuml
actor Receptionist as Adm
participant ":System" as System

autonumber
activate Adm
Adm -> System: starts a new test to be performed to a client
activate System
System - -> Adm: request data(nhsCode)
deactivate System
Adm -> System: types the requested data
activate System
System - -> Adm: shows a list of test types registered and requests to select one of them
deactivate System
Adm -> System: selects a test type from the code
activate System
System - -> Adm: shows a list of Clients registered and requests to select one of them
deactivate System
Adm -> System: selects a Client from the Tax Identification Number
loop
activate System
System - -> Adm: shows a list of parameters registered and requests to select one of them
deactivate System
Adm -> System: selects a parameter from the code
activate System
end

System - -> Adm: shows the data and request confirmation
deactivate System
Adm -> System: confirms data
activate System
System - -> Adm: informs operation success
deactivate System

deactivate Adm
@enduml

PlantUML version 1.2021.7(Sun May 23 12:40:07 UTC 2021)
(GPL source distribution)
Java Runtime: Java(TM) SE Runtime Environment
JVM: Java HotSpot(TM) 64-Bit Server VM
Default Encoding: UTF-8
Language: en
Country: US
--></g></svg>