<?xml version="1.0" encoding="UTF-8" standalone="no"?><svg xmlns="http://www.w3.org/2000/svg" xmlns:xlink="http://www.w3.org/1999/xlink" contentScriptType="application/ecmascript" contentStyleType="text/css" height="839px" preserveAspectRatio="none" style="width:475px;height:839px;background:#FFFFFF;" version="1.1" viewBox="0 0 475 839" width="475px" zoomAndPan="magnify"><defs><filter height="300%" id="f15by6n4jg913n" width="300%" x="-1" y="-1"><feGaussianBlur result="blurOut" stdDeviation="2.0"/><feColorMatrix in="blurOut" result="blurOut2" type="matrix" values="0 0 0 0 0 0 0 0 0 0 0 0 0 0 0 0 0 0 .4 0"/><feOffset dx="4.0" dy="4.0" in="blurOut2" result="blurOut3"/><feBlend in="SourceGraphic" in2="blurOut3" mode="normal"/></filter></defs><g><!--MD5=[2eb58faf74d66c4333a48c40be4a22fb]
class RegistTestUI--><rect fill="#FEFECE" filter="url(#f15by6n4jg913n)" height="48" id="RegistTestUI" style="stroke:#A80036;stroke-width:1.5;" width="107" x="172.5" y="7"/><ellipse cx="187.5" cy="23" fill="#ADD1B2" rx="11" ry="11" style="stroke:#A80036;stroke-width:1.0;"/><path d="M189.8438,18.6719 C188.9063,18.2344 188.3125,18.0938 187.4375,18.0938 C184.8125,18.0938 182.8125,20.1719 182.8125,22.8906 L182.8125,24.0156 C182.8125,26.5938 184.9219,28.4844 187.8125,28.4844 C189.0313,28.4844 190.1875,28.1875 190.9375,27.6406 C191.5156,27.2344 191.8438,26.7813 191.8438,26.3906 C191.8438,25.9375 191.4531,25.5469 190.9844,25.5469 C190.7656,25.5469 190.5625,25.625 190.375,25.8125 C189.9219,26.2969 189.9219,26.2969 189.7344,26.3906 C189.3125,26.6563 188.625,26.7813 187.8594,26.7813 C185.8125,26.7813 184.5156,25.6875 184.5156,23.9844 L184.5156,22.8906 C184.5156,21.1094 185.7656,19.7969 187.5,19.7969 C188.0781,19.7969 188.6875,19.9531 189.1563,20.2031 C189.6406,20.4844 189.8125,20.7031 189.9063,21.1094 C189.9688,21.5156 190,21.6406 190.1406,21.7656 C190.2813,21.9063 190.5156,22.0156 190.7344,22.0156 C191,22.0156 191.2656,21.875 191.4375,21.6563 C191.5469,21.5 191.5781,21.3125 191.5781,20.8906 L191.5781,19.4688 C191.5781,19.0313 191.5625,18.9063 191.4688,18.75 C191.3125,18.4844 191.0313,18.3438 190.7344,18.3438 C190.4375,18.3438 190.2344,18.4375 190.0156,18.75 L189.8438,18.6719 Z " fill="#000000"/><text fill="#000000" font-family="sans-serif" font-size="12" lengthAdjust="spacing" textLength="75" x="201.5" y="27.1543">RegistTestUI</text><line style="stroke:#A80036;stroke-width:1.5;" x1="173.5" x2="278.5" y1="39" y2="39"/><line style="stroke:#A80036;stroke-width:1.5;" x1="173.5" x2="278.5" y1="47" y2="47"/><!--MD5=[fda8799cf488051f3638f8f6cd4cc0b4]
class RegistTestController--><rect fill="#FEFECE" filter="url(#f15by6n4jg913n)" height="86.4141" id="RegistTestController" style="stroke:#A80036;stroke-width:1.5;" width="239" x="106.5" y="115"/><ellipse cx="160.75" cy="131" fill="#ADD1B2" rx="11" ry="11" style="stroke:#A80036;stroke-width:1.0;"/><path d="M163.0938,126.6719 C162.1563,126.2344 161.5625,126.0938 160.6875,126.0938 C158.0625,126.0938 156.0625,128.1719 156.0625,130.8906 L156.0625,132.0156 C156.0625,134.5938 158.1719,136.4844 161.0625,136.4844 C162.2813,136.4844 163.4375,136.1875 164.1875,135.6406 C164.7656,135.2344 165.0938,134.7813 165.0938,134.3906 C165.0938,133.9375 164.7031,133.5469 164.2344,133.5469 C164.0156,133.5469 163.8125,133.625 163.625,133.8125 C163.1719,134.2969 163.1719,134.2969 162.9844,134.3906 C162.5625,134.6563 161.875,134.7813 161.1094,134.7813 C159.0625,134.7813 157.7656,133.6875 157.7656,131.9844 L157.7656,130.8906 C157.7656,129.1094 159.0156,127.7969 160.75,127.7969 C161.3281,127.7969 161.9375,127.9531 162.4063,128.2031 C162.8906,128.4844 163.0625,128.7031 163.1563,129.1094 C163.2188,129.5156 163.25,129.6406 163.3906,129.7656 C163.5313,129.9063 163.7656,130.0156 163.9844,130.0156 C164.25,130.0156 164.5156,129.875 164.6875,129.6563 C164.7969,129.5 164.8281,129.3125 164.8281,128.8906 L164.8281,127.4688 C164.8281,127.0313 164.8125,126.9063 164.7188,126.75 C164.5625,126.4844 164.2813,126.3438 163.9844,126.3438 C163.6875,126.3438 163.4844,126.4375 163.2656,126.75 L163.0938,126.6719 Z " fill="#000000"/><text fill="#000000" font-family="sans-serif" font-size="12" lengthAdjust="spacing" textLength="122" x="181.25" y="135.1543">RegistTestController</text><line style="stroke:#A80036;stroke-width:1.5;" x1="107.5" x2="344.5" y1="147" y2="147"/><line style="stroke:#A80036;stroke-width:1.5;" x1="107.5" x2="344.5" y1="155" y2="155"/><ellipse cx="117.5" cy="166" fill="#84BE84" rx="3" ry="3" style="stroke:#038048;stroke-width:1.0;"/><text fill="#000000" font-family="sans-serif" font-size="11" lengthAdjust="spacing" textLength="81" x="126.5" y="169.2104">getTestType()</text><ellipse cx="117.5" cy="178.8047" fill="#84BE84" rx="3" ry="3" style="stroke:#038048;stroke-width:1.0;"/><text fill="#000000" font-family="sans-serif" font-size="11" lengthAdjust="spacing" textLength="213" x="126.5" y="182.0151">createTest(code, nhsCode, testType)</text><ellipse cx="117.5" cy="191.6094" fill="#84BE84" rx="3" ry="3" style="stroke:#038048;stroke-width:1.0;"/><text fill="#000000" font-family="sans-serif" font-size="11" lengthAdjust="spacing" textLength="61" x="126.5" y="194.8198">saveTest()</text><!--MD5=[02e4b9b7573f1156f41e60aa5b4e25a4]
class Company--><rect fill="#FEFECE" filter="url(#f15by6n4jg913n)" height="73.6094" id="Company" style="stroke:#A80036;stroke-width:1.5;" width="109" x="171.5" y="261"/><ellipse cx="195.95" cy="277" fill="#ADD1B2" rx="11" ry="11" style="stroke:#A80036;stroke-width:1.0;"/><path d="M198.2938,272.6719 C197.3563,272.2344 196.7625,272.0938 195.8875,272.0938 C193.2625,272.0938 191.2625,274.1719 191.2625,276.8906 L191.2625,278.0156 C191.2625,280.5938 193.3719,282.4844 196.2625,282.4844 C197.4813,282.4844 198.6375,282.1875 199.3875,281.6406 C199.9656,281.2344 200.2938,280.7813 200.2938,280.3906 C200.2938,279.9375 199.9031,279.5469 199.4344,279.5469 C199.2156,279.5469 199.0125,279.625 198.825,279.8125 C198.3719,280.2969 198.3719,280.2969 198.1844,280.3906 C197.7625,280.6563 197.075,280.7813 196.3094,280.7813 C194.2625,280.7813 192.9656,279.6875 192.9656,277.9844 L192.9656,276.8906 C192.9656,275.1094 194.2156,273.7969 195.95,273.7969 C196.5281,273.7969 197.1375,273.9531 197.6063,274.2031 C198.0906,274.4844 198.2625,274.7031 198.3563,275.1094 C198.4188,275.5156 198.45,275.6406 198.5906,275.7656 C198.7313,275.9063 198.9656,276.0156 199.1844,276.0156 C199.45,276.0156 199.7156,275.875 199.8875,275.6563 C199.9969,275.5 200.0281,275.3125 200.0281,274.8906 L200.0281,273.4688 C200.0281,273.0313 200.0125,272.9063 199.9188,272.75 C199.7625,272.4844 199.4813,272.3438 199.1844,272.3438 C198.8875,272.3438 198.6844,272.4375 198.4656,272.75 L198.2938,272.6719 Z " fill="#000000"/><text fill="#000000" font-family="sans-serif" font-size="12" lengthAdjust="spacing" textLength="56" x="212.05" y="281.1543">Company</text><line style="stroke:#A80036;stroke-width:1.5;" x1="172.5" x2="279.5" y1="293" y2="293"/><line style="stroke:#A80036;stroke-width:1.5;" x1="172.5" x2="279.5" y1="301" y2="301"/><ellipse cx="182.5" cy="312" fill="#84BE84" rx="3" ry="3" style="stroke:#038048;stroke-width:1.0;"/><text fill="#000000" font-family="sans-serif" font-size="11" lengthAdjust="spacing" textLength="81" x="191.5" y="315.2104">getTestType()</text><ellipse cx="182.5" cy="324.8047" fill="#84BE84" rx="3" ry="3" style="stroke:#038048;stroke-width:1.0;"/><text fill="#000000" font-family="sans-serif" font-size="11" lengthAdjust="spacing" textLength="83" x="191.5" y="328.0151">getStoreTest()</text><!--MD5=[a607eba86c83b44fdb8195238d29832c]
class StoreTestType--><rect fill="#FEFECE" filter="url(#f15by6n4jg913n)" height="60.8047" id="StoreTestType" style="stroke:#A80036;stroke-width:1.5;" width="180" x="7" y="414"/><ellipse cx="48.55" cy="430" fill="#ADD1B2" rx="11" ry="11" style="stroke:#A80036;stroke-width:1.0;"/><path d="M50.8938,425.6719 C49.9563,425.2344 49.3625,425.0938 48.4875,425.0938 C45.8625,425.0938 43.8625,427.1719 43.8625,429.8906 L43.8625,431.0156 C43.8625,433.5938 45.9719,435.4844 48.8625,435.4844 C50.0813,435.4844 51.2375,435.1875 51.9875,434.6406 C52.5656,434.2344 52.8938,433.7813 52.8938,433.3906 C52.8938,432.9375 52.5031,432.5469 52.0344,432.5469 C51.8156,432.5469 51.6125,432.625 51.425,432.8125 C50.9719,433.2969 50.9719,433.2969 50.7844,433.3906 C50.3625,433.6563 49.675,433.7813 48.9094,433.7813 C46.8625,433.7813 45.5656,432.6875 45.5656,430.9844 L45.5656,429.8906 C45.5656,428.1094 46.8156,426.7969 48.55,426.7969 C49.1281,426.7969 49.7375,426.9531 50.2063,427.2031 C50.6906,427.4844 50.8625,427.7031 50.9563,428.1094 C51.0188,428.5156 51.05,428.6406 51.1906,428.7656 C51.3313,428.9063 51.5656,429.0156 51.7844,429.0156 C52.05,429.0156 52.3156,428.875 52.4875,428.6563 C52.5969,428.5 52.6281,428.3125 52.6281,427.8906 L52.6281,426.4688 C52.6281,426.0313 52.6125,425.9063 52.5188,425.75 C52.3625,425.4844 52.0813,425.3438 51.7844,425.3438 C51.4875,425.3438 51.2844,425.4375 51.0656,425.75 L50.8938,425.6719 Z " fill="#000000"/><text fill="#000000" font-family="sans-serif" font-size="12" lengthAdjust="spacing" textLength="89" x="68.45" y="434.1543">StoreTestType</text><line style="stroke:#A80036;stroke-width:1.5;" x1="8" x2="186" y1="446" y2="446"/><line style="stroke:#A80036;stroke-width:1.5;" x1="8" x2="186" y1="454" y2="454"/><ellipse cx="18" cy="465" fill="#84BE84" rx="3" ry="3" style="stroke:#038048;stroke-width:1.0;"/><text fill="#000000" font-family="sans-serif" font-size="11" lengthAdjust="spacing" textLength="154" x="27" y="468.2104">getTestTypeByCode(code)</text><!--MD5=[add58a1a528e03f610f259f900a0f87b]
class StoreTest--><rect fill="#FEFECE" filter="url(#f15by6n4jg913n)" height="99.2188" id="StoreTest" style="stroke:#A80036;stroke-width:1.5;" width="239" x="222.5" y="395"/><ellipse cx="308.25" cy="411" fill="#ADD1B2" rx="11" ry="11" style="stroke:#A80036;stroke-width:1.0;"/><path d="M310.5938,406.6719 C309.6563,406.2344 309.0625,406.0938 308.1875,406.0938 C305.5625,406.0938 303.5625,408.1719 303.5625,410.8906 L303.5625,412.0156 C303.5625,414.5938 305.6719,416.4844 308.5625,416.4844 C309.7813,416.4844 310.9375,416.1875 311.6875,415.6406 C312.2656,415.2344 312.5938,414.7813 312.5938,414.3906 C312.5938,413.9375 312.2031,413.5469 311.7344,413.5469 C311.5156,413.5469 311.3125,413.625 311.125,413.8125 C310.6719,414.2969 310.6719,414.2969 310.4844,414.3906 C310.0625,414.6563 309.375,414.7813 308.6094,414.7813 C306.5625,414.7813 305.2656,413.6875 305.2656,411.9844 L305.2656,410.8906 C305.2656,409.1094 306.5156,407.7969 308.25,407.7969 C308.8281,407.7969 309.4375,407.9531 309.9063,408.2031 C310.3906,408.4844 310.5625,408.7031 310.6563,409.1094 C310.7188,409.5156 310.75,409.6406 310.8906,409.7656 C311.0313,409.9063 311.2656,410.0156 311.4844,410.0156 C311.75,410.0156 312.0156,409.875 312.1875,409.6563 C312.2969,409.5 312.3281,409.3125 312.3281,408.8906 L312.3281,407.4688 C312.3281,407.0313 312.3125,406.9063 312.2188,406.75 C312.0625,406.4844 311.7813,406.3438 311.4844,406.3438 C311.1875,406.3438 310.9844,406.4375 310.7656,406.75 L310.5938,406.6719 Z " fill="#000000"/><text fill="#000000" font-family="sans-serif" font-size="12" lengthAdjust="spacing" textLength="59" x="328.75" y="415.1543">StoreTest</text><line style="stroke:#A80036;stroke-width:1.5;" x1="223.5" x2="460.5" y1="427" y2="427"/><line style="stroke:#A80036;stroke-width:1.5;" x1="223.5" x2="460.5" y1="435" y2="435"/><ellipse cx="233.5" cy="446" fill="#84BE84" rx="3" ry="3" style="stroke:#038048;stroke-width:1.0;"/><text fill="#000000" font-family="sans-serif" font-size="11" lengthAdjust="spacing" textLength="213" x="242.5" y="449.2104">createTest(code, nhsCode, testType)</text><ellipse cx="233.5" cy="458.8047" fill="#84BE84" rx="3" ry="3" style="stroke:#038048;stroke-width:1.0;"/><text fill="#000000" font-family="sans-serif" font-size="11" lengthAdjust="spacing" textLength="88" x="242.5" y="462.0151">validateTest(cl)</text><ellipse cx="233.5" cy="471.6094" fill="#84BE84" rx="3" ry="3" style="stroke:#038048;stroke-width:1.0;"/><text fill="#000000" font-family="sans-serif" font-size="11" lengthAdjust="spacing" textLength="63" x="242.5" y="474.8198">addTest(cl)</text><ellipse cx="233.5" cy="484.4141" fill="#84BE84" rx="3" ry="3" style="stroke:#038048;stroke-width:1.0;"/><text fill="#000000" font-family="sans-serif" font-size="11" lengthAdjust="spacing" textLength="70" x="242.5" y="487.6245">saveTest(cl)</text><!--MD5=[df38be88ccee13e832d6fafd6288a4ca]
class Test--><rect fill="#FEFECE" filter="url(#f15by6n4jg913n)" height="99.2188" id="Test" style="stroke:#A80036;stroke-width:1.5;" width="202" x="218" y="554"/><ellipse cx="301.75" cy="570" fill="#ADD1B2" rx="11" ry="11" style="stroke:#A80036;stroke-width:1.0;"/><path d="M304.0938,565.6719 C303.1563,565.2344 302.5625,565.0938 301.6875,565.0938 C299.0625,565.0938 297.0625,567.1719 297.0625,569.8906 L297.0625,571.0156 C297.0625,573.5938 299.1719,575.4844 302.0625,575.4844 C303.2813,575.4844 304.4375,575.1875 305.1875,574.6406 C305.7656,574.2344 306.0938,573.7813 306.0938,573.3906 C306.0938,572.9375 305.7031,572.5469 305.2344,572.5469 C305.0156,572.5469 304.8125,572.625 304.625,572.8125 C304.1719,573.2969 304.1719,573.2969 303.9844,573.3906 C303.5625,573.6563 302.875,573.7813 302.1094,573.7813 C300.0625,573.7813 298.7656,572.6875 298.7656,570.9844 L298.7656,569.8906 C298.7656,568.1094 300.0156,566.7969 301.75,566.7969 C302.3281,566.7969 302.9375,566.9531 303.4063,567.2031 C303.8906,567.4844 304.0625,567.7031 304.1563,568.1094 C304.2188,568.5156 304.25,568.6406 304.3906,568.7656 C304.5313,568.9063 304.7656,569.0156 304.9844,569.0156 C305.25,569.0156 305.5156,568.875 305.6875,568.6563 C305.7969,568.5 305.8281,568.3125 305.8281,567.8906 L305.8281,566.4688 C305.8281,566.0313 305.8125,565.9063 305.7188,565.75 C305.5625,565.4844 305.2813,565.3438 304.9844,565.3438 C304.6875,565.3438 304.4844,565.4375 304.2656,565.75 L304.0938,565.6719 Z " fill="#000000"/><text fill="#000000" font-family="sans-serif" font-size="12" lengthAdjust="spacing" textLength="26" x="322.25" y="574.1543">Test</text><line style="stroke:#A80036;stroke-width:1.5;" x1="219" x2="419" y1="586" y2="586"/><rect fill="none" height="6" style="stroke:#C82930;stroke-width:1.0;" width="6" x="226" y="594"/><text fill="#000000" font-family="sans-serif" font-size="11" lengthAdjust="spacing" textLength="46" x="238" y="600.2104">Int code</text><rect fill="none" height="6" style="stroke:#C82930;stroke-width:1.0;" width="6" x="226" y="606.8047"/><text fill="#000000" font-family="sans-serif" font-size="11" lengthAdjust="spacing" textLength="87" x="238" y="613.0151">String nhsCode</text><rect fill="none" height="6" style="stroke:#C82930;stroke-width:1.0;" width="6" x="226" y="619.6094"/><text fill="#000000" font-family="sans-serif" font-size="11" lengthAdjust="spacing" textLength="169" x="238" y="625.8198">List &lt;TestType&gt; listTestType</text><line style="stroke:#A80036;stroke-width:1.5;" x1="219" x2="419" y1="632.4141" y2="632.4141"/><ellipse cx="229" cy="643.4141" fill="#84BE84" rx="3" ry="3" style="stroke:#038048;stroke-width:1.0;"/><text fill="#000000" font-family="sans-serif" font-size="11" lengthAdjust="spacing" textLength="176" x="238" y="646.6245">Test(code, nhsCode, testType)</text><!--MD5=[aeb3272166074d8737a70b61b1e71682]
class TestType--><rect fill="#FEFECE" filter="url(#f15by6n4jg913n)" height="112.0234" id="TestType" style="stroke:#A80036;stroke-width:1.5;" width="333" x="63.5" y="713"/><ellipse cx="197.75" cy="729" fill="#ADD1B2" rx="11" ry="11" style="stroke:#A80036;stroke-width:1.0;"/><path d="M200.0938,724.6719 C199.1563,724.2344 198.5625,724.0938 197.6875,724.0938 C195.0625,724.0938 193.0625,726.1719 193.0625,728.8906 L193.0625,730.0156 C193.0625,732.5938 195.1719,734.4844 198.0625,734.4844 C199.2813,734.4844 200.4375,734.1875 201.1875,733.6406 C201.7656,733.2344 202.0938,732.7813 202.0938,732.3906 C202.0938,731.9375 201.7031,731.5469 201.2344,731.5469 C201.0156,731.5469 200.8125,731.625 200.625,731.8125 C200.1719,732.2969 200.1719,732.2969 199.9844,732.3906 C199.5625,732.6563 198.875,732.7813 198.1094,732.7813 C196.0625,732.7813 194.7656,731.6875 194.7656,729.9844 L194.7656,728.8906 C194.7656,727.1094 196.0156,725.7969 197.75,725.7969 C198.3281,725.7969 198.9375,725.9531 199.4063,726.2031 C199.8906,726.4844 200.0625,726.7031 200.1563,727.1094 C200.2188,727.5156 200.25,727.6406 200.3906,727.7656 C200.5313,727.9063 200.7656,728.0156 200.9844,728.0156 C201.25,728.0156 201.5156,727.875 201.6875,727.6563 C201.7969,727.5 201.8281,727.3125 201.8281,726.8906 L201.8281,725.4688 C201.8281,725.0313 201.8125,724.9063 201.7188,724.75 C201.5625,724.4844 201.2813,724.3438 200.9844,724.3438 C200.6875,724.3438 200.4844,724.4375 200.2656,724.75 L200.0938,724.6719 Z " fill="#000000"/><text fill="#000000" font-family="sans-serif" font-size="12" lengthAdjust="spacing" textLength="56" x="218.25" y="733.1543">TestType</text><line style="stroke:#A80036;stroke-width:1.5;" x1="64.5" x2="395.5" y1="745" y2="745"/><rect fill="none" height="6" style="stroke:#C82930;stroke-width:1.0;" width="6" x="71.5" y="753"/><text fill="#000000" font-family="sans-serif" font-size="11" lengthAdjust="spacing" textLength="99" x="83.5" y="759.2104">String description</text><rect fill="none" height="6" style="stroke:#C82930;stroke-width:1.0;" width="6" x="71.5" y="765.8047"/><text fill="#000000" font-family="sans-serif" font-size="11" lengthAdjust="spacing" textLength="133" x="83.5" y="772.0151">String collectingMethod</text><rect fill="none" height="6" style="stroke:#C82930;stroke-width:1.0;" width="6" x="71.5" y="778.6094"/><text fill="#000000" font-family="sans-serif" font-size="11" lengthAdjust="spacing" textLength="65" x="83.5" y="784.8198">String code</text><rect fill="none" height="6" style="stroke:#C82930;stroke-width:1.0;" width="6" x="71.5" y="791.4141"/><text fill="#000000" font-family="sans-serif" font-size="11" lengthAdjust="spacing" textLength="73" x="83.5" y="797.6245">List category</text><line style="stroke:#A80036;stroke-width:1.5;" x1="64.5" x2="395.5" y1="804.2188" y2="804.2188"/><ellipse cx="74.5" cy="815.2188" fill="#84BE84" rx="3" ry="3" style="stroke:#038048;stroke-width:1.0;"/><text fill="#000000" font-family="sans-serif" font-size="11" lengthAdjust="spacing" textLength="307" x="83.5" y="818.4292">TestType(description,collectingMethod,code,category)</text><!--MD5=[cce588b1257212cacdbb4ae502a7ab9f]
link RegistTestUI to RegistTestController--><path codeLine="1" d="M226,55.219 C226,70.514 226,91.087 226,109.734 " fill="none" id="RegistTestUI-to-RegistTestController" style="stroke:#A80036;stroke-width:1.0;stroke-dasharray:7.0,7.0;"/><polygon fill="#A80036" points="226,114.936,230,105.936,226,109.936,222,105.936,226,114.936" style="stroke:#A80036;stroke-width:1.0;"/><!--MD5=[b6543653873bd5dd5d04b6e7949c8dab]
link RegistTestController to Company--><path codeLine="2" d="M226,201.154 C226,218.394 226,238.283 226,255.46 " fill="none" id="RegistTestController-to-Company" style="stroke:#A80036;stroke-width:1.0;stroke-dasharray:7.0,7.0;"/><polygon fill="#A80036" points="226,260.697,230,251.697,226,255.697,222,251.697,226,260.697" style="stroke:#A80036;stroke-width:1.0;"/><!--MD5=[7f0d49c81f3bb1722ccf8db9d08cdee0]
link RegistTestController to StoreTestType--><path codeLine="3" d="M191.657,201.304 C178.532,218.974 164.269,240.204 154,261 C129.807,309.991 113.159,371.435 104.3565,409.061 " fill="none" id="RegistTestController-to-StoreTestType" style="stroke:#A80036;stroke-width:1.0;stroke-dasharray:7.0,7.0;"/><polygon fill="#A80036" points="103.2183,413.982,109.1442,406.1154,104.3454,409.1107,101.3501,404.3119,103.2183,413.982" style="stroke:#A80036;stroke-width:1.0;"/><!--MD5=[c71efe01cf15061d11399e602c1ac66c]
link RegistTestController to StoreTest--><path codeLine="4" d="M261.419,201.466 C274.539,218.989 288.513,240.074 298,261 C316.738,302.335 328.11,352.698 334.585,390.039 " fill="none" id="RegistTestController-to-StoreTest" style="stroke:#A80036;stroke-width:1.0;stroke-dasharray:7.0,7.0;"/><polygon fill="#A80036" points="335.427,394.988,337.8607,385.4446,334.5883,390.0588,329.9741,386.7864,335.427,394.988" style="stroke:#A80036;stroke-width:1.0;"/><!--MD5=[43a7aa76b78ec5391963d0c38d388b7f]
link Company to StoreTest--><path codeLine="11" d="M254.972,335.091 C268.448,351.877 284.741,372.173 299.568,390.642 " fill="none" id="Company-to-StoreTest" style="stroke:#A80036;stroke-width:1.0;stroke-dasharray:7.0,7.0;"/><polygon fill="#A80036" points="302.905,394.799,300.3896,385.2768,299.7747,390.9001,294.1514,390.2852,302.905,394.799" style="stroke:#A80036;stroke-width:1.0;"/><!--MD5=[7d83db4f22686323470bd9ed8c83f833]
link Company to StoreTestType--><path codeLine="12" d="M193.781,335.091 C173.322,358.007 147.026,387.463 127.009,409.885 " fill="none" id="Company-to-StoreTestType" style="stroke:#A80036;stroke-width:1.0;stroke-dasharray:7.0,7.0;"/><polygon fill="#A80036" points="123.601,413.703,132.5787,409.6531,126.9309,409.9731,126.6109,404.3253,123.601,413.703" style="stroke:#A80036;stroke-width:1.0;"/><!--MD5=[278e87cce1d505dab62018c1e0f0f009]
link StoreTest to Test--><path codeLine="25" d="M334.849,494.315 C332.327,511.528 329.478,530.973 326.899,548.583 " fill="none" id="StoreTest-to-Test" style="stroke:#A80036;stroke-width:1.0;stroke-dasharray:7.0,7.0;"/><polygon fill="#A80036" points="326.107,553.985,331.3686,545.6594,326.8313,549.0377,323.4529,544.5005,326.107,553.985" style="stroke:#A80036;stroke-width:1.0;"/><!--MD5=[5d04ed042f846d11be9781438a7a95b8]
link StoreTestType to TestType--><path codeLine="32" d="M109.274,475.262 C131.034,528.026 176.763,638.91 205.275,708.045 " fill="none" id="StoreTestType-to-TestType" style="stroke:#A80036;stroke-width:1.0;stroke-dasharray:7.0,7.0;"/><polygon fill="#A80036" points="207.297,712.95,207.565,703.1048,205.3914,708.3274,200.1688,706.1538,207.297,712.95" style="stroke:#A80036;stroke-width:1.0;"/><!--MD5=[e981d4f96c4342412d1e68160b30cf70]
link Test to TestType--><path codeLine="33" d="M292.538,653.113 C283.091,670.468 272.338,690.222 262.445,708.397 " fill="none" id="Test-to-TestType" style="stroke:#A80036;stroke-width:1.0;stroke-dasharray:7.0,7.0;"/><polygon fill="#A80036" points="259.949,712.981,267.7647,706.988,262.3392,708.5893,260.7379,703.1638,259.949,712.981" style="stroke:#A80036;stroke-width:1.0;"/><!--MD5=[957122d376b52fc1bc851b456f038ddf]
@startuml
RegistTestUI ..> RegistTestController
RegistTestController ..>Company
RegistTestController ..>StoreTestType
RegistTestController ..>StoreTest


RegistTestController : +getTestType()
RegistTestController : +createTest(code, nhsCode, testType)
RegistTestController : +saveTest()

Company ..> StoreTest
Company ..> StoreTestType

Company : +getTestType()
Company : +getStoreTest()


StoreTestType : +getTestTypeByCode(code)

StoreTest : +createTest(code, nhsCode, testType)
StoreTest : +validateTest(cl)
StoreTest : +addTest(cl)
StoreTest : +saveTest(cl)

StoreTest ..> Test

Test : -Int code
Test : -String nhsCode
Test : -List <TestType> listTestType
Test : +Test(code, nhsCode, testType)

StoreTestType ..> TestType
Test ..> TestType

TestType : -String description
TestType : -String collectingMethod
TestType : -String code
TestType : -List category
TestType : +TestType(description,collectingMethod,code,category)
@enduml

PlantUML version 1.2021.6beta6(Unknown compile time)
(GPL source distribution)
Java Runtime: Java(TM) SE Runtime Environment
JVM: Java HotSpot(TM) 64-Bit Server VM
Default Encoding: UTF-8
Language: en
Country: US
--></g></svg>