<?xml version="1.0" encoding="UTF-8" standalone="no"?><svg xmlns="http://www.w3.org/2000/svg" xmlns:xlink="http://www.w3.org/1999/xlink" contentScriptType="application/ecmascript" contentStyleType="text/css" height="1089px" preserveAspectRatio="none" style="width:1916px;height:1089px;background:#FFFFFF;" version="1.1" viewBox="0 0 1916 1089" width="1916px" zoomAndPan="magnify"><defs><filter height="300%" id="f2etxv7slkocx" width="300%" x="-1" y="-1"><feGaussianBlur result="blurOut" stdDeviation="2.0"/><feColorMatrix in="blurOut" result="blurOut2" type="matrix" values="0 0 0 0 0 0 0 0 0 0 0 0 0 0 0 0 0 0 .4 0"/><feOffset dx="4.0" dy="4.0" in="blurOut2" result="blurOut3"/><feBlend in="SourceGraphic" in2="blurOut3" mode="normal"/></filter></defs><g><rect fill="#FFFFFF" filter="url(#f2etxv7slkocx)" height="888.5391" style="stroke:#A80036;stroke-width:1.0;" width="10" x="64.5" y="98.2969"/><rect fill="#FFFFFF" filter="url(#f2etxv7slkocx)" height="29.1328" style="stroke:#A80036;stroke-width:1.0;" width="10" x="604.5" y="119.4297"/><rect fill="#FFFFFF" filter="url(#f2etxv7slkocx)" height="281.6875" style="stroke:#A80036;stroke-width:1.0;" width="10" x="604.5" y="177.6953"/><rect fill="#FFFFFF" filter="url(#f2etxv7slkocx)" height="244.2578" style="stroke:#A80036;stroke-width:1.0;" width="10" x="604.5" y="541.7813"/><rect fill="#FFFFFF" filter="url(#f2etxv7slkocx)" height="171.6641" style="stroke:#A80036;stroke-width:1.0;" width="10" x="604.5" y="815.1719"/><rect fill="#FFFFFF" filter="url(#f2etxv7slkocx)" height="252.5547" style="stroke:#A80036;stroke-width:1.0;" width="10" x="894.5" y="206.8281"/><rect fill="#FFFFFF" filter="url(#f2etxv7slkocx)" height="215.125" style="stroke:#A80036;stroke-width:1.0;" width="10" x="894.5" y="570.9141"/><rect fill="#FFFFFF" filter="url(#f2etxv7slkocx)" height="106.3984" style="stroke:#A80036;stroke-width:1.0;" width="10" x="894.5" y="844.3047"/><rect fill="#FFFFFF" filter="url(#f2etxv7slkocx)" height="74.4297" style="stroke:#A80036;stroke-width:1.0;" width="10" x="1050.5" y="235.9609"/><rect fill="#FFFFFF" filter="url(#f2etxv7slkocx)" height="516.75" style="stroke:#A80036;stroke-width:1.0;" width="10" x="1206.5" y="98.2969"/><rect fill="#FFFFFF" filter="url(#f2etxv7slkocx)" height="29.1328" style="stroke:#A80036;stroke-width:1.0;" width="10" x="1206.5" y="636.1797"/><rect fill="#FFFFFF" filter="url(#f2etxv7slkocx)" height="30" style="stroke:#A80036;stroke-width:1.0;" width="10" x="1206.5" y="726.9063"/><rect fill="#FFFFFF" filter="url(#f2etxv7slkocx)" height="148.9922" style="stroke:#A80036;stroke-width:1.0;" width="10" x="1321" y="310.3906"/><rect fill="#FFFFFF" filter="url(#f2etxv7slkocx)" height="113.3984" style="stroke:#A80036;stroke-width:1.0;" width="10" x="1436.5" y="873.4375"/><rect fill="#FFFFFF" filter="url(#f2etxv7slkocx)" height="133.6641" style="stroke:#000000;stroke-width:2.0;" width="1257" x="10" y="474.3828"/><line style="stroke:#A80036;stroke-width:1.0;stroke-dasharray:5.0,5.0;" x1="69" x2="69" y1="88.2969" y2="1004.8359"/><line style="stroke:#A80036;stroke-width:1.0;stroke-dasharray:5.0,5.0;" x1="609.5" x2="609.5" y1="88.2969" y2="1004.8359"/><line style="stroke:#A80036;stroke-width:1.0;stroke-dasharray:5.0,5.0;" x1="899.5" x2="899.5" y1="88.2969" y2="1004.8359"/><line style="stroke:#A80036;stroke-width:1.0;stroke-dasharray:5.0,5.0;" x1="1055" x2="1055" y1="88.2969" y2="1004.8359"/><line style="stroke:#A80036;stroke-width:1.0;stroke-dasharray:5.0,5.0;" x1="1211" x2="1211" y1="88.2969" y2="1004.8359"/><line style="stroke:#A80036;stroke-width:1.0;stroke-dasharray:5.0,5.0;" x1="1326" x2="1326" y1="88.2969" y2="1004.8359"/><line style="stroke:#A80036;stroke-width:1.0;stroke-dasharray:5.0,5.0;" x1="1441" x2="1441" y1="88.2969" y2="1004.8359"/><line style="stroke:#A80036;stroke-width:1.0;stroke-dasharray:5.0,5.0;" x1="1589" x2="1589" y1="276.6094" y2="1004.8359"/><line style="stroke:#A80036;stroke-width:1.0;stroke-dasharray:5.0,5.0;" x1="1768" x2="1768" y1="388.3203" y2="1004.8359"/><line style="stroke:#A80036;stroke-width:1.0;stroke-dasharray:5.0,5.0;" x1="1881" x2="1881" y1="684.9766" y2="1004.8359"/><text fill="#000000" font-family="sans-serif" font-size="14" lengthAdjust="spacing" textLength="93" x="20" y="84.9951">Receptionist</text><ellipse cx="69.5" cy="15" fill="#FEFECE" filter="url(#f2etxv7slkocx)" rx="8" ry="8" style="stroke:#A80036;stroke-width:2.0;"/><path d="M69.5,23 L69.5,50 M56.5,31 L82.5,31 M69.5,50 L56.5,65 M69.5,50 L82.5,65 " fill="none" filter="url(#f2etxv7slkocx)" style="stroke:#A80036;stroke-width:2.0;"/><text fill="#000000" font-family="sans-serif" font-size="14" lengthAdjust="spacing" textLength="93" x="20" y="1016.8311">Receptionist</text><ellipse cx="69.5" cy="1030.1328" fill="#FEFECE" filter="url(#f2etxv7slkocx)" rx="8" ry="8" style="stroke:#A80036;stroke-width:2.0;"/><path d="M69.5,1038.1328 L69.5,1065.1328 M56.5,1046.1328 L82.5,1046.1328 M69.5,1065.1328 L56.5,1080.1328 M69.5,1065.1328 L82.5,1080.1328 " fill="none" filter="url(#f2etxv7slkocx)" style="stroke:#A80036;stroke-width:2.0;"/><rect fill="#FEFECE" filter="url(#f2etxv7slkocx)" height="30.2969" style="stroke:#A80036;stroke-width:1.5;" width="114" x="550.5" y="53"/><text fill="#000000" font-family="sans-serif" font-size="14" lengthAdjust="spacing" textLength="100" x="557.5" y="72.9951">:RegistTest UI</text><rect fill="#FEFECE" filter="url(#f2etxv7slkocx)" height="30.2969" style="stroke:#A80036;stroke-width:1.5;" width="114" x="550.5" y="1003.8359"/><text fill="#000000" font-family="sans-serif" font-size="14" lengthAdjust="spacing" textLength="100" x="557.5" y="1023.8311">:RegistTest UI</text><rect fill="#FEFECE" filter="url(#f2etxv7slkocx)" height="30.2969" style="stroke:#A80036;stroke-width:1.5;" width="176" x="809.5" y="53"/><text fill="#000000" font-family="sans-serif" font-size="14" lengthAdjust="spacing" textLength="162" x="816.5" y="72.9951">:RegistTestCrontroller</text><rect fill="#FEFECE" filter="url(#f2etxv7slkocx)" height="30.2969" style="stroke:#A80036;stroke-width:1.5;" width="176" x="809.5" y="1003.8359"/><text fill="#000000" font-family="sans-serif" font-size="14" lengthAdjust="spacing" textLength="162" x="816.5" y="1023.8311">:RegistTestCrontroller</text><rect fill="#FEFECE" filter="url(#f2etxv7slkocx)" height="30.2969" style="stroke:#A80036;stroke-width:1.5;" width="87" x="1010" y="53"/><text fill="#000000" font-family="sans-serif" font-size="14" lengthAdjust="spacing" textLength="73" x="1017" y="72.9951">:Company</text><rect fill="#FEFECE" filter="url(#f2etxv7slkocx)" height="30.2969" style="stroke:#A80036;stroke-width:1.5;" width="87" x="1010" y="1003.8359"/><text fill="#000000" font-family="sans-serif" font-size="14" lengthAdjust="spacing" textLength="73" x="1017" y="1023.8311">:Company</text><rect fill="#FEFECE" filter="url(#f2etxv7slkocx)" height="46.5938" style="stroke:#A80036;stroke-width:1.5;" width="87" x="1166" y="36.7031"/><text fill="#000000" font-family="sans-serif" font-size="14" lengthAdjust="spacing" textLength="38" x="1190.5" y="56.6982">store</text><text fill="#000000" font-family="sans-serif" font-size="14" lengthAdjust="spacing" textLength="73" x="1173" y="72.9951">:TestType</text><rect fill="#FEFECE" filter="url(#f2etxv7slkocx)" height="46.5938" style="stroke:#A80036;stroke-width:1.5;" width="87" x="1166" y="1003.8359"/><text fill="#000000" font-family="sans-serif" font-size="14" lengthAdjust="spacing" textLength="38" x="1190.5" y="1023.8311">store</text><text fill="#000000" font-family="sans-serif" font-size="14" lengthAdjust="spacing" textLength="73" x="1173" y="1040.1279">:TestType</text><rect fill="#FEFECE" filter="url(#f2etxv7slkocx)" height="30.2969" style="stroke:#A80036;stroke-width:1.5;" width="114" x="1267" y="53"/><text fill="#000000" font-family="sans-serif" font-size="14" lengthAdjust="spacing" textLength="100" x="1274" y="72.9951">:listTTMapper</text><rect fill="#FEFECE" filter="url(#f2etxv7slkocx)" height="30.2969" style="stroke:#A80036;stroke-width:1.5;" width="114" x="1267" y="1003.8359"/><text fill="#000000" font-family="sans-serif" font-size="14" lengthAdjust="spacing" textLength="100" x="1274" y="1023.8311">:listTTMapper</text><rect fill="#FEFECE" filter="url(#f2etxv7slkocx)" height="46.5938" style="stroke:#A80036;stroke-width:1.5;" width="89" x="1395" y="36.7031"/><text fill="#000000" font-family="sans-serif" font-size="14" lengthAdjust="spacing" textLength="38" x="1420.5" y="56.6982">store</text><text fill="#000000" font-family="sans-serif" font-size="14" lengthAdjust="spacing" textLength="75" x="1402" y="72.9951">:storeTest</text><rect fill="#FEFECE" filter="url(#f2etxv7slkocx)" height="46.5938" style="stroke:#A80036;stroke-width:1.5;" width="89" x="1395" y="1003.8359"/><text fill="#000000" font-family="sans-serif" font-size="14" lengthAdjust="spacing" textLength="38" x="1420.5" y="1023.8311">store</text><text fill="#000000" font-family="sans-serif" font-size="14" lengthAdjust="spacing" textLength="75" x="1402" y="1040.1279">:storeTest</text><rect fill="#FEFECE" filter="url(#f2etxv7slkocx)" height="30.2969" style="stroke:#A80036;stroke-width:1.5;" width="179" x="1498" y="1003.8359"/><text fill="#000000" font-family="sans-serif" font-size="14" lengthAdjust="spacing" textLength="165" x="1505" y="1023.8311">listTT :List&lt;TestType&gt;</text><rect fill="#FEFECE" filter="url(#f2etxv7slkocx)" height="46.5938" style="stroke:#A80036;stroke-width:1.5;" width="151" x="1691" y="1003.8359"/><text fill="#000000" font-family="sans-serif" font-size="14" lengthAdjust="spacing" textLength="67" x="1733" y="1023.8311">listTTDto</text><text fill="#000000" font-family="sans-serif" font-size="14" lengthAdjust="spacing" textLength="137" x="1698" y="1040.1279">:List&lt;TestTypeDto</text><rect fill="#FEFECE" filter="url(#f2etxv7slkocx)" height="46.5938" style="stroke:#A80036;stroke-width:1.5;" width="46" x="1856" y="1003.8359"/><text fill="#000000" font-family="sans-serif" font-size="14" lengthAdjust="spacing" textLength="20" x="1867" y="1023.8311">ct:</text><text fill="#000000" font-family="sans-serif" font-size="14" lengthAdjust="spacing" textLength="32" x="1863" y="1040.1279">Test</text><rect fill="#FFFFFF" filter="url(#f2etxv7slkocx)" height="888.5391" style="stroke:#A80036;stroke-width:1.0;" width="10" x="64.5" y="98.2969"/><rect fill="#FFFFFF" filter="url(#f2etxv7slkocx)" height="29.1328" style="stroke:#A80036;stroke-width:1.0;" width="10" x="604.5" y="119.4297"/><rect fill="#FFFFFF" filter="url(#f2etxv7slkocx)" height="281.6875" style="stroke:#A80036;stroke-width:1.0;" width="10" x="604.5" y="177.6953"/><rect fill="#FFFFFF" filter="url(#f2etxv7slkocx)" height="244.2578" style="stroke:#A80036;stroke-width:1.0;" width="10" x="604.5" y="541.7813"/><rect fill="#FFFFFF" filter="url(#f2etxv7slkocx)" height="171.6641" style="stroke:#A80036;stroke-width:1.0;" width="10" x="604.5" y="815.1719"/><rect fill="#FFFFFF" filter="url(#f2etxv7slkocx)" height="252.5547" style="stroke:#A80036;stroke-width:1.0;" width="10" x="894.5" y="206.8281"/><rect fill="#FFFFFF" filter="url(#f2etxv7slkocx)" height="215.125" style="stroke:#A80036;stroke-width:1.0;" width="10" x="894.5" y="570.9141"/><rect fill="#FFFFFF" filter="url(#f2etxv7slkocx)" height="106.3984" style="stroke:#A80036;stroke-width:1.0;" width="10" x="894.5" y="844.3047"/><rect fill="#FFFFFF" filter="url(#f2etxv7slkocx)" height="74.4297" style="stroke:#A80036;stroke-width:1.0;" width="10" x="1050.5" y="235.9609"/><rect fill="#FFFFFF" filter="url(#f2etxv7slkocx)" height="516.75" style="stroke:#A80036;stroke-width:1.0;" width="10" x="1206.5" y="98.2969"/><rect fill="#FFFFFF" filter="url(#f2etxv7slkocx)" height="29.1328" style="stroke:#A80036;stroke-width:1.0;" width="10" x="1206.5" y="636.1797"/><rect fill="#FFFFFF" filter="url(#f2etxv7slkocx)" height="30" style="stroke:#A80036;stroke-width:1.0;" width="10" x="1206.5" y="726.9063"/><rect fill="#FFFFFF" filter="url(#f2etxv7slkocx)" height="148.9922" style="stroke:#A80036;stroke-width:1.0;" width="10" x="1321" y="310.3906"/><rect fill="#FFFFFF" filter="url(#f2etxv7slkocx)" height="113.3984" style="stroke:#A80036;stroke-width:1.0;" width="10" x="1436.5" y="873.4375"/><polygon fill="#A80036" points="592.5,115.4297,602.5,119.4297,592.5,123.4297,596.5,119.4297" style="stroke:#A80036;stroke-width:1.0;"/><line style="stroke:#A80036;stroke-width:1.0;" x1="74.5" x2="598.5" y1="119.4297" y2="119.4297"/><text fill="#000000" font-family="sans-serif" font-size="13" font-weight="bold" lengthAdjust="spacing" textLength="9" x="81.5" y="114.3638">1</text><text fill="#000000" font-family="sans-serif" font-size="13" lengthAdjust="spacing" textLength="285" x="94.5" y="114.3638">starts a new test to be performed to a client</text><polygon fill="#A80036" points="85.5,144.5625,75.5,148.5625,85.5,152.5625,81.5,148.5625" style="stroke:#A80036;stroke-width:1.0;"/><line style="stroke:#A80036;stroke-width:1.0;stroke-dasharray:2.0,2.0;" x1="79.5" x2="608.5" y1="148.5625" y2="148.5625"/><text fill="#000000" font-family="sans-serif" font-size="13" font-weight="bold" lengthAdjust="spacing" textLength="9" x="91.5" y="143.4966">2</text><text fill="#000000" font-family="sans-serif" font-size="13" lengthAdjust="spacing" textLength="252" x="104.5" y="143.4966">request data(code, nhsCode, testType)</text><polygon fill="#A80036" points="592.5,173.6953,602.5,177.6953,592.5,181.6953,596.5,177.6953" style="stroke:#A80036;stroke-width:1.0;"/><line style="stroke:#A80036;stroke-width:1.0;" x1="74.5" x2="598.5" y1="177.6953" y2="177.6953"/><text fill="#000000" font-family="sans-serif" font-size="13" font-weight="bold" lengthAdjust="spacing" textLength="8" x="81.5" y="172.6294">3</text><text fill="#000000" font-family="sans-serif" font-size="13" lengthAdjust="spacing" textLength="138" x="93.5" y="172.6294">types requested data</text><polygon fill="#A80036" points="882.5,202.8281,892.5,206.8281,882.5,210.8281,886.5,206.8281" style="stroke:#A80036;stroke-width:1.0;"/><line style="stroke:#A80036;stroke-width:1.0;stroke-dasharray:2.0,2.0;" x1="614.5" x2="888.5" y1="206.8281" y2="206.8281"/><text fill="#000000" font-family="sans-serif" font-size="13" font-weight="bold" lengthAdjust="spacing" textLength="9" x="621.5" y="201.7622">4</text><text fill="#000000" font-family="sans-serif" font-size="13" lengthAdjust="spacing" textLength="114" x="634.5" y="201.7622">m=getTestType()</text><polygon fill="#A80036" points="1038.5,231.9609,1048.5,235.9609,1038.5,239.9609,1042.5,235.9609" style="stroke:#A80036;stroke-width:1.0;"/><line style="stroke:#A80036;stroke-width:1.0;stroke-dasharray:2.0,2.0;" x1="904.5" x2="1044.5" y1="235.9609" y2="235.9609"/><text fill="#000000" font-family="sans-serif" font-size="13" font-weight="bold" lengthAdjust="spacing" textLength="9" x="911.5" y="230.895">5</text><text fill="#000000" font-family="sans-serif" font-size="13" lengthAdjust="spacing" textLength="114" x="924.5" y="230.895">m=getTestType()</text><polygon fill="#A80036" points="1486,261.0938,1496,265.0938,1486,269.0938,1490,265.0938" style="stroke:#A80036;stroke-width:1.0;"/><line style="stroke:#A80036;stroke-width:1.0;stroke-dasharray:2.0,2.0;" x1="1060.5" x2="1492" y1="265.0938" y2="265.0938"/><text fill="#000000" font-family="sans-serif" font-size="13" font-weight="bold" lengthAdjust="spacing" textLength="9" x="1067.5" y="260.0278">6</text><text fill="#000000" font-family="sans-serif" font-size="13" lengthAdjust="spacing" textLength="51" x="1080.5" y="260.0278">create()</text><rect fill="#FEFECE" filter="url(#f2etxv7slkocx)" height="30.2969" style="stroke:#A80036;stroke-width:1.5;" width="179" x="1498" y="243.9609"/><text fill="#000000" font-family="sans-serif" font-size="14" lengthAdjust="spacing" textLength="165" x="1505" y="263.9561">listTT :List&lt;TestType&gt;</text><polygon fill="#A80036" points="915.5,306.3906,905.5,310.3906,915.5,314.3906,911.5,310.3906" style="stroke:#A80036;stroke-width:1.0;"/><line style="stroke:#A80036;stroke-width:1.0;stroke-dasharray:2.0,2.0;" x1="909.5" x2="1054.5" y1="310.3906" y2="310.3906"/><text fill="#000000" font-family="sans-serif" font-size="13" font-weight="bold" lengthAdjust="spacing" textLength="9" x="921.5" y="305.3247">7</text><text fill="#000000" font-family="sans-serif" font-size="13" lengthAdjust="spacing" textLength="34" x="934.5" y="305.3247">listTT</text><polygon fill="#A80036" points="1309,335.5234,1319,339.5234,1309,343.5234,1313,339.5234" style="stroke:#A80036;stroke-width:1.0;"/><line style="stroke:#A80036;stroke-width:1.0;stroke-dasharray:2.0,2.0;" x1="904.5" x2="1315" y1="339.5234" y2="339.5234"/><text fill="#000000" font-family="sans-serif" font-size="13" font-weight="bold" lengthAdjust="spacing" textLength="9" x="911.5" y="334.4575">8</text><text fill="#000000" font-family="sans-serif" font-size="13" lengthAdjust="spacing" textLength="85" x="924.5" y="334.4575">toDTO(listTT)</text><polygon fill="#A80036" points="1679,364.6563,1689,368.6563,1679,372.6563,1683,368.6563" style="stroke:#A80036;stroke-width:1.0;"/><line style="stroke:#A80036;stroke-width:1.0;stroke-dasharray:2.0,2.0;" x1="1331" x2="1685" y1="368.6563" y2="368.6563"/><text fill="#000000" font-family="sans-serif" font-size="13" font-weight="bold" lengthAdjust="spacing" textLength="9" x="1338" y="363.5903">9</text><text fill="#000000" font-family="sans-serif" font-size="13" lengthAdjust="spacing" textLength="51" x="1351" y="363.5903">create()</text><rect fill="#FEFECE" filter="url(#f2etxv7slkocx)" height="46.5938" style="stroke:#A80036;stroke-width:1.5;" width="151" x="1691" y="347.5234"/><text fill="#000000" font-family="sans-serif" font-size="14" lengthAdjust="spacing" textLength="67" x="1733" y="367.5186">listTTDto</text><text fill="#000000" font-family="sans-serif" font-size="14" lengthAdjust="spacing" textLength="137" x="1698" y="383.8154">:List&lt;TestTypeDto</text><polygon fill="#A80036" points="915.5,426.25,905.5,430.25,915.5,434.25,911.5,430.25" style="stroke:#A80036;stroke-width:1.0;"/><line style="stroke:#A80036;stroke-width:1.0;stroke-dasharray:2.0,2.0;" x1="909.5" x2="1320" y1="430.25" y2="430.25"/><text fill="#000000" font-family="sans-serif" font-size="13" font-weight="bold" lengthAdjust="spacing" textLength="19" x="921.5" y="425.1841">10</text><text fill="#000000" font-family="sans-serif" font-size="13" lengthAdjust="spacing" textLength="57" x="944.5" y="425.1841">listTTDto</text><polygon fill="#A80036" points="620.5,455.3828,610.5,459.3828,620.5,463.3828,616.5,459.3828" style="stroke:#A80036;stroke-width:1.0;"/><line style="stroke:#A80036;stroke-width:1.0;stroke-dasharray:2.0,2.0;" x1="614.5" x2="898.5" y1="459.3828" y2="459.3828"/><text fill="#000000" font-family="sans-serif" font-size="13" font-weight="bold" lengthAdjust="spacing" textLength="18" x="626.5" y="454.3169">11</text><text fill="#000000" font-family="sans-serif" font-size="13" lengthAdjust="spacing" textLength="57" x="648.5" y="454.3169">listTTDto</text><path d="M10,474.3828 L88,474.3828 L88,481.3828 L78,491.3828 L10,491.3828 L10,474.3828 " fill="#EEEEEE" style="stroke:#000000;stroke-width:1.0;"/><rect fill="none" height="133.6641" style="stroke:#000000;stroke-width:2.0;" width="1257" x="10" y="474.3828"/><text fill="#000000" font-family="sans-serif" font-size="13" font-weight="bold" lengthAdjust="spacing" textLength="33" x="25" y="487.4497">loop</text><polygon fill="#A80036" points="85.5,508.6484,75.5,512.6484,85.5,516.6484,81.5,512.6484" style="stroke:#A80036;stroke-width:1.0;"/><line style="stroke:#A80036;stroke-width:1.0;stroke-dasharray:2.0,2.0;" x1="79.5" x2="608.5" y1="512.6484" y2="512.6484"/><text fill="#000000" font-family="sans-serif" font-size="13" font-weight="bold" lengthAdjust="spacing" textLength="18" x="91.5" y="507.5825">12</text><text fill="#000000" font-family="sans-serif" font-size="13" lengthAdjust="spacing" textLength="489" x="113.5" y="507.5825">shows list of the parameters to be analised in accordance with the test type</text><polygon fill="#A80036" points="592.5,537.7813,602.5,541.7813,592.5,545.7813,596.5,541.7813" style="stroke:#A80036;stroke-width:1.0;"/><line style="stroke:#A80036;stroke-width:1.0;stroke-dasharray:2.0,2.0;" x1="74.5" x2="598.5" y1="541.7813" y2="541.7813"/><text fill="#000000" font-family="sans-serif" font-size="13" font-weight="bold" lengthAdjust="spacing" textLength="17" x="81.5" y="536.7153">13</text><text fill="#000000" font-family="sans-serif" font-size="13" lengthAdjust="spacing" textLength="110" x="102.5" y="536.7153">select parameter</text><polygon fill="#A80036" points="882.5,566.9141,892.5,570.9141,882.5,574.9141,886.5,570.9141" style="stroke:#A80036;stroke-width:1.0;"/><line style="stroke:#A80036;stroke-width:1.0;stroke-dasharray:2.0,2.0;" x1="614.5" x2="888.5" y1="570.9141" y2="570.9141"/><text fill="#000000" font-family="sans-serif" font-size="13" font-weight="bold" lengthAdjust="spacing" textLength="18" x="621.5" y="565.8481">14</text><text fill="#000000" font-family="sans-serif" font-size="13" lengthAdjust="spacing" textLength="239" x="643.5" y="565.8481">createTest(code, nhsCode, testType)</text><polygon fill="#A80036" points="1194.5,596.0469,1204.5,600.0469,1194.5,604.0469,1198.5,600.0469" style="stroke:#A80036;stroke-width:1.0;"/><line style="stroke:#A80036;stroke-width:1.0;stroke-dasharray:2.0,2.0;" x1="904.5" x2="1200.5" y1="600.0469" y2="600.0469"/><text fill="#000000" font-family="sans-serif" font-size="13" font-weight="bold" lengthAdjust="spacing" textLength="18" x="911.5" y="594.981">15</text><text fill="#000000" font-family="sans-serif" font-size="13" lengthAdjust="spacing" textLength="206" x="933.5" y="594.981">test=getTestTypeByCode(code)</text><polygon fill="#A80036" points="1194.5,632.1797,1204.5,636.1797,1194.5,640.1797,1198.5,636.1797" style="stroke:#A80036;stroke-width:1.0;"/><line style="stroke:#A80036;stroke-width:1.0;stroke-dasharray:2.0,2.0;" x1="904.5" x2="1200.5" y1="636.1797" y2="636.1797"/><text fill="#000000" font-family="sans-serif" font-size="13" font-weight="bold" lengthAdjust="spacing" textLength="18" x="911.5" y="631.1138">16</text><text fill="#000000" font-family="sans-serif" font-size="13" lengthAdjust="spacing" textLength="261" x="933.5" y="631.1138">ct=createTest(code, nhsCode, testType)</text><polygon fill="#A80036" points="1844,661.3125,1854,665.3125,1844,669.3125,1848,665.3125" style="stroke:#A80036;stroke-width:1.0;"/><line style="stroke:#A80036;stroke-width:1.0;stroke-dasharray:2.0,2.0;" x1="1211.5" x2="1850" y1="665.3125" y2="665.3125"/><text fill="#000000" font-family="sans-serif" font-size="13" font-weight="bold" lengthAdjust="spacing" textLength="18" x="1218.5" y="660.2466">17</text><text fill="#000000" font-family="sans-serif" font-size="13" lengthAdjust="spacing" textLength="211" x="1240.5" y="660.2466">create(code, nhsCode, testType)</text><rect fill="#FEFECE" filter="url(#f2etxv7slkocx)" height="46.5938" style="stroke:#A80036;stroke-width:1.5;" width="46" x="1856" y="644.1797"/><text fill="#000000" font-family="sans-serif" font-size="14" lengthAdjust="spacing" textLength="20" x="1867" y="664.1748">ct:</text><text fill="#000000" font-family="sans-serif" font-size="14" lengthAdjust="spacing" textLength="32" x="1863" y="680.4717">Test</text><polygon fill="#A80036" points="1194.5,722.9063,1204.5,726.9063,1194.5,730.9063,1198.5,726.9063" style="stroke:#A80036;stroke-width:1.0;"/><line style="stroke:#A80036;stroke-width:1.0;stroke-dasharray:2.0,2.0;" x1="904.5" x2="1200.5" y1="726.9063" y2="726.9063"/><text fill="#000000" font-family="sans-serif" font-size="13" font-weight="bold" lengthAdjust="spacing" textLength="18" x="911.5" y="721.8403">18</text><text fill="#000000" font-family="sans-serif" font-size="13" lengthAdjust="spacing" textLength="101" x="933.5" y="721.8403">validateTest(ct)</text><polygon fill="#A80036" points="85.5,782.0391,75.5,786.0391,85.5,790.0391,81.5,786.0391" style="stroke:#A80036;stroke-width:1.0;"/><line style="stroke:#A80036;stroke-width:1.0;stroke-dasharray:2.0,2.0;" x1="79.5" x2="608.5" y1="786.0391" y2="786.0391"/><text fill="#000000" font-family="sans-serif" font-size="13" font-weight="bold" lengthAdjust="spacing" textLength="18" x="91.5" y="780.9731">19</text><text fill="#000000" font-family="sans-serif" font-size="13" lengthAdjust="spacing" textLength="259" x="113.5" y="780.9731">shows data and requests a confirmation</text><polygon fill="#A80036" points="592.5,811.1719,602.5,815.1719,592.5,819.1719,596.5,815.1719" style="stroke:#A80036;stroke-width:1.0;"/><line style="stroke:#A80036;stroke-width:1.0;stroke-dasharray:2.0,2.0;" x1="74.5" x2="598.5" y1="815.1719" y2="815.1719"/><text fill="#000000" font-family="sans-serif" font-size="13" font-weight="bold" lengthAdjust="spacing" textLength="19" x="81.5" y="810.106">20</text><text fill="#000000" font-family="sans-serif" font-size="13" lengthAdjust="spacing" textLength="107" x="104.5" y="810.106">confirms all data</text><polygon fill="#A80036" points="882.5,840.3047,892.5,844.3047,882.5,848.3047,886.5,844.3047" style="stroke:#A80036;stroke-width:1.0;"/><line style="stroke:#A80036;stroke-width:1.0;stroke-dasharray:2.0,2.0;" x1="614.5" x2="888.5" y1="844.3047" y2="844.3047"/><text fill="#000000" font-family="sans-serif" font-size="13" font-weight="bold" lengthAdjust="spacing" textLength="18" x="621.5" y="839.2388">21</text><text fill="#000000" font-family="sans-serif" font-size="13" lengthAdjust="spacing" textLength="69" x="643.5" y="839.2388">saveTest()</text><polygon fill="#A80036" points="1424.5,869.4375,1434.5,873.4375,1424.5,877.4375,1428.5,873.4375" style="stroke:#A80036;stroke-width:1.0;"/><line style="stroke:#A80036;stroke-width:1.0;stroke-dasharray:2.0,2.0;" x1="904.5" x2="1430.5" y1="873.4375" y2="873.4375"/><text fill="#000000" font-family="sans-serif" font-size="13" font-weight="bold" lengthAdjust="spacing" textLength="18" x="911.5" y="868.3716">22</text><text fill="#000000" font-family="sans-serif" font-size="13" lengthAdjust="spacing" textLength="81" x="933.5" y="868.3716">saveTest(ct)</text><line style="stroke:#A80036;stroke-width:1.0;stroke-dasharray:2.0,2.0;" x1="1446.5" x2="1488.5" y1="902.5703" y2="902.5703"/><line style="stroke:#A80036;stroke-width:1.0;stroke-dasharray:2.0,2.0;" x1="1488.5" x2="1488.5" y1="902.5703" y2="915.5703"/><line style="stroke:#A80036;stroke-width:1.0;stroke-dasharray:2.0,2.0;" x1="1447.5" x2="1488.5" y1="915.5703" y2="915.5703"/><polygon fill="#A80036" points="1457.5,911.5703,1447.5,915.5703,1457.5,919.5703,1453.5,915.5703" style="stroke:#A80036;stroke-width:1.0;"/><text fill="#000000" font-family="sans-serif" font-size="13" font-weight="bold" lengthAdjust="spacing" textLength="17" x="1453.5" y="897.5044">23</text><text fill="#000000" font-family="sans-serif" font-size="13" lengthAdjust="spacing" textLength="101" x="1474.5" y="897.5044">validateTest(ct)</text><line style="stroke:#A80036;stroke-width:1.0;stroke-dasharray:2.0,2.0;" x1="1446.5" x2="1488.5" y1="949.7031" y2="949.7031"/><line style="stroke:#A80036;stroke-width:1.0;stroke-dasharray:2.0,2.0;" x1="1488.5" x2="1488.5" y1="949.7031" y2="962.7031"/><line style="stroke:#A80036;stroke-width:1.0;stroke-dasharray:2.0,2.0;" x1="1441.5" x2="1488.5" y1="962.7031" y2="962.7031"/><polygon fill="#A80036" points="1451.5,958.7031,1441.5,962.7031,1451.5,966.7031,1447.5,962.7031" style="stroke:#A80036;stroke-width:1.0;"/><text fill="#000000" font-family="sans-serif" font-size="13" font-weight="bold" lengthAdjust="spacing" textLength="18" x="1453.5" y="944.6372">24</text><text fill="#000000" font-family="sans-serif" font-size="13" lengthAdjust="spacing" textLength="74" x="1475.5" y="944.6372">addTest(ct)</text><polygon fill="#A80036" points="80.5,982.8359,70.5,986.8359,80.5,990.8359,76.5,986.8359" style="stroke:#A80036;stroke-width:1.0;"/><line style="stroke:#A80036;stroke-width:1.0;stroke-dasharray:2.0,2.0;" x1="74.5" x2="608.5" y1="986.8359" y2="986.8359"/><text fill="#000000" font-family="sans-serif" font-size="13" font-weight="bold" lengthAdjust="spacing" textLength="18" x="86.5" y="981.77">25</text><text fill="#000000" font-family="sans-serif" font-size="13" lengthAdjust="spacing" textLength="169" x="108.5" y="981.77">informs operation success</text><!--MD5=[1519678df028b25a31afc023970c67c2]
@startuml
actor Receptionist as Adm
participant ":RegistTest UI" as System
participant ":RegistTestCrontroller" as RTC
participant ":Company" as ML
participant "store\n:TestType" as tt
participant ":listTTMapper" as ltc
participant "store\n:storeTest" as test

autonumber
activate Adm
Adm -> System: starts a new test to be performed to a client
activate System
System - -> Adm: request data(code, nhsCode, testType)
deactivate System

Adm -> System: types requested data
activate System
System- ->RTC: m=getTestType()
activate RTC
RTC- ->ML: m=getTestType()
activate ML
create "listTT :List<TestType>" as listtt
ML - -> listtt: create()
ML - -> RTC: listTT
deactivate ML
activate ltc
RTC - -> ltc: toDTO(listTT)
create "listTTDto\n:List<TestTypeDto" as ltcdt
ltc - -> ltcdt: create()
ltc - -> RTC: listTTDto
RTC - -> System: listTTDto
deactivate ltc
deactivate RTC
deactivate System


loop
System - -> Adm: shows list of the parameters to be analised in accordance with the test type
Adm - -> System: select parameter
activate System

System - -> RTC: createTest(code, nhsCode, testType)
activate RTC
RTC - -> tt: test=getTestTypeByCode(code)
end
activate tt
deactivate tt
RTC - -> tt: ct=createTest(code, nhsCode, testType)
activate tt
create "ct: \nTest" as CT
tt - -> CT: create(code, nhsCode, testType)
deactivate tt
RTC - -> tt: validateTest(ct)
activate tt
deactivate tt
System - -> Adm: shows data and requests a confirmation
deactivate RTC
deactivate System
Adm - -> System: confirms all data
activate System
System - -> RTC: saveTest()
activate RTC
RTC - -> test: saveTest(ct)
activate test
test - -> test: validateTest(ct)
test - -> test: addTest(ct)
deactivate RTC
System - -> Adm: informs operation success
deactivate test
deactivate System
deactivate Adm
@enduml

PlantUML version 1.2021.6beta6(Unknown compile time)
(GPL source distribution)
Java Runtime: Java(TM) SE Runtime Environment
JVM: Java HotSpot(TM) 64-Bit Server VM
Default Encoding: UTF-8
Language: en
Country: US
--></g></svg>