<?xml version="1.0" encoding="UTF-8" standalone="no"?><svg xmlns="http://www.w3.org/2000/svg" xmlns:xlink="http://www.w3.org/1999/xlink" contentScriptType="application/ecmascript" contentStyleType="text/css" height="277.5px" preserveAspectRatio="none" style="width:1013px;height:277px;" version="1.1" viewBox="0 0 1013 277" width="1013.75px" zoomAndPan="magnify"><defs><filter height="300%" id="fmdtyzx9y240s" width="300%" x="-1" y="-1"><feGaussianBlur result="blurOut" stdDeviation="2.5"/><feColorMatrix in="blurOut" result="blurOut2" type="matrix" values="0 0 0 0 0 0 0 0 0 0 0 0 0 0 0 0 0 0 .4 0"/><feOffset dx="5.0" dy="5.0" in="blurOut2" result="blurOut3"/><feBlend in="SourceGraphic" in2="blurOut3" mode="normal"/></filter></defs><g><!--MD5=[02e4b9b7573f1156f41e60aa5b4e25a4]
class Company--><rect codeLine="6" fill="#FEFECE" filter="url(#fmdtyzx9y240s)" height="67.2949" id="Company" style="stroke:#A80036;stroke-width:1.875;" width="106.25" x="8.75" y="61.6956"/><ellipse cx="27.5" cy="81.6956" fill="#ADD1B2" rx="13.75" ry="13.75" style="stroke:#A80036;stroke-width:1.25;"/><path d="M30,77.3206 Q30.2539,76.6956 30.5469,76.3831 Q30.8398,76.0706 31.1719,76.0706 Q31.7578,76.0706 32.1289,76.4221 Q32.5,76.7737 32.5,77.594 L32.5,79.5471 Q32.5,80.3674 32.1484,80.719 Q31.7969,81.0706 31.25,81.0706 Q30.7617,81.0706 30.4492,80.8557 Q30.1367,80.6409 30,80.0745 Q29.9414,79.6838 29.7266,79.469 Q29.3359,79.0588 28.6328,78.8245 Q27.9297,78.5706 27.2266,78.5706 Q26.3477,78.5706 25.6055,78.9221 Q24.8828,79.2737 24.3164,80.0549 Q23.75,80.8362 23.75,81.9104 L23.75,83.0627 Q23.75,84.3518 24.8047,85.2112 Q25.8594,86.0706 27.7344,86.0706 Q28.8477,86.0706 29.6289,85.8167 Q30.0781,85.6799 30.5859,85.2307 Q30.918,84.9768 31.0938,84.8987 Q31.2695,84.8206 31.4844,84.8206 Q31.8945,84.8206 32.1875,85.1526 Q32.5,85.4651 32.5,85.9143 Q32.5,86.344 32.0703,86.8518 Q31.4453,87.594 30.4492,88.0042 Q29.1406,88.5706 27.5391,88.5706 Q25.6641,88.5706 24.1602,87.8284 Q22.9492,87.2424 22.0898,85.9729 Q21.25,84.7034 21.25,83.1995 L21.25,81.8323 Q21.25,80.2698 21.9922,78.9026 Q22.7539,77.5354 24.0625,76.8127 Q25.3906,76.0706 26.875,76.0706 Q27.7734,76.0706 28.5547,76.3831 Q29.3359,76.6956 30,77.3206 Z " fill="#000000"/><text fill="#000000" font-family="sans-serif" font-size="15" lengthAdjust="spacing" textLength="66.25" x="45" y="87.8333">Company</text><line style="stroke:#A80036;stroke-width:1.875;" x1="10" x2="113.75" y1="101.6956" y2="101.6956"/><text fill="#000000" font-family="sans-serif" font-size="13.75" lengthAdjust="spacing" textLength="73.75" x="16.25" y="120.9692">-designation</text><!--MD5=[36afb6bbd95a8ac778c4537c55a683d5]
class ParameterCategory--><rect codeLine="10" fill="#FEFECE" filter="url(#fmdtyzx9y240s)" height="101.8848" id="ParameterCategory" style="stroke:#A80036;stroke-width:1.875;" width="173.75" x="822.5" y="20.4456"/><ellipse cx="841.25" cy="40.4456" fill="#ADD1B2" rx="13.75" ry="13.75" style="stroke:#A80036;stroke-width:1.25;"/><path d="M843.75,36.0706 Q844.0039,35.4456 844.2969,35.1331 Q844.5898,34.8206 844.9219,34.8206 Q845.5078,34.8206 845.8789,35.1721 Q846.25,35.5237 846.25,36.344 L846.25,38.2971 Q846.25,39.1174 845.8984,39.469 Q845.5469,39.8206 845,39.8206 Q844.5117,39.8206 844.1992,39.6057 Q843.8867,39.3909 843.75,38.8245 Q843.6914,38.4338 843.4766,38.219 Q843.0859,37.8088 842.3828,37.5745 Q841.6797,37.3206 840.9766,37.3206 Q840.0977,37.3206 839.3555,37.6721 Q838.6328,38.0237 838.0664,38.8049 Q837.5,39.5862 837.5,40.6604 L837.5,41.8127 Q837.5,43.1018 838.5547,43.9612 Q839.6094,44.8206 841.4844,44.8206 Q842.5977,44.8206 843.3789,44.5667 Q843.8281,44.4299 844.3359,43.9807 Q844.668,43.7268 844.8438,43.6487 Q845.0195,43.5706 845.2344,43.5706 Q845.6445,43.5706 845.9375,43.9026 Q846.25,44.2151 846.25,44.6643 Q846.25,45.094 845.8203,45.6018 Q845.1953,46.344 844.1992,46.7542 Q842.8906,47.3206 841.2891,47.3206 Q839.4141,47.3206 837.9102,46.5784 Q836.6992,45.9924 835.8398,44.7229 Q835,43.4534 835,41.9495 L835,40.5823 Q835,39.0198 835.7422,37.6526 Q836.5039,36.2854 837.8125,35.5627 Q839.1406,34.8206 840.625,34.8206 Q841.5234,34.8206 842.3047,35.1331 Q843.0859,35.4456 843.75,36.0706 Z " fill="#000000"/><text fill="#000000" font-family="sans-serif" font-size="15" lengthAdjust="spacing" textLength="133.75" x="858.75" y="46.5833">ParameterCategory</text><line style="stroke:#A80036;stroke-width:1.875;" x1="823.75" x2="995" y1="60.4456" y2="60.4456"/><text fill="#000000" font-family="sans-serif" font-size="13.75" lengthAdjust="spacing" textLength="35" x="830" y="79.7192">-code</text><text fill="#000000" font-family="sans-serif" font-size="13.75" lengthAdjust="spacing" textLength="71.25" x="830" y="97.0142">-description</text><text fill="#000000" font-family="sans-serif" font-size="13.75" lengthAdjust="spacing" textLength="37.5" x="830" y="114.3091">-nhsId</text><!--MD5=[da547346deef918ea16944ba046651ef]
class Administrator--><rect codeLine="16" fill="#FEFECE" filter="url(#fmdtyzx9y240s)" height="50" id="Administrator" style="stroke:#A80036;stroke-width:1.875;" width="131.25" x="235" y="70.4456"/><ellipse cx="253.75" cy="90.4456" fill="#ADD1B2" rx="13.75" ry="13.75" style="stroke:#A80036;stroke-width:1.25;"/><path d="M256.25,86.0706 Q256.5039,85.4456 256.7969,85.1331 Q257.0898,84.8206 257.4219,84.8206 Q258.0078,84.8206 258.3789,85.1721 Q258.75,85.5237 258.75,86.344 L258.75,88.2971 Q258.75,89.1174 258.3984,89.469 Q258.0469,89.8206 257.5,89.8206 Q257.0117,89.8206 256.6992,89.6057 Q256.3867,89.3909 256.25,88.8245 Q256.1914,88.4338 255.9766,88.219 Q255.5859,87.8088 254.8828,87.5745 Q254.1797,87.3206 253.4766,87.3206 Q252.5977,87.3206 251.8555,87.6721 Q251.1328,88.0237 250.5664,88.8049 Q250,89.5862 250,90.6604 L250,91.8127 Q250,93.1018 251.0547,93.9612 Q252.1094,94.8206 253.9844,94.8206 Q255.0977,94.8206 255.8789,94.5667 Q256.3281,94.4299 256.8359,93.9807 Q257.168,93.7268 257.3438,93.6487 Q257.5195,93.5706 257.7344,93.5706 Q258.1445,93.5706 258.4375,93.9026 Q258.75,94.2151 258.75,94.6643 Q258.75,95.094 258.3203,95.6018 Q257.6953,96.344 256.6992,96.7542 Q255.3906,97.3206 253.7891,97.3206 Q251.9141,97.3206 250.4102,96.5784 Q249.1992,95.9924 248.3398,94.7229 Q247.5,93.4534 247.5,91.9495 L247.5,90.5823 Q247.5,89.0198 248.2422,87.6526 Q249.0039,86.2854 250.3125,85.5627 Q251.6406,84.8206 253.125,84.8206 Q254.0234,84.8206 254.8047,85.1331 Q255.5859,85.4456 256.25,86.0706 Z " fill="#000000"/><text fill="#000000" font-family="sans-serif" font-size="15" lengthAdjust="spacing" textLength="91.25" x="271.25" y="96.5833">Administrator</text><line style="stroke:#A80036;stroke-width:1.875;" x1="236.25" x2="365" y1="110.4456" y2="110.4456"/><!--MD5=[aeb3272166074d8737a70b61b1e71682]
class TestType--><rect codeLine="20" fill="#FEFECE" filter="url(#fmdtyzx9y240s)" height="101.8848" id="TestType" style="stroke:#A80036;stroke-width:1.875;" width="120" x="523.75" y="159.1956"/><ellipse cx="550.375" cy="179.1956" fill="#ADD1B2" rx="13.75" ry="13.75" style="stroke:#A80036;stroke-width:1.25;"/><path d="M552.875,174.8206 Q553.1289,174.1956 553.4219,173.8831 Q553.7148,173.5706 554.0469,173.5706 Q554.6328,173.5706 555.0039,173.9221 Q555.375,174.2737 555.375,175.094 L555.375,177.0471 Q555.375,177.8674 555.0234,178.219 Q554.6719,178.5706 554.125,178.5706 Q553.6367,178.5706 553.3242,178.3557 Q553.0117,178.1409 552.875,177.5745 Q552.8164,177.1838 552.6016,176.969 Q552.2109,176.5588 551.5078,176.3245 Q550.8047,176.0706 550.1016,176.0706 Q549.2227,176.0706 548.4805,176.4221 Q547.7578,176.7737 547.1914,177.5549 Q546.625,178.3362 546.625,179.4104 L546.625,180.5627 Q546.625,181.8518 547.6797,182.7112 Q548.7344,183.5706 550.6094,183.5706 Q551.7227,183.5706 552.5039,183.3167 Q552.9531,183.1799 553.4609,182.7307 Q553.793,182.4768 553.9688,182.3987 Q554.1445,182.3206 554.3594,182.3206 Q554.7695,182.3206 555.0625,182.6526 Q555.375,182.9651 555.375,183.4143 Q555.375,183.844 554.9453,184.3518 Q554.3203,185.094 553.3242,185.5042 Q552.0156,186.0706 550.4141,186.0706 Q548.5391,186.0706 547.0352,185.3284 Q545.8242,184.7424 544.9648,183.4729 Q544.125,182.2034 544.125,180.6995 L544.125,179.3323 Q544.125,177.7698 544.8672,176.4026 Q545.6289,175.0354 546.9375,174.3127 Q548.2656,173.5706 549.75,173.5706 Q550.6484,173.5706 551.4297,173.8831 Q552.2109,174.1956 552.875,174.8206 Z " fill="#000000"/><text fill="#000000" font-family="sans-serif" font-size="15" lengthAdjust="spacing" textLength="62.5" x="569.625" y="185.3333">TestType</text><line style="stroke:#A80036;stroke-width:1.875;" x1="525" x2="642.5" y1="199.1956" y2="199.1956"/><text fill="#000000" font-family="sans-serif" font-size="13.75" lengthAdjust="spacing" textLength="35" x="531.25" y="218.4692">-code</text><text fill="#000000" font-family="sans-serif" font-size="13.75" lengthAdjust="spacing" textLength="71.25" x="531.25" y="235.7642">-description</text><text fill="#000000" font-family="sans-serif" font-size="13.75" lengthAdjust="spacing" textLength="105" x="531.25" y="253.0591">-collectingMethod</text><!--MD5=[742a261f27a3dcd734c626287d811acd]
link Company to TestType--><path codeLine="28" d="M115.0125,120.1331 C148.5375,135.0831 193.5,153.3206 235,164.1956 C334.2,190.2081 453.3625,202.0081 523.225,207.0456 " fill="none" id="Company-TestType" style="stroke:#A80036;stroke-width:1.25;"/><polygon fill="#000000" points="270.488,154.4668,260.1945,148.5192,258.6645,155.7055,270.488,154.4668" style="stroke:#000000;stroke-width:1.25;"/><text fill="#000000" font-family="sans-serif" font-size="16.25" lengthAdjust="spacing" textLength="66.25" x="275.625" y="159.8145">conducts</text><text fill="#000000" font-family="sans-serif" font-size="16.25" lengthAdjust="spacing" textLength="8.75" x="124.8975" y="143.0193">1</text><text fill="#000000" font-family="sans-serif" font-size="16.25" lengthAdjust="spacing" textLength="25" x="488.8687" y="224.8276">1..*</text><!--MD5=[8aaf0efd5e2f3824be7ea3e488dcc283]
link TestType to ParameterCategory--><path codeLine="29" d="M643.7875,186.2581 C683.7125,169.7206 737.6625,147.1706 785,126.6956 C797.1375,121.4456 809.925,115.8331 822.4625,110.2706 " fill="none" id="TestType-ParameterCategory" style="stroke:#A80036;stroke-width:1.25;"/><polygon fill="#000000" points="693.2515,113.2193,681.4092,114.2635,684.2847,121.0248,693.2515,113.2193" style="stroke:#000000;stroke-width:1.25;"/><text fill="#000000" font-family="sans-serif" font-size="16.25" lengthAdjust="spacing" textLength="85" x="698.75" y="122.3145">has a set of</text><text fill="#000000" font-family="sans-serif" font-size="16.25" lengthAdjust="spacing" textLength="8.75" x="653.6507" y="201.0352">1</text><text fill="#000000" font-family="sans-serif" font-size="16.25" lengthAdjust="spacing" textLength="25" x="787.2106" y="132.2031">1..*</text><!--MD5=[7144ffdeebbe38808f7fb2ce8ac24f7d]
link Administrator to ParameterCategory--><path codeLine="30" d="M366.75,92.9081 C476.725,88.5956 699.6875,79.8581 822.3875,75.0581 " fill="none" id="Administrator-ParameterCategory" style="stroke:#A80036;stroke-width:1.25;"/><polygon fill="#000000" points="536.2548,72.1599,547.6963,75.3882,547.4087,68.0465,536.2548,72.1599" style="stroke:#000000;stroke-width:1.25;"/><text fill="#000000" font-family="sans-serif" font-size="16.25" lengthAdjust="spacing" textLength="76.25" x="553.75" y="78.5645">created by</text><text fill="#000000" font-family="sans-serif" font-size="16.25" lengthAdjust="spacing" textLength="25" x="376.3324" y="110.7132">1..*</text><text fill="#000000" font-family="sans-serif" font-size="16.25" lengthAdjust="spacing" textLength="6.25" x="806.2814" y="93.4462">*</text><!--MD5=[eaea43e34e45c5b9d20b595fc78f1f20]
link Company to Administrator--><path codeLine="31" d="M115.5625,95.4456 C150.7625,95.4456 197.3875,95.4456 234.875,95.4456 " fill="none" id="Company-Administrator" style="stroke:#A80036;stroke-width:1.25;"/><polygon fill="#000000" points="165,84.4153,153.6936,80.7416,153.6936,88.0889,165,84.4153" style="stroke:#000000;stroke-width:1.25;"/><text fill="#000000" font-family="sans-serif" font-size="16.25" lengthAdjust="spacing" textLength="26.25" x="170" y="91.0645">has</text><text fill="#000000" font-family="sans-serif" font-size="16.25" lengthAdjust="spacing" textLength="8.75" x="125.1791" y="114.0241">1</text><text fill="#000000" font-family="sans-serif" font-size="16.25" lengthAdjust="spacing" textLength="6.25" x="218.9395" y="113.7516">*</text><!--MD5=[71159b3869b6d7a411768e18bcaa697a]
link Administrator to TestType--><path codeLine="32" d="M363.1125,120.5456 C410.6875,140.0331 476.275,166.9081 523.3125,186.1956 " fill="none" id="Administrator-TestType" style="stroke:#A80036;stroke-width:1.25;"/><polygon fill="#000000" points="415.7832,131.7853,406.7143,124.0986,403.9282,130.8972,415.7832,131.7853" style="stroke:#000000;stroke-width:1.25;"/><text fill="#000000" font-family="sans-serif" font-size="16.25" lengthAdjust="spacing" textLength="63.75" x="421.25" y="136.0645">specifies</text><text fill="#000000" font-family="sans-serif" font-size="16.25" lengthAdjust="spacing" textLength="6.25" x="373.5582" y="147.3481">*</text><text fill="#000000" font-family="sans-serif" font-size="16.25" lengthAdjust="spacing" textLength="6.25" x="507.3295" y="200.9632">*</text><!--MD5=[93b4f25fb503a8e0e9a46b1d30ff3f44]
link Company to ParameterCategory--><path codeLine="33" d="M115.1125,74.8706 C127.25,70.5331 140.225,66.2706 152.5,62.9456 C188.475,53.2081 197.8875,51.3456 235,47.9456 C478.425,25.6581 541.775,22.2581 785,46.6956 C797.15,47.9206 809.8875,49.7956 822.35,51.9956 " fill="none" id="Company-ParameterCategory" style="stroke:#A80036;stroke-width:1.25;"/><polygon fill="#000000" points="423.7467,19.2132,412.3275,15.907,412.565,23.2505,423.7467,19.2132" style="stroke:#000000;stroke-width:1.25;"/><text fill="#000000" font-family="sans-serif" font-size="16.25" lengthAdjust="spacing" textLength="48.75" x="428.75" y="26.0645">adopts</text><text fill="#000000" font-family="sans-serif" font-size="16.25" lengthAdjust="spacing" textLength="8.75" x="125.0146" y="89.9773">1</text><text fill="#000000" font-family="sans-serif" font-size="16.25" lengthAdjust="spacing" textLength="6.25" x="806.2398" y="67.8612">*</text><!--MD5=[543a612c7cf4a016ba8a236982581fac]
@startuml
hide methods
left to right direction
skinparam classAttributeIconSize 0


class Company {
  -designation
}

class ParameterCategory {
  -code
  -description
  -nhsId
}

class Administrator {

}

class TestType {
   -code
   -description
   -collectingMethod
}



Company "1" - - "1..*" TestType: conducts >
TestType "1" - - "1..*" ParameterCategory: has a set of >
Administrator "1..*" - - "*" ParameterCategory: created by <
Company "1" - - "*" Administrator: has >
Administrator "*" - - "*" TestType: specifies >
Company "1" - - "*" ParameterCategory: adopts >


@enduml

PlantUML version 1.2021.4(Sun Apr 04 09:49:39 BST 2021)
(GPL source distribution)
Java Runtime: OpenJDK Runtime Environment
JVM: Dynamic Code Evolution 64-Bit Server VM
Default Encoding: Cp1252
Language: pt
Country: PT
--></g></svg>