<?xml version="1.0" encoding="UTF-8" standalone="no"?><svg xmlns="http://www.w3.org/2000/svg" xmlns:xlink="http://www.w3.org/1999/xlink" contentScriptType="application/ecmascript" contentStyleType="text/css" height="470px" preserveAspectRatio="none" style="width:595px;height:470px;" version="1.1" viewBox="0 0 595 470" width="595px" zoomAndPan="magnify"><defs><filter height="300%" id="fsgoato55np5" width="300%" x="-1" y="-1"><feGaussianBlur result="blurOut" stdDeviation="2.0"/><feColorMatrix in="blurOut" result="blurOut2" type="matrix" values="0 0 0 0 0 0 0 0 0 0 0 0 0 0 0 0 0 0 .4 0"/><feOffset dx="4.0" dy="4.0" in="blurOut2" result="blurOut3"/><feBlend in="SourceGraphic" in2="blurOut3" mode="normal"/></filter></defs><g><rect fill="#FFFFFF" filter="url(#fsgoato55np5)" height="260.1641" style="stroke:#A80036;stroke-width:1.0;" width="10" x="71" y="99.6094"/><rect fill="#FFFFFF" filter="url(#fsgoato55np5)" height="55.7031" style="stroke:#A80036;stroke-width:1.0;" width="10" x="532" y="121.9609"/><rect fill="#FFFFFF" filter="url(#fsgoato55np5)" height="30.3516" style="stroke:#A80036;stroke-width:1.0;" width="10" x="532" y="208.0156"/><rect fill="#FFFFFF" filter="url(#fsgoato55np5)" height="30.3516" style="stroke:#A80036;stroke-width:1.0;" width="10" x="532" y="268.7188"/><rect fill="#FFFFFF" filter="url(#fsgoato55np5)" height="30.3516" style="stroke:#A80036;stroke-width:1.0;" width="10" x="532" y="329.4219"/><rect fill="#FFFFFF" filter="url(#fsgoato55np5)" height="230.8125" style="stroke:#000000;stroke-width:2.0;" width="571" x="10" y="136.9609"/><line style="stroke:#A80036;stroke-width:1.0;stroke-dasharray:5.0,5.0;" x1="76" x2="76" y1="89.6094" y2="384.7734"/><line style="stroke:#A80036;stroke-width:1.0;stroke-dasharray:5.0,5.0;" x1="537" x2="537" y1="89.6094" y2="384.7734"/><text fill="#000000" font-family="sans-serif" font-size="14" lengthAdjust="spacing" textLength="106" x="20" y="86.5332">Specialist Doctor</text><ellipse cx="76" cy="15" fill="#FEFECE" filter="url(#fsgoato55np5)" rx="8" ry="8" style="stroke:#A80036;stroke-width:2.0;"/><path d="M76,23 L76,50 M63,31 L89,31 M76,50 L63,65 M76,50 L89,65 " fill="none" filter="url(#fsgoato55np5)" style="stroke:#A80036;stroke-width:2.0;"/><text fill="#000000" font-family="sans-serif" font-size="14" lengthAdjust="spacing" textLength="106" x="20" y="398.3066">Specialist Doctor</text><ellipse cx="76" cy="411.3828" fill="#FEFECE" filter="url(#fsgoato55np5)" rx="8" ry="8" style="stroke:#A80036;stroke-width:2.0;"/><path d="M76,419.3828 L76,446.3828 M63,427.3828 L89,427.3828 M76,446.3828 L63,461.3828 M76,446.3828 L89,461.3828 " fill="none" filter="url(#fsgoato55np5)" style="stroke:#A80036;stroke-width:2.0;"/><rect fill="#FEFECE" filter="url(#fsgoato55np5)" height="31.6094" style="stroke:#A80036;stroke-width:1.5;" width="64" x="503" y="53"/><text fill="#000000" font-family="sans-serif" font-size="14" lengthAdjust="spacing" textLength="50" x="510" y="74.5332">:System</text><rect fill="#FEFECE" filter="url(#fsgoato55np5)" height="31.6094" style="stroke:#A80036;stroke-width:1.5;" width="64" x="503" y="383.7734"/><text fill="#000000" font-family="sans-serif" font-size="14" lengthAdjust="spacing" textLength="50" x="510" y="405.3066">:System</text><rect fill="#FFFFFF" filter="url(#fsgoato55np5)" height="260.1641" style="stroke:#A80036;stroke-width:1.0;" width="10" x="71" y="99.6094"/><rect fill="#FFFFFF" filter="url(#fsgoato55np5)" height="55.7031" style="stroke:#A80036;stroke-width:1.0;" width="10" x="532" y="121.9609"/><rect fill="#FFFFFF" filter="url(#fsgoato55np5)" height="30.3516" style="stroke:#A80036;stroke-width:1.0;" width="10" x="532" y="208.0156"/><rect fill="#FFFFFF" filter="url(#fsgoato55np5)" height="30.3516" style="stroke:#A80036;stroke-width:1.0;" width="10" x="532" y="268.7188"/><rect fill="#FFFFFF" filter="url(#fsgoato55np5)" height="30.3516" style="stroke:#A80036;stroke-width:1.0;" width="10" x="532" y="329.4219"/><polygon fill="#A80036" points="520,117.9609,530,121.9609,520,125.9609,524,121.9609" style="stroke:#A80036;stroke-width:1.0;"/><line style="stroke:#A80036;stroke-width:1.0;" x1="81" x2="526" y1="121.9609" y2="121.9609"/><text fill="#000000" font-family="sans-serif" font-size="13" font-weight="bold" lengthAdjust="spacing" textLength="7" x="88" y="117.1045">1</text><text fill="#000000" font-family="sans-serif" font-size="13" lengthAdjust="spacing" textLength="191" x="99" y="117.1045">starts the realization of the report</text><path d="M10,136.9609 L83,136.9609 L83,144.9609 L73,154.9609 L10,154.9609 L10,136.9609 " fill="#EEEEEE" style="stroke:#000000;stroke-width:1.0;"/><rect fill="none" height="230.8125" style="stroke:#000000;stroke-width:2.0;" width="571" x="10" y="136.9609"/><text fill="#000000" font-family="sans-serif" font-size="13" font-weight="bold" lengthAdjust="spacing" textLength="28" x="25" y="151.4561">loop</text><polygon fill="#A80036" points="92,173.6641,82,177.6641,92,181.6641,88,177.6641" style="stroke:#A80036;stroke-width:1.0;"/><line style="stroke:#A80036;stroke-width:1.0;stroke-dasharray:2.0,2.0;" x1="86" x2="536" y1="177.6641" y2="177.6641"/><text fill="#000000" font-family="sans-serif" font-size="13" font-weight="bold" lengthAdjust="spacing" textLength="7" x="98" y="172.8076">2</text><text fill="#000000" font-family="sans-serif" font-size="13" lengthAdjust="spacing" textLength="416" x="109" y="172.8076">shows the list of tests to be reported and requests to select one of them</text><polygon fill="#A80036" points="520,204.0156,530,208.0156,520,212.0156,524,208.0156" style="stroke:#A80036;stroke-width:1.0;"/><line style="stroke:#A80036;stroke-width:1.0;" x1="81" x2="526" y1="208.0156" y2="208.0156"/><text fill="#000000" font-family="sans-serif" font-size="13" font-weight="bold" lengthAdjust="spacing" textLength="7" x="88" y="203.1592">3</text><text fill="#000000" font-family="sans-serif" font-size="13" lengthAdjust="spacing" textLength="156" x="99" y="203.1592">select a test to be reported</text><polygon fill="#A80036" points="92,234.3672,82,238.3672,92,242.3672,88,238.3672" style="stroke:#A80036;stroke-width:1.0;"/><line style="stroke:#A80036;stroke-width:1.0;stroke-dasharray:2.0,2.0;" x1="86" x2="536" y1="238.3672" y2="238.3672"/><text fill="#000000" font-family="sans-serif" font-size="13" font-weight="bold" lengthAdjust="spacing" textLength="7" x="98" y="233.5107">4</text><text fill="#000000" font-family="sans-serif" font-size="13" lengthAdjust="spacing" textLength="399" x="109" y="233.5107">shows the list of parameters results and request data (diagnosisText)</text><polygon fill="#A80036" points="520,264.7188,530,268.7188,520,272.7188,524,268.7188" style="stroke:#A80036;stroke-width:1.0;"/><line style="stroke:#A80036;stroke-width:1.0;" x1="81" x2="526" y1="268.7188" y2="268.7188"/><text fill="#000000" font-family="sans-serif" font-size="13" font-weight="bold" lengthAdjust="spacing" textLength="7" x="88" y="263.8623">5</text><text fill="#000000" font-family="sans-serif" font-size="13" lengthAdjust="spacing" textLength="122" x="99" y="263.8623">types requested data</text><polygon fill="#A80036" points="92,295.0703,82,299.0703,92,303.0703,88,299.0703" style="stroke:#A80036;stroke-width:1.0;"/><line style="stroke:#A80036;stroke-width:1.0;stroke-dasharray:2.0,2.0;" x1="86" x2="536" y1="299.0703" y2="299.0703"/><text fill="#000000" font-family="sans-serif" font-size="13" font-weight="bold" lengthAdjust="spacing" textLength="7" x="98" y="294.2139">6</text><text fill="#000000" font-family="sans-serif" font-size="13" lengthAdjust="spacing" textLength="252" x="109" y="294.2139">shows the data and requests a confirmation</text><polygon fill="#A80036" points="520,325.4219,530,329.4219,520,333.4219,524,329.4219" style="stroke:#A80036;stroke-width:1.0;"/><line style="stroke:#A80036;stroke-width:1.0;" x1="81" x2="526" y1="329.4219" y2="329.4219"/><text fill="#000000" font-family="sans-serif" font-size="13" font-weight="bold" lengthAdjust="spacing" textLength="7" x="88" y="324.5654">7</text><text fill="#000000" font-family="sans-serif" font-size="13" lengthAdjust="spacing" textLength="100" x="99" y="324.5654">confirms the data</text><polygon fill="#A80036" points="87,355.7734,77,359.7734,87,363.7734,83,359.7734" style="stroke:#A80036;stroke-width:1.0;"/><line style="stroke:#A80036;stroke-width:1.0;stroke-dasharray:2.0,2.0;" x1="81" x2="536" y1="359.7734" y2="359.7734"/><text fill="#000000" font-family="sans-serif" font-size="13" font-weight="bold" lengthAdjust="spacing" textLength="7" x="93" y="354.917">8</text><text fill="#000000" font-family="sans-serif" font-size="13" lengthAdjust="spacing" textLength="159" x="104" y="354.917">informs operations success</text><!--MD5=[e4bee80df7722162a366bb35bbda759f]
@startuml
Actor "Specialist Doctor" as SD
participant ":System" as SY

autonumber

activate SD
SD -> SY : starts the realization of the report

loop
activate SY
SY - -> SD : shows the list of tests to be reported and requests to select one of them
deactivate SY

SD -> SY : select a test to be reported

activate SY
SY - -> SD : shows the list of parameters results and request data (diagnosisText)
deactivate SY

SD -> SY : types requested data

activate SY
SY - -> SD : shows the data and requests a confirmation
deactivate SY

SD -> SY : confirms the data 

activate SY
SY - -> SD : informs operations success
deactivate SY

deactivate SD
end
@enduml

PlantUML version 1.2021.5(Sun Apr 25 12:20:28 BST 2021)
(GPL source distribution)
Java Runtime: OpenJDK Runtime Environment
JVM: OpenJDK 64-Bit Server VM
Default Encoding: Cp1252
Language: pt
Country: PT
--></g></svg>