<?xml version="1.0" encoding="UTF-8" standalone="no"?><svg xmlns="http://www.w3.org/2000/svg" xmlns:xlink="http://www.w3.org/1999/xlink" contentScriptType="application/ecmascript" contentStyleType="text/css" height="808px" preserveAspectRatio="none" style="width:756px;height:808px;" version="1.1" viewBox="0 0 756 808" width="756.8px" zoomAndPan="magnify"><defs><filter height="300%" id="f8q8ghtchd7wk" width="300%" x="-1" y="-1"><feGaussianBlur result="blurOut" stdDeviation="1.6000000000000003"/><feColorMatrix in="blurOut" result="blurOut2" type="matrix" values="0 0 0 0 0 0 0 0 0 0 0 0 0 0 0 0 0 0 .4 0"/><feOffset dx="3.2000000000000006" dy="3.2000000000000006" in="blurOut2" result="blurOut3"/><feBlend in="SourceGraphic" in2="blurOut3" mode="normal"/></filter></defs><g><!--MD5=[9681dc6e01e10c6b4fe06895ae94f592]
cluster UI--><polygon fill="#FFFFFF" filter="url(#f8q8ghtchd7wk)" points="629.6,4.8,645.6,4.8,651.2,23.6875,743.2,23.6875,743.2,84.8,629.6,84.8,629.6,4.8" style="stroke:#000000;stroke-width:1.2000000000000002;"/><line style="stroke:#000000;stroke-width:1.2000000000000002;" x1="629.6" x2="651.2" y1="23.6875" y2="23.6875"/><text fill="#000000" font-family="sans-serif" font-size="11.2" font-weight="bold" lengthAdjust="spacing" textLength="11.2" x="632.8" y="18.0266">UI</text><!--MD5=[ed1d20ea533a2a0e7df5ba3c35e56ced]
cluster Controllers--><polygon fill="#FFFFFF" filter="url(#f8q8ghtchd7wk)" points="282.4,111.2,350.4,111.2,356,130.0875,442.4,130.0875,442.4,224.8,282.4,224.8,282.4,111.2" style="stroke:#000000;stroke-width:1.2000000000000002;"/><line style="stroke:#000000;stroke-width:1.2000000000000002;" x1="282.4" x2="356" y1="130.0875" y2="130.0875"/><text fill="#000000" font-family="sans-serif" font-size="11.2" font-weight="bold" lengthAdjust="spacing" textLength="63.2" x="285.6" y="124.4266">Controllers</text><!--MD5=[121a8bf1197281ab89ed693fab589f94]
cluster Domain--><polygon fill="#FFFFFF" filter="url(#f8q8ghtchd7wk)" points="12.8,251.2,59.2,251.2,64.8,270.0875,268,270.0875,268,802.4,12.8,802.4,12.8,251.2" style="stroke:#000000;stroke-width:1.2000000000000002;"/><line style="stroke:#000000;stroke-width:1.2000000000000002;" x1="12.8" x2="64.8" y1="270.0875" y2="270.0875"/><text fill="#000000" font-family="sans-serif" font-size="11.2" font-weight="bold" lengthAdjust="spacing" textLength="41.6" x="16" y="264.4266">Domain</text><!--MD5=[7b8bc9ee8bb84b99fb3a3f9477c19238]
cluster DTO--><polygon fill="#FFFFFF" filter="url(#f8q8ghtchd7wk)" points="481.6,382.4,509.6,382.4,515.2,401.2875,702.4,401.2875,702.4,473.6,481.6,473.6,481.6,382.4" style="stroke:#000000;stroke-width:1.2000000000000002;"/><line style="stroke:#000000;stroke-width:1.2000000000000002;" x1="481.6" x2="515.2" y1="401.2875" y2="401.2875"/><text fill="#000000" font-family="sans-serif" font-size="11.2" font-weight="bold" lengthAdjust="spacing" textLength="23.2" x="484.8" y="395.6266">DTO</text><!--MD5=[701152d03fbf85133a1de050cfdbc7fd]
cluster Mappers--><polygon fill="#FFFFFF" filter="url(#f8q8ghtchd7wk)" points="287.2,251.2,341.6,251.2,347.2,270.0875,543.2,270.0875,543.2,342.4,287.2,342.4,287.2,251.2" style="stroke:#000000;stroke-width:1.2000000000000002;"/><line style="stroke:#000000;stroke-width:1.2000000000000002;" x1="287.2" x2="347.2" y1="270.0875" y2="270.0875"/><text fill="#000000" font-family="sans-serif" font-size="11.2" font-weight="bold" lengthAdjust="spacing" textLength="49.6" x="290.4" y="264.4266">Mappers</text><!--MD5=[71fba8c2abd557a2f7006580273aba3e]
class WriteReportUI--><rect codeLine="2" fill="#FEFECE" filter="url(#f8q8ghtchd7wk)" height="38.4" id="WriteReportUI" style="stroke:#A80036;stroke-width:1.2000000000000002;" width="87.2" x="642.8" y="33.6"/><ellipse cx="654.8" cy="46.4" fill="#ADD1B2" rx="8.8" ry="8.8" style="stroke:#A80036;stroke-width:0.8000000000000002;"/><path d="M656.4,43.6 Q656.5625,43.2 656.75,43 Q656.9375,42.8 657.15,42.8 Q657.525,42.8 657.7625,43.025 Q658,43.25 658,43.775 L658,45.025 Q658,45.55 657.775,45.775 Q657.55,46 657.2,46 Q656.8875,46 656.6875,45.8625 Q656.4875,45.725 656.4,45.3625 Q656.3625,45.1125 656.225,44.975 Q655.975,44.7125 655.525,44.5625 Q655.075,44.4 654.625,44.4 Q654.0625,44.4 653.5875,44.625 Q653.125,44.85 652.7625,45.35 Q652.4,45.85 652.4,46.5375 L652.4,47.275 Q652.4,48.1 653.075,48.65 Q653.75,49.2 654.95,49.2 Q655.6625,49.2 656.1625,49.0375 Q656.45,48.95 656.775,48.6625 Q656.9875,48.5 657.1,48.45 Q657.2125,48.4 657.35,48.4 Q657.6125,48.4 657.8,48.6125 Q658,48.8125 658,49.1 Q658,49.375 657.725,49.7 Q657.325,50.175 656.6875,50.4375 Q655.85,50.8 654.825,50.8 Q653.625,50.8 652.6625,50.325 Q651.8875,49.95 651.3375,49.1375 Q650.8,48.325 650.8,47.3625 L650.8,46.4875 Q650.8,45.4875 651.275,44.6125 Q651.7625,43.7375 652.6,43.275 Q653.45,42.8 654.4,42.8 Q654.975,42.8 655.475,43 Q655.975,43.2 656.4,43.6 Z " fill="#000000"/><text fill="#000000" font-family="sans-serif" font-size="9.6" lengthAdjust="spacing" textLength="61.6" x="666" y="50.3281">WriteReportUI</text><line style="stroke:#A80036;stroke-width:1.2000000000000002;" x1="643.6" x2="729.2" y1="59.2" y2="59.2"/><line style="stroke:#A80036;stroke-width:1.2000000000000002;" x1="643.6" x2="729.2" y1="65.6" y2="65.6"/><!--MD5=[d7b8916e3117ca4a3ffdab4f31ea783a]
class WriteReportController--><rect codeLine="5" fill="#FEFECE" filter="url(#f8q8ghtchd7wk)" height="71.6063" id="WriteReportController" style="stroke:#A80036;stroke-width:1.2000000000000002;" width="134.4" x="295.2" y="140"/><ellipse cx="313.32" cy="152.8" fill="#ADD1B2" rx="8.8" ry="8.8" style="stroke:#A80036;stroke-width:0.8000000000000002;"/><path d="M314.92,150 Q315.0825,149.6 315.27,149.4 Q315.4575,149.2 315.67,149.2 Q316.045,149.2 316.2825,149.425 Q316.52,149.65 316.52,150.175 L316.52,151.425 Q316.52,151.95 316.295,152.175 Q316.07,152.4 315.72,152.4 Q315.4075,152.4 315.2075,152.2625 Q315.0075,152.125 314.92,151.7625 Q314.8825,151.5125 314.745,151.375 Q314.495,151.1125 314.045,150.9625 Q313.595,150.8 313.145,150.8 Q312.5825,150.8 312.1075,151.025 Q311.645,151.25 311.2825,151.75 Q310.92,152.25 310.92,152.9375 L310.92,153.675 Q310.92,154.5 311.595,155.05 Q312.27,155.6 313.47,155.6 Q314.1825,155.6 314.6825,155.4375 Q314.97,155.35 315.295,155.0625 Q315.5075,154.9 315.62,154.85 Q315.7325,154.8 315.87,154.8 Q316.1325,154.8 316.32,155.0125 Q316.52,155.2125 316.52,155.5 Q316.52,155.775 316.245,156.1 Q315.845,156.575 315.2075,156.8375 Q314.37,157.2 313.345,157.2 Q312.145,157.2 311.1825,156.725 Q310.4075,156.35 309.8575,155.5375 Q309.32,154.725 309.32,153.7625 L309.32,152.8875 Q309.32,151.8875 309.795,151.0125 Q310.2825,150.1375 311.12,149.675 Q311.97,149.2 312.92,149.2 Q313.495,149.2 313.995,149.4 Q314.495,149.6 314.92,150 Z " fill="#000000"/><text fill="#000000" font-family="sans-serif" font-size="9.6" lengthAdjust="spacing" textLength="95.2" x="325.88" y="156.7281">WriteReportController</text><line style="stroke:#A80036;stroke-width:1.2000000000000002;" x1="296" x2="428.8" y1="165.6" y2="165.6"/><line style="stroke:#A80036;stroke-width:1.2000000000000002;" x1="296" x2="428.8" y1="172" y2="172"/><ellipse cx="304" cy="180.8" fill="#84BE84" rx="2.4" ry="2.4" style="stroke:#038048;stroke-width:0.8000000000000002;"/><text fill="#000000" font-family="sans-serif" font-size="8.8" lengthAdjust="spacing" textLength="40" x="311.2" y="184.3352">getTests()</text><ellipse cx="304" cy="191.8688" fill="#84BE84" rx="2.4" ry="2.4" style="stroke:#038048;stroke-width:0.8000000000000002;"/><text fill="#000000" font-family="sans-serif" font-size="8.8" lengthAdjust="spacing" textLength="113.6" x="311.2" y="195.4039">getResultParameters(testDto)</text><ellipse cx="304" cy="202.9375" fill="#84BE84" rx="2.4" ry="2.4" style="stroke:#038048;stroke-width:0.8000000000000002;"/><text fill="#000000" font-family="sans-serif" font-size="8.8" lengthAdjust="spacing" textLength="110.4" x="311.2" y="206.4727">createReport(diagnosisText)</text><!--MD5=[02e4b9b7573f1156f41e60aa5b4e25a4]
class Company--><rect codeLine="8" fill="#FEFECE" filter="url(#f8q8ghtchd7wk)" height="49.4688" id="Company" style="stroke:#A80036;stroke-width:1.2000000000000002;" width="76.8" x="138.4" y="280"/><ellipse cx="154.36" cy="292.8" fill="#ADD1B2" rx="8.8" ry="8.8" style="stroke:#A80036;stroke-width:0.8000000000000002;"/><path d="M155.96,290 Q156.1225,289.6 156.31,289.4 Q156.4975,289.2 156.71,289.2 Q157.085,289.2 157.3225,289.425 Q157.56,289.65 157.56,290.175 L157.56,291.425 Q157.56,291.95 157.335,292.175 Q157.11,292.4 156.76,292.4 Q156.4475,292.4 156.2475,292.2625 Q156.0475,292.125 155.96,291.7625 Q155.9225,291.5125 155.785,291.375 Q155.535,291.1125 155.085,290.9625 Q154.635,290.8 154.185,290.8 Q153.6225,290.8 153.1475,291.025 Q152.685,291.25 152.3225,291.75 Q151.96,292.25 151.96,292.9375 L151.96,293.675 Q151.96,294.5 152.635,295.05 Q153.31,295.6 154.51,295.6 Q155.2225,295.6 155.7225,295.4375 Q156.01,295.35 156.335,295.0625 Q156.5475,294.9 156.66,294.85 Q156.7725,294.8 156.91,294.8 Q157.1725,294.8 157.36,295.0125 Q157.56,295.2125 157.56,295.5 Q157.56,295.775 157.285,296.1 Q156.885,296.575 156.2475,296.8375 Q155.41,297.2 154.385,297.2 Q153.185,297.2 152.2225,296.725 Q151.4475,296.35 150.8975,295.5375 Q150.36,294.725 150.36,293.7625 L150.36,292.8875 Q150.36,291.8875 150.835,291.0125 Q151.3225,290.1375 152.16,289.675 Q153.01,289.2 153.96,289.2 Q154.535,289.2 155.035,289.4 Q155.535,289.6 155.96,290 Z " fill="#000000"/><text fill="#000000" font-family="sans-serif" font-size="9.6" lengthAdjust="spacing" textLength="42.4" x="166.44" y="296.7281">Company</text><line style="stroke:#A80036;stroke-width:1.2000000000000002;" x1="139.2" x2="214.4" y1="305.6" y2="305.6"/><line style="stroke:#A80036;stroke-width:1.2000000000000002;" x1="139.2" x2="214.4" y1="312" y2="312"/><ellipse cx="147.2" cy="320.8" fill="#84BE84" rx="2.4" ry="2.4" style="stroke:#038048;stroke-width:0.8000000000000002;"/><text fill="#000000" font-family="sans-serif" font-size="8.8" lengthAdjust="spacing" textLength="56" x="154.4" y="324.3352">getTestStore()</text><!--MD5=[df38be88ccee13e832d6fafd6288a4ca]
class Test--><rect codeLine="9" fill="#FEFECE" filter="url(#f8q8ghtchd7wk)" height="104.8125" id="Test" style="stroke:#A80036;stroke-width:1.2000000000000002;" width="120.8" x="106" y="528.8"/><ellipse cx="153.4" cy="541.6" fill="#ADD1B2" rx="8.8" ry="8.8" style="stroke:#A80036;stroke-width:0.8000000000000002;"/><path d="M155,538.8 Q155.1625,538.4 155.35,538.2 Q155.5375,538 155.75,538 Q156.125,538 156.3625,538.225 Q156.6,538.45 156.6,538.975 L156.6,540.225 Q156.6,540.75 156.375,540.975 Q156.15,541.2 155.8,541.2 Q155.4875,541.2 155.2875,541.0625 Q155.0875,540.925 155,540.5625 Q154.9625,540.3125 154.825,540.175 Q154.575,539.9125 154.125,539.7625 Q153.675,539.6 153.225,539.6 Q152.6625,539.6 152.1875,539.825 Q151.725,540.05 151.3625,540.55 Q151,541.05 151,541.7375 L151,542.475 Q151,543.3 151.675,543.85 Q152.35,544.4 153.55,544.4 Q154.2625,544.4 154.7625,544.2375 Q155.05,544.15 155.375,543.8625 Q155.5875,543.7 155.7,543.65 Q155.8125,543.6 155.95,543.6 Q156.2125,543.6 156.4,543.8125 Q156.6,544.0125 156.6,544.3 Q156.6,544.575 156.325,544.9 Q155.925,545.375 155.2875,545.6375 Q154.45,546 153.425,546 Q152.225,546 151.2625,545.525 Q150.4875,545.15 149.9375,544.3375 Q149.4,543.525 149.4,542.5625 L149.4,541.6875 Q149.4,540.6875 149.875,539.8125 Q150.3625,538.9375 151.2,538.475 Q152.05,538 153,538 Q153.575,538 154.075,538.2 Q154.575,538.4 155,538.8 Z " fill="#000000"/><text fill="#000000" font-family="sans-serif" font-size="9.6" lengthAdjust="spacing" textLength="19.2" x="169.8" y="545.5281">Test</text><line style="stroke:#A80036;stroke-width:1.2000000000000002;" x1="106.8" x2="226" y1="554.4" y2="554.4"/><rect fill="none" height="4.8" style="stroke:#C82930;stroke-width:0.8000000000000002;" width="4.8" x="112.4" y="560.8"/><text fill="#000000" font-family="sans-serif" font-size="8.8" lengthAdjust="spacing" textLength="19.2" x="122" y="566.7352">code</text><rect fill="none" height="4.8" style="stroke:#C82930;stroke-width:0.8000000000000002;" width="4.8" x="112.4" y="571.8688"/><text fill="#000000" font-family="sans-serif" font-size="8.8" lengthAdjust="spacing" textLength="23.2" x="122" y="577.8039">report</text><rect fill="none" height="4.8" style="stroke:#C82930;stroke-width:0.8000000000000002;" width="4.8" x="112.4" y="582.9375"/><text fill="#000000" font-family="sans-serif" font-size="8.8" lengthAdjust="spacing" textLength="33.6" x="122" y="588.8727">labOrder</text><rect fill="none" height="4.8" style="stroke:#C82930;stroke-width:0.8000000000000002;" width="4.8" x="112.4" y="594.0063"/><text fill="#000000" font-family="sans-serif" font-size="8.8" lengthAdjust="spacing" textLength="27.2" x="122" y="599.9414">sample</text><line style="stroke:#A80036;stroke-width:1.2000000000000002;" x1="106.8" x2="226" y1="605.075" y2="605.075"/><ellipse cx="114.8" cy="613.875" fill="#84BE84" rx="2.4" ry="2.4" style="stroke:#038048;stroke-width:0.8000000000000002;"/><text fill="#000000" font-family="sans-serif" font-size="8.8" lengthAdjust="spacing" textLength="86.4" x="122" y="617.4102">getResultParameters()</text><ellipse cx="114.8" cy="624.9438" fill="#84BE84" rx="2.4" ry="2.4" style="stroke:#038048;stroke-width:0.8000000000000002;"/><text fill="#000000" font-family="sans-serif" font-size="8.8" lengthAdjust="spacing" textLength="100" x="122" y="628.4789">addReport(diagnosisText)</text><!--MD5=[0f6f7964b844a64b0496af0dda7914bd]
class TestStore--><rect codeLine="10" fill="#FEFECE" filter="url(#f8q8ghtchd7wk)" height="60.5375" id="TestStore" style="stroke:#A80036;stroke-width:1.2000000000000002;" width="105.6" x="138.4" y="405.6"/><ellipse cx="167.32" cy="418.4" fill="#ADD1B2" rx="8.8" ry="8.8" style="stroke:#A80036;stroke-width:0.8000000000000002;"/><path d="M168.92,415.6 Q169.0825,415.2 169.27,415 Q169.4575,414.8 169.67,414.8 Q170.045,414.8 170.2825,415.025 Q170.52,415.25 170.52,415.775 L170.52,417.025 Q170.52,417.55 170.295,417.775 Q170.07,418 169.72,418 Q169.4075,418 169.2075,417.8625 Q169.0075,417.725 168.92,417.3625 Q168.8825,417.1125 168.745,416.975 Q168.495,416.7125 168.045,416.5625 Q167.595,416.4 167.145,416.4 Q166.5825,416.4 166.1075,416.625 Q165.645,416.85 165.2825,417.35 Q164.92,417.85 164.92,418.5375 L164.92,419.275 Q164.92,420.1 165.595,420.65 Q166.27,421.2 167.47,421.2 Q168.1825,421.2 168.6825,421.0375 Q168.97,420.95 169.295,420.6625 Q169.5075,420.5 169.62,420.45 Q169.7325,420.4 169.87,420.4 Q170.1325,420.4 170.32,420.6125 Q170.52,420.8125 170.52,421.1 Q170.52,421.375 170.245,421.7 Q169.845,422.175 169.2075,422.4375 Q168.37,422.8 167.345,422.8 Q166.145,422.8 165.1825,422.325 Q164.4075,421.95 163.8575,421.1375 Q163.32,420.325 163.32,419.3625 L163.32,418.4875 Q163.32,417.4875 163.795,416.6125 Q164.2825,415.7375 165.12,415.275 Q165.97,414.8 166.92,414.8 Q167.495,414.8 167.995,415 Q168.495,415.2 168.92,415.6 Z " fill="#000000"/><text fill="#000000" font-family="sans-serif" font-size="9.6" lengthAdjust="spacing" textLength="42.4" x="182.28" y="422.3281">TestStore</text><line style="stroke:#A80036;stroke-width:1.2000000000000002;" x1="139.2" x2="243.2" y1="431.2" y2="431.2"/><line style="stroke:#A80036;stroke-width:1.2000000000000002;" x1="139.2" x2="243.2" y1="437.6" y2="437.6"/><ellipse cx="147.2" cy="446.4" fill="#84BE84" rx="2.4" ry="2.4" style="stroke:#038048;stroke-width:0.8000000000000002;"/><text fill="#000000" font-family="sans-serif" font-size="8.8" lengthAdjust="spacing" textLength="40" x="154.4" y="449.9352">getTests()</text><ellipse cx="147.2" cy="457.4688" fill="#84BE84" rx="2.4" ry="2.4" style="stroke:#038048;stroke-width:0.8000000000000002;"/><text fill="#000000" font-family="sans-serif" font-size="8.8" lengthAdjust="spacing" textLength="84.8" x="154.4" y="461.0039">getTestByCode(code)</text><!--MD5=[f00dbe8c0302c6aec2cb26b3c659c8fc]
class Report--><rect codeLine="11" fill="#FEFECE" filter="url(#f8q8ghtchd7wk)" height="93.7438" id="Report" style="stroke:#A80036;stroke-width:1.2000000000000002;" width="110.4" x="25.6" y="696"/><ellipse cx="62.6" cy="708.8" fill="#ADD1B2" rx="8.8" ry="8.8" style="stroke:#A80036;stroke-width:0.8000000000000002;"/><path d="M64.2,706 Q64.3625,705.6 64.55,705.4 Q64.7375,705.2 64.95,705.2 Q65.325,705.2 65.5625,705.425 Q65.8,705.65 65.8,706.175 L65.8,707.425 Q65.8,707.95 65.575,708.175 Q65.35,708.4 65,708.4 Q64.6875,708.4 64.4875,708.2625 Q64.2875,708.125 64.2,707.7625 Q64.1625,707.5125 64.025,707.375 Q63.775,707.1125 63.325,706.9625 Q62.875,706.8 62.425,706.8 Q61.8625,706.8 61.3875,707.025 Q60.925,707.25 60.5625,707.75 Q60.2,708.25 60.2,708.9375 L60.2,709.675 Q60.2,710.5 60.875,711.05 Q61.55,711.6 62.75,711.6 Q63.4625,711.6 63.9625,711.4375 Q64.25,711.35 64.575,711.0625 Q64.7875,710.9 64.9,710.85 Q65.0125,710.8 65.15,710.8 Q65.4125,710.8 65.6,711.0125 Q65.8,711.2125 65.8,711.5 Q65.8,711.775 65.525,712.1 Q65.125,712.575 64.4875,712.8375 Q63.65,713.2 62.625,713.2 Q61.425,713.2 60.4625,712.725 Q59.6875,712.35 59.1375,711.5375 Q58.6,710.725 58.6,709.7625 L58.6,708.8875 Q58.6,707.8875 59.075,707.0125 Q59.5625,706.1375 60.4,705.675 Q61.25,705.2 62.2,705.2 Q62.775,705.2 63.275,705.4 Q63.775,705.6 64.2,706 Z " fill="#000000"/><text fill="#000000" font-family="sans-serif" font-size="9.6" lengthAdjust="spacing" textLength="29.6" x="79" y="712.7281">Report</text><line style="stroke:#A80036;stroke-width:1.2000000000000002;" x1="26.4" x2="135.2" y1="721.6" y2="721.6"/><rect fill="none" height="4.8" style="stroke:#C82930;stroke-width:0.8000000000000002;" width="4.8" x="32" y="728"/><text fill="#000000" font-family="sans-serif" font-size="8.8" lengthAdjust="spacing" textLength="36.8" x="41.6" y="733.9352">diagnosis</text><rect fill="none" height="4.8" style="stroke:#C82930;stroke-width:0.8000000000000002;" width="4.8" x="32" y="739.0688"/><text fill="#000000" font-family="sans-serif" font-size="8.8" lengthAdjust="spacing" textLength="38.4" x="41.6" y="745.0039">createdAt</text><line style="stroke:#A80036;stroke-width:1.2000000000000002;" x1="26.4" x2="135.2" y1="750.1375" y2="750.1375"/><ellipse cx="34.4" cy="758.9375" fill="#84BE84" rx="2.4" ry="2.4" style="stroke:#038048;stroke-width:0.8000000000000002;"/><text fill="#000000" font-family="sans-serif" font-size="8.8" lengthAdjust="spacing" textLength="84.8" x="41.6" y="762.4727">create(diagnosisText)</text><ellipse cx="34.4" cy="770.0063" fill="#84BE84" rx="2.4" ry="2.4" style="stroke:#038048;stroke-width:0.8000000000000002;"/><text fill="#000000" font-family="sans-serif" font-size="8.8" lengthAdjust="spacing" textLength="36" x="41.6" y="773.5414">getData()</text><ellipse cx="34.4" cy="781.075" fill="#84BE84" rx="2.4" ry="2.4" style="stroke:#038048;stroke-width:0.8000000000000002;"/><text fill="#000000" font-family="sans-serif" font-size="8.8" lengthAdjust="spacing" textLength="89.6" x="41.6" y="784.6102">validate(diagnosisText)</text><!--MD5=[0f07739f46effee96e095e9c408da841]
class TestParameter--><rect codeLine="12" fill="#FEFECE" filter="url(#f8q8ghtchd7wk)" height="60.5375" id="TestParameter" style="stroke:#A80036;stroke-width:1.2000000000000002;" width="91.2" x="164" y="712.4"/><ellipse cx="176" cy="725.2" fill="#ADD1B2" rx="8.8" ry="8.8" style="stroke:#A80036;stroke-width:0.8000000000000002;"/><path d="M177.6,722.4 Q177.7625,722 177.95,721.8 Q178.1375,721.6 178.35,721.6 Q178.725,721.6 178.9625,721.825 Q179.2,722.05 179.2,722.575 L179.2,723.825 Q179.2,724.35 178.975,724.575 Q178.75,724.8 178.4,724.8 Q178.0875,724.8 177.8875,724.6625 Q177.6875,724.525 177.6,724.1625 Q177.5625,723.9125 177.425,723.775 Q177.175,723.5125 176.725,723.3625 Q176.275,723.2 175.825,723.2 Q175.2625,723.2 174.7875,723.425 Q174.325,723.65 173.9625,724.15 Q173.6,724.65 173.6,725.3375 L173.6,726.075 Q173.6,726.9 174.275,727.45 Q174.95,728 176.15,728 Q176.8625,728 177.3625,727.8375 Q177.65,727.75 177.975,727.4625 Q178.1875,727.3 178.3,727.25 Q178.4125,727.2 178.55,727.2 Q178.8125,727.2 179,727.4125 Q179.2,727.6125 179.2,727.9 Q179.2,728.175 178.925,728.5 Q178.525,728.975 177.8875,729.2375 Q177.05,729.6 176.025,729.6 Q174.825,729.6 173.8625,729.125 Q173.0875,728.75 172.5375,727.9375 Q172,727.125 172,726.1625 L172,725.2875 Q172,724.2875 172.475,723.4125 Q172.9625,722.5375 173.8,722.075 Q174.65,721.6 175.6,721.6 Q176.175,721.6 176.675,721.8 Q177.175,722 177.6,722.4 Z " fill="#000000"/><text fill="#000000" font-family="sans-serif" font-size="9.6" lengthAdjust="spacing" textLength="65.6" x="187.2" y="729.1281">TestParameter</text><line style="stroke:#A80036;stroke-width:1.2000000000000002;" x1="164.8" x2="254.4" y1="738" y2="738"/><rect fill="none" height="4.8" style="stroke:#C82930;stroke-width:0.8000000000000002;" width="4.8" x="170.4" y="744.4"/><text fill="#000000" font-family="sans-serif" font-size="8.8" lengthAdjust="spacing" textLength="39.2" x="180" y="750.3352">parameter</text><rect fill="none" height="4.8" style="stroke:#C82930;stroke-width:0.8000000000000002;" width="4.8" x="170.4" y="755.4688"/><text fill="#000000" font-family="sans-serif" font-size="8.8" lengthAdjust="spacing" textLength="10.4" x="180" y="761.4039">tpr</text><line style="stroke:#A80036;stroke-width:1.2000000000000002;" x1="164.8" x2="254.4" y1="766.5375" y2="766.5375"/><!--MD5=[1c38f6084f2098752e2974895ca67f4c]
class TestDto--><rect codeLine="15" fill="#FEFECE" filter="url(#f8q8ghtchd7wk)" height="49.4688" id="TestDto" style="stroke:#A80036;stroke-width:1.2000000000000002;" width="60" x="629.2" y="411.2"/><ellipse cx="641.2" cy="424" fill="#ADD1B2" rx="8.8" ry="8.8" style="stroke:#A80036;stroke-width:0.8000000000000002;"/><path d="M642.8,421.2 Q642.9625,420.8 643.15,420.6 Q643.3375,420.4 643.55,420.4 Q643.925,420.4 644.1625,420.625 Q644.4,420.85 644.4,421.375 L644.4,422.625 Q644.4,423.15 644.175,423.375 Q643.95,423.6 643.6,423.6 Q643.2875,423.6 643.0875,423.4625 Q642.8875,423.325 642.8,422.9625 Q642.7625,422.7125 642.625,422.575 Q642.375,422.3125 641.925,422.1625 Q641.475,422 641.025,422 Q640.4625,422 639.9875,422.225 Q639.525,422.45 639.1625,422.95 Q638.8,423.45 638.8,424.1375 L638.8,424.875 Q638.8,425.7 639.475,426.25 Q640.15,426.8 641.35,426.8 Q642.0625,426.8 642.5625,426.6375 Q642.85,426.55 643.175,426.2625 Q643.3875,426.1 643.5,426.05 Q643.6125,426 643.75,426 Q644.0125,426 644.2,426.2125 Q644.4,426.4125 644.4,426.7 Q644.4,426.975 644.125,427.3 Q643.725,427.775 643.0875,428.0375 Q642.25,428.4 641.225,428.4 Q640.025,428.4 639.0625,427.925 Q638.2875,427.55 637.7375,426.7375 Q637.2,425.925 637.2,424.9625 L637.2,424.0875 Q637.2,423.0875 637.675,422.2125 Q638.1625,421.3375 639,420.875 Q639.85,420.4 640.8,420.4 Q641.375,420.4 641.875,420.6 Q642.375,420.8 642.8,421.2 Z " fill="#000000"/><text fill="#000000" font-family="sans-serif" font-size="9.6" lengthAdjust="spacing" textLength="34.4" x="652.4" y="427.9281">TestDto</text><line style="stroke:#A80036;stroke-width:1.2000000000000002;" x1="630" x2="688.4" y1="436.8" y2="436.8"/><line style="stroke:#A80036;stroke-width:1.2000000000000002;" x1="630" x2="688.4" y1="443.2" y2="443.2"/><ellipse cx="638" cy="452" fill="#84BE84" rx="2.4" ry="2.4" style="stroke:#038048;stroke-width:0.8000000000000002;"/><text fill="#000000" font-family="sans-serif" font-size="8.8" lengthAdjust="spacing" textLength="38.4" x="645.2" y="455.5352">getCode()</text><!--MD5=[fa2f44d2bdbb0499bd765719ad83ddd6]
class TestParameterDto--><rect codeLine="17" fill="#FEFECE" filter="url(#f8q8ghtchd7wk)" height="38.4" id="TestParameterDto" style="stroke:#A80036;stroke-width:1.2000000000000002;" width="106.4" x="494.8" y="416.8"/><ellipse cx="506.8" cy="429.6" fill="#ADD1B2" rx="8.8" ry="8.8" style="stroke:#A80036;stroke-width:0.8000000000000002;"/><path d="M508.4,426.8 Q508.5625,426.4 508.75,426.2 Q508.9375,426 509.15,426 Q509.525,426 509.7625,426.225 Q510,426.45 510,426.975 L510,428.225 Q510,428.75 509.775,428.975 Q509.55,429.2 509.2,429.2 Q508.8875,429.2 508.6875,429.0625 Q508.4875,428.925 508.4,428.5625 Q508.3625,428.3125 508.225,428.175 Q507.975,427.9125 507.525,427.7625 Q507.075,427.6 506.625,427.6 Q506.0625,427.6 505.5875,427.825 Q505.125,428.05 504.7625,428.55 Q504.4,429.05 504.4,429.7375 L504.4,430.475 Q504.4,431.3 505.075,431.85 Q505.75,432.4 506.95,432.4 Q507.6625,432.4 508.1625,432.2375 Q508.45,432.15 508.775,431.8625 Q508.9875,431.7 509.1,431.65 Q509.2125,431.6 509.35,431.6 Q509.6125,431.6 509.8,431.8125 Q510,432.0125 510,432.3 Q510,432.575 509.725,432.9 Q509.325,433.375 508.6875,433.6375 Q507.85,434 506.825,434 Q505.625,434 504.6625,433.525 Q503.8875,433.15 503.3375,432.3375 Q502.8,431.525 502.8,430.5625 L502.8,429.6875 Q502.8,428.6875 503.275,427.8125 Q503.7625,426.9375 504.6,426.475 Q505.45,426 506.4,426 Q506.975,426 507.475,426.2 Q507.975,426.4 508.4,426.8 Z " fill="#000000"/><text fill="#000000" font-family="sans-serif" font-size="9.6" lengthAdjust="spacing" textLength="80.8" x="518" y="433.5281">TestParameterDto</text><line style="stroke:#A80036;stroke-width:1.2000000000000002;" x1="495.6" x2="600.4" y1="442.4" y2="442.4"/><line style="stroke:#A80036;stroke-width:1.2000000000000002;" x1="495.6" x2="600.4" y1="448.8" y2="448.8"/><!--MD5=[a82d32c079496d6dca2681dc0633feb0]
class TestParameterMapper--><rect codeLine="20" fill="#FEFECE" filter="url(#f8q8ghtchd7wk)" height="49.4688" id="TestParameterMapper" style="stroke:#A80036;stroke-width:1.2000000000000002;" width="124" x="300.4" y="280"/><ellipse cx="312.4" cy="292.8" fill="#ADD1B2" rx="8.8" ry="8.8" style="stroke:#A80036;stroke-width:0.8000000000000002;"/><path d="M314,290 Q314.1625,289.6 314.35,289.4 Q314.5375,289.2 314.75,289.2 Q315.125,289.2 315.3625,289.425 Q315.6,289.65 315.6,290.175 L315.6,291.425 Q315.6,291.95 315.375,292.175 Q315.15,292.4 314.8,292.4 Q314.4875,292.4 314.2875,292.2625 Q314.0875,292.125 314,291.7625 Q313.9625,291.5125 313.825,291.375 Q313.575,291.1125 313.125,290.9625 Q312.675,290.8 312.225,290.8 Q311.6625,290.8 311.1875,291.025 Q310.725,291.25 310.3625,291.75 Q310,292.25 310,292.9375 L310,293.675 Q310,294.5 310.675,295.05 Q311.35,295.6 312.55,295.6 Q313.2625,295.6 313.7625,295.4375 Q314.05,295.35 314.375,295.0625 Q314.5875,294.9 314.7,294.85 Q314.8125,294.8 314.95,294.8 Q315.2125,294.8 315.4,295.0125 Q315.6,295.2125 315.6,295.5 Q315.6,295.775 315.325,296.1 Q314.925,296.575 314.2875,296.8375 Q313.45,297.2 312.425,297.2 Q311.225,297.2 310.2625,296.725 Q309.4875,296.35 308.9375,295.5375 Q308.4,294.725 308.4,293.7625 L308.4,292.8875 Q308.4,291.8875 308.875,291.0125 Q309.3625,290.1375 310.2,289.675 Q311.05,289.2 312,289.2 Q312.575,289.2 313.075,289.4 Q313.575,289.6 314,290 Z " fill="#000000"/><text fill="#000000" font-family="sans-serif" font-size="9.6" lengthAdjust="spacing" textLength="98.4" x="323.6" y="296.7281">TestParameterMapper</text><line style="stroke:#A80036;stroke-width:1.2000000000000002;" x1="301.2" x2="423.6" y1="305.6" y2="305.6"/><line style="stroke:#A80036;stroke-width:1.2000000000000002;" x1="301.2" x2="423.6" y1="312" y2="312"/><ellipse cx="309.2" cy="320.8" fill="#84BE84" rx="2.4" ry="2.4" style="stroke:#038048;stroke-width:0.8000000000000002;"/><text fill="#000000" font-family="sans-serif" font-size="8.8" lengthAdjust="spacing" textLength="96" x="316.4" y="324.3352">toDto(lResultParameters)</text><!--MD5=[144698ec4d0188f6929a3b58a3eeb1f6]
class TestMapper--><rect codeLine="21" fill="#FEFECE" filter="url(#f8q8ghtchd7wk)" height="49.4688" id="TestMapper" style="stroke:#A80036;stroke-width:1.2000000000000002;" width="77.6" x="452.4" y="280"/><ellipse cx="464.4" cy="292.8" fill="#ADD1B2" rx="8.8" ry="8.8" style="stroke:#A80036;stroke-width:0.8000000000000002;"/><path d="M466,290 Q466.1625,289.6 466.35,289.4 Q466.5375,289.2 466.75,289.2 Q467.125,289.2 467.3625,289.425 Q467.6,289.65 467.6,290.175 L467.6,291.425 Q467.6,291.95 467.375,292.175 Q467.15,292.4 466.8,292.4 Q466.4875,292.4 466.2875,292.2625 Q466.0875,292.125 466,291.7625 Q465.9625,291.5125 465.825,291.375 Q465.575,291.1125 465.125,290.9625 Q464.675,290.8 464.225,290.8 Q463.6625,290.8 463.1875,291.025 Q462.725,291.25 462.3625,291.75 Q462,292.25 462,292.9375 L462,293.675 Q462,294.5 462.675,295.05 Q463.35,295.6 464.55,295.6 Q465.2625,295.6 465.7625,295.4375 Q466.05,295.35 466.375,295.0625 Q466.5875,294.9 466.7,294.85 Q466.8125,294.8 466.95,294.8 Q467.2125,294.8 467.4,295.0125 Q467.6,295.2125 467.6,295.5 Q467.6,295.775 467.325,296.1 Q466.925,296.575 466.2875,296.8375 Q465.45,297.2 464.425,297.2 Q463.225,297.2 462.2625,296.725 Q461.4875,296.35 460.9375,295.5375 Q460.4,294.725 460.4,293.7625 L460.4,292.8875 Q460.4,291.8875 460.875,291.0125 Q461.3625,290.1375 462.2,289.675 Q463.05,289.2 464,289.2 Q464.575,289.2 465.075,289.4 Q465.575,289.6 466,290 Z " fill="#000000"/><text fill="#000000" font-family="sans-serif" font-size="9.6" lengthAdjust="spacing" textLength="52" x="475.6" y="296.7281">TestMapper</text><line style="stroke:#A80036;stroke-width:1.2000000000000002;" x1="453.2" x2="529.2" y1="305.6" y2="305.6"/><line style="stroke:#A80036;stroke-width:1.2000000000000002;" x1="453.2" x2="529.2" y1="312" y2="312"/><ellipse cx="461.2" cy="320.8" fill="#84BE84" rx="2.4" ry="2.4" style="stroke:#038048;stroke-width:0.8000000000000002;"/><text fill="#000000" font-family="sans-serif" font-size="8.8" lengthAdjust="spacing" textLength="53.6" x="468.4" y="324.3352">toDTO(lTests)</text><!--MD5=[4ff913b72b026e4c95390310e4df5ddd]
link WriteReportUI to WriteReportController--><path codeLine="23" d="M642.704,70 C589.104,90.12 497.504,124.496 433.664,148.456 " fill="none" id="WriteReportUI-to-WriteReportController" style="stroke:#A80036;stroke-width:0.8000000000000002;stroke-dasharray:7.0,7.0;"/><polygon fill="#A80036" points="429.88,149.872,437.7456,150.3323,433.6239,148.4637,435.4924,144.342,429.88,149.872" style="stroke:#A80036;stroke-width:0.8000000000000002;"/><!--MD5=[9b2333fc4bb252fcbf463a8449033993]
link WriteReportUI to TestDto--><path codeLine="24" d="M697.328,72 C701.264,79.648 705.216,88.776 707.2,97.6 C733.672,215.552 744.752,254.688 707.2,369.6 C702.672,383.456 693.984,396.816 685.224,407.816 " fill="none" id="WriteReportUI-to-TestDto" style="stroke:#A80036;stroke-width:0.8000000000000002;stroke-dasharray:7.0,7.0;"/><polygon fill="#A80036" points="682.512,411.152,689.5358,407.5819,685.0344,408.0475,684.5687,403.5461,682.512,411.152" style="stroke:#A80036;stroke-width:0.8000000000000002;"/><!--MD5=[db007318cbcc310df0d29f2bfaf07d63]
link WriteReportUI to TestParameterDto--><path codeLine="25" d="M681.808,72.24 C669.304,121.808 632.36,260.52 584.8,369.6 C578.272,384.568 569.344,400.568 561.912,413.024 " fill="none" id="WriteReportUI-to-TestParameterDto" style="stroke:#A80036;stroke-width:0.8000000000000002;stroke-dasharray:7.0,7.0;"/><polygon fill="#A80036" points="559.656,416.768,566.1043,412.2404,561.714,413.338,560.6164,408.9477,559.656,416.768" style="stroke:#A80036;stroke-width:0.8000000000000002;"/><!--MD5=[a3405a5a29c0a1359ce5b85a18cd6043]
link WriteReportController to Company--><path codeLine="26" d="M295.112,203.528 C275.408,212.872 254.44,224.376 236.8,237.6 C222.136,248.6 208.24,263.568 197.52,276.504 " fill="none" id="WriteReportController-to-Company" style="stroke:#A80036;stroke-width:0.8000000000000002;stroke-dasharray:7.0,7.0;"/><polygon fill="#A80036" points="194.864,279.752,201.9021,276.2101,197.3988,276.6577,196.9512,272.1544,194.864,279.752" style="stroke:#A80036;stroke-width:0.8000000000000002;"/><!--MD5=[2a13b80ffc8ef808da3a7bc0ac83e972]
link WriteReportController to TestParameterMapper--><path codeLine="27" d="M362.4,212.232 C362.4,232.192 362.4,256.784 362.4,275.48 " fill="none" id="WriteReportController-to-TestParameterMapper" style="stroke:#A80036;stroke-width:0.8000000000000002;stroke-dasharray:7.0,7.0;"/><polygon fill="#A80036" points="362.4,279.624,365.6,272.424,362.4,275.624,359.2,272.424,362.4,279.624" style="stroke:#A80036;stroke-width:0.8000000000000002;"/><!--MD5=[4d3310fc4566637689da5334cbb1e821]
link WriteReportController to TestParameter--><path codeLine="28" d="M295.096,187.32 C193.936,205.056 14.4,244.864 14.4,304 C14.4,304 14.4,304 14.4,582 C14.4,635.992 52.296,640.296 96,672 C117.128,687.328 127.176,682.632 149.6,696 C156.576,700.16 163.688,704.992 170.456,709.936 " fill="none" id="WriteReportController-to-TestParameter" style="stroke:#A80036;stroke-width:0.8000000000000002;stroke-dasharray:7.0,7.0;"/><polygon fill="#A80036" points="173.752,712.368,169.8414,705.5279,170.5275,710.0011,166.0543,710.6871,173.752,712.368" style="stroke:#A80036;stroke-width:0.8000000000000002;"/><!--MD5=[7278674e9ca3925782f5c87c1bd9dd49]
link WriteReportController to Test--><path codeLine="29" d="M295.128,186.824 C232.128,197.744 144.672,217.4 124,244.8 C62.312,326.544 104.336,452.64 137.408,524.736 " fill="none" id="WriteReportController-to-Test" style="stroke:#A80036;stroke-width:0.8000000000000002;stroke-dasharray:7.0,7.0;"/><polygon fill="#A80036" points="139.176,528.56,139.0501,520.6819,137.4932,524.9312,133.244,523.3743,139.176,528.56" style="stroke:#A80036;stroke-width:0.8000000000000002;"/><!--MD5=[ba2f9852a26c2c8c4a0a839cdb68bb34]
link WriteReportController to TestDto--><path codeLine="30" d="M429.608,182.432 C476.152,189.736 536.464,206.472 575.2,244.8 C621.504,290.616 644.256,366.344 653.656,407.128 " fill="none" id="WriteReportController-to-TestDto" style="stroke:#A80036;stroke-width:0.8000000000000002;stroke-dasharray:7.0,7.0;"/><polygon fill="#A80036" points="654.576,411.2,656.1164,403.473,653.6974,407.2977,649.8727,404.8787,654.576,411.2" style="stroke:#A80036;stroke-width:0.8000000000000002;"/><!--MD5=[f27b4a25a5b059d18ef9f1b16d7419ab]
link WriteReportController to TestMapper--><path codeLine="31" d="M403.808,212.328 C415.256,222.552 427.52,233.896 438.4,244.8 C448.456,254.872 458.992,266.456 467.984,276.688 " fill="none" id="WriteReportController-to-TestMapper" style="stroke:#A80036;stroke-width:0.8000000000000002;stroke-dasharray:7.0,7.0;"/><polygon fill="#A80036" points="470.728,279.816,468.397,272.2896,468.0948,276.805,463.5794,276.5027,470.728,279.816" style="stroke:#A80036;stroke-width:0.8000000000000002;"/><!--MD5=[aa4aa685cc8a1bee089823f9a2dac854]
link WriteReportController to TestStore--><path codeLine="32" d="M317.92,212.072 C307.072,221.952 296.056,233.184 287.2,244.8 C267.064,271.216 227.984,354.16 206.416,401.4 " fill="none" id="WriteReportController-to-TestStore" style="stroke:#A80036;stroke-width:0.8000000000000002;stroke-dasharray:7.0,7.0;"/><polygon fill="#A80036" points="204.64,405.296,210.5523,400.0879,206.309,401.6608,204.736,397.4175,204.64,405.296" style="stroke:#A80036;stroke-width:0.8000000000000002;"/><!--MD5=[48de59b1e522be65590027d0278dc73c]
link WriteReportController to TestParameterDto--><path codeLine="33" d="M429.608,183.632 C469.56,191.52 517.352,208.448 543.2,244.8 C579.16,295.368 564.976,374.112 554.84,412.552 " fill="none" id="WriteReportController-to-TestParameterDto" style="stroke:#A80036;stroke-width:0.8000000000000002;stroke-dasharray:7.0,7.0;"/><polygon fill="#A80036" points="553.752,416.592,558.7138,410.4715,554.7919,412.7295,552.5338,408.8077,553.752,416.592" style="stroke:#A80036;stroke-width:0.8000000000000002;"/><!--MD5=[7f6cf7f175eae0af66201860de5de971]
link Company to TestStore--><path codeLine="40" d="M179.472,329.672 C181.72,349.864 184.944,378.928 187.448,401.44 " fill="none" id="Company-to-TestStore" style="stroke:#A80036;stroke-width:0.8000000000000002;"/><polygon fill="#A80036" points="187.904,405.568,190.3035,398.0632,187.4698,401.5916,183.9413,398.7579,187.904,405.568" style="stroke:#A80036;stroke-width:0.8000000000000002;"/><text fill="#000000" font-family="sans-serif" font-size="10.4" lengthAdjust="spacing" textLength="16.8" x="184" y="366.7961">has</text><text fill="#000000" font-family="sans-serif" font-size="10.4" lengthAdjust="spacing" textLength="5.6" x="173.8468" y="346.6654">1</text><text fill="#000000" font-family="sans-serif" font-size="10.4" lengthAdjust="spacing" textLength="5.6" x="181.1801" y="396.8233">1</text><!--MD5=[b0f4f6db8206580012ef9cd998ed01c5]
link TestStore to Test--><path codeLine="44" d="M186.064,466.552 C183.176,483.272 179.472,504.688 176.064,524.424 " fill="none" id="TestStore-to-Test" style="stroke:#A80036;stroke-width:0.8000000000000002;"/><polygon fill="#A80036" points="175.344,528.608,179.7119,522.0504,176.0183,524.6652,173.4035,520.9716,175.344,528.608" style="stroke:#A80036;stroke-width:0.8000000000000002;"/><text fill="#000000" font-family="sans-serif" font-size="10.4" lengthAdjust="spacing" textLength="16.8" x="182.4" y="501.9961">has</text><text fill="#000000" font-family="sans-serif" font-size="10.4" lengthAdjust="spacing" textLength="5.6" x="179.1992" y="483.2806">1</text><text fill="#000000" font-family="sans-serif" font-size="10.4" lengthAdjust="spacing" textLength="4" x="172.1035" y="520.1665">*</text><!--MD5=[8d9a2c3ea1bf73d8d45b939465e53fff]
link TestMapper to Test--><path codeLine="47" d="M462.664,329.744 C410.952,373.496 300.616,466.848 230.16,526.456 " fill="none" id="TestMapper-to-Test" style="stroke:#A80036;stroke-width:0.8000000000000002;stroke-dasharray:7.0,7.0;"/><polygon fill="#A80036" points="227.04,529.096,234.603,526.8868,230.0931,526.5117,230.4682,522.0018,227.04,529.096" style="stroke:#A80036;stroke-width:0.8000000000000002;"/><!--MD5=[34b2fed5845bf5a187f4983fcf3f57bc]
link TestMapper to TestDto--><path codeLine="48" d="M530.2,322.528 C556.064,334.952 589.792,353.536 615.2,376 C625.456,385.072 634.824,396.888 642.248,407.576 " fill="none" id="TestMapper-to-TestDto" style="stroke:#A80036;stroke-width:0.8000000000000002;stroke-dasharray:7.0,7.0;"/><polygon fill="#A80036" points="644.696,411.152,643.2847,403.4003,642.443,407.8468,637.9965,407.0051,644.696,411.152" style="stroke:#A80036;stroke-width:0.8000000000000002;"/><!--MD5=[72163acd41df4db10e2bb78c0e4b52d4]
link Test to Report--><path codeLine="59" d="M122.792,633.704 C117.368,641.44 112.248,649.528 108,657.6 C102.36,668.312 97.616,680.4 93.76,692.016 " fill="none" id="Test-to-Report" style="stroke:#A80036;stroke-width:0.8000000000000002;"/><polygon fill="#A80036" points="92.48,695.928,97.7503,690.0711,93.7174,692.1242,91.6642,688.0913,92.48,695.928" style="stroke:#A80036;stroke-width:0.8000000000000002;"/><text fill="#000000" font-family="sans-serif" font-size="10.4" lengthAdjust="spacing" textLength="72" x="108.8" y="669.1961">associated with</text><text fill="#000000" font-family="sans-serif" font-size="10.4" lengthAdjust="spacing" textLength="5.6" x="112.1161" y="650.9574">1</text><text fill="#000000" font-family="sans-serif" font-size="10.4" lengthAdjust="spacing" textLength="4" x="89.6598" y="687.4399">*</text><!--MD5=[f24c888dadeb846430474fe80a58922b]
link Test to TestParameter--><path codeLine="60" d="M180.368,633.728 C186.984,658.224 194.688,686.776 200.528,708.408 " fill="none" id="Test-to-TestParameter" style="stroke:#A80036;stroke-width:0.8000000000000002;"/><polygon fill="#A80036" points="201.6,712.368,202.8182,704.5837,200.5601,708.5055,196.6382,706.2475,201.6,712.368" style="stroke:#A80036;stroke-width:0.8000000000000002;"/><text fill="#000000" font-family="sans-serif" font-size="10.4" lengthAdjust="spacing" textLength="87.2" x="191.2" y="669.1961">request analysis of</text><text fill="#000000" font-family="sans-serif" font-size="10.4" lengthAdjust="spacing" textLength="16" x="165.0208" y="650.984">1..*</text><text fill="#000000" font-family="sans-serif" font-size="10.4" lengthAdjust="spacing" textLength="16" x="182.65" y="703.6233">1..*</text><!--MD5=[886f81fd36c1ffd754dcf922ff388f49]
link TestParameterMapper to TestParameter--><path codeLine="63" d="M362.304,329.64 C361.064,390.888 351.4,556.144 285.6,672 C277.6,686.088 265.776,698.952 253.832,709.704 " fill="none" id="TestParameterMapper-to-TestParameter" style="stroke:#A80036;stroke-width:0.8000000000000002;stroke-dasharray:7.0,7.0;"/><polygon fill="#A80036" points="250.792,712.392,258.3038,710.0145,253.7867,709.7402,254.061,705.2231,250.792,712.392" style="stroke:#A80036;stroke-width:0.8000000000000002;"/><!--MD5=[0d2deb453e4521a8ecd45cf39c488e89]
link TestParameterMapper to TestParameterDto--><path codeLine="64" d="M396.872,329.672 C431.736,354.016 485.072,391.264 518.176,414.376 " fill="none" id="TestParameterMapper-to-TestParameterDto" style="stroke:#A80036;stroke-width:0.8000000000000002;stroke-dasharray:7.0,7.0;"/><polygon fill="#A80036" points="521.512,416.704,517.4344,409.9621,518.2302,414.4171,513.7753,415.2129,521.512,416.704" style="stroke:#A80036;stroke-width:0.8000000000000002;"/><!--MD5=[5e2d6acb6c52ff2e038934f604673af2]
@startuml
package UI{
    Class WriteReportUI
}
package Controllers{
    Class WriteReportController
}
package Domain{
    Class Company
    Class Test
    Class TestStore
    Class Report
    Class TestParameter
}
package DTO{
    Class TestDto
    Class TestParameterDto
    Class TestParameterDto
}
package Mappers{
    Class TestParameterMapper
    Class TestMapper
}
WriteReportUI ..> WriteReportController
WriteReportUI ..> TestDto
WriteReportUI ..> TestParameterDto
WriteReportController..>Company
WriteReportController..>TestParameterMapper
WriteReportController..>TestParameter
WriteReportController..>Test
WriteReportController..>TestDto
WriteReportController..>TestMapper
WriteReportController..>TestStore
WriteReportController..>TestParameterDto

WriteReportController : +getTests()
WriteReportController : +getResultParameters(testDto)
WriteReportController : +createReport(diagnosisText)

Company : +getTestStore()
Company"1" - -> "1"TestStore: has

TestStore : +getTests()
TestStore : +getTestByCode(code)
TestStore"1" - -> "*"Test: has

TestMapper : +toDTO(lTests)
TestMapper..>Test
TestMapper..>TestDto

TestDto : +getCode()

Test : +getResultParameters()
Test : +addReport(diagnosisText)
Test : -code
Test : -report
Test : -labOrder
Test : -sample

Test"1" - -> "*"Report : associated with
Test"1..*" - -> "1..*"TestParameter: request analysis of

TestParameterMapper : +toDto(lResultParameters)
TestParameterMapper..>TestParameter
TestParameterMapper..>TestParameterDto

TestParameter : -parameter
TestParameter : -tpr

Report : +create(diagnosisText)
Report : +getData()
Report : +validate(diagnosisText)
Report : -diagnosis
Report : -createdAt
@enduml

PlantUML version 1.2021.5(Sun Apr 25 12:20:28 BST 2021)
(GPL source distribution)
Java Runtime: OpenJDK Runtime Environment
JVM: OpenJDK 64-Bit Server VM
Default Encoding: Cp1252
Language: pt
Country: PT
--></g></svg>