<?xml version="1.0" encoding="UTF-8" standalone="no"?><svg xmlns="http://www.w3.org/2000/svg" xmlns:xlink="http://www.w3.org/1999/xlink" contentScriptType="application/ecmascript" contentStyleType="text/css" height="1126px" preserveAspectRatio="none" style="width:591px;height:1126px;background:#FFFFFF;" version="1.1" viewBox="0 0 591 1126" width="591px" zoomAndPan="magnify"><defs><filter height="300%" id="fyk4v8ibmacse" width="300%" x="-1" y="-1"><feGaussianBlur result="blurOut" stdDeviation="2.0"/><feColorMatrix in="blurOut" result="blurOut2" type="matrix" values="0 0 0 0 0 0 0 0 0 0 0 0 0 0 0 0 0 0 .4 0"/><feOffset dx="4.0" dy="4.0" in="blurOut2" result="blurOut3"/><feBlend in="SourceGraphic" in2="blurOut3" mode="normal"/></filter></defs><g><!--MD5=[9681dc6e01e10c6b4fe06895ae94f592]
cluster UI--><polygon fill="#FFFFFF" filter="url(#fyk4v8ibmacse)" points="43.2008,6,65.2008,6,72.2008,28.2969,231.2008,28.2969,231.2008,105,43.2008,105,43.2008,6" style="stroke:#000000;stroke-width:1.5;"/><line style="stroke:#000000;stroke-width:1.5;" x1="43.2008" x2="72.2008" y1="28.2969" y2="28.2969"/><text fill="#000000" font-family="sans-serif" font-size="14" font-weight="bold" lengthAdjust="spacing" textLength="16" x="47.2008" y="20.9951">UI</text><!--MD5=[ed1d20ea533a2a0e7df5ba3c35e56ced]
cluster Controllers--><polygon fill="#FFFFFF" filter="url(#fyk4v8ibmacse)" points="19.2008,138,115.2008,138,122.2008,160.2969,255.2008,160.2969,255.2008,263,19.2008,263,19.2008,138" style="stroke:#000000;stroke-width:1.5;"/><line style="stroke:#000000;stroke-width:1.5;" x1="19.2008" x2="122.2008" y1="160.2969" y2="160.2969"/><text fill="#000000" font-family="sans-serif" font-size="14" font-weight="bold" lengthAdjust="spacing" textLength="90" x="23.2008" y="152.9951">Controllers</text><!--MD5=[121a8bf1197281ab89ed693fab589f94]
cluster Domain--><polygon fill="#FFFFFF" filter="url(#fyk4v8ibmacse)" points="61.2008,460,128.2008,460,135.2008,482.2969,354.2007,482.2969,354.2007,1119,61.2008,1119,61.2008,460" style="stroke:#000000;stroke-width:1.5;"/><line style="stroke:#000000;stroke-width:1.5;" x1="61.2008" x2="135.2008" y1="482.2969" y2="482.2969"/><text fill="#000000" font-family="sans-serif" font-size="14" font-weight="bold" lengthAdjust="spacing" textLength="61" x="65.2008" y="474.9951">Domain</text><!--MD5=[701152d03fbf85133a1de050cfdbc7fd]
cluster Mappers--><polygon fill="#FFFFFF" filter="url(#fyk4v8ibmacse)" points="298.2008,296,373.2008,296,380.2008,318.2969,434.2008,318.2969,434.2008,408,298.2008,408,298.2008,296" style="stroke:#000000;stroke-width:1.5;"/><line style="stroke:#000000;stroke-width:1.5;" x1="298.2008" x2="380.2008" y1="318.2969" y2="318.2969"/><text fill="#000000" font-family="sans-serif" font-size="14" font-weight="bold" lengthAdjust="spacing" textLength="69" x="302.2008" y="310.9951">Mappers</text><!--MD5=[a7e26d82dece3a99be33d8557e72e039]
cluster Dto--><polygon fill="#FFFFFF" filter="url(#fyk4v8ibmacse)" points="378.2008,441,413.2008,441,420.2008,463.2969,540.2008,463.2969,540.2008,604,378.2008,604,378.2008,441" style="stroke:#000000;stroke-width:1.5;"/><line style="stroke:#000000;stroke-width:1.5;" x1="378.2008" x2="420.2008" y1="463.2969" y2="463.2969"/><text fill="#000000" font-family="sans-serif" font-size="14" font-weight="bold" lengthAdjust="spacing" textLength="29" x="382.2008" y="455.9951">Dto</text><!--MD5=[81bb5adcf338171fdcf2b9c1599aa745]
class ValidateWorkDoneUI--><rect codeLine="56" fill="#FEFECE" filter="url(#fyk4v8ibmacse)" height="48" id="ValidateWorkDoneUI" style="stroke:#A80036;stroke-width:1.5;" width="156" x="59.2008" y="41"/><ellipse cx="74.2008" cy="57" fill="#ADD1B2" rx="11" ry="11" style="stroke:#A80036;stroke-width:1.0;"/><path d="M76.5445,52.6719 C75.607,52.2344 75.0133,52.0938 74.1383,52.0938 C71.5133,52.0938 69.5133,54.1719 69.5133,56.8906 L69.5133,58.0156 C69.5133,60.5938 71.6226,62.4844 74.5133,62.4844 C75.732,62.4844 76.8883,62.1875 77.6383,61.6406 C78.2164,61.2344 78.5445,60.7813 78.5445,60.3906 C78.5445,59.9375 78.1539,59.5469 77.6851,59.5469 C77.4664,59.5469 77.2633,59.625 77.0758,59.8125 C76.6226,60.2969 76.6226,60.2969 76.4351,60.3906 C76.0133,60.6563 75.3258,60.7813 74.5601,60.7813 C72.5133,60.7813 71.2164,59.6875 71.2164,57.9844 L71.2164,56.8906 C71.2164,55.1094 72.4664,53.7969 74.2008,53.7969 C74.7789,53.7969 75.3883,53.9531 75.857,54.2031 C76.3414,54.4844 76.5133,54.7031 76.607,55.1094 C76.6695,55.5156 76.7008,55.6406 76.8414,55.7656 C76.982,55.9063 77.2164,56.0156 77.4351,56.0156 C77.7008,56.0156 77.9664,55.875 78.1383,55.6563 C78.2476,55.5 78.2789,55.3125 78.2789,54.8906 L78.2789,53.4688 C78.2789,53.0313 78.2633,52.9063 78.1695,52.75 C78.0133,52.4844 77.732,52.3438 77.4351,52.3438 C77.1383,52.3438 76.9351,52.4375 76.7164,52.75 L76.5445,52.6719 Z " fill="#000000"/><text fill="#000000" font-family="sans-serif" font-size="12" lengthAdjust="spacing" textLength="124" x="88.2008" y="61.1543">ValidateWorkDoneUI</text><line style="stroke:#A80036;stroke-width:1.5;" x1="60.2008" x2="214.2008" y1="73" y2="73"/><line style="stroke:#A80036;stroke-width:1.5;" x1="60.2008" x2="214.2008" y1="81" y2="81"/><!--MD5=[db921183028456ae22ec890b9d583b60]
class ValidateWorkDoneController--><rect codeLine="51" fill="#FEFECE" filter="url(#fyk4v8ibmacse)" height="73.6094" id="ValidateWorkDoneController" style="stroke:#A80036;stroke-width:1.5;" width="203" x="35.7008" y="173"/><ellipse cx="50.7008" cy="189" fill="#ADD1B2" rx="11" ry="11" style="stroke:#A80036;stroke-width:1.0;"/><path d="M53.0445,184.6719 C52.107,184.2344 51.5133,184.0938 50.6383,184.0938 C48.0133,184.0938 46.0133,186.1719 46.0133,188.8906 L46.0133,190.0156 C46.0133,192.5938 48.1226,194.4844 51.0133,194.4844 C52.232,194.4844 53.3883,194.1875 54.1383,193.6406 C54.7164,193.2344 55.0445,192.7813 55.0445,192.3906 C55.0445,191.9375 54.6539,191.5469 54.1851,191.5469 C53.9664,191.5469 53.7633,191.625 53.5758,191.8125 C53.1226,192.2969 53.1226,192.2969 52.9351,192.3906 C52.5133,192.6563 51.8258,192.7813 51.0601,192.7813 C49.0133,192.7813 47.7164,191.6875 47.7164,189.9844 L47.7164,188.8906 C47.7164,187.1094 48.9664,185.7969 50.7008,185.7969 C51.2789,185.7969 51.8883,185.9531 52.357,186.2031 C52.8414,186.4844 53.0133,186.7031 53.107,187.1094 C53.1695,187.5156 53.2008,187.6406 53.3414,187.7656 C53.482,187.9063 53.7164,188.0156 53.9351,188.0156 C54.2008,188.0156 54.4664,187.875 54.6383,187.6563 C54.7476,187.5 54.7789,187.3125 54.7789,186.8906 L54.7789,185.4688 C54.7789,185.0313 54.7633,184.9063 54.6695,184.75 C54.5133,184.4844 54.232,184.3438 53.9351,184.3438 C53.6383,184.3438 53.4351,184.4375 53.2164,184.75 L53.0445,184.6719 Z " fill="#000000"/><text fill="#000000" font-family="sans-serif" font-size="12" lengthAdjust="spacing" textLength="171" x="64.7008" y="193.1543">ValidateWorkDoneController</text><line style="stroke:#A80036;stroke-width:1.5;" x1="36.7008" x2="237.7008" y1="205" y2="205"/><line style="stroke:#A80036;stroke-width:1.5;" x1="36.7008" x2="237.7008" y1="213" y2="213"/><text fill="#000000" font-family="sans-serif" font-size="11" lengthAdjust="spacing" textLength="67" x="41.7008" y="227.2104">+getTests()</text><text fill="#000000" font-family="sans-serif" font-size="11" lengthAdjust="spacing" textLength="110" x="41.7008" y="240.0151">+validateTest(test)</text><!--MD5=[02e4b9b7573f1156f41e60aa5b4e25a4]
class Company--><rect codeLine="26" fill="#FEFECE" filter="url(#fyk4v8ibmacse)" height="73.6094" id="Company" style="stroke:#A80036;stroke-width:1.5;" width="119" x="77.7008" y="495"/><ellipse cx="106.6508" cy="511" fill="#ADD1B2" rx="11" ry="11" style="stroke:#A80036;stroke-width:1.0;"/><path d="M108.9945,506.6719 C108.057,506.2344 107.4633,506.0938 106.5883,506.0938 C103.9633,506.0938 101.9633,508.1719 101.9633,510.8906 L101.9633,512.0156 C101.9633,514.5938 104.0726,516.4844 106.9633,516.4844 C108.182,516.4844 109.3383,516.1875 110.0883,515.6406 C110.6664,515.2344 110.9945,514.7813 110.9945,514.3906 C110.9945,513.9375 110.6039,513.5469 110.1351,513.5469 C109.9164,513.5469 109.7133,513.625 109.5258,513.8125 C109.0726,514.2969 109.0726,514.2969 108.8851,514.3906 C108.4633,514.6563 107.7758,514.7813 107.0101,514.7813 C104.9633,514.7813 103.6664,513.6875 103.6664,511.9844 L103.6664,510.8906 C103.6664,509.1094 104.9164,507.7969 106.6508,507.7969 C107.2289,507.7969 107.8383,507.9531 108.307,508.2031 C108.7914,508.4844 108.9633,508.7031 109.057,509.1094 C109.1195,509.5156 109.1508,509.6406 109.2914,509.7656 C109.432,509.9063 109.6664,510.0156 109.8851,510.0156 C110.1508,510.0156 110.4164,509.875 110.5883,509.6563 C110.6976,509.5 110.7289,509.3125 110.7289,508.8906 L110.7289,507.4688 C110.7289,507.0313 110.7133,506.9063 110.6195,506.75 C110.4633,506.4844 110.182,506.3438 109.8851,506.3438 C109.5883,506.3438 109.3851,506.4375 109.1664,506.75 L108.9945,506.6719 Z " fill="#000000"/><text fill="#000000" font-family="sans-serif" font-size="12" lengthAdjust="spacing" textLength="56" x="123.7508" y="515.1543">Company</text><line style="stroke:#A80036;stroke-width:1.5;" x1="78.7008" x2="195.7008" y1="527" y2="527"/><text fill="#000000" font-family="sans-serif" font-size="11" lengthAdjust="spacing" textLength="107" x="83.7008" y="541.2104">-String designation</text><line style="stroke:#A80036;stroke-width:1.5;" x1="78.7008" x2="195.7008" y1="547.8047" y2="547.8047"/><text fill="#000000" font-family="sans-serif" font-size="11" lengthAdjust="spacing" textLength="92" x="83.7008" y="562.0151">+getTestStore()</text><!--MD5=[df38be88ccee13e832d6fafd6288a4ca]
class Test--><rect codeLine="33" fill="#FEFECE" filter="url(#fyk4v8ibmacse)" height="163.2422" id="Test" style="stroke:#A80036;stroke-width:1.5;" width="185" x="152.7008" y="818"/><ellipse cx="227.9508" cy="834" fill="#ADD1B2" rx="11" ry="11" style="stroke:#A80036;stroke-width:1.0;"/><path d="M230.2945,829.6719 C229.357,829.2344 228.7633,829.0938 227.8883,829.0938 C225.2633,829.0938 223.2633,831.1719 223.2633,833.8906 L223.2633,835.0156 C223.2633,837.5938 225.3726,839.4844 228.2633,839.4844 C229.482,839.4844 230.6383,839.1875 231.3883,838.6406 C231.9664,838.2344 232.2945,837.7813 232.2945,837.3906 C232.2945,836.9375 231.9039,836.5469 231.4351,836.5469 C231.2164,836.5469 231.0133,836.625 230.8258,836.8125 C230.3726,837.2969 230.3726,837.2969 230.1851,837.3906 C229.7633,837.6563 229.0758,837.7813 228.3101,837.7813 C226.2633,837.7813 224.9664,836.6875 224.9664,834.9844 L224.9664,833.8906 C224.9664,832.1094 226.2164,830.7969 227.9508,830.7969 C228.5289,830.7969 229.1383,830.9531 229.607,831.2031 C230.0914,831.4844 230.2633,831.7031 230.357,832.1094 C230.4195,832.5156 230.4508,832.6406 230.5914,832.7656 C230.732,832.9063 230.9664,833.0156 231.1851,833.0156 C231.4508,833.0156 231.7164,832.875 231.8883,832.6563 C231.9976,832.5 232.0289,832.3125 232.0289,831.8906 L232.0289,830.4688 C232.0289,830.0313 232.0133,829.9063 231.9195,829.75 C231.7633,829.4844 231.482,829.3438 231.1851,829.3438 C230.8883,829.3438 230.6851,829.4375 230.4664,829.75 L230.2945,829.6719 Z " fill="#000000"/><text fill="#000000" font-family="sans-serif" font-size="12" lengthAdjust="spacing" textLength="26" x="248.4508" y="838.1543">Test</text><line style="stroke:#A80036;stroke-width:1.5;" x1="153.7008" x2="336.7007" y1="850" y2="850"/><text fill="#000000" font-family="sans-serif" font-size="11" lengthAdjust="spacing" textLength="50" x="158.7008" y="864.2104">-int code</text><text fill="#000000" font-family="sans-serif" font-size="11" lengthAdjust="spacing" textLength="91" x="158.7008" y="877.0151">-String nhsCode</text><text fill="#000000" font-family="sans-serif" font-size="11" lengthAdjust="spacing" textLength="173" x="158.7008" y="889.8198">-List &lt;TestType&gt; listTestType</text><text fill="#000000" font-family="sans-serif" font-size="11" lengthAdjust="spacing" textLength="92" x="158.7008" y="902.6245">-Date createdAt</text><text fill="#000000" font-family="sans-serif" font-size="11" lengthAdjust="spacing" textLength="103" x="158.7008" y="915.4292">-Date resultRegist</text><line style="stroke:#A80036;stroke-width:1.5;" x1="153.7008" x2="336.7007" y1="922.0234" y2="922.0234"/><text fill="#000000" font-family="sans-serif" font-size="11" lengthAdjust="spacing" textLength="42" x="158.7008" y="936.2339">+Test()</text><text fill="#000000" font-family="sans-serif" font-size="11" lengthAdjust="spacing" textLength="94" x="158.7008" y="949.0386">+getCreatedAt()</text><text fill="#000000" font-family="sans-serif" font-size="11" lengthAdjust="spacing" textLength="106" x="158.7008" y="961.8433">+getResultRegist()</text><text fill="#000000" font-family="sans-serif" font-size="11" lengthAdjust="spacing" textLength="88" x="158.7008" y="974.6479">+validateTest()</text><!--MD5=[0f6f7964b844a64b0496af0dda7914bd]
class TestStore--><rect codeLine="45" fill="#FEFECE" filter="url(#fyk4v8ibmacse)" height="73.6094" id="TestStore" style="stroke:#A80036;stroke-width:1.5;" width="156" x="77.2008" y="667"/><ellipse cx="121.4508" cy="683" fill="#ADD1B2" rx="11" ry="11" style="stroke:#A80036;stroke-width:1.0;"/><path d="M123.7945,678.6719 C122.857,678.2344 122.2633,678.0938 121.3883,678.0938 C118.7633,678.0938 116.7633,680.1719 116.7633,682.8906 L116.7633,684.0156 C116.7633,686.5938 118.8726,688.4844 121.7633,688.4844 C122.982,688.4844 124.1383,688.1875 124.8883,687.6406 C125.4664,687.2344 125.7945,686.7813 125.7945,686.3906 C125.7945,685.9375 125.4039,685.5469 124.9351,685.5469 C124.7164,685.5469 124.5133,685.625 124.3258,685.8125 C123.8726,686.2969 123.8726,686.2969 123.6851,686.3906 C123.2633,686.6563 122.5758,686.7813 121.8101,686.7813 C119.7633,686.7813 118.4664,685.6875 118.4664,683.9844 L118.4664,682.8906 C118.4664,681.1094 119.7164,679.7969 121.4508,679.7969 C122.0289,679.7969 122.6383,679.9531 123.107,680.2031 C123.5914,680.4844 123.7633,680.7031 123.857,681.1094 C123.9195,681.5156 123.9508,681.6406 124.0914,681.7656 C124.232,681.9063 124.4664,682.0156 124.6851,682.0156 C124.9508,682.0156 125.2164,681.875 125.3883,681.6563 C125.4976,681.5 125.5289,681.3125 125.5289,680.8906 L125.5289,679.4688 C125.5289,679.0313 125.5133,678.9063 125.4195,678.75 C125.2633,678.4844 124.982,678.3438 124.6851,678.3438 C124.3883,678.3438 124.1851,678.4375 123.9664,678.75 L123.7945,678.6719 Z " fill="#000000"/><text fill="#000000" font-family="sans-serif" font-size="12" lengthAdjust="spacing" textLength="59" x="141.9508" y="687.1543">TestStore</text><line style="stroke:#A80036;stroke-width:1.5;" x1="78.2008" x2="232.2008" y1="699" y2="699"/><line style="stroke:#A80036;stroke-width:1.5;" x1="78.2008" x2="232.2008" y1="707" y2="707"/><text fill="#000000" font-family="sans-serif" font-size="11" lengthAdjust="spacing" textLength="136" x="83.2008" y="721.2104">+getTestByCode(Code)</text><text fill="#000000" font-family="sans-serif" font-size="11" lengthAdjust="spacing" textLength="144" x="83.2008" y="734.0151">+validateWorkDone(test)</text><!--MD5=[f00dbe8c0302c6aec2cb26b3c659c8fc]
class Report--><rect codeLine="71" fill="#FEFECE" filter="url(#fyk4v8ibmacse)" height="73.6094" id="Report" style="stroke:#A80036;stroke-width:1.5;" width="106" x="232.2008" y="495"/><ellipse cx="262.5008" cy="511" fill="#ADD1B2" rx="11" ry="11" style="stroke:#A80036;stroke-width:1.0;"/><path d="M264.8445,506.6719 C263.907,506.2344 263.3133,506.0938 262.4383,506.0938 C259.8133,506.0938 257.8133,508.1719 257.8133,510.8906 L257.8133,512.0156 C257.8133,514.5938 259.9226,516.4844 262.8133,516.4844 C264.032,516.4844 265.1883,516.1875 265.9383,515.6406 C266.5164,515.2344 266.8445,514.7813 266.8445,514.3906 C266.8445,513.9375 266.4539,513.5469 265.9851,513.5469 C265.7664,513.5469 265.5633,513.625 265.3758,513.8125 C264.9226,514.2969 264.9226,514.2969 264.7351,514.3906 C264.3133,514.6563 263.6258,514.7813 262.8601,514.7813 C260.8133,514.7813 259.5164,513.6875 259.5164,511.9844 L259.5164,510.8906 C259.5164,509.1094 260.7664,507.7969 262.5008,507.7969 C263.0789,507.7969 263.6883,507.9531 264.157,508.2031 C264.6414,508.4844 264.8133,508.7031 264.907,509.1094 C264.9695,509.5156 265.0008,509.6406 265.1414,509.7656 C265.282,509.9063 265.5164,510.0156 265.7351,510.0156 C266.0008,510.0156 266.2664,509.875 266.4383,509.6563 C266.5476,509.5 266.5789,509.3125 266.5789,508.8906 L266.5789,507.4688 C266.5789,507.0313 266.5633,506.9063 266.4695,506.75 C266.3133,506.4844 266.032,506.3438 265.7351,506.3438 C265.4383,506.3438 265.2351,506.4375 265.0164,506.75 L264.8445,506.6719 Z " fill="#000000"/><text fill="#000000" font-family="sans-serif" font-size="12" lengthAdjust="spacing" textLength="40" x="279.9008" y="515.1543">Report</text><line style="stroke:#A80036;stroke-width:1.5;" x1="233.2008" x2="337.2007" y1="527" y2="527"/><text fill="#000000" font-family="sans-serif" font-size="11" lengthAdjust="spacing" textLength="92" x="238.2008" y="541.2104">-Date createdAt</text><line style="stroke:#A80036;stroke-width:1.5;" x1="233.2008" x2="337.2007" y1="547.8047" y2="547.8047"/><text fill="#000000" font-family="sans-serif" font-size="11" lengthAdjust="spacing" textLength="94" x="238.2008" y="562.0151">+getCreatedAt()</text><!--MD5=[ed6624c6556d5e7b1bd23032162d20b7]
class Client--><rect codeLine="76" fill="#FEFECE" filter="url(#fyk4v8ibmacse)" height="60.8047" id="Client" style="stroke:#A80036;stroke-width:1.5;" width="94" x="198.2008" y="1042"/><ellipse cx="226.2508" cy="1058" fill="#ADD1B2" rx="11" ry="11" style="stroke:#A80036;stroke-width:1.0;"/><path d="M228.5945,1053.6719 C227.657,1053.2344 227.0633,1053.0938 226.1883,1053.0938 C223.5633,1053.0938 221.5633,1055.1719 221.5633,1057.8906 L221.5633,1059.0156 C221.5633,1061.5938 223.6726,1063.4844 226.5633,1063.4844 C227.782,1063.4844 228.9383,1063.1875 229.6883,1062.6406 C230.2664,1062.2344 230.5945,1061.7813 230.5945,1061.3906 C230.5945,1060.9375 230.2039,1060.5469 229.7351,1060.5469 C229.5164,1060.5469 229.3133,1060.625 229.1258,1060.8125 C228.6726,1061.2969 228.6726,1061.2969 228.4851,1061.3906 C228.0633,1061.6563 227.3758,1061.7813 226.6101,1061.7813 C224.5633,1061.7813 223.2664,1060.6875 223.2664,1058.9844 L223.2664,1057.8906 C223.2664,1056.1094 224.5164,1054.7969 226.2508,1054.7969 C226.8289,1054.7969 227.4383,1054.9531 227.907,1055.2031 C228.3914,1055.4844 228.5633,1055.7031 228.657,1056.1094 C228.7195,1056.5156 228.7508,1056.6406 228.8914,1056.7656 C229.032,1056.9063 229.2664,1057.0156 229.4851,1057.0156 C229.7508,1057.0156 230.0164,1056.875 230.1883,1056.6563 C230.2976,1056.5 230.3289,1056.3125 230.3289,1055.8906 L230.3289,1054.4688 C230.3289,1054.0313 230.3133,1053.9063 230.2195,1053.75 C230.0633,1053.4844 229.782,1053.3438 229.4851,1053.3438 C229.1883,1053.3438 228.9851,1053.4375 228.7664,1053.75 L228.5945,1053.6719 Z " fill="#000000"/><text fill="#000000" font-family="sans-serif" font-size="12" lengthAdjust="spacing" textLength="33" x="243.1508" y="1062.1543">Client</text><line style="stroke:#A80036;stroke-width:1.5;" x1="199.2008" x2="291.2007" y1="1074" y2="1074"/><line style="stroke:#A80036;stroke-width:1.5;" x1="199.2008" x2="291.2007" y1="1082" y2="1082"/><text fill="#000000" font-family="sans-serif" font-size="11" lengthAdjust="spacing" textLength="82" x="204.2008" y="1096.2104">+notifyClient()</text><!--MD5=[144698ec4d0188f6929a3b58a3eeb1f6]
class TestMapper--><rect codeLine="60" fill="#FEFECE" filter="url(#fyk4v8ibmacse)" height="60.8047" id="TestMapper" style="stroke:#A80036;stroke-width:1.5;" width="104" x="314.2008" y="331"/><ellipse cx="329.2008" cy="347" fill="#ADD1B2" rx="11" ry="11" style="stroke:#A80036;stroke-width:1.0;"/><path d="M331.5445,342.6719 C330.607,342.2344 330.0133,342.0938 329.1383,342.0938 C326.5133,342.0938 324.5133,344.1719 324.5133,346.8906 L324.5133,348.0156 C324.5133,350.5938 326.6226,352.4844 329.5133,352.4844 C330.732,352.4844 331.8883,352.1875 332.6383,351.6406 C333.2164,351.2344 333.5445,350.7813 333.5445,350.3906 C333.5445,349.9375 333.1539,349.5469 332.6851,349.5469 C332.4664,349.5469 332.2633,349.625 332.0758,349.8125 C331.6226,350.2969 331.6226,350.2969 331.4351,350.3906 C331.0133,350.6563 330.3258,350.7813 329.5601,350.7813 C327.5133,350.7813 326.2164,349.6875 326.2164,347.9844 L326.2164,346.8906 C326.2164,345.1094 327.4664,343.7969 329.2008,343.7969 C329.7789,343.7969 330.3883,343.9531 330.857,344.2031 C331.3414,344.4844 331.5133,344.7031 331.607,345.1094 C331.6695,345.5156 331.7008,345.6406 331.8414,345.7656 C331.982,345.9063 332.2164,346.0156 332.4351,346.0156 C332.7008,346.0156 332.9664,345.875 333.1383,345.6563 C333.2476,345.5 333.2789,345.3125 333.2789,344.8906 L333.2789,343.4688 C333.2789,343.0313 333.2633,342.9063 333.1695,342.75 C333.0133,342.4844 332.732,342.3438 332.4351,342.3438 C332.1383,342.3438 331.9351,342.4375 331.7164,342.75 L331.5445,342.6719 Z " fill="#000000"/><text fill="#000000" font-family="sans-serif" font-size="12" lengthAdjust="spacing" textLength="72" x="343.2008" y="351.1543">TestMapper</text><line style="stroke:#A80036;stroke-width:1.5;" x1="315.2008" x2="417.2008" y1="363" y2="363"/><line style="stroke:#A80036;stroke-width:1.5;" x1="315.2008" x2="417.2008" y1="371" y2="371"/><text fill="#000000" font-family="sans-serif" font-size="11" lengthAdjust="spacing" textLength="76" x="320.2008" y="385.2104">+toDtoDate()</text><!--MD5=[3787f20f4b23ef216427bf01315aa659]
class TestDtoDate--><rect codeLine="64" fill="#FEFECE" filter="url(#fyk4v8ibmacse)" height="112.0234" id="TestDtoDate" style="stroke:#A80036;stroke-width:1.5;" width="129" x="394.7008" y="476"/><ellipse cx="419.6008" cy="492" fill="#ADD1B2" rx="11" ry="11" style="stroke:#A80036;stroke-width:1.0;"/><path d="M421.9445,487.6719 C421.007,487.2344 420.4133,487.0938 419.5383,487.0938 C416.9133,487.0938 414.9133,489.1719 414.9133,491.8906 L414.9133,493.0156 C414.9133,495.5938 417.0226,497.4844 419.9133,497.4844 C421.132,497.4844 422.2883,497.1875 423.0383,496.6406 C423.6164,496.2344 423.9445,495.7813 423.9445,495.3906 C423.9445,494.9375 423.5539,494.5469 423.0851,494.5469 C422.8664,494.5469 422.6633,494.625 422.4758,494.8125 C422.0226,495.2969 422.0226,495.2969 421.8351,495.3906 C421.4133,495.6563 420.7258,495.7813 419.9601,495.7813 C417.9133,495.7813 416.6164,494.6875 416.6164,492.9844 L416.6164,491.8906 C416.6164,490.1094 417.8664,488.7969 419.6008,488.7969 C420.1789,488.7969 420.7883,488.9531 421.257,489.2031 C421.7414,489.4844 421.9133,489.7031 422.007,490.1094 C422.0695,490.5156 422.1008,490.6406 422.2414,490.7656 C422.382,490.9063 422.6164,491.0156 422.8351,491.0156 C423.1008,491.0156 423.3664,490.875 423.5383,490.6563 C423.6476,490.5 423.6789,490.3125 423.6789,489.8906 L423.6789,488.4688 C423.6789,488.0313 423.6633,487.9063 423.5695,487.75 C423.4133,487.4844 423.132,487.3438 422.8351,487.3438 C422.5383,487.3438 422.3351,487.4375 422.1164,487.75 L421.9445,487.6719 Z " fill="#000000"/><text fill="#000000" font-family="sans-serif" font-size="12" lengthAdjust="spacing" textLength="75" x="435.8008" y="496.1543">TestDtoDate</text><line style="stroke:#A80036;stroke-width:1.5;" x1="395.7008" x2="522.7008" y1="508" y2="508"/><text fill="#000000" font-family="sans-serif" font-size="11" lengthAdjust="spacing" textLength="71" x="400.7008" y="522.2104">-String Code</text><text fill="#000000" font-family="sans-serif" font-size="11" lengthAdjust="spacing" textLength="96" x="400.7008" y="535.0151">-Date registDate</text><text fill="#000000" font-family="sans-serif" font-size="11" lengthAdjust="spacing" textLength="110" x="400.7008" y="547.8198">-Date analysisDate</text><text fill="#000000" font-family="sans-serif" font-size="11" lengthAdjust="spacing" textLength="117" x="400.7008" y="560.6245">-Date diagnosisDate</text><line style="stroke:#A80036;stroke-width:1.5;" x1="395.7008" x2="522.7008" y1="567.2188" y2="567.2188"/><text fill="#000000" font-family="sans-serif" font-size="11" lengthAdjust="spacing" textLength="90" x="400.7008" y="581.4292">+TestDtoDate()</text><!--MD5=[001d459faaea6399543a04750678f0ab]
link ValidateWorkDoneUI to ValidateWorkDoneController--><path codeLine="81" d="M137.2008,89.29 C137.2008,110.51 137.2008,142.337 137.2008,167.839 " fill="none" id="ValidateWorkDoneUI-to-ValidateWorkDoneController" style="stroke:#A80036;stroke-width:1.0;stroke-dasharray:7.0,7.0;"/><polygon fill="#A80036" points="137.2008,172.85,141.2008,163.85,137.2008,167.85,133.2008,163.85,137.2008,172.85" style="stroke:#A80036;stroke-width:1.0;"/><!--MD5=[506ef67715507d04377eaf4a0302e92d]
link ValidateWorkDoneController to TestStore--><path codeLine="82" d="M116.7788,247.075 C78.827,319.171 6,485.026 60.2008,612 C68.5907,631.655 83.5391,649.099 99.1308,663.322 " fill="none" id="ValidateWorkDoneController-to-TestStore" style="stroke:#A80036;stroke-width:1.0;stroke-dasharray:7.0,7.0;"/><polygon fill="#A80036" points="103.1051,666.869,99.0539,657.8919,99.3747,663.5397,93.7269,663.8605,103.1051,666.869" style="stroke:#A80036;stroke-width:1.0;"/><!--MD5=[da71f009ae07e4258c9c1bb20e96cde0]
link ValidateWorkDoneController to Company--><path codeLine="83" d="M137.2008,247.086 C137.2008,306.864 137.2008,426.101 137.2008,489.355 " fill="none" id="ValidateWorkDoneController-to-Company" style="stroke:#A80036;stroke-width:1.0;stroke-dasharray:7.0,7.0;"/><polygon fill="#A80036" points="137.2008,494.555,141.2008,485.555,137.2008,489.555,133.2008,485.555,137.2008,494.555" style="stroke:#A80036;stroke-width:1.0;"/><!--MD5=[f4db34bc6292bb027996a0e65c908adc]
link ValidateWorkDoneController to TestMapper--><path codeLine="84" d="M192.6358,247.19 C230.4138,271.853 280.0048,304.228 316.5008,328.054 " fill="none" id="ValidateWorkDoneController-to-TestMapper" style="stroke:#A80036;stroke-width:1.0;stroke-dasharray:7.0,7.0;"/><polygon fill="#A80036" points="320.8848,330.916,315.5343,322.6473,316.6977,328.1832,311.1617,329.3466,320.8848,330.916" style="stroke:#A80036;stroke-width:1.0;"/><!--MD5=[8d9a2c3ea1bf73d8d45b939465e53fff]
link TestMapper to Test--><path codeLine="85" d="M418.5838,368.195 C459.3018,375.683 513.2458,392.995 540.2008,433 C584.6547,498.976 570.6458,538.5 540.2008,612 C500.7558,707.228 411.9768,786.168 342.0538,836.904 " fill="none" id="TestMapper-to-Test" style="stroke:#A80036;stroke-width:1.0;stroke-dasharray:7.0,7.0;"/><polygon fill="#A80036" points="337.8978,839.903,347.5366,837.88,341.9523,836.9771,342.8552,831.3928,337.8978,839.903" style="stroke:#A80036;stroke-width:1.0;"/><!--MD5=[c012175ee975a5bd02ff75a360be086e]
link TestMapper to TestDtoDate--><path codeLine="86" d="M382.6128,392.237 C394.6408,414.029 411.3748,444.348 426.1338,471.089 " fill="none" id="TestMapper-to-TestDtoDate" style="stroke:#A80036;stroke-width:1.0;stroke-dasharray:7.0,7.0;"/><polygon fill="#A80036" points="428.6748,475.692,427.8281,465.8796,426.2588,471.3144,420.824,469.7451,428.6748,475.692" style="stroke:#A80036;stroke-width:1.0;"/><!--MD5=[54a054b5639f006c556065428f642b72]
link TestMapper to Report--><path codeLine="87" d="M351.9058,392.237 C338.8438,419.41 319.4078,459.842 304.8798,490.062 " fill="none" id="TestMapper-to-Report" style="stroke:#A80036;stroke-width:1.0;stroke-dasharray:7.0,7.0;"/><polygon fill="#A80036" points="302.5928,494.821,310.0985,488.4442,304.76,490.3151,302.889,484.9766,302.5928,494.821" style="stroke:#A80036;stroke-width:1.0;"/><!--MD5=[3f3d46f072b1a3221bb9c14ad1e2a83d]
link TestDtoDate to Test--><path codeLine="88" d="M436.4458,588.11 C413.6058,641.07 375.9028,722.494 334.2008,788 C328.7438,796.571 322.7348,805.25 316.4938,813.778 " fill="none" id="TestDtoDate-to-Test" style="stroke:#A80036;stroke-width:1.0;stroke-dasharray:7.0,7.0;"/><polygon fill="#A80036" points="313.4118,817.951,321.9753,813.0863,316.3815,813.9285,315.5393,808.3347,313.4118,817.951" style="stroke:#A80036;stroke-width:1.0;"/><!--MD5=[3994f36c72829dbcddd1cf7021dddf61]
link Test to Client--><path codeLine="89" d="M245.2008,981.243 C245.2008,1000.666 245.2008,1020.418 245.2008,1036.4715 " fill="none" id="Test-to-Client" style="stroke:#A80036;stroke-width:1.0;"/><polygon fill="#A80036" points="245.2008,1041.7683,249.2008,1032.7683,245.2008,1036.7683,241.2008,1032.7683,245.2008,1041.7683" style="stroke:#A80036;stroke-width:1.0;"/><!--MD5=[b0f4f6db8206580012ef9cd998ed01c5]
link TestStore to Test--><path codeLine="90" d="M172.1288,741.396 C181.5728,761.699 193.7618,787.907 205.4688,813.077 " fill="none" id="TestStore-to-Test" style="stroke:#A80036;stroke-width:1.0;"/><polygon fill="#A80036" points="207.6488,817.763,207.4796,807.9156,205.5399,813.2295,200.226,811.2898,207.6488,817.763" style="stroke:#A80036;stroke-width:1.0;"/><text fill="#000000" font-family="sans-serif" font-size="13" lengthAdjust="spacing" textLength="132" x="193.2008" y="784.0669">capable of analysing</text><text fill="#000000" font-family="sans-serif" font-size="13" lengthAdjust="spacing" textLength="8" x="166.1891" y="760.6599">1</text><text fill="#000000" font-family="sans-serif" font-size="13" lengthAdjust="spacing" textLength="7" x="196.9926" y="806.8774">*</text><!--MD5=[7f6cf7f175eae0af66201860de5de971]
link Company to TestStore--><path codeLine="91" d="M141.0178,569.053 C143.8938,596.212 147.8407,633.485 150.8398,661.817 " fill="none" id="Company-to-TestStore" style="stroke:#A80036;stroke-width:1.0;"/><polygon fill="#A80036" points="151.3888,666.999,154.4204,657.6284,150.8631,662.0267,146.4647,658.4694,151.3888,666.999" style="stroke:#A80036;stroke-width:1.0;"/><text fill="#000000" font-family="sans-serif" font-size="13" lengthAdjust="spacing" textLength="30" x="149.2008" y="633.0669">uses</text><text fill="#000000" font-family="sans-serif" font-size="13" lengthAdjust="spacing" textLength="8" x="132.9874" y="588.5423">1</text><text fill="#000000" font-family="sans-serif" font-size="13" lengthAdjust="spacing" textLength="8" x="141.9484" y="655.9093">1</text><!--MD5=[ad747efe785c20a274fad0784414eb10]
@startuml
skinparam classAttributeIconSize 0
package UI  {
  class ValidateWorkDoneUI
}

package Controllers {
  class ValidateWorkDoneController
}

package Domain {
  class Company
  class Test
  class TestStore
  class Report
  class Client
}

package Mappers {
  class TestMapper
}

package Dto {
  class TestDtoDate
}

class Company
{
  -String designation
  +getTestStore()
}


class Test {
  -int code
  -String nhsCode
  -List <TestType> listTestType
  -Date createdAt
  -Date resultRegist
  +Test()
  +getCreatedAt()
  +getResultRegist()
  +validateTest()
}

class TestStore {
  +getTestByCode(Code)
  +validateWorkDone(test)
}


class ValidateWorkDoneController {
  +getTests()
  +validateTest(test)
}

class ValidateWorkDoneUI {

}

class TestMapper {
   +toDtoDate()
}

class TestDtoDate {
  -String Code
  -Date registDate
  -Date analysisDate
  -Date diagnosisDate
  +TestDtoDate()
}
class Report {
  -Date createdAt
  +getCreatedAt()
}

class Client {
  +notifyClient()
}


ValidateWorkDoneUI ..> ValidateWorkDoneController
ValidateWorkDoneController ..> TestStore
ValidateWorkDoneController ..> Company
ValidateWorkDoneController ..> TestMapper
TestMapper ..> Test
TestMapper ..> TestDtoDate
TestMapper ..> Report
TestDtoDate ..> Test
Test - -> Client
TestStore "1" - -> "*" Test : capable of analysing
Company "1" - -> "1" TestStore : uses
@enduml

PlantUML version 1.2021.7(Sun May 23 12:40:07 UTC 2021)
(GPL source distribution)
Java Runtime: Java(TM) SE Runtime Environment
JVM: Java HotSpot(TM) 64-Bit Server VM
Default Encoding: UTF-8
Language: en
Country: US
--></g></svg>